<svg xmlns="http://www.w3.org/2000/svg" xmlns:xlink="http://www.w3.org/1999/xlink" viewBox="0 0 1600 900"><defs><style>.cls-1{fill:none;}.cls-2{clip-path:url(#clip-path);}.cls-3{fill:#1e5229;}.cls-4{fill:#1a4122;}.cls-5{fill:#2b7a44;}.cls-6{opacity:0.62;}.cls-7{fill:#102c16;}.cls-8{fill:#0e2312;}.cls-9{clip-path:url(#clip-path-2);}.cls-10{fill:#174226;}.cls-11{opacity:0.59;}.cls-12{clip-path:url(#clip-path-3);}.cls-13{fill:#031c0f;}.cls-14{clip-path:url(#clip-path-4);}.cls-15{fill:#448430;}.cls-16{fill:#395620;}.cls-17{fill:#164233;}.cls-18{fill:#072a18;}.cls-19{clip-path:url(#clip-path-5);}.cls-20{fill:#0e3a3b;}.cls-21{fill:#126624;}.cls-22{fill:#0a3f25;}.cls-23{fill:#0f331e;}.cls-24{fill:#082815;}.cls-25{clip-path:url(#clip-path-6);}.cls-26{clip-path:url(#clip-path-7);}.cls-27{clip-path:url(#clip-path-8);}</style><clipPath id="clip-path"><polyline class="cls-1" points="-20 0 -20 900 -1620 900 -1620 0"/></clipPath><clipPath id="clip-path-2"><rect class="cls-1" x="-164.7" y="698.8" width="273.3" height="37.94" transform="translate(-727 552) rotate(-78.9)"/></clipPath><clipPath id="clip-path-3"><rect class="cls-1" x="-93.3" y="748.1" width="142.2" height="27.06" transform="matrix(0.19, -0.98, 0.98, 0.19, -765.31, 593.16)"/></clipPath><clipPath id="clip-path-4"><rect class="cls-1" width="1600" height="900"/></clipPath><clipPath id="clip-path-5"><rect class="cls-1" x="-19.2" y="643" width="30.9" height="234.02"/></clipPath><clipPath id="clip-path-6"><rect class="cls-1" x="812.7" y="894.2" width="107.2" height="87.53"/></clipPath><clipPath id="clip-path-7"><rect class="cls-1" x="357" y="864.5" width="156.5" height="21.86" transform="translate(-507.7 1133.9) rotate(-78.9)"/></clipPath><clipPath id="clip-path-8"><rect class="cls-1" x="397.9" y="892.8" width="81.4" height="15.59" transform="translate(-529.6 1157.5) rotate(-78.9)"/></clipPath></defs><g id="Forground_Elements1"><g class="cls-2"><path class="cls-3" d="M17,611.8C4.9,636.2-7,660.7-15.4,687.9c-26.2-28.2-9.5-107.9.8-143.6,6.7-23.4,16.4-45.2,29.1-63.3a144.1,144.1,0,0,1,20.9-24c3.8-3.4,21.1-11.2,22.8-15.9C47.9,470,47.6,500.7,43.5,531.8s-13.8,54.5-26.5,80"/><path class="cls-4" d="M56.2,444.8c-43.3,43-43.3,137.7-60.6,200.9-3.3,12.2-7.6,23.5-9,36.3-12-11.5-12.9-40.1-12.3-59.1a358.2,358.2,0,0,1,10-74.7c11.6-46.7,34.6-94,71.9-103.4"/><path class="cls-3" d="M4.9,656.3c-8.5,9.8-13.6,22.3-19.7,33.2C-26.7,658.6,3.8,612,12.9,584.6c12.7-38.2,30.8-65.5,60.5-76.1,12.4-4.4,24.3-9.1,36.4-13.9-17,32.9-36.3,62.9-52.4,96.2-14.6,30.1-32.8,43-52.5,65.5"/><path class="cls-4" d="M-.4,651.6c-5.8,12.4-11.8,24.9-16.5,38.3,4.2-12,1.5-34.9,6.6-50.2,6.4-19.3,16.7-35.8,23.2-55.1,12.7-38.2,30.8-65.5,60.5-76.1,10.6-3.7,21.1-8.7,31.7-12C63,510.7,22,603,.3,650c-.2.5-.5,1-.7,1.6"/><path class="cls-3" d="M140.1,588.9c-22,10.4-44.1,33.5-64.4,50-17.2,13.8-36.3,16.6-54,27.6-15,9.4-25.1,26.7-43.7,18.1,13.1,6,26.3-34.8,31.8-45.1C20.7,619.3,33.5,602.9,50,592s33.4-18,50.8-19.1c8-.4,36.8,17.2,39.3,16"/><path class="cls-4" d="M135,586.5C81.4,574.4,45.7,627.7,5.9,668.2c-10.1,10.3-18.3,21.2-31.3,23.9,20.6-4.3,24.8-33.2,35.2-52.6S33.5,602.9,50,592s33.4-18,50.7-19.1c10.4-.6,26.3,4.5,34.3,13.6"/><path class="cls-3" d="M-13.8,651.1c-3,12.5-5.7,21.1-5.4,34.3-44.4-50.2-39.3-156.7-11.3-219.6,6.2-13.8,13-26.6,22.4-36.6,14.6,65,10.2,156.9-5.7,221.9"/><path class="cls-5" d="M-6.1,678.1c-.2-.1-.3-3,.3-8.3A111.7,111.7,0,0,1-.4,648.2a236,236,0,0,1,13.1-29.4c5.4-10.6,11.8-21.8,17.7-34.3s12-24.2,18.3-34.2c3.1-5,6.3-9.5,9.4-13.6s6.2-7.6,9-10.8c5.6-6.5,10.5-11.2,14.3-13.9s5.9-3.4,6-3.2-2,1.6-5.4,4.6-8.1,7.9-13.4,14.5c-2.7,3.3-5.7,6.9-8.6,11s-6,8.6-9,13.6c-6.1,9.9-11.9,21.6-17.9,34s-12.5,23.9-18,34.3A261.2,261.2,0,0,0,1.6,649.3a125.3,125.3,0,0,0-6.2,20.8c-1,5.1-1.3,8-1.5,8"/><path class="cls-5" d="M77,534.2c.2.1-1.4,3.8-4.9,8.8a135.9,135.9,0,0,1-15.3,17.6c-6.4,6.2-12.2,11.6-16.3,15.8s-6.4,6.9-6.6,6.7,2-3.3,5.9-7.8,9.7-10.1,16-16.3a192.7,192.7,0,0,0,15.5-16.9c3.6-4.7,5.5-8,5.7-7.9"/><path class="cls-5" d="M53.9,445.7c.1.2-1,1.7-3,4.2S46,456.1,42.8,461a70,70,0,0,0-5,8.3c-.8,1.5-1.6,3.1-2.3,4.8s-1.5,3.6-2.2,5.5A219.2,219.2,0,0,0,25.5,505c-4.7,18.5-7.8,35.7-10.2,48s-4.1,20-4.5,19.9.4-7.8,2.3-20.4A483.3,483.3,0,0,1,22.5,504a208.3,208.3,0,0,1,8.2-25.9,47.2,47.2,0,0,1,2.4-5.6c.8-1.8,1.7-3.5,2.6-5.1a83.4,83.4,0,0,1,5.4-8.2,85.8,85.8,0,0,1,9-10.4c2.3-2.3,3.7-3.3,3.8-3.1"/><path class="cls-5" d="M43.8,487.9c.3.2-3.8,12.6-10.7,26.7S19.3,539,19,538.6s6-11,12.8-25,11.6-26,12-25.7"/><path class="cls-7" d="M-11.6,838.9c-6.3,14.3-14,26.6-22.3,28.1-22.5,4.1-22.7-70.7-26.6-92.6C-78.6,673-37,546.1,64.1,543.3c-30,39.2-42.2,91.7-45.3,143.6C16.6,723.4,14.5,760.1,4,794.6c-2.8,8.9-8.3,28-15.6,44.3"/><path class="cls-8" d="M-38.9,871.5c-20.6-55.4-14.4-107.6-4.6-162.9,9.4-53,46.3-133.1,92.4-154.1A414.3,414.3,0,0,0,18.8,686.9c-2.6,42-6.8,109.4-29.7,152.5-7.3,13.7-16.4,24.9-28,32.1"/><g class="cls-6"><g class="cls-9"><path class="cls-10" d="M-48.5,853.1c.4-.2-.6-4-2.2-10.9a152.5,152.5,0,0,1-3.8-29.7c-.1-3.1-.1-6.5,0-9.9s.6-7.1.9-10.8c.7-7.5,1.5-15.5,2.6-24a425.3,425.3,0,0,1,10-54.1,258.6,258.6,0,0,1,8.6-27c3.4-8.6,6.3-17.1,9.2-25,5.7-16,11.1-30.2,16.7-41.6S4.6,600.2,9.2,595s7.9-7.3,7.7-7.6-3.8,1.2-9,6.2S-3.5,607-9.5,618.4s-12,25.7-18,41.6c-3,8-5.9,16.3-9.4,24.9a247.5,247.5,0,0,0-8.8,27.6,389,389,0,0,0-9.8,54.9c-1,8.5-1.7,16.6-2.2,24.1-.2,3.8-.5,7.5-.5,11.1s0,6.9.2,10.2a127.2,127.2,0,0,0,5.5,30c2.1,6.8,3.7,10.4,4,10.3"/></g></g><g class="cls-11"><g class="cls-12"><path class="cls-5" d="M-48.8,828.9c.4.1,1.8-8,6.6-20.2,2.4-6.1,5.6-13.2,9.5-21s8.5-16,13.2-24.9,9.1-17.4,12.6-25.4a140,140,0,0,0,7.5-22c3.1-13,2.5-21.3,2.2-21.3s-.4,8.2-3.9,20.8A153.2,153.2,0,0,1-9,736.4c-3.5,7.9-7.9,16.4-12.6,25.2s-9.3,17.2-13.1,25.1A211.4,211.4,0,0,0-43.8,808c-4.4,12.6-5.3,20.9-5,20.9"/></g></g><path class="cls-13" d="M68,905c-23.8-46.8-7.9-87.6-7.9-87.6-30.3,14.9-47.9,48.5-32.4,95.8Z"/><path class="cls-13" d="M60.1,906.6c8.8-47.1,52.1-76.7,52.1-76.7S57,847.5,44.4,909.8Z"/><path class="cls-13" d="M49.8,908.7c.4-86.3,40.7-94.7,40.7-94.7S20.9,832.5,20.7,914.6Z"/><path class="cls-13" d="M-36.2,926.3c-27-126.1,50.3-159.5,50.3-159.5s-63.3,46.8-12,151.7Z"/><path class="cls-13" d="M21.5,914.5C-.8,832.5,52,797.9,52,797.9S-35.1,840.1-7.4,920.4Z"/></g></g><g id="Forground_Elements2"><g class="cls-14"><path class="cls-15" d="M-180.3,927c-5.5-6.7-19.4-10.6-21.4-20.2,37.3-37.8,73.9-93.1,103.2-139.1,11-17.1,21.5-33.6,32.3-51,9-14.5,19.5-27.9,29.8-41,20.3-26.1,39.9-50,62.6-72.6,9.4-9.3,17.3-20.7,26.6-29.8-.9,15-14.2,32-20.7,44.5-7.9,15-16.4,28.3-25,42.6-17.8,29.5-36.2,57.5-56.5,84.2s-40.4,45.3-60.2,70.6c-21.7,27.7-42.4,56.7-63,86-5.1,7.2-9.8,14.6-14.9,21.7-1-3-4-2.2-5.3-4.2Z"/><path class="cls-16" d="M-182.3,974c-5.4-9.9-20.6-19.8-21.8-31.7C-158.4,912.4-111.6,862-74,819.6c14-15.8,27.5-31.1,41.4-47.2,11.7-13.5,24.8-25.1,37.7-36.5,25.5-22.6,49.8-43.1,77.7-60.7,11.4-7.3,21.5-17.6,32.9-24.6-2.6,17.1-19.3,31.9-27.9,44-10.4,14.5-21.4,26.7-32.5,40.1-23,27.6-46.5,53.2-72,76.5s-50,37.5-74.8,59.4c-27.1,24-53.4,50-79.5,76.2-6.5,6.4-12.5,13.3-18.9,19.7-.8-3.9-4.3-4.1-5.5-6.9Z"/><path class="cls-16" d="M66.1,581.2l-30.7-6.4,3.5,19.9L26,580.4,7.5,588.9l5.7,18.3L1.5,592.9l-28.1,12.6,17.9,33.7-29.4-34.6-10.1,11.2,20.6,30.8-24.9-25-32.7,33.1,17.8,43.6L-92,669.8l-17.7,28.1,17.9,31.8-22.8-20.4c2.5,2.2-22.2,59.8-18.2,64.1s8.8,7.4,10.8,14.3c7.4-8.4,35.9-44.7,44.1-53.7,43.5-47.7,87.3-94.7,131-142.1C11.7,641.3-30.1,690-71,740.3c-15.4,18.9-32,34.1-45.9,52.9,6.8,6.3,9.5,12.1,15,23.8-1.1-5.4,19-17,21.5-18.6,6.6-4.3,10.2-9.3,15.5-17.1l-9.3-21.4L-61,776.4l22.8-28-3.2-18.9,6.8,14.9,18.3-14.9L-23,704.6l13,18.1,40.7-45.2-8.9-27.2,14,22.3,4-4.8L29.6,645.6l11.9,13.9L48,649.1l-7-27.9,12.6,19,10.3-19.8L51.8,607l14.6.2Z"/><path class="cls-16" d="M128.4,676.6l-18.3-17.9,22.1.3-.4-34.7-5.8-1.1a67.8,67.8,0,0,0-9.6,9.7l-4.8,6.2.4-.5-.6.7a54.1,54.1,0,0,1-7,7.3C44,709.7-16.8,772.2-76.5,836.7c-23.3,25.2-48.5,45.5-69.6,70.6,10.3,8.4,14.4,16.1,22.8,31.8-1.8-7.2,28.8-22.7,32.6-24.9,10-5.8,15.5-12.4,23.6-22.9l-14.2-28.4,20.1,22,34.6-37.4-4.8-25.2,10.2,19.9L6.6,822.3-3.6,789l19.8,24.1L78,752.9,64.4,716.5l21.4,29.8,6-6.4L76.3,710.3l18.1,18.5,10-13.9L93.6,677.7l19.2,25.4Z"/><path class="cls-8" d="M-148.2,912.2c-13.4,6.2-27,12.1-40,20.6,11.6-7.6,24-35,38.6-45,18.5-12.6,38.7-17.5,57.2-30.1,36.6-24.9,71-31.9,105.3-7.3,12.2,8.7,25.1,16,37,25.3-48-35.6-145.8,12.4-196.3,35.7l-1.8.8"/><path class="cls-15" d="M-77.8,673.7c23.8-34.6,26.9-89.8,55.9-116,20.5-18.4,34.1-44.3,56.2-58.2,4.7-3,19.2-15.9,24.5-13.7s-8.1,10.4-10.4,12.3C16.8,525.2,1.7,559.5-29,588.9-48.1,607.1-52.5,651-68.5,674l-5.6,8c-.7-2.5-2.1-3.2-3.2-5.3Z"/><path class="cls-7" d="M1575.2,774.8c17,12.4,33.8,25.2,48.6,43.4,13.6-47.7-23.1-107.4-41.8-131.8-12.3-16.1-26.6-28.2-42.4-34.4a64.7,64.7,0,0,0-24.1-4.8c-4.1,0-20.7,7.1-23.4,4.1,16.8,18.2,25.9,46.2,38.2,71.4s27,39,44.9,52.1"/><path class="cls-8" d="M1494.8,653.1c48.2,3.8,75.3,91.2,107.8,135.3,6.3,8.4,13,15.3,17.9,26,6.6-20.5-.9-47.6-6.8-64.7-7.8-22.6-17.9-43.4-29.7-60.6-23-33.5-55.7-58.2-89.2-36"/><path class="cls-7" d="M1597.9,805.8c9.9,2,17.7,9.3,25.9,14.3.9-38.3-37.6-56.2-53-73.9-21.5-24.7-44.3-35-72-20.1-11.5,6.1-22.6,11.5-34,17.1,23.4,16.4,48,28,70.9,45.5,20.7,15.7,39.5,12.6,62.2,17.1"/><path class="cls-7" d="M1611.9,785.5c6.1,9.1,10.8,14.8,14.4,27.2,22.3-83-12.5-176.9-53.8-211.8-9-7.7-18.4-13.8-29-15.3,6.6,72,36.6,153.1,68.4,199.9"/><path class="cls-8" d="M1572.5,600.9c-9-7.7-17.6-14.2-28.5-12.9,31.9,47.8,41.2,120.7,67.8,175.6,5.7,11.6,11.3,23.2,16.6,35.2,20.1-74.9-19.6-167.2-55.9-197.9"/><path class="cls-7" d="M1620.1,818.1a4.6,4.6,0,0,1-2.3-.2c-5.9-2.2-16.7-66.4-19.4-77.1-13.9-55.8-24-119.3-10.7-183,7.3-34.7,9.1-43.8,4.7-76.5,9,10.5,14.8,24.1,18,41.7,5.5,29.7,4.9,63.8,10,94,10.3,60.2,30.3,97.4,13.7,163.3-2.7,10.8-6,36.4-14,37.8"/><path class="cls-8" d="M1620.2,796.1c-26.3-78.6-19.7-173.9-20.5-263.6-.2-18.3-.1-39.5-6.9-53.8,6.4,14.7,14.6,27.8,17.6,44.3,5.2,28,4.6,58.6,8.8,87,3.6,24.6,12.6,43.6,17.5,67.3,6.2,30-1.8,51.3-8.7,82-2.8,12.3-4.7,24.7-7.8,36.8"/><path class="cls-10" d="M1613.3,816.7c.2-.2-.5-3-2.6-7.3a67.8,67.8,0,0,0-10.7-15.5c-5-5.6-11.6-11-19.2-16.3s-16.1-10.4-24.5-17-16.9-12.4-25-16.4a62.9,62.9,0,0,0-11.7-4.8,84.3,84.3,0,0,0-10.5-2.6c-6.5-1.3-12-1.6-15.8-1s-5.9,1.8-5.9,2,2.1-.2,5.8-.2,8.9.6,15.2,2.3a106,106,0,0,1,10.3,3.1,80.2,80.2,0,0,1,11.4,5.1c7.8,4.1,16,10.1,24.5,16.5s17.2,11.7,24.8,16.8a123.7,123.7,0,0,1,19.3,15.2,76,76,0,0,1,11.1,14c2.3,3.9,3.3,6.3,3.5,6.1"/><path class="cls-10" d="M1608.4,786.6c.2-.2-.7-2.9-2.1-7.8s-3.2-12.4-5.2-21.7c-1-4.7-2-9.8-3.3-15.3s-2.6-11.2-4-17.3c-2.8-12.3-5.6-25.9-8.9-40s-6.7-27.4-10.4-39a203.8,203.8,0,0,0-11.3-29.2,109.2,109.2,0,0,0-9.9-16.8c-2.7-3.5-4.4-5-4.5-4.8s5.7,8,12.7,23.7a259.5,259.5,0,0,1,10.5,29.4c3.5,11.5,6.9,24.7,10.1,38.8s6.2,27.6,9.2,39.8c1.4,6.1,2.9,11.8,4.2,17.2l3.7,15a187.9,187.9,0,0,0,6.1,21.1c1.7,4.8,2.9,7.1,3.1,6.9"/><path class="cls-10" d="M1566.2,668.5c-.1.2,1.5,3.6,3.9,9.3s5.6,13.7,9,22.6,6.7,17,9.2,22.6,4.4,8.6,4.5,8.4-1.3-3.7-3.6-9.4-5.4-13.9-8.8-22.9-6.8-16.9-9.4-22.4-4.6-8.4-4.8-8.2"/><path class="cls-10" d="M1608.7,755.8c.2-.1-.2-3.3-.7-9.2s-1-14.5-1.5-25.2c-1-21.6-4.4-50.5-6.1-83.1-.4-8.1-.7-16.1-.9-23.9,0-2,0-3.9-.1-5.8V603c0-3.8,0-7.4.1-11,.4-14.5,1.1-27.6,1.2-38.6s-.1-19.8-.6-25.7-1.1-9-1.3-8.9,0,3.4.2,9.4.2,14.7-.3,25.7-1.3,24-1.9,38.6c-.1,3.7-.2,7.4-.2,11.2v5.8c.1,1.9.1,3.8.1,5.8.1,7.8.4,15.9.8,24.1,1.8,32.9,5.4,61.6,6.9,82.8.8,10.6,1.7,19.2,2.5,25s1.6,8.8,1.8,8.6"/><path class="cls-3" d="M1596.5,888.1c-5.4,33.1-10.4,66-10.3,100.3-41.7-18-51.5-114.4-52.5-158.9-.7-29.2,2.7-58.1,11.2-84.5a188.4,188.4,0,0,1,15.9-36.9c3.3-5.7,21-23,21.3-29.1-1.5,37.1,9.5,71.2,16.1,107.5s4,67.1-1.7,101.6"/><path class="cls-4" d="M1581.1,684.1c-35.7,69.2-.4,173.7,2.5,252.2.6,15.1-.3,29.7,2.8,44.5-18.6-6.6-30.3-37.7-36.7-58.9a388.4,388.4,0,0,1-15.8-87.5c-3.6-57.4,6.3-121.2,47.2-150.3"/><path class="cls-3" d="M1598.6,943.3c-6.5,15.1-8,31.5-11.1,46.5-25.7-28.1-6.8-94.8-6.1-129.6,1-48.6,12.4-87.8,43.9-114.4,13.1-11.1,25.4-22.3,38.1-33.6-7.9,44.8-19.8,87.6-26.7,132.4-6.1,40.6-23,64-38.1,98.7"/><path class="cls-4" d="M1590.5,940.8c-2.3,16.6-4.8,33.4-5.4,50.5.6-15.3-11.2-39.2-10.8-58.7.4-24.5,6.7-47.9,7.1-72.4,1-48.6,12.4-87.8,43.9-114.4,11.2-9.4,21.8-20.3,33.2-29.1-44.9,36.7-59.3,159.2-67.7,221.9l-.3,2.2"/><path class="cls-3" d="M1734.6,801c-22.4,22.6-40.1,59.1-58.2,87.5-15.3,23.9-37,36.5-54,57.6-14.4,17.9-20,42.1-45.3,41.9,17.8.1,18.3-51.5,21.1-65.7,5.4-27.8,14.6-52.3,30.2-72.6s33.1-36.7,53.4-46.6c9.4-4.5,50.2.5,52.8-2.1"/><path class="cls-4" d="M1727.6,800.9c-68.3,13.6-91.1,90.4-123.4,155-8.2,16.5-13.9,32.6-28.4,42.1,22.9-15.1,17.2-49.1,22.4-75.7s14.6-52.3,30.2-72.6,33-36.7,53.3-46.5c12.2-6,33-8.3,45.9-2.3"/><path class="cls-3" d="M1574.4,946.9c1,15.4,1,26.2,6.3,40.6-71.5-33.1-105-153.2-95-236.7,2.1-18.3,5.6-35.9,12.9-51.6,41.6,64.4,70.5,168,75.8,247.7"/><path class="cls-4" d="M1485.6,750.8c2.2-18.3,4.7-35.1,14.2-49,5.9,80.5,45.9,149.3,60.4,228.1,3.1,16.7,6.2,33.4,9.8,49.8-64.5-29.9-93.1-155.5-84.4-228.9"/><path class="cls-3" d="M1589.1,983.2a12.7,12.7,0,0,0,1.6-3.3c3.3-9.8-29.8-74-34.7-85.9-25.2-62.1-58.5-124.7-110.4-155.4-28.2-16.7-35.6-21.3-53.4-52.5a120.4,120.4,0,0,0,12.9,56.9c15,30.4,37.6,55.8,53.1,86,31,60.4,39.3,116.6,95.3,144.4,9.1,4.6,28.4,19.6,35.6,9.8"/><path class="cls-17" d="M1574.7,966.5c-30.2-96.7-97.4-160.8-154.9-230.9-11.8-14.4-25.6-30.6-29.6-50.8,4.6,20.1,6.5,41.3,14.9,58.2,14.1,28.6,34.4,51.4,49.5,79,13.1,23.9,18.4,50.8,29.9,75.8,14.6,31.6,34.8,36.9,60.2,51.1,10.1,5.6,19.7,12.5,30,17.6"/><path class="cls-3" d="M1560.2,980.9c11.7,3.4,22.8,4.6,27.8-.9,13.6-14.9-30.5-58.2-41.5-73.9-50.9-72.4-146.7-113.8-198.8-38,38.1-.3,75.3,20.6,107.5,48.2,22.7,19.4,45.4,39,71.1,50.9,6.6,3,20.6,9.8,33.9,13.7"/><path class="cls-5" d="M1593.5,972.9c-.2,0-1.4-3.1-2.6-9.3a115.3,115.3,0,0,1-1.6-26.5c.3-11.3,2-24.6,4.6-39s6-30.1,8.4-46.9,5.3-32.7,9-46.8c1.9-7.1,4-13.8,6.2-19.8s4.5-11.6,6.7-16.5c4.2-9.9,8.4-17.6,11.8-22.4s5.9-6.8,6-6.6-1.8,2.7-4.7,7.7a159.9,159.9,0,0,0-10.6,22.8c-2,5.1-4.2,10.5-6.2,16.5s-3.9,12.5-5.6,19.5c-3.5,14-6.1,29.8-8.7,46.5s-6,32.6-8.7,46.9a306.9,306.9,0,0,0-5.4,38.3,142.4,142.4,0,0,0,.3,26c.7,6.1,1.4,9.4,1.1,9.6"/><path class="cls-5" d="M1578.7,686.3c.2.1-.6,2.3-2,6.1a165.5,165.5,0,0,0-5.6,16.4c-1,3.5-2,7.3-2.8,11.6a63.2,63.2,0,0,0-1,6.5c-.3,2.3-.4,4.7-.6,7.1a286.7,286.7,0,0,0,.2,32c1.3,22.8,3.9,43.3,5.6,58.1s2.7,24.1,2.1,24.2-2.4-8.9-4.8-23.6a524,524,0,0,1-6.9-58.4,253.8,253.8,0,0,1,.1-32.7c.2-2.5.5-4.9.8-7.3s.8-4.7,1.3-6.9a94.1,94.1,0,0,1,3.3-11.8,121.1,121.1,0,0,1,6.9-16.1c1.9-3.6,3.1-5.4,3.4-5.2"/><path class="cls-5" d="M1582.3,737.9c.5,0,.2,15.8-2.8,34.8s-7.4,33.9-7.9,33.7,3.1-15.2,6-34.1,4.1-34.4,4.7-34.4"/><path class="cls-5" d="M1577.9,942.9c-.3.1-1.3-3.2-3.4-8.9s-5.5-13.9-10-23.8c-2.3-4.9-4.8-10.4-7.4-16.3s-5.1-12.2-8-18.8c-5.8-13.2-12.3-27.6-18.9-43s-12.5-30.3-17.1-44.2a273.9,273.9,0,0,1-10-38,176.3,176.3,0,0,1-3.1-26.6c-.2-6.3.2-9.8.4-9.8s.7,14,5.4,35.6a304.6,304.6,0,0,0,10.7,37.1c4.7,13.7,10.7,28.4,17.2,43.7s13.1,29.8,18.7,43.2c2.8,6.6,5.3,13.1,7.7,19.1l6.9,16.5a234.5,234.5,0,0,1,8.9,24.6c1.7,6,2.2,9.5,2,9.6"/><path class="cls-5" d="M1534.5,794.2c.3-.1,1.2,4.7,3,12.4s4.5,18.2,7.6,29.8,5.8,22.2,7.3,30,2.2,12.7,2,12.7-1.4-4.6-3.3-12.3-4.8-18-7.9-29.7-5.6-22.3-7-30.1-1.9-12.8-1.7-12.8"/><path class="cls-5" d="M1557.7,919.7c-.3.2-2.1-2.8-5.5-8s-8.6-12.6-15.2-21.6c-13.2-18-29.3-44.7-49.1-72.2-5-6.8-9.9-13.4-14.9-19.5l-3.6-4.7-3.6-4.4-7.3-8.3c-9.7-10.5-18.8-19.7-26-27.9a168.8,168.8,0,0,1-16.2-20.6c-3.5-5.3-5-8.5-4.8-8.7s2.2,2.6,6,7.5a243.9,243.9,0,0,0,16.9,19.3c7.4,7.9,16.7,16.7,26.6,27.2l7.4,8.3c1.3,1.4,2.5,2.9,3.8,4.5l3.7,4.5c5,6.2,10,12.8,15,19.7,20,27.7,35.8,54.8,48.3,73.2a265.4,265.4,0,0,1,14.2,22.6c3.1,5.6,4.5,8.9,4.3,9.1"/><path class="cls-18" d="M475.7,929.3s-6.3-35.4,12.1-46.6-12.3,24.7-12.1,46.6"/><path class="cls-18" d="M1318.4,924.1s-15.6-10.4-12.3-28.3,13.5,18.8,16,27.3-3.7,1-3.7,1"/><path class="cls-18" d="M1324.5,924.9s-1.8-37,17.5-41.4-15,19.9-17.5,41.4"/><path class="cls-18" d="M1361.6,920s5-39.1,17.2-37.5-12.7,37.9-17.2,37.5"/><path class="cls-18" d="M1423,913.4s-17.8-9.2-15.6-41.3,20.7,22.9,15.6,41.3"/><path class="cls-7" d="M49.8,854.9c-27.1,9-53.9,18.3-79.3,33.3-5.9-49.4,61.3-101,93.9-121.3,21.4-13.4,44.5-22.5,68-25.6a135.2,135.2,0,0,1,34.8-.1c5.8.8,26.8,11,31.4,8.6-28.2,14.6-48.5,40.4-72.4,62.8s-48.1,33-76.4,42.3"/><path class="cls-8" d="M194.4,751.1C126.5,745.5,65,826.1,8,863c-11,7.1-22.2,12.5-31.8,22.1-3.6-21.4,14.1-46.5,26.9-62.2a289.8,289.8,0,0,1,57.8-53.7c41-28.4,93-46.4,133.5-18.1"/><path class="cls-7" d="M9.7,881c-14.2.1-27,5.7-39.7,9.1,9.1-37.8,67.4-47.9,93.6-62.3,36.6-20.1,71-25.8,105.3-5.9,14.3,8.2,28.3,15.7,42.6,23.4-37,11.5-74.3,18.2-110.8,30.9-33,11.4-58.2,4.8-91,4.8"/><path class="cls-7" d="M-4.1,858.4c-11,7.7-19,12.4-27.3,23.9-8.4-85.6,65.5-171.1,132.2-197.4,14.6-5.8,29.3-10,44.3-9.5-28.6,69.4-92.4,143.2-149.2,183"/><path class="cls-8" d="M100.8,684.9c14.6-5.8,28.2-10.6,43-7.2C86.6,718.5,53.9,788.2,2,836.9c-11,10.4-22,20.6-32.6,31.4C-38.1,791,42.1,708,100.8,684.9"/><path class="cls-7" d="M-24.4,888.8a7.2,7.2,0,0,0,3.3.2c8.7-1,41.2-61.8,47.9-71.8C61.3,765,92.5,704.7,91.4,639.6c-.6-35.4-.6-44.7,14.4-76-15.4,8.7-27.1,20.9-36.4,37.5C53.8,629.2,45.3,662.8,30,691.4-.7,748.5-38.6,781.2-33.5,849.1c.8,11.1-1.5,36.8,9.1,39.7"/><path class="cls-8" d="M-18.5,867.2C39.4,795.1,56.2,700.3,81.8,612.5c5.2-17.9,10.9-38.8,24.1-51.5C93,574.3,78.1,585.5,69.4,601.1c-14.7,26.5-22.3,56.7-35.9,83.7C21.8,708.2,4.2,725.2-9,747.5c-16.8,28.2-11.5,50.7-10.3,82.1.5,12.6-.2,25.2.8,37.6"/><path class="cls-7" d="M-35.9,859c2.8,13.1,7,24.7,13.4,27.3,17.4,7.2,29.3-55.6,35.8-73.4C43.7,730.7,30.4,617.3-50,598.2c17.8,37.9,19.3,84,13.7,128.1-4,31.1-8.1,62.2-5.1,92.9.8,8,2.2,24.9,5.5,39.8"/><path class="cls-8" d="M-19.2,891C6,847.8,9.2,802.9,10,754.8c.9-46-16-119.4-49.6-144.7a373.2,373.2,0,0,1,3.3,116.2c-4.6,35.7-11.7,93-.2,133C-32.9,872-27.3,883-19.2,891"/><path class="cls-10" d="M-14.6,888.7c-.2-.1,1.6-2.8,5.7-6.6A84.1,84.1,0,0,1,10,869c8.6-4.6,19.3-8.6,31.2-12.3s25.1-7.1,38.6-12,26.8-8.9,39.1-11.3a147.3,147.3,0,0,1,17.5-2.5c5.6-.5,10.7-.4,15.4-.4,9.3-.1,17,.6,22.1,2s7.8,2.9,7.7,3.1-2.9-.6-8-1.4-12.5-1-21.8-.6c-4.6.2-9.7.4-15.1,1a168.5,168.5,0,0,0-17.1,2.8c-12,2.6-25,6.9-38.6,11.6s-27,8.2-38.9,11.7a209,209,0,0,0-30.9,11.1A106.7,106.7,0,0,0-8,883.5c-4.2,3.3-6.4,5.5-6.6,5.2"/><path class="cls-10" d="M.5,860.1c-.2-.2,1.7-2.6,5-7.2s7.8-11.5,13.1-20.3l8.7-14.4c3.2-5.1,6.7-10.4,10.3-16.2,7.2-11.5,14.9-24.3,23.3-37.5s16.7-25.6,25-36.2a217.6,217.6,0,0,1,23.6-26.5,125.5,125.5,0,0,1,18.4-14.6c4.6-2.9,7.3-4.1,7.4-3.9s-10.1,6.8-24,20.9a259.9,259.9,0,0,0-22.6,26.7c-8,10.7-16.2,23-24.6,36.2S48,793,40.6,804.4c-3.6,5.7-7.3,11-10.6,16l-9.1,14A194.6,194.6,0,0,1,6.7,854C3,858.3.6,860.4.5,860.1"/><path class="cls-10" d="M91.1,752.4c.1.2-3,3.3-7.9,8.4s-11.5,12.3-18.7,20.5-13.8,15.4-18.9,20.3-8.4,7.7-8.6,7.4,2.9-3.3,7.7-8.6l18.4-20.7c7.2-8.2,14-15.3,19.2-20.1s8.6-7.4,8.8-7.2"/><path class="cls-10" d="M8.4,829.9c-.2-.1,1.2-3.2,3.4-8.9s5.4-14.1,9.1-24.5c7.3-21,19.7-48.6,31-80.3,2.8-7.9,5.4-15.7,7.7-23.3.6-1.9,1.2-3.8,1.7-5.7s1.2-3.6,1.7-5.5c1-3.6,1.9-7.3,2.8-10.8,3.4-14.2,6-27.3,8.8-38.1a205.1,205.1,0,0,1,7.8-25.1c2.4-5.7,4.1-8.6,4.3-8.5s-1,3.3-2.8,9.2a248,248,0,0,0-6.6,25.3c-2.4,10.8-4.7,23.8-8,38.2q-1.2,5.4-2.7,11.1c-.5,1.9-1,3.7-1.6,5.6s-1.1,3.8-1.7,5.7c-2.3,7.7-4.8,15.6-7.7,23.6-11.4,31.9-24.2,59.4-32.1,79.8-4,10.3-7.5,18.6-10.3,24.1s-4.6,8.3-4.8,8.1"/><g class="cls-6"><g class="cls-19"><path class="cls-10" d="M-8.6,877c-.3-.1,1.1-3.2,3.4-8.7A139.6,139.6,0,0,0,2.6,844q.8-4.1,1.5-8.4c.4-2.9.7-6,1-9.2.6-6.4,1.2-13.3,1.7-20.5a385.6,385.6,0,0,0,.4-47.1c-.5-8.4-1.3-16.5-2.5-24.1s-2.4-15.5-3.5-22.6a379.6,379.6,0,0,0-6.8-37.7c-2.6-10.5-5.8-18.6-8.7-23.7s-5.1-7.4-4.9-7.7,2.9,1.7,6.2,6.7,7.1,13.2,10.1,23.8S2.6,697,4.9,711.4c1.1,7.2,2.2,14.7,3.6,22.4a239.3,239.3,0,0,1,2.7,24.7,355.5,355.5,0,0,1-.7,47.7q-.9,10.9-2.1,20.7c-.4,3.2-.8,6.3-1.3,9.3s-1.1,5.9-1.8,8.6a116.3,116.3,0,0,1-9.1,24.3c-2.8,5.3-4.6,8.1-4.8,7.9"/></g></g><path class="cls-20" d="M-133.4,746.9l2.2-77.3,17.3-1.9-16.2-8,10.3-40.8,24.2,15-21.6-19.8,7.8-8.7,31.6,12.5L-88.9,591l10-18.9,12.7,8.2-9.7-11.4,11.4-17.5,19.3,13.4-15.6-15.4,30.7-31.3,22.9,22.6-13.2-29.2L-.7,497.4l24.6,12.8L15,490.3l17.5-10.1,9.1,12.1.7-13.4,27.3-.2-8.1,22.5-6.7,6-13.7-3.1L51.6,510,36.4,521.2l5.9,2.9L29.6,544l-14.9-1.8,11.7,7.6L12.8,560.9-5.4,554l22.8,15.5-2.8,13-9.1,5.9-13.8-4.6,13.4,9.7-1,11.4L-1,613.8l-25.1-3.9,16.4,17-3.9,19.8-32.9-6.3,26.1,13.4-2,13.8-29.4-3.9L-25.2,678l-5,14.4-30.9-5.6L-34.4,704l-6.7,20.9-22.6,23.4c-2.6,2.7-7.9,10.9-10.9,11.8-7.9,2.4-19.7-4-27.7-5.8,7-28.3,11.6-58.9,22.4-85,9.6-23.3,19.9-47.4,32.1-68.2,17.3-29.5,41.7-62.4,65.6-81.6l13.3-10.7c-31.8,18.4-53.6,48.7-77.6,81.8C-67.2,619-84.1,662.2-95.1,699.3c-5.2,17.2-9.3,35.1-14.6,52.3-2.3.4-23.8-3.7-23.7-4.7"/><path class="cls-21" d="M1086.4,810.6h0Z"/><path class="cls-21" d="M158.7,799h0Z"/><path class="cls-21" d="M-48.8,870.4c81.5,11.9,108.6,31.7,106.4,34S87.8,938.2,211,917c31.5-5.4,54.2-7.5,71.1-7.7,41.9,10.7,56.7,22.3,55,24s30.3,33.8,153.5,12.6,112.9,8.1,139.1,10,96.3-7.1,96.3-7.1l-.3-6.8c128-21.6,114.2,7.6,141.5,9.6s96.2-7.1,96.2-7.1L962.1,902c17.8,7,24.4,12.8,23.3,14s30.2,33.8,153.4,12.5c47.8-8.2,75.5-8.8,93-6.4,20.6,7.6,28.2,14.1,27,15.4s30.2,33.8,153.4,12.6,113,8.1,139.2,10,96.2-7.1,96.2-7.1l-2.8-93s10.2-44.7,17.8-44.6-8-8.5-33.1,28.7c0,0-10.6-34.8-25.5-43.9,0,0,18.8,28.1,2,50.9,0,0-6.3-50.8-45.3-80.4,0,0,36.5,54.8,23.2,76.5,0,0-8.4-18.3-13.9-24.4,0,0,9.4,30.3.7,36.3,0,0-29-54.5-33.2-65,0,0,18.1,52.7,12,64.7,0,0-16.8-24.4-22.1-34.1,0,0,6.6,31.8,3.4,29.1-5.6-5-15.2-36.9-41.2-47.2,0,0,27.5,24,23.9,40.9,0,0-15.4-22-24-28.2,0,0,12.9,17.2,8.5,24.4,0,0-32.4-54.5-56.8-61.1,0,0,32,33.8,28.6,50.9l-5.6,14.6s-6.4-12.2-10.7-21.9c0,0-3.5-2.4-2.4,12.1,3,39.8,1.1-11.7-23.3-41.2,0,0,20.1,47.1,9.1,60.3,0,0-28-40.3-40.8-68.3,0,0,13.5,29.6,5.3,55.9-2.3-7.4-16.6-30.5-17.4-45.9,1.8-3.2,3.5-5.3,5.2-5.3,7.6.2-8-8.5-33.2,28.7,0,0-10.6-34.7-25.4-43.9,0,0,14,21,7,41.3-15-24.8-4.4-17.8-4.9,9.3-.7,1-5.4-49.7-45.4-80.1,0,0,36.4,54.9,23.2,76.5,0,0-8.5-18.3-13.9-24.4a121.4,121.4,0,0,1,3.7,16.7c-.7,4.8-1.8,11.9-3.2,19.4l-16.2-31c1.2-16.8,3-33.4,5.4-39.1,0,0-5.6,13.1-11.4,27.6-17-33.4-11-27.6-2.4,6-2.8,7.2-5.6,14.2-7.5,19.9-12.5-18.9-11.3-19.1-10.7-16.2-2-5.6-4.2-10.4-6.3-12.4,0,0,7.6,16.2,5.1,33.7-6.2-11.2-16.5-32.7-37-40.7,0,0,27.1,23.5,24,40.4-.7-.9-16.5-22.4-24.1-27.7,0,0,5.8,7.7,8.3,14.9a60.4,60.4,0,0,1,.3,9.2c-.2.5-32.1-54.2-56.8-60.8,0,0,31.9,33.7,28.5,50.8l-5.5,14.6s-6.5-12.2-10.8-21.9c0,0-3.4-2.3-2.3,12.1,2.9,39.8,1-11.7-23.3-41.2,0,0,20.1,47.2,9.1,60.4,0,0-28-40.3-40.9-68.3,0,0,13.6,29.5,5.4,55.8-2.3-7.4-17.7-32.3-17.4-47.2,0,0-6.9,33.5-.5,59,0,0-3.1-12.4-23.7-24.6.4.2,3.3,2.9,4.1,24.4,0,0-24.8-29.4-34.4-51.9,0,0,7.5,18.8-.4,51.4,0,0-27.2-5.1-28-44.5,0,0-6.9,52.6-13.5,59.8,0,0-.9-25.8.3-40.2s-6,14.7-8,18.3.8-68.9,6.4-82.2c0,0-23.3,54.5-24.5,64.2,0,0-7.4-33.2-13.8-39.3,0,0,8.1,17.3,4.7,35.5-1.5,0-4.7.6-9.1,3.2-3.3-5.8-9.5-13.9-20.8-24.1,0,0,4.3,4.5-.3,40.7,0,0-16.3-8.7-20.4-37.8-3.2,16.3,1.6,10-8.9,3.6a63.3,63.3,0,0,1,6.6,14.5c-.6,7.9-.6,17.1,1.1,24.7-.3,1.1-.7,2.2-1.1,3.4l-6.1.3c-3.5-15.4-14.2-50-43.8-72.5,0,0,34,51.1,24.5,74.1l-2.3.3c-2.4-5-8.6-17.4-12.8-22.2,0,0,3.8,12.6,4.3,23.2l-9.8,1.4c-8.8-16.6-24.1-45.9-27.1-53.3,0,0,12.8,37.2,13.3,56.2l-5.8,1.8c-5.4-8-14.1-21-17.6-27.5,0,0,6.6,31.9,3.4,29.1-5.6-4.9-15.2-36.8-41.2-47.1,0,0,27.5,24,23.9,40.9,0,0-15.4-22-24-28.2,0,0,12.9,17.1,8.5,24.4,0,0-32.4-54.5-56.7-61.1,0,0,31.9,33.8,28.5,50.9L780,839.6s-6.4-12.2-10.7-21.9c0,0-3.4-2.4-2.4,12.1,3,39.8,1.1-11.7-23.3-41.2,0,0,20.1,47.1,9.1,60.3,0,0-8.7-12.6-18.7-28.6,2.3-5.4,4.7-9.1,7-9.1,4.8.1.2-3.4-10.3,3.7-37.4-61.5-7.3-29.4-11.2,9.9l-4.8,5.7c-3.3-7-15.1-28.6-14.9-41.3a180.9,180.9,0,0,0-2.9,24.6c-4.1-7.4-9-14.4-14.6-17.8,0,0,12.9,19.1,7.9,38.6a81,81,0,0,0-11-8.8c-5.7-17.4-17.3-42-40.2-59.3,0,0,24.9,37.4,26.1,62.6-38.3-53.2-6.5-38.3-20.1,18.2-48.6-92-23.8-56.5-16.8-10.3-19.1-21.8-5.4-61.1-15.7-5.5-11.7-18.2-5.4-14-2.7,13-.4,1.6-.7,3.1-1.1,4.6-1.5-1.6-3.3-4.9-5.5-9.1.1-20.6,3-31.9-4.4-7.8l-3.5-5.6c.5-21.1,3-58.7,6.8-67.9,0,0-13.9,32.6-20.7,51.9a45.5,45.5,0,0,0-8.5-5.8c-2.6-8.9-5.9-18.2-9.1-21.2a68,68,0,0,1,5.2,19.3c-1.5-.7-1.4-.7,0,.5a49.1,49.1,0,0,1,0,12.7c-1.8-1.5-1.3-1.2,0,.6a42.7,42.7,0,0,1-2,8.4c-11.4-16.6-31.2-42.3-47.4-46.7,0,0,12.1,12.9,20.6,26.7.5,5.4.4,14.9-1.5,31.2-2.2-4.2-4.8-9.6-6.9-14.3,0,0-2.8-2-2.5,8.5-4.5-5.9-9.4-15.2-11.4-29.3-2.8,14.6,2.2,8.6-11.7-8.3a218.5,218.5,0,0,1,9.4,28c-.6,8.7-.4,18.7,2,26.3l-6.2.4c-8.1-12.1-27.1-41.1-37-62.7,0,0,13.6,29.6,5.4,55.9-2.3-7.4-17.7-32.4-17.4-47.2,0,0-6.9,33.5-.5,59,0,0-2.6-10.2-18.1-21.1l-.2-4.6s10.2-44.7,17.8-44.6-8-8.5-33.1,28.7c0,0-10.6-34.8-25.5-43.9,0,0,13,19.4,7.7,39-4.4-8.9-2.2-6.7-.6,2.2a36.3,36.3,0,0,1-5.1,9.7s-6.3-50.8-45.3-80.4c0,0,36.5,54.8,23.3,76.5-2.8-6.1-9.7-19.6-13.9-24.4,0,0,9.3,30.4.6,36.3l-10.6-20c1.2-18.1,3.2-36.8,5.8-43,0,0-6.3,14.6-12.5,30.1-28.3-54.8-12-31.5-4.2,10.8-2,5.1-3.7,9.8-5.1,13.8-2.7-3.9-5.9-8.8-9-13.5-2.3-7.2-5-13.8-7.5-16.3a63.4,63.4,0,0,1,3.2,9.4l-3.4-5.7s6.6,31.8,3.4,29.1c-5.6-5-15.2-36.9-41.2-47.2,0,0,26.9,23.4,24,40.3-5.6-6.3-16.2-21.9-24.1-27.6,0,0,12.9,17.2,8.5,24.4,0,0-32.4-54.5-56.7-61.1,0,0,31.9,33.8,28.5,50.9L263,815s-6.4-12.2-10.7-21.9c0,0-3.4-2.4-2.4,12.1,3,39.8,1.1-11.7-23.3-41.2,0,0,20.1,47.2,9.1,60.3,0,0-28-40.3-40.8-68.3,0,0,13.5,29.6,5.3,55.9-2.3-7.4-17.6-32.4-17.4-47.2,0,0-6.8,33.5-.5,59,0,0-3.1-12.5-23.6-24.7.4.3,3.2,3,4.1,24.4,0,0-24.8-29.3-34.4-51.9,0,0,7.4,18.9-.5,51.5,0,0-27.1-5.1-27.9-44.5,0,0-7,52.5-13.5,59.7,0,0-.9-25.7.3-40.1s-6,14.6-8,18.2.8-68.8,6.3-82.2c0,0-23.2,54.5-24.5,64.3,0,0-7.3-33.2-13.8-39.4,0,0,12.9,27.4-.4,49.3,0,0,.1-12.1-24.7-34.7,0,0,4.3,4.5-.4,40.8,0,0-16.2-8.7-20.4-37.8,0,0-5.6,29-.3,46,0,0-64.3,2.9-75.3,13.6S-130.4,858.5-48.8,870.4Zm1420.2-30c-.1-4.1,6.9-30.1,12.2-40.5-1.4,7.8-5.5,35.2-.1,56.9C1383.5,856.8,1381.7,849.4,1371.4,840.4ZM974.2,819.9s0-2.1-1.8-6.1c2.1-4.2,4.1-6.9,6-6.9h.8A41.6,41.6,0,0,1,974.2,819.9Zm-394.3-5.1a58.7,58.7,0,0,0-2.3,8.2s-1.5-6.8-3.7-14.8C575.7,810.1,577.8,812.3,579.9,814.8Z"/><path class="cls-22" d="M1535.9,1010.4c-29.1-180.1-88.7-232.6-88.7-232.6s39,84.5,55.3,235.6Z"/><path class="cls-22" d="M1583.8,1006C1575.4,811.1,1478,726.5,1478,726.5s61.6,112.7,83.1,281.5Z"/><path class="cls-22" d="M1264.5,1035.2c-13.3-103.8-39.3-189.4-39.3-189.4,25.3,16.3,55.7,68.9,86.4,185.1Z"/><path class="cls-22" d="M1331.7,1029c-11.7-127.5-49.6-196.3-49.6-196.3,22.5,20.1,65.5,61.3,100,191.7Z"/><path class="cls-22" d="M1344.2,1027.9c26.1-147.1-32.3-242.9-32.3-242.9,49.2,50.5,69.9,156.6,75.7,238.9Z"/><path class="cls-22" d="M1540.2,1010c-26.8-145-86.1-193.9-86.1-193.9s90.6,10.2,119.7,190.8Z"/><path class="cls-22" d="M1323.1,1029.8c8.4-92.6-46.2-153.7-58.4-173.2,0,0,4.2,58.2,34.2,175.4Z"/><path class="cls-22" d="M1449.3,1018.3c-39.8-192.6-85-223.3-85-223.3s69.8,3.1,120.9,220Z"/><path class="cls-22" d="M1277.6,1034c-27.9-205.9-119.2-225.5-119.2-225.5s83.1,46.1,77.9,229.3Z"/><path class="cls-22" d="M1215.2,1039.7c-13.4-135.9-80.9-167.3-80.9-167.3s104.8,28.9,112.1,164.4Z"/><path class="cls-22" d="M1376.6,1024.9c-22-193.3-82.5-238.3-82.5-238.3s67.4,36.9,125.3,234.4Z"/><path class="cls-22" d="M1341.8,1028.1c-30-54.8-67.5-141.2-67.5-141.2s55.9,62.3,102,138Z"/><path class="cls-22" d="M1449,1018.3c-.7-202-60.6-266.6-60.6-266.6s89.1,58.1,85.9,264.3Z"/><path class="cls-22" d="M1426.3,1020.4c-33.1-266-122.4-266.2-122.4-266.2s64.9,9.5,88,269.3Z"/><path class="cls-22" d="M1582,1006.1c-36.2-207.2-114.8-244.7-114.8-244.7s44.3,39.6,85.5,247.4Z"/><path class="cls-22" d="M1516.8,1012.1c-29.6-217.4-122.6-204.7-122.6-204.7s72.3,18.4,91.9,207.5Z"/><path class="cls-22" d="M1450.1,1018.2C1414.4,800.9,1339,820.1,1339,820.1s59.6,5.1,80.3,200.9Z"/><path class="cls-22" d="M1561.6,1008c-114.2-253.2-189.4-164.4-189.4-164.4s88.2-27.6,149.1,168.1Z"/><path class="cls-22" d="M1572.3,1007c9.8-93.5-17.2-209.2-17.2-209.2,42.6,60.5,58.6,132,63.4,205Z"/><path class="cls-22" d="M1649.4,1000c3-185.6-91.4-247.3-91.4-247.3s75.3,125.6,61.5,250Z"/><path class="cls-22" d="M1536.3,694c21,16.4,91.2,86.3,111.3,306.1L1682,997S1663.2,737.3,1536.3,694Z"/><path class="cls-22" d="M1624.5,1002.2c-27-58.4,13.4-173.8,13.4-173.8s-48.8,39.2-58.3,177.9Z"/><path class="cls-18" d="M1555.6,923.9s-32-86.1-93.9-68.9c0,0,12.3-23.7,42.2-21.5s51.7,50.5,51.7,50.5-17.6-86-51.2-109.7c0,0,15.5-14.4,35.8,16.5s25.6,75,25.6,75-19.8-92.6,21.1-115.2c0,0-20,36.6-12.6,111.9,0,0,1.1,16.2,2.7-2.1s-.5-93.6,31.5-105.5c0,0-24.6,51.7-19.2,110.9,0,0,1,11.8,4.2-14s22.5-63.5,51.8-72.1H1657s-41.6,23.6-49.3,86.1c0,0,21.6-44.2,57.3-36.6,0,0-41.6,34.2-51.5,89.7Z"/><path class="cls-13" d="M188.6,980.4c6.5-104.4,27-191.6,27-191.6-24.2,18-51.2,72.4-74.3,190.3Z"/><path class="cls-13" d="M121.1,978.5c3.5-128,36.9-199.1,36.9-199.1-21.2,21.5-61.4,65.4-87.4,197.7Z"/><path class="cls-13" d="M108.5,978.2c-35.3-145.1,16.7-244.4,16.7-244.4C79.4,787.3,65.5,894.5,65,977Z"/><path class="cls-13" d="M288.4,983.1c-8.6-81.7,21.3-140.2,21.3-140.2-35.9,12.8-65,59.3-65.1,139Z"/><path class="cls-13" d="M129.7,978.8c-14.3-91.9,36.3-156.4,47.2-176.7,0,0-.5,58.4-22.8,177.3Z"/><path class="cls-13" d="M279.8,982.8c24.7-70.7,78.6-102,78.6-102s-62,8.3-95.6,101.6Z"/><path class="cls-13" d="M268.6,982.5c29.3-135.2,73-134.3,73-134.3s-76.8,4.7-104.5,133.5Z"/><path class="cls-13" d="M3.2,975.3C30.5,780.6,73.6,747.1,73.6,747.1S4.2,754.6-32.9,974.3Z"/><path class="cls-13" d="M175.4,980C190,772.8,279.8,747.4,279.8,747.4s-79.9,51.3-62.9,233.7Z"/><path class="cls-13" d="M238,981.7c4.7-136.5,69.9-172.1,69.9-172.1S205.3,845.2,206.6,980.9Z"/><path class="cls-13" d="M76.1,977.3c9.6-194.3,67-243.1,67-243.1S78.2,775.3,33.2,976.1Z"/><path class="cls-13" d="M110.9,978.2C137.4,921.7,169.2,833,169.2,833s-51.7,65.8-92.9,144.3Z"/><path class="cls-13" d="M3.4,975.3C-8.8,773.7,46.8,705.4,46.8,705.4S-38.3,769.1-22,974.6Z"/><path class="cls-13" d="M26.2,975.9c16-267.5,105-273.5,105-273.5S67.1,716.1,60.8,976.9Z"/><path class="cls-13" d="M-64.6,973.5C-49,754.7,44.6,761.4,44.6,761.4s-70.9,23-78.3,212.9Z"/><path class="cls-13" d="M2.3,975.3C24,756.2,100.4,770.4,100.4,770.4s-59.1,9-67.2,205.7Z"/><path class="cls-13" d="M-109.5,972.2C-11.8,712.3,68.9,796.1,68.9,796.1S-20.9,774.2-69,973.3Z"/><path class="cls-23" d="M632.2,965c-15.3,4.4-35.6-134.1-31.7-176,25.7,57.7,67.3,165.8,31.7,176"/><path class="cls-23" d="M648,973.4c0-2.8-118.7-190-128.6-200.2C555,803,669.8,948.3,648,970.6Z"/><path class="cls-23" d="M675,978.7c-29.6,9.9-176.1-150.4-195.2-182.3C552.9,838.7,681.9,976.5,675,978.7"/><path class="cls-23" d="M679.7,990.2c-21.8,10-55.4-202.9-31.7-210.5,23.8,87.9,59.4,197.8,31.7,210.5"/><path class="cls-23" d="M661.9,993.9s-121-225.5-118.8-242.2c28.4,22.4,154.4,246.9,136.6,249.7s-17.8-7.5-17.8-7.5"/><path class="cls-23" d="M674.6,1010.4S478.9,929.2,314.7,865.7C497.4,909.2,683.1,991,674.6,1010.4"/><path class="cls-23" d="M394.7,822.5c79.4,62.6,247.6,171.1,287.4,188.6,2.7-.1,9.5,0,12.2,0C683.9,981,525.3,873,394.7,822.5"/><path class="cls-23" d="M678.7,970.6c16.6,3.8,4-143.6-6.9-185.3-17.4,58.6-31.7,176.4,6.9,185.3"/><path class="cls-23" d="M709,981c-1.2-2.7,36-197.3,41.4-208.3-22.3,32.6-73.4,185.7-42.6,205.6Z"/><path class="cls-23" d="M697.6,983.3c34.6,5.2,94.8-173.5,92.7-206.6C747.5,827.4,689.6,982,697.6,983.3"/><path class="cls-23" d="M675.5,989.4c25.9,8.8-40.3-224.2-67.1-230.2,17.7,97.1,34,219.1,67.1,230.2"/><path class="cls-23" d="M694.2,994s23.2-232.3,14-248.4c-18.4,24.6-46.9,256.3-28.3,257.4s14.3-9,14.3-9"/><path class="cls-23" d="M689.2,1011.1s82.7-86.8,226.6-160.4c-168.1,55-240.7,141.8-226.6,160.4"/><path class="cls-23" d="M667.7,1011.1c3.5-.1,15.9,0,19.4,0,35-25.2,146.3-143,196.5-210-104.2,60.2-205.6,176.6-215.9,210"/><path class="cls-23" d="M642.1,871.9s-15.9,69.8,5.9,98.7,28.9,27.3,28.9,27.3,4.8-85-34.8-126"/><path class="cls-23" d="M501.6,868.8S568.9,953.5,610.5,975s67.1,30.1,67.1,30.1c2.3,2.5-63.6-104.9-176-136.3"/><path class="cls-23" d="M663.8,981.8s31.7-83.8,63.4-135.1-29.7,147.2-47.5,154.7-11.9-28-15.9-19.6"/><path class="cls-23" d="M687,1000.3s80.9-79.4,260.9-128.7C896.5,897.7,714.7,998.5,687,1000.3"/><path class="cls-24" d="M1277.2,991.1s-23.8-21.8-25-37.4,10.2-33.6,20.6-56.3c8.4-28.8,33.5-65.3,72.2-90.8-31.8,96.5-64.6,169.9-67.8,184.5"/><path class="cls-24" d="M1277.2,991.1s32.4-10,44.5-22.9,51.5-93.8,23.3-161.6c-41,94.7-65.6,170.6-67.8,184.5"/><path class="cls-24" d="M1339.4,825.1s-64.4,166-67.8,184.5-30.2,76.7-34,218h-7.8s0-100.1,38.2-219.9c6.5-20.2,54.5-152.7,71.4-182.6"/><path class="cls-24" d="M1218.1,996.2c-15.3,4.4-35.6-134.1-31.6-176,25.7,57.7,67.3,165.8,31.6,176"/><path class="cls-24" d="M1234,1004.6c0-2.8-118.8-190-128.7-200.2,35.7,29.8,150.4,175.1,128.7,197.4Z"/><path class="cls-24" d="M1261,1009.9c-29.7,9.9-176.2-150.4-195.2-182.3,73.1,42.3,202,180.1,195.2,182.3"/><path class="cls-24" d="M1265.6,1021.4c-21.7,10-55.4-202.9-31.6-210.5,23.7,87.9,59.3,197.8,31.6,210.5"/><path class="cls-24" d="M1247.8,1025.1s-120.9-225.5-118.7-242.2c28.4,22.4,154.3,246.9,136.5,249.7s-17.8-7.5-17.8-7.5"/><path class="cls-24" d="M1260.6,1041.6s-195.7-81.2-360-144.7c182.7,43.5,368.4,125.3,360,144.7"/><path class="cls-24" d="M980.7,853.7c79.4,62.6,247.6,171.1,287.3,188.6h12.2c-10.4-30.1-169-138.1-299.5-188.6"/><path class="cls-24" d="M1264.7,1001.8c16.6,3.8,3.9-143.6-7-185.3-17.3,58.6-31.7,176.4,7,185.3"/><path class="cls-24" d="M1295,1012.2c-1.2-2.7,36-197.3,41.4-208.3-22.3,32.6-73.4,185.7-42.6,205.6Z"/><path class="cls-24" d="M1283.6,1014.5c34.6,5.2,94.8-173.5,92.6-206.6-42.7,50.7-100.6,205.3-92.6,206.6"/><path class="cls-24" d="M1261.4,1020.6c26,8.8-40.2-224.2-67-230.2,17.7,97.1,34,219.1,67,230.2"/><path class="cls-24" d="M1280.2,1025.2s23.1-232.3,13.9-248.4c-18.3,24.6-46.9,256.3-28.2,257.4s14.3-9,14.3-9"/><path class="cls-24" d="M1275.2,1042.3s82.6-86.8,226.5-160.4c-168.1,55-240.6,141.8-226.5,160.4"/><path class="cls-24" d="M1253.7,1042.3h19.4c34.9-25.2,146.3-143,196.4-210-104.2,60.2-205.6,176.6-215.8,210"/><path class="cls-24" d="M1087.6,900s67.3,84.7,108.8,106.2,67.2,30.1,67.2,30.1c2.2,2.5-63.7-104.9-176-136.3"/><path class="cls-24" d="M1249.8,1013s31.7-83.8,63.3-135.1-29.7,147.2-47.5,154.7-11.8-28-15.8-19.6"/><path class="cls-3" d="M936.9,945.3c-8.5,16.4-16.7,32.8-21.8,50.7-24.3-16.6-16.1-68.8-10-92.3A117.6,117.6,0,0,1,925,861.4a96.3,96.3,0,0,1,15.9-16.6c3-2.4,17-8.4,18.1-11.5-6.5,19.2-4.6,38.9-5.7,59.1s-7.6,35.8-16.4,52.9"/><path class="cls-4" d="M957.6,835.8c-33.5,30.1-26.4,90.9-36.3,132.5-1.9,8-4.7,15.5-4.9,23.8-11-6.7-13.9-25-14.9-37.2a171.9,171.9,0,0,1,3-48.6c6.3-30.7,22.3-62.4,53.1-70.5"/><path class="cls-3" d="M930,974.6c-6.6,6.8-10,15.1-14.3,22.4-12.3-19.2,10-50.8,15.6-68.9,8-25.3,21.2-43.9,45.6-52.3,10.1-3.6,19.8-7.3,29.7-11-11.9,22.1-26,42.4-37.2,64.7-10,20.2-24.5,29.5-39.4,45.1"/><path class="cls-4" d="M925.1,971.8c-4,8.4-8.2,16.7-11.1,25.6,2.6-7.9-1.4-22.5,1.8-32.6,4-12.8,11.5-24,15.5-36.7,8-25.3,21.2-43.9,45.6-52.3,8.6-3,17.2-6.9,25.9-9.5-34.6,11.4-62.4,73.1-77.2,104.5a4.7,4.7,0,0,0-.5,1"/><path class="cls-3" d="M913.7,972.3c-1.6,8.2-3.2,13.9-2,22.3-41.3-29.7-44.9-98.4-25.9-140.4,4.2-9.2,9.1-17.9,16.2-24.8,17.2,40.9,20.3,100.2,11.7,142.9"/><path class="cls-4" d="M885.8,854.2c4.2-9.2,8.4-17.6,16.6-23.3-8.3,43.2,7.2,86.2,4.7,130-.5,9.3-1,18.5-1.1,27.8-37.3-26.9-36.9-97.6-20.2-134.5"/><path class="cls-3" d="M917.8,993.8a6.4,6.4,0,0,0,1.5-1.4c3.6-4.6-8.1-43.9-9.5-51-7-36.9-19.1-75.5-48-100.6-15.8-13.6-19.8-17.3-26.6-36.7a55.3,55.3,0,0,0-.3,32c5.1,18.5,15.9,35.7,21.4,54.3,11,37,7.9,67.8,39.9,92.1,5.2,4,15.4,15.2,21.6,11.3"/><path class="cls-17" d="M911,982.6c-5-55.9-38.8-101.2-65.5-147.9-5.4-9.5-11.9-20.4-11.5-31.7,0,11.3-2,22.8.9,33.1,4.8,17.4,14.5,32.9,20.2,50,4.8,14.8,4.2,29.7,7.9,44.8,4.6,19.1,16.9,25.4,31.2,37.2,5.7,4.8,10.9,10,16.8,14.5"/><path class="cls-3" d="M899.5,987.6c7,3.8,14,6.4,18,4.4,11.1-5.5-10.9-35.8-15.7-45.9-22-46.8-77.7-85.1-122.8-54.5,24.7,6.5,45.6,23.9,62.3,43.9,11.7,14.2,23.5,28.4,38.3,39a176,176,0,0,0,19.9,13.1"/><path class="cls-17" d="M921.1,992.2c-7.4-28.9-25.6-48.1-46.2-67.4s-59.5-39.4-85.9-33.4a198.4,198.4,0,0,1,52.3,44.1c13.5,16.3,35.3,42.2,58,52.5,7.2,3.3,14.6,4.9,21.8,4.2"/><path class="cls-5" d="M922.2,989.2c-.2,0-.5-1.9-.3-5.3a58.2,58.2,0,0,1,2.9-14.2,139.8,139.8,0,0,1,8.9-19.6c3.8-7.2,8.4-14.8,12.4-23.1a214.2,214.2,0,0,1,13-23,102.1,102.1,0,0,1,6.9-9.3c2.3-2.8,4.7-5.2,6.8-7.4a64.7,64.7,0,0,1,11.1-9.7c2.9-1.9,4.8-2.6,4.8-2.5s-1.5,1.2-4.2,3.3a84.6,84.6,0,0,0-10.3,10.1c-2,2.3-4.2,4.8-6.4,7.6a74.9,74.9,0,0,0-6.6,9.2,238,238,0,0,0-12.7,22.8c-4,8.4-8.7,16.1-12.6,23.1a136.8,136.8,0,0,0-9.3,19.1,69.8,69.8,0,0,0-3.7,13.7c-.5,3.3-.5,5.2-.7,5.2"/><path class="cls-5" d="M981.9,892.1a23.5,23.5,0,0,1-3.6,5.9,84,84,0,0,1-11.6,12.1c-4.9,4.4-9.5,8.2-12.6,11.1s-4.9,4.8-5.1,4.7,1.4-2.2,4.4-5.3,7.5-7.1,12.4-11.4a163.9,163.9,0,0,0,11.8-11.7c2.7-3.3,4.1-5.5,4.3-5.4"/><path class="cls-5" d="M955.7,836.5c.1.1-.7,1.1-2.2,2.9a85.6,85.6,0,0,0-6.1,7.6,41.5,41.5,0,0,0-3.5,5.6,32.4,32.4,0,0,0-1.7,3.2l-1.4,3.6a123.7,123.7,0,0,0-4.7,16.8c-2.6,12.2-4,23.4-5.1,31.4s-1.9,13.1-2.3,13.1-.2-5.1.4-13.2a257.8,257.8,0,0,1,4.4-31.8,98.4,98.4,0,0,1,5-17.1c.5-1.3,1-2.5,1.6-3.7a27.1,27.1,0,0,1,1.8-3.4,54.3,54.3,0,0,1,4-5.6,55.1,55.1,0,0,1,6.8-7.2c1.8-1.6,2.9-2.3,3-2.2"/><path class="cls-5" d="M950.3,864.2c.3.1-2.2,8.3-7,17.7s-9.9,16.5-10.2,16.3,4.3-7.4,9-16.8,7.8-17.4,8.2-17.2"/><path class="cls-5" d="M916.6,970.8c-.2,0-.4-1.9-.9-5.3s-1.4-8.2-2.9-14.2c-.7-3-1.5-6.2-2.3-9.8s-1.4-7.3-2.3-11.2c-1.8-8-3.8-16.6-5.8-25.8s-3.5-18.1-4.4-26.2a137.5,137.5,0,0,1-.8-21.6,85,85,0,0,1,2.1-14.4c.8-3.4,1.5-5.2,1.7-5.1s-1.7,7.4-1.9,19.6a141.9,141.9,0,0,0,1.4,21.3c1,8,2.6,16.7,4.5,25.8s4,17.9,5.6,25.9c.8,4,1.5,7.8,2.1,11.3l2,9.9a112.8,112.8,0,0,1,2.1,14.4c.2,3.5,0,5.4-.2,5.4"/><path class="cls-5" d="M910.9,885.4c.2,0,.1,2.7.1,7s.2,10.3.4,16.9.4,12.7.2,17-.4,7-.6,7-.2-2.7-.3-7-.4-10.3-.6-16.9a158.9,158.9,0,0,1,0-17c.2-4.4.7-7.1.8-7"/><path class="cls-5" d="M907,955.1c-.2.1-.9-1.8-2.3-5.1s-3.7-8.1-6.6-14c-5.8-11.7-12.2-28.5-20.9-46.3-2.2-4.5-4.4-8.7-6.7-12.8l-1.6-3.1c-.6-1-1.1-2-1.7-2.9s-2.3-3.8-3.5-5.6c-4.6-7.2-9.1-13.6-12.6-19.2a91.1,91.1,0,0,1-7.3-13.6c-1.5-3.3-2-5.3-1.8-5.4s1,1.8,2.7,5,4.4,7.7,8,13.1,8.3,11.6,13.1,18.8l3.6,5.6c.6,1,1.2,2,1.7,3l1.7,3.1c2.4,4.1,4.6,8.4,6.8,12.9,8.8,18,14.9,34.9,20.2,46.7,2.7,5.9,4.7,10.8,5.9,14.3s1.5,5.5,1.3,5.5"/><g class="cls-6"><g class="cls-25"><path class="cls-5" d="M919.8,981.7c-.2.1-.9-1.8-2.2-5.1a74.3,74.3,0,0,0-7.1-13.2c-.9-1.3-1.9-2.6-3-4l-3.5-4.1-8.2-8.9a222.2,222.2,0,0,0-20.4-18.7,110.2,110.2,0,0,0-11.8-8.3c-4-2.4-7.8-5-11.4-7.3a184.3,184.3,0,0,0-19.6-11.5,60.3,60.3,0,0,0-14.3-5.3c-3.6-.7-5.6-.4-5.6-.7s2-.7,5.8-.3a52.6,52.6,0,0,1,14.9,4.6,171.9,171.9,0,0,1,20.2,11.2c3.6,2.3,7.4,4.8,11.4,7.1a131.6,131.6,0,0,1,12.1,8.4,202.4,202.4,0,0,1,20.5,19.2c2.9,3.1,5.6,6.2,8.1,9.1l3.5,4.3,2.9,4.2a59,59,0,0,1,6.4,13.9c1.1,3.4,1.5,5.4,1.3,5.4"/></g></g><path class="cls-7" d="M385.9,930.5c17.6,9.5,35,19.3,50.7,32.6,10.5-31.6-29.5-74.6-49.5-92.4-13.2-11.7-28-20.8-44-26a101.2,101.2,0,0,0-24.1-4.9c-4.1-.2-20,3.6-22.9,1.4,17.7,13.4,28.5,33.1,42.2,51s29.1,28.3,47.6,38.3"/><path class="cls-8" d="M298.8,842.6c47.9,5.6,80.2,66.8,115,98.9,6.7,6.1,13.8,11.2,19.3,18.8,5.2-13.6-3.8-32.5-10.7-44.5a198.7,198.7,0,0,0-33.2-43.1c-24.8-24.3-58.6-43.1-90.4-30.1"/><path class="cls-7" d="M410.3,953c9.9,2,18.1,7.5,26.4,11.4-1.4-26-40.6-40.6-57-53.6-22.7-18.2-45.9-26.6-72.3-18.3-10.9,3.5-21.6,6.5-32.6,9.6,24.2,12.6,49.3,22.1,73,35.4,21.4,12,39.7,11,62.5,15.5"/><path class="cls-7" d="M422.8,940.1c6.7,6.5,11.6,10.7,15.9,19.4,16.8-55.1-23.4-121.2-66.3-147.6-9.4-5.8-19.1-10.5-29.6-12.3,11,49.5,45.7,106.6,80,140.5"/><path class="cls-8" d="M372.4,811.9c-9.4-5.8-18.3-10.8-29-10.6,34.5,34.6,48.2,84.8,78,123.9,6.3,8.2,12.6,16.5,18.5,25,15.2-49.7-29.8-115.1-67.5-138.3"/><path class="cls-7" d="M433,962.8l-2.3-.3c-5.9-1.9-20.7-46.2-24-53.7-17.2-38.9-31.2-82.8-22-125.3,5-23.2,6.2-29.3-.2-51.8,9.6,7.7,16.1,17.3,20.4,29.5,7.3,20.6,8.8,43.8,15.8,64.7,13.9,41.6,36,68.2,23.7,112-2,7.2-3.7,24.4-11.4,24.9"/><path class="cls-8" d="M431.7,947.8c-30.9-55.2-30.4-119.7-36.8-180.8-1.3-12.5-2.6-26.9-10.1-37.1,7.2,10.5,16.1,19.9,20.1,31.3,6.9,19.4,8.2,40.2,14.2,59.9,5.1,16.9,15.1,30.4,21.4,46.9,8.1,20.8,1.4,34.8-3.4,55.3-2,8.2-3.1,16.5-5.4,24.5"/><path class="cls-7" d="M444.8,944.8c-3.6,8.2-8,15.2-12.8,16.1-13,2.3-13.1-40.5-15.4-53-10.5-58.1,13.3-130.8,71.6-132.3-17.2,22.4-24.3,52.5-26,82.2-1.3,20.9-2.4,41.9-8.5,61.7-1.5,5.1-4.7,16-8.9,25.3"/><path class="cls-8" d="M429.1,963.5c-11.9-31.8-8.3-61.7-2.8-93.3S452.9,794,479.5,782a235.4,235.4,0,0,0-17.3,75.8c-1.4,24-3.8,62.6-17,87.3-4.2,7.8-9.4,14.3-16.1,18.4"/><path class="cls-10" d="M426.2,961.4c.1-.1-.8-2-3.1-5.1a58.6,58.6,0,0,0-11.5-11.2,123.9,123.9,0,0,0-20-12.3c-7.8-4.1-16.5-8.1-25.3-13.2a243.6,243.6,0,0,0-25.7-12.7,109.6,109.6,0,0,0-11.8-4c-3.8-1.1-7.4-1.8-10.6-2.4-6.5-1.3-11.9-1.9-15.6-1.7s-5.8.8-5.8,1,2.1,0,5.7.2a85,85,0,0,1,15.3,2.6,98.8,98.8,0,0,1,10.3,2.7,109.8,109.8,0,0,1,11.6,4.2,240.1,240.1,0,0,1,25.2,12.8c8.9,5.1,17.7,9,25.5,12.9a160.7,160.7,0,0,1,20.1,11.6,69.8,69.8,0,0,1,11.8,10.3c2.5,2.7,3.7,4.5,3.9,4.3"/><path class="cls-10" d="M419.4,940.6c.2-.1-.9-2-2.5-5.5s-4-8.6-6.5-15.1l-4.2-10.6-5.1-12c-3.5-8.5-7.2-18-11.3-27.8s-8.3-19.1-12.7-27.2a151.3,151.3,0,0,0-13-20.6,82,82,0,0,0-10.8-12c-2.9-2.6-4.6-3.7-4.7-3.6s6.1,5.8,13.9,16.9a161.7,161.7,0,0,1,12.3,20.7c4.2,8.1,8.3,17.3,12.4,27.1s7.9,19.2,11.5,27.6c1.8,4.3,3.7,8.3,5.3,12l4.6,10.4a119.8,119.8,0,0,0,7.3,14.8c2,3.4,3.4,5,3.5,4.9"/><path class="cls-10" d="M370.4,857.5c-.2.2,1.6,2.6,4.4,6.6s6.3,9.7,10.3,16,7.6,12,10.5,15.9,4.9,6.2,5,6.1-1.5-2.6-4.2-6.7l-10.1-16.1a190.6,190.6,0,0,0-10.7-15.8c-3-3.9-5.1-6.1-5.2-6"/><path class="cls-10" d="M417.8,919.7c.2-.1-.4-2.3-1.2-6.4s-1.9-9.9-3.1-17.2c-2.4-14.8-7.5-34.7-11.2-57-1-5.5-1.8-11-2.4-16.3-.1-1.3-.3-2.7-.5-4s-.3-2.5-.4-3.8-.4-5.1-.5-7.5c-.6-9.8-.7-18.7-1.2-26.2a123.4,123.4,0,0,0-2.3-17.5c-.8-4.1-1.7-6.2-1.8-6.2s.2,2.3.7,6.4,1.1,10.1,1.4,17.5.2,16.3.6,26.2c.1,2.5.2,5,.4,7.6s.3,2.6.4,4,.3,2.6.5,3.9c.5,5.4,1.3,10.9,2.3,16.5,3.8,22.5,9.2,42.3,12,56.8,1.4,7.3,2.8,13.2,4,17.2s2.1,6.1,2.3,6"/><g class="cls-6"><g class="cls-26"><path class="cls-10" d="M423.6,952.9c.2-.1-.4-2.2-1.3-6.2a86,86,0,0,1-2.3-17c0-1.8,0-3.7.1-5.7s.3-4,.5-6.2c.3-4.3.8-8.9,1.4-13.7a264.4,264.4,0,0,1,5.8-31,132.3,132.3,0,0,1,4.9-15.4c1.9-5,3.6-9.8,5.3-14.4a233.8,233.8,0,0,1,9.6-23.8,62.6,62.6,0,0,1,9-14.3c2.7-3,4.5-4.2,4.4-4.4s-2.2.7-5.1,3.5a58.3,58.3,0,0,0-10.1,14.3,208.2,208.2,0,0,0-10.3,23.8c-1.7,4.5-3.4,9.3-5.4,14.2a146,146,0,0,0-5,15.8,220.6,220.6,0,0,0-5.7,31.4c-.5,4.9-.9,9.5-1.2,13.9-.1,2.1-.3,4.2-.3,6.3s0,4,.1,5.8a74.4,74.4,0,0,0,3.2,17.2c1.3,3.9,2.2,6,2.4,5.9"/></g></g><g class="cls-11"><g class="cls-27"><path class="cls-5" d="M423.4,939.1c.2,0,1-4.6,3.7-11.6,1.4-3.5,3.3-7.6,5.5-12s4.9-9.2,7.6-14.2,5.2-10,7.2-14.6a69.7,69.7,0,0,0,4.3-12.6c1.8-7.4,1.4-12.2,1.3-12.2s-.2,4.7-2.2,11.9a80.1,80.1,0,0,1-4.6,12.3c-2,4.6-4.5,9.4-7.2,14.4s-5.4,9.9-7.5,14.4a105.2,105.2,0,0,0-5.3,12.2c-2.5,7.2-3,12-2.8,12"/></g></g></g></g></svg>