<svg xmlns="http://www.w3.org/2000/svg" width="1272" height="514.3" viewBox="0 0 1272 514.3">
  <defs>
    <style>
      .ae1b27c5-f0cd-4088-9a8a-1e6bfbd5dc88 {
        opacity: 0.44;
      }

      .ace18e1d-38c2-4637-aff1-6dcf0c124fe6 {
        fill: #231f20;
        opacity: 0.25;
      }

      .b8b57dd1-4d19-4b03-8640-a57c0ae417f4 {
        fill: #bcee7b;
      }

      .fbe93df6-927d-41e6-9c03-f48f5dcf93f6 {
        fill: #0d8c3a;
      }
    </style>
  </defs>
  <g id="a07c7452-9340-47a5-9e23-d967d85eabb8" data-name="BG_03">
    <g>
      <g class="ae1b27c5-f0cd-4088-9a8a-1e6bfbd5dc88">
        <path class="ace18e1d-38c2-4637-aff1-6dcf0c124fe6" d="M476.2,457.5s-12.8,18.1-106.7-43.8l11-10.8,23.3,3S487.2,446.1,476.2,457.5Z"/>
        <path class="ace18e1d-38c2-4637-aff1-6dcf0c124fe6" d="M240.3,501.6s-.4,26.8-225.8-118.9c0,0-15.4-10.3,8.6-13.6C23.1,369.1,248.4,486.1,240.3,501.6Z"/>
        <path class="ace18e1d-38c2-4637-aff1-6dcf0c124fe6" d="M262.6,410.1s-56.2-30.1-41-40.7,54.8,25.9,54.8,25.9Z"/>
        <path class="ace18e1d-38c2-4637-aff1-6dcf0c124fe6" d="M364.4,289.6,265.7,215s1.4-7.5,10.9-7.5c17,0,106.7,70.9,106.7,70.9Z"/>
        <path class="ace18e1d-38c2-4637-aff1-6dcf0c124fe6" d="M641.5,489.5s-244.3-99.9-187.3-96S643.7,482.1,641.5,489.5Z"/>
        <path class="ace18e1d-38c2-4637-aff1-6dcf0c124fe6" d="M802.3,392.3s40.3,30.3,64.3,22.4S812.9,376,812.9,376Z"/>
        <path class="ace18e1d-38c2-4637-aff1-6dcf0c124fe6" d="M1051.7,400.2s-92.1-23-100.3-36,8.5-27.1,20.1-20.1S1050.8,394.4,1051.7,400.2Z"/>
      </g>
      <path class="b8b57dd1-4d19-4b03-8640-a57c0ae417f4" d="M191.9,280.7s43.2,11.5,46.9,35.8l-90.4,55.1,91,54.6,43.3-24.5-59-31.8,164.8-97.8-112.1-62L577.5,33.5,649,75.4l96.7-58.6,158.4,94.7,124.6-73.3L1258.8,175l-106.2,69.1,80.7,45.1s13.3,38.9-53.3,41.5l-3.4,2.4s-12,28.3-47.5,23.7c-20.6-2.7,8.8,39.2-68.7,38l-90.1-45.9L868.5,407.7l-50.4-29.4L644.7,481.9,534,424s-2.8,32.2-50.8,26.5l-85.9-47.6L242.2,497,28.5,375.1S158.2,285.2,191.9,280.7Z"/>
      <g>
        <path class="fbe93df6-927d-41e6-9c03-f48f5dcf93f6" d="M179.8,272.3l-155,92.8a7.1,7.1,0,0,0,0,12.2L234.7,502.9a6.9,6.9,0,0,0,7.3,0l158.4-96.1a7.1,7.1,0,0,0-.1-12.2l-35.6-21.7c-4.7-2.8-4.7-8.4-.1-11.1l142.6-85.5A7.2,7.2,0,0,0,507,264l-86.8-52c-4.8-2.7-3.7-7,1-9.8L510.1,148c6.9-5.1,11.3-4,13.5-2.7l46.6,31.1a12.9,12.9,0,0,0,12.6.6l1.3-.7c4.2-3.3,3.4-8.9-.9-11.7L525,126.7c-2.3-1.5-8.7-2.9-16.9,2.4L394.7,198.8c-4.6,2.8-4.3,10.4-.2,12.8l85.4,53.1a7.1,7.1,0,0,1,0,12.2L339,360.5a7,7,0,0,0,0,12.2L373.3,395c4.6,2.7,4,7,.1,10.1L244.1,484.5a6.9,6.9,0,0,1-7.3,0L56.5,377.4a7.1,7.1,0,0,1,0-12.2l132.1-79.7a7.1,7.1,0,0,0,.4-11.9l-1.6-1A7,7,0,0,0,179.8,272.3Z"/>
        <path class="fbe93df6-927d-41e6-9c03-f48f5dcf93f6" d="M236.6,307.6l-93,57c-5.2,3.1-4.4,9.4.9,12.5l91.8,56.4a8,8,0,0,0,8.3-.1L283.2,409c5.3-3.2,7.9-8.7,2.5-11.6L250.9,374c-5.4-3-2.2-7.4,3.1-10.6l128.6-78.3c5.3-3.1,11.4-12.7,4.5-16.3l-82.3-53c-9.7-5.7-6-11-.7-14.1L573.5,43.9a8,8,0,0,1,8.2,0l49.8,30.3c2.6,1.6,7.2,5.6,9.8,3.9l11.4-4c5-3.3-7.9-10.6-12.9-13.6l-57-34.1a8,8,0,0,0-8.2,0L275,201.5a8.1,8.1,0,0,0,.1,13.9l84.4,53.8c5.4,3,2.8,10.5-2.5,13.6L223.8,363.3c-5.4,3.1-5.1,7.2-1.2,9.6l31.1,21.4c5.3,3,11.9,6.6,5.9,10.9L242,415.3a8,8,0,0,1-8.2,0l-65.9-39.5c-5.3-3.1-1.1-7.9,4.2-11l73.8-45.9c5.5-3.2,5.4-8-.2-10.9l-1.3-.7A7.8,7.8,0,0,0,236.6,307.6Z"/>
        <path class="fbe93df6-927d-41e6-9c03-f48f5dcf93f6" d="M402.5,396.1l77.2,46.7a7.5,7.5,0,0,1-.1,12.9l-1.2.8a7.8,7.8,0,0,1-7.8-.1l-76-47.5a7.5,7.5,0,0,1,.1-12.8h0A7.3,7.3,0,0,1,402.5,396.1Z"/>
        <path class="fbe93df6-927d-41e6-9c03-f48f5dcf93f6" d="M470.1,372.8l170.3,98.9a6.4,6.4,0,0,0,6.4-.1L796,380.7a6.3,6.3,0,0,0,0-10.8L646.7,278.6a6.3,6.3,0,0,1,0-10.7L846.4,147.4a6.2,6.2,0,0,0,0-10.7L751.1,79a9.3,9.3,0,0,0-9.5.3L638.7,143.6c-2.1,1.3-5.8.6-7.8-.7l-43.8-28.6a6.2,6.2,0,0,1,.2-10.6L742.5,11.1a6.6,6.6,0,0,1,6.5.1L954.6,135.9c4,2.5,4.1,6.5.1,9l-183,118.4c-3.9,2.5-4.7,6.1-.7,8.5l91.9,55.9c1.9,1.2,7.4,3.2,12.6.5l254.9-149.3a6.3,6.3,0,0,0-.2-10.9L1029,112a6.3,6.3,0,0,1-.3-10.8l2.4-1.5a6.6,6.6,0,0,1,6.5-.2l120,68.3a6.2,6.2,0,0,1,0,10.9l-286.7,164a6.4,6.4,0,0,1-6.4-.1L753.8,273.9c-4-2.3-3.5-8.3.4-10.9L932.1,145.6a6.3,6.3,0,0,0-.2-10.6L749.3,22.1a6.1,6.1,0,0,0-6.6,0L610.9,103.7a6.3,6.3,0,0,0-.2,10.5L633,129.5a6.4,6.4,0,0,0,6.9.1l101.8-63a6.3,6.3,0,0,1,6.5,0l118.1,69.7a6.4,6.4,0,0,1,.1,10.8l-195.5,121a6.2,6.2,0,0,0,.1,10.7l152.2,91.9a6.2,6.2,0,0,1,0,10.7L645.3,489.3a6.3,6.3,0,0,1-6.5,0L463.7,383.6a6.3,6.3,0,0,1,.3-10.9h0A6.3,6.3,0,0,1,470.1,372.8Z"/>
        <path class="fbe93df6-927d-41e6-9c03-f48f5dcf93f6" d="M508.5,265l162.7,95.9c4.7,2.5,9.7,6.6,5.5,10.3l-46.9,29.4c-2,1.2-4.6,1.9-8.1-.3l-.8-.6c-3.7-3.1-2.6-6.6,1.5-8.9l29.4-19.1c4.2-2.3,2.3-6.2-1.9-8.6L500.7,276.6a6.1,6.1,0,0,1-.1-10.6l1.5-1A6.6,6.6,0,0,1,508.5,265Z"/>
        <path class="fbe93df6-927d-41e6-9c03-f48f5dcf93f6" d="M745.4,143.8l-214.5,123c-4.2,2.4-18,9.1-13.8,11.6l10.6,4.2c2,1.2,8.5-3.1,10.5-4.2L751.7,154.7a6.4,6.4,0,0,0,0-11h0A6.2,6.2,0,0,0,745.4,143.8Z"/>
        <path class="fbe93df6-927d-41e6-9c03-f48f5dcf93f6" d="M641.3,149.6l41.5,26.8c1.7,1,5.5,4.1,7.3,3.1l10.9-2.8c3.4-1.9-7.3-8.2-10.7-10.3l-41.7-26.7c-1.8-1.1-7.7-5.9-9.5-4.8l-21-4C614.8,132.9,638,147.5,641.3,149.6Z"/>
        <path class="fbe93df6-927d-41e6-9c03-f48f5dcf93f6" d="M476,366l46.1-25.9a5.7,5.7,0,0,1,5.8,0l44.8,26a5.9,5.9,0,0,1,.1,10.1L524.3,406c-1.7,1-4.4-.2-6.2-1.1l-8.4-2c-4-2.2,6.6-8.5,10.5-10.8l26.3-15.5a5.9,5.9,0,0,0,.2-10l-17-10.9a5.9,5.9,0,0,0-5.9-.2l-45.3,24.9c-1.8.9-2.7-.3-4.5-1.3l-12.2-3.7C460.6,373.5,472,368.3,476,366Z"/>
        <path class="fbe93df6-927d-41e6-9c03-f48f5dcf93f6" d="M1056.7,387.8l-81.4-47.2a10.3,10.3,0,0,0-8.8-.1l-94.1,55.3a6.2,6.2,0,0,1-6.2,0l-30.7-17.4c-1.9-1.2-18.3-12.3-21.9-12.8l-4.7,10.2c-4,2.4,13.5,12,17.5,14.3l36.3,21.1c3.8,2.3,9.6,1,11.5-.2L965,355.7a9.2,9.2,0,0,1,8.7-.1l75.1,43.8a6.1,6.1,0,0,0,6,0l1.7-.9A6.2,6.2,0,0,0,1056.7,387.8Z"/>
        <path class="fbe93df6-927d-41e6-9c03-f48f5dcf93f6" d="M990.7,283.5l127.7,76.6c1.7,1,5.7,0,7.4-1l1.6-.9a5.5,5.5,0,0,0,.1-9.5L998.1,272.9c-1.7-1-8.8-4.3-10.5-3.3l-8.2,2.6C975.7,274.3,987.1,281.3,990.7,283.5Z"/>
        <path class="fbe93df6-927d-41e6-9c03-f48f5dcf93f6" d="M1039.9,254.9l132.5,79a5.1,5.1,0,0,0,5.2,0l1.2-.6a5.2,5.2,0,0,0,.1-9l-132.5-79c-1.6-.9-7.5-4.1-9.2-3.2l-6.1,4.2C1027.6,248.2,1036.5,252.8,1039.9,254.9Z"/>
        <path class="fbe93df6-927d-41e6-9c03-f48f5dcf93f6" d="M1228.6,291.6l-78.1-44.8c-3.9-2.2-5.7-8.8-1.8-11.1l93.8-58.9c3.8-2.3,2.8-5.3-1.1-7.6L1030.6,46.4a5.7,5.7,0,0,0-5.9,0L916.3,109.1c-1.9,1.1-6.1,4-7.9,2.9l-13.9-1.4c-3.9-2.3,10.9-10.2,14.8-12.4l115-65.3a5.9,5.9,0,0,1,5.9.1l232,134.5a5.9,5.9,0,0,1,.2,10.1l-91.6,58.5c-3.8,2.4-3.8,5.5.1,7.7l64.9,36.7a5.9,5.9,0,0,1,.2,10.2l-1.5.8A5.9,5.9,0,0,1,1228.6,291.6Z"/>
        <path class="fbe93df6-927d-41e6-9c03-f48f5dcf93f6" d="M961.5,140.1l53,32.5a5,5,0,0,1-.1,8.5L861.9,273.2a4.9,4.9,0,0,1-5.3-.1l-3.1-2a5,5,0,0,1,.2-8.4L991,180.4a5.1,5.1,0,0,0,0-8.6L954.2,150c-3.2-1.9-14.6-7.5-11.5-9.5l3.6-8.1C947.9,131.4,959.9,139.1,961.5,140.1Z"/>
        <g>
          <path class="fbe93df6-927d-41e6-9c03-f48f5dcf93f6" d="M492.4,285.1s11.2-6.8,23,0,29.7,1.5,29.7,1.5-11.1-5.8,0-12.3-14.2-7.5-14.2-7.5-9.5,6.3-20.9-.9C501.3,260.5,488.4,280.1,492.4,285.1Z"/>
          <path class="fbe93df6-927d-41e6-9c03-f48f5dcf93f6" d="M487.8,375.3s-6.7,3.9,1.4,8.6-7.9,4.2-7.9,4.2l-4.1-11.7Z"/>
          <path class="fbe93df6-927d-41e6-9c03-f48f5dcf93f6" d="M504.8,393a12.7,12.7,0,0,0,12.3,1c6.8-3,7.6,2,7.6,2l-11,5.7S499,396.5,504.8,393Z"/>
          <path class="fbe93df6-927d-41e6-9c03-f48f5dcf93f6" d="M533.4,400.4s-8.3,4.4.7,9.6-12.6,4.5-12.6,4.5l-1.6-12.8S534.1,397.4,533.4,400.4Z"/>
          <path class="fbe93df6-927d-41e6-9c03-f48f5dcf93f6" d="M383.3,417.2s12.2-7.8,26.4,1.1,3.7-8.2,3.7-8.2l-17.2-10.8S372.8,413.7,383.3,417.2Z"/>
          <path class="fbe93df6-927d-41e6-9c03-f48f5dcf93f6" d="M653.8,134.1s-8,3.8,0,8.9-10.8,2.3-10.8,2.3L641.1,135S655.4,130.1,653.8,134.1Z"/>
          <path class="fbe93df6-927d-41e6-9c03-f48f5dcf93f6" d="M691.6,167.1s4.9,4.7,13,0,10.2,4.2,10.2,4.2L687,179S687.3,165.2,691.6,167.1Z"/>
          <path class="fbe93df6-927d-41e6-9c03-f48f5dcf93f6" d="M673.2,170.2s14.4,5.3,4.5,12.4,13.5-4.8,13.5-4.8S673,167.6,673.2,170.2Z"/>
          <path class="fbe93df6-927d-41e6-9c03-f48f5dcf93f6" d="M957.2,151.8a13.4,13.4,0,0,0-14.3.7c-7.8,5,.2-9.6.2-9.6S961.6,145.5,957.2,151.8Z"/>
          <path class="fbe93df6-927d-41e6-9c03-f48f5dcf93f6" d="M922.6,105.4s-9.3,5.5,0,11.1-11.4,1-11.4,1-9.7-4-1.5-8.9S924.9,100.6,922.6,105.4Z"/>
          <path class="fbe93df6-927d-41e6-9c03-f48f5dcf93f6" d="M890.9,97.3a17,17,0,0,0,18.4.9c10-5.7,4,6.1,4,6.1l-13.2,4.9S881.8,97.5,890.9,97.3Z"/>
          <path class="fbe93df6-927d-41e6-9c03-f48f5dcf93f6" d="M970.2,285.9s10.4-8.4,25.4.5-1.6-11.3-1.6-11.3l-13.6-1.2S966,281.1,970.2,285.9Z"/>
          <path class="fbe93df6-927d-41e6-9c03-f48f5dcf93f6" d="M1006.7,265s-13.6,5,0,12.9-13.6,3.4-13.6,3.4l-5.5-11.7S1004.8,256.7,1006.7,265Z"/>
          <path class="fbe93df6-927d-41e6-9c03-f48f5dcf93f6" d="M1024,255.1s7.9-5,19.3,1.8,11.1-6.8,11.1-6.8-12.6-5.2-2.7-10.8-7.7-5.8-7.7-5.8S1018.9,250.9,1024,255.1Z"/>
          <path class="fbe93df6-927d-41e6-9c03-f48f5dcf93f6" d="M806.6,391.5s10.7-6.7,22.2,0-9.3-13.5-9.3-13.5S802.2,381.3,806.6,391.5Z"/>
        </g>
      </g>
    </g>
  </g>
</svg>
