<svg id="bc3d0295-83f1-4dfb-a284-8dd4a306b23d" data-name="BG_01" xmlns="http://www.w3.org/2000/svg" width="1066.2" height="595.8" viewBox="0 0 1066.2 595.8">
  <defs>
    <style>
      .e83f7b6e-14ee-4cfd-9d90-97dd82c4e870 {
        fill: #bdd97b;
      }

      .aca2f25d-3b95-426d-9e35-7736764ab469 {
        fill: #1b2916;
        opacity: 0.21;
      }

      .b3227cd2-4a01-4a7c-9444-0213f0975012 {
        fill: #138b45;
      }
    </style>
  </defs>
  <g id="a7e88269-3edb-45af-8f28-650c5d8fb1ce" data-name="BG">
    <g id="e941151c-c916-4ff8-aa5b-78452df58a2a" data-name="BG">
      <g>
        <path class="e83f7b6e-14ee-4cfd-9d90-97dd82c4e870" d="M78.7,358.4c38.3,21.3,91.1,52.4,106.2,66.7-49.1,34.1-65.2,20.6-14.1,62.7,14.5,5,23.6-3.2,31.1-7.4L243,457.8l137.6,76.6s58.5-12.9,52.2-27c-14.3-32.6-85-59.5-85-59.5l43-26L660.1,576.5l116.5-62.1,54.9,36.3,225.9-125.6-111-75.6,101.3-47.8s-2-42.7-71.9-37.9l-53.4,23.7L661.8,133l-57.6,32.1L356.1,16.1,20.4,196,121,262.9,79.5,293.5s64.2,30.9,52.6,33.4C100.8,333.7,68,353,78.7,358.4Z"/>
        <g>
          <path class="aca2f25d-3b95-426d-9e35-7736764ab469" d="M373.1,438.4s277,173.1,290.1,144.5c5.2-11.6-263.9-156.8-263.9-156.8S391.5,410.2,373.1,438.4Z"/>
          <path class="aca2f25d-3b95-426d-9e35-7736764ab469" d="M749.8,531.9l55.7,26.8s19.8.2,30.5-6.5c8.8-5.5-63.3-34.5-63.3-34.5S736.9,517,749.8,531.9Z"/>
          <path class="aca2f25d-3b95-426d-9e35-7736764ab469" d="M383.3,530.6s-5.6,13.4-21.2,10.9-140.9-70.2-140.9-70.2l18.3-19.6C258.4,462,367.7,520.7,383.3,530.6Z"/>
          <path class="aca2f25d-3b95-426d-9e35-7736764ab469" d="M161.9,433.8S13.9,360,65.6,353.9c29.8-3.5,111.1,69.5,111.1,69.5Z"/>
          <path class="aca2f25d-3b95-426d-9e35-7736764ab469" d="M182.7,351s-12.6,10.9-22.1,6.1-128-88.2-133.9-89.7c-20.2-10.3,19.1-15.3,28.4,3.4C55.1,270.8,184.5,337.3,182.7,351Z"/>
          <path class="aca2f25d-3b95-426d-9e35-7736764ab469" d="M108.8,270.8S24,216.5,16.2,207.5s2.8-8.7,6.9-10.3,96.6,61.7,96.6,61.7S125.1,271,108.8,270.8Z"/>
        </g>
        <g>
          <path class="b3227cd2-4a01-4a7c-9444-0213f0975012" d="M929.2,480.3l-49.9-30.7a4.2,4.2,0,0,1,.2-7.2c1.8,0,55.3-32,56.1-27.9,3.9,1.2,6.7,6.1,2.3,8.6l-37.3,19.6a4.1,4.1,0,0,0-.3,7.2l43.4,24.6c3.1,2.3-6.2,6.6-8.9,7.8S930.5,481.1,929.2,480.3Z"/>
          <path class="b3227cd2-4a01-4a7c-9444-0213f0975012" d="M133.5,443.5l143.6-85.1a6.2,6.2,0,0,0,0-10.7l-83.5-48.1a6.3,6.3,0,0,1,.1-10.9l36.7-20.2a6.2,6.2,0,0,0,0-10.9L130.3,203.1a6.3,6.3,0,0,1,0-11L341.6,79.5a5.9,5.9,0,0,1,5.9.1l149.8,83.9a6.3,6.3,0,0,1,0,10.9l-36.4,22.5c-4.2,2.3-8.2,7.9-4.1,10.4l138.2,83c4.1,2.4,7.8,5.5,3.7,7.9L449.5,383.3a6,6,0,0,1-6.2-.1L302.4,295c-4.1-2.5-7.6-7.5-3.2-9.7l35.3-19.5c4.4-2.2,4.5-6.9.3-9.4l-90.4-53.3a6.2,6.2,0,0,1,.2-10.8l94.7-52.1a6.3,6.3,0,0,1,5.8-.1l39.3,21.7c4.5,2.3,4.5,7.2.1,9.6l-32.9,17.5c-4.3,2.2-11.3,5.9-5.5,9.6l95.7,58.1c9,4.2-3.4,10.3-7.9,7.1L327.8,199.6c-5.6-3.9-4-8.5.3-10.8L364.5,169c4.4-2.4-2.8-5.2-7.2-7.5s-15.3-10.3-21.1-7c-106.8,58.9-83.2,30.3,23.6,102,5.4,5.3-2.4,10-6.7,12.3l-31.5,17.5c-5.5,3.7.2,7.5,4.4,10l115,72.5c1.9,1.2,4.2,1.9,6.1.8l124.8-69.4a6.2,6.2,0,0,0,.1-10.8L438.6,208.9c-4.3-2.5-5.2-7-.9-9.3l35.6-23a6.3,6.3,0,0,0,.2-10.9L347,92.7a6.3,6.3,0,0,0-6.1-.1L156.2,190.5a6.3,6.3,0,0,0-.2,10.9l100.1,58.5a6.2,6.2,0,0,1-.3,10.9l-32.5,16.5a6.2,6.2,0,0,0-.3,10.9l83.9,49.1a6.2,6.2,0,0,1,0,10.7L141.8,455.2C135,459.1,125.5,448.5,133.5,443.5Z"/>
          <path class="b3227cd2-4a01-4a7c-9444-0213f0975012" d="M395,354.5l-208,123a5.2,5.2,0,0,0,0,8.9c2.1,1.4,4.7,2.7,7.1,1.2l216-124c3.4-1.9-1.9-4.4-5.3-6.4S398.3,352.1,395,354.5Z"/>
          <path class="b3227cd2-4a01-4a7c-9444-0213f0975012" d="M373.3,534.8,242.2,458.3c-4.7-2.6-2.9-4.9,1.7-7.6,1.8-10.6,132.7,72.8,136.1,72.2C387.8,527.2,381,539.2,373.3,534.8Z"/>
          <path class="b3227cd2-4a01-4a7c-9444-0213f0975012" d="M431.5,506.8l-89.9-54.9a5.5,5.5,0,0,1,.2-9.5l48-26.9c5.7-5.6,256.5,148.8,261.7,148.8,1.7,1,9.3,3.5,17.3-1.5l100.5-55.4a5.7,5.7,0,0,1,5.4,0L826.9,537c4.6,2,7.4,1.2,9.8-.1-5.8-2.1,218.3-115.2,190.5-120.4l-90.3-57.3a5.4,5.4,0,0,1,.4-9.4l102.6-55.9c6.1-3.3,11.8,6.3,5.3,9.7-127.9,70.3-105.1,35.2,2.9,110.3,7.7,5.5,14.7,10.2,2.9,15.8-9.7,1.2-219.8,137.9-227.6,121.6l-50.2-29.1c-1.8-1.1-5.9-.2-7.7.9L663.2,582.9a5.6,5.6,0,0,1-5.6,0c-5.5,0-257.8-158.1-263.9-152.1L369.9,445a5.6,5.6,0,0,0,0,9.5l68.9,42C445.7,500.7,437.5,510.5,431.5,506.8Z"/>
          <path class="b3227cd2-4a01-4a7c-9444-0213f0975012" d="M434.3,377.8l111.2,66.9a13,13,0,0,0,11.8.4l152.1-87.3c4.9-3.5.6-7.9-3.5-9.7a4.3,4.3,0,0,0-4.4,0L553.9,432.9a4.7,4.7,0,0,1-4.3,0L421.2,357.8c-1-.6-5.8.6-6.9.9C410.6,359.6,430.9,375.8,434.3,377.8Z"/>
          <path class="b3227cd2-4a01-4a7c-9444-0213f0975012" d="M556,384.5,719.6,294a5.4,5.4,0,0,1,5.5.2l88.1,55.2a5.4,5.4,0,0,1-.2,9.2L559,501.3c-3.6,2-17.5,8.1-13.9,10.2l10.4,1.2c1.6.9,2.3,3.7,4,2.7L833.9,358.7a5.4,5.4,0,0,0,.2-9.3L724.5,282.1a5.2,5.2,0,0,0-5.4-.1L550.8,375.2C544.7,378.5,550,387.9,556,384.5Z"/>
          <path class="b3227cd2-4a01-4a7c-9444-0213f0975012" d="M975,267.5l-42.9,23.6c-5.5,5-265.2-149.9-270.2-150a5.3,5.3,0,0,0-5.2,0l-92.3,55.3c-3.5,2-4.3,4.9-.8,6.9l87.5,50.5c2.2,5,59.4-31.6,62.3-31.8,5.7-3.2,9.3-2.7,10.9-1.9l52.1,28.4c4.1,2.1,3.5,8-.7,9.6-7.4,4.1-48.5-29.6-55.8-25.3-4.6,1.2-63.8,39.6-67.9,35.1L545,203.6a5.1,5.1,0,0,1-.1-9l36.8-21.9c3.5-2,4.9-6.9,2.8-8.5L362.1,28.8A14.1,14.1,0,0,0,349,27L41.5,192a5,5,0,0,0-.3,8.8L125,257.2a5.2,5.2,0,0,1-.2,8.9l-27.6,16A5.2,5.2,0,0,0,97,291l83.9,53.1c6.9,4.4-1.9,13.6-7.6,10L75,291.6a5.2,5.2,0,0,1,.2-9L104,266.5a5.2,5.2,0,0,0,.3-9L15.7,200c-3.3-2.2-8.7-6.8-2.3-11.8L350.5,8.7c3.1-1.5,6.9.5,8.5,1.5L600.5,154.5c1.6,1,6.6,3,11.2-.1l43.8-27c1.6-1,6.2-2.5,11.6.7L926.6,278a8.8,8.8,0,0,0,8-.1l35.3-19.6C975.6,254.9,981.3,264.2,975,267.5Z"/>
          <path class="b3227cd2-4a01-4a7c-9444-0213f0975012" d="M700.3,165l-41.6,25.1a3.7,3.7,0,0,0-.1,6.3c2.2,1.2,5.7,5.1,8.4,3.2l49.4-27.5c2.5-1.4-2-3.3-4.5-4.7C707,161.5,707.5,161.5,700.3,165Z"/>
          <path class="b3227cd2-4a01-4a7c-9444-0213f0975012" d="M932.7,357.1l-52-31c-6-3.6.8-11.9,6.1-9.1L941,346.9a4.7,4.7,0,0,1,0,8.3C938.6,356.4,935.4,358.9,932.7,357.1Z"/>
          <path class="b3227cd2-4a01-4a7c-9444-0213f0975012" d="M929.1,354.2,660.3,505.8a3.4,3.4,0,0,0-.2,5.9c2.2.9,4.8,4.5,7.4,2.7L939.8,360.5c2.4-1.3-2.4-3.7-4.8-5S931.2,352.9,929.1,354.2Z"/>
          <path class="b3227cd2-4a01-4a7c-9444-0213f0975012" d="M779.7,450.7c2,.7,40,28.9,41.6,25.4,4.8.3,10.1-7.5,6-10.3l-32.8-21.4c-1.3-.8-3.5-4.3-4.8-3.6C786.4,442.1,775.9,446.4,779.7,450.7Z"/>
          <path class="b3227cd2-4a01-4a7c-9444-0213f0975012" d="M169.7,419l-100-60a5,5,0,0,1,.4-8.8c2.7-1,6.7-4.2,9.7-2.1l106,64.2c4.2,2.9-4.7,6.9-6.9,9.7C177.3,422.9,171.3,419.9,169.7,419Z"/>
          <path class="b3227cd2-4a01-4a7c-9444-0213f0975012" d="M72,289.6,31,263.2c-6.9-5,3.3-12.8,8.6-9.7l39.6,26.4C85.2,283.9,77.3,293.1,72,289.6Z"/>
          <polygon class="b3227cd2-4a01-4a7c-9444-0213f0975012" points="597 299 658.9 267.2 649.1 257.5 585.6 292.2 597 299"/>
          <polygon class="b3227cd2-4a01-4a7c-9444-0213f0975012" points="878.5 263.6 782.8 317.9 770.4 310.3 868.7 258.1 878.5 263.6"/>
          <path class="b3227cd2-4a01-4a7c-9444-0213f0975012" d="M582.2,282.6a17.4,17.4,0,0,0,19,1.1l4.1,2.3-17.6,10.3Z"/>
          <g>
            <path class="b3227cd2-4a01-4a7c-9444-0213f0975012" d="M535.9,497.2c.9,1.7,17.6,9.9,28.2,1.2,8.2,1.3,7.3,1.6,13.3,6.8,0,0-14.5,7.6-2.7,14.5L564.6,524S528.9,502.5,535.9,497.2Z"/>
            <path class="b3227cd2-4a01-4a7c-9444-0213f0975012" d="M767.7,457.7s11.5-5.1,23.5.7l10.3-9.5s-6-5.4,1.2-10.9-10.5-2.6-10.5-2.6S756.9,455.9,767.7,457.7Z"/>
            <path class="b3227cd2-4a01-4a7c-9444-0213f0975012" d="M927.3,367.6s9.4-6.9,22.5,0l2.4-3.1-14.8-7.4Z"/>
            <path class="b3227cd2-4a01-4a7c-9444-0213f0975012" d="M919.3,359.8c12.3-10.9-11.7-10.5,5.7-17.6l16,13S921.2,362,919.3,359.8Z"/>
            <path class="b3227cd2-4a01-4a7c-9444-0213f0975012" d="M933.5,342.7s10,3.7,16.7,0l4.2.8L939,352.6S925.7,342.9,933.5,342.7Z"/>
            <path class="b3227cd2-4a01-4a7c-9444-0213f0975012" d="M867.2,270s10.5-6.2,19.2-1.9-5.5-11.4-5.5-11.4Z"/>
            <path class="b3227cd2-4a01-4a7c-9444-0213f0975012" d="M860.1,262.7c15.6-6.5-15.9-13.4,5.3-14.1l10.3,7Z"/>
            <path class="b3227cd2-4a01-4a7c-9444-0213f0975012" d="M792.3,312.5s-8.7,5.9,0,11.3-10.8,3.5-10.8,3.5l-4.9-13.1S792.1,309.3,792.3,312.5Z"/>
            <path class="b3227cd2-4a01-4a7c-9444-0213f0975012" d="M760.6,304.3s8.8,5.4,17.9,1.6-5,9.4-5,9.4S756.1,306.1,760.6,304.3Z"/>
            <path class="b3227cd2-4a01-4a7c-9444-0213f0975012" d="M714.7,296.8c12.1-7.6,21.3,10.2,13.7-11L715.8,288Z"/>
            <path class="b3227cd2-4a01-4a7c-9444-0213f0975012" d="M713.8,236.2s7.8-5.3,18.1.4-.8-9.3-.8-9.3l-16.4-1.6Z"/>
            <path class="b3227cd2-4a01-4a7c-9444-0213f0975012" d="M706,178s9.2-6.8,21.1,0-6.6-13.8-6.6-13.8l-33.4-8.9s18.2,8.3,5.6,14.3C692.7,169.6,694.9,180.9,706,178Z"/>
            <path class="b3227cd2-4a01-4a7c-9444-0213f0975012" d="M467.1,373.3s-10.7,5.1,1.1,12-4,7.5-4,7.5l-16-13.7S459.5,368.9,467.1,373.3Z"/>
            <path class="b3227cd2-4a01-4a7c-9444-0213f0975012" d="M322.8,285.7s-7.5,4.1,2.4,10.2l-3.8,1.7-12.6-9.9S322.5,281,322.8,285.7Z"/>
            <path class="b3227cd2-4a01-4a7c-9444-0213f0975012" d="M434.2,364.7c14,9.7,38.8-13.8,29.1,5.3l-18,8.1S427.9,367.6,434.2,364.7Z"/>
            <path class="b3227cd2-4a01-4a7c-9444-0213f0975012" d="M269.6,444.3s-15.9,6.6,0,15.6-8.8,3.3-8.8,3.3l-13.7-11.5S268.7,436.5,269.6,444.3Z"/>
            <path class="b3227cd2-4a01-4a7c-9444-0213f0975012" d="M401.2,368.7s8.1-6.8,23,1.4-5.5-11.8-5.5-11.8l-13.9-1.1Z"/>
            <path class="b3227cd2-4a01-4a7c-9444-0213f0975012" d="M382.1,362.1s15.4-7.5,0-17.2,5.6-6,5.6-6l18.8,13.4S387.4,365.3,382.1,362.1Z"/>
            <path class="b3227cd2-4a01-4a7c-9444-0213f0975012" d="M172.5,404.2c16.6,14.5,38.1-13.1,52.1-3.7l-36,18.8S159.6,406.3,172.5,404.2Z"/>
            <path class="b3227cd2-4a01-4a7c-9444-0213f0975012" d="M161.8,414.2s10.3,5.5,0,12.5c-14.5,9.9-12.5,10.8-12.5,10.8l33.5-15.3S171,414.5,161.8,414.2Z"/>
            <path class="b3227cd2-4a01-4a7c-9444-0213f0975012" d="M633.2,256.6s9.1,4.6,0,9.6,9,4.8,9,4.8l8.9-9.6S636,248.8,633.2,256.6Z"/>
          </g>
        </g>
      </g>
    </g>
  </g>
</svg>
