<svg xmlns="http://www.w3.org/2000/svg" width="1211.5" height="550.8" viewBox="0 0 1211.5 550.8">
  <defs>
    <style>
      .af111f0e-4f2f-4f93-9b81-0b09b58c3304 {
        opacity: 0.75;
      }

      .f35a3dc1-7360-475d-8968-28dde23435bd {
        fill: #102800;
        opacity: 0.21;
      }

      .f571d72c-2d53-47c3-8d93-565e9f28a2ac {
        fill: #bcee7b;
      }

      .a3d7e9ed-144e-4726-9e84-fb884264244b {
        fill: #0d8c3a;
      }
    </style>
  </defs>
  <g id="ea1e1668-a3a9-4e8d-938b-5eba4086c091" data-name="BG_02">
    <g>
      <g class="af111f0e-4f2f-4f93-9b81-0b09b58c3304">
        <path class="f35a3dc1-7360-475d-8968-28dde23435bd" d="M27.1,371.7s-15.5,1.8-14.1,7.6c2.9,12.4,162.1,101.1,162.1,101.1s18.6,3.8,21.8-2.3L78,411.1Z"/>
        <path class="f35a3dc1-7360-475d-8968-28dde23435bd" d="M233,463.3s136.3,83.1,146.6,65.4L370,516.9,248.2,445.5S218.9,458.8,233,463.3Z"/>
        <path class="f35a3dc1-7360-475d-8968-28dde23435bd" d="M398.1,440.9s82.1,57.3,134.1,60.4l6.2-5L413.3,421.5S375.8,428.9,398.1,440.9Z"/>
        <path class="f35a3dc1-7360-475d-8968-28dde23435bd" d="M689.8,407.5s125.6,62.8,155.7,57.8-128.4-82.8-128.4-82.8S684.5,397.9,689.8,407.5Z"/>
        <path class="f35a3dc1-7360-475d-8968-28dde23435bd" d="M840.5,358.2s63.5,38.4,88.8,31.6-76-49.6-76-49.6Z"/>
        <path class="f35a3dc1-7360-475d-8968-28dde23435bd" d="M1026.9,337.6s76.4,48.1,101.1,39.5-91.2-57.2-91.2-57.2Z"/>
        <path class="f35a3dc1-7360-475d-8968-28dde23435bd" d="M194.2,278.8s-10.1,6.3-.4,16.3c5,5.1,98.4,60.2,98.4,60.2l25.1-9S210.3,276.4,194.2,278.8Z"/>
        <path class="f35a3dc1-7360-475d-8968-28dde23435bd" d="M308,147.6s-28.1,14.7,40.6,43.5l16.1-9.3S319.5,140.4,308,147.6Z"/>
      </g>
      <path class="f571d72c-2d53-47c3-8d93-565e9f28a2ac" d="M24.2,375.2S43,349.3,74.4,349.1s118,64.8,118,64.8l126.3-70.8L198.9,278.2l171.2-100L313.9,151,470.1,61.5,539,97.3,640.7,35.1l45.6,25.5,80.7-43,51.8,26.8,68.4-26.8,114.4,68.7L949,122.6l109.4,63.2L898.3,280.5l38.9,21.2,116-62.6,139.6,84.8s12.8,34.1-58,45.4L1050,320,934.8,378.7l-70-35.4L829,370.4l80.3,54.3s1.3,30.9-50.8,33.5l-135.6-78L534.1,493.8,409,421.4l-33.6,18,73.1,56.2s-2.8,46.8-68,32.8L249.1,444.5l-55,30.8Z"/>
      <g>
        <path class="a3d7e9ed-144e-4726-9e84-fb884264244b" d="M847.2,461.3,713.8,387.1a7.3,7.3,0,0,1-.2-12.7l33.1-20.7c4.9-2.9,4.8-8.9,0-11.7l-91.1-52.9a7.3,7.3,0,0,1,0-12.7l127.7-75c10.6-6.8,8.2-10.5,3.2-13.2L703.4,141c-5.5-3.6-11.6-2.4-13.8-1.1l-143.2,84c-4.8,2.7-5.4,4.3-.8,7.3l24.8,16.2c4.8,3.1,7.6,10.1,2.6,12.7l-27.1,16.2c-5.3,2.7-9.1,8.2-3.9,11l91.4,50.1a7.4,7.4,0,0,1,0,12.9L533.5,406a7.3,7.3,0,0,1-7.3,0L316.1,284.9a7.4,7.4,0,0,1,.1-12.8L695.8,58.9a7.5,7.5,0,0,1,7.1-.1L919.6,176.7c5,2.7,5.2,11.1.4,14.1L786.4,276.3c-8.5,4.4-4,9,.7,11.9l80.4,49.4c4.7,2.8,5.9,6.5,1.2,9.4l-24.8,20c-4.7,2.9-2.9,5.3,1.9,8.1l65.6,38.8c4.8,2.8,5.6,4.3,2.5,8.8l-1.8,1.3a9.1,9.1,0,0,1-8.5,0l-83.3-47.2c-4.9-2.9-5.3-8.3-.3-11l22.7-18.4c4.6-4.8,4.8-8.6,0-11.6l-76.1-47.4c-5.9-6.1-5.2-11.2-.6-14.1l130.6-84.1c6.1-5.3-.5-10-5.4-12.7L704.6,76a7.4,7.4,0,0,0-7.2.1L348.2,272.8a7.3,7.3,0,0,0-.2,12.7L521.2,387.7a7.6,7.6,0,0,0,7.3.1L597.2,350a7.4,7.4,0,0,0,.3-12.8l-83.6-49.8a7.3,7.3,0,0,1,.4-12.8l29.9-16.7c4.9-2.6,4.5-8.1-.1-11.3l-19.2-13.1c-4.5-3.1-3.5-6.9,1.3-9.6l160-95.1c6.6-4.4,13.3-4.8,16.6-3.2l105.3,60.1c9.1,7.9-7.7,17.5-14.1,21.6l-111.5,68a7.4,7.4,0,0,0-.1,12.7l89.4,54a7.3,7.3,0,0,1,.2,12.5l-30.6,19.7a7.3,7.3,0,0,0,.5,12.6l113.7,60.8a7.4,7.4,0,0,1,.5,12.7l-1.3.8A7.4,7.4,0,0,1,847.2,461.3Z"/>
        <path class="a3d7e9ed-144e-4726-9e84-fb884264244b" d="M584,253.3l101.4-57.6c4.1-2.4,3.7-5.5-.5-7.7l-2.8-1.8c-1.8-.9-5.6-.5-7.4.5L574.6,243.4c-4.5,2.6-22.9,11-17.9,12.5l2.1,11.5C560.4,267.9,582.6,254.1,584,253.3Z"/>
        <path class="a3d7e9ed-144e-4726-9e84-fb884264244b" d="M696.9,384.5,532,482.6a6.5,6.5,0,0,1-6.6,0L409.6,417.2a6.5,6.5,0,0,0-6.6,0l-35.5,21.3a6.6,6.6,0,0,0-.1,11.3L443,495.9a6.6,6.6,0,0,0,6.5.2h0a6.6,6.6,0,0,0,.3-11.5l-58.3-34.5a6.6,6.6,0,0,1,.2-11.5L402,433a6.7,6.7,0,0,1,6.3.1l120.1,67.4a6.5,6.5,0,0,0,6.6-.1L718,390.7c4.3-2.6,4.2-7.8-.2-10.3l2.1-8.6C719.2,370.4,700.8,382.5,696.9,384.5Z"/>
        <path class="a3d7e9ed-144e-4726-9e84-fb884264244b" d="M379.9,518.6l-113-69.9a6.4,6.4,0,0,1,.2-11.1l158.6-89.5c4.4-2.5-2.9-6.9-7.3-9.4h-1.3c-1.9-1.2-6.4,2.1-8.3,3.2L195.2,461.6a6.6,6.6,0,0,1-6.5,0L32.4,369a6.3,6.3,0,0,0-6.6.1l-1.3.7a6.4,6.4,0,0,0,.1,11.1l163.2,96.9c4.8,2.3,8.9,1.3,10.9.1l43.5-24a6.3,6.3,0,0,1,6.5.1l124.5,75.6a6.3,6.3,0,0,0,6.5.1h0A6.4,6.4,0,0,0,379.9,518.6Z"/>
        <path class="a3d7e9ed-144e-4726-9e84-fb884264244b" d="M83.1,343.6l103.4,59.2c1.8,1.1,11.2,4.7,19.4-1.2l87-49.1A6.1,6.1,0,0,0,293,342l-94.9-56c-4-2.4-5.5-9.4-1.5-11.7l147-87.1c4-2.3,5.9-5.7,2-8.2l-36-22.6a6,6,0,0,1,.2-10.4L469.1,53.7a6.2,6.2,0,0,1,6.2.1l50,32.1c1.9,1.2,7.2,3.9,16-.1l98.1-56.6a6,6,0,0,1,5.8-.1l44.1,22.6a6.1,6.1,0,0,1,.2,10.7l-4,2.3c-1.9,1,0,2-1.9,1L644.1,45.2a5.9,5.9,0,0,0-5.9.1l-99.2,56c-6.6,4.2-14,2.6-15.9,1.3L471.5,70.7a6.3,6.3,0,0,0-6.5-.3L335.6,144.8a6.1,6.1,0,0,0-.1,10.5l33.3,21.4c4,2.4,3.4,8.8-.6,11.2L221.1,274.8a6.1,6.1,0,0,0,0,10.5l97,56.9a6.1,6.1,0,0,1,0,10.5L204.4,417.6c-1.9,1-9.8,3.5-14.8-.1L77.1,354.2a6.1,6.1,0,0,1,.2-10.7h0A6,6,0,0,1,83.1,343.6Z"/>
        <path class="a3d7e9ed-144e-4726-9e84-fb884264244b" d="M463.6,185.7l-43.7-27a6.2,6.2,0,0,1,.3-10.8l50.6-27.3a6.3,6.3,0,0,1,6.1.1l44.9,25.7c4.1,2.3,18.6,11.2,14.6,13.7l-11.8,6.1c-1.9,1.2-12.1-4.7-14-5.9l-36.8-20.6a6.4,6.4,0,0,0-6,0l-15.4,8.5a6.2,6.2,0,0,0-.3,10.7l22.2,13.9c12.7,8.7,15.1,11.5,11,13.8l-10.5,4.6C472.8,192.3,465.5,186.9,463.6,185.7Z"/>
        <path class="a3d7e9ed-144e-4726-9e84-fb884264244b" d="M697.2,59.1l56.2-32.5c3.7-2.1,6.7-1.7,8.4-.8l52.3,26.1c1.7.8,6.7,2.7,11.2-.3l49.8-27.4a6,6,0,0,1,5.8,0l102.5,60a5.8,5.8,0,0,1-.2,10.1l-41.1,22.9c-3.9,2.2-4.7,8.4-.8,10.6l90.9,50.4c3.9,2.2,10.1,5.2,2.9,10.4L884.5,276.5a5.8,5.8,0,0,0,.2,10.2l42.6,21.8a20.1,20.1,0,0,0,16.5-.3l100.9-58.1a5.8,5.8,0,0,1,5.7,0l137.2,74.4a5.8,5.8,0,0,0,5.7,0l4.3-2.5a5.9,5.9,0,0,0-.2-10.2l-149-78.4a6.1,6.1,0,0,0-5.7.2L937.9,295.7a5.7,5.7,0,0,1-5.4.3L910,285.4a5.8,5.8,0,0,1-.5-10.3L1058.1,190a5.8,5.8,0,0,0,0-10.1l-92-52.1c-4.1-2.2-5-7.3-.9-9.5l41.4-22.2a5.8,5.8,0,0,0,.2-10.1L881.9,11.4a5.7,5.7,0,0,0-5.8-.1L824.6,39.6a10.6,10.6,0,0,1-11.5.4L762.2,13.9a11.2,11.2,0,0,0-8.8.8L696.6,45.2C688,49,675.1,55.8,679.3,57.9l4.3,7.8C685.3,66.6,695.5,60,697.2,59.1Z"/>
        <path class="a3d7e9ed-144e-4726-9e84-fb884264244b" d="M881.4,346,926,371.9a7.1,7.1,0,0,0,6.9.2l111.2-58.6a7.1,7.1,0,0,1,6.8.1l88.7,46.8c4.8,2.8,6.2,6.8,1.9,10.9l-1.8,1.2c-3.3,1.2-8.7,1.1-10.9-.1l-79.7-41.3a6.8,6.8,0,0,0-6.9-.2L935.6,386.5c-2.2,1.2-7.1,2.2-13.5-.7l-57.5-33.7c-4.7-2.6-4.6-5.1,0-8l-6.1-10C860.7,332.8,879.1,344.7,881.4,346Z"/>
        <path class="a3d7e9ed-144e-4726-9e84-fb884264244b" d="M820.7,125.9l56.4-33a4.8,4.8,0,0,0-.2-8.5l-2.4-1.3a4.9,4.9,0,0,0-4.7.1l-51.5,29.6c-3.3,1.9-16.2,8.6-12.8,10.4l10.4,1.8C817.4,125.8,819.2,126.7,820.7,125.9Z"/>
        <g>
          <path class="a3d7e9ed-144e-4726-9e84-fb884264244b" d="M410,356.9s13.3-10.2,28.2-1.6,18.7-3.5,18.7-3.5L425.6,340l-28.4-8.4s13.5,9.2-6.2,20.3Z"/>
          <path class="a3d7e9ed-144e-4726-9e84-fb884264244b" d="M516.1,477.4s11.2,8,25.5-.6,3.2,10.6,3.2,10.6l-24.7,1.9S508,479.1,516.1,477.4Z"/>
          <path class="a3d7e9ed-144e-4726-9e84-fb884264244b" d="M558.8,239.8s8.7,8.6,23.6.5,22.4-3.9,22.4-3.9l-46.9,21.5Z"/>
          <path class="a3d7e9ed-144e-4726-9e84-fb884264244b" d="M708,396.7s9.2-7.7,28.3,3,3.8-5.7,3.8-5.7l-26.6-9.7S693.5,398.9,708,396.7Z"/>
          <path class="a3d7e9ed-144e-4726-9e84-fb884264244b" d="M855,358s4.5-8.8,19.7,0-2.8-10.1-2.8-10.1L855,344.2S847.1,358.6,855,358Z"/>
          <path class="a3d7e9ed-144e-4726-9e84-fb884264244b" d="M921.9,291a25.9,25.9,0,0,0,25.3-.8c13.3-7.9,18.5-3.4,18.5-3.4l-28.8,16.6Z"/>
          <path class="a3d7e9ed-144e-4726-9e84-fb884264244b" d="M688.3,81.2s12.5-7.2,25.9,0,3.7-7.7,3.7-7.7l-7.7-10.7s-11.2-4.7,3.2-13.1-12.1-7.1-12.1-7.1-12.6,8.9-29.9,0-5,14.2-5,14.2,22,9.3,2,17.5C668.4,74.3,673.8,86.7,688.3,81.2Z"/>
          <path class="a3d7e9ed-144e-4726-9e84-fb884264244b" d="M518.2,144.3s9.2,9.2,25.6,0,14.1,4.1,14.1,4.1l-23.8,9-32.4,10.5s10.5-6.6.4-12.3S518.2,144.3,518.2,144.3Z"/>
          <path class="a3d7e9ed-144e-4726-9e84-fb884264244b" d="M474.3,172.8s10.1,4.8,18.8,0,8.4,7.8,8.4,7.8S466.6,186.4,474.3,172.8Z"/>
          <path class="a3d7e9ed-144e-4726-9e84-fb884264244b" d="M455.3,180.5s11.5,7-3.2,15.3,18.4,0,18.4,0l14.8-9.2S454.2,168.2,455.3,180.5Z"/>
          <path class="a3d7e9ed-144e-4726-9e84-fb884264244b" d="M510.6,381.4s10.8,8.2,26.5,1.7,5.6,5.6,5.6,5.6L527,398.1S497.8,384.3,510.6,381.4Z"/>
          <path class="a3d7e9ed-144e-4726-9e84-fb884264244b" d="M834.1,118.1s-10.3,6.5,0,12.1-7.6,4-7.6,4L815.9,125S831.8,108.1,834.1,118.1Z"/>
          <path class="a3d7e9ed-144e-4726-9e84-fb884264244b" d="M818.3,112.8s-7.5,4.8-19.3-1.7,5.5,12.9,11.9,13.6S821.2,111.6,818.3,112.8Z"/>
          <path class="a3d7e9ed-144e-4726-9e84-fb884264244b" d="M457.9,74.5a18.3,18.3,0,0,1,19.9,0c10.8,6.7,11.8-7.1,11.8-7.1l-15.9-5.5-15.8,5.5S446.6,76.1,457.9,74.5Z"/>
        </g>
      </g>
    </g>
  </g>
</svg>
