<svg xmlns="http://www.w3.org/2000/svg" width="1201.4" height="553.4" viewBox="0 0 1201.4 553.4">
  <defs>
    <style>
      .a77ef23f-940b-4a73-aca3-24cf9539ec03 {
        opacity: 0.78;
      }

      .e57a7bf8-b4ac-4367-beb4-80c4cd0f92a7 {
        fill: #231f20;
        opacity: 0.25;
      }

      .ec8f6c28-0ff6-4b9c-98eb-dcb5cd1b833a {
        fill: #579131;
      }

      .abbf2677-3822-414a-a780-1517fac0d9a0 {
        fill: #bcee7b;
      }

      .a7f0af43-0338-4a8a-9669-59c8687e4174 {
        fill: #0d8c3a;
      }
    </style>
  </defs>
  <g id="a4da199b-7967-4d77-a9e7-80993cd16399" data-name="BG_04">
    <g>
      <g class="a77ef23f-940b-4a73-aca3-24cf9539ec03">
        <path class="e57a7bf8-b4ac-4367-beb4-80c4cd0f92a7" d="M970.7,500.7s-38.7,5.4-170.5-84.2c0,0,4.9-11.3,12.8-12.3S981,487.3,970.7,500.7Z"/>
        <path class="e57a7bf8-b4ac-4367-beb4-80c4cd0f92a7" d="M744.4,508.2s-31.2,6.6-126.1-49.3c0,0,6.4-20.7,21.4-21.6S744.4,508.2,744.4,508.2Z"/>
        <path class="e57a7bf8-b4ac-4367-beb4-80c4cd0f92a7" d="M477.9,542s-27.6,7.2-177.3-96c0,0,.2-10.2,12.8-11.8S484.7,537.5,477.9,542Z"/>
        <path class="e57a7bf8-b4ac-4367-beb4-80c4cd0f92a7" d="M167.8,459.6S-24.4,351.4,13.5,345.5c18.7-3,167.9,106,167.9,106S184.4,461,167.8,459.6Z"/>
        <path class="e57a7bf8-b4ac-4367-beb4-80c4cd0f92a7" d="M187.7,184.9s-19,1.2-13,8.2S321.9,295.4,330.5,297.4s28.7-15.7,28.7-15.7Z"/>
        <path class="ec8f6c28-0ff6-4b9c-98eb-dcb5cd1b833a" d="M125.2,288.5s-71.8-33.1-42.4-35.9c15.4-1.5,49.2,30.3,49.2,30.3Z"/>
      </g>
      <path class="abbf2677-3822-414a-a780-1517fac0d9a0" d="M86.2,251.5s21.1-30.9,57.8-31.4,103.9,61.7,103.9,61.7l-91,55.2-.2,7.1L212,374.5l142-89.4L189.4,184.2l138.5-80.1,49.6,26.1L556.1,19.5,777,149.5l50.9-29.6,245.8,146.6-63.3,39,51.7,30.3-114,69.1,38.5,24.9,148.5-87.4s49.1-.8,48.3,26.3l-27.9,20.9L974.1,498.1,821.2,410.7l-57.1,31.8,49.2,28.1s-.7,26.1-59.9,34.5L640.7,446.8,481.1,536.6,315,436,191.4,505.1s-44.3-2.9-37.7-28.7L191,455.9,23.4,346.7,138.7,281Z"/>
      <g>
        <path class="a7f0af43-0338-4a8a-9669-59c8687e4174" d="M151.7,467.6,364.5,342.1a4.7,4.7,0,0,1,5,.1l43.2,27.6c3.1,1.9,2.6,6.2-.5,8.1L388.8,394c-3.1,1.9-.9,4.3,2.2,6.2l96.2,56a11.8,11.8,0,0,0,11-.2L667.8,347c3-2,6-5.6-2-9.6L479.7,223.3a4.9,4.9,0,0,1,0-8.4l64.1-38a4.8,4.8,0,0,1,4.9,0L811.4,332.3a4.9,4.9,0,0,1,.1,8.3L658.4,435.4a4.8,4.8,0,0,0,.1,8.3L750,500.2c3.3,1.9,4.1,6.1.7,7.9l-1.6.9a9.4,9.4,0,0,1-8.3,0l-98.2-60.6a5,5,0,0,0-5,0L481.2,541.2a4.9,4.9,0,0,1-5.1-.1L316.7,440.4a5.2,5.2,0,0,0-5.1-.1L204.9,502.6c-1.6.9-10.4,6.5-14.8,3.3l-.3-.5c-4.2-5.1,5.8-10.1,8.9-12l109.6-65.5c3.6-2.1,7-2.2,9.1-1l161.7,98.3a4.5,4.5,0,0,0,5,0L785,340.6a4.9,4.9,0,0,0-.1-8.4L546.2,195a5,5,0,0,0-4.9,0l-34.4,20a4.8,4.8,0,0,0-.1,8.4L687.4,334c8.8,5.6,5.9,13.9,2,16L498.5,468.5c-5.4,3.5-12.2.6-13.8-.3L370.1,401.7a4.9,4.9,0,0,1,0-8.3L393.8,379a4.9,4.9,0,0,0,.2-8.2l-25-16.6a4.7,4.7,0,0,0-5.1-.2L158.6,477.1c-3.5,1.3-5.5-.2-7.1-1.2h0A4.9,4.9,0,0,1,151.7,467.6Z"/>
        <path class="a7f0af43-0338-4a8a-9669-59c8687e4174" d="M809,471l-46.9-29.2c-4.2-2.4-5.1-7.4-.1-10.8l153.6-90.2a6.2,6.2,0,0,0,0-10.7L540.5,111.4a6.3,6.3,0,0,0-6.6.2L383.6,209a6.2,6.2,0,0,0,.1,10.5l82.7,51.7a6.2,6.2,0,0,1,.2,10.4l-27.8,19.1a6.3,6.3,0,0,0,.2,10.5l93.2,58.2a6.3,6.3,0,0,1,0,10.6l-27.3,19.1c-4,2.5-3.9,6.2.1,8.6l35.8,20.9a6.3,6.3,0,0,1,.2,10.7h0a6.6,6.6,0,0,1-6.5.2l-52.7-30.1c-4.1-2.3-5.5-7.1-1.6-9.6l31.4-21.4c3.9-2.5,2.7-6.2-1.3-8.6l-95.1-58.3a6.3,6.3,0,0,1-.3-10.5l26.8-18.6a6.2,6.2,0,0,0-.2-10.4l-83-53.3a6.3,6.3,0,0,1,0-10.5L532.3,94.9a6.3,6.3,0,0,1,6.6-.2L938.6,328.1c4,2.4,4.1,8.3-1.6,11.8l-150.9,92c-5.4,2.5-2.3,7.4,1.8,9.8l28.5,17.9c4.4,2.5,4.2,6.9,1.5,10.5l-2,1.3A8.3,8.3,0,0,1,809,471Z"/>
        <path class="a7f0af43-0338-4a8a-9669-59c8687e4174" d="M820.7,410.8l153.5,91.8a5.7,5.7,0,0,0,5.8,0l212.4-126c3.9-2.3,2.4-9-1.7-11.1l-1.1-.8c-3.8-2.2-6.4-1.4-8.1-.4L981.1,486.5a5.7,5.7,0,0,1-5.8,0L834.5,405.8c-1.8-1-6.5-4.1-8.3-3l2.5,3.1C825.1,408.1,817,408.6,820.7,410.8Z"/>
        <path class="a7f0af43-0338-4a8a-9669-59c8687e4174" d="M1133.4,345.4l-148.3,91a6.4,6.4,0,0,1-6.4.1l-46.5-25.9a6.4,6.4,0,0,1,0-11.1l108.5-62.6c4.2-2.4,3-7.1-1.1-9.6l-35-21.2a6.3,6.3,0,0,1,.3-10.9l45.2-27c4.3-2.3,4.3-6.5.1-8.9l-220-130.8a6.5,6.5,0,0,0-6.6.1l-43.9,27.1a6.5,6.5,0,0,1-6.6,0L563.4,29.4c-2-1.3-6.8-2.3-12,1l-173,106.4a6.2,6.2,0,0,1-6.7,0l-42.2-26.4a6.3,6.3,0,0,0-6.6-.1L211.2,177.5a6.4,6.4,0,0,0,0,10.8l144.5,88.5c4,2.5-3.8,3.2-7.9,5.6l-1.6,6.2c-2,1.2-7.7-2.3-9.7-3.6L186.7,188.4a6.3,6.3,0,0,1,.1-10.7L324,94.8a6.3,6.3,0,0,1,6.6,0l38,23.3a6.3,6.3,0,0,0,6.6.1L548.4,11.9c2-1.2,8-3.2,13-1.1L773.6,138.5a6.2,6.2,0,0,0,6.7-.1l43.8-28.5a6.5,6.5,0,0,1,6.7-.1l246,145.6c4.2,2.5,3.9,10.4-.3,12.8L1027,298.3c-4.2,2.4-4.2,6.3,0,8.7l36.5,20.7a6.3,6.3,0,0,1,0,11L957.7,399.3a6.3,6.3,0,0,0,.2,11.1l18.8,9.7a6.3,6.3,0,0,0,6.1-.2l144.1-85.3a6.5,6.5,0,0,1,6.2-.2h0A6.3,6.3,0,0,1,1133.4,345.4Z"/>
        <path class="a7f0af43-0338-4a8a-9669-59c8687e4174" d="M772.8,220l41-26.3a9.9,9.9,0,0,1,9.6.2L921,252a6.8,6.8,0,0,1,.1,11.6l-42.5,25.6c-2.1,1.2-6.7,4.9-8.8,3.7L856,288.3c-4.6-2.6,8.9-9.7,13.6-12.2l23.5-12.5a6.7,6.7,0,0,0,.3-11.7L824,210.2c-2-1.3-4.5-2.4-6.6-1.2l-37.6,22.5c-2.1,1.2-8,5.6-10.1,4.4l-7.9-4.5C757.4,228.9,768.6,222.7,772.8,220Z"/>
        <path class="a7f0af43-0338-4a8a-9669-59c8687e4174" d="M347.2,211.3,315,189.5a5.9,5.9,0,0,1,.2-9.9l3.6-2.2a6,6,0,0,1,6.3,0l32.7,21.4c3.6,2.3,20.8,12.9,17.3,15.2l-10.7,6.1C362.4,221.4,349.1,212.6,347.2,211.3Z"/>
        <path class="a7f0af43-0338-4a8a-9669-59c8687e4174" d="M412.1,293.2l-37.2-23.1a5.7,5.7,0,0,0-5.9,0L207.9,364.2a6,6,0,0,1-5.8,0L164.6,342a5.8,5.8,0,0,1-.1-9.9l83.9-50.8a5.8,5.8,0,0,0,0-9.8l-97.3-59.6a5.7,5.7,0,0,0-5.9,0h0a5.7,5.7,0,0,0-.1,9.8l82.5,50.7a5.8,5.8,0,0,1-.1,9.8l-82.4,49.7a5.7,5.7,0,0,0-.1,9.7L204.7,379a5.6,5.6,0,0,0,6,.1l154.8-93.2a5.7,5.7,0,0,1,5.8,0l32.6,18.8c1.9,1.1,20.4,12.5,22.2,11.3l-.6-11.1C428.9,302.5,415.6,295.4,412.1,293.2Z"/>
        <path class="a7f0af43-0338-4a8a-9669-59c8687e4174" d="M183.7,440.5,36.9,350c-3.1-2-3.5-4.6,2.4-7.5l96.9-55.6c6.1-2.6,5-7.3,1.9-9.3L90.9,247.7a4.8,4.8,0,0,0-4.8-.2l-.7.3a4.8,4.8,0,0,0-.4,8.4l32.7,21.3c3.1,2,4.6,5,1.4,6.8L16,341.4a4.9,4.9,0,0,0-.2,8.5L179.1,452.8c1.5.9,12.2-1.8,13.7-2.7h1.8C197.8,448.3,186.8,442.4,183.7,440.5Z"/>
      </g>
    </g>
  </g>
</svg>
