<svg xmlns="http://www.w3.org/2000/svg" xmlns:xlink="http://www.w3.org/1999/xlink" viewBox="0 0 1600 900"><defs><style>.cls-1{fill:none;}.cls-2{clip-path:url(#clip-path);}.cls-3{fill:#031c0f;}.cls-4{fill:#143d05;}.cls-5{fill:#1f490e;}.cls-6{fill:#1e5229;}.cls-7{fill:#1a4122;}.cls-8{fill:#164233;}.cls-9{fill:#2b7a44;}.cls-10{opacity:0.62;}.cls-11{clip-path:url(#clip-path-2);}.cls-12{fill:#102c16;}.cls-13{fill:#0e2312;}.cls-14{fill:#174226;}.cls-15{clip-path:url(#clip-path-3);}.cls-16{opacity:0.59;}.cls-17{clip-path:url(#clip-path-4);}.cls-18{clip-path:url(#clip-path-5);}.cls-19{fill:#395620;}.cls-20{fill:#0e3a3b;}.cls-21{clip-path:url(#clip-path-6);}.cls-22{clip-path:url(#clip-path-7);}.cls-23{clip-path:url(#clip-path-8);}.cls-24{clip-path:url(#clip-path-9);}.cls-25{clip-path:url(#clip-path-10);}.cls-26{fill:#448430;}.cls-27{clip-path:url(#clip-path-11);}.cls-28{fill:#126624;}</style><clipPath id="clip-path"><polyline class="cls-1" points="1600 0 1600 900 0 900 0 0"/></clipPath><clipPath id="clip-path-2"><rect class="cls-1" x="1487.3" y="530.1" width="135.7" height="126.2" transform="translate(828.3 2090.5) rotate(-85)"/></clipPath><clipPath id="clip-path-3"><rect class="cls-1" x="1455.3" y="698.8" width="273.3" height="37.94" transform="translate(581 2141.7) rotate(-78.9)"/></clipPath><clipPath id="clip-path-4"><rect class="cls-1" x="1526.7" y="748.1" width="142.2" height="27.06" transform="matrix(0.19, -0.98, 0.98, 0.19, 542.65, 2182.82)"/></clipPath><clipPath id="clip-path-5"><rect class="cls-1" x="528.9" y="895.1" width="162.9" height="28.08" transform="translate(-440 599.5) rotate(-39.7)"/></clipPath><clipPath id="clip-path-6"><rect class="cls-1" x="-104.9" y="534.4" width="111.7" height="100.37" transform="translate(-256.3 35.7) rotate(-25.5)"/></clipPath><clipPath id="clip-path-7"><rect class="cls-1" x="-27.4" y="571.6" width="105.3" height="116.92" transform="translate(-420.9 184.5) rotate(-42.7)"/></clipPath><clipPath id="clip-path-8"><rect class="cls-1" x="-29.3" y="676.9" width="27.7" height="151.57" transform="translate(-349.8 78.1) rotate(-27.5)"/></clipPath><clipPath id="clip-path-9"><rect class="cls-1" x="-23.8" y="738.6" width="19.8" height="78.84" transform="translate(-361.3 81.7) rotate(-27.5)"/></clipPath><clipPath id="clip-path-10"><rect class="cls-1" x="1620" width="1600" height="900"/></clipPath><clipPath id="clip-path-11"><rect class="cls-1" x="1593.7" y="735" width="22" height="121.73"/></clipPath></defs><g id="Forground_Elements1"><g class="cls-2"><path class="cls-3" d="M834.5,925.6c14.7-1.4,31.1-4.5,35.5-6.6-8.6-1.3-24.9-.5-38.5.9l3.1-.8c7.9-1.4,14.3-2.9,15-3.7,9.5-2.3,17.3-4.1,18.5-4.2-5-.4-18.1,1.1-30.5,3.5l-3.9.2c17.3-5.8,36.5-12.6,38.4-14.4-3.5-.4-17.6,3.1-32.2,7.4,7.9-3.8,15.3-7.7,19-10-3.5.6-7.7,1.5-12.2,2.7l11.9-7.8c-.9-.8-4.5.1-9.6,2.1,7.1-5.3,12.2-9.9,12-11.6l-21.6,12c4.9-3.6,9.5-7.3,13.2-10.3a115.3,115.3,0,0,0-12.5,5.3c9.1-9,16.6-17.1,18-19.9-1.9.5-11.7,8.9-22.4,18.4,1.7-2,3.3-4.1,4.8-6.1l9.8-8-5.7,2.6a78.9,78.9,0,0,0,6.1-9.1c-.6.9-4.8,5.4-10.3,11.3-3.1,1.6-6,3.2-8.8,4.9,2.6-4.5,5-9.1,6.9-13.1l4-3.4-3.4,1.9a56.1,56.1,0,0,0,2.5-6.5,90,90,0,0,0-7.7,9.6q-5.2,3.1-9.9,6.6a34,34,0,0,0,.3-4.5,15.6,15.6,0,0,0-1.4,1.7c.6-2,1.1-4.1,1.6-6.1,3.8-6.9,7.2-13.5,9.8-19.1-2.4,2.2-4.8,4.6-7.2,7.1.6-2.9,1-5.7,1.3-8.4-2,4.1-4.2,9-6.5,14.3a187.7,187.7,0,0,0-11.5,15.1c.6-7.9,1.1-16.3,1.1-24.7a71.5,71.5,0,0,0,.7-10.7l-.9,1.6c0-2-.1-4-.2-6-.4,2.9-.7,5.9-1.1,8.9-4.2,10-8.7,25.6-11.9,39.1l.3-3.8c1.6-9.4,2.4-17.2,1.8-18.4,1.2-11.6,2.2-21.1,2.6-22.4-2.3,5.5-5.9,20.8-8,35.7l-1.4,4.4c.4-21.7.4-46-.8-48.9-1.8,3.7-3.4,21-4.4,39.2-1.1-10.4-2.5-20.3-3.6-25.4-.7,4.2-1.3,9.3-1.8,14.8L779,846.5c-1.2.6-1.6,4.6-1.5,10.4-.1.2-.1.4-.2.6-3-9.8-6-17-7.9-17.6,1.6,9.4,3.2,19.5,4.8,29.2-2.1-6.9-4.3-13.6-6.2-19a96.9,96.9,0,0,0,.5,11.1c-.2,1-.3,2-.5,3-6-12.9-11.5-23.6-13.9-26.2-.1,2.4,5.2,16.7,11.5,32.7-6.5-11.2-13.3-21.3-16.8-25.2.6.8,2.8,4.9,5.7,10.8a138.3,138.3,0,0,0,1.9,13.8c-5.9-6.7-11.7-12.7-16.5-16.4,2.2,4.7,10.4,17.5,19.6,30.1a13.3,13.3,0,0,0,.5,1.9,61.8,61.8,0,0,0-5.3-3.6c-7.1-8.7-14.1-16.2-17.1-18.3,1.6,4.1,4.8,9.6,8.6,15.5-4.6-3.3-9.3-6.4-13.9-9.2l-.5-.6.3.4q-6-3.6-11.7-6.6c6.1,6.5,14.3,14.3,23.1,22.3,2.2,2.7,4.6,5.5,7.1,8.3l2.1,3.2c-13.9-11.8-29.6-24.8-32.1-25.5,1.4,2.9,10.5,12.2,21,21.9l-2.7-1.2c-5.6-3.5-10.7-6.6-13.8-8.1,1,1.2,2.2,2.4,3.4,3.7-8.5-3.4-17.4-6.6-26.2-9.3l19.2,9.9a33.2,33.2,0,0,0,6.2,5.7c-8.3-3.3-14.8-5.3-16.2-4.3,7,3.9,14.4,8.3,21.5,12.4-5.6-2.4-11.2-4.5-15.7-6.1a100.4,100.4,0,0,0,11,8c-12.4-3.1-23.2-5.4-26.4-5.2,1.5,1.4,13.7,5.5,27.4,9.8-10.8-1.6-21-2.5-25.4-2.3,2,.1,20.8,4.3,37,8-13.2-.2-28,.2-36.5,2.3,4.5,1.2,19.4,2.7,33.8,3.2a47.4,47.4,0,0,0-14.9,5.7l2.2.3a182.4,182.4,0,0,0-25.6,8.9c13.2-1.1,33-4.2,49.5-7.3h2.3a285.9,285.9,0,0,0-51.8,27.5c30.8-13.9,67.9-29.4,75.1-32.4l.6.7,2.3-3.1h0l.9-1.1-1-.3a1.4,1.4,0,0,0-.2-.6l9.3,5.1c-.1.3-.1.7-.2,1l4.5-.2h1.7a5.6,5.6,0,0,0-.4-1.2l1.2-1.8c.6-.9,1.3-1.9,2.1-2.9l5.3-3.7c-.4,2.8-.7,5-.9,6.2h-.9l1.5,3.7h0l.5,1.3.8-.7,1.8.5,2.9.9c10.2,8.1,41,26,50.1,31.8a135.4,135.4,0,0,0-33.1-26.2,201.6,201.6,0,0,1,36.2,18,112.8,112.8,0,0,0-22-16.4c11.7,2.3,23.7,4.3,32.6,5.2C860.2,933.2,846.9,928.7,834.5,925.6Zm-9.6-29.9v.2h.1Zm3.8-15.7c-2.4,3.4-4.9,7-7.2,10.6.5-1.6,1-3.3,1.4-5Zm-66.6-8.7,4.5,9.4v1.9l-.7-.9C764.7,878.2,763.4,874.7,762.1,871.3Z"/><path class="cls-4" d="M1416.9,598.9s-12.3-7.1-14.4-13.8.8-15.6,2.9-26.5c.6-13.4,7.5-31.8,21.2-46.8-3.5,45.2-9.8,80.4-9.7,87.1"/><path class="cls-4" d="M1416.9,598.9s12.7-7.6,16.5-14.5,12.2-46-6.8-72.6c-7.6,45.3-10.2,80.8-9.7,87.1"/><path class="cls-5" d="M1426.2,520.4s-10.2,78.7-9.7,87.1-4.9,36.4,8,98.2l-3.3.8s-10.3-43.5-6.5-99.5c.7-9.4,7.4-71.9,11.5-86.6"/><path class="cls-4" d="M1428.2,626.9s-5.8-8.4-5.4-13.8,4.5-11.1,8.5-18.5c3.8-9.5,12.6-21,24.9-28.2-13.6,31.8-26.4,55.6-28,60.5"/><path class="cls-4" d="M1428.2,626.9s9.7-2.2,13.8-6.1,19.1-30.1,14.2-54.4c-16.1,30.8-26.7,55.8-28,60.5"/><path class="cls-5" d="M1453.7,572.5s-26.2,54.3-28,60.5-12.2,25.1-19.9,73.3l-2.3-.3a333.5,333.5,0,0,1,21.3-73.8c2.8-6.7,22.7-50.1,28.9-59.7"/><path class="cls-4" d="M1351.1,612.7s11.7-13.2,10.6-20.2-10.1-12.8-19-20.9c-8.5-11.1-27.8-22.7-54.1-27.4,30.5,36.5,58.8,62.8,62.5,68.5"/><path class="cls-4" d="M1351.1,612.7s-20.7,1-29.5-2.6-42-32-33-65.9c35.8,34.2,59.5,62.9,62.5,68.5"/><path class="cls-5" d="M1294.2,551.3s58.2,61.1,62.4,68.5,27.2,28.1,46.1,88.5l4.7-1.3s-11.8-43.2-48.9-88.6c-6.2-7.7-50.7-56.9-64.3-67.1"/><path class="cls-4" d="M1372.1,556s20.7-14.5,21.5-24.5-9.8-21.2-19.5-35.3c-8.1-18.2-31.1-40.7-66-55.8,30.2,60.6,60.9,106.4,64,115.6"/><path class="cls-4" d="M1372.1,556s-29-5.4-40-13.3-47.7-58.3-24-102.3c38.3,59.2,61.8,106.9,64,115.6"/><path class="cls-5" d="M1313.4,452s60.7,104,64.1,115.7,28.4,48,34.7,138l6.9-.2s-2.1-63.9-38.5-139.2c-6.1-12.7-51.6-95.7-67.2-114.3"/><path class="cls-6" d="M1637,611.8c-12.1,24.4-24,48.9-32.4,76.1-26.2-28.2-9.5-107.9.8-143.6,6.7-23.4,16.4-45.2,29.1-63.3a144.1,144.1,0,0,1,20.9-24c3.8-3.4,21.1-11.2,22.8-15.9-10.3,28.9-10.6,59.6-14.7,90.7s-13.8,54.5-26.5,80"/><path class="cls-7" d="M1676.2,444.8c-43.3,43-43.3,137.7-60.6,200.9-3.3,12.2-7.6,23.5-9,36.3-12-11.5-12.9-40.1-12.3-59.1a358.2,358.2,0,0,1,10-74.7c11.6-46.7,34.6-94,71.9-103.4"/><path class="cls-6" d="M1760.1,588.9c-22,10.4-44.1,33.5-64.4,50-17.2,13.8-36.3,16.6-54,27.6-15,9.4-25.1,26.7-43.7,18.1,13.1,6,26.3-34.8,31.8-45.1,10.9-20.2,23.7-36.6,40.2-47.5s33.4-18,50.8-19.1c8-.4,36.8,17.2,39.3,16"/><path class="cls-7" d="M1755,586.5c-53.6-12.1-89.3,41.2-129.1,81.7-10.1,10.3-18.3,21.2-31.3,23.9,20.6-4.3,24.8-33.2,35.2-52.6s23.7-36.6,40.2-47.5,33.4-18,50.7-19.1c10.4-.6,26.3,4.5,34.3,13.6"/><path class="cls-6" d="M1606.2,651.1c-3,12.5-5.7,21.1-5.4,34.3-44.4-50.2-39.3-156.7-11.3-219.6,6.2-13.8,13-26.6,22.4-36.6,14.6,65,10.2,156.9-5.7,221.9"/><path class="cls-7" d="M1589.5,465.8c6.2-13.8,12.2-26.3,22.6-34.2-15.6,65.8-3.3,133.9-12.1,201.2-1.8,14.3-3.7,28.6-5.1,42.9-40.1-45.4-30-154.6-5.4-209.9"/><path class="cls-6" d="M1608,684.8a10.4,10.4,0,0,0,2.1-2.1c4.8-6.6-3.7-68.7-4.3-79.8-3.2-57.7-12.1-118.5-42.7-160.2-16.6-22.7-20.9-28.8-26.2-59.5a111.4,111.4,0,0,0-4.7,49.4c3.5,29.1,13.9,56.8,17.8,86.1,7.8,58.2,0,105.6,34.3,146.4,5.6,6.7,16,25.1,23.7,19.7"/><path class="cls-8" d="M1601.6,666.7c1.7-86.8-31.8-160.2-56.7-235.1-5.1-15.3-11.3-32.8-9.2-50.2-1.6,17.5-5.5,35-3.5,51.2,3.3,27.4,12.6,52.3,16.9,79.3,3.7,23.3.9,46.4,3.2,70.1,2.9,29.9,16.4,40.9,31.6,60.7,6,7.9,11.4,16.5,17.7,24"/><path class="cls-6" d="M1587.4,673.3c7.7,6.6,15.6,11.2,20.6,8.6,13.8-7.3-8-56.4-12.2-72.5-19.5-74.5-79.6-139.4-136.7-96.8,28.1,12.6,50.2,41.6,67.1,74.3,11.9,23,23.7,46.2,39.6,64.1,4.2,4.7,12.8,14.7,21.6,22.3"/><path class="cls-8" d="M1612.1,682.6c-4.7-45.4-23.4-76.9-45-108.9s-64.5-66.9-96.3-60.4c21.6,19.9,40.2,44.2,55.4,73.6,13.6,26.4,35.7,68.8,61,87,8,5.8,16.4,9.1,24.9,8.7"/><path class="cls-9" d="M1600.7,623.9c-.3,0-.8-3-2.1-8.2s-3.2-12.9-5.8-22.2c-5.2-18.7-10.5-45.3-18.2-73.7-2-7.1-4-14-6.1-20.5-.6-1.7-1.1-3.3-1.6-4.9l-1.5-4.7q-1.7-4.6-3.3-9c-4.5-11.6-8.9-21.9-12.2-30.9a161.7,161.7,0,0,1-6.8-21.8c-1.3-5.3-1.6-8.4-1.4-8.5s1,2.9,2.5,8,4.1,12.3,7.7,21,8.1,18.8,12.8,30.4c1.2,2.9,2.3,6,3.4,9.1l1.7,4.8c.5,1.6,1,3.2,1.6,4.9,2.1,6.5,4.2,13.5,6.2,20.6,7.8,28.7,12.7,55.4,17.3,74.2,2.4,9.5,4.1,17.2,4.9,22.7s1.1,8.6.9,8.7"/><g class="cls-10"><g class="cls-11"><path class="cls-9" d="M1612.1,666.3c-.3.1-.8-2.9-2-8.1a131.1,131.1,0,0,0-6.5-21.2c-.9-2.1-1.8-4.2-2.9-6.5s-2.4-4.3-3.6-6.7c-2.6-4.6-5.4-9.5-8.5-14.5a282.7,282.7,0,0,0-21.3-31.1,175.5,175.5,0,0,0-12.7-14c-4.4-4.1-8.5-8.4-12.4-12.4-7.8-7.9-15-14.8-21.4-19.8s-12-8.2-16.1-9.6-6.5-1.3-6.5-1.6,2.5-.9,6.8.1,10.3,3.8,17,8.6,14.1,11.6,22.1,19.4c4,3.9,8.1,8.1,12.5,12.2a149.6,149.6,0,0,1,12.9,14.2A253.5,253.5,0,0,1,1591,607c3,5.1,5.8,10.1,8.2,14.9,1.3,2.4,2.5,4.6,3.6,7s2,4.6,2.8,6.8a104.1,104.1,0,0,1,5.7,22.1c.8,5.4,1,8.4.8,8.5"/></g></g><path class="cls-12" d="M1506.1,813.9c30.6,16.7,60.8,33.7,88.1,56.9,18.2-55.2-51.1-130.2-85.9-161.2-22.8-20.4-48.5-36.3-76.2-45.4a175,175,0,0,0-41.9-8.4c-7.1-.4-34.7,6.3-39.8,2.4,30.8,23.5,49.5,57.8,73.2,89.1s50.6,49.2,82.5,66.6"/><path class="cls-13" d="M1355.3,660.7c83,9.7,139,116.5,199.3,172.4,11.7,10.7,24,19.6,33.4,32.8,9.2-23.7-6.5-56.7-18.4-77.6A345.6,345.6,0,0,0,1512,713c-43-42.3-101.6-75.1-156.7-52.3"/><path class="cls-12" d="M1548.5,853.3c17.2,3.4,31.4,12.9,45.9,19.8-2.5-45.5-70.5-70.8-98.9-93.6-39.5-31.6-79.6-46.3-125.5-31.7-19,6.1-37.6,11.3-56.5,16.8,42,21.9,85.4,38.5,126.5,61.6,37.2,21,69,19.3,108.5,27.1"/><path class="cls-12" d="M1570.3,830.7c11.5,11.4,20.1,18.7,27.5,33.8,29.3-96.2-40.4-211.6-114.8-257.6-16.4-10.1-33.1-18.3-51.4-21.3,19,86.3,79.2,186,138.7,245.1"/><path class="cls-13" d="M1483,606.9c-16.4-10.1-31.7-18.8-50.2-18.4,59.6,60.3,83.4,148,135,216.1,10.9,14.4,21.8,28.8,32.1,43.7,26.5-86.9-51.5-201-116.9-241.4"/><path class="cls-12" d="M1587.8,870.3a11,11,0,0,1-3.9-.5c-10.3-3.3-35.8-80.7-41.5-93.7-29.9-67.9-54-144.5-38-218.8,8.7-40.4,10.8-51.2-.2-90.5,16.6,13.5,28,30.3,35.4,51.6,12.5,35.9,15.1,76.4,27.2,112.8,24,72.6,62.4,119.1,41,195.7-3.5,12.5-6.5,42.5-20,43.4"/><path class="cls-13" d="M1585.7,844.2c-53.6-96.4-52.5-209-63.6-315.6-2.2-21.9-4.4-47.1-17.4-64.8,12.5,18.2,27.9,34.6,34.9,54.6,11.8,33.8,14.1,70.2,24.4,104.4,8.8,29.6,26.2,53.1,37.2,81.9,13.8,36.3,2.3,60.8-6.2,96.6-3.3,14.3-5.4,28.8-9.3,42.9"/><path class="cls-12" d="M1608.4,838.9c-6.3,14.3-14,26.6-22.3,28.1-22.5,4.1-22.7-70.7-26.6-92.6C1541.4,673,1583,546.1,1684.1,543.3c-30,39.2-42.2,91.7-45.3,143.6-2.2,36.5-4.3,73.2-14.8,107.7-2.8,8.9-8.3,28-15.6,44.3"/><path class="cls-13" d="M1581.1,871.5c-20.6-55.4-14.4-107.6-4.6-162.9,9.4-53,46.3-133.1,92.4-154.1a414.3,414.3,0,0,0-30.1,132.4c-2.6,42-6.8,109.4-29.7,152.5-7.3,13.7-16.4,24.9-28,32.1"/><path class="cls-14" d="M1576.1,867.9c.2-.2-1.3-3.6-5.3-8.9a100.5,100.5,0,0,0-20-19.6c-9.2-7.2-21.2-14.4-34.7-21.5s-28.7-14-43.9-22.8-30.3-16.6-44.5-22.2a179.2,179.2,0,0,0-20.6-7c-6.5-1.8-12.8-3.1-18.4-4.2-11.2-2.2-20.6-3.2-27.1-2.8s-10,1.4-10,1.7,3.6,0,9.9.3,15.4,1.8,26.5,4.5c5.5,1.3,11.6,2.7,17.9,4.7a183.8,183.8,0,0,1,20.1,7.3c13.8,5.8,28.5,13.7,43.8,22.3s30.7,15.8,44.2,22.6,25.5,13.5,34.8,20.1a121.6,121.6,0,0,1,20.5,17.9c4.4,4.8,6.5,7.8,6.8,7.6"/><path class="cls-14" d="M1564.4,831.6c.3-.3-1.6-3.5-4.5-9.6s-6.8-15-11.2-26.3c-2.2-5.7-4.5-11.9-7.2-18.5s-5.8-13.6-8.8-21.1c-6.1-14.8-12.5-31.3-19.6-48.4s-14.4-33.3-22-47.5a256.3,256.3,0,0,0-22.5-35.9,148.1,148.1,0,0,0-18.8-21c-4.9-4.5-8-6.5-8.2-6.3s10.7,10.1,24.3,29.6a306.4,306.4,0,0,1,21.3,36c7.2,14.1,14.3,30.2,21.4,47.3s13.6,33.5,19.9,48.3c3.2,7.4,6.4,14.4,9.2,20.8l7.9,18.3c4.8,11.1,9.1,20,12.6,25.8s5.9,8.7,6.2,8.5"/><path class="cls-14" d="M1479.4,686.6c-.2.3,2.9,4.5,7.6,11.5s11.1,16.9,17.9,27.9,13.3,20.9,18.2,27.8,8.5,10.8,8.7,10.5-2.7-4.5-7.2-11.6-10.8-17.1-17.6-28.2-13.4-20.8-18.6-27.6-8.7-10.5-9-10.3"/><path class="cls-14" d="M1561.6,795.1c.3-.2-.7-4.1-2.1-11.1s-3.3-17.4-5.4-30.2c-4.1-25.8-12.8-60.4-19.3-99.4-1.6-9.7-3-19.3-4.1-28.5-.2-2.3-.5-4.6-.8-6.9s-.5-4.5-.7-6.7c-.4-4.5-.7-8.8-.9-13.1-1-17.1-1.2-32.7-2.1-45.7a218.8,218.8,0,0,0-3.8-30.6c-1.5-7.1-2.9-10.9-3.2-10.8s.4,4,1.3,11.2a293.4,293.4,0,0,1,2.3,30.5c.4,13,.3,28.5.9,45.8.2,4.3.5,8.7.8,13.3.2,2.2.4,4.5.7,6.8s.5,4.6.8,6.9q1.5,14.1,3.9,28.8c6.6,39.3,15.9,73.9,20.8,99.2,2.5,12.7,4.8,23,6.9,30s3.7,10.6,4,10.5"/><g class="cls-10"><g class="cls-15"><path class="cls-14" d="M1571.5,853.1c.4-.2-.6-4-2.2-10.9a152.5,152.5,0,0,1-3.8-29.7c-.1-3.1-.1-6.5,0-9.9s.6-7.1.9-10.8c.7-7.5,1.5-15.5,2.6-24a425.3,425.3,0,0,1,10-54.1,258.6,258.6,0,0,1,8.6-27c3.4-8.6,6.3-17.1,9.2-25,5.7-16,11.1-30.2,16.7-41.6s11.1-19.9,15.7-25.1,7.9-7.3,7.7-7.6-3.8,1.2-9,6.2-11.4,13.4-17.4,24.8-12,25.7-18,41.6c-3,8-5.9,16.3-9.4,24.9a247.5,247.5,0,0,0-8.8,27.6,389,389,0,0,0-9.8,54.9c-1,8.5-1.7,16.6-2.2,24.1-.2,3.8-.5,7.5-.5,11.1s0,6.9.2,10.2a127.2,127.2,0,0,0,5.5,30c2.1,6.8,3.7,10.4,4,10.3"/></g></g><g class="cls-16"><g class="cls-17"><path class="cls-9" d="M1571.2,828.9c.4.1,1.8-8,6.6-20.2,2.4-6.1,5.6-13.2,9.5-21s8.5-16,13.2-24.9,9.1-17.4,12.6-25.4a140,140,0,0,0,7.5-22c3.1-13,2.5-21.3,2.2-21.3s-.4,8.2-3.9,20.8a153.2,153.2,0,0,1-7.9,21.5c-3.5,7.9-7.9,16.4-12.6,25.2s-9.3,17.2-13.1,25.1a211.4,211.4,0,0,0-9.1,21.3c-4.4,12.6-5.3,20.9-5,20.9"/></g></g><path class="cls-3" d="M1345,975.1c-19.5-111.4,20.9-156.3,20.9-156.3s-13.7,58.5,9.9,150Z"/><path class="cls-3" d="M1300.6,984.2c-41.8-115,24.5-187.6,24.5-187.6s-26.9,80.2-3.5,183.3Z"/><path class="cls-3" d="M1596,923.8c-14.4-63.3-12.7-119.3-12.7-119.3-18.7,15.6-32.7,53.5-30.9,128.2Z"/><path class="cls-3" d="M1533.8,936.5c-21.8-76.7-5.1-125.8-5.1-125.8-15.2,17.1-43.5,51.4-41.5,135.3Z"/><path class="cls-3" d="M1522.2,938.9c-60.8-79-32.5-148.6-32.5-148.6-31.5,41.2-23.3,107.7-7.6,156.8Z"/><path class="cls-3" d="M1341,975.9c-12.6-90.5,28.5-133.2,28.5-133.2s-79.2,27.8-59.6,139.6Z"/><path class="cls-3" d="M1541.7,934.9c-31.1-51.7,2.7-100.3,8.7-114.6,0,0,11,34.8,13.8,110Z"/><path class="cls-3" d="M1425.1,958.7c-13-121.2,19.9-149.9,19.9-149.9s-62.1,18.6-53.2,156.7Z"/><path class="cls-3" d="M1583.8,926.3c-27-126.1,50.3-159.5,50.3-159.5s-63.3,46.8-12,151.7Z"/><path class="cls-3" d="M1492.3,945c-29.2-117.4,13.9-158.1,13.9-158.1s-51.4,37.7-53.5,166.2Z"/><path class="cls-3" d="M1524.4,938.4c13.2-39,25.1-98.2,25.1-98.2s-34.6,49.7-57,104.7Z"/><path class="cls-3" d="M1425.3,958.7c-50.6-117.2-13-169.2-13-169.2s-65.6,55.2-10.4,174Z"/><path class="cls-3" d="M1446.3,954.4c-37.6-162.2,42.8-183.9,42.8-183.9s-56.1,21.2-10.9,177.4Z"/><path class="cls-3" d="M1302.3,983.8c-19.9-128.8,41.5-169.6,41.5-169.6s-30,33.7-14.4,164.1Z"/><path class="cls-3" d="M1362.6,971.5c-28.5-133.1,58.6-148.3,58.6-148.3s-60.5,28.2-30.2,142.5Z"/><path class="cls-3" d="M1424.3,958.9c-23-134.6,49.9-141.7,49.9-141.7s-52.4,17.4-21.5,135.9Z"/><path class="cls-3" d="M1321.2,980c38.8-174.4,129.1-141.1,129.1-141.1s-86.6,5.3-91.8,133.4Z"/><path class="cls-3" d="M1165.6,1011.8c11.4-81.3-51.4-132.9-51.4-132.9s52,12.4,90.3,124.9Z"/><path class="cls-3" d="M1234.7,997.6c-11.9-75.8-73.7-151.8-73.7-151.8s20.1,74.2,40.6,158.6Z"/><path class="cls-3" d="M1311.3,982c-32.6-51.9-37.6-125.4-37.6-125.4-23.1,45.4-19.3,90.7-5.2,134.1Z"/><path class="cls-3" d="M1239.9,996.6c-49.7-106.8,19.7-165.5,19.7-165.5s-36,91.1,8,159.8Z"/><path class="cls-3" d="M1264.3,791.9c-14.8,14.5-60.4,72-22.7,204.3l-31.7,6.5S1160.9,847.7,1264.3,791.9Z"/><path class="cls-3" d="M1263,991.9c9.6-40.5-56.1-97.5-56.1-97.5s53.9,10.9,97.6,89Z"/><path class="cls-12" d="M528.4,913.9c10.9,22.9,21.5,45.8,28.3,70.2,29.8-17.8,18.4-87.7,10.4-119.6-5.3-20.9-13.8-41.1-25.8-58.9a154.1,154.1,0,0,0-20.2-24.4c-3.7-3.6-21.4-13.8-22.8-18.2,8.6,26.3,6.6,52,8.5,78.6S517,890,528.4,913.9"/><path class="cls-12" d="M537.7,953.5c8.2,10,12.7,21.5,18.2,31.9,15-23.2-13.5-68.5-21-93.2-10.4-34.5-27.4-61.1-57.9-76.3-12.7-6.3-24.8-12.8-37.3-19.4,15.3,31,33.4,60.1,47.8,91.3,13,28.1,31.2,42.8,50.2,65.7"/><path class="cls-12" d="M557.8,953.2c2.3,11.1,4.4,18.8,3.1,29.7,50.7-32.3,53.7-121.9,29-180.3-5.4-12.8-11.6-24.9-20.7-35.2-20.5,50.9-23,128.3-11.4,185.8"/><path class="cls-13" d="M589.9,802.6c-5.4-12.8-10.7-24.4-21.1-33.3,11.3,58.2-7,112.1-3,170,.9,12.3,1.7,24.5,2.1,36.7,45.8-29.1,43.7-122.1,22-173.4"/><path class="cls-12" d="M553.3,980.8a10.2,10.2,0,0,1-2-2.1c-4.5-6.6,9.2-56.4,10.7-65.5,7.9-47.3,22.1-96,57.6-124.2,19.3-15.3,24.3-19.5,32.4-43.8a77.4,77.4,0,0,1,1,42.1c-6,23.5-19.1,44.3-25.5,67.8-12.8,46.7-8.3,87.8-47.6,114.4-6.4,4.4-18.8,17.5-26.6,11.3"/><path class="cls-13" d="M561.5,967.2c5-72.6,46-126.5,78.2-183.4,6.6-11.7,14.5-24.9,13.6-39.8.4,14.8,3,30.3-.3,43.3-5.6,22.1-17.4,40.8-24,62.3-5.8,18.6-4.6,38.4-8.9,57.6-5.3,24.3-20.5,30.6-38,43.8-7,5.2-13.4,11.3-20.6,16.2"/><path class="cls-12" d="M576,975.7c-8.7,3.8-17.3,6-22.4,2.7-14-9,12.8-45.2,18.5-57.7,26.4-57.8,94.9-98.9,151.8-51.2-30.7,4.4-56.3,23.8-76.6,47.4-14.3,16.6-28.6,33.3-46.8,44.9-4.8,3-14.7,9.5-24.5,13.9"/><path class="cls-13" d="M549.1,978.2c8.6-36.8,30.8-59,56-81s73.3-41.9,106.4-29.6a197.6,197.6,0,0,0-64.2,49.3c-16.5,19.1-43,49.6-71.1,59.3-9,3.1-18.1,4.1-27.1,2"/><path class="cls-14" d="M547.7,974c.2,0,.5-2.4.3-6.9a80.9,80.9,0,0,0-4-19.2,216.2,216.2,0,0,0-11.5-27.2c-4.9-10.1-10.8-20.8-16-32.4s-10.8-22.7-16.7-32.3c-2.9-4.9-5.8-9.3-8.8-13.4s-6-7.7-8.7-10.9a106.4,106.4,0,0,0-13.9-14.6c-3.7-3-6.1-4.1-6.2-4s2,1.8,5.4,5a127.9,127.9,0,0,1,13,15c2.6,3.3,5.4,6.9,8.2,11s5.7,8.4,8.5,13.2c5.5,9.6,10.8,20.5,16.2,32.1s11.3,22.5,16.3,32.4a229.2,229.2,0,0,1,12,26.6,103.8,103.8,0,0,1,4.9,18.6c.6,4.5.7,6.9,1,7"/><path class="cls-14" d="M554.3,950.7c.2.1.4-2.4.9-6.8s1.7-10.5,3.3-18.1c.8-3.8,1.7-8,2.6-12.5s1.7-9.4,2.7-14.4c2-10.1,4.4-21.2,6.6-33s4-23.1,4.9-33.6a169.9,169.9,0,0,0,.5-28.2,112.2,112.2,0,0,0-2.9-19.4c-1.1-4.5-2-7-2.2-6.9s2.2,10,2.7,26a197.2,197.2,0,0,1-1.1,27.8c-1.1,10.3-2.9,21.5-5.2,33.2s-4.5,22.8-6.3,33.1c-.9,5-1.6,10-2.4,14.5L556.2,925a144.2,144.2,0,0,0-2.3,18.6c-.1,4.5.2,7.1.4,7.1"/><path class="cls-14" d="M559.4,839.4c-.3,0,0,3.6.1,9.2s0,13.6-.2,22.2-.2,16.6.1,22.3.8,9.3,1,9.3.2-3.5.2-9.1.2-13.5.4-22.2a217.9,217.9,0,0,0-.4-22.3c-.4-5.8-1-9.4-1.2-9.4"/><path class="cls-14" d="M565.8,931.7c.3.1,1.1-2.2,2.8-6.4s4.4-9.9,7.9-17.1c7-14.5,14.6-35.5,25-57.5,2.6-5.5,5.3-10.7,8-15.7.7-1.3,1.4-2.5,2-3.8l2.1-3.5c1.3-2.4,2.7-4.6,4.1-6.8,5.7-8.7,11.1-16.4,15.3-23.1a114,114,0,0,0,8.9-16.7c1.7-4.1,2.3-6.6,2.1-6.7s-1.2,2.1-3.3,6a163.3,163.3,0,0,1-9.7,15.9c-4.4,6.4-10.1,13.9-15.9,22.6-1.5,2.1-2.9,4.4-4.3,6.8l-2.1,3.6-2.1,3.7q-4.2,7.5-8.1,15.9c-10.5,22.1-17.8,43.4-24.2,58a189.6,189.6,0,0,0-6.9,17.8c-1.4,4.4-1.8,6.9-1.6,7"/><g class="cls-10"><g class="cls-18"><path class="cls-14" d="M550.5,964.6c.2.1,1-2.2,2.7-6.3a75.8,75.8,0,0,1,8.5-16.3l3.6-4.7a63.9,63.9,0,0,1,4.4-4.8c3-3.3,6.4-6.8,10-10.4a215.5,215.5,0,0,1,24.9-21.2,117.9,117.9,0,0,1,14.5-8.9l14-7.7c8.9-4.9,17-9.1,24.2-11.9s13.3-4.3,17.7-4.5,7,.3,7,0-2.6-1.3-7.2-1.4-11.2,1-18.6,3.6-15.8,6.6-24.8,11.4c-4.5,2.4-9.2,5-14.1,7.4a115.6,115.6,0,0,0-14.8,9.1,176.7,176.7,0,0,0-25.1,21.7c-3.6,3.7-6.9,7.2-9.9,10.7l-4.3,5a51.6,51.6,0,0,0-3.5,5.1,65,65,0,0,0-7.7,17.2c-1.3,4.3-1.7,6.8-1.5,6.9"/></g></g><path class="cls-13" d="M500.1,766.6c42.4,45,34.9,123.8,48.2,180.1,2.6,10.9,6.2,21.1,6.7,32.1,13.6-7,16.7-30.6,17.7-46.5a249.5,249.5,0,0,0-4.8-64.3c-8.6-41.3-29.1-85.6-67.8-101.4"/><path class="cls-19" d="M152.6,405.6,130.5,400l1.9,14.5-8.9-10.7-13.7,5.6,3.6,13.4-8.1-10.7-20.7,8.3,11.9,24.9-20.3-26-7.6,7.9,14,22.9L65.3,431.2l-24.8,23,11.6,32.2-17-21.5L21.4,484.8l12,23.6L17.5,492.9c1.7,1.7-18,42.6-15.2,45.9s6.1,5.7,7.3,10.7c5.7-5.8,27.5-31.3,33.7-37.6,33.1-33.2,66.3-65.9,99.5-98.9-31.6,34.5-63.4,68.5-94.7,103.7-11.7,13.2-24.2,23.7-34.9,36.9,4.7,4.8,6.5,9.1,10.1,17.8-.7-4,14.3-11.7,16.2-12.8,4.9-3,7.7-6.5,11.8-12l-6.1-15.7,9.1,12.3,17.4-19.6L70,509.8l4.4,11.1,13.7-10.3L84,492.3l8.9,13.5,31-31.4-5.7-20,9.5,16.6,3-3.4-6.6-16.4,8.2,10.4,5-7.3-4.2-20.4,8.5,14.1,8.1-14-8.3-10.1,10.6.6Z"/><path class="cls-20" d="M-27.9,550.2l.9-56.1,12.6-1.6-11.9-5.6,7.1-29.7,17.7,10.6-15.9-14.1,5.6-6.4L11.3,456,3,436.6l7-13.8,9.3,5.8-7.1-8.1,8.1-12.8,14.1,9.5L23,406.2l21.9-23.1,16.9,16.2-9.9-21,14.2-10.5,18,9.1-6.7-14.3L90,355.1l6.7,8.6.4-9.7,19.8-.4L111.2,370l-4.8,4.4-9.9-2.1,7.6,4.2-10.9,8.3,4.3,2-9,14.5-10.8-1.1,8.5,5.4-9.7,8.2L63.2,409l16.7,11L78,429.5l-6.5,4.3-10.1-3.2,9.8,7-.6,8.3L67,452.3l-18.3-2.6,12.1,12.2-2.6,14.5-24-4.3,19.1,9.4L52,491.6l-21.4-2.5L50,499.2l-3.5,10.5-22.4-3.8,19.5,12.3-4.7,15.2L22.7,550.6c-1.8,2-5.5,8-7.7,8.7-5.7,1.8-14.4-2.8-20.2-4,4.8-20.6,7.8-42.8,15.4-61.9,6.8-17,14-34.6,22.7-49.8,12.3-21.6,29.6-45.7,46.8-59.9l9.6-7.9c-23,13.7-38.5,35.9-55.6,60.1C19,456.8,7.1,488.3-.5,515.3c-3.6,12.6-6.4,25.6-10.1,38.1-1.6.3-17.3-2.4-17.3-3.2"/><path class="cls-20" d="M-38.5,519.5l-13-54.6,11.8-4.6-12.9-2.5-.5-30.6,19.8,5.9-18.9-9.7,3.8-7.6,24.5,2.7-12.8-16.7,3.4-15.1,10.4,3.3-8.9-6.1,4.7-14.4,16,5.7-13.8-7.8,15.5-27.8L11,351.1-3.8,333.2,7.3,319.5,27,323.8,17,311.6l10.3-10.4,8.7,6.7-2.1-9.5,19.2-5.3-1.5,17.3-3.5,5.5-10.2.4,8.5,2.2-8.6,10.7,4.7.9-5.1,16.3L26.6,348l9.6,3.1-7.4,10.4-14-1.4,18.9,6.5.5,9.6-5.3,5.9-10.5-.6,11.2,4.3L31,394l-1.8,7.1-18.4,2.1L25.6,412l1,14.6L2.3,428.4l20.9,4.4,1.2,10.1L3,445.8l21.4,4.9-.8,11.1L.9,463.7l21.9,7-.7,15.9L10.7,507.3c-1.3,2.4-3.4,9.1-5.4,10.3-5.1,3.2-14.6.9-20.5,1.2-.5-21.1-3-43.4-.4-63.8,2.3-18.1,5-37,9.6-53.9,6.5-23.9,17.4-51.6,30.5-69.6l7.3-10C13,340.4,3.5,365.8-7.1,393.5c-9.1,23.9-12.8,57.3-13.5,85.4-.4,13.1.2,26.4-.3,39.4-1.5.7-17.4,1.9-17.6,1.2"/><path class="cls-6" d="M20.9,560.5c.1,20.8.5,41.4,4.6,62.3-31.1-6.4-49.1-64.1-55-91.1-3.9-17.7-4.9-35.7-2.1-52.8a108.4,108.4,0,0,1,6.8-24.2c1.5-3.8,11.8-16.3,11.3-20.1,3.3,22.8,14.9,42.4,23.8,63.8s10.5,40.5,10.6,62.1"/><path class="cls-7" d="M-13.6,437.9C-30.3,484,6.4,543.8,17.6,591.3c2.2,9.2,3.2,18.1,7.1,26.9C11.1,616.1-.7,598.5-7.6,586.3a220.1,220.1,0,0,1-21.2-51.6c-9.2-34.6-9.8-74.6,15.2-96.8"/><path class="cls-6" d="M28.9,593.9c-2.8,10-1.9,20.1-2.3,29.6C5.5,609.2,10.8,566.4,7.2,545.1c-5-29.7-1.7-54.8,17.1-74.5,7.8-8.2,15-16.4,22.5-24.7-.3,28.2-3.5,55.6-3,83.7.4,25.4-8.5,41.5-14.9,64.3"/><path class="cls-7" d="M22.9,593.3c.4,10.4.6,20.9,2.2,31.4-1.4-9.4-12.4-22.7-14.4-34.6-2.6-15-1-29.9-3.5-45-5-29.7-1.7-54.8,17.1-74.5,6.6-7,12.7-14.8,19.6-21.4C17.1,476.5,21.4,552.8,22.8,591.9a6.6,6.6,0,0,1,.1,1.4"/><path class="cls-6" d="M106.6,492.2c-12.9,16.2-21,40.4-30.2,59.8-7.8,16.2-21.4,26.3-30.7,41-7.9,12.5-9,27.9-26.6,30.6,12.4-1.9,6.7-33.5,7-42.5.5-17.5,4-33.4,12.5-47.5s18.6-26,31.6-34.3c6-3.8,34.9-5.2,36.4-7.1"/><path class="cls-7" d="M101.7,492.9C55.9,508.7,49.1,558,34.2,601c-3.8,11-5.9,21.4-14.8,28.8,14.1-11.7,6.2-31.9,6.7-48.7s4-33.4,12.5-47.5,18.6-26,31.5-34.3c7.8-4.9,21.9-8.6,31.6-6.4"/><path class="cls-6" d="M12.5,598.8c2.5,9.3,3.7,15.8,9.1,24.1C-31.9,610.5-69.2,541.1-72,489.1c-.7-11.5-.3-22.6,3-33,36.3,34.7,68.5,94.7,81.5,142.7"/><path class="cls-7" d="M-72,489.1c-.7-11.4-.9-22,4.1-31.5C-54.4,506-18.6,543.6.7,590c4,9.8,8.1,19.6,12.6,29.3C-35,608.2-69.5,534.8-72,489.1"/><path class="cls-6" d="M26.9,619.3a6.3,6.3,0,0,0,.7-2.2c1.2-6.3-29.3-41.8-34.1-48.5C-31.2,533.5-61.6,499-101.3,486c-21.5-7.1-27.1-9.1-43.1-26.1a70,70,0,0,0,15.5,33.3c14,16.8,32.7,29.8,47,46.5,28.5,33.4,40.8,66.8,82.9,77.6,6.9,1.7,22,8.8,25.9,2"/><path class="cls-8" d="M15,610.7C-17.3,555.1-71.4,523.4-119.5,487c-9.9-7.4-21.4-15.8-26.5-27.7,5.5,11.8,9.4,24.5,17.1,33.9,13.2,15.8,29.9,27.5,43.7,42.7,11.8,13.1,18.6,28.9,29.5,42.9,13.8,17.6,28.5,18.6,47.8,24.5,7.7,2.3,15.1,5.4,22.9,7.4"/><path class="cls-6" d="M6.6,621.1c8.5.8,16.3.3,19.1-3.6,7.8-10.6-27.9-32.2-37.4-40.5-43.8-38.5-115-53.2-142.3-1.3,26.4-4.4,54.6,4.3,80.2,17.6,18,9.3,36.1,18.8,55.2,23.1,5,1.2,15.5,3.8,25.2,4.7"/><path class="cls-8" d="M29.2,616.2C8,589.5-18.5,577.8-47.5,567s-75.4-14-97.3,4a211.7,211.7,0,0,1,71,22.3c20.7,10.7,54,27.8,80.5,28.2,8.4.2,16.1-1.4,22.5-5.3"/><path class="cls-9" d="M28.8,612.5c-.2.1-1.4-1.7-2.9-5.3a63.8,63.8,0,0,1-4.3-16.1,160.5,160.5,0,0,1-1.3-24.2c.1-9.2.6-19,.3-29.5a256.9,256.9,0,0,1,.8-29.6c.5-4.5,1.2-8.8,2-12.7s1.8-7.5,2.7-10.8a75.1,75.1,0,0,1,5.6-15c1.8-3.3,3.3-4.8,3.4-4.7s-.9,1.9-2.4,5.3A95.5,95.5,0,0,0,28,485c-.7,3.2-1.6,6.8-2.3,10.7s-1.3,8.1-1.7,12.5c-.8,8.9-.7,18.8-.6,29.3s-.3,20.5-.5,29.5a164.1,164.1,0,0,0,.7,24,77.6,77.6,0,0,0,3.3,15.8c1.2,3.6,2.1,5.6,1.9,5.7"/><path class="cls-9" d="M37,485.2c.2,0,.3,3.1-.4,7.8a112.4,112.4,0,0,1-5,17.7c-2.4,6.8-4.8,12.7-6.3,17.2S23,535,22.8,535s.2-3,1.5-7.5,3.5-10.6,6-17.3a151.1,151.1,0,0,0,5.3-17.5c1-4.5,1.2-7.5,1.4-7.5"/><path class="cls-9" d="M-15,439.4c.2.1-.1,1.5-.7,4a102.7,102.7,0,0,0-2,10.6c-.3,2.2-.5,4.7-.6,7.4s0,2.7.1,4.1.3,2.9.4,4.4a163.8,163.8,0,0,0,3.9,19.5c3.6,13.7,7.8,25.9,10.7,34.8s4.7,14.3,4.3,14.5-2.7-5.2-6.1-13.9A305.4,305.4,0,0,1-16.6,490a131.1,131.1,0,0,1-3.7-20c-.2-1.5-.3-3-.4-4.5a32,32,0,0,1,.1-4.4,56,56,0,0,1,1-7.6A71.4,71.4,0,0,1-16.8,443c.9-2.4,1.6-3.6,1.8-3.6"/><path class="cls-9" d="M14.4,596c-.2.1-1.3-1.8-3.4-5.1s-5.4-7.8-9.7-13.4l-7-9.1c-2.5-3.3-5-6.9-7.8-10.6-5.5-7.4-11.8-15.5-18.1-24.1s-12.2-17.1-17.1-25.1a173.6,173.6,0,0,1-11.4-22,108.8,108.8,0,0,1-5.2-15.9,29,29,0,0,1-.9-6c.5-.1,2.1,8.4,7.9,21.1a193.1,193.1,0,0,0,11.8,21.4c4.9,7.8,10.7,16.2,17.1,24.8s12.5,16.7,17.9,24.2c2.8,3.8,5.3,7.5,7.6,10.8l6.7,9.3a141.4,141.4,0,0,1,9.1,14c1.9,3.5,2.7,5.6,2.5,5.7"/><g class="cls-10"><g class="cls-21"><path class="cls-9" d="M22.8,605.9c-.1.1-1.7-1.5-4.6-4.3A81.4,81.4,0,0,0,5,591.1c-1.5-1-3.1-1.9-4.7-2.8l-5.4-2.7c-3.8-1.8-7.8-3.7-12.1-5.5a234.5,234.5,0,0,0-28.4-10.3,152.6,152.6,0,0,0-15.1-3.3c-5-.7-9.8-1.6-14.4-2.4a221.1,221.1,0,0,0-24.1-3.2,57.1,57.1,0,0,0-16.1,1c-3.6.9-5.5,2-5.6,1.8s1.6-1.6,5.3-2.9,9.4-2.1,16.4-1.9a185.2,185.2,0,0,1,24.4,2.5c4.6.8,9.3,1.6,14.3,2.3A113.1,113.1,0,0,1-45,567a199.9,199.9,0,0,1,28.7,10.6c4.3,1.9,8.4,3.9,12.1,5.8l5.4,2.9,4.8,3a76.7,76.7,0,0,1,13,11.5c2.7,3.1,4,4.9,3.8,5.1"/></g></g><path class="cls-6" d="M71,692.6c-20.7,6.6-41.3,13.4-60.9,24-3.3-33,48.9-69.1,74.1-83.4,16.6-9.4,34.3-16,52.3-18.6a110.8,110.8,0,0,1,26.3-.8c4.4.4,20.1,6.8,23.6,5.1-21.7,10.4-37.8,28.1-56.4,43.7s-37.3,23.2-59,30"/><path class="cls-7" d="M183.2,619.8c-51.4-2.3-99.9,53.1-144,79.2-8.5,5-17.2,8.8-24.7,15.4-2.2-14.2,11.8-31.5,21.9-42.3a236.2,236.2,0,0,1,45.1-37.3c31.8-19.9,71.7-33.1,101.7-15"/><path class="cls-6" d="M40,711c-10.8.3-20.6,4.4-30.3,6.9,7.8-25.5,52.3-33.5,72.5-43.8,28.2-14.3,54.4-18.8,80-6.2,10.6,5.3,21,10,31.7,14.9-28.4,8.5-56.8,13.8-84.8,23-25.3,8.4-44.2,4.5-69.1,5.2"/><path class="cls-7" d="M38.8,704.8C28.5,708.5,18.1,712,8,716.9c9-4.4,19-19.5,30.2-25.3,14.3-7.2,29.7-10.3,44-17.5,28.2-14.3,54.4-18.8,80-6.2,9,4.5,18.7,8.2,27.5,13C154,662.6,78.9,690.7,40.2,704.4l-1.4.4"/><path class="cls-6" d="M166,757c-20.2-7.8-47-8.3-69.2-11.5-18.7-2.7-33-13.2-50.6-17.9-15-4-30.7-.3-38.9-17.1,5.7,11.8,35.6-3.7,44.7-6.2,17.7-5,34.7-6.5,51.5-2.4s31.8,10.5,44.1,20.9c5.7,4.8,16.1,33.3,18.4,34.2"/><path class="cls-7" d="M163.8,752.4c-30-40.9-81.5-32.4-129.2-33.8-12.1-.4-23.2.8-33.4-5.9C17.3,723.2,35,709,52,704.3s34.7-6.5,51.5-2.4,31.8,10.5,44.1,20.9c7.3,6.2,15.4,19.2,16.2,29.6"/><path class="cls-6" d="M30.1,696.1c-8.5,5.4-14.7,8.7-21.3,16.7-4.3-57.4,53.8-116.4,105-135.5,11.2-4.2,22.4-7.3,33.9-7.3-23.4,47.2-73.6,98.2-117.6,126.1"/><path class="cls-7" d="M113.8,577.3c11.2-4.2,21.7-7.7,32.8-5.7-44.3,28.6-70.9,76.2-111.4,110-8.6,7.1-17.1,14.2-25.4,21.7-3.8-51.8,59-109.2,104-126"/><path class="cls-6" d="M14,717a6.4,6.4,0,0,0,2.4,0c6.7-.8,32.8-42.4,38.1-49.3,27.4-35.7,52.6-76.9,53.3-120.6.4-23.8.6-30,12.7-51.3A73.8,73.8,0,0,0,92,521.7c-12.5,19.2-19.7,42-32.1,61.5C35.4,622.2,5.8,645,8,690.4c.4,7.5-2,24.8,6,26.6"/><path class="cls-8" d="M18.9,702.3c45.7-49.6,60.7-113.6,82.2-173.2,4.4-12.1,9.2-26.3,19.6-35.1C110.6,503.2,99,511,92,521.7c-11.8,18.1-18.2,38.5-29.2,57-9.4,16-23.2,27.7-33.8,43C15.6,641,19.1,656,19.3,677.1c0,8.4-.8,16.9-.4,25.2"/><path class="cls-6" d="M5.9,697.2c1.9,8.7,4.8,16.4,9.6,18,13,4.5,23.5-38,28.9-50,25-55.9,17.7-131.8-42.8-142.9,12.5,25.1,12.6,56,7.3,85.8C5.1,629,1.2,650,2.8,670.6c.4,5.3,1.1,16.6,3.1,26.6"/><path class="cls-8" d="M17.9,718.3c20.1-29.5,23.6-59.8,25.4-92.1S34,546.3,9.1,530.1a219.9,219.9,0,0,1-.2,78c-4.4,24-11.2,62.7-3.4,89.3,2.5,8.5,6.4,15.7,12.4,20.9"/><path class="cls-9" d="M21.4,716.7c-.1-.1,1.3-1.9,4.4-4.6a77.5,77.5,0,0,1,14.8-9.2A157.1,157.1,0,0,1,64.5,694c9.1-2.8,19.2-5.3,29.6-8.9a273.9,273.9,0,0,1,29.9-8.4c4.6-.9,9.1-1.6,13.3-2s8.1-.5,11.7-.6a72.6,72.6,0,0,1,16.7.9c3.9.8,5.8,1.7,5.8,1.9s-2.2-.4-6-.8a102.3,102.3,0,0,0-16.6.1c-3.5.2-7.3.4-11.5,1s-8.4,1.2-13,2.2A284.8,284.8,0,0,0,94.9,688c-10.5,3.6-20.7,6-29.8,8.6a184.2,184.2,0,0,0-23.7,8.2,81.6,81.6,0,0,0-14.9,8.3c-3.3,2.3-5,3.8-5.1,3.6"/><path class="cls-9" d="M151.4,685.2c.1.2-2.9,1.3-7.9,2s-11.8.9-19.3.6-14.2-.9-19.1-1-7.9,0-7.9-.2,3-.8,8-.9,11.7.2,19.1.6a170.6,170.6,0,0,0,19.2-.1c4.9-.5,7.9-1.2,7.9-1"/><path class="cls-9" d="M181.2,618.9c-.1.2-1.6.3-4.2.5s-6.5.6-11.2,1.4a62.2,62.2,0,0,0-7.6,1.7l-4.1,1.3-4.3,1.8a178.2,178.2,0,0,0-18.3,10c-12.6,7.8-23.5,15.9-31.5,21.6s-13,9.1-13.2,8.8,4.3-4.3,12-10.5A310.1,310.1,0,0,1,130,633.1a145.1,145.1,0,0,1,18.9-10l4.4-1.7a27.1,27.1,0,0,1,4.4-1.3,50.8,50.8,0,0,1,7.9-1.4,59.1,59.1,0,0,1,11.4-.4c2.7.1,4.2.4,4.2.6"/><path class="cls-9" d="M152.7,637.1c.1.4-9,5-20.9,8.9s-21.9,5.5-21.9,5.1,9.7-2.6,21.5-6.5,21.1-7.9,21.3-7.5"/><path class="cls-9" d="M33.5,697.2c-.1-.2,1.4-1.8,4-5s6.2-7.9,10.4-13.9c2.1-3,4.4-6.3,7-9.8l8.2-11.2c5.7-7.8,11.8-16.6,18.5-25.6s13.3-17.6,19.9-24.9A165.9,165.9,0,0,1,120,588.5a103.2,103.2,0,0,1,14.3-10.2c3.6-2,5.7-2.9,5.7-2.7s-7.8,4.7-18.7,14.5a199.4,199.4,0,0,0-17.8,18.4c-6.3,7.4-12.8,15.8-19.5,24.8s-12.8,17.8-18.7,25.6c-2.9,3.9-5.8,7.6-8.4,11l-7.3,9.6a129.1,129.1,0,0,1-11.2,13.4c-2.9,3-4.8,4.4-4.9,4.3"/><path class="cls-9" d="M104.8,622.9c.1.2-2.3,2.2-6.1,5.8s-9,8.5-14.7,14.1-10.9,10.7-14.8,14.1-6.6,5.3-6.7,5.2,2.2-2.3,6-6L83,641.8c5.6-5.6,10.9-10.6,15-13.9s6.7-5.2,6.8-5"/><path class="cls-9" d="M40.3,676.7c-.2-.1.9-2.2,2.8-6.1s4.4-9.5,7.4-16.6c6.1-14.2,16.2-33.1,25.5-54.6,2.3-5.4,4.5-10.7,6.4-15.8l1.5-3.9,1.3-3.7c.9-2.5,1.7-4.9,2.4-7.3,2.9-9.7,5.2-18.5,7.6-25.8a114.6,114.6,0,0,1,6.6-17c1.9-3.9,3.2-5.9,3.4-5.8s-.8,2.2-2.4,6.2-3.5,9.8-5.6,17.1-4.1,16.1-6.9,25.9q-1,3.6-2.4,7.5c-.4,1.2-.8,2.5-1.3,3.8s-1,2.6-1.4,3.9c-1.9,5.2-4.1,10.5-6.4,15.9-9.4,21.7-19.9,40.5-26.3,54.4a176.6,176.6,0,0,1-8.4,16.3c-2.2,3.8-3.7,5.7-3.8,5.6"/><g class="cls-10"><g class="cls-22"><path class="cls-9" d="M26.2,708.7c-.2-.1,1-2.2,2.8-6a88,88,0,0,0,6.5-16.4c.5-1.8.9-3.7,1.3-5.7s.7-4,1-6.2q1.1-6.4,1.8-13.8a229.3,229.3,0,0,0,1.5-31.7,135.9,135.9,0,0,0-1.4-16.1c-.8-5.2-1.4-10.3-2-15.1a233.1,233.1,0,0,0-4.3-25.2,62.9,62.9,0,0,0-6-15.7c-2-3.4-3.7-4.9-3.5-5.1s2.1,1.1,4.5,4.4,5,8.7,7,15.8a169.9,169.9,0,0,1,5,25.2c.7,4.9,1.4,9.9,2.2,15.1a123.4,123.4,0,0,1,1.5,16.4,217.7,217.7,0,0,1-1.7,32.1c-.6,4.9-1.3,9.6-2.1,13.9-.4,2.2-.7,4.3-1.2,6.4s-1,3.9-1.6,5.7a72,72,0,0,1-7.4,16.6c-2.3,3.6-3.7,5.5-3.9,5.4"/></g></g><path class="cls-12" d="M55.5,785c-18.8,16.3-37.4,32.8-53.1,51.9C-17.1,811,20.9,753.5,40.8,728.3a195.4,195.4,0,0,1,46.4-42.9A162.1,162.1,0,0,1,114.9,671c4.7-2,24.5-4.8,27.5-8.1-18.1,20.1-26.5,43.3-38.8,66s-28.4,39-48.1,56.1"/><path class="cls-13" d="M139.4,665.3C83.7,690.3,59,762.1,24.7,806.9c-6.6,8.7-13.9,16.4-18.7,25.9-9.3-10.8-2.7-32.6,2.8-46.9a244.3,244.3,0,0,1,29.9-54.8c24.1-33.3,60-65.2,100.7-65.8"/><path class="cls-12" d="M31.5,816.6C20.2,822.5,11.6,831,2.6,838.2c-4.1-25.4,39.3-55.4,55.8-74.6,23-26.7,48.7-44.2,81.9-47,13.8-1.2,27.2-2.7,40.9-4.2-26,21.9-53.6,41.2-78.9,63.7-22.8,20.2-44.8,26.8-70.8,40.5"/><path class="cls-12" d="M13.7,809.3c-6.4,9-11.4,15-14.6,25.1-32.2-45.8.9-125.5,46-168.3,9.9-9.4,20.3-17.8,32.5-23.8-2,51.7-30.7,120.6-63.9,167"/><path class="cls-13" d="M45.1,666.1c9.9-9.3,19.3-17.7,32.1-21.9C43.9,691.3,38.8,745,12.1,794.4,6.5,804.9.8,815.4-4.4,826c-29.1-41.3,9.8-122.3,49.5-159.9"/><path class="cls-12" d="M6.7,835.2a12.6,12.6,0,0,0,2.6-1.3c6.7-4.2,14.3-52.6,16.6-61.1,11.8-44.2,18.6-91.9-1.8-128.8C13,624,10.3,618.6,12.8,594.4,3.2,605.8-2.5,617.7-4.9,631.1c-4,22.6-.7,45.4-4.3,68.2-7.3,45.4-27.7,79.9-3.3,116.8,4,6,9.9,21.8,19.2,19.1"/><path class="cls-13" d="M4.9,820.4c24.4-65.5,9.4-126.9,3.4-187.9-1.2-12.5-2.9-26.8,3.8-39.6-6.2,12.9-14.8,25.6-17,38.2-3.8,21.3-.8,41.7-3.5,62.9-2.3,18.3-11.2,35.3-15,53.6-4.9,23.2,6.1,33.9,16.4,51.5,4.1,7,7.4,14.5,11.9,21.3"/><path class="cls-12" d="M-11.4,822.8c6.2,6.4,13,11.3,18.8,10.1,16-3.1,6.6-44,6.5-57-.4-59.8-45-119.4-114.6-97,25.5,14.4,40.5,40.2,49.2,67.9,6.2,19.5,12.2,39.1,23.8,55.5,3,4.2,9.3,13.3,16.3,20.5"/><path class="cls-13" d="M11.5,834.2c7-35.2-3.9-62.3-17.6-90.3S-54.6,682-88.9,681.4a175.2,175.2,0,0,1,37.4,65.4c7.1,22.4,18.6,58.3,39.7,76.5,6.7,5.7,14.4,9.7,23.3,10.9"/><path class="cls-14" d="M14.4,831.1c-.2-.1.5-2.3,2.6-6.2a75.9,75.9,0,0,1,11.1-15.4,209.2,209.2,0,0,1,21.1-20c8.4-7.1,17.9-14.5,27.1-22.9S95,750.4,104,743.9c4.5-3.2,9-6.1,13.2-8.7s8.4-4.7,12.1-6.6a115.4,115.4,0,0,1,18.2-8c4.5-1.4,7-1.6,7-1.4s-2.4.8-6.7,2.5a145.6,145.6,0,0,0-17.5,8.7c-3.7,2.1-7.6,4.2-11.7,6.8s-8.4,5.5-12.8,8.8C97,752.4,88,760.2,78.6,768.6s-19.1,15.9-27.4,22.8a215.3,215.3,0,0,0-21.3,19.3,104.1,104.1,0,0,0-11.8,14.6c-2.4,3.7-3.4,5.8-3.7,5.8"/><path class="cls-14" d="M17.9,808.4c-.3-.1.6-2.3,1.8-6.3s2.7-9.8,4.3-17c.8-3.7,1.6-7.6,2.6-11.9s2.3-8.8,3.4-13.6c2.3-9.6,4.5-20.1,7.2-31.2s5.7-21.6,9.1-31.2a174.8,174.8,0,0,1,10.8-24.9,118.8,118.8,0,0,1,10.3-16c2.8-3.6,4.6-5.5,4.8-5.4s-6.1,8.1-12.9,22a194.1,194.1,0,0,0-10,24.7c-3.2,9.5-6,19.9-8.7,31s-5.1,21.5-7.5,31.1c-1.2,4.8-2.5,9.4-3.7,13.6l-3,11.9A155.6,155.6,0,0,1,21,802.3c-1.7,4-2.9,6.1-3.1,6.1"/><path class="cls-14" d="M57.6,708.9c.3.1-1.3,3.2-3.7,8.1s-5.4,11.9-8.7,19.5-6.4,14.6-9,19.6-4.4,7.8-4.6,7.8,1.3-3.1,3.5-8.1,5.2-11.9,8.5-19.6,6.5-14.6,9.2-19.5,4.6-7.8,4.8-7.8"/><path class="cls-14" d="M15.1,787.7c-.2.1,0-2.3.1-6.5s0-10.3-.2-17.8c-.5-15.1,1.2-36.1.7-59-.2-5.7-.4-11.3-.9-16.6l-.3-3.9c-.1-1.3-.2-2.6-.4-3.9s-.6-5-1-7.4c-1.5-9.6-3.4-18.1-4.4-25.5a105.4,105.4,0,0,1-1.3-17.6c.2-4.3.7-6.7.9-6.7s.2,2.3.5,6.4a125.7,125.7,0,0,0,2.3,17.3c1.3,7.2,3.4,15.6,5.2,25.3.4,2.4.8,4.9,1.1,7.4s.3,2.6.4,3.9.2,2.7.4,4c.5,5.4.8,11,.9,16.7.5,23.1-1.5,44.2-1.6,59.2a158,158,0,0,1-1,18.1c-.5,4.3-1.2,6.6-1.4,6.6"/><g class="cls-10"><g class="cls-23"><path class="cls-14" d="M15.7,821.9c-.3,0-.1-2.4.1-6.5a69.2,69.2,0,0,0-1.1-17.2c-.4-1.7-.8-3.5-1.3-5.4l-2-5.7c-1.4-4-3-8.1-4.8-12.5A182.5,182.5,0,0,0-7.1,747.4a113.6,113.6,0,0,0-9.3-12.8c-3.4-3.9-6.5-7.9-9.5-11.6a194,194,0,0,0-16.7-18.7,55.3,55.3,0,0,0-14-10.1c-3.8-1.8-6.3-2.1-6.2-2.3s2.8-.3,7,1.2,9.5,4.7,15.1,9.5,11.4,11.2,17.5,18.5c3.1,3.7,6.2,7.6,9.6,11.4a114.9,114.9,0,0,1,9.6,13A165,165,0,0,1,9.6,773.3c1.8,4.4,3.3,8.7,4.6,12.7.6,2,1.3,3.9,1.8,5.9a57.2,57.2,0,0,1,1.1,5.7,60.7,60.7,0,0,1,0,17.7c-.5,4.2-1.2,6.6-1.4,6.6"/></g></g><g class="cls-16"><g class="cls-24"><path class="cls-9" d="M12.8,808.5c-.2.2-2.2-3.9-7-9.5a113.4,113.4,0,0,0-9.2-9.2c-3.7-3.3-7.9-6.8-12.2-10.5a127.7,127.7,0,0,1-11.8-10.9,60.2,60.2,0,0,1-8-10.3c-3.8-6.4-4.4-11.1-4.2-11.1s1.3,4.4,5.3,10.4a65.9,65.9,0,0,0,8.1,10c3.4,3.4,7.5,7,11.9,10.7s8.5,7.3,12.1,10.7a85.1,85.1,0,0,1,9,9.5c4.6,5.8,6.2,10.2,6,10.2"/></g></g><path class="cls-3" d="M75.3,957.4c18.1-173.3,85.2-223.8,85.2-223.8S121.3,815,115.9,960.4Z"/><path class="cls-3" d="M17,953.2C8.8,765.7,118.4,684.3,118.4,684.3S54.7,792.7,44.7,955.2Z"/><path class="cls-3" d="M405.2,981.5c6.2-99.9,29.5-182.3,29.5-182.3-29,15.7-60.7,66.3-86.8,178.1Z"/><path class="cls-3" d="M323.4,975.5c2.1-122.7,41.5-188.9,41.5-188.9-25.4,19.3-73.3,58.9-102.6,184.5Z"/><path class="cls-3" d="M308.2,974.4C263,832.8,324.3,740.7,324.3,740.7c-54.6,48.5-69.5,150.7-68.7,229.9Z"/><path class="cls-3" d="M526.2,990.3c-11.8-79,23.4-133.4,23.4-133.4-43.2,10.2-77.7,53-76.5,129.5Z"/><path class="cls-3" d="M70.1,957.1c18.7-139.5,85.7-186.6,85.7-186.6S47.3,780.2,29.3,954.1Z"/><path class="cls-3" d="M333.9,976.3c-18.9-89.2,41.3-148,54.2-166.8,0,0,.4,56.1-24.7,168.9Z"/><path class="cls-3" d="M515.8,989.5c28.7-66.3,93.4-93.1,93.4-93.1s-74.9,4.1-114.1,91.6Z"/><path class="cls-3" d="M502.2,988.6c33.2-128.1,86.2-124.5,86.2-124.5s-93-.3-124.4,121.7Z"/><path class="cls-3" d="M180.6,965.1c29.9-185.3,81.5-214.9,81.5-214.9s-83.9,3-125.2,211.7Z"/><path class="cls-3" d="M389.2,980.3c14.3-198.1,122.7-216.9,122.7-216.9S415.8,807.7,439.5,984Z"/><path class="cls-3" d="M465.1,985.9c3.4-130.9,81.8-161.1,81.8-161.1S423.2,852.7,427.1,983.1Z"/><path class="cls-3" d="M268.9,971.6C277.3,785.5,346,742.2,346,742.2s-77.9,35.5-129,225.6Z"/><path class="cls-3" d="M311.2,974.6c31-52.7,68.1-135.9,68.1-135.9s-61.6,60-110.1,132.9Z"/><path class="cls-3" d="M180.9,965.1c-18.1-194.3,48-256.6,48-256.6s-102,55.9-78.8,254.4Z"/><path class="cls-3" d="M208.5,967.2C223.4,711.1,331.1,711,331.1,711s-77.4,9.1-80.7,259.2Z"/><path class="cls-3" d="M19.2,953.4C43.4,753.9,134.8,717.8,134.8,717.8S85,756,54.9,956Z"/><path class="cls-3" d="M98.5,959.1c15.2-209.2,128.6-196.9,128.6-196.9s-85.4,17.7-91.2,199.7Z"/><path class="cls-3" d="M179.6,965c22.6-209.1,115.3-190.6,115.3-190.6s-71.4,4.9-77.9,193.4Z"/><path class="cls-3" d="M44.1,955.2c114-243.7,213.1-158.1,213.1-158.1S148.1,770.4,93.1,958.7Z"/><path class="cls-3" d="M31,954.2c-20.6-90,1.1-201.3,1.1-201.3-45.7,58.2-58.3,127-57.2,197.2Z"/><path class="cls-3" d="M-62.7,947.4c-21.1-178.6,87-238,87-238S-54.7,830.3-26.3,950Z"/><path class="cls-3" d="M45,652.9c-23.9,15.8-102,83-105.5,294.7l-41.7-3.1S-104.1,694.5,45,652.9Z"/><path class="cls-3" d="M-32.4,949.6c27.1-56.2-32.5-167.3-32.5-167.3s62.6,37.7,87,171.3Z"/></g></g><g id="Forground_Elements2"><g class="cls-25"><path class="cls-26" d="M1439.7,927c-5.5-6.7-19.4-10.6-21.4-20.2,37.3-37.8,73.9-93.1,103.2-139.1,11-17.1,21.5-33.6,32.3-51,9-14.5,19.5-27.9,29.8-41,20.3-26.1,39.9-50,62.6-72.6,9.4-9.3,17.3-20.7,26.6-29.8-.9,15-14.2,32-20.7,44.5-7.9,15-16.4,28.3-25,42.6-17.8,29.5-36.2,57.5-56.5,84.2s-40.4,45.3-60.2,70.6c-21.7,27.7-42.4,56.7-63,86-5.1,7.2-9.8,14.6-14.9,21.7-1-3-4-2.2-5.3-4.2Z"/><path class="cls-19" d="M1437.7,974c-5.4-9.9-20.6-19.8-21.8-31.7,45.7-29.9,92.5-80.3,130.1-122.7,14-15.8,27.5-31.1,41.4-47.2,11.7-13.5,24.8-25.1,37.7-36.5,25.5-22.6,49.8-43.1,77.7-60.7,11.4-7.3,21.5-17.6,32.9-24.6-2.6,17.1-19.3,31.9-27.9,44-10.4,14.5-21.4,26.7-32.5,40.1-23,27.6-46.5,53.2-72,76.5s-50,37.5-74.8,59.4c-27.1,24-53.4,50-79.5,76.2-6.5,6.4-12.5,13.3-18.9,19.7-.8-3.9-4.3-4.1-5.5-6.9Z"/><path class="cls-19" d="M1686.1,581.2l-30.7-6.4,3.5,19.9L1646,580.4l-18.5,8.5,5.7,18.3-11.7-14.3-28.1,12.6,17.9,33.7-29.4-34.6-10.1,11.2,20.6,30.8-24.9-25-32.7,33.1,17.8,43.6L1528,669.8l-17.7,28.1,17.9,31.8-22.8-20.4c2.5,2.2-22.2,59.8-18.2,64.1s8.8,7.4,10.8,14.3c7.4-8.4,35.9-44.7,44.1-53.7,43.5-47.7,87.3-94.7,131-142.1-41.4,49.4-83.2,98.1-124.1,148.4-15.4,18.9-32,34.1-45.9,52.9,6.8,6.3,9.5,12.1,15,23.8-1.1-5.4,19-17,21.5-18.6,6.6-4.3,10.2-9.3,15.5-17.1l-9.3-21.4,13.2,16.5,22.8-28-3.2-18.9,6.8,14.9,18.3-14.9-6.7-24.9,13,18.1,40.7-45.2-8.9-27.2,14,22.3,4-4.8-10.2-22.2,11.9,13.9,6.5-10.4-7-27.9,12.6,19,10.3-19.8L1671.8,607l14.6.2Z"/><path class="cls-19" d="M1748.4,676.6l-18.3-17.9,22.1.3-.4-34.7-5.8-1.1a67.8,67.8,0,0,0-9.6,9.7l-4.8,6.2.4-.5-.6.7a54.1,54.1,0,0,1-7,7.3c-60.4,63.1-121.2,125.6-180.9,190.1-23.3,25.2-48.5,45.5-69.6,70.6,10.3,8.4,14.4,16.1,22.8,31.8-1.8-7.2,28.8-22.7,32.6-24.9,10-5.8,15.5-12.4,23.6-22.9l-14.2-28.4,20.1,22,34.6-37.4-4.8-25.2,10.2,19.9,27.8-19.9L1616.4,789l19.8,24.1,61.8-60.2-13.6-36.4,21.4,29.8,6-6.4-15.5-29.6,18.1,18.5,10-13.9-10.8-37.2,19.2,25.4Z"/><path class="cls-13" d="M1471.8,912.2c-13.4,6.2-27,12.1-40,20.6,11.6-7.6,24-35,38.6-45,18.5-12.6,38.7-17.5,57.2-30.1,36.6-24.9,71-31.9,105.3-7.3,12.2,8.7,25.1,16,37,25.3-48-35.6-145.8,12.4-196.3,35.7l-1.8.8"/><path class="cls-26" d="M1542.2,673.7c23.8-34.6,26.9-89.8,55.9-116,20.5-18.4,34.1-44.3,56.2-58.2,4.7-3,19.2-15.9,24.5-13.7s-8.1,10.4-10.4,12.3c-31.6,27.1-46.7,61.4-77.4,90.8-19.1,18.2-23.5,62.1-39.5,85.1l-5.6,8c-.7-2.5-2.1-3.2-3.2-5.3Z"/><path class="cls-12" d="M1669.8,854.9c-27.1,9-53.9,18.3-79.3,33.3-5.9-49.4,61.3-101,93.9-121.3,21.4-13.4,44.5-22.5,68-25.6a135.2,135.2,0,0,1,34.8-.1c5.8.8,26.8,11,31.4,8.6-28.2,14.6-48.5,40.4-72.4,62.8s-48.1,33-76.4,42.3"/><path class="cls-13" d="M1814.4,751.1c-67.9-5.6-129.4,75-186.4,111.9-11,7.1-22.2,12.5-31.8,22.1-3.6-21.4,14.1-46.5,26.9-62.2a289.8,289.8,0,0,1,57.8-53.7c41-28.4,93-46.4,133.5-18.1"/><path class="cls-12" d="M1629.7,881c-14.2.1-27,5.7-39.7,9.1,9.1-37.8,67.4-47.9,93.6-62.3,36.6-20.1,71-25.8,105.3-5.9,14.3,8.2,28.3,15.7,42.6,23.4-37,11.5-74.3,18.2-110.8,30.9-33,11.4-58.2,4.8-91,4.8"/><path class="cls-12" d="M1615.9,858.4c-11,7.7-19,12.4-27.3,23.9-8.4-85.6,65.5-171.1,132.2-197.4,14.6-5.8,29.3-10,44.3-9.5-28.6,69.4-92.4,143.2-149.2,183"/><path class="cls-13" d="M1720.8,684.9c14.6-5.8,28.2-10.6,43-7.2-57.2,40.8-89.9,110.5-141.8,159.2-11,10.4-22,20.6-32.6,31.4-7.5-77.3,72.7-160.3,131.4-183.4"/><path class="cls-12" d="M1595.6,888.8a7.2,7.2,0,0,0,3.3.2c8.7-1,41.2-61.8,47.9-71.8,34.5-52.2,65.7-112.5,64.6-177.6-.6-35.4-.6-44.7,14.4-76-15.4,8.7-27.1,20.9-36.4,37.5-15.6,28.1-24.1,61.7-39.4,90.3-30.7,57.1-68.6,89.8-63.5,157.7.8,11.1-1.5,36.8,9.1,39.7"/><path class="cls-13" d="M1601.5,867.2c57.9-72.1,74.7-166.9,100.3-254.7,5.2-17.9,10.9-38.8,24.1-51.5-12.9,13.3-27.8,24.5-36.5,40.1-14.7,26.5-22.3,56.7-35.9,83.7-11.7,23.4-29.3,40.4-42.5,62.7-16.8,28.2-11.5,50.7-10.3,82.1.5,12.6-.2,25.2.8,37.6"/><path class="cls-12" d="M1584.1,859c2.8,13.1,7,24.7,13.4,27.3,17.4,7.2,29.3-55.6,35.8-73.4,30.4-82.2,17.1-195.6-63.3-214.7,17.8,37.9,19.3,84,13.7,128.1-4,31.1-8.1,62.2-5.1,92.9.8,8,2.2,24.9,5.5,39.8"/><path class="cls-13" d="M1600.8,891c25.2-43.2,28.4-88.1,29.2-136.2.9-46-16-119.4-49.6-144.7a373.2,373.2,0,0,1,3.3,116.2c-4.6,35.7-11.7,93-.2,133,3.6,12.7,9.2,23.7,17.3,31.7"/><g class="cls-16"><g class="cls-27"><path class="cls-9" d="M1615.4,856.8c-.3,0-.2-7.1-2.1-18.1-.9-5.5-2.4-12-4.3-19.2s-4.3-14.9-6.7-23.1-4.5-16.1-6-23.4a121.8,121.8,0,0,1-2.5-19.7c-.5-11.5,1.3-18.3,1.5-18.3s-.9,7-.1,18.2a135.4,135.4,0,0,0,2.9,19.3c1.6,7.2,3.7,15,6.1,23.2s4.8,16,6.6,23.3a195.5,195.5,0,0,1,3.9,19.4c1.6,11.3.9,18.4.7,18.4"/></g></g><path class="cls-20" d="M1486.6,746.9l2.2-77.3,17.3-1.9-16.2-8,10.3-40.8,24.2,15-21.6-19.8,7.8-8.7,31.6,12.5L1531.1,591l10-18.9,12.7,8.2-9.7-11.4,11.4-17.5,19.3,13.4-15.6-15.4,30.7-31.3,22.9,22.6-13.2-29.2,19.7-14.1,24.6,12.8-8.9-19.9,17.5-10.1,9.1,12.1.7-13.4,27.3-.2-8.1,22.5-6.7,6-13.7-3.1,10.5,5.9-15.2,11.2,5.9,2.9L1649.6,544l-14.9-1.8,11.7,7.6-13.6,11.1-18.2-6.9,22.8,15.5-2.8,13-9.1,5.9-13.8-4.6,13.4,9.7-1,11.4-5.1,8.9-25.1-3.9,16.4,17-3.9,19.8-32.9-6.3,26.1,13.4-2,13.8-29.4-3.9,26.6,14.3-5,14.4-30.9-5.6,26.7,17.2-6.7,20.9-22.6,23.4c-2.6,2.7-7.9,10.9-10.9,11.8-7.9,2.4-19.7-4-27.7-5.8,7-28.3,11.6-58.9,22.4-85,9.6-23.3,19.9-47.4,32.1-68.2,17.3-29.5,41.7-62.4,65.6-81.6l13.3-10.7c-31.8,18.4-53.6,48.7-77.6,81.8-20.7,28.4-37.6,71.6-48.6,108.7-5.2,17.2-9.3,35.1-14.6,52.3-2.3.4-23.8-3.7-23.7-4.7"/><path class="cls-28" d="M1571.2,870.4c81.5,11.9,108.6,31.7,106.4,34s30.2,33.8,153.4,12.6c31.5-5.4,54.2-7.5,71.1-7.7,41.9,10.7,56.7,22.3,55,24s30.3,33.8,153.5,12.6,112.9,8.1,139.1,10,96.3-7.1,96.3-7.1l-.3-6.8c128-21.6,114.2,7.6,141.5,9.6s96.2-7.1,96.2-7.1l-1.3-42.5c17.8,7,24.4,12.8,23.3,14s30.2,33.8,153.4,12.5c47.8-8.2,75.5-8.8,93-6.4,20.6,7.6,28.2,14.1,27,15.4s30.2,33.8,153.4,12.6,113,8.1,139.2,10,96.2-7.1,96.2-7.1l-2.8-93s10.2-44.7,17.8-44.6-8-8.5-33.1,28.7c0,0-10.6-34.8-25.5-43.9,0,0,18.8,28.1,2,50.9,0,0-6.3-50.8-45.3-80.4,0,0,36.5,54.8,23.2,76.5,0,0-8.4-18.3-13.9-24.4,0,0,9.4,30.3.7,36.3,0,0-29-54.5-33.2-65,0,0,18.1,52.7,12,64.7,0,0-16.8-24.4-22.1-34.1,0,0,6.6,31.8,3.4,29.1-5.6-5-15.2-36.9-41.2-47.2,0,0,27.5,24,23.9,40.9,0,0-15.4-22-24-28.2,0,0,12.9,17.2,8.5,24.4,0,0-32.4-54.5-56.8-61.1,0,0,32,33.8,28.6,50.9l-5.6,14.6s-6.4-12.2-10.7-21.9c0,0-3.5-2.4-2.4,12.1,3,39.8,1.1-11.7-23.3-41.2,0,0,20.1,47.1,9.1,60.3,0,0-28-40.3-40.8-68.3,0,0,13.5,29.6,5.3,55.9-2.3-7.4-16.6-30.5-17.4-45.9,1.8-3.2,3.5-5.3,5.2-5.3,7.6.2-8-8.5-33.2,28.7,0,0-10.6-34.7-25.4-43.9,0,0,14,21,7,41.3-15-24.8-4.4-17.8-4.9,9.3-.7,1-5.4-49.7-45.4-80.1,0,0,36.4,54.9,23.2,76.5,0,0-8.5-18.3-13.9-24.4a121.4,121.4,0,0,1,3.7,16.7c-.7,4.8-1.8,11.9-3.2,19.4l-16.2-31c1.2-16.8,3-33.4,5.4-39.1,0,0-5.6,13.1-11.4,27.6-17-33.4-11-27.6-2.4,6-2.8,7.2-5.6,14.2-7.5,19.9-12.5-18.9-11.3-19.1-10.7-16.2-2-5.6-4.2-10.4-6.3-12.4,0,0,7.6,16.2,5.1,33.7-6.2-11.2-16.5-32.7-37-40.7,0,0,27.1,23.5,24,40.4-.7-.9-16.5-22.4-24.1-27.7,0,0,5.8,7.7,8.3,14.9a60.4,60.4,0,0,1,.3,9.2c-.2.5-32.1-54.2-56.8-60.8,0,0,31.9,33.7,28.5,50.8l-5.5,14.6s-6.5-12.2-10.8-21.9c0,0-3.4-2.3-2.3,12.1,2.9,39.8,1-11.7-23.3-41.2,0,0,20.1,47.2,9.1,60.4,0,0-28-40.3-40.9-68.3,0,0,13.6,29.5,5.4,55.8-2.3-7.4-17.7-32.3-17.4-47.2,0,0-6.9,33.5-.5,59,0,0-3.1-12.4-23.7-24.6.4.2,3.3,2.9,4.1,24.4,0,0-24.8-29.4-34.4-51.9,0,0,7.5,18.8-.4,51.4,0,0-27.2-5.1-28-44.5,0,0-6.9,52.6-13.5,59.8,0,0-.9-25.8.3-40.2s-6,14.7-8,18.3.8-68.9,6.4-82.2c0,0-23.3,54.5-24.5,64.2,0,0-7.4-33.2-13.8-39.3,0,0,8.1,17.3,4.7,35.5-1.5,0-4.7.6-9.1,3.2-3.3-5.8-9.5-13.9-20.8-24.1,0,0,4.3,4.5-.3,40.7,0,0-16.3-8.7-20.4-37.8-3.2,16.3,1.6,10-8.9,3.6a63.3,63.3,0,0,1,6.6,14.5c-.6,7.9-.6,17.1,1.1,24.7-.3,1.1-.7,2.2-1.1,3.4l-6.1.3c-3.5-15.4-14.2-50-43.8-72.5,0,0,34,51.1,24.5,74.1l-2.3.3c-2.4-5-8.6-17.4-12.8-22.2,0,0,3.8,12.6,4.3,23.2l-9.8,1.4c-8.8-16.6-24.1-45.9-27.1-53.3,0,0,12.8,37.2,13.3,56.2l-5.8,1.8c-5.4-8-14.1-21-17.6-27.5,0,0,6.6,31.9,3.4,29.1-5.6-4.9-15.2-36.8-41.2-47.1,0,0,27.5,24,23.9,40.9,0,0-15.4-22-24-28.2,0,0,12.9,17.1,8.5,24.4,0,0-32.4-54.5-56.7-61.1,0,0,31.9,33.8,28.5,50.9l-5.6,14.6s-6.4-12.2-10.7-21.9c0,0-3.4-2.4-2.4,12.1,3,39.8,1.1-11.7-23.3-41.2,0,0,20.1,47.1,9.1,60.3,0,0-8.7-12.6-18.7-28.6,2.3-5.4,4.7-9.1,7-9.1,4.8.1.2-3.4-10.3,3.7-37.4-61.5-7.3-29.4-11.2,9.9l-4.8,5.7c-3.3-7-15.1-28.6-14.9-41.3a180.9,180.9,0,0,0-2.9,24.6c-4.1-7.4-9-14.4-14.6-17.8,0,0,12.9,19.1,7.9,38.6a81,81,0,0,0-11-8.8c-5.7-17.4-17.3-42-40.2-59.3,0,0,24.9,37.4,26.1,62.6-38.3-53.2-6.5-38.3-20.1,18.2-48.6-92-23.8-56.5-16.8-10.3-19.1-21.8-5.4-61.1-15.7-5.5-11.7-18.2-5.4-14-2.7,13-.4,1.6-.7,3.1-1.1,4.6-1.5-1.6-3.3-4.9-5.5-9.1.1-20.6,3-31.9-4.4-7.8l-3.5-5.6c.5-21.1,3-58.7,6.8-67.9,0,0-13.9,32.6-20.7,51.9a45.5,45.5,0,0,0-8.5-5.8c-2.6-8.9-5.9-18.2-9.1-21.2a68,68,0,0,1,5.2,19.3c-1.5-.7-1.4-.7,0,.5a49.1,49.1,0,0,1,0,12.7c-1.8-1.5-1.3-1.2,0,.6a42.7,42.7,0,0,1-2,8.4c-11.4-16.6-31.2-42.3-47.4-46.7,0,0,12.1,12.9,20.6,26.7.5,5.4.4,14.9-1.5,31.2-2.2-4.2-4.8-9.6-6.9-14.3,0,0-2.8-2-2.5,8.5-4.5-5.9-9.4-15.2-11.4-29.3-2.8,14.6,2.2,8.6-11.7-8.3a218.5,218.5,0,0,1,9.4,28c-.6,8.7-.4,18.7,2,26.3l-6.2.4c-8.1-12.1-27.1-41.1-37-62.7,0,0,13.6,29.6,5.4,55.9-2.3-7.4-17.7-32.4-17.4-47.2,0,0-6.9,33.5-.5,59,0,0-2.6-10.2-18.1-21.1l-.2-4.6s10.2-44.7,17.8-44.6-8-8.5-33.1,28.7c0,0-10.6-34.8-25.5-43.9,0,0,13,19.4,7.7,39-4.4-8.9-2.2-6.7-.6,2.2a36.3,36.3,0,0,1-5.1,9.7s-6.3-50.8-45.3-80.4c0,0,36.5,54.8,23.3,76.5-2.8-6.1-9.7-19.6-13.9-24.4,0,0,9.3,30.4.6,36.3l-10.6-20c1.2-18.1,3.2-36.8,5.8-43,0,0-6.3,14.6-12.5,30.1-28.3-54.8-12-31.5-4.2,10.8-2,5.1-3.7,9.8-5.1,13.8-2.7-3.9-5.9-8.8-9-13.5-2.3-7.2-5-13.8-7.5-16.3a63.4,63.4,0,0,1,3.2,9.4l-3.4-5.7s6.6,31.8,3.4,29.1c-5.6-5-15.2-36.9-41.2-47.2,0,0,26.9,23.4,24,40.3-5.6-6.3-16.2-21.9-24.1-27.6,0,0,12.9,17.2,8.5,24.4,0,0-32.4-54.5-56.7-61.1,0,0,31.9,33.8,28.5,50.9L1883,815s-6.4-12.2-10.7-21.9c0,0-3.4-2.4-2.4,12.1,3,39.8,1.1-11.7-23.3-41.2,0,0,20.1,47.2,9.1,60.3,0,0-28-40.3-40.8-68.3,0,0,13.5,29.6,5.3,55.9-2.3-7.4-17.6-32.4-17.4-47.2,0,0-6.8,33.5-.5,59,0,0-3.1-12.5-23.6-24.7.4.3,3.2,3,4.1,24.4,0,0-24.8-29.3-34.4-51.9,0,0,7.4,18.9-.5,51.5,0,0-27.1-5.1-27.9-44.5,0,0-7,52.5-13.5,59.7,0,0-.9-25.7.3-40.1s-6,14.6-8,18.2.8-68.8,6.3-82.2c0,0-23.2,54.5-24.5,64.3,0,0-7.3-33.2-13.8-39.4,0,0,12.9,27.4-.4,49.3,0,0,.1-12.1-24.7-34.7,0,0,4.3,4.5-.4,40.8,0,0-16.2-8.7-20.4-37.8,0,0-5.6,29-.3,46,0,0-64.3,2.9-75.3,13.6S1489.6,858.5,1571.2,870.4Zm1420.2-30c-.1-4.1,6.9-30.1,12.2-40.5-1.4,7.8-5.5,35.2-.1,56.9C3003.5,856.8,3001.7,849.4,2991.4,840.4Zm-397.2-20.5s0-2.1-1.8-6.1c2.1-4.2,4.1-6.9,6-6.9h.8A41.6,41.6,0,0,1,2594.2,819.9Zm-394.3-5.1a58.7,58.7,0,0,0-2.3,8.2s-1.5-6.8-3.7-14.8C2195.7,810.1,2197.8,812.3,2199.9,814.8Z"/><path class="cls-3" d="M1536.3,972.9c17.4-181.5,73.6-237.7,73.6-237.7s-33.6,86.8-40.1,238.7Z"/><path class="cls-3" d="M1488.2,971.6c-4.1-194.9,87.6-285.6,87.6-285.6s-54.2,116.3-64.8,286.3Z"/><path class="cls-3" d="M1532,972.8c17.4-146.3,73.4-198.9,73.4-198.9s-89.7,15.9-107.1,198Z"/><path class="cls-3" d="M1623.2,975.3c27.3-194.7,70.4-228.2,70.4-228.2s-69.4,7.5-106.5,227.2Z"/><path class="cls-3" d="M1623.4,975.3c-12.2-201.6,43.4-269.9,43.4-269.9s-85.1,63.7-68.8,269.2Z"/><path class="cls-3" d="M1490,971.7c22.8-209.1,98.9-251.6,98.9-251.6s-41.7,42.4-69.5,252.4Z"/><path class="cls-3" d="M1555.4,973.5c15.6-218.8,109.2-212.1,109.2-212.1s-70.9,23-78.3,212.9Z"/><path class="cls-3" d="M1510.5,972.2c97.7-259.9,178.4-176.1,178.4-176.1s-89.8-21.9-137.9,177.2Z"/><path class="cls-3" d="M1341.7,967.7c38.8-123.5-7.7-226.4-7.7-226.4s48.7,37.6,50,227.5Z"/><path class="cls-3" d="M1416.7,969.7c13.3-123.1-24.2-264-24.2-264s-4.3,123.5-11.7,263Z"/><path class="cls-3" d="M1499.7,972c-15.7-92.8,3.8-209.9,3.8-209.9-38.6,63.1-50,135.5-50.1,208.6Z"/><path class="cls-3" d="M1422.4,969.8c-14.9-184.9,75.3-252.6,75.3-252.6s-67,130.2-45.3,253.5Z"/><path class="cls-3" d="M1515.6,657.3c-19.9,17.6-85.5,91.9-91.4,312.6l-34.4-.9S1391.8,708.6,1515.6,657.3Z"/><path class="cls-3" d="M1447.4,970.5c23.2-60-24.5-172.6-24.5-172.6s51.2,36,69.5,173.9Z"/></g></g></svg>