<svg id="BG_01" xmlns="http://www.w3.org/2000/svg" viewBox="0 0 105.6 70.6"><defs><style>.cls-1{fill:#78ad42;}.cls-2{fill:#659b45;}</style></defs><g id="BG"><g id="BG-2" data-name="BG"><path class="cls-1" d="M89.8,41.9a.9.9,0,0,1,.3,1.6c-15,9.3-45.8,7.1-63.6,1.1C-15.7,28,71.8,9.6,85.8,30.1c2.6,2.9.6,3-.4,3.1-6.1,1-17.6,1.8-23.1,4.3C62.9,38.1,77.8,40,89.8,41.9Z"/><path class="cls-2" d="M55.9,20.8A66.7,66.7,0,0,1,72.8,23C57.3,36.4,62.8,39.8,55.9,20.8Z"/><path class="cls-2" d="M58.2,37.7,48.5,23.1C-32.4,35.4,61.2,63.7,87.8,41.6Z"/></g></g></svg>