<svg xmlns="http://www.w3.org/2000/svg" viewBox="0 0 110.4 89.5"><defs><style>.cls-1{fill:#39b44a;}.cls-2{fill:#0e9247;}.cls-3{fill:#61bb5a;}</style></defs><g id="BG_03"><path class="cls-1" d="M49.9,76a19.2,19.2,0,0,0,13.6-5.7c4.9,6,15.7,3.7,17.7-3.7,20,.9,20.7-29.7.7-29.7A13,13,0,0,0,66.4,25.6C60,11.9,37.5,15.3,35.6,30.4c-8.8-2.3-14.5,10-7.2,15.3-5.7,4.2-3.7,14.1,3,16A19.2,19.2,0,0,0,49.9,76Z"/><path class="cls-2" d="M82,60.4h-.8c-2,7.5-12.8,9.7-17.7,3.7-9.6,10.5-29.1,5.3-32.1-8.6a9.1,9.1,0,0,1-5.8-5.5,9.2,9.2,0,0,0,5.8,12c3,13.9,22.5,19.1,32.1,8.6,4.9,6,15.7,3.7,17.7-3.7,9.7.7,17.5-8.7,15.3-18.1A14.9,14.9,0,0,1,82,60.4Z"/><path class="cls-3" d="M38.3,42.2a12.1,12.1,0,0,1,13.4-4c4.5-5.3,14-3.1,15.7,3.6,1.5-8.6-10.3-14.2-16-7.5C43,31,33.4,39.7,35.9,48.4A12.6,12.6,0,0,1,38.3,42.2Z"/></g></svg>