<svg xmlns="http://www.w3.org/2000/svg" viewBox="0 0 157.7 99.5"><defs><style>.cls-1,.cls-11{fill:#221f1f;}.cls-1{opacity:0.3;}.cls-2{fill:#b59989;}.cls-3{fill:#9f8678;}.cls-4{fill:#907b6d;}.cls-5{fill:#706054;}.cls-6{fill:#c4a594;}.cls-7{fill:#806e62;}.cls-8{fill:#d0af9d;}.cls-9{fill:#dfbca9;}.cls-10{fill:none;stroke:#240c0d;stroke-miterlimit:10;stroke-width:0.5px;}.cls-11{opacity:0.25;}.cls-12{fill:#39b44a;}.cls-13{fill:#0e9247;}.cls-14{fill:#61bb5a;}</style></defs><g id="Layer_5" data-name="Layer 5"><path class="cls-1" d="M20.4,64.7C-11.3,89.2,58.3,82.2,94.2,79c44.3-5.9,58-1,46.6-25.4C140.8,53.6,26.3,50.5,20.4,64.7Z"/><polygon class="cls-2" points="79.6 28.3 62.9 34.7 60.9 37.8 61.6 41.1 57.3 43.3 52.3 50.8 70.1 65.4 81.2 46.3 79.6 28.3"/><polygon class="cls-3" points="100.3 55.3 81.2 46.3 70.1 62.1 87.1 69.6 100.3 55.3 100.3 55.3"/><polygon class="cls-4" points="134.2 71.8 116.5 51.2 100.3 55.3 119.8 71.8 134.2 71.8"/><polygon class="cls-5" points="149.7 21.9 132.7 29.7 116.5 51.2 134.2 71.8 141.1 63.1 149.7 21.9"/><path class="cls-6" d="M141.1,19.6c-5.6-2.2-29-.2-35.2.1l26.8,10,17-7.8Z"/><polygon class="cls-7" points="87.1 69.6 64.8 59.8 52.3 50.8 64.8 70.1 87.8 75.5 87.1 69.6"/><polygon class="cls-5" points="119.8 71.8 119.8 71.8 100.3 55.3 87.1 69.6 87.8 75.5 119.8 71.8"/><path class="cls-8" d="M132.7,29.7c-27.7-16.9-27.5-7.3-53.1-1.4-3.5,20.3,5.1,21.9,20.7,27l16.2-4.1Z"/><path class="cls-9" d="M84.1,48.7l13.1,7.2L87.3,69.3c14-15,9.2-12,28.7-17.9L98.4,54.7Z"/><polygon class="cls-9" points="119.2 22.9 132.3 29.8 121.9 44.1 134.4 30.4 147.1 23 133.5 28.6 119.2 22.9"/><polygon class="cls-7" points="142.2 57.9 134.2 33.5 132.4 35.9 141.7 60.3 142.2 57.9"/><polygon class="cls-5" points="123.4 44.1 118.3 45.6 119.8 48.7 123.4 44.1"/><polygon class="cls-6" points="112.5 19.6 104.2 24.7 116 20.8 112.5 19.6"/><path class="cls-10" d="M60.9,37.8l2-3.1,16.7-6.4c.5.3,22.8-6.7,25.4-8.5l27.7-1.5a100.9,100.9,0,0,1,17,3.6l-8.6,41.2-6.9,8.7c-9.4-.9-36.7,2.5-46.4,3.7l-23-5.4L52.3,50.8l5-7.5,4.3-2.2Z"/><path class="cls-10" d="M79.6,28.7c-3.9,19.5,6,21.7,19.7,27.8l17.2-5.3,2.8-3.6-1-2,3.2-1,12.9-14.2,15.3-8.5"/><polyline class="cls-10" points="99.3 56.5 87.3 69.3 87.8 75.5"/><polyline class="cls-10" points="87.3 69.3 64.8 59.8 52.3 50.8"/><line class="cls-10" x1="116.5" y1="51.2" x2="134.2" y2="71.8"/></g><g id="Layer_7" data-name="Layer 7"><path class="cls-11" d="M68.4,61c-9.4-7.1-32-7.7-39.7,3.7C-4.4,81.3,50.5,99.5,62.8,79.4,73.2,75.9,76.6,66.9,68.4,61Z"/><path class="cls-12" d="M34.5,28.4a15.1,15.1,0,0,1,13.4,8.1,12,12,0,0,1,12.6,5.7c3.8-3.5,10,1.4,7.4,5.9,13.3,5.6,8.2,27.2-6.4,25.9-1.5,4.9-7.3,8-12.2,6.1-.4,4.9-7.9,5.7-9.4,1-9.5,4.6-21.7-1.5-24-11.6-6.2-1.6-8-10.7-2.8-14.6-6.7-4.8-1.5-16.1,6.6-14A15,15,0,0,1,34.5,28.4Z"/><path class="cls-13" d="M15.9,64.1c2.3,10,14.5,16.1,24,11.5,1.5,4.7,9,4,9.4-1,4.9,1.9,10.7-1.2,12.2-6a13.6,13.6,0,0,0,14-10.8c1.9,8.5-5.3,16.9-14,16.2-1.5,4.9-7.3,8-12.2,6.1-.4,4.9-7.9,5.7-9.4,1-9.5,4.6-21.7-1.5-24-11.6a8.4,8.4,0,0,1-5.4-10.7A8.2,8.2,0,0,0,15.9,64.1Z"/><path class="cls-14" d="M20.5,51.6A6.4,6.4,0,0,1,25.6,50c-.7-6.1,8.2-9,11.1-3.5a11.3,11.3,0,0,1,16.1,4.1c-1-7.8-10.9-12.2-17.3-7.6-2.9-5.5-11.8-2.6-11.1,3.5-5.3-1-9.3,5.8-6,10A6.7,6.7,0,0,1,20.5,51.6Z"/></g></svg>