<svg id="BG_01" xmlns="http://www.w3.org/2000/svg" viewBox="0 0 281.3 149.7"><defs><style>.cls-1{fill:#221f1f;opacity:0.25;}.cls-2{fill:#b6e3f5;}.cls-3{fill:#5fa8be;}.cls-4{opacity:0.54;}.cls-5{fill:#89d5f3;}.cls-6{fill:#caac73;}.cls-7{fill:#837769;}.cls-10,.cls-11,.cls-12,.cls-7,.cls-8,.cls-9{opacity:0.98;}.cls-8{fill:#9c8c6b;}.cls-9{fill:#c5bcab;}.cls-10,.cls-14{fill:#ab9f8a;}.cls-11{fill:#8d7f6d;}.cls-12,.cls-16{fill:#a2927a;}.cls-13{fill:#b0c352;}.cls-15{fill:#c4bbaa;}.cls-17{fill:#a18f70;}.cls-18{fill:#8d7e6c;}.cls-19{fill:#c4b8a4;}.cls-20{fill:#7a6e5d;}.cls-21{fill:#726658;}.cls-22{fill:none;stroke:#3a1717;stroke-miterlimit:10;stroke-width:0.25px;}.cls-23{fill:#87aa3e;}.cls-24{fill:#809b3c;}.cls-25{fill:#8a7b68;}.cls-26{fill:#a4947c;}.cls-27{fill:#837666;}.cls-28{fill:#887c68;}.cls-29{fill:#9e8f6e;}.cls-30{fill:#b1a593;}.cls-31{fill:#2a8943;}.cls-32{fill:#40382c;}</style></defs><g id="BG"><path class="cls-1" d="M40.8,59.1s-24.4,14-21.7,21.6S13,115.1,71.5,131.1s52.1-1.7,77.6,3.2,90,.9,105.5-8.1,23.9-44.5,0-57.3S53.1,50.8,40.8,59.1Z"/><path class="cls-2" d="M151.9,50.6c-41.4-.7-58.5.3-92,25.5-14.8,14.2-2.1,29.3,10,35.9,9.4,5.7,18.2,2.9,28.2,2.9,14.8.9,28.9,4.7,43.7,7.5,22.3,2.8,117.7-2.8,100.8-41.5-6.7-12.3-24.9-8.5-34.3-10.4C189.5,64.8,170.7,49.7,151.9,50.6Z"/><path class="cls-3" d="M151.8,70.9c-11.4-.5-19.6,3.4-26.4,2.8-8.8-.7-18.6-3.5-27.4,0C94.1,75,79.9,82.6,84.8,91.5c3.4,6.2,26.4,3.5,32.3,4.2,19.5,2.7,32.7,14.4,52.7,9.6,4.9-1.4,18.6,0,20.6-4.1s-3-17.2-4.9-21.4C177.3,65.5,163.5,71.3,151.8,70.9Z"/><g class="cls-4"><path class="cls-5" d="M139.9,58.9C115,70.4,108.3,61.8,93.1,71.4c-4.3,2.1-17.4,14.5-14.3,22.1s29,8.2,35.3,9.6c19.5,4.1,38.5,22.7,59.1,17.9,13.1-3.5,26.8-22.7,22.1-39.9s-14.2-21.4-25.8-23.4S149.5,51.6,139.9,58.9Z"/></g><path class="cls-6" d="M263.8,79.5c-8.3-15.1-28.9-17.1-40.4-19.4-23.1-7-47.8-18.9-70.9-17.7C123.2,43.9,95.7,38.9,71,54,39.3,71.2,10,90,52,117.7c27.5,17.1,58.3,6.3,88.2,12.8C167.5,133.8,284.4,127,263.8,79.5ZM235.2,106c-3.4,12.1-17.4,15.2-28.2,17-4.3,1.5-9.4-.1-13.2-3.8-38.4,10.1-61.8-1.1-97.7-4.3-6.1,14.3-13.6,13.1-25.5,6-5.7-3-18.8-9.4-13.9-20.6-13.9-19.6,15-31.6,28.7-40.2,22.8-12.7,50.9-9.7,77.3-8.4,8.6-7.4,18.9,2.8,28,3.5s18.5,6.7,21.2,15.7c9.9.8,24.7-.9,30.7,10S242.5,100.3,235.2,106Z"/><path class="cls-6" d="M211.9,70.9c-2.7-9-13.1-14-21.2-15.7s-19.4-10.9-28-3.5C179.2,55.1,195,68.2,211.9,70.9Z"/><path class="cls-6" d="M193.8,119.2c3.8,3.7,8.9,5.3,13.2,3.8,10.8-1.8,24.8-4.9,28.2-17C222.4,115.1,208.8,115.1,193.8,119.2Z"/><path class="cls-6" d="M69.9,112a37.9,37.9,0,0,1-13.2-11.7c-4.9,11.2,8.2,17.6,13.9,20.6,11.9,7.1,19.4,8.3,25.5-6C86.9,115.2,78.7,117.3,69.9,112Z"/><polygon class="cls-7" points="161.5 28.6 161.5 36.7 168.8 47 168.9 47 171.6 43.2 171.6 31.6 171.6 31.6 161.5 28.6"/><polygon class="cls-8" points="146.9 35.8 145.4 29.5 141.9 42.3 142.9 45.1 145.7 40.5 146.9 35.8"/><polygon class="cls-7" points="145.7 40.5 142.9 45.1 142.9 45.1 144.9 45.1 151.1 48.2 151.1 39.4 145.7 40.5"/><path class="cls-9" d="M171.6,31.6a102.7,102.7,0,0,0-7-7.8l-4.9-2.4,1.8,7.2Z"/><path class="cls-10" d="M145.7,40.5l5.4-1.1,9,2.4,1.4-5.1V28.6l-1.8-7.2h-.1l-7.4,1.5-6.8,6.7,1.5,6.3Z"/><polygon class="cls-11" points="163.4 46.3 168.8 47 161.5 36.7 163.4 46.3"/><polygon class="cls-12" points="151.1 39.4 151.1 48.2 151.5 48.5 160.3 48.5 160.4 48.4 160.1 41.8 151.1 39.4"/><polygon class="cls-7" points="160.1 41.8 160.4 48.4 163.4 46.3 163.4 46.3 161.5 36.7 160.1 41.8"/><polygon class="cls-13" points="152.4 38.5 152.4 38.5 152.4 38.5 152.4 38.5"/><path class="cls-14" d="M185.8,51.5l3.2,3.9h0l1.2-1.8c-.1-.2-2.3-6.5-2.2-6.7l-2.5-.6Z"/><path class="cls-15" d="M177.1,46.3a11.8,11.8,0,0,0,3.7-.5l1.2,3.3,3.5-2.8,2.5.6V43.1a17.4,17.4,0,0,0-3-4.6l-3.2,1.8-4.9-.2a17.2,17.2,0,0,1-4.4,4.1c0,.1,1,3.8,1,3.9Z"/><path class="cls-14" d="M180.8,45.8a11.8,11.8,0,0,1-3.7.5l-3.6,1.8.7,5.2.2.3,8,1.8-.4-6.3Z"/><path class="cls-16" d="M189,55.4l-3.2-3.9-.3-5.2L182,49.1l.4,6.3Z"/><path class="cls-17" d="M172.5,44.3a29.9,29.9,0,0,1-.2,6l1.9,3A53,53,0,0,0,172.5,44.3Z"/><polygon class="cls-18" points="60.7 29.7 65.5 40.3 69.7 35 75.9 37.6 84.5 35.5 84.6 35.3 74.5 21.4 66.7 27 60.7 29.7"/><path class="cls-19" d="M66.7,27l7.8-5.6L60.7,24.8v4.9Z"/><polygon class="cls-20" points="75.9 37.6 69.7 35 65.5 40.3 65.5 63.7 76.1 63.7 76.7 63.8 84.5 35.5 75.9 37.6"/><polygon class="cls-16" points="60.7 24.8 57.7 26.7 60.7 29.7 60.7 24.8"/><polygon class="cls-21" points="88.5 55 84.6 35.5 84.5 35.5 76.7 63.8 76.7 63.8 88.5 55"/><path class="cls-14" d="M60.7,29.7l-3-3-6.6,3.9-3.3,4.9-.9,19.6c.4,0,18.2,8.9,18.6,8.6V40.3Z"/><polygon class="cls-22" points="65.5 63.7 65.5 39.9 60.7 29.7 57.7 26.7 51.1 30.6 47.8 35.5 46.9 55.1 65.5 63.7"/><path class="cls-22" d="M65.7,63.8h11L88.5,55c-4.1-19.8-1.6-17-14-33.6-2.6.8-15.1,3.2-16.8,5.3"/><polyline class="cls-22" points="60.7 29.7 66.6 27.2 74.5 21.4"/><polyline class="cls-22" points="76.7 63.8 84.5 35.5 75.9 37.6 69.7 35 65.5 40.3"/><path class="cls-23" d="M59.3,64.4c-2.9.2-6.4,2.7-8.6-.1-2.1-.3-2.9,1.8-4.3-.9s-4.3,1.8-5.9-1,1.4-2.7,1.1-5.1-1-1.5.1-2.4,2.1.6,2.9,0-2.1-1.6-1.5-3.1,1.6-.3,2.2-1.3.2-2.7,1-3.2c2.7-.3,2.9,1.6,3-2.3,1.5-2.1,3.9,3.7,5,.1S53.9,40,57.9,40c1.3-.1,1.3,1.5,2.4,1.8s1.7-1.7,2.8-1.6.2,1.1.9,2.5,1.8.2,2.4,1.3c-1.7,1.1.6,2.6,1.4,1.9-.3,3.1,2.7,2.4,3.8,2.5-.3,3.7,1.8,1.1,2.8,3.9s2.4,1.1,2,3-.9.2-1,1.2,2.2.8.7,3.4,0,2.4-3.8,2.7c-.8.4-.4.1-.9.9-.8,3.2-1.1,2.1-3.6,1.7-.8.1-1.6,1-2.4.8s-.8-1-1.2-1.4-4,1.2-5-.4Z"/><path class="cls-24" d="M59.7,64a32.7,32.7,0,0,0-4.5,1,3.4,3.4,0,0,1-2.8-.3c-.7-.5-.8-.8-1.6-.9a8.6,8.6,0,0,0-1.7.3c-.7.2-.8.4-1.2-.1s-.6-1.1-1.4-1.3a4.7,4.7,0,0,0-1.7.1,11.6,11.6,0,0,1-1.8.4c-.9,0-1.5-.9-1.9-1.6s.3-1.9,1-2.8a6.1,6.1,0,0,0,.5-1.2c.1-.8-.4-1.2-.5-1.9s.7-.2,1.2-.2a3.4,3.4,0,0,0,1.8-.4c.2-.1.6-.3.4-.5A3.8,3.8,0,0,1,44,52.8c0-.2-.1-1.2,0-1.2s.7-.2,1-.3A2.3,2.3,0,0,0,46.4,50c.4-.9.1-2.1.8-2.8l-1.3.5c1.3-.1,3.7.9,4.2-.9a5,5,0,0,0,.2-1.7h0c.1-.4-.1-.4-.7,0s.2,0,.2.1l.6.4c.6.4,1.2,1.1,2,1.2a2.6,2.6,0,0,0,2.4-.8c.7-1,.5-2.4.6-3.5a4.4,4.4,0,0,1,.5-1.5,1.7,1.7,0,0,1,2.1-.2A12.7,12.7,0,0,0,59.1,42a1.7,1.7,0,0,0,1.4.2,4,4,0,0,0,1.6-.8l.9-.8c-.9.7-.1-.2-.1.3a1.1,1.1,0,0,0-.1.5c.1.7-.1,1.4.5,2s1.6.2,2.1.9l.2-.3c-.9.6-1.1,1.6,0,2.2a3,3,0,0,0,2.9-.2l-1.7.2c-.2,2.8,2.1,2.5,4.2,2.6l-.4-.2c-.1,1.3,0,2.2,1.3,2.5s1,.3,1.3.9.2,1.1.7,1.5.9.5,1.3.9.2.6.3,1,.4-.1.1.2l-.6.2c-1,.7-.5,1.8.2,2.4s-.4,2.1-.9,3a2.5,2.5,0,0,1-.4.9c.2-.2.2,0-.2,0l-1.5.2c-1.5.4-1.6,1.2-2.1,2.6v.4c0,.5.4-.3.6,0l-.7-.2a4.6,4.6,0,0,0-2-.3l-1.2.4c-.7.4-.6.5-1.1-.2s-.7-1.1-1.4-1.2a5,5,0,0,0-2.1.2c-.7.2-1.4.6-2-.1s-2,.1-1.9.6v.2c.2.5,2.1-.1,1.9-.5v-.3l-1.9.6a1.9,1.9,0,0,0,2,.6c.7-.1,1.8-.7,2.5-.4s1,1.5,1.9,1.7,2.2-.6,3.2-.9h-.8c1.6.3,3.9,1.2,4.9-.8a13.9,13.9,0,0,0,.6-1.9c0,.2-.5.1.2.1l1-.2a3.2,3.2,0,0,0,2.1-1l.3-.9c.3-.6.8-1.1,1.1-1.7s.2-1.2-.5-1.8l-.4-.5c-.1-.4.2-1.2-.5-.7s1-.2,1.3-.7-.3-1.8-1-2.4-.8-2-2-2.5L73,50.2c-.6-.4-.5-1.5-.5-2.1s-.3-.2-.3-.2c-1.8-.1-3.6.3-3.5-2.2.1-.5-1.5.1-1.7.2s.4-.1,0-.7a.7.7,0,0,1,.1-1.1c.1-.1.3-.2.2-.3s-1.3-.4-2.1-1,0-1.8-.5-2.5-3.1.1-3.8.7l-.6.5.5-.3h-.2a3.6,3.6,0,0,0-.7-1,2.8,2.8,0,0,0-2.3-.5c-1.4.1-3.2.5-3.8,2a3.8,3.8,0,0,0-.3,1.8,7.1,7.1,0,0,0-.1,1.4,2.2,2.2,0,0,1-.1.8c-.2.4-.7.6.1.4s.3-.1-.1-.4a1.8,1.8,0,0,1-.7-.5,3.7,3.7,0,0,0-1.4-.9,3,3,0,0,0-1.9.2c-.8.4-.9.8-1,1.6s-.1.8-.1,1.2v.2l1.1-.3h0a4,4,0,0,0-1.9-.3,2.4,2.4,0,0,0-2.2.9c-.8,1.3.1,2.7-1.7,3.3s-1.2,3.1.3,4.3l.3-.5c.5-.3.2-.2-.2-.3l-.7-.2a4.1,4.1,0,0,0-1.6.3,1.6,1.6,0,0,0-1,2.3c.8,2.2-2.4,3.2-1.3,5.2A2.8,2.8,0,0,0,41.6,64a4.3,4.3,0,0,0,1.6-.1,5.3,5.3,0,0,1,1.8-.4c.6.2.8,1,1.3,1.4a2.3,2.3,0,0,0,1.1.3l1.3-.2c.6-.2.9-.4,1.5.1,2.5,2.2,5.9,0,8.7-.3.3,0,1.1-.1,1.3-.4S60,64,59.7,64Z"/><polygon class="cls-14" points="54.9 68.3 52.4 65.6 50.7 65.6 49.8 66.9 49.8 69.5 49.9 69.7 53.3 68.2 54.9 68.3"/><path class="cls-25" d="M54.9,68.3H53.3l-3.4,1.5.9,2.3c.9,0,3.2.1,4,.6A30.9,30.9,0,0,1,54.9,68.3Z"/><path class="cls-15" d="M56.6,68.3l1.6-1.8,2.2-.2,1.9-1.4V62.7l-3-2-3.5.9a8.8,8.8,0,0,0-3.2-.2l-1,1A55.7,55.7,0,0,1,56.6,68.3Z"/><path class="cls-26" d="M54.9,68.3l1,1.5.7-1.5a70.8,70.8,0,0,0-5-5.9l-.8,3v.2h1.7Z"/><path class="cls-27" d="M54.9,68.3a30.9,30.9,0,0,0-.1,4.3,8.4,8.4,0,0,0,1.7.5l-.6-3.3Z"/><polygon class="cls-18" points="62.3 64.9 62.3 64.9 60.4 66.3 61.1 72.4 62.6 68 62.3 64.9"/><path class="cls-14" d="M58.2,66.5a9.4,9.4,0,0,0-2.3,3.3l.6,3.3,4.6-.7c.1-.1-.8-5.9-.7-6.1Z"/><polygon class="cls-14" points="116 118.7 122.1 122.8 119.5 112.2 114.5 111.2 116 118.7"/><polygon class="cls-16" points="108.5 114.3 107.9 119.1 116 118.7 114.5 111.2 108.5 114.3"/><polygon class="cls-28" points="116 118.7 107.9 119.1 109.4 126.9 109.9 127 120.2 125.5 122.1 122.8 122.1 122.8 116 118.7"/><path class="cls-14" d="M108.5,114.3l-2.2-3.5c-7.5-.2-6.6-.1-12.9,3.5l2.6,9.6,13.4,3-1.5-7.8Z"/><polygon class="cls-29" points="92.7 107.3 91.8 117.4 93.4 114.3 92.7 107.3"/><polygon class="cls-18" points="91.8 117.4 96 123.9 93.4 114.3 91.8 117.4"/><polygon class="cls-14" points="117.9 101.1 111.2 98.8 105.8 103 119.4 104.9 117.9 101.1"/><polygon class="cls-30" points="119.4 112 119.4 104.9 106.3 110.8 108.5 114.3 114.5 111.2 119.5 112.2 119.4 112"/><polygon class="cls-30" points="92.7 107.3 93.4 114.3 99.7 110.8 96.8 101.8 92.7 107.3"/><polygon class="cls-15" points="105.8 103 96.8 101.8 99.7 110.8 106.3 110.8 119.4 104.9 105.8 103"/><polygon class="cls-22" points="91.8 117.4 92.7 107.3 96.8 101.8 119.4 104.9 119.5 112.2 122.1 122.8 120.2 125.5 109.9 127 96 123.9 91.8 117.4"/><path class="cls-22" d="M96,123.9l-2.6-9.6c6.3-3.6,5.4-3.7,12.9-3.5l13.1-5.9-1.5-3.8-6.7-2.3-5.5,4.2"/><line class="cls-22" x1="96.9" y1="102.1" x2="99.7" y2="110.8"/><polyline class="cls-22" points="106.3 110.8 108.5 114.3 107.9 119.1 109.4 126.9"/><line class="cls-22" x1="93.3" y1="114.3" x2="91.8" y2="117.4"/><polyline class="cls-22" points="108.1 118.8 116 118.7 122.1 122.8"/><path class="cls-22" d="M142.9,45.1l-1-2.8,3.5-12.6,6.8-6.9,7.4-1.5c5,2.2,7.2,3.9,12,10.3V43.2L168.9,47l-5.5-.7-3,2.1h-8.9C150.1,47.8,144.5,44.4,142.9,45.1Z"/><polyline class="cls-22" points="142.9 44.9 145.7 40.5 146.9 35.8 145.4 29.7"/><polyline class="cls-22" points="145.7 40.5 151.1 39.4 160.1 41.8 161.5 36.7 161.5 28.6 159.7 21.4"/><line class="cls-22" x1="151.1" y1="39.4" x2="151.1" y2="48.2"/><line class="cls-22" x1="160.1" y1="41.8" x2="160.4" y2="48.4"/><line class="cls-22" x1="161.5" y1="36.7" x2="168.9" y2="47"/><line class="cls-22" x1="161.5" y1="28.6" x2="171.6" y2="31.6"/><path class="cls-22" d="M172.3,50.3a41,41,0,0,0,.2-6.1,17.2,17.2,0,0,0,4.4-4.1l4.9.2,3.2-1.8a17.4,17.4,0,0,1,3,4.6v3.8l2.2,6.7L189,55.4h-6.4l-8.2-1.8Z"/><path class="cls-22" d="M188,46.9l-2.5-.6L182,49.1l-1.2-3.3a11.8,11.8,0,0,1-3.7.5l-3.6,1.8-1-3.8"/><line class="cls-22" x1="182" y1="49.1" x2="182.4" y2="55.4"/><polyline class="cls-22" points="185.6 46.5 185.8 51.5 189 55.4"/><line class="cls-22" x1="173.5" y1="48.1" x2="174.4" y2="53.6"/><rect class="cls-31" x="201.1" y="87.8" width="1.1" height="31.96"/><path class="cls-32" d="M202.7,89.3c0,.9-.5,1.7-1,1.7s-1.1-1.1-1.1-1.8-1-10.3,1.1-10.6S202.3,88,202.7,89.3Z"/><path class="cls-31" d="M200.2,118l.3,1.7a64.7,64.7,0,0,0-13.9-33.2c.8,6.1,5.6,10.2,5.9,16.7-1.3-2-3.9-5.2-6-5,2.7,5.4,8,8.8,10.2,14.7,1.4,3.1,1.1,7.4,3.5,9.8h3a31.3,31.3,0,0,1,14.7-26.3C209.8,95.9,201.7,106.6,200.2,118Z"/><rect class="cls-31" x="208.5" y="78.6" width="1.1" height="39.03"/><path class="cls-32" d="M210,79.6c0,.9-.4,1.7-1,1.7s-1.1-1.1-1-1.7-1.1-10.4,1-10.6S209.7,78.3,210,79.6Z"/><path class="cls-31" d="M207.6,115.8a11,11,0,0,1,.2,1.8A65.4,65.4,0,0,0,194,84.4c.8,6.1,5.5,10.2,5.8,16.7-1.3-2-3.9-5.2-6-5,2.7,5.4,8,8.8,10.3,14.6,1.4,3.2,1.1,7.5,3.4,9.8h3.1a31,31,0,0,1,14.7-26.3C217.1,93.8,209.1,104.5,207.6,115.8Z"/><rect class="cls-31" x="215.6" y="83.6" width="1.1" height="31.96"/><path class="cls-32" d="M215.1,85c0,1,.4,1.8,1,1.8,2.1-.2.7-9.4,1.1-10.6s-.5-1.8-1.1-1.8S215.5,83.7,215.1,85Z"/><path class="cls-31" d="M217.5,113.7c-.1.6-.1,1.2-.2,1.8a65.4,65.4,0,0,1,13.8-33.2c-.7,6.1-5.5,10.2-5.8,16.7,1.3-2.1,3.9-5.3,6-5-2.7,5.4-8,8.8-10.3,14.6-1.4,3.2-1.1,7.4-3.4,9.8h-3.1a31.1,31.1,0,0,0-14.6-26.3C208,91.7,216.1,102.3,217.5,113.7Z"/><rect class="cls-31" x="201.1" y="87.8" width="1.1" height="31.96"/><path class="cls-32" d="M202.7,89.3c0,.9-.5,1.7-1,1.7s-1.1-1.1-1.1-1.8-1-10.3,1.1-10.6S202.3,88,202.7,89.3Z"/><path class="cls-31" d="M200.2,118l.3,1.7a64.7,64.7,0,0,0-13.9-33.2c.8,6.1,5.6,10.2,5.9,16.7-1.3-2-3.9-5.2-6-5,2.7,5.4,8,8.8,10.2,14.7,1.4,3.1,1.1,7.4,3.5,9.8h3a31.3,31.3,0,0,1,14.7-26.3C209.8,95.9,201.7,106.6,200.2,118Z"/></g></svg>