<svg xmlns="http://www.w3.org/2000/svg" viewBox="0 0 104.4 83.1"><defs><style>.cls-1{fill:#1b2916;opacity:0.21;}.cls-2{fill:#39b44a;}.cls-3{fill:#0e9247;}.cls-4{fill:#61bb5a;}</style></defs><g id="Layer_9" data-name="Layer 9"><path class="cls-1" d="M78.2,48.3c-8.3-6.3-28-6.7-34.8,3.2C14.3,66.4,63.2,81.6,73.3,64.4,82.3,61.3,85.3,53.4,78.2,48.3Z"/><path class="cls-2" d="M48.5,19.8a13.2,13.2,0,0,1,11.7,7.1,10.3,10.3,0,0,1,11,4.9c3.4-3,8.8,1.3,6.5,5.2,11.6,4.9,7.1,23.8-5.6,22.7a8.4,8.4,0,0,1-10.7,5.2c-.4,4.4-6.9,5-8.2.9-8.3,4-18.9-1.3-21-10.1-5.4-1.4-6.9-9.4-2.4-12.8-5.8-4.2-1.3-14,5.8-12.2A13,13,0,0,1,48.5,19.8Z"/><path class="cls-3" d="M32.2,51c2.1,8.7,12.7,14,21,10,1.3,4.1,7.8,3.5,8.2-.8a8.5,8.5,0,0,0,10.7-5.3,11.9,11.9,0,0,0,12.2-9.4A11.9,11.9,0,0,1,72.1,59.7a8.4,8.4,0,0,1-10.7,5.2c-.4,4.4-6.9,5-8.2.9-8.3,4-18.9-1.3-21-10.1a7.5,7.5,0,0,1-4.7-9.4A7.8,7.8,0,0,0,32.2,51Z"/><path class="cls-4" d="M36.3,40.1a5.1,5.1,0,0,1,4.5-1.4c-.7-5.4,7.1-7.9,9.6-3.1a9.9,9.9,0,0,1,14.1,3.6c-.9-6.8-9.5-10.6-15.1-6.7-2.6-4.8-10.3-2.2-9.7,3.1-4.6-.8-8.2,5-5.2,8.8A5.2,5.2,0,0,1,36.3,40.1Z"/></g></svg>