<svg xmlns="http://www.w3.org/2000/svg" viewBox="0 0 86.1 151.4"><defs><style>.cls-1{fill:#221f1f;opacity:0.25;}.cls-2{fill:#8b483e;}.cls-3{fill:#723831;}.cls-4{fill:#0e8c45;}.cls-5{fill:#39b44a;}</style></defs><g id="BG_04"><path class="cls-1" d="M53,134.7c-9.3,5.7-33.4-3.5-17-12.7C45.3,116.3,69.4,125.5,53,134.7Z"/><path class="cls-2" d="M47.9,64v61.5a3.3,3.3,0,0,1-3.4,3.5,3.5,3.5,0,0,1-3.5-3.4V64Z"/><path class="cls-3" d="M47.9,52.2l.2,65a5.7,5.7,0,0,1-7,0v-65Z"/><path class="cls-4" d="M44.5,104.7A33,33,0,0,0,71.4,90.6c-3.5,31.4-50.3,31.2-53.7.1A32.5,32.5,0,0,0,44.5,104.7Z"/><path class="cls-5" d="M26.9,67c-6-12,13-52.4,17.5-54.7,5,2.6,23.4,42.5,17.7,54.6,19.5,17.7,6.1,37.1-17.6,37.8S7.6,84.6,26.9,67Z"/></g></svg>