<svg xmlns="http://www.w3.org/2000/svg" viewBox="0 0 141.8 81.6"><defs><style>.cls-1{fill:#221f1f;opacity:0.25;}.cls-2{fill:#d0af9d;}.cls-3{fill:#c4a594;}.cls-4{fill:#806e62;}.cls-5{fill:#706054;}.cls-6{fill:#907b6d;}.cls-7{fill:#9f8678;}.cls-8{fill:#dfbca9;}.cls-9{fill:none;stroke:#240c0d;stroke-miterlimit:10;stroke-width:0.5px;}</style></defs><g id="Layer_6" data-name="Layer 6"><path class="cls-1" d="M21.9,55C-6.3,81.8,118.8,75.2,122.8,71.2c9.1-5.6,11.1-25,4-27.8S20.2,48.7,21.9,55Z"/><path class="cls-2" d="M22.2,39.4c5.9-1.9,19.5-6.2,25.5-7.3l10,1.3,1.4-3.9,14.2-3.3,7.1.9L75,38,43.4,43.3Z"/><path class="cls-3" d="M75,38l20-.7c17.3-10.7,14.1-6.7,24.3-24.5L95,20,80.4,27.1Z"/><path class="cls-4" d="M128,52.1c7.6-17.3,5.8-26.9-8.7-39.3l-8.8,14.9,11.1,33.2Z"/><polygon class="cls-5" points="104.6 64.6 121.6 60.9 110.5 27.7 95 37.3 94.1 56.2 104.6 64.6"/><polygon class="cls-6" points="80.4 64.6 94.1 56.2 95 37.3 75 38 66.8 64.2 80.4 64.6"/><polygon class="cls-5" points="48 66.3 66.8 64.2 75 38 43.4 43.3 29.5 56 48 66.3"/><polygon class="cls-7" points="29.5 56 29.5 56 43.4 43.3 22.2 39.4 20.3 53.6 29.5 56"/><polygon class="cls-7" points="92.5 66.3 92.5 66.3 104.6 64.6 94.1 56.2 80.4 64.6 92.5 66.3"/><polygon class="cls-6" points="29.5 61.3 29.5 61.3 48 66.3 29.5 56 20.3 53.6 29.5 61.3"/><polygon class="cls-8" points="24.5 39.9 42 43.2 30.4 55.1 44.1 43.8 66 39.5 43.2 42.1 24.5 39.9"/><path class="cls-8" d="M76.1,38l18.5-.2-.5,18.4,2-18.2,14.4-10.3C92.3,39.3,96.9,36.4,76.1,38Z"/><path class="cls-2" d="M80.5,33.7l1.7-6,12.2-4.9L107.9,20,85,28.9Z"/><polygon class="cls-4" points="53.6 62.8 41.3 54.6 48 46.2 68.2 44.7 66.8 50.9 59.9 47.3 49.9 50.9 48.5 57.1 53.6 62.8"/><polygon class="cls-5" points="115.4 19.3 107.9 23.7 121.6 33.4 115.4 19.3"/><path class="cls-9" d="M22.2,39.4,20.3,53.6l9.2,7.7,19.3,5,18-2.1c6.4,0,19.4.9,25.7,2.1,7.1-.6,22.1-3.7,29.1-5.4,6-8.5,11.7-14,10.6-31-1.7-7.6-12.9-17.1-12.9-17.1-4.2,7.7-4.1,6.7-11.4,10.9l3.5,2.5c.6,1.3-14.9,9.8-15.6,10.5L75,38,43.2,42.1Z"/><polyline class="cls-9" points="95.8 36.7 96.1 38 94.1 56.2 104.6 64.6"/><line class="cls-9" x1="110.5" y1="27.7" x2="121.6" y2="60.9"/><path class="cls-9" d="M119.3,12.8,95,20,80.4,27.1l-7.1-.9L59.1,29.5l-1.4,3.9-10-1.3c-6.2,1.3-19.4,5.3-25.5,7.3"/><line class="cls-9" x1="75" y1="38" x2="66.8" y2="64.2"/><polyline class="cls-9" points="43.2 42.1 29.5 56 20.3 53.6"/><line class="cls-9" x1="29.5" y1="56" x2="48.8" y2="66.3"/></g></svg>