<svg xmlns="http://www.w3.org/2000/svg" xmlns:xlink="http://www.w3.org/1999/xlink" viewBox="0 0 186.7 101.6"><defs><style>.cls-1{fill:#fff;}.cls-2{isolation:isolate;}.cls-3{fill:#221f1f;opacity:0.25;}.cls-4{fill:#928c7a;}.cls-5{fill:#3f3a24;}.cls-6{mask:url(#mask);}.cls-7{mix-blend-mode:multiply;}.cls-7,.cls-9{opacity:0.49;}.cls-8{fill:#6e6652;}.cls-10,.cls-9{fill:#cbc4b3;}.cls-11{fill:none;stroke:#240c0d;stroke-miterlimit:10;stroke-width:0.75px;}</style><mask id="mask" x="-401.57" y="19.12" width="578.29" height="81.57" maskUnits="userSpaceOnUse"><path class="cls-1" d="M85.6,63.9s4.6-27.7,13.3-24.6,36.8,23.5,38.9,28.1,12.8,2.1,15.3,1.6,22.5-9.2,23.5-15.4-8.1,22-8.1,22-12.8,16.9-25.6,16.9S104,77.7,96.4,74.1A23.7,23.7,0,0,1,85.6,63.9Z"/><path class="cls-1" d="M16.6,76.6s3.6-9.2,9.2-7.1,27.1,5.6,37.9,1,5.6,3.1,3.5,5.1S56,83.8,43.7,84.8s-29.1-8.7-29.1-8.7Z"/></mask></defs><g class="cls-2"><g id="Layer_8" data-name="Layer 8"><path class="cls-3" d="M19,72.9s-5.9,4.2,5.7,6,42.6-3,42.6-3l40.3,1.3s12.8,7.1,27.7,7.1,34.8-15.3,34-21.8-51.7-13.2-51.7-13.2S20.8,66.9,19,72.9Z"/><path class="cls-4" d="M140.3,80c-9.1,0-52.9-14.2-54.4-18.6s3.8-23.9,7.7-27.9S119,18.9,129.9,18.9c4.5,0,13.1,5.4,25.6,16.1,9.3,8,17.4,16.1,17.5,16.2C176,65.2,147.3,78.7,140.3,80Z"/><path class="cls-5" d="M129.9,19.1c10.7,0,42.9,32.2,42.9,32.2,3.1,13.8-26.1,26.9-31.4,28.4-9.2.7-53.3-14-55.3-18.4S90,37.5,93.8,33.7,119.1,19.1,129.9,19.1Zm0-.5c-10.9,0-32.5,10.9-36.4,14.8s-9.4,23.4-7.8,28c9.3,8.4,44.4,17.8,54.6,18.9,8.4-1.9,36.1-15.2,32.8-29.3-1.3-1.3-32.4-32.4-43.2-32.4Z"/><path class="cls-4" d="M30.6,76.3c-10.8,0-14.3-2.4-9.2-9.1s50.8-21.3,42,4.9C59.9,73.4,42.6,76.1,30.6,76.3Z"/><path class="cls-5" d="M52.1,56.7c16.9,0,11,15.3,11,15.3-3.2.3-37.7,8.8-43.7.8C18.3,65.8,34.3,56.8,52.1,56.7Zm0-.5c-11.8.7-31.2,3.7-33.1,16.7.2,2.4,4,3.6,11.6,3.6,12.1-.2,29.5-2.7,33-4.3,2.8-5.8.4-17-11.5-16Z"/><g class="cls-6"><g class="cls-7"><path class="cls-8" d="M172.8,51.3s-32.2-32.2-42.9-32.2S102,27.3,93.8,33.7c-3.8,3.8-9.2,23-7.7,27.6S136,81.2,141.4,79.7,175.9,65.1,172.8,51.3Z"/><path class="cls-8" d="M63.1,72c10.4-27.3-47.1-11.8-43.7.8C20.2,79.7,57.8,73.6,63.1,72Z"/></g></g><path class="cls-9" d="M97.9,35.7s-3.6-2,4.6-5.6S124,13.8,135.7,23s24.6,35.2,7.7,30.6S99.4,38.3,97.9,35.7Z"/><path class="cls-9" d="M31.4,61.3c4.4-2.6,19.7-5.9,25.6-3.8s7.4,7.4.8,5.6S33,62.3,27.1,64.9,27.6,63.6,31.4,61.3Z"/><path class="cls-10" d="M129.9,19.1c-3.7-1.1-25.7,8.8-16.5,11.1S147.9,24.9,129.9,19.1Z"/><path class="cls-9" d="M137.5,60.1s7.3,5,13.8,4.3,5.4,3-1.5,3.8-8.1,2.3-14.2-5.4S137.5,60.1,137.5,60.1Z"/><path class="cls-10" d="M58.2,59.2c.2,2.2-12.9,2.2-12.7,0S58.4,57,58.2,59.2Z"/><path class="cls-11" d="M23.4,65.5c1.3-4.2,49.4-20.9,39.7,6.5C63.9,71.6,1.9,85.9,23.4,65.5Z"/><path class="cls-11" d="M93.1,34.6S134.3,59.7,139,68.9c0,0,35.8.8,33.8-17.6"/><path class="cls-11" d="M139,68.9S136.9,77,140.3,80"/><path class="cls-11" d="M22,66.8s1.2,4.1,18.6,5.5S63.1,72,63.1,72"/><path class="cls-11" d="M86.1,61.3s-3.7-6.9,7-26.7c0,0,7.2-10.4,36.1-15.9,0,0,7.7-2.5,43.6,32.6,0,0,5,8.9-15.5,21,0,0-10.1,6.3-15.9,7.6C127.2,79.1,96.1,69.5,86.1,61.3Z"/></g></g></svg>