<svg xmlns="http://www.w3.org/2000/svg" viewBox="0 0 200 200"><defs><style>.cls-1{isolation:isolate;}.cls-2{fill:#353535;}.cls-3{fill:#616161;}.cls-4{fill:#262626;}.cls-5{fill:#eee;mix-blend-mode:multiply;}.cls-6{fill:#424242;}.cls-7{fill:#edecd9;}.cls-12,.cls-16,.cls-8{fill:none;}.cls-8{stroke:#000;stroke-width:0.06px;}.cls-16,.cls-8{stroke-miterlimit:10;}.cls-9{fill:#dbdbd9;}.cls-10{fill:#333;}.cls-11{fill:#fff;}.cls-13{fill:#f4ead7;}.cls-14{fill:#b7b8ba;}.cls-15{fill:#a0a2a5;}.cls-16{stroke:#4d4d4d;stroke-width:0.33px;}</style></defs><g class="cls-1"><g id="Sheep_02"><path class="cls-2" d="M97.1,140.4l.8-1.5a2.5,2.5,0,0,1-1.8.8,8.1,8.1,0,0,0,1.4-2.8s2.1-1.1,3.5.4v.3C101.4,140.9,98.2,140.5,97.1,140.4Z"/><path class="cls-3" d="M101,137.2l-.3.2H100a2.8,2.8,0,0,1-1.6,0,2.7,2.7,0,0,1-.9-.7s1-5.3,0-6.8-.6-2-.6-3.8a46.9,46.9,0,0,0-1.2-6.5l-1.1-4.3a4.6,4.6,0,0,1,3.6-2.9,5.9,5.9,0,0,1,2.9.2s-.1,1.1-.2,2.7-.3,5-.3,7.1a8.7,8.7,0,0,0,.2,2.8c.9,1.4.2,2.9,0,4.7-.3,3.7.6,3.5.6,4.5S100.8,136,101,137.2Z"/><path class="cls-4" d="M96.1,139.7a6.6,6.6,0,0,0,2.1-1.4l-.3.6A2.4,2.4,0,0,1,96.1,139.7Z"/><path class="cls-4" d="M97.1,140.4s3.6-.4,3.9-2.8C101.4,140.9,98.2,140.5,97.1,140.4Z"/><path class="cls-5" d="M101,137.2l-.3.2H100a3.7,3.7,0,0,0,.5-1.8c.1-1.2-.6-1.9-.9-3.1a6,6,0,0,1,.5-3.5c.4-1.5-.2-2.2-.4-3.6a4.5,4.5,0,0,1,.5-2.8h.4a8.3,8.3,0,0,0,.2,2.7c.9,1.4.2,2.9,0,4.7-.3,3.7.6,3.5.6,4.5S100.8,136,101,137.2Z"/><path class="cls-6" d="M74.4,98l-.8,2c-7,2.4-11.6-.9-11.6-2.1s.2-.7.8-1.1C65,95,70.5,92.8,74.4,98Z"/><path class="cls-3" d="M74.4,98l-.6-.4c-4.2-3.5-10.2-1.2-10.9-.9C65,95,70.5,92.8,74.4,98Z"/><path class="cls-2" d="M118.9,118.2l.8-1.5a2.4,2.4,0,0,1-1.8.7,7.4,7.4,0,0,0,1.4-2.8,8.3,8.3,0,0,1,3.5.4c0,.1.1.2.1.4C123.2,118.6,120,118.3,118.9,118.2Z"/><path class="cls-4" d="M117.9,117.4s1.7-.6,2.1-1.3l-.3.6A2.5,2.5,0,0,1,117.9,117.4Z"/><path class="cls-4" d="M118.9,118.2s3.6-.5,4-2.8C123.2,118.6,120,118.3,118.9,118.2Z"/><path class="cls-6" d="M116.4,93.2s2.4,9,2.4,10.8-.4,2.3.5,3.8,0,6.8,0,6.8,1.1,1.7,3.5.4c-.2-1.2.5-1.7.5-2.7s-1-.8-.7-4.5c.2-1.7,1-3.3.1-4.7s.2-12.6.2-12.6C119.8,89.6,117.7,90.7,116.4,93.2Z"/><path class="cls-2" d="M88.5,135.7l.8-1.5a2.5,2.5,0,0,1-1.8.8,8.1,8.1,0,0,0,1.4-2.8,8.4,8.4,0,0,1,3.5.4v.3C92.8,136.2,89.6,135.8,88.5,135.7Z"/><path class="cls-4" d="M87.5,135a6.6,6.6,0,0,0,2.1-1.4l-.3.6A2.4,2.4,0,0,1,87.5,135Z"/><path class="cls-4" d="M88.5,135.7s3.6-.4,3.9-2.8C92.8,136.2,89.6,135.8,88.5,135.7Z"/><path class="cls-6" d="M86,110.8s2.3,9,2.3,10.8-.4,2.2.6,3.8,0,6.8,0,6.8,1.1,1.6,3.5.4c-.2-1.2.5-1.7.5-2.7s-1-.8-.7-4.5c.2-1.8.9-3.4,0-4.7s.3-12.6.3-12.6C89.4,107.2,87.3,108.2,86,110.8Z"/><path class="cls-2" d="M127.5,122.9l.8-1.5a2.4,2.4,0,0,1-1.8.7,7.4,7.4,0,0,0,1.4-2.8s2.2-1.1,3.5.4.1.2.1.4C131.8,123.3,128.6,123,127.5,122.9Z"/><path class="cls-3" d="M131.4,119.6c-.1.2-.2.2-.3.2l-.3.2a2.4,2.4,0,0,1-2.9-.7s1-5.3,0-6.8-.5-2-.5-3.8a50.8,50.8,0,0,0-1.3-6.4c-.5-2.4-1.1-4.4-1.1-4.4.9-1.7,2-2.7,3.6-2.9a5.9,5.9,0,0,1,2.9.2s-.1,1.1-.2,2.7c-.2,3.4-.5,9.2,0,9.9s.1,3-.1,4.7c-.3,3.7.7,3.5.7,4.5S131.2,118.5,131.4,119.6Z"/><path class="cls-5" d="M131.4,119.6c-.1.2-.2.2-.3.2l-.3.2a2.4,2.4,0,0,1-2.9-.7s1-5.3,0-6.8-.5-2-.5-3.8a50.8,50.8,0,0,0-1.3-6.4c-.5-2.4-1.1-4.4-1.1-4.4.9-1.7,2-2.7,3.6-2.9a5.9,5.9,0,0,1,2.9.2s-.1,1.1-.2,2.7c-.2,3.4-.5,9.2,0,9.9s.1,3-.1,4.7c-.3,3.7.7,3.5.7,4.5S131.2,118.5,131.4,119.6Z"/><path class="cls-4" d="M126.5,122.1s1.7-.6,2.1-1.3l-.3.6A2.5,2.5,0,0,1,126.5,122.1Z"/><path class="cls-4" d="M127.5,122.9s3.6-.5,4-2.8C131.8,123.3,128.6,123,127.5,122.9Z"/><path class="cls-7" d="M136.7,88.6a24.7,24.7,0,0,1-1.9,3.6,34.4,34.4,0,0,1-1.4,3.7,37,37,0,0,1-2.8,2.8c-.8.9-1.3,2.2-2.3,3.2s-2.3,1.3-3.3,2.2a13.6,13.6,0,0,0-1.7,1.7l-.5.5-.6.5c-1.1.7-2.5,1-3.6,1.7a38.1,38.1,0,0,1-3.2,2.4c-.9.5-2.1.5-3,1a13,13,0,0,0-1.8,1.5l-.8.5-1,.4a11.7,11.7,0,0,0-2,.6c-1,.5-1.7,1.4-2.6,1.9s-2.2.4-3.1.8-1.9,1.2-2.8,1.5h-.4c-1,.2-1.9,0-2.8.2s-2.1.8-3.1.8l-.9-.2-2.2-.7a11.9,11.9,0,0,1-3.2-.3c-.9-.3-1.7-1.3-2.7-1.7s-1.6-.4-2.2-.8a1.8,1.8,0,0,1-.5-.7h-.9a6.6,6.6,0,0,1-4.2-2.5c-.6-.7-1.1-1.6-1.6-2.3a12.7,12.7,0,0,1-1-2.4,101,101,0,0,1,2.2-10.4,2.9,2.9,0,0,1,1.4-1.9,1.5,1.5,0,0,1,0-1.3c.2-.4.6.2,1.1-.1s.2-.7.5-.9.8.2,1,.1.3-.8.6-.9.7.1,1,0,.2-.8.5-.9.8.1,1,0,.3-.8.5-.9h1.1c.2-.2.2-.8.5-.9s.7.1,1-.1a14.2,14.2,0,0,0,2.2-2c.9-.5,2-.7,2.8-1.2s1.3-1.7,2-2.2,1.9-.9,2.7-1.6,1.1-1.7,1.8-2.4,1.8-1,2.4-1.7,1.1-1.8,1.7-2.5,1.8-1,2.5-1.7,1-1.8,1.7-2.5,1.8-.9,2.6-1.5,1.3-1.5,2.2-2,1.8-.4,2.8-.8a12.3,12.3,0,0,1,2.5-1.4,14.1,14.1,0,0,1,2.9-.1,15.7,15.7,0,0,1,2.9-.8,14.3,14.3,0,0,1,2.8.7,13.8,13.8,0,0,1,2.9.1c.9.2,1.6,1.1,2.5,1.5s1.9.6,2.6,1.2a.8.8,0,0,1,.4.4c.5.6.8,1.4,1.3,2s1.5,1.3,1.9,2.2a21.1,21.1,0,0,1,.6,2.9c.4,1.3,1.2,2.4,1.4,3.7a2.1,2.1,0,0,1,0,.8,29.1,29.1,0,0,1-.4,3.1A17,17,0,0,1,136.7,88.6Z"/><polyline class="cls-8" points="122.5 96.7 122.5 96.7 122.5 96.6"/><path class="cls-9" d="M120.3,104.2c.3.2.8.2,1,.5s.1,1,.5,1.3.7.1,1,.3h.3c.3.2.3.9.7,1.1s.9-.2,1.4,0h.2l.2.2a.1.1,0,0,0,.1.1h.2a.1.1,0,0,1,.1.1h.7a.1.1,0,0,1,.1-.1h.1l.3-.2h.3c.4,0,.9.5,1.3.4s.7-.7,1-.9h1.3l.5-.2h.5l.3-.2h.3c0-.1.1-.1.1-.2h.3c0-.1.1-.1.1-.2l.2-.5.2-.4a1.4,1.4,0,0,1,.2-.6l.3-.6a16,16,0,0,0,1.8-2.5c.4-1,.2-2.1.5-3.2s.9-1.9,1.1-2.9-.2-2.1-.1-3.2.6-2.1.6-3.1-.6-2.1-.7-3.1.2-2.2,0-3.1a.5.5,0,0,0-.2-.4"/><path class="cls-3" d="M70.1,97.3c-2.7,3.2-3.2,5.8-4.6,9.5s-1.9,5,.5,6.8a3,3,0,0,0,3.1.4,7,7,0,0,0,3.3-2.5c.4-.4,4.4-.2,7.1-3.3s2.3-7.3,1.6-9.6S75.6,91,70.1,97.3Z"/><path class="cls-10" d="M65.3,109.5c-.1-.2-.3,0-.3.2a2.2,2.2,0,0,0,.9,1.5,2.8,2.8,0,0,0,.9,2.6c.2.1.4,0,.3-.2a3.8,3.8,0,0,1-.7-2.3,3.2,3.2,0,0,0,1.5-.5c.3-.2.4-.6-.3-.4S66,110.7,65.3,109.5Z"/><path class="cls-6" d="M75.8,103.9s-.4,1.5-1.2,1.5-1-.5-1.5-.1l.3-.7a2.2,2.2,0,0,1,1-1.3A1,1,0,0,1,75.8,103.9Z"/><path class="cls-10" d="M75.8,103.7a1.7,1.7,0,0,1-1.4,1.4,1.4,1.4,0,0,1-1-.5,2.2,2.2,0,0,1,1-1.3A1.2,1.2,0,0,1,75.8,103.7Z"/><circle class="cls-11" cx="75" cy="103.8" r="0.3"/><path class="cls-7" d="M78,93c-.4,0-.7-.7-1.1-.7s-.8.5-1.2.5-.8-.6-1.3-.5-.7.6-1.1.7-.9-.5-1.3-.4-.6.8-1,.9-1-.3-1.3-.1-.5.9-.8,1.1-1.1.1-1.3.4.1.9.1,1.3-.6.8-.4,1.2.9.6,1.1.9.1,1.1.5,1.4,1,0,1.4.2.6.9,1,1,1-.4,1.4-.3.8.7,1.2.7,1-.6,1.4-.6.9.7,1.3.7,1-.5,1.4-.5.6.8,1,1,1,.2,1.2.6-.4.8-.4,1.1.5.8.3,1.1-.8.2-1,.4,0,.9-.3,1.1-.9,0-1.1.2-.1.9-.4,1.1-.9,0-1.1.2-.1.9-.3,1.1-.9.2-1,.4.2.8.2,1.1-.6.7-.5,1,.8.5,1.1.7.6.8,1.1.8.7-.6,1.2-.7.9.4,1.3.3.6-.8,1-.9,1,.2,1.4.1.5-.9.9-1.1,1,.2,1.4,0,.4-1,.8-1.2,1,0,1.3-.2.4-1,.5-1.2,1.4-.8,1.7-1.3,0-1.5.2-2.1.8-1.2.8-1.8-.7-1.3-.9-1.9,0-1.4-.3-2-1.3-.7-1.7-1.2-.6-1.3-1.1-1.7-1.4-.3-2-.7-.8-1.1-1.4-1.4-1.5,0-2-.2Z"/><path class="cls-9" d="M109.7,107.3c1.6-.4,2.5-.3,2.6,0a4.3,4.3,0,0,1,0,2.6c-.2.7-1,1.4-1.4,2.3l-.3.8v.4a3.4,3.4,0,0,1-.5,1.4c-.4.7-1.3,1.2-1.8,2s-.7,1.7-1.2,2.4-1.6.9-2.3,1.5-1,1.6-1.8,2l-.3.2h-.5l-.9.2h-1.2l-.3.2h-.1a2.3,2.3,0,0,1-1.2.6c-.7.1-1.3-.4-1.9-.6h-.1c-.7-.1-1.5.1-2.1-.2s-.8-1.2-1.3-1.6a1,1,0,0,0-.5-.4,3.5,3.5,0,0,1-1.3-.8L91,120h0v-.2"/><path class="cls-12" d="M92.1,113.7H92"/><path class="cls-13" d="M89,116.7l.3.5c.1.3.4.5.6.8"/><path class="cls-14" d="M73.6,111.1h.1a11.4,11.4,0,0,0,1.5,2.3,6.6,6.6,0,0,0,4.2,2.5h.9a1.8,1.8,0,0,0,.5.7c.6.4,1.5.4,2.2.8s1.8,1.4,2.7,1.7a9.1,9.1,0,0,0,2.3.3h.9l2.1.7h.8a1.5,1.5,0,0,1-.1-.6.5.5,0,0,1,.3-.5c.3-.4.8-.8.8-1.1s-.5-.8-.8-1.2-.4-.5-.4-.8a4.9,4.9,0,0,1,.5-1.6v-.5c0-.1,0-.1-.1-.1h0c-.5-.7-1.8-.8-2.4-1.4s-.7-2.1-1.3-2.6-1.3.3-1.8.2h0c-.3-.1-.4-.4-.5-.7s-.2-.8-.5-.9-1.5.1-2-.3a.8.8,0,0,1-.2-.5c-.1-.5,0-1.2-.2-1.5s-1.2-.7-1.9-1.2l-.6-.5-.8-.9c-.5-.4-1-.7-1.5,0h0c-.1.1,0,.3.2.5h0l.4.6h-.1"/><path class="cls-15" d="M91.1,120l-2.2-.7a11.9,11.9,0,0,1-3.2-.3c-.9-.3-1.7-1.3-2.7-1.7s-1.6-.4-2.2-.8a1.8,1.8,0,0,1-.5-.7h-.9a6.6,6.6,0,0,1-4.2-2.5c1.1-.3,2.4-.3,3.4-.6s2.8-1.6,4.2-1.4,2.1,1.8,3.3,2.9,1.5-.1,1.9.2,0,1.5.4,1.9,1.5.2,1.7.7-.5,1.2-.3,1.8S91,119.6,91.1,120Z"/><path class="cls-6" d="M88.3,108.2c-.6.9-7.7,2.4-9.9-4a1.3,1.3,0,0,1-.1-.6A2.2,2.2,0,0,1,79,102c4.7-2.9,8.4,2.7,9.1,5.2A2.4,2.4,0,0,1,88.3,108.2Z"/><path class="cls-3" d="M88.1,107.2a10.1,10.1,0,0,0-4.5-4.3c-1.7-.9-4.5.2-5.3.7A2.2,2.2,0,0,1,79,102C83.7,99.1,87.4,104.7,88.1,107.2Z"/><path class="cls-14" d="M137.5,94.5c-.2,1-.9,1.9-1.1,2.9s-.1,2.2-.5,3.2a16,16,0,0,1-1.8,2.5c-.6,1-.8,2.2-1.4,2.9a6.4,6.4,0,0,1-2.9,1.3c-.3.2-.6.8-1,.9s-.9-.4-1.3-.4-.9.5-1.2.5-.8-.7-1.1-.8-1,.1-1.4,0-.4-.9-.7-1.1h-.3l-.6.5c-1.1.7-2.5,1-3.6,1.7a38.1,38.1,0,0,1-3.2,2.4c-.9.5-2.1.5-3,1a13,13,0,0,0-1.8,1.5,3.4,3.4,0,0,1-.5,1.4c-.4.7-1.3,1.2-1.8,2s-.7,1.7-1.2,2.4-1.6.9-2.3,1.5-1,1.6-1.8,2-1.8.4-2.6.7l-.7.4c.1-.4.4-1,.2-1.3s-1.4-.4-1.7-.9.4-1.5.1-1.9l-.4-.5c-.4-.3-1-.5-1-.9s1.1-.6,1.4-.9.1-1.5.5-1.7,1.4.4,1.8.1.3-1.4.7-1.9,1.6-.4,1.9-1-.5-1.4-.5-2,1.1-.5,1.1-.8-.6-.3-.9-.5l-.3-.2c0-.3.9-.8.9-1.1s-1.4-.9-1.6-1.4.7-1.4.7-2-.9-1.4-.7-1.9,1.4-.4,1.7-.7.3-1.6.7-1.7,1.1.8,1.6.9,1.1-.9,1.5-.8.4,1.3.8,1.4,1.2-.6,1.6-.5.8,1.4,1.3,1.5,1.3-.8,1.9-.8,1.4.7,1.9.4.2-1.4.6-1.7,1.4.1,1.8-.3-.3-1.4,0-1.8,1.4-.4,1.7-.9-.5-1.5-.2-1.9,1.4-.4,1.7-.7.9-1.7,1.6-1.7.6.4.9.8a2.2,2.2,0,0,0,.7.9c.6.4,1.8,0,2.3.5s.7,1.8,1.2,2,1.4-.7,2.1-1.1,1.7.1,2.2-.6.3-2.4.7-3.5,1.8-1.8,2-2.9-.7-2.5-.6-3.6,1.1-1,1.2-1.6-.9-1.3-.9-1.9S135,81.6,135,81s-1.2-1-1.3-1.5.7-1.3.6-1.8-1.4-.9-1.5-1.4.4-1.7.1-2.4-1.6-1.1-1.8-1.8.5-1.5.8-2.1.8,1.4,1.3,2,1.5,1.3,1.9,2.2a21.1,21.1,0,0,1,.6,2.9c.4,1.3,1.2,2.4,1.4,3.7a2.1,2.1,0,0,1,0,.8.5.5,0,0,1,.2.4c.2.9-.1,2.1,0,3.1s.7,2.1.7,3.1-.5,2.1-.6,3.1S137.7,93.5,137.5,94.5Z"/><path class="cls-15" d="M121.3,106.8c-1.1.7-2.4,1-3.6,1.7a38.1,38.1,0,0,1-3.2,2.4c-.9.5-2.1.5-3,1l-1.7,1.4c-.2.1.3-1.7-.9-1.9a1.6,1.6,0,0,1-.9-2.5c.6-1.5,1.3-3,3.1-2.6s.7,1,1.9.7,1.5-1.3,2.4-1.5l1.8-.4c.6,0,1,.5,1.6-.1s.7-1.2,1.4-1.3.3.2.6,0,.2-.6.2-.8.6-.8.9-.2,0,1.7.2,2.4A1.4,1.4,0,0,1,121.3,106.8Z"/><path class="cls-16" d="M137.4,91.3c.1-1,.6-2.1.6-3.1a7.1,7.1,0,0,0-.4-2l-.3-1.1c0-.7.1-1.4.1-2.2a2.8,2.8,0,0,0-.1-.9h0l-.2-.3a2.1,2.1,0,0,0,0-.8c-.2-1.3-1-2.4-1.4-3.7a21.1,21.1,0,0,0-.6-2.9c-.4-.9-1.4-1.4-1.9-2.2s-.8-1.4-1.3-2a.8.8,0,0,0-.4-.4c-.7-.6-1.8-.7-2.6-1.2s-1.6-1.3-2.5-1.5a13.8,13.8,0,0,0-2.9-.1,14.3,14.3,0,0,0-2.8-.7,15.7,15.7,0,0,0-2.9.8,14.1,14.1,0,0,0-2.9.1,12.3,12.3,0,0,0-2.5,1.4c-1,.4-2.1.3-2.8.8s-1.4,1.5-2.2,2-1.8.9-2.6,1.5-1,1.8-1.7,2.5-1.8,1-2.5,1.7-.9,1.8-1.7,2.5-1.7,1-2.4,1.7-1.1,1.8-1.8,2.4-1.9.9-2.7,1.6-1.2,1.6-2,2.2-1.9.7-2.8,1.2a14.2,14.2,0,0,1-2.2,2c-.3.2-.8-.1-1,.1s-.3.7-.5.9H82.4c-.2.1-.2.7-.5.9s-.8-.2-1,0-.3.7-.5.9-.8-.2-1,0-.1,0-.1.1L78,93c-.4,0-.7-.7-1.1-.7s-.8.5-1.2.5-.8-.6-1.3-.5-.7.6-1.1.7-.9-.5-1.3-.4-.6.8-1,.9-1-.3-1.3-.1-.5.9-.8,1.1-.9.1-1.2.3a4.1,4.1,0,0,0-1.6.3,8.5,8.5,0,0,0-3.3,1.7c-.6.4-.9.9-.8,1.1s2.2,2.6,5.8,2.9c-.9,1.8-1.4,3.7-2.3,6s-1.9,5,.5,6.8a3,3,0,0,0,3.1.4,7,7,0,0,0,3.3-2.5l1.3-.4h0a.5.5,0,0,0,.2.4v.2l.2.3.2.3c0,.1.1.2.2.4s.1.1.2.2l.4.5a6.6,6.6,0,0,0,4.2,2.5h.9a1.8,1.8,0,0,0,.5.7c.6.4,1.5.4,2.2.8l.8.4a7.2,7.2,0,0,0,1.9,1.3H88a13.1,13.1,0,0,1,.3,2.3c0,1.8-.4,2.2.6,3.8s0,6.8,0,6.8a8.1,8.1,0,0,1-1.4,2.8h0l.9-.2h.1l.3-.2h.1l.4-.2-.8,1.4c1.1.1,4.3.5,3.9-2.8v-.3h0c-.2-1.2.5-1.7.5-2.7s-1-.8-.7-4.5c.1-1.4.6-2.6.4-3.8h0a1,1,0,0,1,.5.4c.5.4.7,1.3,1.3,1.6s1.4.1,2.1.2h.1a16.1,16.1,0,0,1,.3,2.5c0,1.8-.4,2.3.6,3.8s0,6.8,0,6.8h0a8.1,8.1,0,0,1-1.4,2.8h0l.9-.2h.1l.3-.2c.1,0,.1,0,.1-.1l.4-.2-.8,1.4c1.1.1,4.3.5,3.9-2.8v-.3h0c-.2-1.2.4-1.6.4-2.6s-.9-.8-.6-4.5c.2-1.8.9-3.3,0-4.7a6.9,6.9,0,0,1-.2-2h2.1l.3-.2a2.7,2.7,0,0,0,1-1.1l.8-.9c.7-.6,1.7-.8,2.3-1.5l.6-1.1a5.2,5.2,0,0,1,.6-1.3c.5-.8,1.4-1.3,1.8-2a3.5,3.5,0,0,0,.5-1.3h0l1.2-1.1h.1l.5-.3c.9-.5,2.1-.5,3-1a38.1,38.1,0,0,0,3.2-2.4l.9-.4c.7,1.7-.2,6.5-.2,6.5a7.4,7.4,0,0,1-1.4,2.8h.1a1.5,1.5,0,0,0,.9-.2h0l.4-.2h0l.4-.3-.8,1.5c1.1.1,4.3.4,4-2.8,0-.2-.1-.3-.1-.4h0c-.2-1.2.5-1.7.5-2.7s-1-.8-.7-4.5l.3-1.5h.2v.2l.3.5h0l.3.4a2.2,2.2,0,0,0,1.1-.1h.5c.1.1.1.2.2.2h1.7c0,.3.1.6.1.8,0,1.8-.4,2.3.5,3.8s0,6.8,0,6.8h0a7.4,7.4,0,0,1-1.4,2.8h.1a1.5,1.5,0,0,0,.9-.2h0l.4-.2h0l.4-.3-.8,1.5c1.1.1,4.3.4,4-2.8,0-.2-.1-.3-.1-.4h0c-.2-1.1.5-1.6.5-2.6s-1-.8-.7-4.5c.2-1.7,1-3.3.1-4.7a1.4,1.4,0,0,1-.2-.9h1l.2-.2h.4c0-.1.1-.1.1-.2h.3c0-.1.1-.1.1-.2h0l.3-.7v-.2a.8.8,0,0,1,.2-.5v-.2l.3-.5a16,16,0,0,0,1.8-2.5h0a8.6,8.6,0,0,0,.3-1.7,3.6,3.6,0,0,1,.2-1.4,3.2,3.2,0,0,1,.3-.9,10.8,10.8,0,0,0,.8-1.9h0C137.7,93.5,137.3,92.4,137.4,91.3Z"/></g></g></svg>