<svg xmlns="http://www.w3.org/2000/svg" viewBox="0 0 200 200"><defs><style>.cls-1{isolation:isolate;}.cls-2{fill:#353535;}.cls-3{fill:#616161;}.cls-4{fill:#262626;}.cls-5{fill:#eee;mix-blend-mode:multiply;}.cls-6{fill:#424242;}.cls-7{fill:#dbdbd9;}.cls-11,.cls-15,.cls-8{fill:none;}.cls-8{stroke:#000;stroke-width:0.04px;}.cls-15,.cls-8{stroke-miterlimit:10;}.cls-9{fill:#333;}.cls-10{fill:#fff;}.cls-12{fill:#f4ead7;}.cls-13{fill:#b7b8ba;}.cls-14{fill:#a0a2a5;}.cls-15{stroke:#666;stroke-width:0.41px;}</style></defs><g class="cls-1"><g id="Sheep_03"><path class="cls-2" d="M98.5,123.4l.6-.8a1.9,1.9,0,0,1-1.2.4,4.3,4.3,0,0,0,.9-1.6,2.4,2.4,0,0,1,2.4.3v.2C101.4,123.7,99.3,123.5,98.5,123.4Z"/><path class="cls-3" d="M101.1,121.6a.1.1,0,0,1-.1.1h-.5a1.9,1.9,0,0,1-1.1-.1,1.1,1.1,0,0,1-.6-.4s.7-2.9,0-3.7-.4-1.1-.4-2.1a22.4,22.4,0,0,0-.8-3.6c-.4-1.3-.8-2.4-.8-2.4a3,3,0,0,1,2.4-1.6,4.6,4.6,0,0,1,2,.1,10.1,10.1,0,0,0-.1,1.5c-.1,1.1-.2,2.7-.2,3.9a5.8,5.8,0,0,0,.1,1.6c.7.7.1,1.6,0,2.6s.5,1.9.5,2.5S101,121,101.1,121.6Z"/><path class="cls-4" d="M97.9,123a4.2,4.2,0,0,0,1.3-.7v.3A2.5,2.5,0,0,1,97.9,123Z"/><path class="cls-4" d="M98.5,123.4s2.4-.2,2.7-1.5C101.4,123.7,99.3,123.5,98.5,123.4Z"/><path class="cls-5" d="M101.1,121.6a.1.1,0,0,1-.1.1h-.5a2.2,2.2,0,0,0,.3-1c.1-.7-.4-1.1-.5-1.7a2.7,2.7,0,0,1,.2-2c.3-.8-.1-1.3-.2-2a2.3,2.3,0,0,1,.3-1.6h.3a5.3,5.3,0,0,0,.1,1.5c.7.7.1,1.6,0,2.6s.5,1.9.5,2.5S101,121,101.1,121.6Z"/><path class="cls-6" d="M83.3,98.6l-.6,1.5c-5.3,1.8-8.9-.7-8.9-1.6s.2-.5.7-.9A5.9,5.9,0,0,1,83.3,98.6Z"/><path class="cls-3" d="M83.3,98.6l-.5-.3c-3.2-2.8-7.8-.9-8.3-.7A5.9,5.9,0,0,1,83.3,98.6Z"/><path class="cls-2" d="M113.3,110.2l.5-.9a1.6,1.6,0,0,1-1.2.4,10.6,10.6,0,0,0,1-1.7,5.1,5.1,0,0,1,2.3.2v.2C116.2,110.5,114,110.2,113.3,110.2Z"/><path class="cls-4" d="M112.6,109.7a4.2,4.2,0,0,0,1.4-.8l-.2.4A1.5,1.5,0,0,1,112.6,109.7Z"/><path class="cls-4" d="M113.3,110.2s2.4-.3,2.6-1.8C116.2,110.5,114,110.2,113.3,110.2Z"/><path class="cls-6" d="M111.6,94.7a61.1,61.1,0,0,1,1.6,6.7c0,1.1-.3,1.4.4,2.4s0,4.2,0,4.2.7,1,2.3.2c-.1-.7.3-1,.3-1.6s-.6-.6-.4-2.8.6-2.1,0-3,.2-7.8.2-7.8C113.9,92.5,112.5,93.1,111.6,94.7Z"/><path class="cls-2" d="M92.7,120.7l.5-.9a1.6,1.6,0,0,1-1.2.4,4.7,4.7,0,0,0,1-1.6,5.6,5.6,0,0,1,2.3.3c.1,0,.1.1.1.2C95.6,120.9,93.4,120.7,92.7,120.7Z"/><path class="cls-4" d="M92,120.2a3.5,3.5,0,0,0,1.4-.7l-.2.3A1.5,1.5,0,0,1,92,120.2Z"/><path class="cls-4" d="M92.7,120.7s2.4-.3,2.7-1.6C95.6,120.9,93.4,120.7,92.7,120.7Z"/><path class="cls-6" d="M91,106.4a54,54,0,0,1,1.6,6.2c0,1-.3,1.3.4,2.2s0,3.8,0,3.8.7,1,2.3.3c-.1-.7.4-1,.4-1.6s-.7-.4-.5-2.5.6-1.9,0-2.7.2-7.2.2-7.2C93.3,104.4,91.9,105,91,106.4Z"/><path class="cls-2" d="M119.1,112.9l.5-.9a1.7,1.7,0,0,1-1.2.5,6.2,6.2,0,0,0,1-1.7,2.1,2.1,0,0,1,2.3.2v.2C122,113.2,119.8,113,119.1,112.9Z"/><path class="cls-3" d="M121.7,111h-.4a1.9,1.9,0,0,1-1.3,0l-.6-.4s.6-3.2,0-4.1-.4-1.2-.4-2.3a18.2,18.2,0,0,0-.9-3.9c-.3-1.4-.7-2.7-.7-2.7a3.2,3.2,0,0,1,2.4-1.7,4.6,4.6,0,0,1,2,.1,12.6,12.6,0,0,0-.1,1.6c-.2,2.1-.4,5.6-.1,6s.1,1.8,0,2.9.4,2.1.4,2.7S121.6,110.3,121.7,111Z"/><path class="cls-5" d="M121.7,111h-.4a1.9,1.9,0,0,1-1.3,0l-.6-.4s.6-3.2,0-4.1-.4-1.2-.4-2.3a18.2,18.2,0,0,0-.9-3.9c-.3-1.4-.7-2.7-.7-2.7a3.2,3.2,0,0,1,2.4-1.7,4.6,4.6,0,0,1,2,.1,12.6,12.6,0,0,0-.1,1.6c-.2,2.1-.4,5.6-.1,6s.1,1.8,0,2.9.4,2.1.4,2.7S121.6,110.3,121.7,111Z"/><path class="cls-4" d="M118.4,112.5a4.2,4.2,0,0,0,1.4-.8l-.2.3A1.9,1.9,0,0,1,118.4,112.5Z"/><path class="cls-4" d="M119.1,112.9s2.4-.2,2.7-1.7C122,113.2,119.8,113,119.1,112.9Z"/><path class="cls-7" d="M125.3,91.8a14.1,14.1,0,0,1-1.3,2.4,12.5,12.5,0,0,1-.9,2.5c-.5.7-1.3,1.2-1.9,1.9s-.9,1.5-1.6,2.1-1.5.9-2.2,1.5a6.3,6.3,0,0,0-1.1,1.2l-.4.3-.4.4c-.7.5-1.7.6-2.4,1.1s-1.4,1.2-2.2,1.6a15.9,15.9,0,0,1-2,.7l-1.3,1a.9.9,0,0,1-.5.3.9.9,0,0,1-.7.3l-1.3.4c-.7.4-1.2,1-1.8,1.3a20.9,20.9,0,0,1-2.1.5c-.7.3-1.2.9-1.9,1.1H97.2a20.9,20.9,0,0,1-2.1.5h-.6c-.6-.1-1-.4-1.5-.5a8.2,8.2,0,0,1-2.2-.2,14,14,0,0,1-1.8-1.2,6.6,6.6,0,0,1-1.5-.5l-.3-.4h-.6a4.2,4.2,0,0,1-2.9-1.7,6.5,6.5,0,0,1-1-1.5l-.8-1.6s.4-2.2,1.6-7.1a1.9,1.9,0,0,1,.9-1.3.7.7,0,0,1,0-.8c.1-.3.4.1.7-.1s.2-.5.4-.6h.7c.1-.1.1-.5.3-.6s.6.1.7,0,.2-.5.4-.6.5.1.7,0,.1-.5.3-.6.5.1.7,0,.2-.5.4-.6.5.1.7,0,.9-1,1.5-1.4a14.2,14.2,0,0,1,1.8-.8c.6-.5.9-1.1,1.4-1.5s1.3-.6,1.8-1.1.7-1.1,1.2-1.6a16.3,16.3,0,0,1,1.7-1.1c.5-.5.7-1.3,1.1-1.7a17.7,17.7,0,0,1,1.7-1.2c.5-.5.7-1.2,1.2-1.7s1.2-.6,1.7-1,.9-1,1.5-1.4a8.7,8.7,0,0,1,1.9-.5,9.5,9.5,0,0,1,1.7-1c.6-.1,1.3.1,2,0s1.2-.5,1.9-.6a18,18,0,0,1,1.9.5,14.1,14.1,0,0,1,2,.1c.6.1,1,.7,1.6,1a9.8,9.8,0,0,1,1.8.8c.1.1.2.2.2.3a6.7,6.7,0,0,1,.9,1.4c.4.5,1,.8,1.3,1.4a11.8,11.8,0,0,1,.4,2,10.9,10.9,0,0,1,1,2.5V87a15.2,15.2,0,0,1-.3,2.1A12.2,12.2,0,0,1,125.3,91.8Z"/><polyline class="cls-8" points="115.7 97.2 115.7 97.2 115.7 97.2"/><path class="cls-7" d="M114.2,102.3l.7.3c.2.3.1.7.3.9l.7.2h.2c.2.1.2.6.5.7h1.1c0,.1.1.1.1.2h1.3c.2,0,.6.4.9.3s.4-.5.7-.6h.2c0-.1,0-.1.1-.1h.5l.3-.2h.3a.1.1,0,0,0,.1-.1h.6a.1.1,0,0,1,.1-.1h0c.1-.1.1-.2.2-.4v-.2a.5.5,0,0,1,.2-.4c0-.2.1-.3.1-.4a11.8,11.8,0,0,0,1.3-1.8c.2-.6.1-1.4.3-2.1a16.7,16.7,0,0,1,.8-2c.1-.7-.2-1.4-.1-2.1s.4-1.4.4-2.1a16,16,0,0,0-.5-2.1,7.4,7.4,0,0,0,0-2.1.4.4,0,0,0-.1-.3"/><path class="cls-3" d="M80.3,97.6c-1.9,2.2-2.2,4-3.1,6.4s-1.3,3.4.3,4.6a2.1,2.1,0,0,0,2.1.4,5,5,0,0,0,2.2-1.8c.3-.3,3-.1,4.8-2.2a7.2,7.2,0,0,0,1.1-6.5C87.1,96.5,84,93.4,80.3,97.6Z"/><path class="cls-9" d="M77,105.9c0-.1-.2,0-.2.1s.4.9.6,1a1.8,1.8,0,0,0,.7,1.8c.1.1.2,0,.1-.1a3.7,3.7,0,0,1-.5-1.6,1.6,1.6,0,0,0,1.1-.4c.2-.1.3-.3-.2-.2S77.5,106.7,77,105.9Z"/><path class="cls-6" d="M84.1,102.1s-.3,1-.8,1-.6-.3-1-.1.1-.3.2-.5.3-.7.7-.8A.6.6,0,0,1,84.1,102.1Z"/><path class="cls-9" d="M84.1,102a1.1,1.1,0,0,1-.9.9.8.8,0,0,1-.7-.4c.2-.3.3-.7.7-.8A.7.7,0,0,1,84.1,102Z"/><circle class="cls-10" cx="83.6" cy="102.1" r="0.2"/><path class="cls-7" d="M85.6,94.8c-.2-.1-.4-.5-.7-.6s-.6.4-.9.4-.5-.4-.8-.4-.5.5-.8.5-.6-.3-.8-.2-.5.5-.7.6-.7-.2-.9-.1-.3.6-.5.7-.8.1-.9.3.1.6,0,.9-.4.6-.2.8.6.4.7.6.1.8.3.9.7.1,1,.2.4.6.7.7.6-.3.9-.3.6.5.9.5.6-.4.9-.3.6.4.9.4.6-.4.9-.3.4.5.7.7.7.1.8.4-.3.5-.3.7.3.5.2.7-.5.2-.7.3,0,.6-.1.8h-.8c-.2.1-.1.6-.2.7s-.7,0-.8.2-.1.6-.2.7-.6.1-.7.3.2.5.1.8-.4.4-.3.6.5.3.8.5.4.5.7.5.5-.4.8-.4.6.2.9.2.4-.6.7-.7.7.2.9.1.4-.6.6-.7.7.1,1-.1.3-.6.5-.7.7,0,.9-.2.2-.7.4-.8.8-.5,1-.9.1-1,.2-1.4.6-.8.6-1.2-.5-.9-.7-1.3.1-1-.2-1.3-.8-.5-1.1-.8-.4-.9-.7-1.2-1-.2-1.4-.4-.6-.9-1-1-.9,0-1.3-.2Z"/><path class="cls-7" d="M107,104.4c1.1-.3,1.7-.2,1.8,0a2.6,2.6,0,0,1,0,1.8c-.1.5-.7.9-1,1.5s-.1.4-.1.6a.3.3,0,0,1-.1.2,1.9,1.9,0,0,1-.3,1c-.2.5-.9.8-1.2,1.3s-.4,1.2-.8,1.6-1.1.7-1.5,1.1-.8,1-1.3,1.3-.1.1-.2.1h-.9a.1.1,0,0,1-.1.1h-1c-.3.2-.5.4-.8.4a5,5,0,0,1-1.3-.4h-.1a6.8,6.8,0,0,1-1.4-.2c-.4-.2-.5-.8-.9-1.1l-.3-.2c-.3-.2-.7-.3-.9-.6s-.1-.3-.2-.5h0"/><path class="cls-11" d="M95.2,108.7h-.1"/><path class="cls-12" d="M93,110.7l.2.4a1.2,1.2,0,0,0,.5.5"/><path class="cls-13" d="M94.5,113c-.6-.1-1-.4-1.5-.5a8.2,8.2,0,0,1-2.2-.2,14,14,0,0,1-1.8-1.2,6.6,6.6,0,0,1-1.5-.5l-.3-.4h-.6a4.2,4.2,0,0,1-2.9-1.7l2.3-.4c1-.3,1.9-1.1,2.8-.9s1.5,1.2,2.3,1.9,1-.1,1.3.2,0,1,.2,1.3,1,.1,1.2.4-.3.9-.2,1.2S94.4,112.7,94.5,113Z"/><path class="cls-6" d="M90.7,107.7c-.7.5-6.3-.7-5.9-6,0-.2.1-.3.1-.5a1.3,1.3,0,0,1,1.1-.8c4.2-.7,5.1,4.5,4.9,6.5A1.3,1.3,0,0,1,90.7,107.7Z"/><path class="cls-3" d="M90.9,106.9a8.3,8.3,0,0,0-1.9-4.5c-1-1.2-3.3-1.2-4.1-1.2a1.3,1.3,0,0,1,1.1-.8C90.2,99.7,91.1,104.9,90.9,106.9Z"/><path class="cls-13" d="M125.9,95.7a16.7,16.7,0,0,0-.8,2c-.2.7-.1,1.5-.3,2.1a11.8,11.8,0,0,1-1.3,1.8,8.4,8.4,0,0,1-.9,1.9,3.7,3.7,0,0,1-1.9.9c-.3.1-.5.5-.7.6s-.7-.3-.9-.3-.6.4-.9.4-.5-.5-.7-.6h-.9c-.3-.1-.3-.6-.5-.7h-.2l-.4.4c-.7.5-1.7.6-2.4,1.1s-1.4,1.2-2.2,1.6a15.9,15.9,0,0,1-2,.7l-1.3,1a1.9,1.9,0,0,1-.3,1c-.2.5-.9.8-1.2,1.3s-.4,1.2-.8,1.6-1.1.7-1.5,1.1-.8,1-1.3,1.3a10.9,10.9,0,0,1-1.7.5l-.5.3c.1-.3.3-.7.1-.9s-.9-.3-1.1-.6.2-1,.1-1.3l-.3-.3c-.3-.2-.7-.4-.7-.6s.8-.5,1-.7,0-1,.3-1.1,1,.2,1.2.1.2-1,.5-1.3,1.1-.3,1.2-.7-.3-1-.3-1.3.8-.4.8-.6l-.6-.3c-.1-.1-.2-.1-.2-.2s.6-.5.5-.7-.9-.6-1-1,.5-.9.5-1.3-.7-.9-.5-1.3,1-.3,1.1-.5.2-1,.5-1.1.8.5,1.1.6.7-.6,1-.5.3.8.6.9.7-.5,1-.3.5.9.9,1,.9-.6,1.2-.6,1,.5,1.4.3.1-.9.4-1.1.9,0,1.2-.3-.2-.9,0-1.2,1-.3,1.1-.6-.3-1-.1-1.3.9-.2,1.2-.5.6-1.1,1-1.1.4.3.6.6.3.4.5.5,1.2.1,1.6.4.4,1.2.8,1.4.9-.5,1.4-.8,1.1.1,1.5-.4.2-1.6.5-2.3,1.2-1.3,1.3-2.1-.4-1.6-.4-2.3.8-.8.8-1.2-.6-.8-.6-1.2.8-.8.7-1.2-.7-.7-.8-1,.4-.9.4-1.2-1-.6-1.1-.9.3-1.2.1-1.7-1.1-.7-1.2-1.2.4-1,.5-1.4a6.7,6.7,0,0,1,.9,1.4c.4.5,1,.8,1.3,1.4a11.8,11.8,0,0,1,.4,2,10.9,10.9,0,0,1,1,2.5V87a.4.4,0,0,1,.1.3,7.4,7.4,0,0,1,0,2.1,16,16,0,0,1,.5,2.1c0,.7-.4,1.4-.4,2.1S126,95,125.9,95.7Z"/><path class="cls-14" d="M115.5,104.1c-.7.5-1.7.6-2.4,1.1s-1.4,1.2-2.2,1.6a15.9,15.9,0,0,1-2,.7l-1.2.9c-.1.1.2-1.1-.6-1.2a1.1,1.1,0,0,1-.6-1.7c.4-1,.9-2,2.1-1.8s.4.7,1.3.5,1-.8,1.6-1l1.2-.3c.4,0,.7.3,1.1,0s.5-.9.9-1,.3.2.5,0a.7.7,0,0,0,.1-.5c.1-.3.4-.5.6-.1s0,1.1.1,1.6A.9.9,0,0,1,115.5,104.1Z"/><path class="cls-15" d="M125.8,93.6c0-.7.4-1.4.4-2.1a7,7,0,0,0-.3-1.4c-.1-.2-.1-.5-.2-.7s.1-1,.1-1.4a1.5,1.5,0,0,0-.1-.7h0c0-.1-.1-.1-.1-.2v-.5a10.9,10.9,0,0,0-1-2.5,11.8,11.8,0,0,0-.4-2c-.3-.6-.9-.9-1.3-1.4a6.7,6.7,0,0,0-.9-1.4c0-.1-.1-.2-.2-.3a9.8,9.8,0,0,0-1.8-.8c-.6-.3-1-.9-1.6-1a14.1,14.1,0,0,0-2-.1,18,18,0,0,0-1.9-.5c-.7.1-1.3.5-1.9.6s-1.4-.1-2,0a9.5,9.5,0,0,0-1.7,1,8.7,8.7,0,0,0-1.9.5c-.6.4-1,1-1.5,1.4s-1.3.6-1.7,1-.7,1.2-1.2,1.7a17.7,17.7,0,0,0-1.7,1.2c-.4.4-.6,1.2-1.1,1.7a16.3,16.3,0,0,0-1.7,1.1c-.5.5-.7,1.2-1.2,1.6s-1.3.6-1.8,1.1-.8,1-1.4,1.5a14.2,14.2,0,0,0-1.8.8c-.6.4-1,1-1.5,1.4s-.6-.1-.7,0-.2.5-.4.6-.5-.1-.7,0-.2.5-.3.6-.6-.1-.7,0-.2.5-.4.6-.5-.1-.7,0h0l-.9-.2c-.2-.1-.4-.5-.7-.6s-.6.4-.9.4-.5-.4-.8-.4-.5.5-.8.5-.6-.3-.8-.2-.5.5-.7.6-.7-.2-.9-.1-.3.6-.5.7-.8.1-.9.3h-.1l-1.6.2a6,6,0,0,0-2.4,1.3c-.5.4-.7.7-.7.9s1.7,2,4.6,2.2c-.4,1-.7,2.1-1.2,3.3s-1.3,3.4.3,4.6a2.1,2.1,0,0,0,2.1.4,5,5,0,0,0,2.2-1.8l.9-.2h0l.3.5.2.3.5.7a4.2,4.2,0,0,0,2.9,1.7h.6l.3.4a6.6,6.6,0,0,0,1.5.5l.5.3,1.3.9h1.8c0,1-.3,1.3.4,2.2s0,3.8,0,3.8a4.7,4.7,0,0,1-1,1.6h.1a.7.7,0,0,0,.6-.1H93l.2-.2-.5.9c.7,0,2.9.2,2.7-1.6,0-.1,0-.2-.1-.2h0c-.1-.7.4-1,.4-1.6s-.7-.4-.5-2.5c.1-.3.1-.5.2-.8h.1l.3.2c.4.3.5.9.9,1.1a6.8,6.8,0,0,0,1.4.2h.3c0,.9-.2,1.2.4,2s0,3.7,0,3.7h0a4.3,4.3,0,0,1-.9,1.6h.9l.3-.2-.6.8c.8.1,2.9.3,2.7-1.5v-.2h-.1c-.1-.6.4-.9.4-1.4s-.7-.5-.5-2.5.6-1.8.1-2.5h.1l.8-.2h.3c.1,0,.2,0,.2-.1a2.3,2.3,0,0,0,.7-.7c.2-.2.4-.5.6-.6s1.1-.6,1.5-1.1a4.3,4.3,0,0,0,.4-.7,3.6,3.6,0,0,1,.4-.9c.3-.5,1-.8,1.2-1.3a1.6,1.6,0,0,0,.3-.9h0l.9-.7h0l.4-.2a15.9,15.9,0,0,0,2-.7c.8-.4,1.4-1.1,2.2-1.6l.7-.4a16.4,16.4,0,0,1-.2,3.2,10.6,10.6,0,0,1-1,1.7h1.2l-.5.9c.7,0,2.9.3,2.6-1.8v-.2h0c-.1-.7.3-1,.3-1.6s-.6-.6-.4-2.7c0-.1.1-.1.1-.2h.3l.2.4h0a.2.2,0,0,0,.2.2h1.1c0,.1.1.1.1.2H119a2,2,0,0,0,.4,1.9c.6.9,0,4.1,0,4.1h0a6.2,6.2,0,0,1-1,1.7h.7l.2-.2h.1l.2-.2-.5.9c.7.1,2.9.3,2.7-1.7V111h0c-.1-.7.3-1,.3-1.6s-.6-.5-.4-2.7.5-1.9.1-2.6h1.1a.1.1,0,0,1,.1-.1h0c.1-.1.1-.2.2-.4s.1-.2.1-.3v-.2l.2-.5h0a11.8,11.8,0,0,0,1.3-1.8h0a2.8,2.8,0,0,0,.1-.9c.1-.4.1-.7.2-1.1a.8.8,0,0,1,.2-.5,7.8,7.8,0,0,0,.5-1.4h.1C126,95,125.7,94.3,125.8,93.6Z"/></g></g></svg>