<svg xmlns="http://www.w3.org/2000/svg" xmlns:xlink="http://www.w3.org/1999/xlink" viewBox="0 0 200 200"><defs><style>.cls-1{mask:url(#mask);filter:url(#luminosity-noclip-6);}.cls-10,.cls-2,.cls-4,.cls-6,.cls-8{mix-blend-mode:multiply;}.cls-2{fill:url(#linear-gradient);}.cls-3{mask:url(#mask-2);filter:url(#luminosity-noclip-12);}.cls-4{fill:url(#linear-gradient-2);}.cls-5{mask:url(#mask-3);filter:url(#luminosity-noclip-7);}.cls-6{fill:url(#linear-gradient-3);}.cls-7{mask:url(#mask-4);filter:url(#luminosity-noclip-8);}.cls-8{fill:url(#linear-gradient-4);}.cls-9{mask:url(#mask-5);filter:url(#luminosity-noclip-10);}.cls-10{fill:url(#linear-gradient-5);}.cls-11{isolation:isolate;}.cls-12{fill:#ffe9d0;}.cls-13{fill:#dc8827;}.cls-14{fill:#efa750;}.cls-15{mask:url(#mask-6);}.cls-16{fill:#fff;}.cls-17{mask:url(#mask-7);}.cls-18{mask:url(#mask-8);}.cls-19{fill:#e5c9b3;}.cls-20{mask:url(#mask-9);}.cls-21{fill:#f7c6ba;}.cls-22{mask:url(#mask-10);}.cls-23{fill:#b3b3b3;mix-blend-mode:screen;opacity:0.5;}.cls-24{mask:url(#mask-11);}.cls-25{mask:url(#mask-12);}.cls-26{fill:#4c2e19;}.cls-27{fill:#cf7826;}.cls-28{filter:url(#luminosity-noclip-11);}.cls-29{filter:url(#luminosity-noclip-9);}.cls-30{filter:url(#luminosity-noclip-5);}.cls-31{filter:url(#luminosity-noclip-4);}.cls-32{filter:url(#luminosity-noclip-3);}.cls-33{filter:url(#luminosity-noclip-2);}.cls-34{filter:url(#luminosity-noclip);}</style><filter id="luminosity-noclip" x="92.72" y="-7542" width="4.81" height="32766" filterUnits="userSpaceOnUse" color-interpolation-filters="sRGB"><feFlood flood-color="#fff" result="bg"/><feBlend in="SourceGraphic" in2="bg"/></filter><mask id="mask" x="92.72" y="-7542" width="4.81" height="32766" maskUnits="userSpaceOnUse"><g class="cls-34"/></mask><linearGradient id="linear-gradient" x1="251.63" y1="116.03" x2="250.48" y2="102.72" gradientTransform="matrix(-1, 0, 0, 1, 346.04, 0)" gradientUnits="userSpaceOnUse"><stop offset="0" stop-color="#fff"/><stop offset="1"/></linearGradient><filter id="luminosity-noclip-2" x="101.65" y="-7542" width="8.71" height="32766" filterUnits="userSpaceOnUse" color-interpolation-filters="sRGB"><feFlood flood-color="#fff" result="bg"/><feBlend in="SourceGraphic" in2="bg"/></filter><mask id="mask-2" x="101.65" y="-7542" width="8.71" height="32766" maskUnits="userSpaceOnUse"><g class="cls-33"/></mask><linearGradient id="linear-gradient-2" x1="239.23" y1="111.17" x2="240.4" y2="118.3" xlink:href="#linear-gradient"/><filter id="luminosity-noclip-3" x="114.41" y="-7542" width="9.4" height="32766" filterUnits="userSpaceOnUse" color-interpolation-filters="sRGB"><feFlood flood-color="#fff" result="bg"/><feBlend in="SourceGraphic" in2="bg"/></filter><mask id="mask-3" x="114.41" y="-7542" width="9.4" height="32766" maskUnits="userSpaceOnUse"><g class="cls-32"/></mask><linearGradient id="linear-gradient-3" x1="224.78" y1="120.44" x2="228.04" y2="105.28" xlink:href="#linear-gradient"/><filter id="luminosity-noclip-4" x="76.62" y="-7542" width="12.25" height="32766" filterUnits="userSpaceOnUse" color-interpolation-filters="sRGB"><feFlood flood-color="#fff" result="bg"/><feBlend in="SourceGraphic" in2="bg"/></filter><mask id="mask-4" x="76.62" y="-7542" width="12.25" height="32766" maskUnits="userSpaceOnUse"><g class="cls-31"/></mask><linearGradient id="linear-gradient-4" x1="257.17" y1="75.54" x2="269.42" y2="75.54" xlink:href="#linear-gradient"/><filter id="luminosity-noclip-5" x="74.2" y="-7542" width="4.71" height="32766" filterUnits="userSpaceOnUse" color-interpolation-filters="sRGB"><feFlood flood-color="#fff" result="bg"/><feBlend in="SourceGraphic" in2="bg"/></filter><mask id="mask-5" x="74.2" y="-7542" width="4.71" height="32766" maskUnits="userSpaceOnUse"><g class="cls-30"/></mask><linearGradient id="linear-gradient-5" x1="269.38" y1="75.53" x2="269.62" y2="77.02" xlink:href="#linear-gradient"/><filter id="luminosity-noclip-6" x="92.72" y="103.76" width="4.81" height="10.01" filterUnits="userSpaceOnUse" color-interpolation-filters="sRGB"><feFlood flood-color="#fff" result="bg"/><feBlend in="SourceGraphic" in2="bg"/></filter><mask id="mask-6" x="92.72" y="103.76" width="4.81" height="10.01" maskUnits="userSpaceOnUse"><g class="cls-1"><path class="cls-2" d="M92.7,113.7c2.6-1,.6-9.9.6-9.9l4.2,1c-.3,2.2-.8,5.2-1.2,6.9s-2.1,2.2-3.5,2Z"/></g></mask><filter id="luminosity-noclip-7" x="114.41" y="99.22" width="9.4" height="21.21" filterUnits="userSpaceOnUse" color-interpolation-filters="sRGB"><feFlood flood-color="#fff" result="bg"/><feBlend in="SourceGraphic" in2="bg"/></filter><mask id="mask-7" x="114.41" y="99.22" width="9.4" height="21.21" maskUnits="userSpaceOnUse"><g class="cls-5"><path class="cls-6" d="M119.1,111.9a6.1,6.1,0,0,1-4.7-4.4s2.4-7.4,5.3-8.2h.3a1.2,1.2,0,0,1,.5.7c.9,2.4.5,8.4,1.9,10.1s1.9,3.5,1,6.6-2.6,3.8-4.3,3.8C122.2,119.2,123.1,112.9,119.1,111.9Z"/></g></mask><filter id="luminosity-noclip-8" x="76.62" y="72.26" width="12.25" height="6.56" filterUnits="userSpaceOnUse" color-interpolation-filters="sRGB"><feFlood flood-color="#fff" result="bg"/><feBlend in="SourceGraphic" in2="bg"/></filter><mask id="mask-8" x="76.62" y="72.26" width="12.25" height="6.56" maskUnits="userSpaceOnUse"><g class="cls-7"><path class="cls-8" d="M84,74l.8.4a6.4,6.4,0,0,1,3.5-2.1l.3.4c.6,1.3,0,3.5-.4,4.7a6.1,6.1,0,0,1,.7,1.4c-3.1-4.3-10.8-1.6-10.8-1.6s-.7.2-1.5-1.3A10.3,10.3,0,0,1,84,74Z"/></g></mask><filter id="luminosity-noclip-9" x="73.84" y="-7542" width="3.29" height="32766" filterUnits="userSpaceOnUse" color-interpolation-filters="sRGB"><feFlood flood-color="#fff" result="bg"/><feBlend in="SourceGraphic" in2="bg"/></filter><mask id="mask-9" x="73.84" y="-7542" width="3.29" height="32766" maskUnits="userSpaceOnUse"><g class="cls-29"/></mask><filter id="luminosity-noclip-10" x="74.2" y="74.06" width="4.71" height="4.21" filterUnits="userSpaceOnUse" color-interpolation-filters="sRGB"><feFlood flood-color="#fff" result="bg"/><feBlend in="SourceGraphic" in2="bg"/></filter><mask id="mask-10" x="74.2" y="74.06" width="4.71" height="4.21" maskUnits="userSpaceOnUse"><g class="cls-9"><path class="cls-10" d="M78.9,78.3s-2.2-4.6-4.7-4.2C75.4,74.2,77.3,75.4,78.9,78.3Z"/></g></mask><filter id="luminosity-noclip-11" x="72.86" y="-7542" width="6.19" height="32766" filterUnits="userSpaceOnUse" color-interpolation-filters="sRGB"><feFlood flood-color="#fff" result="bg"/><feBlend in="SourceGraphic" in2="bg"/></filter><mask id="mask-11" x="72.86" y="-7542" width="6.19" height="32766" maskUnits="userSpaceOnUse"><g class="cls-28"/></mask><filter id="luminosity-noclip-12" x="101.65" y="105.05" width="8.71" height="18.01" filterUnits="userSpaceOnUse" color-interpolation-filters="sRGB"><feFlood flood-color="#fff" result="bg"/><feBlend in="SourceGraphic" in2="bg"/></filter><mask id="mask-12" x="101.65" y="105.05" width="8.71" height="18.01" maskUnits="userSpaceOnUse"><g class="cls-3"><path class="cls-4" d="M102.7,105c-.2,1-1.8,9,1.3,12.1s6.7,3.8,6.3,6c-.1-1.2-1.3-2.5-4.7-4.2S101.1,108.2,102.7,105Z"/></g></mask></defs><g class="cls-11"><g id="Cat_03"><path class="cls-12" d="M84.2,74.1a2,2,0,0,1,1.1.3,5.7,5.7,0,0,1,2.9,3c.4-1.2,1-3.4.4-4.7S85.6,72.8,84.2,74.1Z"/><path class="cls-13" d="M90.5,94.6s-.7,1,.3,5.1,1.9,11.1,1,11.6-1.4,1.6-.5,2,4.4,1.3,5-1.6,1.6-9.4,1.6-9.4C96.4,100.4,90.5,94.6,90.5,94.6Z"/><path class="cls-14" d="M91.3,113.3c-.9-.4-.5-1.4.3-1.9s-.4,2,2,2.4A5.6,5.6,0,0,1,91.3,113.3Z"/><g class="cls-15"><path class="cls-13" d="M92.7,113.7c2.6-1,.6-9.9.6-9.9l4.2,1c-.3,2.2-.8,5.2-1.2,6.9s-2.1,2.2-3.5,2Z"/></g><path class="cls-16" d="M71.4,83.2c0,3,2.1,5.3,4.6,5.3s4.6-2.4,4.6-5.4-2.1-5.4-4.6-5.4S71.4,81,71.4,83.2Z"/><path class="cls-16" d="M75.4,85.3a5,5,0,0,1-.8,2.9,5,5,0,0,1-3.2-5,5,5,0,0,1,.3-1.6,2,2,0,0,1,1.1-.3C74.2,81.3,75.4,83.1,75.4,85.3Z"/><path class="cls-13" d="M113.3,99.2s6.3-1.8,7.2.7.5,8.4,1.9,10.1,1.9,3.5,1,6.6-2.6,3.8-4.3,3.8a1.3,1.3,0,0,1-1.6-1.3,1.1,1.1,0,0,1,1.1-1.1h.1c1.2-2.1,1.5-3.7-3.2-6.5S113.3,99.2,113.3,99.2Z"/><g class="cls-17"><path class="cls-13" d="M119.1,111.9a6.1,6.1,0,0,1-4.7-4.4s2.4-7.4,5.3-8.2h.3a1.2,1.2,0,0,1,.5.7c.9,2.4.5,8.4,1.9,10.1s1.9,3.5,1,6.6-2.6,3.8-4.3,3.8C122.2,119.2,123.1,112.9,119.1,111.9Z"/></g><path class="cls-13" d="M118.6,118h.1s-.8,1.5,1.1,2.5h-.7a1.3,1.3,0,0,1-1.6-1.3A1.1,1.1,0,0,1,118.6,118Z"/><path class="cls-14" d="M80.4,100.1h0c.1.1.1.3.2.4a2.5,2.5,0,0,0,.4.9,14.2,14.2,0,0,0,3,3,12.6,12.6,0,0,0,3.9,1.9l.9.3h4.4l.7.2h.4a11.5,11.5,0,0,1,3.2,1.2,17.6,17.6,0,0,1,4.2,2.9,15.4,15.4,0,0,1,1.7,1.9l1.2,1.6a25.8,25.8,0,0,0,8.7.5l1.7-.4a8.7,8.7,0,0,0,5.6-4c1.1-2,1.5-4.8.8-8.7h-.1a1.3,1.3,0,0,0-.1-.6h0a16.2,16.2,0,0,0-.4-1.9c-.2-.3-.3-.7-.6-1.1a4.1,4.1,0,0,0-.5-.9h0l-.2-.2a7.4,7.4,0,0,0-1.6-2c-3.3-3.2-5.9-2.1-12.2-4.7A53.5,53.5,0,0,1,95,85.5a7.2,7.2,0,0,0-4.8-1.9h-1a3.4,3.4,0,0,0-1.2.4A16,16,0,0,0,81,91c-.2.5-.5,1.1-.7,1.7h0a14.2,14.2,0,0,0-.4,2A12.7,12.7,0,0,0,80.4,100.1Z"/><path class="cls-14" d="M74.2,88.1h0a5,5,0,0,0,4.9,2.1v.3a.4.4,0,0,0,.1.3V91c.1.2.2.3.2.5s.1.1.1.2.1.1.1.2l.2.2a.1.1,0,0,0,.1.1l.3.5h.1a4.4,4.4,0,0,0,1.4,1.1h0l.4-.5,8-9.3h0v-.3a22.2,22.2,0,0,0-2-6.2,5.7,5.7,0,0,0-2.9-3,2,2,0,0,0-1.1-.3,8.2,8.2,0,0,0-3.8.1h-.6a12,12,0,0,0-2.3,1.1,13.3,13.3,0,0,0-3.7,3.1h0c0,.1-.1.1-.1.2h-.1a15,15,0,0,1-1.4,2C70.3,82.7,72.2,86.2,74.2,88.1Z"/><path class="cls-13" d="M79.1,90.2H79c1.9-.3,2.1,1,2.1,1L80.6,93A6.5,6.5,0,0,1,79.1,90.2Z"/><g class="cls-18"><path class="cls-14" d="M84,74l.8.4a6.4,6.4,0,0,1,3.5-2.1l.3.4c.6,1.3,0,3.5-.4,4.7a6.1,6.1,0,0,1,.7,1.4c-3.1-4.3-10.8-1.6-10.8-1.6s-.7.2-1.5-1.3A10.3,10.3,0,0,1,84,74Z"/></g><path class="cls-14" d="M82.1,96.3s-2.7,2.5-1.3,7.8,1.9,11.4,1,11.9-1.4,1.6-.5,2.1,4.4,1.2,5-1.7S88.4,103,88.4,103C86.9,101,82.1,96.3,82.1,96.3Z"/><path class="cls-13" d="M81.6,116.1c-.3.6-.4,1.7,1.5,2.4a5.3,5.3,0,0,1-1.8-.4C80.4,117.6,80.8,116.7,81.6,116.1Z"/><path class="cls-14" d="M84.1,107.1c-.7-4.6,1.7-7.8,4-6.4S90,104.3,90,106c4.7,0,6.5,1.4,9.3.5a18.6,18.6,0,0,1,5.9-.7s.2,5-1.8,6.3a18.6,18.6,0,0,0-13.3-5.2h-.8l-1.4-.2c-.5,3.3-1.2,8-1.6,9.8s-1.9,2.2-3.3,2.1C84.6,117.3,84.9,111.5,84.1,107.1Z"/><path class="cls-14" d="M79.7,78.8s-2.5-4.2-4.7-4.7-.1,5.8-.1,6C76.5,80.2,79.7,78.8,79.7,78.8Z"/><path class="cls-19" d="M75,78.6s-1.5-2.5-1.1-3.8,3.5,2.5,3.2,4.9a2.9,2.9,0,0,1-.5-1,1.3,1.3,0,0,0-.1.5,3.7,3.7,0,0,1-.2-1.3,2.7,2.7,0,0,0-.2.9,1.5,1.5,0,0,1-.2-.6,1.3,1.3,0,0,0-.1.5,16.4,16.4,0,0,1-.7-2.1,4.6,4.6,0,0,0,.4,1.9,1.8,1.8,0,0,1-.5-.6A1.4,1.4,0,0,1,75,78.6Z"/><g class="cls-20"><path class="cls-21" d="M75,78.6s-1.5-2.5-1.1-3.8,3.5,2.5,3.2,4.9a2.9,2.9,0,0,1-.5-1,1.3,1.3,0,0,0-.1.5,3.7,3.7,0,0,1-.2-1.3,2.7,2.7,0,0,0-.2.9,1.5,1.5,0,0,1-.2-.6,1.3,1.3,0,0,0-.1.5,16.4,16.4,0,0,1-.7-2.1,4.6,4.6,0,0,0,.4,1.9,1.8,1.8,0,0,1-.5-.6A1.4,1.4,0,0,1,75,78.6Z"/></g><g class="cls-22"><path class="cls-23" d="M78.9,78.3s-2.2-4.6-4.7-4.2C75.4,74.2,77.3,75.4,78.9,78.3Z"/></g><path class="cls-19" d="M72.9,81.5c.1-1.3,1.6-3.6,5.1,1.7l-.3-.2a6.6,6.6,0,0,1,1.4,3.2,1.7,1.7,0,0,1-.3-.7,11.4,11.4,0,0,1,0,3.5,3.1,3.1,0,0,0-.2-.7,2.4,2.4,0,0,1-1.8,1.6C76.2,89.8,72.5,87.3,72.9,81.5Z"/><g class="cls-24"><path class="cls-13" d="M72.9,81.5c.1-1.3,1.6-3.6,5.1,1.7l-.3-.2a6.6,6.6,0,0,1,1.4,3.2,1.7,1.7,0,0,1-.3-.7,11.4,11.4,0,0,1,0,3.5,3.1,3.1,0,0,0-.2-.7,2.4,2.4,0,0,1-1.8,1.6C76.2,89.8,72.5,87.3,72.9,81.5Z"/></g><path class="cls-13" d="M79.8,74.3c.4,0,8.5-1.3,9.3,9.3,0,.1,0,.1.1.2l1,.3c1.3.3,3.5.7,4.6,2.1s8.5,6.3,18.9,7.8c1.1.5,3.5,1.3,5,3.5h.8a7.4,7.4,0,0,0-1.6-2c-3.3-3.2-5.9-2.1-12.2-4.7A53.5,53.5,0,0,1,95,85.5a7.2,7.2,0,0,0-4.8-1.9,22.2,22.2,0,0,0-2-6.2,5.7,5.7,0,0,0-2.9-3,2,2,0,0,0-1.1-.3,8.2,8.2,0,0,0-3.8.1Z"/><path class="cls-14" d="M103.6,104c2.6-1.5,8.1,4,10.2,6.2,0,0-1.6,5.6.1,7.3a6.2,6.2,0,0,1,1.3,6.7A5.1,5.1,0,0,1,110,128c-1.7.1-2.1-.8-2.1-1.3a1.3,1.3,0,0,1,1.4-1.1h.1c1.5-2.2,1.9-3.7-3.8-6.6S101.3,105.3,103.6,104Z"/><g class="cls-25"><path class="cls-14" d="M102.7,105c-.2,1-1.8,9,1.3,12.1s6.7,3.8,6.3,6c-.1-1.2-1.3-2.5-4.7-4.2S101.1,108.2,102.7,105Z"/></g><path class="cls-14" d="M107.9,126.7a1.2,1.2,0,0,1,1.3-1.1c-.3.5-.5,1.5.8,2.4C108.3,128.1,107.9,127.2,107.9,126.7Z"/><path class="cls-14" d="M119.1,97.8a23.4,23.4,0,0,1,3,9.8c.3,5.4,3.9,11.1,7.4,12.8a1.7,1.7,0,0,1,1,2c-.3,1.5-1.9,1-2.4.7a22.2,22.2,0,0,1-5.6-6.5,23.2,23.2,0,0,1-3-10.6C119.3,103.3,117.3,96.5,119.1,97.8Z"/><path class="cls-26" d="M109.8,128.5c-1.9,0-2.3-1.2-2.3-1.5a.4.4,0,0,1-.1-.3.6.6,0,0,1,.1-.4h0c0-.1.1-.1.1-.2l.2-.3h.1l.3-.3.9-.2a3,3,0,0,0,.7-2v-.3c-.1-.1-.1-.1-.1-.2l-.2-.3v-.2l-.2-.2-.2-.2h-.1l-.4-.3h-.1l-.5-.3h-.1l-.6-.4h-.1l-.7-.4h-.2l-.9-.4-.8-.5h-.1l-.7-.6V118l-.6-.7h-.1l-.4-.7a9.3,9.3,0,0,0-.5-1h0l-.3-.9v-.2a2.9,2.9,0,0,0-.2-.9h0c0-.2-.1-.6-.1-.9h0a1.3,1.3,0,0,1-.1-.6,18.9,18.9,0,0,0-3.8-2.7l-.6,2.8a1.9,1.9,0,0,1-.2.7h-.1l-.3.5h-.1c-.1.2-.3.3-.4.4l-.5.3H93.3l-1.5-.3H91l-.4-.3v-.2a.3.3,0,0,1-.1-.2v-.7h0l.2-.4a2.4,2.4,0,0,1,1-1h0a.8.8,0,0,1,.1-.3c0-.3.1-.6.1-1a6.6,6.6,0,0,0-.1-1.4v-.8H88.3l-1.2,8-.3,1.3a1.4,1.4,0,0,1-.2.7h-.1c-.1.2-.1.3-.2.4a.3.3,0,0,0-.1.2l-.3.3h-.2l-.4.3-.6.2H82.4l-1-.2-.4-.2-.4-.3h-.1c0-.1-.1-.2-.1-.3v-.7h0a.4.4,0,0,0,.1-.3h.1c0-.1.1-.2.1-.3l.3-.3.4-.3h.2c.3-.7.2-2.4,0-4.7,0-.3-.1-.5-.1-.8l-.7-4.2-.2-.8a1.9,1.9,0,0,0-.2-.8,2.9,2.9,0,0,0-.2-.9v-.2c0-.3-.1-.5-.1-.7v-.3a.7.7,0,0,0-.1-.5v-.2a3.1,3.1,0,0,1,.1-1h-.1v-.2a14.9,14.9,0,0,1-.5-5.5,10.6,10.6,0,0,1,.4-1.9h-.1l-.2-.2-.2-.4v-.6h-.1l-.2-.5a5.6,5.6,0,0,1-4.8-2.3h-.3l-.6-.4-1.1-1.2h-.1l-.3-.7a4.1,4.1,0,0,1-.3-.8h0a2.4,2.4,0,0,1-.2-.8h0a4.1,4.1,0,0,1,0-1.8,6.8,6.8,0,0,1,2.5-4.1c0-.1.1-.1.1-.2a6.9,6.9,0,0,1-.4-3.5l1.1-.9h1.1l.8.4c.2.2.5.3.7.6l.3.2h.2l.9-.5.4-.2.7-.2h.3l.6-.2a9.9,9.9,0,0,1,3.8-.2c1-.9,3.3-2.9,4.6-1.6h.1c-.1,0,0,.1.1.2a.3.3,0,0,1,.1.2c.7,1.4.2,3.6-.3,4.9a22.4,22.4,0,0,1,1.9,5.8A8.7,8.7,0,0,1,95.3,85c3,2.3,6.5,3.8,10.5,5.4a29.2,29.2,0,0,0,6.2,1.9c2.4.6,4.2,1,6.2,2.9a8.7,8.7,0,0,1,1.7,2.1l.2.3.6.9.5,1.1c.2.8.4,1.4.5,2a1.3,1.3,0,0,1,.1.6,11.3,11.3,0,0,1,.3,1.8,14.9,14.9,0,0,1,.5,3.6c.1.7.2,1.5.4,2.4a6.9,6.9,0,0,1,1.3,3.7c1.4,2.9,3.4,5.3,5.4,6.3a2.2,2.2,0,0,1,1.3,2.5,1.3,1.3,0,0,1-.9,1.2,2.6,2.6,0,0,1-2.3-.2,21,21,0,0,1-4.6-5,5,5,0,0,1-3.3,2.4h-.7a2,2,0,0,1-1.7-.5,1.8,1.8,0,0,1-.5-1.3,1.6,1.6,0,0,1,1.3-1.6c.8-1.3,1-2.2,0-3.4a10.9,10.9,0,0,1-3.1,1.4l-1.5.3a2.6,2.6,0,0,0,.6,1.4,6.6,6.6,0,0,1,1.4,7.1,5.8,5.8,0,0,1-5.7,4.2Zm-1.3-2h-.1c.1.5.7.8,1.6.7a4.6,4.6,0,0,0,4.7-3.5,5.3,5.3,0,0,0-1.2-6.1,3.9,3.9,0,0,1-.9-2.5v-.5h.6l1.7-.4a10.4,10.4,0,0,0,3.2-1.4l.3-.3.3.3c1.9,2,1.3,3.6.4,5.1v.2h-.4a.5.5,0,0,0-.6.6.8.8,0,0,0,.2.6c.2.2.5.2.9.2h.6a3.8,3.8,0,0,0,2.9-2.6l.4-.9.5.8a21.3,21.3,0,0,0,4.8,5.4,1.7,1.7,0,0,0,1.4.2c.1,0,.3-.1.4-.5a1.2,1.2,0,0,0-.8-1.4,15.4,15.4,0,0,1-6-6.9v-.2a6.6,6.6,0,0,0-1.2-3.3v-.2a25.1,25.1,0,0,1-.4-2.7,14,14,0,0,0-.5-3.4c-.1-.7-.1-1.3-.2-1.8a1.1,1.1,0,0,1-.1-.5c-.2-.7-.3-1.3-.5-1.9a9.3,9.3,0,0,0-.5-1l-.5-.9-.2-.3a13.5,13.5,0,0,0-1.6-1.9c-1.8-1.7-3.3-2.1-5.7-2.6a37.3,37.3,0,0,1-6.3-1.9c-4.2-1.8-7.7-3.2-10.8-5.5a7,7,0,0,0-4.5-1.8h-.4v-.5a21.7,21.7,0,0,0-1.9-6.1v-.4a7.1,7.1,0,0,0,.5-4.3v-.2a.1.1,0,0,1-.1-.1c-.2-.2-1-.4-3.4,1.8l-.2.2h-.3a7.4,7.4,0,0,0-3.6.1h-.8l-.5.2-.5.2-.8.4h-.3l-.5.3-.3-.3-.5-.5a3.4,3.4,0,0,0-1.4-.8h-.5c-.1,0-.2,0-.2.1s-.3,1,.5,3.3v.2l-.4.4h-.3A6.3,6.3,0,0,0,72,82.5a2,2,0,0,0-.1.7,1.7,1.7,0,0,0,.1.7h0c0,.3.1.5.1.7h0l.3.6a1.6,1.6,0,0,0,.3.6,5.3,5.3,0,0,0,.9,1.1l.5.4c.2.1.3.1.3.2h.2A4.5,4.5,0,0,0,79,89.7h.5l.3,1.1h0l.3.5c0,.1,0,.2.1.2h0l.2.2v.2l.4.5v.3a10.6,10.6,0,0,0-.4,1.9,10.8,10.8,0,0,0,.5,5h0v.5a3.4,3.4,0,0,0-.1,1v.2c0,.2.1.4.1.6v.2a1.3,1.3,0,0,0,.1.6v.2c.1.3.1.5.2.8s.1.6.2.8l.8,4.3v.8c0,.3.1.6.1.8a20.9,20.9,0,0,1,0,5h0v.2h0a.8.8,0,0,1-.5.5h-.4c0,.1-.1.1-.1.2v.2h-.1v.2h.4l.9.2h2.2l.3-.3h.1c.1-.1.1-.2.2-.2h.1c0-.1.1-.2.1-.3h.1c0-.2.1-.3.1-.5l.2-.8h0V115c.4-2.3.9-5.9,1.3-8.5V106H88l1.3.2h3.2V108h0a7.6,7.6,0,0,1,.1,1.5c0,.4-.1.8-.1,1.2a1.5,1.5,0,0,1-.4.8H92a1.3,1.3,0,0,0-.6.7h-.1v.2h.7l1.2.2h1.4l.4-.3.3-.2h0l.2-.3h.1c0-.2.1-.3.1-.5l.8-4.1.6.3.5.2a20.8,20.8,0,0,1,4.3,3l.2.2v1h.1a2.8,2.8,0,0,0,.1.9h0c.1.2.1.5.2.8h0l.3.8h.1l.3.8a5.6,5.6,0,0,0,.5.8l.5.7h.1l.6.5h.1l.7.5.9.5h.2l.7.5h.2l.6.4h.1l.5.4h.1l.4.3.2.2.2.2.3.3c0,.1.1.1.1.2l.3.4c0,.2.1.2.1.3a1.3,1.3,0,0,1,.1.6,3.9,3.9,0,0,1-1,2.8v.2h-1.2Zm-26-10.9Z"/><path class="cls-27" d="M117.7,96.3s-9.8-.8-10.5,11.1c0,0,2.1-10,11.5-9.9"/><path class="cls-27" d="M108.9,93a7.4,7.4,0,0,0-4.5,7.1s2.7-6.1,6.9-6.5"/><path class="cls-27" d="M99.3,89a9.6,9.6,0,0,0-4.2,11.4s1.7-10.5,5.7-10.6"/><path class="cls-27" d="M92.2,84.6s-6.1,3.5-3.8,11.9c0,0,1.5-10,5.2-11.3Z"/><path class="cls-27" d="M121.3,102.3s-3.7,5.5-8.3,5.1c0,0,7.1.1,8.6-3.7"/><path class="cls-26" d="M96.7,108.7a15.3,15.3,0,0,0-4.7-1.2v-1a15.7,15.7,0,0,1,5.1,1.3Z"/></g></g></svg>