<svg xmlns="http://www.w3.org/2000/svg" viewBox="0 0 200 200"><defs><style>.cls-1{fill:#ffa726;}.cls-2{fill:#ff8f00;}.cls-3{fill:#fff8e1;}.cls-4{fill:#f57f17;}.cls-5{fill:#ffd9b0;}.cls-6{fill:#ffefd7;}.cls-7{fill:#fccfa2;}.cls-8{fill:#f57c00;}.cls-9{fill:#88bbbf;}.cls-10{fill:#424242;}.cls-11{fill:#fff;}.cls-12{fill:#5b3114;}</style></defs><g id="Duck_01"><path class="cls-1" d="M112.5,129.7c0,.4-.2,1-.3,1.8s-.1.9-.2,1.4-.1,1.2-.1,1.9v2c.1,1.6-1.2,1.8-1.9,3.4s-1.8,5.4-2.3,7.1a.9.9,0,0,1-1.3.4l-.3-.2a.4.4,0,0,0-.1-.3l-.6-.5h-.3l-.6-.4-1.4-.5h-2.5v-.6a8.1,8.1,0,0,0-.3-1.1l-.3-.5c-.1-.1-.2-.3-.4-.4l-.2-.3-.2-.2-1.2-.6h-.2c-.1-.1-.2-.1-.2-.3a.7.7,0,0,1,.1-.9l.2-.2a33.4,33.4,0,0,1,6.5-2.6c4.3-1,4.2-1.2,4.4-1.7s.3-3.5.3-6.3-.1-3.6-.2-4.8a10.1,10.1,0,0,0-.1-1.5h2.8a8,8,0,0,1,.3,1.5A18.6,18.6,0,0,1,112.5,129.7Z"/><path class="cls-2" d="M100.7,144.3l-.2.9a3.8,3.8,0,0,0-2.8-3.5c-.1,0-.2-.2-.2-.3s.9.2,1.2.1,7.5-3.8,8.4-3.3S100.7,144.3,100.7,144.3Z"/><path class="cls-2" d="M106.4,147.7a6.5,6.5,0,0,0-5.2-2.2l.7-.3s6.2-6.8,7-6.6-1.8,6.7-2.5,8.5A1.1,1.1,0,0,0,106.4,147.7Z"/><path class="cls-3" d="M99.9,146.6s.4-3.4,1.7-2.2S100.7,145.2,99.9,146.6Z"/><path class="cls-3" d="M106.1,149.7s-.6-3.4,1-2.6S106.5,148.1,106.1,149.7Z"/><path class="cls-3" d="M96.4,142.7s.8-3.3,2-1.9S97.3,141.4,96.4,142.7Z"/><path class="cls-1" d="M111,133.7s1.8,2.7,2.3,1.7-2-3.2-2-3.2Z"/><path class="cls-2" d="M112.5,129.7c0,.4-.2,1-.3,1.8l-.8-.3a8.2,8.2,0,0,1-2.4-1.5c0-1.9-.1-3.6-.2-4.8a7.6,7.6,0,0,1,3-.1A18.6,18.6,0,0,1,112.5,129.7Z"/><path class="cls-2" d="M96.7,127.9c.1,1.7-1.2,1.8-1.8,3.4a66.2,66.2,0,0,0-2.4,7.1.8.8,0,0,1-1.3.5,5.9,5.9,0,0,0-5.2-2.2h-.5l-.2-.3a3.8,3.8,0,0,0-2.7-3.5l-.3-.3a.8.8,0,0,1,.3-1.1,28,28,0,0,1,6.5-2.6c4.3-1.1,4.2-1.3,4.5-1.8s0-12.5,0-12.5l2.7-.2s1.2,4.7,1,6.4A29.1,29.1,0,0,0,96.7,127.9Z"/><path class="cls-4" d="M85.5,135.4l-.2,1a3.8,3.8,0,0,0-2.7-3.5.3.3,0,0,1-.3-.3c.2-.2.9.2,1.2,0s7.5-3.8,8.4-3.3S85.5,135.4,85.5,135.4Z"/><path class="cls-4" d="M91.2,138.9a5.9,5.9,0,0,0-5.2-2.2l.8-.4s6.1-6.8,6.9-6.5-1.8,6.6-2.5,8.5A1.1,1.1,0,0,0,91.2,138.9Z"/><path class="cls-3" d="M84.7,137.7s.4-3.4,1.7-2.2S85.5,136.3,84.7,137.7Z"/><path class="cls-3" d="M90.9,140.8s-.6-3.4,1.1-2.6S91.3,139.2,90.9,140.8Z"/><path class="cls-3" d="M81.2,133.9s.8-3.3,2-2S82.1,132.6,81.2,133.9Z"/><path class="cls-2" d="M95.8,124.8s1.8,2.8,2.3,1.8-2-3.2-2-3.2Z"/><path class="cls-5" d="M116.4,98.8a55.3,55.3,0,0,0,17.3-1.9c1.8-.6,2.5,1,1.2,2.7s-5.2,4-10.4,5.3S116.4,98.8,116.4,98.8Z"/><path class="cls-5" d="M134.3,99s1.6.1,1.6,1.2-5.4,4.4-11.1,6.2S134.3,99,134.3,99Z"/><path class="cls-5" d="M134.4,101.2s.9,1.5-.1,2.5-7.1,6.7-7.1,6.7l-1-7.6Z"/><path class="cls-6" d="M127.8,110.1c-3.1,10.3-13.7,17.9-17.1,18.2s-15.3-4-23-9.7c-3.2-2.4-5.5-5.1-6.1-7.8-2.1-10.3,2.5-20.4,3.6-27.7a105.8,105.8,0,0,0,1.6-15c.1-3.7-.5-5.3-1.4-5.8l-.9-1.7-2.3-4.2a8,8,0,0,1,5.2-5.8c3.3-1.3,7.2,0,8.5,2.8a11.5,11.5,0,0,1,.7,5.1c-.2,4.8-2,10.7-2.5,16.2a54,54,0,0,0-.4,6.6C93.5,89.1,95,93.1,97,94.2s6,1,11.8,1.7c8.8,1,19.3,2.6,19.7,6.2A17.9,17.9,0,0,1,127.8,110.1Z"/><path class="cls-7" d="M125.6,101.6c-10.7-2.5-25.5-2.3-27.5,1.3s8.2,14.7,16.5,12.4a34.2,34.2,0,0,0,10.7-5.4c2-1.7.4-2.9.4-2.9,2.1-.6,2.7-2.2,1.3-2.5C128.8,103.6,128.9,102.4,125.6,101.6Z"/><path class="cls-7" d="M86.4,63.9c-.3-.5-.3-1.2-1-1.6l-.9-1.7c0-.2,1.6,1.2,1.7,1.1,3.4,1.7,5.4-1.1,5.8-.6S87.9,66.5,86.4,63.9Z"/><path class="cls-1" d="M82.2,56.4a9.3,9.3,0,0,1-1.4,3.1c-1.7,2.6-5.8,5.1-4.4,6.3s8.8-1.9,10.7-4.5c-2.9-1.9-.2-5.6-2.1-6.5S82.2,56.4,82.2,56.4Z"/><path class="cls-8" d="M81.9,62.5c.3.3,2.1-1.1,1.6-1.8S81.3,61.8,81.9,62.5Z"/><path class="cls-1" d="M88.8,56.3c.6.8,2.5-.2,1.6-1.2S88.2,55.5,88.8,56.3Z"/><path class="cls-9" d="M89,56.2c.4.6,1.9-.2,1.3-1S88.5,55.5,89,56.2Z"/><path class="cls-10" d="M89.3,55.9c.2.4,1,0,.7-.5S89,55.6,89.3,55.9Z"/><path class="cls-11" d="M89.6,55.6a.3.3,0,0,1-.3.3c-.2,0-.4-.1-.4-.3s.2-.3.4-.3A.3.3,0,0,1,89.6,55.6Z"/><path class="cls-7" d="M108.8,95.9c-4.8.5-14.8,3.5-16.3,1.5-4.5-6.3,1.9-26.1,4.1-38.9-.2,4.8-2,10.7-2.5,16.2a54,54,0,0,0-.4,6.6C93.5,89.1,95,93.1,97,94.2S103,95.2,108.8,95.9Z"/><path class="cls-7" d="M127.8,110.1c-3.1,10.3-13.7,17.9-17.1,18.2s-15.3-4-23-9.7c5.6,2.3,17.4,7.5,26.5,4.2S122.9,111.1,127.8,110.1Z"/><path class="cls-12" d="M105.6,150a6.4,6.4,0,0,1-.1-2.2l-.5-.4h-.1v-.2l-.5-.3a3.8,3.8,0,0,0-1.3-.4h-1.7a2.5,2.5,0,0,0-1,.8l-.9-.3a6,6,0,0,1,.5-2l-.2-.5c-.1-.2-.1-.3-.2-.3h0l-.3-.4-.5-.4-.3-.3h-.1l-.4-.2a1.9,1.9,0,0,0-1.1.7l-1-.5c.2-.5.7-2.2,1.6-2.6h.2a29.1,29.1,0,0,1,6.6-2.6c3.8-1,3.9-1.2,4-1.5s.4-1,.2-6v-1.2a51.4,51.4,0,0,1-10-3.4,1.6,1.6,0,0,1,.2,1.6c-.2.3-.4.5-.7.5s-.4,0-.7-.1a1.7,1.7,0,0,0,.1.7,3.1,3.1,0,0,1-1.1,2.4,3.6,3.6,0,0,0-.8,1.2,65.9,65.9,0,0,0-2.4,7.1h0c.2.5-.3.9-.6,1.2a2.4,2.4,0,0,0-1,1.2h-1a6.9,6.9,0,0,1,0-2.1,5.5,5.5,0,0,0-4.3-1.5,1.5,1.5,0,0,0-.9.7l-1-.3a6.3,6.3,0,0,1,.5-1.9,3,3,0,0,0-1.9-2.2,1.7,1.7,0,0,0-1.2.6l-.9-.4c.1-.5.6-2.2,1.5-2.6l.2-.2a29.1,29.1,0,0,1,6.6-2.6c3.8-1,3.9-1.2,4-1.4s.3-.9.3-4.3a46.1,46.1,0,0,1-5.9-3.7c-3.6-2.6-5.8-5.4-6.3-8.1-1.5-7.4.3-14.5,2-20.8.6-2.5,1.3-4.9,1.6-7a123.6,123.6,0,0,0,1.6-15,17,17,0,0,0-.3-3.7v-.2a1.4,1.4,0,0,1-.2-.6h-.1c-2.9,2-8.2,4-9.6,2.7a1.3,1.3,0,0,1-.4-.9c0-1,1-2,2.3-3.3a19.4,19.4,0,0,0,2.4-2.7,13.7,13.7,0,0,0,1.4-2.9v-.2a9,9,0,0,1,5.6-6.1c3.6-1.3,7.7.1,9.1,3.1a12.4,12.4,0,0,1,.7,5.4,61.3,61.3,0,0,1-1.3,8.7c-.4,2.5-.9,5-1.2,7.5s-.4,4.6-.4,6.5c-.1,6.6,1,11.3,3.1,12.5a54.5,54.5,0,0,0,7.6,1.1l4,.5c4.9.6,11,1.4,15.1,2.8a41.2,41.2,0,0,0,9.5-1.8,2,2,0,0,1,2.2.4,2.3,2.3,0,0,1,.2,2.3,1.7,1.7,0,0,1,.5,1.2h0c0,.5-.4,1-1.2,1.7a2.2,2.2,0,0,1-.5,2.1c-1,1.1-4.4,4.2-6.4,6v.2c-2.6,8.6-10.5,15.6-15.3,17.9a9.2,9.2,0,0,1,.1,1.5c-.1.3-.1.6-.2.9a4.4,4.4,0,0,1-.2,1,2.2,2.2,0,0,1-.1.8v.4c1.1,1.2,1.5,2.2,1.2,2.9s-.4.5-.7.5a1.1,1.1,0,0,1-.7-.2v.8a2.4,2.4,0,0,1-1,2.3l-.9,1.3c-.8,2-1.7,5-2.3,7s-.4,1-.7,1.2-.8.7-.9,1.2Zm-.3-3.7h.2a2.7,2.7,0,0,1,.8.7l.3.3v.9l.3-.3.2-.2H107l.2-.3a67.5,67.5,0,0,1,2.4-7.2,5,5,0,0,1,1.1-1.6,2.2,2.2,0,0,0,.7-1.6,6.1,6.1,0,0,1,0-1.9v-1.3l.8.9c.2.3.4.5.5.5s-.3-.8-1.2-1.7v-.4a1.5,1.5,0,0,1,.1-.7,2.2,2.2,0,0,1,.1-.8,2.4,2.4,0,0,1,.2-.9c0-.4.1-.6.1-.9a16,16,0,0,0-.1-1.7v-.4l.4-.2c4.6-1.9,12.5-8.8,15.1-17.4v-.4h.1l6.5-6a1.4,1.4,0,0,0,.1-1.4v-.4l.3-.2c1-.8,1-1.1,1-1.2s.1-.3-.4-.5l-.5-.2.3-.5c.4-.7.4-1.3.2-1.5a1.1,1.1,0,0,0-1-.1,46,46,0,0,1-9.9,1.8h-.2c-4-1.3-10.2-2.2-15.1-2.8l-3.9-.4c-4.8-.5-7.3-.9-8.1-1.3-2.4-1.4-3.7-6.2-3.5-13.4a52.9,52.9,0,0,1,.4-6.6,66.6,66.6,0,0,1,1.2-7.6A58.9,58.9,0,0,0,96,58.7a10.5,10.5,0,0,0-.6-4.9c-1.1-2.5-4.7-3.6-7.8-2.5a8.1,8.1,0,0,0-4.9,5.4v.2h0a12.5,12.5,0,0,1-1.5,3.2,16.2,16.2,0,0,1-2.5,2.8c-.9.9-2.1,2.1-2,2.6h0c.8.7,5.7-.8,8.7-3.2l.4-.3.4.4.5.9a.8.8,0,0,0,.2.5h0v.2a14.8,14.8,0,0,1,.4,4.1,128.2,128.2,0,0,1-1.7,15.1,54.4,54.4,0,0,1-1.6,7.1c-1.6,6.2-3.4,13.2-2,20.4.5,2.4,2.6,5,5.9,7.5a54.2,54.2,0,0,0,6.1,3.8h.3v.3c0,3.7-.2,4.6-.4,5s-.6,1-4.7,2a27.8,27.8,0,0,0-6.4,2.6h-.3c-.1,0-.2.2-.3.4H83a4.3,4.3,0,0,1,2.8,3.2v.6h.5a6.5,6.5,0,0,1,5.2,2l.3.3v.3a.6.6,0,0,0-.1.4l.3-.2.2-.3h-.1l.2-.3a67.5,67.5,0,0,1,2.4-7.2,4.5,4.5,0,0,1,1.1-1.5,2.4,2.4,0,0,0,.7-1.6,13.3,13.3,0,0,1,0-2v-1.4l.9,1.1.5.5c0-.3-.3-.8-1.2-1.7v-1.4l.7.3a50.5,50.5,0,0,0,11.9,4.2h.5v2c.2,5.6-.2,6.3-.3,6.5s-.6,1-4.7,2.1a30.2,30.2,0,0,0-6.4,2.5h-.3c-.1,0-.2.2-.4.5l.4-.2h.3l.7.2h.1l.5.3a.1.1,0,0,0,.1.1l.2.2h0l.2.2h.1l.4.5h0l.2.3a.3.3,0,0,0,.1.2,2,2,0,0,1,.2.9v.4c-.1,0-.1.1-.1.2h2.5l1.4.6Zm-7.6-5.6.4.3-.2-.2Z"/><path class="cls-12" d="M97.5,125.2a23,23,0,0,1-4-2.1l.6-.9a17.9,17.9,0,0,0,3.8,2Z"/></g></svg>