<?xml version="1.0" encoding="utf-8"?>
<!-- Generator: Adobe Illustrator 25.4.1, SVG Export Plug-In . SVG Version: 6.00 Build 0)  -->
<svg version="1.1" id="Layer_1" xmlns="http://www.w3.org/2000/svg" xmlns:xlink="http://www.w3.org/1999/xlink" x="0px" y="0px"
	 viewBox="0 0 200 200" style="enable-background:new 0 0 200 200;" xml:space="preserve">
<style type="text/css">
	.st0{fill:none;stroke:#4C2E19;stroke-width:0.44;stroke-miterlimit:10;}
	.st1{fill:#6D4C41;stroke:#000000;stroke-width:0.11;stroke-miterlimit:10;}
	.st2{fill:#353535;}
	.st3{fill:#262525;}
	.st4{fill:#C99673;}
	.st5{fill:#C49474;}
	.st6{fill:#CEC4C2;}
	.st7{fill:#BCAEAC;}
	.st8{fill:#FFAB91;}
	.st9{fill:#F4987F;}
	.st10{fill:#A7754F;}
	.st11{fill:#B27D59;}
	.st12{fill:#7C4738;}
	.st13{fill:#602F28;}
	.st14{fill:#3E2723;}
	.st15{fill:#FFFFFF;}
</style>
<g>
	<g id="Cow_01">
		<path class="st0" d="M159.2,55.5l-2.9-3l0.2,0.8l0,0l-0.8-3.3l0,0c-0.3-1-0.5-1.8-0.6-2.3c-1-4.4-3.2-3.8-5-3.8s-7.5-5.4-11.4-5.1
			c-1.6,0.1-3.7,2.2-6.7,5.1s-10.4,10.3-18.7,13.9l-2.2,1l-10.5,3.9l-4.1,1.6c-12.3,5-24.6,10.9-27.1,15.4c-0.4,0.8-1,1.5-1.7,2.1
			c-0.9,0.9-1.9,1.7-3,2.3c-6.6,4.4-14.1,5.5-14.1,5.6l0,0c-0.7,0.1-1.4,0.5-1.9,1l-0.5-0.4c-0.8-0.8-1.5-1.7-2.2-2.6l-1.5-2.4
			c-0.2-0.5-1-0.4-1.2,0.1c-0.2,0.8-0.2,1.5-0.2,2.3v0.8c-2.7-0.4-6.4,0.3-6.5,1.5s2.8,6.4,8.5,7l-0.3,0.7
			c-1.5,3.8-2.2,7.3-4.2,11.6l-1.2,2.8c-1,2.1-2.2,4.1-3.6,5.9l0,0c-2.9,1.5-3.9,7.4,1,10.2c4.9,2.8,6.7,0.5,7.7-0.8l3.1-2.2
			c2.2-1.4,4.8-2.4,7.4-2.8c3.2-0.5,6-2.2,8-4.7l0.3,0.2l1.6,0.8l0.9,0.7h0.3l1.1,0.9l0.3,0.2h0.1l0.4,0.4l0,0l0.2,0.2L69,122h0.1
			c0.6,0.7,1.2,1.3,1.7,2l1.2,1.4l0,0l0.4,0.4l0,0c0.4,1.7,0.7,3.5,0.9,5.3c0,3-0.7,3.8,0.9,6.4s0,11.4,0,11.4
			c-0.5,1.7-1.3,3.3-2.3,4.7h0.3c0.4,0,0.8-0.1,1.2-0.3h0.2l0.4-0.2l0,0l0.3-0.2h0.2l0.4-0.2l-1.4,2.4c1.9,0.2,7.2,0.8,6.7-4.7
			c0-0.2-0.1-0.4-0.1-0.6l0,0c-0.4-2,0.8-2.8,0.8-4.4s-1.6-1.4-1.1-7.6c0.3-2.9,1.5-5.6,0-7.9h4.1l1.7-0.7l0,0
			c1,4.3,2.8,8.6,2.8,10.2s-0.3,3.1,0,4.3l0,0c0.3,0.7,0.6,1.4,1,2.1c0.5,1.2,0.8,2.6,0.7,3.9c0,2.5-0.2,5-0.7,7.4l0,0
			c-0.5,1.7-1.3,3.4-2.4,4.8c1.1,0,2.2-0.5,3-1.3l-1.4,2.5c1.9,0.2,7.3,0.8,6.7-4.7c0-0.2,0-0.4-0.1-0.6l0,0v-1.2l0,0v-2.2l0.3-0.7
			v-0.2l0,0v-0.4l0,0v-0.2c0-1.5-1.2-1.5-1.2-5.5v-0.5l0,0c0.1-0.5,0.1-1.1,0.1-1.6c0.1-0.1,0.1-0.3,0.1-0.4c0-0.2,0-0.5,0.1-0.7
			c0-0.2,0-0.5,0.1-0.7c0-0.2,0.1-0.4,0.1-0.6c0.1-0.2,0.1-0.5,0.1-0.7c0.1-0.2,0.1-0.4,0.1-0.6c0.1-0.5,0.2-1.1,0.2-1.6v-0.6
			c-0.1-0.2-0.1-0.3-0.1-0.5l-0.2-0.6c0-0.1,0-0.2-0.1-0.2v-0.2c-0.1,0-0.1-0.1-0.1-0.2h-0.1v-0.3h-0.1c-0.8-1.2-1-10.3-0.7-16.1
			h1.8l0.8-0.2h0.4l0.5-0.2h0.5l0.7-0.2H99l0.5-0.2h0.7l0.7-0.3l0.6-0.2h0.4l0.4-0.2l0.9-0.3l0.5-0.2l0.9-0.4h0.4l0.5-0.2l0.5-0.2
			l0.7-0.3h0.2l0.7-0.4l0.6-0.3h0.2l0.6-0.2l0.6-0.3l0.6-0.3l1-0.6h0.1l0.4-0.2l0.4-0.2l0.7-0.5h0.2l0.3-0.2l0.8-0.5l0.4-0.2
			l0.4-0.2h0.1l0.4-0.2l0.3-0.3l0.4-0.2l0.6-0.3l0.4-0.3l0.7-0.4c0-0.1,0.1-0.1,0.2-0.2l0.5-0.3l0.4-0.3l0.7-0.4l0.4-0.3l1-0.7
			l0.2-0.2l0.7-0.4l0.5-0.4l0.4-0.3h0.2l0.5-0.4l1-0.7l0.5-0.4l0.6-0.5h0.1c0.1,0,0.1,0,0.1-0.1l0.8-0.6h0.1l0.3-0.2h0.3l1.3-1.1
			l0.3-0.3l0.3-0.2h0.3c0,0.4,0.1,0.7,0.4,0.8s1.7-0.5,2.6-1.7c0.8,0.5,1.6,0.8,2.4,1.1c-0.3,1.3-0.3,2.7,0.5,2.8
			c0.2,0.1,0.4,0,0.6-0.1c0.1,3,0.8,2.9,0,5.8c-0.5,1.7-1.3,3.3-2.4,4.7h0.3l1.2-0.2h0.3l0.3-0.2h0.1l0.3-0.2h0.2l0.3-0.2l-1.4,2.5
			c1.9,0.1,7.3,0.7,6.7-4.8c0-0.2,0-0.3-0.1-0.5l0,0c-0.7-2.8,0.2-3.6,0.2-5.4s-1.6,1.5-1.6-1.5c0.3,0.5,0.6,0.9,1.1,0.8
			s1-1.8,1-3.4l0.7-0.5l3.2-3.7c1.7,2.4,2.3,3.5,3.3,6.5s2,7.3,0.2,14.7l0,0c-0.5,1.7-1.3,3.3-2.3,4.7h0.3c0.4,0,0.8-0.1,1.2-0.3
			h0.2l0.4-0.2l0,0l0.3-0.2h0.2l0.4-0.2l-1.4,2.4c1.8,0.2,7.2,0.8,6.7-4.7c-0.1-0.2-0.1-0.4-0.1-0.6l0,0c-0.8-2.8,0.1-3.6,0.1-5.4
			s-1.4-1.5,0.2-11.5c0.5-2.6,0.2-0.7-0.9-2.3s-0.7-2.6-0.5-5.3s1-7.8,1.7-12l1.3-6.6c2.8-0.4,5.1-1.2,7-3.8
			C168.4,68.4,168.2,65.4,159.2,55.5z M158.2,75.3L158.2,75.3c0.9-4.1,0.5-9.2-0.2-14l0,0c0-0.2-0.1-0.5-0.1-0.8l0,0
			c0-0.2-0.1-0.3-0.1-0.4c0-0.2,0-0.3-0.1-0.5l0,0c1.3,1.3,2.5,2.8,3.5,4.3c2.7,4.1,3.8,8.4,1.1,11.1c-1.2,1.3-2.8,2.2-4.5,2.6
			C158,76.8,158.1,76.1,158.2,75.3z"/>
		<g>
			<path class="st1" d="M86.3,161.9c0,0,2.8-1.1,3.5-2.3l-0.5,1C88.5,161.4,87.4,161.9,86.3,161.9z"/>
			<path class="st2" d="M134.7,119.8l1.4-2.5c-0.8,0.8-1.9,1.2-3,1.2c1.1-1.4,1.9-3,2.4-4.7c0,0,3.7-1.5,5.8,0.7
				c0.1,0.2,0.1,0.3,0.1,0.5C142,120.5,136.6,119.9,134.7,119.8z"/>
			<path class="st3" d="M133.1,118.5c0,0,2.8-1.1,3.5-2.3l-0.5,1.1C135.3,118.1,134.2,118.5,133.1,118.5z"/>
			<path class="st3" d="M134.7,119.8c0,0,6.1-0.8,6.7-4.8C142,120.5,136.6,119.9,134.7,119.8z"/>
			<path class="st2" d="M149.2,127.6l1.4-2.4c-0.8,0.8-1.9,1.2-3,1.2c1-1.4,1.8-3,2.3-4.7c0,0,3.9-2,5.9,0.6c0,0.2,0,0.4,0.1,0.6
				C156.4,128.4,151,127.8,149.2,127.6z"/>
			<path class="st3" d="M147.6,126.4c0,0,2.7-1.1,3.4-2.3l-0.4,1.1C149.8,125.9,148.7,126.4,147.6,126.4z"/>
			<path class="st3" d="M149.2,127.6c0,0,6-0.7,6.7-4.7C156.4,128.4,151,127.8,149.2,127.6z"/>
			<path class="st2" d="M73.5,155.2l1.4-2.5c-0.8,0.8-1.9,1.3-3,1.3c1-1.4,1.8-3,2.3-4.7c0,0,3.9-0.4,5.9,0.6c0,0.2,0.1,0.4,0.1,0.6
				C80.7,156,75.4,155.4,73.5,155.2z"/>
			<path class="st3" d="M71.9,154c0,0,2.7-1.1,3.4-2.3l-0.4,1.1C74.1,153.5,73,154,71.9,154z"/>
			<path class="st3" d="M73.5,155.2c0,0,6-0.7,6.7-4.7C80.7,156,75.4,155.4,73.5,155.2z"/>
			<path class="st4" d="M48.8,95.4c0,0-1.4-5.1-3.6-6.4s-8.5-0.5-8.6,1s3.6,7.9,11,6.9L48.8,95.4z"/>
			<path class="st5" d="M45.1,92.4c-1-0.9-2.1-2.1-5.6-1.9c-0.3,0-0.6,0.2-0.7,0.5c0,0.1,0,0.3,0.1,0.4c0.8,1.3,2.5,3.5,4.9,3.9
				c0.9,0.1,1.7-0.7,1.8-1.6C45.6,93.2,45.4,92.7,45.1,92.4z"/>
			<path class="st6" d="M49.4,91.1l-2.9,3.4c-1.8-1.4-2.9-3.5-3.3-5.7c-0.1-0.4-0.1-0.7-0.1-1.1c0-0.8,0-1.5,0.2-2.3
				c0.2-0.5,1-0.6,1.2-0.1l1.5,2.4c0.7,0.9,1.4,1.8,2.2,2.6C48.6,90.6,49,90.9,49.4,91.1z"/>
			<path class="st7" d="M49.4,91.1l-2.9,3.4c-1.8-1.4-2.9-3.5-3.3-5.7c0.2,0.5,2.3,5.2,5,1.5C48.6,90.6,49,90.9,49.4,91.1z"/>
			<path class="st4" d="M140.8,87.1c-0.3,2.7-0.1,4.6,0.4,5.3s0.9,2.5,0.5,5.1c-1.6,10-0.2,9.6-0.2,11.5s-0.9,2.6-0.2,5.4
				c0,0-6.6,2.5-5.8-0.6c1.8-7.4,0.8-11.5-0.2-14.6c-1.8-5.3-5.7-6.2-7.7-14c-1-4.2-1.6-8.6-1.8-12.9c1.3-7.9,9.1-11.1,14-9.9
				c0.2,0,0.3,0.1,0.4,0.2c2.2,0.8,3.6,4.6,3.6,4.6v0.2c-0.3,2.3-0.8,5-1.2,7.7C141.8,79.3,141.2,83.7,140.8,87.1z"/>
			<path class="st4" d="M69.4,113.3c0,0,3.9,15.2,3.9,18.2s-0.7,3.8,0.9,6.4s0,11.4,0,11.4s1.8,2.7,5.9,0.6c-0.4-2,0.8-2.8,0.8-4.4
				s-1.6-1.4-1.1-7.6c0.3-2.9,1.5-5.6,0-7.9s0.4-21.2,0.4-21.2C75,107.4,71.5,109.1,69.4,113.3z"/>
			<path class="st2" d="M87.9,163.1l1.4-2.5c-0.8,0.8-1.9,1.3-3,1.3c1.1-1.4,1.9-3.1,2.4-4.8c0,0,3.6-1.8,5.8,0.7
				c0.1,0.2,0.1,0.4,0.1,0.6C95.2,163.9,89.8,163.3,87.9,163.1z"/>
			<path class="st4" d="M85.6,128.5L85.6,128.5l-0.3,0.2h-0.6l-0.5,0.2h-6.5c0-0.1-0.1-0.1-0.2-0.1H77c-0.6-0.2-1.3-0.5-1.8-0.9H75
				l-0.3-0.2h-0.2l-1.5-0.9h-0.1l-0.5-0.5l0,0l-0.4-0.4l0,0l-0.4-0.5c-1.1-1.2-2.2-2.6-3.5-3.9l-0.2-0.3c-0.1-0.1-0.3-0.2-0.4-0.4
				l-0.2-0.2l-1.2-1h-0.2l-1-0.7l-1.9-1h-0.1l-2.4-0.8l-1.1-0.2h-1.1c-0.9-0.1-1.7-0.3-2.5-0.6l-0.4-0.2c-3.2-1.5-5.1-5.1-6.2-9
				c-0.2-0.6-0.3-1.1-0.4-1.7c-0.1-0.6-0.2-1.3-0.2-1.9c-0.1-4.6,0.6-9.1,2-13.5c0-0.1,7.5-1.2,14.1-5.6c1.1-0.6,2.1-1.4,3-2.3
				c0.7-0.6,1.3-1.3,1.7-2.1c2.5-4.5,14.8-10.4,27.1-15.4l4.1-1.6l10.5-3.9l2.2-1c8.3-3.6,14.4-9.6,18.7-13.9c4.3-4.3,5.1-5,6.7-5.1
				c3.9-0.3,9.6,5.1,11.4,5.1s4-0.6,5,3.8c0.1,0.5,0.3,1.3,0.6,2.3l0,0l0.8,3.3l0,0c0.1,0.6,0.3,1.3,0.4,1.9"/>
			<path class="st4" d="M156.9,55.5c0,0,2.6,11.3,1.3,19.8c-0.4,2.3-0.9,5-1.3,7.7c-0.7,4.2-1.3,8.6-1.7,12s-0.1,4.6,0.5,5.3
				s0.9,2.5,0.4,5.1c-1.6,10-0.2,9.6-0.2,11.5s-0.9,2.6-0.1,5.4c0,0-6.6,2.5-5.9-0.6c1.8-7.4,0.9-11.5-0.2-14.7
				c-1.8-5.2-5.7-6.1-7.7-13.9c-1-4.1-1.6-8.4-1.8-12.6v-0.3"/>
			<path class="st4" d="M94.6,116.7L94.6,116.7l0.1,0.2c0,0.5-0.1,2.1-0.3,4.3l0,0c-0.3,5.8-0.8,15.5,0,16.7h0.1v0.2h0.1
				c0,0.1,0,0.2,0.1,0.2v0.2c0.1,0,0.1,0.1,0.1,0.2l0.2,0.6c0,0.2,0,0.3,0.1,0.5v0.6c0,0.5-0.1,1.1-0.2,1.6c0,0.2,0,0.4-0.1,0.6
				c0,0.2,0,0.5-0.1,0.7c0,0.2-0.1,0.4-0.1,0.6c-0.1,0.2-0.1,0.5-0.1,0.7c-0.1,0.2-0.1,0.5-0.1,0.7c0,0.1,0,0.3-0.1,0.4
				c0,0.5,0,1.1-0.1,1.6l0,0v0.5c0,4,1.2,4,1.2,5.5v0.2l0,0v0.4l0,0v0.2l-0.3,0.7v1.4l0,0v1.2h-0.4l-0.6,0.3
				c-0.7,0.2-1.5,0.3-2.2,0.3h-0.8c-0.7-0.2-1.4-0.7-1.8-1.3l0,0c0.5-2.4,0.7-4.9,0.7-7.4c0.1-1.3-0.2-2.7-0.7-3.9
				c-0.4-0.7-0.7-1.4-1-2.1l0,0c-0.3-1.2,0-2.3,0-4.3s-1.1-6.5-2.1-10.8l0,0c0-0.1-0.1-0.2-0.1-0.3l0,0c-0.4-1.9-0.9-3.6-1.2-4.9
				v-0.2c-0.2-0.5-0.3-1.1-0.4-1.6h-0.1"/>
			<path class="st4" d="M65.2,111.1c0,2.4-0.8,4.7-2.3,6.6c-1.9,2.6-4.7,4.3-7.9,4.7c-2.6,0.4-5.2,1.4-7.4,2.8
				c-1.2,0.7-2.3,1.5-3.3,2.4c-1.2,0.9-7.1-5.5-8.5-9.6c1.4-1.8,2.6-3.8,3.6-5.9l1.2-2.8c2-4.3,2.7-7.8,4.2-11.6
				c0.2-0.4,0.4-0.7,0.5-1.1c0.7-1.6,1.4-3.1,2.3-4.6c0.6-1.2,1.7-2,3-2.3c5.5-0.7,12.9,13.1,14.3,19.6
				C65.1,109.9,65.2,110.5,65.2,111.1z"/>
			<path class="st4" d="M156.9,55.5c0,0-10.4-4.6-10.8,0s-9.7,16.2-7.5,19.4c2.2,3.2,0.9,4.1,4.8,3.2c3.9-0.9,12.9-16.7,12.9-16.7"
				/>
			<path class="st4" d="M94.4,121.2c0,0,5.2,0.7,16.9-5.1s17.6-11.5,17.6-11.5s1.5,1.5,3.6-1.1l2.4,1.1c0,0-0.5,2.6,1.1,2.7
				s2.9,0.4,2.9,0.4l1.5-15.7l-13.9-12.3L111.8,84c0,0-10,7.3-10.4,8s-14,12.6-14,12.6l-4.7,8.8L94.4,121.2z"/>
			<path class="st8" d="M148.3,96.8c-0.9,2.6-2.5,4.8-4.6,6.6c-7.1,5.3-16.2-4.3-16.2-4.3c-1.7-6.1,4.4-10.8,10.5-12.2
				S152,87.8,148.3,96.8z"/>
			<path class="st9" d="M142,107.3c-0.9,0.2-1.3-1.2-1.5-2.5s-0.1-2.5-0.1-2.5l2.2-1.7c0.2,1.1,0.3,2.1,0.4,3.2
				C143,105.5,142.9,107.1,142,107.3z"/>
			<path class="st9" d="M138.9,101.1c-0.3,1.3-0.6,2.6-1.1,3.8c-0.5,1.3-1.1,2.4-1.9,2.2s-0.8-1.5-0.5-2.8c0.2-0.8,0.5-1.6,0.8-2.4
				L138.9,101.1z"/>
			<path class="st9" d="M135.1,100.1c-0.6,1.1-1.3,2.1-2.1,3.1c-0.9,1.1-1.9,2.1-2.6,1.7s-0.2-1.8,0.5-3c0.4-0.7,0.8-1.3,1.3-1.9
				L135.1,100.1z"/>
			<path class="st9" d="M148.3,96.8c-0.9,2.6-2.5,4.8-4.6,6.6c-1.5-2-3.3-6.2-10.6-2c-2.5,1.4,5.2-12.1,4.9-14.5
				C144.9,85.3,152,87.8,148.3,96.8z"/>
			<path class="st10" d="M44.8,126.9c-0.8,1.2-3.1,4.2-8,1.3s-3.9-8.7-1-10.2s1.4,0.9,3.5,2.6s3.9,0.1,4.7,0.8
				C45.5,122.8,45.8,125.1,44.8,126.9z"/>
			<g>
				<path class="st5" d="M83.8,121.2c0,0.2,1.9,7.3,1.8,7.4c-1.8,0.9-3.9,1.4-5.9,1.4c-6.9,0-8.7-7.5-14.8-11.3l-1.9-1
					c-2,2.5-4.8,4.2-8,4.7c-2.6,0.4-5.2,1.4-7.4,2.8c1.6-1.6,4.1-2.1,6.1-3s5.2-1.8,6.7-5.3c2.9-6.2,5.4-5.5,10.2-4.1
					c1.9,0.6,3.8,0.8,5.8,0.6c0.9-0.2,1.9-0.3,2.9-0.3c2,0.1,3.2,1.7,3.9,3.4c0.3,0.9,0.5,1.8,0.6,2.7
					C83.9,119.9,83.9,120.5,83.8,121.2z"/>
			</g>
			<path class="st6" d="M66.3,93.9c0,0.9-0.3,1.8-0.8,2.6c-1.1,1.4-2.6,2.5-4.4,2.9c-1.4,0.5-2.6-1-2.6-2.3c0-0.7,0.4-1.4,1.1-1.7
				c2.2-0.6,4.5-1.2,5.5-3.1c0.2-0.3,0.5-0.4,0.8-0.2c0.1,0.1,0.2,0.2,0.3,0.3C66.3,92.9,66.3,93.4,66.3,93.9z"/>
			<path class="st11" d="M61.4,103.8c-0.1-0.8,0.6-1.6,1.4-1.7c2.1-0.2,5.8-0.4,7.4,0.6s3.3,4.8,3.7,6c0.1,0.3,0,0.5-0.2,0.7
				c-1.1,0.9-4.6,3.1-9.8-0.9c-1.4-1.1-2.3-2.7-2.5-4.4L61.4,103.8z"/>
			<path class="st11" d="M44.6,104.6c0,0.3-0.1,0.5-0.2,0.8c-0.6,1.4-1.5,2.7-2.5,3.8c-0.7,1-1.4,1.9-2.3,2.7c0.2-0.7,0.6-1.6,1-2.6
				c2-4.3,2.7-7.8,4.2-11.6C45.4,100,45.4,102.4,44.6,104.6z"/>
			<path class="st12" d="M39,124.6c-1.1-1.4,1.9-0.2,2.9-0.8S42.1,128.8,39,124.6z"/>
			<path class="st12" d="M36.3,123.2c1.7-0.2-0.5-1.4-0.8-2.7S32.4,123.8,36.3,123.2z"/>
			<path class="st13" d="M55.6,108.6c0,0-0.6,1.9-1.6,1.9s-1.2-0.5-1.9-0.1c0.2-0.3,0.3-0.6,0.4-0.9c0.2-0.7,0.7-1.3,1.3-1.7
				c0.6-0.3,1.4,0,1.7,0.6L55.6,108.6z"/>
			<path class="st14" d="M55.5,108.4c-0.2,1-0.9,1.8-1.7,1.8c-0.5,0-1-0.3-1.3-0.7c0.2-0.7,0.7-1.3,1.3-1.7
				C54.4,107.5,55.2,107.8,55.5,108.4z"/>
			<circle class="st15" cx="54.5" cy="108.5" r="0.4"/>
			<path class="st7" d="M65.4,96.5c-1,1.5-2.6,2.5-4.3,2.9c-1.4,0.5-2.6-1-2.6-2.3C59.6,98.9,62.6,99.1,65.4,96.5z"/>
			<path class="st5" d="M64.9,104.6c2.5,0.9,4.4-1,7,3.2c0.2,0.2,0.2,0.6,0,0.8c-0.1,0.1-0.2,0.1-0.3,0.2c-1.8,0.5-6.4,1.5-8.1-2.8
				c-0.2-0.6,0.1-1.2,0.7-1.4C64.4,104.5,64.7,104.5,64.9,104.6z"/>
			<path class="st3" d="M87.9,163.1c0,0,6.1-0.7,6.7-4.7C95.2,163.9,89.8,163.3,87.9,163.1z"/>
			<path class="st11" d="M85.6,128.5c-1.8,1-3.8,1.5-5.9,1.5c-6.9,0-8.7-7.5-14.8-11.3c4.5,2.2,15.4,6.9,18.9,2.5L85.6,128.5z"/>
			<path class="st10" d="M164.5,75.9c-4.6,6.1-11.3,2.2-21.9,6.4c-2.4,0.3-1.1-1.3-0.9-2.3l3.7-1.1c9.5-2.4,12.4,0.3,16.9-4.2
				c2.7-2.7,1.6-7-1.1-11.1c-1-1.6-2.2-3-3.5-4.4l-1.4-6.7l2.9,3C168.2,65.4,167.7,71.7,164.5,75.9z"/>
			<path class="st13" d="M142.7,79.7c-6,1.2-6.6,4.3-10.2,6.6c-0.5,0.3,1.1,0.2,2.6-1.2c-1.9,2.6-3.3,2.9-3.3,2.9s0,0.3,1.4-0.1
				c-0.3,0.4-0.7,0.7-1.1,1c0.6-0.1,1.3-0.4,1.8-0.8c-1.2,1.1-2.8,1.8-4.5,1.8c-1.4,0.1,4.3,1.1,6.4-2.7c-0.7,1.5-1.6,3-3.2,3.5
				c1.2-0.1,2.4-0.7,3.1-1.7l-0.6,1.1c-0.1,0.1,0.1,0.2,0.2,0.1c1.9-1.5,2.4-4.1,4.4-6.5c-0.8,1.4-1.3,2.9-1.9,4.2s0.2,0.4,0.3,0.2
				c1.2-2.3,2.1-4.9,5-6c0,0-1,0-0.7-0.5s1.7-0.9,1.7-1.2s-2.2,0.6-2.5,0.5S142.8,79.6,142.7,79.7z"/>
			<path class="st4" d="M164,73.9c-3.3,6.9-10.3,3.6-18.6,5c9.5-2.4,12.4,0.3,16.9-4.2c2.7-2.7,1.6-7-1.1-11.1c-1-1.6-2.2-3-3.5-4.4
				l-1.4-6.7C157.6,53.9,167.6,66.5,164,73.9z"/>
		</g>
	</g>
</g>
</svg>
