<svg xmlns="http://www.w3.org/2000/svg" viewBox="0 0 200 200"><defs><style>.cls-1{fill:#724d46;}.cls-2,.cls-5{fill:#5b342c;}.cls-10,.cls-13,.cls-14,.cls-2,.cls-3,.cls-4{stroke:#422825;}.cls-10,.cls-13,.cls-14,.cls-16,.cls-17,.cls-2,.cls-3,.cls-4,.cls-6,.cls-9{stroke-miterlimit:10;}.cls-10,.cls-13,.cls-14,.cls-16,.cls-2,.cls-3,.cls-4,.cls-6,.cls-9{stroke-width:0.07px;}.cls-3{fill:#774d42;}.cls-4{fill:#4c2822;}.cls-10,.cls-6{fill:#4e342e;}.cls-16,.cls-6,.cls-9{stroke:#000;}.cls-13,.cls-7{fill:#fff;}.cls-8{fill:#865c51;}.cls-9{fill:#e8792a;}.cls-11,.cls-14{fill:#3e2723;}.cls-12{fill:#422825;}.cls-15{fill:#472822;}.cls-16{fill:#6e4c41;}.cls-17{fill:none;stroke:#281615;stroke-width:1.2px;}.cls-18{fill:#f7f5f5;}.cls-19{fill:#281515;}</style></defs><g id="Horse_01"><path class="cls-1" d="M68.8,123.7a3.5,3.5,0,0,0,1.2.7h.4a2.3,2.3,0,0,0,2.6-1,.8.8,0,0,0,.1-.4h0l-.7-1.1S72,124.4,68.8,123.7Z"/><path class="cls-1" d="M64.2,100.6c.3,2,1.5,5,2.8,10.6l4.1,1.1c-.3-2.4-.5-4.3-.8-6.8s0-3.2.6-3.6c9.8-7.2,9.9-27.4,9.9-27.4S74,58.4,68.4,61.4c-1.7,6-1.7,12.4-1.3,18.9.2,2,.3,4,.5,5.9s.1,1.6.1,2.3c.5,7-.9,7.4-2.2,8.4a3.4,3.4,0,0,0-1.2,1.4A4.4,4.4,0,0,0,64.2,100.6Z"/><path class="cls-2" d="M51.4,105.7v3.1h0c0,2.1,0,4.2.1,5.9a.2.2,0,1,0,.3,0c.1-1.2.2-2.3.2-3.5h0c.1-1.4.2-2.9.2-4.4.2,1.9.4,3.6.7,5.1v2.5h0c0,1.5.1,3,0,4.5a.1.1,0,0,0,.3,0c0-1,.1-2,.1-3h0a4.9,4.9,0,0,1,.1-1.2,45.9,45.9,0,0,0,1.1,4.8l.6,1.6s0-.6.1-1.5v-1.9a6.1,6.1,0,0,0,.1-1.4c.1,1.1.2,2.3.2,3.4a5.3,5.3,0,0,1,.1,1.3h.2v-1.3c0-2.5-.1-5-.3-7.6a25.5,25.5,0,0,0,1.3,6.1,61.7,61.7,0,0,0-.1-8.6l.2.5a38.5,38.5,0,0,0,.2,4.8c0,.1.2.1.2,0l.2-.6h0a40.2,40.2,0,0,0,.6-5,26.4,26.4,0,0,0,.2-2.8c.2-.6.4-1.2.6-2l-.3,4.4a23.4,23.4,0,0,1-.4,2.6c0,.1.2.2.3,0a12.1,12.1,0,0,1,.5-1.8,8.3,8.3,0,0,0,.4-1.5h0c.3-1.4.5-2.8.7-4.2a40.7,40.7,0,0,0,.5-4.9,25,25,0,0,1,.2,4.8.1.1,0,0,0,.3,0,38,38,0,0,0-1-13l-.3-1.4v-.4a9.2,9.2,0,0,0,.9,2.3l-.9-6.4-.9-6.5a67.8,67.8,0,0,1-.3-7.8c0-1.4.2-2.7.3-4.1s7.4-3.7,5.7-5.5c0-.1-2.5-2.2-2.5-2.2h0c-1.5-1.3-7,1.1-8.7,6.2a43.3,43.3,0,0,0-1.9,12.9c-.2,5.1.6,10.4.1,15.5s-1,10.3-1,15.4c.2-3.7.3-5.2.8-9Z"/><path class="cls-3" d="M145.6,70h.4c2.4-.3,2.7-3.7,1.1-6.6a5.7,5.7,0,0,0-.8-1.3.3.3,0,0,0-.6.2C145.6,66.6,142,70,145.6,70Z"/><path class="cls-4" d="M146,70c2.4-.3,2.7-3.7,1.1-6.6.1.2.5,2.5-.9,5.7A2.9,2.9,0,0,0,146,70Z"/><path class="cls-5" d="M68.8,123.7v.4c.2,4.6,5.1,3.5,5.1,1.7a4.7,4.7,0,0,0-.3-1.7,3.1,3.1,0,0,0-.5-1h0l-.7-1.1S72,124.4,68.8,123.7Z"/><path class="cls-5" d="M116.5,149.5a3.1,3.1,0,0,0,.1,1c.5,3.9,4.9,2.9,5,1.2a5.8,5.8,0,0,0-1.5-3.8A4.4,4.4,0,0,1,116.5,149.5Z"/><path class="cls-6" d="M114.8,126.3c.2,1.9,1,2.1,1.1,4.2s.5,5,.5,10.5v1.6c0,.7-.9,1.5-.9,3s1.3.8,1,3.9c0,0,2.4,2.3,4.2,0s-1.2-2.1-1.3-4.7v-2.3a8.6,8.6,0,0,1-.1-1.6,54,54,0,0,1,.7-9c.2-1.4.9-1.9.9-3.3s-.6-2.4-.6-4.9c.1-7.1,4.1-15.2,1.3-21.7l-7.8-1.9s.6,11.8,1.3,22.8C115.2,124.1,114.7,124.3,114.8,126.3Z"/><path class="cls-1" d="M114.8,126.3c.2,1.9,1,2.1,1.1,4.2s.3,3.6.4,6.7c.1,1.1.1,2.4.1,3.8v1.6c0,.7-.9,1.5-.9,3s1.3.8,1,3.9c0,0,2.4,2.3,4.2,0s-1.2-2.1-1.3-4.7v-2.3a8.6,8.6,0,0,1-.1-1.6v-2.4c.1-1.8.3-3.9.7-6.7s.9-1.8.9-3.2-.6-2.4-.6-4.9c.1-7.1,4.1-15.2,1.3-21.7l-7.8-1.9s.6,11.8,1.4,22.8C115.2,124.1,114.7,124.3,114.8,126.3Z"/><path class="cls-7" d="M116.5,149.5s2.4,2.3,4.2,0-1.2-2.1-1.3-4.7v-2.3a8.6,8.6,0,0,1-.1-1.6v-2.4l-3-1.3c.1,1.1.1,2.4.1,3.8v1.6c0,.7-.9,1.5-.9,3S116.8,146.4,116.5,149.5Z"/><path class="cls-5" d="M55.8,131.1v.9h0c.1.2.1.4.2.6h.1v.2h.1v.2h.3v.2h.1l.3.3h0a.1.1,0,0,1,.1.1h.3l.5.2H59l.8-.2h.4l.5-.4h.1v-1.3a.6.6,0,0,1-.1-.4l-.2-.6-.3-.7-.2-.3h0l-.7-1A3,3,0,0,1,55.8,131.1Z"/><path class="cls-8" d="M133.1,81v.3a44.3,44.3,0,0,0,1.7,5.6c2,5.2,7,5.4,9.6,7.9l.2.2a5,5,0,0,1,1.1,1.7c.4,1.1.3,2.4,1.6,3a5.5,5.5,0,0,0,3.3.7,4.8,4.8,0,0,0,4-2.3,5.7,5.7,0,0,0,.8-3.6,11.2,11.2,0,0,0-1.5-2.8l-.2-.2-.8-1.4a28.7,28.7,0,0,1-2.6-12c0-3.5-.9-4.7-2.6-6.8s-2.7-5.4-7.9-5.2l-2.6.4C132.6,67.7,131.3,73.3,133.1,81Z"/><path class="cls-9" d="M141.6,82.3l.2-.3,1-1.5"/><path class="cls-8" d="M143.8,74.9a10.5,10.5,0,0,0-.5-1.9v-.2h0a16.5,16.5,0,0,0-2.8-5h0l-.6-.8q-.2-.3-.3-.3h-.3l-.4-.2h-.1c-1.8-.5-7-.8-18.2,6.5-4.8,3.2-8.8,4.4-12.6,4.3a23.4,23.4,0,0,1-9.7-2.8c-10.9-5.3-12-13.2-20.7-17-5.5-2.4-11-2.1-15.5,1.5a13.8,13.8,0,0,0-2.9,3,3.6,3.6,0,0,0-.7,1,4.1,4.1,0,0,0-.7,1.1l-.4.6a21,21,0,0,0-1.8,3.7c0,.2-.1.3-.1.5h0v.2h0a16.7,16.7,0,0,0,.9,9.3h0c.5,1.3,1.1,2.6,1.7,3.8l1.8,2.8a28.1,28.1,0,0,0,2.5,3.1l.2.2.4.4a7.5,7.5,0,0,0,1.4,1.2c1.3,1,2.3,1.3,2.7.7h0v-.2h0l.3-.6v-.2c.1,0,.1,0,.1-.1h.7a2.7,2.7,0,0,1,1.2.3h.1a.1.1,0,0,0,.1.1h.3l.4.6.5.6.5.7.2.3c.1,0,.1,0,.1.1l.2.2v.2a1,1,0,0,1,.4.5h.1a.1.1,0,0,0,.1.1v.2c0,.1.1.1.2.2s.1.1.1.2.1.1.1.2a.8.8,0,0,1,.4.4l.6.7.4.5h0l.9,1c0,.1.1.2.2.3h.2l.4.5h0l.4.5c.2.1.3.3.5.5l.8.8h0l.4.5h0l.5.4.4.4,1.3,1.3h0l1.4,1.2.5.5.3.3,1.1.9.3.2.6.4.9.8a59.5,59.5,0,0,0,5.3,3.4l.2.2h.3l.4.3h.4l.5.3.5.3.6.3,1.1.5h0a53.3,53.3,0,0,0,6.4,2.5h0l1.4.5h0a34.7,34.7,0,0,0,5.2.6h3.5l1.7-.3h.2l.7-.2h.9l.4-.2h1l.3-.2,1.1-.5h.4l.5-.3.4-.2h.2l.2-.2h.1l.2-.2h.3l.2-.2h.3l.2-.2.2-.2h.3l.9-.9h0l.3-.3c.1-.1.2-.1.2-.2l.6-.7.3-.3v-.2h.1a.1.1,0,0,1,.1-.1v-.3h.3v-.2c.1-.1.2-.2.2-.3l.6-.8h.1l.2-.3.4-.6h0c3.7-5.3,3.9-8,4.3-10.3s.8-4.1,4.8-7.8a5.1,5.1,0,0,1,1.5-.7Z"/><path class="cls-8" d="M55.8,131.1l1,.6.9.2H58a2,2,0,0,0,2-1h.1v-.3h0l-.7-1A3,3,0,0,1,55.8,131.1Z"/><path class="cls-8" d="M51.1,107v.2a.8.8,0,0,0,.1.4h0a2.8,2.8,0,0,0,.1.9.4.4,0,0,0,.1.3h0v.2a.4.4,0,0,1,.1.3c0,.1,0,.2.1.2a3,3,0,0,0,.2,1,.6.6,0,0,1,.1.4.4.4,0,0,1,.1.3h0a.8.8,0,0,1,.1.4.4.4,0,0,1,.1.3l.3.8a3.1,3.1,0,0,0,.2.8v.2l.2.5v.2h0c.1.4.3.9.4,1.4h0v.2c0,.2.1.4.1.6v.3a.4.4,0,0,0,.1.3,2.9,2.9,0,0,0,.2.9.4.4,0,0,0,.1.3,1.3,1.3,0,0,0,.1.6v.2h.4l.6,1.6s0-.6.1-1.5h.3a5.3,5.3,0,0,1,.1,1.3h.2v-1.3l2.4.4a1.9,1.9,0,0,1-.1-.8V119c-.1-.8-.1-1.5-.2-2.2a4.3,4.3,0,0,1-.1-.5v-.4a2.8,2.8,0,0,1-.1-.9.4.4,0,0,1-.1-.3v-.5h0a1.3,1.3,0,0,1-.1-.6c0-.2-.1-.4-.1-.7-.2-2.1,0-3.1.6-3.6h.2l.3-.2h.2l.8-.7h0l1-1a.5.5,0,0,0,.2-.4h.1c.1-.1.2-.2.2-.3l.3-.3.2-.3c0-.1.1-.2.2-.3s.1-.2.2-.3l.3-.5.5-.8a31.8,31.8,0,0,0,1.6-3.2c.5-1.2.9-2.5,1.3-3.7s.1-.2.1-.3.1-.4.1-.6.1-.3.2-.4.1-.6.2-.8.3-1.2.4-1.7,0-.3.1-.4a3,3,0,0,1,.2-1c0-.3.1-.6.1-.9h0a1.1,1.1,0,0,0,.1-.5h0c.3-1.5.4-2.8.6-4s.2-3.2.2-3.9v-.5h0l-.7-1.5h0l-.2-.4h0l-8.3-9.3-1.8-2.1a3.7,3.7,0,0,0-1.4.4h0a6.4,6.4,0,0,0-.2.7c-.1.2-.1.5-.2.7s-.1.5-.1.8-.1.5-.2.8-.3,2-.5,3a4.1,4.1,0,0,1-.1,1.1c0,.7-.1,1.4-.1,2v.3a4.9,4.9,0,0,1-.1,1.2v1.7c0,4.8.5,9.8.8,14.7.1,1.3.1,2.4.1,3.3v.5c0,.3-.1.7-.1.9a.6.6,0,0,1-.1.4h0v.3a.4.4,0,0,0-.1.3.4.4,0,0,0-.1.3c-.1.1-.1.3-.2.4s0,.2-.1.2l-.3.5h0a17.4,17.4,0,0,1-1.5,1.3h0l-.4.3c0,.1,0,.1-.1.1h0l-.2.3h-.2c-.1.1-.1.1-.1.2h-.1v.2h0v.2A1.3,1.3,0,0,0,51.1,107Z"/><path class="cls-10" d="M140.5,80.3s.1,1.8,1.1,2,1.2-.2,1.8.3a3.2,3.2,0,0,1-.3-.9,2.1,2.1,0,0,0-.9-1.8,1,1,0,0,0-1.6.2Z"/><path class="cls-11" d="M140.6,80.1c0,1,.5,1.8,1.2,1.9a1.5,1.5,0,0,0,1.3-.3,2.1,2.1,0,0,0-.9-1.8A1,1,0,0,0,140.6,80.1Z"/><path class="cls-12" d="M140.6,80.1a2.1,2.1,0,0,0,.5,1.5,1.3,1.3,0,0,0,1.3.5l.4-.2h.3v-.8a1.7,1.7,0,0,0-1.1-1.2,1.1,1.1,0,0,0-1.3.4c-.1,0,0,.1,0,0a1.2,1.2,0,0,1,1.1-.4,1.7,1.7,0,0,1,1.2,1c0,.3.1.5.1.7v.2a.1.1,0,0,1-.1.1l-.4.2a1.2,1.2,0,0,1-1.4-.3,2,2,0,0,1-.6-1.5Z"/><path class="cls-13" d="M141.1,80.3a.5.5,0,0,0,.3.5c.2,0,.4-.1.4-.3s0-.4-.2-.4S141.2,80.2,141.1,80.3Z"/><path class="cls-1" d="M145.7,96.7c.4,1.1.3,2.4,1.6,3s5.8.9,7.3-1.6C149.6,102,146.4,97.2,145.7,96.7Z"/><path class="cls-14" d="M150.7,93.8l-.2-.3h-.4c-.8,1-1.2,3,.2,3.3s1.9-.8,1.1-1.5A2.1,2.1,0,0,1,150.7,93.8Z"/><path class="cls-14" d="M153.7,91.9a1.8,1.8,0,0,1,.4,1.7.8.8,0,0,0,1.3.8,12.1,12.1,0,0,0-1.7-2.9A.3.3,0,0,0,153.7,91.9Z"/><path class="cls-5" d="M136,76.3l1-.9a2.9,2.9,0,0,0-.7,1.9l.8-1.4A5.1,5.1,0,0,0,137,79c0-1.8,1.1-2.6,2.6-3.1a4.1,4.1,0,0,0-1.9,2.2,5.1,5.1,0,0,1,2.1-2l.6-.2a5.2,5.2,0,0,0-1.1,1c1.9-1.2,4.2-1.2,5.6-3a5.3,5.3,0,0,0,1.1-4.2c-.1-.5-.1-.9-.2-1.3a5,5,0,0,1,.5,1.3,5.8,5.8,0,0,1-1.3,4.7,6,6,0,0,0,1.6-5.4,16,16,0,0,1,.5,2.1,5.6,5.6,0,0,0-1.3-4.5,4.2,4.2,0,0,0-2.5-1.4,5,5,0,0,1,3.2.6,4.4,4.4,0,0,0-4.7-.6h-.4a3.8,3.8,0,0,1,2.7-1,3.3,3.3,0,0,0-2.9.5l-.7.8a2.5,2.5,0,0,0-.4.7,1.9,1.9,0,0,0-.1,1.5c.7,2.9,2.4,4.8.4,5.4l-1.7.4-.4.2A4.1,4.1,0,0,0,136,76.3Z"/><path class="cls-5" d="M104.8,79.5a4.4,4.4,0,0,1,1.9-1.7h-1.2c0,.1-.1,0,0-.1a4.6,4.6,0,0,1,2.3-.5l.2-.2h0l.3-.3.3-.2.6-.4h.4l.5-.2h1a6,6,0,0,1,4.5-1.5l1.3-.7a9.1,9.1,0,0,0-2.3.1c-.1,0-.1-.1-.1-.2s1.9-.3,2.8-.5a3.7,3.7,0,0,0,1.4-.7l1.2-1.1a7.2,7.2,0,0,1,2-.9,4.1,4.1,0,0,0-3.5,1.4c0,.1-.2-.1-.1-.2a6.3,6.3,0,0,1,5.1-1.7l2.7-1.2c-1.3.3-2.7.9-4,.6s0-.2.1-.2,3.7-1.1,5.4-1l1.6-.5a7.6,7.6,0,0,0-4.8,1.1.1.1,0,1,1-.1-.2c1.7-1,4-1.8,5.9-1.3h.4a5.2,5.2,0,0,1,1.1-1,3.2,3.2,0,0,0-1.7.2h-.1a3.3,3.3,0,0,1,2.2-.3l.2-.2c1.9-1,3.4-.2,5.3.3H140V66s.1.1,0,.1h0l-.3.3h0a.1.1,0,0,1-.1.1l-.9,1.2h0v.2l-.6,1v.2h0a10.9,10.9,0,0,0-1,2.5c0,.1-.1,0-.1,0a4.2,4.2,0,0,1,.6-1.9c-.1.1-.2.2-.2.3a11.5,11.5,0,0,0-1.2,2.5h0a5.9,5.9,0,0,1,.2-1.3l-.7.9a2.3,2.3,0,0,1-.1-1.2c0-.2.1-.4.1-.6l-.5.7a10.2,10.2,0,0,0-.2,3.9c0,.1-.1.1-.1,0a10.6,10.6,0,0,1-.1-3.1c-.1.1-.1.1-.1.2a11,11,0,0,0-.2,1.8h0a20.5,20.5,0,0,0,.5,2.4c.1.1-.1.2-.1.1a11.9,11.9,0,0,1-1.1-4.1,4.4,4.4,0,0,0-.2-1V72a10.7,10.7,0,0,0,.5,4c0,.1-.1.2-.2.1a13.9,13.9,0,0,1-.9-4.6h0a4.1,4.1,0,0,0-.7,1.1l-.3.6c-.6,1.5-.9,3-1.4,4.6a.1.1,0,0,1-.1-.1,19.1,19.1,0,0,1,.6-3.3,10.6,10.6,0,0,0-1.5,5.7h-.1a6.1,6.1,0,0,1,.6-4.5l-.2.3c-.5,1-.9,2.1-1.4,3.1a.1.1,0,0,1-.1-.1,13.8,13.8,0,0,1,1.3-3.9,17.7,17.7,0,0,0-1.5,3.1h-.2a24.4,24.4,0,0,1,1-2.4l-.6.9-1,1.4a11.1,11.1,0,0,1,.2-1.8,8.7,8.7,0,0,0-.8,2.6,12.7,12.7,0,0,0,.1,2c0,.1,0,.1-.1,0s.1.4.2.5-.2.3-.3.1a6.9,6.9,0,0,1-.5-1.3,13.9,13.9,0,0,0,1,3.3c.1.1,0,.1,0,0a7.2,7.2,0,0,1-1.2-2.5,22.9,22.9,0,0,1-.8-2.8l.3,2h0a14.2,14.2,0,0,0,.7,2.2c0,.1-.2.2-.2.1a22.5,22.5,0,0,1-1.4-4.4,4.1,4.1,0,0,0-.1,1.1H124a8.1,8.1,0,0,1,0-2.2,21.2,21.2,0,0,0-2.2,5.1h-.2a31.1,31.1,0,0,1,1.6-4.9,17.2,17.2,0,0,0-2.3,6.2h-.2a16.2,16.2,0,0,1,.4-1.9,6.9,6.9,0,0,0-.6,3.7h-.2a10.8,10.8,0,0,1,.3-4c-.1.4-.3.8-.4,1.2s-.2,0-.2-.1.4-1.1.7-1.7-.5,1-.8,1.4l-.7,1.9a13.3,13.3,0,0,1-.1-1.7l-.3,1a13.8,13.8,0,0,0,.1,3.5h-.2a15,15,0,0,1-.2-2.2,9.9,9.9,0,0,0-.2,1.7v-.3l.4,2.7h-.1a18,18,0,0,1-1-4l-.6-1.2.3,1.9h-.1a15,15,0,0,1-.8-3.2.3.3,0,0,0-.1.2,10.2,10.2,0,0,0-.3,1.1v-.2a10.1,10.1,0,0,0,.9,3.8c.1.1-.1.1-.1.1a9.1,9.1,0,0,1-1.4-4.1c-.1-.5-.1-1.1-.2-1.6a8.8,8.8,0,0,0,.2,1.6c0,.1-.1.2-.2.1a8.6,8.6,0,0,1-.5-2.3,18.8,18.8,0,0,0-2.2,2.6h-.1a7.8,7.8,0,0,1,1-1.5L111.8,83a5,5,0,0,1,.3-1.4,5.9,5.9,0,0,0,.4-.8l-.7.7a22.4,22.4,0,0,0-.9,4.5h-.2a19.3,19.3,0,0,1,.1-2.4h-.1c0-.1.1-.2.1-.3s.1-.4.1-.6l-.6,1.3a12.9,12.9,0,0,0,.1,3.4h-.1a18.3,18.3,0,0,1-.3-4.7v-.6l-.6,3.4h-.2a10.8,10.8,0,0,1,.2-3.1,7.7,7.7,0,0,1,.7-2.9l.3-.9-.7.4a9.1,9.1,0,0,0-3.6,4.4h-.2a8.5,8.5,0,0,1,3-4.6,3.7,3.7,0,0,0-2.3,2,4.2,4.2,0,0,1,.2-1.7,7,7,0,0,0-1.9,2.7c0,.1-.1,0-.1,0s1.5-2.7,2.3-3.5v-.2a8.8,8.8,0,0,0-2.3,1.4Zm7.4-4.1a15.2,15.2,0,0,0,2.7-1.1A6.7,6.7,0,0,0,112.2,75.4Zm8.4-4.6-1.2.9h.2l1.1-.6,1.5-.9Zm11.7-4.9-.8.6,1.6-.3Zm3-.6a3.9,3.9,0,0,0-2.6.4l1.3.3,2.7-.3Z"/><path class="cls-15" d="M116.6,150.5c.5,3.4,3.8,3.1,4.8,1.9A4.3,4.3,0,0,1,116.6,150.5Z"/><path class="cls-15" d="M68.8,124.6a2.9,2.9,0,0,0,4.9,1.9A4.4,4.4,0,0,1,68.8,124.6Z"/><path class="cls-15" d="M55.8,132a2.9,2.9,0,0,0,4.9,1.9A4.4,4.4,0,0,1,55.8,132Z"/><path class="cls-1" d="M67,90.7c.6-1.9,2.2-1.6,3.4-.1,8.9,11.5,18.4,19.6,31.8,23.8a26.3,26.3,0,0,1-1.1-6c0-3-10.8,7.3-26.5-15.2-3.2-4.6-2.5-10.8-4.6-11.5C65.5,80.2,66.8,92.2,67,90.7Z"/><path class="cls-16" d="M107.8,115a19.4,19.4,0,0,0,15.9-7.2l2.1-2.8s-9.5,8.5-16.4,7.1C106.7,111.6,106.5,113.3,107.8,115Z"/><path class="cls-1" d="M109.1,110.6c.6,2.3-.1,2,.3,4.3h1.9a24.9,24.9,0,0,0,3.5-.8l1.7-.7a17.2,17.2,0,0,0,5.5-3.7l1.4-1.5.3-.3,2-2.8c3.7-5.3,3.9-8,4.3-10.3s.8-4.1,4.8-7.8c2,5.2,7,5.4,9.6,7.9l.2.2c-.3-2-1.7-2.5-3.2-3.1a10.5,10.5,0,0,1-5.1-5.5c-.4-1.6-.1-4.8-1.8-5.3a2.4,2.4,0,0,0-1.4.2,8.4,8.4,0,0,0-2.3,1.6,22.7,22.7,0,0,0-3.3,4.2c-1.5,2.2-2,4.5-3,6.9a17.5,17.5,0,0,1-4,6,8.2,8.2,0,0,1-5.5,2.4c-1.8-.1-4-.4-5.4,1.2S108.6,108.7,109.1,110.6Z"/><path class="cls-5" d="M107.1,155.2a6.7,6.7,0,0,1,1.6,3.8c0,1.9-5.2,3-5.2-2.1A3.8,3.8,0,0,0,107.1,155.2Z"/><path class="cls-8" d="M102.2,130.3c0,1.2-.5,1.4-.4,3.3s1,2.2,1.1,4.3.3,3.5.4,6.5a28.1,28.1,0,0,1,.1,3V150c0,.7-.9,1.4-.9,2.9s1.3.9,1,4a4.1,4.1,0,0,0,2.4,1,2.4,2.4,0,0,0,1.8-1c.7-.9-1.2-2.1-1.3-4.7s0-3.2-.1-4.7.1-1.8.1-2.7.3-3.3.6-5.6.9-1.8.9-3.3-.6-2.3-.6-4.9c.1-5.2,2.2-10.9,2.3-16.1a13.1,13.1,0,0,0-1-5.5l-5.3-1.3-2.5-.6s.1,2.6.4,6.4S101.8,124.4,102.2,130.3Z"/><path class="cls-7" d="M103.5,156.9a4.1,4.1,0,0,0,2.4,1,2.4,2.4,0,0,0,1.8-1c.7-.9-1.2-2.1-1.3-4.7s0-3.2-.1-4.7.1-1.8.1-2.7l-3.1-.4a28.1,28.1,0,0,1,.1,3V150c0,.7-.9,1.4-.9,2.9S103.8,153.8,103.5,156.9Z"/><path class="cls-15" d="M103.6,157.8c.5,3.5,3.8,3.2,4.8,1.9A4.2,4.2,0,0,1,103.6,157.8Z"/><path class="cls-3" d="M140.1,65.5a.3.3,0,0,0-.6-.2c-2.3,2.6-2.5,8,.6,8,1.2,0,1.4-.9,1.4-1.7S140.2,67.6,140.1,65.5Z"/><path class="cls-4" d="M139.6,66c-.3,3.3,1.4,6,0,6.1S138.2,67.7,139.6,66Z"/><path class="cls-7" d="M67.8,120.8c.1,1.1,1,1.4,1,2.9h0c3.2.7,3.6-1.7,3.6-1.7l.7,1.1c0-.8-.9-1.5-1.2-3.4s-.4-3.9-.6-5.4-.1-1.4-.2-2L67,111.2c.3,1.3.5,2.7.8,4.2a15.7,15.7,0,0,1,.4,2.3C68.4,118.7,67.6,119.7,67.8,120.8Z"/><path class="cls-7" d="M54.1,119.3c.1.2.1.4.2.6v.3a.9.9,0,0,1,.1.5v.5a.9.9,0,0,1,.1.5c.1.2.1.4.2.6h0v.5a1.3,1.3,0,0,0,.1.6,1.3,1.3,0,0,0,.1.6,4.4,4.4,0,0,0,.2,1c.1.9-.7,2-.5,3.1a5,5,0,0,0,.5,1.3,2.3,2.3,0,0,1,.5,1.6,3,3,0,0,0,3.6-1.7l.7,1v-.2h0l-.5-1-.2-.3h0l-.2-.5h0v-.3a1.9,1.9,0,0,1-.1-.8l-.7-6.2c0-.1-.1-.2-.1-.3V120l-2.4-.4v1.3h-.2a5.3,5.3,0,0,0-.1-1.3h-.3c-.1.9-.1,1.5-.1,1.5l-.6-1.6Z"/><path class="cls-7" d="M55.8,119.6h-.3a5.3,5.3,0,0,1,.1,1.3h.2Z"/><path class="cls-7" d="M54.5,119.4l.6,1.6s0-.6.1-1.5Z"/><path class="cls-17" d="M51.2,106.2h0V106h.1c0-.1,0-.1.1-.2h0v-6c-.5,3.8-.6,5.3-.8,9,0-5.1.5-10.3,1-15.4s-.3-10.4-.1-15.5a43.3,43.3,0,0,1,1.9-12.9c.1-.1.1-.3.2-.4s.1-.3.1-.4l.2-.3a.5.5,0,0,1,.2-.4,4.7,4.7,0,0,1,.5-1c.1-.1.2-.2.2-.3l.5-.6.5-.5.3-.3.2-.2.6-.5.2-.2.5-.3h.2l.3-.2h.6l.4-.2h.4l.6-.2h.6a2,2,0,0,1,1.4.4l1.6-1.1h0l.3-.2.4-.2h.5l.4-.2.5-.2.5-.2h.5l1.9-.4h1.2l.8-.3a21,21,0,0,1,8.4,2.5.1.1,0,0,0,.1.1h.1l.5.3.5.2.4.3.4.4c.2.1.3.1.4.3h.1l.4.3.7.6h0l.6.6h.2l.5.6.7.7c.1.1.3.2.4.4l1.2,1.4.4.4c1,1.1,2,2.3,3.1,3.4l.3.3.6.6.3.3.7.6h0a11.9,11.9,0,0,1,1.8,1.5h.1l1.9,1.3.4.3,2.4,1.2A23.4,23.4,0,0,0,108,77l.3-.3.3-.2.6-.4h.4l.5-.2h1a6,6,0,0,1,4.5-1.5l1.3-.7a9.1,9.1,0,0,0-2.3.1c-.1,0-.1-.1-.1-.2s1.9-.3,2.8-.5a3.7,3.7,0,0,0,1.4-.7l1.2-1.1a7.2,7.2,0,0,1,2-.9,4.1,4.1,0,0,0-3.5,1.4c0,.1-.2-.1-.1-.2a6.3,6.3,0,0,1,5.1-1.7l2.7-1.2c-1.3.3-2.7.9-4,.6s0-.2.1-.2,3.7-1.1,5.4-1l1.6-.5a7.6,7.6,0,0,0-4.8,1.1.1.1,0,1,1-.1-.2c1.7-1,4-1.8,5.9-1.3h.4a5.2,5.2,0,0,1,1.1-1,3.2,3.2,0,0,0-1.7.2h-.1a3.3,3.3,0,0,1,2.2-.3l.2-.2c1.9-1,3.4-.2,5.3.3h1.6l.3-.4a.3.3,0,0,1,.6.2v.3c0,.1.1.2.1.3h.1l.2-.3.7-.8a3.2,3.2,0,0,1,2.8-.5,3.7,3.7,0,0,0-2.6,1h1.3c0-.1.1-.1.2-.1a4.5,4.5,0,0,1,2.3.3h0c.1-.1.1-.3.2-.5s.1-.4.1-.6a1.1,1.1,0,0,0,.1-.5h0a4.3,4.3,0,0,1,.1-.5h0v-.4a.3.3,0,0,1,.6-.2,5.7,5.7,0,0,1,.8,1.3l.2.4a5.8,5.8,0,0,1,.7,2.3,2.5,2.5,0,0,1,.1.8v.4c0,.2,0,.3-.1.4h0V68h-.1a3090632051214.7,3090632051214.7,0,0,1-.2.6h0l-.2.2-.2.3h-.2c0,.3.1.5.1.7a.6.6,0,0,1-.1.4h0l.3.3h.1c0,.2.1.2.2.3,1.7,2.1,2.6,3.3,2.6,6.8a28.7,28.7,0,0,0,2.6,12l.8,1.4h.1a.1.1,0,0,0,.1.1h0c0,.1.1.1.1.2h0a.4.4,0,0,1,.1.3l.3.3h0l.3.5a.3.3,0,0,1,.1.2h.1v.2h.1l.2.4a.1.1,0,0,0,.1.1h0a5.7,5.7,0,0,1-.8,3.6h-.1c0,.1,0,.1-.1.1h-.1a.1.1,0,0,0-.1.1h-.1l-.2.2h-.3a.1.1,0,0,0-.1.1h-5c-.1,0-.2,0-.2-.1h-1c-.1,0-.2,0-.2-.1l-.4-.3h0l-.2-.3h-.1c0-.1,0-.2-.1-.2v-.2h-.1c-.1-.2-.1-.3-.2-.4h0c0-.2-.1-.4-.1-.6a.4.4,0,0,1-.1-.3h0a.4.4,0,0,1-.1-.3h0a5,5,0,0,0-1.1-1.7l-.2-.2c-2.6-2.5-7.6-2.7-9.6-7.9-.8.7-1.4,1.4-2,2h0l-.2.2c-.1.1-.2.2-.2.3s-.3.3-.4.4l-.3.4-.2.3c-.1.2-.2.3-.2.4s-.2.2-.2.3l-.2.3h-.1a.4.4,0,0,1-.1.3c0,.1-.1.2-.1.3a5,5,0,0,0-.4,1.3c0,.1-.1.2-.1.4s-.1.5-.1.8-.1.5-.2.8h0c0,.3-.1.6-.1.9a1.3,1.3,0,0,0-.1.6c-.1.1-.1.3-.2.5a4.3,4.3,0,0,0-.1.5c-.1.2-.1.4-.2.6a6.9,6.9,0,0,1-.4,1l-.3.6c0,.2-.1.3-.2.5h0l-.2.3-.3.5c0,.1,0,.2-.1.2a3,3,0,0,1-.4.8l-1.5,2.3h-.1a.8.8,0,0,1-.2.4h-.1l-.2.3H125a.2.2,0,0,1-.2.2h0a.1.1,0,0,1-.1.1h-.1l-.2.3h0a.1.1,0,0,1-.1.1v.2h0v.2h-.3v.2h-.1a.1.1,0,0,0-.1.1h-.4a.1.1,0,0,1-.1.1v.2l-.4.4h-.1a1.7,1.7,0,0,1-.1.7,2.2,2.2,0,0,1-.1.8v.4a1.7,1.7,0,0,0-.1.7c-.1.2-.1.5-.2.8a2.9,2.9,0,0,1-.2.9v.3c-.1.4-.1.7-.2,1s-.4,1.8-.5,2.6a4.3,4.3,0,0,0-.2,1.1c-.1.3-.1.7-.2,1a3.8,3.8,0,0,0-.1,1,1.3,1.3,0,0,0-.1.6,2.2,2.2,0,0,0-.1.8,1.5,1.5,0,0,1-.1.7h0v.9c0,2.5.7,2.4.6,4.9s-.7,1.9-.9,3.2-.1.4-.1.6h0v.3a1.1,1.1,0,0,0-.1.5c0,.2-.1.4-.1.6v.4a.9.9,0,0,0-.1.5,1.3,1.3,0,0,1-.1.6v1a.4.4,0,0,0-.1.3v1.1h0a1.5,1.5,0,0,1-.1.7v2.4a8.6,8.6,0,0,0,.1,1.6v2.7c0,.1.1.2.1.3h0a18543792307169.5,18543792307169.5,0,0,0,.3.9c0,.2.1.3.1.4l.3.5a.8.8,0,0,0,.2.4l.3.6v.2a.1.1,0,0,1,.1.1v.3l.2.3c.1.3.3.7.4,1.1a.6.6,0,0,0,.1.4v.4h0v.3h0v.4h-.1c0,.1-.1.1-.1.2h-3.5l-.3-.2h-.1l-.2-.2c0-.1-.1-.1-.1-.2l-.2-.3h-.1c0-.1,0-.2-.1-.2v-1a3.1,3.1,0,0,1-.1-1c.3-3.1-1-2.4-1-3.9s.9-2.3.9-3v-2.2h0v-.8h0v-.4h0v-1.2a1.3,1.3,0,0,1-.1-.6v-.5h0v-.9a2.5,2.5,0,0,1-.1-.8v-.2h0V133c-.1-.7-.1-1.3-.2-1.9v-.6c-.1-2.1-.9-2.3-1.1-4.2s.4-2.2.4-3.4-.1-1.4-.2-2a4.1,4.1,0,0,0-.1-1.1c0-.8-.1-1.7-.1-2.5s-.1-.7-.1-1.1h0a7.6,7.6,0,0,0-.1-1.5V114h-.3c-.1,0-.1,0-.1.1h-4.6c-.1,5.3-2.2,10.9-2.3,16.1,0,2.6.7,2.4.6,4.9s-.7,2-.9,3.3-.4,2.9-.5,4.1v.5a4.3,4.3,0,0,1-.1.5v1.9c0,.2-.1.4-.1.6v.7c.1,1.5.1,3,.1,4.7a.6.6,0,0,0,.1.4,1.7,1.7,0,0,0,.1.7v.4a.4.4,0,0,0,.1.3v.2h0v.2l.6,1.1a.4.4,0,0,1,.1.3h.1v.2h.1l.2.3c0,.1.1.2.1.3l.2.3a.4.4,0,0,0,.1.3h0c0,.2.1.3.1.5v.3h0v.3h.1v.3c0,.1,0,.2-.1.2v.2h0v.2a.3.3,0,0,0-.1.2h-.6c0,.1-.1.1-.2.1H105c0-.1,0-.1-.1-.1h-.7v-.2h0l-.2-.3h0c-.1-.1-.1-.1-.1-.2h-.2V158h0a2.5,2.5,0,0,1-.1-.9h0c.3-3.1-1-2.4-1-4s.9-2.2.9-2.9v-3.5h0v-1.1a1.3,1.3,0,0,0-.1-.6v-1.9a2.8,2.8,0,0,1-.1-.9v-.2a2,2,0,0,0-.1-.7c0-.7-.1-1.3-.1-1.9v-.4a2.5,2.5,0,0,1-.1-.8c-.1-2.1-.9-2.3-1.1-4.3s.4-2.1.4-3.3-.1-1.7-.2-2.5-.1-1-.1-1.4v-.5c0-.4-.1-.8-.1-1.1-.1-1.9-.2-3.7-.3-5.3s-.1-.7-.1-1v-1c0-.3-.1-.6-.1-.9s-.1-1.7-.1-2.6h0a56.6,56.6,0,0,1-15.5-7.9l-.9-.7-.8-.6-.7-.6-.8-.6-.9-.9-.4-.3-.9-.8-.6-.6h-.1l-.6-.6-.7-.7-1.4-1.5a6,6,0,0,1-.8-.8l-.6-.7h-.1l-.6,1-.7,1-.3.4-.8.9-.3.3-1,.9-.3.3-.5.4c-.6.4-.8,1.4-.6,3.6s.6,5.3,1,8.8c.2,1.5.4,3.2.6,5.4a.4.4,0,0,1,.1.3,1.4,1.4,0,0,0,.2.7v.2l.3.7c0,.1.1.1.1.2a.4.4,0,0,1,.1.3c.1,0,.1.1.1.2l.2.3c0,.1.1.2.1.3h0l.2.3c0,.1.1.2.1.3s.1.1.1.2a6181264102406.7,6181264102406.7,0,0,0,.2.6.3.3,0,0,1,.1.2,2.2,2.2,0,0,1,.1.8v.6a.1.1,0,0,1-.1.1h0a.1.1,0,0,1-.1.1h-.4c0,.1,0,.1-.1.1H71.4a.1.1,0,0,0-.1-.1H69.8v-.2h-.3c-.1,0-.1-.1-.1-.2s-.1,0-.1-.1H69v-.2h-.2v-.8h0c0-1.5-.9-1.8-1-2.9s.6-2.1.4-3.1a15.7,15.7,0,0,0-.4-2.3c-1.5-8.4-3.2-12.4-3.6-14.8a31.8,31.8,0,0,1-1.6,3.2l-.5.8-.3.5c-.1.1-.2.2-.2.3s-.2.2-.2.3l-.2.3-.3.3c0,.1-.1.2-.2.3h-.1a.5.5,0,0,1-.2.4l-1,1h0a7.4,7.4,0,0,1-.4,1.4,12.1,12.1,0,0,0-.5,1.8c-.1.2-.3.1-.3,0a6.9,6.9,0,0,0,.2-1.3c.1-.4.1-.8.2-1.2h-.2l-.3.2v.4a1.5,1.5,0,0,1-.1.7,14.9,14.9,0,0,1-.3,2.5v.2c-.1.3-.1.6-.2.9v.4h0v.5a.4.4,0,0,0,.1.3,2.8,2.8,0,0,0,.1.9v.4a4.3,4.3,0,0,0,.1.5c.1.7.1,1.4.2,2.2v.2a1.9,1.9,0,0,0,.1.8v.6c0,.1.1.2.1.3l.7,6.2a1.9,1.9,0,0,0,.1.8v.3h0l.2.5h0l.2.3.5,1h0v.2h0l.2.3.3.7.2.6a.6.6,0,0,0,.1.4v1.3h-.5c0,.1,0,.1-.1.1H57.1a.1.1,0,0,0-.1-.1h0l-.3-.3h-.1v-.2h-.3v-.2h-.1v-.2h-.2a.4.4,0,0,0-.1-.3h0v-.9a2.3,2.3,0,0,0-.5-1.6,5,5,0,0,1-.5-1.3c-.2-1.1.6-2.2.5-3.1a4.4,4.4,0,0,1-.2-1,1.3,1.3,0,0,1-.1-.6,1.3,1.3,0,0,1-.1-.6v-.5h0c-.1-.2-.1-.4-.2-.6a.9.9,0,0,0-.1-.5v-.5a.9.9,0,0,0-.1-.5v-.3c-.1-.2-.1-.4-.2-.6v-.2a1.3,1.3,0,0,1-.1-.6.4.4,0,0,1-.1-.3,2.9,2.9,0,0,1-.2-.9.4.4,0,0,1-.1-.3v-.3c0-.2-.1-.4-.1-.6v-.2c0,1-.1,2-.1,3a.1.1,0,0,1-.3,0c.1-1.5,0-3,0-4.5h0v-.2l-.2-.5v-.2a3.1,3.1,0,0,1-.2-.8l-.3-.8a.4.4,0,0,0-.1-.3.8.8,0,0,0-.1-.4,7.6,7.6,0,0,1-.1,1.5,13.4,13.4,0,0,1-.1,2,.1.1,0,1,1-.3,0v-.4c0-.4-.1-.8-.1-1.3v-.5h0v-3.6h0a.4.4,0,0,1-.1-.3,2.8,2.8,0,0,1-.1-.9h0a.8.8,0,0,1-.1-.4V107a1.3,1.3,0,0,1,.1-.6Zm95.5-36.5h0c.1.1.2.2.2.3s-.1-.3-.1-.5Zm-34.5,5.7a15.2,15.2,0,0,0,2.7-1.1A6.7,6.7,0,0,0,112.2,75.4Zm8.4-4.6-1.2.9h.2l1.1-.6,1.5-.9Zm11.7-4.9-.8.6,1.6-.3Zm3-.6a3.9,3.9,0,0,0-2.6.4l1.3.3,2.7-.3Zm9.7,0h-.4a.1.1,0,0,0,.1.1h0l.3.2a1.4,1.4,0,0,1,.2-.6H145ZM65.6,96.8h.1l.3-.2h.1l.6-.5v-.2a.1.1,0,0,0,.1-.1v-.2c.1,0,.1-.1.1-.2l.2-.3c0-.2.1-.3.1-.4s.1-.1.1-.2v-.2c0-.1.1-.2.1-.3a17.3,17.3,0,0,0,.2-3.5v-.7c-.1,0-.1,0-.1.1h-.2V90c-.1.1-.1.1-.1.2h-.1c0,.1-.1.1-.1.2h0v.2c0,.1,0,.2-.1.1s-.1.6-.1.9a3,3,0,0,0-.2,1c-.1.1-.1.2-.1.4s-.3,1.1-.4,1.7-.1.5-.2.8-.1.3-.2.4-.1.4-.1.6-.1.2-.1.3h.1Z"/><path class="cls-18" d="M149.2,78.7c0-.1-.1-.2-.3-.4s-3.2-1.5-3.7-.1-1.1,4.5.6,5.7,4,2.2,4.6,4.5,1.1,4,1.7,2.3-1.2-4-1.7-5.1-1.7-5.2-1.2-5.7"/><path class="cls-19" d="M114.6,114.6v-1.2c.1,0,3.6-.3,8.2-5.4l.8.8C118.6,114.3,114.8,114.6,114.6,114.6Z"/><path class="cls-19" d="M75.1,97.1c-5.1-4-7.8-7.1-8-8.8a1.3,1.3,0,0,1,.3-.9l.9.8h0s-.2,1.8,7.5,8.1Z"/><path class="cls-19" d="M63.6,103.3l-1.1-.5a78.5,78.5,0,0,0,2.8-7.4l1.2.3A59.7,59.7,0,0,1,63.6,103.3Z"/></g></svg>