<svg xmlns="http://www.w3.org/2000/svg" xmlns:xlink="http://www.w3.org/1999/xlink" viewBox="0 0 200 200"><defs><style>.cls-1,.cls-13{fill:none;}.cls-2{fill:#e0b886;}.cls-3{fill:#877c70;}.cls-4{fill:#6b5e4d;}.cls-5{fill:#cea476;}.cls-6{fill:#fff1e1;}.cls-7{fill:#fcdaad;}.cls-8{fill:#c1955b;}.cls-9{fill:#68553e;}.cls-10{opacity:0.39;}.cls-11{clip-path:url(#clip-path);}.cls-12{fill:#fff;}.cls-13{stroke:#4d4d4d;stroke-miterlimit:10;stroke-width:0.29px;}</style><clipPath id="clip-path"><rect id="SVGID" class="cls-1" x="74" y="76.2" width="0.6" height="0.58"/></clipPath></defs><g id="Goat_01"><path class="cls-2" d="M87.3,78.6c-5.6,2.2-3.9-2.7-6.7-3.4s-.6-1.6.8-1.8c3.7-.7,4.1,3.1,6.4,4.3.6.3.2.6-.5.9"/><path class="cls-3" d="M117.1,127.6a2.2,2.2,0,0,0,.5.8,2.5,2.5,0,0,0,3.5.4l-.6-.6-.2-.2c-.8-1.6-1.8-1.4-2.5-1l.3.4Z"/><path class="cls-4" d="M117.1,127.6a2.2,2.2,0,0,0,.5.8,2.3,2.3,0,0,0,1.2.2,3.3,3.3,0,0,0,1.7-.4l-.2-.2c-.8-1.6-1.8-1.4-2.5-1l.3.4Z"/><path class="cls-5" d="M119.1,127.1c-.1.6.4,1.7,2,1.7s1.2-.8,1.5-1.7a15,15,0,0,0,.6-2.9,8.2,8.2,0,0,1,1.4-3.1c2.2-2.7-1.5-2.8-.1-9.7a25.9,25.9,0,0,0,.3-9.5,14.1,14.1,0,0,0-2.6-6.4c-.6-.8-1.4-.5-2.1.7a15.7,15.7,0,0,0-1.5,6.4c-1.1,12.1,2,13.8,2.8,17.3a9.1,9.1,0,0,1-.7,4.4c-.6,1.6-1.4,1.9-1.6,2.8"/><path class="cls-3" d="M111.3,133.2l.8.8c-1,.9-3.5.7-4-1.2l1-.2-.3-.4c.7-.4,1.7-.5,2.5,1"/><path class="cls-4" d="M108.1,132.8a2,2,0,0,0,.4.8,2.8,2.8,0,0,0,1.3.3,3.4,3.4,0,0,0,1.7-.5l-.2-.2c-.8-1.5-1.8-1.4-2.5-1l.3.4Z"/><path class="cls-3" d="M90.6,112.5l.8.8c-1,.9-3.5.7-4-1.2l.9-.2-.3-.4c.8-.4,1.8-.5,2.6,1"/><path class="cls-4" d="M87.4,112.1a2,2,0,0,0,.4.8,2.8,2.8,0,0,0,1.3.3,3.4,3.4,0,0,0,1.7-.5l-.2-.2c-.8-1.5-1.8-1.4-2.6-1l.3.4Z"/><path class="cls-3" d="M82.8,117l.8.9a2.6,2.6,0,0,1-4-1.3l1-.2-.3-.4c.7-.4,1.7-.5,2.5,1"/><path class="cls-4" d="M79.6,116.6a2,2,0,0,0,.4.8,2.8,2.8,0,0,0,1.3.3,3.4,3.4,0,0,0,1.7-.5l-.2-.2c-.8-1.5-1.8-1.4-2.5-1l.3.4Z"/><path class="cls-5" d="M93.1,90.2s-.6,4.5-.7,9.2c0,2.4.3,3.4.3,4.5s-.7.7-.7,2.7.5,3.5.3,4.1-.7.6-.8,1.1.5.8-.1,1.5-1.7.2-2.3-.8a.9.9,0,0,1,.1-1.1,2.6,2.6,0,0,0,.4-1.4,13.4,13.4,0,0,0-.3-5.9c-.2-.7-.6-.8-.8-1.8s.3-1.3.2-2.2c-.7-5.8-1.6-12-1.6-12Z"/><path class="cls-6" d="M80.9,104.6c.1.9-.3,1.5-.2,2.2s.6,1.1.8,1.8a15.2,15.2,0,0,1,.4,5.9,3.8,3.8,0,0,1-.5,1.4.9.9,0,0,0-.1,1.1c.6,1,2.3.9,2.3.9s0-.9.1-1.6.6-.4.8-1.1-.2-1.2-.2-4.1.5-1.3.6-2.7-.3-2.1-.3-4.5v-.2c0-1.1.1-2.2.2-3.2a26.9,26.9,0,0,1,.2-3.1c.2-1.6.3-2.7.3-2.7l-1.1-.4-1.8-.6-2.8-2.6a1,1,0,0,0,.1.4c.1,2.1,1.1,12,1.2,13.1"/><path class="cls-6" d="M69.9,79.3c-.1,1.3,1.8,2.4,2.8,2.5a12.5,12.5,0,0,0,3.6-.5c.6.7,1.2,2.6,1.9,4.9s.9,3.5,1.5,5.3,2,5.7,3.6,7.4a11,11,0,0,0,1.5,1.6c6.7,6.4,17.3,10.9,24.9,11.4a58.8,58.8,0,0,0,2.9,12.2c.9,2.7-1.8,5.8-2.5,8.1a1.3,1.3,0,0,0,.1.9,1.4,1.4,0,0,0,.8.7,1.8,1.8,0,0,0,1.1.2c.3-1.4,1.2-.8,1.5-1.6a18.8,18.8,0,0,0,.6-2.9,8.1,8.1,0,0,1,1.4-3.2c2.2-2.7-1.8-3.8,1.6-10,4.7-8.6,7.5-17.2,5-20.8s-10.6-4.8-17.5-6c-9-1.7-17.8-8-19.7-10.7l-1.5-2.6c-1.3-2.1-2.5-4.1-4.6-3.8s-8.1,3.8-8.9,6.3a.4.4,0,0,1-.1.3v.3"/><path class="cls-7" d="M120.1,96.2a25.2,25.2,0,0,0,1.3,4.7c.3.6.3.6.9.7s1.5-.2,2.5.3a14.1,14.1,0,0,0-2.6-6.4c-.6-.8-1.4-.5-2.1.7"/><path class="cls-2" d="M121.6,103.5a13.8,13.8,0,0,1-.8,5.2c1.9-1.9,2.7-3.7,2.7-5.3a4.8,4.8,0,0,0-.8-2.6s-1.1.6-1.1,2.7"/><path class="cls-2" d="M84.7,99.9a1.3,1.3,0,0,0,.1.6c6.7,6.4,17.3,10.9,24.9,11.4-.6-4.9,1.7-5.9.8-7.6s-4.7,4.4-12.3,1.9S87,96.8,85.9,96s-1.2,3.9-1.2,3.9"/><path class="cls-8" d="M128.7,103h.6c-.9.4-2.6.9-4-1.4a1,1,0,0,0-.5-.6,7.4,7.4,0,0,0-3.1-.7c-1.1.2-.1-1.4.6-1.5a6.6,6.6,0,0,0,3.1-1.6c-.1.1-.1.4-.1.5a2.1,2.1,0,0,1,1.9-.4.7.7,0,0,0-.4.5,1.7,1.7,0,0,1,1.6,1.3h-.7c.1.7.2,2.2,1,2.4s-.8,0-.8,0,1,1.1,2.2.8a3,3,0,0,1-1.4.7"/><path class="cls-4" d="M81.6,73.7l-.8-.3c-1-.6-.3-1.3.7-1.9a.6.6,0,0,1,.9.6c-.1.8-.3,1.9-.8,1.6"/><path class="cls-4" d="M79.8,75.5l-.7-.4c-1-.6-.3-1.3.7-1.8a.6.6,0,0,1,.9.5c-.1.9-.3,2-.9,1.7"/><path class="cls-2" d="M75.5,84.3c5.7-2.1,1.2-4.6,2.7-7s-.7-1.6-1.8-.8c-3.2,2-.9,5-1.8,7.5-.2.6.2.6.9.3"/><path class="cls-9" d="M69.9,79.3l.6.5c.1.1.2-.1.2-.2l-.7-.9a.4.4,0,0,1-.1.3v.3"/><path class="cls-9" d="M75.3,76.3c.1.2-.2.5-.6.6s-.8,0-.9-.2.2-.4.7-.6.8,0,.8.2"/><g class="cls-10"><g class="cls-11"><path class="cls-12" d="M74,76.5a.3.3,0,0,0,.3.3.3.3,0,0,0,.3-.3.5.5,0,0,0-.3-.3.3.3,0,0,0-.3.3"/></g></g><path class="cls-13" d="M69.9,79a.4.4,0,0,0,.1-.3c.8-2.5,5.8-5.9,8.9-6.3a2.5,2.5,0,0,1,1.5.2c.1-.4.6-.8,1.1-1.1a.6.6,0,0,1,.9.6,4.3,4.3,0,0,1-.2,1.2c3,0,3.4,3.3,5.6,4.4.6.3.2.6-.5.9a6.4,6.4,0,0,1-2,.5c2.3,2.8,10.7,8.8,19.4,10.4,6.9,1.2,14.1,1,17.5,6h0a13.6,13.6,0,0,1,1.6,2.9,9.1,9.1,0,0,0,1.6-1.1c-.1.1-.1.4-.1.5a2.1,2.1,0,0,1,1.9-.4.7.7,0,0,0-.4.5,1.7,1.7,0,0,1,1.6,1.3h-.7c.1.7.2,2.2,1,2.4s-.8,0-.8,0,1,1.1,2.2.8a3,3,0,0,1-1.4.7h.6c-.9.4-2.6.9-4-1.4a1,1,0,0,0-.5-.6h-.2c.1.3.1.6.2.9a25.9,25.9,0,0,1-.3,9.5c-1.4,6.9,2.3,7,.1,9.7a8.2,8.2,0,0,0-1.4,3.1,15,15,0,0,1-.6,2.9c-.3.9-1.2.3-1.5,1.7h0a2.5,2.5,0,0,1-3.5-.4,2.2,2.2,0,0,1-.5-.8l1-.2-.3-.4a1.4,1.4,0,0,1,1.4-.2,26.5,26.5,0,0,0,1.5-2.5,9.1,9.1,0,0,0,.7-4.4c-.4-2.1-1.7-3.5-2.5-6.9-.5,1.1-1.1,2.2-1.7,3.3-3.4,6.2.6,7.3-1.6,10a8.1,8.1,0,0,0-1.4,3.2,18.8,18.8,0,0,1-.6,2.9c-.3.8-1.2.2-1.5,1.6h0a2.7,2.7,0,0,1-3.6-.4h0l-.2-.3h0l-.2-.4h0l1-.2H109c-.1-.1-.2-.2-.2-.3a1.7,1.7,0,0,1,1.4-.2c.7-2.3,3.2-5.2,2.4-7.9a58.8,58.8,0,0,1-2.9-12.2h0c-5.2-.4-11.8-2.6-17.6-6,0,.2-.1.4-.1.7,0,2.9.5,3.5.3,4.1s-.7.6-.8,1.1.5.8-.1,1.5h0a2.7,2.7,0,0,1-3.6-.4h0l-.2-.3h-.1c0-.1-.1-.3-.1-.4h0l.9-.2h0a.1.1,0,0,0-.1-.1l-.2-.3a1.7,1.7,0,0,1,1.2-.2,2.8,2.8,0,0,0,.4-1.3,13.4,13.4,0,0,0-.3-5.9,32.3,32.3,0,0,1-4.5-3.6h0c-.1,1-.2,2.1-.2,3.2v.2c0,2.4.3,3.4.3,4.5s-.6.7-.6,2.7.4,3.5.2,4.1-.7.6-.8,1.1.5.8-.1,1.6h0a2.7,2.7,0,0,1-3.6-.5h0l-.2-.3h-.1c0-.1-.1-.3-.1-.4h0l1-.2h-.1l-.2-.3a1.4,1.4,0,0,1,1.1-.2,5,5,0,0,0,.5-1.3,15.2,15.2,0,0,0-.4-5.9c-.2-.7-.6-.8-.8-1.8s.3-1.3.2-2.2-1.1-11-1.2-13.1h0c-.6-1.8-1.1-3.6-1.5-5.3s-.6-2-.9-2.8a7.4,7.4,0,0,1-1.8.9c-.7.3-1.1.3-.9-.3a4.9,4.9,0,0,0,.2-2.4,6,6,0,0,1-2.1.2c-1-.1-2.9-1.2-2.8-2.5Z"/></g></svg>