<svg xmlns="http://www.w3.org/2000/svg" viewBox="0 0 200 200"><defs><style>.cls-1{fill:#f9a01e;}.cls-2{fill:#db970f;}.cls-3{fill:#ffc271;}.cls-4{fill:#f68b1f;}.cls-5{fill:#fbb51c;}.cls-6{fill:#e59f13;}.cls-7{fill:#fff5bd;}.cls-8{fill:#dbcc89;}.cls-9{fill:#f9e587;}.cls-10{fill:#ffc44d;}.cls-11{fill:#e65447;}.cls-12{fill:#d84841;}.cls-13{fill:#fff;}.cls-14{fill:#282625;}.cls-15{fill:#82651e;}</style></defs><g id="Hen_02"><path class="cls-1" d="M104.6,115.1a9.2,9.2,0,0,0,.1,1.5,5.6,5.6,0,0,0,.1.7,4.4,4.4,0,0,0-1.8-.3c-.4,0,1,.4,1.4.7s-2.5,1.9-1.8,1.6,2.3-1.4,2.6-1.3a7.2,7.2,0,0,1,1.7,1.7c.3.5-.5-1.4-1-2a8.8,8.8,0,0,1,1.8-.6,5.1,5.1,0,0,0-2.3.2,5.6,5.6,0,0,1-.2-1c-.1-.4-.2-1.8-.2-1.8Z"/><path class="cls-2" d="M105.9,117.7l1.8-.6-2.1.4s-.2-.1-.2-.2h0a5.6,5.6,0,0,1-.2-1,5.7,5.7,0,0,1-.1-1.4l-.3.4a9.2,9.2,0,0,0,.1,1.5,5.6,5.6,0,0,0,.1.7,6.3,6.3,0,0,0-1.7-.3,2.8,2.8,0,0,1,1.1.5h0l-1.9,1.7a16.4,16.4,0,0,1,2.7-1.5l1.3,1.2a2.5,2.5,0,0,1,.4.7A7.7,7.7,0,0,0,105.9,117.7Z"/><path class="cls-2" d="M104,112.9l.4,3a.7.7,0,0,0,.8,0l-.3-3.3Z"/><path class="cls-1" d="M104,112.9l.3,1.8c.3,0,.5,0,.8-.5l-.2-1.6Z"/><path class="cls-3" d="M102.9,107.8a3.4,3.4,0,0,0-1.4,2.4,6.3,6.3,0,0,0,1.6,3s.3.7.5.8a1.5,1.5,0,0,0,1.3,0c.6-.3.6-.4.7-.6a12.1,12.1,0,0,0,1.1-3.6C106.6,109.2,105.5,107.9,102.9,107.8Z"/><path class="cls-4" d="M103.4,107.2a3.2,3.2,0,0,0-1.2,2.3,4.4,4.4,0,0,0,1.1,3,3.3,3.3,0,0,0,1.6.7,1.9,1.9,0,0,0,1.3-.6,11.9,11.9,0,0,0,.3-3.6C106.5,108.4,105.6,107.2,103.4,107.2Z"/><path class="cls-1" d="M99.1,114.4s-.1,1-.1,1.3v.6a5.9,5.9,0,0,0-1.5-.5c-.4-.1.8.5,1.1.8s-2.5,1.3-1.8,1.1,2.1-.8,2.4-.7a7.4,7.4,0,0,1,1.2,1.8c.2.4-.2-1.3-.5-1.9a7.4,7.4,0,0,1,1.6-.3,6.9,6.9,0,0,0-2-.2s-.1-.6-.1-.8.2-1.6.2-1.6Z"/><path class="cls-2" d="M99.9,116.9l1.6-.3H99.6v-.2h0s-.1-.6-.1-.8.1-.9.2-1.3l-.3.3a12.3,12.3,0,0,0-.2,1.3v.6a4.6,4.6,0,0,0-1.4-.5l.9.6h-.1l-1.8,1.1c.8-.2,2.4-.9,2.5-.8l1,1.3c.1.2.1.4.2.6A6.7,6.7,0,0,0,99.9,116.9Z"/><path class="cls-2" d="M99,112.4v2.7a.5.5,0,0,0,.6.1l.3-2.9Z"/><path class="cls-1" d="M99,112.4V114c.3.1.5.1.8-.3v-1.4Z"/><path class="cls-3" d="M98.9,107.9a2.6,2.6,0,0,0-1.6,1.7,5.2,5.2,0,0,0,.8,2.9s.2.7.4.8a1.2,1.2,0,0,0,1.1.2c.5-.2.6-.2.7-.4a10.1,10.1,0,0,0,1.5-2.9C101.8,109.6,101.1,108.4,98.9,107.9Z"/><path class="cls-4" d="M98.8,107.1a2.8,2.8,0,0,0-1.6,1.8,3.8,3.8,0,0,0,.8,2.8,3.1,3.1,0,0,0,1.5,1c.7.1,1.3,0,1.4-.2a7.9,7.9,0,0,0,.8-3.1C101.7,108.9,101,107.6,98.8,107.1Z"/><path class="cls-5" d="M109.6,88.9a1.7,1.7,0,0,1,0-1.7c.3-.4,1.9.1,2.3.3a5.2,5.2,0,0,0-1.6,1.2C109.9,89.3,109.7,89,109.6,88.9Z"/><path class="cls-6" d="M109.6,88.9c.1.1.3.4.7-.2a5.2,5.2,0,0,1,1.6-1.2h0c-.4-.1-1,.2-1.5.3a2.3,2.3,0,0,0-.9.8C109.5,88.7,109.6,88.8,109.6,88.9Z"/><path class="cls-7" d="M101.4,94.5h0c-2.7,1.2-7.4,3.4-9.5,6.5,0,0-3.3-2.3-3.6,0s-2.1,12.9,11.9,11.1c4.1-.6,11-2.7,10.5-12.9l-1.2-4.5s-.9-2.2-.4-2.9,2.4-3.6.4-5.7-5.7,1.4-6.8,3.9A40.3,40.3,0,0,0,101.4,94.5Z"/><path class="cls-8" d="M100.8,112.3c-9,1.1-10.2-1.9-11.8-5.9,2.4.4,5.1,4.6,10.4,3.7s6.4-2.7,9-4.9,1.1-7.3,1.2-10.3c0,0,.9,3.2,1.1,4.3C112.2,109.5,104.7,111.8,100.8,112.3Z"/><path class="cls-9" d="M105.9,97.7s-5.5.2-9.4,2.2-3.4,3.9-3.4,3.9,0,1.1,1.4.5a5,5,0,0,0,2.4,2.3,8.7,8.7,0,0,0,10.4-6A2.3,2.3,0,0,0,105.9,97.7Z"/><path class="cls-10" d="M106.4,97.7a8,8,0,0,0-2.6.1s-10.1,1.7-9.2,4.6c.2.7,1.6,1,2.7.8s0,1.8,1.7,2.2,5.2.7,8.2-4.4l.2-.5C107.6,99.8,107.7,98.1,106.4,97.7Z"/><path class="cls-11" d="M107.9,85.6c.3,0,.8-.1.6-.4a2.8,2.8,0,0,0-2.3-1.2c-.5.1-.6.7-.6.7s-.5.1-.5.8-.3.5-.5.8,0,.8.2.9.7-.4,1.4-.9A4.7,4.7,0,0,1,107.9,85.6Z"/><path class="cls-12" d="M106.2,86.3a4.7,4.7,0,0,1,1.7-.7c.3,0,.8-.1.6-.4a1.5,1.5,0,0,0-.7-.7,1.7,1.7,0,0,0-1-.1.7.7,0,0,0-.6.7.8.8,0,0,0-.6.9,2.6,2.6,0,0,1-.5.9c-.1.1-.2.2-.2.3S105.5,86.7,106.2,86.3Z"/><ellipse class="cls-13" cx="109.1" cy="87.2" rx="0.4" ry="0.6"/><ellipse class="cls-14" cx="109.1" cy="87.2" rx="0.2" ry="0.3"/><ellipse class="cls-13" cx="109.2" cy="87" rx="0.1" ry="0.1" transform="translate(-15.1 150.5) rotate(-65.6)"/><path class="cls-15" d="M106.5,84.1h0a2.8,2.8,0,0,1,1.2.5h.6c0,.1.1.1.1.2h.1l.9.8a2.4,2.4,0,0,1,.6.9h.2l1.4.3a4.9,4.9,0,0,0-1.4,1.1h0a7.2,7.2,0,0,1-1.2,2.9h0c-.5.8.3,2.8.4,3v.4l.2,1v-.2a34,34,0,0,1,.9,3.3c.7,5-.6,8.7-4,11h-.1a5.1,5.1,0,0,1-.2.9,10.6,10.6,0,0,1-.3,1.4h-.3c-.1.2-.1.4-.2.5s-.1.3-.5.5h-.1v.2h0v1.6h0v.5a3.7,3.7,0,0,1,.2.9v.2h.1l1.5-.2-1,.4h-.2v.2l.2.2h0v.3h0c.1.2.3.4.3.6h.1a3.6,3.6,0,0,0-1.3-1.1h-.1l-1.1.5-.9.6,1.3-1.1h.3l-.2-.2-.9-.3a4.4,4.4,0,0,1,1.2.2h.2v-.3a3.9,3.9,0,0,0-.2-.6,2.1,2.1,0,0,0-.1-.6h-.1a.1.1,0,0,0-.1-.1l-.2-1.7h-.6a2.8,2.8,0,0,1-.5-.8,4.9,4.9,0,0,1-.8-1.1h-.2l-1.2.2h-.1a.3.3,0,0,0-.1.2h-.3l-.3.4a.7.7,0,0,1-.5.3h-.1v.2h0l-.2,1.5h-.1v1.3h.4v.2l.3.9a5.6,5.6,0,0,0-.8-1.1h-.1a.1.1,0,0,0-.1-.1l-1,.4-.7.2,1.1-.6h.2l-.2-.2h-.4l.8.3.2.2v-.9a1.8,1.8,0,0,1,.1-.5H99v-1.5H99l-.4-.2a2.4,2.4,0,0,1-.3-.7h-.9a8.5,8.5,0,0,1-5.2-1.3c-4.8-2.3-4-8-3.8-9.9V101a.8.8,0,0,1,.9-.9,5.5,5.5,0,0,1,2.4,1H92a15.8,15.8,0,0,1,4.4-3.9,19.8,19.8,0,0,1,3.8-2l1.3-.5h.1a38.5,38.5,0,0,1,1.2-4.5,14.1,14.1,0,0,1,1.8-2.9h0a.5.5,0,0,1,.1-.5h.1a1,1,0,0,0,.4-.8c.1-.6.4-.7.5-.7h.1a.7.7,0,0,1,.5-.6h.2m0-.1h-.3c-.5.1-.6.7-.6.7s-.5.1-.5.8-.3.5-.5.8a.6.6,0,0,0-.1.7,14,14,0,0,0-1.8,3,40.3,40.3,0,0,0-1.3,4.5h0l-1.3.6a15.6,15.6,0,0,0-3.8,2,15.2,15.2,0,0,0-4.4,3.9,6.2,6.2,0,0,0-2.5-1c-.6,0-1,.2-1.1,1s-1.2,7.8,3.8,10.3a9.2,9.2,0,0,0,5.3,1.2h.7c.1.1.3.7.4.8l.4.2v1.6H99v1.1a5.9,5.9,0,0,0-1.5-.5h-.1l.7.4h.4c-.4.3-2,1.1-1.8,1.1h.1c.7-.1,2-.7,2.3-.7h.1a7.4,7.4,0,0,1,1.2,1.8h0a6.2,6.2,0,0,0-.4-1.6h0v-.2l1.6-.3-1.7-.2h-.3s-.1-.6-.1-.8a.4.4,0,0,0,.1-.3h0l.2-1.5h0v-.3l.6-.3.3-.4.3-.2c0-.1.1-.1.1-.2l1.2-.2a8.2,8.2,0,0,0,.9,1.1s.3.7.5.8l.5.2h.1l.2,1.7h.2c0,.3,0,.5.1.6a5.6,5.6,0,0,0,.1.7,6.2,6.2,0,0,0-1.6-.3H103l.6.3.8.4h0c-.5.4-2.1,1.6-1.9,1.7h0a.1.1,0,0,0,.1-.1c.9-.3,2.2-1.3,2.5-1.3h.1a7.2,7.2,0,0,1,1.7,1.7h0a1.7,1.7,0,0,0-.2-.5h0c0-.1-.1-.2-.1-.3h0l-.3-.7h0l-.2-.2h0l-.2-.2,1.8-.6c.1-.1,0-.1-.2-.1a7.1,7.1,0,0,0-2.1.3h0a5.6,5.6,0,0,1-.2-1c0-.1-.1-.2-.1-.4h.1v-1.7h0v-.3c.5-.2.5-.3.6-.5l.3-.6a.2.2,0,0,0,.2-.2,2.6,2.6,0,0,0,.3-1.4,4.7,4.7,0,0,0,.3-.9c2.7-1.8,4.9-5.1,4-11.1-.2-1.1-1.1-4.3-1.1-4.3v-.2s-.9-2.2-.4-2.9a7.9,7.9,0,0,0,1.2-3.1,6.8,6.8,0,0,1,1.6-1.2h0a3.9,3.9,0,0,0-1.7-.4h-.1a2.1,2.1,0,0,0-.6-1,3.2,3.2,0,0,0-.9-.8h-.1c0-.1,0-.1-.1-.2h-.2c0-.1,0-.1-.1-.1s-.1-.1-.1-.2h-.2a2.4,2.4,0,0,0-1.3-.5Z"/></g></svg>