<svg xmlns="http://www.w3.org/2000/svg" viewBox="0 0 200 200"><defs><style>.cls-1{fill:#f9a01e;}.cls-2{fill:#db970f;}.cls-3{fill:#ffc271;}.cls-4{fill:#f68b1f;}.cls-5{fill:#fbb51c;}.cls-6{fill:#e59f13;}.cls-7{fill:#e28e2b;}.cls-8{fill:#cf7f26;}.cls-9{fill:#e65447;}.cls-10{fill:#d84841;}.cls-11{fill:#fff;}.cls-12{fill:#282625;}.cls-13{fill:#5b3114;}</style></defs><g id="Hen_02"><path class="cls-1" d="M106.5,120.7a10.3,10.3,0,0,0,.2,2.2,4.1,4.1,0,0,0,.2.9,12.5,12.5,0,0,0-2.6-.4c-.6,0,1.4.6,2,1s-3.5,2.7-2.6,2.4,3.3-2,3.7-1.9a8.4,8.4,0,0,1,2.4,2.5c.4.6-.6-2.1-1.4-3l2.6-.9a11.7,11.7,0,0,0-3.3.3,8.6,8.6,0,0,1-.3-1.3c-.1-.7-.2-2.6-.2-2.6Z"/><path class="cls-2" d="M108.4,124.4l2.6-.9-3.1.6a.4.4,0,0,1-.2-.3h0a8.6,8.6,0,0,1-.3-1.3c-.1-.4-.1-1.4-.2-2l-.4.5a20.3,20.3,0,0,0,.1,2.2,8.1,8.1,0,0,1,.2.9,9.7,9.7,0,0,0-2.4-.4l1.6.7h-.1l-2.6,2.3c1.2-.6,3.5-2.2,3.9-2.1s1.7,1.6,1.8,1.8l.6.9A13.6,13.6,0,0,0,108.4,124.4Z"/><path class="cls-2" d="M105.7,117.6l.6,4.3a.9.9,0,0,0,1.1-.1l-.4-4.7Z"/><path class="cls-1" d="M105.7,117.6l.4,2.6c.5,0,.8,0,1.1-.8l-.2-2.3Z"/><path class="cls-3" d="M104.2,110.4s-2.1,1.3-2,3.3,2.2,4.3,2.2,4.3a4.9,4.9,0,0,0,.8,1.2c.4.3,1,.3,1.8-.1s.9-.5,1-.8,1.7-4.3,1.6-5.1S107.9,110.5,104.2,110.4Z"/><path class="cls-4" d="M104.9,109.4a4.9,4.9,0,0,0-1.8,3.4,6.1,6.1,0,0,0,1.7,4.2,3.2,3.2,0,0,0,2.2,1c.9-.1,1.7-.5,1.8-.8a16.3,16.3,0,0,0,.5-5.2C109.2,111.2,108,109.4,104.9,109.4Z"/><path class="cls-1" d="M98.8,119.7s-.3,1.5-.3,1.9a7.8,7.8,0,0,0,.1.9,6.7,6.7,0,0,0-2.2-.8c-.5-.1,1.1.7,1.6,1.2s-3.5,1.8-2.6,1.6,3.1-1.2,3.4-1.1a7.7,7.7,0,0,1,1.7,2.6c.3.6-.2-1.9-.7-2.8a16.2,16.2,0,0,1,2.3-.3c.5-.1-2.1-.5-2.9-.3v-1.2c.1-.6.3-2.3.3-2.3Z"/><path class="cls-2" d="M99.8,123.2l2.3-.3a12.2,12.2,0,0,0-2.7,0,.4.4,0,0,1-.2-.3h0v-1.2a14.1,14.1,0,0,1,.2-1.8l-.5.4s-.2,1.5-.2,1.9v.9a7.4,7.4,0,0,0-2-.8l1.3.9h-.1l-2.6,1.6a36.8,36.8,0,0,1,3.6-1.2c1.3,1.7,1.2,1.7,1.3,1.9s.2.5.4.9A11.7,11.7,0,0,0,99.8,123.2Z"/><path class="cls-2" d="M98.6,116.9l-.2,3.8a.7.7,0,0,0,.9.1l.5-4.1Z"/><path class="cls-1" d="M98.6,116.9l-.2,2.3a.9.9,0,0,0,1.2-.5l.2-2Z"/><path class="cls-3" d="M98.4,110.4a3.6,3.6,0,0,0-2.2,2.6c-.3,1.7,1.1,4,1.1,4s.3,1,.6,1.2.8.4,1.5.2.9-.3,1.1-.5,2.1-3.5,2.1-4.2S101.6,111.2,98.4,110.4Z"/><path class="cls-4" d="M98.3,109.3a3.9,3.9,0,0,0-2.3,2.6,5.3,5.3,0,0,0,1.2,4,3.9,3.9,0,0,0,2.1,1.4c1,.1,1.8,0,2-.3a11.2,11.2,0,0,0,1.2-4.4C102.5,111.9,101.5,110.1,98.3,109.3Z"/><path class="cls-5" d="M113.7,83.3a2.4,2.4,0,0,1,0-2.3c.5-.7,2.7,0,3.3.4a9,9,0,0,0-2.3,1.7C114.2,83.9,113.8,83.5,113.7,83.3Z"/><path class="cls-6" d="M113.7,83.3c.1.2.5.6,1-.2a9,9,0,0,1,2.3-1.7h0a5.6,5.6,0,0,0-2.1.4,4.9,4.9,0,0,0-1.4,1.1C113.6,83.1,113.6,83.2,113.7,83.3Z"/><path class="cls-7" d="M102,91.4h0c-3.9,1.6-10.6,4.8-13.6,9.2,0,0-4.7-3.3-5.1,0s-2.9,18.4,17,15.8c5.8-.7,15.7-3.8,15-18.4l-1.7-6.4s-1.3-3.1-.6-4.2,3.4-5,.6-8-8.2,1.9-9.8,5.5C103.2,86.5,102,91.4,102,91.4Z"/><path class="cls-8" d="M101.1,116.8c-12.8,1.5-14.6-2.7-16.8-8.5,3.5.6,7.3,6.6,14.9,5.3s9.1-3.8,12.8-7,1.5-10.4,1.7-14.6c0,0,1.3,4.5,1.6,6C117.5,112.8,106.7,116.1,101.1,116.8Z"/><path class="cls-8" d="M108.4,95.9s-7.8.3-13.4,3.1-4.8,5.6-4.8,5.6-.1,1.5,1.9.7a7.6,7.6,0,0,0,3.5,3.4c1.6.5,11.2,1.6,14.8-8.7C110.8,99,110.6,96.5,108.4,95.9Z"/><path class="cls-7" d="M109.2,96a11.6,11.6,0,0,0-3.8,0S91,98.4,92.3,102.6c.3,1,2.2,1.4,3.8,1.1s0,2.6,2.5,3.2,7.4,1,11.7-6.4a4.9,4.9,0,0,0,.3-.7C110.9,99,111,96.5,109.2,96Z"/><path class="cls-9" d="M111.3,78.6c.3,0,1.1-.1.8-.5s-2-2.1-3.2-1.7a1.1,1.1,0,0,0-.8,1,1.1,1.1,0,0,0-.9,1,1.6,1.6,0,0,1-.6,1.2c-.7.8-.1,1.3.2,1.4s1-.7,2-1.3A6,6,0,0,1,111.3,78.6Z"/><path class="cls-10" d="M108.8,79.7a6,6,0,0,1,2.5-1.1c.3,0,1.1-.1.8-.5a3.1,3.1,0,0,0-1-1,2.3,2.3,0,0,0-1.4-.2,1.3,1.3,0,0,0-.9,1.1s-.8.1-.9,1.2a1.7,1.7,0,0,1-.7,1.3l-.3.5C107.4,81,107.9,80.3,108.8,79.7Z"/><ellipse class="cls-11" cx="113" cy="80.9" rx="0.5" ry="0.9"/><ellipse class="cls-12" cx="113" cy="80.9" rx="0.3" ry="0.5"/><ellipse class="cls-11" cx="113.1" cy="80.7" rx="0.2" ry="0.1" transform="translate(-7.1 150.4) rotate(-65.6)"/><path class="cls-13" d="M109.3,77.6a1.9,1.9,0,0,1,1.1.5h.5V79l.7.4c.4.1,1.2-.3,1.5.1a2.1,2.1,0,0,1,.6,1l.6.7,1.6.2a20.9,20.9,0,0,0-1.7,1.4l-.4,1.3v.3a4.1,4.1,0,0,1-1.3,2.4V87c-.9,1.4-.5,3.9,0,5v.5l1.5,5.8c1,6.7-.7,11.6-5.2,14.5l-.4.3v.5a7,7,0,0,1-.3,1.2v.2h-.1a3.1,3.1,0,0,1-.2,1.3l-.3.2-.2.4-.3.8h-.3l-.4.2h-.3l-.5-.7h-.1a8.8,8.8,0,0,1-1.1-1.4l-.4-.8-.9.2-1.6.3h-.7l-.2.5h-.3l-.3.4-.3.5h-.7l-.3-.6-.3-.9H96.3c-3.1,0-5.3-.5-6.9-1.6h-.1c-5.5-2.6-5.3-8.7-4.8-13v-.4a.4.4,0,0,1,.1-.3h.1a6.7,6.7,0,0,1,2.9,1.2l1,.7.7-1a22.9,22.9,0,0,1,6-5.2,23.9,23.9,0,0,1,5.2-2.8h.1l1.8-.8h.1s1.9-5.9,2.4-7.1a17.7,17.7,0,0,1,2.4-4l.6-.7-.3-.4a3,3,0,0,0,.8-1.7h.9V77.6m0-1.3h-.4a1.1,1.1,0,0,0-.8,1,1.1,1.1,0,0,0-.9,1,1.6,1.6,0,0,1-.6,1.2c-.4.5-.4.8-.2,1a22.4,22.4,0,0,0-2.6,4.3c-.6,1.6-1.8,6.5-1.8,6.5h0l-1.8.8A28.6,28.6,0,0,0,94.7,95a22.8,22.8,0,0,0-6.3,5.6s-2.1-1.5-3.6-1.5-1.3.4-1.5,1.5-1.7,11.2,5.4,14.7c1.7,1.1,4,1.8,7.6,1.8h1c.1.1.4.9.6,1.1l.6.3v2.2h.2a3.2,3.2,0,0,0-.1.8,7.8,7.8,0,0,0,.1.9,6.7,6.7,0,0,0-2.2-.8h-.1c-.2,0,.4.3,1,.7h.2l.2.2h.1c.1,0,.1.1.2.2h-.1c-.6.4-2.9,1.5-2.6,1.6h.1c1.1-.2,2.8-1.1,3.3-1.1h.1a7.7,7.7,0,0,1,1.7,2.6h.1a13.1,13.1,0,0,0-.6-2.3h0c-.1-.2-.1-.3-.2-.4l2.3-.3a6.2,6.2,0,0,0-2.3-.4h-.6v-1.7h0l.3-2.1h0v-.3a1.7,1.7,0,0,0,.9-.5l.4-.7.4-.2v-.3l1.8-.3a8.2,8.2,0,0,0,1.2,1.6,4.9,4.9,0,0,0,.8,1.2l.7.2h.1l.3,2.5h.3a2.2,2.2,0,0,0,.1.9,4.1,4.1,0,0,0,.2.9,9.7,9.7,0,0,0-2.4-.4h-.2c-.3,0,.2.2.8.5a3.3,3.3,0,0,1,1.2.5h-.1c-.6.5-2.9,2.3-2.6,2.3h.1c1.3-.5,3.1-1.9,3.6-1.9h.1a8.4,8.4,0,0,1,2.4,2.5h.1a1.6,1.6,0,0,1-.3-.6h0c-.1-.1-.1-.2-.2-.4h0l-.5-.9h0l-.2-.4h0l-.3-.3,2.6-.9h-.3a13.9,13.9,0,0,0-3,.3h0a8.6,8.6,0,0,1-.3-1.3c0-.2-.1-.4-.1-.6h.1l-.2-2.4h0V119c.6-.3.7-.4.8-.7a5.9,5.9,0,0,1,.4-.8l.4-.3a8.8,8.8,0,0,0,.4-2,11.1,11.1,0,0,0,.3-1.3c3.9-2.6,7-7.3,5.8-15.9-.3-1.5-1.6-6-1.6-6v-.4s-1.3-3.1-.6-4.2a12,12,0,0,0,1.8-4.3,7.5,7.5,0,0,1,2.2-1.7h0a6.1,6.1,0,0,0-2.5-.7h0a5.1,5.1,0,0,0-.9-1.3,5,5,0,0,0-1.4-1.2.1.1,0,0,0-.1-.1c0-.1,0-.2-.1-.2s-.1-.1-.1-.2h-.2v-.2h-.4a.1.1,0,0,0-.1-.1h0a4.5,4.5,0,0,0-1.8-.7Z"/></g></svg>