<svg xmlns="http://www.w3.org/2000/svg" xmlns:xlink="http://www.w3.org/1999/xlink" viewBox="0 0 200 200"><defs><style>.cls-1{fill:none;}.cls-2{isolation:isolate;}.cls-3{fill:#353535;}.cls-4{fill:#262626;}.cls-5{fill:#636161;}.cls-6{fill:#424242;}.cls-7{fill:#dbdbd9;}.cls-8{fill:#edecd9;}.cls-9{mix-blend-mode:multiply;}.cls-10{clip-path:url(#clip-path);}.cls-11{fill:#eee;}.cls-12{fill:#b7b8ba;}.cls-13{fill:#4d4d4d;}</style><clipPath id="clip-path"><rect id="SVGID" class="cls-1" x="121.3" y="104.2" width="7.7" height="7.34"/></clipPath></defs><g class="cls-2"><g id="Sheep_01"><path class="cls-3" d="M111.3,132.4l.8.9a2.8,2.8,0,0,1-4.3-1.4h1a1.5,1.5,0,0,0-.3-.5c.8-.5,1.9-.6,2.8,1.1"/><path class="cls-4" d="M107.8,131.9a1.9,1.9,0,0,0,.4.9,3.5,3.5,0,0,0,1.4.3,4.1,4.1,0,0,0,1.9-.5l-.2-.2c-.9-1.7-2-1.6-2.8-1.1a1.5,1.5,0,0,1,.3.5Z"/><path class="cls-5" d="M112.5,123.5a9.7,9.7,0,0,1-.8,4.8c-.7,1.7-1.5,2.1-1.7,3a1.1,1.1,0,0,0,.1,1,2.1,2.1,0,0,0,2,1c.4-1.6,1.3-.9,1.7-1.8a19.8,19.8,0,0,0,.6-3.2,10.1,10.1,0,0,1,1.5-3.4c2.4-3-1.8-4.2,1.8-11a.5.5,0,0,0,.2-.4c5.3-10,1.3-16.7.2-17.9a5.4,5.4,0,0,0-7,.2c-1.6,1.4-3,4-3.7,8.8a40.3,40.3,0,0,0-.3,5.7,27.8,27.8,0,0,0,.5,3.7,16.3,16.3,0,0,0,2.6,5.6l1,1.4a7.5,7.5,0,0,1,1.3,2.5"/><path class="cls-6" d="M110.1,132.3c1,0,1.1-1,1.6-1.6a7.4,7.4,0,0,0,1.1-2.4,14.8,14.8,0,0,0,.3-1.9,11.6,11.6,0,0,0,.4-1.8,3.8,3.8,0,0,1,.4-1.6c.3-.4.8-.5,1.2-.9a2.6,2.6,0,0,0,.4-1.5.8.8,0,0,0-.7-.9,1.7,1.7,0,0,0-1.2.4l-1.6.7-.8.2a7.5,7.5,0,0,1,1.3,2.5,9.7,9.7,0,0,1-.8,4.8c-.7,1.7-1.5,2.1-1.7,3a1.1,1.1,0,0,0,.1,1"/><path class="cls-5" d="M65.6,78.3c-.7,2.1,1.7,4.5,3.2,5.2s11.4-2.1,11.4-2.1A12.2,12.2,0,0,0,75.6,72s-7.3,1.9-9.6,5.5l-.2.3c-.1.2-.2.3-.2.5"/><path class="cls-3" d="M120.1,128a1.9,1.9,0,0,0,.5.9,2.9,2.9,0,0,0,3.9.5l-.7-.7-.2-.2c-.8-1.7-1.9-1.6-2.7-1.2a1.4,1.4,0,0,0,.3.5Z"/><path class="cls-4" d="M120.1,128a1.9,1.9,0,0,0,.5.9,3.2,3.2,0,0,0,1.4.3,3.7,3.7,0,0,0,1.8-.5l-.2-.2c-.8-1.7-1.9-1.6-2.7-1.2a1.4,1.4,0,0,0,.3.5Z"/><path class="cls-5" d="M125.7,93c1.3,1,4.5,7.6,2.5,17.3-1.6,7.6,2.5,7.7.1,10.6a8.3,8.3,0,0,0-1.5,3.5c-.3.8-.2,2.2-.6,3.2s-1.3.2-1.7,1.8c-1.8,0-2.4-1.2-2.2-1.9s1-1.3,1.7-3.1a9,9,0,0,0,.9-4.8c-1-3.8-6.8-5.7-5.1-18.9s4.1-9.1,5.9-7.7"/><path class="cls-3" d="M89.9,110.9l.9.9a2.9,2.9,0,0,1-4.4-1.4h1.1l-.4-.5c.9-.5,2-.6,2.8,1.1"/><path class="cls-4" d="M86.4,110.4a1.9,1.9,0,0,0,.5.9,3.1,3.1,0,0,0,1.3.3,3.8,3.8,0,0,0,1.9-.5l-.2-.2c-.8-1.7-1.9-1.6-2.8-1.1l.4.5Z"/><path class="cls-3" d="M81.4,115.8l.9.9a2.9,2.9,0,0,1-4.4-1.4H79l-.4-.5c.9-.4,2-.6,2.8,1.1"/><path class="cls-4" d="M77.9,115.3a3.1,3.1,0,0,0,.5,1l1.3.2a3.8,3.8,0,0,0,1.9-.5l-.2-.2c-.8-1.7-1.9-1.5-2.8-1.1l.4.5Z"/><path class="cls-5" d="M92.7,86.5a93.5,93.5,0,0,0-.8,10,41.9,41.9,0,0,0,.3,5c-.1,1.5-.7.8-.7,3s.5,3.7.2,4.4-.7.7-.8,1.2.5.9-.1,1.7-1.9.1-2.5-.9a1.1,1.1,0,0,1,0-1.2,3.9,3.9,0,0,0,.6-1.5,18.4,18.4,0,0,0-.4-6.5c-.2-.7-.7-.9-.9-1.9s.4-1.5.3-2.5c-.8-6.2-1.8-13-1.8-13Z"/><path class="cls-5" d="M77.6,89.2s.1,1,.4,2.7.5,4,.9,6.5.3,2.6.5,3.8-.4,1.7-.3,2.5.7,1.2.9,1.9a18.4,18.4,0,0,1,.4,6.5,3.4,3.4,0,0,1-.6,1.5,1.1,1.1,0,0,0,0,1.2c.6,1.1,2.5.9,2.5.9s0-.9.1-1.7.6-.4.8-1.1-.2-1.4-.2-4.5.6-1.5.7-2.9a45.8,45.8,0,0,1-.3-5.1v-.2c.1-2.5.2-5,.4-6.8s.4-3,.4-3L82.9,91,81,90.3Z"/><path class="cls-6" d="M86.8,70.5l.3,2c5.9,4,11.1,2.1,11.4,1s-.1-.7-.5-1.3c-1.6-2.3-6.2-5.6-11.2-1.7"/><path class="cls-7" d="M77.3,91.4a6.1,6.1,0,0,0-.1,1.9c.2.9-1.6,1.8-1.4,2.7s1.9,1.4,2.3,2.3-.6,2.1-.2,2.9a12.6,12.6,0,0,0,1.3,2.6,5.8,5.8,0,0,0,2.6,1.3c.3.1.6.7.9.7s.9-.3,1.2-.3.8.5,1.2.4.6-.6,1-.7h1.2c.4-.2.4-.8.7-1h.2c.3-.1.8-.1,1-.3s.2-.9.4-1.1.9-.4,1.1-.6.2-.5.1-1.1,0-1.1-.1-1.5a7.9,7.9,0,0,0-.5-1.3c-.3-.8-1.1-1.5-1.5-2.5a14,14,0,0,1-.6-2.4c-.1-.1-.1-.3-.2-.5s-1.2-1.5-1.7-2.4-.4-2-.8-2.8-1.3-1.6-1.8-2.4-.6-2-1.1-2.7-1.5-1.5-2-2.1-1.2-2-1.9-2.4a1.4,1.4,0,0,0-.9-.1,1.5,1.5,0,0,0-.7.5,3.5,3.5,0,0,0-.6.9c-.3.6-.8,1.1-1.1,1.7s-.1.4-.2.5a.4.4,0,0,0-.1.3c-.2.9,2.5,2,2.4,2.9s-.7,1.9-.7,2.9a28,28,0,0,0,.6,2.8v1"/><path class="cls-8" d="M90.6,74.6c0-.4-.5-.9-.8-1.4a4.4,4.4,0,0,0-.3-1.5c-.3-.4-.9-.5-1.2-.9s-.3-1-.7-1.4-1-.4-1.3-.7-.6-1-1-1.3L83.9,67c-.5-.2-.9-.7-1.3-.8s-1,.3-1.6.3-1-.4-1.5-.3-1,.4-1.5.5-1.1-.2-1.6-.1-.9.6-1.4.8-1.1,0-1.6.3-.6.8-1,1.2-1,.6-1.1,1.1.1,1.5.1,2.1a5,5,0,0,0,.5,2.1c.3.5,1.1.8,1.6,1.4s.6,1.2,1.1,1.8,1.2.8,1.6,1.4a12.9,12.9,0,0,1,.5,2.1,5.9,5.9,0,0,1,.7,2,8.9,8.9,0,0,1-.6,2c-.1.6.7.2,1.8-.6a18.6,18.6,0,0,0,2-1c.6-.4.9-1.2,1.5-1.7s1.3-.6,1.9-1.1.9-1.3,1.4-1.7,1.4-.7,1.9-1.2.9-1.3,1.4-1.8,1.4-.2,1.9-1.2"/><path class="cls-8" d="M74.8,77.8c.1.7,1.2,1.3,1.4,2s-1.2,4.1-1,4.9,1.4,1,1.7,1.7-.2,1.8.2,2.5l.3.2c.2.3-1.8.4-1.4.5l.8.5c1.1,1.3,1.9,1.5,2.4.4a1.5,1.5,0,0,0,.1-.7,10.3,10.3,0,0,1-.3-2.6v-.3l.2-.4a6.5,6.5,0,0,0,.9-2.3c0-1-.9-2-1-3s.8-2.4.7-3.3a5.1,5.1,0,0,0-1-2.1,2,2,0,0,1-.4-.8c-.3-1.1-.4-2.2-.6-2.7s-.2-.6-.4-.5-.2,1.1-.5,1.3-1-.6-1.3-.5,0,1.2-.3,1.4-1.1-.5-1.3-.3-.2.5-.2.8v.4c-.4.3-1.2-.3-1.4-.2s-.8.4-.9.9v.3c0,.7.9.8,1,2s2.2-.9,2.3-.1"/><path class="cls-7" d="M108.3,108.1c.6.8,1.7,1.3,2.6,2.3l.9,1.4a6.7,6.7,0,0,0,1.2,1.6c.8.8,1.9,1,2.8,1.8s1.6,1.9,2.4,2.5,2,.6,2.9,1.1,1.9,1.5,2.8,1.8,1.8-.2,2.8-.1l.9.2a2.4,2.4,0,0,0,1.3.3c.7-.2,1-1.2,1.5-1.6s1.4-.5,1.7-1.1.2-1.8.4-2.6.8-1.3.9-2.2a5.2,5.2,0,0,0-.2-1.1,12.2,12.2,0,0,1-.3-1.7c0-1,.4-1.8.4-2.6s.1-1.6-.9-2.4-1.2-.8-3.2-1-2,.5-3.2.4-2.3-.8-3.4-.9-2.1.5-3.2.4a14.3,14.3,0,0,1-2.8-.7H116c-1.1-.1-2.1.6-3.2.5s-2.4-.6-3.4-.6-2.6.6-2.6,1.1a8.3,8.3,0,0,0,1.5,3.3"/><path class="cls-8" d="M78.4,88.3c.1,1-1.8,1.8-1.6,2.7s.1.9.2,1.3v.6c0,.3.1.6.1.8a25,25,0,0,0,1.8,2.4c.4.6.7,1.5,1.1,2.2l.2.3c.6.7,1.6,1.1,2.3,1.8s1,1.6,1.8,2.2a11.6,11.6,0,0,0,2.2,1.3l.3.3a4.5,4.5,0,0,1,.9,1l.3.4.7.7.7.5a6.4,6.4,0,0,1,1.8,1c.8.6,1.2,1.5,2,2.1s2.2,1.1,3.1,1.8,1.7,1.8,2.7,2.4l.7.4.5.2,2.1.8c1.1.6,1.9,1.5,3,2h.3c1.2.4,2.3.4,3.2.7a14.7,14.7,0,0,1,2.2,1l1.2.4a21.4,21.4,0,0,0,3.6-.1,15.4,15.4,0,0,0,3.7.3,14.6,14.6,0,0,0,3.3-1.2l2.2-.5.6-.2.7-.3a29.1,29.1,0,0,0,2.7-2.4c.7-.6,1.7-.8,2.2-1.4a13.4,13.4,0,0,0,1.2-2.4,10.9,10.9,0,0,0,1.3-1.7.5.5,0,0,0,.2-.4,10.5,10.5,0,0,0,.1-2.5c.1-.9.6-1.7.5-2.5a10.9,10.9,0,0,0-1-2.5c-.2-.8,0-1.8-.4-2.5a10.6,10.6,0,0,0-1.6-2.1,25.6,25.6,0,0,0-1.1-2.4c-.5-.6-1.4-1-2-1.6s-1-1.5-1.7-2-1.7-.6-2.5-1.1-1.4-1.2-2.2-1.6a24.4,24.4,0,0,0-2.6-.6c-.9-.3-1.5-1.1-2.4-1.4s-1.8-.2-2.7-.6-1.5-1.1-2.3-1.4-1.9-.4-2.7-.8-1.4-1.2-2.2-1.6-1.8-.4-2.6-1-1.2-1.2-2-1.8-1.8-.6-2.6-1.2-1.3-1.2-2.3-1.3h-.5a4.4,4.4,0,0,1-.8-1.1,2.8,2.8,0,0,0-1.5-.8c-.8-.1-.7-.5-1.1-1.1s-1.4-.4-2.1-.5-1.6.2-2.3-.1-1.9-1.6-2.2-1-1.9-.1-2.8.2-1.7-.1-2.4.6a10.8,10.8,0,0,1-1.8,1.1,8.6,8.6,0,0,0-1.3,1.4l-.2.2-1.5,2c0,.2-.1.3-.2.5a5.5,5.5,0,0,0-.5,3.6v.2a1.6,1.6,0,0,0,.4.7,1.8,1.8,0,0,0-.5.7c-.5,2.1.3-.4.2,2s1.8,1.9,1.8,2.8"/><path class="cls-7" d="M98.7,109.6c.3.9,1.3,1.7,1.8,2.8a3.2,3.2,0,0,1,.3,1.4,8.5,8.5,0,0,0,.6,1.7,1.8,1.8,0,0,0,.5.7c.5.6,1.2,1.1,1.7,1.7s.8,2.1,1.5,2.9,1.9,1.1,2.7,1.8,1.3,1.9,2.2,2.5,2.1.4,3.1.8l.9.5c.5.3.9.7,1.4.7s1.6-.6,2.4-.7,1.8.1,2.5-.3,1-1.3,1.5-1.8,1.7-.9,2.2-1.6a2.5,2.5,0,0,0,.4-.9,5.7,5.7,0,0,1,.4-1.4c.5-.8,1.4-1.3,1.7-2s.7-1.1.7-1.4-.1-.4-.4-.8-.9-1-3.1-1.9-2.4-.3-3.8-.8-2.1-1.4-3.3-1.9-2.6-.3-3.8-.8a23.4,23.4,0,0,1-2.7-1.5l-.6-.4-2.1-.3a8.6,8.6,0,0,1-1.7-.3c-1.4-.4-2.4-1.4-3.5-1.7s-3.3-.4-3.4-.1a4.8,4.8,0,0,0-.1,3.1"/><g class="cls-9"><g class="cls-10"><path class="cls-11" d="M128.8,107.6h0"/><path class="cls-11" d="M121.3,107.8c0-.3,1-.5,1.1-.9s-.7-.7-.6-1,1-.1,1.1-.4-.3-.7-.4-.9-.1-.3.2-.3,1.2.6.9,1.1-.7.6-.5,1,1.1.2,1.3.5-.1,1.3.3,1.5.8-.6,1-.6.3,1.1.5,1.1.5-.9.7-.9.8.8,1,.6-.3-.9-.1-1.1.4.1.5.1a1.1,1.1,0,0,1,.7,1.3c-.4.6-1.6.6-2.2,1s-.9,1.6-1.7,1.7-1.2-1-1.8-1.4-1.2.1-1.4-.1.6-1,.5-1.4-1.1-.5-1.1-.9"/></g></g><path class="cls-6" d="M75.8,87.8c1.2-.2,5.8-6.8.3-11.8l-.6-.3a2.1,2.1,0,0,0-1.9,0c-5,3.4-.9,9.6,1.2,11.4.5.5.8.7,1,.7"/><path class="cls-6" d="M66.1,79l.7.7c.1,0,.3-.1.2-.3l-.8-1.1c0,.1-.1.2-.1.3V79"/><path class="cls-12" d="M86.4,103.8l.3.2a8.8,8.8,0,0,1,1.2,1.5l.7.8.7.4a18.6,18.6,0,0,1,1.9,1.1c.7.6,1.1,1.5,1.9,2.2s2.2,1.1,3.1,1.9,1.7,1.8,2.7,2.4l.6.4.6.2,2.1.9a31.3,31.3,0,0,0,3,2l.4.2c.3-.6-.5-1.1-.1-1.8s1.4-.6,1.6-1.1-.4-1.4-.2-1.9,1.3-.8,1.4-1.4-.7-1.2-.7-1.7.7-1.6.3-1.9-1.9.1-3.2-.1-1.7-1.3-2.8-1.5-2.2.6-3.2.4-1.8-1.3-2.8-1.5-2.3.4-3.1.1-1.6-1.6-2.1-2.2-1.2.2-1.5-.1.1-1.2-.1-1.3-1.1.4-1.4.3-.9-.8-1.1-.6.5.9.5,1.3-.5.5-.7.8"/><path class="cls-13" d="M110.5,134.5h-.2a3.5,3.5,0,0,1-2.3-1h-.1l-.2-.2-.3-.5h-.1a1.4,1.4,0,0,0-.2-.6l-.4-.8h1V131l.6-.3a2.8,2.8,0,0,1,1.5-.4l.4-.5a10.9,10.9,0,0,0,1-1.7,8.3,8.3,0,0,0,.4-1.5.4.4,0,0,0,.1-.3,9.6,9.6,0,0,1-2-.7,5,5,0,0,1-1.4-1.5l-.9-.9-1.1-.8a4.5,4.5,0,0,1-1.6-1.2,5.9,5.9,0,0,1-1-1.7,3.3,3.3,0,0,0-.5-1.2l-1-1a4.6,4.6,0,0,1-.7-.7,1.8,1.8,0,0,1-.5-.7l-.5-.2-1.1-.4-.8-.4a6.7,6.7,0,0,1-1.5-1.4l-1.2-1.1-1.4-.8a8.7,8.7,0,0,1-1.8-1.1l-.4-.4-.3-.2-.2.2a.1.1,0,0,0-.1.1v.4a1.3,1.3,0,0,1-.3,1.6,3.5,3.5,0,0,1-2.4.8,3.7,3.7,0,0,1-2.3-1h0l-.3-.3a.5.5,0,0,1-.2-.4c-.1,0-.1-.1-.1-.2a.8.8,0,0,1-.2-.5l-.5-.8h1.1l-.2-.2.6-.3a2.8,2.8,0,0,1,1.2-.4,1.9,1.9,0,0,0,.2-.7,4.9,4.9,0,0,0,.1-1.2h0l-.3-.2-.2-.2c-.1-.1-.2-.2-.2-.3l-.2-.2H86.3c0,.1-.1.1-.2.2a2,2,0,0,1-.9.6l-.9-.2h0a2.3,2.3,0,0,1-.4,1.4c-.1.2-.2.4-.2,1.5a20,20,0,0,0,.2,3.2,3.3,3.3,0,0,1,0,1.4,1.7,1.7,0,0,1-.7,1h-.1c0,.2,0,.3.1.4a1.6,1.6,0,0,1-.4,1.6,3.1,3.1,0,0,1-2.4.8,3.7,3.7,0,0,1-2.5-1.2h-.1l-.2-.4a.1.1,0,0,1-.1-.1,1.4,1.4,0,0,1-.2-.6l-.3-.7h.9l-.2-.3.6-.3,1.2-.4a1.4,1.4,0,0,0,.2-.7,13.8,13.8,0,0,0-.4-6.3,1.7,1.7,0,0,0-.2-.5,3.1,3.1,0,0,1-.6-1.4,1.1,1.1,0,0,1,0-.8,6.1,6.1,0,0,1-.7-1.4,4.7,4.7,0,0,0-.5-1,3.4,3.4,0,0,1,0-2,1.5,1.5,0,0,0,.2-1.1,2.3,2.3,0,0,0-.9-.7,3.1,3.1,0,0,1-1.4-1.6,2.2,2.2,0,0,1,.8-2l.4-.5a1.3,1.3,0,0,0-.1-.6v-1c0-.4-.1-.7-.1-1a.6.6,0,0,1,0-.6l-.5-.3-.4-.2v-.5c0-.5.4-.6.9-.7a.6.6,0,0,0-.1-.4h-.2c-.4.1-.9-.2-1.5-.8a12.2,12.2,0,0,1-2.6-3.3,6.6,6.6,0,0,1-3.3-.2c-1.7-.8-4.3-3.5-3.5-6a.8.8,0,0,1,.2-.5l.2-.5a13.2,13.2,0,0,1,5.5-4c0-.2-.1-.3-.1-.4v-.5c0-.2-.1-.3-.1-.5a3.9,3.9,0,0,1-.1-1.9,2.7,2.7,0,0,1,1-1.1l.3-.3.3-.3a2.2,2.2,0,0,1,.9-1l1.1-.3h.6l.4-.3a1.9,1.9,0,0,1,1-.5h1.7l.5-.2a2.9,2.9,0,0,1,1-.3l1.1.2h1.2a1.6,1.6,0,0,1,1-.1,1.9,1.9,0,0,1,1,.5c.2.2.3.3.5.3h.4a3,3,0,0,1,1.1.4,2.7,2.7,0,0,1,.7.8l.3.5.5.2a1.8,1.8,0,0,1,.8.5c4.5-2.3,8.7.4,10.5,2.9a2.5,2.5,0,0,1,.7,1.9,3.4,3.4,0,0,1-2.5,1.6.1.1,0,0,0,.1.1l.3.5.3.3h.3a5.2,5.2,0,0,1,2.1,1.1l.5.4a3.3,3.3,0,0,0,1.2.5l1.4.7a5.2,5.2,0,0,1,1.1,1l.9.8,1.3.5,1.2.4,1.2.9a4.6,4.6,0,0,0,1,.7l1.2.4,1.5.3,1.2.9,1,.6,1.3.2,1.4.3a4.7,4.7,0,0,1,1.4.8,2.1,2.1,0,0,0,1,.6,2.7,2.7,0,0,0,1.2.3l1.5.4a4.5,4.5,0,0,1,1.4,1l.8.7,1,.3a6,6,0,0,1,1.6.8,4.1,4.1,0,0,1,1.1,1.2l.6.9.9.6a5.8,5.8,0,0,1,1.2,1,5.5,5.5,0,0,1,.8,1.5,4.2,4.2,0,0,0,.4,1l.6.7a4.5,4.5,0,0,1,1,1.4,5.3,5.3,0,0,1,.4,1.7,3.4,3.4,0,0,0,.1,1l.4.8a8.5,8.5,0,0,1,.6,1.7,8.6,8.6,0,0,1-.3,1.7,2.9,2.9,0,0,0-.2.9,1.4,1.4,0,0,0,0,.9,6.5,6.5,0,0,1-.2,1.9l-.3.6-.6.8a1.4,1.4,0,0,0,.2.6v.5a3.1,3.1,0,0,1,.1,1.3,3.8,3.8,0,0,1-.5,1.6,2.5,2.5,0,0,0-.4.7,3.1,3.1,0,0,0-.1,1,3.6,3.6,0,0,1-.3,1.8,2.1,2.1,0,0,1-1.3,1l-.6.3-.4.5a2.2,2.2,0,0,1-1.3,1.2h-.5a10.8,10.8,0,0,0-1.2,2.9c-.1.3-.1.7-.2,1.1a7.1,7.1,0,0,1-.4,2.1,1.7,1.7,0,0,1-1.1,1c-.2.1-.3.1-.4.3h.3l-.7.7a3.3,3.3,0,0,1-2.3.7,3.7,3.7,0,0,1-2.5-1.2,3.4,3.4,0,0,1-.6-1.2l-.2-.7.8-.2-.2-.2.7-.3a2.8,2.8,0,0,1,1.5-.4l.3-.5a6.3,6.3,0,0,0,1-1.7c0-.1.1-.1.1-.2h-.3l-.9.6-.5.7a3,3,0,0,1-1.2,1.3,3.8,3.8,0,0,1-1.8.3h-.9l-.7.3a4.1,4.1,0,0,1-1.9.5h0a1.4,1.4,0,0,0-.2.7,3.6,3.6,0,0,0-.2,1.1,7.2,7.2,0,0,1-.5,2.1,1.6,1.6,0,0,1-1,1c-.3.1-.5.2-.6.8l-.2.5h-.2A3.8,3.8,0,0,1,110.5,134.5Zm-1.7-2.1a2.2,2.2,0,0,0,1.5.8,2.5,2.5,0,0,0,1.3-.3,1.8,1.8,0,0,1,1.2-1.4c.3-.1.3-.1.4-.3a8.5,8.5,0,0,0,.4-1.7,5.9,5.9,0,0,1,.2-1.4c.1-.5.3-1,.4-1.4l.3-.7.6.3h.3a1.8,1.8,0,0,0,1.2-.3l1-.4h1.2c.4,0,.9,0,1.1-.2s.6-.5.8-.9l.6-.8a10.1,10.1,0,0,1,1.3-.9,2,2,0,0,0,.9-.6,1.5,1.5,0,0,0,.3-.7.8.8,0,0,1,.1-.4,1.9,1.9,0,0,1,.2-.7v-.4l1.4-.2v.8a13,13,0,0,1-1,4,8.4,8.4,0,0,1-1.1,2l-.5.7-.2.6-.6-.2H122l.4.6-1.3.2a2.3,2.3,0,0,0,1.6.8,2.4,2.4,0,0,0,1.2-.3,2,2,0,0,1,1.3-1.4l.4-.3a8.6,8.6,0,0,0,.3-1.7c.1-.5.1-1,.2-1.4a10.7,10.7,0,0,1,1.7-3.7l.2-.3h.4c.2.1.3,0,.3,0s.4-.3.6-.6a2.7,2.7,0,0,1,.7-.8l.9-.5.7-.4a4.5,4.5,0,0,0,.1-1.2,5.7,5.7,0,0,1,.1-1.3,3.7,3.7,0,0,1,.5-1.1,1.8,1.8,0,0,0,.4-1,3.4,3.4,0,0,0-.1-.9v-.4l-.3-1.1v-.3l.3-.4c.2-.3.5-.5.6-.8l.2-.3a2.8,2.8,0,0,0,0-1.3v-1.1l.3-1.2a2.5,2.5,0,0,0,.2-1.2,2.8,2.8,0,0,0-.4-1.2,3.7,3.7,0,0,1-.5-1.1c-.1-.4-.1-.8-.2-1.2a2.2,2.2,0,0,0-.2-1.2,2.6,2.6,0,0,0-.8-1.1l-.7-.9a3.8,3.8,0,0,1-.6-1.3,3.7,3.7,0,0,0-.5-1.1l-1-.7-1-.8-.8-1a3.6,3.6,0,0,0-.8-.9,3.4,3.4,0,0,0-1.2-.6l-1.2-.5-1.1-.8-1-.8-1.2-.3a4,4,0,0,1-1.5-.3,5.7,5.7,0,0,1-1.3-.8l-1-.6-1.1-.2-1.6-.4-1.4-.8a3.3,3.3,0,0,0-1-.6,3.5,3.5,0,0,0-1.1-.3,4.9,4.9,0,0,1-1.6-.5,6,6,0,0,1-1.3-.9l-.9-.7-1-.4a5.2,5.2,0,0,1-1.6-.6,5.8,5.8,0,0,1-1.2-1l-.9-.8-1.1-.5a5.5,5.5,0,0,1-1.5-.8,1,1,0,0,1-.5-.4,3.1,3.1,0,0,0-1.5-.8.6.6,0,0,1-.7-.1,2,2,0,0,1-.8-.8l-.2-.3a1.5,1.5,0,0,0-1.1-.6l-.6-.2-2.3-1.2h2.6a5.8,5.8,0,0,0,3.5-.9,3,3,0,0,0-.5-.8c-1.3-1.8-5-4.7-9.2-2.2l-.6.4-.4-.7h-.1c0-.1-.2-.2-.4-.3l-.9-.4a3.5,3.5,0,0,1-.5-.8L85,68l-.6-.2a1.2,1.2,0,0,1-.8-.2l-.7-.4-.4-.3H82l-1,.2-.9-.2-.6-.2L79,67l-.9.4H76.5l-.5.4-.8.4-.9.2h-.6c-.1,0-.2.2-.4.5l-.4.6-.5.4c-.2.1-.5.3-.5.4a2.5,2.5,0,0,0,.1,1.2c0,.2.1.4.1.6a1.3,1.3,0,0,0,.1.6v1.2l-.4.3c-2.6,1.1-4.5,2.4-5.4,3.8l-.2.3h0v.2c-.6,1.6,1.4,3.8,2.8,4.4a5.8,5.8,0,0,0,2.9,0h.5l.2.5a10.7,10.7,0,0,0,2.6,3.3,2.3,2.3,0,0,0,.5.5l.5-.5,1.6-2-.5,2.5v.5a6.9,6.9,0,0,0,.2,1.3l.3.9h-.4l.3.3-.2.5a.3.3,0,0,0-.1.2,4.1,4.1,0,0,1,.1,1.1v.9a1.1,1.1,0,0,1,.1.5l.2.2v.3a5,5,0,0,1-.8,1.2c-.2.2-.6.6-.5.7s.5.6.9.9a2.4,2.4,0,0,1,1.2,3.3c-.1.3-.2.8-.1.9a6.1,6.1,0,0,1,.5,1.2,4,4,0,0,0,.7,1.3l.2.2v.3c0,.3-.1.5,0,.7a2.5,2.5,0,0,0,.4.9,3.4,3.4,0,0,1,.4,1,15.5,15.5,0,0,1,.4,6.7,3,3,0,0,1-.5,1.6l-.2.4h-.6l.5.5-1.3.3a2.6,2.6,0,0,0,1.6.7,1.8,1.8,0,0,0,1.3-.4V116h0a1.5,1.5,0,0,1-.1-1,1.6,1.6,0,0,1,.6-.9l.2-.3c.1-.2,0-.4,0-1a17.3,17.3,0,0,1-.3-3.3,3.3,3.3,0,0,1,.5-2.2,1.3,1.3,0,0,0,.2-.8v-1.3l.4-.2h.5l.9.3.3.2c-.1,0,0-.2.1-.2a1.8,1.8,0,0,1,.7-.5h1.2c.2-.1.8-.3,1.1.1l.3.5h.1c.1,0,.1.1.2.2l-.4.6.5-.5.2.2h.2l.3.2v.5a10,10,0,0,1-.2,1.6,3.1,3.1,0,0,1-.5,1.7l-.2.4h-.6l.4.4-1.2.3a2.5,2.5,0,0,0,1.6.8,1.8,1.8,0,0,0,1.3-.4.3.3,0,0,0,.1-.2h0a1.5,1.5,0,0,1-.1-1,1.3,1.3,0,0,1,.5-.9c.2-.1.2-.2.3-.4v-.3h.4c.4-.1.7.1,1.5.9l.4.3,1.5.9,1.6,1a7.4,7.4,0,0,1,1.3,1.2l1.3,1.2.6.3,1,.4.8.3h.2l.2.3c0,.2.2.3.3.5l.7.7a5.7,5.7,0,0,1,1.1,1.1,5.5,5.5,0,0,1,.8,1.5,6.1,6.1,0,0,0,.7,1.4l1.3.9a5.1,5.1,0,0,1,1.3.9l1.1,1.1a3.1,3.1,0,0,0,1,1.2,3.8,3.8,0,0,0,1.6.5h1.3l-.2.8a3.6,3.6,0,0,1-.2,1,9.8,9.8,0,0,1-.5,1.6,7,7,0,0,1-1.2,2l-.4.7-.3.7-.6-.3h-.2l.4.4Z"/></g></g></svg>