<svg xmlns="http://www.w3.org/2000/svg" xmlns:xlink="http://www.w3.org/1999/xlink" viewBox="0 0 200 200"><defs><style>.cls-1{mask:url(#mask);filter:url(#luminosity-noclip-12);}.cls-2,.cls-4,.cls-6{mix-blend-mode:multiply;}.cls-2{fill:url(#linear-gradient);}.cls-3{mask:url(#mask-2);filter:url(#luminosity-noclip-8);}.cls-4{fill:url(#linear-gradient-2);}.cls-5{mask:url(#mask-3);filter:url(#luminosity-noclip-10);}.cls-6{fill:url(#linear-gradient-3);}.cls-7{isolation:isolate;}.cls-8{fill:#ffe9d0;}.cls-9{fill:#e5c9b3;}.cls-10{fill:#d3b39c;}.cls-11{fill:#b2b2b2;}.cls-12{mask:url(#mask-4);}.cls-13{fill:#d6baa7;}.cls-14{fill:#c1a28e;}.cls-15{fill:#fff7f0;}.cls-16{fill:#d2d5d4;}.cls-17{mask:url(#mask-5);}.cls-18,.cls-21{fill:#fff;}.cls-18{stroke:#603913;stroke-width:0.25px;}.cls-18,.cls-38,.cls-39{stroke-miterlimit:10;}.cls-19{fill:#1e1c1b;}.cls-20{fill:#1e1513;}.cls-22{mask:url(#mask-6);}.cls-23{fill:#fcfcfc;}.cls-24{mask:url(#mask-7);}.cls-25{mask:url(#mask-8);}.cls-26{mask:url(#mask-9);}.cls-27{mask:url(#mask-10);}.cls-28{fill:#f4f4f4;}.cls-29{mask:url(#mask-11);}.cls-30{fill:#f2f2f2;}.cls-31{mask:url(#mask-12);}.cls-32{mask:url(#mask-13);}.cls-33{fill:#f4dbc3;}.cls-34,.cls-35{fill:#b3b3b3;}.cls-35{mix-blend-mode:screen;opacity:0.5;}.cls-36{fill:#5a5a5a;}.cls-37{fill:#b2b7b5;}.cls-38,.cls-39{fill:none;}.cls-38{stroke:#000;stroke-width:0.33px;}.cls-39{stroke:#4c2e19;stroke-width:0.15px;}.cls-40{filter:url(#luminosity-noclip-13);}.cls-41{filter:url(#luminosity-noclip-11);}.cls-42{filter:url(#luminosity-noclip-9);}.cls-43{filter:url(#luminosity-noclip-7);}.cls-44{filter:url(#luminosity-noclip-6);}.cls-45{filter:url(#luminosity-noclip-5);}.cls-46{filter:url(#luminosity-noclip-4);}.cls-47{filter:url(#luminosity-noclip-3);}.cls-48{filter:url(#luminosity-noclip-2);}.cls-49{filter:url(#luminosity-noclip);}</style><filter id="luminosity-noclip" x="112.17" y="-7542" width="4.67" height="32766" filterUnits="userSpaceOnUse" color-interpolation-filters="sRGB"><feFlood flood-color="#fff" result="bg"/><feBlend in="SourceGraphic" in2="bg"/></filter><mask id="mask" x="112.17" y="-7542" width="4.67" height="32766" maskUnits="userSpaceOnUse"><g class="cls-49"/></mask><linearGradient id="linear-gradient" x1="111.76" y1="99.98" x2="115.57" y2="109.2" gradientUnits="userSpaceOnUse"><stop offset="0" stop-color="#fff"/><stop offset="1"/></linearGradient><filter id="luminosity-noclip-2" x="93.42" y="-7542" width="6.87" height="32766" filterUnits="userSpaceOnUse" color-interpolation-filters="sRGB"><feFlood flood-color="#fff" result="bg"/><feBlend in="SourceGraphic" in2="bg"/></filter><mask id="mask-2" x="93.42" y="-7542" width="6.87" height="32766" maskUnits="userSpaceOnUse"><g class="cls-48"/></mask><linearGradient id="linear-gradient-2" x1="93.42" y1="127" x2="100.3" y2="127" xlink:href="#linear-gradient"/><filter id="luminosity-noclip-3" x="61.09" y="-7542" width="2.18" height="32766" filterUnits="userSpaceOnUse" color-interpolation-filters="sRGB"><feFlood flood-color="#fff" result="bg"/><feBlend in="SourceGraphic" in2="bg"/></filter><mask id="mask-3" x="61.09" y="-7542" width="2.18" height="32766" maskUnits="userSpaceOnUse"><g class="cls-47"/></mask><linearGradient id="linear-gradient-3" x1="62.26" y1="106.13" x2="61.43" y2="111.17" xlink:href="#linear-gradient"/><filter id="luminosity-noclip-4" x="73.2" y="-7542" width="9.19" height="32766" filterUnits="userSpaceOnUse" color-interpolation-filters="sRGB"><feFlood flood-color="#fff" result="bg"/><feBlend in="SourceGraphic" in2="bg"/></filter><mask id="mask-4" x="73.2" y="-7542" width="9.19" height="32766" maskUnits="userSpaceOnUse"><g class="cls-46"/></mask><filter id="luminosity-noclip-5" x="60.23" y="-7542" width="2.57" height="32766" filterUnits="userSpaceOnUse" color-interpolation-filters="sRGB"><feFlood flood-color="#fff" result="bg"/><feBlend in="SourceGraphic" in2="bg"/></filter><mask id="mask-5" x="60.23" y="-7542" width="2.57" height="32766" maskUnits="userSpaceOnUse"><g class="cls-45"/></mask><filter id="luminosity-noclip-6" x="66.72" y="-7542" width="6.39" height="32766" filterUnits="userSpaceOnUse" color-interpolation-filters="sRGB"><feFlood flood-color="#fff" result="bg"/><feBlend in="SourceGraphic" in2="bg"/></filter><mask id="mask-6" x="66.72" y="-7542" width="6.39" height="32766" maskUnits="userSpaceOnUse"><g class="cls-44"/></mask><filter id="luminosity-noclip-7" x="71.91" y="-7542" width="10" height="32766" filterUnits="userSpaceOnUse" color-interpolation-filters="sRGB"><feFlood flood-color="#fff" result="bg"/><feBlend in="SourceGraphic" in2="bg"/></filter><mask id="mask-7" x="71.91" y="-7542" width="10" height="32766" maskUnits="userSpaceOnUse"><g class="cls-43"/></mask><filter id="luminosity-noclip-8" x="93.42" y="110.57" width="6.87" height="32.88" filterUnits="userSpaceOnUse" color-interpolation-filters="sRGB"><feFlood flood-color="#fff" result="bg"/><feBlend in="SourceGraphic" in2="bg"/></filter><mask id="mask-8" x="93.42" y="110.57" width="6.87" height="32.88" maskUnits="userSpaceOnUse"><g class="cls-3"><path class="cls-4" d="M97.4,112c-5.9-7.3-3.7,15.7-3,19.9s-.2,11.5-.2,11.5c1.8-4,2.1-14.7,2-23a14.3,14.3,0,0,0,4.1-2.4C100.2,116.5,99.4,114.5,97.4,112Z"/></g></mask><filter id="luminosity-noclip-9" x="82.98" y="-7542" width="31.89" height="32766" filterUnits="userSpaceOnUse" color-interpolation-filters="sRGB"><feFlood flood-color="#fff" result="bg"/><feBlend in="SourceGraphic" in2="bg"/></filter><mask id="mask-9" x="82.98" y="-7542" width="31.89" height="32766" maskUnits="userSpaceOnUse"><g class="cls-42"/></mask><filter id="luminosity-noclip-10" x="61.09" y="103.56" width="2.18" height="6.73" filterUnits="userSpaceOnUse" color-interpolation-filters="sRGB"><feFlood flood-color="#fff" result="bg"/><feBlend in="SourceGraphic" in2="bg"/></filter><mask id="mask-10" x="61.09" y="103.56" width="2.18" height="6.73" maskUnits="userSpaceOnUse"><g class="cls-5"><path class="cls-6" d="M63.3,103.6c-.9,1.2-2.3,3.3-2.2,5.4s.6,1.1,1.3,1.3a1.8,1.8,0,0,1-1-2.4A10.6,10.6,0,0,1,63.3,103.6Z"/></g></mask><filter id="luminosity-noclip-11" x="60.2" y="-7542" width="10.07" height="32766" filterUnits="userSpaceOnUse" color-interpolation-filters="sRGB"><feFlood flood-color="#fff" result="bg"/><feBlend in="SourceGraphic" in2="bg"/></filter><mask id="mask-11" x="60.2" y="-7542" width="10.07" height="32766" maskUnits="userSpaceOnUse"><g class="cls-41"/></mask><filter id="luminosity-noclip-12" x="112.17" y="100.09" width="4.67" height="8.44" filterUnits="userSpaceOnUse" color-interpolation-filters="sRGB"><feFlood flood-color="#fff" result="bg"/><feBlend in="SourceGraphic" in2="bg"/></filter><mask id="mask-12" x="112.17" y="100.09" width="4.67" height="8.44" maskUnits="userSpaceOnUse"><g class="cls-1"><path class="cls-2" d="M112.6,100.1s-1.5,4.6.9,8.4a15.7,15.7,0,0,1,3.3-.8Z"/></g></mask><filter id="luminosity-noclip-13" x="119.17" y="-7542" width="13.36" height="32766" filterUnits="userSpaceOnUse" color-interpolation-filters="sRGB"><feFlood flood-color="#fff" result="bg"/><feBlend in="SourceGraphic" in2="bg"/></filter><mask id="mask-13" x="119.17" y="-7542" width="13.36" height="32766" maskUnits="userSpaceOnUse"><g class="cls-40"/></mask></defs><g class="cls-7"><g id="Cat_02"><path class="cls-8" d="M63.2,96.8s-1.5-5.3,0-8.2,2.7,3,6.3,5.6C70.4,94.8,63.2,96.8,63.2,96.8Z"/><path class="cls-9" d="M68.6,93.4c-2.7-2.6-3.8-6.8-5.1-5.1.9.9,2.1,3,1.4,7.1C66.7,94.2,67.6,93.6,68.6,93.4Z"/><path class="cls-8" d="M71.4,112.4s5.9,19.3,4.8,22-.8,6.6,3.1,4.5,3.2-28,2.8-34C78.5,102.4,71.4,112.4,71.4,112.4Z"/><path class="cls-10" d="M75.8,135.7c-.7,2.8.1,5,3.5,3.2a2.1,2.1,0,0,0,.8-1A4,4,0,0,0,75.8,135.7Z"/><path class="cls-11" d="M82.4,119.4c-2-1.9-6.9-3.3-9.2-3.1,0,0,2.4,4.6,4.6,6.5,1.3,5.8.9,11.5,0,13.1a4.6,4.6,0,0,0,2.1,2.4C81.7,135.9,82.3,127.4,82.4,119.4Z"/><g class="cls-12"><path class="cls-13" d="M82.4,119.4c-2-1.9-6.9-3.3-9.2-3.1,0,0,2.4,4.6,4.6,6.5,1.3,5.8.9,11.5,0,13.1a4.6,4.6,0,0,0,2.1,2.4C81.7,135.9,82.3,127.4,82.4,119.4Z"/></g><path class="cls-13" d="M94.4,97.9s-1.5,13.9,12.4,15.2c3.2.2,3.7,4.4,1.8,7.8s-1.2,5.2,2.5,4,4.3-14.9,2.9-16.8-5.2-5.9-5.1-10.9.6-5.9-8.2-5.7C95.9,100.8,94.4,97.9,94.4,97.9Z"/><path class="cls-14" d="M108.5,121.1c-1.7,3.4-1,4.9,2.6,3.8a2,2,0,0,0,1.2-.8C111.2,121.8,109.7,121.2,108.5,121.1Z"/><path class="cls-15" d="M119.6,83.6A43.5,43.5,0,0,0,83,99l-1.8-1c-4.3-1.5-9.3,1.7-11.1,7s.1,10.9,4.4,12.4a6.3,6.3,0,0,0,2.7.3c5.5,7,19,4.4,23.2.2,6.5-7.8,14.7-10.6,18.7-10.3a13.9,13.9,0,0,0,5.1-6.9C127.6,92.8,123,84,119.6,83.6Z"/><path class="cls-9" d="M114.7,103.4c-8.1-1.2-15.3,4.8-17.6,7.2-4.5,4.8-10.9,6.5-12.9,3-4-6.8-5.5-5.7-5.5-5.7a73.3,73.3,0,0,0-8.4,5.4,7.4,7.4,0,0,0,4.2,4.1,6.3,6.3,0,0,0,2.7.3c5.5,7,19,4.4,23.2.2,6.2-7.5,14.1-10.4,18.2-10.4A9.2,9.2,0,0,0,114.7,103.4Z"/><path class="cls-15" d="M84.8,114.4s6.3,23.4,5.2,26.1-.8,6.6,3.1,4.5,3.2-28,2.8-33.9C92.3,108.5,84.8,114.4,84.8,114.4Z"/><path class="cls-15" d="M81.9,103.4c0,5.6-4.8,10.2-10.8,10.2s-11-3.8-11-9.5a11.4,11.4,0,0,1,11-11A10.5,10.5,0,0,1,81.9,103.4Z"/><path class="cls-15" d="M66.2,96.5c-2.2,2.8-6.5,7.1-5.5,13.3.5,3.3,8.1,7.2,16.1,1.7C79.2,105.7,73.9,86.8,66.2,96.5Z"/><path class="cls-16" d="M62.8,104.1c0,1-.5,1.9-1.2,1.9s-1.1-.9-1.1-1.9.5-2,1.1-2S62.8,103,62.8,104.1Z"/><g class="cls-17"><path class="cls-9" d="M62.8,104.1c0,1-.6,1.9-1.3,1.9s-1.3-.9-1.3-1.9.6-2,1.3-2S62.8,103,62.8,104.1Z"/></g><path class="cls-18" d="M62.6,104.4a1.6,1.6,0,0,1-1.2,1.2c-.7-.1-1-.9-.9-1.7s.8-1.4,1.4-1.3S62.8,103.6,62.6,104.4Z"/><path class="cls-10" d="M90,140.6c-1.3,3.3-.7,6.4,3.1,4.4a3.8,3.8,0,0,0,1.3-1.8C93.1,140.7,91.3,140.4,90,140.6Z"/><path class="cls-13" d="M72.2,109.4c-1.7-2.3-7.2-1-7.2-1l-2.6-.2c-.8-.5-1.4-1.9-1.8-.9a7,7,0,0,0,.1,2.5c.3,2.5,4.7,5.3,10.2,4.2C72.9,112.9,73.4,111.1,72.2,109.4Z"/><path class="cls-19" d="M61.2,109.3a4.1,4.1,0,0,0,1.6,2.3,2.7,2.7,0,0,0,2.1-2.1A31.9,31.9,0,0,0,61.2,109.3Z"/><path class="cls-9" d="M63.3,103.5c-.9,1.2-2.3,3.4-2.2,5.5s1,1.3,1.9,1.4,2.4-.6,3.3-3.3S66.1,99.8,63.3,103.5Z"/><path class="cls-9" d="M71.1,93.1A9.8,9.8,0,0,0,67,94l-2.2,1.2h-.1c.9-.5,7.2-3.3,9.9,2.3a6.7,6.7,0,0,0,2.2-3A10.8,10.8,0,0,0,71.1,93.1Z"/><path class="cls-20" d="M62.2,104.2c0,.5-.3.9-.6.9s-.5-.4-.5-.9.2-.9.5-.9S62.2,103.7,62.2,104.2Z"/><path class="cls-21" d="M62,104c0,.2-.1.4-.3.4s-.2-.2-.2-.4.1-.4.2-.4S62,103.8,62,104Z"/><path class="cls-16" d="M66.7,106.8s.2-5.1,4.8-3.4S70.2,111.2,66.7,106.8Z"/><g class="cls-22"><path class="cls-9" d="M66.7,106.8s.2-5.1,4.8-3.4S70.2,111.2,66.7,106.8Z"/></g><path class="cls-18" d="M72.1,105.3a2,2,0,0,1-1.5,2.4,2.1,2.1,0,0,1-2.7-1.1,2.5,2.5,0,0,1,1.8-2.7A2,2,0,0,1,72.1,105.3Z"/><path class="cls-20" d="M70.1,106c0,.6-.3,1.1-.7,1.1s-.8-.5-.8-1.1.3-1.2.8-1.2S70.1,105.3,70.1,106Z"/><path class="cls-23" d="M69.9,105.7a.5.5,0,0,1-.4.5c-.2,0-.3-.2-.3-.5s.1-.5.3-.5A.5.5,0,0,1,69.9,105.7Z"/><path class="cls-16" d="M71.9,113.6a10.5,10.5,0,0,0,10-10.2,9.5,9.5,0,0,0-.9-4.1A14.3,14.3,0,0,1,71.9,113.6Z"/><g class="cls-24"><path class="cls-13" d="M71.9,113.6a10.5,10.5,0,0,0,10-10.2,9.5,9.5,0,0,0-.9-4.1A14.3,14.3,0,0,1,71.9,113.6Z"/></g><g class="cls-25"><path class="cls-9" d="M97.4,112c-5.9-7.3-3.7,15.7-3,19.9s-.2,11.5-.2,11.5c1.8-4,2.1-14.7,2-23a14.3,14.3,0,0,0,4.1-2.4C100.2,116.5,99.4,114.5,97.4,112Z"/></g><path class="cls-19" d="M67.8,113.3H65.5l-.6-.3-.5-.3a2.7,2.7,0,0,1-.8-.7,1.9,1.9,0,0,1-.5-.8l-.5.2.7.9c0,.1,0,.1-.1.2l-.2.2h-.1l.4.2h.2l.2-.2a1,1,0,0,0,.5.4c.2.2.4.2.6.3l.7.2h2.4l.7-.3h0Z"/><path class="cls-11" d="M114.9,83.5C98,84,87.5,93.8,83,99,83,99,95.5,85.5,114.9,83.5Z"/><g class="cls-26"><path class="cls-11" d="M114.9,83.5C98,84,87.5,93.8,83,99,83,99,95.5,85.5,114.9,83.5Z"/></g><g class="cls-27"><path class="cls-28" d="M63.3,103.6c-.9,1.2-2.3,3.3-2.2,5.4s.6,1.1,1.3,1.3a1.8,1.8,0,0,1-1-2.4A10.6,10.6,0,0,1,63.3,103.6Z"/></g><path class="cls-11" d="M60.5,106.9s-2.6-10.3,9.7-13.8C67.1,93.2,58.2,97.3,60.5,106.9Z"/><g class="cls-29"><path class="cls-30" d="M60.5,106.7S58,96.3,70.3,93.2C67.3,93.1,58.4,97.3,60.5,106.7Z"/></g><g class="cls-31"><path class="cls-11" d="M112.6,100.1s-1.5,4.6.9,8.4a15.7,15.7,0,0,1,3.3-.8Z"/></g><path class="cls-15" d="M112.2,97.2s-1.5,15,12.3,16.4c3.3.3,3.7,4.8,1.9,8.4s-1.3,5.6,2.5,4.4,4.3-16.1,2.9-18.2-5.2-6.4-5.1-11.8-.2-12.7-9-12.5C112.9,93.9,112.2,97.2,112.2,97.2Z"/><path class="cls-10" d="M126.4,122.1c-1.8,3.8-1.2,5.5,2.5,4.3a2.8,2.8,0,0,0,1.6-1.6C129.3,122.4,127.7,122,126.4,122.1Z"/><path class="cls-16" d="M131.8,108.2c-1.3-2-5.2-6.4-5.1-11.8s-.2-11.2-6.5-12.3c1,1.1,2.4,3.4,1.7,7.4-1.1,6-5.8,13.2.4,18.2,3.4,2.7,7.6.6,8.9,5.8a18.9,18.9,0,0,1,.1,7.5C132.8,118.2,132.8,109.8,131.8,108.2Z"/><g class="cls-32"><path class="cls-33" d="M131.8,108.2c-1.3-2-5.2-6.4-5.1-11.8s-.2-11.2-6.5-12.3c1,1.1,2.4,3.4,1.7,7.4-1.1,6-5.8,13.2.4,18.2,3.4,2.7,7.6.6,8.9,5.8a18.9,18.9,0,0,1,.1,7.5C132.8,118.2,132.8,109.8,131.8,108.2Z"/></g><path class="cls-8" d="M71.3,97.9c5.1-2.6,9-9.6,11.3-8.5s-1.2,10.9-1.2,10.9C75.9,105,71,98,71.3,97.9Z"/><path class="cls-9" d="M74.5,100.2c1.6-2.5,6.3-10.3,8-9.2s-1.7,8.5-2.1,9.7c-.1-.7-1.1-.6-1.1-.6a1.7,1.7,0,0,1,.8-.6,1.6,1.6,0,0,0-1.1.4,3.8,3.8,0,0,1,1.4-1.6,2.9,2.9,0,0,0-2.2,1,5.1,5.1,0,0,1,1.4-2.6A5.3,5.3,0,0,0,77,99.2a5.7,5.7,0,0,1,.5-1.7A32.2,32.2,0,0,0,74.5,100.2Z"/><path class="cls-34" d="M119.1,62.2a5.6,5.6,0,0,1,.5.8A5.6,5.6,0,0,0,119.1,62.2Z"/><path class="cls-33" d="M120.9,84.6a26.1,26.1,0,0,1,3,2.4h0l.7.2h4.1l.7-.4h.4a.1.1,0,0,0,.1-.1h.1l.2-.2h.2a.2.2,0,0,1,.2-.2c0-.1.1-.1.1-.2l.3-.3c.1-.1.1-.1.1-.2h.1a.3.3,0,0,0,.1-.2c.1,0,.1-.1.2-.2v-.2c0-.1,0-.1.1-.2V84h.1a.3.3,0,0,1,.1-.2.4.4,0,0,1,.1-.3v-.2h.1v-.2h0l.2-.3h0c0-.1,0-.1.1-.2l.3-1.7V77h-.1c0,.5-.8.3-.8.3v-.4c.1,0,.1,0,.1-.1v-.3a.4.4,0,0,0,.1-.3h0V76c0-.2.1-.4.1-.6h0V74a.4.4,0,0,1-.1-.3v-.2a1.3,1.3,0,0,0-.1-.6v-.3c-.1-.3-.1-.6-.2-.8s0-.3-.1-.4v-.2a.4.4,0,0,1-.1-.3.6.6,0,0,1-.1-.4h-.1v-.6h-.1c0-.1-.1-.1-.1-.2h0a.2.2,0,0,1-.2.2h-.2c-.1.2-.3.4-.4.3a41.5,41.5,0,0,0-1.6-4l-.3-.6-.3-.6a.5.5,0,0,0-.2-.4v-.3l-.2-.2a10.2,10.2,0,0,0-.8-1.5l-.2-.2v-.2a4.3,4.3,0,0,0-.4-.7l-.6-.7-.2-.3-.6-.6-1.1-1h-.3l.3.4.6,1.7h0c0,.1.1.1.1.2h0c0,.1.1.2.1.3h0l-.2-.3-.2-.3c-.6-.7-1.1-1.4-1.7-2l-.3-.2c0-.1-.1-.2-.2-.3l-.3-.2-.7-.7-1.2-1h-.2a5.6,5.6,0,0,0-1.4-.9h-.1c-.1,0,0,.2.3.5a7.4,7.4,0,0,1,1.9,4.4h-.1c-1.4-1.1-.8-.3,1,3.1,8.3,14.1,4,18.5.9,19.9Z"/><path class="cls-35" d="M119.3,57.8a7.2,7.2,0,0,1,1.8,4.5l-1.1-1a7.4,7.4,0,0,0-1.9-4.4c-1-1.1.5-.5,2.6,1.4C119.2,57.2,118.4,57,119.3,57.8Z"/><path class="cls-35" d="M124.4,60.3a16.8,16.8,0,0,1,1.1,3,14.1,14.1,0,0,0-1.4-1.8,14.6,14.6,0,0,0-.9-2.1c-.2-.3.4-.2,1.4.9Z"/><path class="cls-36" d="M131.6,71.4h-.2l-.6-1.5c.2-.2.3-.4.2-.5A6.7,6.7,0,0,1,131.6,71.4Z"/><path class="cls-35" d="M124.3,62.3a20.3,20.3,0,0,0-3.6-4,19.4,19.4,0,0,1,3.4,3.2Z"/><path class="cls-37" d="M124.6,60.3c.8.4,3.5,2.9,6.2,9.7-.2.4-.5.7-.6.6C128.1,64.8,126,61.7,124.6,60.3Z"/><path class="cls-13" d="M133.2,83.7c.2,0-.8,5.9-8,4.3h-.6l-.8-1h.6l.2.2c6.7,1.2,7.6-4.5,7.5-4.5s.6-6.2.5-5.7-.8.3-.8.3a12.9,12.9,0,0,0-.2-5.9,2,2,0,0,0,.6-.9c.1.2,1.7,4.3.7,7.7,0,0,.9.2.9-.3S134.2,82.1,133.2,83.7Z"/><path class="cls-8" d="M119.3,83.7l.4.2.4.2h0l.3.2.5.3.9-.4c3.1-1.4,7.4-5.8-.9-19.9-1.8-3.4-2.4-4.2-1-3.1-.1,0-.1,0-.1-.1l-.3-.2-1-.8H118c-.1.2.3.8.9,1.9s.1.3.2.5a5.6,5.6,0,0,1,.5.8c0,.1.1.2.1.3,7.1,11.9,5.1,16.9,2.4,19.1l-.6.4-.8.4-.7.3h-.7Z"/><path class="cls-38" d="M60.5,106.7v0Z"/><path class="cls-39" d="M126.7,94.6h0v-.4h0a15,15,0,0,0-1.2-6c6.9,1.3,7.9-4.4,7.7-4.4,1-1.6.6-6.3.6-5.8s-.9.3-.9.3c1-3.4-.6-7.5-.7-7.7a2,2,0,0,1-.6.9h0v-.2a.4.4,0,0,1-.1-.3c0-.1,0-.1-.1-.2h-.1V70h0l-.2-.4h-.2V70c-2.7-6.8-5.4-9.3-6.2-9.7l.3.3-.3-.3h0a1.7,1.7,0,0,0-.6-.6h0l-.3-.2h0l-.3-.2h-.2l.3.5c0,.1.1.2.1.3h0l.2.3h0c0,.1.1.2.1.3s0,.1.1.1v.3a.1.1,0,0,1,.1.1h0c0,.1,0,.1.1.1s-.1-.1-.1-.2a19.4,19.4,0,0,0-3.4-3.2h0l-.5-.5H120l-.4-.3h-.3l-.2-.2H119a.1.1,0,0,0-.1-.1h-.5l-.3-.2h-.3a.1.1,0,0,0,.1.1h.2a6,6,0,0,1,1.6,2.9,7.4,7.4,0,0,1,.3,1.5h-.1c-.1,0-.1,0-.1-.1l-.3-.2-1-.8H118c-.1.2.3.8.9,1.9s.1.3.2.5a5.6,5.6,0,0,1,.5.8c0,.1.1.2.1.3,7.1,11.9,5.1,16.9,2.4,19.1l-.6.4-.8.4-.7.3h-8.2a43.8,43.8,0,0,0-23.5,10c0,.1-.1.1-.1.2l-.6.4c0,.1-.1.1-.2.2l-.5.4-.2.3-.4.3-.3.3-.4.4-.3.2-.3.4-.3.3-.2.2-.3.4-.3.2-.3.4-.2.2L83,99l-1-.6c.9-2.9,2.2-8.2.6-9s-3.7,2.1-6.5,4.8a10.2,10.2,0,0,0-3.4-1H70.2l-1.6.3a43.1,43.1,0,0,1-3.5-4.7h0c0-.1-.1-.1-.1-.2s-1.2-.9-1.8.1c-1.3,2.5-.3,6.9-.1,8a10.3,10.3,0,0,0-2.9,6.4,4.1,4.1,0,0,0-.1,1.1,7.8,7.8,0,0,0,.4,2.6h0v.3a8.9,8.9,0,0,0,.1,2.8c0,.2,0,.3.1.4h0a4.1,4.1,0,0,0,.5.9h0l.8.8h0l1.1.8h0l1.3.6h.1l1.5.4h.1l1.7.2h2.7l.3.4.2.3.3.3c0,.1.1.2.2.3l.3.3.2.3.3.2h.2c1.6,5.8,4.4,16.2,3.6,18.1a6.1,6.1,0,0,0-.4,4.3h.1a1.1,1.1,0,0,0,.6.7h1.7l.5-.2h0l.6-.3c.1,0,.1-.1.2-.2h0c1.7-1.4,2.5-7.8,2.8-14.8h0v-2.6a19.3,19.3,0,0,0,4.3.8c1.7,6.7,3.7,15.7,3.4,18.1h0c0,.2,0,.3-.1.4a6,6,0,0,0-.3,4.5h.2v.2h2.8l.3-.2h.2l.2-.2h.1c2.3-2.7,2.7-14.9,2.6-24.1a12.6,12.6,0,0,0,4.2-2.5l.6-.7.3-.3.3-.4.3-.3.3-.4.3-.2.4-.4.3-.2.3-.4.3-.2.3-.3.3-.3.4-.3.3-.2.3-.3h.1l1.3.2c3.2.2,3.7,4.4,1.8,7.8a14.7,14.7,0,0,0-.6,1.4h0l-.2.5h0a.9.9,0,0,0-.1.5h0a.6.6,0,0,0-.1.4h0v.4h0c0,.1.1.2.1.3h0a.3.3,0,0,1,.1.2h0l.2.2h2.5l.6-.2h.6c0-.1,0-.1.1-.1,3.1-2.2,3.5-13.9,2.4-16.3l.6-.2a12.6,12.6,0,0,0,9.7,5.5c3.3.3,3.7,4.8,1.9,8.4h0a7.3,7.3,0,0,0-1,3.7h0l.2.3h0c0,.1.1.2.1.3h.1l.2.2h.1c0,.1.1.1.2.1H128c.1,0,.2,0,.2-.1l.7-.2h.4l.3-.2h0a.2.2,0,0,0,.2-.2h.2c0-.1,0-.1.1-.2l.2-.3h.1c0-.1.1-.2.1-.3h0a7.5,7.5,0,0,0,.8-1.8h0a32.8,32.8,0,0,0,1.2-8h0v-.5h0v-3.8a.6.6,0,0,0-.1-.4h0v-.4h-.1v-.3h0a.4.4,0,0,1-.1-.3h0c-.1,0-.1-.1-.1-.2h-.1a.3.3,0,0,0-.1-.2c-1.3-2-5.2-6.4-5.1-11.8V95.1h0Zm-2.4-32.3Zm-.4-.6-.3-.4.4.5ZM130.3,86h0Zm0-15.4Zm-1.7-4,.3.6Zm.4.9.3.8Zm.4,1a3.6,3.6,0,0,1,.4.9A3.6,3.6,0,0,0,129.4,68.5Zm.2,18h0Zm-.2.2h0Zm-.4.1-.5.2h.2Zm-.7.3h0Zm-3.2.2h0Zm.8,0h0Zm.3,0h0ZM126,62l.5.7h-.1C126.3,62.3,126.1,62.2,126,62Zm.7,1.1.3.4Zm.4.6.4.7Zm.8,1.4h0Zm-.1,22.1h0Zm-.4.1h0Zm-.3,0h0Zm2.8-1Zm.5-.4c.1,0,.1,0,.1-.1S130.5,85.9,130.4,85.9Zm0-15.3Zm.1-.1h0Zm.1,15.2c.1,0,.1,0,.1-.1S130.7,85.7,130.6,85.7Zm.5-.5h.1A.1.1,0,0,0,131.1,85.2Zm.1-.2h0Zm.2-.2v0Zm.1-.2v0Zm.2-.4Zm0-.1h.1Zm.4-1.3h0Zm-.1.3v.1Zm.1-.5.2-.3h0c-.1.2-.1.4-.2.5Zm.6-2.3c0,.1-.1.3-.1.4S132.7,80.4,132.7,80.3Zm-.1.5v0Zm-.1.4v0Zm0,.5c-.1.1-.1.3-.2.5s.1-.1.1-.2A.4.4,0,0,1,132.5,81.7Zm-.7-4.4h0Zm.2-1.4a.4.4,0,0,1,.1-.3A.4.4,0,0,0,132,75.9Zm-.1.7h.1Zm-.2-4.7a.9.9,0,0,1,.1.5A.9.9,0,0,0,131.7,71.9Zm.2.8h0Zm.1,10.7a.4.4,0,0,0-.1.3A.4.4,0,0,1,132,83.4Zm-.1.4h0Zm.2-.9h0Zm.6-2.6V77h0A33.1,33.1,0,0,1,132.7,80.3Zm0-3.4h0Zm-.6-1.9h0Zm-.1-1.8v0Zm.1.9v0ZM131,85.3l-.2.3Zm-.4-15h0c0-.1,0-.1.1-.1Zm-.4.3h0a3.6,3.6,0,0,0-.4-1.1,3.6,3.6,0,0,1,.4,1.1Zm-4.6-9.2-.2-.2Zm-1.4.5c0,.1.1.2.1.3h0a1.8,1.8,0,0,0-.1-.5ZM123,60.7l-.3-.4Zm.5.5-.3-.3Zm-1.3-1.5c-.1,0-.1-.1-.2-.2l.6.7Zm-.5-.5h0l-.2-.2C121.6,59.1,121.6,59.2,121.7,59.2Zm-.4-.4h0Z"/></g></g></svg>