<svg xmlns="http://www.w3.org/2000/svg" viewBox="0 0 200 200"><defs><style>.cls-1{isolation:isolate;}.cls-2{fill:#8d6e63;}.cls-3{fill:#6d4c41;}.cls-4{fill:#a06960;}.cls-5{fill:#ffab91;}.cls-6{fill:#fff1ee;}.cls-7{fill:#e0b9ad;mix-blend-mode:multiply;}.cls-8{fill:#ffccbc;}.cls-9{fill:#ffe7e1;}.cls-10{fill:none;stroke:#ea967f;stroke-miterlimit:10;stroke-width:0.25px;}</style></defs><g class="cls-1"><g id="Pig_03"><path class="cls-2" d="M111,116.9a.8.8,0,0,0,.4.4,3.3,3.3,0,0,0,2.9-.1l-.5-.3h-.2a1.6,1.6,0,0,0-2.1-.3l.3.2Z"/><path class="cls-3" d="M111,116.9a.8.8,0,0,0,.4.4h1l1.4-.4h-.2a1.6,1.6,0,0,0-2.1-.3l.3.2Z"/><path class="cls-4" d="M112.9,99.1c1,.4,3.8,3.3,2.9,8.3s2.3,3.6.7,5.2a5.9,5.9,0,0,0-.8,1.9c-.2.4,0,1.1-.3,1.6s-.9.3-1.1,1.1-1.8-.4-1.7-.7.6-.8,1-1.7a3.6,3.6,0,0,0,.4-2.5c-1-1.8-5.4-2.1-5-8.8S111.5,98.6,112.9,99.1Z"/><path class="cls-2" d="M93.5,109.7l.7.5c-.8.6-3,.4-3.5-.7h.9l-.3-.3A1.8,1.8,0,0,1,93.5,109.7Z"/><path class="cls-3" d="M90.7,109.5l.4.5h1.1l1.5-.2-.2-.2a1.8,1.8,0,0,0-2.2-.6l.2.3Z"/><path class="cls-4" d="M95.8,96.3a28.9,28.9,0,0,0-.6,5.5c-.1,1.5.3,2.1.2,2.8s-.6.4-.6,1.6.4,2,.2,2.5-.6.3-.6.6.4.5-.2.9a3.1,3.1,0,0,1-2-.5.5.5,0,0,1,.1-.7,1.2,1.2,0,0,0,.4-.8,6.6,6.6,0,0,0-.3-3.6c-.1-.3-.6-.4-.7-1s.3-.8.2-1.4c-.6-3.4-1.5-7.2-1.5-7.2Z"/><path class="cls-5" d="M88.1,80.9s-1.1-1.1.3-1.6,2.6.2,4.2.7a19.7,19.7,0,0,1,3.1,1.1,8.2,8.2,0,0,0-2.9,2.2c-1,1.3-.5,2.3-3.9,1.4s-4-2-4-2l1.3-1.5Z"/><path class="cls-6" d="M73,85.7h0a12.8,12.8,0,0,0,2.3,4.3,33.8,33.8,0,0,0,5.2,4.1,6.9,6.9,0,0,1,2.3,2.4,17.6,17.6,0,0,0,1.4,2.3c4,5.5,7.7,4.9,8.6,5.7a31.7,31.7,0,0,0,10.8,5.9c5.8,1.9,8.5,2,13,.7a8.8,8.8,0,0,0,5.6-4.7,10.1,10.1,0,0,0,.7-2.3c0-.2.1-.4.1-.6a10.9,10.9,0,0,0-.1-3.1c-.3-1.1-3.3-8.1-12.3-11.3-5.8-2.2-12.3-2.1-14.4-4.4a37.3,37.3,0,0,0-2.9-3A4.9,4.9,0,0,0,92,80.7a7.6,7.6,0,0,0-3.6-1.1,11,11,0,0,0-2.8.4,47,47,0,0,0-4.8,1.3l-3.6.9-2.5.4c-.1,0-1.1-.5-1.7-.1S72.1,84.4,73,85.7Z"/><path class="cls-5" d="M73,85.7l.7.8c.2.2.4.5.6.6a2.4,2.4,0,0,0,.8.6l.8.5h0a3,3,0,0,1-1.7-.9A5.7,5.7,0,0,1,73,85.8Z"/><path class="cls-7" d="M84.2,98.9c4,5.5,7.7,4.9,8.6,5.7a31.7,31.7,0,0,0,10.8,5.9c5.8,1.9,8.5,2,13,.7a8.8,8.8,0,0,0,5.6-4.7,6,6,0,0,1-4.5,1.4,10.2,10.2,0,0,1-5.2-2.5l-8.8-2.5s-6.1,4.7-9.7.8-3.9-7.7-5.7-6.8Z"/><path class="cls-5" d="M83.4,83.1H83a10.3,10.3,0,0,0-4.9,2.6,10.6,10.6,0,0,0-2.9,6.2,14.5,14.5,0,0,1,4.9.7c1.9.8,3.1,1.3,4.3-1.2a11,11,0,0,0,1-5.5l-1.2.2.5-1.4C84.3,84.1,83.8,83.6,83.4,83.1Z"/><path class="cls-8" d="M120.1,105.1l.3-.2,1.8.5a4.3,4.3,0,0,0,3-.2h.1a3,3,0,0,1-1.6-.8,1.1,1.1,0,0,1-.2-1.3,1.4,1.4,0,0,1,1.5-.5,1.5,1.5,0,0,1,1.1,1.5v.5h0a1.4,1.4,0,0,0,1-1.2,1.7,1.7,0,0,0-1.3-1.8l-.2-.3c0-.1.2-.2.3-.2a2.2,2.2,0,0,1,1.7,2.3,1.7,1.7,0,0,1-1.3,1.6h-.4a1,1,0,0,1-.5.6c-.7.6-2.1.5-3.3.3l-1.8-.5h-.1A.4.4,0,0,1,120.1,105.1Zm5.5-.5V104a1.2,1.2,0,0,0-.5-1h-.2a1,1,0,0,0-1,.4c-.2.2,0,.5.1.7A2.3,2.3,0,0,0,125.6,104.6Z"/><path class="cls-2" d="M106.6,119.9l.8.4c-.8.7-3.1.9-3.8-.2l.9-.2a.7.7,0,0,1-.3-.3A2,2,0,0,1,106.6,119.9Z"/><path class="cls-3" d="M103.6,120.1a1,1,0,0,0,.5.4h1.2a4.4,4.4,0,0,0,1.5-.5h-.2a2,2,0,0,0-2.4-.3.7.7,0,0,0,.3.3Z"/><path class="cls-9" d="M103.2,99.9l-.8.9a8.3,8.3,0,0,0-1.2,4.1,10.5,10.5,0,0,0,.2,3.2,7.7,7.7,0,0,0,.7,2,7.1,7.1,0,0,0,2.6,2.8,6.2,6.2,0,0,1,2.2,2c.3.4.2,1.4-.3,2.7s-1,1.3-1.2,1.9h0c-.1.4.5,1,2,.8s.9-.6,1.2-1.2.1-1.3.3-1.8a4,4,0,0,1,1-2.1c1.7-1.9-1.9-2.1.6-6.3a.3.3,0,0,1,.1-.2c1.7-2.9,1.7-5.1,1.2-6.7"/><path class="cls-2" d="M88.1,112.6l.8.6c-.9.6-3.2.4-3.7-.9h.9l-.3-.4A1.8,1.8,0,0,1,88.1,112.6Z"/><path class="cls-3" d="M85.2,112.3l.4.6h1.1a3.8,3.8,0,0,0,1.6-.3h-.2a1.8,1.8,0,0,0-2.3-.8l.3.4Z"/><path class="cls-9" d="M90.5,96.5h0s-.1.8-.3,2-.3,2.8-.4,4.5h0c0,1.8.3,2.5.3,3.3s-.6.5-.6,2,.4,2.4.2,2.9-.6.4-.7.8.5.5-.1,1.1-1.6.1-2.1-.6a.6.6,0,0,1,0-.8,3.1,3.1,0,0,0,.5-1,8.2,8.2,0,0,0-.4-4.3c-.1-.4-.5-.6-.7-1.2s.3-1,.2-1.7-.3-1.6-.4-2.5l-.3-1.7a4.3,4.3,0,0,0-.1-.5c-.1-.3-.1-.6-.2-.9a5,5,0,0,0-.2-1.2"/><path class="cls-10" d="M127.6,103.3a1.7,1.7,0,0,1-1.3,1.6h-.4a1,1,0,0,1-.5.6c-.7.6-1.9.5-3,.3s-.1.4-.2.6l-.4.8a8.7,8.7,0,0,1-3.4,3.2l-1.6.7c.3.4.4.8-.3,1.4a5.9,5.9,0,0,0-.8,1.9c-.2.4,0,1.1-.3,1.6s-.9.3-1.1,1.1h0a3.3,3.3,0,0,1-2.9.1.8.8,0,0,1-.4-.4l.8-.2-.3-.2a1.4,1.4,0,0,1,1.1-.2c.2-.4.7-.7,1-1.5a3.6,3.6,0,0,0,.4-2.5l-.4-.4h-4c.2,1.4,1.4,1.9.3,3.2a4,4,0,0,0-1,2.1c-.2.5,0,1.2-.3,1.8s-1,.3-1.2,1.2h0a3.2,3.2,0,0,1-3.3.2h-.2l-.3-.3.9-.2h-.1l-.2-.2a2.8,2.8,0,0,1,1.3-.3,8.2,8.2,0,0,0,1.1-1.7c.5-1.3.6-2.3.3-2.7a6.2,6.2,0,0,0-2.2-2,7.1,7.1,0,0,1-2.6-2.8v-.2a37.8,37.8,0,0,1-7.1-3.7c0,1.7.3,2.1.1,2.5s-.6.3-.6.6.4.5-.2.9a3.1,3.1,0,0,1-3.1-.2h-.2l-.2-.3h.8c-.1-.1-.2-.1-.2-.2a1.7,1.7,0,0,1,1-.1,1.2,1.2,0,0,0,.4-.8,6.6,6.6,0,0,0-.3-3.6l-.3-.3-1.9-.6h-.4c.1,1.4.3,2.1.3,2.8s-.6.5-.6,2,.4,2.4.2,2.9-.6.4-.7.8.5.5-.1,1.1h0a3.1,3.1,0,0,1-3.3-.3h-.2a.8.8,0,0,1-.2-.4H86l-.2-.3a2,2,0,0,1,1.1-.1,3.6,3.6,0,0,0,.4-.9,8.2,8.2,0,0,0-.4-4.3c-.1-.4-.5-.6-.7-1.2s.3-1,.2-1.7-.3-1.6-.4-2.5h0a19.6,19.6,0,0,1-1.8-2.1,17.6,17.6,0,0,1-1.4-2.3,6.9,6.9,0,0,0-2.3-2.4A37.4,37.4,0,0,1,77.4,92H75.2c.1-.3.1-.8.3-1.5s-.2-.2-.2-.3A12.8,12.8,0,0,1,73,85.8h0c-.9-1.3-.7-2.8,0-3.2s1.6.1,1.7.1l2.5-.4,3.6-.9A47,47,0,0,1,85.6,80l2.3-.4.5-.3c1.5-.5,2.6.2,4.2.7a19.7,19.7,0,0,1,3.1,1.1,7.3,7.3,0,0,0-1.9,1.2,27.1,27.1,0,0,1,2.4,2.5c2.1,2.3,8.6,2.2,14.4,4.4,9,3.2,12,10.2,12.3,11.3a10.9,10.9,0,0,1,.1,3.1c0,.2-.1.4-.1.6l-.3,1.3a3.6,3.6,0,0,0,2.6-.3h.1a3,3,0,0,1-1.6-.8,1.1,1.1,0,0,1-.2-1.3,1.4,1.4,0,0,1,1.5-.5,1.5,1.5,0,0,1,1.1,1.5v.5h0a1.4,1.4,0,0,0,1-1.2,1.7,1.7,0,0,0-1.3-1.8l-.2-.3c0-.1.2-.2.3-.2A2.2,2.2,0,0,1,127.6,103.3Zm-2,.7a1.2,1.2,0,0,0-.5-1h-.2a1,1,0,0,0-1,.4c-.2.2,0,.5.1.7a2.3,2.3,0,0,0,1.6.6Z"/></g></g></svg>