<svg xmlns="http://www.w3.org/2000/svg" viewBox="0 0 200 200"><defs><style>.cls-1{fill:#ea9518;}.cls-2{fill:#51250f;}.cls-3{fill:#ffab24;}.cls-4{fill:#aa660c;}.cls-5{fill:#754307;}.cls-6{fill:#4e2918;}</style></defs><g id="Lion_02"><path class="cls-1" d="M137.4,70.5s-.1-1.6-3.5-3.3c0,0,.8-2.1-2.6-3.4,0,0-.6-.8-5.9-2.7a10.6,10.6,0,0,0-3.1-.1s-6.7-4.5-6.7,3.2c0,.6.3,1.4,1.6,1.8a8.8,8.8,0,0,0-.6,2.6,5.7,5.7,0,0,1-2.9,5.2A15.8,15.8,0,0,0,102,79.9s-2.8,2.8-4.8,3.6c0,0-19.6,6.1-22.3,19.7,0,0-2,12.1-2.3,14.7,0,0-2.2,2.9-2.9,3.2s-.6,6.5.5,7.4,4.8,5,9.3-.4c0,0,3.1-4.7-1.9-6.1,0,0,4.5-3.6,3.9-6.4,0,0,.1,3.5,1.3,4.8s1.7,3.8-.7,6.7c0,0-5.6,1.6-1.4,10.1.9,2,4.6,5.6,8.7.5,0,0,5.4-5.6-1.1-8.4,0,0,5.3-4.1,4.5-9.6,0,0-.7-10.3,8-13.8,0,0,4.1-1.8,5.9-2.4h.3a.1.1,0,0,1,.1-.1c.2,0,.5,1.1.6,2.6a16.8,16.8,0,0,1-.2,2.9,4.2,4.2,0,0,0,1,1.5,2.7,2.7,0,0,0,3,.8s3.9-1.5,4.1-4.1c0,0,1.2-2.2-2.3-3.1,0,0-.4-3.1.1-4.3s1.6-.1,2.1-1c.3,2.6.6,4.6.8,6s.5,2.8.6,4.2a24.9,24.9,0,0,1-.3,5.2,5.1,5.1,0,0,0,3,3.2,4.1,4.1,0,0,0,2.2,0,8.9,8.9,0,0,0,5.2-5.1s.9-3.2-3.7-4c0,0,1.4-11.9.9-15.9,0,0,2.4-3.8,3.4-11.3a5.4,5.4,0,0,1,1.3-1.9c2.2-2.2,5.4-1.6,6-1.9s1.2-1.3,1.7-2.5A10.7,10.7,0,0,0,137.4,70.5Z"/><path class="cls-2" d="M85.1,141h-.5a6.3,6.3,0,0,1-4.5-3.5c-1.5-3.1-2-5.7-1.4-7.7a6.4,6.4,0,0,1-3.6,1.5h-.2a8.1,8.1,0,0,1-5.2-2.3c-1.2-1-.8-5.9-.6-8v-.3l.3-.2a16.7,16.7,0,0,0,2.6-2.9c.4-2.8,2.2-14,2.3-14.5C77,89.3,96.2,83.2,97,82.9s4.5-3.4,4.5-3.4a15.9,15.9,0,0,1,12-6.3,5.2,5.2,0,0,0,2.5-4.5,7.9,7.9,0,0,1,.4-2.3,2.5,2.5,0,0,1-1.5-2.2c0-2.5.7-4.1,2-4.8s4.8.5,5.6.9h.6a5.1,5.1,0,0,1,2.5.2c4.3,1.5,5.6,2.4,6.1,2.8a4.7,4.7,0,0,1,2.7,2.2,3.6,3.6,0,0,1,.2,1.4c3.2,1.6,3.4,3.4,3.4,3.6h0a9.6,9.6,0,0,1-.8,4.4c-.6,1.3-1.2,2.5-2.1,2.9h-1a6.6,6.6,0,0,0-4.8,1.6,8.3,8.3,0,0,0-1.1,1.5c-.8,6.7-2.8,10.5-3.4,11.4.5,3.7-.5,12.8-.7,15.2a5.3,5.3,0,0,1,3.1,2,3.7,3.7,0,0,1,.4,2.7,9.3,9.3,0,0,1-5.7,5.5,4.9,4.9,0,0,1-2.4,0,5.4,5.4,0,0,1-3.5-3.6h-.1v-.2a21.8,21.8,0,0,0,.2-5.1,4.1,4.1,0,0,0-.1-1.1c-.7,2.5-4.2,3.9-4.3,4a3.5,3.5,0,0,1-3.8-1,5.5,5.5,0,0,1-1.1-1.7v-.4a12.4,12.4,0,0,0,.3-2.7,16.4,16.4,0,0,0-.3-1.8l-5.7,2.4c-8.2,3.2-7.6,13.1-7.6,13.2.7,4.5-2.5,8-4.1,9.5a4.9,4.9,0,0,1,2.7,3.2c.5,2.9-2.2,5.7-2.3,5.8C88.3,140,86.7,141,85.1,141Zm-2.9-24.6c.1,1.1.4,2.8,1.1,3.5v.2c.1.2,1.9,4.3-.8,7.5h-.3a3.2,3.2,0,0,0-2.1,2c-.8,1.7-.4,4.2,1,7.2a5.5,5.5,0,0,0,3.5,2.7c1.4.1,2.8-.7,4.1-2.4.1,0,2.4-2.5,2-4.7s-1.2-2-2.8-2.7l-1-.4.9-.7c0-.1,5-4,4.3-9,0-.2-.7-10.9,8.4-14.5.1,0,4.1-1.8,5.8-2.4h.7c1,0,1.2,2,1.3,3.2a13.3,13.3,0,0,1-.3,2.8l.9,1.1a2,2,0,0,0,2.3.7c1-.4,3.5-1.8,3.6-3.6v-.2a1,1,0,0,0,0-1c-.2-.5-.8-.9-1.8-1.1h-.5V104a12,12,0,0,1,.1-4.6V99h.4c.5-.1,1.4-.3,1.6-.7l1-1.6.2,1.9c.2,2,.5,4,.8,5.9l.2,1.2a17.7,17.7,0,0,1,.4,3,22.4,22.4,0,0,1-.2,5.2,4.5,4.5,0,0,0,2.5,2.7,3.7,3.7,0,0,0,1.8-.1,7.9,7.9,0,0,0,4.8-4.6,2.3,2.3,0,0,0-.4-1.7,3.7,3.7,0,0,0-2.8-1.4h-.6v-.6c0-.1,1.3-11.9.8-15.8v-.4c.1-.1,2.4-3.8,3.3-11.1v-.2a4.8,4.8,0,0,1,1.4-2,7.7,7.7,0,0,1,5.7-2h.6c.4-.1.9-1.2,1.2-2.1a7.3,7.3,0,0,0,.8-3.8c0-.2-.3-1.5-3.1-2.8l-.6-.2.3-.6c0-.1.4-1.6-2.2-2.6h-.2v-.2h0s-.8-.7-5.7-2.5a6.2,6.2,0,0,0-2-.1h-1.2c-.8-.5-3-1.7-4.4-1s-1.3,1.7-1.3,3.7c0,.4.2.9,1.1,1.2l.7.2-.2.6a10.2,10.2,0,0,0-.5,2.4,6.6,6.6,0,0,1-3.2,5.8h-.4a15.4,15.4,0,0,0-11.2,5.8c-.2.2-3,3-5.1,3.8-.2.1-19.3,6.2-21.8,19.2,0,.1-2,12.2-2.4,14.7h0v.2a35.4,35.4,0,0,1-2.7,3.2c-.3,3.1-.2,6.1.2,6.6A6.7,6.7,0,0,0,75,130a5.4,5.4,0,0,0,4-2.3h0s1.2-1.9.7-3.4a3,3,0,0,0-2.3-1.6l-1.3-.4,1.1-.8c1-.8,3.5-3.2,3.7-5.1a5.4,5.4,0,0,0-.1-.8h1.3A2.8,2.8,0,0,1,82.2,116.4Zm-3.4,5.4a3.8,3.8,0,0,1,2.1,2,4.6,4.6,0,0,1-.2,3.3,4.5,4.5,0,0,1,1-.5c1.8-2.3.8-5.3.6-5.9a8.5,8.5,0,0,1-1-1.9A11.1,11.1,0,0,1,78.8,121.8Zm35.1-18.4,1.7.9c-.2-1.4-.5-2.9-.6-4.4l-1.1.3A17.1,17.1,0,0,0,113.9,103.4Z"/><path class="cls-1" d="M78.4,101.4s-3.2,6-3.2,16.1c0,0-3.8,24-12.6,15.6,0,0-.2,8.6,6.7,4.8,0,0,7-6.3,8.5-24.3.2-2.5,1.1-6.9,4.7-8.8"/><path class="cls-2" d="M78.5,101.4a44.3,44.3,0,0,0-1.9,8c-.2,1.3-.4,2.6-.5,4a27.5,27.5,0,0,0-.2,4.1h0c-.3,2-.8,4.1-1.3,6.1s-1.3,4-2.1,6-1,1.9-1.6,2.8a7.6,7.6,0,0,1-2.4,2.3,3.9,3.9,0,0,1-3.5.5,7.5,7.5,0,0,1-2.8-1.8h0l.9-.4a21.7,21.7,0,0,0,.4,2.5,4,4,0,0,0,1.2,2.1,2.3,2.3,0,0,0,2,.4l1.1-.3,1.1-.5h-.1a22.7,22.7,0,0,0,2.6-3.5,36.2,36.2,0,0,0,1.9-4,45.1,45.1,0,0,0,2.7-8.6c.3-1.5.5-3,.8-4.5s.3-3,.5-4.5a13.4,13.4,0,0,1,1.6-4.5,6.6,6.6,0,0,1,3.6-3c-2.5,1.9-3.5,4.8-3.9,7.7s-.3,3-.5,4.5-.4,3-.7,4.5a43.7,43.7,0,0,1-2.7,8.9,27.4,27.4,0,0,1-2.1,4.2,16.9,16.9,0,0,1-2.8,3.8h-.2l-1.3.6a3.7,3.7,0,0,1-1.5.4,3.4,3.4,0,0,1-3-.9,5.7,5.7,0,0,1-1.5-2.6,14.3,14.3,0,0,1-.3-2.9V132l.9.7h0a4.9,4.9,0,0,0,2.4,1.4,2.6,2.6,0,0,0,2.4-.4,10.7,10.7,0,0,0,3.4-4.6,39.7,39.7,0,0,0,2-5.8,58.2,58.2,0,0,0,1.4-6v.2a47.8,47.8,0,0,1,.8-8.4,30.4,30.4,0,0,1,1.2-4,15.9,15.9,0,0,1,1.8-3.7Z"/><path class="cls-1" d="M114.6,93.4c0,3.7.9,5.2.9,5.2l-9,4.9"/><path class="cls-2" d="M114.6,93.4a19.7,19.7,0,0,0,.7,2.6,5.6,5.6,0,0,0,.4,1.2l.3,1.1h0l-.2.9-9.1,4.9-.5-1.1,9-4.9-.3.8h0a3.4,3.4,0,0,1-.5-1.4,6.1,6.1,0,0,1-.1-1.4,12.4,12.4,0,0,1,.3-2.7Z"/><path class="cls-3" d="M122.6,108.7a5.2,5.2,0,0,1,.2,3.4"/><path class="cls-4" d="M122.8,108.6l.3,1.8a4.7,4.7,0,0,1-.3,1.7,5,5,0,0,0-.3-3.4Z"/><path class="cls-3" d="M113.2,104.6a2.7,2.7,0,0,1-.1,2.1"/><path class="cls-4" d="M113.3,104.5a1.3,1.3,0,0,1,.1.6v.6l-.3,1a3.6,3.6,0,0,0,.2-1c0-.2-.1-.4-.1-.6l-.2-.4Z"/><path class="cls-1" d="M117.2,66a8.5,8.5,0,0,1,8.2-4.9"/><path class="cls-2" d="M117.8,66.3l-1.2-.5a9.1,9.1,0,0,1,8.8-5.4v1.3A7.9,7.9,0,0,0,117.8,66.3Z"/><path class="cls-3" d="M127.4,71a4.4,4.4,0,0,0,4,2.9,4.1,4.1,0,0,0,2-.9,3.2,3.2,0,0,0,.5-2.5c-.4-1.5-2.2-2.6-4.3-2.4"/><path class="cls-5" d="M127.4,71a5.8,5.8,0,0,0,2.7,2.2,2.6,2.6,0,0,0,1.5,0,2.4,2.4,0,0,0,1.3-.7h-.1a2.7,2.7,0,0,0,.5-1.5,1.6,1.6,0,0,0-.5-1.4,4.9,4.9,0,0,0-3.2-1.6,4,4,0,0,1,4,.9,3.2,3.2,0,0,1,1,2.1,4.1,4.1,0,0,1-.7,2.2h-.1a4.1,4.1,0,0,1-2,.9,3,3,0,0,1-2.1-.3A4.4,4.4,0,0,1,127.4,71Z"/><path class="cls-3" d="M81.5,116s-.4-3.6.2-5.4"/><path class="cls-6" d="M80.9,116.1a25.3,25.3,0,0,1,.1-2.8,11.9,11.9,0,0,1,.7-2.7,8.2,8.2,0,0,0,0,2.7,23.8,23.8,0,0,0,.5,2.6Z"/><path class="cls-3" d="M124.4,109.1s-.5-.2-.9.9"/><path class="cls-4" d="M124.4,109.2h-.2l-.3.2a2.1,2.1,0,0,0-.4.6l.3-.7a.6.6,0,0,1,.7-.3Z"/><path class="cls-3" d="M114.2,105.2s-.5-.3-.8.8"/><path class="cls-4" d="M114.1,105.3h-.4l-.3.6c.1-.2.1-.5.2-.7a.5.5,0,0,1,.7-.2Z"/><path class="cls-3" d="M115,105.7s-.6-.2-1,.9"/><path class="cls-4" d="M115,105.9a.5.5,0,0,0-.6.1,1.5,1.5,0,0,0-.4.6l.3-.7a.8.8,0,0,1,.8-.3Z"/><path class="cls-3" d="M125.7,109.8s-.9-.1-1.2,1.1"/><path class="cls-4" d="M125.6,109.9a1.1,1.1,0,0,0-.7.3,1.6,1.6,0,0,0-.4.7l.3-.8a.8.8,0,0,1,.9-.4Z"/><path class="cls-3" d="M126.1,110.9s-.6-.4-.9.9"/><path class="cls-4" d="M126,111h-.5l-.3.7a1.4,1.4,0,0,1,.2-.7.6.6,0,0,1,.8-.3Z"/><path class="cls-3" d="M89.1,130.5s-.9-.2-1.2,1.1"/><path class="cls-4" d="M89.1,130.6a.8.8,0,0,0-.7.2,2.2,2.2,0,0,0-.5.8,3.6,3.6,0,0,1,.4-.9,1,1,0,0,1,.8-.4Z"/><path class="cls-3" d="M89.9,131.1s-.8-.2-1.1,1"/><path class="cls-4" d="M89.9,131.2l-.7.2a2.5,2.5,0,0,0-.4.7c.1-.2.1-.5.3-.7a.7.7,0,0,1,.8-.4Z"/><path class="cls-3" d="M78.3,123s-.8-.2-1.1,1"/><path class="cls-4" d="M78.3,123.1a.7.7,0,0,0-.7.2,2.5,2.5,0,0,0-.4.7,1.3,1.3,0,0,1,.3-.8,1.2,1.2,0,0,1,.8-.4Z"/><path class="cls-3" d="M79.4,123.9s-.8-.1-1.1,1.1"/><path class="cls-4" d="M79.4,124a1.1,1.1,0,0,0-.7.3,1.6,1.6,0,0,0-.4.7,1.1,1.1,0,0,1,.3-.8.8.8,0,0,1,.9-.4Z"/><path class="cls-3" d="M80,125s-.9-.1-1.2,1.2"/><path class="cls-4" d="M80,125.1a1.1,1.1,0,0,0-.8.3,2,2,0,0,0-.4.8,1.6,1.6,0,0,1,.3-.9,1.3,1.3,0,0,1,.9-.4Z"/><path class="cls-3" d="M90.8,132.6s-.9-.4-1.2.8"/><path class="cls-4" d="M90.7,132.8c-.2-.1-.5-.2-.7,0s-.3.4-.4.6a1.1,1.1,0,0,1,.3-.7,1,1,0,0,1,.9-.2Z"/><path class="cls-3" d="M88.2,129.3s-2.8.3-2.1,2.8"/><path class="cls-6" d="M88.2,129.5a2.6,2.6,0,0,0-1.7.7,1.2,1.2,0,0,0-.4.9,1.7,1.7,0,0,0,0,1,1.6,1.6,0,0,1-.1-1,1.9,1.9,0,0,1,.3-1,3.5,3.5,0,0,1,1.9-1Z"/></g></svg>