<svg xmlns="http://www.w3.org/2000/svg" xmlns:xlink="http://www.w3.org/1999/xlink" viewBox="0 0 200 200"><defs><style>.cls-1,.cls-13{fill:none;}.cls-2{isolation:isolate;}.cls-3{fill:#353535;}.cls-4{fill:#262626;}.cls-5{fill:#636161;}.cls-6{fill:#424242;}.cls-7{fill:#dbdbd9;}.cls-8{fill:#edecd9;}.cls-9{mix-blend-mode:multiply;}.cls-10{clip-path:url(#clip-path);}.cls-11{fill:#eee;}.cls-12{fill:#b7b8ba;}.cls-13{stroke:#4d4d4d;stroke-miterlimit:10;stroke-width:0.42px;}</style><clipPath id="clip-path"><rect id="SVGID" class="cls-1" x="116.1" y="103.2" width="5.8" height="5.53"/></clipPath></defs><g class="cls-2"><g id="Sheep_01"><path class="cls-3" d="M108.5,124.4l.6.7a2.2,2.2,0,0,1-3.3-1.1h.9a.7.7,0,0,1-.3-.3c.6-.4,1.5-.5,2.1.8"/><path class="cls-4" d="M105.8,124a2.1,2.1,0,0,0,.4.7,1.8,1.8,0,0,0,1,.2,4,4,0,0,0,1.5-.3l-.2-.2c-.6-1.3-1.5-1.2-2.1-.8a.7.7,0,0,0,.3.3Z"/><path class="cls-5" d="M109.4,117.7a7.1,7.1,0,0,1-.6,3.7c-.5,1.2-1.1,1.5-1.3,2.2a1.5,1.5,0,0,0,.1.7,1.6,1.6,0,0,0,1.5.8c.3-1.2,1-.7,1.3-1.4a20.5,20.5,0,0,0,.5-2.4,7.3,7.3,0,0,1,1.1-2.6c1.8-2.2-1.4-3.1,1.4-8.2a.4.4,0,0,1,.1-.3c4-7.6.9-12.6.1-13.5a4.1,4.1,0,0,0-5.2.1c-1.3,1.1-2.3,3.1-2.8,6.7a22.2,22.2,0,0,0-.2,4.3,13.2,13.2,0,0,0,2.3,7l.7,1a5,5,0,0,1,1,1.9"/><path class="cls-6" d="M107.6,124.3c.7,0,.9-.7,1.2-1.2a5.1,5.1,0,0,0,.9-1.8c.1-.5.1-1,.2-1.4l.3-1.4c.1-.4,0-.8.3-1.2s.6-.4.8-.6a1.7,1.7,0,0,0,.4-1.2.7.7,0,0,0-.5-.7l-1,.3a4.5,4.5,0,0,1-1.2.6h-.6a5,5,0,0,1,1,1.9,7.1,7.1,0,0,1-.6,3.7c-.5,1.2-1.1,1.5-1.3,2.2a1.5,1.5,0,0,0,.1.7"/><path class="cls-5" d="M74.1,83.6c-.6,1.6,1.3,3.4,2.4,4S85.1,86,85.1,86a9,9,0,0,0-3.5-7.1s-5.5,1.5-7.2,4.2c-.1,0-.1.1-.2.2s-.1.2-.1.3"/><path class="cls-3" d="M115.2,121.1a1.5,1.5,0,0,0,.3.7,2.2,2.2,0,0,0,2.9.3l-.4-.5-.2-.2a1.4,1.4,0,0,0-2.1-.8l.3.4Z"/><path class="cls-4" d="M115.2,121.1a1.5,1.5,0,0,0,.3.7l1,.2a2.6,2.6,0,0,0,1.5-.4l-.2-.2a1.4,1.4,0,0,0-2.1-.8l.3.4Z"/><path class="cls-5" d="M119.4,94.7c.9.8,3.4,5.7,1.8,13.1-1.2,5.7,1.9,5.7.1,8a6.5,6.5,0,0,0-1.1,2.6c-.2.6-.2,1.7-.5,2.4s-1,.2-1.3,1.3-1.7-.9-1.6-1.4.8-1,1.3-2.3a6.9,6.9,0,0,0,.6-3.6c-.7-2.9-5.1-4.3-3.8-14.3s3.1-6.8,4.5-5.8"/><path class="cls-3" d="M92.4,108.2l.6.7a2.2,2.2,0,0,1-3.3-1.1h.9l-.3-.3c.6-.4,1.5-.5,2.1.8"/><path class="cls-4" d="M89.7,107.8a2.1,2.1,0,0,0,.4.7,1.8,1.8,0,0,0,1,.2l1.5-.3-.2-.2c-.6-1.3-1.5-1.2-2.1-.8l.3.3Z"/><path class="cls-3" d="M86,111.9l.6.7a2.2,2.2,0,0,1-3.3-1.1h.9a.7.7,0,0,1-.3-.3c.6-.4,1.5-.5,2.1.8"/><path class="cls-4" d="M83.3,111.5a2,2,0,0,0,.4.8h1a3.2,3.2,0,0,0,1.4-.3v-.2c-.6-1.3-1.5-1.2-2.1-.8a.7.7,0,0,0,.3.3Z"/><path class="cls-5" d="M94.5,89.8s-.5,3.8-.6,7.6c0,2,.3,2.8.2,3.8s-.5.5-.5,2.2.3,2.8.2,3.3-.6.5-.6.9.4.7-.2,1.3-1.3.1-1.8-.7a.7.7,0,0,1,0-.9,2.1,2.1,0,0,0,.4-1.1,11.8,11.8,0,0,0-.3-4.9c-.1-.6-.5-.7-.6-1.5s.2-1.1.1-1.8c-.5-4.7-1.3-9.9-1.3-9.9Z"/><path class="cls-5" d="M83.1,91.8l.3,2.1c.2,1.3.4,3,.7,4.9l.3,2.9c.1.7-.2,1.2-.1,1.8s.5.9.6,1.5a11.8,11.8,0,0,1,.3,4.9,2.1,2.1,0,0,1-.4,1.1.7.7,0,0,0,0,.9c.5.8,1.8.7,1.8.7s.1-.7.2-1.3.4-.3.6-.9-.2-1-.2-3.3.4-1.1.5-2.2a30.5,30.5,0,0,1-.2-3.8v-.2c0-1.9.2-3.8.3-5.1a17.4,17.4,0,0,1,.3-2.3l-.9-.3-1.5-.5Z"/><path class="cls-6" d="M90.1,77.8l.2,1.5c4.5,3,8.3,1.5,8.6.7a2.2,2.2,0,0,0-.4-1c-1.2-1.7-4.7-4.2-8.4-1.2"/><path class="cls-7" d="M82.9,93.5a3.4,3.4,0,0,0-.1,1.4c.1.8-1.2,1.4-1,2.1s1.4,1,1.7,1.7-.5,1.6-.1,2.2a9.3,9.3,0,0,0,.9,2,4.5,4.5,0,0,0,2,.9c.2.1.4.5.7.6s.6-.3.9-.3.6.4.9.4.5-.5.7-.6h.9c.3-.1.4-.6.6-.7a.1.1,0,0,1,.1-.1l.8-.2c.2-.2.1-.7.3-.9s.7-.2.8-.4.2-.4.1-.9a5.4,5.4,0,0,1-.1-1.1l-.4-1c-.2-.5-.8-1.1-1.1-1.8A12.1,12.1,0,0,1,91,95c0-.1-.1-.3-.1-.4a20.3,20.3,0,0,0-1.3-1.8c-.3-.7-.3-1.5-.6-2.2a20.9,20.9,0,0,0-1.4-1.7,13.1,13.1,0,0,0-.8-2.1c-.4-.7-1.1-1.1-1.5-1.6s-.9-1.5-1.4-1.7a.6.6,0,0,0-.7-.1.5.5,0,0,0-.5.3l-.5.7a14.8,14.8,0,0,1-.8,1.3.6.6,0,0,0-.1.4l-.2.2c-.1.7,1.9,1.5,1.8,2.2s-.4,1.4-.4,2.1a17,17,0,0,0,.4,2.2v.7"/><path class="cls-8" d="M92.9,80.9c0-.3-.4-.7-.6-1.1s0-.8-.2-1.1-.7-.4-.9-.7-.3-.8-.5-1.1l-1-.5-.7-.9a5.3,5.3,0,0,0-1.2-.3c-.3-.2-.6-.6-.9-.6s-.8.2-1.2.2l-1.2-.3c-.3,0-.7.4-1.1.4s-.8-.2-1.2-.1-.7.5-1,.6-.9.1-1.2.2-.5.7-.8,1-.7.4-.8.8a2.9,2.9,0,0,0,.1,1.6c.1.5,0,1.1.3,1.5s.8.7,1.2,1.1.5.9.9,1.3.9.7,1.1,1.1a4.7,4.7,0,0,1,.4,1.6,6.7,6.7,0,0,1,.6,1.5c0,.5-.4,1-.5,1.6s.6.1,1.4-.5,1-.4,1.5-.8a15,15,0,0,0,1.1-1.3c.4-.3,1-.4,1.5-.8s.6-.9,1-1.3,1.1-.5,1.5-.9.6-1,1-1.3,1-.2,1.4-.9"/><path class="cls-8" d="M81,83.3c.1.5.9.9,1,1.5s-.8,3.1-.7,3.7,1.1.8,1.3,1.3-.1,1.3.2,1.8a.2.2,0,0,0,.2.2c.2.2-1.4.3-1.1.4s.5.2.6.4,1.5,1.1,1.8.3a1.3,1.3,0,0,0,.1-.6,5.5,5.5,0,0,1-.2-1.9v-.2c0-.1.1-.2.1-.4a3.6,3.6,0,0,0,.7-1.7c0-.7-.7-1.5-.7-2.2s.6-1.8.5-2.6a4.4,4.4,0,0,0-.8-1.5l-.3-.7c-.2-.8-.3-1.6-.4-2s-.2-.4-.4-.3-.1.8-.3.9-.8-.4-1-.3,0,.9-.2,1-.8-.4-1-.2-.1.3-.1.6v.3c-.3.2-.9-.2-1.1-.1s-.6.2-.7.6v.2c0,.6.7.6.8,1.5s1.6-.7,1.7,0"/><path class="cls-7" d="M106.2,106.1c.5.6,1.3,1,2,1.7l.7,1.1a5.4,5.4,0,0,0,.9,1.2,14.8,14.8,0,0,0,2.1,1.3c.6.6,1.2,1.5,1.8,2s1.5.4,2.2.8,1.4,1.1,2.1,1.3,1.4-.1,2.1-.1l.7.2c.3.1.7.3,1,.2s.7-.9,1.1-1.2,1.1-.3,1.3-.8.1-1.4.3-2,.6-1,.6-1.6a1.4,1.4,0,0,0-.1-.9,6,6,0,0,1-.2-1.2c0-.8.3-1.4.3-2s.1-1.2-.7-1.8-.9-.6-2.4-.7-1.5.3-2.4.3-1.7-.7-2.6-.8-1.6.5-2.4.4a8.3,8.3,0,0,1-2.1-.6h-.4c-.9,0-1.7.5-2.4.5s-1.9-.5-2.6-.5-2,.5-1.9.8a4.8,4.8,0,0,0,1,2.5"/><path class="cls-8" d="M83.7,91.2c.1.7-1.3,1.4-1.2,2a3.4,3.4,0,0,1,.1,1,.9.9,0,0,0,.1.5.7.7,0,0,0,.1.5A8.3,8.3,0,0,0,84.1,97a14,14,0,0,0,.9,1.7v.2a20.9,20.9,0,0,0,1.7,1.4,20.9,20.9,0,0,0,1.4,1.7c.4.4,1.1.6,1.6,1H90a2.7,2.7,0,0,1,.7.8l.3.3.5.6.5.3a3.9,3.9,0,0,1,1.4.8c.5.4.9,1.1,1.4,1.6s1.7.8,2.4,1.3,1.3,1.4,2,1.8l.5.3.5.2a6.7,6.7,0,0,1,1.5.6c.8.4,1.5,1.1,2.3,1.5h.2l2.5.6,1.6.7.9.3a24.3,24.3,0,0,0,2.7,0,26.4,26.4,0,0,0,2.8.2,15.2,15.2,0,0,0,2.5-.9l1.6-.4h.5l.5-.3a11.2,11.2,0,0,0,2-1.8,12.8,12.8,0,0,0,1.7-1c.5-.5.6-1.3.9-1.8a14.7,14.7,0,0,0,1-1.3.4.4,0,0,0,.1-.3c.3-.6,0-1.3.1-1.9a16.2,16.2,0,0,0,.4-1.9,9.6,9.6,0,0,0-.7-1.8c-.2-.7-.1-1.4-.3-2a9.3,9.3,0,0,0-1.3-1.5,9.8,9.8,0,0,0-.8-1.8,15.8,15.8,0,0,0-1.5-1.2c-.5-.5-.8-1.2-1.3-1.5s-1.3-.5-1.9-.9-1-.9-1.6-1.2-1.4-.2-2-.5-1.1-.8-1.8-1a14.2,14.2,0,0,0-2-.4,10.8,10.8,0,0,0-1.8-1.1c-.6-.3-1.4-.3-2-.6s-1-.9-1.6-1.2a15.9,15.9,0,0,1-2-.7c-.5-.4-.9-1-1.5-1.4s-1.4-.5-2-.9-1-.9-1.7-1h-.4c-.2-.1-.4-.6-.6-.8a1.7,1.7,0,0,0-1.1-.6c-.6-.1-.5-.4-.9-.8s-1-.4-1.5-.5a5.4,5.4,0,0,1-1.8,0c-.2-.2-1.4-1.2-1.6-.7s-1.4-.2-2.2.1-1.2-.1-1.8.5a7.4,7.4,0,0,1-1.3.8l-1,1h-.1a9.1,9.1,0,0,0-1.1,1.6l-.2.3a3.9,3.9,0,0,0-.3,2.8h0l.3.5c-.2.2-.3.3-.3.5s.2-.2,0,1.6,1.4,1.4,1.4,2.1"/><path class="cls-7" d="M99.1,107.3c.2.6.9,1.2,1.3,2a3.6,3.6,0,0,1,.2,1.1,5,5,0,0,0,.4,1.3l.4.5a8,8,0,0,1,1.3,1.3c.5.6.6,1.6,1.1,2.2s1.5.8,2.1,1.4.9,1.4,1.6,1.8a16.8,16.8,0,0,0,2.4.6l.6.4c.4.2.7.5,1.1.5s1.2-.4,1.8-.5,1.4.1,1.9-.2.7-1,1.1-1.4,1.3-.7,1.7-1.2l.3-.7a3.5,3.5,0,0,1,.3-1.1c.4-.6,1-.9,1.3-1.4a4.1,4.1,0,0,0,.5-1.1c0-.2-.1-.3-.3-.6s-.7-.8-2.3-1.4-1.9-.2-2.9-.6-1.6-1.1-2.5-1.5-1.9-.2-2.8-.5-1.4-.9-2.1-1.2l-.5-.3-1.5-.2a5,5,0,0,1-1.3-.3c-1-.3-1.8-1-2.6-1.3s-2.5-.3-2.6,0a3.6,3.6,0,0,0,0,2.4"/><g class="cls-9"><g class="cls-10"><path class="cls-11" d="M121.7,105.7h0"/><path class="cls-11" d="M116.1,105.9c0-.3.7-.4.8-.7s-.6-.5-.5-.7.8-.2.9-.3a1.6,1.6,0,0,0-.4-.7c0-.1,0-.3.2-.3s.9.5.7.8-.5.5-.4.8.8.2,1,.4-.1,1,.2,1.1.6-.5.8-.4.2.8.3.8.4-.6.6-.7.6.6.7.5-.2-.7-.1-.8.3,0,.4,0,.7.6.5,1-1.1.5-1.6.8-.7,1.2-1.3,1.2-.9-.7-1.4-1.1-.9.2-1,0,.4-.8.4-1-.8-.5-.8-.7"/></g></g><path class="cls-6" d="M81.8,90.8c.8-.1,4.3-5.1.2-8.9l-.5-.2a1.7,1.7,0,0,0-1.4,0c-3.8,2.6-.7,7.2.9,8.6s.6.5.8.5"/><path class="cls-6" d="M74.5,84.1c.1.3.3.4.5.6s.2-.1.1-.2a1.6,1.6,0,0,0-.6-.8v.2c0,.1-.1.2,0,.2"/><path class="cls-12" d="M89.7,102.9H90l.9,1.1.5.6.6.4a4.6,4.6,0,0,1,1.3.8c.6.4.9,1.1,1.5,1.6s1.6.9,2.3,1.4,1.3,1.4,2,1.9l.6.3.4.2a6.7,6.7,0,0,1,1.5.6c.8.4,1.5,1.2,2.3,1.5h.3c.3-.4-.4-.7,0-1.3s1-.4,1.1-.9-.3-1-.1-1.4,1-.6,1.1-1-.5-.9-.5-1.3.5-1.2.2-1.4-1.5.1-2.5-.1-1.3-1-2.1-1.1-1.6.4-2.4.3-1.3-1-2.1-1.2-1.7.4-2.4.1-1.1-1.2-1.5-1.6-.9.1-1.1-.1,0-.9-.1-1-.8.3-1,.3-.8-.7-.9-.5.4.7.4,1-.4.3-.6.6"/><path class="cls-13" d="M74.1,83.6c0-.1.1-.2.1-.3s.1-.2.2-.2S77,80.7,78.6,80a3.4,3.4,0,0,1-.1-1,2.9,2.9,0,0,1-.1-1.6c.1-.4.5-.6.8-.8s.4-.8.8-1,.8,0,1.2-.2.6-.5,1-.6.8.2,1.2.1.8-.4,1.1-.4l1.2.3c.4,0,.9-.3,1.2-.2s.6.4.9.6a5.3,5.3,0,0,1,1.2.3l.7.9,1,.5c0,.1.1.2.1.3,3.5-2,6.5.3,7.7,1.8a2.2,2.2,0,0,1,.4,1c-.2.5-1.4,1.1-3.1,1.1h.3a1.7,1.7,0,0,1,1.1.6c.2.2.4.7.6.8h.4c.7.1,1.1.6,1.7,1s1.4.5,2,.9,1,1,1.5,1.4a15.9,15.9,0,0,0,2,.7c.6.3,1,.9,1.6,1.2s1.4.3,2,.6a10.8,10.8,0,0,1,1.8,1.1,14.2,14.2,0,0,1,2,.4c.7.2,1.2.8,1.8,1s1.4.2,2,.5,1,.9,1.6,1.2,1.4.4,1.9.9.8,1,1.3,1.5a15.8,15.8,0,0,1,1.5,1.2,9.8,9.8,0,0,1,.8,1.8,9.3,9.3,0,0,1,1.3,1.5c.2.6.1,1.3.3,2a9.6,9.6,0,0,1,.7,1.8,16.2,16.2,0,0,1-.4,1.9c-.1.6.2,1.3-.1,1.9a.4.4,0,0,1-.1.3l-.6.8c0,.3.2.7.2,1.1a1.4,1.4,0,0,1,.1.9c0,.6-.5,1-.6,1.6s0,1.5-.3,2-.9.5-1.3.8-.6,1.1-1.1,1.2h-.5a6.5,6.5,0,0,0-1.1,2.6c-.2.6-.2,1.7-.5,2.4s-1,.2-1.3,1.3h0a2.2,2.2,0,0,1-2.9-.3,1.5,1.5,0,0,1-.3-.7h.8l-.3-.4a1.3,1.3,0,0,1,1.2-.1c.2-.6.7-.9,1.2-2.1a14.1,14.1,0,0,0,.7-2.8h-.2l-.2.8-.3.7c-.4.5-1.1.7-1.7,1.2s-.6,1.1-1.1,1.4-1.3.1-1.9.2-1.2.6-1.8.5h-.4l-.3,1a20.5,20.5,0,0,1-.5,2.4c-.3.7-1,.2-1.3,1.4h0a2.1,2.1,0,0,1-2.9-.4h0l-.2-.2h0l-.2-.3h.9a.1.1,0,0,1-.1-.1h0c-.1,0-.1-.1-.2-.2a1.7,1.7,0,0,1,1.2-.2c.2-.6.7-.9,1.2-2a5.6,5.6,0,0,0,.4-1.2c0-.2.1-.5.1-.7h.1a8.7,8.7,0,0,1-1.9-.5c-.7-.4-1-1.3-1.6-1.8s-1.5-.8-2.1-1.4-.6-1.6-1.1-2.2a8,8,0,0,0-1.3-1.3l-.4-.5h0l-.9-.3-.4-.2-.6-.3c-.7-.5-1.2-1.3-2-1.9s-1.6-.8-2.3-1.4a5.2,5.2,0,0,1-1-1.1v.3c-.2.6-.6.5-.6.9s.4.7-.2,1.3h0a2.1,2.1,0,0,1-2.9-.4h0l-.2-.2h0l-.2-.3h.9a.1.1,0,0,1-.1-.1h0l-.2-.2a1.2,1.2,0,0,1,1-.2,3.8,3.8,0,0,0,.3-1,6.2,6.2,0,0,0,.1-1.3h-.5l-.2-.2h0l-.3-.3h0c0-.1-.1-.1-.1-.2l-.2.2h-.9c-.2.1-.4.5-.7.6s-.6-.3-.9-.4h-.2v.7c-.1,1.1-.5.5-.5,2.2s.3,2.8.2,3.3-.6.5-.6.9.4.7-.2,1.3h0a2.2,2.2,0,0,1-2.9-.3h0l-.2-.2h0l-.2-.3h.9a.1.1,0,0,1-.1-.1l-.2-.2a1.2,1.2,0,0,1,1-.2,3.8,3.8,0,0,0,.3-1,11.8,11.8,0,0,0-.3-4.9c-.1-.6-.5-.7-.6-1.5s0-.4,0-.6a9.3,9.3,0,0,1-.9-2c-.4-.6.4-1.5.1-2.2s-1.5-1-1.7-1.7.8-1.1,1-1.7h0a.7.7,0,0,1-.1-.5.9.9,0,0,1-.1-.5,3.4,3.4,0,0,0-.1-1,1.7,1.7,0,0,1,.2-.5h-.2c-.1-.2-.4-.3-.6-.4s.4-.2.8-.2a6.8,6.8,0,0,1-.2-1.4v-.4l-.7.6c-.2,0-.4-.2-.8-.5a9,9,0,0,1-2-2.7,5.1,5.1,0,0,1-2.5,0C75.4,87,73.5,85.2,74.1,83.6Z"/></g></g></svg>