<svg xmlns="http://www.w3.org/2000/svg" xmlns:xlink="http://www.w3.org/1999/xlink" viewBox="0 0 200 200"><defs><style>.cls-1{fill:none;}.cls-2{fill:#e0b886;}.cls-3{fill:#877c70;}.cls-4{fill:#6b5e4d;}.cls-5{fill:#cea476;}.cls-6{fill:#fcdaad;}.cls-7{fill:#c1955b;}.cls-8{fill:#68553e;}.cls-9{opacity:0.39;}.cls-10{clip-path:url(#clip-path);}.cls-11{fill:#fff;}.cls-12{fill:#333130;}</style><clipPath id="clip-path"><rect id="SVGID" class="cls-1" x="67.9" y="70.2" width="0.7" height="0.71"/></clipPath></defs><g id="Goat_01"><path class="cls-2" d="M84.3,73c-6.9,2.8-4.8-3.2-8.3-4.1-1.7-.5-.6-2,1-2.2,4.6-.8,5,3.8,7.8,5.3.8.4.3.7-.5,1"/><path class="cls-3" d="M120.8,133.1l.6,1.1c1.1,1.3,3.4,1.4,4.3.5l-.7-.8-.2-.3c-1-1.8-2.2-1.7-3.1-1.2l.4.5Z"/><path class="cls-4" d="M120.8,133.1l.6,1.1a3.9,3.9,0,0,0,1.5.2,3.6,3.6,0,0,0,2.1-.5l-.2-.3c-1-1.8-2.2-1.7-3.1-1.2l.4.5Z"/><path class="cls-5" d="M123.3,132.6c-.2.8.5,2.1,2.4,2.1.5-1.8,1.5-1,1.9-2.1a15.5,15.5,0,0,0,.7-3.5c.7-2.2,1.1-3.2,1.7-3.9,2.7-3.3-1.8-3.4-.1-11.9a31,31,0,0,0,.4-11.6c-.8-4.2-2.3-6.9-3.2-7.9s-1.7-.6-2.5.9-1.6,4.2-1.9,7.8c-1.4,14.9,2.5,16.9,3.5,21.2a10.5,10.5,0,0,1-1,5.4c-.7,2-1.6,2.4-1.9,3.5"/><path class="cls-3" d="M113.7,140.1l1,1a3.2,3.2,0,0,1-4.9-1.6H111l-.4-.6c.9-.5,2.2-.6,3.1,1.3"/><path class="cls-4" d="M109.8,139.5a2.8,2.8,0,0,0,.5,1.1,4.1,4.1,0,0,0,1.6.3,4.2,4.2,0,0,0,2.1-.6l-.3-.2c-.9-1.9-2.2-1.8-3.1-1.3l.4.6Z"/><path class="cls-3" d="M88.3,114.7l1,1c-1.2,1.1-4.3.8-4.9-1.6h1.2l-.4-.6c.9-.5,2.2-.6,3.1,1.3"/><path class="cls-4" d="M84.4,114.1a2.8,2.8,0,0,0,.5,1.1,4,4,0,0,0,1.5.3,3.7,3.7,0,0,0,2.1-.6l-.2-.2c-1-1.9-2.2-1.8-3.1-1.3l.4.6Z"/><path class="cls-3" d="M78.7,120.2l1,1a3.2,3.2,0,0,1-4.9-1.5l1.2-.2-.4-.6c1-.4,2.2-.6,3.1,1.3"/><path class="cls-4" d="M74.8,119.7a3.1,3.1,0,0,0,.5,1,4.1,4.1,0,0,0,1.6.3,5,5,0,0,0,2.1-.5l-.3-.3c-.9-1.9-2.1-1.7-3.1-1.3l.4.6Z"/><path class="cls-5" d="M91.4,87.3a101,101,0,0,0-.9,11.2c0,3,.4,4.3.4,5.7s-.8.8-.8,3.3.5,4.2.3,5-.9.7-.9,1.3.5,1-.2,1.9-2.1.2-2.8-1.1a1.1,1.1,0,0,1,.1-1.3,5.6,5.6,0,0,0,.6-1.7,20.9,20.9,0,0,0-.5-7.3c-.2-.8-.7-1-1-2.1s.4-1.7.3-2.8c-.8-7-2-14.7-2-14.7Z"/><path class="cls-6" d="M76.4,105c.2,1.1-.4,1.8-.2,2.7s.8,1.4,1,2.2a18,18,0,0,1,.4,7.2,3.8,3.8,0,0,1-.6,1.7,1.4,1.4,0,0,0-.1,1.4c.8,1.2,2.8,1,2.8,1s.1-1,.2-1.9.7-.5.9-1.3-.2-1.5-.2-5,.6-1.7.7-3.3-.4-2.7-.3-5.6v-.3c0-1.3.1-2.6.2-3.9s.2-2.7.3-3.8.3-3.3.3-3.3l-1.3-.5-2.2-.7-3.4-3.2v.5c.2,2.5,1.4,14.8,1.5,16.1"/><path class="cls-6" d="M63,73.9c-.2,1.6,2.1,2.9,3.3,3.1s2.4-.2,4.5-.6,1.5,3.2,2.3,6,1.1,4.3,1.8,6.5,2.5,7,4.4,9.1l1.9,1.9c8.2,7.9,21.2,13.4,30.6,14,.4,5,2.1,10.5,3.5,15s-2.2,7.1-3,10a1.4,1.4,0,0,0,.1,1.1,2.1,2.1,0,0,0,1,.8,2.5,2.5,0,0,0,1.3.3c.4-1.7,1.4-1,1.9-2.1s.4-2.6.7-3.5a9.6,9.6,0,0,1,1.7-3.9c2.7-3.3-2.2-4.7,2-12.3,5.7-10.5,9.2-21.1,6.1-25.5-4.2-6.2-13.1-5.9-21.5-7.4-11.1-2-21.8-9.8-24.1-13.1a32.1,32.1,0,0,1-1.9-3.1c-1.5-2.7-3.1-5.2-5.6-4.8s-9.9,4.8-10.9,7.8a.4.4,0,0,0-.1.3c0,.1-.1.3,0,.4"/><path class="cls-6" d="M124.6,94.7a19.4,19.4,0,0,0,1.6,5.7c.3.7.2.8,1,.9s1.9-.2,3.1.4c-.8-4.2-2.3-6.9-3.2-7.9s-1.7-.6-2.5.9"/><path class="cls-2" d="M126.4,103.6a20.8,20.8,0,0,1-1,6.4c2.3-2.3,3.3-4.5,3.3-6.5a6.5,6.5,0,0,0-.9-3.2s-1.4.8-1.4,3.3"/><path class="cls-2" d="M81.1,99.2a1.5,1.5,0,0,0,.1.7c8.2,7.9,21.2,13.4,30.6,14-.8-6,2-7.2.9-9.3s-5.8,5.4-15.1,2.3-13.7-11.6-15-12.5-1.5,4.8-1.5,4.8"/><path class="cls-7" d="M135.1,102.9a1,1,0,0,0,.7.2c-1.1.6-3.1,1.2-4.9-1.7a1.4,1.4,0,0,0-.6-.7,6.7,6.7,0,0,0-3.8-.8c-1.3.2-.1-1.8.7-1.9a8.8,8.8,0,0,0,3.8-2c-.1.2,0,.5-.1.6s1.9-.7,2.3-.4-.4.2-.5.5a2.3,2.3,0,0,1,2.1,1.6h-.9c.1.7.2,2.7,1.1,2.9s-.9,0-.9,0,1.2,1.3,2.7,1a3.9,3.9,0,0,1-1.7.7"/><path class="cls-4" d="M77.2,67.1l-.9-.5c-1.2-.6-.3-1.5.9-2.2a.6.6,0,0,1,1,.6c0,1.1-.3,2.5-1,2.1"/><path class="cls-4" d="M75.1,69.2l-.9-.4c-1.2-.7-.4-1.6.9-2.3a.7.7,0,0,1,1,.7c-.1,1-.3,2.4-1,2"/><path class="cls-2" d="M69.8,80.1c7-2.6,1.4-5.7,3.3-8.7,1-1.5-.8-1.9-2.2-1-3.9,2.6-1.1,6.2-2.2,9.3-.3.8.3.7,1.1.4"/><path class="cls-8" d="M63,73.9l.7.7c.1,0,.2-.2.2-.3a10.5,10.5,0,0,1-.8-1.1.4.4,0,0,0-.1.3c0,.1-.1.3,0,.4"/><path class="cls-8" d="M69.6,70.3c0,.2-.3.5-.8.7s-1,0-1.1-.2.3-.6.8-.7,1-.1,1.1.2"/><g class="cls-9"><g class="cls-10"><path class="cls-11" d="M67.9,70.5a.4.4,0,0,0,.4.4c.2,0,.3-.2.3-.4a.3.3,0,0,0-.3-.3c-.2,0-.4.1-.4.3"/></g></g><path class="cls-12" d="M112.9,142.3h-.3a3.8,3.8,0,0,1-2.6-1.2l-.2-.2-.3-.4v-.2c-.1-.2-.1-.4-.2-.6l-.2-.7h1l-.2-.4.5-.2a2.8,2.8,0,0,1,1.7-.4,25.6,25.6,0,0,1,1.1-2.4c1.1-2.1,2.3-4.4,1.6-6.4a79.3,79.3,0,0,1-3.5-14.6,54.7,54.7,0,0,1-20.5-6.9,20.1,20.1,0,0,0,.3,3.5,8.5,8.5,0,0,1,0,1.6,2.2,2.2,0,0,1-.8,1c-.1.1-.1.1-.1.2s0,.3,0,.5.3.9-.4,1.7a3.1,3.1,0,0,1-2.5.8,4.4,4.4,0,0,1-2.6-1.1h-.2l-.3-.5v-.2a1.4,1.4,0,0,1-.2-.6l-.2-.7h.9l-.2-.4.6-.2a2.5,2.5,0,0,1,1.4-.4,2.9,2.9,0,0,0,.2-.9,17.4,17.4,0,0,0-.3-6.8,44.3,44.3,0,0,1-4.5-3.6c0,1-.1,1.8-.1,2.7h0a31.8,31.8,0,0,0,.2,3.8,12.8,12.8,0,0,1,.1,1.9,2.5,2.5,0,0,1-.4,1.5c-.2.3-.3.6-.3,1.8a25.6,25.6,0,0,0,.2,3.6,2.9,2.9,0,0,1,0,1.6,1.7,1.7,0,0,1-.7,1l-.2.2a.9.9,0,0,0,.1.5,1.7,1.7,0,0,1-.4,1.7l-.2.2a3.2,3.2,0,0,1-2.4.6,3.4,3.4,0,0,1-2.7-1.3c-.2-.2-.3-.3-.3-.5s-.1-.1-.1-.2a1.6,1.6,0,0,1-.3-.6l-.2-.6,1-.2-.2-.3.6-.3a2.2,2.2,0,0,1,1.3-.4,1.6,1.6,0,0,0,.3-.9,17.3,17.3,0,0,0-.4-7.1,2.1,2.1,0,0,0-.4-.6,4.1,4.1,0,0,1-.6-1.6,3.5,3.5,0,0,1,.1-1.5,2.8,2.8,0,0,0,.1-1.3c-.1-1.2-1.2-13-1.5-16s-1.2-3.9-1.6-5.6l-.2-.8a27.6,27.6,0,0,1-.8-2.7l-1.6.7c-.7.3-1.4.5-1.8.1a1.2,1.2,0,0,1-.2-1.2,4.4,4.4,0,0,0,.3-2l-2.2.2c-1.5-.3-4-1.8-3.9-3.8a4.3,4.3,0,0,1,.1-.5h0v-.2c1.1-3.6,7.5-7.7,11.4-8.3a4.2,4.2,0,0,1,1.6.1,5.7,5.7,0,0,1,1.4-1.1,1.4,1.4,0,0,1,1.4.1,1.4,1.4,0,0,1,.6,1.2c-.1.3-.1.6-.2.9,2.1.3,3.2,1.8,4.2,3.1a7,7,0,0,0,2.2,2.3c.5.3.8.6.8,1s-.7.9-1.4,1.2l-1.5.5c3.5,3.7,13.1,9.9,22.8,11.7l5.3.8c6.7.9,13,1.7,16.5,6.7v.2a10.7,10.7,0,0,1,1.6,3,6.3,6.3,0,0,0,1.2-1l1.8-1.7-.6,1.8a2.8,2.8,0,0,1,1.8,0l1.5.8-.8.2a2.7,2.7,0,0,1,1.2,1.6v1l-.9-.3h0c.2,1.4.4,1.7.6,1.7l1,.3-.7.7a2,2,0,0,0,1.1,0l2.3-.5-1.5,1.4h1.2l-2.5,1.3a4,4,0,0,1-5.1-1.1,30.7,30.7,0,0,1-.5,10.8c-.9,4.3-.1,6.3.5,7.8s1,2.5-.5,4.4-1,1.6-1.6,3.6c-.1.4-.1.8-.2,1.3a9.3,9.3,0,0,1-.5,2.4,1.7,1.7,0,0,1-1.1,1,1,1,0,0,0-.7.6l.2.2-.4.4a3.3,3.3,0,0,1-2.6.8,4.6,4.6,0,0,1-2.7-1.3,3.1,3.1,0,0,1-.6-1.3l-.2-.7h.9l-.2-.4.6-.3a2.7,2.7,0,0,1,1.7-.3l.4-.6a8.7,8.7,0,0,0,1.2-2,10.1,10.1,0,0,0,.9-5,19.8,19.8,0,0,0-1.2-3.1,25,25,0,0,1-1.5-3.8c-.4.9-.9,1.7-1.4,2.6-2.2,4.1-1.7,6.3-1.3,8s.6,2.7-.8,4.4a10.6,10.6,0,0,0-1.5,3.6,5.1,5.1,0,0,0-.2,1.3,9.3,9.3,0,0,1-.5,2.4,1.6,1.6,0,0,1-1.2,1,1.1,1.1,0,0,0-.7.9v.5h-.3A3.4,3.4,0,0,1,112.9,142.3Zm-2.1-2.1h0a2.9,2.9,0,0,0,1.9.9,2.4,2.4,0,0,0,1.5-.4,2,2,0,0,1,1.3-1.5.7.7,0,0,0,.5-.4,4.5,4.5,0,0,0,.4-2c.1-.5.2-1.1.3-1.5a11.4,11.4,0,0,1,1.8-4.1c1-1.2.8-2,.5-3.3s-1-4.4,1.5-8.9c.7-1.3,1.4-2.7,2-4l.8-1.6.4,1.7a23.7,23.7,0,0,0,1.8,5.2,18.9,18.9,0,0,1,1.3,3.3c.3,1.2-.1,3.5-1,5.7a6.6,6.6,0,0,1-1.3,2.3l-.5.8-.2.6-.6-.2h-.6l.6.7-1.5.2.2.2a2.8,2.8,0,0,0,1.8.9,2.4,2.4,0,0,0,1.5-.4,1.9,1.9,0,0,1,1.4-1.5.7.7,0,0,0,.5-.4,11.8,11.8,0,0,0,.4-2,5.7,5.7,0,0,1,.3-1.5,11.8,11.8,0,0,1,1.7-4.1c1.1-1.3.9-1.8.4-3.1a13.1,13.1,0,0,1-.6-8.6,31.1,31.1,0,0,0,.4-11.3l-.3-1.1-.3-1.3,1.2.6.3.2.9.8a3.3,3.3,0,0,0,2,1.9l-.4-.2,1.3-.2a1.7,1.7,0,0,1-.8-1.1l-.4-1.2.4.2a6.8,6.8,0,0,1-.3-1.9v-.6l.4-.2h0a2.3,2.3,0,0,0-1-.4h-.7v-.4l-.7.3-1.1.7v-.5l-1,.6-.6.3-.2-.6a16.4,16.4,0,0,0-1.8-3.4l-.2-.2c-3.2-4.5-9.2-5.3-15.5-6.2l-5.5-.8c-10.7-2-21.3-9.3-24.2-12.9l-.7-.9h1.1a9,9,0,0,0,2.4-.7h.2a9.1,9.1,0,0,1-2.4-2.4c-1-1.5-2-2.7-3.9-2.7h-.9l.3-.8a4.6,4.6,0,0,0,.2-1.4l-.4-.6.3.5a2.5,2.5,0,0,0-1.2,1l-.2.6-.6-.3a2.2,2.2,0,0,0-1.4-.2c-3.8.6-9.6,4.6-10.5,7.4v.3h0c-.1,1.2,1.8,2.4,2.8,2.5s.7.1,2.4-.2l.7-.2v.7a7.2,7.2,0,0,1-.1,2.9h.2a10.4,10.4,0,0,0,2.1-1l.6-.5.3.8a29.2,29.2,0,0,1,1,3.5l.3.7c.4,1.8,1,3.8,1.6,5.7h0c.3,3.1,1.4,14.8,1.6,16.1a7.9,7.9,0,0,1-.2,1.7,1.8,1.8,0,0,0-.1,1,2.8,2.8,0,0,0,.5,1.1,9.3,9.3,0,0,1,.5,1,19.5,19.5,0,0,1,.4,7.5,4.6,4.6,0,0,1-.6,1.8l-.2.3h-.8l.5.6-1.4.3h.1a2.6,2.6,0,0,0,1.9.9,2.2,2.2,0,0,0,1.6-.4c.2-.3.2-.3.1-.5a1.8,1.8,0,0,1-.1-1.1,1.3,1.3,0,0,1,.6-.9.5.5,0,0,0,.3-.5,1.6,1.6,0,0,0,0-1,24.8,24.8,0,0,1-.3-3.8,4.7,4.7,0,0,1,.5-2.4,1.1,1.1,0,0,0,.3-.9,11.5,11.5,0,0,0-.1-1.8,20.1,20.1,0,0,1-.2-3.9h0c0-1.3.1-2.6.2-4V98.6l1,.9a42.4,42.4,0,0,0,5.5,4.4h.2v.3a18.9,18.9,0,0,1,.5,7.4,4.1,4.1,0,0,1-.6,1.7l-.3.4h-.8l.5.7-1.3.2c0,.1,0,.1.1.2h0a2.8,2.8,0,0,0,1.8.9,1.9,1.9,0,0,0,1.6-.5c.2-.2.2-.2.2-.4a1.9,1.9,0,0,1-.1-1.1.9.9,0,0,1,.6-.9c.1-.2.2-.2.3-.5a5.9,5.9,0,0,0-.1-1.1,26.2,26.2,0,0,1-.2-3.7v-1.9l.9.5c6.9,4,14.9,6.8,21.3,7.2h.5v.5c.4,4.7,1.9,9.9,3.5,14.9.8,2.4-.5,5-1.7,7.3a15,15,0,0,0-1.2,2.7l-.3.6-.6-.2h-.5l.4.6-.9.3h-.4v.2Z"/><path class="cls-12" d="M91.1,107.8a46.4,46.4,0,0,1-4.7-2.9l.7-1a46.6,46.6,0,0,0,4.6,2.9Z"/></g></svg>