<svg xmlns="http://www.w3.org/2000/svg" viewBox="0 0 200 200"><defs><style>.cls-1,.cls-2{fill:#ea9518;}.cls-1{stroke:#51250f;stroke-miterlimit:10;stroke-width:0.28px;}.cls-3{fill:#51250f;}.cls-4{fill:#ffab24;}.cls-5{fill:#aa660c;}.cls-6{fill:#754307;}.cls-7{fill:#4e2918;}</style></defs><g id="Lion_02"><path class="cls-1" d="M128.7,77.4s-.1-1.3-2.7-2.5c0,0,.6-1.7-2-2.6,0,0-.5-.6-4.5-2.2a9.6,9.6,0,0,0-2.4,0s-5.1-3.5-5.1,2.4a1.3,1.3,0,0,0,1.2,1.4,6.8,6.8,0,0,0-.5,2.1,4.4,4.4,0,0,1-2.2,4,11.9,11.9,0,0,0-9,4.6,16.4,16.4,0,0,1-3.7,2.8s-15,4.6-17,15.1c0,0-1.6,9.3-1.8,11.2a20.6,20.6,0,0,1-2.2,2.5s-.5,5,.3,5.7,3.7,3.8,7.2-.3c0,0,2.4-3.7-1.5-4.7,0,0,3.5-2.8,3-4.9,0,0,.1,2.6,1.1,3.6s1.2,3-.6,5.2c0,0-4.3,1.2-1.1,7.8.7,1.5,3.5,4.2,6.6.3,0,0,4.2-4.3-.8-6.4,0,0,4.1-3.2,3.5-7.4,0,0-.6-7.9,6.1-10.6l4.5-1.8h.4c.1-.1.4.8.4,1.9a9.4,9.4,0,0,1-.2,2.2,4.9,4.9,0,0,0,.8,1.2,2.2,2.2,0,0,0,2.4.6s2.9-1.2,3.1-3.1c0,0,.9-1.7-1.8-2.4a9.4,9.4,0,0,1,.1-3.3s1.2-.1,1.6-.7c.2,1.9.4,3.5.6,4.5a27.4,27.4,0,0,1,.4,3.2,12,12,0,0,1-.2,4,4.2,4.2,0,0,0,2.4,2.5h1.6a6.9,6.9,0,0,0,4-3.9s.7-2.5-2.8-3.1c0,0,1-9.1.6-12.2,0,0,1.9-2.9,2.7-8.7a8,8,0,0,1,.9-1.4c1.7-1.7,4.2-1.3,4.7-1.4s.9-1.1,1.3-2A8.7,8.7,0,0,0,128.7,77.4Z"/><path class="cls-2" d="M83.5,101.1S81,105.7,81,113.4c0,0-2.9,18.4-9.7,12,0,0-.1,6.6,5.2,3.7,0,0,5.3-4.9,6.5-18.6.2-2,.8-5.4,3.6-6.8"/><path class="cls-3" d="M83.5,101.1a14.5,14.5,0,0,0-1.1,2.9c-.3,1.1-.5,2.1-.7,3.1s-.3,2.1-.4,3.1-.1,2.1-.1,3.2h0c-.3,1.6-.7,3.1-1.1,4.7a26.9,26.9,0,0,1-1.6,4.5,8.8,8.8,0,0,1-2.8,3.8,2.9,2.9,0,0,1-2.4.3,5.5,5.5,0,0,1-2.1-1.2h.2a6.4,6.4,0,0,0,.3,2,3.2,3.2,0,0,0,1,1.7,1.7,1.7,0,0,0,1.8.5l1-.2.9-.5h0a22.2,22.2,0,0,0,3.6-5.9,39.6,39.6,0,0,0,2-6.7l.6-3.5c.1-1.1.2-2.3.4-3.4a9.7,9.7,0,0,1,1.1-3.4,5.3,5.3,0,0,1,2.5-2.4c-2.1,1.2-3,3.5-3.4,5.8l-.3,3.5-.6,3.4a41.1,41.1,0,0,1-2.1,6.8,21.8,21.8,0,0,1-3.6,6h-.1l-.9.4a4.5,4.5,0,0,1-1.1.3,1.9,1.9,0,0,1-2-.6,3.2,3.2,0,0,1-1-1.8,7.6,7.6,0,0,1-.3-2.1v-.3l.2.2h0a5.1,5.1,0,0,0,2,1.2,2.6,2.6,0,0,0,2.1-.3,9.3,9.3,0,0,0,2.8-3.7c.6-1.5,1.1-3,1.6-4.5s.7-3.1,1-4.6h0a32.8,32.8,0,0,1,.6-6.3,20.2,20.2,0,0,1,2-6Z"/><path class="cls-2" d="M111.2,95a8.6,8.6,0,0,0,.7,4l-6.9,3.7"/><path class="cls-3" d="M111.2,95c.1.6.1,1.3.2,2a13.9,13.9,0,0,0,.6,1.9h-.1l-6.9,3.7v-.2l6.9-3.8V99h0a6.5,6.5,0,0,1-.5-2V95Z"/><path class="cls-4" d="M117.9,106.2a12.3,12.3,0,0,1-.4,3.1"/><path class="cls-5" d="M118,106.2a8.1,8.1,0,0,1-.5,3.1,10.5,10.5,0,0,0,.3-3.1Z"/><path class="cls-4" d="M110.2,103a4.7,4.7,0,0,1-.2,2.2"/><path class="cls-5" d="M110.4,103a5.4,5.4,0,0,1-.4,2.2,5,5,0,0,0,.1-2.1Z"/><path class="cls-1" d="M113.2,73.9a6.6,6.6,0,0,1,6.3-3.8"/><path class="cls-4" d="M121,77.7a3.2,3.2,0,0,0,3.1,2.3,3.5,3.5,0,0,0,1.5-.7,2.8,2.8,0,0,0,.4-1.9,3,3,0,0,0-3.3-1.8"/><path class="cls-6" d="M121,77.7a3.9,3.9,0,0,0,2,2,2,2,0,0,0,1.3.1,2.3,2.3,0,0,0,1.2-.6h0a3.3,3.3,0,0,0,.4-1.3,1.9,1.9,0,0,0-.5-1.3,3.1,3.1,0,0,0-2.7-1,3.4,3.4,0,0,1,2.9.8,2.5,2.5,0,0,1,.6,1.5,3,3,0,0,1-.5,1.5h0a3.3,3.3,0,0,1-1.3.7,2.5,2.5,0,0,1-1.5-.2A3.8,3.8,0,0,1,121,77.7Z"/><path class="cls-4" d="M94.9,111.4a20.8,20.8,0,0,1,2-6.5"/><path class="cls-7" d="M94.8,111.4a19.4,19.4,0,0,1,.7-3.3,18.3,18.3,0,0,1,1.4-3.2,12.4,12.4,0,0,0-1.2,3.2,34,34,0,0,0-.7,3.4Z"/><path class="cls-4" d="M85.8,112.2a12.2,12.2,0,0,1,.2-4.1"/><path class="cls-7" d="M85.7,112.3a7.4,7.4,0,0,1,0-2.1,7.6,7.6,0,0,1,.3-2.1,7.5,7.5,0,0,0-.2,2.1,12.3,12.3,0,0,0,.2,2Z"/><path class="cls-4" d="M119.1,106.6a1.5,1.5,0,0,0-1,1.1"/><path class="cls-5" d="M119.2,106.7a1.6,1.6,0,0,0-1.1,1,1.7,1.7,0,0,1,1-1.2Z"/><path class="cls-4" d="M111.4,103.5a1.7,1.7,0,0,0-1.1,1.1"/><path class="cls-5" d="M111.4,103.6a1.6,1.6,0,0,0-1.1,1,1.7,1.7,0,0,1,1-1.2Z"/><path class="cls-4" d="M111.8,104a1.5,1.5,0,0,0-1,1"/><path class="cls-5" d="M111.9,104.1a1.4,1.4,0,0,0-1.1.9,1.9,1.9,0,0,1,1-1.2Z"/><path class="cls-4" d="M120,107.2a1.6,1.6,0,0,0-1.2,1.1"/><path class="cls-5" d="M120.1,107.3a1.7,1.7,0,0,0-1.3,1A1.8,1.8,0,0,1,120,107Z"/><path class="cls-4" d="M120.6,107.8a2.1,2.1,0,0,0-1.3,1.2"/><path class="cls-5" d="M120.6,108a1.7,1.7,0,0,0-1.3,1,1.8,1.8,0,0,1,1.2-1.3Z"/><path class="cls-4" d="M92,123a1.8,1.8,0,0,0-1.2,1.2"/><path class="cls-5" d="M92,123.2a1.5,1.5,0,0,0-1.2,1,1.6,1.6,0,0,1,1.2-1.3Z"/><path class="cls-4" d="M92.7,123.5a1.8,1.8,0,0,0-1.3,1.1"/><path class="cls-5" d="M92.7,123.6a1.9,1.9,0,0,0-1.3,1,1.8,1.8,0,0,1,1.2-1.3Z"/><path class="cls-4" d="M83.7,117.2a2,2,0,0,0-1.2,1.2"/><path class="cls-5" d="M83.8,117.4a1.5,1.5,0,0,0-1.3,1,1.8,1.8,0,0,1,1.2-1.3Z"/><path class="cls-4" d="M84.6,118a1.6,1.6,0,0,0-1.2,1.2"/><path class="cls-5" d="M84.6,118.1a1.6,1.6,0,0,0-1.2,1.1,1.8,1.8,0,0,1,1.2-1.3Z"/><path class="cls-4" d="M85,118.9a1.8,1.8,0,0,0-1.3,1.2"/><path class="cls-5" d="M85,119a1.8,1.8,0,0,0-1.3,1.1,2.1,2.1,0,0,1,1.2-1.4Z"/><path class="cls-4" d="M93.2,124.5a1.8,1.8,0,0,0-1.2,1.1"/><path class="cls-5" d="M93.3,124.6a1.7,1.7,0,0,0-1.3,1,1.8,1.8,0,0,1,1.2-1.3Z"/><path class="cls-4" d="M91,122.5a4.5,4.5,0,0,0-.3,3.3"/><path class="cls-7" d="M91.1,122.5a4.9,4.9,0,0,0-.5,1.6,9.7,9.7,0,0,0,.1,1.7,8.8,8.8,0,0,1-.2-1.7,4.7,4.7,0,0,1,.3-1.7Z"/></g></svg>