<svg xmlns="http://www.w3.org/2000/svg" viewBox="0 0 200 200"><defs><style>.cls-1{fill:#c99673;}.cls-2{fill:#353535;}.cls-11,.cls-13,.cls-3,.cls-5{fill:none;stroke-miterlimit:10;}.cls-11,.cls-3{stroke:#a52f00;}.cls-3{stroke-width:0.13px;}.cls-4{fill:#602f28;}.cls-5{stroke:#000;stroke-width:0.09px;}.cls-6{fill:#8c6239;}.cls-7{fill:#4c2e19;}.cls-8{fill:#b8b1bc;}.cls-9{fill:#0f0f0f;}.cls-10{fill:#fff;}.cls-11{stroke-width:0.13px;}.cls-12{fill:#272727;}.cls-13{stroke:#4c2e19;stroke-width:0.33px;}</style></defs><g id="Cow_02"><path class="cls-1" d="M82.8,104.1c0,.4-1.1,1.3,0,1.9H83c1.2.5,3.7.1,4.1-.9a2,2,0,0,0,.1-.7,2.5,2.5,0,0,0-1-1.7c-.9-9.3,1.4-11.6,1.4-11.6a2.4,2.4,0,0,0-1.5-2.7H82.5s0,3-.8,4.3,0,3.2.6,4.1S82.8,103.7,82.8,104.1Z"/><path class="cls-2" d="M83.2,108c.6,1.5,3.6,2.5,4.5,2.3s-.2-1.7.2-1.5a1.3,1.3,0,0,0,1.5-.4c0-1.7-2.1-3.8-2.2-3.9a2,2,0,0,1-.1.7c-.4,1-2.9,1.4-4.1.9S82.5,106.7,83.2,108Z"/><path class="cls-3" d="M87.2,104.5h0"/><path class="cls-1" d="M74.2,72.7C73,74.6,72.9,82.1,72,84.9a18.3,18.3,0,0,1-2.7,5l.4-.9s-.3-.2,0-.9.3-1.5.9-3,.6-8.7,1.9-12.4a15.6,15.6,0,0,1,2.1-4.3,11.2,11.2,0,0,1,2.1-1.9c3.4-2.4,3.9.9,1.4,2.2s-2.4,1.7-3.9,4"/><path class="cls-4" d="M71.5,84.6c-2.7,2.3-2.5,4.1-3.7,6.3-.1.3.6-.2,1-1.4-.2,1.9-.9,2.4-.9,2.4s.2.2.8-.4a2.7,2.7,0,0,1-.4.8,2.4,2.4,0,0,0,.7-.9,3.6,3.6,0,0,1-1.7,2.2c-.7.4,2.5-.7,2.4-3.2a3.2,3.2,0,0,1-.6,2.7,2.2,2.2,0,0,0,1.1-1.7v.7c0,.1.1.1.2,0s0-2.8.4-4.5a24.5,24.5,0,0,0,.2,2.7c0,.1.2.1.2,0s-.5-3.7.7-5.1-.4.9-.3.6a11.7,11.7,0,0,1,.5-1.1c-.1-.1-1,.9-1.2.9s.6-1,.6-1"/><path class="cls-2" d="M112.3,125.6c1.1,3.4,4.5,3.8,4.3,3.6a13.1,13.1,0,0,1,0-2.8,7.9,7.9,0,0,0,1.9,1.1c.2-2.2-1.5-3.8-2-4.3S115.8,125.5,112.3,125.6Z"/><path class="cls-1" d="M110.8,124.9c.2.7,1.2.7,1.5.7h0c3.5-.1,4.1-1.6,4.2-2.4V123c0-.2-.5-1.7-.7-2.4a19.7,19.7,0,0,1,.2-5.8c1.7-1.9.9-6,.9-6.7a25.3,25.3,0,0,0,.8-4.3c-.6.3-3.9,1.9-6.3,1.7h.1c.4.5,0,3.3.2,4.8a5.8,5.8,0,0,0,.2,5.4c.7.8.2,5.3.2,6.2S110.5,124.3,110.8,124.9Z"/><path class="cls-2" d="M73.2,111.7a2.7,2.7,0,0,0,.7,1.8c1.7,2.8,4.5,3.7,4.5,3.2s-.8-3.2-.8-3.2,3,1.9,3,1.5c-.2-3.1-2.3-3.9-2.7-4S76.1,113.7,73.2,111.7Z"/><path class="cls-2" d="M103.4,131.7a1.1,1.1,0,0,1,.7.8,4.2,4.2,0,0,0,1.3,1.9c.8.9,2.8,1.7,3.2,1.1s-.6-2.4,0-2a11.4,11.4,0,0,0,1.9,1.1,7.7,7.7,0,0,0-.2-1.5c-.2-.8-2.1-2.8-2.7-3.8C107.6,129.9,107.4,132.1,103.4,131.7Z"/><path class="cls-1" d="M73.5,102.5a39.6,39.6,0,0,1-.2,8.6c0,.2-.1.4-.1.6,2.9,2,4.2.1,4.7-.7h-.1a4.1,4.1,0,0,0-.4-1.1c-.5-.8-.5-9,.2-11.8,2.8-3.4,4.1-9,4.1-9a4.3,4.3,0,0,1,4.9,1,33.2,33.2,0,0,0,14,9.9.5.5,0,0,1,.3.5,11.7,11.7,0,0,1-.1,2.6c0,1,.9,1.9,1.8,2.8s.6,6,.6,7.5-.8,1.3-1.1,3.7.7,3.2,1.1,4.3.2,6.4-.4,7.5-1.3,2.2-.2,2.6l.8.3c4,.4,4.2-1.8,4.2-2.4h0c0-.1-.1-.2-.1-.3s-.4-6.4,0-7.7a8,8,0,0,0,.9-3.9,12.8,12.8,0,0,1,0-4.8c.4-1.9,1.3-7.3,1.3-7.3a2.5,2.5,0,0,1,1.6.2c2.4.2,5.7-1.4,6.3-1.7,3.1-2.8,3.1-7.5,3.9-7.5a6.6,6.6,0,0,1,2.8,1.1c.5.2,0,1.5,2.8,2.1s4.8-1.5,4.8-2.1a2.5,2.5,0,0,1,.2-1.2l.4-1,.2-.4a3.7,3.7,0,0,0-.8-3.7,58.3,58.3,0,0,1-4.6-5.8c-.8-1.3-.2-2.2-.2-3.2s-2.3-3.3-2.3-3.5c2.5-.8,2.8-3.9,2.3-4.3s-5.1-.2-7.7,1.1c-4.3-.9-7.8,4.5-7.8,4.5a11.5,11.5,0,0,0-5.8-2.6c-5-.8-8.9-5.7-12.1-8.2a25.4,25.4,0,0,0-6-3.6,14.8,14.8,0,0,0-3.7-1,9,9,0,0,0-2.1.2,12.7,12.7,0,0,0-5.8,2.5c-4.4,3.5-3.5,12.5-2.8,17a42.3,42.3,0,0,1,0,12.5c-.9.7-1.3,3.5-.2,4.7A2.3,2.3,0,0,1,73.5,102.5Z"/><path class="cls-5" d="M84,64.3h0"/><path class="cls-6" d="M124.8,78.7l-2.7-1.6-1.4-.9a14.8,14.8,0,0,0-1.3-.8l1.4.7,1.3.8C123,77.5,123.9,78,124.8,78.7Z"/><path class="cls-7" d="M111.6,80a10.8,10.8,0,0,0-3.1.2,7.9,7.9,0,0,0-2.9,1.1,5.2,5.2,0,0,0-2.4,2,7,7,0,0,0-1.4,2.7h0c-.1.2.1.4.3.5l.7.3,1.4.4a10.1,10.1,0,0,0,3,0,11.3,11.3,0,0,0,5.3-2.5h-.1a1.7,1.7,0,0,1,1.3-.7l1.4.3-1.4-.3a1.9,1.9,0,0,0-1.2.7h0a9.8,9.8,0,0,1-5.3,2.6,10.1,10.1,0,0,1-3,.1l-1.5-.4-.7-.4-.3-.2c0-.1-.1-.3-.1-.4h0a9.4,9.4,0,0,1,1.5-2.8,7.6,7.6,0,0,1,2.4-2A10,10,0,0,1,111.6,80Z"/><path class="cls-7" d="M111.8,89.2a12.5,12.5,0,0,0,1.5,2.8,8,8,0,0,0,2.3,2.2,9.4,9.4,0,0,0,2.8,1.5,17,17,0,0,0,3.1.6h-1.6l-1.5-.4a9.7,9.7,0,0,1-2.9-1.4,8.4,8.4,0,0,1-2.3-2.3A9.7,9.7,0,0,1,111.8,89.2Z"/><path class="cls-7" d="M126.7,91.8a11.4,11.4,0,0,0-1.8-2.5,3.9,3.9,0,0,0-2.7-1.3h0c-.3-.1-.4-.3-.6-.5l-.4-.6a7.6,7.6,0,0,0-.8-1.1l-1-.9a1.7,1.7,0,0,0-1.3-.4,2.1,2.1,0,0,1,1.3.3l1,1,.9,1.1a9,9,0,0,0,.9,1h0a2.7,2.7,0,0,1,1.5.3,4,4,0,0,1,1.2,1A15.1,15.1,0,0,1,126.7,91.8Z"/><path class="cls-8" d="M117.2,87.7c2.4,3,4.5-.4,4.5-.4l-1-1.1-.5-.6a3.1,3.1,0,0,0-2,.5A4.6,4.6,0,0,0,117.2,87.7Z"/><path class="cls-9" d="M118.2,86.6c0,.9.6,1.7,1.3,1.7s1.3-.8,1.3-1.7v-.4l-.5-.6a3.1,3.1,0,0,0-2,.5Z"/><ellipse class="cls-10" cx="118.4" cy="86.6" rx="0.4" ry="0.3"/><path class="cls-7" d="M111.7,81.4h-1.2l-1.3.2a9.4,9.4,0,0,0-2.4.6,7.8,7.8,0,0,0-2.2,1.2,10.1,10.1,0,0,0-1.7,1.9,5.8,5.8,0,0,1,1.6-1.9,7.1,7.1,0,0,1,2.2-1.3l2.5-.7A7,7,0,0,1,111.7,81.4Z"/><path class="cls-11" d="M111.2,105.5h.1"/><path class="cls-11" d="M117.6,103.8h.2"/><path class="cls-1" d="M81.6,89.1s1.4-6.8-1.9-10.2"/><path class="cls-7" d="M131.8,97.5a4.8,4.8,0,0,1-2,.7,3.9,3.9,0,0,1-2.1-.3h0a4.5,4.5,0,0,0-1.2-2,4.1,4.1,0,0,1,1.3,1.9h0a4.4,4.4,0,0,0,2,.3A6.6,6.6,0,0,0,131.8,97.5Z"/><path class="cls-7" d="M109.6,105.4a13.5,13.5,0,0,1,.6-3.5,4.9,4.9,0,0,1,1.8-3,5.8,5.8,0,0,0-1.8,3,19.7,19.7,0,0,0-.5,3.5Z"/><path class="cls-7" d="M100.9,100.9V97.7a12.3,12.3,0,0,0-.3-3.3,18.6,18.6,0,0,1,.4,3.3c0,1,.1,2.1,0,3.2Z"/><path class="cls-12" d="M132.8,93.6a3.2,3.2,0,0,1-4.5.3,2.4,2.4,0,0,1,.2,1.5c-.2.6,2,.8,2.4,0s1.5.6,1.7-.5"/><path class="cls-13" d="M67.3,93.6A3.6,3.6,0,0,0,69,91.4a2.4,2.4,0,0,1-.7.9,2.7,2.7,0,0,0,.4-.8c-.6.6-1.3,1.1-.8.4s.7-.5.9-2.4c-.4,1.2-1.1,1.7-1,1.4,1-1.8,1.1-3.4,2.6-5.2a1.4,1.4,0,0,1,.2-.6c1.1-2.8.6-8.7,1.9-12.4a15.6,15.6,0,0,1,2.1-4.3,11.2,11.2,0,0,1,2.1-1.9c.9-.6,1.5-.9,2-.8a13.4,13.4,0,0,1,3.2-1,9,9,0,0,1,2.1-.2,14.8,14.8,0,0,1,3.7,1,25.4,25.4,0,0,1,6,3.6c3.2,2.5,7.1,7.4,12.1,8.2a11.5,11.5,0,0,1,5.8,2.6s3.5-5.4,7.8-4.5c2.6-1.3,7.3-1.5,7.7-1.1s.2,3.5-2.3,4.3c0,.2,2.3,2.4,2.3,3.5s-.6,1.9.2,3.2a58.3,58.3,0,0,0,4.6,5.8,3.7,3.7,0,0,1,.8,3.7c-.1,0-.1,0-.1.1h0c0,.1,0,.2-.1.2h0l-.4,1a2.5,2.5,0,0,0-.2,1.2h-.1a4.3,4.3,0,0,1-4.7,1.9c-2.8-.6-2.3-1.9-2.8-2.1a6.6,6.6,0,0,0-2.8-1.1h-.1c-.7.4-.9,4.9-3.8,7.5a25.3,25.3,0,0,1-.8,4.3c0,.7.8,4.8-.9,6.7a19.7,19.7,0,0,0-.2,5.8c.2.7.7,2.2.7,2.4v.2c.5.5,2.2,2.1,2,4.3a7.9,7.9,0,0,1-1.9-1.1,13.1,13.1,0,0,0,0,2.8c.2.2-3.2-.2-4.3-3.6h0c-.3,0-1.3,0-1.5-.7s1.2-2.1,1.2-3,.5-5.4-.2-6.2a5.8,5.8,0,0,1-.2-5.4c-.2-1.5.2-4.3-.2-4.8h-.1a3.4,3.4,0,0,0-1.6-.2h0s-.9,5.4-1.3,7.3a12.8,12.8,0,0,0,0,4.8,8,8,0,0,1-.9,3.9c-.4,1.3-.2,6.9,0,7.7s.1.2.1.3h0c.6,1,2.5,3,2.7,3.8a7.7,7.7,0,0,1,.2,1.5,11.4,11.4,0,0,1-1.9-1.1c-.6-.4.4,1.3,0,2s-2.4-.2-3.2-1.1a4.2,4.2,0,0,1-1.3-1.9,1.1,1.1,0,0,0-.7-.8h0l-.8-.3c-1.1-.4-.5-1.5.2-2.6s.8-6.5.4-7.5-1.3-2-1.1-4.3,1.1-2.2,1.1-3.7.2-6.7-.6-7.5-1.8-1.8-1.8-2.8.2-1.5.2-2.1v-.2a.4.4,0,0,0-.1-.3.5.5,0,0,0-.3-.5,32.5,32.5,0,0,1-12.9-8.7h-.1s-2.3,2.3-1.4,11.6a2.5,2.5,0,0,1,1,1.7c.1.1,2.2,2.2,2.2,3.9a1.3,1.3,0,0,1-1.5.4c-.4-.2.7,1.3-.2,1.5s-3.9-.8-4.5-2.3-.2-1.9-.2-1.9h-.2c-1.1-.6,0-1.5,0-1.9s.2-6.5-.5-7.3-1.5-2.8-.6-4.1a8.9,8.9,0,0,0,.8-4l-.8.3h-.1c-.2.9-1.5,5.8-4,8.9-.7,2.8-.7,11-.2,11.8a4.1,4.1,0,0,1,.4,1.1h.1c.4.1,2.5.9,2.7,4,0,.4-3-1.5-3-1.5s.8,2.8.8,3.2-2.8-.4-4.5-3.2a2.7,2.7,0,0,1-.7-1.8c0-.2.1-.4.1-.6a39.6,39.6,0,0,0,.2-8.6,2.3,2.3,0,0,0-.4-1.1c-1.1-1.2-.7-4,.2-4.7a42.3,42.3,0,0,0,0-12.5,40.5,40.5,0,0,1-.5-4.2,34.7,34.7,0,0,1-.8,4.7h.1l-.2.5h0l-.2.5L71.1,87a12,12,0,0,0,.1,3.3c0,.1-.2.1-.2,0a24.6,24.6,0,0,1-.2-2.6h-.1c-.3,1.7.2,3.1-.3,4.4s-.2.1-.2,0v-.7a2.2,2.2,0,0,1-1.1,1.7,3.2,3.2,0,0,0,.6-2.7C69.8,92.9,66.6,94,67.3,93.6ZM107.5,130a.8.8,0,0,0,.1-.4.8.8,0,0,1-.1.4,2,2,0,0,1-.5.9A2,2,0,0,0,107.5,130Z"/><path class="cls-13" d="M117.6,103.8h0Z"/><path class="cls-13" d="M87.5,91.2S85.3,87.3,82,89"/><path class="cls-13" d="M105.3,86.5h0Z"/></g></svg>