<svg xmlns="http://www.w3.org/2000/svg" viewBox="0 0 200 200"><defs><style>.cls-1{fill:#4c2e19;}.cls-2{fill:#353535;}.cls-3{fill:#c99673;}.cls-4{fill:#5b3114;}.cls-5{fill:#f0d4bf;stroke:#c1272d;stroke-miterlimit:10;stroke-width:0.11px;}.cls-6{fill:#602f28;}.cls-7{fill:#fff;}</style></defs><g id="Cow_03"><path class="cls-1" d="M69.7,61.5c.3-1.6,1.4-4.3,3.4-4.4s1.2.4,1.7.8.3.3.6.3,1.2-.3,1.7-.6L80,55.9a2.8,2.8,0,0,1,1.2-.4,4.6,4.6,0,0,1,2.3.6,21.4,21.4,0,0,0,3.4.9,4.2,4.2,0,0,0,1.6.1h.8a26.9,26.9,0,0,1,5.7.5l.9.2c.2.1.1.1.1.1h0a5.4,5.4,0,0,1-.9,1.2,20.9,20.9,0,0,1-2.9,2.3,4.7,4.7,0,0,0-1.2.7c-.1.2-.1.4-.2.6a10.1,10.1,0,0,0-.3,2.5,11,11,0,0,0,.3,3.6,1.7,1.7,0,0,0,.3,1,4.2,4.2,0,0,0,.4,1.2l.6.4a4.1,4.1,0,0,0,2.1,1.2l2.3.2a6.7,6.7,0,0,1,1.8.7,13.7,13.7,0,0,1,2.9,2.5,32.7,32.7,0,0,0,9.2,6.6c2.4,1.3,4.7,2.9,7,4.3a23,23,0,0,0,4.2,2,19.5,19.5,0,0,1,2.2.8c1.7.9,2,2.9,2.8,4.5a13.6,13.6,0,0,0,2.3,3.4,6,6,0,0,1,1.3,2.8c.9,3.3-.1,6.8-.5,10a62.1,62.1,0,0,0-.7,7.3,11.1,11.1,0,0,0,.2,1.9,15.5,15.5,0,0,1,.7,2.3,6.1,6.1,0,0,1-.3,1.3c-.8,3.6-2,7.1-2.6,10.7-.2.6,0,1.3-.2,1.9s0,.2,0,.3a1.5,1.5,0,0,1,.6.5c.1.4-.5.6-.7.7s-.2.3-.3.4a1.2,1.2,0,0,1-.6.6c-1.5.9-3.7.2-5-.7a2,2,0,0,1-1-1.6c0-.3.2-.5.3-.8h0c-.1.3-.2,0-.1.1h2c.3,0,.3-.4.1-.4l-.6-.2a2.4,2.4,0,0,1-1.1-.6c-.1-.1.1-.1.3-.2h2.1a.2.2,0,0,0,.2-.2,51.5,51.5,0,0,0,.9-11.1,12,12,0,0,0-.3-2,9.7,9.7,0,0,0-1.1-2.3,15.4,15.4,0,0,1-.8-1.9c-.1-.2-.1-.7-.3-.7s-1,1.6-1.1,1.9a17.2,17.2,0,0,0-1.1,5,7.6,7.6,0,0,0,.1,2.6,15.3,15.3,0,0,1,.7,2.9c0,1.1-.9,1.3-1.4,2.1a6.7,6.7,0,0,0-.5,1.9l-.3,2.8c0,1.1-.1,2.1,0,3.1a13.7,13.7,0,0,1,.2,2.8c0,.2.1.3.2.3s-.1.4-.1.5v.6a1.9,1.9,0,0,1-.2.7,1.1,1.1,0,0,1-.9.4h-.7l-.3.3a2.8,2.8,0,0,1-1.3.9,2.7,2.7,0,0,1-2-.1l-2.1-.7a3.2,3.2,0,0,1-1.3-3.6c.4-1.2,2.9-.7,3.8-.5l.3-.2a10.6,10.6,0,0,0,.6-1.9c0-.4-.1-.8-.1-1.2s-.1-2.5,0-3.8a14.7,14.7,0,0,0,0-2.1c-.1-1.1-.4-2.2-.6-3.3s-.5-2.3-.7-3.5,0-1.1-.1-1.7a44.4,44.4,0,0,0-1.9-6.2,49.5,49.5,0,0,1-2.2-7.5h-.1l-1-.5-2.1-1-6.3-3.3c-.1,0-.3,0-.3.2a25.2,25.2,0,0,0-.6,4.8c0,1.4.9,2.7.9,4.1a3.2,3.2,0,0,1-.3,1.4,1.2,1.2,0,0,0-.3,1c0,.3.1.6-.2.8a2.5,2.5,0,0,1-1.2.1c-.3-.1-.4,0-.5.3a1.6,1.6,0,0,1-.4,1.2c-.9.6-2.2-.3-2.9-.8a5,5,0,0,1-2-2.9l-.2.3h2.8c.2,0,.3-.2.1-.3l-1.1-1.2-.2.4c.5,0,1.5.1,1.8-.4a2.7,2.7,0,0,0,.2-1.3q.1-3.1,0-6.3c0-1.1-.1-2.2-.2-3.3s-.2-.7-.8-1l-1.8-1.1c-.4-.2-.9-.8-1.1-.1a16.5,16.5,0,0,0-.2,2.1,12.6,12.6,0,0,1-.4,2.8c-.1.5-.4.9-.5,1.4a28.4,28.4,0,0,0-.6,5.1v2.8a7.1,7.1,0,0,0,.1,1.5,11.8,11.8,0,0,1,.8,3.1,6.5,6.5,0,0,1-.2,1.9c-.1.2-.1.2.1.5l.3.4c.1.4,0,.7-.4.8s-1.3.2-1.7.7-.5.9-.8,1.2-2.3.5-3.3-.1l-1.5-1.2c-.3-.3-.7-.6-.8-1s2-.6,2.4-.5.4-.2.2-.4l-.9-.7c-.1-.1-.2-.2-.2-.3h0a4.1,4.1,0,0,1,1.6.3l.3-.2a19.3,19.3,0,0,0,.5-4.2,42.1,42.1,0,0,0-.1-5,18,18,0,0,0-.2-2.2,5,5,0,0,0-.2-1.2,21.5,21.5,0,0,1-1.4-2.6,5,5,0,0,1,.1-2.1,15.2,15.2,0,0,0,.3-2.1,21.4,21.4,0,0,0-.7-4.3L82.3,92c-.3-1.3-.6-2.7-.8-4a12.6,12.6,0,0,1-.3-3.9,5,5,0,0,0-.6-2.6,9.4,9.4,0,0,1-1.1-3.6c-.1-1.9.1-3.7.1-5.6l-.2-.2L78,71.7c-.3-.2-.4-.4-.7-.2a3.9,3.9,0,0,0-1.1.6,9.3,9.3,0,0,1-2,1,8.6,8.6,0,0,1-2.8.4c-.2,0-.2,0-.3-.2s0-.5.1-.6a20.4,20.4,0,0,1,1.1-3.5l.8-1.6.4-.9a.2.2,0,0,0-.1-.4A5.9,5.9,0,0,1,71.5,65l-.8-.6v-.2l.4-.5a.2.2,0,0,0,0-.3c-.5-.4-1.4-1.2-1.3-1.9s-.4-.3-.5,0,.9,1.7,1.5,2.2v-.3c-.2.2-.6.6-.5.9s.4.6.6.8a13.8,13.8,0,0,0,2.5,1.7v-.4a9.7,9.7,0,0,0-1.1,2.3,17.4,17.4,0,0,0-1.3,3.6,2.6,2.6,0,0,0-.1,1.2c.2.6.8.5,1.3.5a9.4,9.4,0,0,0,4.6-1.6l.7-.5h.2c-.1.1,0,.1.1.2l1.7.5-.2-.2c0,1.6-.1,3.3,0,4.9a8.9,8.9,0,0,0,.3,2.8c.4,1,1,2,1.3,3a4.5,4.5,0,0,1,.1,1.1v.4a6.7,6.7,0,0,0,.1,2c.2,1.5.5,3.1.8,4.6s1.1,4.8,1.7,7.1a9.2,9.2,0,0,1-.1,3.7,4.7,4.7,0,0,0,.2,3.1,22.6,22.6,0,0,1,1.1,2.2,9,9,0,0,1,.3,1.6c.1,1.9.2,3.8.2,5.7a26.1,26.1,0,0,1-.5,4.8h.2c-.3-.1-2.6-.9-2.1.2a2.7,2.7,0,0,0,1.3,1.3v-.4c-.7-.2-2.1-.6-2.8,0s-.3.9-.1,1.3a8.6,8.6,0,0,0,2,1.8,7.5,7.5,0,0,0,2.5,1.3,2.4,2.4,0,0,0,2.2-1.4,2.5,2.5,0,0,1,.4-.7,1.9,1.9,0,0,1,.9-.4c.5-.1,1.2-.2,1.4-.8a1.2,1.2,0,0,0-.2-1c-.3-.4-.2-.5-.1-.9s.1-.6.1-1a10.3,10.3,0,0,0-.7-3.4,4,4,0,0,1-.3-1.5,28.1,28.1,0,0,1,.1-2.9,22.4,22.4,0,0,1,.6-5.2c.1-.5.4-1,.5-1.5a23.6,23.6,0,0,0,.4-2.8A4.9,4.9,0,0,1,91,100v-.7h.1c0-.1-.1-.1-.3.1s.8.5.9.6l1,.5.4.3a1.3,1.3,0,0,1,.7.4,1.9,1.9,0,0,1,.1.8,2.8,2.8,0,0,0,.1.9c0,.7.1,1.4.1,2.1v4a26.2,26.2,0,0,1-.1,2.8v.3c-.1.2.1,0-.1.1a3.3,3.3,0,0,1-1.4.1.2.2,0,0,0-.1.4l1.1,1.2.2-.4H90.9c-.2,0-.2.1-.2.3a5.4,5.4,0,0,0,4.1,4,1.5,1.5,0,0,0,1.7-.4,2,2,0,0,0,.4-1.3h0l-.2.2H97a2.3,2.3,0,0,0,1.2-.2c.6-.3.5-.7.5-1.3s.3-.6.4-1a2.4,2.4,0,0,0,.2-1.4,7.6,7.6,0,0,0-.6-2.7c-.6-2,0-4.1.3-6h-.3l6.7,3.5,2,1,.6.2h.1c-.1-.1-.1-.1-.1.1a12.4,12.4,0,0,0,.4,1.6l.6,2,1.5,4.6c.5,1.4.9,2.8,1.3,4.1a7.9,7.9,0,0,1,.3,1.3,2.1,2.1,0,0,1,0,.8,22.6,22.6,0,0,0,.7,3.9,17.8,17.8,0,0,1,.7,3.9c0,.4-.1.9-.1,1.3v2.6c0,.7.1,1.5.1,2.3a6,6,0,0,1-.6,2.3l.3-.2c-1.1-.2-3-.6-4,.3a2.6,2.6,0,0,0-.5,1.7,4.2,4.2,0,0,0,.8,2.2,2.9,2.9,0,0,0,1.9,1.1,16.8,16.8,0,0,0,2.4.7,2.7,2.7,0,0,0,2.2-.9c.2-.2.3-.4.5-.4h.6c1.5-.1,1.6-1.6,1.4-2.9h-.2l.2.3a8.2,8.2,0,0,0-.2-2.2,20.1,20.1,0,0,1-.1-2.5,28.1,28.1,0,0,1,.5-4.9,2.9,2.9,0,0,1,.5-1.3l.9-.8c.7-1.1.1-2.6-.2-3.8a11,11,0,0,1,.1-5.4,17.1,17.1,0,0,1,1.3-3.8l.2-.2c-.1-.1-.3-.2-.4-.1v.2a5.6,5.6,0,0,0,.4,1.2,13.6,13.6,0,0,1,1.8,4.3,27.2,27.2,0,0,1-.1,5.7,61.8,61.8,0,0,1-.7,6.2h.2c-.5,0-3-.1-2.9.8s1.6,1,2.1,1.2v-.4l-1.1-.2c-.3,0-.8-.2-1.1,0a1.7,1.7,0,0,0-.4,1.4c0,1.2,1.2,1.9,2.1,2.3a5.2,5.2,0,0,0,4.2.3,1.8,1.8,0,0,0,.9-.6l.2-.3.2-.2c.6-.4,1.1-.7.7-1.3l-.2-.4c-.3-.2-.2-.2-.2-.5a2.7,2.7,0,0,0,0-.9,12.5,12.5,0,0,1,.3-1.9l.9-3.3c.5-2.1,1.1-4.2,1.6-6.4a3.7,3.7,0,0,0,0-2.1,10.2,10.2,0,0,1-.7-2.9,7.6,7.6,0,0,1,.1-1.5c.2-3.7.9-7.4,1.4-11.1s.2-6-1.7-8.1a14.8,14.8,0,0,1-2.7-4.3,7.9,7.9,0,0,0-1.3-2.6,4.1,4.1,0,0,0-2.1-1.5,24.1,24.1,0,0,1-4.2-1.6l-4.8-3-3.7-2.2a34.9,34.9,0,0,1-7.6-5.1c-2.1-2-4-4.5-7.1-4.7-.7-.1-1.6.1-2.2-.4l-1.2-.9-.4-.3a3.4,3.4,0,0,1-.5-1.4,8.6,8.6,0,0,1-.5-2.7,14.8,14.8,0,0,1,.1-2.1,10,10,0,0,1,.2-1.6c.1-.6.7-.8,1.2-1.1a39.2,39.2,0,0,0,3.2-2.5,3.2,3.2,0,0,0,.8-1.4c.1-.5-.4-.6-.8-.7a18.8,18.8,0,0,0-3.3-.5,17.2,17.2,0,0,0-3.2-.2H87.9l-2.3-.5-1.9-.5a9.5,9.5,0,0,0-2.4-.7,6.2,6.2,0,0,0-3.1,1.4l-1.6,1c-.3.1-.7.5-1.1.4l-.8-.5a2.4,2.4,0,0,0-1.8-.7,3.9,3.9,0,0,0-2.5,2,8.5,8.5,0,0,0-1.2,2.8A.3.3,0,0,0,69.7,61.5Z"/><path class="cls-2" d="M122.7,133.6c-.2,0-2.3,0-2.7.5s1.8,1.1,1.8,1.1l-2.1-.2s-1.6,2,1.9,3.4,4.8-.4,4.8-.7.5-.2.9-.7-.9-1.3-.9-1.3"/><path class="cls-3" d="M93.9,112.1c-1.2,4,1.8,4,2.1,3s2.3-.9,2.3-.9c1.4-1.6,0-4.4-.2-5.5s.6-6,.6-6.2l-5.3-3.3C94.4,101.8,94.1,111.9,93.9,112.1Z"/><path class="cls-4" d="M95.1,116.2a1.9,1.9,0,0,1-1.4-.6c-.5-.5-.9-1.5-.3-3.6h0c.2-1.2.3-10.3-.5-12.5l-.5-1.5,6.9,4.2v.4a3.7,3.7,0,0,1-.1.8c-.2,1.3-.8,4.5-.6,5.3a3.1,3.1,0,0,0,.2.8c.5,1.5,1.2,3.7-.1,5.2l-.2.2h-.2c-.8,0-1.7.2-1.8.5a1.1,1.1,0,0,1-.9.8Zm-.7-3.9h0c-.4,1.4-.3,2.4.4,2.7s.6.1.6,0,1.9-1.3,2.6-1.3.2-2.7-.2-3.9l-.3-1c-.2-.9.2-3.4.6-5.6v-.5l-3.8-2.3C94.7,103.7,94.9,110.8,94.4,112.3Z"/><path class="cls-2" d="M90.7,113.5a5.3,5.3,0,0,0,3.9,3.9c1.8.5,1.8-1.3,1.8-1.6s.3.3,1.2,0,.7-.4.7-1.6-2.1,0-2.3.9-3.3,1-2.1-3c-.2.3-1.6.3-1.6.3l1.1,1.1Z"/><path class="cls-2" d="M81,121.1c.2.7,3,3,4.4,3.3s1.8-1.2,2.3-1.9,1.4-.4,2-.9.3-.9-.2-1.6-2.3.2-2.5.9-3,2.5-2.6-1.6c-3.8-1.1-.8,1.1-.7,1.1C81.2,119.8,80.8,120.4,81,121.1Z"/><path class="cls-5" d="M92,71.8h.1l-.2-.2Z"/><path class="cls-2" d="M113.3,139.4s-3.9-1-4.4.4,0,3.7,1.8,4.2,3.5,1.8,5.3-.5c.3-.2,2.6.6,2-2.7"/><path class="cls-3" d="M70.6,63.5s-.5.4-.5.7a16.5,16.5,0,0,0,3,2.3c-.2.2-3.2,6.4-2.3,7.1,3.5.5,6.3-2.3,6.5-2a9.4,9.4,0,0,0,1.8.6v.5a58.9,58.9,0,0,0,0,6c.3,1.8,2.1,4.4,1.7,5.3s.9,7.4,1.1,8.1,1.2,5.3,1.4,6a11.5,11.5,0,0,1-.2,4.4c-.5,1.8.9,3.4,1.3,4.3s.7,8.6.5,10-.5,2.5-.5,2.5c-.4,4.1,2.4,2.3,2.6,1.6s2.5-.9,2.5-.9c.7-1.6,0-4.2-.4-5.1s0-9.2.6-10.1.7-5.8,1-5.8,17,9.2,17.3,9.2c.4,3,4.3,13.2,4.1,14.3s1.6,7.6,1.4,8.6,0,5.7,0,6.4-1.4,3.2-1.4,4.6,1.4,1.4,3,.9,3-1.1,3-3-.2-7.3.2-9.2,2.6-.9,1.2-5.1,1.6-10.3,1.6-9.9.5,1.4,1.9,4.2-.5,15-1,16.4.7,1.3,2.6,1.1a2.5,2.5,0,0,0,2.3-2.8c-.3-.9,3-11.7,3-12.6s-.9-2.6-.9-4.2a96.2,96.2,0,0,1,1.3-11.8,12,12,0,0,0-.9-7.8c-.5-.8-.6-.7-1.6-2.1-2.5-3.5-1.8-4.7-3.5-6.2s-1.8-.5-5.3-2.3a36.2,36.2,0,0,1-3.4-2.1c-5.5-3.6-6.4-3.4-10.4-6.2s-5.8-6.9-10.4-6.9a6,6,0,0,1-2.7-.7l-.2-.2-.3-.5a11.9,11.9,0,0,1-1.2-5.3,12.7,12.7,0,0,1,.5-3.5c4.6-2.9,5.1-4,5.1-4.6s-6.5-1.1-7.4-.9-3.5-.5-4.4-.7-1.8-.9-3.2-.9-4.9,2.7-5.6,2.7-.2-.2-2-1.1-3.9,3.5-4.2,4.6S70.6,63.5,70.6,63.5Z"/><path class="cls-4" d="M113.5,143.9a1.7,1.7,0,0,1-1.3-.4,1.5,1.5,0,0,1-.6-1.4,8.7,8.7,0,0,1,.9-3.2,6.3,6.3,0,0,0,.4-1.4v-1a30.1,30.1,0,0,1,.1-5.6c0-.4-.4-2.3-.7-3.8s-.9-4-.7-4.7-1.1-3.8-1.9-6.5a58.8,58.8,0,0,1-2.2-7.3c-2.6-1-13.4-6.9-16.4-8.7,0,.2-.1.5-.1.7-.1,2.2-.3,3.8-.8,4.5s-1,8.6-.6,9.6,1.2,3.7.4,5.5v.3h-.3a4.8,4.8,0,0,0-2.1.6,2.3,2.3,0,0,1-2.4,1.3c-.7-.1-1.5-.8-1.2-3.2,0,0,.2-1.2.5-2.5s-.1-8.9-.5-9.6-.2-.4-.3-.6a5.7,5.7,0,0,1-1.1-4.2,10.1,10.1,0,0,0,.3-4,23.6,23.6,0,0,1-.8-3.1c-.2-1.2-.5-2.6-.6-2.9s-1.8-7.3-1.1-8.5a6.7,6.7,0,0,0-.7-2.2,10.5,10.5,0,0,1-1-2.8,45.6,45.6,0,0,1-.1-5.2,3.4,3.4,0,0,0,.1-.9h0l-1.4-.5-.3.2a9.6,9.6,0,0,1-6.1,1.8h-.3a1.3,1.3,0,0,1-.4-.9c-.1-1.4,1.5-5,2.3-6.5-1-.6-2.8-1.9-2.8-2.5a2.5,2.5,0,0,1,.2-.7c-.7-.6-1.3-1.5-1.1-2.2s1.7-5.6,4.8-5.1h.1a6.3,6.3,0,0,1,1.6,1,.1.1,0,0,1,.1.1h.1l1.7-1c1.7-1,3-1.8,3.9-1.8a6.1,6.1,0,0,1,2.5.6l.8.4h.3c.9.2,3.2.8,3.9.6s7,.4,7.8,1l.2.2v.3c0,.9-.6,2.1-5.1,5a11,11,0,0,0-.4,3.1,10.4,10.4,0,0,0,1.1,5c.1.2.2.3.2.4v.2a6.9,6.9,0,0,0,2.4.5c3.2,0,4.7,1.6,6.7,3.5a29.3,29.3,0,0,0,4,3.5c2,1.4,3.2,2,4.5,2.8a41.1,41.1,0,0,1,5.9,3.5h.2a33.9,33.9,0,0,0,3.2,1.9,20.6,20.6,0,0,0,3.3,1.3,4.7,4.7,0,0,1,2.1,1.1,6.3,6.3,0,0,1,1.6,2.5,11.6,11.6,0,0,0,2,3.8,5,5,0,0,0,.9,1.2l.7,1c1.2,2.1,1.5,4.9,1,8.1a98.4,98.4,0,0,0-1.4,11.7,11.1,11.1,0,0,0,.5,2.5,3.8,3.8,0,0,1,.4,1.7,35.8,35.8,0,0,1-1.2,5c-.7,2.8-1.8,6.9-1.8,7.5a2.6,2.6,0,0,1-.4,2.1,3.7,3.7,0,0,1-2.4,1.4c-1.3.1-2.4.2-3-.4a1.6,1.6,0,0,1-.1-1.5c.5-1.6,2.2-13.5,1-16l-1.5-2.9c-.7,1.8-1.9,5.6-1,8.3s.4,3.6-.4,4.4a1.4,1.4,0,0,0-.7,1c-.5,1.8-.9,6.9-.3,8.9h.1c0,2.6-2.4,3.3-3.4,3.6Zm-5.4-36.2h.3v.4a62.4,62.4,0,0,0,2.2,7.5c1.5,4.5,2.1,6.4,2,7a19.2,19.2,0,0,0,.7,4.3c.5,2.6.8,3.8.6,4.3s0,3.9,0,5.3a3.5,3.5,0,0,1-.5,2.8,9.3,9.3,0,0,0-.8,2.8c0,.4.1.5.2.5s.6.3,2.1-.1,2.5-1.2,2.6-2.4-.2-7.7.2-9.4a2.5,2.5,0,0,1,1-1.5c.5-.5,1-.9.2-3.3-1.4-4.1,1.2-10,1.7-10.5l.3-.2.7.2v.4a17.9,17.9,0,0,0,1.8,3.9c1.5,3.1-.5,15.6-.9,16.8v.5h2a2.6,2.6,0,0,0,1.5-.9,1.5,1.5,0,0,0,.3-1.2c-.1-.6.4-2.6,1.8-8.1a45.1,45.1,0,0,0,1.2-4.7,12.1,12.1,0,0,0-.3-1.4,8.2,8.2,0,0,1-.6-2.8,97.1,97.1,0,0,1,1.4-11.8,11.3,11.3,0,0,0-.9-7.5l-.5-.8a4.4,4.4,0,0,1-1.1-1.2,19.6,19.6,0,0,1-2.1-4.1,4.5,4.5,0,0,0-1.2-2.1,3.8,3.8,0,0,0-1.7-.8,18.4,18.4,0,0,1-3.5-1.4,25.4,25.4,0,0,1-3.3-2h-.2a44.2,44.2,0,0,0-5.8-3.4,47.6,47.6,0,0,1-4.6-2.8,27.4,27.4,0,0,1-4.2-3.7c-1.9-1.9-3.2-3.2-5.9-3.2a5.9,5.9,0,0,1-2.9-.7h-.2l-.3-.4-.3-.4a12.3,12.3,0,0,1-1.2-5.6,11.2,11.2,0,0,1,.5-3.6V62h.2c3.4-2.2,4.5-3.3,4.7-3.9a33,33,0,0,0-6.6-.7c-.9.3-2.7-.2-4.3-.6h-.3a4.5,4.5,0,0,1-1.1-.3,4.3,4.3,0,0,0-2-.6c-.7,0-2.3,1-3.3,1.7s-1.8,1.1-2.3,1.1a1.2,1.2,0,0,1-.9-.3l-1.3-.9c-2-.3-3.3,3.5-3.4,4.2A3.5,3.5,0,0,0,71,63v.2l.2.4-.3.3-.2.2a11.9,11.9,0,0,0,2.5,1.8l.9.3-.7.7c-.4.6-2.4,5.1-2.3,6.2a7.9,7.9,0,0,0,5.1-1.7c.6-.4,1-.6,1.4-.2l1.6.5h.4v1.8a27.8,27.8,0,0,0,0,5,10.1,10.1,0,0,0,.9,2.6c.6,1.3,1,2.3.7,3.1s.9,6.7,1.1,7.6a16.2,16.2,0,0,1,.7,3.1c.3,1.2.6,2.6.7,2.9a9.6,9.6,0,0,1-.2,4.7,4.4,4.4,0,0,0,1,3.3l.3.7c.6,1.1.8,9,.6,10.2s-.5,2.6-.5,2.6.1,1.9.3,1.9a1.6,1.6,0,0,0,1.2-.6c.2-.8,1.6-1.1,2.6-1.2a7.3,7.3,0,0,0-.5-4.3c-.6-1.1-.2-9.6.7-10.8a15.9,15.9,0,0,0,.6-3.8c.1-1.8.2-2.2.8-2.2h.2v.2C92.2,99.6,106.7,107.1,108.1,107.7Z"/><path class="cls-1" d="M72.4,66.5l3-2.5,1.5-1.3,1.7-1h-.1a2.1,2.1,0,0,0,.9-1,2.2,2.2,0,0,0,0-1.4,1.7,1.7,0,0,1,.1,1.4,2,2,0,0,1-.8,1.2h0l-1.5,1.2-1.4,1.4-2.6,2.8Z"/><path class="cls-1" d="M82.1,63.3l-.8.8a4,4,0,0,0,0,1.1,11.9,11.9,0,0,1-.5,2.6A8.3,8.3,0,0,1,79.4,70a6.5,6.5,0,0,1-2.1,1.6l1.4-2.1a15.9,15.9,0,0,0,1.7-4.4c.1-.2.1-.4.2-.6a1.1,1.1,0,0,1,.3-.7A1.5,1.5,0,0,1,82.1,63.3Z"/><path class="cls-1" d="M80.8,69.5a2.3,2.3,0,0,1,0,1.8,1.6,1.6,0,0,1-.7.7,1.2,1.2,0,0,1-1,.2l.4-.8.3-.6A3.5,3.5,0,0,1,80.8,69.5Z"/><path class="cls-3" d="M88.2,56.8s1.9,1.5,2.6,5.7"/><path class="cls-4" d="M90.3,62.6c-.7-4-2.4-5.3-2.4-5.3l.7-.9c.1.1,2,1.6,2.8,6Z"/><path class="cls-1" d="M120.4,115.8a24.3,24.3,0,0,0,1.8-4,20.9,20.9,0,0,0,1.1-4.3,16.2,16.2,0,0,0,0-4.4,11.5,11.5,0,0,0-1.7-4.1,10.5,10.5,0,0,1,1.9,4,14.3,14.3,0,0,1,.3,4.6,23.6,23.6,0,0,1-.8,4.5,25,25,0,0,1-1.6,4.3Z"/><path class="cls-1" d="M71.1,60.5a1.3,1.3,0,0,1,.2.8.8.8,0,0,1,.1.3c0,.1.1.2.2.3l.4.7a1.4,1.4,0,0,1-.9.1,1,1,0,0,1-.7-.7.9.9,0,0,1,.1-1C70.6,60.8,70.8,60.7,71.1,60.5Z"/><path class="cls-1" d="M127.1,128.5l-1.5-3.2a17.1,17.1,0,0,1-1.5-6.1,51,51,0,0,1,.4-6c.4-2.8.8-5.9.4-7.2s-1.3-5.3-3.3-6l.4-1.1c3,1,3.9,6.6,4,6.9s.1,4.4-.3,7.6a33.7,33.7,0,0,0-.5,5.7l.3,2.3a9.2,9.2,0,0,0-.1-1.6,25.8,25.8,0,0,1,.6-6.4,36.3,36.3,0,0,0,.7-7.1,13,13,0,0,0-1.1-4.7,7.8,7.8,0,0,0-1.6-2.4,10.1,10.1,0,0,0-1.3-1.2h-.6l-.5-1a2,2,0,0,1,1.5.1,5.5,5.5,0,0,1,1.8,1.4,9.5,9.5,0,0,1,1.7,2.7,13.7,13.7,0,0,1,1.2,5.2,31.6,31.6,0,0,1-.7,7.3,22.6,22.6,0,0,0-.5,6,7.9,7.9,0,0,1,0,2.2,4.5,4.5,0,0,0,.1,1.2,2,2,0,0,1-.1,1.2Z"/><path class="cls-6" d="M125.2,119.4c2.2,3.1,1.5,4.9,2.2,7.5.1.3-.6-.4-.7-1.7a4.3,4.3,0,0,0,.3,2.7c.4.9-.2.2-.6-.6a1.7,1.7,0,0,0,.1.9,3.4,3.4,0,0,1-.5-1.1,3.5,3.5,0,0,0,1.3,2.7c.6.6-2.4-1.3-1.8-3.9a3.7,3.7,0,0,0,0,2.9,2.3,2.3,0,0,1-.7-2c-.1.2-.1.5-.2.7h-.2c-.2-1.5.7-2.9.8-4.8a21.4,21.4,0,0,1-.9,2.7h-.2c.4-1.6,1.4-3.7.5-5.4,0,0,.2.9.2.6s-.3-1.1-.2-1.2.7,1.2.9,1.2-.3-1.2-.3-1.2"/><path class="cls-1" d="M93.3,72.9,92,72.3l-1.2-.8-.9-1a3.1,3.1,0,0,1-.6-1.3,4.4,4.4,0,0,0,.8,1.1,4.1,4.1,0,0,0,1.1.7l1.1.5,1.2.2Z"/><path class="cls-1" d="M80.4,84.4a.8.8,0,0,1-.2-.4h0v-.2c0-.1,0-.1.1-.2v-.4l.3-.7.7-1.4A22.6,22.6,0,0,1,83,78.4a17.2,17.2,0,0,1,4.2-4.3,16.3,16.3,0,0,0-3.7,4.6,16.6,16.6,0,0,0-1.3,2.7l-.6,1.4c-.1.2-.1.4-.2.6v.4h0a1,1,0,0,1-.1-.3Z"/><path class="cls-1" d="M107.4,108.3a11.3,11.3,0,0,1,0-2.6,10.9,10.9,0,0,1,.3-2.6,7.3,7.3,0,0,1,.8-2.5,4.5,4.5,0,0,1,1.8-1.8,4.5,4.5,0,0,0-1.5,1.9,10.2,10.2,0,0,0-.6,2.5,20.2,20.2,0,0,0,.3,4.9Z"/><path d="M74.1,60.7a1,1,0,0,0,.9.6l-.2-.5h.1l-.2-1.1h0v-.4l-.4.5A1.2,1.2,0,0,0,74.1,60.7Z"/><path class="cls-7" d="M74.4,60.5c0,.2.2.4.4.3h.1l-.2-1.1h0l-.3.3C74.4,60.2,74.3,60.4,74.4,60.5Z"/><path class="cls-1" d="M76.2,62.1a3.2,3.2,0,0,1-.7-3.5c.1-.3-.1-.7-.4-.7a.6.6,0,0,0-.7.4,4.4,4.4,0,0,0,1,4.6.6.6,0,1,0,.8-.8Z"/></g></svg>