<svg xmlns="http://www.w3.org/2000/svg" viewBox="0 0 200 200"><defs><style>.cls-1{fill:#5b342c;}.cls-2{fill:#865c51;}.cls-3{fill:#472822;}.cls-14,.cls-4{fill:#f2e9e7;}.cls-5{fill:#724d46;}.cls-10,.cls-6{fill:#4e342e;}.cls-6,.cls-9{stroke:#000;stroke-width:0.04px;}.cls-10,.cls-13,.cls-14,.cls-16,.cls-6,.cls-9{stroke-miterlimit:10;}.cls-7{fill:#774d42;}.cls-8{fill:#4c2822;}.cls-9{fill:#e8792a;}.cls-10,.cls-13,.cls-14{stroke:#422825;}.cls-10,.cls-13{stroke-width:0.04px;}.cls-11{fill:#3e2723;}.cls-12{fill:#422825;}.cls-13{fill:#fff;}.cls-14{stroke-width:0.01px;}.cls-15{fill:#281615;}.cls-16{fill:none;stroke:#281615;stroke-width:0.5px;}</style></defs><g id="Horse_02"><path class="cls-1" d="M128.8,83h.2a7.5,7.5,0,0,1,.2-2.1,7.8,7.8,0,0,0,.4,2.1,6.8,6.8,0,0,0,.8,2.4l.4.8h.2a16,16,0,0,1-.5-2.9l.5.8a15.3,15.3,0,0,0,.7,3.6h.2a14.9,14.9,0,0,0,.2-2.1c0,.1.1-.1.1-.2a23.2,23.2,0,0,0-.1,3.7,5.2,5.2,0,0,0,1-2.6c-.1,1.3-.2,2.5-.2,3.8h.2a12.3,12.3,0,0,1,.2-2,1.3,1.3,0,0,1,.1.6,9.4,9.4,0,0,0,.1,1.4,9.3,9.3,0,0,0,1.4-2.7,10.9,10.9,0,0,0,.1,1.8h.2c-.1-1,0-2,0-3a10.8,10.8,0,0,0,.5-2.1c.1,1.1.2,2.2.4,3.3s.2.1.2,0c.2-2,.1-5.9.1-6.3a16.7,16.7,0,0,1,.6,3.8,35,35,0,0,0-.8-6.5c-.4-2.2.2-4.4.1-6.6a11.4,11.4,0,0,0-1.5-5.5c-1.3-2.1-5.6-3.2-6.8-2.6l-2,.9c-1.3.8,4.3,1.5,4.5,2.4a12,12,0,0,1,0,5c-.4,1.8-1,3.7-1.4,5.5a3.6,3.6,0,0,0,.7-1v.2l-.3.6A8.7,8.7,0,0,0,128.8,83Z"/><path class="cls-1" d="M130.1,115.5a4.3,4.3,0,0,0-1.2,2.7c0,1.4,4,2.2,4-1.5A2.4,2.4,0,0,1,130.1,115.5Z"/><path class="cls-2" d="M136.7,99.2v.3h0c0,.2-.1.4-.1.7v.2h0v.4h0c-.1.3-.1.5-.2.8a.3.3,0,0,0-.1.2.4.4,0,0,1-.1.3v.2a.4.4,0,0,0-.1.3l-.2.5c0,.2-.1.4-.1.6v.2a.4.4,0,0,1-.1.3v.2l-.3,1h0v.2l-.2.5v.4c0,.2-.1.4-.1.7s-.1.1-.1.2a.6.6,0,0,1-.1.4,1.3,1.3,0,0,1-.1.6v.2a.6.6,0,0,0-.1.4h-.1v.2a.4.4,0,0,1-.1.3.9.9,0,0,1-.1.5h0v.4a.6.6,0,0,0-.1.4c0,.2-.1.3-.1.4s-.1.5-.1.8.5,1.4.4,2.2-.8,1.1-.7,2.1a2.4,2.4,0,0,1-1.8.7h-.5a.9.9,0,0,1-.7-.3.8.8,0,0,1-.4-.4h0a.3.3,0,0,0-.1-.2h.1l.4-.7a.4.4,0,0,1,.1-.3h0v-.3h0v-.2a1.3,1.3,0,0,0,.1-.6c.2-1.9.3-3.3.5-4.5v-.5a2,2,0,0,0,.1-.7v-.2c.1-.6.1-1.1.2-1.6V106a.8.8,0,0,0,.1-.4,1.3,1.3,0,0,1,.1-.6v-.3h0v-.2c0-.2.1-.3.1-.5v-.5c.2-1.6,0-2.3-.5-2.6h-.2c0-.1-.1-.1-.2-.2h-.1l-.7-.5-.8-.7-.2-.3h0l-.2-.2-.2-.2-.2-.2v-.2l-.2-.3-.3-.3-.3-.6a13.4,13.4,0,0,1-1.3-2.3,15.3,15.3,0,0,1-1.1-2.7,1.4,1.4,0,0,1-.2-.6c-.1-.1-.1-.2-.1-.4l-.2-.5-.3-1.3a.4.4,0,0,1-.1-.3,10.5,10.5,0,0,1-.4-1.7h0c-.2-1-.4-2-.5-2.8s-.3-3.2-.3-3.2h.1a4.2,4.2,0,0,1,.5-1c0-.1.1-.2.1-.4h.1l7.7-8.4,1.1.2h0c.1.1.1.3.2.5s.1.3.1.5.1.4.2.6a4.3,4.3,0,0,0,.1.5,18.5,18.5,0,0,1,.4,2.3,1.9,1.9,0,0,1,.1.8A6.1,6.1,0,0,1,134,78a.3.3,0,0,1,.1.2v2.1c.1,3.5-.2,7.1-.4,10.7v2.8a2,2,0,0,1,.1.7c0,.1,0,.2.1.2h0v.5a.3.3,0,0,0,.1.2.4.4,0,0,0,.1.3h.1a.5.5,0,0,0,.2.4h0l1.2.9h.1l.3.2h.1a.3.3,0,0,0,.1.2.1.1,0,0,0,.1.1h.1v.2h0c.1,0,.1,0,.1.1h0A1.3,1.3,0,0,1,136.7,99.2Z"/><path class="cls-3" d="M132.9,117.4a2.3,2.3,0,0,1-3.8,1.4A3.7,3.7,0,0,0,132.9,117.4Z"/><path class="cls-4" d="M134,109.3h0a.3.3,0,0,1-.1.2.6.6,0,0,1-.1.4v.4h-.1v.3a.9.9,0,0,0-.1.5v.4a1.7,1.7,0,0,0-.1.7c-.2.7.5,1.5.3,2.3s-.8,1-.8,2.1a2.4,2.4,0,0,1-1.7.6h-.6l-.7-.3-.3-.4h0c0-.1-.1-.1-.1-.2h.1l.4-.7V115h0v-.3h.1v-.2c.1-.2.1-.4.2-.6.2-1.9.3-3.3.5-4.5Z"/><path class="cls-5" d="M126.4,94.5c-.3,1.6-1.3,4-2.4,8.5-.2.7-.3,1.5-.5,2.3l-.3,1.7c-.2.7.5,1.4.4,2.2s-.8,1.1-.8,2.1a2.6,2.6,0,0,1-1.3.6,2,2,0,0,1-1.3-.1,1.6,1.6,0,0,1-.8-.6v-.3c-.1-.6.7-1.1.9-2.5s.3-2.8.5-3.9a10.1,10.1,0,0,1,.2-1.9c.2-1.6.4-2.9.6-4.5s0-2.3-.5-2.7c-7.7-5.2-7.8-19.9-7.8-19.9s5.4-11.7,9.7-9.5c1.4,4.3,1.3,9,1,13.8l-.3,4.3c0,.5-.1,1.1-.1,1.6-.4,5.1.7,5.4,1.7,6.1a2,2,0,0,1,.9,1.1A2.6,2.6,0,0,1,126.4,94.5Z"/><path class="cls-1" d="M119.9,110.1a4.8,4.8,0,0,0-1.2,2.8c0,1.3,4.1,2.1,4.1-1.6C120.2,111.8,119.9,110.1,119.9,110.1Z"/><path class="cls-3" d="M122.7,112a2.3,2.3,0,0,1-3.8,1.4A3.6,3.6,0,0,0,122.7,112Z"/><path class="cls-4" d="M123.6,109.2c-.2.8-.8,1.1-.8,2.1a2.6,2.6,0,0,1-1.3.6h-1.3l-.8-.9c-.1-.6.7-1.1.9-2.5s.3-2.8.5-3.9a10.1,10.1,0,0,1,.2-1.9,24.3,24.3,0,0,0,3,.4c-.2.7-.3,1.5-.5,2.3l-.3,1.7C123,107.7,123.7,108.4,123.6,109.2Z"/><path class="cls-1" d="M85.3,130.1v.7c-.5,2.9-3.9,2.2-4,.9a4.8,4.8,0,0,1,1.2-2.8A3.7,3.7,0,0,0,85.3,130.1Z"/><path class="cls-6" d="M86.7,113.2c-.2,1.4-.8,1.6-.9,3.1s-.4,3.7-.4,7.6v1.2c0,.5.7,1.1.7,2.2s-1,.6-.8,2.8c0,0-1.9,1.7-3.2,0s.9-1.5.9-3.4.1-1.1.1-1.6v-1.3a33.7,33.7,0,0,0-.5-6.5c-.2-1-.7-1.4-.7-2.4s.5-1.7.4-3.6c-.1-5.2-3.1-11-1-15.7l6.1-1.4s-.4,8.5-1,16.6C86.3,111.7,86.8,111.8,86.7,113.2Z"/><path class="cls-5" d="M86.6,113.2c-.1,1.4-.7,1.6-.8,3.1s-.3,3.2-.4,6.3v2.5c0,.5.7,1.1.7,2.2s-1,.6-.8,2.8c0,0-1.9,1.7-3.2,0s.9-1.5.9-3.4.1-1.1.1-1.6V123a32.9,32.9,0,0,0-.5-5.7c-.2-1-.7-1.4-.7-2.4s.5-1.7.4-3.6c-.1-5.2-3.1-11-1-15.7l6.1-1.4s-.4,8.5-1,16.6C86.3,111.7,86.8,111.8,86.6,113.2Z"/><path class="cls-3" d="M85.3,130.8a2.3,2.3,0,0,1-3.8,1.4A3.5,3.5,0,0,0,85.3,130.8Z"/><path class="cls-4" d="M85.3,130.1s-1.9,1.7-3.2,0,.9-1.5.9-3.4.1-1.1.1-1.6V123l2.3-.4v2.5c0,.5.7,1.1.7,2.2S85.1,127.9,85.3,130.1Z"/><path class="cls-7" d="M65.5,73.6h-.3c-1.9-.2-2.2-2.6-.9-4.8l.6-.9a.3.3,0,0,1,.5.2C65.4,71.1,68.3,73.6,65.5,73.6Z"/><path class="cls-8" d="M65.2,73.5c-1.9-.2-2.2-2.6-.9-4.8a7.1,7.1,0,0,0,.7,4.2A1.4,1.4,0,0,1,65.2,73.5Z"/><path class="cls-9" d="M65.7,81.2a.2.2,0,0,1-.2-.2,7.6,7.6,0,0,1-.8-1.1"/><path class="cls-2" d="M63.9,75.8a7.4,7.4,0,0,1,.4-1.4h0a13.1,13.1,0,0,1,2.2-3.6h0c.2-.3.3-.5.5-.6l.2-.3h.6c1.4-.4,5.6-.6,14.3,4.7,3.7,2.3,6.9,3.2,9.9,3.1a17.6,17.6,0,0,0,7.6-2c8.6-3.8,9.4-9.6,16.3-12.4,4.2-1.7,8.6-1.5,12.1,1.1a15.8,15.8,0,0,1,2.3,2.2l.5.7.6.8.3.5a11.6,11.6,0,0,1,1.4,2.7c0,.1.1.2.1.3h0a11.4,11.4,0,0,1-.6,6.8h0a24.4,24.4,0,0,1-1.4,2.8c-.5.7-.9,1.4-1.4,2a11.4,11.4,0,0,1-2,2.3h-.1l-.3.3-1.1.9c-1.1.7-1.9,1-2.1.5h-.1c0-.2-.1-.3-.2-.5h-.1a.1.1,0,0,0-.1-.1h-.1a.1.1,0,0,1-.1-.1h-.3a1.6,1.6,0,0,0-.9.3h-.4l-.4.4-.3.5-.4.5-.2.2a.1.1,0,0,0-.1.1.3.3,0,0,0-.1.2h-.1l-.3.3h-.2c-.1.1-.1.2-.2.2s-.1.1-.1.2h-.1l-.3.3-.4.5-.4.4h0l-.6.7-.2.2h-.2l-.3.4h0l-.3.3-.4.4-.6.6h0l-.4.3h0l-.3.3-.3.3-1.1,1h0l-1,.9-.5.3-.2.2-.8.6-.3.2-.4.3-.8.6c-1.3.9-2.7,1.7-4.1,2.5h-.4l-.4.2h-.2l-.4.2-.5.2-.4.2-.8.4h0a38.2,38.2,0,0,1-5.1,1.8h0l-1.1.3h0a12.3,12.3,0,0,1-4,.5H90.7l-1.3-.2-1.3-.2h-.2l-.6-.2H87c0-.1-.1-.1-.2-.1h-.5a.1.1,0,0,0-.1-.1h-.9l-.8-.4h-.3l-.4-.2-.3-.2h-.9a.1.1,0,0,0-.1-.1h-.1a.1.1,0,0,1-.1-.1h-.2l-.2-.2h-.2l-.7-.6h0c-.1-.1-.2-.2-.2-.3h-.2l-.5-.5c0-.1-.1-.1-.2-.2h-.2v-.2h-.2c0-.1-.1-.1-.1-.2l-.2-.2c-.2-.2-.3-.4-.5-.5h0c-.1-.1-.1-.2-.2-.2l-.3-.5h0c-2.9-3.8-3.1-5.8-3.3-7.5s-.7-3-3.9-5.6a2.2,2.2,0,0,0-1.1-.5"/><path class="cls-2" d="M78.3,78.4a.4.4,0,0,0-.1.3c-.4,1-1,2.2-1.6,3.4-1.9,3.1-6.7,3.2-9.2,4.8h-.2a4.7,4.7,0,0,0-1,1c-.4.7-.3,1.5-1.5,1.9a11.2,11.2,0,0,1-3.2.4,5.7,5.7,0,0,1-3.8-1.4,2.5,2.5,0,0,1-.8-2.2c.1-.4.8-1,1.5-1.7h.2l.8-.9a12.5,12.5,0,0,0,2.4-7.3c0-2.1.8-2.8,2.5-4.1s2.5-3.3,7.5-3.2l2.5.2C78.7,70.3,79.9,73.8,78.3,78.4Z"/><path class="cls-10" d="M69.5,78.4s-.2,1.3-1,1.5-1-.2-1.5.2a1.9,1.9,0,0,0,.2-.7,1.6,1.6,0,0,1,.8-1.3,1,1,0,0,1,1.3.1Z"/><path class="cls-11" d="M69.3,78.2a1.5,1.5,0,0,1-1,1.5,2,2,0,0,1-1.1-.3,1.6,1.6,0,0,1,.8-1.3A1,1,0,0,1,69.3,78.2Z"/><path class="cls-12" d="M69.3,78.2a1.5,1.5,0,0,1-.4,1.1,1.1,1.1,0,0,1-1.1.3h-.5a.9.9,0,0,1,.1-.5,1.4,1.4,0,0,1,.9-.8.9.9,0,0,1,1,.3h.1A1.4,1.4,0,0,0,68,78a1.7,1.7,0,0,0-.6.6c-.1.2-.1.5-.2.8h0a1.4,1.4,0,0,0,1.5.1,1.5,1.5,0,0,0,.7-1.3Z"/><path class="cls-13" d="M68.9,78.4c0,.2-.1.3-.2.3s-.4,0-.4-.2l.2-.3A.5.5,0,0,1,68.9,78.4Z"/><path class="cls-14" d="M60.7,82.9a12.4,12.4,0,0,0,1.9-3.6c.5-1.5.5-3.9,2-4.9s2.8-.3,2.9,1.1a3.2,3.2,0,0,1-1.3,2.8A12.6,12.6,0,0,0,64,80.7a11.1,11.1,0,0,0-1.4,2.9c-.2.8-.5,1.7-1.5,1.9s-1.6,0-1.6-.7.7-1.2,1.1-1.7Z"/><path class="cls-11" d="M60.9,86.2c0-.1,0-.2.2-.2h.3c.6.7,1,2.1-.2,2.3s-1.6-.5-.9-1A1.7,1.7,0,0,0,60.9,86.2Z"/><path class="cls-11" d="M58.3,85.5a1.6,1.6,0,0,0-.2,1.2c.1.6-.5,1-1.2.6a10.7,10.7,0,0,1,1.5-2.1A.4.4,0,0,1,58.3,85.5Z"/><path class="cls-1" d="M93,78.5a3.2,3.2,0,0,0-1.5-1.3h1a3.9,3.9,0,0,0-1.8-.4h-.2A4.2,4.2,0,0,0,88,75.5a4.9,4.9,0,0,0-3.5-1.1l-1-.5h1.9c-.6-.5-1.5-.2-2.2-.3a3.9,3.9,0,0,1-1.1-.6l-.9-.8-1.6-.7a3.5,3.5,0,0,1,2.7,1.1h.1a4.8,4.8,0,0,0-4-1.3l-2.1-.9c1,.2,2.1.7,3.1.4s.1-.1,0-.1-2.9-.8-4.3-.7l-1.2-.4a7.7,7.7,0,0,1,3.8.8c.1.1.1-.1,0-.1a7.4,7.4,0,0,0-4.6-1h-.3l-.9-.7h1.4c0,.1.1,0,0-.1a5,5,0,0,0-1.7-.2h-.2c-1.4-.7-2.7-.2-4.1.2H65.5c0,.1-.1.1,0,.2l.3.4.8.9a2.2,2.2,0,0,0,.5.8,16.7,16.7,0,0,1,.8,2H68a3.4,3.4,0,0,0-.5-1.4l.2.2a7.6,7.6,0,0,1,.9,1.8h.1c-.1-.3-.1-.6-.2-.9l.5.7a4.1,4.1,0,0,0,.1-.9c0-.2-.1-.3-.1-.5l.4.6a8.6,8.6,0,0,1,.2,2.8h.1a8.8,8.8,0,0,0,0-2.3h.1a6.6,6.6,0,0,1,.1,1.4H70a12.1,12.1,0,0,1-.5,1.8c0,.1.1.1.2.1a11.1,11.1,0,0,0,.8-3,1.9,1.9,0,0,1,.2-.7V73a9.2,9.2,0,0,1-.4,2.9c-.1.1.1.1.1.1a9.4,9.4,0,0,0,.7-3.4l.6.8a.5.5,0,0,1,.2.4c.5,1.1.7,2.2,1.1,3.3s.1.1.1,0a10.3,10.3,0,0,0-.5-2.4,7.8,7.8,0,0,1,1.2,4.1c0,.1.1.1.1,0a4.1,4.1,0,0,0-.5-3.2l.2.2,1,2.2h.1a7.7,7.7,0,0,0-1-2.9,10.1,10.1,0,0,1,1.2,2.3.1.1,0,0,0,.1-.1,14.2,14.2,0,0,0-.8-1.8l.5.7.8,1a4.8,4.8,0,0,0-.2-1.2,4,4,0,0,1,.7,1.8,7.6,7.6,0,0,1-.1,1.5H76c-.1.1-.1.2-.1.4H76a9.3,9.3,0,0,0,.5-1,7.5,7.5,0,0,1-.9,2.5h.1a6.6,6.6,0,0,0,.9-1.9,11.7,11.7,0,0,0,.6-2,7.7,7.7,0,0,1-.2,1.5h0a7.5,7.5,0,0,1-.5,1.6h.1a12.1,12.1,0,0,0,1.1-3.2,2.2,2.2,0,0,1,.1.8h.1a8.1,8.1,0,0,0,.1-1.6,17.6,17.6,0,0,1,1.7,3.7h.1a14.5,14.5,0,0,0-1.2-3.5,12.5,12.5,0,0,1,1.8,4.5h.1a6.8,6.8,0,0,0-.2-1.4,6.3,6.3,0,0,1,.4,2.7h.2a7,7,0,0,0-.3-2.9c.1.3.3.5.4.8h.1a6.9,6.9,0,0,1-.5-1.3l.5,1.1.6,1.3a5.5,5.5,0,0,0,.1-1.2,1.4,1.4,0,0,1,.2.7,10.5,10.5,0,0,1,0,2.5h.1c.1-.5.1-1,.2-1.5a4.9,4.9,0,0,1,.1,1.2.3.3,0,0,1,.1-.2l-.3,2h0a14,14,0,0,0,.9-2.9l.4-.9a5.9,5.9,0,0,1-.2,1.4c0,.1.1.1.1,0a15.5,15.5,0,0,0,.6-2.3.1.1,0,0,0,.1.1l.2.8h.1a8.3,8.3,0,0,1-.7,2.7c-.1.1,0,.2.1.1a7.7,7.7,0,0,0,1.1-3c0-.3.1-.7.1-1.1a4.9,4.9,0,0,1-.1,1.2H85a4.7,4.7,0,0,0,.4-1.6,9.8,9.8,0,0,1,1.7,1.8h.1a7.6,7.6,0,0,0-.8-1.1l1.1,1a3.9,3.9,0,0,0-.2-1.1l-.3-.6.5.5a13,13,0,0,1,.7,3.3h.2a9.1,9.1,0,0,0-.1-1.7h.1v-.2a.8.8,0,0,0-.1-.4l.5.9a20.1,20.1,0,0,1-.1,2.5h.1a12.7,12.7,0,0,0,.2-3.4v-.5c.2.9.3,1.7.5,2.6h.1a5.9,5.9,0,0,0-.1-2.3,5.4,5.4,0,0,0-.5-2.1l-.3-.7.6.3A6.6,6.6,0,0,1,92,81.3c0,.1.2.1.1,0A5.2,5.2,0,0,0,89.8,78a2.8,2.8,0,0,1,1.8,1.4,2.1,2.1,0,0,0-.2-1.2,5.3,5.3,0,0,1,1.5,1.9c0,.1.1.1.1,0s-1.2-1.9-1.8-2.5v-.2a4.6,4.6,0,0,1,1.8,1.1Zm-5.8-3-2.1-.8A4.9,4.9,0,0,1,87.2,75.5Zm-6.6-3.3.9.6h-.1l-.8-.5-1.2-.6Zm-9.1-3.6.6.4-1.3-.2Zm-2.4-.4a2.7,2.7,0,0,1,2,.2l-1,.3L68,68.5A3.5,3.5,0,0,1,69.1,68.2Z"/><path class="cls-5" d="M124.1,87.3c-.5-1.4-1.7-1.2-2.6,0-7,8.3-14.4,14.2-24.9,17.2a16.5,16.5,0,0,0,.8-4.3c0-2.2,8.5,5.3,20.8-11,2.5-3.4,2-7.9,3.6-8.4C125.4,79.7,124.3,88.4,124.1,87.3Z"/><path class="cls-7" d="M68.3,69a.3.3,0,0,1,.4-.2c1.9,1.9,2,5.9-.4,5.9s-1.1-.7-1.1-1.3S68.1,70.5,68.3,69Z"/><path class="cls-8" d="M68.6,69.3c.3,2.4-1.1,4.4,0,4.4S69.7,70.5,68.6,69.3Z"/><path class="cls-1" d="M92.7,134.3a4.8,4.8,0,0,0-1.2,2.8c0,1.3,4,2.1,4-1.6A3.3,3.3,0,0,1,92.7,134.3Z"/><path class="cls-2" d="M96.6,116.2c-.1.8.4,1,.2,2.4s-.7,1.5-.8,3.1-.2,2.4-.3,4.4a18.5,18.5,0,0,0-.1,2.5v1.9c0,.5.7,1,.7,2.1s-1,.7-.8,2.9a2.8,2.8,0,0,1-1.8.7,2.1,2.1,0,0,1-1.5-.7c-.5-.6,1-1.6,1-3.4s.1-2.3.1-3.5a17,17,0,0,0-.1-2.2c-.1-1.1-.2-2.3-.4-3.8s-.7-1.3-.8-2.3.6-1.7.5-3.6c-.1-3.8-1.7-7.9-1.8-11.7a9.7,9.7,0,0,1,.8-4.1l4.2-.9,1.9-.5s-.1,1.9-.3,4.7S96.9,111.8,96.6,116.2Z"/><path class="cls-3" d="M95.5,136.2a2.3,2.3,0,0,1-3.8,1.4A3.7,3.7,0,0,0,95.5,136.2Z"/><path class="cls-4" d="M95.5,135.5a2.8,2.8,0,0,1-1.8.7,2.1,2.1,0,0,1-1.5-.7c-.5-.6,1-1.6,1-3.4s.1-2.3.1-3.5a17,17,0,0,0-.1-2.2l2.5-.3a18.5,18.5,0,0,0-.1,2.5v1.9c0,.5.7,1,.7,2.1S95.3,133.3,95.5,135.5Z"/><path class="cls-1" d="M143.1,111.4h0c-.1,0-.1.1,0,.1Z"/><path class="cls-15" d="M93.3,138.7H91.5l-.2-.2h0a1.3,1.3,0,0,1-.3-.8,4.1,4.1,0,0,1,.7-2.3l.3-.7a4,4,0,0,0,.7-2V131a19.3,19.3,0,0,0,.1-2.4,15.5,15.5,0,0,0-.1-2.2c-.1-1.1-.2-2.3-.4-3.7a9.4,9.4,0,0,0-.3-.9,4.4,4.4,0,0,1-.5-1.5,7.7,7.7,0,0,1,.3-2,5.7,5.7,0,0,0,.2-1.6,23.3,23.3,0,0,0-.9-5.7,38.3,38.3,0,0,1-.9-5.6h-.8l-1.4-.2h-.2l-.5-.2v.2c-.1,1.9-.3,3.8-.4,5.7a1.5,1.5,0,0,0,.1.7,4.3,4.3,0,0,1,.1,1.7,3.5,3.5,0,0,1-.4,1.7l-.3.7c0,.3-.1.5-.1.7s-.1.8-.1,1.2-.2,2.8-.3,5.1v2.5a.8.8,0,0,0,.2.4,3.9,3.9,0,0,1,.5,1.8,1.4,1.4,0,0,1-.4,1.1c-.2.2-.3.3-.3.5a4.1,4.1,0,0,0-.1,1.2v.8c-.1.2-.1.4-.2.5v.2l-.2.3v.2c-.1.1-.2.1-.2.2v.2l-.2.2H81.6l-.2-.2-.3-.3a1.1,1.1,0,0,1-.3-.7,4.4,4.4,0,0,1,.7-2.4l.3-.7a3.9,3.9,0,0,0,.6-1.1,2.8,2.8,0,0,0,.1-.9c0-.4.1-.7.1-1.1v-2.5a38.2,38.2,0,0,0-.5-5.7l-.3-1a2.2,2.2,0,0,1-.4-1.3v-.2a3.6,3.6,0,0,1,.1-1.6V113a5.4,5.4,0,0,0,.2-1.5l.5-.2h-.5V110a14.8,14.8,0,0,0-.5-3.2l-.2-1.1a40.5,40.5,0,0,1-.9-4.8l-.3-.3-.3-.3h-.1l-.7-.9-.4-.5-.3-.3-.3-.5c-2.8-3.8-3.1-5.8-3.4-7.5v-.2c-.2-1.2-.4-2.4-2.7-4.5l-.8.3a11.1,11.1,0,0,0-3.1,1.2l-.4-.3.2.4a3.8,3.8,0,0,0-.9.9.8.8,0,0,1-.2.4,2.2,2.2,0,0,1-1.6,1.7,8.8,8.8,0,0,1-3.3.4,6,6,0,0,1-4.2-1.6,3,3,0,0,1-.9-2.5A4.5,4.5,0,0,1,57.7,85l.4-.3c0-.1.1-.1.1-.2l.8-.8a11.5,11.5,0,0,0,2.3-7,4.5,4.5,0,0,1,2-4,4.7,4.7,0,0,1,.6-4.2,3.6,3.6,0,0,1,.7-1c0-.1.1-.1.1-.2v-.4h0v-.3l.4.5h.3a.8.8,0,0,1,.5.7h1.8a5,5,0,0,1,4,0h0a4.8,4.8,0,0,1,1.8.3l.5.2v.3A11.1,11.1,0,0,1,78,69.7l.3.4h1l.5-.2.2.8a4.3,4.3,0,0,1,2.8,1.3l.3.4-.3.4.5.2H84a2.3,2.3,0,0,1,1.7.5l.3.2V74a4.9,4.9,0,0,1,2.3,1.1,4.5,4.5,0,0,1,2.6,1.2h.4a2.5,2.5,0,0,1,1.6.4h0a21.6,21.6,0,0,0,6.6-1.9,27.4,27.4,0,0,0,8.9-6.8c2-2.2,4-4.3,7.4-5.6s8.8-1.5,12.3.9c1.4-.5,5.9.6,7.2,2.9a11.1,11.1,0,0,1,1.6,5.7,13.4,13.4,0,0,1-.1,2.8,15.3,15.3,0,0,0,0,3.7v.4a42,42,0,0,1,.7,6.2h-.6a20.1,20.1,0,0,1-.1,2.6.5.5,0,0,1-.5.5.8.8,0,0,1-.6-.2v1.4a.6.6,0,0,1-.6.6.7.7,0,0,1-.6-.4c-.1.2-.1.3-.2.4v3.8c0,.2.1.4.1.6v.5c0,.1,0,.2.1.2l-.5.3.5-.2a.8.8,0,0,1,.1.4l-.3.3.4-.2.2.3h0l.7.6.4.2h.1l.3.3h.1l.2.2v.2h.1v.3h0c.1,0,.1.1.1.2v.2a1.3,1.3,0,0,1,.1.6v.4c0,.2-.1.4-.1.7v.4l-.3,1.1v.5a.4.4,0,0,1-.1.3v.2a.6.6,0,0,0-.1.4v.2a1.4,1.4,0,0,1-.2.6l-1.1,4.8a.8.8,0,0,0-.1.4l-.2.7a.9.9,0,0,1-.1.5v.8c0,.2-.1.3-.1.4s-.1.5-.1.8.1.5.2.8a3.2,3.2,0,0,1,.2,1.4,14.3,14.3,0,0,1-1,2.5l-.2.4c0,.2-.1.3-.1.5h-.1a.5.5,0,0,1-.2.4h0q-.1.3-.3.3v.2h-.1l-.6.4h-.2l-.3.2h-2.2l-.3-.2h-.3l-.2-.3h0a.9.9,0,0,1-.1-.5,3.5,3.5,0,0,1,.7-2.1v-.2h0l.3-.5V115l.2-.2a.4.4,0,0,1,.1-.3h0c0-.1.1-.1.1-.2a1.1,1.1,0,0,1,.1-.5c.2-1.8.8-4.4.8-4.5V109l.5-4.3h0v-.3c0-.2.1-.3.1-.4v-.5c.2-1.7-.1-2-.3-2.2H131c0-.1,0-.1-.1-.1l-.3-.3a1.8,1.8,0,0,1-.7-.5l-.8-.8-.9-.9v-.2l-.2-.3-.3-.3a1.6,1.6,0,0,0-.4-.7l-.7-1.1a9.3,9.3,0,0,1-.4,1.3c-.4,1.4-1,3.3-1.6,5.9-.2.7-.3,1.4-.5,2.2l-.3,1.7a1.2,1.2,0,0,0,.1.8,2.2,2.2,0,0,1,.2,1.4,1.8,1.8,0,0,1-.4,1,1.7,1.7,0,0,0-.3,1v.2c0,.2-.1.4-.1.6s-.1.3-.1.5-.1.1-.1.2-.1.2-.1.3v.2l-.2.2a.3.3,0,0,0-.1.2l-.3.2h-.1a.5.5,0,0,1-.4.2h-1.9c-.1,0-.2,0-.2-.1h-.4a.1.1,0,0,1-.1-.1h-.4c0-.1-.1-.1-.1-.2h0a1,1,0,0,1-.4-.8,3.8,3.8,0,0,1,.7-2.2,1.9,1.9,0,0,1,.3-.8,4.1,4.1,0,0,0,.6-1.6c.2-1.5.3-2.8.5-3.9v-.6c.1-.4.1-.9.2-1.3v-.9c.2-1.2.3-2.3.5-3.6s-.1-2-.3-2.2a11.8,11.8,0,0,1-3.4-3.3,47.3,47.3,0,0,1-19.6,12.2c-.3,4.5-.5,8.2-.7,11.5a.8.8,0,0,0,.1.7,4.1,4.1,0,0,1,.1,1.7,3.1,3.1,0,0,1-.4,1.6,3.3,3.3,0,0,0-.4,1.5v1a29.6,29.6,0,0,0-.2,3.4,19.3,19.3,0,0,0-.1,2.5v1.9l.2.4a3.4,3.4,0,0,1,.5,1.7,1.7,1.7,0,0,1-.5,1.2c-.2.3-.4.5-.3,1.6h0v.5a1.4,1.4,0,0,1-.2.6h0l-.2.4v.2l-.2.3h-.1l-.3.3-.4.2H93.3Zm-1.2-1.4h0l.2.2H94l.3-.2.2-.2.2-.2h0a.4.4,0,0,0,.1-.3h.5l-.4-.2v-.9h0a2.8,2.8,0,0,1,.6-2.3c.2-.2.2-.2.2-.5a2.5,2.5,0,0,0-.4-1.2,1.6,1.6,0,0,1-.3-.9v-1.9a18.5,18.5,0,0,1,.1-2.5,30.1,30.1,0,0,1,.2-3.5v-1a4.3,4.3,0,0,1,.5-1.8,4.2,4.2,0,0,0,.3-1.3,2.4,2.4,0,0,0-.1-1.3,1.9,1.9,0,0,1-.1-1.1c.2-3.3.5-7.2.7-11.8v-.4h.3c7.6-2.3,13.9-6.3,20-12.5l.4-.4.3.5a12.1,12.1,0,0,0,3.5,3.6c.8.6.8,1.9.7,3.1s-.3,2.4-.5,3.6v.9c-.1.4-.1.9-.2,1.3v.6c-.1,1.1-.2,2.4-.4,4a5,5,0,0,1-.7,1.9,1.7,1.7,0,0,0-.2.5h-.1a3.2,3.2,0,0,0-.6,1.8v.2h.1l.2.2h.4v.1h1.1l.3.4-.2-.5h.2l.2-.2h.2c0-.1.1-.1.1-.2v-.2h0c.1-.1.1-.2.1-.4s.1-.4.1-.6v-.2a2.2,2.2,0,0,1,.5-1.3l.3-.7a2.9,2.9,0,0,0-.2-.9,1.9,1.9,0,0,1-.2-1.3l.3-1.7c.2-.8.3-1.6.5-2.3.6-2.6,1.2-4.5,1.6-5.9s.6-1.9.8-2.5l.2-1.5.7,1.3a12.6,12.6,0,0,0,1.3,2.3l.3.6.3.3.2.2v.2l.8.9a4.6,4.6,0,0,0,.7.7l.7.5.5.4h0c.8.6.8,1.8.7,3.1v.5c0,.1-.1.3-.1.4v.2h0l-.5,4.4v.3s-.6,2.6-.8,4.4a6.4,6.4,0,0,1-.2.7h0c0,.1,0,.1-.1.2s-.1.2-.1.3h-.1v.5a.5.5,0,0,0-.2.4h0v.2a3.2,3.2,0,0,0-.6,1.7v.3h2.2l.2-.2c.1-.2.2-.2.2-.3h.1v-.2h0c0-.1.1-.2.1-.3h0l.3-.6a13.6,13.6,0,0,0,.9-2.3c.1-.2-.1-.5-.2-.9a2.7,2.7,0,0,1-.2-1.3c0-.3.1-.5.1-.7s.1-.3.1-.5l.2-1a.4.4,0,0,1,.1-.3v-.6h.5l-.5-.2a.4.4,0,0,1,.1-.3v-.6a.4.4,0,0,1,.1-.3v-.4h.1l.7-3h0l.2-.5c0-.2.1-.4.1-.6v-.2c0-.1.1-.3.1-.4a.3.3,0,0,0,.1-.2.4.4,0,0,1,.1-.3v-.3c.1,0,.1-.1.1-.2l.4-1.4c0-.2.1-.4.1-.6v-1H136v-.3h-.2c-.1-.1-.1-.2-.2-.2h-.1l-.3-.2-.9-.7h-.1l-.3-.4h0c-.1-.2-.2-.3-.2-.5v-.2a.5.5,0,0,0-.1-.3v-.5a1.7,1.7,0,0,0-.1-.7V89.7h.1a17.2,17.2,0,0,0,1-2.2l.3-.9h.1c.1-.6.3-1.3.4-2.1l.7-3.8V80a3,3,0,0,1-.2-1v-.3a17.8,17.8,0,0,1,0-4,12.4,12.4,0,0,0,.1-2.7,10.4,10.4,0,0,0-1.4-5.2c-1.2-2-5.3-2.9-6.2-2.4H128l-.4-.2c-3.2-2.3-7.3-2.6-11.6-.9s-5,3.3-7,5.4a28.7,28.7,0,0,1-9.2,7,21.5,21.5,0,0,1-7,2H91.6l-1.2-.6h0l-1.1-.5h.1L87.1,76l-2.2-.8-3.3-1.5h.6l-1-.5h-.1l-.8-.4-1.1-.7-.8-.4h-.2a.1.1,0,0,0-.1-.1l-2.3-.7h.5l-.7-.4h-.4l-.8-.2h-.6L72,69.5l-1.3-.2-.9-.2H66.3l.5.7.5.7-.4.5-.2.2-.2.2-.5.4-.3-.6a3.9,3.9,0,0,1-.4-.9v.3L65,69.1h0v-.3h-.2c0,.1,0,.1-.1.2s-.9,2.8-.3,3.6l.3.3-.4.3c-1.4,1.1-2,1.7-2,3.5a13,13,0,0,1-2.5,7.6l-.8.9-.3.2-.3.3-1,1.1a2.7,2.7,0,0,0,.6,1.7,5.4,5.4,0,0,0,3.6,1.3,7,7,0,0,0,2.9-.4c.7-.2.8-.5,1-1l.3-.6a3.2,3.2,0,0,1,1.1-1.2l.3-.2a20.6,20.6,0,0,1,3.3-1.3l1.1-.3h.3l.2.2c2.5,2.2,2.9,3.6,3.2,5.2v.3c.2,1.6.5,3.4,3.2,7l.3.5.2.2.5.6.6.7-.3.4.4-.3h.1l.2.3.5.4v.4a43.7,43.7,0,0,0,.8,4.8l.3,1.1a29.8,29.8,0,0,1,.5,3.3v1.4h0a7.8,7.8,0,0,1-.2,1.9.4.4,0,0,0-.1.3,2.3,2.3,0,0,0-.1,1.3h0a1.7,1.7,0,0,0,.3,1,8.3,8.3,0,0,1,.4,1.2,40.4,40.4,0,0,1,.5,5.9v2.5c0,.4-.1.8-.1,1.1a2.5,2.5,0,0,1-.2,1.2,5.2,5.2,0,0,1-.6,1.3l-.3.6h0a3.5,3.5,0,0,0-.6,1.8c0,.1,0,.1.1.2h.9v0h1.7v-.3h.6l-.5-.2c0-.1.1-.2.1-.4v-.6a6.6,6.6,0,0,1,.1-1.5,1.6,1.6,0,0,1,.5-.8.6.6,0,0,0,.2-.5,2.5,2.5,0,0,0-.4-1.3,1.6,1.6,0,0,1-.3-.9v-2.5c.1-2.3.2-3.9.3-5.2s.1-.8.1-1.2.1-.5.1-.8a3.9,3.9,0,0,1,.4-.9,4,4,0,0,0,.4-1.3,4.1,4.1,0,0,0-.2-1.4,3.4,3.4,0,0,1-.1-1.1c.1-1.9.3-3.8.4-5.6v-1.5l1,.4h.8l1.3.2,1.3.2h.4v.4a42.2,42.2,0,0,0,.9,5.9,29,29,0,0,1,.9,5.9,7.1,7.1,0,0,1-.2,1.9,3.2,3.2,0,0,0-.3,1.6,4.2,4.2,0,0,0,.4,1.2,6.6,6.6,0,0,1,.4,1.1c.2,1.5.3,2.7.4,3.9a15.5,15.5,0,0,1,.1,2.2,19.3,19.3,0,0,1-.1,2.4v1.1a5.3,5.3,0,0,1-.8,2.5l-.3.5v.2a3.2,3.2,0,0,0-.6,1.8Zm37.2-18.4Zm6.2-29.6h0Zm.3-1.7ZM77.9,69.9Zm-13-1.3c0,.1,0,.1-.1.2H65ZM126.2,93l-1.4-.9c-1.1-.8-1.9-1.7-1.8-5.6v-.9l.7.5a1.3,1.3,0,0,1,.6.7h.1v.2a12.4,12.4,0,0,0,.4,1.6V89c.1.4.3.8.4,1.2s.1.4.1.6a.4.4,0,0,1,.1.3l.2.5Z"/><path class="cls-15" d="M86.7,104.8a15,15,0,0,1-6.5-3.8l.8-.6a13.8,13.8,0,0,0,6,3.4Z"/><path class="cls-15" d="M117.9,92l-.8-.7a26.5,26.5,0,0,1,6.2-5.2l.5.9A21.2,21.2,0,0,0,117.9,92Z"/><path class="cls-16" d="M125,90.9s1.3,4.2,2.7,6"/><path class="cls-15" d="M134.3,89.9h-1c2.8-21.8-5.4-25.4-5.5-25.4l.4-1C128.6,63.6,137.2,67.2,134.3,89.9Z"/></g></svg>