<svg xmlns="http://www.w3.org/2000/svg" viewBox="0 0 200 200"><defs><style>.cls-1{isolation:isolate;}.cls-2{fill:#cc5740;}.cls-3{fill:#e57051;}.cls-4{fill:#ed927a;}.cls-5,.cls-9{fill:#ffab91;}.cls-6{fill:#fbe9e7;mix-blend-mode:multiply;}.cls-7{fill:#ef7554;}.cls-8{fill:#ff8a65;}.cls-13,.cls-9{stroke:#000;stroke-miterlimit:10;stroke-width:0.09px;}.cls-10{fill:#ffccbc;}.cls-11{fill:#89685c;}.cls-12{fill:#141414;}.cls-13{fill:#fff;}.cls-14{fill:#3f2e2a;}</style></defs><g class="cls-1"><g id="Pig_02"><path class="cls-2" d="M124.7,147.6s-2.3.4-3.5-2.5S125.8,141.6,124.7,147.6Z"/><path d="M124.7,147.6a3.4,3.4,0,0,1-1.9-.5,4.3,4.3,0,0,1-1.4-1.6,3.3,3.3,0,0,1-.4-1.4,1.4,1.4,0,0,1,1.2-1.1,2.3,2.3,0,0,1,1.9.7,4.9,4.9,0,0,1,.6,3.9h.1a5,5,0,0,0-.5-3.6,2.1,2.1,0,0,0-1.9-1.1,1.5,1.5,0,0,0-1.4,1,1.7,1.7,0,0,0,.1,1,5,5,0,0,0,1.3,1.9,2.9,2.9,0,0,0,1.4.8Z"/><path class="cls-2" d="M119.2,139.9s-3,.5-3.6-.1,3.2-6.6,3.2-6.6Z"/><path class="cls-2" d="M122.2,149s-6.1.3-4.6-9.6S122.2,149,122.2,149Z"/><path d="M122.2,149a4.2,4.2,0,0,1-3-1.3,6,6,0,0,1-1.6-3.3,16.2,16.2,0,0,1,.2-5.8,5.7,5.7,0,0,1,.4-1.4c.1-.2.2-.5.5-.5s.8.8.9,1.1a19,19,0,0,1,.9,2.9c.3,1.2.6,2.3.8,3.5l.6,3.1c.1.3.1.7.2,1s0,.5.1.6h0c-.2-1.4-.4-2.9-.7-4.3a39,39,0,0,0-1.8-6.7c-.1-.4-.4-1.2-.9-1.3s-.7.8-.8,1.1a14.2,14.2,0,0,0-.5,2.2,16.9,16.9,0,0,0-.1,3.2,7.3,7.3,0,0,0,1.3,4,4.3,4.3,0,0,0,2,1.5,2.4,2.4,0,0,0,1.4.3Z"/><path class="cls-3" d="M124.8,141.3s1.7,5.4.5,6.2-2.3-1.3-2.3-1.3.2,2.8-.8,2.8-3.2-1.3-4-7.2S124.8,141.3,124.8,141.3Z"/><path class="cls-2" d="M83.9,124.1s-2.5.4-3.7-2.6S84.9,118,83.9,124.1Z"/><path d="M83.9,124a3.4,3.4,0,0,1-2-.4,4.6,4.6,0,0,1-1.5-1.6,3.3,3.3,0,0,1-.4-1.4,1.5,1.5,0,0,1,1.2-1.2,2.2,2.2,0,0,1,2,.8,4.7,4.7,0,0,1,.7,3.8h0a5.2,5.2,0,0,0-.5-3.7,2.2,2.2,0,0,0-2-1,1.5,1.5,0,0,0-1.4,1,1.7,1.7,0,0,0,.1,1,3.4,3.4,0,0,0,1.4,1.9,2.6,2.6,0,0,0,1.5.7h.9Z"/><path class="cls-2" d="M77.6,117s-2.9,1.2-3.5.8,1.6-7.2,1.6-7.2Z"/><path class="cls-2" d="M81.2,125.5s-6.1.3-4.6-9.6S81.2,125.5,81.2,125.5Z"/><path d="M81.2,125.5a4.2,4.2,0,0,1-3-1.3,6,6,0,0,1-1.6-3.3,14.2,14.2,0,0,1,.2-5.8,5.7,5.7,0,0,1,.4-1.4c.1-.2.2-.5.5-.5s.8.8.9,1.1a16.1,16.1,0,0,1,.9,2.9c.3,1.2.6,2.3.8,3.5l.6,3.1c.1.3.1.7.2,1a1.3,1.3,0,0,0,.1.6h0c-.2-1.4-.5-2.9-.7-4.3a36.7,36.7,0,0,0-1.8-6.7c-.1-.4-.4-1.2-.9-1.4s-.7.8-.8,1.2a16,16,0,0,0-.5,2.1,18.2,18.2,0,0,0-.1,3.3,8.1,8.1,0,0,0,1.2,4,5.1,5.1,0,0,0,2.1,1.5,2.4,2.4,0,0,0,1.4.3Z"/><path class="cls-3" d="M83.8,117.8s1.7,5.4.5,6.1-2.3-1.2-2.3-1.2.2,2.8-.8,2.8-3.2-1.3-4-7.2S83.8,117.8,83.8,117.8Z"/><path class="cls-4" d="M116.2,101.8l14.2,4.3c-.3,13.9-4.9,17.9-5.4,32.2a18,18,0,0,0,.2,4.4c-2.5-1.6-2.7,1.9-2.7,1.9s-3.6-2.2-4.3,1.7c0,0-1.6-2.2-.5-9.8.6-4.3-.1-9.4-1.2-15.7A66.9,66.9,0,0,1,116.2,101.8Z"/><path class="cls-4" d="M70.8,68.9H86.9l1.2,2.7c0,1.5,1.9,17.7-5.4,27.7-1.8,2.5-.3,10.5.8,15.8.2,1.1.2,1.8.7,4-2.5-1.6-2.7,2-2.7,2s-3.7-2.3-4.4,1.5a7.2,7.2,0,0,1-.8-2.1c-1.3-5.1-2.8-15.6-3.4-18.4s-.9-5,.4-9.3S70.6,78.8,70.8,68.9Z"/><path class="cls-5" d="M130.8,94.5l2.7,5.4,2.6,5.5c15.5-4.6,8-9.2,14.6-15.5a.7.7,0,0,0,.4-.6,1,1,0,0,0-.5-1.3C147.3,86.1,138.3,82.5,130.8,94.5Z"/><path class="cls-6" d="M133.5,99.9l2.6,5.5c15.5-4.6,8-9.2,14.6-15.5a.7.7,0,0,0,.4-.6c-2.4-.8-10.8-2.6-16.5,7.6A8.5,8.5,0,0,0,133.5,99.9Z"/><path class="cls-7" d="M106.9,158s-2.3.4-3.5-2.5S108,152,106.9,158Z"/><path d="M106.9,158a2.7,2.7,0,0,1-1.9-.5,4.3,4.3,0,0,1-1.4-1.6,3.3,3.3,0,0,1-.4-1.4,1.4,1.4,0,0,1,1.2-1.1,2.3,2.3,0,0,1,1.9.7,4.9,4.9,0,0,1,.6,3.9h.1a5,5,0,0,0-.5-3.6,2.1,2.1,0,0,0-1.9-1.1,1.5,1.5,0,0,0-1.4,1,1.7,1.7,0,0,0,.1,1,3.9,3.9,0,0,0,1.3,2,3.7,3.7,0,0,0,1.4.7Z"/><path class="cls-8" d="M101.4,150.3s-3,.5-3.6-.1,3.2-6.6,3.2-6.6Z"/><path class="cls-7" d="M104.4,159.4s-6.1.3-4.6-9.5S104.4,159.4,104.4,159.4Z"/><path d="M104.4,159.4a3.8,3.8,0,0,1-3-1.3,6,6,0,0,1-1.6-3.3,14.2,14.2,0,0,1,.2-5.8,7.4,7.4,0,0,1,.4-1.4c.1-.2.2-.5.5-.5s.8.8.9,1.2a15.2,15.2,0,0,1,.9,2.8c.3,1.2.6,2.3.8,3.5l.6,3.1c.1.3.1.7.2,1.1a1.5,1.5,0,0,0,.1.6h0c-.2-1.4-.5-2.9-.7-4.3a39,39,0,0,0-1.8-6.7c-.1-.4-.4-1.2-.9-1.3s-.7.8-.8,1.1a14.2,14.2,0,0,0-.5,2.2,16.9,16.9,0,0,0-.1,3.2,8.1,8.1,0,0,0,1.2,4,6.5,6.5,0,0,0,2.1,1.6l1.4.3h.1Z"/><path class="cls-9" d="M57,47.3a.9.9,0,0,1,1.2-.4,1,1,0,0,1,.4,1.2,2.8,2.8,0,0,0,.3,2.9H59a4.7,4.7,0,0,1,.6-1.5,8.3,8.3,0,0,1,.8-1.2c1.4-1.8,2.8-1.9,3.6-1.8A3.6,3.6,0,0,1,66.7,49a4.1,4.1,0,0,1-.7,4.2,4.3,4.3,0,0,1-4.5,1.7l.7.9a16.6,16.6,0,0,0,6,3.6.9.9,0,0,1,.5,1.2.8.8,0,0,1-.8.6h-.3c-.3-.1-5.1-1.9-7.5-5A10.6,10.6,0,0,1,59,54.1c0-.2,0-.3-.1-.4C57.1,52.2,55.8,49.6,57,47.3ZM64.6,52a2.3,2.3,0,0,0,.4-2.4,1.9,1.9,0,0,0-1.3-1.2h-.1a2.6,2.6,0,0,0-1.8,1.1,8.9,8.9,0,0,0-.9,1.6,4.5,4.5,0,0,0-.3,1.6A3,3,0,0,0,64.6,52Z"/><path class="cls-8" d="M107,151.7s1.7,5.5.5,6.2-2.3-1.3-2.3-1.3.2,2.8-.8,2.8-3.2-1.3-4-7.2S107,151.7,107,151.7Z"/><path class="cls-7" d="M66.1,134.5a3.6,3.6,0,0,1-3.7-2.5C61.1,129,67.1,128.4,66.1,134.5Z"/><path d="M66.1,134.4a2.8,2.8,0,0,1-2-.4,4.6,4.6,0,0,1-1.5-1.6,3.3,3.3,0,0,1-.4-1.3,1.4,1.4,0,0,1,1.2-1.2,1.9,1.9,0,0,1,2,.7c.9,1,.9,2.6.7,3.9h0a5.2,5.2,0,0,0-.5-3.7,2.2,2.2,0,0,0-2-1,1.5,1.5,0,0,0-1.4,1,2.2,2.2,0,0,0,.1,1.1,4.3,4.3,0,0,0,1.4,1.9,3.4,3.4,0,0,0,1.5.6h.9Z"/><path class="cls-8" d="M59.8,127.5s-2.9,1.1-3.5.7,1.6-7.2,1.6-7.2Z"/><path class="cls-7" d="M63.4,135.9s-6.1.3-4.6-9.6S63.4,135.9,63.4,135.9Z"/><path d="M63.4,135.9a4.2,4.2,0,0,1-3-1.3,6,6,0,0,1-1.6-3.3,14.2,14.2,0,0,1,.2-5.8,5.7,5.7,0,0,1,.4-1.4c.1-.2.2-.5.5-.5s.8.8.9,1.1a19,19,0,0,1,.9,2.9c.3,1.2.6,2.3.8,3.5l.6,3.1c.1.3.1.7.2,1s0,.5.1.6h0c-.2-1.4-.5-2.9-.7-4.3a36.7,36.7,0,0,0-1.8-6.7c-.1-.4-.4-1.2-.9-1.4s-.7.9-.8,1.2a14.2,14.2,0,0,0-.5,2.2,16.9,16.9,0,0,0-.1,3.2,8.1,8.1,0,0,0,1.2,4,5.1,5.1,0,0,0,2.1,1.5,2.4,2.4,0,0,0,1.4.3Z"/><path class="cls-8" d="M66,128.2s1.7,5.4.5,6.1-2.3-1.2-2.3-1.2.2,2.8-.8,2.8-3.2-1.3-4-7.2S66,128.2,66,128.2Z"/><path class="cls-10" d="M60.6,83.8c1.3,7.3,3.9,14.1,7.5,18.2.6-2.3,1-3.5,1.5-3.9s.8-.2,1.3.4c5.4,5.3,16.1,15,26.6,20.6l2.6,1.2a25.2,25.2,0,0,0,3.4,1.5c4.4,1.5,3.4-.3,6,1.8a21.3,21.3,0,0,0,2.2,1.8l1.2,1,.7.5a52.5,52.5,0,0,0,16.1,8.4,47.3,47.3,0,0,0,6.3,1.8c2,.6,4.2,1,6.7,1.5h.7l.5-.5,9.6-9.3a8.9,8.9,0,0,1-3.3-3.6c-3.5-6.7-3.1-19.6-10.7-29.2s-20.1-13.3-26.9-19.9c-9.4-9-29.3-31.3-48.9-18.2l-2.9,2.3C59,66.7,59,75.6,60.6,83.8Z"/><path class="cls-5" d="M133.8,135.2a4,4,0,0,1,2.2,2c2,.5,4.2.9,6.6,1.3-4-.9-7.3-2.5-7.9-3.8S131.1,134,133.8,135.2Z"/><path class="cls-5" d="M142.1,135.3a8.4,8.4,0,0,0,1.8,2.9l9.6-9.3a9.3,9.3,0,0,1-3.3-3.5,6.1,6.1,0,0,0-5.4-.6C141.5,126.2,140.2,131,142.1,135.3Z"/><path class="cls-8" d="M141.9,134.8c-.8,2.9,1.7,5,5.1,4.2s6.7-3.8,7.5-6.7-1.6-4.8-5-3.9S142.7,132,141.9,134.8Z"/><path class="cls-5" d="M143.2,135.5c-.8,2.6,1.2,4.2,4.3,3.4s6.4-3.6,7.2-6.3-1.2-4.2-4.4-3.4S144,132.8,143.2,135.5Z"/><path class="cls-5" d="M133.8,122.5a.9.9,0,0,0,.7-.3.7.7,0,0,0,.2-.7c-.2-2.4,0-7.2-7.6-6C127.1,115.5,124.2,122.9,133.8,122.5Z"/><path class="cls-11" d="M133,122.9c-2.8,0-4.8-.7-5.9-2.2s-.4-5.2-.3-5.3v-.2h.2c2.8-.5,4.8-.2,6.1.8s1.8,3.4,2,4.9v.5a1.5,1.5,0,0,1-.3,1,1.4,1.4,0,0,1-1,.5Zm-5.6-7c-.2.6-.8,2.8.4,4.4s3,2,6,1.8h0c.2,0,.3,0,.4-.2a.5.5,0,0,0,.2-.4.9.9,0,0,1-.1-.5c-.1-1.4-.3-3.3-1.6-4.4S129.8,115.5,127.4,115.9Z"/><path class="cls-3" d="M150.1,133.4c0,.8.6,1.2,1.3.8a2.7,2.7,0,0,0,1.3-2.2c.1-.8-.5-1.1-1.2-.7A2.9,2.9,0,0,0,150.1,133.4Z"/><path class="cls-3" d="M145.1,136.1c0,.8.6,1.1,1.3.8a2.9,2.9,0,0,0,1.3-2.2c.1-.8-.5-1.2-1.2-.8A3.3,3.3,0,0,0,145.1,136.1Z"/><path class="cls-3" d="M128.2,117.8s.4,3,2,3.3,2-.6,3,.2a13.1,13.1,0,0,1-.5-1.5,3.9,3.9,0,0,0-1.6-2.9A2.1,2.1,0,0,0,128.2,117.8Z"/><path d="M133.7,121.8l-.6-.4a1.3,1.3,0,0,0-1.3-.3,3.9,3.9,0,0,1-1.6.1c-1.6-.3-2.1-3.3-2.1-3.4h0a2.3,2.3,0,0,1,3.1-.9,4.1,4.1,0,0,1,1.6,2.9h0a10.9,10.9,0,0,0,.5,1.4Zm-5.4-4c.1.4.6,2.9,2,3.1h1.4a1.3,1.3,0,0,1,1.2.1l-.3-1.1h0a3.6,3.6,0,0,0-1.5-2.7C130.1,116.5,129.2,116.7,128.3,117.8Z"/><path class="cls-12" d="M128.4,117.5a3.1,3.1,0,0,0,2.2,3.1,2.5,2.5,0,0,0,2.1-.8,3.9,3.9,0,0,0-1.6-2.9A2,2,0,0,0,128.4,117.5Z"/><path d="M128.4,117.5a3.1,3.1,0,0,0,1,2.4,2.2,2.2,0,0,0,2.3.6l.6-.3.5-.4v-.6a2.5,2.5,0,0,0-.2-.7,2.7,2.7,0,0,0-1.8-1.8,1.9,1.9,0,0,0-2.2.8h.1a1.7,1.7,0,0,1,1.6-.8,2.4,2.4,0,0,1,2.1,1.5,5.6,5.6,0,0,1,.4,1.2v.2c.1.2.1.2,0,.3l-.7.4a2,2,0,0,1-2.3-.3,3.4,3.4,0,0,1-1.1-2.5Z"/><path class="cls-13" d="M129.4,117.8c-.1.3.1.6.5.7a.6.6,0,0,0,.6-.5c.1-.3-.1-.6-.5-.7A.6.6,0,0,0,129.4,117.8Z"/><path class="cls-5" d="M106.2,98.2a1.3,1.3,0,0,0,.3,1c5.1,6.8,5.2,20.8,14.8,12.2l.9-.8,1.8-2.7a6.2,6.2,0,0,0-2.2-8.7A19.3,19.3,0,0,0,107,97.3,1.2,1.2,0,0,0,106.2,98.2Z"/><path class="cls-6" d="M106.2,98.2a1.3,1.3,0,0,0,.3,1c5.1,6.8,5.2,20.8,14.8,12.2a8.8,8.8,0,0,0,.1-4C119.8,99.1,110.5,98.2,106.2,98.2Z"/><path class="cls-10" d="M97.9,117a46.4,46.4,0,0,0,.1,6.4c0,1.3.2,2.6.3,4s.1.2.1.3v.4h0a1.3,1.3,0,0,1,.1.6c.1.2.1.5.2.8s.3,1.9.4,2.8.1.3.1.4v.2a.9.9,0,0,0,.1.5c0,.4.1.7.1,1.1s.1.8.2,1.2.1.8.2,1.3h0v.6c0,.1,0,.2.1.2v.7c0,.2.1.4.1.7v.9a1.1,1.1,0,0,1,.1.5v1.2h0v2.5h0c0,.2-.1.5-.1.8a2.8,2.8,0,0,1-.1.9l-.3,2.9a2.8,2.8,0,0,1-.1.9v1.2c0,4.1.8,5.4.8,5.4h0v-.2h0v-.2l.2-.4h0c0-.1,0-.1.1-.2h.1l.2-.4h.2a.1.1,0,0,0,.1-.1h1a2.7,2.7,0,0,1,.9,0h.3l1.2.5a13.2,13.2,0,0,1,.3-1.3l.2-.4c.3-.7,1-1.1,2.2-.3h0a19,19,0,0,1-.2-4.5,53.3,53.3,0,0,1,.7-7.6,56.2,56.2,0,0,1,1.7-8.2c.7-2.9,1.5-5.7,2.1-9"/><path class="cls-10" d="M60.8,60.3l-1.8,2a26.2,26.2,0,0,0-6.1,17.5v1.1a.4.4,0,0,0,.1.3v1.6c.1.5.1,1,.2,1.4v.7l.3,1.7v.7a1.3,1.3,0,0,0,.1.6.9.9,0,0,0,.1.5v.3l.3,1.5c.1.3.1.6.2.9a25.6,25.6,0,0,0,.5,2.7,1.3,1.3,0,0,1,.1.6l.3,1.6v.3a1.3,1.3,0,0,0,.1.6v.4a.4.4,0,0,1,.1.3V98h.1v.4h0c0,.2.1.3.1.5a13.2,13.2,0,0,1-.2,4.1c-1.3,4.3-1.3,5.2-.4,9.3h0a22.4,22.4,0,0,1,.5,2.7.1.1,0,0,0,.1.1c.1.9.3,1.8.4,2.8a5,5,0,0,1,.2,1.2c0,.2.1.3.1.4s.1.5.1.7.1.5.1.7a1.5,1.5,0,0,1,.1.7,11.6,11.6,0,0,0,.4,1.8,1.3,1.3,0,0,0,.1.6,1.3,1.3,0,0,0,.1.6c.1.8.3,1.6.4,2.3s.1.6.2.9.3,1.5.4,2.2.1.4.2.6,0,.2.1.2v.6a3.9,3.9,0,0,0,.4.9h0c.1.2.1.3.2.3h0v-.3a.1.1,0,0,0,.1-.1c0-.2.1-.3.1-.5h.2l.2-.3H60l.3-.3h2.4l.4.2h.1c0,.1,0,.1.1.1h.4v-.2h0V131h.1a.8.8,0,0,1,.2-.5h.1v-.2a.1.1,0,0,0,.1-.1h1.4l.8.4h0c-.5-2.2-.5-2.9-.7-3.9-1.1-5.3-2.6-13.4-.8-15.9l.2-.3.3-.4a12.7,12.7,0,0,0,.7-1.2c.1,0,.1-.1.1-.2a19.8,19.8,0,0,0,1.1-2v-.4l.3-.6.3-.8v-.3l.3-.9a.4.4,0,0,0,.1-.3l.3-.8c0-.1.1-.2.1-.4s.1-.2.1-.3.1-.3.1-.4.1-.3.1-.4a.6.6,0,0,1,.1-.4.8.8,0,0,1,.1-.4c0-.2.1-.4.1-.7s.1-.3.1-.4.1-.3.1-.5h0a54.7,54.7,0,0,0,.8-7.6"/><path class="cls-5" d="M69.6,98.1c.4-.4.8-.2,1.3.4,5.4,5.3,16.1,15,26.6,20.6.3-.3.3-1.8.6-4.9.6-4.6-11.6-1.8-18.6-9.5S72.9,90,70.8,90,70.5,93.1,69.6,98.1Z"/><path class="cls-5" d="M111.3,125.5l1.2.9.6.5a55,55,0,0,0,16.6,8.4c-13.2-5.7-11.4-14.2-14.5-15.9S111.3,125.5,111.3,125.5Z"/><path class="cls-14" d="M104.6,160a5,5,0,0,1-3.5-1.6h0a5,5,0,0,1-1-1.4c-.1-.2-.9-1.6-.9-5.7V151h0c-.8,0-1.3-.1-1.5-.4s-.7-.7,2-5.4a1.7,1.7,0,0,0,.1-.7v-5.1c0-.3-.1-.6-.1-.8v-1.4c-.1-.5-.1-.9-.2-1.4s-.1-.7-.2-1.1l-.3-2.1c-.1-1-.3-1.9-.4-2.9s-.1-.6-.2-.9a1.3,1.3,0,0,0-.1-.6h0v-.7c-.1-1.2-.3-2.6-.3-4s-.2-2.5-.2-3.8h0A90,90,0,0,1,83.3,110c.3,1.8.6,3.5.9,5s.1.8.2,1.2.2,1.4.5,2.8c1.1,4.1.4,5-.1,5.4l-.9.2a3.2,3.2,0,0,1-1.2-.2c-.2,1.1-.6,1.6-1.3,1.6a4.9,4.9,0,0,1-3.9-2h0l-.3-.6-.3-.6h-.1a22.2,22.2,0,0,1-.8-2.3c-.2-.7-.3-1.5-.5-2.3a2.3,2.3,0,0,1-1.5-.1c-.4-.3-.7-.8.5-4.9-.3-1.8-.6-3.6-.8-5.2s-.8-4.8-1.1-5.9-.3-1.4-.4-1.9l-1.5-1.5-.4-.3h0c-.1.3-.1.5-.2.8v.3c0,.2-.1.3-.1.4s0,.3-.1.4a.6.6,0,0,1-.1.4v.4c0,.1-.1.2-.1.4s-.1.5-.2.7a.6.6,0,0,0-.1.4,3.6,3.6,0,0,1-.4.9v.3l-.3.8-.3.6c0,.2-.1.3-.1.4a21.2,21.2,0,0,1-1.1,2.1v.2l-.8,1.2-.5.7c-1.7,2.4.1,11.2.9,15.4a5.9,5.9,0,0,1,.2,1.3c.1.6.2,1.4.5,2.7,1.1,4.1.4,5.1-.1,5.4l-.9.2a3.2,3.2,0,0,1-1.2-.2c-.2,1.1-.6,1.6-1.3,1.6a4.9,4.9,0,0,1-4-2.1h0l-.3-.5a1.4,1.4,0,0,1-.2-.6H59c0-.1-.1-.2-.1-.3v-.2l-.4-.9v-.5h0a.4.4,0,0,1-.1-.3c0-.2-.1-.3-.1-.5a11.6,11.6,0,0,1-.4-1.8,2.3,2.3,0,0,1-1.5-.1c-.4-.3-.7-.8.5-4.9l-.3-1.7-1.1-6.7a24.3,24.3,0,0,0-.5-2.6h0c-.9-4.1-.9-5.1.4-9.5a12.2,12.2,0,0,0,.2-4v-.4l-.4-2.6-.3-1.6-.8-4.2-.3-1.5-.3-2.2-.3-1.7v-.6c-.1-.5-.1-.9-.2-1.4V81.7a.9.9,0,0,0-.1-.5V79.8A27,27,0,0,1,58.8,62l1.9-2.1.5-.4,1-.8a16.3,16.3,0,0,1-2.3-2.2,7,7,0,0,1-1.1-2.3c-.1,0-.1-.1-.1-.2-1.9-1.6-3.3-4.4-2-6.9a1.8,1.8,0,0,1,.8-.7,1.4,1.4,0,0,1,1.1.1,1.5,1.5,0,0,1,.7,1.9,1.5,1.5,0,0,0-.1,1.3c0-.1.1-.2.2-.3a5.7,5.7,0,0,1,.8-1.3c1.6-2,3.2-2.1,4.1-2a3.9,3.9,0,0,1,3.1,2.7,4.9,4.9,0,0,1-.8,4.8,5.2,5.2,0,0,1-3.7,1.9L64.7,57c18.2-11.1,36.4,6.9,46.3,16.7l2.2,2.1c2.7,2.7,6.4,4.8,10.2,7a74.5,74.5,0,0,1,10.7,6.9c7-6.9,14.2-3.8,17-2.1a1.6,1.6,0,0,1,.7,1.8,1.1,1.1,0,0,1-.5.9,10.6,10.6,0,0,0-3.3,6.2c-.5,2.1-1,4.1-3.8,6a68.1,68.1,0,0,1,3.8,12.8c.8,3.9,1.6,7.3,2.9,9.8a10.1,10.1,0,0,0,1.4,2l1.4,1.1.8.5h-.1a2.8,2.8,0,0,1,.8,1.1,4,4,0,0,1,.2,2.9c-.8,2.8-4.2,5.8-7.5,6.6h-.6a4.9,4.9,0,0,1-3.8-.3h-.7l-1.5-.3-5.2-1.1h-.3a61.3,61.3,0,0,1-6.1-1.8l-3.7-1.3c-.1,1.3-.2,2.5-.2,3.9a2,2,0,0,1-.1.7,15.7,15.7,0,0,0,.2,3.5c1.1,4.1.4,5-.1,5.3a1.2,1.2,0,0,1-.8.2h0a3.1,3.1,0,0,1-1.3-.1c-.2,1-.6,1.5-1.3,1.5a4.8,4.8,0,0,1-4.5-3h0c-.4-.6-1-2.3-.9-5.9-.8,0-1.2-.1-1.5-.4s-.7-.7,2.1-5.5a33.7,33.7,0,0,0-.1-4.4,37,37,0,0,1-4.4-2.9c-.3-.2-.4-.4-.7-.5l-.5-.5-1.2,4.8-.4,1.4a74.5,74.5,0,0,0-1.7,8.2c-.3,2.4-.5,4.8-.6,7.5a2.5,2.5,0,0,1-.1.8,16.5,16.5,0,0,0,.2,3.6v.8c.9,3.7.3,4.5-.2,4.8a1.2,1.2,0,0,1-.8.2,2,2,0,0,1-1.3-.1c-.2,1-.6,1.6-1.3,1.6Zm-3.8-4,.2.5a3.9,3.9,0,0,0,3.6,2.4c.1,0,.2-.4.3-1.3v-.8l.7.4a2.4,2.4,0,0,0,1.4.3h.3c.2-.1.5-1.1-.4-4.4l-.3-1.3h.2a12.9,12.9,0,0,1,0-2.8v-.7a62.9,62.9,0,0,1,.7-7.7,69,69,0,0,1,1.7-8.2l.4-1.5c.4-1.8.9-3.6,1.3-5.5h.6l.3-.4,1.1.9.7.6c1.5,1.1,3.1,2.1,4.6,3h.2v.3a27.2,27.2,0,0,1,.1,4.9h0a21.4,21.4,0,0,0-2.3,4.4h1.8v.6c-.2,4.4.7,5.9.7,5.9a4.1,4.1,0,0,0,3.6,2.5s.2-.2.3-1.3v-.8l.7.4a2.4,2.4,0,0,0,1.4.3h.3c.2-.1.5-1.1-.3-4.1a14,14,0,0,1-.2-3.9v-.7l.3-4.6V133l.7.3c1.4.5,2.8,1.1,4.3,1.5a63.2,63.2,0,0,0,6.2,1.8h.2l4.9,1.1,1.6.2h.5l.4.2a4.3,4.3,0,0,0,3.2.3h.5c3-.8,6.1-3.4,6.8-5.9a2.7,2.7,0,0,0-.1-2h-.1a2.3,2.3,0,0,0-.8-1.1l-.2-.2a7.6,7.6,0,0,1-1.7-1.3l-1.5-2.2c-1.4-2.7-2.2-6.2-3.1-10a61.8,61.8,0,0,0-3.9-13v-.4l.3-.3a7.8,7.8,0,0,0,3.8-5.7,11,11,0,0,1,3.6-6.6l.2-.3v-.2a.5.5,0,0,0-.2-.6c-2.7-1.6-9.5-4.5-16.1,2.3l-.3.3-.4-.3a77.9,77.9,0,0,0-10.9-7.1c-3.9-2.2-7.6-4.4-10.4-7.1l-2.3-2.2C100.5,64.8,82.5,47.1,64.9,58l-.2.2-.3-.2A9.6,9.6,0,0,1,62,56.1l-.8-.9-.7-1.1,1.3.3a4,4,0,0,0,4-1.5,3.5,3.5,0,0,0,.6-3.7,3.2,3.2,0,0,0-2.3-2.1c-.6-.1-1.8,0-3.1,1.6a7.5,7.5,0,0,0-.7,1.2,3.8,3.8,0,0,0-.6,1.3l-.2.9-.6-.6-.2-.3a3.1,3.1,0,0,1-.3-3.3c0-.2,0-.4-.2-.5a.2.2,0,0,0-.3,0c-.1,0-.2,0-.2.2-1.1,2.1.1,4.4,1.8,5.7h.1v.2a.4.4,0,0,0,.1.3,6.6,6.6,0,0,0,.9,1.9,13.1,13.1,0,0,0,2.7,2.5l.5.4-.5.4-1.5,1.2-.5.4-1.7,1.9h-.1c-4,4.8-5.9,10.4-5.9,17.2v1.9a1.3,1.3,0,0,0,.1.6v.5c0,.5.1.9.1,1.4v.6c.1.6.1,1.1.2,1.7l.4,2.1c.1.5.1,1.1.2,1.5l.9,4.2.3,1.6.3,2.5V99a12.3,12.3,0,0,1-.2,4.4c-1.3,4.2-1.3,5-.4,9h.1l.5,2.7h0a20.7,20.7,0,0,0,.4,2.2l.7,4.3.3,1.8v.2h0a16.1,16.1,0,0,0-.9,3.8H58l.5-.2v.6c.2.7.3,1.5.5,2.1s.1.5.1.7v.4h.1v.2c.1.2.1.3.2.4l.4.9a4.1,4.1,0,0,0,3.6,2.6c.1,0,.3-.4.3-1.3v-.9l.7.4a2.5,2.5,0,0,0,1.4.4h.3c.2-.1.5-1.1-.3-4.3-.3-1.3-.4-2.1-.5-2.8s-.1-.7-.2-1.1c-1.3-6.6-2.6-13.7-.7-16.3l.4-.7a10.5,10.5,0,0,0,.8-1.1v-.3a17.4,17.4,0,0,0,1-1.9c.1-.2.1-.3.2-.4s.1-.4.2-.6l.3-.7v-.3l.4-.9v-.4a1.9,1.9,0,0,1,.2-.7c0-.2.1-.3.1-.4s.1-.3.1-.4.1-.2.1-.3.1-.3.1-.4.1-.3.1-.4v-.4c0-.2.1-.4.1-.7v-.6h.2c.8-.8,1.7.1,2,.4l1.6,1.5h.1v.2c.1.6.3,1.3.4,2.1s.7,3.3,1.1,5.9l.9,5.3h0v.2a15.1,15.1,0,0,0-.9,3.8l1.1-.2h.5v.6q.3,1.5.6,2.7c.1.5.3.9.4,1.3l.4.8a4.1,4.1,0,0,0,3.6,2.6c.1-.1.3-.4.3-1.4v-.8l.7.4a2.2,2.2,0,0,0,1.4.3h.3c.2-.1.5-1.1-.3-4.3-.3-1.4-.4-2.2-.5-2.9s-.1-.7-.2-1.1c-.4-1.9-.8-4.1-1.2-6.4l-.2-1.3,1.1.8A92.4,92.4,0,0,0,98,118.6l.5.3v.3c0,1.5,0,2.8.1,4.1s.2,2.8.4,4v.3c0,.2,0,.3.1.4a1.5,1.5,0,0,0,.1.7,2.2,2.2,0,0,0,.1.8c.2,1,.3,1.9.4,2.8l.4,2.2c0,.4.1.8.1,1.2s.1.9.2,1.3.1.5.1.7v1.5c0,.3.1.5.1.7v.8c0,.2.1.5.1.8v2.3a.4.4,0,0,1-.1.3v1.5a25.2,25.2,0,0,0-2.2,4.3h1.8v1.3A12.9,12.9,0,0,0,100.8,156ZM62.6,53.7a4.1,4.1,0,0,1-2-.6h-.3v-.3a3.9,3.9,0,0,1,.4-1.8,5.6,5.6,0,0,1,.9-1.7,2.9,2.9,0,0,1,2.2-1.3h.1a2.2,2.2,0,0,1,1.8,1.5,2.9,2.9,0,0,1-.5,3A3.2,3.2,0,0,1,62.6,53.7Zm-1.2-1.4a2.2,2.2,0,0,0,3-.6h0a1.7,1.7,0,0,0,.3-1.9,1.5,1.5,0,0,0-.8-.9h-.2a1.8,1.8,0,0,0-1.2.9,8.5,8.5,0,0,0-.9,1.5A4.4,4.4,0,0,0,61.4,52.3Z"/><path class="cls-14" d="M82.3,109.2a41.7,41.7,0,0,1-10-8.9l.8-.6a44,44,0,0,0,9.7,8.6Z"/><path class="cls-14" d="M125.4,134.1c-6.5-2.4-7.6-3.7-7.7-3.8l.6-.5-.3.2.3-.2s1.1,1.3,7.4,3.6Z"/></g></g></svg>