<svg xmlns="http://www.w3.org/2000/svg" viewBox="0 0 200 200"><defs><style>.cls-1{fill:#5b342c;}.cls-2{fill:#865c51;}.cls-3{fill:#472822;}.cls-14,.cls-4{fill:#f2e9e7;}.cls-5{fill:#724d46;}.cls-10,.cls-6{fill:#4e342e;}.cls-6,.cls-9{stroke:#000;stroke-width:0.04px;}.cls-10,.cls-13,.cls-14,.cls-6,.cls-9{stroke-miterlimit:10;}.cls-7{fill:#774d42;}.cls-8{fill:#4c2822;}.cls-9{fill:#e8792a;}.cls-10,.cls-13,.cls-14{stroke:#422825;}.cls-10,.cls-13{stroke-width:0.04px;}.cls-11{fill:#3e2723;}.cls-12{fill:#422825;}.cls-13{fill:#fff;}.cls-14{stroke-width:0.01px;}</style></defs><g id="Horse_02"><path class="cls-1" d="M128.8,83h.2a7.5,7.5,0,0,1,.2-2.1,7.8,7.8,0,0,0,.4,2.1,6.8,6.8,0,0,0,.8,2.4l.4.8h.2a16,16,0,0,1-.5-2.9l.5.8a15.3,15.3,0,0,0,.7,3.6h.2a14.9,14.9,0,0,0,.2-2.1c0,.1.1-.1.1-.2a23.2,23.2,0,0,0-.1,3.7,5.2,5.2,0,0,0,1-2.6c-.1,1.3-.2,2.5-.2,3.8h.2a12.3,12.3,0,0,1,.2-2,1.3,1.3,0,0,1,.1.6,9.4,9.4,0,0,0,.1,1.4,9.3,9.3,0,0,0,1.4-2.7,10.9,10.9,0,0,0,.1,1.8h.2c-.1-1,0-2,0-3a10.8,10.8,0,0,0,.5-2.1c.1,1.1.2,2.2.4,3.3s.2.1.2,0c.2-2,.1-5.9.1-6.3a16.7,16.7,0,0,1,.6,3.8,35,35,0,0,0-.8-6.5c-.4-2.2.2-4.4.1-6.6a11.4,11.4,0,0,0-1.5-5.5c-1.3-2.1-5.6-3.2-6.8-2.6l-2,.9c-1.3.8,4.3,1.5,4.5,2.4a12,12,0,0,1,0,5c-.4,1.8-1,3.7-1.4,5.5a3.6,3.6,0,0,0,.7-1v.2l-.3.6A8.7,8.7,0,0,0,128.8,83Z"/><path class="cls-1" d="M130.1,115.5a4.3,4.3,0,0,0-1.2,2.7c0,1.4,4,2.2,4-1.5A2.4,2.4,0,0,1,130.1,115.5Z"/><path class="cls-2" d="M136.7,99.2v.3h0c0,.2-.1.4-.1.7v.2h0v.4h0c-.1.3-.1.5-.2.8a.3.3,0,0,0-.1.2.4.4,0,0,1-.1.3v.2a.4.4,0,0,0-.1.3l-.2.5c0,.2-.1.4-.1.6v.2a.4.4,0,0,1-.1.3v.2l-.3,1h0v.2l-.2.5v.4c0,.2-.1.4-.1.7s-.1.1-.1.2a.6.6,0,0,1-.1.4,1.3,1.3,0,0,1-.1.6v.2a.6.6,0,0,0-.1.4h-.1v.2a.4.4,0,0,1-.1.3.9.9,0,0,1-.1.5h0v.4a.6.6,0,0,0-.1.4c0,.2-.1.3-.1.4s-.1.5-.1.8.5,1.4.4,2.2-.8,1.1-.7,2.1a2.4,2.4,0,0,1-1.8.7h-.5a.9.9,0,0,1-.7-.3.8.8,0,0,1-.4-.4h0a.3.3,0,0,0-.1-.2h.1l.4-.7a.4.4,0,0,1,.1-.3h0v-.3h0v-.2a1.3,1.3,0,0,0,.1-.6c.2-1.9.3-3.3.5-4.5v-.5a2,2,0,0,0,.1-.7v-.2c.1-.6.1-1.1.2-1.6V106a.8.8,0,0,0,.1-.4,1.3,1.3,0,0,1,.1-.6v-.3h0v-.2c0-.2.1-.3.1-.5v-.5c.2-1.6,0-2.3-.5-2.6h-.2c0-.1-.1-.1-.2-.2h-.1l-.7-.5-.8-.7-.2-.3h0l-.2-.2-.2-.2-.2-.2v-.2l-.2-.3-.3-.3-.3-.6a13.4,13.4,0,0,1-1.3-2.3,15.3,15.3,0,0,1-1.1-2.7,1.4,1.4,0,0,1-.2-.6c-.1-.1-.1-.2-.1-.4l-.2-.5-.3-1.3a.4.4,0,0,1-.1-.3,10.5,10.5,0,0,1-.4-1.7h0c-.2-1-.4-2-.5-2.8s-.3-3.2-.3-3.2h.1a4.2,4.2,0,0,1,.5-1c0-.1.1-.2.1-.4h.1l7.7-8.4,1.1.2h0c.1.1.1.3.2.5s.1.3.1.5.1.4.2.6a4.3,4.3,0,0,0,.1.5,18.5,18.5,0,0,1,.4,2.3,1.9,1.9,0,0,1,.1.8A6.1,6.1,0,0,1,134,78a.3.3,0,0,1,.1.2v2.1c.1,3.5-.2,7.1-.4,10.7v2.8a2,2,0,0,1,.1.7c0,.1,0,.2.1.2h0v.5a.3.3,0,0,0,.1.2.4.4,0,0,0,.1.3h.1a.5.5,0,0,0,.2.4h0l1.2.9h.1l.3.2h.1a.3.3,0,0,0,.1.2.1.1,0,0,0,.1.1h.1v.2h0c.1,0,.1,0,.1.1h0A1.3,1.3,0,0,1,136.7,99.2Z"/><path class="cls-3" d="M132.9,117.4a2.3,2.3,0,0,1-3.8,1.4A3.7,3.7,0,0,0,132.9,117.4Z"/><path class="cls-4" d="M134,109.3h0a.3.3,0,0,1-.1.2.6.6,0,0,1-.1.4v.4h-.1v.3a.9.9,0,0,0-.1.5v.4a1.7,1.7,0,0,0-.1.7c-.2.7.5,1.5.3,2.3s-.8,1-.8,2.1a2.4,2.4,0,0,1-1.7.6h-.6l-.7-.3-.3-.4h0c0-.1-.1-.1-.1-.2h.1l.4-.7V115h0v-.3h.1v-.2c.1-.2.1-.4.2-.6.2-1.9.3-3.3.5-4.5Z"/><path class="cls-5" d="M126.4,94.5c-.3,1.6-1.3,4-2.4,8.5-.2.7-.3,1.5-.5,2.3l-.3,1.7c-.2.7.5,1.4.4,2.2s-.8,1.1-.8,2.1a2.6,2.6,0,0,1-1.3.6,2,2,0,0,1-1.3-.1,1.6,1.6,0,0,1-.8-.6v-.3c-.1-.6.7-1.1.9-2.5s.3-2.8.5-3.9a10.1,10.1,0,0,1,.2-1.9c.2-1.6.4-2.9.6-4.5s0-2.3-.5-2.7c-7.7-5.2-7.8-19.9-7.8-19.9s5.4-11.7,9.7-9.5c1.4,4.3,1.3,9,1,13.8l-.3,4.3c0,.5-.1,1.1-.1,1.6-.4,5.1.7,5.4,1.7,6.1a2,2,0,0,1,.9,1.1A2.6,2.6,0,0,1,126.4,94.5Z"/><path class="cls-1" d="M119.9,110.1a4.8,4.8,0,0,0-1.2,2.8c0,1.3,4.1,2.1,4.1-1.6C120.2,111.8,119.9,110.1,119.9,110.1Z"/><path class="cls-3" d="M122.7,112a2.3,2.3,0,0,1-3.8,1.4A3.6,3.6,0,0,0,122.7,112Z"/><path class="cls-4" d="M123.6,109.2c-.2.8-.8,1.1-.8,2.1a2.6,2.6,0,0,1-1.3.6h-1.3l-.8-.9c-.1-.6.7-1.1.9-2.5s.3-2.8.5-3.9a10.1,10.1,0,0,1,.2-1.9,24.3,24.3,0,0,0,3,.4c-.2.7-.3,1.5-.5,2.3l-.3,1.7C123,107.7,123.7,108.4,123.6,109.2Z"/><path class="cls-1" d="M85.3,130.1v.7c-.5,2.9-3.9,2.2-4,.9a4.8,4.8,0,0,1,1.2-2.8A3.7,3.7,0,0,0,85.3,130.1Z"/><path class="cls-6" d="M86.7,113.2c-.2,1.4-.8,1.6-.9,3.1s-.4,3.7-.4,7.6v1.2c0,.5.7,1.1.7,2.2s-1,.6-.8,2.8c0,0-1.9,1.7-3.2,0s.9-1.5.9-3.4.1-1.1.1-1.6v-1.3a33.7,33.7,0,0,0-.5-6.5c-.2-1-.7-1.4-.7-2.4s.5-1.7.4-3.6c-.1-5.2-3.1-11-1-15.7l6.1-1.4s-.4,8.5-1,16.6C86.3,111.7,86.8,111.8,86.7,113.2Z"/><path class="cls-5" d="M86.6,113.2c-.1,1.4-.7,1.6-.8,3.1s-.3,3.2-.4,6.3v2.5c0,.5.7,1.1.7,2.2s-1,.6-.8,2.8c0,0-1.9,1.7-3.2,0s.9-1.5.9-3.4.1-1.1.1-1.6V123a32.9,32.9,0,0,0-.5-5.7c-.2-1-.7-1.4-.7-2.4s.5-1.7.4-3.6c-.1-5.2-3.1-11-1-15.7l6.1-1.4s-.4,8.5-1,16.6C86.3,111.7,86.8,111.8,86.6,113.2Z"/><path class="cls-3" d="M85.3,130.8a2.3,2.3,0,0,1-3.8,1.4A3.5,3.5,0,0,0,85.3,130.8Z"/><path class="cls-4" d="M85.3,130.1s-1.9,1.7-3.2,0,.9-1.5.9-3.4.1-1.1.1-1.6V123l2.3-.4v2.5c0,.5.7,1.1.7,2.2S85.1,127.9,85.3,130.1Z"/><path class="cls-7" d="M65.5,73.6h-.3c-1.9-.2-2.2-2.6-.9-4.8l.6-.9a.3.3,0,0,1,.5.2C65.4,71.1,68.3,73.6,65.5,73.6Z"/><path class="cls-8" d="M65.2,73.5c-1.9-.2-2.2-2.6-.9-4.8a7.1,7.1,0,0,0,.7,4.2A1.4,1.4,0,0,1,65.2,73.5Z"/><path class="cls-9" d="M65.7,81.2a.2.2,0,0,1-.2-.2,7.6,7.6,0,0,1-.8-1.1"/><path class="cls-2" d="M63.9,75.8a7.4,7.4,0,0,1,.4-1.4h0a13.1,13.1,0,0,1,2.2-3.6h0c.2-.3.3-.5.5-.6l.2-.3h.6c1.4-.4,5.6-.6,14.3,4.7,3.7,2.3,6.9,3.2,9.9,3.1a17.6,17.6,0,0,0,7.6-2c8.6-3.8,9.4-9.6,16.3-12.4,4.2-1.7,8.6-1.5,12.1,1.1a15.8,15.8,0,0,1,2.3,2.2l.5.7.6.8.3.5a11.6,11.6,0,0,1,1.4,2.7c0,.1.1.2.1.3h0a11.4,11.4,0,0,1-.6,6.8h0a24.4,24.4,0,0,1-1.4,2.8c-.5.7-.9,1.4-1.4,2a11.4,11.4,0,0,1-2,2.3h-.1l-.3.3-1.1.9c-1.1.7-1.9,1-2.1.5h-.1c0-.2-.1-.3-.2-.5h-.1a.1.1,0,0,0-.1-.1h-.1a.1.1,0,0,1-.1-.1h-.3a1.6,1.6,0,0,0-.9.3h-.4l-.4.4-.3.5-.4.5-.2.2a.1.1,0,0,0-.1.1.3.3,0,0,0-.1.2h-.1l-.3.3h-.2c-.1.1-.1.2-.2.2s-.1.1-.1.2h-.1l-.3.3-.4.5-.4.4h0l-.6.7-.2.2h-.2l-.3.4h0l-.3.3-.4.4-.6.6h0l-.4.3h0l-.3.3-.3.3-1.1,1h0l-1,.9-.5.3-.2.2-.8.6-.3.2-.4.3-.8.6c-1.3.9-2.7,1.7-4.1,2.5h-.4l-.4.2h-.2l-.4.2-.5.2-.4.2-.8.4h0a38.2,38.2,0,0,1-5.1,1.8h0l-1.1.3h0a12.3,12.3,0,0,1-4,.5H90.7l-1.3-.2-1.3-.2h-.2l-.6-.2H87c0-.1-.1-.1-.2-.1h-.5a.1.1,0,0,0-.1-.1h-.9l-.8-.4h-.3l-.4-.2-.3-.2h-.9a.1.1,0,0,0-.1-.1h-.1a.1.1,0,0,1-.1-.1h-.2l-.2-.2h-.2l-.7-.6h0c-.1-.1-.2-.2-.2-.3h-.2l-.5-.5c0-.1-.1-.1-.2-.2h-.2v-.2h-.2c0-.1-.1-.1-.1-.2l-.2-.2c-.2-.2-.3-.4-.5-.5h0c-.1-.1-.1-.2-.2-.2l-.3-.5h0c-2.9-3.8-3.1-5.8-3.3-7.5s-.7-3-3.9-5.6a2.2,2.2,0,0,0-1.1-.5"/><path class="cls-2" d="M78.3,78.4a.4.4,0,0,0-.1.3c-.4,1-1,2.2-1.6,3.4-1.9,3.1-6.7,3.2-9.2,4.8h-.2a4.7,4.7,0,0,0-1,1c-.4.7-.3,1.5-1.5,1.9a11.2,11.2,0,0,1-3.2.4,5.7,5.7,0,0,1-3.8-1.4,2.5,2.5,0,0,1-.8-2.2c.1-.4.8-1,1.5-1.7h.2l.8-.9a12.5,12.5,0,0,0,2.4-7.3c0-2.1.8-2.8,2.5-4.1s2.5-3.3,7.5-3.2l2.5.2C78.7,70.3,79.9,73.8,78.3,78.4Z"/><path class="cls-10" d="M69.5,78.4s-.2,1.3-1,1.5-1-.2-1.5.2a1.9,1.9,0,0,0,.2-.7,1.6,1.6,0,0,1,.8-1.3,1,1,0,0,1,1.3.1Z"/><path class="cls-11" d="M69.3,78.2a1.5,1.5,0,0,1-1,1.5,2,2,0,0,1-1.1-.3,1.6,1.6,0,0,1,.8-1.3A1,1,0,0,1,69.3,78.2Z"/><path class="cls-12" d="M69.3,78.2a1.5,1.5,0,0,1-.4,1.1,1.1,1.1,0,0,1-1.1.3h-.5a.9.9,0,0,1,.1-.5,1.4,1.4,0,0,1,.9-.8.9.9,0,0,1,1,.3h.1A1.4,1.4,0,0,0,68,78a1.7,1.7,0,0,0-.6.6c-.1.2-.1.5-.2.8h0a1.4,1.4,0,0,0,1.5.1,1.5,1.5,0,0,0,.7-1.3Z"/><path class="cls-13" d="M68.9,78.4c0,.2-.1.3-.2.3s-.4,0-.4-.2l.2-.3A.5.5,0,0,1,68.9,78.4Z"/><path class="cls-14" d="M60.7,82.9a12.4,12.4,0,0,0,1.9-3.6c.5-1.5.5-3.9,2-4.9s2.8-.3,2.9,1.1a3.2,3.2,0,0,1-1.3,2.8A12.6,12.6,0,0,0,64,80.7a11.1,11.1,0,0,0-1.4,2.9c-.2.8-.5,1.7-1.5,1.9s-1.6,0-1.6-.7.7-1.2,1.1-1.7Z"/><path class="cls-11" d="M60.9,86.2c0-.1,0-.2.2-.2h.3c.6.7,1,2.1-.2,2.3s-1.6-.5-.9-1A1.7,1.7,0,0,0,60.9,86.2Z"/><path class="cls-11" d="M58.3,85.5a1.6,1.6,0,0,0-.2,1.2c.1.6-.5,1-1.2.6a10.7,10.7,0,0,1,1.5-2.1A.4.4,0,0,1,58.3,85.5Z"/><path class="cls-1" d="M93,78.5a3.2,3.2,0,0,0-1.5-1.3h1a3.9,3.9,0,0,0-1.8-.4h-.2A4.2,4.2,0,0,0,88,75.5a4.9,4.9,0,0,0-3.5-1.1l-1-.5h1.9c-.6-.5-1.5-.2-2.2-.3a3.9,3.9,0,0,1-1.1-.6l-.9-.8-1.6-.7a3.5,3.5,0,0,1,2.7,1.1h.1a4.8,4.8,0,0,0-4-1.3l-2.1-.9c1,.2,2.1.7,3.1.4s.1-.1,0-.1-2.9-.8-4.3-.7l-1.2-.4a7.7,7.7,0,0,1,3.8.8c.1.1.1-.1,0-.1a7.4,7.4,0,0,0-4.6-1h-.3l-.9-.7h1.4c0,.1.1,0,0-.1a5,5,0,0,0-1.7-.2h-.2c-1.4-.7-2.7-.2-4.1.2H65.5c0,.1-.1.1,0,.2l.3.4.8.9a2.2,2.2,0,0,0,.5.8,16.7,16.7,0,0,1,.8,2H68a3.4,3.4,0,0,0-.5-1.4l.2.2a7.6,7.6,0,0,1,.9,1.8h.1c-.1-.3-.1-.6-.2-.9l.5.7a4.1,4.1,0,0,0,.1-.9c0-.2-.1-.3-.1-.5l.4.6a8.6,8.6,0,0,1,.2,2.8h.1a8.8,8.8,0,0,0,0-2.3h.1a6.6,6.6,0,0,1,.1,1.4H70a12.1,12.1,0,0,1-.5,1.8c0,.1.1.1.2.1a11.1,11.1,0,0,0,.8-3,1.9,1.9,0,0,1,.2-.7V73a9.2,9.2,0,0,1-.4,2.9c-.1.1.1.1.1.1a9.4,9.4,0,0,0,.7-3.4l.6.8a.5.5,0,0,1,.2.4c.5,1.1.7,2.2,1.1,3.3s.1.1.1,0a10.3,10.3,0,0,0-.5-2.4,7.8,7.8,0,0,1,1.2,4.1c0,.1.1.1.1,0a4.1,4.1,0,0,0-.5-3.2l.2.2,1,2.2h.1a7.7,7.7,0,0,0-1-2.9,10.1,10.1,0,0,1,1.2,2.3.1.1,0,0,0,.1-.1,14.2,14.2,0,0,0-.8-1.8l.5.7.8,1a4.8,4.8,0,0,0-.2-1.2,4,4,0,0,1,.7,1.8,7.6,7.6,0,0,1-.1,1.5H76c-.1.1-.1.2-.1.4H76a9.3,9.3,0,0,0,.5-1,7.5,7.5,0,0,1-.9,2.5h.1a6.6,6.6,0,0,0,.9-1.9,11.7,11.7,0,0,0,.6-2,7.7,7.7,0,0,1-.2,1.5h0a7.5,7.5,0,0,1-.5,1.6h.1a12.1,12.1,0,0,0,1.1-3.2,2.2,2.2,0,0,1,.1.8h.1a8.1,8.1,0,0,0,.1-1.6,17.6,17.6,0,0,1,1.7,3.7h.1a14.5,14.5,0,0,0-1.2-3.5,12.5,12.5,0,0,1,1.8,4.5h.1a6.8,6.8,0,0,0-.2-1.4,6.3,6.3,0,0,1,.4,2.7h.2a7,7,0,0,0-.3-2.9c.1.3.3.5.4.8h.1a6.9,6.9,0,0,1-.5-1.3l.5,1.1.6,1.3a5.5,5.5,0,0,0,.1-1.2,1.4,1.4,0,0,1,.2.7,10.5,10.5,0,0,1,0,2.5h.1c.1-.5.1-1,.2-1.5a4.9,4.9,0,0,1,.1,1.2.3.3,0,0,1,.1-.2l-.3,2h0a14,14,0,0,0,.9-2.9l.4-.9a5.9,5.9,0,0,1-.2,1.4c0,.1.1.1.1,0a15.5,15.5,0,0,0,.6-2.3.1.1,0,0,0,.1.1l.2.8h.1a8.3,8.3,0,0,1-.7,2.7c-.1.1,0,.2.1.1a7.7,7.7,0,0,0,1.1-3c0-.3.1-.7.1-1.1a4.9,4.9,0,0,1-.1,1.2H85a4.7,4.7,0,0,0,.4-1.6,9.8,9.8,0,0,1,1.7,1.8h.1a7.6,7.6,0,0,0-.8-1.1l1.1,1a3.9,3.9,0,0,0-.2-1.1l-.3-.6.5.5a13,13,0,0,1,.7,3.3h.2a9.1,9.1,0,0,0-.1-1.7h.1v-.2a.8.8,0,0,0-.1-.4l.5.9a20.1,20.1,0,0,1-.1,2.5h.1a12.7,12.7,0,0,0,.2-3.4v-.5c.2.9.3,1.7.5,2.6h.1a5.9,5.9,0,0,0-.1-2.3,5.4,5.4,0,0,0-.5-2.1l-.3-.7.6.3A6.6,6.6,0,0,1,92,81.3c0,.1.2.1.1,0A5.2,5.2,0,0,0,89.8,78a2.8,2.8,0,0,1,1.8,1.4,2.1,2.1,0,0,0-.2-1.2,5.3,5.3,0,0,1,1.5,1.9c0,.1.1.1.1,0s-1.2-1.9-1.8-2.5v-.2a4.6,4.6,0,0,1,1.8,1.1Zm-5.8-3-2.1-.8A4.9,4.9,0,0,1,87.2,75.5Zm-6.6-3.3.9.6h-.1l-.8-.5-1.2-.6Zm-9.1-3.6.6.4-1.3-.2Zm-2.4-.4a2.7,2.7,0,0,1,2,.2l-1,.3L68,68.5A3.5,3.5,0,0,1,69.1,68.2Z"/><path class="cls-5" d="M124.1,87.3c-.5-1.4-1.7-1.2-2.6,0-7,8.3-14.4,14.2-24.9,17.2a16.5,16.5,0,0,0,.8-4.3c0-2.2,8.5,5.3,20.8-11,2.5-3.4,2-7.9,3.6-8.4C125.4,79.7,124.3,88.4,124.1,87.3Z"/><path class="cls-7" d="M68.3,69a.3.3,0,0,1,.4-.2c1.9,1.9,2,5.9-.4,5.9s-1.1-.7-1.1-1.3S68.1,70.5,68.3,69Z"/><path class="cls-8" d="M68.6,69.3c.3,2.4-1.1,4.4,0,4.4S69.7,70.5,68.6,69.3Z"/><path class="cls-1" d="M92.7,134.3a4.8,4.8,0,0,0-1.2,2.8c0,1.3,4,2.1,4-1.6A3.3,3.3,0,0,1,92.7,134.3Z"/><path class="cls-2" d="M96.6,116.2c-.1.8.4,1,.2,2.4s-.7,1.5-.8,3.1-.2,2.4-.3,4.4a18.5,18.5,0,0,0-.1,2.5v1.9c0,.5.7,1,.7,2.1s-1,.7-.8,2.9a2.8,2.8,0,0,1-1.8.7,2.1,2.1,0,0,1-1.5-.7c-.5-.6,1-1.6,1-3.4s.1-2.3.1-3.5a17,17,0,0,0-.1-2.2c-.1-1.1-.2-2.3-.4-3.8s-.7-1.3-.8-2.3.6-1.7.5-3.6c-.1-3.8-1.7-7.9-1.8-11.7a9.7,9.7,0,0,1,.8-4.1l4.2-.9,1.9-.5s-.1,1.9-.3,4.7S96.9,111.8,96.6,116.2Z"/><path class="cls-3" d="M95.5,136.2a2.3,2.3,0,0,1-3.8,1.4A3.7,3.7,0,0,0,95.5,136.2Z"/><path class="cls-4" d="M95.5,135.5a2.8,2.8,0,0,1-1.8.7,2.1,2.1,0,0,1-1.5-.7c-.5-.6,1-1.6,1-3.4s.1-2.3.1-3.5a17,17,0,0,0-.1-2.2l2.5-.3a18.5,18.5,0,0,0-.1,2.5v1.9c0,.5.7,1,.7,2.1S95.3,133.3,95.5,135.5Z"/><path class="cls-1" d="M143.1,111.4h0c-.1,0-.1.1,0,.1Z"/><path class="cls-12" d="M136.7,98.6c-.2-.9-1-1.4-1.7-1.9s-1.2-2.3-1.3-3.7a14.1,14.1,0,0,1,.1-2V90a2.5,2.5,0,0,1,.4-.7l.3-.7a4.1,4.1,0,0,0,.3-.8,11.1,11.1,0,0,0,.2,1.7c.3.2.2-.5.2-.5a19.3,19.3,0,0,1,.1-2.4c0-.7.4-1.4.4-2.1h0v.3c0,.2.1.4.1.6a4.5,4.5,0,0,0,.1,1.1c0,.3.1.7.1,1s0,.2.2.2.2-.4.2-.6a16.1,16.1,0,0,0,0-3.1,22.6,22.6,0,0,0,0-2.6h0v.3c0,.1.1.2.1.3s.1.7.2,1a19.2,19.2,0,0,1,.3,2.2c0,.1.1.1.1,0a21,21,0,0,0-.5-4.3,32.6,32.6,0,0,1-.5-4.5c.1-1.4.3-2.8.3-4.2a15.9,15.9,0,0,0-.7-3.8,8.1,8.1,0,0,0-1.6-2.7,9.4,9.4,0,0,0-2.2-1.2,10.9,10.9,0,0,0-2.4-.7h-1a.9.9,0,0,1-.7.1l-.8-.5-.8-.4-1.6-.7a10.8,10.8,0,0,0-3.5-.4,14.4,14.4,0,0,0-6.8,1.8c-3.3,1.8-5.5,4.9-8.2,7.4a26.8,26.8,0,0,1-5.6,3.9,22.1,22.1,0,0,1-8.2,2.4h-.5c.2,0,.5.1.7,0h0c0-.2-.7-.3-.9-.3h-.8l-.5-.4-1-.6-.7-.2-.6-.2-1.3-.7-1.4-.3h-.9l-.8-.3h1.8c0-.4-.7-.4-1-.5h-.9a2.8,2.8,0,0,1-1.3-.4,6,6,0,0,1-.8-.8l-1-.5-.4-.2h.9a3.1,3.1,0,0,1,1,.5l.5.4c.3-.1-.4-.5-.4-.6a3.6,3.6,0,0,0-1.7-.7h-2l-1.2-.5h.3l1.2.2a1,1,0,0,0,.9-.1h0c-.1-.2-.5,0-.6-.1a4,4,0,0,1-1.5-.3l-1.5-.4-1.6-.3h1.2a7,7,0,0,1,1.9.6s.4.3.4,0-.7-.4-.8-.4a8.2,8.2,0,0,0-3.1-.7H72.7l-.3-.3-.3-.2c-.1-.1,0,0,0-.1h1.2c.1-.1.1-.1,0-.2l-.6-.2h-.8c-.5,0-1-.4-1.6-.4a3.4,3.4,0,0,0-1.4.1,11.6,11.6,0,0,1-1.8.4H65.8c-.2.1-.3.1-.4-.2s.1-.5-.2-.5-.6.4-.7.7a4.8,4.8,0,0,0-1,2.8,2.3,2.3,0,0,0,.2,1.2c.1.2.2.4.1.5s-.4.3-.5.5A4.3,4.3,0,0,0,62,75.1a13.3,13.3,0,0,0-.3,2.8,11.7,11.7,0,0,1-2.5,6.2c-.6.8-1.6,1.4-2.2,2.3s0,1.7.4,2.2,3.6,1.9,5.4,1.7a4.7,4.7,0,0,0,2.8-.9,2,2,0,0,0,.4-.8,2.5,2.5,0,0,1,.8-1.2A7.3,7.3,0,0,1,70,85.9l.8-.3c.3-.1.8-.4,1-.2s.5.4.7.6l.5.6a6,6,0,0,1,1.4,2.1,10.5,10.5,0,0,1,.4,1.7,10.1,10.1,0,0,0,.9,3.4,21.8,21.8,0,0,0,3.1,5l.9,1,.3.4c.2.2.5.4.6.6s0,.6.1.8.1.6.1.9a12.9,12.9,0,0,0,.4,1.9c.2,1.3.5,2.5.8,3.8a15.4,15.4,0,0,1,.3,3.7c-.1.8-.4,1.5-.5,2.3a7.1,7.1,0,0,0,.1,1.4,6.1,6.1,0,0,1,.5,1.2,5.7,5.7,0,0,1,.3,1.8,11.1,11.1,0,0,1,.2,1.7,24.6,24.6,0,0,1,.2,2.8c0,1.2-.1,2.4-.1,3.6a3.4,3.4,0,0,1-.5,1.7l-.7,1.4a6.1,6.1,0,0,0-.5,1.2c0,.3-.2,1.1.2,1.2h0a2.2,2.2,0,0,0,2.4.5,2.6,2.6,0,0,0,1.5-2.3,7.5,7.5,0,0,1,0-1.5c.1-.5.5-.8.7-1.2a1.7,1.7,0,0,0-.1-1.4,3.9,3.9,0,0,1-.6-1.1v-2.1a14.8,14.8,0,0,0,.1-2.1c.1-1,.1-2.1.2-3.1a13.5,13.5,0,0,1,.4-2.8,6.9,6.9,0,0,0,.5-1.3,8.1,8.1,0,0,0,.1-1.6l-.3-1c0-.6.1-1.3.1-1.9l.3-4.4c0-.1,0-.4.1-.5s.1,0,.3,0l.9.2a6.3,6.3,0,0,0,1.9.3h.5c.3,0,.2,0,.2.2a4.1,4.1,0,0,0,.1,1.1,11,11,0,0,0,.2,1.8c.5,2.8,1.4,5.5,1.5,8.2a9.1,9.1,0,0,1-.1,1.7,4.5,4.5,0,0,0-.3,1.1,7.6,7.6,0,0,0-.1,1.5,9.4,9.4,0,0,0,.6,1.5,10.8,10.8,0,0,1,.3,1.9,11.1,11.1,0,0,1,.2,1.9,25.4,25.4,0,0,1,.1,3.9,8.6,8.6,0,0,1-.5,3.9,18.9,18.9,0,0,0-1.1,2.5c-.1.2-.4,1.3.1,1.3h-.1a2.4,2.4,0,0,0,2.3.6,2.5,2.5,0,0,0,1.6-2h-.1c.2-.2.1-.4.2-.7h0a.9.9,0,0,1-.1-.5,1.9,1.9,0,0,1,.1-.8,1.6,1.6,0,0,1,.5-.8,2,2,0,0,0-.1-2.1l-.4-.6a4.8,4.8,0,0,1,0-1.2,19.3,19.3,0,0,1,.1-2.4c0-1.4.1-2.8.2-4.2s.1-1.2.2-1.8a8.8,8.8,0,0,1,.5-1.5,4.7,4.7,0,0,0,.3-1.7,5.3,5.3,0,0,0-.3-1.2,14.8,14.8,0,0,1,.1-2.1c.1-.8.1-1.7.2-2.5l.3-4.8c0-.7.1-1.5.1-2.2v-.5c0-.2,0-.3.2-.4l1.1-.3,3.9-1.5a43,43,0,0,0,7.2-4.1,51.1,51.1,0,0,0,6.3-5.2l.7-.7.4-.3c.1-.2.2-.4.4-.2l.3.4.3.4a2.7,2.7,0,0,0,.7.8,5.7,5.7,0,0,0,1.6,1.5c.4.4.8.6,1,1.1a4.1,4.1,0,0,1,0,1.9,19.7,19.7,0,0,1-.3,2.4c-.1,1.4-.3,2.9-.5,4.4l-.3,2a9.3,9.3,0,0,1-.4,2.4,5.2,5.2,0,0,1-.6,1.3.6.6,0,0,1-.1.4,3.6,3.6,0,0,0-.4.9c-.1.3-.5,1.5,0,1.5h0a2.2,2.2,0,0,0,2.3.5,2.4,2.4,0,0,0,1.6-1.9h-.1a.6.6,0,0,0,.1-.4v-.3a2.4,2.4,0,0,1,.2-.8c.1-.4.4-.7.5-1.1a2,2,0,0,0-.2-1.5,4.1,4.1,0,0,1-.1-1.1l.3-1.2a72,72,0,0,1,1.9-7.7l.8-2.4a2.9,2.9,0,0,1,.2-.9h0a.4.4,0,0,0,.1.3l.2.5.6,1a17,17,0,0,0,2.3,3l1.4,1.2c.4.3.7.4.8.9a6.9,6.9,0,0,1,.1,2l-.3,2.1a15,15,0,0,1-.2,2.2c0,.4-.1.8-.1,1.1s-.1.4,0,.4H131l-.3,2.4c-.2,1-.2,2.1-.5,3.1l-.6,1.1c0,.1-.1.2-.1.3l-.2.4a5.6,5.6,0,0,0-.4,1.2c0,.2-.1.9.2.9h0a2.2,2.2,0,0,0,2.2.5,2.1,2.1,0,0,0,1.6-1.9h0c.1-.1.1-.3.3-.5h.2v-.3a1.4,1.4,0,0,1,.2-.6c.1-.4.5-.8.5-1.3s-.2-1-.3-1.6a6.7,6.7,0,0,1,.2-2.4c.5-2.6,1.2-5.1,1.9-7.7l.6-2.2a4.6,4.6,0,0,0,.2-2,.1.1,0,0,0-.1.1,4.1,4.1,0,0,1-.2,1.9,16,16,0,0,0-.5,2.1c-.4,1.2-.8,2.5-1.1,3.7s-.6,2.6-.8,3.9-.3,1.4-.4,2a5.5,5.5,0,0,0,.5,1.7,3,3,0,0,1-.6,1.8c-.1.3-.1.6-.3.8s-.3.2-.3.3,0,.3,0,.5h0c-.2.3-.2.7-.5,1.1a2.8,2.8,0,0,1-1.1.8,2,2,0,0,1-1.1,0l-.6-.2c-.2-.1-.3-.3-.5-.3s.1,0,0-.1-.1-1.1.1-1.6a10.4,10.4,0,0,1,.4-1,3.9,3.9,0,0,1,.6-1.1l.3-1.1.3-2.7c.1-.4.1-.9.2-1.3v-.5h.3c.1-1.2.3-2.3.4-3.5s.3-2.3.3-3.5a1.9,1.9,0,0,0-.6-1.6,9.6,9.6,0,0,1-2.6-2.3,15.8,15.8,0,0,1-2.4-3.9h-.1a7.9,7.9,0,0,1-.6,2.2l-.9,3.2c-.4,1.5-.8,2.9-1.1,4.4a20.5,20.5,0,0,0-.5,2.4,3.3,3.3,0,0,0,.2,1.7,1.3,1.3,0,0,1,0,1.2,4.3,4.3,0,0,1-.4.7,4.7,4.7,0,0,0-.3,1.7h0v.3a.3.3,0,0,1-.1.2.8.8,0,0,1-.2.5,1.8,1.8,0,0,1-1.1.8,1.7,1.7,0,0,1-1.2.1l-.5-.2-.6-.3h.1c-.4-.5-.2-1-.1-1.5s.4-.7.5-1.1l.2-.6a1.6,1.6,0,0,0,.4-.7,5.9,5.9,0,0,0,.4-2.3l.3-2.4c.3-1.8.5-3.5.7-5.3a20.6,20.6,0,0,0,.3-2.6,2.4,2.4,0,0,0-.3-1.2c-.2-.3-.5-.4-.7-.6a4.3,4.3,0,0,1-1.2-1.1,8.8,8.8,0,0,1-1.9-2.4h-.1a47.8,47.8,0,0,1-20.2,12.7h0c-.1,2.5-.3,5-.5,7.5l-.3,4.4a2.9,2.9,0,0,0,.2.9,6.1,6.1,0,0,1,.1,1.4c-.1,1-.7,1.8-.8,2.7a28.5,28.5,0,0,0-.3,2.9c-.1,1.2-.1,2.5-.1,3.7a14.8,14.8,0,0,0-.1,2.1,2.2,2.2,0,0,0,.2,1.1c.4.8.9,1.6.2,2.4s-.3.4-.3.6a1.3,1.3,0,0,0-.1.6.4.4,0,0,0-.1.3v.6h0v.6h.1c-.2.3-.3.8-.5,1.1a2.1,2.1,0,0,1-1.1.8H92.7l-.5-.2c-.2-.1-.3-.3-.5-.3h0a2.3,2.3,0,0,1,.2-2.1l.5-1a6.5,6.5,0,0,0,.9-2.3,42.1,42.1,0,0,0-.2-7.1,8.8,8.8,0,0,0-.2-1.6,4.5,4.5,0,0,0-.3-1.6,7.8,7.8,0,0,1-.5-1.4,4.3,4.3,0,0,1,.1-1.6,7.8,7.8,0,0,0,.4-2.2c-.1-1.2-.2-2.3-.4-3.5a38,38,0,0,1-1.4-8.2h-.1a17.6,17.6,0,0,1-3.9-.6h0l-.3,4c0,.7-.1,1.3-.1,2a2.4,2.4,0,0,0,0,1.2,4.5,4.5,0,0,1,0,2.8,6.1,6.1,0,0,0-.5,1.2c-.1.5-.1.9-.2,1.3-.1,2-.3,4-.3,6a12.8,12.8,0,0,0-.1,1.9,1.7,1.7,0,0,0,.3,1,3.8,3.8,0,0,1,.5,1.5c0,.6-.4.8-.7,1.3a2.3,2.3,0,0,0-.1,1.4,5.2,5.2,0,0,1-.3,1.8,2.5,2.5,0,0,1-1.8,1.1h-.9l-.4-.2-.4-.3h0a2,2,0,0,1,.1-1.7,7.5,7.5,0,0,1,.6-1.3,6,6,0,0,0,.9-2.2c.1-1,0-2,0-3a11.3,11.3,0,0,0,0-2.6,21.1,21.1,0,0,0-.2-2.5,11,11,0,0,0-.6-2.6,3.9,3.9,0,0,1-.3-2.6c.1-.6.3-1.2.4-1.8a21.6,21.6,0,0,0-.9-6.2l-.6-3.2a10,10,0,0,1-.2-1.6,1.7,1.7,0,0,0-.6-.8c-2.1-2.3-4.1-4.9-4.9-7.9-.3-1-.3-2.1-.6-3.1a10,10,0,0,0-2.8-3.9h-.1a35.9,35.9,0,0,0-3.5,1.2A4.1,4.1,0,0,0,66,88.3a2.2,2.2,0,0,1-.5,1.1,4,4,0,0,1-1.8.7,8.5,8.5,0,0,1-3.9-.1,3.9,3.9,0,0,1-2.7-2.1A1.4,1.4,0,0,1,57,87a1.1,1.1,0,0,1,.4-.9l1.3-1.3A11.4,11.4,0,0,0,61.9,77a5.5,5.5,0,0,1,.2-1.8A4.8,4.8,0,0,1,64,72.9h0a3.3,3.3,0,0,1-.3-2.6l.6-1.5.4-.5c.2-.2.4-.7.7-.1v.4h0a16.4,16.4,0,0,0,2.3-.2,8.7,8.7,0,0,1,2.2-.5,3.2,3.2,0,0,1,1.4.3l.3.2h.3a3.3,3.3,0,0,0,1,.6c.3.2.7,0,1,0a5.8,5.8,0,0,1,2.6.5l.7.2h.2c.1.1.2.1.2.2l-1.2-.4a6.9,6.9,0,0,0-2.5-.4c-.1.1-.1.1,0,.1l1.1.3,1,.2a10.6,10.6,0,0,1,1.9.6h.7l-.8-.2-1.3-.3h0l1.3.6.6.2h.4a5.6,5.6,0,0,1,2.5.5,1.8,1.8,0,0,1,.9.6c.2.3-.2-.1-.2-.1l-.4-.3a4.5,4.5,0,0,0-2-.4c-.1,0-.1.1,0,.1a4.7,4.7,0,0,1,2.1,1.1l.7.6.8.3a9.7,9.7,0,0,1,1.7.1s.4.1.3.2H83.5c-.1,0-.1.1,0,.1a2.2,2.2,0,0,0,1.1.5h1.5l1.3.5.6.5h.5a2.9,2.9,0,0,1,1.3.5c.3.1.5.4.8.6s.8.1,1.1.2.8.1.6.2h-.8c.2.2.4.2.8.2l1.3-.2,2.2-.4a36.6,36.6,0,0,0,4.6-1.8,25.1,25.1,0,0,0,6.3-4.5c1.6-1.5,3-3.2,4.6-4.6a14.6,14.6,0,0,1,6.7-3.6,11.6,11.6,0,0,1,9.9,1.7h0a4.1,4.1,0,0,1,1.6-.2l2.1.5a7.8,7.8,0,0,1,2,1.1,4.2,4.2,0,0,1,1.6,2.1,12.6,12.6,0,0,1,1,6.9,21.7,21.7,0,0,0-.1,3.6c.1,1.2.4,2.3.6,3.5a18,18,0,0,1,.2,2.2,2.8,2.8,0,0,1,.1.9c0,.1-.1.4.1.4v-.6a15.5,15.5,0,0,0-.6-3.1h-.1c0,1.2.1,2.4.1,3.6a19.3,19.3,0,0,1-.1,2.4v.2c-.2.2-.3-.4-.3-.5a2.8,2.8,0,0,0-.1-.9c0-.6-.1-1.2-.1-1.8h-.1a7.5,7.5,0,0,1-.4,1.6,8.6,8.6,0,0,0-.1,1.6,2.2,2.2,0,0,0-.1.8v.5s.1.5,0,.5-.1-.3-.1-.3V87.6h-.1a8.9,8.9,0,0,1-.8,1.7c0,.2-.2.4-.2.5a1.5,1.5,0,0,0-.1.6,21.6,21.6,0,0,0,0,3.6,3.6,3.6,0,0,0,1.2,2.7c.7.5,1.6.9,1.7,2A.1.1,0,0,0,136.7,98.6Z"/><path class="cls-12" d="M87.2,75.5l-2.1-.8h0a4.9,4.9,0,0,1,2.1.8h.1a4.5,4.5,0,0,0-2.2-.8h0l2.1.8Z"/><path class="cls-12" d="M80.6,72.2a3.1,3.1,0,0,1,.9.7h-.4l-.6-.3-1.1-.6h0l1.2.5c.1,0,.1,0,.1-.1l-1.3-.4c0-.1-.1,0,0,0l1.1.6.5.3.3.2h.2a.1.1,0,0,0,.1-.1l-.9-.7A.1.1,0,0,0,80.6,72.2Z"/><path class="cls-12" d="M71.4,68.6l.7.5h0l-1.3-.3h0l.7-.2h-.7s-.1.1,0,.1l1.3.3h0l-.6-.4Z"/><path class="cls-12" d="M69.1,68.2a3.4,3.4,0,0,1,2,.3h0l-.8.2H68l1.1-.3h0l-1.2.3h2.4l.8-.2s.1-.1,0-.1a3.4,3.4,0,0,0-2-.3C69,68.1,69,68.2,69.1,68.2Z"/><path class="cls-12" d="M66.5,70.2h.1c0,.1-.1.2-.2.3l-.3.3h.1a8.6,8.6,0,0,1-.7-2.1h-.1a13.4,13.4,0,0,1,1.1,1.4c.1,0,.1,0,.1-.1l-1.1-1.3h-.1a18.7,18.7,0,0,0,.7,2.2h.1l.2-.3.3-.4h0c0-.1-.1-.1-.1-.2A.1.1,0,0,0,66.5,70.2Z"/><path class="cls-12" d="M65.5,68.6c-.1,0-.1,0-.1.1h.1Z"/><path class="cls-12" d="M123.5,86.6l.5.5a1.1,1.1,0,0,0,.1.5l.3,1.4c.2.9.5,1.9.8,2.8h.1l-1.1-.8a5.6,5.6,0,0,1-.6-2.1,8.9,8.9,0,0,1,0-2.3h-.1a10.2,10.2,0,0,0,.2,3.5,4.2,4.2,0,0,0,.9,1.4l.6.4h.1c-.4-1-.6-2-.9-2.9l-.3-1.5a.8.8,0,0,0-.2-.5l-.3-.4Z"/></g></svg>