<svg xmlns="http://www.w3.org/2000/svg" xmlns:xlink="http://www.w3.org/1999/xlink" viewBox="0 0 200 200"><defs><style>.cls-1{isolation:isolate;}.cls-2{fill:#f28a17;}.cls-3{fill:#a52f00;}.cls-18,.cls-20,.cls-21,.cls-22,.cls-4,.cls-6,.cls-7,.cls-8{mix-blend-mode:multiply;}.cls-4{fill:url(#linear-gradient);}.cls-5{fill:#bc6004;}.cls-6{fill:url(#linear-gradient-2);}.cls-7{fill:url(#linear-gradient-3);}.cls-8{fill:url(#linear-gradient-4);}.cls-9{fill:#f9c573;}.cls-10,.cls-25,.cls-26{fill:none;}.cls-11{fill:#f96d12;}.cls-12{fill:#352016;}.cls-13{fill:#d67422;}.cls-14{fill:#edb247;}.cls-15{fill:#ffdaa6;}.cls-16{fill:#ffd79b;}.cls-17{fill:#111010;}.cls-18{fill:url(#linear-gradient-5);}.cls-19{fill:url(#linear-gradient-6);}.cls-20{fill:url(#linear-gradient-7);}.cls-21{fill:url(#linear-gradient-8);}.cls-22{fill:url(#linear-gradient-9);}.cls-23{fill:url(#linear-gradient-10);}.cls-24{fill:#d35426;}.cls-25{stroke:#000;}.cls-25,.cls-26{stroke-miterlimit:10;stroke-width:0.33px;}.cls-26{stroke:#352017;}</style><linearGradient id="linear-gradient" x1="136.04" y1="91.45" x2="135.85" y2="85.18" gradientUnits="userSpaceOnUse"><stop offset="0.11" stop-color="#d6800f"/><stop offset="1" stop-color="#edb247"/></linearGradient><linearGradient id="linear-gradient-2" x1="113.76" y1="110.12" x2="121.91" y2="110.12" xlink:href="#linear-gradient"/><linearGradient id="linear-gradient-3" x1="64.8" y1="136.8" x2="62.99" y2="142.44" xlink:href="#linear-gradient"/><linearGradient id="linear-gradient-4" x1="106.62" y1="125.22" x2="106.62" y2="109.5" xlink:href="#linear-gradient"/><linearGradient id="linear-gradient-5" x1="55.78" y1="84.87" x2="53.01" y2="93.51" xlink:href="#linear-gradient"/><linearGradient id="linear-gradient-6" x1="42.02" y1="91.95" x2="45.22" y2="82.87" xlink:href="#linear-gradient"/><linearGradient id="linear-gradient-7" x1="46.47" y1="81.42" x2="51.13" y2="73.47" xlink:href="#linear-gradient"/><linearGradient id="linear-gradient-8" x1="86.95" y1="154.81" x2="86.95" y2="137.28" xlink:href="#linear-gradient"/><linearGradient id="linear-gradient-9" x1="118.71" y1="111.57" x2="132.76" y2="111.57" xlink:href="#linear-gradient"/><linearGradient id="linear-gradient-10" x1="69.88" y1="116.91" x2="57.21" y2="73.47" gradientUnits="userSpaceOnUse"><stop offset="0.09" stop-color="#842200"/><stop offset="1" stop-color="#a52f00"/></linearGradient></defs><g class="cls-1"><g id="Lion_01"><path class="cls-2" d="M129.3,77.8s10.2,26.3,20.2,6.1a1.7,1.7,0,0,0,.7.3c-3,7-6.5,14.3-17.7,6.4A24,24,0,0,1,129.3,77.8Z"/><path class="cls-3" d="M149.5,83.9s-1.6-4.4.5-7.8a2.7,2.7,0,0,0,0,1.5c2-4.3,6.4-7.4,7.8-7.4a30.6,30.6,0,0,0-3.2,3.2c3.1-1.6,7.6-3.5,7.9-5,.5,2.2-3.7,7.6-7.2,9.2,3.4-.6,4.3-2.2,4.3-2.2-1.5,2.6-5.7,5.3-5.7,5.3a9,9,0,0,0,4-2.2c-6.2,6.3-7.4,6.3-8,6.4A1.4,1.4,0,0,0,149.5,83.9Z"/><path class="cls-4" d="M129.3,79.6a24.7,24.7,0,0,0,3.2,11c4.4,3.1,7.6,3.9,10,3.2-1.9.1-4-.9-7-3a7,7,0,0,0,.1-2.5,32,32,0,0,1-5.2-8Z"/><path class="cls-2" d="M100.7,92.9s4.4,7.5,9.5,8.4,3.9,9.3,2.9,9.9-3,1.2-2.7,4.8,7.4,2.3,9.1.8.3-3.1,1.1-3.6,1.8-11.8,1.1-13.7-4.5-2.1-5.8-7-.5-12.3-4.6-17C111.9,80.2,106.7,89.4,100.7,92.9Z"/><path class="cls-5" d="M117.3,117.1c-.7-1.4-.4-2.9.3-3.2-1.3.1-1.2,2-1,3.2a5.8,5.8,0,0,1-3.5,0c0-1.2,0-3,.9-3.6-1.3.4-1.5,1.7-1.5,3.4a2.2,2.2,0,0,1-1.2-.4c-.4-1.6.3-3.6,1-3.9-1.1-.1-1.6,2.2-1.7,3.2a6.4,6.4,0,0,1-.2-.9V116c1.3,2.2,6.3,2.3,8.5,1.2l.6-.4S117.9,117.4,117.3,117.1Z"/><path class="cls-6" d="M113.8,105.1c.1.5.1,1,.2,1.4,2.1.5,6.2,2.4,4.4,10.9a2.4,2.4,0,0,0,1.1-.6c.3-2,.3-3.1,1.1-3.6s1.2-5.6,1.3-9.5C119.7,102.7,116.4,102,113.8,105.1Z"/><path class="cls-2" d="M56.9,112s2.8,21.2,1.5,29c-2.7,1.4-3,2.1-3.1,5.5,2.4,3.6,11.5,2.5,12.9-1-.1-2.1-.4-4.7.9-5.4,1.3-11.3,6.5-22.3,6.1-29l.6.9c.7-2,0-5.5,0-5.5l.6,1.6c.6-1.6,1.1-6.3-1.6-8.5S63.9,93,56.9,112Z"/><path class="cls-5" d="M62.5,147.5a4.3,4.3,0,0,1,.9-3.5c-1,.2-1.5,1.9-1.6,3.8a9.9,9.9,0,0,1-3.5-.3c.4-3.5,1.3-4,1.9-4.3-1.8,0-2.2,2.4-2.6,4.3a3,3,0,0,1-1.4-.9c.2-3,1.1-3.7,1.9-4-1.7,0-2.4,2.4-2.4,4l-.4-.8v.7c2.4,3.6,11.5,2.5,12.9-1A6.6,6.6,0,0,1,62.5,147.5Z"/><path class="cls-7" d="M69.1,140.1a57.1,57.1,0,0,1,1.3-7.2l-9.1-3.5h-.4s5.9,9.8,5.1,14.7a4.8,4.8,0,0,0-2.2,4.3h0c2.1-.5,3.8-1.5,4.4-2.9S67.8,140.8,69.1,140.1Z"/><path class="cls-2" d="M63,120.5s5.8,9.5,22.1,7.4,19.2-13.5,22.1-17.8,12.6-5.5,15.4-4.9,10.2-13.1,8.1-23.5-13.3-13.1-25.6-8.8S76.8,86.2,76.8,86.2C71.1,92.8,63,120.5,63,120.5Z"/><path class="cls-8" d="M121.9,102.1c-7.6-2.7-17.8,3.5-20.4,8.9s-7.7,3.9-7.7,3.9L89.6,127c12.3-3.4,15-13,17.6-16.9s12.6-5.5,15.4-4.9a1.3,1.3,0,0,0,1-.2A23.8,23.8,0,0,0,121.9,102.1Z"/><path class="cls-9" d="M58.4,141c-2.6,1.3-3,2-3.1,5,.2-3.3,1.5-4,3.5-4.7S60.1,129,60.1,129l-1.7-2.4C58.8,132.1,59,137.7,58.4,141Z"/><path class="cls-10" d="M87.2,105.5h-.3"/><path class="cls-2" d="M93.8,114.9h0a14.4,14.4,0,0,1,0,5.6l-.6-.9a22.3,22.3,0,0,1-.8,6.4h0a18.9,18.9,0,0,1-.5,2.3h0l-.6,2c0,.2-.1.4-.1.6a22.9,22.9,0,0,0-.8,2.8l-.3.9-.9,3.3a1.9,1.9,0,0,1-.2.7c0,.2-.1.4-.1.6l-.2.6-.3,1.4c-.1.3-.1.6-.2.9a3.6,3.6,0,0,0-.2,1.1v.2c-.1.4-.1.8-.2,1.2s-.1.6-.2.8v.2c0,.3-.1.6-.1.9h0c-.1.3-.1.7-.2,1s-.1.7-.1,1-1.1,3.3-.9,5.5h-.1c0,.1,0,.1-.1.1h0l-.2.2-.2.2h-.3a.1.1,0,0,0-.1.1H84.1l-.3.2H78.3l-1.7-.3H76l-.6-.2-.3-.2-.4-.2-.6-.4c-.1,0-.1-.1-.2-.2h-.1l-.2-.2a.3.3,0,0,1-.1-.2l-.2-.3v-.6h0v-.7a4.3,4.3,0,0,1,.1-.5v-.4h.1c0-.3.1-.5.1-.7a.1.1,0,0,0,.1-.1v-.2l.3-.4v-.2l1.2-.9h.2l.8-.4a29.1,29.1,0,0,0,.3-6.2v-1.5h0v-.5h0a8.6,8.6,0,0,0-.1-1.6V138a1.7,1.7,0,0,1-.1-.7c-.1-1.8-.2-3.7-.4-5.4s-.1-.8-.1-1.2v-.3c0-.4-.1-.8-.1-1.2h0a3.4,3.4,0,0,1-.1-1h0v-.6h0c0-.4-.1-.7-.1-1v-.4c-.1-.4-.1-.7-.2-1.1v-.3l-.5-4.2a49.4,49.4,0,0,1,2.7-6.3h0a20.8,20.8,0,0,1,5.3-6.9"/><path class="cls-11" d="M93.8,114.9l.5,1.7a5.4,5.4,0,0,0,.4-1.5"/><path class="cls-9" d="M83,82.9l1,.9s22.9-14,36.9-12.2c-4.5-1.2-10-.7-15.8,1.3A210.1,210.1,0,0,0,83,82.9Z"/><path class="cls-9" d="M75.4,124.7c.7,6.6,1.9,19.2,1,24.8-2.6,1.3-3,2-3.1,4.8.5-2.8.9-3.4,3.6-4.7,1.2-4.1-.5-26.3-.5-26.3Z"/><path class="cls-12" d="M75.8,128.2s3-1.3,2.8-3.2c.8,1.8,1.5,1.6,1.5,1.6a38.6,38.6,0,0,1-.7-5.2,5.3,5.3,0,0,1,.7,1.9,11.4,11.4,0,0,0,.9-4.1l.9,1.9c.7-4.2,1.1-8.9,1.1-8.9a13,13,0,0,0,1,3.6c2.5-5.6,2-13,2-13l1.1,3.1c1.2-4.5-.2-14.2-.2-14.2a3.7,3.7,0,0,1,.7,1.7c.9-3.4-1.3-9.4-3-9.9C79.5,94.8,75.8,128.2,75.8,128.2Z"/><path class="cls-13" d="M80.5,156a4.7,4.7,0,0,1,.9-3.6c-1.1.2-1.5,2-1.6,3.8a9,9,0,0,1-3.5-.2c.3-3.5,1.3-4,1.9-4.3-1.8,0-2.2,2.4-2.6,4.3a3.3,3.3,0,0,1-1.4-1c.1-2.9,1.1-3.6,1.9-3.9-1.8,0-2.4,2.4-2.5,3.9l-.3-.7v.6c2.4,3.7,11.5,2.5,12.9-.9A7.1,7.1,0,0,1,80.5,156Z"/><path class="cls-3" d="M71.7,136.2S59.5,133.7,56,125a32.1,32.1,0,0,1,.5,3.2,24.5,24.5,0,0,1-4-5.8c.4,3.9,1.1,4.9,1.1,4.9-5.4-3.7-12-14.6-12.7-17.5a8.9,8.9,0,0,0,1.3,4.4c-3.2-2.3-4.6-14.1-4.6-14.1a16.4,16.4,0,0,0-.6,3.1c-1.6-2.3-7.4-7.6.6-20.5-1-2.2-2.7-8.9-2.5-10.9l.7,1.9c.1-4.3,3.1-9.3,5.4-10.5l-.6,2.6,1.5-.9c.5,2.7.1,1.6.1,1.6.7-1.8,8.4-5.6,12-5.7l-1.8,1.5c2.5-.8,18.7-4,25.1,5.2L76.2,67c3.3,3.9,6.9,9.9,7.9,10.1a2.1,2.1,0,0,1-1.7,0c1.8,2.4,4.8,10.9,4.4,13.2l-1.1-2.1c.8,5.1-.1,12.2-.7,13.8l-.3-3.3c-.5,4.6-3,12.8-3,12.8l-.3-2.6c-.5,3-2.3,7.1-1.8,9a5.6,5.6,0,0,0-1.4-2.1,11,11,0,0,1,0,4,5.9,5.9,0,0,1-1.3-1.4,11.1,11.1,0,0,0,1.5,4.8,2.2,2.2,0,0,1-1.9-.7c1.6,3.3-2.6,11.3-2.6,11.6v-2.9C73.3,131.2,71.7,136.2,71.7,136.2Z"/><path class="cls-12" d="M41.7,102.7s1.9,6.1,4.8,9.9c4.2-1.7,4.4-6.8,4.4-8.4a25.2,25.2,0,0,1-.3,5.5,10.3,10.3,0,0,0,2.6-6.8c.2,3.7-.4,5.1-.4,5.1,2.3-2.4,5.3-8.1,5.6-10.4a7.5,7.5,0,0,1,.7,2.3c2-2.7.9-7.1.9-7.1a9.3,9.3,0,0,1,.7,7.1C64.5,96,64,89.2,63.8,88.1c1,3,.8,5.1,2.3,6.2-.6-1.6,1.1-6.8-1.7-9,.9.1,1.8.9,2.7,3.1a5.5,5.5,0,0,0-2.5-5.3c.8-1.3,4.9-1.3,6-.4-1-2.6-5.7-4.3-5.7-4.3,2.6-1,5.2-1.4,6.4,0-1.2-2.6-5.3-2.6-8-2.5a12,12,0,0,1,3.1-1.3c-2.5-1.3-8.7-3.2-11.1-2,1.3-1.9,5.6-2.7,7.7-2.3a10.4,10.4,0,0,0-10.4,2.2A20,20,0,0,1,54,69.8a4.2,4.2,0,0,0-2.2,1.9,9.4,9.4,0,0,1,.8-4.7c-1.5,1.1-2,4.3-2,4.3-1.2-1.8-6.5-3.6-6.5-3.6a6.6,6.6,0,0,1,2.4,2.7c-1.2-1-4.9-.9-4.9-.9,2.7.9,2.8,1.5,2.8,1.5a8.9,8.9,0,0,0-6.1,5.3c.9-1.2,2-1.9,2-1.6C36.8,80,40,81.6,39,83.1a.9.9,0,0,0,.8-.4c-.2,2-2.2,5.2-2.2,5.2a6.7,6.7,0,0,0,1.5-1.4c-1.8,3-3.3,6.4-1.5,10.5a3.4,3.4,0,0,1,.3-1.5c.2,2.6,1.9,8.7,3,10.4-.4-3.2,0-4.3,0-4.3a5.6,5.6,0,0,0,.5,2.5A8.7,8.7,0,0,0,41.7,102.7Z"/><path class="cls-14" d="M52,97.2s.9-4.6,5.3-4.4c4.8-2.4,9.6-18.8-6.7-17.9-.8-1.1-4.9-2.4-7.8-.4s-4.7,6.8-.9,10.3S47.8,96.2,52,97.2Z"/><path class="cls-15" d="M38,89.9s-1.8,5.8,1.9,8.6c.3,1.3,2.6,4.5,4.3,5.2l-.2-.5c.8.7,1.3,1.2,2.1,1.2s.1-1.8.1-1.8v.7c.3,0,2.7-1.7,2.9-2.4s2.8-2.7,2.9-3.7-2.1-4.3-5.2-5.4C44.7,93.1,41.1,92.3,38,89.9Z"/><path class="cls-12" d="M41.1,93.5s0,3.6,1,4.7,5,2.9,6.4,2.6c-.8.5-3.9.2-6.1-1.8s-2.5-.4-2.5-.4l-.3-.4c1.1-.4,1.4-2.8.8-5S41.1,93.5,41.1,93.5Z"/><path class="cls-12" d="M43.1,83.5a1.4,1.4,0,0,0,.1-2.5A8.3,8.3,0,0,0,41,80c-.1.6-.2,3.2,2.3,2.4C43.4,82.6,43.7,82.9,43.1,83.5Z"/><path class="cls-16" d="M43.2,82.1a4.5,4.5,0,0,0-.2-.8,3.6,3.6,0,0,0-1.8-1C41,81.4,41.8,83,43.2,82.1Z"/><path class="cls-3" d="M47.5,98.1c0,.2-.3.4-.5.4a.5.5,0,0,1-.5-.4.5.5,0,0,1,.5-.5A.5.5,0,0,1,47.5,98.1Z"/><path class="cls-3" d="M47.5,96c0,.1-.1.2-.3.2A.2.2,0,0,1,47,96c0-.2.1-.3.2-.3A.3.3,0,0,1,47.5,96Z"/><path class="cls-3" d="M38.5,92.4c0,.1-.1.2-.3.2l-.2-.2c0-.2.1-.3.2-.3A.3.3,0,0,1,38.5,92.4Z"/><path class="cls-3" d="M48.8,96.8c0,.2-.1.4-.3.4a.4.4,0,0,1-.3-.4l.3-.3A.3.3,0,0,1,48.8,96.8Z"/><path class="cls-3" d="M45.5,94.9a.4.4,0,0,1-.4.4c-.2,0-.3-.2-.3-.4s.1-.4.3-.4A.4.4,0,0,1,45.5,94.9Z"/><path class="cls-3" d="M47.4,94.6a.3.3,0,0,1-.3.3.3.3,0,0,1,0-.6A.3.3,0,0,1,47.4,94.6Z"/><path class="cls-3" d="M39.2,95.1a.2.2,0,0,1-.4,0l.2-.2Z"/><path class="cls-3" d="M39.4,93.8a.3.3,0,0,1-.6,0c0-.2.1-.4.3-.4S39.4,93.6,39.4,93.8Z"/><path class="cls-3" d="M40.3,94.3a.3.3,0,0,1-.3.3c-.1,0-.2-.1-.2-.3l.2-.2C40.2,94.1,40.3,94.2,40.3,94.3Z"/><path class="cls-17" d="M38.1,89.7s5.8,3.7,8.7,2.1c-.3,1.3-1.9,2-3.6,1.5a3.6,3.6,0,0,0-2.5.4c-.7-.9-.2-1.4-1.7-2A1.6,1.6,0,0,1,38.1,89.7Z"/><path class="cls-3" d="M37.2,83.3a15.9,15.9,0,0,1-1.8-4.6,6.8,6.8,0,0,0,1.4,2C37.9,81.9,38.5,82.8,37.2,83.3Z"/><path class="cls-18" d="M52,97.2s.9-4.6,5.3-4.4c4.5-2.3,9.2-17.2-4.5-17.9,8.8,1.7,6.9,11.4,4.6,13.8s-4.6.1-6.4-.8c1.1,2.2,1.2,6,.2,7.2a2.1,2.1,0,0,0-.6-.8c1.1,3.2-1.5,6.6-1.5,6.6S51.9,98.2,52,97.2Z"/><path class="cls-9" d="M50.6,74.9c-.8-1.1-4.9-2.4-7.8-.4s-4.7,6.8-.9,10.3l.3.4.3-.8s-2.7-.7-2.1-5.1S45.4,71.8,50.6,74.9Z"/><path class="cls-19" d="M38.1,89.7a19.4,19.4,0,0,1,5.5-6.5c1.8-.4,4.6.6,5.2,1.7A33.3,33.3,0,0,1,46.7,92C43.7,92.4,41.1,92.8,38.1,89.7Z"/><path class="cls-9" d="M38.8,89.4a28.3,28.3,0,0,1,4-5.6,21.4,21.4,0,0,0-4.7,5.9,7.4,7.4,0,0,0,5.4,2.6C42.2,91.9,39,90.9,38.8,89.4Z"/><path class="cls-2" d="M118.7,101.4s4.4,7.5,9.5,8.3,3.9,9.4,2.9,10-3.1,1.2-2.7,4.8,7.4,2.3,9.1.8.3-3.1,1.1-3.6,1.8-11.8,1-13.8-4.5-2-5.8-7-1-19.4-5.1-24.1C129.3,81.5,124.7,97.9,118.7,101.4Z"/><path class="cls-13" d="M135.3,125.6c-.7-1.4-.5-2.9.2-3.3-1.3.2-1.1,2.1-.9,3.3a6.8,6.8,0,0,1-3.5,0c-.1-1.3,0-3.1.8-3.6-1.2.4-1.4,1.7-1.5,3.4a1.9,1.9,0,0,1-1.1-.4c-.5-1.6.2-3.6,1-4-1.1,0-1.6,2.2-1.7,3.3l-.2-.9a4,4,0,0,0,0,1.1c1.2,2.1,6.3,2.3,8.5,1.2l.6-.4A5.7,5.7,0,0,1,135.3,125.6Z"/><path class="cls-9" d="M57.3,92.8c2.3-1.2,4.7-5.7,4.6-9.9-.3,4-3.3,8-5.1,9.4-4.3.1-4.8,4.9-4.8,4.9S52.9,92.6,57.3,92.8Z"/><path class="cls-12" d="M48.6,86.3c-.1-2.8,2-2.8,2.1-2.8s3.7,1.2,3.7,1.2-2.9,2.5-3.7,0C50.6,84.7,49.4,84.3,48.6,86.3Z"/><path class="cls-16" d="M51,83.8s-.3,1.7,1.2,2a1.1,1.1,0,0,0,1.4-1.1C52.9,83.9,51,83.8,51,83.8Z"/><path class="cls-17" d="M52.8,84.6c0,.5-.3.8-.6.8a.7.7,0,0,1-.7-.8.7.7,0,0,1,.7-.7A.7.7,0,0,1,52.8,84.6Z"/><path class="cls-17" d="M42.7,81.2a.5.5,0,1,1-.5-.6A.6.6,0,0,1,42.7,81.2Z"/><path class="cls-20" d="M47.4,80.7s1.1-3.9,2.8-5.1C48.7,75.7,47.3,79.1,47.4,80.7Z"/><path class="cls-21" d="M87.1,148.5c.8-7.2,3.2-14.3,4.8-20.2-2.1,6.4-6.8,20-7.9,23.3-2,.9-2,5.2-2,5.2,2-.5,3.7-1.5,4.2-2.8S85.8,149.2,87.1,148.5Z"/><path class="cls-9" d="M133.8,100.9c-.9-3.6-1-12.6-2.7-18.9,0,0,.5,5.3.4,9.6s-.7,10.5.7,13c2.6,4.4,7.6,1.9,6.2,10.6-.7,4.1-.4,5.4-1.7,5.8s-.7,4.2-.7,5h0a5.2,5.2,0,0,0,1.5-.7c.2-2,.3-3.1,1.1-3.6s1.8-11.8,1-13.8S135.1,105.9,133.8,100.9Z"/><path class="cls-22" d="M128.2,109.7c5.1.9,3.9,9.4,2.9,10a4.6,4.6,0,0,0-2.4,2.1,4.4,4.4,0,0,1,2.7-1.8s.5,1,1.2-3.5-1.4-7.1-4.9-7.7-9-7.4-9-7.4S123.1,108.9,128.2,109.7Z"/><path class="cls-9" d="M128.6,122.1Z"/><path class="cls-23" d="M85.7,88.2l1.1,2.1c.4-2.3-2.6-10.8-4.4-13.2a2.1,2.1,0,0,0,1.7,0c-1-.2-4.6-6.2-7.9-10.1l1.3.5c-4.2-6-12.6-6.7-18.6-6.3,5.5,1,12.4,3.7,14.9,7.3,0,0-2.9-2.3-10.1,0,5.1.1,11.4,3.6,13.6,8.9a10.7,10.7,0,0,0-6.7-1.8c1.6.1,7.8,5,8.6,9.7,0,0-1.5-2.4-3.4-2.4,0,0,1,1.2,1.4,5.6,0,0-1.8-3.6-4.7-4.7a70.9,70.9,0,0,1,4.4,7.4,15.8,15.8,0,0,0-5.2-4.4s4.2,4.6,4.7,9.7c0,0-1.2-3.7-3.1-4.8a17.5,17.5,0,0,1,.8,8.6s-.2-.8-1.2-3.6c0,0-.6,10.4-2.5,16.5,0,0,0-1-2.3-3.1,0,0,1.8,8.7.7,15.1a8.2,8.2,0,0,0-1.9-3.1,15.1,15.1,0,0,1,.7,4.5,44.6,44.6,0,0,1-12.3-7.3,20.9,20.9,0,0,0,0,4.4s-1.2-.7-3.8-4.4a42.9,42.9,0,0,0,0,4.4c-1.1-.7-6-6.4-8-8.6,2.6,4.3,6.6,9.8,10.1,12.2,0,0-.7-1-1-4.9a21.7,21.7,0,0,0,3.9,5.8A32.1,32.1,0,0,0,56,125c3.5,8.7,15.7,11.2,15.7,11.2s1.4-5,2.2-5v2.9c0-.3,4.2-8.3,2.6-11.6a2.2,2.2,0,0,0,1.9.7,11.1,11.1,0,0,1-1.5-4.8,5.9,5.9,0,0,0,1.3,1.4,11,11,0,0,0,0-4,5.6,5.6,0,0,1,1.4,2.1c-.5-1.9,1.3-6,1.8-9l.3,2.6s2.5-8.2,3-12.8L85,102C85.6,100.4,86.5,93.3,85.7,88.2Z"/><path class="cls-24" d="M77.2,67h0c-6.6-8.6-22.3-5.5-24.8-4.7l1.8-1.5c-3.4.1-10.6,3.6-11.9,5.5a11.5,11.5,0,0,0-.2-1.4l-1.5.9.6-2.6c-2.3,1.2-5.3,6.2-5.4,10.5l-.7-1.9c-.2,2,1.5,8.7,2.5,10.9-7.9,12.6-2.5,18-.7,20.4C36,101.9,31,94,38.8,83.5l-1.2-1.8.8.5c-1-3.7-1.8-7.3-1.8-7.3l.9,1c.2-5.3,1.4-9.5,2.4-10.5,0,2.6.4,3.2.4,3.2s.6-1.6.9-1.6l.4,1.1c3.3-2.5,9.9-5.5,9.9-5.5l-.7,1.3C55.2,62.6,67.6,58.7,77.2,67Z"/><path class="cls-25" d="M157.9,78.5l-.2.2Z"/><path class="cls-26" d="M159.6,75.4c-.2.3-1.2,1.7-4.3,2.2,3.5-1.6,7.7-7,7.2-9.2-.3,1.5-4.8,3.4-7.9,5a30.6,30.6,0,0,1,3.2-3.2c-1.4,0-5.8,3.1-7.8,7.4a2.7,2.7,0,0,1,0-1.5c-2.1,3.4-.5,7.8-.5,7.8-5,10.2-10.1,8.5-13.9,4.4l-.8-.9h-.1l-1.4-2h-.1l-.6-1h0l-.6-1h0l-.6-1h0a9.3,9.3,0,0,1-.5-1h0a12.9,12.9,0,0,0-2.2-4.4h0a13,13,0,0,0-7.8-5.2H108.5l-.7.2h-.4l-.8.2-.3.2-1.2.3-1.3.5-.4.2-.9.3-.5.2-.9.4h-.5l-1,.5h-.3l-1.4.6h-.3l-1.1.5-.4.2-.9.4-.5.2-1,.4-.4.2-1.2.6H92l-1.3.6-.4.2-.9.4-.5.2-.8.4-.4.3-.9.4-.3.2-1.2.5h-.2l-.3.2a24.8,24.8,0,0,0-2.4-4.9,2.1,2.1,0,0,0,1.7,0c-1-.2-4.6-6.2-7.9-10.1l1.3.5-.3-.5h0l-.2-.3h-.2l-.2-.3h-.1l-.3-.3h0a.2.2,0,0,1-.2-.2h-.1l-.3-.2-.2-.2h-.3l-.4-.3h-.4l-.3-.2h-.2c0-.1-.1-.1-.2-.2h-.1l-.4-.3h-.3a.1.1,0,0,1-.1-.1l-.4-.2h-.6l-.4-.2h-.2a.1.1,0,0,0-.1-.1.1.1,0,0,1-.1-.1h-.5a.1.1,0,0,1-.1-.1H69l-.5-.2H53.4c-.1,0-.2,0-.2.1h-.8l1.8-1.5H52.3c-.1,0-.2,0-.2.1H51c-.1,0-.2,0-.2.1H49.6c-.1,0-.2,0-.2.1h-.5c-.1.1-.2.1-.2.2h-.3c0,.1-.1.1-.2.2H48l-.3.2h-.2c-.1,0-.2,0-.2.1s-.2,0-.2.1H45.9a.1.1,0,0,1-.1.1l-.3.2h-.2l-.3.2h-.6l-.2.2h-.1c-.1,0-.2,0-.2.1h-1a.1.1,0,0,1-.1.1h-.1a.1.1,0,0,1-.1.1h-.3V66h0a.3.3,0,0,0-.1-.2v-.8l-1.5.9.6-2.6c-2.3,1.2-5.3,6.2-5.4,10.5l-.7-1.9a8.5,8.5,0,0,0,.2,2.6,64.2,64.2,0,0,0,1.5,6.3h0a6.8,6.8,0,0,1-1.4-2,17.3,17.3,0,0,0,1.8,4.6l-.3.6-.3.4a1.6,1.6,0,0,1-.4.7l-.2.5-.3.6c-.1.2-.2.3-.2.5l-.3.6c-.1.1-.1.3-.2.4a1.4,1.4,0,0,0-.2.6c-.1.1-.1.3-.2.4s-.1.4-.2.5-.1.3-.1.5-.1.3-.2.5-.1.2-.1.4a4.3,4.3,0,0,0-.1.5v.3a4.3,4.3,0,0,1-.1.5.6.6,0,0,1-.1.4v.4c0,.1-.1.3-.1.4v.8c0,.1-.1.2-.1.4v.7a.4.4,0,0,0,.1.3v1a.4.4,0,0,1,.1.3.4.4,0,0,0,.1.3v.3c0,.1.1.2.1.3a.4.4,0,0,0,.1.3V98c.1.1.1.1.1.2a.4.4,0,0,1,.1.3v1c.1.1.1.1.1.2l.2.2c0,.1,0,.2.1.2a.4.4,0,0,0,.1.3h.1v.3a.1.1,0,0,1,.1.1l.2.2c0,.1,0,.1.1.2s.1.1.1.2h.1c.1.1.1.2.2.2s0,.1.1.2a.3.3,0,0,1,.1.2h.1l.2.2h0l.2.3h.2a.3.3,0,0,1,.1.2,16.4,16.4,0,0,1,.6-3.1s1.4,11.8,4.6,14.1a8.9,8.9,0,0,1-1.3-4.4,31.2,31.2,0,0,0,3.1,6.1h0l1.7,2.5h0l.6.9h0l1.2,1.7h.1l.6.8h0l1.3,1.5h.1l.6.6v.2l.6.6h0l.7.7h0l.6.5h.1c.2.2.4.3.5.5H53l.6.4h0s-.7-1-1-4.9c0,.1.9,2.2,3.9,5.8h0a29.4,29.4,0,0,0-.5-3.1,13.3,13.3,0,0,0,2.6,3.9v.7h0v.9h0a2.8,2.8,0,0,1,.1.9h0v.9h0v.8h0c0,.3.1.6.1.9h0v.8h0v.8h0a1.7,1.7,0,0,0-.1.7v.9h0v.7h0a2,2,0,0,0-.1.7h0c0,.2-.1.4-.1.6h0c0,.2-.1.4-.1.6l-.5.3h-.1l-.3.2h-.4a.1.1,0,0,1-.1.1h-.2v.2h-.5v.2a.1.1,0,0,0-.1.1h-.1v.2h-.1v.2h-.1v.6a.3.3,0,0,0-.1.2v1.4h0v.2h0v.5c1.4,2.2,5.4,2.6,8.5,1.9h0c2.1-.5,3.9-1.5,4.4-2.9s-.4-4.7.9-5.4a11.1,11.1,0,0,0,.2-1.7c0-.1.1-.1.1-.2a21.7,21.7,0,0,1,.4-2.5l1.8.5h.1s1.6-5,2.2-5v2.9H74a.8.8,0,0,1,.1-.4v-.2a35.1,35.1,0,0,0,1.7-4.2c0,.5.1,1.1.1,1.6a3.4,3.4,0,0,1,.1,1v.2c0,.3.1.6.1.8a3.1,3.1,0,0,0,.1,1v.3c0,.4.1.8.1,1.2v.9a4.1,4.1,0,0,1,.1,1.1,1.7,1.7,0,0,0,.1.7v1.6a8.6,8.6,0,0,1,.1,1.6h0v.5h0v4.9h0c0,.2-.1.4-.1.6h0v.6h0a1.3,1.3,0,0,0-.1.6h0c0,.2-.1.4-.1.6l-.8.4H74.5c0,.1-.1.1-.1.2h-.2v.2h0l-.3.4h-.1a.4.4,0,0,0-.1.3h-.1v.2h-.1v.2h0c0,.2-.1.3-.1.5h0v.7h0v.8h.1c0,.1,0,.1.1.1H74a1.8,1.8,0,0,0,.7.5h0l.3.2h.5l.4.2H76l1.4.3h6.1a.1.1,0,0,0,.1-.1H84l.2-.2h.1l.4-.2h.4l.2-.2h.1l.2-.2h0l.2-.3h.1v-.2h.2c-.2-2.2-.4-4.8.9-5.5a1.3,1.3,0,0,1,.1-.6v-.5a4.3,4.3,0,0,0,.1-.5c0-.2.1-.4.1-.7s.1-.4.1-.6v-.2h.1a2,2,0,0,1,.1-.7c.1-.4.1-.8.2-1.2v-.2a2.9,2.9,0,0,1,.2-.9V142c.1-.2.1-.4.2-.6V141l.3-.9c0-.3.1-.5.1-.7v-.2a.4.4,0,0,1,.1-.3,4.3,4.3,0,0,1,.1-.5c0-.2.1-.3.1-.5s.3-1,.4-1.5l.2-.6c.1-.3.1-.6.2-.9s.1-.3.2-.5a2.5,2.5,0,0,1,.2-.7,22.9,22.9,0,0,1,.8-2.8c0-.2.1-.4.1-.6v-.2c.1-.5.3-1,.4-1.6v-.2h0a18.9,18.9,0,0,0,.5-2.3h0l1.1-.4.4-.2.5-.3.4-.2.6-.3.3-.2.5-.3.4-.2.5-.4.3-.2.4-.3.3-.2.5-.4.2-.2.5-.4h.1l1.5-1.6.2-.2.3-.4c.1-.1.1-.2.2-.2l.3-.4c.1-.1.2-.2.2-.3l.3-.4.2-.2.3-.4c0-.1.1-.2.1-.3l.3-.4.2-.2a.8.8,0,0,1,.2-.4c.1-.1.1-.1.1-.2l1.3-2.2h0l.9-1.8v-.2l.2-.3v-.2l.2-.3v-.2c0-.1.1-.2.2-.3h.1a.5.5,0,0,1,.2-.4c1.3-1.9,4-3.2,6.7-4,0,.1.1.2.1.4.1,2.2-.4,4.4-.9,4.7s-2.6,1.1-2.7,3.7h0V116l.3.4h0l.3.3h.1l.3.2h.1l.4.2h.1l.5.2h6l.4-.2h.4l.2-.2c.3-2,.3-3.1,1.1-3.6a.1.1,0,0,0,.1-.1h.1v-.2h0a.3.3,0,0,0,.1-.2h0a.3.3,0,0,0,.1-.2h0a.4.4,0,0,1,.1-.3h0v-.3h.1v-.3h0v-.4h0v-.4h.1v-.5h0a.6.6,0,0,0,.1-.4h0v-.5h.1v-.4h0a.9.9,0,0,1,.1-.5h0v-.6a1.1,1.1,0,0,1,.1-.5h0v-.4h0v-.2c1.7,1.9,4,3.8,6.4,4.2,5.1.9,3.9,9.4,2.9,10h-.3c0,.1-.1.1-.2.2h-.1l-.6.4h0l-.3.2a.1.1,0,0,1-.1.1c-.2.1-.3.4-.5.6a.1.1,0,0,1-.1.1c0,.1-.1.2-.1.3h-.1a3.5,3.5,0,0,0-.3,1.6h0v1.1l.3.4h0l.3.3h.1l.3.3h.1l.4.2h.6l.5.2h5.4l.4-.2h.1l.3-.2h0l.3-.2c.2-2,.3-3.1,1.1-3.6s1.8-11.8,1-13.8-4.5-2-5.8-7a.6.6,0,0,0-.1-.4v-.2a.4.4,0,0,0-.1-.3v-.2a4.3,4.3,0,0,1-.1-.5h0c0-.2-.1-.4-.1-.6h0a.7.7,0,0,0-.1-.5v-.2c0-.4-.1-.9-.1-1.3v-.8h0c-.2-1.2-.3-2.5-.4-3.8v-.2a.7.7,0,0,1-.1-.5v-.3c0-.1-.1-.2-.1-.3l1,.6.2.2.7.4.3.2.6.3h.2l.8.4h.2l.6.3h.3l.5.2h.2l.7.2h3.6a.1.1,0,0,0,.1-.1h0c3.6-.8,5.7-4.8,7.4-8.9h0c.6-.1,1.8-.1,7.8-6.2a8.3,8.3,0,0,1-3.8,2S158.1,78,159.6,75.4Z"/><path class="cls-25" d="M159.6,75.4Z"/></g></g></svg>