<svg xmlns="http://www.w3.org/2000/svg" viewBox="0 0 200 200"><defs><style>.cls-1{isolation:isolate;}.cls-2{fill:#cc5740;}.cls-12,.cls-3{fill:#e57051;}.cls-4{fill:#ed927a;}.cls-11,.cls-5,.cls-9{fill:#ffab91;}.cls-6{fill:#fbe9e7;mix-blend-mode:multiply;}.cls-7{fill:#ef7554;}.cls-8{fill:#ff8a65;}.cls-12,.cls-14,.cls-9{stroke:#000;}.cls-11,.cls-12,.cls-14,.cls-15,.cls-9{stroke-miterlimit:10;}.cls-11,.cls-12,.cls-14,.cls-9{stroke-width:0.09px;}.cls-10{fill:#ffccbc;}.cls-11,.cls-15{stroke:#89685c;}.cls-13{fill:#141414;}.cls-14{fill:#fff;}.cls-15{fill:none;stroke-width:0.22px;}</style></defs><g class="cls-1"><g id="Pig_02"><path class="cls-2" d="M123.8,145.6s-2.2.3-3.4-2.5S124.8,139.8,123.8,145.6Z"/><path d="M123.8,145.5a2.8,2.8,0,0,1-1.8-.4,4.3,4.3,0,0,1-1.4-1.6,2.8,2.8,0,0,1-.4-1.3,1.4,1.4,0,0,1,1.2-1.1,2.2,2.2,0,0,1,1.8.8,4.7,4.7,0,0,1,.6,3.7h0a5.2,5.2,0,0,0-.4-3.5,2.2,2.2,0,0,0-1.8-1,1.4,1.4,0,0,0-1.4.9,1.7,1.7,0,0,0,.1,1,4,4,0,0,0,1.3,1.8,2.4,2.4,0,0,0,1.3.7h.9Z"/><path class="cls-2" d="M118.5,138.2s-2.9.5-3.4-.1,3.1-6.3,3.1-6.3Z"/><path class="cls-2" d="M121.4,146.9s-5.8.2-4.4-9.1S121.4,146.9,121.4,146.9Z"/><path d="M121.4,146.9a4.3,4.3,0,0,1-2.9-1.2,5.6,5.6,0,0,1-1.5-3.2,12.8,12.8,0,0,1,.2-5.5,7.4,7.4,0,0,1,.4-1.4.9.9,0,0,1,.4-.5c.5-.1.8.9.9,1.2a31.3,31.3,0,0,1,1.6,6l.6,2.9a4.3,4.3,0,0,0,.2,1.1c0,.1,0,.4.1.5h0c-.2-1.4-.5-2.8-.7-4.1a42.9,42.9,0,0,0-1.7-6.4c-.1-.4-.4-1.2-.9-1.3s-.7.8-.8,1.1a14.2,14.2,0,0,0-.4,2,16.9,16.9,0,0,0-.1,3.2,6.8,6.8,0,0,0,1.2,3.7,4.5,4.5,0,0,0,1.9,1.5,2.4,2.4,0,0,0,1.4.3Z"/><path class="cls-3" d="M123.9,139.5s1.6,5.2.4,5.9-2.2-1.2-2.2-1.2.2,2.7-.7,2.7-3.1-1.3-3.8-6.8S123.9,139.5,123.9,139.5Z"/><path class="cls-2" d="M84.8,123.1s-2.3.4-3.5-2.4S85.8,117.3,84.8,123.1Z"/><path d="M84.8,123.1a3.3,3.3,0,0,1-1.9-.4,3.6,3.6,0,0,1-1.4-1.6,2.8,2.8,0,0,1-.4-1.3,1.4,1.4,0,0,1,1.2-1.1,2,2,0,0,1,1.8.7,4.4,4.4,0,0,1,.7,3.7h0a4.7,4.7,0,0,0-.4-3.5,2.6,2.6,0,0,0-1.9-1,1.7,1.7,0,0,0-1.4,1,1.7,1.7,0,0,0,.1,1,4.6,4.6,0,0,0,1.3,1.8,3.7,3.7,0,0,0,1.4.7,2.7,2.7,0,0,0,.9,0Z"/><path class="cls-2" d="M78.8,116.4s-2.7,1.1-3.4.7,1.6-6.8,1.6-6.8Z"/><path class="cls-2" d="M82.3,124.5s-5.9.2-4.4-9.2S82.3,124.5,82.3,124.5Z"/><path d="M82.3,124.4a3.5,3.5,0,0,1-2.9-1.2,5.3,5.3,0,0,1-1.5-3.1,13.2,13.2,0,0,1,.2-5.6l.3-1.3a1.2,1.2,0,0,1,.5-.5c.4-.1.8.8.9,1.1a32.2,32.2,0,0,1,1.6,6.1l.6,2.9c0,.3.1.7.1,1a1.3,1.3,0,0,1,.1.6h.1c-.2-1.4-.5-2.8-.7-4.2a50.5,50.5,0,0,0-1.7-6.4c-.2-.3-.4-1.1-.9-1.2s-.7.8-.8,1.1a11.8,11.8,0,0,0-.4,2,16.1,16.1,0,0,0-.1,3.1,7.1,7.1,0,0,0,1.2,3.8,4,4,0,0,0,1.9,1.5,2.4,2.4,0,0,0,1.4.3h.1Z"/><path class="cls-3" d="M84.7,117.1s1.7,5.2.5,5.9-2.2-1.2-2.2-1.2.2,2.7-.7,2.7-3.1-1.3-3.8-6.9S84.7,117.1,84.7,117.1Z"/><path class="cls-4" d="M115.6,101.8l13.6,4.1c-.3,13.3-4.7,17.1-5.1,30.8a15.2,15.2,0,0,0,.1,4.2c-2.3-1.5-2.5,1.8-2.5,1.8s-3.5-2.1-4.2,1.6c0,0-1.5-2-.4-9.4.6-4.1-.1-8.9-1.2-14.9A65.6,65.6,0,0,1,115.6,101.8Z"/><path class="cls-4" d="M72.3,70.5H87.7L88.8,73c0,1.4,1.9,16.9-5.1,26.5-1.8,2.3-.3,10,.7,15.1.2.9.3,1.6.7,3.8-2.4-1.6-2.6,1.8-2.6,1.8s-3.5-2.1-4.2,1.5a9.3,9.3,0,0,1-.7-2c-1.2-4.8-2.7-14.9-3.3-17.6s-.8-4.7.4-8.8S72.2,79.9,72.3,70.5Z"/><path class="cls-5" d="M129.5,94.9l2.6,5.2,2.5,5.2c14.8-4.4,7.6-8.8,14-14.8a.9.9,0,0,0,.3-.6,1,1,0,0,0-.4-1.2C145.3,86.8,136.7,83.4,129.5,94.9Z"/><path class="cls-6" d="M132.1,100.1l2.5,5.2c14.8-4.4,7.6-8.8,14-14.8a.9.9,0,0,0,.3-.6c-2.2-.7-10.3-2.5-15.7,7.3A9.5,9.5,0,0,0,132.1,100.1Z"/><path class="cls-7" d="M106.8,155.5s-2.2.3-3.4-2.4S107.8,149.7,106.8,155.5Z"/><path d="M106.8,155.5a2.9,2.9,0,0,1-1.8-.5,3.6,3.6,0,0,1-1.4-1.6,2.5,2.5,0,0,1-.4-1.2,1.4,1.4,0,0,1,1.2-1.1,2.1,2.1,0,0,1,1.8.7,4.8,4.8,0,0,1,.6,3.7h0a4.7,4.7,0,0,0-.4-3.5,2.2,2.2,0,0,0-1.8-1,1.2,1.2,0,0,0-1.3.9,1.7,1.7,0,0,0,0,1,5,5,0,0,0,1.3,1.9l1.4.7Z"/><path class="cls-8" d="M101.5,148.2s-2.9.4-3.4-.1,3.1-6.3,3.1-6.3Z"/><path class="cls-7" d="M104.4,156.8s-5.8.3-4.4-9.1S104.4,156.8,104.4,156.8Z"/><path d="M104.4,156.8a4,4,0,0,1-2.9-1.2,5.3,5.3,0,0,1-1.5-3.2,14.6,14.6,0,0,1,.2-5.5,6.5,6.5,0,0,1,.4-1.3c.1-.2.2-.5.4-.5s.8.8.9,1.1a31.3,31.3,0,0,1,1.6,6l.6,3c.1.3.1.7.2,1a1.3,1.3,0,0,0,.1.6h0c-.2-1.3-.4-2.7-.7-4.1a35.5,35.5,0,0,0-1.7-6.4c-.1-.4-.4-1.2-.9-1.3s-.7.8-.8,1.1a16.2,16.2,0,0,0-.3,2,11.5,11.5,0,0,0-.2,3.2,7.4,7.4,0,0,0,1.2,3.8,4.3,4.3,0,0,0,2,1.5l1.3.3h.1Z"/><path class="cls-9" d="M59.1,49.9a.9.9,0,0,1,1.2-.4.9.9,0,0,1,.4,1.2,2.7,2.7,0,0,0,.3,2.7.1.1,0,0,0,.1.1,5.8,5.8,0,0,1,.5-1.4l.8-1.2a3.6,3.6,0,0,1,3.4-1.7,3.3,3.3,0,0,1,2.6,2.2,4.2,4.2,0,0,1-.6,4.1,4.5,4.5,0,0,1-4.4,1.6,2.7,2.7,0,0,0,.7.8,17.3,17.3,0,0,0,5.7,3.5,1,1,0,0,1,.6,1.2,1.1,1.1,0,0,1-.9.5h-.2c-.3-.1-4.9-1.8-7.2-4.8a7.5,7.5,0,0,1-1-2c0-.1-.1-.2-.1-.3C59.2,54.6,58,52.1,59.1,49.9Zm7.3,4.5a2.2,2.2,0,0,0,.4-2.3,1.8,1.8,0,0,0-1.2-1.2h-.2A2.2,2.2,0,0,0,63.8,52a6,6,0,0,0-.9,1.5,4,4,0,0,0-.3,1.5A2.9,2.9,0,0,0,66.4,54.4Z"/><path class="cls-8" d="M106.9,149.5s1.6,5.2.4,5.9-2.1-1.3-2.1-1.3.1,2.7-.8,2.7-3.1-1.2-3.8-6.8S106.9,149.5,106.9,149.5Z"/><path class="cls-7" d="M67.8,133s-2.3.4-3.5-2.4S68.8,127.2,67.8,133Z"/><path d="M67.8,133a2.8,2.8,0,0,1-1.8-.4,4.3,4.3,0,0,1-1.5-1.5,3.3,3.3,0,0,1-.4-1.3,1.4,1.4,0,0,1,1.2-1.2,2.3,2.3,0,0,1,1.9.7,4.8,4.8,0,0,1,.6,3.7h.1a4.8,4.8,0,0,0-.5-3.5,2.2,2.2,0,0,0-1.9-.9,1.4,1.4,0,0,0-1.4.9,1.7,1.7,0,0,0,.1,1,4,4,0,0,0,1.3,1.8,2.7,2.7,0,0,0,1.4.7Z"/><path class="cls-8" d="M61.8,126.3s-2.7,1.1-3.3.7,1.5-6.8,1.5-6.8Z"/><path class="cls-7" d="M65.3,134.4s-5.8.2-4.4-9.1S65.3,134.4,65.3,134.4Z"/><path d="M65.3,134.4a4.3,4.3,0,0,1-2.9-1.2,5.6,5.6,0,0,1-1.5-3.2,12.8,12.8,0,0,1,.2-5.5,7.4,7.4,0,0,1,.4-1.4.9.9,0,0,1,.4-.5c.4-.1.8.9.9,1.2a31.3,31.3,0,0,1,1.6,6l.6,2.9a4.3,4.3,0,0,0,.2,1.1c0,.1,0,.4.1.5h0c-.2-1.4-.5-2.8-.7-4.1a42.9,42.9,0,0,0-1.7-6.4c-.2-.4-.4-1.2-.9-1.3s-.7.8-.8,1.1a14.2,14.2,0,0,0-.4,2,16.9,16.9,0,0,0-.1,3.2,6.8,6.8,0,0,0,1.2,3.7,4.5,4.5,0,0,0,1.9,1.5,2.4,2.4,0,0,0,1.4.3Z"/><path class="cls-8" d="M67.7,127s1.7,5.2.5,5.9-2.2-1.2-2.2-1.2.2,2.7-.7,2.7-3.1-1.3-3.8-6.8S67.7,127,67.7,127Z"/><path class="cls-10" d="M62.6,84.7c1.3,7,3.7,13.5,7.2,17.3a9.4,9.4,0,0,1,1.4-3.7c.4-.3.7-.1,1.2.4,5.2,5.1,15.4,14.3,25.4,19.6l2.5,1.2a23.3,23.3,0,0,0,3.3,1.4c4.1,1.5,3.2-.2,5.6,1.7l2.1,1.8,1.2,1,.7.4a49.6,49.6,0,0,0,15.3,8,42.7,42.7,0,0,0,6,1.8l6.4,1.3.7.2.5-.5,9.1-8.9a8.5,8.5,0,0,1-3.1-3.4c-3.4-6.4-3-18.7-10.2-27.9s-19.2-12.7-25.7-18.9c-8.9-8.7-27.9-29.9-46.6-17.4a30.1,30.1,0,0,0-2.8,2.2C61.1,68.4,61.1,76.8,62.6,84.7Z"/><path class="cls-5" d="M132.4,133.8a3.2,3.2,0,0,1,2.1,1.8l6.4,1.3c-3.9-.8-7-2.4-7.6-3.7S129.8,132.5,132.4,133.8Z"/><path class="cls-5" d="M140.3,133.8a11.2,11.2,0,0,0,1.8,2.8l9.1-8.9a8.5,8.5,0,0,1-3.1-3.4,5.8,5.8,0,0,0-5.1-.5C139.8,125.2,138.6,129.7,140.3,133.8Z"/><path class="cls-8" d="M140.1,133.4c-.7,2.7,1.7,4.8,4.9,4s6.4-3.7,7.2-6.5-1.6-4.5-4.8-3.7S140.9,130.6,140.1,133.4Z"/><path class="cls-5" d="M141.4,134c-.7,2.5,1.1,4,4.1,3.3s6.1-3.5,6.8-6-1.1-4-4.1-3.3S142.1,131.4,141.4,134Z"/><path class="cls-11" d="M132.4,121.6a.9.9,0,0,0,.7-.3.8.8,0,0,0,.2-.7c-.2-2.2,0-6.8-7.3-5.6C126,115,123.3,122,132.4,121.6Z"/><path class="cls-3" d="M148,132c0,.8.5,1.1,1.2.8a2.7,2.7,0,0,0,1.3-2.1c0-.8-.5-1.1-1.2-.7A2.4,2.4,0,0,0,148,132Z"/><path class="cls-3" d="M143.2,134.6c0,.7.5,1.1,1.2.7a2.7,2.7,0,0,0,1.3-2.1c.1-.7-.5-1.1-1.2-.7A3,3,0,0,0,143.2,134.6Z"/><path class="cls-12" d="M127.1,117.1s.4,2.9,1.9,3.1,1.9-.5,2.9.3a5.3,5.3,0,0,1-.5-1.5,3.7,3.7,0,0,0-1.5-2.7C128.6,115.5,127.7,116.3,127.1,117.1Z"/><path class="cls-13" d="M127.3,116.8c.1,1.5.9,2.8,2.1,2.9a2,2,0,0,0,2-.7,3.7,3.7,0,0,0-1.5-2.7A1.8,1.8,0,0,0,127.3,116.8Z"/><path d="M127.3,116.8a3.2,3.2,0,0,0,.9,2.3,2.1,2.1,0,0,0,2.2.6l.6-.3c.1-.1.4-.2.4-.4s0-.2,0-.2v-.3a1.9,1.9,0,0,0-.2-.7,3,3,0,0,0-1.7-1.8,2,2,0,0,0-2.1.8c-.1,0,0,.1,0,0a2.5,2.5,0,0,1,1.6-.8,2.6,2.6,0,0,1,2,1.5,4.9,4.9,0,0,1,.4,1.1v.3c.1.1,0,.1,0,.2l-.6.4a2,2,0,0,1-2.3-.3,3.6,3.6,0,0,1-1.1-2.4Z"/><path class="cls-14" d="M128.2,117.1a.7.7,0,0,0,.5.7.6.6,0,0,0,.6-.5.5.5,0,0,0-.5-.6C128.5,116.6,128.3,116.8,128.2,117.1Z"/><path class="cls-5" d="M106.1,98.4c0,.3,0,.7.3.9,4.9,6.6,4.9,19.9,14.1,11.7l.9-.7,1.7-2.7a5.8,5.8,0,0,0-2.1-8.2,18.1,18.1,0,0,0-14.1-1.8A1.1,1.1,0,0,0,106.1,98.4Z"/><path class="cls-6" d="M106.1,98.4c0,.3,0,.7.3.9,4.9,6.6,4.9,19.9,14.1,11.7a7.9,7.9,0,0,0,.1-3.8C119.1,99.2,110.3,98.4,106.1,98.4Z"/><path class="cls-10" d="M98.1,116.3c0,1.8,0,3.9.1,6.1s.2,2.6.4,3.9v.3c0,.1.1.2.1.3h0a1.3,1.3,0,0,0,.1.6c0,.2.1.5.1.8s.3,1.8.4,2.6a.9.9,0,0,1,.1.5h0c0,.2.1.3.1.5s.1.7.1,1a5,5,0,0,1,.2,1.2c.1.4.1.8.2,1.2h0v.8a1.3,1.3,0,0,1,.1.6c0,.3.1.5.1.7v.9c0,.2.1.3.1.5v1.1h0v2.4h0c0,.2-.1.5-.1.7s-.1.6-.1.9l-.3,2.8v.9a1.3,1.3,0,0,0-.1.6v.5c0,3.9.8,5.1.8,5.1h.1v-.2h0c0-.1.1-.3.1-.4h0a.3.3,0,0,0,.1-.2h.1l.3-.4h2.4l1.1.5a4.3,4.3,0,0,1,.2-1.2l.2-.4c.4-.6,1-1.1,2.1-.3h0a15.9,15.9,0,0,1-.1-4.3,69.6,69.6,0,0,1,.6-7.2,68.6,68.6,0,0,1,1.6-7.9c.7-2.8,1.5-5.4,2-8.5"/><path class="cls-10" d="M62.8,62.3a15.4,15.4,0,0,0-1.7,1.9,24.6,24.6,0,0,0-5.8,16.6v1.9a1.3,1.3,0,0,0,.1.6v.5c0,.4.1.9.1,1.3s.1.4.1.6a8.8,8.8,0,0,0,.2,1.6V88c0,.2.1.4.1.6a4.3,4.3,0,0,1,.1.5v.3l.3,1.4a1.9,1.9,0,0,0,.2.8,20,20,0,0,0,.5,2.6c0,.2.1.4.1.6l.3,1.5v.3a1.3,1.3,0,0,1,.1.6v.6c0,.2.1.3.1.4h0v.4h.1v.4a12.6,12.6,0,0,1-.2,4c-1.2,4.1-1.2,5-.3,8.8v.2c.1.6.3,1.4.5,2.5v.2c.1.8.3,1.7.4,2.6a5,5,0,0,1,.2,1.2c0,.1.1.2.1.4s.1.4.1.6.1.4.1.6.1.5.1.7l.3,1.8c0,.2.1.3.1.5a1.3,1.3,0,0,1,.1.6,20.7,20.7,0,0,1,.4,2.2c.1.3.1.6.2.8s.3,1.5.4,2.1.1.4.2.6v.8l.3.9h.1v.2h0a.4.4,0,0,0,.1-.3h0c.1-.1.1-.3.2-.4h0c0-.1.1-.1.1-.2h0l.2-.2a.1.1,0,0,1,.1-.1l.3-.3h.1c.1,0,.1,0,.1-.1h2.1l.4.2h.5v-.2h.1v-.2h.1a.9.9,0,0,1,.1-.5h.3c0-.1.1-.1.1-.2h1.2l.7.4h0l-.7-3.8c-1-5-2.4-12.7-.7-15.1.1-.1.2-.2.2-.3s.2-.2.2-.3l.8-1.2v-.2l1-1.9c0-.1.1-.3.1-.4l.3-.5.3-.8a.4.4,0,0,1,.1-.3l.3-.8c0-.2,0-.3.1-.4s.1-.5.2-.7v-.4c0-.1.1-.2.1-.3s.1-.3.1-.4.1-.2.1-.4a.4.4,0,0,1,.1-.3.6.6,0,0,1,.1-.4c0-.2.1-.4.1-.7s.1-.2.1-.4a.6.6,0,0,1,.1-.4h0a47.3,47.3,0,0,0,.7-7.2"/><path class="cls-5" d="M71.2,98.3c.4-.3.7-.1,1.2.4,5.2,5.1,15.4,14.3,25.4,19.6.3-.3.3-1.7.6-4.6.5-4.4-11.1-1.7-17.7-9.1s-6.4-14-8.4-14S72.1,93.6,71.2,98.3Z"/><path class="cls-5" d="M111,124.5l1.1.9a1.5,1.5,0,0,1,.6.4,52.1,52.1,0,0,0,15.8,8c-12.6-5.4-10.8-13.5-13.8-15.1S111,124.5,111,124.5Z"/><path class="cls-15" d="M61.3,64.2A15.4,15.4,0,0,1,63,62.3h0l1.9-1.6a11.8,11.8,0,0,1-2.6-2.4,7.5,7.5,0,0,1-1-2c0-.1-.1-.2-.1-.3-1.8-1.4-3-3.9-1.9-6.1a.9.9,0,0,1,1.2-.4.9.9,0,0,1,.4,1.2,2.7,2.7,0,0,0,.3,2.7.1.1,0,0,0,.1.1,3.5,3.5,0,0,1,.6-1.4,7.5,7.5,0,0,1,.7-1.2c1.4-1.7,2.7-1.8,3.4-1.7a3.3,3.3,0,0,1,2.6,2.2,4,4,0,0,1-.6,4.1,4.5,4.5,0,0,1-4.4,1.6l.7.8a9.6,9.6,0,0,0,2.2,1.8c18.5-11.6,37.1,9.2,45.9,17.8,5.1,4.9,13.4,7.7,20.4,13.5,6.4-6.7,13.1-3.9,15.9-2.3a1.2,1.2,0,0,1,.5,1.2c0,.2-.2.4-.4.6-5,4.7-1.7,8.4-7.1,11.9,3.6,8,3.9,16.8,6.6,21.9a10.1,10.1,0,0,0,1.4,2,5.3,5.3,0,0,0,1.4,1.2h.1l.2.2h0a2.9,2.9,0,0,1,1,1.2,3.7,3.7,0,0,1,.2,2.4c-.8,2.5-3.8,5.2-6.9,6h-.5a5.4,5.4,0,0,1-3.4-.3h0l-.7-.2-1.5-.2-4.9-1.1h0a47.1,47.1,0,0,1-6-1.8,24.8,24.8,0,0,1-4.1-1.5,30.4,30.4,0,0,0-.3,4.4,15.2,15.2,0,0,0,.1,4.2h0c.4,1.6.9,4.1.1,4.5l-.5.2h0a2.7,2.7,0,0,1-1.6-.4c-.1.8-.3,1.7-.8,1.7a4.4,4.4,0,0,1-3.9-2.6h0s-1-1.4-.7-5.9c-.8,0-1.5,0-1.7-.3s1.1-3,2.2-4.7a35.7,35.7,0,0,0-.1-4.6,43.9,43.9,0,0,1-4.5-3l-.6-.4-1.1-.9h0c-.5,2.3-1.1,4.4-1.7,6.6a68.6,68.6,0,0,0-1.6,7.9,69.6,69.6,0,0,0-.6,7.2,15.9,15.9,0,0,0,.1,4.3h0c.4,1.6,1,4.3.1,4.8H107a2.7,2.7,0,0,1-1.6-.4c-.1.8-.2,1.7-.8,1.7a4.4,4.4,0,0,1-3.9-2.6h0s-.8-1.2-.8-5.1v-.5a.4.4,0,0,1,.1-.3,3.7,3.7,0,0,1-1.7-.2c-.3-.4,1.1-3,2.1-4.7s.1-.5.1-.7h0v-2.4h0V139a.9.9,0,0,0-.1-.5v-.9c0-.2-.1-.4-.1-.7v-1.4h0c-.1-.4-.1-.8-.2-1.2s-.1-.8-.1-1.2-.1-.7-.2-1a.9.9,0,0,0-.1-.5h0a.9.9,0,0,0-.1-.5c-.1-.8-.2-1.7-.4-2.6s-.1-.6-.1-.8-.1-.4-.1-.6h0a.4.4,0,0,0-.1-.3v-.3a25.6,25.6,0,0,1-.3-3.9c-.1-1.3-.2-2.7-.2-3.9l-.3-.2a92.3,92.3,0,0,1-14.5-9.8c.4,2.1.8,4.3,1.1,6.1s.3,1.6.7,3.8h0c.4,1.5.9,4.1.1,4.6h-.5a3.3,3.3,0,0,1-1.7-.4c0,.8-.2,1.8-.7,1.8a4.4,4.4,0,0,1-4-2.8h0a9.3,9.3,0,0,1-.7-2q-.3-1.2-.6-2.7a4.3,4.3,0,0,1-1.5.1c-.4-.2.2-2.4.7-4.3-.8-4.4-1.5-9-1.9-10.7s-.3-1.4-.4-2l-1.5-1.4c-.5-.5-.8-.7-1.2-.4h0c0,.2-.1.3-.1.4s-.1.5-.1.7a.6.6,0,0,0-.1.4c0,.1-.1.2-.1.3s-.1.3-.1.4-.1.2-.1.4a.4.4,0,0,1-.1.3v.4c-.1.2-.1.5-.2.7s-.1.2-.1.4l-.3.8v.3l-.3.8-.3.5c0,.1-.1.3-.1.4a17.4,17.4,0,0,1-1,1.9v.2l-.8,1.2c0,.1-.1.2-.2.3s-.1.2-.2.3c-1.7,2.4-.3,10.1.8,15.1.1,1,.2,1.6.6,3.8h0c.4,1.6.9,4.1.1,4.6h-.5a3.6,3.6,0,0,1-1.6-.3c-.1.7-.3,1.7-.8,1.7a4.3,4.3,0,0,1-3.9-2.7h-.1v-.2h0l-.4-.9v-.6c-.1,0-.1-.1-.1-.2a1.3,1.3,0,0,1-.1-.6c-.2-.6-.3-1.3-.5-2.1h0c-.6.2-1.3.3-1.5.1s.2-2.4.7-4.2l-.3-1.8c0-.2-.1-.4-.1-.7s-.1-.4-.1-.6-.1-.4-.1-.6,0-.3-.1-.4a5,5,0,0,0-.2-1.2c-.1-.9-.3-1.8-.4-2.6v-.2l-.5-2.5V112c-.9-3.8-.9-4.7.3-8.8a10.2,10.2,0,0,0,.2-4v-.4h0c-.1,0-.1-.1-.1-.2v-.2h0a.8.8,0,0,0-.1-.4v-.3a.4.4,0,0,0-.1-.3,1.3,1.3,0,0,0-.1-.6v-.3l-.3-1.5c0-.2-.1-.4-.1-.6a20,20,0,0,1-.5-2.6c-.1-.2-.1-.5-.2-.8l-.3-1.4v-.3a4.3,4.3,0,0,0-.1-.5c0-.2-.1-.4-.1-.6v-.4a.4.4,0,0,1-.1-.3c-.1-.5-.1-1.1-.2-1.6s-.1-.4-.1-.6-.1-.9-.1-1.3v-.5c0-.2-.1-.4-.1-.6V80.8A24.6,24.6,0,0,1,61.3,64.2Zm5.3-9.8a2.2,2.2,0,0,0,.4-2.3,1.6,1.6,0,0,0-1.2-1.2h-.2A2.2,2.2,0,0,0,64,52a6,6,0,0,0-.9,1.5,4,4,0,0,0-.3,1.5A2.9,2.9,0,0,0,66.6,54.4Z"/></g></g></svg>