<svg xmlns="http://www.w3.org/2000/svg" viewBox="0 0 200 200"><defs><style>.cls-1,.cls-15{fill:#ffa726;}.cls-2{fill:#ff8f00;}.cls-3{fill:#fff8e1;}.cls-4{fill:#f57f17;}.cls-5{fill:#ffe0ae;}.cls-6{fill:#fccfa2;}.cls-7{fill:#f7b56d;}.cls-8{fill:#fff2e1;}.cls-9{fill:#ffd9b0;}.cls-10{fill:#ffefd7;}.cls-11{fill:#ebe1cf;}.cls-12{fill:#88bbbf;}.cls-13{fill:#424242;}.cls-14{fill:#fff;}.cls-15,.cls-17{stroke:#8c6239;stroke-miterlimit:10;stroke-width:0.1px;}.cls-16{fill:#f57c00;}.cls-17{fill:none;}</style></defs><g id="Duckling_01"><path class="cls-1" d="M98.9,111.7a2.3,2.3,0,0,0,.1.7,1.1,1.1,0,0,0,.1.5v1.4c0,.5.5.6.8,1.2l.9,2.5a.4.4,0,0,0,.5.2h.2c.1-.1.2-.1.2-.2h.1l.3-.2h1.6v-.2c0-.1.1-.2.1-.3s.1-.1.1-.2l.2-.2h.2l.4-.2h.2c.1-.1.1-.2-.1-.3h0a15.2,15.2,0,0,0-2.6-.9c-1.8-.4-1.7-.5-1.8-.6a12.9,12.9,0,0,1-.1-2.3,8.6,8.6,0,0,1,.1-1.7v-.5H99.3l-.2.6A5.2,5.2,0,0,0,98.9,111.7Z"/><path class="cls-2" d="M103.6,116.9a1,1,0,0,1,.1.4,1.4,1.4,0,0,1,1.1-1.3h.1c-.1-.1-.4.1-.5,0a20.9,20.9,0,0,0-3.3-1.2C100.7,114.9,103.6,116.9,103.6,116.9Z"/><path class="cls-2" d="M101.3,118.2a2.5,2.5,0,0,1,2.1-.8h-.3s-2.4-2.5-2.8-2.4.8,2.4,1,3.1A.1.1,0,0,1,101.3,118.2Z"/><path class="cls-3" d="M103.9,117.8s-.1-1.3-.7-.8S103.6,117.3,103.9,117.8Z"/><path class="cls-3" d="M101.4,118.9s.3-1.2-.4-1S101.3,118.3,101.4,118.9Z"/><path class="cls-3" d="M105.4,116.4s-.4-1.2-.8-.7S105,115.9,105.4,116.4Z"/><path class="cls-1" d="M99.5,113.1s-.7,1-1,.7.9-1.2.9-1.2Z"/><path class="cls-2" d="M98.9,111.7a2.3,2.3,0,0,0,.1.7h.3l1-.6a8.6,8.6,0,0,1,.1-1.7H99.1A5.2,5.2,0,0,0,98.9,111.7Z"/><path class="cls-2" d="M105.2,111.1c0,.6.5.6.8,1.2l.9,2.5a.4.4,0,0,0,.5.2,2.9,2.9,0,0,1,2.1-.8h.3a1.2,1.2,0,0,1,1.1-1.2v-.2c.1-.1.1-.3-.1-.3a14.2,14.2,0,0,0-2.6-1c-1.8-.4-1.7-.4-1.8-.6s0-4.5,0-4.5h-1.1a7.8,7.8,0,0,0-.4,2.2A11.8,11.8,0,0,1,105.2,111.1Z"/><path class="cls-4" d="M109.7,113.8a.4.4,0,0,1,.1.3,1.2,1.2,0,0,1,1.1-1.2v-.2h-.5s-3-1.4-3.3-1.2S109.7,113.8,109.7,113.8Z"/><path class="cls-4" d="M107.4,115a2.9,2.9,0,0,1,2.1-.8h-.3s-2.4-2.4-2.8-2.4.8,2.4,1,3.1A.1.1,0,0,1,107.4,115Z"/><path class="cls-3" d="M110.1,114.6s-.2-1.2-.7-.8S109.7,114.1,110.1,114.6Z"/><path class="cls-3" d="M107.6,115.7s.2-1.2-.5-.9S107.4,115.1,107.6,115.7Z"/><path class="cls-3" d="M111.5,113.2s-.4-1.2-.8-.7S111.1,112.7,111.5,113.2Z"/><path class="cls-2" d="M105.6,110s-.7,1-.9.6.8-1.1.8-1.1Z"/><path class="cls-5" d="M94.1,98.3a32.3,32.3,0,0,1-8.6-.9c-.9-.2-1.2.5-.6,1.2s2.6,1.8,5.2,2.3S94.1,98.3,94.1,98.3Z"/><path class="cls-6" d="M85.2,98.3s-.8.1-.7.6,2.5,2.2,5.4,2.7S86.1,97.9,85.2,98.3Z"/><path class="cls-7" d="M85.2,99.3s-.4.7,0,1.1l3.5,2.9.3-1.8Z"/><path class="cls-8" d="M106,93.1c.1,3.5-3.8,1.9-4.7,2.4s-.7-.3-3.6,0-9.4,2.6-9.6,4.2a6.9,6.9,0,0,0,.4,3.5c1.5,4.6,6.7,7.9,8.4,8s7.5-1.7,11.3-4.3a6.6,6.6,0,0,0,3.1-3.4c1-4.5,0-5.6-.5-8.8"/><path class="cls-9" d="M91.8,99.6c5.7-1.9,13.9-2.9,15.2-1.4s-3.7,7-8.4,6.6a19.7,19.7,0,0,1-6.2-1.6c-1.2-.6-.4-1.2-.4-1.2s-1.6-.8-.9-1C90.1,100.7,90,100.2,91.8,99.6Z"/><path class="cls-6" d="M88.6,103.1c1.5,4.6,6.9,8,8.6,8.1s7.7-2,11.6-4.6c-2.8,1.1-8.7,3.6-13.3,2.2S91.1,103.5,88.6,103.1Z"/><path class="cls-6" d="M105.3,87c-.3.5.4,5.4.3,6.1a2.3,2.3,0,0,1-1.6,2,20.9,20.9,0,0,0-4.8.3c1.4-.1,6.3,2.3,7.6.5S105,87.1,105.3,87Z"/><path class="cls-10" d="M104.6,85.1a5,5,0,0,1,.4-2.8c.7-1.6,3.1-2.3,5.1-1.6s2.7,4,2.8,4.2-.3-1.5-1.2-1.1.7,1.8-1.1,2.8c0-.3.2.2.3.3-1.9.8-3.3-.6-3.6-.3s2.4,2.8,3.4,1.6a6.5,6.5,0,0,0-.2,2.2,51.5,51.5,0,0,0,1,8.4c.1.5-.1.9.1,1.5l-4.5-3.6C106.4,92.5,105.3,88.9,104.6,85.1Zm4.7-1.2c.4-.5-.5-1.3-1-.7S108.9,84.3,109.3,83.9Z"/><path class="cls-11" d="M111.1,87.4c-.2.2-.2.5-.4.7h0a1.5,1.5,0,0,1,.4-.8Z"/><path class="cls-6" d="M107.3,86.6c.3-.3,1.7,1.1,3.6.3.1.2.4.2.5.3s-.6.6-.7,1S107,86.9,107.3,86.6Z"/><path class="cls-1" d="M111.4,87.2l-.3.2h0Z"/><path class="cls-1" d="M109.3,83.9c-.4.4-1.5-.1-1-.7S109.7,83.4,109.3,83.9Zm-.1-.1c.1-.1.1-.2,0-.4h0c-.2-.2-.5-.4-.8-.1S108.9,84.2,109.2,83.8Z"/><path class="cls-12" d="M109.2,83.4H109a.1.1,0,0,0-.1.1.2.2,0,0,0-.3,0c-.3.2.2.5.4.3h0l.2-.2h0c.1.2.1.3,0,.4s-1.2-.1-.8-.5S109,83.2,109.2,83.4Z"/><path class="cls-13" d="M108.8,83.5l.2.2h0c-.2.2-.7-.1-.4-.3a.2.2,0,0,1,.3,0Z"/><path class="cls-14" d="M109.2,83.4Z"/><path class="cls-14" d="M109,83.7h0a.2.2,0,0,0-.1-.3.1.1,0,0,1,.1-.1h.2Z"/><path class="cls-14" d="M109,83.7l-.2-.2h.1A.2.2,0,0,1,109,83.7Z"/><path class="cls-6" d="M104.6,95c.3-.2,1.4-1.2.8-3.8a39.6,39.6,0,0,1-.8-6.1,52,52,0,0,1,2.2,10.4Z"/><path class="cls-15" d="M111.4,83.3c.7-.4,1.2.6,1.3.8h0a6.6,6.6,0,0,0,.7,1.5c.8,1.3,2.7,1.2,2,1.8s-2.7.4-4.1-.6V87H111l-.4-.3-.2-.3C111.8,85.5,110.5,83.8,111.4,83.3Z"/><path class="cls-16" d="M112.5,85.8c-.2.2-1.1-.5-.8-.8S112.7,85.5,112.5,85.8Z"/><path class="cls-16" d="M110.7,86.3a4.5,4.5,0,0,0,3.6,1.4s-2.9.6-3.9-1.2Z"/><path class="cls-17" d="M84.5,98.8c0-.2.1-.3.3-.4s-.1-1.3.7-1.1a35.3,35.3,0,0,0,4,.8,20.9,20.9,0,0,1,8.2-2.6h1.5a16.1,16.1,0,0,1,4.8-.3,2.6,2.6,0,0,0,1-.7,3.6,3.6,0,0,0,.4-3.2,41.6,41.6,0,0,1-.8-6.1,5.4,5.4,0,0,1,.4-2.9c.7-1.5,3.1-2.2,5.1-1.5a4.3,4.3,0,0,1,2.7,3.5,11.4,11.4,0,0,0,.6,1.4c.8,1.2,2.7,1.1,2,1.7a1.7,1.7,0,0,1-1.2.3h.1a4.9,4.9,0,0,1-3-.3l-.4.4a.5.5,0,0,1-.2.4h0a6.5,6.5,0,0,0-.2,2.2,49.9,49.9,0,0,0,.5,5.5,13.2,13.2,0,0,1,.3,7.6,6,6,0,0,1-2.7,3.1h.2l-2,1.2a.5.5,0,0,0-.4.2,17.2,17.2,0,0,0,.1,2.7c.1.2,0,.3,1.8.7a9.7,9.7,0,0,1,2.6.9h.1c.3.1.5.8.5.8s-.5-.2-.7-.3a1.6,1.6,0,0,0-1,1,2.6,2.6,0,0,1,.3.7.9.9,0,0,0-.6-.3h0a2.5,2.5,0,0,0-2,.6,1.3,1.3,0,0,1,.1.8c-.2-.4-.8-.6-.7-.8h0l-.9-2.6c-.3-.5-.8-.6-.8-1.2v-.7c-.2.2-.4.4-.5.2s.2-.6.5-.9a5.1,5.1,0,0,1-.2-.9l-1.8.7a21.2,21.2,0,0,1-2.9,1.1v1.2a11,11,0,0,0,.1,2.2c.1.2,0,.2,1.8.6a14.2,14.2,0,0,1,2.6,1h0c.4.1.6.8.6.8a1.1,1.1,0,0,0-.7-.3h-.3a.1.1,0,0,1-.1.1h-.1c0,.1-.1.1-.1.2h-.3a.4.4,0,0,1-.1.3,1.4,1.4,0,0,1,.2.7,1,1,0,0,0-.5-.4h-.8l-.5.2h-.3l-.3.2h-.1a2,2,0,0,1,0,.8c-.1-.5-.8-.6-.6-.8h0l-.9-2.5c-.3-.6-.8-.6-.8-1.2v-.7c-.2.2-.4.4-.6.2s.3-.6.6-.9h0a1.1,1.1,0,0,1-.1-.5,2,2,0,0,1-.1-.7c-.1-.1,0-.4,0-.7a3.8,3.8,0,0,1-1.7.2h0a.2.2,0,0,1-.3,0c-1.7-.1-6.9-3.4-8.4-8h-.1l-3.2-2.7a.6.6,0,0,1-.1-.7C84.7,99.3,84.5,99,84.5,98.8Zm29.7-11.2a4.5,4.5,0,0,1-2.9-.9h0A5,5,0,0,0,114.2,87.6Z"/></g></svg>