<svg xmlns="http://www.w3.org/2000/svg" viewBox="0 0 200 200"><defs><style>.cls-1{fill:#4c2e19;}.cls-2{fill:#353535;}.cls-3{fill:#c99673;}.cls-4{fill:#f0d4bf;}.cls-4,.cls-5{stroke:#c1272d;stroke-width:0.11px;}.cls-4,.cls-5,.cls-6{stroke-miterlimit:10;}.cls-5,.cls-6{fill:none;}.cls-6{stroke:#4c2e19;stroke-width:0.15px;}.cls-7{fill:#602f28;}.cls-8{fill:#fff;}</style></defs><g id="Cow_03"><path class="cls-1" d="M73,65.8c.3-1.4,1.4-4.2,3.2-4a2.7,2.7,0,0,1,1.4.7c.2.2.3.3.5.3a2.2,2.2,0,0,0,1.5-.6l2.6-1.5a3.5,3.5,0,0,1,1.1-.3,4.6,4.6,0,0,1,2,.5,15.7,15.7,0,0,0,3.1.8h2.1a20.7,20.7,0,0,1,5,.5l.8.2c.2,0,.1-.1.1.1a3.9,3.9,0,0,1-.8,1,12.8,12.8,0,0,1-2.6,2l-1,.7a.7.7,0,0,0-.2.6,7.6,7.6,0,0,0-.3,2.1,10.8,10.8,0,0,0,.2,3.1,6,6,0,0,0,.6,1.9,1.7,1.7,0,0,0,.6.6c.6.4,1.1,1,1.8,1.1h1.9a4.4,4.4,0,0,1,1.6.6,9.7,9.7,0,0,1,2.7,2.2,36.5,36.5,0,0,0,3,2.7,28,28,0,0,0,5.2,3.2l6.2,3.8a25.8,25.8,0,0,0,3.7,1.9,8.6,8.6,0,0,1,2.1.7c1.5.7,1.7,2.4,2.4,3.8a11.3,11.3,0,0,0,2.1,3.1,5.5,5.5,0,0,1,1.2,2.4c.9,3,0,6-.4,9s-.6,4.4-.7,6.5a20.9,20.9,0,0,0,.8,3.6,3.3,3.3,0,0,1-.1,1.4c-.8,3.2-1.9,6.3-2.4,9.5a12.4,12.4,0,0,1-.2,1.8v.2c.4.2.8.5.3.9l-.4.2-.2.3-.6.6a4.8,4.8,0,0,1-4.5-.7,1.7,1.7,0,0,1-.8-1.4c.1-.3.3-.5.3-.7h0c-.1.3-.2,0-.1.1h1.8c.3,0,.3-.4.1-.4s-1.2-.3-1.4-.6,0-.2.2-.3h1.8l.2-.2a48.2,48.2,0,0,0,.8-10,8.6,8.6,0,0,0-.3-1.7,6.8,6.8,0,0,0-1-2.1c-.2-.6-.5-1.1-.7-1.7s-.1-.5-.3-.6-.8,1.4-.9,1.6A13.5,13.5,0,0,0,117,120a9.7,9.7,0,0,0,.2,2.4c.1.9.5,1.7.5,2.5s-.8,1.3-1.2,2a4.7,4.7,0,0,0-.4,1.7l-.3,2.5v2.8a6.5,6.5,0,0,1,.2,2.4c0,.1,0,.2.2.3s-.1,1.1-.2,1.2a.7.7,0,0,1-.4.5,1.5,1.5,0,0,1-.9.2c-.6.1-.8.6-1.2.9a2.8,2.8,0,0,1-2.5,0c-.7-.3-1.7-.4-2.2-1.1a2.9,2.9,0,0,1-.6-2.2,1.1,1.1,0,0,1,.4-.9,2,2,0,0,1,1.1-.2l1.9.2h.3a6.1,6.1,0,0,0,.5-1.8v-1.2c0-1.1-.1-2.2-.1-3.3a5.9,5.9,0,0,0,.1-1.9c-.1-1-.4-2-.6-3s-.5-2-.6-3a7.6,7.6,0,0,0-.1-1.5,36.2,36.2,0,0,0-1.7-5.6,48.4,48.4,0,0,1-1.9-6.5l-.2-.2-.8-.3-1.9-1L99,102.9a.2.2,0,0,0-.3.1,30.1,30.1,0,0,0-.5,4.2c0,1.3.7,2.4.8,3.6a2,2,0,0,1-.2,1.1c-.1.4-.3.6-.4,1s.2.6,0,.8-.8.3-1.1.2-.4-.1-.5.2,0,.8-.3,1.1-2-.1-2.5-.5a4.7,4.7,0,0,1-1.9-2.7l-.2.3h2.5c.1,0,.2-.2.1-.4l-1-1-.2.4a3.6,3.6,0,0,0,1.5-.2.7.7,0,0,0,.2-.6,21.7,21.7,0,0,0,.2-3.6c0-1.7-.1-3.4-.2-5a4.1,4.1,0,0,0-.1-1.1c-.1-.3-.5-.4-.7-.5L92,99h-.2c-.4.2-.3,1.5-.3,1.9A11.9,11.9,0,0,1,91,104a15,15,0,0,0-.9,5.2c0,1.1-.1,2.1,0,3.2a9,9,0,0,0,.6,2.2,5.3,5.3,0,0,1,.1,2.5c0,.3-.2.6-.1.8s.8.9.1,1.3-1.3.1-1.8.8-.5,1.1-1,1.4-1.6-.1-2.2-.5l-1.7-1.4c-.3-.2-.8-.7-.6-1.1s1.7-.1,2.2.1.3-.3.1-.5l-.7-.6-.2-.2c-.1-.1-.1,0,0,0a3.4,3.4,0,0,1,1.4.2c.1.1.2,0,.3-.1s.4-2.5.5-3.8-.1-3-.2-4.4a8,8,0,0,0-.4-3.1c-.3-.8-.9-1.5-1.2-2.4a4.1,4.1,0,0,1,.2-1.9c.1-.6.1-1.1.2-1.7a15.9,15.9,0,0,0-.7-3.8,34,34,0,0,0-.7-3.4,23.3,23.3,0,0,1-.8-3.6,9.8,9.8,0,0,1-.2-3.4,4.9,4.9,0,0,0-.6-2.3,11.1,11.1,0,0,1-.9-3.1c-.1-1.7,0-3.4,0-5.1v-.2l-1.3-.4c-.2-.1-.4-.3-.7-.1l-.9.5A7.6,7.6,0,0,1,77,76a6.7,6.7,0,0,1-2.4.4c-.2,0-.2,0-.3-.2v-.6a18.2,18.2,0,0,1,1.1-3,11.2,11.2,0,0,1,1-2.2c.2-.2.1-.3-.1-.4a5.7,5.7,0,0,1-1.6-1.1,2.2,2.2,0,0,1-.7-.6c-.1-.2-.1-.1-.1-.2l.3-.4a.2.2,0,0,0,0-.3c-.5-.4-1.2-1.1-1.2-1.7a.2.2,0,1,0-.4,0c-.1.8.7,1.5,1.3,2v-.3c-.2.2-.6.5-.5.8s.4.5.6.7a10.7,10.7,0,0,0,2.2,1.5v-.3a9.3,9.3,0,0,0-1,2A17.3,17.3,0,0,0,74,75.3a2.2,2.2,0,0,0-.1,1.1c.1.5.6.4,1.1.4a8.3,8.3,0,0,0,4.1-1.3l.7-.5H80l1.6.6-.2-.3c0,1.5-.1,2.9-.1,4.3a7.3,7.3,0,0,0,.4,2.5l1,2.7c.3.6.1.9.1,1.4a5,5,0,0,0,.1,1.7c.2,1.4.4,2.8.7,4.2l1.5,6.3c.5,2-.8,4,0,6a9.5,9.5,0,0,1,1.1,2,5.9,5.9,0,0,1,.2,1.3,43.5,43.5,0,0,1,.2,5.1,22,22,0,0,1-.5,4.4l.3-.2c-.3-.1-2.3-.7-2,.3s.8.8,1.2,1.1l.2-.4a3.1,3.1,0,0,0-2.5,0,.9.9,0,0,0-.2,1.1,6.5,6.5,0,0,0,1.7,1.6,5.7,5.7,0,0,0,2.3,1.2,1.8,1.8,0,0,0,1.9-1.1,1.8,1.8,0,0,1,1.1-1,2.2,2.2,0,0,0,1.4-.6,1.1,1.1,0,0,0,0-.8,4.3,4.3,0,0,1-.4-.7c0-.2.2-.6.2-.8a7,7,0,0,0-.5-3.2,12.9,12.9,0,0,1-.3-3.9,25.2,25.2,0,0,1,.6-4.8c.1-.5.3-.8.4-1.3a20,20,0,0,0,.4-2.4,4.9,4.9,0,0,1,.1-1.2c0-.1.1-.7,0-.8s-.2,0-.2.1H92l.5.3,1.6,1c.4.2.4.2.4.7s.1.5.1.7.1,1.2.1,1.8v3.7a22.6,22.6,0,0,1-.1,2.6v.3c0,.1-.1.2,0,.1s-1,.1-1.3.1a.2.2,0,0,0-.1.4l1,1,.2-.3H91.9c-.2,0-.2.1-.2.2a4.8,4.8,0,0,0,3.7,3.7,1.6,1.6,0,0,0,1.5-.4c.1-.2.5-1,.3-1.2s-.2,0-.1.1.3.1.3.1a1.8,1.8,0,0,0,1-.2c.6-.2.5-.6.5-1.2a1.8,1.8,0,0,1,.4-.9,4.9,4.9,0,0,0,.1-1.2,11.1,11.1,0,0,0-.5-2.5c-.6-1.6,0-3.5.3-5.2h-.4l5.9,3,1.8,1,.6.2h0c0,.1.1.4.1.6a2.4,2.4,0,0,1,.2.8l.6,1.7c.4,1.4.9,2.8,1.3,4.2a17.8,17.8,0,0,1,1.4,5.5c.1,2.3,1.2,4.6,1.3,6.9,0,.4-.1.8-.1,1.1v2.2c0,.8.1,1.5.1,2.2a5,5,0,0,1-.5,2.1h.2c-1-.2-2.6-.5-3.5.1s-.5,2.7.1,3.5a3.2,3.2,0,0,0,1.7,1.1,7.9,7.9,0,0,0,2.2.6,2.6,2.6,0,0,0,2-.7c.2-.2.3-.4.5-.5h.5c1.4-.1,1.4-1.5,1.2-2.6s0-.1-.1-.1h0v.2a3.7,3.7,0,0,0-.1-1.8,16.2,16.2,0,0,1-.1-2.2,34.2,34.2,0,0,1,.4-4.4,3.1,3.1,0,0,1,.5-1.2,2.3,2.3,0,0,0,.7-.7c.7-.9.2-2.3-.1-3.3a9.8,9.8,0,0,1,.1-4.8,12.3,12.3,0,0,1,1.1-3.4l.2-.3c0-.1-.3-.2-.3-.1s0,.1,0,.2.3.7.4,1a14.6,14.6,0,0,1,1.6,3.9,27.9,27.9,0,0,1-.1,5,53.2,53.2,0,0,1-.6,5.6l.2-.2c-.5,0-2.7-.1-2.6.8s1.4.9,1.8,1.1v-.4l-1-.2h-1c-.3.2-.4.9-.4,1.2s1,1.8,1.9,2.2a4.8,4.8,0,0,0,3.7.3,1.6,1.6,0,0,0,.8-.6c.2-.1.3-.4.4-.5s1-.4.8-1-.5-.5-.5-.7a.6.6,0,0,1,.1-.4c0-.2-.1-.4-.1-.6a9,9,0,0,1,.3-1.6c.2-1,.5-2,.7-3s1.1-3.8,1.5-5.7a3.1,3.1,0,0,0,0-1.9,8.8,8.8,0,0,1-.6-2.7v-1.2c.3-3.4.9-6.7,1.3-10.1s.1-5.2-1.6-7.1a14.1,14.1,0,0,1-2.4-3.9,7,7,0,0,0-1.1-2.3,3.5,3.5,0,0,0-1.9-1.2,20.5,20.5,0,0,1-3.8-1.6L112.5,86l-3.3-1.9a29.4,29.4,0,0,1-6.8-4.7c-1.9-1.8-3.6-3.9-6.4-4.1-.7,0-1.3.1-1.8-.3L93,74.2c-.5-.4-.6-1.2-.8-1.8a8.5,8.5,0,0,1-.3-2.3,13.4,13.4,0,0,1,.1-2,5.8,5.8,0,0,1,.3-1.4,4.2,4.2,0,0,1,1.2-.8,18.6,18.6,0,0,0,2.7-2.2c.2-.3.6-.7.6-1.1s-.4-.6-.8-.7l-3-.4-2.7-.2a8.7,8.7,0,0,1-3.2-.3l-1.6-.5a5.6,5.6,0,0,0-2.1-.6,5.8,5.8,0,0,0-2.8,1.2l-1.5.9c-.2.2-.6.5-.9.4a1.8,1.8,0,0,1-.7-.5,2.5,2.5,0,0,0-1.7-.5,3.4,3.4,0,0,0-2.2,1.7,8.7,8.7,0,0,0-1,2.5C72.5,65.9,73,66,73,65.8Z"/><path class="cls-2" d="M120.2,129.9c-.2,0-2,0-2.4.4s1.6,1,1.6,1l-1.9-.2s-1.4,1.8,1.7,3.1,4.3-.4,4.3-.6.4-.2.8-.7-.8-1.2-.8-1.2"/><path class="cls-3" d="M94.6,110.8c-1.1,3.5,1.6,3.5,1.8,2.6s2.1-.8,2.1-.8,0-3.9-.2-4.9.6-5.3.6-5.5l-4.8-2.9C95,101.5,94.8,110.6,94.6,110.8Z"/><path class="cls-2" d="M91.7,112a4.9,4.9,0,0,0,3.5,3.5c1.6.4,1.6-1.2,1.6-1.4s.2.2,1,0,.7-.4.7-1.5-1.9,0-2.1.8-2.9.9-1.8-2.6c-.2.2-1.5.2-1.5.2l1,1Z"/><path class="cls-2" d="M83.1,118.8a8.2,8.2,0,0,0,3.9,2.9c1.2.2,1.6-1.1,2-1.7s1.2-.4,1.9-.8.2-.8-.2-1.4-2.1.2-2.3.8-2.7,2.2-2.3-1.5c-3.4-1-.7,1-.6,1.1C83.3,117.6,82.9,118.2,83.1,118.8Z"/><path class="cls-4" d="M92.9,74.8c0,.1,0,.1.1.1l-.3-.2Z"/><path class="cls-2" d="M111.8,135s-3.5-.8-3.9.4,0,3.3,1.6,3.7,3.1,1.6,4.8-.4c.2-.2,2.3.6,1.7-2.4"/><path class="cls-3" d="M73.8,67.5s-.4.4-.4.6a10.5,10.5,0,0,0,2.7,2c-.2.2-2.9,5.8-2.1,6.4,3.1.4,5.6-2.1,5.8-1.8a8.2,8.2,0,0,0,1.6.6v.4a45.9,45.9,0,0,0,0,5.3c.2,1.7,1.9,3.9,1.5,4.7s.8,6.6,1,7.2,1,4.7,1.2,5.4a9,9,0,0,1-.2,3.9c-.4,1.6.8,3,1.2,3.9s.7,7.6.5,8.8-.5,2.2-.5,2.2c-.4,3.7,2.1,2.1,2.3,1.5s2.3-.8,2.3-.8a6.3,6.3,0,0,0-.5-4.6c-.4-.8,0-8.2.7-9s.6-5.1.8-5.1,15.2,8.2,15.4,8.2c.4,2.7,3.9,11.7,3.7,12.7s1.4,6.8,1.2,7.6a56.1,56.1,0,0,0,0,5.8c0,.6-1.2,2.8-1.2,4.1s1.2,1.2,2.6.8,2.7-1,2.7-2.7-.2-6.6.2-8.2,2.3-.8,1-4.5,1.5-9.2,1.5-8.8.4,1.2,1.6,3.7-.4,13.3-.8,14.5.6,1.3,2.3,1.1a2.2,2.2,0,0,0,2-2.5c-.2-.8,2.7-10.5,2.7-11.3s-.8-2.3-.8-3.7a90,90,0,0,1,1.2-10.5,10.8,10.8,0,0,0-.8-6.9c-.5-.8-.6-.6-1.5-1.9-2.2-3.2-1.6-4.2-3-5.5s-1.7-.5-4.8-2.1a21.2,21.2,0,0,1-3-1.8c-5-3.3-5.7-3-9.3-5.6s-5.1-6.1-9.2-6.1a6.1,6.1,0,0,1-2.4-.6l-.3-.2a1.7,1.7,0,0,0-.2-.5,9.8,9.8,0,0,1-1-4.7,14.5,14.5,0,0,1,.4-3.1c4.1-2.5,4.5-3.5,4.5-4.1s-5.7-1-6.6-.8-3-.4-3.9-.6a9.3,9.3,0,0,0-2.8-.8c-1.3,0-4.3,2.4-5,2.4s-.2-.2-1.8-1-3.5,3.1-3.7,4.1S73.8,67.5,73.8,67.5Z"/><path class="cls-1" d="M75.7,70.5l2.6-2.4A6.9,6.9,0,0,1,79.6,67L81,65.9h0a1.6,1.6,0,0,0,.7-.9,1.7,1.7,0,0,0-.1-1.2,1.7,1.7,0,0,1,.1,1.2,2.3,2.3,0,0,1-.7,1h0a7.1,7.1,0,0,0-1.4,1l-1.3,1.2-2.5,2.4Z"/><path class="cls-1" d="M84.1,67.3a1.5,1.5,0,0,0-.9.6,1.8,1.8,0,0,0-.2,1,14.2,14.2,0,0,1-.5,2.2,9.5,9.5,0,0,1-2.7,3.6,9,9,0,0,0,2.5-3.6,7.9,7.9,0,0,0,.6-2.2c.1-.3,0-.7.3-1.1A1.3,1.3,0,0,1,84.1,67.3Z"/><path class="cls-1" d="M82.9,72.8a5.7,5.7,0,0,1-.4,1.4,2.3,2.3,0,0,1-1.1,1.1,3.5,3.5,0,0,0,1-1.1C82.6,73.8,82.7,73.3,82.9,72.8Z"/><path class="cls-5" d="M89.5,61.6s1.7,1.2,2.3,5"/><path class="cls-1" d="M118.5,114.3a28.7,28.7,0,0,0,1.5-3.7,18.3,18.3,0,0,0,.9-3.9,10.8,10.8,0,0,0-.1-4,9.7,9.7,0,0,0-1.6-3.6,8.3,8.3,0,0,1,1.6,3.6,13.5,13.5,0,0,1,.2,4,27,27,0,0,1-.8,3.9,23.9,23.9,0,0,1-1.5,3.7Z"/><path class="cls-1" d="M74.2,64.8c.1.4-.2.8,0,1.2s.5.5.9.6h-.7A1.1,1.1,0,0,1,74,66a.6.6,0,0,1,0-.6A1.4,1.4,0,0,0,74.2,64.8Z"/><path class="cls-6" d="M119.4,97.7a1.2,1.2,0,0,1,1,.1,3.8,3.8,0,0,1,1.4,1.1,10.4,10.4,0,0,1,1.4,2.3,13.3,13.3,0,0,1,1.1,4.4c.2,3.8-1.5,9-1.2,11.9s0,2.3.1,3-.1.9-.1.9v.9a17,17,0,0,1-1.3-5.3c-.2-2.8,1.4-9.7.7-11.8,0,0-.7-4.9-3.2-5.7"/><path class="cls-7" d="M122.4,117.3c2,2.7,1.4,4.3,2,6.6,0,.3-.5-.3-.6-1.5a4,4,0,0,0,.2,2.4c.3.8-.1.1-.5-.5a1.5,1.5,0,0,0,.1.8l-.5-1a3.7,3.7,0,0,0,1.2,2.4c.5.5-2.2-1.1-1.6-3.4a2.8,2.8,0,0,0,0,2.5,2.1,2.1,0,0,1-.7-1.8c0,.2-.1.4-.1.7h-.2c-.2-1.4.6-2.6.7-4.3a22.5,22.5,0,0,1-.8,2.4c0,.1-.2.1-.2,0s1.3-3.3.5-4.8.1.8.2.5-.3-1-.2-1.1.6,1.1.8,1.1-.3-1.1-.3-1"/><path class="cls-1" d="M94.1,75.4a5.1,5.1,0,0,1-2.1-1,2.4,2.4,0,0,1-.9-.8,2.1,2.1,0,0,1-.6-1,2.1,2.1,0,0,0,.6,1l.9.8a7.8,7.8,0,0,0,2.1.9Z"/><path class="cls-1" d="M82.8,85.8c0-.3.1-.5.1-.7l.3-.7a6.1,6.1,0,0,1,.5-1.2L85,80.9a17.2,17.2,0,0,1,3.6-4,14.8,14.8,0,0,0-3.5,4,18.3,18.3,0,0,0-1.3,2.4,6.1,6.1,0,0,0-.5,1.2,3.4,3.4,0,0,0-.4,1.2Z"/><path class="cls-1" d="M107,107.3a17,17,0,0,1,0-4.5,5.7,5.7,0,0,1,.7-2.2,3.9,3.9,0,0,1,1.4-1.7,3.9,3.9,0,0,0-1.4,1.7,7.9,7.9,0,0,0-.6,2.2,13.6,13.6,0,0,0,.1,4.5Z"/><path d="M77,65a.8.8,0,0,0,.7.5c0-.1-.1-.3-.1-.4h0v-1h0v-.3l-.4.4A.9.9,0,0,0,77,65Z"/><path class="cls-8" d="M77.2,64.8c0,.2.2.3.4.3h0v-1h0l-.3.2C77.2,64.6,77.1,64.7,77.2,64.8Z"/><path class="cls-1" d="M78.5,66.6a3.7,3.7,0,0,1-.8-3.6c.1-.1,0-.1-.1-.1a3.6,3.6,0,0,0,.8,3.7c.1.1.1,0,.1,0Z"/></g></svg>