<svg xmlns="http://www.w3.org/2000/svg" viewBox="0 0 200 200"><defs><style>.cls-1{fill:#f9a01e;}.cls-2{fill:#db970f;}.cls-3{fill:#f68b1f;}.cls-4{fill:#eac113;}.cls-5{fill:#ffc271;}.cls-6{fill:#cf7f26;}.cls-7{fill:#ffa726;}.cls-8{fill:#e28e2b;}.cls-9{fill:#fff;}.cls-10{fill:#383838;}.cls-11{fill:#ffca28;}.cls-12{fill:#fb8c00;}.cls-13{fill:#f4511e;}.cls-14{fill:#db4016;}.cls-15{fill:#5b3114;}</style></defs><g id="Hen_03"><path class="cls-1" d="M105.3,111.4a20.4,20.4,0,0,1,0,2.5,8.9,8.9,0,0,0-.2,1.1,10,10,0,0,1,2.9-.6c.7-.1-1.5.7-2.2,1.2s4.3,2.9,3.1,2.5-3.8-2-4.2-1.9a10.7,10.7,0,0,0-2.6,3c-.5.8.5-2.3,1.3-3.4l-3-.8a9.7,9.7,0,0,1,3.8.1s.2-1.2.2-1.6.1-2.9.1-2.9Z"/><path class="cls-2" d="M103.4,115.8l-3-.8a15.4,15.4,0,0,1,3.5.5s.3-.2.3-.4h0s.2-1.2.2-1.6a15.5,15.5,0,0,0,.1-2.3l.5.6a20.2,20.2,0,0,1,0,2.5,7.5,7.5,0,0,1-.2,1.1,11.4,11.4,0,0,1,2.8-.7l-1.8.9a.1.1,0,0,0,.1.1h0l3.2,2.5c-1.4-.7-4.2-2.3-4.6-2.2-1.9,2-1.8,2-1.9,2.2a3.9,3.9,0,0,0-.6,1.1A11.8,11.8,0,0,1,103.4,115.8Z"/><path class="cls-2" d="M106,107.9l-.4,4.9a1.1,1.1,0,0,1-1.2,0v-5.4Z"/><path class="cls-1" d="M106,107.9l-.2,2.9c-.6.1-1,.1-1.4-.8v-2.6Z"/><path class="cls-3" d="M107.2,99.5s2.4,1.3,2.5,3.6-2.1,5.1-2.1,5.1a6.3,6.3,0,0,1-.9,1.4,2.4,2.4,0,0,1-2.1.1c-.9-.4-1-.6-1.2-.9s-2.3-4.8-2.2-5.7S102.9,100,107.2,99.5Z"/><path class="cls-4" d="M107.5,98.1s2.5,1.3,2.5,3.6a6.7,6.7,0,0,1-2.1,5.1,5.1,5.1,0,0,1-2.9,1.5c-1.4,0-2.4-.4-2.5-.7s-1-5-.9-5.9S103.3,98.6,107.5,98.1Z"/><path class="cls-1" d="M97.3,110.3a10.9,10.9,0,0,1,.2,2.2v.9a9.6,9.6,0,0,1,2.5-.9c.5,0-1.3.9-1.9,1.4s4.1,2,3,1.9-3.5-1.4-3.9-1.3a8.8,8.8,0,0,0-1.9,2.9c-.3.8.2-2.1.8-3.1a15.7,15.7,0,0,0-2.7-.4,10.7,10.7,0,0,1,3.3-.3s.1-1,.1-1.4-.3-2.6-.3-2.6Z"/><path class="cls-2" d="M96.1,114.3l-2.7-.4a15.9,15.9,0,0,1,3.1,0,.4.4,0,0,0,.2-.3h0s.1-1,.1-1.4a11.2,11.2,0,0,1-.2-2l.5.4a10.9,10.9,0,0,1,.2,2.2v1a8.5,8.5,0,0,1,2.3-.9,9.7,9.7,0,0,0-1.5,1h.2l3,1.8a39.9,39.9,0,0,0-4.2-1.4c-1.5,1.9-1.4,1.9-1.5,2.1a10.4,10.4,0,0,0-.4,1A12.3,12.3,0,0,1,96.1,114.3Z"/><path class="cls-2" d="M97.5,107.1l.2,4.3a.9.9,0,0,1-1.1.1l-.5-4.6Z"/><path class="cls-1" d="M97.5,107.1v2.6c-.5.1-.8.2-1.3-.6l-.2-2.2Z"/><path class="cls-5" d="M97.7,99.7s2.3.9,2.6,2.9-1.4,4.7-1.4,4.7a4.5,4.5,0,0,1-.6,1.3c-.3.3-.9.4-1.8.2s-1-.3-1.2-.6-2.4-3.9-2.4-4.8S94,100.5,97.7,99.7Z"/><path class="cls-3" d="M97.8,98.5s2.3.9,2.6,2.8a6.5,6.5,0,0,1-1.3,4.7,5.4,5.4,0,0,1-2.5,1.6,2.9,2.9,0,0,1-2.2-.4,13.1,13.1,0,0,1-1.4-5C93,101.3,94.2,99.3,97.8,98.5Z"/><path class="cls-6" d="M108,86.8a6.2,6.2,0,0,0,2.7-1.2,9.7,9.7,0,0,0,2-3.7c.2-.7.3-1.2.7-1.3s1.1.9,1.3,1.3a9.4,9.4,0,0,1,1.4,4.9c0,2.8,0,5.8-.1,9.3"/><path class="cls-7" d="M111.9,101.8a9.5,9.5,0,0,1-.8,3,12.2,12.2,0,0,1-3,4.3c-1.1.8-4,.7-9.3-1.6l-1.7-.8h-.4l-3.4-1.7-.8-.5s16.7-11.5,18.8-6.5a7.4,7.4,0,0,1,.4,1.4,6.8,6.8,0,0,1,.2,1.4Z"/><path class="cls-8" d="M111.1,104.8a30.7,30.7,0,0,1-6.9,2.3,18.8,18.8,0,0,1-5.4.4,21.8,21.8,0,0,1-7.1-1.8l-2.4-1.3a9,9,0,0,1-3.6-4.9,11.3,11.3,0,0,1-.4-1.5l-.2-1.9a18.3,18.3,0,0,1,.7-5.6,6.3,6.3,0,0,0,0-2.4,5.1,5.1,0,0,0-1.4-2.5,2.9,2.9,0,0,1,.8-2.6,3.4,3.4,0,0,1,1.9-.8c2.3-.2,3.5.4,4.7,3.5s.7,3.7,3.8,3.8h.3c1.8.1,2.7-.6,4.6-1.3a19.2,19.2,0,0,1,4.8-1.3c4.7-.6,8.1,1,9.7,4.7a12.5,12.5,0,0,1,1,3.7v1.2C116.2,100.7,114.7,103.1,111.1,104.8Z"/><path class="cls-9" d="M87.5,84.6c.1.1-.1.4-.3.5s-.6.1-.7-.1.1-.5.3-.6A.6.6,0,0,1,87.5,84.6Z"/><path class="cls-10" d="M87.4,84.6a.5.5,0,0,1-.3.4c-.2.1-.4.1-.5-.1a.5.5,0,0,1,.3-.4A.3.3,0,0,1,87.4,84.6Z"/><path class="cls-9" d="M87.2,84.7H87c0-.1,0-.1.1-.1A.1.1,0,0,1,87.2,84.7Z"/><path class="cls-11" d="M84.2,85.3a3.7,3.7,0,0,0-.2,1.9c0,.2.3.2.4.1a1.9,1.9,0,0,1,1.7-1.2c.6.1.6-.1.4-.3S84.3,85,84.2,85.3Z"/><path class="cls-12" d="M85.3,85.5c.1.1,0,.2-.1.3h-.4a.4.4,0,0,1,.1-.3C85.1,85.4,85.2,85.4,85.3,85.5Z"/><path class="cls-6" d="M111.1,104.8a12.2,12.2,0,0,1-3,4.3c-1.1.8-4,.7-9.3-1.6a21.8,21.8,0,0,1-7.1-1.8,15.9,15.9,0,0,0,5.4,1c1.4,0,2.4-.3,2.6-.7,3.9,1.6,6.5.2,6.5-1.1,3.9.1,5.6-1.8,5.5-3h.2c1.9-.5,3.7-1.9,4.1-5.3C116.2,100.7,114.7,103.1,111.1,104.8Z"/><path class="cls-13" d="M88.9,83a3.2,3.2,0,0,1-1.3-.2,2.5,2.5,0,0,0-1.8.6,2.9,2.9,0,0,0-1,1.6l-.3.2c-.3.1-.1-1.4,0-1.5s0-.6.3-.7.6-.2.6-.5-.1-.6.2-.7h.5c.2-.1.2-.2.3-.4a.5.5,0,0,1,.5-.5l.2.3c.1,0,.3.1.4,0s.4-.4.6-.4.4.2.5.4.3,0,.4-.1h.1a.4.4,0,0,1,.5,0C90.1,81,89.6,82.6,88.9,83Z"/><path class="cls-14" d="M88.9,83a3.2,3.2,0,0,1-1.3-.2,2.5,2.5,0,0,0-1.8.6,2.9,2.9,0,0,0-1,1.6c.1-.7.6-2.5,2.4-2.6s2.6-.5,2.2-1.2L89,81h.1a.4.4,0,0,1,.5,0C90.1,81,89.6,82.6,88.9,83Z"/><path class="cls-6" d="M98,97.4s4.4-4.6,9-6.5,5.9,0,5.9,0,.9.7-.7,1.5a5.3,5.3,0,0,1,.1,3.8,10.1,10.1,0,0,1-13,4.5A2.4,2.4,0,0,1,98,97.4Z"/><path class="cls-8" d="M97.6,97.9a10.7,10.7,0,0,1,2-2.3s9.2-7.4,11-4.4c.4.6-.4,2-1.4,2.8s1.5,1.3.5,3.1-3.4,5-10.1,3.8h-.5C98.4,100.5,96.9,99.3,97.6,97.9Z"/><path class="cls-15" d="M88.1,82.1c0,.1,0,.1.1.1l-.5.7,1.2.6c.5.2,1.1.6,1.8,2.6a7.6,7.6,0,0,1,.4,1.1c.6,1.7,1.1,3.3,4.5,3.5H96a8.4,8.4,0,0,0,3.7-.9,3.3,3.3,0,0,1,1.2-.5,17.2,17.2,0,0,1,4.5-1.3h5.3l-.7-.7,1.5-1a8,8,0,0,0,2.2-4h.1a8.9,8.9,0,0,1,1.1,4.3v6.3l-.3-.3.3,3.4v.3c.1,2.8-.5,4.6-2.2,6a6.9,6.9,0,0,1-2.1,1.3l-.4.2v.4a10.7,10.7,0,0,1-2.8,3.8l-.7.2h-.4l-.3.2h-.5l-.6-.3-.4-.2H104a32.8,32.8,0,0,1-4.7-1.6l-1.1-.5-.4,1.1a1.7,1.7,0,0,0-.3.7H96.3l-.5-.6-.2-.4h-.4c0-.1,0-.1-.1-.2l-.2-.5-.5-.2a9.3,9.3,0,0,1-2.2-.8L90,103.4a7.5,7.5,0,0,1-3.2-4.2,4.4,4.4,0,0,1-.3-1.4s-.2-.9-.3-1.7a23.4,23.4,0,0,1,.7-5.3,7.6,7.6,0,0,0,0-3,11.9,11.9,0,0,0-.8-2l-.6-.8h0a8.1,8.1,0,0,1,.1-.9,1.6,1.6,0,0,0,1-1.1c.3-.2.5-.3.6-.5h.9m25.4-1.5h-.1c-.4.1-.5.6-.7,1.3a9.7,9.7,0,0,1-2,3.7,6.2,6.2,0,0,1-2.7,1.2h-2.7a19.2,19.2,0,0,0-4.8,1.3c-1.9.7-2.7,1.4-4.5,1.4h-.4c-3.1-.1-2.9-1.5-3.8-3.8a5.6,5.6,0,0,0-2.4-3.3c.4-.6.6-1.4.2-1.5s-.1-.1-.2-.1H89l-.3.2a.1.1,0,0,1-.1-.1c-.1-.2-.2-.4-.4-.4h-.1c-.2,0-.3.4-.6.4h-.4l-.2-.3h-.1c-.2,0-.4.4-.4.5s-.1.3-.3.4h-.5c-.3.1-.2.4-.2.7s-.3.3-.6.5-.3.4-.3.7a2.5,2.5,0,0,0-.1,1.3h0l-.2.2a3.7,3.7,0,0,0-.2,1.9.2.2,0,0,0,.2.2h.2a1.8,1.8,0,0,1,.7-.9,6.7,6.7,0,0,1,.7,1.7,6.3,6.3,0,0,1,0,2.4,18.3,18.3,0,0,0-.7,5.6l.2,1.9a11.3,11.3,0,0,0,.4,1.5,9,9,0,0,0,3.6,4.9l2.4,1.3a11.7,11.7,0,0,0,2.4.9,1.6,1.6,0,0,0,.3.6l.5.3a4.3,4.3,0,0,0,.4.7,1.7,1.7,0,0,0,1,.6v.3h0l.3,2.4h.1c0,.2.1.3.1.4s-.1,1.4-.1,1.4h-.6a9.5,9.5,0,0,0-2.7.4l2.7.4-.2.4h0a20.8,20.8,0,0,0-.7,2.6h0v-.2a8.8,8.8,0,0,1,1.9-2.9h.1c.6,0,2.6,1,3.8,1.3h.2c.3-.1-2.3-1.5-3-1.8h-.2l.3-.2h.2l.2-.2c.7-.4,1.5-.9,1.2-.9h0a9.6,9.6,0,0,0-2.5.9v-1.8l.2-.2v-2.5l.7-.3a3.7,3.7,0,0,0,.5-1.1,36.4,36.4,0,0,0,4.9,1.7l.7.4v.4h0v2.8h.1v.3c0,.2,0,.3-.1.4s-.2,1.6-.2,1.6h0a7.2,7.2,0,0,0-2.3-.2c-.9,0-1.8,0-1.5.1l3,.8a.8.8,0,0,0-.2.4h-.1l-.2.4h0a9.3,9.3,0,0,0-.5,1h0a.8.8,0,0,1-.2.5h0a2.5,2.5,0,0,0-.2.7h0v.2h0a.3.3,0,0,1,.1-.2,10.7,10.7,0,0,1,2.6-3h0c.6,0,2.8,1.5,4.2,1.9h.2c.3-.1-2.5-2-3.2-2.5h0a.1.1,0,0,1-.1-.1l1.4-.7c.6-.3,1.2-.5.9-.5H108a10,10,0,0,0-2.9.6,8.9,8.9,0,0,1,.2-1.1v-1h.3l.2-2.9a1.2,1.2,0,0,0,.9-.3h.1a2.5,2.5,0,0,0,1.3-.4,12.2,12.2,0,0,0,3-4.3,10,10,0,0,0,2.3-1.4c2-1.6,2.8-3.7,2.6-6.9v-.4h0c.1-3.5.1-6.5.1-9.3a9.4,9.4,0,0,0-1.4-4.9c-.2-.4-.7-1.3-1.2-1.3Z"/></g></svg>