<svg xmlns="http://www.w3.org/2000/svg" viewBox="0 0 200 200"><defs><style>.cls-1{fill:#fcdaad;}.cls-2{fill:#e0b886;}.cls-3{fill:#6b5e4d;}.cls-4{fill:#726556;}.cls-5{fill:#cea476;}.cls-6{opacity:0.44;}.cls-7{fill:#aa8157;}.cls-8{fill:#68553e;}.cls-9{fill:#424242;}.cls-10{fill:#fff;}.cls-11{fill:#564b3e;}.cls-12{fill:#3f3d3d;}.cls-13{fill:none;stroke:#3f3d3d;stroke-miterlimit:10;stroke-width:1.2px;}</style></defs><g id="Goat_02"><g id="Goat_02-2" data-name="Goat_02"><path class="cls-1" d="M50.9,68.5l-1.4-.2c1.7,1.7,4.8,4,9.7-.1a4,4,0,0,1,1.6-.8,6.5,6.5,0,0,1,4.9,1.4,1.8,1.8,0,0,0,2.2-.6,17.9,17.9,0,0,0,2.2-3.1,4.6,4.6,0,0,1-2.2-.5,9.6,9.6,0,0,1-2-1.3,14,14,0,0,1-3.5-4.6,4.2,4.2,0,0,1-.3,1.2c-1.3-1.7-2.8-2.4-3.7-2.2a1.2,1.2,0,0,1,.5,1.2,4.2,4.2,0,0,0-4.6,1.6,2.2,2.2,0,0,1,1.6.5c-.6,1.3-2.1,4.5-3.8,4.4.2.5,1.5.5,1.5.5s-2.8,1.7-5.2.2A7.2,7.2,0,0,0,50.9,68.5Z"/><path class="cls-2" d="M153.6,82.7c-1.8,9.1-6.7,2.9-10,5.9-1.7,1.4-2.5-.7-1.7-2.6,2.4-5.4,7.5-2.7,11-4.6C153.8,80.9,153.8,81.6,153.6,82.7Z"/><path class="cls-1" d="M143.9,87.7s.8-1.6,4.3-2.1,4.5-3.8,4.8-3.6,0,3.7-1.9,5S146.7,86.3,143.9,87.7Z"/><path class="cls-3" d="M109.8,150.4l-1.1-2.1.4.3.2.2.5.3a3.2,3.2,0,0,0,1.4.3l-.8-1.2a10.5,10.5,0,0,1-1.2-2.9,6.5,6.5,0,0,0-2.4-.5,3.2,3.2,0,0,0-2.5,1.1,1.1,1.1,0,0,0-.1.5C103.7,151,108.2,150.5,109.8,150.4Z"/><path class="cls-1" d="M104.3,145.8l.3.3.5.2h.5a3.3,3.3,0,0,0,2.2,0h.1a3.1,3.1,0,0,0,1.3-1s-1.4-7.4,0-9.5.8-2.9.8-5.4a75.6,75.6,0,0,1,1.7-9.1c.4-1.3.7-2.5.9-3.5l.7-2.7a7.3,7.3,0,0,0-4.5-4h-.5a10.3,10.3,0,0,0-4.2.3s.2,1.6.3,3.8a6.1,6.1,0,0,1,.1,1.4c.2,2.8.4,6.1.4,8.7s-.1,3.5-.4,3.9c-1.3,2-.2,4.2,0,6.7.5,5.1-.9,4.9-.9,6.3S104.5,144.2,104.3,145.8Z"/><path class="cls-4" d="M108.3,147.4l.4.9.4.3.2.2.5.3a3.2,3.2,0,0,0,1.4.3S108.8,148.4,108.3,147.4Z"/><path class="cls-4" d="M109.8,150.4s-5.1-.6-5.6-4C103.7,151,108.2,150.5,109.8,150.4Z"/><path class="cls-3" d="M79,118.9l-1.2-2.1a3.6,3.6,0,0,0,2.5,1.1,14.9,14.9,0,0,1-2-4s-3.3-.3-4.9.5a4.3,4.3,0,0,1-.1.5C72.9,119.5,77.4,119,79,118.9Z"/><path class="cls-4" d="M80.3,117.9s-2.3-1-2.9-2l.4.9A4,4,0,0,0,80.3,117.9Z"/><path class="cls-4" d="M79,118.9s-5.1-.6-5.7-4C72.9,119.5,77.4,119,79,118.9Z"/><path class="cls-5" d="M82.4,83.6s-3.3,12.8-3.3,15.3.6,3.2-.8,5.4,0,9.6,0,9.6-1.5,2.3-4.9.5c.3-1.7-.6-2.3-.6-3.7s1.3-1.2.8-6.4c-.2-2.5-1.2-4.7,0-6.7s-.3-17.8-.3-17.8C77.7,78.6,80.6,80,82.4,83.6Z"/><path class="cls-3" d="M122,143.7l-1.2-2.1a3.6,3.6,0,0,0,2.5,1.1,13.6,13.6,0,0,1-2-4s-3.3-.3-4.9.6a1.1,1.1,0,0,1-.1.5C115.9,144.4,120.4,143.9,122,143.7Z"/><path class="cls-4" d="M123.3,142.7s-2.3-.9-2.9-1.9l.4.8A3.5,3.5,0,0,0,123.3,142.7Z"/><path class="cls-4" d="M122,143.7s-5.1-.6-5.7-3.9C115.9,144.4,120.4,143.9,122,143.7Z"/><path class="cls-5" d="M125.4,108.4s-3.2,12.8-3.2,15.3.5,3.2-.9,5.4,0,9.6,0,9.6-1.5,2.3-4.9.6c.3-1.7-.6-2.4-.6-3.8s1.3-1.2.9-6.4c-.3-2.4-1.3-4.7-.1-6.6s-.3-17.8-.3-17.8C120.7,103.4,123.6,104.9,125.4,108.4Z"/><path class="cls-3" d="M66.8,125.5l-1.1-2,.2.2,1.2.7h1a13.1,13.1,0,0,1-1.9-4s-3-1.5-4.9.5a1.3,1.3,0,0,0-.1.6C60.7,126.2,65.2,125.7,66.8,125.5Z"/><path class="cls-1" d="M61.3,121c.1.2.2.2.3.2l.5.2a3.4,3.4,0,0,0,2.8.1,3.2,3.2,0,0,0,1.3-1s-1.4-7.4,0-9.6.8-2.8.8-5.4a13.4,13.4,0,0,1,.3-2.2c.3-1.9.9-4.5,1.5-6.9s1.5-6.2,1.5-6.2a7.7,7.7,0,0,0-2.6-3,5.2,5.2,0,0,0-2.5-1.1,8.7,8.7,0,0,0-4.1.4h0c.1.5.2,1.8.3,3.6.3,4.9.8,13.1.1,14.1s-.2,4.2,0,6.6c.4,5.2-.9,5-.9,6.4S61.5,119.4,61.3,121Z"/><path class="cls-4" d="M65.3,122.6l.3.8.3.3,1.2.7h1C68.2,124.5,65.8,123.6,65.3,122.6Z"/><path class="cls-4" d="M66.8,125.5s-5.1-.6-5.6-3.9C60.7,126.2,65.2,125.7,66.8,125.5Z"/><path class="cls-1" d="M61.1,86.5h0c.4,3.4,4.1,18.7,6.2,16.7a25.6,25.6,0,0,0,5.1-8.8c8.8,15.9,19.1,15.5,32.1,22h.2l2.1,1.1.6.2c1.4.4,3,0,4.5-.1h.7a38.9,38.9,0,0,0,21.1-7.6,25.3,25.3,0,0,0,4.2-3.7c8-8.5,8-18.9-3.4-19.7-3.2,2-6.4.9-9.6,1.2s-12.7-3.3-21.2-8.3c-12.1-7-14.9-18-30.4-18.5a10.4,10.4,0,0,0-4.7,1C63.2,64.9,60.2,73.1,61.1,86.5Z"/><path class="cls-1" d="M145.6,87.6c3.8,4.7,4.5,8.2,6.5,13.4s2.7,7.2-.6,9.7a4.2,4.2,0,0,1-4.5.6,10.7,10.7,0,0,1-4.6-3.6c-.5-.6-6.2-.3-10-4.7s-3.3-10.3-2.3-13.5S142.2,83.4,145.6,87.6Z"/><path class="cls-6" d="M152.4,105a.2.2,0,0,1,.4.2,2.8,2.8,0,0,1-1.2,2.1,3.8,3.8,0,0,1-1.4,3.7c-.1.1-.4-.1-.3-.3a5.6,5.6,0,0,0,1-3.2,6,6,0,0,1-2.2-.8c-.3-.3-.5-.8.5-.5S151.5,106.6,152.4,105Z"/><path class="cls-7" d="M137.5,97s.7,2.1,1.8,2.1,1.4-.6,2.1-.2a4.6,4.6,0,0,1-.5-1c-.3-.7-.6-1.5-1.4-1.8S137.9,96.4,137.5,97Z"/><path class="cls-8" d="M137.7,96.8a2.1,2.1,0,0,0,1.9,1.9,1.6,1.6,0,0,0,1.3-.8c-.3-.7-.6-1.5-1.4-1.8A1.3,1.3,0,0,0,137.7,96.8Z"/><path class="cls-9" d="M140.3,97.5c0,.2-.1.6-.3.6a5.1,5.1,0,0,1-1.8-.9c-.1-.3.1-.7.2-.7A11.4,11.4,0,0,1,140.3,97.5Z"/><path class="cls-10" d="M138.4,96.9a.4.4,0,0,0,.4.4.4.4,0,0,0,0-.8A.4.4,0,0,0,138.4,96.9Z"/><path class="cls-3" d="M134.4,71.6A43.8,43.8,0,0,1,140.5,86c.3,1.3,2.6,2.1,3.5,1.2a1.8,1.8,0,0,0,.3-1.8C143.5,82.2,140.9,75.4,134.4,71.6Z"/><path class="cls-2" d="M123.4,101.9c10.9,3.4,7-5.5,12.2-7.4,2.5-.9.8-3.1-1.8-3.3-7.2-.6-7.2,6.5-11.4,9.2C121.3,101.1,122,101.5,123.4,101.9Z"/><path class="cls-1" d="M134.4,94.3s-2.1,0-4.8,3.5-6.6,2.6-6.6,3.1,4,2.1,6.5.8S131.3,96.6,134.4,94.3Z"/><path class="cls-3" d="M125.4,77.1a42.3,42.3,0,0,1,9.8,12.2c1.3,2.4,3.4,1.9,3.9.4a3.4,3.4,0,0,0-.4-2.1C137.1,84.8,132.6,79,125.4,77.1Z"/><path class="cls-2" d="M72.4,94.5c8.9,16,19.3,15.5,32.3,22.1h.2s.9-4.9.2-5.6-12.2,0-18.1-5.3-12-19-13-18.3S72.4,94.5,72.4,94.5Z"/><path class="cls-11" d="M125.4,77.1a42.3,42.3,0,0,1,9.8,12.2c1.3,2.4,3.4,1.9,3.9.4s-1.2,1.5-2.9-.6S129.9,79.4,125.4,77.1Z"/><path class="cls-11" d="M134.4,71.6A43.8,43.8,0,0,1,140.5,86c.3,1.3,2.6,2.1,3.5,1.2l.2-.3s-1.2.8-2.8-1.2S138.5,75.8,134.4,71.6Z"/><path class="cls-12" d="M108.3,151.1a5.3,5.3,0,0,1-3.8-1.2,4.5,4.5,0,0,1-1-3.6c0-.1.1-.2.1-.4v-.2a2.8,2.8,0,0,0-.3-1.8,6.9,6.9,0,0,1-.4-1.8,2.9,2.9,0,0,1,.4-1.4c.4-.6.8-1.6.5-4.9a12.5,12.5,0,0,0-.3-1.9c-.3-1.8-.6-3.5.4-5.1,0,0,.3-.6.3-3.6s-.2-5.4-.3-8.3c-3.2-1.5-6.2-2.7-9.1-3.8l-4.9-1.9h0l-.8-.4H89l-3.9-1.9-.5-.3-.4-.2-.6-.4-.3-.2-.6-.4-.3-.2-.7-.5-.2-.2-.8-.5-.2-.2-.7-.6v-.2l-.7-.5v.2c-.9,1.5-.4,6.4.1,9.1a11.2,11.2,0,0,0,1.9,3.8l.7,1h-2l.4.9H79c-1.3.1-3.8.3-5.3-1.2a3.7,3.7,0,0,1-1-3.5h0v-.3a.4.4,0,0,1,.1-.3h0a3.8,3.8,0,0,0-.3-1.9,4.3,4.3,0,0,1-.4-1.7,2.3,2.3,0,0,1,.4-1.4c.3-.7.8-1.6.5-5l-.3-1.9c-.3-1.7-.7-3.5.4-5.1h0V97a4.3,4.3,0,0,0-.4-.7l-.2-.3a25.4,25.4,0,0,1-4.6,7.6,10.9,10.9,0,0,0-.2,1.9v1.6a5.5,5.5,0,0,1-1,4.2c-.9,1.4-.4,6.3.1,9.1a11.9,11.9,0,0,0,1.9,3.7l.6,1H67.4c0,.1.1.2.1.3v.7h-.7c-1.3.1-3.9.4-5.4-1.1a4.7,4.7,0,0,1-1-3.6,1.1,1.1,0,0,1,.1-.5h0a3.4,3.4,0,0,0-.3-1.8,4.8,4.8,0,0,1-.4-1.8,2.9,2.9,0,0,1,.4-1.4c.4-.7.8-1.6.5-4.9a13.8,13.8,0,0,0-.3-2c-.3-1.7-.6-3.5.4-5.1s.5-4.5-.2-13.6c-.1-1.7-.2-3.1-.2-3.6v-.2c-.6-7.6.2-13.9,2.2-18.4H60.9a3.1,3.1,0,0,0-1.3.6c-3.8,3.2-7.4,3.2-10.6.1l-2.2-2.2,1.5.5-.5-.7-1.2-2.2,2.1,1.3a4.2,4.2,0,0,0,3.3.8l-.6-.6-.4-1h1.1c1.1,0,2.4-2.4,3-3.6H53.2l.5-.9a4.5,4.5,0,0,1,4.1-2.1l-1.4-.8,1.9-.3a4.5,4.5,0,0,1,3.5,1.5V55.9L63,58.4a14.4,14.4,0,0,0,3.3,4.4.1.1,0,0,1,.1.1l1.9-1.3a10.4,10.4,0,0,1,5-1c10.2.3,15.1,5.1,20.4,10.2A46.2,46.2,0,0,0,104,79.1c9,5.3,18,8.5,20.8,8.2h3.1a14,14,0,0,0,2.9,0l1.7-1.2a36.4,36.4,0,0,0-7.6-8.5l-2.4-2,3,.8a23.1,23.1,0,0,1,12,8.3h1.9A42.1,42.1,0,0,0,133.9,72l-1.7-2.5,2.6,1.5a23.1,23.1,0,0,1,9.3,11.5,11.7,11.7,0,0,1,4.5-.9,9,9,0,0,0,4-.8,1.4,1.4,0,0,1,1.4-.1c.6.5.4,1.3.3,2.2-1.3,6.3-4.2,5.9-6.6,5.6H147c2.5,3.4,3.5,6.2,4.8,9.8l.9,2.6v.2c1.6,4.3,2.7,7.4-.9,10.2a5.2,5.2,0,0,1-5.2.8,14.5,14.5,0,0,1-4.8-3.8l-1.1-.2-2.8-.7a26.8,26.8,0,0,1-3.9,3.5,36.7,36.7,0,0,1-9.8,5.2,54.7,54.7,0,0,0-1.5,7.7c0,.7.1,1.2.1,1.6a5.9,5.9,0,0,1-1,4.2c-.9,1.4-.4,6.3.1,9.1a13,13,0,0,0,1.9,3.7l.7,1.1h-2l.4.9h-1c-1.3.1-3.8.4-5.3-1.1a4.3,4.3,0,0,1-1-3.6,1.3,1.3,0,0,1,.1-.6h0a3.6,3.6,0,0,0-.3-1.8,4.8,4.8,0,0,1-.4-1.8,2.9,2.9,0,0,1,.4-1.4c.3-.7.8-1.6.5-4.9l-.3-2c-.3-1.7-.7-3.5.4-5.1a13.9,13.9,0,0,0,.2-4.1l-3.1.4-.8,3c-.4,1.9-1.8,7.5-1.8,9s.1,1.1.1,1.6a5.3,5.3,0,0,1-1,4.1c-.8,1.3-.5,5.6.1,9.1a12.6,12.6,0,0,0,1.2,2.6,7.5,7.5,0,0,0,.7,1.2l.7,1h-2l.5.9h-2.6Zm-3.3-5.5h0v.8a2.6,2.6,0,0,0,.6,2.5c.8.8,2.2.8,3.3.8-.5-1.1-.6-1.4-.2-1.7l.4-.3.7.4a13.6,13.6,0,0,1-1.2-2.7h0c-.3-1.9-1.3-7.8.1-10a4.2,4.2,0,0,0,.8-3.3c0-.5-.1-1-.1-1.7s.6-4,1.8-9.3l1-4h.5l4.3-.5h.7v.7c0,4.2-.2,5.2-.5,5.6s-.5,2.6-.2,4.2a11.8,11.8,0,0,1,.3,2.1c.4,3.7-.2,4.8-.6,5.6a1.3,1.3,0,0,0-.3.8,5,5,0,0,0,.3,1.3,3.5,3.5,0,0,1,.4,2.1v.9h0a3,3,0,0,0,.6,2.5,4.3,4.3,0,0,0,3.3.8c-.4-.9-.4-1.2-.1-1.6l.4-.3.6.4a12.8,12.8,0,0,1-1.1-2.7c-.2-.9-1.4-7.8.1-10.1a5,5,0,0,0,.8-3.4,8.6,8.6,0,0,1-.1-1.7,49.3,49.3,0,0,1,1.6-8.3V115h.4a36.7,36.7,0,0,0,9.8-5.2,28.6,28.6,0,0,0,4.1-3.6l.3-.3h.4a27.5,27.5,0,0,0,3,.8c1,.1,1.5.2,1.8.6a11.8,11.8,0,0,0,4.3,3.4,3.5,3.5,0,0,0,3.9-.6c2.7-2.1,2.1-4,.4-8.6v-.2l-1-2.7c-1.3-3.8-2.4-6.8-5.4-10.5l-.8-1h1.3l2.2.2c2.3.2,4.2.5,5.2-4.6a.7.7,0,0,1,.1-.5,11.2,11.2,0,0,1-4.4.9c-1.7,0-3.3.1-4.5,1.1l-.8.5-.3-.8a21.8,21.8,0,0,0-6.5-9.8A43.8,43.8,0,0,1,141,85.1l.2,1h-.9a10.1,10.1,0,0,0-3,.1h-.4l-.2-.3a23.4,23.4,0,0,0-8.5-7,47,47,0,0,1,5.9,7.3l.4.6-.7.3a7.6,7.6,0,0,0-2.2,1.4l-.2.2h-3.5a14,14,0,0,0-2.9,0c-3.4.3-13.1-3.5-21.7-8.4a55.1,55.1,0,0,1-10.6-8.6c-5.2-5.1-9.8-9.5-19.4-9.8a9.1,9.1,0,0,0-4.4.9l-2,1.4-.4.4-.4-.3-.6-.4a14.6,14.6,0,0,1-2.9-3.5l-.2.9-.8-1a5.8,5.8,0,0,0-2-1.7v1.2l-.8-.2a4.2,4.2,0,0,0-3.2.4l.8.5.4.3-.4.8A15.5,15.5,0,0,1,54,65.3h.9l-.8,1a3.6,3.6,0,0,1-3.2,1.4l.3.2,1.8,1-1.5.2c1.7,1,4,1.3,7.2-1.4a4.6,4.6,0,0,1,2-.9,5.6,5.6,0,0,1,3.1.2l.7.3-.3.7c-2.1,4.2-2.9,10.6-2.4,18.4v.2c.1.5.2,1.9.3,3.6.9,13,.2,14.1-.1,14.4s-.5,2.6-.2,4.2a11.2,11.2,0,0,1,.4,2.1c.3,3.7-.3,4.8-.7,5.6a2.4,2.4,0,0,0-.2.8,2.8,2.8,0,0,0,.3,1.3,6,6,0,0,1,.4,2.1v.2l-.2.4v.3a2.5,2.5,0,0,0,.6,2.5c.8.9,2.5.9,3.6.8a1.2,1.2,0,0,1,.4-1l.3-.2a13.6,13.6,0,0,1-1.3-3c-.1-.9-1.4-7.8.1-10.1a4.5,4.5,0,0,0,.8-3.4c0-.5-.1-1-.1-1.7a15.8,15.8,0,0,1,.3-2.3v-.4a26.7,26.7,0,0,0,5-8.5l.4-1.5.8,1.3.8,1.5.6.9V97a4.1,4.1,0,0,1-.3,1c-.8,1.2-.5,2.5-.2,4.1l.3,2.1c.3,3.7-.2,4.8-.6,5.7a1.3,1.3,0,0,0-.3.8,7.9,7.9,0,0,0,.3,1.3,4.4,4.4,0,0,1,.4,2.1l.6.4-.7.4h0a3.1,3.1,0,0,0,.6,2.5,4.2,4.2,0,0,0,3.3.8c-.4-.9-.4-1.3-.1-1.6l.4-.3.6.4a12.8,12.8,0,0,1-1.1-2.7c-.2-.9-1.4-7.9.1-10.2l.5-.9.4-.9,1,1.1.8.7.2.2a1.8,1.8,0,0,0,.7.5l.2.2.6.5.3.2.6.5.3.2.6.4.3.2.6.3,4.7,2.5.7.3h.2l4.7,1.9c3.1,1.2,6.2,2.4,9.6,4.1l.4.2v.4c.2,3,.3,6.2.3,8.7s-.3,4.1-.4,4.3-.6,2.5-.3,4.1a15.5,15.5,0,0,1,.4,2.1c.3,3.7-.3,4.8-.7,5.6a3.1,3.1,0,0,0-.2.8,2.8,2.8,0,0,0,.3,1.3A4.8,4.8,0,0,1,105,145.6ZM78.8,116.8v.4h0l.2-.3A.1.1,0,0,0,78.8,116.8Zm63.1-8.7Z"/></g><path class="cls-13" d="M73.8,96.9s3.6,5.5,6.4,7.7"/><path class="cls-12" d="M63.9,68.3,62.8,68a10.2,10.2,0,0,1,3.3-4.7l.7.9A9.2,9.2,0,0,0,63.9,68.3Z"/><path class="cls-12" d="M117.1,117.9l-.3-1.3c.1,0,5-1.1,6.7-1.7l.4,1.2A54.7,54.7,0,0,1,117.1,117.9Z"/></g></svg>