<svg xmlns="http://www.w3.org/2000/svg" viewBox="0 0 200 200"><defs><style>.cls-1{isolation:isolate;}.cls-2{fill:#6d4c41;stroke:#000;stroke-miterlimit:10;stroke-width:0.11px;}.cls-3{fill:#353535;}.cls-4{fill:#262525;}.cls-5{fill:#c99673;}.cls-13,.cls-6{fill:#eee;}.cls-12,.cls-6{mix-blend-mode:multiply;}.cls-7{fill:#cec4c2;}.cls-8{fill:#bcaeac;}.cls-9{fill:#f4987f;}.cls-10{fill:#ffab91;}.cls-11{fill:#a7754f;}.cls-14{fill:#7c4738;}.cls-15{fill:#602f28;}.cls-16{fill:#3e2723;}.cls-17{fill:#fff;}.cls-18{fill:#4c2e19;}</style></defs><g class="cls-1"><g id="Cow_01"><path class="cls-2" d="M86.3,161.9s2.8-1.1,3.5-2.3l-.5,1A4.3,4.3,0,0,1,86.3,161.9Z"/><path class="cls-3" d="M134.7,119.8l1.4-2.5a4.4,4.4,0,0,1-3,1.2,14,14,0,0,0,2.4-4.7s3.7-1.5,5.8.7a1.1,1.1,0,0,1,.1.5C142,120.5,136.6,119.9,134.7,119.8Z"/><path class="cls-4" d="M133.1,118.5s2.8-1.1,3.5-2.3l-.5,1.1A4.4,4.4,0,0,1,133.1,118.5Z"/><path class="cls-4" d="M134.7,119.8s6.1-.8,6.7-4.8C142,120.5,136.6,119.9,134.7,119.8Z"/><path class="cls-3" d="M149.2,127.6l1.4-2.4a4.4,4.4,0,0,1-3,1.2,15.7,15.7,0,0,0,2.3-4.7s3.9-2,5.9.6a1.3,1.3,0,0,0,.1.6C156.4,128.4,151,127.8,149.2,127.6Z"/><path class="cls-4" d="M147.6,126.4s2.7-1.1,3.4-2.3l-.4,1.1A4.7,4.7,0,0,1,147.6,126.4Z"/><path class="cls-4" d="M149.2,127.6s6-.7,6.7-4.7C156.4,128.4,151,127.8,149.2,127.6Z"/><path class="cls-3" d="M73.5,155.2l1.4-2.5a4.1,4.1,0,0,1-3,1.3,15.7,15.7,0,0,0,2.3-4.7s3.9-.4,5.9.6c0,.2.1.4.1.6C80.7,156,75.4,155.4,73.5,155.2Z"/><path class="cls-4" d="M71.9,154s2.7-1.1,3.4-2.3l-.4,1.1A4.7,4.7,0,0,1,71.9,154Z"/><path class="cls-4" d="M73.5,155.2s6-.7,6.7-4.7C80.7,156,75.4,155.4,73.5,155.2Z"/><path class="cls-5" d="M48.8,95.4s-1.4-5.1-3.6-6.4-8.5-.5-8.6,1,3.6,7.9,11,6.9Z"/><path class="cls-6" d="M45.1,92.4c-1-.9-2.1-2.1-5.6-1.9a.6.6,0,0,0-.6.9c.8,1.3,2.5,3.5,4.9,3.9A1.7,1.7,0,0,0,45.1,92.4Z"/><path class="cls-7" d="M49.4,91.1l-2.9,3.4a9.3,9.3,0,0,1-3.3-5.7,4.5,4.5,0,0,1-.1-1.1,9.3,9.3,0,0,1,.2-2.3c.2-.5,1-.6,1.2-.1L46,87.7a18.8,18.8,0,0,0,2.2,2.6A4.2,4.2,0,0,0,49.4,91.1Z"/><path class="cls-8" d="M49.4,91.1l-2.9,3.4a9.3,9.3,0,0,1-3.3-5.7c.2.5,2.3,5.2,5,1.5A4.2,4.2,0,0,0,49.4,91.1Z"/><path class="cls-5" d="M140.8,87.1c-.3,2.7-.1,4.6.4,5.3s.9,2.5.5,5.1c-1.6,10-.2,9.6-.2,11.5s-.9,2.6-.2,5.4c0,0-6.6,2.5-5.8-.6,1.8-7.4.8-11.5-.2-14.6-1.8-5.3-5.7-6.2-7.7-14a65.6,65.6,0,0,1-1.8-12.9c1.3-7.9,9.1-11.1,14-9.9a.5.5,0,0,1,.4.2c2.2.8,3.6,4.6,3.6,4.6v.2c-.3,2.3-.8,5-1.2,7.7C141.8,79.3,141.2,83.7,140.8,87.1Z"/><path class="cls-5" d="M69.4,113.3s3.9,15.2,3.9,18.2-.7,3.8.9,6.4,0,11.4,0,11.4,1.8,2.7,5.9.6c-.4-2,.8-2.8.8-4.4s-1.6-1.4-1.1-7.6c.3-2.9,1.5-5.6,0-7.9s.4-21.2.4-21.2C75,107.4,71.5,109.1,69.4,113.3Z"/><path class="cls-9" d="M142,105.3c-.9.2-1.3-1.2-1.5-2.5s-.1-2.5-.1-2.5l2.2-1.7a30.1,30.1,0,0,1,.4,3.2C143,103.5,142.9,105.1,142,105.3Z"/><path class="cls-9" d="M138.9,99.1a26.4,26.4,0,0,1-1.1,3.8c-.5,1.3-1.1,2.4-1.9,2.2s-.8-1.5-.5-2.8a19.5,19.5,0,0,1,.8-2.4Z"/><path class="cls-9" d="M135.1,98.1a32.5,32.5,0,0,1-2.1,3.1c-.9,1.1-1.9,2.1-2.6,1.7s-.2-1.8.5-3a21.8,21.8,0,0,1,1.3-1.9Z"/><path class="cls-3" d="M87.9,163.1l1.4-2.5a4.1,4.1,0,0,1-3,1.3,14.4,14.4,0,0,0,2.4-4.8s3.6-1.8,5.8.7a1.3,1.3,0,0,1,.1.6C95.2,163.9,89.8,163.3,87.9,163.1Z"/><path class="cls-10" d="M148.3,94.8a15.3,15.3,0,0,1-4.6,6.6c-7.1,5.3-16.2-4.3-16.2-4.3-1.7-6.1,4.4-10.8,10.5-12.2S152,85.8,148.3,94.8Z"/><path class="cls-9" d="M148.3,94.8a15.3,15.3,0,0,1-4.6,6.6c-1.5-2-3.3-6.2-10.6-2-2.5,1.4,5.2-12.1,4.9-14.5C144.9,83.3,152,85.8,148.3,94.8Z"/><path class="cls-5" d="M85.6,128.5h0l-.3.2h-.6l-.5.2H77.7c0-.1-.1-.1-.2-.1H77a6.1,6.1,0,0,1-1.8-.9H75l-.3-.2h-.2L73,126.8h-.1l-.5-.5h0l-.4-.4h0l-.4-.5c-1.1-1.2-2.2-2.6-3.5-3.9l-.2-.3c-.1-.1-.3-.2-.4-.4l-.2-.2-1.2-1h-.2l-1-.7-1.9-1h-.1l-2.4-.8-1.1-.2H58.3a9.2,9.2,0,0,1-2.5-.6l-.4-.2c-3.2-1.5-5.1-5.1-6.2-9a8.5,8.5,0,0,1-.4-1.7,11.1,11.1,0,0,1-.2-1.9,39.7,39.7,0,0,1,2-13.5c0-.1,7.5-1.2,14.1-5.6a14.8,14.8,0,0,0,3-2.3,8.3,8.3,0,0,0,1.7-2.1c2.5-4.5,14.8-10.4,27.1-15.4l4.1-1.6,10.5-3.9,2.2-1c8.3-3.6,14.4-9.6,18.7-13.9s5.1-5,6.7-5.1c3.9-.3,9.6,5.1,11.4,5.1s4-.6,5,3.8c.1.5.3,1.3.6,2.3h0l.8,3.3h0c.1.6.3,1.3.4,1.9s.1.6.2.9h0a9329101592432.4,9329101592432.4,0,0,0,.2,1,1.3,1.3,0,0,1,.1.6h0a.3.3,0,0,1,.1.2c0,.2.1.4.1.6v.2a4.3,4.3,0,0,1,.1.5h0a.9.9,0,0,1,.1.5c0,.1.1.2.1.4h0c0,.3.1.6.1.8h0c.7,4.8,1.1,9.9.2,14h0l-.3,1.3-.3.7-.3,1.1c-.2.4-.3.9-.5,1.3a23.4,23.4,0,0,1-4.5,8l-.4.5a12.6,12.6,0,0,1-2.6,2.1c-2.5,1.7-5.1,2.2-7.3,2.8h-.3l-.6.2h-1.2l-.7.2-.2.2h-.8a.1.1,0,0,1-.1.1h-.5l-.3.2h0c0,.1,0,.1-.1.1h-.1a.1.1,0,0,0-.1.1h-.1a.1.1,0,0,0-.1.1h-.2v.2l-.3.3-.3.2c0,.1-.1.1-.1.2h-.1l-.9.9-.3.2-1.1,1h0l-.2.2h-.1l-.3.3-.6.5c-.2.1-.3.3-.4.4l-.8.6h-.1c-.1.2-.3.3-.4.4l-.5.4h0l-2.2,1.8h-.3l-.3.2h-.1l-.8.6a.1.1,0,0,1-.1.1h-.1a62.3,62.3,0,0,1-5.6,4.1l-.4.3-3.5,2.2-.4.2-.3.3-.4.2h-.1l-.4.2-.4.2-.8.5-.4.2-.8.5-.4.2-.4.2-2.3,1.2-.6.2-3.5,1.6h-.3l-.9.4-.5.2-.9.3-.4.2-1.7.6-.7.2-.5.2H99l-2.9.8H94.3"/><path class="cls-5" d="M158.2,75.3c-.4,2.3-.9,5-1.3,7.7-.7,4.2-1.3,8.6-1.7,12s-.1,4.6.5,5.3.9,2.5.4,5.1c-1.6,10-.2,9.6-.2,11.5s-.9,2.6-.1,5.4c0,0-6.6,2.5-5.9-.6,1.8-7.4.9-11.5-.2-14.7-1.8-5.2-5.7-6.1-7.7-13.9a67.2,67.2,0,0,1-1.8-12.6v-.3"/><path class="cls-5" d="M94.6,116.7h.1v.2c0,.5-.1,2.1-.3,4.3h0c-.3,5.8-.8,15.5,0,16.7h.1v.2h.1c0,.1,0,.2.1.2v.2c.1,0,.1.1.1.2l.2.6a.9.9,0,0,0,.1.5v.6a10,10,0,0,1-.2,1.6,1.3,1.3,0,0,1-.1.6,1.7,1.7,0,0,1-.1.7c0,.2-.1.4-.1.6a2,2,0,0,0-.1.7,2,2,0,0,0-.1.7.8.8,0,0,1-.1.4,8.1,8.1,0,0,1-.1,1.6h0v.5c0,4,1.2,4,1.2,5.5v.2h0v.4h0v.2l-.3.7v1.4h0v1.2h-.4l-.6.3a6.1,6.1,0,0,1-2.2.3h-.8a3.2,3.2,0,0,1-1.8-1.3h0a41.3,41.3,0,0,0,.7-7.4,8.2,8.2,0,0,0-.7-3.9,12.5,12.5,0,0,1-1-2.1h0c-.3-1.2,0-2.3,0-4.3s-1.1-6.5-2.1-10.8h0c0-.1-.1-.2-.1-.3h0c-.4-1.9-.9-3.6-1.2-4.9v-.2a9,9,0,0,1-.4-1.6h-.1"/><path class="cls-5" d="M65.2,111.1a10.8,10.8,0,0,1-2.3,6.6,11.9,11.9,0,0,1-7.9,4.7,19.1,19.1,0,0,0-7.4,2.8,18.9,18.9,0,0,0-3.3,2.4c-1.2.9-7.1-5.5-8.5-9.6a28.9,28.9,0,0,0,3.6-5.9l1.2-2.8c2-4.3,2.7-7.8,4.2-11.6a11.7,11.7,0,0,0,.5-1.1A39.4,39.4,0,0,1,47.6,92a4.6,4.6,0,0,1,3-2.3c5.5-.7,12.9,13.1,14.3,19.6A6.7,6.7,0,0,1,65.2,111.1Z"/><path class="cls-11" d="M44.8,126.9c-.8,1.2-3.1,4.2-8,1.3s-3.9-8.7-1-10.2,1.4.9,3.5,2.6,3.9.1,4.7.8A4.6,4.6,0,0,1,44.8,126.9Z"/><g class="cls-12"><path class="cls-13" d="M83.8,121.2c0,.2,1.9,7.3,1.8,7.4a13.2,13.2,0,0,1-5.9,1.4c-6.9,0-8.7-7.5-14.8-11.3l-1.9-1a12.4,12.4,0,0,1-8,4.7,19.1,19.1,0,0,0-7.4,2.8c1.6-1.6,4.1-2.1,6.1-3s5.2-1.8,6.7-5.3c2.9-6.2,5.4-5.5,10.2-4.1a14.4,14.4,0,0,0,5.8.6,9.6,9.6,0,0,1,2.9-.3c2,.1,3.2,1.7,3.9,3.4a13.1,13.1,0,0,1,.6,2.7A10.7,10.7,0,0,1,83.8,121.2Z"/></g><path class="cls-7" d="M66.3,93.9a5.2,5.2,0,0,1-.8,2.6,8,8,0,0,1-4.4,2.9c-1.4.5-2.6-1-2.6-2.3a1.7,1.7,0,0,1,1.1-1.7c2.2-.6,4.5-1.2,5.5-3.1a.6.6,0,0,1,1.1.1A7.6,7.6,0,0,1,66.3,93.9Z"/><path class="cls-6" d="M61.4,103.8a1.6,1.6,0,0,1,1.4-1.7c2.1-.2,5.8-.4,7.4.6s3.3,4.8,3.7,6a.6.6,0,0,1-.2.7c-1.1.9-4.6,3.1-9.8-.9a6.4,6.4,0,0,1-2.5-4.4Z"/><path class="cls-6" d="M44.6,104.6a3.1,3.1,0,0,1-.2.8,15.6,15.6,0,0,1-2.5,3.8,14.9,14.9,0,0,1-2.3,2.7c.2-.7.6-1.6,1-2.6,2-4.3,2.7-7.8,4.2-11.6A11.6,11.6,0,0,1,44.6,104.6Z"/><path class="cls-14" d="M39,124.6c-1.1-1.4,1.9-.2,2.9-.8S42.1,128.8,39,124.6Z"/><path class="cls-14" d="M36.3,123.2c1.7-.2-.5-1.4-.8-2.7S32.4,123.8,36.3,123.2Z"/><path class="cls-15" d="M55.6,108.6s-.6,1.9-1.6,1.9-1.2-.5-1.9-.1a3.6,3.6,0,0,0,.4-.9,2.8,2.8,0,0,1,1.3-1.7,1.3,1.3,0,0,1,1.7.6Z"/><path class="cls-16" d="M55.5,108.4c-.2,1-.9,1.8-1.7,1.8a1.7,1.7,0,0,1-1.3-.7,2.8,2.8,0,0,1,1.3-1.7A1.3,1.3,0,0,1,55.5,108.4Z"/><circle class="cls-17" cx="54.5" cy="108.5" r="0.4"/><path class="cls-8" d="M65.4,96.5a7.4,7.4,0,0,1-4.3,2.9c-1.4.5-2.6-1-2.6-2.3C59.6,98.9,62.6,99.1,65.4,96.5Z"/><path class="cls-6" d="M64.9,104.6c2.5.9,4.4-1,7,3.2a.6.6,0,0,1-.3,1c-1.8.5-6.4,1.5-8.1-2.8A1.1,1.1,0,0,1,64.9,104.6Z"/><path class="cls-4" d="M87.9,163.1s6.1-.7,6.7-4.7C95.2,163.9,89.8,163.3,87.9,163.1Z"/><path class="cls-6" d="M94.6,121.1h.7l.8-.2.8-.2,1.2-.3,2.3-.7h.3l.7-.3,1.4-.5.9-.3,1.7-.7.6-.2.5-.2.7-.3h.2l.7-.4.6-.3,2-.9,1-.6,3.3-1.8.9-.5,1.7-1.1.8-.5.6-.4.4-.3.7-.4.4-.3,1-.7,1.4-1,1.1-.8,1-.7.5-.4.6-.5h.1a.1.1,0,0,0,.1-.1l.8-.6h.1l.3-.2.3-.2,1.6-1.4.3-.2h.3l.2-.3.5-.4c.1,0,.1-.1.2-.2h.2l.7-.6c.1-.1.2-.3.4-.4l.6-.5.3-.3h.3l.6-.5h0l.5-.5.3-.2h0a.3.3,0,0,1,.1-.2.1.1,0,0,0,.1-.1h.1l.2-.2.3-.3h.2a4.6,4.6,0,0,1,.7-.7V96h.2a.1.1,0,0,1,.1-.1h.1a.1.1,0,0,1,.1-.1h.1c.1,0,.1,0,.1-.1h.2c0-.1,0-.1.1-.1H139l.2-.2H142a3.8,3.8,0,0,0-1.2-1.8,3.5,3.5,0,0,0-5.1.4l-.3.5L133,95.1c-1.1,1.4-2.3,2.7-3.4,3.9-18.1,18.9-35,16-35,16v1.9"/><path class="cls-6" d="M85.6,128.5a12,12,0,0,1-5.9,1.5c-6.9,0-8.7-7.5-14.8-11.3,4.5,2.2,15.4,6.9,18.9,2.5Z"/><path class="cls-11" d="M164.5,75.9c-4.6,6.1-11.3,2.2-21.9,6.4-2.4.3-1.1-1.3-.9-2.3l3.7-1.1c9.5-2.4,12.4.3,16.9-4.2,2.7-2.7,1.6-7-1.1-11.1a35.5,35.5,0,0,0-3.5-4.4l-1.4-6.7,2.9,3C168.2,65.4,167.7,71.7,164.5,75.9Z"/><path class="cls-15" d="M142.7,79.7c-6,1.2-6.6,4.3-10.2,6.6-.5.3,1.1.2,2.6-1.2-1.9,2.6-3.3,2.9-3.3,2.9s0,.3,1.4-.1a4.1,4.1,0,0,1-1.1,1,5.1,5.1,0,0,0,1.8-.8,6.6,6.6,0,0,1-4.5,1.8c-1.4.1,4.3,1.1,6.4-2.7-.7,1.5-1.6,3-3.2,3.5a4.2,4.2,0,0,0,3.1-1.7l-.6,1.1c-.1.1.1.2.2.1,1.9-1.5,2.4-4.1,4.4-6.5-.8,1.4-1.3,2.9-1.9,4.2s.2.4.3.2c1.2-2.3,2.1-4.9,5-6,0,0-1,0-.7-.5s1.7-.9,1.7-1.2-2.2.6-2.5.5S142.8,79.6,142.7,79.7Z"/><path class="cls-5" d="M164,73.9c-3.3,6.9-10.3,3.6-18.6,5,9.5-2.4,12.4.3,16.9-4.2,2.7-2.7,1.6-7-1.1-11.1a35.5,35.5,0,0,0-3.5-4.4l-1.4-6.7C157.6,53.9,167.6,66.5,164,73.9Z"/><path class="cls-18" d="M89.8,163.9H87l.6-1.3-1.3.2H85.1l.7-1.1a15.2,15.2,0,0,0,2.3-4.6h0a48.4,48.4,0,0,0,.7-7.2,6.6,6.6,0,0,0-.7-3.6,8.4,8.4,0,0,1-1-2.2,7.6,7.6,0,0,1-.1-2.6c0-.6.1-1.2.1-1.9s-.4-3.2-1.9-9.9l-1.1.4-.5.2H83l-.6.2H80.9c.6,1.6.2,3.3-.1,5a18.1,18.1,0,0,0-.3,2.3c-.4,4,.2,5.1.6,6a3.4,3.4,0,0,1,.4,1.6,5.9,5.9,0,0,1-.4,2,3.4,3.4,0,0,0-.4,2h0v.8h0v.2a5,5,0,0,1-1.1,4.1c-1.7,1.7-4.7,1.4-6.2,1.3h-1l.7-1.3-1,.2H70.6l.7-1a13.6,13.6,0,0,0,2.3-4.7c.5-2.2,1.3-8.8.1-10.8a6.7,6.7,0,0,1-1.2-4.8,11.5,11.5,0,0,0,.1-1.9,26.9,26.9,0,0,0-.8-5l-.2-.3a8.6,8.6,0,0,1-1.3-1.4v-.2l-1.6-1.8-.9-.9-.2-.3-.4-.3-.3-.3-1.1-.9-.2-.2-.9-.6-1.4-.8a13.2,13.2,0,0,1-8.1,4.6,17.7,17.7,0,0,0-7.2,2.7,27.3,27.3,0,0,0-3,2.1c-1.1,1.5-3.8,3.6-8.4.9a7.1,7.1,0,0,1-3.8-6.4,5.7,5.7,0,0,1,2.7-4.9,37.5,37.5,0,0,0,3.4-5.7,20,20,0,0,1,1-2.1l.2-.6a61.9,61.9,0,0,0,2.6-6.9c.5-1.6,1-3.1,1.6-4.7h0c-5.5-1-8.3-5.9-8.2-7.5a1.5,1.5,0,0,1,.5-1.1c1.1-.9,3.8-1.3,5.9-1.2h0a9.9,9.9,0,0,1,.3-2.4,1.3,1.3,0,0,1,2.4-.3c.4.7.9,1.6,1.4,2.3a20.8,20.8,0,0,0,2.1,2.5h.1a3.6,3.6,0,0,1,1.8-.7h.3a40.5,40.5,0,0,0,13.6-5.4,22.8,22.8,0,0,0,2.8-2.2,9.4,9.4,0,0,0,1.6-2C71,75.5,80,70.3,96.3,63.7l4-1.6,10.5-3.9,2.3-1c8.1-3.5,14.1-9.4,18.5-13.7s5.2-5.2,7-5.4,5.8,1.8,8.4,3.4a11,11,0,0,0,3.1,1.7h.5c1.7-.1,4.1-.1,5.1,4.3.2.6.4,1.4.6,2.3l.6,2.3,2.8,3c7.9,8.6,9.6,15.6,5.3,21.2a9.6,9.6,0,0,1-7,3.9c-.1,1-.3,1.9-.4,2.9-.6,3.3-1.3,8.1-1.7,12s-.1,4.4.3,4.9,1,2.7.6,5.2v.3c-1.2,7.3-.8,9-.5,10a5.2,5.2,0,0,1,.2,1.4,9.9,9.9,0,0,1-.2,1.8,6.6,6.6,0,0,0,.1,3.4h0a1.7,1.7,0,0,1,.1.7,5,5,0,0,1-1.1,4.1c-1.7,1.7-4.8,1.4-6.2,1.3h-1l.6-1.3-.9.2h-1.6l.7-1a16.4,16.4,0,0,0,2.3-4.6h0c1.7-7,.9-11-.2-14.2a15.1,15.1,0,0,0-3.1-5.1l-.9-1.2-1,.9-.5.3c0,1.6-.1,3.5-1.5,3.8h-.5a11.6,11.6,0,0,0,.3,1.6,5.2,5.2,0,0,1,.2,1.4,9.9,9.9,0,0,1-.2,1.8,6,6,0,0,0,0,3.3h0l.2.7h0a4.7,4.7,0,0,1-1.2,4.1c-1.7,1.7-4.7,1.4-6.1,1.3h-1l.6-1.3-.9.2h-1.6l.7-1a16.4,16.4,0,0,0,2.3-4.6,28.3,28.3,0,0,0,.9-7.8h0a1.5,1.5,0,0,1-.9-.6,3.5,3.5,0,0,1-.2-2.4l-1.6-.7c-.8,1-2,2-3,1.4s-.3-.1-.4-.3v.2l-1.4,1.1-2.8,2.2-1,.8-2.5,1.7-1.1.8-.4.2-.6.5-4.8,3-.9.4-.3.2h-.1l-.8.4-.8.4H112l-1,.5-1.8.9H109l-.7.3-.8.4-.8.4-1.3.5-1,.4-.4.2-1,.3-1.4.5-.7.3L97,121.2l-.7.2-.9.2H95c-.9,13.8-.3,15.6-.2,15.8v.2c0,.1.1.1.1.2l.2.4a.4.4,0,0,1,.1.3,1.9,1.9,0,0,1,.2.7.9.9,0,0,1,.1.5v.7a10.9,10.9,0,0,1-.1,1.7,4.3,4.3,0,0,0-.1.5l-.3,1.5a1.3,1.3,0,0,1-.1.6,1.5,1.5,0,0,1-.1.7v.3a9.2,9.2,0,0,0-.1,1.6v.5a8.1,8.1,0,0,0,.7,3.9,3.4,3.4,0,0,1,.4,1.6v.8h-.1l-.3.9-.2.5a.8.8,0,0,1-.1.4h0v.4a2.8,2.8,0,0,0,.1.9h0a1.5,1.5,0,0,0,.1.7,5.1,5.1,0,0,1-1.2,4.1A6.2,6.2,0,0,1,89.8,163.9Zm-.8-1.3c1.4,0,3.2,0,4.2-1.1s.9-1.6.8-3v-.4l-.3-.3.2-.3v-1.1h0v-.5c0-.1.1-.2.1-.4l.2-.6.3-.7v-.7a2.3,2.3,0,0,0-.3-1.1,8.6,8.6,0,0,1-.8-4.5v-.4a10.3,10.3,0,0,1,.1-1.7v-.4a1.5,1.5,0,0,0,.1-.7,6.4,6.4,0,0,0,.2-.7l.2-1.4a4.3,4.3,0,0,1,.1-.5,8.6,8.6,0,0,0,.1-1.5v-.6a.4.4,0,0,0-.1-.3,1.3,1.3,0,0,0-.1-.6l-.2-.5h-.1v-.2c-.2-.4-1-1.6,0-17.1v-.4l.8-.2.6-.2.9-.2h.7l3.7-1.1.8-.3,1.4-.5.9-.3.5-.2.9-.4,1.3-.5.7-.3.9-.5.6-.2,2-1,1-.6.9-.4.7-.4.5-.3.8-.5,4.8-2.9.6-.5.4-.2,1.1-.7,2.4-1.8,1-.7,2.8-2.2,1.3-1.1.3-.3.3-.2,1.4-1.1v1.4h.1c.1.1.6-.1,1.8-1.5l.3-.4.5.3a14.6,14.6,0,0,0,2.3,1l.6.2v.6c-.4,1.5-.2,1.9-.1,1.9l.9-.5.2,1.1a28.9,28.9,0,0,1-1,8.9,13.4,13.4,0,0,1-1.6,3.7h.4l.3-.2h.1l.4-.3v2.4c1.4.1,3.2,0,4.2-1a3.7,3.7,0,0,0,.8-3.1c0-.1-.1-.2-.1-.4l-.4-.5h.3a7.1,7.1,0,0,1,0-3.6,7.7,7.7,0,0,0,.2-1.5,3,3,0,0,0-.2-1,13.2,13.2,0,0,1-.3-3.6l1.2-.2c.1.3.3.5.4.5s.5-.3.4-2.8v-.4l.3-.2a1.8,1.8,0,0,0,.7-.5,7.5,7.5,0,0,0,1.4-1.2l.5-.6.5.6,1.3,1.8a17,17,0,0,1,3.3,5.4c1.2,3.5,2.1,7.7.3,15a17.9,17.9,0,0,1-1.6,3.7h.3l.3-.2h.2l.3-.3v2.4c1.4.1,3.2,0,4.3-1a3.7,3.7,0,0,0,.7-3.1v-.5h-.1a8.1,8.1,0,0,1-.1-4.1,7.7,7.7,0,0,0,.2-1.5,3.1,3.1,0,0,0-.1-1c-.3-1.2-.8-3,.4-10.6V105c.4-2.3.5-3-.4-4.3s-.7-3.8-.5-5.8c.4-3.8,1.1-8.7,1.7-12,.2-1.1.3-2.3.5-3.4v-.4h.5a8.8,8.8,0,0,0,6.6-3.5c3.8-5,2.1-11.4-5.2-19.5h0l-2.5-2.6h-.4c-.3-1.3-.6-2.4-.9-3.4s-.4-1.7-.5-2.3c-.9-3.4-2.2-3.4-3.8-3.3h-.6c-.8,0-1.9-.7-3.8-1.9s-5.4-3.3-7.6-3.2-3.6,2.4-6.2,5c-4.5,4.4-10.6,10.4-18.9,14l-2.3,1-10.5,3.9-4,1.6C81,71.3,72,76.4,69.9,80a7.6,7.6,0,0,1-1.8,2.3,26.2,26.2,0,0,1-3,2.4,39.9,39.9,0,0,1-14,5.6h-.4a2.3,2.3,0,0,0-1.6.8l-.4.3-.4-.3-.6-.5A13.3,13.3,0,0,1,45.5,88,12,12,0,0,1,44,85.6a7.5,7.5,0,0,0-.3,2c0,.3.1.5.1.8v.8h-.8c-2.8-.3-5.7.4-5.8.9s2.4,5.8,7.9,6.3h.9l-.4.8-.3.8c-.6,1.5-1.1,3-1.6,4.6a62.9,62.9,0,0,1-2.6,7l-.2.6-1,2.1a37.3,37.3,0,0,1-3.6,6v.2h-.2a4.8,4.8,0,0,0-2.1,3.9,6,6,0,0,0,3.1,5.3c3.7,2.1,5.7.8,6.9-.7h.1a20.2,20.2,0,0,1,3.2-2.3,19.6,19.6,0,0,1,7.6-2.8,12.3,12.3,0,0,0,7.6-4.5l.3-.3h.5c0,.1.1.1.2.1h.1l1.7.9.9.6.3.2,1.1,1,.4.3.4.4.3.3.8.9h.1l1.6,1.8v.2l1.2,1.3.4.5H73v.2a42.7,42.7,0,0,1,.8,5.4,12.1,12.1,0,0,1-.1,2,5.3,5.3,0,0,0,1,4c1.7,2.7.3,10.9.1,11.9a24.3,24.3,0,0,1-1.6,3.7h.3l.3-.2h.2l.3-.3v2.4c1.4,0,3.2,0,4.3-1a3.7,3.7,0,0,0,.7-3.1v-1a5.7,5.7,0,0,1,.4-2.5,4.7,4.7,0,0,0,.4-1.6,2.3,2.3,0,0,0-.3-1.1c-.5-.9-1.1-2.2-.7-6.6a17.5,17.5,0,0,1,.3-2.4c.4-2,.7-3.6-.2-5.1h-.1l-.3-.9h3.7l.6-.2h.4l1.5-.6h0l.8-.4.3.7c1.4,6,2.2,9.6,2.2,11s-.1,1.4-.1,1.9a5.8,5.8,0,0,0,.1,2.3,6.7,6.7,0,0,0,.8,1.8,7.9,7.9,0,0,1,.9,4.3,40.6,40.6,0,0,1-.8,7.6,17.3,17.3,0,0,1-1.6,3.7l1.2-.8Zm-15.8-9.4.3.5-.3-.6Zm75.7-27.6.3.5-.3-.6Zm6.3-2.9Zm-20.8-4.9.3.4-.2-.6C134.5,117.7,134.4,117.7,134.4,117.8ZM157,78.1l.5-2.8h0V75c.7-3.5.6-8.1-.2-13.8l-.3-1.6v-.2H157V57.6l1.2,1.2a35.5,35.5,0,0,1,3.5,4.4c3.3,5,3.7,9.3,1,12a9.1,9.1,0,0,1-4.7,2.7Zm1.2-2.8h.6v1a7.7,7.7,0,0,0,3.1-2.2c3-2.9.5-7.7-1.2-10.3a21.4,21.4,0,0,0-1.9-2.6c.8,5.6.9,10.3.2,13.9h0v.2Zm-.2,0h0Z"/><path class="cls-18" d="M130.5,102.6l-.9-.9c.7-.8,7.2-7.1,8.5-7.8a35.8,35.8,0,0,1,3.7-1.4l.7-.2V93s1.2,4.7,3,6.5l-.9,1c-1.7-1.7-2.7-5.1-3.2-6.5l-2.8,1.1C137.8,95.5,133.2,99.9,130.5,102.6Z"/><path class="cls-18" d="M140.8,105.4a5.4,5.4,0,0,1-.8-1.7h-1.8a3.8,3.8,0,0,1-1.2,1.7l-.8-1a4.1,4.1,0,0,0,1-1.6v-.5h2.8l.7-.3.2.7a12.1,12.1,0,0,0,.8,1.9Z"/><path class="cls-18" d="M79.9,130.7a10.8,10.8,0,0,1-8-4.1l1.1-.8a9.8,9.8,0,0,0,7,3.6Z"/></g></g></svg>