<svg xmlns="http://www.w3.org/2000/svg" xmlns:xlink="http://www.w3.org/1999/xlink" viewBox="0 0 200 200"><defs><style>.cls-1{mask:url(#mask);filter:url(#luminosity-noclip-6);}.cls-2{mix-blend-mode:multiply;fill:url(#linear-gradient);}.cls-3{fill:#fff5d9;}.cls-4{fill:#fff6da;}.cls-5{fill:#e5c9b3;}.cls-6{fill:#ffe9d0;}.cls-7{fill:#d6baa7;}.cls-8{fill:#d3b39c;}.cls-9{fill:#d2d5d4;}.cls-10{mask:url(#mask-2);}.cls-11{fill:#fff;stroke-width:0.1px;}.cls-11,.cls-24{stroke:#4c2e19;stroke-miterlimit:10;}.cls-12{fill:#c1b9ad;}.cls-13{fill:#1e1c1b;}.cls-14{fill:#1e1513;}.cls-15{fill:#fff48a;}.cls-16{mask:url(#mask-3);}.cls-17{mask:url(#mask-4);}.cls-18{fill:#8e8d8d;}.cls-19{mask:url(#mask-5);}.cls-20{mask:url(#mask-6);}.cls-21{mask:url(#mask-7);}.cls-22{mask:url(#mask-8);}.cls-23{fill:#f4dbc3;}.cls-24{fill:none;stroke-width:0.15px;}.cls-25{filter:url(#luminosity-noclip-8);}.cls-26{filter:url(#luminosity-noclip-7);}.cls-27{filter:url(#luminosity-noclip-5);}.cls-28{filter:url(#luminosity-noclip-4);}.cls-29{filter:url(#luminosity-noclip-3);}.cls-30{filter:url(#luminosity-noclip-2);}.cls-31{filter:url(#luminosity-noclip);}</style><filter id="luminosity-noclip" x="127.03" y="-7542" width="1.5" height="32766" filterUnits="userSpaceOnUse" color-interpolation-filters="sRGB"><feFlood flood-color="#fff" result="bg"/><feBlend in="SourceGraphic" in2="bg"/></filter><mask id="mask" x="127.03" y="-7542" width="1.5" height="32766" maskUnits="userSpaceOnUse"><g class="cls-31"/></mask><linearGradient id="linear-gradient" x1="833.01" y1="98.21" x2="832.43" y2="101.67" gradientTransform="matrix(-1, 0, 0, 1, 960.72, 0)" gradientUnits="userSpaceOnUse"><stop offset="0" stop-color="#fff"/><stop offset="1"/></linearGradient><filter id="luminosity-noclip-2" x="127.35" y="-7542" width="1.6" height="32766" filterUnits="userSpaceOnUse" color-interpolation-filters="sRGB"><feFlood flood-color="#fff" result="bg"/><feBlend in="SourceGraphic" in2="bg"/></filter><mask id="mask-2" x="127.35" y="-7542" width="1.6" height="32766" maskUnits="userSpaceOnUse"><g class="cls-30"/></mask><filter id="luminosity-noclip-3" x="120.28" y="-7542" width="4.38" height="32766" filterUnits="userSpaceOnUse" color-interpolation-filters="sRGB"><feFlood flood-color="#fff" result="bg"/><feBlend in="SourceGraphic" in2="bg"/></filter><mask id="mask-3" x="120.28" y="-7542" width="4.38" height="32766" maskUnits="userSpaceOnUse"><g class="cls-29"/></mask><filter id="luminosity-noclip-4" x="114.24" y="-7542" width="6.86" height="32766" filterUnits="userSpaceOnUse" color-interpolation-filters="sRGB"><feFlood flood-color="#fff" result="bg"/><feBlend in="SourceGraphic" in2="bg"/></filter><mask id="mask-4" x="114.24" y="-7542" width="6.86" height="32766" maskUnits="userSpaceOnUse"><g class="cls-28"/></mask><filter id="luminosity-noclip-5" x="101.61" y="-7542" width="4.72" height="32766" filterUnits="userSpaceOnUse" color-interpolation-filters="sRGB"><feFlood flood-color="#fff" result="bg"/><feBlend in="SourceGraphic" in2="bg"/></filter><mask id="mask-5" x="101.61" y="-7542" width="4.72" height="32766" maskUnits="userSpaceOnUse"><g class="cls-27"/></mask><filter id="luminosity-noclip-6" x="127.03" y="96.45" width="1.5" height="4.62" filterUnits="userSpaceOnUse" color-interpolation-filters="sRGB"><feFlood flood-color="#fff" result="bg"/><feBlend in="SourceGraphic" in2="bg"/></filter><mask id="mask-6" x="127.03" y="96.45" width="1.5" height="4.62" maskUnits="userSpaceOnUse"><g class="cls-1"><path class="cls-2" d="M127,96.4c.6.9,1.6,2.4,1.5,3.8s-.4.7-.9.9a1.3,1.3,0,0,0,.7-1.7A9.1,9.1,0,0,0,127,96.4Z"/></g></mask><filter id="luminosity-noclip-7" x="90.26" y="-7542" width="3.21" height="32766" filterUnits="userSpaceOnUse" color-interpolation-filters="sRGB"><feFlood flood-color="#fff" result="bg"/><feBlend in="SourceGraphic" in2="bg"/></filter><mask id="mask-7" x="90.26" y="-7542" width="3.21" height="32766" maskUnits="userSpaceOnUse"><g class="cls-26"/></mask><filter id="luminosity-noclip-8" x="79.49" y="-7542" width="9.17" height="32766" filterUnits="userSpaceOnUse" color-interpolation-filters="sRGB"><feFlood flood-color="#fff" result="bg"/><feBlend in="SourceGraphic" in2="bg"/></filter><mask id="mask-8" x="79.49" y="-7542" width="9.17" height="32766" maskUnits="userSpaceOnUse"><g class="cls-25"/></mask></defs><g id="Cat_01"><path class="cls-3" d="M86.9,83.5h0c-.1-.1-2.5,2.8-5.3,4.3A8.5,8.5,0,0,1,76.7,89a9.3,9.3,0,0,1-4.9-2.3.5.5,0,0,0-.8,0,1.1,1.1,0,0,0,0,1.1,11.2,11.2,0,0,0,5.7,2.3A10.8,10.8,0,0,0,82.4,89,11.5,11.5,0,0,0,86.9,83.5Z"/><path class="cls-4" d="M127.1,91.8s1-3.6-.1-5.6-1.8,2-4.3,3.8C122.2,90.4,127.1,91.8,127.1,91.8Z"/><path class="cls-5" d="M123.4,89.5c1.8-1.8,2.6-4.7,3.5-3.6-.6.7-1.5,2.1-1,5A6.5,6.5,0,0,0,123.4,89.5Z"/><path class="cls-6" d="M121.4,102.5s-4,13.2-3.3,15.1.6,4.5-2.1,3.1-2.2-19.2-1.9-23.3C116.6,95.6,121.4,102.5,121.4,102.5Z"/><path class="cls-7" d="M118.4,118.5c.5,1.9-.1,3.4-2.4,2.2a1,1,0,0,1-.5-.7A2.8,2.8,0,0,1,118.4,118.5Z"/><path class="cls-7" d="M113.9,107.3a10,10,0,0,1,6.3-2.1,18.3,18.3,0,0,1-3.2,4.4c-.8,4-.6,8,0,9a3.2,3.2,0,0,1-1.4,1.7C114.4,118.6,114,112.8,113.9,107.3Z"/><path class="cls-7" d="M105.7,92.5s1,9.6-8.5,10.5c-2.3.2-2.6,3-1.3,5.3s.9,3.6-1.7,2.8-3-10.2-2-11.5,3.6-4.1,3.5-7.5-.4-4.1,5.7-3.9C104.7,94.6,105.7,92.5,105.7,92.5Z"/><path class="cls-8" d="M96,108.5c1.2,2.3.7,3.4-1.8,2.6a1.6,1.6,0,0,1-.8-.6A2.9,2.9,0,0,1,96,108.5Z"/><path class="cls-4" d="M88.4,82.7a29.9,29.9,0,0,1,25.1,10.6l1.2-.7c3-1,6.4,1.2,7.6,4.8s0,7.5-3,8.5l-1.8.3c-3.8,4.7-13.1,3-16,.1C97.1,101,91.4,99,88.7,99.2a9.5,9.5,0,0,1-3.5-4.7C82.9,89.1,86.1,83,88.4,82.7Z"/><path class="cls-5" d="M91.7,96.3c5.6-.8,10.5,3.3,12.1,5,3.1,3.3,7.5,4.4,8.9,2.1,2.7-4.7,3.7-4,3.7-4a61.2,61.2,0,0,1,5.8,3.8,4.8,4.8,0,0,1-2.9,2.7l-1.8.3c-3.8,4.7-13.1,3-16,.1-4.2-5.1-9.6-7.1-12.4-7.1A5.8,5.8,0,0,1,91.7,96.3Z"/><path class="cls-4" d="M112.3,103.9s-4.4,16-3.6,17.9.5,4.5-2.1,3.1-2.3-19.2-2-23.3C107.1,99.8,112.3,103.9,112.3,103.9Z"/><path class="cls-4" d="M114.2,96.3a7.3,7.3,0,0,0,7.4,7.1c4.1,0,7.6-2.7,7.6-6.6a7.9,7.9,0,0,0-7.6-7.6A7.3,7.3,0,0,0,114.2,96.3Z"/><path class="cls-4" d="M125,91.6c1.5,1.9,4.4,4.9,3.8,9.1-.3,2.3-5.6,5-11.1,1.2C116.1,97.9,119.7,84.9,125,91.6Z"/><path class="cls-9" d="M127.4,96.8c0,.7.3,1.3.8,1.3s.8-.6.8-1.3-.4-1.3-.8-1.3S127.4,96.1,127.4,96.8Z"/><g class="cls-10"><path class="cls-5" d="M127.4,96.8c0,.7.3,1.3.8,1.3s.8-.6.8-1.3-.4-1.3-.8-1.3S127.4,96.1,127.4,96.8Z"/></g><path class="cls-11" d="M127.5,97.1c.2.5.5.8.8.8s.6-.6.5-1.2-.5-.9-.9-.8S127.4,96.5,127.5,97.1Z"/><path class="cls-12" d="M108.7,121.9c.8,2.2.5,4.4-2.1,3a1.9,1.9,0,0,1-.9-1.3C106.6,121.9,107.8,121.7,108.7,121.9Z"/><path class="cls-5" d="M120.9,100.5c1.2-1.6,4.9-.7,4.9-.7l1.8-.2c.5-.3,1-1.3,1.3-.6a9.1,9.1,0,0,1-.1,1.7c-.2,1.7-3.2,3.7-7,2.9C120.4,102.9,120,101.6,120.9,100.5Z"/><path class="cls-13" d="M128.5,100.4a2.9,2.9,0,0,1-1.2,1.6,2,2,0,0,1-1.4-1.5Z"/><path class="cls-7" d="M127,96.4a6.3,6.3,0,0,1,1.5,3.8c0,.6-.7.9-1.3.9s-1.6-.4-2.3-2.2S125.1,93.9,127,96.4Z"/><path class="cls-7" d="M121.6,89.2a7.3,7.3,0,0,1,2.9.7l1.4.8h.1c-.6-.3-4.9-2.3-6.7,1.5a4.3,4.3,0,0,1-1.6-2A7.7,7.7,0,0,1,121.6,89.2Z"/><path class="cls-14" d="M127.8,96.9c0,.4.2.6.4.6s.3-.2.3-.6-.1-.6-.3-.6S127.8,96.5,127.8,96.9Z"/><path class="cls-15" d="M127.9,96.8a.2.2,0,1,0,.4,0c0-.2-.1-.3-.2-.3S127.9,96.6,127.9,96.8Z"/><path class="cls-9" d="M124.7,98.6s-.2-3.4-3.3-2.3S122.3,101.7,124.7,98.6Z"/><g class="cls-16"><path class="cls-5" d="M124.7,98.6s-.2-3.4-3.3-2.3S122.3,101.7,124.7,98.6Z"/></g><path class="cls-11" d="M120.9,97.7a1.5,1.5,0,0,0,1.1,1.6c.8.2,1.7-.1,1.8-.8a1.6,1.6,0,0,0-1.2-1.8A1.5,1.5,0,0,0,120.9,97.7Z"/><path class="cls-14" d="M122.3,98.1c0,.4.3.8.5.8s.6-.4.6-.8-.3-.8-.6-.8S122.3,97.7,122.3,98.1Z"/><path class="cls-15" d="M122.5,97.9c0,.2.1.4.2.4s.3-.2.3-.4a.3.3,0,0,0-.3-.3C122.6,97.6,122.5,97.7,122.5,97.9Z"/><path class="cls-9" d="M121.1,103.3a7.2,7.2,0,0,1-6.9-7,6.7,6.7,0,0,1,.6-2.8A9.8,9.8,0,0,0,121.1,103.3Z"/><g class="cls-17"><path class="cls-7" d="M121.1,103.3a7.2,7.2,0,0,1-6.9-7,6.7,6.7,0,0,1,.6-2.8A9.8,9.8,0,0,0,121.1,103.3Z"/></g><path class="cls-18" d="M103.6,102.2c4.1-5,2.5,10.8,2,13.7a41.2,41.2,0,0,0,.2,7.9c-1.2-2.8-1.4-10.1-1.4-15.8a7.8,7.8,0,0,1-2.8-1.7A8.3,8.3,0,0,1,103.6,102.2Z"/><g class="cls-19"><path class="cls-5" d="M103.6,102.2c4.1-5,2.5,10.8,2,13.7a41.2,41.2,0,0,0,.2,7.9c-1.2-2.8-1.4-10.1-1.4-15.8a7.8,7.8,0,0,1-2.8-1.7A8.3,8.3,0,0,1,103.6,102.2Z"/></g><path class="cls-13" d="M123.9,103.1h1.6l.4-.2.3-.2.6-.4.3-.6h.4l-.5.7h.3l-.3.2h-.3l-.3.2-.4.2-.5.2h-1.6l-.5-.2h.5Z"/><g class="cls-20"><path class="cls-9" d="M127,96.4c.6.9,1.6,2.4,1.5,3.8s-.4.7-.9.9a1.3,1.3,0,0,0,.7-1.7A9.1,9.1,0,0,0,127,96.4Z"/></g><path class="cls-7" d="M128.9,98.7s1.8-7-6.6-9.4C124.4,89.3,130.5,92.1,128.9,98.7Z"/><path class="cls-18" d="M93.1,94.1a7.3,7.3,0,0,1-.6,5.8l-2.2-.6Z"/><g class="cls-21"><path class="cls-7" d="M93.1,94.1a7.3,7.3,0,0,1-.6,5.8l-2.2-.6Z"/></g><path class="cls-3" d="M93.5,92.1s1,10.3-8.5,11.3c-2.3.1-2.6,3.2-1.3,5.7s.9,3.9-1.7,3.1-3-11.1-2-12.5,3.6-4.5,3.5-8.2.1-8.7,6.2-8.6C93,89.8,93.5,92.1,93.5,92.1Z"/><path class="cls-8" d="M83.7,109.2c1.3,2.5.8,3.8-1.7,3a2.2,2.2,0,0,1-1.1-1.2A2.7,2.7,0,0,1,83.7,109.2Z"/><path class="cls-9" d="M80,99.7c.9-1.5,3.6-4.5,3.5-8.2s.1-7.6,4.4-8.4a5.9,5.9,0,0,0-1.1,5.1c.8,4.1,3.9,9-.3,12.4-2.3,1.9-5.2.5-6.1,4a11.1,11.1,0,0,0,0,5.2C79.3,106.5,79.3,100.7,80,99.7Z"/><g class="cls-22"><path class="cls-23" d="M80,99.7c.9-1.5,3.6-4.5,3.5-8.2s.1-7.6,4.4-8.4a5.9,5.9,0,0,0-1.1,5.1c.8,4.1,3.9,9-.3,12.4-2.3,1.9-5.2.5-6.1,4a11.1,11.1,0,0,0,0,5.2C79.3,106.5,79.3,100.7,80,99.7Z"/></g><path class="cls-4" d="M121.5,92.6c-3.5-1.8-6.2-6.6-7.7-5.9s.8,7.5.8,7.5C118.4,97.5,121.7,92.7,121.5,92.6Z"/><path class="cls-5" d="M119.3,94.1c-1.1-1.7-4.3-7-5.5-6.3s1.2,5.9,1.5,6.7.7-.4.7-.4-.5-.4-.5-.4a1.4,1.4,0,0,1,.7.2,3.5,3.5,0,0,0-.9-1.1,1.9,1.9,0,0,1,1.5.8,3.2,3.2,0,0,0-1-1.9,4.2,4.2,0,0,1,1.8,1.7,6,6,0,0,0-.3-1.1A21.1,21.1,0,0,1,119.3,94.1Z"/><path class="cls-24" d="M71,86.7a.5.5,0,0,1,.8,0A9.3,9.3,0,0,0,76.7,89a8.5,8.5,0,0,0,4.9-1.2A15.1,15.1,0,0,0,84.2,86a5.5,5.5,0,0,1,2.3-2.5h0l.7-.2h.1l1.1-.5a29.9,29.9,0,0,1,25.1,10.6l.7-.4c-.6-2-1.6-5.6-.4-6.2s2.5,1.5,4.4,3.3l1.3-.5h.1l.9-.2h2.9a13.4,13.4,0,0,0,2.2-3h0c.1-.1.2-.2.2-.3h.2a.1.1,0,0,0,.1-.1h.7c0,.1,0,.1.1.1h0c0,.1.1.2.1.3,1,1.7.3,4.7.1,5.5a6.4,6.4,0,0,1,2,4.2,2.8,2.8,0,0,1,.1.9,8.8,8.8,0,0,1-.2,1.7v.3a12.1,12.1,0,0,1-.1,1.9c0,.2,0,.3-.1.4h0l-.2.3h-.1l-.3.4h0l-.3.4h-.2l-.3.2h-.2l-.4.3h-.2l-.5.2c0,.1-.1.1-.2.1H122l-.2.3h-.1c-.1.1-.2.2-.2.3l-.2.2-.2.2-.2.2h-.2c0,.1,0,.1-.1.1-1.1,4-3,11.1-2.5,12.4a1.6,1.6,0,0,1,.3.9h.1v.6h.1v.4h0v.4c-.1,0-.1,0-.1.1h0v.2h-1.9l-.5-.2-.3-.2h0a.5.5,0,0,1-.2-.4h0a12.3,12.3,0,0,1-1.1-3.9h0a1.9,1.9,0,0,0-.1-.8h0a2.2,2.2,0,0,0-.1-.8v-.9a.4.4,0,0,0-.1-.3v-.9a1.5,1.5,0,0,0-.1-.7v-1.9a.9.9,0,0,0-.1-.5v-.7a9.4,9.4,0,0,1-3,.6c-1.2,4.8-2.7,11.5-2.2,12.7a7.9,7.9,0,0,1,.4,2h0v.3h0v.3h0c0,.1,0,.2-.1.2h0c0,.1-.1.1-.1.2h-.2c0,.1,0,.1-.1.1H107l-.4-.2-.3-.2h0l-.2-.3h0c-.1-.1-.2-.2-.2-.3h0a.4.4,0,0,1-.1-.3h-.1c0-.2-.1-.3-.1-.5h0a5.7,5.7,0,0,1-.4-1.4h0a1.5,1.5,0,0,1-.1-.7.3.3,0,0,1-.1-.2,1.3,1.3,0,0,0-.1-.6v-.3c0-.2-.1-.5-.1-.7V119a30.3,30.3,0,0,1-.2-3.1h0a3.1,3.1,0,0,1-.1-1h0v-1h0c-.1-1.9-.1-3.8-.1-5.6h0a9.4,9.4,0,0,1-2.8-1.6h-.1l-.8-1-.3-.3-.6-.5-.3-.4-.5-.4-.4-.4-.5-.4h-.9c-2.3.2-2.6,3-1.3,5.3a5,5,0,0,1,.6,1.7h0a1.1,1.1,0,0,1,.1.5h0c0,.2-.1.3-.1.4h0l-.3.2h-.5a.8.8,0,0,1-.7,0h0l-.8-.2-.4-.2h0c-2.2-1.5-2.5-9.5-1.7-11.2h-.4a9.1,9.1,0,0,1-6.7,3.8c-2.3.1-2.6,3.2-1.3,5.7h0q.9,2,.6,2.7h0v.2h-.1a.1.1,0,0,1-.1.1h-.2a.1.1,0,0,0-.1.1H82l-.3-.2h-.1l-.2-.2h-.1a4.3,4.3,0,0,1-.4-.7h0a3.3,3.3,0,0,1-.5-1.2h0a18.7,18.7,0,0,1-.9-5.9h0v-.7h0v-.6h0v-.5h0a1.3,1.3,0,0,0,.1-.6h0v-.4h.1v-.4h0a.4.4,0,0,0,.1-.3h.1c0-.1,0-.2.1-.2s3.6-4.5,3.5-8.2v-2a.6.6,0,0,1,.1-.4V88l-1.3,1a10.8,10.8,0,0,1-5.7,1.1A11.2,11.2,0,0,1,71,87.8,1.1,1.1,0,0,1,71,86.7Z"/></g></svg>