<svg xmlns="http://www.w3.org/2000/svg" viewBox="0 0 200 200"><defs><style>.cls-1{fill:#ffa726;}.cls-2{fill:#fff8e1;}.cls-3{fill:#ff8f00;}.cls-4{fill:#f7b56d;}.cls-5{fill:#fff2de;}.cls-6{fill:#ffd9b0;}.cls-7{fill:#fccfa2;}.cls-8{fill:#88bbbf;}.cls-9{fill:#424242;}.cls-10{fill:#fff;}.cls-11{fill:#f57c00;}.cls-12{fill:none;stroke:#8c6239;stroke-miterlimit:10;stroke-width:0.1px;}</style></defs><g id="Duckling_02"><path class="cls-1" d="M89,110.2s-1.3,1.4-1,1.8,1.4-.7,1.4-.7Z"/><path class="cls-1" d="M97.8,111.1a52.1,52.1,0,0,0-8.2,2.8c-.6.3-1-.4-.8-1.3s-.3-3.5-.4-4.9A1.8,1.8,0,0,1,89,106s1.8-1.5,1.6-.6a13.4,13.4,0,0,0-.1,2.1,12.9,12.9,0,0,0,.1,3.5l1.6-3.2c.1.1.3.2.4.4a3.4,3.4,0,0,0,2.4.6l.6-.2a.6.6,0,0,1,.1.4c.2.7.9,1.2,1.7,1.7s.2.3.4.4"/><path class="cls-2" d="M98.5,110.8c-.3-.5-1.3-.3-1.1.1s.6-.1,1.1-.1"/><path class="cls-2" d="M96.3,108.5c-.5-.4-1.5.1-1.1.4s.4-.2,1.1-.4"/><path class="cls-2" d="M93.1,107.3c-.7-.2-1.3.6-.9.8s.3-.4.9-.8"/><path class="cls-3" d="M97.4,110.7c-2,.3-6,1.8-6.1,1.6s4-3,4.4-3.3.9,1.2,1.7,1.7"/><path class="cls-3" d="M95.1,108.8c-1.4.8-4.1,3-4.3,2.9s1.5-2.4,1.8-3.5a3.4,3.4,0,0,0,2.4.6Z"/><path class="cls-3" d="M90.6,105.4a13.4,13.4,0,0,0-.1,2.1,5,5,0,0,1-2.1.2A1.8,1.8,0,0,1,89,106s1.8-1.5,1.6-.6"/><path class="cls-1" d="M97.3,115s-1.3,1.4-1,1.9,1.4-.8,1.4-.8Z"/><path class="cls-1" d="M106.2,115.9a65.3,65.3,0,0,0-8.3,2.7c-.6.3-1-.4-.8-1.2s-.3-3.6-.4-4.9a1.8,1.8,0,0,1,.6-1.8s1.8-1.5,1.6-.6-.1,1.3-.1,2.1a13.7,13.7,0,0,0,.1,3.6l1.6-3.3.4.4a3.5,3.5,0,0,0,2.4.6l.7-.2v.4c.2.7.9,1.2,1.7,1.7l.5.5"/><path class="cls-2" d="M101.4,112c-.6-.2-1.3.6-.9.8s.3-.4.9-.8"/><path class="cls-3" d="M105.7,115.4c-2,.3-6,1.9-6.1,1.6s4-3,4.4-3.3.9,1.2,1.7,1.7"/><path class="cls-3" d="M103.4,113.5c-1.3.8-4.1,3-4.3,2.9s1.5-2.4,1.8-3.5a3.5,3.5,0,0,0,2.4.6Z"/><path class="cls-3" d="M98.9,110.1c0,.6-.1,1.3-.1,2.1a5.1,5.1,0,0,1-2.1.3,1.8,1.8,0,0,1,.6-1.8s1.8-1.5,1.6-.6"/><path class="cls-2" d="M106.8,115.6c-.3-.6-1.3-.4-1.1,0s.6-.1,1.1,0"/><path class="cls-2" d="M104.6,113.2c-.5-.4-1.4.2-1.1.4s.4-.2,1.1-.4"/><path class="cls-4" d="M87.2,105.5s2-10.2,10.9-11.6c5.5-.9-7.2,11.6-10.9,11.6"/><path class="cls-5" d="M109.2,102.8c-.9,2.6-2.1,3.9-7.5,8.6s-12.1.3-15.1-2.4l-.2-.2c-2.6-2.4-2-2.9-.3-3.2s3-3.6,6.8-8.2c2.3-2.8,4.3-3.2,6.5-4.1s4.1-1.6,3.4-4.2-1.7-7.2.3-9.1a5.8,5.8,0,0,1,1.8-1.1,5.4,5.4,0,0,1,5.1.6,2.4,2.4,0,0,1,1.2,1.6c.1.7.3,3.2-.1,3.9l-.7.8c-.7.5-1.9,1-1.4,4.6s1,6.6,1,7.1a12,12,0,0,1-.8,5.3"/><path class="cls-6" d="M89.5,105.4c1.8-2,9.5-10.2,12.7-10.4s1.2,7-1.6,9.4-8.4,4-8.1,2.4-.9.3-1.5.3-.5-.6-.9-.5-1.6-.2-.6-1.2"/><path class="cls-7" d="M109.9,98.8c-.4,4.3-1.7,6.9-7.5,12s-12,1.6-15.2-1.3l-.2-.2V109c-.3-1.2,14.6,7.5,22.8-10.2"/><path class="cls-6" d="M109.6,100.9c.4-2.7-.5-9.8-1.3-12.6s-1.5-1-1.8-1.7,1.6.6,3.6-.7c-.6.5-1,2.1-.7,5.8s1,6.5.2,9.2"/><path class="cls-1" d="M108.8,82.2a.7.7,0,1,1-1.3-.1c.2-1.1,1.4-.7,1.3.1"/><path class="cls-8" d="M108.7,82.2c-.1.7-1.1.7-1-.1s1-.5,1,.1"/><path class="cls-9" d="M108.5,82.2c-.1.3-.7.4-.6-.1s.6-.3.6.1"/><path class="cls-10" d="M108.2,82.1c0,.1.2.1.3.1a.3.3,0,0,0,0-.4.2.2,0,0,0-.3-.1c-.1.1-.1.2,0,.4"/><path class="cls-1" d="M114.2,85a12.3,12.3,0,0,0-3.7.1l.6-.9c.4-1.1-.4-1.9-1-2.7s.4-1.7,1-1,.1.1.1.2a5.1,5.1,0,0,0,2.6,2.4c1.9.7,2.1,2.2.4,1.9"/><path class="cls-11" d="M114.2,85a12.3,12.3,0,0,0-3.7.1l.6-.9,3.1.8"/><path class="cls-11" d="M112.4,83.1c-.1.2.7.5.7.3s-.6-.6-.7-.3"/><path class="cls-12" d="M113.8,83.1a5.1,5.1,0,0,1-2.6-2.4c0-.1,0-.1-.1-.2l-.2-.2a3.4,3.4,0,0,0-.9-.8,5.4,5.4,0,0,0-5.1-.6,5.8,5.8,0,0,0-1.8,1.1c-2,1.9-.9,6.3-.3,9.1s-1.1,3.4-3.4,4.2l-1.5.6c-7.8,1.4-10.2,9.5-10.7,11.2a2.2,2.2,0,0,1-1.1.5c-1.7.3-2.3.8.3,3.2l.2.2,1.1.9.9.7c-.3.5-.8,1.1-.6,1.4s.5,0,.9-.2a1.9,1.9,0,0,0-.1.8c-.2.9.2,1.6.8,1.3l3.2-1.3,1.1.3a9.2,9.2,0,0,0,2.9.4l.3,1.9c-.3.4-1,1.3-.8,1.7s.5,0,.9-.3-.1.5-.1.8.2,1.5.8,1.2a53.7,53.7,0,0,1,8-2.7c.3.2.6-.4.9-.3a.7.7,0,0,0-1.1-.2h0a3.8,3.8,0,0,1-1.7-1.6.9.9,0,0,1,.6-.6.9.9,0,0,0-1.2.3h-.1a3.2,3.2,0,0,1-2.3-.6c.1-.1,0-.6.4-.9H101l.7-.6c5.4-4.7,6.6-6,7.5-8.6a12,12,0,0,0,.8-5.3c0-.3-.1-1.3-.3-2.8a25.3,25.3,0,0,1-.3-3c-.3-3.1,0-4.8.5-5.5a1,1,0,0,1,.5-.4l.7-.8h0a10.7,10.7,0,0,1,3.1,0C115.9,85.3,115.7,83.8,113.8,83.1Zm-13.4,29.6-1.5,3.1a20.3,20.3,0,0,1-.2-2.8,6.4,6.4,0,0,0,1.9-.8C100.5,112.4,100.4,112.5,100.4,112.7Z"/></g></svg>