<svg xmlns="http://www.w3.org/2000/svg" viewBox="0 0 200 200"><defs><style>.cls-1{fill:#703d1a;}.cls-2{fill:#bf7a41;}.cls-3{fill:#e5b28c;}.cls-4{fill:#424242;}.cls-5{fill:#915527;}.cls-6{fill:#212121;}.cls-7{fill:#3e2723;}.cls-8{fill:#fff;}.cls-9{fill:none;stroke:#8c6239;stroke-miterlimit:10;stroke-width:0.22px;}</style></defs><g id="Dog_01"><path class="cls-1" d="M109.3,80.6a4.1,4.1,0,0,0-.1,1.1v.5l.2.4c0-.2.1-.2.1-.4s0,1.3.2,1.5.1-.3.2-.4.7,1.6.9,1.4a48.8,48.8,0,0,0,2.6-5h-1.5a7.9,7.9,0,0,0-2.2.5A.8.8,0,0,0,109.3,80.6Z"/><path class="cls-2" d="M107.2,95l.4,13.6s.8-.5,1.3-.2,1.3,1.8.3,2.3-3.3,1-4.1-2.7L102,95.1Z"/><path class="cls-2" d="M83.8,100.5s4.8,4.5,3,9.8-3.7,5.1-3.5,6.2a21.5,21.5,0,0,0,1,2.9,3.1,3.1,0,0,1,1.2-.4,1.5,1.5,0,0,1,1,1.6c-.2.5-2.7,1.9-3.9.3s-3.1-4.7-3.1-5.3,2.9-3,.1-5.6S83.8,100.5,83.8,100.5Z"/><path class="cls-3" d="M123.5,85.6h0a3.1,3.1,0,0,1-2.5,1.9c-.3.4,1.5-.1,1.5-.1-.4,1.7-3.2.8-4.8,1.9s-1.2,1.4-1.3,3.1.5,5.1-1.7,10v.2c-.6,1.3-1.2.7-3.1,2h-.2l-.6.5-3.8,2c-3.9,1.7-9.6,2-13,1.8h-3l-3.9.6-3.1.6h-.1l-3.2.4H80a2.2,2.2,0,0,1-1.3-.5c-2.9-2.7-2-12.2,5.3-14.9A25.9,25.9,0,0,1,89.2,94h.4c3.5-.4,5.5.3,12.2-3,4.5-2.3,5.8-4.7,6.8-7.2s1.8-3.4,3.5-4.1h.3a10.8,10.8,0,0,1,2.7-.5h2.3l.4.2h.4l.2.2h.4l.7.8a4.5,4.5,0,0,1,.6,1.2,9.7,9.7,0,0,0,2.5,1.7h.2a1.8,1.8,0,0,1,.7.8A1.4,1.4,0,0,1,123.5,85.6Z"/><path class="cls-3" d="M116.5,113.5c-1.9,1-3.3.8-4.1-2.5-.3-1.3-1.1-4.1-1.7-6.6-.2-.5-.3-1.1-.5-1.6s-.7-2.6-.8-3.1a1.6,1.6,0,0,1-.1-.4h5.2v3l.2,3.9v5.5s.8-.5,1.3-.2S117.5,113.1,116.5,113.5Z"/><path class="cls-3" d="M94.1,114.8c-1.5,4.8-3.7,5.3-3.5,6.4a22.5,22.5,0,0,0,1,3.1,2.8,2.8,0,0,1,1.2-.5c.5.1,1.2,1.1,1,1.6a2.3,2.3,0,0,1-1.4,1,2,2,0,0,1-2.5-.6c-.6-.9-3.1-4.9-3.1-5.5a1.3,1.3,0,0,1,.3-.7,5,5,0,0,0,1-2.9,3.7,3.7,0,0,0-1.2-2.2,15.5,15.5,0,0,0-3.2-2A8.7,8.7,0,0,1,80,110a5.3,5.3,0,0,1-1.1-2.4c-.5-2.4,2.8-3.1,6-3.2a39.7,39.7,0,0,1,5.1.1l1.1.2a3.6,3.6,0,0,1,.7.7l.4.5a11.3,11.3,0,0,1,1.5,2.7,1.4,1.4,0,0,1,.2.6A8.2,8.2,0,0,1,94.1,114.8Z"/><path class="cls-4" d="M123.5,85.6h0c-.4-.1-.7-.2-.8-.5a1.9,1.9,0,0,1,.1-1.3,1.8,1.8,0,0,1,.7.8A1.4,1.4,0,0,1,123.5,85.6Z"/><path class="cls-5" d="M120.8,83.7h0a2.4,2.4,0,0,1-.5,1h0c0,.1-.1.1-.1.2a4.3,4.3,0,0,1-2.1,1.1l-1.6.4a5,5,0,0,0-2.5.9,7.6,7.6,0,0,0-.8,1.1,5.2,5.2,0,0,0-.6,1.3.7.7,0,0,0-.1-.5,10.9,10.9,0,0,0-.9,2.3,24.3,24.3,0,0,0,0,2.7,2.2,2.2,0,0,0-.5-.8c-.1.9,0,4.3-.4,4.9l-.3-.6a8.5,8.5,0,0,1-.4,1.7c-.1.5-.5.9-.6,1.4s0-.3-.1-.4a2.6,2.6,0,0,1-1.2,1.9l-.8.5-.4.2c.1,0,.2-.3.3-.4s-2,1.5-3.4,1.6c.2,0,.4-.4.5-.5H101l-.5-.2h0c-.1,0-.3-.1-.5,0H97.3l.4-.3a5.7,5.7,0,0,0-1.8.3,4.4,4.4,0,0,0-1.5.5c-.3.2-1,.6-1,1s.1-.5.1-.8a4.7,4.7,0,0,0-1.4,1.4H92a6.1,6.1,0,0,0-.5,1.2,1.3,1.3,0,0,1-.1-.6c-.1,0-.1.1-.2.3a8.1,8.1,0,0,0-.3,2.5c0,.6.1,1.2.1,1.7l-.6-.8c0,1.4-.1,2.8-.2,4.1l-.2-.3a9.1,9.1,0,0,1-.3,2.3,2.3,2.3,0,0,1-.6,1.2v-.6a7.1,7.1,0,0,1-1,1.4.4.4,0,0,0-.1-.3h0a4.5,4.5,0,0,0-1.1-2,10,10,0,0,0-2-1.6l-1.2-.6a13,13,0,0,1-3.1-2.1l-.6-.7a2.2,2.2,0,0,1-1.3-.5c-2.9-2.7-2-12.2,5.3-14.9A25.9,25.9,0,0,1,89.2,94h.4c3.5-.4,5.5.3,12.2-3,4.5-2.3,5.8-4.7,6.8-7.2s1.8-3.4,3.5-4.1h.3a10.8,10.8,0,0,1,2.7-.5h2.3l.4.2h.4l.2.2h.4c-.6.6-.4,1.6.8,2.1a1.7,1.7,0,0,1,1.2,1.5Z"/><path class="cls-6" d="M119.9,82.7l.4.4-.4.6c-.3.2-.7-.1-.7-.1s-.3-.6.2-.9A.4.4,0,0,1,119.9,82.7Z"/><path class="cls-7" d="M119.4,83.5a.4.4,0,0,0,.6-.1.5.5,0,0,0-.3-.7A.5.5,0,0,0,119.4,83.5Z"/><path class="cls-6" d="M119.5,83.3c.1.1.3.2.4,0s0-.4-.2-.4S119.3,83.1,119.5,83.3Z"/><path class="cls-5" d="M118.8,85.5c-.3.4-1.1.9-1.5,1.3a.4.4,0,0,1,.1-.3c-.7.2-3.4,1.5-4.1,3.9a2.1,2.1,0,0,0-.3-.7,5,5,0,0,0-.2,1.7c0,.6-.1,1.1-.1,1.6a1.4,1.4,0,0,1-.2-.6,14.3,14.3,0,0,0,1.1,5.6l-.7-.4a6,6,0,0,1,.8,3.5l-.4-.5-.5-.6a5.7,5.7,0,0,1-1.1-1.6A8,8,0,0,1,111,95c.1-1.3.5-2.5.7-3.7a3.1,3.1,0,0,1,.5-1.7,4.3,4.3,0,0,1,2.1-2.5l1.5-.6,1.4-.5A4.3,4.3,0,0,0,118.8,85.5Z"/><ellipse class="cls-8" cx="119.5" cy="83.3" rx="0.1" ry="0.1"/><path class="cls-5" d="M81.5,105.6a10.2,10.2,0,0,1-6.3-5.8,10.4,10.4,0,0,1-.1-7l.4-.4h.1c.5-.2.9.1.8.5a11.2,11.2,0,0,0,.3,6.2,9.8,9.8,0,0,0,5.6,5.6"/><path class="cls-2" d="M112.1,81.6c4.6-3,7.6-1,7,.6s.3,1.2-.5,2.4l-.5.8a3.6,3.6,0,0,1-.2,1,2.6,2.6,0,0,1-.7,1.1,1.3,1.3,0,0,0,.1-.6,3.1,3.1,0,0,0-.3,1.3c.1.5.2,1.4-.6,1.5a3.4,3.4,0,0,1-2.3-1c-1.3-1.1-1.4-3-2.1-4.5S111.2,82.2,112.1,81.6Z"/><path class="cls-9" d="M123.5,84.7a1.8,1.8,0,0,0-.7-.8h-.2a9.7,9.7,0,0,1-2.5-1.7,4.5,4.5,0,0,0-.6-1.2l-.7-.8h-.4l-.2-.2h-.4l-.4-.2h-2.3l-1.6.2-1.1.3h-.5a7.1,7.1,0,0,0-2.2.5.8.8,0,0,0-.4.4,4.1,4.1,0,0,0-.1,1.1v.5h0a5.4,5.4,0,0,1-.5,1.1c0,.1-.1.2-.1.3-1,2.5-2.3,4.9-6.7,7.1a.1.1,0,0,0-.1.1c-5.5,2.7-7.8,2.7-10.5,2.9H89.2l-1.1.2L85,95l-1,.3a11.1,11.1,0,0,0-4.1,2.8,11.8,11.8,0,0,0-1.9,3.2A7.3,7.3,0,0,1,76.7,99a11.2,11.2,0,0,1-.3-6.2c.1-.4-.3-.7-.8-.5h-.1l-.4.4a10.4,10.4,0,0,0,.1,7,9.1,9.1,0,0,0,2.2,3.4c-.6,2.9-.1,5.7,1.3,7l.4.3H80l.6.7h0c.8,2-1.1,3.7-1.1,4.2s2.5,4.5,3.1,5.3,3.7.2,3.9-.3a1.5,1.5,0,0,0-1-1.6,3.1,3.1,0,0,0-1.2.4,21.5,21.5,0,0,1-1-2.9c-.1-.7.6-1.1,1.6-2.4h0a10,10,0,0,1,2,1.6,4.5,4.5,0,0,1,1.1,2,6.7,6.7,0,0,1-.9,1.9,1.3,1.3,0,0,0-.3.7c0,.6,2.5,4.6,3.1,5.5a2,2,0,0,0,2.5.6,2.3,2.3,0,0,0,1.4-1c.2-.5-.5-1.5-1-1.6a2.8,2.8,0,0,0-1.2.5,22.5,22.5,0,0,1-1-3.1c-.2-1.1,2-1.6,3.5-6.4a8.2,8.2,0,0,0-.2-5.6h0a32.5,32.5,0,0,0,11.2-1.2h0c.8,3.7,2.2,3.8,4.1,2.7s.2-1.9-.3-2.3-1.3.2-1.3.2v-1.7a29.4,29.4,0,0,0,3.1-1.6l.2-.2,1.5,5.9c.8,3.3,2.2,3.5,4.1,2.5s.2-1.8-.3-2.1-1.3.2-1.3.2v-9h0c2.2-4.9,1.6-8,1.7-10s.6-2.6,1.3-3.1,4.4-.2,4.8-1.9c0,0-1.8.5-1.5.1a3.1,3.1,0,0,0,2.5-1.9h0A1.4,1.4,0,0,0,123.5,84.7Z"/></g></svg>