<svg xmlns="http://www.w3.org/2000/svg" viewBox="0 0 200 200"><defs><style>.cls-1{fill:#bf7a41;}.cls-2{fill:#d89c6a;}.cls-3{fill:#b77d4e;}.cls-4{fill:#616161;}.cls-5{fill:#424242;}.cls-6{fill:#b08051;}.cls-10,.cls-7{fill:#212121;}.cls-11,.cls-8{fill:#3e2723;}.cls-12,.cls-9{fill:#fff;}.cls-10,.cls-11,.cls-12{stroke:#000;stroke-width:0.05px;}.cls-10,.cls-11,.cls-12,.cls-14{stroke-miterlimit:10;}.cls-13{fill:#5b3114;}.cls-14{fill:none;stroke:#5b3114;}</style></defs><g id="Dog_03"><path class="cls-1" d="M144.9,87.4l.8-.2a3.6,3.6,0,0,1-2.2,2l-1.2.2-.7.3a1.3,1.3,0,0,0,.5.7l-1.1.4a4.7,4.7,0,0,1-1.7.2,7.2,7.2,0,0,1-2.5-.7,1.1,1.1,0,0,0,.3,1.2,5.2,5.2,0,0,1-3.6-1.1,22.2,22.2,0,0,1-4.4-3.7,15.4,15.4,0,0,1-3-3.9c-.4-.6-.7-1.4-1.1-2.1-8.6-9.6-2.5-17.8-2.5-17.8s5,.5,9.2,5.3a31,31,0,0,1,4.7,7.9,15.9,15.9,0,0,0,1.4,2.6,10.8,10.8,0,0,0,3.7,3.7,5.8,5.8,0,0,0,5.1.6A7.5,7.5,0,0,1,144.9,87.4Z"/><path class="cls-2" d="M144.9,87.4l.8-.2a3.6,3.6,0,0,1-2.2,2l-1.2.2-.7.3a1.3,1.3,0,0,0,.5.7l-1.1.4a4.9,4.9,0,0,1-3.9-1.6c1-.3,2.1.1,3.1-.5s-1.2-1.1-1.1-1.7h2c-1-1-2-1.7-2.4-3.2.7.2,1.2.7,1.9.8a9.2,9.2,0,0,1-2.8-5.9,10.8,10.8,0,0,0,3.7,3.7,5.8,5.8,0,0,0,5.1.6A7.5,7.5,0,0,1,144.9,87.4Z"/><path class="cls-1" d="M83.5,109.3a124.7,124.7,0,0,0-1.3,16.2c0,3.1-.2,4.9-1.9,5.4s-2.3.6-3.6-.4a1.9,1.9,0,0,1,.8-3.5l-1.2-11.5-1.2-11.7-.6-6,10.9-2.7S84.4,101.9,83.5,109.3Z"/><path class="cls-1" d="M58.9,67.9a15,15,0,0,0-.2,2,2.8,2.8,0,0,0,.1.9c0,.2.3.5.3.7s.1-.4.1-.7,0,2.2.5,2.6a1.9,1.9,0,0,1,.2-.7c.6,1.5,1.2,2.7,1.6,2.5s4.3-8.9,4.3-8.9H63.3a11.2,11.2,0,0,0-3.1.5A2.6,2.6,0,0,0,58.9,67.9Z"/><path class="cls-2" d="M97.8,109.9c0,.9.8,1.6.8,2.3a3.3,3.3,0,0,0-1.4,0c.3.9.8.6.2,1.3a16.2,16.2,0,0,0-1,1.8c-.7,6.8-1.3,14.1-1.3,17s-.5,4.8-2.2,5.3-2.3.6-3.6-.4l-.3-.3c-1.9-1.6.1-3.3,1.1-3.3l-2.3-22.5-.7-6.6,8.6-2.1,2.3-.6s-.3,2.6-.8,6.4c.2.2.4.4.4.5a.8.8,0,0,1,.4.4,4.5,4.5,0,0,1,1,1.4C98.6,110.4,98.3,110,97.8,109.9Z"/><path class="cls-3" d="M124.6,90.4c-.3-2.8-2.8-1.9-3.8-8.9a36.4,36.4,0,0,1,0-6.6H101c1.3,11,9.4,12.4,17.5,19.6,1.4,1.2,1.6,5.4,1,8.8-1,0-3.7,1.9-1.4,3.7s2.1.8,3.7.4C125.8,106.1,125,93.1,124.6,90.4Z"/><path class="cls-2" d="M137.8,106.7c0,.4-.1.6-.1.8-.2,2.5-.8,5.7-3.4,6.5a3,3,0,0,1-3.6-.4c-2.3-1.7.3-3.6,1.3-3.5a7.9,7.9,0,0,0,.3-1.3c.4-3.2.1-6.6-1.2-7.7l-1-.8c-4.2-3.5-8.4-5.6-11.5-8.5l-2-2.1-1.3-2-.5-1.1a21.9,21.9,0,0,1-1.5-8c0-.5.1-1,.1-1.5s9.5-7.7,13.2-10.5l1.5-1c7.8,9.2,4.4,16,5.3,22.6a13.4,13.4,0,0,0,1.7,5.3,13,13,0,0,1,1.8,2.5l.2.3a23.1,23.1,0,0,1,.6,5.2A44.7,44.7,0,0,1,137.8,106.7Z"/><path class="cls-2" d="M127.9,78.7l-.3.5-1.2,2.1-.6.9-2.4,3.3-.9,1.2-.7.9-2.4,3.1-.8,1h0a3.5,3.5,0,0,1-.8,1.6l-.2.2c-.7.8-1.4,1.8-2.2,2.1l.7.3a9,9,0,0,0-1.6,1.8,11.8,11.8,0,0,1-1.8,1.3,15.3,15.3,0,0,1-1.6,1.1h-.7c.4,0,.9.3,1.4.3a11.1,11.1,0,0,1-4,3.1c-.8.4-2.1,1.3-3,1.2a4.1,4.1,0,0,0,2.2,0c-.4.2-.7.7-1.1,1.1a4.1,4.1,0,0,1-1.9,1.2l-3.7,1.1-2.3.8-.9.2-1.7.5a17.4,17.4,0,0,1-7.6,1.3l-2.2-.4-1-.3c.1.2,0,.4.1.6l-3.1-.9a7.2,7.2,0,0,1-2.2-1.7c-.2.2-.1.4-.1.6l-1.5-.4a7.1,7.1,0,0,1-1.8-1.2,7.2,7.2,0,0,1-1.8-2.4,1.9,1.9,0,0,0,0,1.5c-.4-.6-1.1-1-1.6-1.6a5.1,5.1,0,0,1-1.1-2.2,9.3,9.3,0,0,1-.7-2c-.2.2-.1.4-.1.7a6.5,6.5,0,0,1-1.1-1.2,13.6,13.6,0,0,1-1.7-3.9,9.2,9.2,0,0,1-.1-1.6,2.6,2.6,0,0,0-.1,1.2,12,12,0,0,1-1.6-4.6,21.1,21.1,0,0,1-.2-2.6,1.4,1.4,0,0,0-.2-.6,11.8,11.8,0,0,1,0-1.9A9.9,9.9,0,0,1,59,89.8a4.9,4.9,0,0,1-3-1.9c-2.1,1.2-2.7-1.8-2.6-3.4s3.8-5.5,4.1-6.1h0c1.4-2.9,1-6.2,4.3-9.6l.4-.3.4-.4.4-.3.3-.2h.1a.2.2,0,0,0,.2-.2l1.2-.6h.3l.7-.3.9-.2h0l.6-.2h1.3c5.8-.2,8.9,2.5,11.9,5.1l.4.3,1.2,1a13.7,13.7,0,0,0,2.9,2h0l.5.2,1.4.4a8.5,8.5,0,0,0,3.2.1,4,4,0,0,0,1.5-.3h.5l2.4-1.1,1-.6,1.6-.9.8-.5.8-.5.9-.5,1.6-1,.7-.4.5-.3,1.4-.8,1-.6,1-.5.5-.3.8-.4,1.2-.6,1.1-.5,2.3-1,.9-.3,1-.4.9-.3h0a20.6,20.6,0,0,1,6.4-.9h.4l1.5.3h.5l.5.2h.6a.5.5,0,0,0,.4.2l.7.4.4.2.5.4h0l.9.7h0l.8.8.2.3h0c.9,1.2,1,2.5,1.3,4.8A15.4,15.4,0,0,1,127.9,78.7Z"/><path class="cls-1" d="M59,89.8a4.9,4.9,0,0,1-3-1.9,1.4,1.4,0,0,1-2-.4,10.8,10.8,0,0,0,.1-1.6A2.9,2.9,0,0,1,55.3,83c2.1-1.3,3.5.4,3.5,3S57.4,88.5,59,89.8Z"/><path class="cls-4" d="M54.5,84s3.7-3.2,4,2Z"/><path d="M54.5,84a2.1,2.1,0,0,1,1-.6,2.1,2.1,0,0,1,1.9-.2,1.6,1.6,0,0,1,.7.9,4.1,4.1,0,0,1,.3.8c0,.2.1.4.1.6V86h-.2l-.4-.2-1.3-.6-1.3-.7-.8-.4h0l1.3.7L58,85.8l.5.2h0c0-1-.2-2.6-1.4-2.9a2.6,2.6,0,0,0-2.1.5,1,1,0,0,0-.5.4Z"/><path class="cls-1" d="M135.1,93.5h0l-2.1-.4.6.6c-1.1.8-2.9-1.1-3.6-1.7l.2.5c-1,.5-2.6-1.3-3.1-2s-2.3-2.6-2.2-3.8a3.7,3.7,0,0,0,.1,1.5c-.6-.3-.8-1.2-1.1-1.8a4.1,4.1,0,0,0-.5-.9l-.4-.6a5.2,5.2,0,0,0-1.9-1.7,3.1,3.1,0,0,0-1-.5,1.8,1.8,0,0,1,.3,1.3c-.7-1-2.2-.9-3.3-.8a4.6,4.6,0,0,0-1.9.8l-1,.8h-.1a.1.1,0,0,1,.1.1.9.9,0,0,1,.8.6h-.6a7.6,7.6,0,0,0-2.3,2,8,8,0,0,0-.9,1.4,5.6,5.6,0,0,1-.5.8c.3,0,1.1.2,1.2.6s-1.9,1.1-2.2,1.4a7.5,7.5,0,0,0-1.4,1.7,3.1,3.1,0,0,1-.7.9l.5-.2c-.2,1.2-1.5,2.4-2.4,3.1s-1.6.8-2.1,1.3a1.9,1.9,0,0,0,1.6.6,5.9,5.9,0,0,1-4.4,2.2H98.5c-.5,0-1.5.5-1.9.1a1.4,1.4,0,0,0,.3.9,5.8,5.8,0,0,1-2.3.3,5.6,5.6,0,0,1-2.1-.6c-1.1-.5-2.8-1.2-3-2.5a1.7,1.7,0,0,0,.1,1.2c-1-.3-1.7-2.4-1.9-3.3a11.6,11.6,0,0,1,.3-4.9,3.8,3.8,0,0,1-1,1.2c0-1.5.3-3,.3-4.5s-1.1-3.2-1.2-4.7a3.9,3.9,0,0,1-.6,2.4,6.8,6.8,0,0,0-1.3-3.3l-1.9-1.8c-.4-.3-.9-.9-1.5-1.3a5.8,5.8,0,0,0-3.2,0l-1.4.5A38.3,38.3,0,0,1,71.6,83a12.9,12.9,0,0,1-4.1.8c-2.8,0-6-1.7-4.9-6.1s3.4-3.3,2.8-5.2-3.8-1.4-3.9,1.8-1.5,4.1-4,4.1c1.4-2.9,1-6.2,4.3-9.6l.4-.3.4-.4.4-.3.3-.2h.1a.2.2,0,0,0,.2-.2l1.2-.6h.3l.7-.3.9-.2h0l.6-.2h1.4c5.7-.2,8.9,2.5,11.8,5.1l.4.3,1.2,1a13.7,13.7,0,0,0,2.9,2h0l.5.2,1.4.4a8.5,8.5,0,0,0,3.2.1l1.5-.3h.5l2.4-1.1,1-.6,1.6-.9.8-.5.8-.5.9-.5,1.6-1h0l.7-.4.5-.3,1.4-.8,1-.6,1-.5.5-.3.8-.4h0l1.2-.6,1.1-.5,2.3-1,.9-.3,1-.4.9-.3h0a20.6,20.6,0,0,1,6.4-.9h.4l1.5.3h.5l.5.2h.6a.5.5,0,0,0,.4.2l.7.4.4.2.5.4h0l.9.7h0l.8.8h0l.2.2h0l1.3,1.7h0a3.5,3.5,0,0,1,.5.8l.3.3a.8.8,0,0,0,.2.4c.3.4.5.9.8,1.4a.8.8,0,0,0,.2.4l.4.9.3.9.3.9c0,.1.1.3.1.4a3.1,3.1,0,0,1,.2.8c0,.1.1.2.1.4h0c0,.2.1.3.1.4v.5a2.2,2.2,0,0,0,.1.8,5.7,5.7,0,0,0,.1,1.3v.4c0,1.3,0,2.6-.1,3.9a20.1,20.1,0,0,1-.1,2.5c0,.9.1,1.7.1,2.5a1.7,1.7,0,0,1,.1.7c.2,1,.3,1.8.5,2.5a.6.6,0,0,1,.1.4.4.4,0,0,1,.1.3c.1.1.1.3.2.4a.4.4,0,0,0,.1.3,3.1,3.1,0,0,0,.5,1A.5.5,0,0,0,135.1,93.5Z"/><path class="cls-5" d="M54.4,84.3a3.2,3.2,0,0,0,1.8,2.9c1.1.4,1.8.1,2.3-1.1S54.3,82.9,54.4,84.3Z"/><path d="M54.4,84.3a3.2,3.2,0,0,0,1.7,2.9,2.2,2.2,0,0,0,1.4.1,1.8,1.8,0,0,0,.9-1,.8.8,0,0,0,0-.7l-.6-.7a10,10,0,0,0-2.1-1h-.9c-.2.1-.4.1-.4.3v.2h0c0-.6.8-.5,1.1-.4a7.2,7.2,0,0,1,2,.9,1.3,1.3,0,0,1,.7.6.7.7,0,0,1,.3.6,1.4,1.4,0,0,1-.2.6c-.2.2-.3.4-.5.5a1.5,1.5,0,0,1-1.3.2,3.1,3.1,0,0,1-2.1-3Z"/><path class="cls-6" d="M60.2,76.3a3.1,3.1,0,0,0,.8-2c-.2-1-1.8.5-1.8.5Z"/><path class="cls-7" d="M64.4,78.9s.4-1.3,1.6-1.2.9,1.6,1.4,1.9S65.4,80.8,64.4,78.9Z"/><path d="M64.4,78.9a1.6,1.6,0,0,1,.8-1,1.7,1.7,0,0,1,1.2-.1,1.1,1.1,0,0,1,.6.7c.1.2.1.5.2.7a.4.4,0,0,0,.1.3h.1c.1.1-.2.2-.3.3h-.7a2,2,0,0,1-2-1.1h0A1.9,1.9,0,0,0,66.2,80H67l.4-.2c0-.1.1-.1,0-.1h-.1c-.2-.2-.2-.5-.3-.8a2.5,2.5,0,0,0-.4-.7,1.4,1.4,0,0,0-1.1-.1,1.5,1.5,0,0,0-1.1,1.1Z"/><path class="cls-8" d="M66.7,79.1a.8.8,0,0,1-1,.7.9.9,0,0,1-.8-1A.9.9,0,0,1,66,78,.9.9,0,0,1,66.7,79.1Z"/><path d="M66.7,79.1a.8.8,0,0,1-.7.7,1,1,0,0,1-1-.4,1.1,1.1,0,0,1,.1-1.1c.3-.2.7-.4,1-.2a.8.8,0,0,1,.6,1h0a1,1,0,0,0-.4-1,1.1,1.1,0,0,0-1.1.1.9.9,0,0,0-.2,1.1.9.9,0,0,0,.9.5.8.8,0,0,0,.8-.7Z"/><path class="cls-7" d="M66.4,79a.7.7,0,0,1-.7.5.8.8,0,0,1-.5-.7.6.6,0,0,1,.7-.4A.6.6,0,0,1,66.4,79Z"/><path d="M66.4,79a.8.8,0,0,1-.5.5.9.9,0,0,1-.6-.3c-.1-.2-.1-.5.1-.6a.5.5,0,0,1,.6-.2.5.5,0,0,1,.4.6h0a.7.7,0,0,0-.3-.6.6.6,0,0,0-.8.7.5.5,0,0,0,.5.4.6.6,0,0,0,.6-.5Z"/><path class="cls-9" d="M66.6,79a.5.5,0,0,1-.4.2c-.1,0-.2-.2-.2-.3a.3.3,0,0,1,.3-.3C66.5,78.7,66.6,78.8,66.6,79Z"/><path d="M66.6,79c-.1.1-.1.2-.3.2H66a.6.6,0,0,1,.1-.4s.2-.1.3,0,.2.1.2.3h0c0-.1-.1-.3-.2-.3a.2.2,0,0,0-.3,0,.4.4,0,0,0-.1.3l.3.2.3-.2Z"/><path class="cls-10" d="M60.6,75.5a1.4,1.4,0,0,1-.4.8,1.7,1.7,0,0,1-1,0,1.3,1.3,0,0,1-.6-1.1s.8-1,1.6-.5A.6.6,0,0,1,60.6,75.5Z"/><path class="cls-11" d="M59,75.4c0,.2.1.7.5.8a.8.8,0,0,0,.9-1C60.2,74.7,59.4,74.5,59,75.4Z"/><path class="cls-10" d="M59.3,75.4c0,.1,0,.5.3.5a.4.4,0,0,0,.5-.6C60,75,59.5,74.9,59.3,75.4Z"/><path class="cls-1" d="M79.7,76.8c-3.8-5.2-10.2-4.8-9.2-3a3.9,3.9,0,0,1,.4,1.5v.5a3.8,3.8,0,0,0-.1,1.5,2.5,2.5,0,0,1,.2,1,5,5,0,0,0-.2,1.2c0,.6.2,1,.2,1.5a1.1,1.1,0,0,1,.2-.6c0,1.1.3,3.1,1.1,3.6s.1-.3.1-.5.8,1.1,1,1.5.7.9,1.3.8,1.6-.6,1.6-2.3C76.2,80.1,81.2,78.8,79.7,76.8Z"/><path class="cls-12" d="M60.3,75.6c0,.1-.1.2-.3.2a.2.2,0,0,1-.2-.2c0-.2.1-.2.2-.2S60.3,75.4,60.3,75.6Z"/><path class="cls-2" d="M142.9,88.6c.1,0,.1-.1,0-.1Z"/><path class="cls-13" d="M91.1,138.5a4,4,0,0,1-2.2-.9l-.3-.3a2.3,2.3,0,0,1-.8-2.6,2.8,2.8,0,0,1,1.7-1.5l-2.2-21.6-1.3-.3.7.6-2.1-.4-.8-.2a128.7,128.7,0,0,0-1.1,14.2c.1,2.9,0,5.3-2.3,5.9s-2.5.7-4.1-.5a2.3,2.3,0,0,1-1.1-2.8,2.7,2.7,0,0,1,1.7-1.6l-2-19.4-.5-.6-.6.3a3.6,3.6,0,0,0-.9-.8l-.8-.8a5.5,5.5,0,0,1-1.1-2.3l-.3-.7-.4-.4a3.6,3.6,0,0,1-1.1-1.3,10.7,10.7,0,0,1-1.8-4.1v-.2h-.1a13.3,13.3,0,0,1-1.8-4.8,22.6,22.6,0,0,1-.1-2.7l-.2-.5a4.3,4.3,0,0,1-.1-.5A10.3,10.3,0,0,1,59,90.3H57.9a8.1,8.1,0,0,1-2.1-1.5H54.2l-.2-.2h-.3v-.2a.1.1,0,0,0-.1-.1v-.2h0a5.7,5.7,0,0,1-.5-3.1c.2-1.9,2.2-4.2,3.4-5.5l.7-.8h0a17.6,17.6,0,0,0,1-3,12.9,12.9,0,0,1,.8-2.6,3.8,3.8,0,0,1-.1-1h-.1v-.2l-.3-.5a3.3,3.3,0,0,1,0-1v-.5a5,5,0,0,1,.2-1.7,2.8,2.8,0,0,1,1.7-1.3,7.5,7.5,0,0,1,2.6-.5h.5l2.6-.2.7-.2h2.2c6-.3,9.2,2.6,12.1,5.1l.4.4,1.2,1a20.9,20.9,0,0,0,2.7,1.8h.5v.2h.1l1.3.4a10.6,10.6,0,0,0,3.1.1l1.4-.3.4-.2a13.3,13.3,0,0,0,2.3-1l1-.6,1.6-.9,1.6-1,.9-.5,1.4-.8h0l.9-.6.5-.3,1.5-.8,1-.6.9-.5.6-.3,1.1-.6h0l.8-.4,1.2-.5,2.3-1,.9-.3,1-.4.8-.3h.3a19,19,0,0,1,6.4-.8h.4l1.7.2.5.2h.5l.5.2.5.2.8.4.4.3.3.2h.2a18.1,18.1,0,0,1,5.4,4.4,32,32,0,0,1,4.8,8,14.8,14.8,0,0,0,1.4,2.5,11,11,0,0,0,3.5,3.6,5.8,5.8,0,0,0,4.6.5l.8-.3V83a8.3,8.3,0,0,1-.7,3.2l.7-.5-.9,1.7a4,4,0,0,1-2.6,2.3l-1.2.3,1.4.6-1.5.4-1,.3a4.9,4.9,0,0,1-2.1.3l-1.7-.4.9.8h-1.3a6.2,6.2,0,0,1-2.3-.4v.2a3.9,3.9,0,0,0,.4.9l.3.4h.1a2.4,2.4,0,0,0,.6.8,7.4,7.4,0,0,1,1.2,1.7c0,.1.1.2.1.4a19.3,19.3,0,0,1,.6,4.1,4.9,4.9,0,0,0,.1,1.2,45,45,0,0,1,0,5.2v.9c-.2,1.4-.5,5.9-3.8,7-1.7.5-2.6.6-4.1-.5a2.2,2.2,0,0,1-1-2.7,3.4,3.4,0,0,1,2.2-1.9,1.9,1.9,0,0,0,.1-.8c.4-3.3,0-6.3-.9-7.1l-1-.9-4.3-3.2c-.2,6.2-1.4,9.7-3.6,10.4s-2.5.7-4.1-.5a2.2,2.2,0,0,1-1-2.6,3.6,3.6,0,0,1,2.2-2c.6-3.5.2-7-.8-7.9l-.6-.5-1,1.2h.8l-1,.7-.9,1-.6.8a7.2,7.2,0,0,1-1.5,1.1l-.4.3-.5.3h.4l-.7,1a10.8,10.8,0,0,1-4.2,3.3l-.5.3-.5.3.3.6a1.7,1.7,0,0,0-.6.6l-.4.4a5,5,0,0,1-2.1,1.3l-2,.6-1.8.6-.7.2-.7.3a3.5,3.5,0,0,1,.5.8l.5.9H98.8a2.8,2.8,0,0,1,.4,1.2v.7H98.1c.2.4.1.7-.3,1.2a4.8,4.8,0,0,0-.8,1.6c-.9,8.8-1.4,14.4-1.3,16.8s-.9,5.3-2.7,5.8A7.2,7.2,0,0,1,91.1,138.5ZM90,134.2a1.3,1.3,0,0,0-1.1.9,1.2,1.2,0,0,0,.4,1.4l.3.2c1.1.9,1.6.8,3.1.3s1.9-2.6,1.9-4.6.4-8.2,1.3-17.1v-.2a9.3,9.3,0,0,1,1.1-1.9c0-.1,0-.1.1-.1a1.5,1.5,0,0,1-.4-.8l-.2-.6h1.3v-.2a5.8,5.8,0,0,1-.5-1.4v-.7h.3l-.8-.8h1.2l1.4-.4.8-.3,1.8-.6,2-.6a2.9,2.9,0,0,0,1.6-1h0l-.9-.2-4.3-1.6,4.6.6a6,6,0,0,0,2.1-.9l.5-.3a11.2,11.2,0,0,0,3.3-2.2h-4.4l3.9-1.2h.6l1-.6.5-.4.4-.2,1.3-1,.6-.7.4-.5H115l-.8-.6,1-.3c.6-.2,1.1-.9,1.6-1.5l.3-.4.4-.4.4.3,1,.9c1.6,1.4,1.8,5.7,1.2,9.3v.5h-.5a2.6,2.6,0,0,0-1.7,1.3c0,.2-.2.7.7,1.3s1.7.8,3.1.4,2.8-4.4,2.8-10.4V95.4l.8.6c1.6,1.1,3.4,2.3,5.3,3.8l1,.9c1.5,1.4,1.7,5.3,1.3,8.2a8.3,8.3,0,0,1-.2,1.3l-.2.4H132a2.4,2.4,0,0,0-1.6,1.2c-.1.2-.3.7.6,1.4s1.8.8,3.2.3,2.7-2.5,3-6v-.9a29.8,29.8,0,0,0-.1-5.1v-1.1a16.7,16.7,0,0,0-.6-3.9.4.4,0,0,0-.1-.3,3.8,3.8,0,0,0-.9-1.3l-.9-1.1-.5-.8h.1l-.3-.7-.2-.4c0-.1-.1-.2-.1-.3s-.1-.2-.1-.3-.1-.3-.1-.4l-.3-1.3,1.1.6a5.3,5.3,0,0,0,2,.7,1.5,1.5,0,0,1,.2-.9l.3-.4.4.2a6.3,6.3,0,0,0,2.2.7,3.7,3.7,0,0,0,1.5-.3h.4c-.1,0-.1-.1-.1-.2l-.2-.5.5-.2.6-.3h.2l1.1-.3a2.3,2.3,0,0,0,1.2-.6h-.8l.8-.9a7,7,0,0,0,1.5-3.4,6.4,6.4,0,0,1-4.8-.8,12,12,0,0,1-3.9-3.9,17.1,17.1,0,0,1-1.4-2.7,29.7,29.7,0,0,0-4.7-7.7,15.9,15.9,0,0,0-5-4.1H126l-.4-.3-.4-.2-.7-.4h-.3l-.5-.2-.5-.2h-.5l-1.5-.2h-.4a16.6,16.6,0,0,0-6,.8h-1l-1,.4-.9.3-2.2,1-1.2.5-.9.5h-.3l-.7.4-.5.3-1,.5-1,.6-1.4.8-1.2.7-1.6.9-.9.6-1.7,1-1.5.9-1.1.6L92.3,75h-.5l-1.6.4a12.8,12.8,0,0,1-3.4-.1l-1.5-.5-.4-.2h-.1l-.3-.2a12.6,12.6,0,0,1-2.8-1.9l-1.2-1-.4-.3c-2.9-2.5-5.8-5.1-11.4-4.9h-2l-.7.2-1.2.4.2-.3H62.8a9.3,9.3,0,0,0-2.4.4,2,2,0,0,0-1,.8,3.7,3.7,0,0,0-.1,1.1v1.3a.3.3,0,0,0,.1.2h.4a10.4,10.4,0,0,0,.1,1.6v.2h0a15.3,15.3,0,0,0-.8,2.6A16.3,16.3,0,0,1,58,78.5h0v.2l-.9,1c-1,1.2-3,3.3-3.1,4.9a4.6,4.6,0,0,0,.4,2.6l.2.2h-.1v.4l.3-.4h.4l.2.5v-.5h.5l.4-.3.3.5A4.3,4.3,0,0,0,58.2,89h.9c.8.1,4.6-.9,6.1-3.3l.8-1.2.2,1.4a.6.6,0,0,1,0,.6,4.5,4.5,0,0,0,.1,1.2l.2.8a22.6,22.6,0,0,0,.1,2.6,13.5,13.5,0,0,0,1.1,3.4h.7a3.6,3.6,0,0,0,.1,1.4,9.3,9.3,0,0,0,1.6,3.7l.3.4h0l.7-.5.2.8a4.9,4.9,0,0,0,.4,1.1,3.2,3.2,0,0,1,.3.9,6.7,6.7,0,0,0,1,1.9l.6.6v-.4l.5-1.1.5,1.2a16.3,16.3,0,0,0,1.1,1.7H76l2.1,21h-.7a1.7,1.7,0,0,0-1.1,1c-.2.5,0,1,.7,1.6s1.6.7,3.1.3,1.6-1.6,1.5-4.9a125.5,125.5,0,0,1,1.2-14.9v-.7l.7.2h.3l-.3-.7,1.2.3,1.1.3a7.1,7.1,0,0,0,2,.4h.5l2.4,23.7Zm44.5-42.6-.2.2h.3C134.6,91.6,134.6,91.6,134.5,91.6Z"/><path class="cls-14" d="M117.7,93.8l.9-1.8a42.8,42.8,0,0,0,6.7,4.7"/></g><g id="Dog_01"><path class="cls-14" d="M126.8,64.1s5.3,5.2,5.9,9.8-.2,13.6,1.2,16.8"/></g></svg>