<svg xmlns="http://www.w3.org/2000/svg" viewBox="0 0 200 200"><defs><style>.cls-1{fill:#703d1a;}.cls-2{fill:#bf7a41;}.cls-3{fill:#e5b28c;}.cls-4{fill:#424242;}.cls-5{fill:#212121;}.cls-6{fill:#3e2723;}.cls-7{fill:#fff;}.cls-8{fill:#5b3114;}</style></defs><g id="Dog_01"><path class="cls-1" d="M112.9,72.9a3.9,3.9,0,0,0-.2,1.5v.7l.3.5c0-.2.1-.3.1-.5s0,1.7.3,2a1.4,1.4,0,0,0,.2-.6c.5,1.2,1,2.1,1.3,1.9s3.5-6.8,3.5-6.8h-2a7.3,7.3,0,0,0-3,.7A.8.8,0,0,0,112.9,72.9Z"/><path class="cls-2" d="M110.1,92.3l.5,18.4s1.1-.7,1.7-.3,1.7,2.4.4,3.1-4.4,1.2-5.5-3.7S103,92.5,103,92.5Z"/><path class="cls-2" d="M78.5,99.7s6.5,6,4,13.2-5,6.9-4.7,8.3a26.2,26.2,0,0,0,1.4,4,2.9,2.9,0,0,1,1.6-.5,1.9,1.9,0,0,1,1.3,2.1c-.3.7-3.6,2.6-5.2.4s-4.2-6.4-4.2-7.2,3.9-4,.1-7.5S78.5,99.7,78.5,99.7Z"/><path class="cls-3" d="M132,79.6v.2a3.8,3.8,0,0,1-1.4,1.7,3.2,3.2,0,0,1-2,.8c-.4.6,2.1-.1,2-.1-.5,2.3-4.3,1.1-6.4,2.6s-1.7,1.8-1.8,4.1.7,6.9-2.3,13.5v.2c-.9,1.9-1.8,1.1-4.2,2.7l-.3.2-.9.6a39.4,39.4,0,0,1-5.1,2.7c-5.2,2.4-13,2.8-17.5,2.5h-4a32.3,32.3,0,0,0-5.3.8l-4.2.8h-.1c-1.8.2-3.2.5-4.3.5h-.9a2.9,2.9,0,0,1-1.7-.6c-3.9-3.7-2.6-16.5,7.2-20.1a45.1,45.1,0,0,1,7-1.8h.5c4.8-.6,7.4.3,16.5-4.2,6-3,7.8-6.2,9.1-9.6s2.5-4.6,4.7-5.5l.5-.2a12.1,12.1,0,0,1,3.5-.7h2a.1.1,0,0,0,.1.1h1c0,.1,0,.1.1.1l.5.2.3.2h.2l.3.2.3.2.2.2a4.7,4.7,0,0,1,1,1,11.8,11.8,0,0,1,.8,1.6c.2.4.5.5,3.4,2.4h.2a2.1,2.1,0,0,1,1,1.1A1.4,1.4,0,0,1,132,79.6Z"/><path class="cls-3" d="M122.6,117.3c-2.6,1.2-4.5,1.1-5.6-3.5-.4-1.7-1.4-5.4-2.3-8.8l-.6-2.2L113,98.6a1.8,1.8,0,0,1-.1-.5h7v3.9l.2,5.3.3,7.5s1-.7,1.7-.3S123.9,116.6,122.6,117.3Z"/><path class="cls-3" d="M92.4,119c-2.1,6.4-5,7.1-4.7,8.6a21.9,21.9,0,0,0,1.3,4.1,3.4,3.4,0,0,1,1.7-.5c.7.1,1.6,1.4,1.3,2.1a3.3,3.3,0,0,1-1.9,1.3,2.7,2.7,0,0,1-3.3-.8c-.9-1.2-4.3-6.6-4.3-7.4a2.1,2.1,0,0,1,.5-.9,7.9,7.9,0,0,0,1.3-4,5,5,0,0,0-1.6-2.9,16.3,16.3,0,0,0-4.3-2.7c-1.9-.9-3.8-1.7-5.1-3.4a8.6,8.6,0,0,1-1.4-3.2c-.6-3.2,3.7-4.2,8.1-4.4a45.9,45.9,0,0,1,6.9.3h1.4l1,1.1.5.6a15.7,15.7,0,0,1,2.1,3.7l.3.7A11.5,11.5,0,0,1,92.4,119Z"/><path class="cls-4" d="M132,79.6v.2c-.6-.2-.9-.3-1.1-.7s0-1.4.1-1.7a2.1,2.1,0,0,1,1,1.1A1.4,1.4,0,0,1,132,79.6Z"/><path class="cls-2" d="M128.3,77.1h0a1.9,1.9,0,0,1-.6,1.3h0c-.1.1-.2.2-.2.3a6.4,6.4,0,0,1-2.8,1.5l-2.2.4a8.8,8.8,0,0,0-3.3,1.3,3.6,3.6,0,0,0-1,1.5,3.8,3.8,0,0,0-.8,1.7c-.1-.2-.1-.4-.2-.6a11.7,11.7,0,0,0-1.2,3.1c-.1.5-.1,3-.1,3.6s-.5-.9-.7-1.1.1,5.8-.4,6.7l-.5-.9a20.5,20.5,0,0,1-.5,2.4,14.2,14.2,0,0,0-.8,1.8c0-.2,0-.4-.2-.5a3.5,3.5,0,0,1-1.5,2.5l-1.2.7c-.2.1-.2.3-.4.3s.2-.5.3-.6-2.7,2.1-4.5,2.2c.2,0,.5-.6.7-.6h-2.8a5.6,5.6,0,0,1-1.8-.1.7.7,0,0,1-.6-.3h-.7l-1.5.2a5,5,0,0,1-2.1-.1c.2-.1.5-.2.5-.4a10,10,0,0,0-2.4.4,5.6,5.6,0,0,0-2,.8c-.4.2-1.4.7-1.4,1.2s.1-.6.2-.9a4.7,4.7,0,0,0-1.9,1.8.1.1,0,0,0-.1.1,6,6,0,0,0-.8,1.6c0-.3-.1-.6-.1-.8a1.1,1.1,0,0,0-.2.4,10.5,10.5,0,0,0-.4,3.4,16.2,16.2,0,0,0,.1,2.3,10.5,10.5,0,0,1-.8-1.1c0,1.8-.2,3.8-.2,5.5l-.3-.4a11.9,11.9,0,0,1-.5,3.2,3.1,3.1,0,0,1-.8,1.5,2.1,2.1,0,0,0,0-.8,8.6,8.6,0,0,1-1.3,2c0-.2-.1-.3-.1-.5h0a6.1,6.1,0,0,0-1.5-2.7,10.8,10.8,0,0,0-2.8-2.1l-1.5-.9a17.1,17.1,0,0,1-4.2-2.8l-.9-1a2.9,2.9,0,0,1-1.7-.6c-3.9-3.7-2.6-16.5,7.2-20.1a45.1,45.1,0,0,1,7-1.8h.5c4.8-.6,7.4.3,16.5-4.2,6-3,7.8-6.2,9.1-9.6s2.5-4.6,4.7-5.5l.5-.2a12.1,12.1,0,0,1,3.5-.7h2a.1.1,0,0,0,.1.1h1c0,.1,0,.1.1.1l.5.2.3.2h.2l.3.2.3.2.2.2c-.7.8-.4,2.1,1.1,2.7s1.7,1.2,1.6,2.1Z"/><path class="cls-5" d="M127.1,75.7a1.8,1.8,0,0,1,.5.6,2.1,2.1,0,0,1-.4.7,1.1,1.1,0,0,1-1,0s-.4-.9.2-1.3A.8.8,0,0,1,127.1,75.7Z"/><path class="cls-6" d="M126.5,76.7a.5.5,0,0,0,.8,0,.6.6,0,0,0-.4-.9A.5.5,0,0,0,126.5,76.7Z"/><path class="cls-5" d="M126.6,76.6a.5.5,0,0,0,.5,0,.4.4,0,0,0-.2-.6C126.6,76,126.3,76.3,126.6,76.6Z"/><path class="cls-2" d="M125.6,79.5c-.4.6-1.5,1.2-1.9,1.8v-.5c-.8.3-4.5,2-5.5,5.2l-.3-.8a5.6,5.6,0,0,0-.3,2.3,14.8,14.8,0,0,0-.1,2.1c-.1-.2-.4-.5-.4-.8a19.1,19.1,0,0,0,1.6,7.5l-1-.5a8.6,8.6,0,0,1,1.1,4.7l-.6-.7c-.3-.2-.4-.5-.7-.8a11.8,11.8,0,0,1-1.4-2.2,10.2,10.2,0,0,1-.9-4.6c0-1.7.7-3.3.9-4.9a6,6,0,0,1,.6-2.3,6.3,6.3,0,0,1,2.9-3.3,11.9,11.9,0,0,1,2-.8,14.6,14.6,0,0,1,1.9-.7A5.2,5.2,0,0,0,125.6,79.5Z"/><ellipse class="cls-7" cx="126.6" cy="76.5" rx="0.2" ry="0.2"/><path class="cls-2" d="M75.4,106.6c-1.9-.7-6.6-2.7-8.5-7.8a14.5,14.5,0,0,1-.1-9.5l.6-.6h0c.7-.3,1.3.1,1.2.7a14,14,0,0,0,.3,8.3,13.7,13.7,0,0,0,7.6,7.5"/><path class="cls-2" d="M116.6,74.3c6.3-4.1,10.3-1.4,9.4.8s.4,1.5-.6,3.1a5.4,5.4,0,0,0-.6,1.1,5.7,5.7,0,0,1-.4,1.4,3.4,3.4,0,0,1-.9,1.5,1.1,1.1,0,0,0,.1-.8,3.5,3.5,0,0,0-.4,1.7c.1.8.3,1.9-.8,2s-2.3-.7-3-1.2-2-4.1-2.9-6.1S115.4,75.1,116.6,74.3Z"/><path class="cls-8" d="M88.8,135.5a2.9,2.9,0,0,1-2.6-1.3c0-.1-2.8-4.3-3.9-6.6a6.5,6.5,0,0,1-2.9,1.3,3.1,3.1,0,0,1-3-1.3c-.1,0-4.4-6.3-4.4-7.6s.3-.7.6-1.2,1.6-2.4,1-4L73,114h-.3l-.8-.2-.8-.5c-1.9-1.9-2.7-5.8-1.9-9.8a13.7,13.7,0,0,1-3-4.5,15.1,15.1,0,0,1,0-9.9,1.5,1.5,0,0,1,.9-1,1.7,1.7,0,0,1,1.7.1,1.1,1.1,0,0,1,.4,1.3,13.2,13.2,0,0,0,.4,8,7.2,7.2,0,0,0,.9,2,13.6,13.6,0,0,1,2.3-3.4,13.8,13.8,0,0,1,5.8-4l1.4-.5,4.1-1.1,1.6-.2h.6l2.3-.2h.5c3.3-.2,6.3-.4,13.4-3.9s7.5-6,8.8-9.2l.2-.5a3.4,3.4,0,0,1,.6-1.2,2.5,2.5,0,0,1-.1-.8V74a3.9,3.9,0,0,1,.3-1.4,1.8,1.8,0,0,1,.7-.8,8.7,8.7,0,0,1,3.1-.7h.3l.5-.2,1.5-.5,2.2-.2h2v0h.5l.6.2.7.3.4.2h.1l.4.2.3.3.4.3a9.4,9.4,0,0,1,1,1,6.6,6.6,0,0,1,.6,1.2.8.8,0,0,0,.2.4c.1.3.5.5,3.2,2.2h.2a2.8,2.8,0,0,1,1.2,1.4,2.2,2.2,0,0,1,0,1.6v.3a6.2,6.2,0,0,1-1.3,1.8h.1v.4c-.4,1.8-2.2,2-3.8,2.2a6.5,6.5,0,0,0-2.9.7c-.6.5-1.4,1.3-1.6,3.6v1.8a25.9,25.9,0,0,1-2.2,12l.3,11a2.3,2.3,0,0,1,1.4.1,3.2,3.2,0,0,1,1.4,2.5,1.8,1.8,0,0,1-1,1.6c-1.1.5-2.6,1.1-3.9.4s-2-1.9-2.6-4.3-1.1-4.2-1.9-7a24.5,24.5,0,0,1-3.3,1.8v.8a1.8,1.8,0,0,1,1.4.2,3.4,3.4,0,0,1,1.3,2.7,1.6,1.6,0,0,1-1,1.6,4.2,4.2,0,0,1-3.8.6c-1.1-.5-1.9-1.8-2.5-4.1a48,48,0,0,1-13.6,1.5,11.5,11.5,0,0,1-.1,7.1,16.5,16.5,0,0,1-3.9,7c-.5.6-.8,1-.8,1.3a21.3,21.3,0,0,0,1.1,3.3,2.2,2.2,0,0,1,1.4-.3,2.4,2.4,0,0,1,1.5,1.3,2,2,0,0,1,.3,1.8,4.5,4.5,0,0,1-2.3,1.6A4,4,0,0,1,88.8,135.5Zm-9-18.3.5.3a12.7,12.7,0,0,1,2.8,2.2,6.6,6.6,0,0,1,1.7,3v.2h-.1a7.5,7.5,0,0,1-1.2,2.7c-.1.3-.4.6-.4.7s3.1,5.6,4.1,7a2.2,2.2,0,0,0,2.6.6,3.4,3.4,0,0,0,1.5-1,1.5,1.5,0,0,0-.2-.6,2.8,2.8,0,0,0-.6-.6,3.1,3.1,0,0,0-1.2.5l-.7.5-.3-.8a26.6,26.6,0,0,1-1.4-4.3c-.2-.9.4-1.6,1.1-2.4a16.1,16.1,0,0,0,3.7-6.5,11.2,11.2,0,0,0-.3-7.2l-.3-1h1a47.1,47.1,0,0,0,14.8-1.6l.7-.2v.8c.5,2.1,1.2,3.4,2,3.8a3.2,3.2,0,0,0,2.6-.6c.2-.1.3-.2.3-.4a2.3,2.3,0,0,0-.7-1.5c-.2-.2-.7,0-1,.2l-1,.7V108l.4-.2,4-2.2,1.1-.8.2,1,2.1,7.9c.5,1.9,1.1,3.1,1.9,3.4s1.4.2,2.7-.4a.4.4,0,0,0,.2-.4,1.6,1.6,0,0,0-.6-1.3,2.2,2.2,0,0,0-1.1.2l-1,.6-.4-13.4h0c.1-.1.1-.1.1-.2a24.5,24.5,0,0,0,2.2-11.4V88.9c.1-2.2.8-3.8,2.1-4.7a9.3,9.3,0,0,1,3.5-1h1l-.3-.2a.8.8,0,0,1,0-.9v-.4h.4a2.5,2.5,0,0,0,1.7-.6,3,3,0,0,0,1.1-1.4,3.4,3.4,0,0,0,.1-.9h0a1.6,1.6,0,0,0-.7-.7h-.2c-3-1.9-3.3-2.1-3.7-2.7l-.3-.7-.4-.8-.9-.9-.2-.2h-.2l-.3-.2L124,72l-.4-.2h-.5l-.5-.2v-.7l-.2.7h-1.7a12,12,0,0,0-2,.3l-1.4.3-.9.4a7.2,7.2,0,0,0-2.7.6.2.2,0,0,0-.2.2,1.9,1.9,0,0,0-.1.8v.5a.3.3,0,0,0,0,.4l.2.4-.2.2a10.1,10.1,0,0,0-.7,1.5l-.2.4c-1.3,3.3-3.1,6.8-9.3,9.9h-.1c-7.3,3.6-10.5,3.8-13.9,4h-.5l-2.3.2H86l-1.6.3a33.4,33.4,0,0,0-4,1l-1.4.5A11.7,11.7,0,0,0,73.8,97a14.1,14.1,0,0,0-2.5,4.1l-.4,1.1-.8-.9A13.2,13.2,0,0,1,68.3,98a15,15,0,0,1-.4-8.8h-.2l-.2.2a13.1,13.1,0,0,0,0,9,11.3,11.3,0,0,0,2.9,4.3l.3.3v.4c-.8,3.6-.2,7.2,1.5,8.8l.4.2.4.2h.8l.2.2.8,1v.2c.9,2.2-.4,4.2-1.1,5.3l-.3.6c.1.7,3.1,5.3,4.1,6.7a1.6,1.6,0,0,0,1.5.8,4.4,4.4,0,0,0,2.5-1.1,1.8,1.8,0,0,0-.1-.5l-.7-.7a3.1,3.1,0,0,0-1.2.5l-.6.4-.4-.7c0-.1-1-2.7-1.3-4.1s.4-1.6,1.1-2.4l1.1-1.3Zm.8,6.8h.3a2.4,2.4,0,0,1,1.5,1.1h0a7.6,7.6,0,0,0,1.1-2.2,6.7,6.7,0,0,0-1.3-2.3,11.6,11.6,0,0,0-2.1-1.6l-.8.9c-.6.6-.9,1-.8,1.2s.7,2.3,1,3.2A2,2,0,0,1,80.6,124Z"/><path class="cls-8" d="M107,110.4l-.2-1.1a10.3,10.3,0,0,0,3.4-1.4l.7.9A9.9,9.9,0,0,1,107,110.4Z"/><path class="cls-8" d="M78.7,118.4c-3.9-1.7-4.7-3.7-4.8-3.8l.5-.4a18,18,0,0,0,5.7,3.6Z"/></g></svg>