<svg xmlns="http://www.w3.org/2000/svg" viewBox="0 0 200 200"><defs><style>.cls-1{isolation:isolate;}.cls-2{fill:#ffca28;}.cls-3{fill:#ffecb3;mix-blend-mode:multiply;}.cls-4{fill:#f7efdf;}.cls-5{fill:#ffb300;}.cls-6{fill:#e28e2b;}.cls-7{fill:#ffa726;}.cls-8{fill:#cf7f26;}.cls-9{fill:#a61e22;}.cls-10{fill:#c2293d;}.cls-11{fill:#fff;}.cls-12{fill:#383838;}.cls-13{fill:#fb8c00;}.cls-14{fill:#f57c00;}.cls-15{fill:#5b3114;}</style></defs><g class="cls-1"><g id="Hen_01"><path class="cls-2" d="M109.5,120.5l-1.1,3.9a5,5,0,0,1,1.3,0c.4,0,.7.1.7.2s-2.2,1-2.2,1a46.3,46.3,0,0,1-1.9,5.4c-.3.9-.7,1.4-.9,1.3s-.2-.4-.2-.8a27.9,27.9,0,0,1,1.4-5,53.6,53.6,0,0,1-5,2.9c-1.3.6-2.4,1.1-2.7.8a.5.5,0,0,1,.1-.3l.4-.5,1.6-1.1a44.1,44.1,0,0,1,4.2-2.4c0-.1-6.2.8-6.5-.1s0-.2.1-.2l.6-.3a60.5,60.5,0,0,1,7.5-1.1s.3-1.8.6-4.1.4-3.3.6-4.8.4-3.5.4-3.6l3.6-.6-1.4,5.2Z"/><path class="cls-3" d="M110.4,124.7c.1.4-2.2.9-2.2.9a46.3,46.3,0,0,1-1.9,5.4l-.2.3s1-5.1,1.7-5.8A5.2,5.2,0,0,1,110.4,124.7Z"/><path class="cls-3" d="M106.6,126.5a53.6,53.6,0,0,1-5,2.9c-1.3.6-2.4,1.1-2.7.8a.5.5,0,0,1,.1-.3,18.6,18.6,0,0,0,4.2-2.1C105.4,126.2,106.6,126.5,106.6,126.5Z"/><path class="cls-3" d="M105.2,125.8s-6.2.9-6.5,0,0-.2.1-.2h6.4Z"/><path class="cls-4" d="M99.2,129.4a1,1,0,0,0-.6,1.2.9.9,0,0,1,.9-.5C100,130.1,99.7,129.3,99.2,129.4Z"/><path class="cls-4" d="M99.1,125.1c-.3-.1-.8.1-1,.8a.9.9,0,0,1,1-.1C99.5,126.1,99.6,125.2,99.1,125.1Z"/><path class="cls-4" d="M104.9,131.7a1.1,1.1,0,0,0,.4,1.3,1,1,0,0,1,.3-1C106,131.7,105.2,131.3,104.9,131.7Z"/><path class="cls-4" d="M110,124.1a1,1,0,0,1,1.1.6.9.9,0,0,0-1,.1C109.7,125.2,109.5,124.3,110,124.1Z"/><path class="cls-5" d="M110.7,116.3l-1.2,4.2a3.4,3.4,0,0,1-2-.4c.2-1.5.4-3.3.6-4.8l1.1.2A2.8,2.8,0,0,1,110.7,116.3Z"/><path class="cls-2" d="M97.3,116.7l-.3,1.1h1.3c.4,0,.7.1.7.3s-2.2,1-2.2,1a54.2,54.2,0,0,1-1.9,5.4c-.3.8-.7,1.3-.9,1.2s-.2-.3-.2-.7a29.5,29.5,0,0,1,1.3-5.1,38.7,38.7,0,0,1-4.9,2.9c-1.3.7-2.4,1.1-2.7.9a.8.8,0,0,1,.1-.4l.4-.4,1.6-1.2a44.1,44.1,0,0,1,4.2-2.4s-6.2.8-6.5-.1,0-.2.1-.2l.6-.3a60.5,60.5,0,0,1,7.5-1.1l.2-1.2c.1-.7.2-1.7.4-2.9a15,15,0,0,1,.2-2c.1-.9.3-1.9.4-2.8s.4-3.5.4-3.6l3.6-.5-1.4,5.1-.8,2.6-.4,1.6Z"/><path class="cls-3" d="M99,118.1c.1.4-2.2,1-2.2,1a54.2,54.2,0,0,1-1.9,5.4l-.2.3s1-5.2,1.7-5.9A5.2,5.2,0,0,1,99,118.1Z"/><path class="cls-3" d="M95.1,119.9a38.7,38.7,0,0,1-4.9,2.9c-1.3.7-2.4,1.1-2.7.9a.8.8,0,0,1,.1-.4,14.8,14.8,0,0,0,4.2-2.1C94,119.7,95.1,119.9,95.1,119.9Z"/><path class="cls-3" d="M93.8,119.3s-6.2.8-6.5-.1,0-.2.1-.2h.8Z"/><path class="cls-4" d="M87.8,122.8a1,1,0,0,0-.6,1.2.9.9,0,0,1,.9-.5C88.6,123.6,88.3,122.7,87.8,122.8Z"/><path class="cls-4" d="M87.7,118.5c-.3-.1-.8.2-1,.8a.8.8,0,0,1,1,0C88.1,119.5,88.2,118.6,87.7,118.5Z"/><path class="cls-4" d="M93.5,125.2c-.2.2-.1.8.4,1.2a.8.8,0,0,1,.3-.9C94.6,125.1,93.8,124.7,93.5,125.2Z"/><path class="cls-4" d="M98.6,117.5a1,1,0,0,1,1.1.6.9.9,0,0,0-1,.1C98.3,118.6,98.1,117.7,98.6,117.5Z"/><path class="cls-5" d="M98.5,112.3l-.4,1.6-.8,2.8a4.5,4.5,0,0,1-1.6-.3c.1-.7.2-1.7.4-2.9a15,15,0,0,1,.2-2l.9.2A2.6,2.6,0,0,1,98.5,112.3Z"/><path class="cls-6" d="M122.3,97a14.2,14.2,0,0,1-.5,1.6,42.1,42.1,0,0,1-1.7,4.3c-.2.4-.8.1-1.7-.7l-1.1-1.1c-4.5-4.7-12.7-16.5-11-16.8l.6-.2a3.3,3.3,0,0,0,2.3-2.3c.8-1.8.9-4.3,2.5-6.7a9.5,9.5,0,0,1,3.2-3.1c4.1-2.7,5.6.9,4.7,3.3,0,0,3.9.8,1.2,5.6,0,0,2.8-.1,1.7,3.4s-.3,4.4.1,6.4A12.7,12.7,0,0,1,122.3,97Z"/><path class="cls-7" d="M116,106.7a15.6,15.6,0,0,1-1,4.5,16.9,16.9,0,0,1-4.3,6.5c-1.4,1.3-5.4,1-12.8-2.4l-2.5-1.2-.4-.2c-1.5-.7-3.1-1.6-4.8-2.6l-1.1-.6s23.2-17.5,26.1-9.9a8.3,8.3,0,0,1,.6,2.1l.3,2.1A9.1,9.1,0,0,1,116,106.7Z"/><path class="cls-6" d="M115,111.2a49.3,49.3,0,0,1-9.6,3.5,23.1,23.1,0,0,1-7.5.6,26,26,0,0,1-9.9-2.6,26.6,26.6,0,0,1-3.3-2.1,13.9,13.9,0,0,1-5.1-7.4,37.8,37.8,0,0,1-.8-5.1c-.7-9.2,3.4-13.2-.4-14.8a1.4,1.4,0,0,1-.9-1.2s-.4-4.5,4.1-5,4.8.5,6.5,5.2,1,5.6,5.3,5.8h.5c2.5,0,3.7-1,6.3-2.1a27.9,27.9,0,0,1,6.7-2c6.5-.9,11.3,1.6,13.5,7.1a18.4,18.4,0,0,1,1.3,5.7c0,.3.1.6.1.9v.8C122.1,105,120,108.6,115,111.2Z"/><path class="cls-8" d="M113.4,102.4c3.5-3.4,4.7-6.4,4.7-8.4s-2.1-1.7-3.5-.2.9-3.4-2.7-1.5c0,0-.1-2.5-4-1.4S95.5,95,94.1,100.1,104.3,111.5,113.4,102.4Z"/><path class="cls-6" d="M113.3,101.2c8.7-8.8,3.5-11.2,1.1-8.6,0,0,1-3.4-2.7-1.5,0,0-.1-2.6-4-1.4S96,94.2,94.2,99.3,104.2,110.3,113.3,101.2Z"/><path class="cls-8" d="M89.2,95.4c-1.7,5.8-3.9,5.1-4.6,3.6-.3.9-1.1,2.5-3.7.1-.3.4-.7.8-.9.6a1.8,1.8,0,0,1-1.2-1.6c-.7-9.2,3.4-13.2-.4-14.8a1.4,1.4,0,0,1-.9-1.2,5.2,5.2,0,0,1,1.9-4.3,6.3,6.3,0,0,1,2.2-.7c2.9-.4,4.4.3,5.9,3.7l.6,1.5c1,2.8,1.1,4.7,3.2,5.5s1.9,1.3-.1,3C93,91.7,92.2,93.2,89.2,95.4Z"/><path class="cls-6" d="M78.5,81.2c2-3.3,4.9-1.8,4.6.7s-3,3.3-4.2,1.6S77.8,82.3,78.5,81.2Z"/><path class="cls-9" d="M81,85.6a1.5,1.5,0,0,1-2.1,1.1c-.9-.3-1.1-1.1-1.1-2a9.6,9.6,0,0,1,.9-2.9C80.8,82.6,81.4,84.4,81,85.6Z"/><path class="cls-10" d="M81,85.6a1.5,1.5,0,0,1-2.1,1.1c-.9-.3-1.1-1.1-1.1-2a1.5,1.5,0,0,1,1.9-1C80.7,83.9,80.9,84.7,81,85.6Z"/><path class="cls-2" d="M77.5,81.7a5.3,5.3,0,0,0-.2,2.9c0,.3.4.3.5.1A2.7,2.7,0,0,1,80.2,83c.8,0,.9-.2.6-.5S77.7,81.2,77.5,81.7Z"/><path class="cls-11" d="M82.1,80.6a.6.6,0,0,1-.4.8.7.7,0,0,1-.9-.2.6.6,0,0,1,.4-.8A.7.7,0,0,1,82.1,80.6Z"/><path class="cls-12" d="M81.9,80.7c.2.2,0,.5-.2.6a.5.5,0,0,1-.7-.1.5.5,0,0,1,.3-.7A.4.4,0,0,1,81.9,80.7Z"/><path class="cls-11" d="M81.7,80.8a.1.1,0,0,1-.1.1h-.2l.2-.2C81.7,80.6,81.7,80.7,81.7,80.8Z"/><path class="cls-13" d="M79.1,82c.1.1,0,.3-.2.5s-.4.2-.5.1,0-.3.2-.5S79,81.9,79.1,82Z"/><path class="cls-8" d="M119.3,86.9c-.4-1.8-1.9,2.3-2.3-2.8s-3.6,1.7-3.8-2.5-3-1.9-4,.2c1.1-2.6.9-6.8,5.7-9.8s5.6.9,4.7,3.3c0,0,3.9.8,1.2,5.6,0,0,2.8-.1,1.7,3.4S120,89.1,119.3,86.9Z"/><path class="cls-8" d="M115,111.2a16.9,16.9,0,0,1-4.3,6.5c-1.4,1.3-5.4,1-12.8-2.4a26,26,0,0,1-9.9-2.6,21.3,21.3,0,0,0,7.4,1.4c2,0,3.5-.4,3.8-1,5.3,2.4,8.9.2,8.9-1.7,5.5.1,7.9-2.8,7.7-4.6h.2c2.7-.8,5.2-2.9,5.8-8.1C122.1,105,120,108.6,115,111.2Z"/><path class="cls-14" d="M83.2,77.7a4.8,4.8,0,0,0-4.5,2.5,8.1,8.1,0,0,1,.7-2.4,6.3,6.3,0,0,1,2.2-.7c2.2-.3,3.6.1,4.9,1.8C85.7,79.1,85.4,77.8,83.2,77.7Z"/><path class="cls-10" d="M85.4,77.4c-.6.4-1.2-.1-2.1-.2a3.8,3.8,0,0,0-3.1,1,6.5,6.5,0,0,0-1.7,2.9.8.8,0,0,1-.4.4c-.6.2-.2-2.5-.1-2.8s.1-1,.6-1.2,1-.3,1-1-.2-1,.3-1.2l.9-.2c.4-.1.4-.3.5-.7s.3-1,.7-.9.3.3.5.4a1,1,0,0,0,.7.2c.4-.2.6-.9,1-.9s.6.5.8.8.4.1.7-.2l.2-.2a1.1,1.1,0,0,1,.8-.1C87.6,73.9,86.7,76.7,85.4,77.4Z"/><path class="cls-9" d="M85.4,77.4c-.6.4-1.2-.1-2.1-.2a3.8,3.8,0,0,0-3.1,1,6.5,6.5,0,0,0-1.7,2.9c.1-1.2,1-4.5,4.1-4.7s4.5-.9,3.8-2.2-.6-.4-.7-.4l.2-.2a1.1,1.1,0,0,1,.8-.1C87.6,73.9,86.7,76.7,85.4,77.4Z"/><path class="cls-15" d="M117.5,71v1a1.2,1.2,0,0,1,1,.5,3,3,0,0,1,.2,2.5l-.5,1.1,1.2.2a1.8,1.8,0,0,1,1.2.9c.3.7.1,1.8-.7,3.1l-.8,1.5h1.7s.6,0,.8.3.2,1,0,1.8a11,11,0,0,0-.2,6.2,6.4,6.4,0,0,1,.2.7,11.9,11.9,0,0,1-.3,5.8,7.5,7.5,0,0,1-.4,1.6v.4c.3,5.9-1.5,9.2-6.3,11.7h-.3v.4a17.1,17.1,0,0,1-4,6l-.3.3h-.5v.5l-.7,2.4v.1l.2-1.8v-1h-1.1c-2.2-.1-5.4-1.2-9.4-3H96a25.3,25.3,0,0,1-7.5-2.3,24.9,24.9,0,0,1-3.2-2,12.2,12.2,0,0,1-4.7-6.9,27.8,27.8,0,0,1-.8-4.9,29.1,29.1,0,0,1,.8-9.1c.2-.8.3-1.4.4-2l.2-1.8-1.6.7h-.4c-.1-.1-.4-.2-.4-1h0l.5-4.9-.7,1.3a.8.8,0,0,1,.1-.4v-.3h.1c0-.5.1-1,.1-1.2h0c.1-.1.1-.4.1-.5h.3a1.7,1.7,0,0,0,1.3-1.7v-.3h.5a1.8,1.8,0,0,0,1.1-1.2l.8.2h.5l.7-.4h0a1.5,1.5,0,0,0,1,.5l.8-.2a3.4,3.4,0,0,1-1.1,1.7l-2.8.3,2.4,1.5h.4c0,.1.1.1.2.2h.5l.2.2a.3.3,0,0,0,.1.2l.2.3c0,.1,0,.1.1.2s.1.2.1.3v.2h.1c0,.1.1.2.1.3h.1l.2.4.3.8v.4l1-.3-.9.4.3,1.2V85a.4.4,0,0,1,.1.3h.1c0,.2.1.3.1.4h0c.1.2.1.3.2.4h0a.5.5,0,0,0,.2.4h0a4.3,4.3,0,0,0,.4.7h.1l.3.3.3.3h0l.4.3h0l.4.2h0l.4.2H94a11.2,11.2,0,0,0,4.9-1.4l1.6-.8a31.1,31.1,0,0,1,6.5-1.9h.2a4.8,4.8,0,0,0,3-2.9.8.8,0,0,1,.1-.4h0c.1,0,.1-.1.1-.3h0a.6.6,0,0,0,.1-.4h.1v-.3h0v-.3h0v-.8h0v-.4c0-.1.1-.2.1-.3l-.9-.3.9.2c.1-.1.1-.2.1-.4l-.9-.3,1,.3a1.1,1.1,0,0,1,.3-.8,9.2,9.2,0,0,1,1.3-2.4l-.8-.6.9.6c0-.1.1-.2.2-.3h.1l.3-.3.4-.4h0l.3-.3h.1l.4-.2h.1l.4-.3a4.3,4.3,0,0,1,2.1-.8V71m0,0a4.8,4.8,0,0,0-2.6,1l-.5.3c-.1,0-.1,0-.1.1l-.4.2a.1.1,0,0,1-.1.1l-.4.3h0a.8.8,0,0,0-.4.4h0l-.4.3c0,.1,0,.1-.1.1l-.2.3h-.1a13.5,13.5,0,0,0-1.5,2.6h0l-.3.9h0a.8.8,0,0,0-.1.4h0l-.2.4h0a.8.8,0,0,1-.1.4h0v.3c0,.1-.1.3-.1.4h0v.3h0c0,.1-.1.2-.1.3h0c0,.2-.1.3-.1.4h0c-.1.1-.1.1-.1.2h-.1a.4.4,0,0,1-.1.3,3.3,3.3,0,0,1-2.3,2.3,27.9,27.9,0,0,0-6.7,2c-2.6,1.1-3.8,2.1-6.2,2.1H92l-.7-.2h0l-.3-.2h-.7l-.2-.2H90a.2.2,0,0,0-.2-.2h0l-.3-.5h-.1c0-.1-.1-.2-.1-.3h0a.4.4,0,0,1-.1-.3h-.1a.4.4,0,0,0-.1-.3h0v-.3a.3.3,0,0,0-.1-.2h0c-.2-.5-.3-1-.5-1.5h0l-.2-.5-.3-.8-.2-.5v-.2h0c0-.1-.1-.2-.1-.4l-.2-.2c0-.1-.1-.2-.1-.3l-.2-.3c0-.1-.1-.2-.1-.3l-.2-.2-.2-.2h-.1c0-.1-.1-.1-.1-.2h-.3a.1.1,0,0,0-.1-.1h0l-.3-.2h-.1c1.3-.7,2.2-3.5,1.3-3.9h-.8l-.2.2c-.2.2-.3.3-.5.3H85c-.2-.3-.4-.8-.7-.8h-.1c-.4,0-.6.7-1,.9H83l-.5-.2c-.2-.1-.2-.3-.5-.4h-.1c-.4,0-.6.6-.6.9s-.1.6-.5.7l-.9.2c-.5.2-.3.8-.3,1.2s-.5.7-1,1-.6.7-.6,1.2a7,7,0,0,0-.2,1.3v.2h0a.4.4,0,0,0-.1.3h0a1.3,1.3,0,0,0-.1.6h0a1.1,1.1,0,0,0-.1.5h0v.2a6.7,6.7,0,0,0-.2,2.8c0,.2.1.2.2.2h.3c0,.9.2,1.7,1.1,2H80c-.4,2.4-1.6,6-1.2,11.4a37.8,37.8,0,0,0,.8,5.1,13.9,13.9,0,0,0,5.1,7.4,26.6,26.6,0,0,0,3.3,2.1,25.9,25.9,0,0,0,7.9,2.4,6.9,6.9,0,0,0-.2,1.3l-.2,1.2a60.5,60.5,0,0,0-7.5,1.1h0l-.3-.2h-.1a.9.9,0,0,0-.9.8.8.8,0,0,1,.5-.2h.1c0,.3.5.4,1.2.4h.7c1.9,0,4.6-.3,4.6-.3h0a44.1,44.1,0,0,0-4.2,2.4L88,122.9h0c0-.1-.1-.1-.2-.1h0a1,1,0,0,0-.6,1.2l.3-.4h.4a7,7,0,0,0,2.3-.9,38.7,38.7,0,0,0,4.9-2.9,29.5,29.5,0,0,0-1.3,5.1c-.1,0-.2,0-.3.2s-.1.8.4,1.2a1,1,0,0,1,.1-.7h0c.3,0,.6-.6.9-1.3a54.2,54.2,0,0,0,1.9-5.4l.6-.2c.7-.2,1.7-.5,1.6-.8h.7a.9.9,0,0,0-.9-.6h-.2l-.3.3H97l.3-1.1.4-1.4h.2c4.4,2.1,7.6,3,9.8,3.1a11.1,11.1,0,0,0-.2,1.7c-.3,2.3-.6,4.1-.6,4.1a60.5,60.5,0,0,0-7.5,1.1h0l-.3-.2H99a.9.9,0,0,0-.9.8.8.8,0,0,1,.5-.2h.1a.2.2,0,0,0,.2.2,3.7,3.7,0,0,0,1.7.2c1.9,0,4.6-.3,4.6-.3h0a44.1,44.1,0,0,0-4.2,2.4l-1.6,1.1h-.2a1,1,0,0,0-.6,1.2l.3-.4h.3a8.2,8.2,0,0,0,2.4-.9,53.6,53.6,0,0,0,5-2.9,27.9,27.9,0,0,0-1.4,5l-.3.2a1.1,1.1,0,0,0,.4,1.3,1,1,0,0,1,.1-.7h0c.3,0,.6-.5.9-1.3a46.3,46.3,0,0,0,1.9-5.4h.1c.4-.1,2.2-.5,2.1-.9h.7a.9.9,0,0,0-.9-.6H110c-.2,0-.2.1-.3.3h-1.3l1.1-3.9.7-2.4.5-.4a16.9,16.9,0,0,0,4.3-6.5c5-2.6,7.1-6.2,6.8-12.6a14.2,14.2,0,0,0,.5-1.6,12.7,12.7,0,0,0,.3-6.3c-.4-2-1-3.5-.1-6.4s-1.7-3.4-1.7-3.4h0c2.7-4.8-1.2-5.6-1.2-5.6.7-1.8,0-4.3-2.1-4.3Z"/></g></g></svg>