<svg xmlns="http://www.w3.org/2000/svg" viewBox="0 0 200 200"><defs><style>.cls-1{isolation:isolate;}.cls-2{fill:#353535;}.cls-3{fill:#616161;}.cls-4{fill:#262626;}.cls-5{fill:#eee;mix-blend-mode:multiply;}.cls-6{fill:#424242;}.cls-7{fill:#edecd9;}.cls-12,.cls-8{fill:none;}.cls-8{stroke:#000;stroke-miterlimit:10;stroke-width:0.04px;}.cls-9{fill:#333;}.cls-10{fill:#fff;}.cls-11{fill:#dbdbd9;}.cls-13{fill:#f4ead7;}.cls-14{fill:#b7b8ba;}.cls-15{fill:#a0a2a5;}.cls-16{fill:#443f3f;}</style></defs><g class="cls-1"><g id="Sheep_03"><path class="cls-2" d="M97.8,134.3l.8-1.2a2.7,2.7,0,0,1-1.7.6,9.5,9.5,0,0,0,1.4-2.3s2.1-.9,3.4.3v.3C102.1,134.7,98.9,134.4,97.8,134.3Z"/><path class="cls-3" d="M101.7,131.7h-.9a3.2,3.2,0,0,1-1.7,0,2.1,2.1,0,0,1-.8-.6s.9-4.3,0-5.5-.6-1.6-.6-3.1a42.3,42.3,0,0,0-1.2-5.2L95.4,114a5.1,5.1,0,0,1,3.5-2.4,10.1,10.1,0,0,1,2.9.2s-.1.9-.2,2.2-.3,4.1-.3,5.8a5.9,5.9,0,0,0,.2,2.3c.9,1.1.2,2.4,0,3.8-.3,3,.6,2.8.6,3.7S101.5,130.7,101.7,131.7Z"/><path class="cls-4" d="M96.9,133.7s1.6-.5,2-1.1l-.3.5A3.2,3.2,0,0,1,96.9,133.7Z"/><path class="cls-4" d="M97.8,134.3s3.6-.4,3.9-2.3C102.1,134.7,98.9,134.4,97.8,134.3Z"/><path class="cls-5" d="M101.7,131.7h-.9a3.7,3.7,0,0,0,.4-1.5c.1-1-.6-1.5-.8-2.5a4.2,4.2,0,0,1,.4-2.9c.4-1.1-.1-1.7-.4-2.9a3.3,3.3,0,0,1,.5-2.3h.4a5.6,5.6,0,0,0,.2,2.2c.9,1.1.2,2.4,0,3.8-.3,3,.6,2.8.6,3.7S101.5,130.7,101.7,131.7Z"/><path class="cls-6" d="M75.6,97.9l-.9,2.2c-7.8,2.7-13-1-13.1-2.3s.3-.8,1-1.3C65.1,94.5,71.2,92.1,75.6,97.9Z"/><path class="cls-3" d="M75.6,97.9l-.7-.4c-4.8-4-11.5-1.4-12.2-1C65.1,94.5,71.2,92.1,75.6,97.9Z"/><path class="cls-2" d="M119.4,114.9l.8-1.4a2.3,2.3,0,0,1-1.7.7,9.1,9.1,0,0,0,1.4-2.5,9.2,9.2,0,0,1,3.4.3.4.4,0,0,0,.1.3C123.7,115.3,120.5,115,119.4,114.9Z"/><path class="cls-4" d="M118.5,114.2a5.7,5.7,0,0,0,2-1.2l-.3.6A2.5,2.5,0,0,1,118.5,114.2Z"/><path class="cls-4" d="M119.4,114.9s3.6-.4,4-2.6C123.7,115.3,120.5,115,119.4,114.9Z"/><path class="cls-6" d="M117,92.2s2.3,8.2,2.3,9.9-.4,2,.6,3.4,0,6.2,0,6.2,1,1.5,3.4.3c-.2-1.1.5-1.5.5-2.4s-1-.8-.7-4.1c.2-1.6.9-3,0-4.3s.3-11.4.3-11.4C120.3,89,118.3,89.9,117,92.2Z"/><path class="cls-2" d="M89.3,130.3l.8-1.3a3.6,3.6,0,0,1-1.8.7,6.8,6.8,0,0,0,1.4-2.4,9.8,9.8,0,0,1,3.5.3v.3C93.6,130.6,90.4,130.3,89.3,130.3Z"/><path class="cls-4" d="M88.3,129.6s1.7-.5,2.1-1.1l-.3.5A2.6,2.6,0,0,1,88.3,129.6Z"/><path class="cls-4" d="M89.3,130.3s3.5-.4,3.9-2.4C93.6,130.6,90.4,130.3,89.3,130.3Z"/><path class="cls-6" d="M86.9,109.4s2.3,7.5,2.3,9-.4,1.9.5,3.2,0,5.7,0,5.7,1.1,1.4,3.5.3c-.2-1,.4-1.4.4-2.2s-.9-.7-.6-3.8c.2-1.4.9-2.8,0-3.9s.3-10.5.3-10.5C90.2,106.5,88.1,107.3,86.9,109.4Z"/><path class="cls-2" d="M127.9,118.9l.8-1.3a2.3,2.3,0,0,1-1.7.7,9.1,9.1,0,0,0,1.4-2.5s2.1-1,3.4.3.1.3.1.4C132.2,119.3,129,119,127.9,118.9Z"/><path class="cls-3" d="M131.8,116.1h-.3l-.3.2a3.4,3.4,0,0,1-2,0,1.4,1.4,0,0,1-.8-.6s1-4.7,0-6-.6-1.8-.6-3.4a39,39,0,0,0-1.2-5.7l-1.1-3.9a5.1,5.1,0,0,1,3.5-2.6,7.6,7.6,0,0,1,2.9.3s-.1.9-.2,2.3c-.2,3.1-.5,8.2,0,8.8s.1,2.6,0,4.2c-.4,3.2.6,3.1.6,4S131.6,115.1,131.8,116.1Z"/><path class="cls-5" d="M131.8,116.1h-.3l-.3.2a3.4,3.4,0,0,1-2,0,1.4,1.4,0,0,1-.8-.6s1-4.7,0-6-.6-1.8-.6-3.4a39,39,0,0,0-1.2-5.7l-1.1-3.9a5.1,5.1,0,0,1,3.5-2.6,7.6,7.6,0,0,1,2.9.3s-.1.9-.2,2.3c-.2,3.1-.5,8.2,0,8.8s.1,2.6,0,4.2c-.4,3.2.6,3.1.6,4S131.6,115.1,131.8,116.1Z"/><path class="cls-4" d="M127,118.3a5.7,5.7,0,0,0,2-1.2l-.3.5A2.6,2.6,0,0,1,127,118.3Z"/><path class="cls-4" d="M127.9,118.9s3.6-.3,4-2.4C132.2,119.3,129,119,127.9,118.9Z"/><path class="cls-7" d="M137,88a19.4,19.4,0,0,1-1.8,3.5,26.7,26.7,0,0,1-1.4,3.6c-.7,1.1-1.9,1.8-2.8,2.8a31.9,31.9,0,0,1-2.3,3.2c-.9.8-2.2,1.3-3.2,2.1s-1.1,1.2-1.7,1.8l-.5.4-.6.6c-1.1.7-2.4.9-3.6,1.6s-2,1.8-3.1,2.4-2.1.6-3,1a13,13,0,0,0-1.8,1.5l-.8.4a1.8,1.8,0,0,1-1,.4,6.8,6.8,0,0,0-2,.7c-.9.4-1.7,1.4-2.6,1.8s-2.1.4-3,.8-1.8,1.2-2.8,1.6h-.4a26.5,26.5,0,0,1-2.7.2,20.3,20.3,0,0,1-3.1.8h-.9a11.1,11.1,0,0,0-2.2-.7,16.5,16.5,0,0,1-3.1-.4c-.9-.3-1.7-1.2-2.7-1.7a14.2,14.2,0,0,1-2.2-.7l-.5-.7h-.9a5.7,5.7,0,0,1-4.1-2.4,10.6,10.6,0,0,1-1.6-2.3,12.7,12.7,0,0,1-1-2.4,97.2,97.2,0,0,1,2.2-10.3c.3-1,.7-1.6,1.3-1.8s-.3-.7,0-1.3.6.2,1.2-.1.2-.7.5-.9.7.2,1,0,.2-.7.5-.8.7.1,1,0,.2-.8.5-.9.8.1,1,0,.2-.8.5-.9.8.1,1,0,.3-.8.6-.9.7.1,1,0,1.4-1.5,2.2-2.1,1.9-.7,2.7-1.2,1.3-1.6,2-2.2,1.9-.9,2.6-1.5,1.2-1.7,1.8-2.3,1.8-1.1,2.5-1.8,1-1.7,1.6-2.4,1.8-1.1,2.4-1.8,1.1-1.7,1.8-2.4,1.8-.9,2.6-1.5,1.2-1.5,2.1-2,1.8-.4,2.8-.8,1.6-1.1,2.5-1.4,1.9.1,2.9-.1,1.8-.7,2.8-.7,1.8.5,2.8.6a14.1,14.1,0,0,1,2.9.1,19.4,19.4,0,0,1,2.4,1.5c.8.5,1.9.6,2.6,1.2l.4.4c.5.6.7,1.4,1.2,2s1.5,1.3,2,2.2a23,23,0,0,1,.6,2.8c.4,1.3,1.2,2.4,1.4,3.7V81c0,1-.4,2.1-.4,3.1A25.4,25.4,0,0,1,137,88Z"/><polyline class="cls-8" points="123 95.9 123 95.9 123 95.9"/><path class="cls-7" d="M120.8,103.4c.3.1.8.2,1,.5s.1.9.5,1.2.7.2,1,.3h.2c.3.3.4.9.8,1.1s.9-.1,1.3,0h.2l.3.2h.9a.1.1,0,0,1,.1-.1h.2l.3-.2h.3c.4,0,.9.5,1.3.4s.7-.7,1.1-.8h1.2l.5-.2h.4a.1.1,0,0,1,.1-.1l.3-.2h0l.2-.2h.6a1.4,1.4,0,0,1,.2-.6v-.3l.3-.6.3-.6a27.1,27.1,0,0,0,1.7-2.5c.4-.9.2-2.1.5-3.1a26.8,26.8,0,0,0,1.2-3c.2-1-.2-2-.1-3.1s.6-2,.6-3-.6-2.1-.7-3.1.2-2.2-.1-3.1,0-.3-.1-.4"/><path class="cls-3" d="M71.1,96.5c-2.7,3.2-3.1,5.8-4.5,9.4s-1.9,5,.4,6.7a3,3,0,0,0,3.2.5,8.2,8.2,0,0,0,3.2-2.5c.4-.4,4.3-.2,7-3.3s2.3-7.2,1.6-9.5S76.5,90.3,71.1,96.5Z"/><path class="cls-9" d="M66.4,108.7c-.1-.2-.4,0-.3.1a2.2,2.2,0,0,0,.9,1.5,2.6,2.6,0,0,0,.9,2.6c.1.1.3-.1.2-.2a3.8,3.8,0,0,1-.7-2.3,3.2,3.2,0,0,0,1.5-.5c.3-.2.4-.6-.3-.4S67,109.8,66.4,108.7Z"/><path class="cls-6" d="M76.8,103.1s-.5,1.4-1.3,1.4-.9-.4-1.4-.1a2.4,2.4,0,0,0,.3-.7c.2-.5.4-1,1-1.2A1,1,0,0,1,76.8,103.1Z"/><path class="cls-9" d="M76.7,102.9c-.2.8-.7,1.4-1.3,1.4a1.2,1.2,0,0,1-1-.6c.2-.5.4-1,1-1.2A1,1,0,0,1,76.7,102.9Z"/><circle class="cls-10" cx="75.9" cy="103" r="0.3"/><path class="cls-11" d="M78.9,92.3c-.3,0-.6-.7-1-.7s-.9.5-1.3.5-.8-.6-1.2-.5-.7.6-1.1.7-.9-.5-1.3-.4-.6.8-1,.9-1-.3-1.3-.1-.5.8-.8,1.1-1,.1-1.3.3.2,1,.1,1.3-.6.9-.4,1.3.9.5,1.2.8.1,1.1.4,1.4,1,0,1.4.2.6.9,1,1,1-.4,1.4-.3.8.7,1.2.7.9-.6,1.4-.6.8.7,1.2.7,1-.5,1.4-.5.6.8,1,1,1.1.2,1.2.6-.4.8-.4,1.1.5.7.3,1-.8.2-1,.5,0,.9-.3,1.1-.8,0-1.1.2-.1.8-.3,1-.9,0-1.2.2,0,.9-.2,1.1-.9.2-1.1.5.3.7.3,1.1-.7.6-.6.9.8.5,1.2.7.5.8,1,.8.8-.6,1.2-.7.9.4,1.3.3.6-.8,1-.9,1,.2,1.4.1.5-.9.9-1.1,1,.2,1.4,0,.4-1,.7-1.2,1.1.1,1.4-.2.3-1,.5-1.2,1.3-.7,1.6-1.3,0-1.4.2-2,.8-1.2.8-1.9-.7-1.2-.9-1.8.1-1.4-.3-2-1.2-.6-1.7-1.1-.5-1.4-1-1.8-1.4-.2-2-.6-.8-1.2-1.4-1.4-1.5,0-2-.2Z"/><path class="cls-7" d="M110.3,106.4c1.6-.4,2.5-.2,2.6.1a3.9,3.9,0,0,1,0,2.5c-.2.8-1,1.4-1.4,2.3l-.3.8v.4a10.3,10.3,0,0,1-.4,1.4c-.5.7-1.4,1.2-1.9,1.9s-.6,1.8-1.2,2.4-1.6.9-2.2,1.5-1.1,1.5-1.8,2l-.3.2h-.5l-.9.2h-1.2l-.3.2h-.1a2.4,2.4,0,0,1-1.1.6c-.7.1-1.4-.4-2-.6h0c-.7-.1-1.5.1-2.1-.2s-.8-1.2-1.3-1.6l-.5-.4a3.5,3.5,0,0,1-1.3-.8l-.3-.8h0v-.2"/><path class="cls-12" d="M92.9,112.7h-.1"/><path class="cls-13" d="M89.8,115.7a3.3,3.3,0,0,1,.3.6l.6.7"/><path class="cls-14" d="M91.9,119.1a11.1,11.1,0,0,0-2.2-.7,16.5,16.5,0,0,1-3.1-.4c-.9-.3-1.7-1.2-2.7-1.7a14.2,14.2,0,0,1-2.2-.7l-.5-.7h-.9a5.7,5.7,0,0,1-4.1-2.4c1.1-.3,2.3-.3,3.3-.6s2.8-1.6,4.2-1.3,2.1,1.7,3.3,2.7,1.5-.1,1.8.3,0,1.4.4,1.8,1.5.3,1.7.7-.5,1.3-.3,1.8S91.8,118.6,91.9,119.1Z"/><path class="cls-6" d="M86.4,111.2c-1,.7-9.2-1-8.6-8.7a1.9,1.9,0,0,1,.2-.7,2,2,0,0,1,1.4-1.3c6.3-1,7.6,6.6,7.3,9.6A3,3,0,0,1,86.4,111.2Z"/><path class="cls-3" d="M86.7,110.1a11.6,11.6,0,0,0-2.8-6.6c-1.4-1.7-4.9-1.8-5.9-1.7a2,2,0,0,1,1.4-1.3C85.7,99.5,87,107.1,86.7,110.1Z"/><path class="cls-14" d="M137.9,93.7a26.8,26.8,0,0,1-1.2,3c-.3,1-.1,2.2-.5,3.1a27.1,27.1,0,0,1-1.7,2.5,24.3,24.3,0,0,1-1.4,2.8c-.8.9-1.9,1-2.8,1.4s-.7.7-1.1.8-.9-.4-1.3-.4-.8.6-1.2.5-.7-.7-1.1-.8-1,.2-1.3,0-.5-.8-.8-1.1h-.2l-.6.6c-1.1.7-2.4.9-3.6,1.6s-2,1.8-3.1,2.4-2.1.6-3,1a13,13,0,0,0-1.8,1.5,10.3,10.3,0,0,1-.4,1.4c-.5.7-1.4,1.2-1.9,1.9s-.6,1.8-1.2,2.4-1.6.9-2.2,1.5-1.1,1.5-1.8,2-1.8.4-2.6.7l-.7.4c.1-.4.4-1,.3-1.3s-1.5-.4-1.8-.9.4-1.4.2-1.9-.3-.3-.5-.5-.9-.5-.9-.8,1.1-.7,1.4-1,0-1.4.5-1.7,1.4.4,1.7.2.3-1.5.7-1.9,1.6-.4,1.9-1-.5-1.4-.5-2,1.1-.5,1.1-.8-.6-.3-.9-.5l-.3-.2c0-.3.9-.8.8-1.1s-1.3-.8-1.5-1.4.7-1.3.7-1.9-.9-1.4-.7-1.9,1.4-.4,1.7-.7.3-1.5.7-1.7,1.1.8,1.6.9,1-.9,1.4-.8.5,1.3.9,1.4,1.1-.6,1.5-.5.8,1.4,1.3,1.5,1.3-.8,1.8-.8,1.5.7,2,.4.2-1.3.6-1.7,1.4.1,1.7-.3-.2-1.4,0-1.8,1.5-.4,1.7-.9-.5-1.4-.2-1.9,1.4-.3,1.7-.7.9-1.7,1.6-1.6.6.4.9.8.4.7.7.8,1.8.1,2.3.5.6,1.8,1.2,2,1.3-.6,2-1,1.7,0,2.2-.7.3-2.3.7-3.4,1.7-1.8,1.9-2.9-.6-2.4-.5-3.5,1.1-1.1,1.2-1.6-.9-1.3-.9-1.9,1.1-1.1,1-1.7-1.1-1-1.2-1.5.6-1.2.6-1.8-1.4-.8-1.5-1.3.4-1.7.1-2.5-1.6-1-1.8-1.7.5-1.5.8-2.1.7,1.4,1.2,2,1.5,1.3,2,2.2a23,23,0,0,1,.6,2.8c.4,1.3,1.2,2.4,1.4,3.7V81a.4.4,0,0,1,.1.3,16.9,16.9,0,0,1,.1,3.2c.1,1,.7,2,.7,3.1s-.6,2-.6,3S138.1,92.7,137.9,93.7Z"/><path class="cls-15" d="M122.7,106c-1.1.7-2.4.9-3.6,1.6s-2,1.8-3.1,2.4-2.1.6-3,1a7.9,7.9,0,0,0-1.7,1.4c-.2.1.3-1.7-.9-1.9s-1.4-1.4-.9-2.5,1.3-2.9,3-2.6.7,1.1,2,.7,1.4-1.2,2.3-1.5l1.8-.3c.6,0,1.1.4,1.6-.1s.7-1.3,1.4-1.4.3.3.6,0,.1-.5.2-.7.6-.8.8-.2,0,1.6.2,2.4A1.3,1.3,0,0,1,122.7,106Z"/><path class="cls-16" d="M98.9,135.1H96.6l.3-.5H95.3l1-1.2a9.6,9.6,0,0,0,1.3-2c.4-1.9.5-4.3.1-4.9a2.9,2.9,0,0,1-.8-2.6v-.2h-.4a3.4,3.4,0,0,1-1.7-.3,5.2,5.2,0,0,1-1-1.1v-.2a4.1,4.1,0,0,0,.3,2.5,1.3,1.3,0,0,1,.4,1,3.5,3.5,0,0,1-.3,1.2.8.8,0,0,0-.2.8h0v.4h0a2.8,2.8,0,0,1-.7,2.1c-1.1,1.1-3.1,1-4,.9H88.1l.3-.5H86.8l1-1.2a10.5,10.5,0,0,0,1.3-2.2c.4-1.8.5-4.3.1-4.9a3.2,3.2,0,0,1-.8-2.8V119H86.9l-.5-.2a4.8,4.8,0,0,1-1.7-1l-.5-.4-.6-.3c-.2-.2-.5-.2-.8-.3a3.2,3.2,0,0,1-1.5-.6l-.5-.4h-.5a7.4,7.4,0,0,1-4.7-2.7l-.9-1.2v-.3l-.2-.3h-.5a8.6,8.6,0,0,1-3.5,2.6,3.6,3.6,0,0,1-3.8-.6c-2.7-2-1.9-4.3-.7-7.4h0c.3-.8.5-1.5.8-2.2l.6-1.8c-3.9-.5-6.4-2.5-6.4-3.8a2.9,2.9,0,0,1,1.2-2,13.1,13.1,0,0,1,3.9-2l2.2-.4a1.9,1.9,0,0,1,1-.3h.3c0-.1,0-.2.1-.2a1.3,1.3,0,0,1,.8-1,1.4,1.4,0,0,1,1.1,0h.3v-.2a1.6,1.6,0,0,1,.9-.7,2.2,2.2,0,0,1,1.2.2h.3a2.9,2.9,0,0,1,1.1-.6,2.1,2.1,0,0,1,1.1.4c0,.1.1.1.1.2l.2-.2a3.6,3.6,0,0,1,1.1-.4,2.1,2.1,0,0,1,1.1.7h.2l.9.3h.8a1,1,0,0,1,.5-.7,1.2,1.2,0,0,1,1-.1,1.3,1.3,0,0,1,.6-.9h.9a1.3,1.3,0,0,1,.6-.9,1.7,1.7,0,0,1,1-.1.1.1,0,0,0,.1.1l1-.9a3.8,3.8,0,0,1,1.1-1.1l1.5-.6,1.2-.6,1-1.1a9.4,9.4,0,0,1,1-1,4.2,4.2,0,0,1,1.4-.9l1.1-.6a4.8,4.8,0,0,0,.9-1.1,6,6,0,0,1,.9-1.3,4.2,4.2,0,0,1,1.4-.9,4.4,4.4,0,0,0,1-.8,2.8,2.8,0,0,0,.8-1.1,6,6,0,0,1,.9-1.3,4.5,4.5,0,0,1,1.4-1,4.4,4.4,0,0,0,1-.8A4.4,4.4,0,0,0,104,73a11.3,11.3,0,0,1,1-1.3,5.4,5.4,0,0,1,1.6-1,3.3,3.3,0,0,0,1-.6c.3-.1.5-.4.8-.7a3.8,3.8,0,0,1,1.5-1.3,3.5,3.5,0,0,1,1.6-.6,4.2,4.2,0,0,0,1.2-.3l1-.5a4.2,4.2,0,0,1,1.6-.9,5.5,5.5,0,0,1,1.8-.1h1.2l1-.3a5.9,5.9,0,0,1,1.9-.5,5.8,5.8,0,0,1,1.8.4l1.1.3h1a4.5,4.5,0,0,1,2,.1,4.8,4.8,0,0,1,1.7,1l.8.6,1,.4a4.4,4.4,0,0,1,1.8.9l.5.5.7,1.1a4.1,4.1,0,0,0,.5.9l.7.7a4.7,4.7,0,0,1,1.3,1.5,6.1,6.1,0,0,1,.5,1.8,2.5,2.5,0,0,0,.2,1.2,6.9,6.9,0,0,0,.5,1.3,7.5,7.5,0,0,1,.9,2.5v.8h.1v.2a3.7,3.7,0,0,1,.2,1.2,1.7,1.7,0,0,0-.1.7v1.3a2.9,2.9,0,0,0,.2.9v.3a6.5,6.5,0,0,1,.4,2,11.3,11.3,0,0,1-.3,1.8,3.1,3.1,0,0,0-.3,1.3h0a6.2,6.2,0,0,0,.1,1.3,12,12,0,0,1,0,1.9h0a8.7,8.7,0,0,1-.7,1.7l-.2.4-.3.7c-.1.5-.1.9-.2,1.4a4.1,4.1,0,0,1-.2,1.6c0,.1,0,.2-.1.2a5.6,5.6,0,0,1-1.1,1.7l-.7,1-.3.6-.3.8-.3.6v.3h-.2v.2h-.6l-.3.2h-.2a6.5,6.5,0,0,1-.1,2.4,3.6,3.6,0,0,0-.2,1.1c-.2,2,.1,2.5.3,2.9a2.9,2.9,0,0,1,.3,1.1,3.5,3.5,0,0,1-.3,1.2,3.6,3.6,0,0,0-.2,1h0a.3.3,0,0,1,.1.2h0a2.8,2.8,0,0,1-.7,2.4c-1.1,1.1-3,.9-4,.9h-1.1l.3-.6h-1.6l.9-1.1a9.3,9.3,0,0,0,1.3-2.3c.4-2.2.6-4.7.1-5.4a3.5,3.5,0,0,1-.8-2.1h-1l-.4-.4c-.1-.1-.2-.1-.2-.2h0c-.2,0-.3,0-.3.1a2.2,2.2,0,0,1-1.1-.1h-.2c.1.8.2,1.1.4,1.3a2.9,2.9,0,0,1,.3,1.1,5,5,0,0,1-.3,1.3,1.2,1.2,0,0,0-.2,1h0v.5h0a2.8,2.8,0,0,1-.7,2.3c-1.1,1.2-3.1,1-4,.9h-1.2l.3-.5H117l.9-1.2a11.5,11.5,0,0,0,1.3-2.4h0a30.1,30.1,0,0,0,.4-3.2h-.1a6.1,6.1,0,0,0-1.4,1,8.6,8.6,0,0,1-1.8,1.4l-1.7.5-1.3.5-.4.2-.8.7-.2.2a3.4,3.4,0,0,1-.5,1.4,6.9,6.9,0,0,1-1.1,1.3l-.8.7a4.2,4.2,0,0,0-.4,1v.2a8.3,8.3,0,0,1-.7,1.3,12.1,12.1,0,0,1-1.4,1l-.9.6-.7.7a3.7,3.7,0,0,1-1.2,1.3l-.4.2-.6.2h-.5a4.9,4.9,0,0,1-.1,2.1,4.3,4.3,0,0,0-.2,1.1c-.2,1.7,0,2.2.2,2.5a1.8,1.8,0,0,1,.4,1.1,2.9,2.9,0,0,1-.3,1.1c-.2.4-.3.5-.2.8h0c0,.1.1.2.1.4a2.5,2.5,0,0,1-.6,2.1A4.2,4.2,0,0,1,98.9,135.1Zm-.4-2.5.3.2a.8.8,0,0,1,.2.8,2.6,2.6,0,0,0,1.8-.5c.1-.1.3-.3.2-1h0l-.4-.4.3-.3a5,5,0,0,1,.3-1.3.6.6,0,0,0,.2-.5v-.3c-.4-.6-.7-1.4-.5-3.5a5,5,0,0,1,.2-1.2c.2-.9.3-1.5,0-1.9l-.5-.9,1.1-.3h1.7a2.4,2.4,0,0,0,.8-.9l.9-1,1.2-.8,1-.7a2,2,0,0,0,.4-.8v-.2l.6-1.3a9.4,9.4,0,0,1,1-1c.3-.3.7-.6.8-.9a1.7,1.7,0,0,0,.3-1v-.3l.2-.3a.8.8,0,0,0,.4-.4l.9-.7h.1l.5-.3,1.7-.6,1.4-.4,1.5-1.2,1.6-1.2,1.2-.6.9-.4v1a27.5,27.5,0,0,1-.4,4.8l-.3.7,2.6-2.3a1.3,1.3,0,0,0,.1-.6v-.4c-.3-.5-.7-1.3-.5-3.6v-.3l.8-.8.4.2h.4v.3l.2.2c.1.2.2.3.2.4v.2h1.7l.3.3h.1l-.5.6.4-.3h.5l-.2-.3.4-.2h.3l1-.3v1.5a2.1,2.1,0,0,0,.5,1.9c1.1,1.5.3,5.7.1,6.5s-.3.9-.5,1.3l.3.2c.3.2.3.5.2.9a2.6,2.6,0,0,0,1.8-.5,1.7,1.7,0,0,0,.2-1.3h0l-.3-.3.3-.4a1.7,1.7,0,0,1,.3-1.3,2,2,0,0,0,.1-.7.8.8,0,0,0-.1-.4c-.4-.6-.7-1.5-.5-3.7l.3-1.3c.1-.9.3-1.6,0-2.1l-.3-.7,1-.5h.4l.2-.2a.1.1,0,0,1,.1-.1l.3-.5.2-.5.4-.9.3-.7.9-1.2a6,6,0,0,0,.9-1.3h0a5,5,0,0,0,.2-1.2,8.8,8.8,0,0,1,.2-1.7,3,3,0,0,1,.4-1l.2-.4a12.1,12.1,0,0,0,.5-1.4,3.8,3.8,0,0,0,0-1.5,8.6,8.6,0,0,1-.1-1.6,7.5,7.5,0,0,1,.4-1.6,8.9,8.9,0,0,0,.3-1.4,4.2,4.2,0,0,0-.4-1.5v-.4a3.6,3.6,0,0,1-.2-1.1,4.3,4.3,0,0,1,0-1.6v-.6a1.7,1.7,0,0,0-.1-.8h0l-.2-.2v-.4a2,2,0,0,0-.1-.7,8.9,8.9,0,0,0-.7-1.9l-.6-1.6a7,7,0,0,1-.3-1.4,4.2,4.2,0,0,0-.3-1.3,8.7,8.7,0,0,0-.9-1.1,3.8,3.8,0,0,1-.9-.9l-.7-1.1a7,7,0,0,0-.6-.9v-.2h-.1a3.5,3.5,0,0,0-1.4-.6l-1.1-.5-1.1-.8a3.7,3.7,0,0,0-1.2-.7h-2.8a5,5,0,0,1-1.3-.3l-1.4-.3-1.4.3a2.8,2.8,0,0,1-1.3.4H117a2.8,2.8,0,0,0-1.3,0,3.7,3.7,0,0,0-1.2.7l-1.3.7-1.4.4a2.1,2.1,0,0,0-1.2.3,5,5,0,0,0-1.1,1,4.7,4.7,0,0,1-1,1l-1.3.7-1.2.8a2.6,2.6,0,0,0-.7,1,6.4,6.4,0,0,1-1,1.3,7.1,7.1,0,0,1-1.4,1l-1,.8a2.6,2.6,0,0,0-.7,1l-1,1.5a4.2,4.2,0,0,1-1.4.9l-1.1.8a4.3,4.3,0,0,0-.7,1,11,11,0,0,1-1.1,1.4,4.4,4.4,0,0,1-1.5.8,4.1,4.1,0,0,0-1.1.7l-.8.8a4.3,4.3,0,0,1-1.3,1.4l-1.5.7a3.4,3.4,0,0,0-1.2.6,2.2,2.2,0,0,0-.9.8l-1.3,1.2a1.9,1.9,0,0,1-1,.1,1.4,1.4,0,0,1-.6.8,1.2,1.2,0,0,1-1,.1,1,1,0,0,1-.5.8,1.2,1.2,0,0,1-1,.1,1.4,1.4,0,0,1-.5.8,2.2,2.2,0,0,1-1.1.1v.2H80a2.7,2.7,0,0,0-1.2-.3,2,2,0,0,1-.9-.6h-.3a1.3,1.3,0,0,1-1,.4h0a1.8,1.8,0,0,1-1-.4.1.1,0,0,1-.1-.1h-.2a1.5,1.5,0,0,1-.9.6,2,2,0,0,1-1.1-.3H73a1.9,1.9,0,0,1-.8.7,2,2,0,0,1-1.1-.1H71v.2l-.6.8-.9.3h-.2v.4h-.5l-2.2.3a9.6,9.6,0,0,0-3.3,1.8,2.6,2.6,0,0,0-.8.8c.2.4,2.3,2.2,6.1,2.4h1l-.4.9-.9,2.7c-.3.7-.5,1.4-.8,2.2h-.1c-1.2,3.3-1.5,4.4.3,5.8a2.1,2.1,0,0,0,2.4.3,6.4,6.4,0,0,0,2.9-2.3,2.4,2.4,0,0,1,1.5-.5l.7-.2.3.5.3.5.2.4v.2l.8,1a5.3,5.3,0,0,0,3.7,2.2h1.3l.2.5.3.4.9.3,1.1.3.8.5.6.5a3.7,3.7,0,0,0,1.2.7h3v.7h0a3.7,3.7,0,0,1-.1,1.1,2.4,2.4,0,0,0,.5,1.7c1,1.2.5,4.3.3,5.7h1.8a4.6,4.6,0,0,1,.3-.9c.1-.3.2-.4.2-.6s0-.1-.1-.3-.7-1.4-.5-3.6a4.3,4.3,0,0,1,.2-1.1l.2-.9,1.1.5.6.4.6.9.6.6h1.8l.6.2h.4v1.4a1.7,1.7,0,0,0,.4,1.6c1,1.3.5,4.6.2,5.8l.5.5-.7.3Zm-8.5-4h.3a1,1,0,0,1,.2.9,2.7,2.7,0,0,0,1.8-.5,1.4,1.4,0,0,0,.2-1l-2-.8h0A10.4,10.4,0,0,0,90,128.6Zm-1.3-10.3h0Zm33.2-6.1-1.2,2a2.1,2.1,0,0,0,1.6-.5q.5-.3.3-1.2Zm-10.6.4h0Zm11.3-1.6-.5.8.4-.2C122.5,111.4,122.6,111.2,122.6,111Zm-48.6.1Zm53-3.7Zm5.1-1.7h0ZM83.8,91.3Zm1.5-.9Z"/></g></g></svg>