<svg xmlns="http://www.w3.org/2000/svg" viewBox="0 0 200 200"><defs><style>.cls-1,.cls-2{fill:#ea9518;}.cls-1{stroke:#51250f;stroke-miterlimit:10;stroke-width:0.28px;}.cls-3{fill:#51250f;}.cls-4{fill:#edb247;}.cls-5{fill:#4f2715;}.cls-6{fill:#4e2817;}.cls-7{fill:#aa660c;}.cls-8{fill:#754307;}.cls-9{fill:#ffd79b;}.cls-10{fill:#161514;}</style></defs><g id="Lion_03"><path class="cls-1" d="M135,84.7l-.2.3c-1.2,1.6-3.4,4.6-5.3,4.6s-2.3-1.1-3.3-3.1-2.6-10.6-4.4-13.2c0,0-3.7-7-14-2.6,0,0-3.3,1.5-4.4,3s-7.7,6.9-12.5,8.4c0,0-2.5.4-5.8,4l-4.4,4.1s-1.1-5.2-7.8-4.8a3.3,3.3,0,0,0-1.4-3.7,3.5,3.5,0,0,0-4.5.9,5.7,5.7,0,0,0-.5,3.4,6.6,6.6,0,0,0,1.3,2.7l-.7.8a12.7,12.7,0,0,1-1.4,1.7,2.4,2.4,0,0,0-.4,1.2,4.7,4.7,0,0,0,.3,2.6,6.3,6.3,0,0,1-.6,4.3,3.1,3.1,0,0,0-.7,2.2,2.3,2.3,0,0,0,.6,1.2,3.7,3.7,0,0,0,.3,1.4,4.2,4.2,0,0,0,5.3,1.5,15.7,15.7,0,0,0,3.1-3.2,4.6,4.6,0,0,1,2.9.8,3.8,3.8,0,0,1,1.2,1.7s1.1,7.7,1.9,9.1a28.2,28.2,0,0,1,.7,4.5s-4.4,1.1-3,3.6a1.7,1.7,0,0,0,1.1,1.5,2.5,2.5,0,0,0,2.6.7s3.7-.7,4.4-3.3c0,0,.8-6.6.4-9.2l.7.4c.2.6.5,1.3.7,2s1,2.3,1.5,3.3a18.6,18.6,0,0,1,.3,2.6,17.8,17.8,0,0,1,0,4,4.9,4.9,0,0,0-1.9,1.1,4.6,4.6,0,0,0-1.3,2.1,1.9,1.9,0,0,0,1.5,1.8,2.3,2.3,0,0,0,2.5.7s4.1-1.4,4.4-4.4a4.1,4.1,0,0,0,.1-1.2,5,5,0,0,0-.5-1.6c.3-1.5.6-3.1.8-4.8a48.7,48.7,0,0,0,.3-11.3A15.5,15.5,0,0,1,97,104a17.7,17.7,0,0,1,5.3-3.9s7-4,8.1-8.4a14.3,14.3,0,0,1,1.5,6.9,3.1,3.1,0,0,0-3.7,1.9,1.5,1.5,0,0,0,.7,1.8s0,1.8,3,.7c0,0,4.4-1.4,4-4a17.6,17.6,0,0,0,0-4.8,9.2,9.2,0,0,0,2.9,3.3s.4,3.7,0,4.8-3.3,1.1-2.9,3.3c0,0,0,1.1,1.5,1.5a1.4,1.4,0,0,0,1.4.7,4.1,4.1,0,0,0,3.2-.9,3.7,3.7,0,0,0,1.2-3.7c.2-1.4.4-3,.5-4.6a49.7,49.7,0,0,0,.2-5.3l-1.1-1.1a5.8,5.8,0,0,1-1-3.5s1.1-5.5.7-8.1h0a11.6,11.6,0,0,1,.6,1.5c1.6,4.4,3,8.5,5.8,9.2s4.7-1.2,5.9-2.5,1.7-2.2,1.1-3.3A1.8,1.8,0,0,0,135,84.7Z"/><path class="cls-2" d="M73.4,102.8s5.2.3,6-2.9a10.1,10.1,0,0,1,2.5-4.5"/><path class="cls-3" d="M73.4,102.8a13.5,13.5,0,0,0,3.5-.6,4.6,4.6,0,0,0,1.5-.9,3.4,3.4,0,0,0,.9-1.4h0a6.4,6.4,0,0,1,1-2.4,8.3,8.3,0,0,1,1.6-2.1,10.7,10.7,0,0,0-1.5,2.2,8.5,8.5,0,0,0-.9,2.4h0a2.9,2.9,0,0,1-.9,1.5,4.3,4.3,0,0,1-1.6.9A8.9,8.9,0,0,1,73.4,102.8Z"/><path class="cls-2" d="M80,95.3c2.1,1.3,4.6,1.2,6-.1a4.4,4.4,0,0,0,1.3-2.4A3.7,3.7,0,0,0,85.9,90c-1.5-1.2-4.1-.9-5.9.9"/><path class="cls-3" d="M80,95.3a5.6,5.6,0,0,0,4.4.6,4.5,4.5,0,0,0,1.9-1.1,6.7,6.7,0,0,0,.9-2.1h0a5.3,5.3,0,0,0-.8-2.2,4.1,4.1,0,0,0-2-1.2A5.4,5.4,0,0,0,80,90.9a5.5,5.5,0,0,1,4.4-1.7,3.4,3.4,0,0,1,3,3.5h0a3.5,3.5,0,0,1-1,2.1,3.7,3.7,0,0,1-2,1.2,5.9,5.9,0,0,1-2.3.1A6.7,6.7,0,0,1,80,95.3Z"/><path class="cls-4" d="M81.6,92.1a2.7,2.7,0,0,1,3.3-.5,1.8,1.8,0,0,1,.1,2.8,2.8,2.8,0,0,1-3.4.1"/><path class="cls-5" d="M81.6,92.1a3.2,3.2,0,0,1,2.5-1,2.1,2.1,0,0,1,1.2.7,2.9,2.9,0,0,1,.5,1.3h0a2.3,2.3,0,0,1-.6,1.2,1.9,1.9,0,0,1-1.1.7,3.1,3.1,0,0,1-2.5-.5,2.9,2.9,0,0,0,2.4.3,1.7,1.7,0,0,0,1-.6,2.2,2.2,0,0,0,.5-1.1h0a2.1,2.1,0,0,0-.4-1.1,1.9,1.9,0,0,0-1.1-.7A3.2,3.2,0,0,0,81.6,92.1Z"/><path class="cls-1" d="M76.4,103.6s6.2,7.2,10,9"/><path class="cls-4" d="M85.5,110l2.3,6.4"/><path class="cls-6" d="M85.5,110c.4,1.1.9,2.1,1.3,3.2l1.2,3.2h-.3l-1.2-3.2C86.1,112.2,85.8,111.1,85.5,110Z"/><path class="cls-4" d="M94.8,106.9a16.6,16.6,0,0,0-.5-2.8,8.1,8.1,0,0,1-.4-2.5"/><path class="cls-5" d="M94.7,106.9c-.1-.5-.1-.9-.2-1.4l-.3-1.3h0a8,8,0,0,1-.3-2.6h0a11.1,11.1,0,0,0,.5,2.5h0a5.7,5.7,0,0,1,.4,1.4c.1.4.1.9.2,1.4Z"/><path class="cls-2" d="M118.7,97.9s-4.2-2.6-7.5-10.6"/><path class="cls-3" d="M118.7,98.1a13.9,13.9,0,0,1-2.5-2.3,26.5,26.5,0,0,1-2.1-2.6,26.9,26.9,0,0,1-1.6-2.9,19.4,19.4,0,0,1-1.3-3l1.4,2.9a26.8,26.8,0,0,0,1.8,2.8,16.4,16.4,0,0,0,2,2.6,12.6,12.6,0,0,0,2.4,2.2Z"/><path class="cls-2" d="M120.3,72.9s3.8,6,1.4,16.2"/><path class="cls-3" d="M120.3,72.9a13.4,13.4,0,0,1,1.6,3.9,18.5,18.5,0,0,1,.7,4.1c0,1.4,0,2.8-.1,4.2l-.3,2c-.1.7-.3,1.4-.4,2.1h-.3a29.3,29.3,0,0,0,.7-4.1,27.7,27.7,0,0,0,.1-4.1,29,29,0,0,0-.6-4.1A15.3,15.3,0,0,0,120.3,72.9Z"/><path class="cls-1" d="M110.2,92.5a6.8,6.8,0,0,1,1.7-3.6"/><path class="cls-4" d="M77.2,122.5s.9-1.8,2.4-1.8"/><path class="cls-7" d="M77.1,122.5a6.4,6.4,0,0,1,1-1.3,2.1,2.1,0,0,1,1.5-.5,2.5,2.5,0,0,0-1.4.6,5.7,5.7,0,0,0-.8,1.3Z"/><path class="cls-4" d="M78.4,124a3.2,3.2,0,0,1,2.3-1.9"/><path class="cls-7" d="M78.2,124a3.4,3.4,0,0,1,2.5-1.9l-1.4.7a2.8,2.8,0,0,0-.8,1.2Z"/><path class="cls-4" d="M87.2,129.5a3.9,3.9,0,0,1,2.7-2.2"/><path class="cls-7" d="M87,129.5a4.4,4.4,0,0,1,1.2-1.5,3.6,3.6,0,0,1,1.7-.7,4,4,0,0,0-2.6,2.3Z"/><path class="cls-4" d="M85.8,128.2s1.1-2,2.6-2"/><path class="cls-7" d="M85.6,128.1l1.2-1.3a2,2,0,0,1,1.6-.6,2.1,2.1,0,0,0-1.5.7,5.7,5.7,0,0,0-1,1.3Z"/><path class="cls-4" d="M108.1,101a3,3,0,0,1,2.7-.9"/><path class="cls-7" d="M108,100.9a3.5,3.5,0,0,1,1.3-.8h1.5a2.8,2.8,0,0,0-2.6,1Z"/><path class="cls-4" d="M108.8,102.7s.2-1.1,2.4-1.1"/><path class="cls-7" d="M108.7,102.7a1.6,1.6,0,0,1,.4-.7l.7-.3h1.4l-1.4.2-.6.4a1.1,1.1,0,0,0-.2.5Z"/><path class="cls-4" d="M115.8,105.3s1.6-1.5,2.3-1.2"/><path class="cls-7" d="M115.7,105.2l1.1-.8.7-.3h0l-.6.3-1,.9Z"/><path class="cls-4" d="M117.3,107.5s.1-1.5,2.3-1.9"/><path class="cls-7" d="M117.1,107.5a2.1,2.1,0,0,1,1-1.4,3.8,3.8,0,0,1,1.5-.5,3.5,3.5,0,0,0-1.4.6,2.6,2.6,0,0,0-.8,1.3Z"/><path class="cls-5" d="M66.4,101.9a2.2,2.2,0,0,0-.1.8c0,.2,0,.5.1.6h0a3.4,3.4,0,0,0,2.3,1.1,2.5,2.5,0,0,0,1.2-.2,6.7,6.7,0,0,0,1.2-.6h0a7.6,7.6,0,0,0,1.1-1.4,4,4,0,0,1-1,1.5h0l-.6.4-.6.3a3.1,3.1,0,0,1-1.3.3,3.4,3.4,0,0,1-2.4-1.3h0a.8.8,0,0,1-.1-.8A2.4,2.4,0,0,1,66.4,101.9Z"/><path class="cls-5" d="M66.3,102.2v.4c0,.1-.1.2-.2.3h0a1.2,1.2,0,0,1-1,.5,1.3,1.3,0,0,1-.8-.8h0a3.1,3.1,0,0,1-.2-.8,3.1,3.1,0,0,0,.2.8h0c.2.3.5.6.8.6a1.2,1.2,0,0,0,1-.3h0c.1-.1.1-.2.1-.4A.4.4,0,0,0,66.3,102.2Z"/><path class="cls-8" d="M64.8,96c.2-.9.9-.8.9-.8a4.2,4.2,0,0,1,1.1.7.6.6,0,0,1-1.2-.3S65.2,95.4,64.8,96Z"/><path class="cls-9" d="M65.8,95.4s-.2.5.2.7a.3.3,0,0,0,.5-.2C66.4,95.6,65.8,95.4,65.8,95.4Z"/><path class="cls-10" d="M66.3,95.8c0,.1-.2.2-.3.2s-.2-.2-.1-.3.1-.3.2-.2S66.3,95.6,66.3,95.8Z"/><path class="cls-8" d="M69.9,97.4c.2-1.5,1.3-1.3,1.4-1.3a5.3,5.3,0,0,1,1.8,1c-.3.7-1.8,1.1-1.9-.3S70.5,96.4,69.9,97.4Z"/><path class="cls-9" d="M71.4,96.3s-.3.9.4,1.2.9-.4.9-.4A2.8,2.8,0,0,0,71.4,96.3Z"/><path class="cls-10" d="M72.3,96.9a.4.4,0,0,1-.4.4c-.2-.1-.4-.3-.3-.5s.2-.4.4-.3S72.3,96.7,72.3,96.9Z"/><path class="cls-5" d="M65.8,95.4a1.8,1.8,0,0,1,1.5,1.4,3.4,3.4,0,0,1,.1,1l-.3,1.1h0l-.8,1a8.6,8.6,0,0,0-.7,1h.1a1.3,1.3,0,0,0,.9,1.2h.9l.8-.4-.8.5a1.4,1.4,0,0,1-.9.1,1.2,1.2,0,0,1-.9-.5,1.9,1.9,0,0,1-.4-.9h.1a14.3,14.3,0,0,1,1.4-2h0a2.9,2.9,0,0,0,.2-.9,3.4,3.4,0,0,0,.1-1A2.3,2.3,0,0,0,65.8,95.4Z"/><path class="cls-1" d="M67.7,89.1A11.7,11.7,0,0,1,73,85.8"/></g></svg>