<svg xmlns="http://www.w3.org/2000/svg" xmlns:xlink="http://www.w3.org/1999/xlink" viewBox="0 0 200 200"><defs><style>.cls-1{mask:url(#mask);filter:url(#luminosity-noclip-6);}.cls-2{mix-blend-mode:multiply;fill:url(#linear-gradient);}.cls-3{fill:#efa750;}.cls-4{fill:#f7c6ba;}.cls-5{fill:#dc8827;}.cls-6{fill:#d2d5d4;}.cls-7{mask:url(#mask-2);}.cls-8{fill:#fff;stroke-width:0.1px;}.cls-18,.cls-8{stroke:#4c2e19;stroke-miterlimit:10;}.cls-9{fill:#1e1c1b;}.cls-10{fill:#cf7826;}.cls-11{fill:#1e1513;}.cls-12{fill:#fff48a;}.cls-13{mask:url(#mask-3);}.cls-14{mask:url(#mask-4);}.cls-15{fill:#8e8d8d;}.cls-16{mask:url(#mask-5);}.cls-17{mask:url(#mask-6);}.cls-18{fill:none;stroke-width:0.5px;}.cls-19{mask:url(#mask-7);}.cls-20{fill:#f39e30;}.cls-21{fill:#4c2e1a;}.cls-22{mask:url(#mask-8);}.cls-23{fill:#4c2e19;}.cls-24{filter:url(#luminosity-noclip-8);}.cls-25{filter:url(#luminosity-noclip-7);}.cls-26{filter:url(#luminosity-noclip-5);}.cls-27{filter:url(#luminosity-noclip-4);}.cls-28{filter:url(#luminosity-noclip-3);}.cls-29{filter:url(#luminosity-noclip-2);}.cls-30{filter:url(#luminosity-noclip);}</style><filter id="luminosity-noclip" x="131.25" y="-7542" width="1.73" height="32766" filterUnits="userSpaceOnUse" color-interpolation-filters="sRGB"><feFlood flood-color="#fff" result="bg"/><feBlend in="SourceGraphic" in2="bg"/></filter><mask id="mask" x="131.25" y="-7542" width="1.73" height="32766" maskUnits="userSpaceOnUse"><g class="cls-30"/></mask><linearGradient id="linear-gradient" x1="828.68" y1="97.31" x2="828.01" y2="101.3" gradientTransform="matrix(-1, 0, 0, 1, 960.72, 0)" gradientUnits="userSpaceOnUse"><stop offset="0" stop-color="#fff"/><stop offset="1"/></linearGradient><filter id="luminosity-noclip-2" x="131.62" y="-7542" width="1.85" height="32766" filterUnits="userSpaceOnUse" color-interpolation-filters="sRGB"><feFlood flood-color="#fff" result="bg"/><feBlend in="SourceGraphic" in2="bg"/></filter><mask id="mask-2" x="131.62" y="-7542" width="1.85" height="32766" maskUnits="userSpaceOnUse"><g class="cls-29"/></mask><filter id="luminosity-noclip-3" x="123.44" y="-7542" width="5.07" height="32766" filterUnits="userSpaceOnUse" color-interpolation-filters="sRGB"><feFlood flood-color="#fff" result="bg"/><feBlend in="SourceGraphic" in2="bg"/></filter><mask id="mask-3" x="123.44" y="-7542" width="5.07" height="32766" maskUnits="userSpaceOnUse"><g class="cls-28"/></mask><filter id="luminosity-noclip-4" x="116.46" y="-7542" width="7.93" height="32766" filterUnits="userSpaceOnUse" color-interpolation-filters="sRGB"><feFlood flood-color="#fff" result="bg"/><feBlend in="SourceGraphic" in2="bg"/></filter><mask id="mask-4" x="116.46" y="-7542" width="7.93" height="32766" maskUnits="userSpaceOnUse"><g class="cls-27"/></mask><filter id="luminosity-noclip-5" x="101.87" y="-7542" width="5.45" height="32766" filterUnits="userSpaceOnUse" color-interpolation-filters="sRGB"><feFlood flood-color="#fff" result="bg"/><feBlend in="SourceGraphic" in2="bg"/></filter><mask id="mask-5" x="101.87" y="-7542" width="5.45" height="32766" maskUnits="userSpaceOnUse"><g class="cls-26"/></mask><filter id="luminosity-noclip-6" x="131.25" y="95.27" width="1.73" height="5.34" filterUnits="userSpaceOnUse" color-interpolation-filters="sRGB"><feFlood flood-color="#fff" result="bg"/><feBlend in="SourceGraphic" in2="bg"/></filter><mask id="mask-6" x="131.25" y="95.27" width="1.73" height="5.34" maskUnits="userSpaceOnUse"><g class="cls-1"><path class="cls-2" d="M131.3,95.3a7.7,7.7,0,0,1,1.7,4.3,1.2,1.2,0,0,1-1,1,1.5,1.5,0,0,0,.7-1.9A9.7,9.7,0,0,0,131.3,95.3Z"/></g></mask><filter id="luminosity-noclip-7" x="87.97" y="-7542" width="4.97" height="32766" filterUnits="userSpaceOnUse" color-interpolation-filters="sRGB"><feFlood flood-color="#fff" result="bg"/><feBlend in="SourceGraphic" in2="bg"/></filter><mask id="mask-7" x="87.97" y="-7542" width="4.97" height="32766" maskUnits="userSpaceOnUse"><g class="cls-25"/></mask><filter id="luminosity-noclip-8" x="76.29" y="-7542" width="10.6" height="32766" filterUnits="userSpaceOnUse" color-interpolation-filters="sRGB"><feFlood flood-color="#fff" result="bg"/><feBlend in="SourceGraphic" in2="bg"/></filter><mask id="mask-8" x="76.29" y="-7542" width="10.6" height="32766" maskUnits="userSpaceOnUse"><g class="cls-24"/></mask></defs><g id="Cat_01"><path class="cls-3" d="M84.8,80.3h0a29.2,29.2,0,0,1-6.1,5A9,9,0,0,1,73,86.6,9.8,9.8,0,0,1,67.4,84a.6.6,0,0,0-1,0,1.5,1.5,0,0,0,0,1.3A14.4,14.4,0,0,0,73,88a11.3,11.3,0,0,0,6.6-1.4A12.8,12.8,0,0,0,84.8,80.3Z"/><path class="cls-3" d="M131.3,89.9s1.2-4.2,0-6.5-2.2,2.4-5,4.4C125.6,88.3,131.3,89.9,131.3,89.9Z"/><path class="cls-4" d="M127,87.2c2.2-2.1,3-5.4,4.1-4.1-.7.7-1.7,2.4-1.1,5.7A8.8,8.8,0,0,0,127,87.2Z"/><path class="cls-3" d="M124.8,102.3s-4.7,15.3-3.8,17.4.6,5.2-2.5,3.6-2.5-22.2-2.2-26.9C119.2,94.3,124.8,102.3,124.8,102.3Z"/><path class="cls-5" d="M121.3,120.8c.6,2.2-.1,3.9-2.8,2.5a1.8,1.8,0,0,1-.6-.8A3.1,3.1,0,0,1,121.3,120.8Z"/><path class="cls-5" d="M116.1,107.8c1.5-1.5,5.4-2.6,7.3-2.4,0,0-2,3.7-3.7,5.1-1,4.6-.7,9.2,0,10.4a4.5,4.5,0,0,1-1.6,2C116.6,120.9,116.2,114.2,116.1,107.8Z"/><path class="cls-5" d="M106.5,90.8s1.2,11-9.8,12c-2.5.2-2.9,3.5-1.5,6.2s1.1,4.1-1.9,3.2S89.9,100.4,91,98.9s4.1-4.7,4-8.7-.4-4.7,6.6-4.5C105.4,93.1,106.5,90.8,106.5,90.8Z"/><path class="cls-5" d="M95.4,109.2c1.3,2.7.8,3.9-2.1,3a2.1,2.1,0,0,1-1-.6C93.2,109.7,94.4,109.2,95.4,109.2Z"/><path class="cls-3" d="M86.5,79.4a34.8,34.8,0,0,1,29.1,12.2l1.4-.7c3.4-1.2,7.4,1.3,8.8,5.5s-.1,8.7-3.4,9.8a5.8,5.8,0,0,1-2.2.3c-4.4,5.5-15.1,3.5-18.4.1-5.2-6.1-11.7-8.4-14.9-8.2a11.1,11.1,0,0,1-4-5.4C80.2,86.7,83.9,79.8,86.5,79.4Z"/><path class="cls-3" d="M90.4,95.1c6.5-.9,12.2,3.8,14,5.8,3.6,3.8,8.7,5.1,10.2,2.4,3.2-5.4,4.4-4.6,4.4-4.6a71.8,71.8,0,0,1,6.7,4.3,5.8,5.8,0,0,1-3.3,3.2,5.8,5.8,0,0,1-2.2.3c-4.4,5.5-15.1,3.5-18.4.1-5-5.9-11.2-8.2-14.5-8.2A7.3,7.3,0,0,1,90.4,95.1Z"/><path class="cls-3" d="M114.2,103.9s-5,18.5-4.2,20.7.6,5.2-2.4,3.6-2.6-22.3-2.3-27C108.2,99.2,114.2,103.9,114.2,103.9Z"/><path class="cls-3" d="M116.5,95.1a8.4,8.4,0,0,0,8.5,8.2c4.7,0,8.8-3.1,8.8-7.6a9.2,9.2,0,0,0-8.8-8.8A8.4,8.4,0,0,0,116.5,95.1Z"/><path class="cls-3" d="M128.9,89.7c1.8,2.2,5.1,5.6,4.4,10.5-.4,2.6-6.4,5.7-12.8,1.3C118.6,97,122.8,82,128.9,89.7Z"/><path class="cls-6" d="M131.6,95.7c0,.8.4,1.5.9,1.5s1-.7,1-1.5-.4-1.6-1-1.6S131.6,94.8,131.6,95.7Z"/><g class="cls-7"><path class="cls-5" d="M131.6,95.7c0,.8.4,1.5.9,1.5s1-.7,1-1.5-.4-1.6-1-1.6S131.6,94.8,131.6,95.7Z"/></g><path class="cls-8" d="M131.8,96c.2.7.6,1,.9.9s.7-.6.6-1.3-.6-1.1-1-1S131.6,95.4,131.8,96Z"/><path class="cls-5" d="M110,124.6c1,2.7.6,5.2-2.4,3.6a3.6,3.6,0,0,1-1-1.5A3.3,3.3,0,0,1,110,124.6Z"/><path class="cls-5" d="M124.2,99.9c1.3-1.8,5.6-.8,5.6-.8l2.1-.2c.6-.3,1.2-1.5,1.5-.6a12.1,12.1,0,0,1-.1,1.9c-.3,2-3.7,4.2-8.1,3.4C123.6,102.7,123.2,101.2,124.2,99.9Z"/><path class="cls-9" d="M132.9,99.8a3.3,3.3,0,0,1-1.3,1.9A2.4,2.4,0,0,1,130,100,19.4,19.4,0,0,1,132.9,99.8Z"/><path class="cls-3" d="M131.2,95.2a8.4,8.4,0,0,1,1.8,4.4c0,.7-.8,1-1.5,1.1s-1.9-.5-2.7-2.6S129,92.3,131.2,95.2Z"/><path class="cls-10" d="M125,86.9a8.8,8.8,0,0,1,3.3.7l1.7,1h.1c-.7-.3-5.7-2.6-7.8,1.8a5.1,5.1,0,0,1-1.8-2.3A8.5,8.5,0,0,1,125,86.9Z"/><path class="cls-11" d="M132.1,95.8c0,.4.2.7.5.7s.4-.3.4-.7-.2-.7-.4-.7S132.1,95.4,132.1,95.8Z"/><path class="cls-12" d="M132.3,95.6c0,.2.1.4.2.4s.2-.2.2-.4-.1-.3-.2-.3S132.3,95.4,132.3,95.6Z"/><path class="cls-6" d="M128.5,97.8s-.2-4-3.8-2.7S125.8,101.3,128.5,97.8Z"/><g class="cls-13"><path class="cls-5" d="M128.5,97.8s-.2-4-3.8-2.7S125.8,101.3,128.5,97.8Z"/></g><path class="cls-8" d="M124.2,96.7a1.6,1.6,0,0,0,1.3,1.8,1.5,1.5,0,0,0,2.1-.9,1.8,1.8,0,0,0-1.4-2A1.7,1.7,0,0,0,124.2,96.7Z"/><path class="cls-11" d="M125.8,97.2c0,.5.3.9.6.9s.6-.4.6-.9-.3-.9-.6-.9S125.8,96.7,125.8,97.2Z"/><path class="cls-12" d="M126,97c0,.2.1.4.3.4s.3-.2.3-.4-.1-.4-.3-.4S126,96.7,126,97Z"/><path class="cls-6" d="M124.4,103.2a8.3,8.3,0,0,1-7.9-8.1,8.7,8.7,0,0,1,.6-3.2A11.4,11.4,0,0,0,124.4,103.2Z"/><g class="cls-14"><path class="cls-5" d="M124.4,103.2a8.3,8.3,0,0,1-7.9-8.1,8.7,8.7,0,0,1,.6-3.2A11.4,11.4,0,0,0,124.4,103.2Z"/></g><path class="cls-15" d="M104.2,102c4.7-5.9,2.9,12.4,2.3,15.7a45.6,45.6,0,0,0,.2,9.2c-1.4-3.2-1.7-11.7-1.6-18.3a9.7,9.7,0,0,1-3.2-1.9A9,9,0,0,1,104.2,102Z"/><g class="cls-16"><path class="cls-3" d="M104.2,102c4.7-5.9,2.9,12.4,2.3,15.7a45.6,45.6,0,0,0,.2,9.2c-1.4-3.2-1.7-11.7-1.6-18.3a9.7,9.7,0,0,1-3.2-1.9A9,9,0,0,1,104.2,102Z"/></g><path class="cls-9" d="M127.6,103h1.9l.4-.2.4-.2a1.7,1.7,0,0,0,.6-.6,2.1,2.1,0,0,0,.5-.7l.3.2a2.1,2.1,0,0,1-.5.7h.1c0,.1.1.1.1.2h.1l-.3.2h-.3l-.4.3-.5.2-.5.2h-1.9l-.6-.2h0Z"/><g class="cls-17"><path class="cls-5" d="M131.3,95.3a7.7,7.7,0,0,1,1.7,4.3,1.2,1.2,0,0,1-1,1,1.5,1.5,0,0,0,.7-1.9A9.7,9.7,0,0,0,131.3,95.3Z"/></g><path class="cls-18" d="M133.4,97.9s2.1-8.1-7.6-11C128.2,87,135.3,90.3,133.4,97.9Z"/><path class="cls-15" d="M92.1,92.5s1.2,3.7-.7,6.7l-2.7-.7Z"/><g class="cls-19"><path class="cls-20" d="M92.1,92.5s1.2,3.7-.7,6.7l-2.7-.7Z"/><path class="cls-21" d="M91.6,99.8h-.4a13.6,13.6,0,0,0-2.5-.7H88l4.2-7.6.3,1.1a8.8,8.8,0,0,1-.7,7.1Zm-2.1-1.6,1.6.4a8.4,8.4,0,0,0,.8-4.7Z"/></g><path class="cls-3" d="M92.4,90.2s1.2,11.9-9.8,13.1c-2.6.2-2.9,3.7-1.5,6.6s1,4.5-1.9,3.5S75.7,100.6,76.8,99s4.2-5.1,4.1-9.4.2-10.1,7.2-10C91.9,87.6,92.4,90.2,92.4,90.2Z"/><path class="cls-3" d="M81.2,110c1.4,3,.9,4.4-2,3.4a2.1,2.1,0,0,1-1.3-1.3A3.1,3.1,0,0,1,81.2,110Z"/><path class="cls-6" d="M76.8,99c1.1-1.7,4.2-5.1,4.1-9.4s.2-8.9,5.2-9.8c-.8.9-1.9,2.7-1.3,5.9.8,4.8,4.5,10.5-.4,14.4-2.7,2.2-6,.5-7.1,4.6a14.8,14.8,0,0,0,0,6C76,106.9,76,100.2,76.8,99Z"/><g class="cls-22"><path class="cls-5" d="M76.8,99c1.1-1.7,4.2-5.1,4.1-9.4s.2-8.9,5.2-9.8c-.8.9-1.9,2.7-1.3,5.9.8,4.8,4.5,10.5-.4,14.4-2.7,2.2-6,.5-7.1,4.6a14.8,14.8,0,0,0,0,6C76,106.9,76,100.2,76.8,99Z"/></g><path class="cls-3" d="M124.9,90.8c-4-2.1-7.2-7.6-9-6.8s1,8.7,1,8.7C121.2,96.4,125.1,90.9,124.9,90.8Z"/><path class="cls-4" d="M122.3,92.6c-1.3-2-5-8.2-6.3-7.3s1.3,6.8,1.6,7.7a.8.8,0,0,1,.9-.5.8.8,0,0,0-.6-.4,2.2,2.2,0,0,1,.9.2,4.4,4.4,0,0,0-1.1-1.2,2.3,2.3,0,0,1,1.7.8,4.3,4.3,0,0,0-1.1-2.1,3.8,3.8,0,0,1,2,2,3.3,3.3,0,0,0-.3-1.3A17.3,17.3,0,0,1,122.3,92.6Z"/><path class="cls-23" d="M109.3,129.1h-1.4l-.6-.3a2.5,2.5,0,0,1-.7-.8,1.4,1.4,0,0,1-.2-.4l-.2-.3h0c-.1-.1-.1-.4-.2-.7s-.3-1.1-.5-1.7h0c0-.3-.1-.6-.1-.8v-.2a2.8,2.8,0,0,0-.1-.9v-.2c0-.3-.1-.6-.1-.9h0l-.3-3.7v-.2c0-.3-.1-.7-.1-1.1v-1.4c-.1-1.9-.1-4-.1-6.1a11.9,11.9,0,0,1-3-1.9h-.2a5.2,5.2,0,0,0-1-1.1l-.4-.5c-.2-.2-.3-.4-.5-.5l-.3-.3-.2-.2-.5-.4-.3-.3-.3-.2-.3-.3h-.8a2.1,2.1,0,0,0-1.6,1,5,5,0,0,0,.5,4.5,7.5,7.5,0,0,1,.8,2c0,.3.1.6,0,.8a1.4,1.4,0,0,1-.2.7,1.2,1.2,0,0,1-.5.5l-.7.2h-.9l-1.1-.2-.6-.3c-2.3-1.7-2.9-9-2.4-12.3a11.2,11.2,0,0,1-7.4,3.7,1.6,1.6,0,0,0-1.5.9c-.7,1.2-.5,3.2.4,5h0c.8,1.7,1,2.8.7,3.6h-.1l-.2.2h0l-.3.2H79.6l-.6-.2-.4-.2h-.2l-1-1.2a9.4,9.4,0,0,0-.6-1.5,27.4,27.4,0,0,1-1-7v-2.4h.1v-.7a4.3,4.3,0,0,1,.1-.5V100c0-.1.1-.3.1-.4s.1-.3.1-.4h.1c0-.2.1-.3.1-.4l.6-.8c1.3-1.8,3.5-4.8,3.4-8.3V86.7h0l-.6.5A12,12,0,0,1,73,88.4a12.9,12.9,0,0,1-6.8-2.7H66a2.1,2.1,0,0,1,0-1.9,1.1,1.1,0,0,1,1.7-.1,8.9,8.9,0,0,0,5.4,2.5,9.2,9.2,0,0,0,5.4-1.2,30.9,30.9,0,0,0,2.9-2,5.5,5.5,0,0,1,2.8-3l.8-.3h.1l1.4-.6A35.1,35.1,0,0,1,115.7,91h.1c-1.9-6.5-.5-7.1-.1-7.3s2.7.8,4.5,2.7l1,1,1.3-.5.6-.2-.9-.2h4.7a13.1,13.1,0,0,0,1.7-2.4l.6-.8h.1l.2-.3h.1l.2-.2h.7c0-.1.1-.1.2,0h.5l.2.2.3.4c1.1,1.9.5,5.1.2,6.4a8.6,8.6,0,0,1,2.3,5v1.1a7.6,7.6,0,0,1-.3,2.1V98h0a16.2,16.2,0,0,1-.1,2.2,1.4,1.4,0,0,1-.2.6h0a.8.8,0,0,0-.2.4h-.1l-.4.5-.5.5h-.1l-.5.3h-.2l-.6.4h-.1l-.6.3h-4.7l-.2.2-.2.4c-.1,0-.1.1-.2.2s-.1.2-.2.2l-.3.3-.2.2c-3.2,11.4-3,13.5-2.9,13.8a5.6,5.6,0,0,1,.4,1.2h0a1.7,1.7,0,0,1,.1.7.4.4,0,0,1,.1.3V123c-.1.1-.1.1-.1.2s-.1.1-.1.2h-.1v.2l-.3.3h-.1l-.2.2h-2a5.8,5.8,0,0,1-1.4-1.2l-.2-.3h0a6.8,6.8,0,0,0-.4-1.5l-.7-2.9c0-.3-.1-.6-.1-.9h0a2.8,2.8,0,0,1-.1-.9v-.2a2.8,2.8,0,0,1-.1-.9l-.3-5.1a10.9,10.9,0,0,1-2.6.4c-2.9,11.8-2.7,13.8-2.5,14.1a8.5,8.5,0,0,1,.5,2.5v.5c0,.2-.1.3-.1.4a.8.8,0,0,0-.1.4h-.1v.2h-.1l-.3.2h-.9Zm-.1-.9h.1l.4-.2h.1c.1-.1.1-.1.1-.2a.4.4,0,0,0,.1-.3V127a6.6,6.6,0,0,0-.4-2.3c-.2-.4-.7-1.7,2.6-14.9v-.4h.4a16.1,16.1,0,0,0,3.3-.6l.7-.2.3,6.3V117a2.8,2.8,0,0,0,.1.9l.7,2.8.4,1.6,1,.8h1.3a.1.1,0,0,0,.1-.1l.2-.4h.1v-.2h0V122h0v-.3a1.3,1.3,0,0,1-.1-.6h-.1l-.3-1c-.5-1.3.5-6.2,2.9-14.6v-.2l.3-.2h.2l.2-.2.2-.3a.3.3,0,0,0,.1-.2l.2-.2v-.2l.3-.3v-.3h4.8l.5-.2h.2l.5-.3h.1l.4-.2.2-.2.3-.3.4-.4h0l.2-.3h0a.4.4,0,0,0,.1-.3,15.5,15.5,0,0,0,.1-2.2h.1v-.2h0a5.7,5.7,0,0,0,.3-1.8c0-.3-.1-.6-.1-1a7.4,7.4,0,0,0-2.2-4.6l-.2-.2v-.3c.2-.6.9-4.1-.1-5.9,0-.1-.1-.2-.1-.3h-.4l-.2.2H130l-.5.8a16.5,16.5,0,0,1-2.1,2.7l-.2.2h-.3l-1.1-.2h-2.1l-.9.2-1.5.6H121l-.2-.2L119.5,87c-1.3-1.4-2.7-2.8-3.4-2.5s-.7,1.8.7,6.5l.2.4-.4.2-.7.4-.4.3-.3-.3A33.7,33.7,0,0,0,86.6,79.9a1.4,1.4,0,0,0-.9.5h-.4l-.7.3a4.7,4.7,0,0,0-2.4,2.6h-.1a17.5,17.5,0,0,1-3.2,2.1A9.4,9.4,0,0,1,73,87.1a10.5,10.5,0,0,1-5.9-2.8H67c-.1-.1-.1-.2-.2,0a.8.8,0,0,0,0,.7,13.1,13.1,0,0,0,6.3,2.5,10.9,10.9,0,0,0,6.3-1.3,7.5,7.5,0,0,0,1.4-1l1-.9L81.6,86a.9.9,0,0,0-.1.5v.3a4.3,4.3,0,0,0-.1.5v2.3c.1,3.8-2.2,6.9-3.6,8.8l-.6.9h0a.8.8,0,0,0-.1.4.6.6,0,0,0-.1.4h0a.9.9,0,0,0-.1.5c0,.2-.1.4-.1.6v2.4a25.1,25.1,0,0,0,1,6.8,8.9,8.9,0,0,0,.5,1.3h0a3.4,3.4,0,0,0,.8.9l.2.2h2.1c.1-.3.2-.9-.7-2.8h0a6.6,6.6,0,0,1-.4-5.9,3,3,0,0,1,2.3-1.4,9.6,9.6,0,0,0,7.3-4.2l.2-.3h.4l.5.2.5.2-.2.5c-.9,1.8-.4,10.7,1.8,12.3l.3.2.9.2h1.2v-.3a1.1,1.1,0,0,0-.1-.5,6,6,0,0,0-.7-1.8c-1-1.9-1.2-4-.4-5.4a2.5,2.5,0,0,1,2.3-1.4l.9-.2h.3l.2.2.5.4.2.2.3.2c.2.2.4.3.5.5l.3.2.3.3.5.5.5.5.9,1.1h.1a9.1,9.1,0,0,0,3.1,1.9h.3v.3c0,2.3,0,4.5.1,6.5h0v1.3a4.1,4.1,0,0,0,.1,1.1v.2a34.9,34.9,0,0,0,.2,3.5v.2a2.8,2.8,0,0,0,.1.9v.2c0,.3.1.5.1.8v.2c.1.3.1.5.2.8h0a7.5,7.5,0,0,0,.4,1.6,4.2,4.2,0,0,1,.2.6.4.4,0,0,1,.1.3l.2.3.5.4.4.3h.9Z"/><path class="cls-10" d="M91.6,79.6s-4.1,4.1-2,11.5c0,0,1.2-10.9,4.6-11.3Z"/><path class="cls-10" d="M98.9,80.9s-3.9.7-4.1,3.9c0,0,2.8-3.4,5.7-3.1Z"/><path class="cls-10" d="M103.4,82.4s-6.8,6.7-4.9,12.2c0,0,2.2-9.6,6.6-10.9Z"/><path class="cls-10" d="M107.9,85.4a7.9,7.9,0,0,0-3.7,7.9s.9-6.5,5.4-6.9Z"/><path class="cls-10" d="M112.7,89.1a7.7,7.7,0,0,0-4.5,8.9s1.4-7.2,5.3-8.1Z"/><path class="cls-10" d="M123,89.4s3.4.4,4.4,3c0,0-.6-1.9-4-3.7"/><path class="cls-10" d="M124.8,88s3.7,1.1,4.6,3.1c0,0-1-3.1-3.7-3.6"/><path class="cls-23" d="M97.6,103.1a63.9,63.9,0,0,0-6.4-3.6l.3-.6a50.6,50.6,0,0,1,6.5,3.6Z"/><path class="cls-23" d="M116.3,109.7l-.3-.9c1.6-.6,6.3-2.3,7.5-3.7l.7.6C122.6,107.6,116.5,109.6,116.3,109.7Z"/></g></svg>