<svg xmlns="http://www.w3.org/2000/svg" viewBox="0 0 200 200"><defs><style>.cls-1{isolation:isolate;}.cls-2{fill:#774d42;}.cls-3{fill:#4e342e;}.cls-4{fill:#6e4c41;}.cls-5{fill:#3e2723;}.cls-6{fill:#f2e9e7;}.cls-7{mix-blend-mode:multiply;}.cls-8{fill:#d7ccc8;}.cls-9{fill:#724d46;}.cls-10{fill:#865c51;}.cls-11{fill:#5b342c;}.cls-12{fill:#4c2822;}.cls-13{fill:#704038;}.cls-14{fill:#e57051;}.cls-15{fill:#141414;}.cls-16{fill:#fff;}.cls-17{fill:#422825;}</style></defs><g class="cls-1"><g id="Horse_03"><path class="cls-2" d="M79.2,61.4c1.5,1.5,2.6-.3,2.7-.5s.3-.7.5-1.6a8.5,8.5,0,0,0-.2-4.7,15.2,15.2,0,0,0-.9-2.5c-.1-.2-.2-.2-.4-.2s-.2.2-.2.3a3.6,3.6,0,0,1-.2,1.1,16.9,16.9,0,0,1-1.8,4.6C78.2,59.2,78,60.2,79.2,61.4Z"/><path class="cls-3" d="M127.4,137.8a2.8,2.8,0,0,1-1.2.8c-1.6.3-3.7-.3-4.2-1.3a.5.5,0,0,1,.1-.7,11.8,11.8,0,0,0,1.8-1.3Z"/><path class="cls-4" d="M121.1,99.1h5V93.7c3.7,1.4,8.1,5.2,8.1,9.8s-1.5,4.5-2.2,9.6,2,6.8,2,8.2-.3,1-3.3,6.9a2.5,2.5,0,0,1-.4.7l-.2.5c-1.6,3.3-.5,3.4-1,4.6s-1.2.7-1.5,1.7.4,1.4.1,1.9l-.3.2c-1,.5-3.8-1.4-3.5-2.5s.6-.6,1.1-1.4a43.3,43.3,0,0,0,2.2-5.6v-.2a36.9,36.9,0,0,0,1.6-6.8c0-1.7-3.2-3.3-5.2-8.8A48.2,48.2,0,0,1,121.1,99.1Z"/><path class="cls-5" d="M121.9,137.2c.6,1,2.7,1.7,4.3,1.4-.4-.2-3.3-1.4-2.2-3.3-.5.4-1.5,1-1.9,1.4A.4.4,0,0,0,121.9,137.2Z"/><path class="cls-6" d="M123.9,135.3c-.3,1.1,2.5,3,3.5,2.5l.3-.2c.3-.5-.3-1-.1-1.9s1-.6,1.5-1.7-.6-1.3,1-4.6a.5.5,0,0,0-.7-.4c-.3.1-.5.6-.9.7s-1-.9-1.3-1.4a43.3,43.3,0,0,1-2.2,5.6C124.5,134.7,124,134.9,123.9,135.3Z"/><g class="cls-7"><path class="cls-8" d="M128.7,102.7a4.9,4.9,0,0,0,.1-1.2,3.9,3.9,0,0,0-1.8-3.3l-.9-.6V93.7c3.7,1.4,8.1,5.2,8.1,9.8s-1.5,4.5-2.2,9.6,2,6.8,2,8.2-.3,1-3.3,6.9a2.5,2.5,0,0,1-.4.7l-.2.5c-1.6,3.3-.5,3.4-1,4.6s-1.2.7-1.5,1.7.4,1.4.1,1.9l-.3.2c-1,.5-3.8-1.4-3.5-2.5s.6-.6,1.1-1.4a43.3,43.3,0,0,0,2.2-5.6v-.2a36.9,36.9,0,0,0,1.6-6.8c0-1.7-3.2-3.3-5.2-8.8.9-1.4,1.9-2.6,2.8-3.9A12.8,12.8,0,0,0,128.7,102.7Z"/></g><path class="cls-3" d="M88.1,123.2c.5,1.1,2.7,1.8,4.3,1.5l1.2-.8-3.4-2.7c-.5.5-1.5,1.1-1.9,1.5A.4.4,0,0,0,88.1,123.2Z"/><path class="cls-9" d="M90,121.5c0,2,3.6,2.4,3.6,2.4v-1.3c0-.9,1.1-1.2,1.4-2.2s-1-1-1-5c0-.3.1-.9.1-1.6.3-6.1,1.9-25.3,1.9-25.3l-8-.7c0,8.7,1.3,12.3,2.2,17.4a83.7,83.7,0,0,1,.9,8.9c.1,2.5.1,4.3.2,4.8C91.4,121.1,90,121,90,121.5Z"/><path class="cls-10" d="M72.5,58.3a4.9,4.9,0,0,0-1.3.8,4.9,4.9,0,0,0-1,2.3,8.8,8.8,0,0,0-.6,3.3,12,12,0,0,0,1.1,5,8.8,8.8,0,0,1,4.5,3.6c1.9,2.9,1.1,6.4,1.4,9.5a9.8,9.8,0,0,1-.4,2.7h0a2.4,2.4,0,0,1-.2.8,2.9,2.9,0,0,1-.2.9,18.4,18.4,0,0,0-.5,2.5,20.6,20.6,0,0,0-.4,4.4h0c0,.3.1.5.1.8v.4a1.9,1.9,0,0,1,.1.8c.1.1.1.2.1.4s.1.4.2.6v.2a4.9,4.9,0,0,0,.4,1.1,12.1,12.1,0,0,0,.5,1.4l.2.3h0a13.4,13.4,0,0,0,1.7,2.7,31.4,31.4,0,0,0,5.2,3.7h0c.1,0,.1,0,.1.1s3.8,2.4,6.9,4l1.1.5h.1l2.8,1.2h0l1,.3,2.5.8a30.1,30.1,0,0,0,12.1.6h.1l3.2-1,.4-.2c.1,0,.3-.1.4,0,2.1,0,4.4,4.3,6.4,3.9l2.7-.6h.3l1.6-.5h.4l1.4-.5h0l1.2-.4h.1l.6-.3a16.9,16.9,0,0,0,2.7-1.3l.7-.5a5.4,5.4,0,0,0,2.6-3.5h0v-.3a10.9,10.9,0,0,0-.1-1.8,5.3,5.3,0,0,0-.1-1.3,7.7,7.7,0,0,0-.2-1.5l-.3-1.4-.3-1.4a23.8,23.8,0,0,0-3-6.2,18.4,18.4,0,0,0-4.4-4.4l-1-.6a19.3,19.3,0,0,0-8.1-2.5c-5.8-.6-11.1.9-17.2-2.6l-2-1.3A18.8,18.8,0,0,1,95,80.6l-.3-.4L93.2,78c-2.8-4.7-5.1-10.9-7.2-15.8a3,3,0,0,0-1.1-.6l-1.1-1.2.7.3,1.1.6c-.1-.2-.1-.4-.2-.6l-1.3-.8-1.8-.7-.4-.3a10,10,0,0,0-4.1-1.4,15,15,0,0,0-3.5.4A5.4,5.4,0,0,0,72.5,58.3Z"/><path class="cls-5" d="M88.1,123.2c.5,1.1,2.7,1.8,4.3,1.5-.4-.2-3.3-1.5-2.2-3.5-.5.5-1.5,1.1-1.9,1.5A.4.4,0,0,0,88.1,123.2Z"/><path class="cls-3" d="M76.3,129.4c.5,1,2.7,1.7,4.3,1.4a2.8,2.8,0,0,0,1.2-.8l-3.4-2.6-1.9,1.4C76.3,129,76.2,129.2,76.3,129.4Z"/><path class="cls-10" d="M79.2,119.5c.2,2.9.2,5.1.3,5.6.1,2.2-1.3,2.1-1.3,2.6,0,2,3.6,2.3,3.6,2.3v-1.2c0-1,1.2-1.2,1.4-2.2s-1-1-1-4.9c0-.4.1-.9.1-1.6.2-3.3.7-10,1.1-15.6.2-1.6.3-3,.4-4.3.2-2.9.4-4.8.4-4.8L79,94.9l-2.8-.3c0,1.6.1,3,.1,4.3.3,5.6,1.4,8.7,2.1,12.8S79.1,117.2,79.2,119.5Z"/><path class="cls-5" d="M76.3,129.4c.5,1,2.7,1.7,4.3,1.4-.4-.1-3.3-1.5-2.2-3.4l-1.9,1.4C76.3,129,76.2,129.2,76.3,129.4Z"/><path class="cls-10" d="M65.4,77.1a2.1,2.1,0,0,0,1.3,1,1.8,1.8,0,0,0,2.2-.6c1.2-1.4,1.5-.9,4.2-2a3.9,3.9,0,0,0,2.1-2.3,7.6,7.6,0,0,0,.6-2.2L75,67.7l-1.8-8.4a22,22,0,0,0-1.9,2.1c-1.7,2-2.7,3.2-3.3,5s-1.3,4.1-1.9,5l-.5.5a7.6,7.6,0,0,1-.9.7C64.1,73.3,63.8,75.2,65.4,77.1Z"/><path class="cls-11" d="M65.4,72.7a.1.1,0,0,1,.2,0h0c-.1,1.4-.4,2.4-1,1.7S64.9,73.4,65.4,72.7Z"/><path class="cls-3" d="M116.1,147.3a2.1,2.1,0,0,1-1.2.7c-1.5.3-3.6-.3-4.2-1.3a.4.4,0,0,1,.2-.6l1.8-1.4Z"/><path class="cls-10" d="M110,111.4c.7,10.1,7.6,17.5,7.6,19.2a41.8,41.8,0,0,1-1.7,7.2,27.6,27.6,0,0,1-2.2,5.5c-.5.8-.9,1.1-1,1.4s.4,1.3,1.1,1.8,1.8,1,2.3.8,0-1.1.2-2.2,1.1-.6,1.5-1.6-.5-1.4.9-4.5l.4-.7c3.4-6.7,3.7-6.3,3.7-7.7s-1.9-3.6-2.2-6.4v-.3a7.6,7.6,0,0,1,.1-1.5c.8-3.5,1.9-4,3.4-6.2l2.8-3.9a12.2,12.2,0,0,0,2.3-6,4.1,4.1,0,0,0,.1-1.2,4.2,4.2,0,0,0-1.8-3.4l-1.2-.7a15.6,15.6,0,0,0-4.6-1,24.4,24.4,0,0,0-7.3.8l-.6.2c-2,.7-3.5,1.7-3.7,2.9A36.7,36.7,0,0,0,110,111.4Z"/><path class="cls-5" d="M110.7,146.6c.5,1.1,2.6,1.7,4.2,1.4-.3-.1-3.3-1.4-2.2-3.3l-1.9,1.4A.4.4,0,0,0,110.7,146.6Z"/><path class="cls-6" d="M112.7,144.7c-.4,1.1,2.4,3,3.4,2.6s0-1.1.2-2.1,1-.7,1.5-1.7-.5-1.4.9-4.5c-.5.2-1.6.5-1.9.1s-.3-1.1-.9-1.3a38.2,38.2,0,0,1-2.1,5.5A11.5,11.5,0,0,0,112.7,144.7Z"/><path class="cls-8" d="M90,121.5c0,2,3.6,2.4,3.6,2.4v-1.3c0-.9,1.1-1.2,1.4-2.2s-1-1-1-5c0-.3.1-.9.1-1.6a3.3,3.3,0,0,1-1.5,1c-.9.1-1.1-.5-1.5-.7.1,2.5.1,4.3.2,4.8C91.4,121.1,90,121,90,121.5Z"/><g class="cls-7"><path class="cls-8" d="M90,121.5c0,2,3.6,2.4,3.6,2.4v-1.3c0-.9,1.1-1.2,1.4-2.2s-1-1-1-5c0-.3.1-.9.1-1.6a3.3,3.3,0,0,1-1.5,1c-.9.1-1.1-.5-1.5-.7.1,2.5.1,4.3.2,4.8C91.4,121.1,90,121,90,121.5Z"/></g><path class="cls-6" d="M78.2,127.7c0,2,3.6,2.3,3.6,2.3v-1.2c0-1,1.2-1.2,1.4-2.2s-1-1-1-4.9c0-.4.1-.9.1-1.6a2.4,2.4,0,0,1-1.5.2c-.8-.1-1-.6-1.6-.8.2,2.9.2,5.1.3,5.6C79.6,127.3,78.2,127.2,78.2,127.7Z"/><path class="cls-9" d="M83.5,102.3v4.4c3.4,1.9,13.6,9.5,26.5,7.4l-1,.3,1-.3c.2-1.1-.1-5.7.2-8s-.3-2-3.5,1.2S93.4,112.4,83.5,102.3Z"/><path class="cls-11" d="M127.3,118.8c0,.1.3.1.2,0a22.8,22.8,0,0,1,.2-2.6,12.6,12.6,0,0,0,.4,2.7,16.7,16.7,0,0,0,.8,3,3.1,3.1,0,0,1,.5,1h.2a25.2,25.2,0,0,1-.5-3.7,10.4,10.4,0,0,0,.4,1,23.3,23.3,0,0,0,.8,4.6h.2a22.8,22.8,0,0,0,.2-2.6v-.3a35.7,35.7,0,0,0-.1,4.6,7.6,7.6,0,0,0,1.1-3.2c-.2,1.6-.2,3.2-.3,4.7h.2l.3-2.5v.8c.1,1.1.1,1.8.1,1.8a12.6,12.6,0,0,0,1.4-3.4c.1.8.1,1.5.2,2.3h.2v-3.8a18.6,18.6,0,0,0,.5-2.7c.1,1.4.2,2.8.4,4.2h.3c.1-2.6,0-7.5,0-8a39.7,39.7,0,0,1,.7,4.8,57.1,57.1,0,0,0-.9-8.2c-.4-2.8.3-5.6.2-8.3a16.6,16.6,0,0,0-1.6-6.9c-.9-1.8-3.9-4.4-5.1-3.7s.4,3.4.6,4.5a14.9,14.9,0,0,1,0,6.3c-.3,2.3-1,4.6-1.4,7a4.2,4.2,0,0,0,.7-1.3v.2a2.4,2.4,0,0,0-.2.8A12.7,12.7,0,0,0,127.3,118.8Z"/><path class="cls-12" d="M128.1,111.9a2.4,2.4,0,0,1,.2-.8v-.2a7.5,7.5,0,0,1-.6,1.3c.3-2.4,1-4.7,1.3-7a14.9,14.9,0,0,0,0-6.3c-.2-1.1-2-3.5-.7-4.5s-.2.8-.1,1.2a21.7,21.7,0,0,1,2.8,6.2c.3.8,1.5,4.7,1.9,5.9s-.2.2-.3.1-.7-1.3-1-2c-.1,2.4-.5,4.8.6,7.1a8.6,8.6,0,0,1-1.7-3.8v.2a49.2,49.2,0,0,0,1.4,5.5,20.1,20.1,0,0,1,1.3,4.8.1.1,0,0,1-.3,0,26.6,26.6,0,0,0-1.6-4.1c.1.6.3,1.1.4,1.7s1,3.3.6,5-.2,2.8-.3,4.1v-.8l-.3,2.5h-.2c.1-1.5.1-3.1.3-4.7a11.7,11.7,0,0,1-.9,3.2,17.6,17.6,0,0,1-.1-4.6v.3a22.8,22.8,0,0,1-.2,2.6h-.2a23.3,23.3,0,0,1-.8-4.6,10.4,10.4,0,0,1-.4-1,25.2,25.2,0,0,0,.5,3.7h-.2a3.6,3.6,0,0,0-.4-.9,13.4,13.4,0,0,1-.9-3.1,12.6,12.6,0,0,1-.4-2.7,22.8,22.8,0,0,0-.2,2.6c.1.1-.2.1-.2,0A12.7,12.7,0,0,1,128.1,111.9Z"/><path class="cls-4" d="M76.5,100.2h.2l.5-2.8c-1.3-3.7-1-11.4-1-12C75.4,89.1,73.6,94.3,76.5,100.2Z"/><path class="cls-13" d="M73.8,66a.4.4,0,0,0,.1-.3l-.2-.2c-.9-.4-2.5-1.4-3.5,1.5C70.2,67,72.2,69.5,73.8,66Z"/><path class="cls-14" d="M71.1,67.1s1.2.4,1.6-.1.1-.8.6-1h-.6c-.4-.1-.9-.3-1.3,0S71,66.7,71.1,67.1Z"/><path class="cls-15" d="M71.1,67c.6.2,1.2.2,1.5-.2a1.4,1.4,0,0,0,.1-.9c-.4-.1-.9-.3-1.3,0A.9.9,0,0,0,71.1,67Z"/><path class="cls-16" d="M71.4,66.7c.1.1.2,0,.3-.1a.2.2,0,0,0,0-.3c-.1-.1-.3,0-.4.1A.4.4,0,0,0,71.4,66.7Z"/><path class="cls-11" d="M74.3,57.9a15,15,0,0,1,3.5-.4,10,10,0,0,1,4.1,1.4l.4.3,1.8.7,1.3.8a1.5,1.5,0,0,0,1.3.3s.1.1,0,.1a1.2,1.2,0,0,1-1.1.2l-1.1-.6-.7-.3,1.1,1.2a3,3,0,0,1,1.1.6A6.7,6.7,0,0,1,88.5,65c0,.1-.1.2-.2.1a7.7,7.7,0,0,0-1.7-1.9,34.4,34.4,0,0,1,3.3,5h-.1a15.2,15.2,0,0,1-2.2-2.7A24.4,24.4,0,0,1,89,68.3a5,5,0,0,1,1.4,1.5,5.5,5.5,0,0,0,1.4.9c.1.1,0,.2-.1.2l-.9-.5a4.9,4.9,0,0,1,.5,3.1,8.6,8.6,0,0,1,1.4,1.3,9.1,9.1,0,0,1,2,3.9h-.1A17.4,17.4,0,0,0,93.2,76a5.7,5.7,0,0,0-1.6-1.5A15.8,15.8,0,0,1,93.2,78a10.1,10.1,0,0,1,.7,4.1.7.7,0,0,1-.1.5l.2.4a11,11,0,0,0,1.9,2.5h0a2.5,2.5,0,0,1-1.2-.8,7.7,7.7,0,0,0,.7,1.6v.4h.1l-.7-.4a10.9,10.9,0,0,1-2.7-1.9A7,7,0,0,0,94,86.6a8.5,8.5,0,0,1-2.3-1.8,20.6,20.6,0,0,0-.3,2.6,5,5,0,0,0,.2,1.8c0,.2-.2.2-.2.1a8,8,0,0,1-.4-1.8,9.7,9.7,0,0,1-.1-1.8,6.9,6.9,0,0,0-.3,2,9.2,9.2,0,0,0,.3,2.9A15.8,15.8,0,0,1,89.6,88a9.4,9.4,0,0,1-.8-3.1.6.6,0,0,1-.1.4c0,1,.1,2,.2,3s.1.6.2.9-.2.2-.2.1l-.4-.9c-.1-.5-.3-1-.4-1.5a16.2,16.2,0,0,1-1,1.8,7.5,7.5,0,0,0,.8-2.4h0A8.6,8.6,0,0,1,85.6,89a18.8,18.8,0,0,0,.6-4.6,2.9,2.9,0,0,0-.2.9h0a7.7,7.7,0,0,1-2.2,5.2c0,.1-.2,0-.1-.1l.8-1.6-.8.9c-.1.1-.2,0-.2-.1,1.3-1.7,1.1-3.9,1-6.1a22,22,0,0,0-.6,3.7.2.2,0,0,1-.3,0,15.8,15.8,0,0,1,.5-5.7,15.3,15.3,0,0,1-2.9,2.4A14.8,14.8,0,0,0,83.5,77a28.8,28.8,0,0,1-1.9,4.5h-.2a16.7,16.7,0,0,0,1.8-7.7,23.6,23.6,0,0,1-2,5.1.1.1,0,0,1-.2,0,17.6,17.6,0,0,0,1.5-4.4,4.4,4.4,0,0,1-.8,1.1c-.8,1-2.2,1.7-2.8,2.9s-.2,0-.2-.1,2.3-2.6,3-4.2a4.9,4.9,0,0,0,.4-1.1,6.6,6.6,0,0,1-2.7,2.5,22.4,22.4,0,0,0,.2-8.1,22,22,0,0,1-.8,6.7h-.2a31.2,31.2,0,0,0-.5-9.7,16.8,16.8,0,0,1-.1,6.7.1.1,0,0,1-.3,0,28.1,28.1,0,0,0-.6-5.9,27.7,27.7,0,0,1-.3,3c0,.1-.2,0-.2-.1s0-2.3-.1-3.4a8.8,8.8,0,0,1-.2,1.6c0,.2-.3.1-.2-.1a12.6,12.6,0,0,0-.2-3.9l-.5-.9-.4-.8a9.3,9.3,0,0,0-1.3-1.8c-.2-.2-.4-.4-.6-.4ZM89.8,70l.9,2.4a1.9,1.9,0,0,1,.2.7A5.5,5.5,0,0,0,89.8,70Zm3.7,11.5a14.4,14.4,0,0,0-1.4-4.9.5.5,0,0,0-.2-.4C92.4,77.8,92.8,79.6,93.5,81.5Z"/><path class="cls-11" d="M65.8,66.2a18.9,18.9,0,0,0,.9-2.1,9.4,9.4,0,0,0,0,2.9,10.5,10.5,0,0,0,.7,2.3,5.1,5.1,0,0,1,.2-2.3,12.1,12.1,0,0,0,0,1.9c.1.2.2.1.2,0a11.9,11.9,0,0,1,.5-2.6v1a8.4,8.4,0,0,1,1.5-2.5l-.3,1.1.9-1.3v2s.9-3.5,2.3-4.9a1.4,1.4,0,0,0,.4-1,3.3,3.3,0,0,0-1-1.4,1.5,1.5,0,0,0,.9-.6c.1-.2.1-.5-.2-.5a10.3,10.3,0,0,0-3.9,1.7,8.2,8.2,0,0,0-2.5,3A9.3,9.3,0,0,1,68,61.1l-.3.6-.9,1.1C66.2,63.7,65.5,65.1,65.8,66.2Z"/><path class="cls-2" d="M71,59.7a5.3,5.3,0,0,0,.6,2.3,3.4,3.4,0,0,0,.6,1.2l.3.4a1.1,1.1,0,0,0,.9.5h0A.7.7,0,0,0,74,64a2.1,2.1,0,0,0,1.4-1.7,3.2,3.2,0,0,0-.6-2.7,1.8,1.8,0,0,0-.5-.7c-.8-1-1.6-1.3-1.8-3.1l-.3-.3h-.4A7.5,7.5,0,0,0,71,59.7Z"/><path class="cls-17" d="M64.7,72.7a13.1,13.1,0,0,0,1.2-1.1,6.9,6.9,0,0,0,1-1.9,3.8,3.8,0,0,0,.3-1c0-.2-.1-.4-.1-.6a1.4,1.4,0,0,1-.2-.6,7.4,7.4,0,0,1-.2-3.3.1.1,0,0,0-.1-.1,13.4,13.4,0,0,1-.7,1.8c0,.2,0,.2-.1,0v-.4a4.3,4.3,0,0,1,.2-1.1,11.8,11.8,0,0,1,2.1-3.2c0-.1,0-.2-.1-.1l-1.7,1.7h.1a8.8,8.8,0,0,1,1.9-2.4A8.3,8.3,0,0,1,71,58.8h0a4.7,4.7,0,0,1,.3-1.7,2.9,2.9,0,0,1,.5-1.3h.3c.2-.1.3,0,.3.1a.6.6,0,0,1,.1.4,6.4,6.4,0,0,0,.2.7l.5.8c.3.3.3.2.7.2l1.4-.2a8.2,8.2,0,0,1,3.5-.1h.1l1.2-2.6c.2-.5.3-1,.5-1.6s.1-.5.1-.8v-.3l.6-.3.2.5a11.6,11.6,0,0,1,.9,6.6h0l2,.8c.5.3.9.8,1.5.9h.6c.1.1-.6.2-.5.2l-.6-.2a7.7,7.7,0,0,0-1.6-.7c0-.1-.1,0,0,.1l.8.8.9.6a9,9,0,0,1,1.9,1.5,3.6,3.6,0,0,1,.7,1,.5.5,0,0,1,.2.4c.1.3-.1,0-.2-.1a6.7,6.7,0,0,0-1.4-1.5c-.1-.1-.2,0-.1.1a20.4,20.4,0,0,1,2.6,3.9,2.5,2.5,0,0,1,.4.7l.2.3c0-.1-.4-.4-.4-.4s-1.2-1.6-1.8-2.4h-.1c.4.6.7,1.3,1.1,2a3,3,0,0,0,.4.8c.1.2.4.4.6.6a14.2,14.2,0,0,0,1.2,1.3l.8.5-.8-.3c-.1-.1-.1,0-.1,0a4.6,4.6,0,0,1,.6,2.3v.8l.4.4A7.9,7.9,0,0,1,94,77l.4.9c0,.1.1.2.1.4v.3a1.1,1.1,0,0,1-.2-.5c-.1-.1-.1-.3-.2-.4l-.3-.7a6.7,6.7,0,0,0-2.2-2.5h-.1l.9,1.7a13.4,13.4,0,0,0,.7,1.8,7.8,7.8,0,0,0,1,1.5L95.3,81a16.7,16.7,0,0,0,5.4,4.5,17.3,17.3,0,0,0,6.6,1.9,49.5,49.5,0,0,0,6.7.2,32.1,32.1,0,0,1,6.8.7,18,18,0,0,1,6.6,3.4,11.8,11.8,0,0,1,2.5,2.5l.6.8a1,1,0,0,1,.5.4,7.5,7.5,0,0,1,1.4,1.2c1.7,1.9,2.3,4.6,2.5,7.1s-.3,5.8-.1,8.7.4,2.9.6,4.4.3,3.1.4,4.7h.1c-.2-1.6-.4-3.2-.7-4.8s-.1-.1-.1,0,0,3.1,0,4.6,0,2.1-.1,3.1.1.4-.2.1V124a4.1,4.1,0,0,1-.1-1.1c-.1-.8-.1-1.6-.2-2.4h-.1a15.5,15.5,0,0,1-.4,2.1c-.1.6-.1,1.3-.2,1.9a17.6,17.6,0,0,1,0,2.3c-.1,0-.1-.7-.1-.9s-.1-.8-.1-1.2-.1-.1-.1,0a11.1,11.1,0,0,1-1.4,3.4h.1a19.3,19.3,0,0,1-.1-2.4H132l-.2.6a3.8,3.8,0,0,1-.1,1v.4c-.1.2-.1.1-.1-.1v-1.1h-.1c-.6,1.1-1.2,2.2-1.7,3.3a7.8,7.8,0,0,0-.7,2.5c0,.7.2,1.3-.2,1.9s-.7.5-1,.9a1.7,1.7,0,0,0-.4,1.2c.1.5.6,1.3-.2,1.5h0c0-.1-.5.3-.5.4l-.6.2h-1.9l-1.5-.5c-.4-.3-1.1-.8-.7-1.3l1.2-.9.7-.5.5-.7a5.9,5.9,0,0,0,1.2-2,49.7,49.7,0,0,0,2.2-6.5c.2-1,.5-2,.7-3.1l.3-1.2a3.3,3.3,0,0,0-.4-1.3,1.4,1.4,0,0,0-.2-.6l-.4-.6-.6-.7a30.6,30.6,0,0,1-2.1-2.9.1.1,0,0,0-.1-.1c-.2.1-.6.1-.8.3a3.1,3.1,0,0,0-.7.9,13.4,13.4,0,0,0-1.1,1.4,8.9,8.9,0,0,0-1.7,3.7,7.2,7.2,0,0,0-.2,2.5,9.4,9.4,0,0,0,.6,2.4l.9,2a3.5,3.5,0,0,1,.6,1.7,4.6,4.6,0,0,1-.8,2.5,30.7,30.7,0,0,0-1.7,3.1c-.8,1.5-1.9,3.1-2.2,4.8a6.1,6.1,0,0,0-.1,1.9,1.6,1.6,0,0,1-.6,1.2c-.2.2-.5.3-.7.6s-.3,1.2-.2,1.9a.4.4,0,0,1,0,.5l-.3.2c-.4.3-.7.7-1.2.8s-.1,0,0,.1-.8,0-1.2-.1h-1a4.6,4.6,0,0,1-1.7-.9.6.6,0,0,1,0-1l.6-.4,1-.8c.1,0,.1,0,.1-.1s.8-.9,1.1-1.5a4.5,4.5,0,0,0,.6-1.2,10.7,10.7,0,0,0,.7-1.9c.1-.2.9-2.2.7-2.3h.1a48.5,48.5,0,0,0,1.6-6.3,2.5,2.5,0,0,0,.1-1.2,9.3,9.3,0,0,0-.5-1l-1.9-3.3a45.9,45.9,0,0,1-2.6-4.9,30.7,30.7,0,0,1-2.2-7.1H110l-1,.2h0l1.1-.3H110a31.3,31.3,0,0,1-8.1.2l-4-.8-1.8-.5-1.6-.5h-.4a29,29,0,0,0,0,5.1,8.3,8.3,0,0,0,.4,1.5l.4.8a1.5,1.5,0,0,1-.2,1.1c-.2.5-.8.8-1.1,1.4s0,1.1-.1,1.6,0,.1.1,0h-.2a1.5,1.5,0,0,1-1.2.7,3.7,3.7,0,0,1-2.5-.3,2.4,2.4,0,0,1-1.1-.6l-.3-.3c-.2-.4.1-.7.4-.9l1.5-1.2c.3-.3.6-.4.8-.7s.3-2.1.3-3.1-.1-3.7-.3-5.6c0-.2.1-.9-.1-1.1h-.3l-.5-.3-.8-.4-2.8-1.5-3.2-2h-.1c-.2,3.1-.5,6.2-.7,9.4-.1,1.2-.1,2.4-.2,3.6a15.3,15.3,0,0,0,0,3.7,5.4,5.4,0,0,0,.5,2.2,1.8,1.8,0,0,1,.2,1.4c-.2.5-.7.8-1,1.3a1.9,1.9,0,0,0-.3,1.3v.5a.7.7,0,0,1-.4.5,3.3,3.3,0,0,1-1.9.4,6.5,6.5,0,0,1-2-.5l-.7-.5-.3-.3a1.2,1.2,0,0,1,.4-.8,15.6,15.6,0,0,0,2-1.6,2.1,2.1,0,0,0,.7-2.1,27.2,27.2,0,0,0-.1-2.8,69.9,69.9,0,0,0-.8-9.1c-.4-2.7-1-5.3-1.5-7.9s-.5-3-.6-4.5a2.8,2.8,0,0,0-.1-.9l-.5-1.1a8.4,8.4,0,0,1-.5-1.7,20.9,20.9,0,0,1,.3-9.3l.6-2.2h0a9.6,9.6,0,0,0,.3-2.9c-.1-1.1,0-2.2,0-3.3a11,11,0,0,0-1.4-6.1h-.1a4.3,4.3,0,0,1-1.5,2,8.5,8.5,0,0,1-2.2.9,4,4,0,0,0-2.1.9c-.6.5-1,1.2-1.9,1.2a3.1,3.1,0,0,1-2.3-1.5c-.7-1.1-1.3-2.9-.4-4s0-.1,0-.1-.3,3.4.6,4.6a2.7,2.7,0,0,0,2.3,1.1c.9-.1,1.3-.9,1.9-1.4a5.1,5.1,0,0,1,1.7-.7,6.4,6.4,0,0,0,2.7-1.1,2.2,2.2,0,0,0,.9-1,4.3,4.3,0,0,0,.4-.7c0-.1-.1-.2,0,0l.3.6a9.6,9.6,0,0,1,.9,3.7c.1,1.3,0,2.6.1,3.9a12.1,12.1,0,0,1,0,1.9,13.8,13.8,0,0,1-.3,2h0a48.1,48.1,0,0,0-1.3,6.6,17.1,17.1,0,0,0,.7,6,6.1,6.1,0,0,0,.5,1.2l.3.8v1.1c.2,1,.3,2,.5,3.1s.7,3.7,1.1,5.6a99.8,99.8,0,0,1,1.4,13.4V125a2.1,2.1,0,0,1-.6,2l-1.5,1.2c-.4.2-1.3.7-1,1.3s2.8,1.6,4.1,1.4,1.3-.4,1.4-.9,0-.5,0-.6a2,2,0,0,1,.4-1.5c.7-.6,1.3-1.3.9-2.2a8.8,8.8,0,0,1-.8-3.9c0-1.8.2-3.5.3-5.2s.3-4.5.5-6.7c0-.6.1-1.2.1-1.8s0-1.4.2-1.4l.3.2.9.5c1.7,1,3.3,2.1,5.1,3a2,2,0,0,1,.8.4c.4.2.4.4.4.8s.1,1.2.1,1.8.1,2.2.2,3.3v2a3.1,3.1,0,0,1-.5,2.1l-1.1.8-1.2.9c-.2.2-.4.3-.4.6s1,1.1,1.4,1.3a6.7,6.7,0,0,0,2.4.4l1-.2.5-.3.3-.4h0v-.7a3.4,3.4,0,0,1,.1-1l.5-.6A2.1,2.1,0,0,0,95,120a2.5,2.5,0,0,0-.4-1.1,9.2,9.2,0,0,1-.5-2.5v-1.9c0-.3.1-.7.1-1.1v-.8s.2-.3.2-.2h0a32.3,32.3,0,0,0,15.7,1.7H110l-1,.3c-.1,0,0,.1,0,.1l1.1-.3h.1l.2.2v.3c.1.3.1.6.2.9s.3,1.1.4,1.6.7,2,1.1,3,1.5,3.3,2.4,5l2.2,3.6a4,4,0,0,1,.8,2.3c-.1,1-.4,2-.6,3a10.5,10.5,0,0,0-.5,1.9l-.3,1a.4.4,0,0,0-.1.3.8.8,0,0,0-.1.4c-.1.1-.1.2,0,.1s-.1,0-.1.1-.9,2.7-1.4,4.1a8.3,8.3,0,0,1-.7,1.3c-.1.1-1.1,1.4-1,1.5h-.1a19.2,19.2,0,0,0-1.7,1.3c-.4.3-.4.6-.1.9a4.7,4.7,0,0,0,4.1,1.2c.1,0,.1-.1,0-.1h0a3.7,3.7,0,0,0,1.2-.7c.1-.2.4-.3.5-.5s-.2-.9-.2-1.2a.9.9,0,0,1,.3-1c.2-.3.5-.4.7-.6s.6-1.4.6-2.3a9.3,9.3,0,0,1,1.5-4.2l2.7-5.1a3.5,3.5,0,0,0,.6-1.7,4.1,4.1,0,0,0-.5-1.9,16.9,16.9,0,0,1-1.5-3.7,9.2,9.2,0,0,1,2-7.3l.9-1.1.5-.7.6-.2c.3-.1.3-.1.5.1l1.2,1.8.6.7.2.5h.3l.4.5a2.9,2.9,0,0,1,.5,1.3,1.6,1.6,0,0,1,.2,1.2,4.4,4.4,0,0,1-.2,1c-.3,1.5-.8,3.1-1.2,4.6s-1,3-1.5,4.4a11.1,11.1,0,0,1-.9,1.9,12.7,12.7,0,0,0-1,1.2,4.5,4.5,0,0,1-1.3,1c-.2.2-.7.4-.8.7a1.4,1.4,0,0,0,.7,1,5.1,5.1,0,0,0,1.7.7h2a2.1,2.1,0,0,0,1.2-.7h.1l.2-.2.2-.3c0-.5-.4-1-.2-1.6s.7-.7,1.1-1.2a1.9,1.9,0,0,0,.5-1.3,3.8,3.8,0,0,1,0-1.5,8.8,8.8,0,0,1,.5-1.5c.5-1.3,1.2-2.5,1.8-3.7h-.1c0,.2-.2,1.8.2,1.6s.1-.3.1-.4.1-.6.1-.9,0-.8.2-1h-.2c.1.8.1,1.6.2,2.4h.1a11.1,11.1,0,0,0,1.4-3.4h-.1c0,.5.1,1,.1,1.5s-.1.8.1.9.2-.7.2-.8,0-1.9.1-2.9.4-1.9.5-2.9h-.1c.1.9.1,1.8.2,2.8s.1.8.1,1.2,0,.3.2.3.2-.3.2-.5a10.9,10.9,0,0,0,.1-1.8c0-1.9-.1-3.9,0-5.8h-.1c.3,1.6.5,3.2.7,4.8h.1a74.3,74.3,0,0,0-.9-8.1c-.4-2.7.2-5.4.1-8.1a15.9,15.9,0,0,0-1.5-7.1,8.8,8.8,0,0,0-1.9-2.4l-1.3-1.1a14.7,14.7,0,0,0-1-1.3,18.5,18.5,0,0,0-12.2-5.8c-4.6-.4-9.3.4-13.8-1.1a16.2,16.2,0,0,1-7.2-4.6,18.7,18.7,0,0,1-2.6-3.5,16.3,16.3,0,0,1-.9-1.9,12.4,12.4,0,0,0-1-2h-.1a7.6,7.6,0,0,1,2,2l.6,1.3a2.5,2.5,0,0,0,.4.9h0c.3,0-.2-1.3-.3-1.5a7.8,7.8,0,0,0-1.2-2.2l-.9-1a1.5,1.5,0,0,1-.6-.5c-.2-.2-.2-.3-.2-.6a4.8,4.8,0,0,0-.6-2.6h-.1l.7.4h.5c-.1-.2-.2-.2-.4-.3l-.7-.4a8.1,8.1,0,0,1-1.2-1.4,4.6,4.6,0,0,1-.7-.7,2,2,0,0,0-.4-.8l-.9-1.8h-.1l1.3,1.8c.2.2.8,1.1,1.1,1h0c0-.2-.3-.5-.4-.7a10,10,0,0,0-.8-1.4,29.8,29.8,0,0,0-2-2.9h-.1l1,.9.5.7c.1.1.1.3.3.3s-.2-.9-.3-1a6.9,6.9,0,0,0-1.6-1.8l-1.3-.8a14.9,14.9,0,0,1-1.4-1.2h0c.7.2,1.3.8,2,.9s1,0,1-.3a.1.1,0,0,0-.1-.1c-.1-.1-.4,0-.6,0l-.7-.3a21.2,21.2,0,0,0-2-1.2l-.6-.2c-.1,0-.3,0-.3-.2s.1-.6.1-.8a7.4,7.4,0,0,0,0-2.1,14.2,14.2,0,0,0-.5-2.2,3.6,3.6,0,0,0-.4-1.1,2.5,2.5,0,0,0-.4-.9c-.3-.3-.6-.1-.7.2a4.5,4.5,0,0,0-.1,1.2,5.6,5.6,0,0,1-.4,1.2,9.5,9.5,0,0,1-.9,2.1c-.1.2-.2.7-.4.8s-.8,0-1.1,0a9.1,9.1,0,0,0-2.3.1,5,5,0,0,1-1.3.3c-.3,0-.6.1-.8-.2a2.2,2.2,0,0,1-.5-.8,4.2,4.2,0,0,0-.3-1.2.4.4,0,0,0-.7-.1,2.5,2.5,0,0,0-.4.7l-.3,1.1c-.1.4-.1.8-.2,1.2s-.5.3-.7.4l-.6.4a9.8,9.8,0,0,0-3.3,3.4.1.1,0,0,0,.1.1,5.5,5.5,0,0,1,1.7-1.7H68c-1.1,1.4-2.6,3.2-2.2,5.2h.1l.8-2.1h-.1a11.3,11.3,0,0,0,0,2.6l.3,1.3a1.4,1.4,0,0,1,.2.6,1.9,1.9,0,0,1-.2.7,7,7,0,0,1-1.1,2.3c-.3.4-.8.6-1.1,1S64.7,72.7,64.7,72.7Z"/><path class="cls-17" d="M89.7,70l.7,1.6a8.8,8.8,0,0,0,.5,1.5c0,.1.1,0,.1,0a5.5,5.5,0,0,0-1.2-3.2h-.1a5,5,0,0,1,1.2,3.1H91c-.2-.5-.3-1-.5-1.6a10.1,10.1,0,0,1-.7-1.5Z"/><path class="cls-17" d="M67.7,67.4V67h-.1a2.9,2.9,0,0,0-.2.9h.1a1.4,1.4,0,0,1,.2-.6s-.1-.1-.1,0a1.7,1.7,0,0,0-.2.5h.1a2.9,2.9,0,0,1,.2-.9h-.1v.4Z"/></g></g></svg>