<svg xmlns="http://www.w3.org/2000/svg" viewBox="0 0 200 200"><defs><style>.cls-1,.cls-10{fill:#ea9518;}.cls-2{fill:#51250f;}.cls-3{fill:#edb247;}.cls-4{fill:#4f2715;}.cls-5{fill:#4e2817;}.cls-6{fill:#aa660c;}.cls-7{fill:#754307;}.cls-8{fill:#ffd79b;}.cls-9{fill:#161514;}.cls-10{stroke:#51250f;stroke-miterlimit:10;stroke-width:0.75px;}</style></defs><g id="Lion_03"><path class="cls-1" d="M139.2,82.9l-.3.4c-1.3,1.7-3.7,5.1-5.9,5.1s-2.6-1.3-3.7-3.4-2.9-12-4.9-14.8c0,0-4.2-7.9-15.7-2.9,0,0-3.7,1.6-4.9,3.3,0,0-8.6,7.8-14,9.4,0,0-2.8.4-6.5,4.5,0,0-4.2,3.7-5,4.6s-1.2-5.8-8.6-5.4a4,4,0,0,0-1.6-4.2,3.9,3.9,0,0,0-5,1.1,5.9,5.9,0,0,0-.6,3.8,7.5,7.5,0,0,0,1.4,3l-.8.9a15.7,15.7,0,0,1-1.5,1.9,2.7,2.7,0,0,0-.5,1.3,5.4,5.4,0,0,0,.4,2.9,7.8,7.8,0,0,1-.7,4.9,3.7,3.7,0,0,0-.8,2.5,2.7,2.7,0,0,0,.6,1.2,3.1,3.1,0,0,0,.5,1.7,4.6,4.6,0,0,0,5.9,1.6c1.4-.8,2.3-2.4,3.5-3.5a4,4,0,0,1,3.1.8,3.9,3.9,0,0,1,1.4,1.9s1.3,8.6,2.1,10.3a30.1,30.1,0,0,1,.8,4.9s-4.9,1.2-3.3,4.1a1.8,1.8,0,0,0,1.3,1.7,2.6,2.6,0,0,0,2.8.8s4.1-.8,5-3.7c0,0,.8-7.4.4-10.3l.8.4a19.5,19.5,0,0,0,.8,2.2,25.7,25.7,0,0,0,1.6,3.7,25.4,25.4,0,0,1,.4,2.9,22.5,22.5,0,0,1,0,4.5,5.7,5.7,0,0,0-2.1,1.3,4.2,4.2,0,0,0-1.5,2.3,2.1,2.1,0,0,0,1.6,2,2.7,2.7,0,0,0,2.9.9s4.5-1.7,4.9-5a4.9,4.9,0,0,0,.1-1.3,5.6,5.6,0,0,0-.5-1.8c.3-1.7.6-3.5.9-5.5a60.4,60.4,0,0,0,.3-12.6,18.9,18.9,0,0,1,2.3-2.8,20,20,0,0,1,6-4.3s7.8-4.6,9-9.5a16.5,16.5,0,0,1,1.7,7.8,3.6,3.6,0,0,0-4.2,2.1,1.7,1.7,0,0,0,.9,2s0,2.1,3.3.8c0,0,4.9-1.6,4.5-4.5a21.6,21.6,0,0,0,0-5.3,10.3,10.3,0,0,0,3.3,3.7s.4,4.1,0,5.3-3.7,1.3-3.3,3.7a1.9,1.9,0,0,0,1.6,1.7,1.8,1.8,0,0,0,1.7.8,4.8,4.8,0,0,0,3.6-1,4.3,4.3,0,0,0,1.2-4.2c.3-1.6.5-3.3.7-5.1s.2-4.2.2-6a7.1,7.1,0,0,1-1.3-1.2,5.8,5.8,0,0,1-1.1-3.9s1.2-6.1.8-9v-.2a16.2,16.2,0,0,1,.6,1.7c1.8,5,3.4,9.5,6.5,10.3s5.4-1.3,6.6-2.8,1.9-2.4,1.2-3.7A1.7,1.7,0,0,0,139.2,82.9Z"/><path class="cls-2" d="M87.8,134.1a3.4,3.4,0,0,1-2.4-1,2.6,2.6,0,0,1-1.9-2.5v-.2a5.8,5.8,0,0,1,1.7-2.5,5.2,5.2,0,0,1,2-1.3,26.7,26.7,0,0,0,0-4,23.6,23.6,0,0,0-.4-2.8c-.6-1.2-1.2-2.4-1.7-3.7a7.6,7.6,0,0,0-.4-1.1,84.8,84.8,0,0,1-.5,8.7c-.9,3.2-5.2,4.1-5.4,4.1a3.3,3.3,0,0,1-3.3-.9,2,2,0,0,1-1.4-1.9,2.5,2.5,0,0,1-.2-2.2c.6-1.5,2.5-2.2,3.4-2.5a34.6,34.6,0,0,0-.7-4.3c-.9-1.8-2-9.2-2.1-10.4a4.7,4.7,0,0,0-1.2-1.6,4.4,4.4,0,0,0-2.6-.7l-.9,1.1a9.9,9.9,0,0,1-2.6,2.4,5.1,5.1,0,0,1-6.6-1.8,3.4,3.4,0,0,1-.5-1.7,3.4,3.4,0,0,1-.7-1.5,3.3,3.3,0,0,1,.8-2.5V99a6.2,6.2,0,0,0,.6-4.4,5.4,5.4,0,0,1-.3-3.2,2.8,2.8,0,0,1,.4-1.3l.2-.3a3.8,3.8,0,0,0,.8-.9,3.5,3.5,0,0,1,.7-.9l.5-.6a8.7,8.7,0,0,1-1.3-2.9,6.9,6.9,0,0,1,.7-4.2,4.3,4.3,0,0,1,5.8-1.2,4.4,4.4,0,0,1,2,4h0c5.4,0,7.5,3.3,8.2,5l4.3-4c3.7-4.1,6.7-4.6,6.9-4.6,5-1.6,13.5-9.3,13.6-9.3,1.3-1.7,5-3.4,5.1-3.4,11.9-5.1,16.3,3,16.4,3.1s1.9,4.9,2.8,8.1a33.3,33.3,0,0,0,2.1,6.7c1,2,2.2,3.1,3.2,3.1h0c1.9,0,4.3-3.3,5.4-4.9l.5-.7.5.2a2,2,0,0,1,1.2,1c.6,1.1.2,2.6-1.3,4.3s-4.1,3.9-7.1,3.1-4.8-4.9-6.4-9.5a61.7,61.7,0,0,1-.9,6.2,5.8,5.8,0,0,0,1.1,3.4,6.3,6.3,0,0,0,1.1,1.2h.2v.3a40.1,40.1,0,0,1-.2,6,44.3,44.3,0,0,1-.6,5.1,4.7,4.7,0,0,1-1.5,4.6,4.6,4.6,0,0,1-4,1.1,2,2,0,0,1-1.9-.8,2.4,2.4,0,0,1-1.9-2.2c-.4-2.4,2.5-3.7,3.4-4.1a18,18,0,0,0-.1-4.6,7.3,7.3,0,0,1-2-1.9,18.1,18.1,0,0,1-.2,3.2c.4,3.3-4.6,5-4.9,5.1s-2.5.5-3.2,0a1.9,1.9,0,0,1-.8-1.1,2.3,2.3,0,0,1-.8-2.5,3.8,3.8,0,0,1,4.1-2.5,20.3,20.3,0,0,0-1-5.7c-2.2,4.5-8.6,8.3-8.8,8.4a21.3,21.3,0,0,0-5.9,4.3,13.3,13.3,0,0,0-2.1,2.6,57.9,57.9,0,0,1-.4,12.5c-.2,1.8-.5,3.6-.8,5.3a5.8,5.8,0,0,1,.4,1.8,3.8,3.8,0,0,1,0,1.5c-.5,3.6-5.1,5.3-5.3,5.4Zm-3.2-3.4a1.8,1.8,0,0,0,1.3,1.4h.2v.2c0,.1.6.9,2.3.6h0s4.1-1.5,4.5-4.4a5.6,5.6,0,0,0,0-1.3,4.7,4.7,0,0,0-.4-1.6h-.1v-.2a50.7,50.7,0,0,0,.9-5.4,53.2,53.2,0,0,0,.3-12.6h0V107a21.7,21.7,0,0,1,2.4-2.9,22.1,22.1,0,0,1,6.1-4.4c.1-.1,7.6-4.5,8.8-9.1l.3-1.4.7,1.2a17.6,17.6,0,0,1,1.7,8.1v.8l-.7-.2a2.7,2.7,0,0,0-3.4,1.7,1.2,1.2,0,0,0,.6,1.4h.2v.3a.6.6,0,0,0,.3.5c.2.2.8.4,2.3-.2s4.4-1.9,4.1-3.9h0a21.1,21.1,0,0,0,0-5.2,33.7,33.7,0,0,0,4.2,3.1h.2v.3a20.8,20.8,0,0,1,0,5.6v.3h-.3s-3.2,1.1-2.9,3c0,.2.1.9,1.3,1.2h.2v.2a1.4,1.4,0,0,0,1.2.5,3.8,3.8,0,0,0,3.2-.8,3.8,3.8,0,0,0,1.1-3.7h0a44.3,44.3,0,0,0,.6-5.1,51.5,51.5,0,0,0,.2-5.6l-1.1-1.2a7,7,0,0,1-1.3-4.2c0-.2,1.2-6.2.8-8.9-.1-.6.3-.8.4-.8s.7.2,1.3,1.9c1.8,4.9,3.4,9.3,6.2,10.1s4.8-1.3,6-2.7,1.5-2.5,1.1-3.1-.1-.2-.3-.3c-1.8,2.6-4,5.3-6.3,5.3h0c-1.5,0-2.9-1.2-4.2-3.7a33.1,33.1,0,0,1-2.2-6.9c-.8-3.1-1.6-6.3-2.7-7.8s-4.1-7.4-14.9-2.7c-.1,0-3.6,1.6-4.7,3.1s-8.9,8-14.3,9.7c-.1,0-2.8.4-6.3,4.3l-5,4.6-.7.7-.2-1c-.1-.2-1.3-5.3-8.1-4.9H69v-.7A3.3,3.3,0,0,0,67.8,80a3.4,3.4,0,0,0-4.3.9,7.1,7.1,0,0,0-.5,3.4,6.6,6.6,0,0,0,1.4,2.8l.3.3-.3.4-.9.9-.6.9-.8,1v.2c-.2.2-.2.2-.3.8a4.2,4.2,0,0,0,.3,2.6h0a8.2,8.2,0,0,1-.7,5.3l-.2.2a3.3,3.3,0,0,0-.6,1.9,3.7,3.7,0,0,0,.6,1h.1v.2a2.9,2.9,0,0,0,.3,1.4,4.2,4.2,0,0,0,5.2,1.4,8.7,8.7,0,0,0,2.2-2.1l1.2-1.3h.3a5,5,0,0,1,5.2,3.1h0c.3,2.4,1.3,8.8,2,10.1h0a23.9,23.9,0,0,1,.9,5.1v.4l-.5.2c-.7.1-2.6.8-3.1,1.9a1.5,1.5,0,0,0,.2,1.3v.2h0a1.1,1.1,0,0,0,.8,1.1h.2v.2a2.2,2.2,0,0,0,2.3.5c.1,0,3.8-.8,4.5-3.3h0s.8-7.2.4-10v-1.1l2,1v.3l.8,2.1c.5,1.3,1,2.5,1.6,3.7h.1c.2,1,.3,2,.4,3a35.3,35.3,0,0,1,0,4.6v.4h-.3a4,4,0,0,0-2,1.1A5.2,5.2,0,0,0,84.6,130.7Z"/><path class="cls-1" d="M70.2,103.1s5.8.4,6.7-3.1a10.9,10.9,0,0,1,2.8-5.1"/><path class="cls-2" d="M70.2,103.1a14.1,14.1,0,0,0,3.8-.9,5.6,5.6,0,0,0,1.5-1,3,3,0,0,0,.9-1.3h0a6.6,6.6,0,0,1,.5-1.5c.2-.5.5-.9.7-1.3a8.8,8.8,0,0,1,2.1-2.2c-.5.9-1,1.7-1.4,2.6s-.3.8-.5,1.3a6.1,6.1,0,0,0-.3,1.3h0a4.5,4.5,0,0,1-1.2,2,5.4,5.4,0,0,1-2,1A8.1,8.1,0,0,1,70.2,103.1Z"/><path class="cls-1" d="M77.5,94.8c2.5,1.4,5.2,1.3,6.9-.2a5.8,5.8,0,0,0,1.4-2.7,5,5,0,0,0-1.6-3.1c-1.7-1.3-4.6-1-6.7,1.1"/><path class="cls-2" d="M77.5,94.8a8.2,8.2,0,0,0,2.5.6,6.3,6.3,0,0,0,2.4-.2,4.3,4.3,0,0,0,1.9-1.3,4,4,0,0,0,.9-2.1V92a4.2,4.2,0,0,0-.8-2.2,3.4,3.4,0,0,0-2-1.3,5.3,5.3,0,0,0-2.5.2,9,9,0,0,0-2.4,1.2,7.2,7.2,0,0,1,2.2-1.7,4.9,4.9,0,0,1,2.9-.5,3.8,3.8,0,0,1,2.6,1.4,4.9,4.9,0,0,1,1.1,2.8h0a4.6,4.6,0,0,1-3.7,4,6.1,6.1,0,0,1-2.7,0A9,9,0,0,1,77.5,94.8Z"/><path class="cls-3" d="M79.4,91.2a3,3,0,0,1,3.7-.6,2,2,0,0,1,0,3.2,3.1,3.1,0,0,1-3.7.1"/><path class="cls-4" d="M79.4,91.2a3.5,3.5,0,0,1,2.7-1.1,2.2,2.2,0,0,1,1.4.8,3.5,3.5,0,0,1,.6,1.4h0a2.4,2.4,0,0,1-.7,1.3,2.3,2.3,0,0,1-1.2.8,3.9,3.9,0,0,1-2.8-.6,4.2,4.2,0,0,0,2.7.4,2.8,2.8,0,0,0,1.1-.8,2.3,2.3,0,0,0,.6-1.2h0a3.4,3.4,0,0,0-.5-1.4,1.7,1.7,0,0,0-1.2-.6A3.4,3.4,0,0,0,79.4,91.2Z"/><path class="cls-1" d="M73.6,103.6s6.9,8.6,11.2,10.6"/><path class="cls-2" d="M84.5,114.7c-4.3-2.1-11-10.4-11.3-10.7l.9-.7s6.8,8.4,10.9,10.4Z"/><path class="cls-3" d="M83.7,111.3l3,7.1"/><path class="cls-5" d="M83.7,111.3l1.1,1.6.5.9a3,3,0,0,0,.4.8l1.5,3.6-.9.4L84.8,115a3.6,3.6,0,0,1-.4-.9l-.2-.9Z"/><path class="cls-3" d="M94.2,107.8a13.3,13.3,0,0,0-.6-3.1,11,11,0,0,1-.4-2.9"/><path class="cls-4" d="M93.8,107.8a7.7,7.7,0,0,1-.2-1.5c-.1-.5-.2-1.1-.3-1.5h0a3.9,3.9,0,0,1-.2-1.5,7.5,7.5,0,0,1,0-1.5h.1l.3,1.4a5.7,5.7,0,0,0,.4,1.4h0a5.8,5.8,0,0,1,.5,1.6,10,10,0,0,1,.2,1.6Z"/><path class="cls-1" d="M121,97.7s-4.8-2.9-8.5-11.9"/><path class="cls-2" d="M120.7,98.2a11.9,11.9,0,0,1-2.9-2.5,22.6,22.6,0,0,1-2.3-3.1,17.4,17.4,0,0,1-1.8-3.3,11.2,11.2,0,0,1-1.2-3.5c.7,1,1.3,2.1,1.9,3.1l2,3.1a20.9,20.9,0,0,0,2.3,2.9,20,20,0,0,0,2.6,2.4Z"/><path class="cls-1" d="M122.8,69.7s4.2,6.7,1.4,18.2"/><path class="cls-2" d="M122.8,69.7a16.9,16.9,0,0,1,2,4.3,17.9,17.9,0,0,1,.9,4.6,25.7,25.7,0,0,1-.1,4.8,20.8,20.8,0,0,1-.3,2.3l-.6,2.3-1-.2a39.5,39.5,0,0,0,.7-4.6,33.8,33.8,0,0,0,.1-4.5,34.4,34.4,0,0,0-.5-4.5A37.4,37.4,0,0,0,122.8,69.7Z"/><path class="cls-1" d="M111.4,91.7a7.5,7.5,0,0,1,1.9-4.1"/><path class="cls-2" d="M111.9,91.7h-1.1a7.9,7.9,0,0,1,2.2-4.4l.7.9A7.3,7.3,0,0,0,111.9,91.7Z"/><path class="cls-3" d="M75.2,124.8s.9-2.2,2.6-2.2"/><path class="cls-6" d="M75,124.7a7.6,7.6,0,0,1,1.1-1.4,2.8,2.8,0,0,1,1.7-.7,3,3,0,0,0-1.6.8,4.2,4.2,0,0,0-.9,1.4Z"/><path class="cls-3" d="M76.4,126.4s-.1-1.2,2-1.6"/><path class="cls-6" d="M76.2,126.4a2.2,2.2,0,0,1,.9-1.2l1.3-.4a3.1,3.1,0,0,0-1.3.6c-.1.1-.3.2-.4.4a1.4,1.4,0,0,0-.2.6Z"/><path class="cls-3" d="M86.5,132.4s.1-1.4,2.1-1.8"/><path class="cls-6" d="M86.3,132.4a2.1,2.1,0,0,1,.9-1.3,3.9,3.9,0,0,1,1.4-.5,3.8,3.8,0,0,0-1.3.6,1.7,1.7,0,0,0-.7,1.2Z"/><path class="cls-3" d="M84.6,131.1s.8-1.8,2.4-1.8"/><path class="cls-6" d="M84.5,131.1a4.1,4.1,0,0,1,1-1.3,2.7,2.7,0,0,1,1.5-.5,3.5,3.5,0,0,0-1.4.6,3.8,3.8,0,0,0-.9,1.3Z"/><path class="cls-3" d="M109.5,101a2.4,2.4,0,0,1,2.6-.8"/><path class="cls-6" d="M109.4,100.9a2.3,2.3,0,0,1,2.7-.7,2.2,2.2,0,0,0-1.4.1,1.5,1.5,0,0,0-1.1.8Z"/><path class="cls-3" d="M110.3,102.8s-.3-1,2.2-1"/><path class="cls-6" d="M110.2,102.9a.6.6,0,0,1,.3-.7l.6-.3h1.4l-1.3.2-.6.3c-.1.2-.2.4-.1.5Z"/><path class="cls-3" d="M118.3,106.3s1.2-2,2-1.6"/><path class="cls-6" d="M118.2,106.3a3.1,3.1,0,0,1,.9-1.1l.5-.5a.9.9,0,0,1,.7,0,.9.9,0,0,0-.7.1l-.4.5a4.4,4.4,0,0,0-.8,1.1Z"/><path class="cls-3" d="M120.3,107.6s-.8-.9,1.6-1.3"/><path class="cls-6" d="M120.2,107.7a.6.6,0,0,1-.1-.7l.6-.4,1.2-.3-1.2.4-.4.4c-.1.2,0,.3.1.5Z"/><path class="cls-4" d="M62.3,102.2c0,.3-.1.6-.1.9a1,1,0,0,0,.2.7h0a3.4,3.4,0,0,0,2.5,1.3,3.2,3.2,0,0,0,1.4-.2l1.3-.7h0a6.5,6.5,0,0,0,1.3-1.6,5.2,5.2,0,0,1-1.2,1.7h0l-.6.5-.7.3a4,4,0,0,1-1.5.3,3.7,3.7,0,0,1-2.6-1.5h0c-.3-.2-.2-.6-.2-.9S62.2,102.5,62.3,102.2Z"/><path class="cls-4" d="M62.3,102.5a.6.6,0,0,1-.1.4c0,.2,0,.3-.1.4h0a1.3,1.3,0,0,1-1.2.5l-.6-.3L60,103h0a3.6,3.6,0,0,1-.2-1,2.9,2.9,0,0,0,.2.9h0l.4.5.5.3c.4.1.8-.2,1.1-.4h0a.8.8,0,0,0,.2-.4A.6.6,0,0,1,62.3,102.5Z"/><path class="cls-7" d="M60.6,95.6c.2-1.1.9-.9,1-.9a3.4,3.4,0,0,1,1.2.8c-.3.5-1.3.6-1.3-.3S61,94.9,60.6,95.6Z"/><path class="cls-8" d="M61.7,94.9a.6.6,0,0,0,.2.8.4.4,0,0,0,.6-.3A1.9,1.9,0,0,0,61.7,94.9Z"/><path class="cls-9" d="M62.2,95.3c0,.2-.1.3-.3.2s-.2-.1-.1-.3.1-.3.3-.2A.2.2,0,0,1,62.2,95.3Z"/><path class="cls-7" d="M66.3,97.2c.2-1.7,1.5-1.5,1.6-1.5a5.5,5.5,0,0,1,2,1.1c-.4.8-2,1.2-2.2-.4C67.6,96.4,67,96,66.3,97.2Z"/><path class="cls-8" d="M68,95.9s-.4,1,.5,1.3.9-.4.9-.4S68,95.9,68,95.9Z"/><path class="cls-9" d="M69,96.6a.5.5,0,0,1-.5.4.4.4,0,0,1-.3-.5c0-.3.2-.5.5-.4S69,96.4,69,96.6Z"/><path class="cls-4" d="M61.7,94.9a2,2,0,0,1,1.6,1.5,1.7,1.7,0,0,1,.1,1.2,5.3,5.3,0,0,1-.3,1.2h0l-.8,1.1a7.6,7.6,0,0,0-.8,1.1h0a1.6,1.6,0,0,0,1.1,1.4,1.7,1.7,0,0,0,1-.1l.9-.3-.9.5a1.7,1.7,0,0,1-1,.1,1.4,1.4,0,0,1-1-.5,4.2,4.2,0,0,1-.4-1h0a5,5,0,0,1,.8-1.2,7.6,7.6,0,0,1,.8-1.1h0l.3-1a2,2,0,0,0,0-1.1A2.2,2.2,0,0,0,61.7,94.9Z"/><path class="cls-10" d="M63.8,87.9a14.2,14.2,0,0,1,5.9-3.8"/></g></svg>