<svg xmlns="http://www.w3.org/2000/svg" viewBox="0 0 200 200"><defs><style>.cls-1{isolation:isolate;}.cls-2{fill:#cc5740;}.cls-3{fill:#a06960;}.cls-4{fill:#6d4c41;}.cls-11,.cls-5{fill:#ffab91;}.cls-6{fill:#fbe9e7;mix-blend-mode:multiply;}.cls-7{fill:#ef7554;}.cls-8{fill:#ffe7e1;}.cls-9{fill:#fff1ee;}.cls-10{fill:#ff8a65;}.cls-11{stroke:#89685c;}.cls-11,.cls-13,.cls-15{stroke-miterlimit:10;stroke-width:0.05px;}.cls-12,.cls-13{fill:#e57051;}.cls-13,.cls-15{stroke:#000;}.cls-14{fill:#141414;}.cls-15{fill:#fff;}.cls-16{fill:#89685c;}</style></defs><g class="cls-1"><g id="Pig_01"><path class="cls-2" d="M91.6,121.8s.9.1,1.4-1.2S91.2,119,91.6,121.8Z"/><path d="M91.6,121.8l.7-.2a1.6,1.6,0,0,0,.6-.8,1.4,1.4,0,0,0,.2-.6c-.1-.3-.2-.5-.5-.6a.9.9,0,0,0-.8.4,2.5,2.5,0,0,0-.3,1.5.4.4,0,0,0,.1.3h0a2.5,2.5,0,0,1,.2-1.7.9.9,0,0,1,.7-.5.5.5,0,0,1,.5.5c.1.1,0,.3,0,.5a2.2,2.2,0,0,1-.5.8l-.6.3Z"/><path class="cls-3" d="M93.7,118.2s1.2.3,1.5,0-1.3-3-1.3-3Z"/><path class="cls-2" d="M92.6,122.4s2.4.1,1.8-4.4S92.6,122.4,92.6,122.4Z"/><path d="M92.6,122.4c.4.1.9-.3,1.2-.6a3.1,3.1,0,0,0,.6-1.6,8.2,8.2,0,0,0-.1-2.7c0-.2-.1-.7-.3-.8s-.3.3-.4.4l-.3,1.3a8.5,8.5,0,0,0-.4,1.7l-.3,2.3h0a24.4,24.4,0,0,1,.9-4.7,1.4,1.4,0,0,1,.3-.9c.2-.2.4.2.4.4a5.8,5.8,0,0,1,.2,2.3,4.5,4.5,0,0,1-.4,2,1.7,1.7,0,0,1-1.4.9Z"/><path class="cls-4" d="M91.5,118.9s-.6,2.5-.1,2.8.8-.6.8-.6,0,1.3.4,1.3,1.2-.6,1.5-3.3S91.5,118.9,91.5,118.9Z"/><path class="cls-3" d="M94.9,100.7l-5.6,2c.2,6.4,2,8.2,2.2,14.8a7.5,7.5,0,0,1-.1,2c1-.7,1,.9,1,.9s1.5-1,1.8.8c0,0,.6-1,.1-4.5a33.4,33.4,0,0,1,.5-7.3A33.4,33.4,0,0,0,94.9,100.7Z"/><path class="cls-3" d="M114.4,107.9s1.2.2,1.5,0-1.3-3.1-1.3-3.1Z"/><path class="cls-2" d="M113.3,112.1s2.4.1,1.8-4.4S113.3,112.1,113.3,112.1Z"/><path d="M113.3,112.1a1.5,1.5,0,0,0,1.2-.7,2.8,2.8,0,0,0,.6-1.5,8.1,8.1,0,0,0-.1-2.7c0-.2-.1-.8-.3-.8s-.3.3-.4.4L114,108a10.5,10.5,0,0,0-.4,1.7l-.3,2.4h0a27,27,0,0,1,.9-4.8,1.3,1.3,0,0,1,.3-.8c.2-.2.4.2.4.3a9.9,9.9,0,0,1,.3,2.4,5.9,5.9,0,0,1-.5,1.9,1.8,1.8,0,0,1-1.4,1Z"/><path class="cls-4" d="M112.3,108.5s-.7,2.5-.2,2.9.9-.6.9-.6-.1,1.3.3,1.3,1.2-.6,1.5-3.3S112.3,108.5,112.3,108.5Z"/><path class="cls-3" d="M115.7,90.3l-5.7,2c.2,6.4,2,8.2,2.2,14.9a7.5,7.5,0,0,1-.1,2c1-.8,1.1.8,1.1.8a1,1,0,0,1,1.7.8s.6-1,.1-4.5a32.2,32.2,0,0,1,.5-7.2A37.1,37.1,0,0,0,115.7,90.3Z"/><path class="cls-5" d="M87.1,98.3l-1.3,2.6-1.3,2.7c-7.6-2.3-3.9-4.5-7.2-7.6l-.2-.3c-.1-.2.1-.5.3-.6S83.4,92.4,87.1,98.3Z"/><path class="cls-6" d="M85.8,100.9l-1.3,2.7c-7.6-2.3-3.9-4.5-7.2-7.6l-.2-.3c1.2-.4,5.3-1.3,8.1,3.7A7.7,7.7,0,0,1,85.8,100.9Z"/><path class="cls-7" d="M98.9,124.8a1.5,1.5,0,0,0,1.4-1C100.7,122.7,98.5,122.5,98.9,124.8Z"/><path d="M98.9,124.8l.7-.2a1.3,1.3,0,0,0,.6-.7.4.4,0,0,0,.1-.5.4.4,0,0,0-.4-.4,1.1,1.1,0,0,0-.8.3,1.7,1.7,0,0,0-.3,1.2.4.4,0,0,0,.1.3h0a1.7,1.7,0,0,1,.2-1.4.8.8,0,0,1,.7-.4.5.5,0,0,1,.5.4v.4l-.5.7a1.6,1.6,0,0,1-.9.3Z"/><path class="cls-8" d="M101,121.9s1.2.1,1.4-.1-1.2-2.4-1.2-2.4Z"/><path class="cls-7" d="M99.8,125.3s2.4.1,1.8-3.6S99.8,125.3,99.8,125.3Z"/><path d="M99.8,125.3a1.7,1.7,0,0,0,1.2-.5c.9-.8.8-2.3.6-3.4s-.1-.6-.3-.7-.3.1-.4.2a4.2,4.2,0,0,0-.4,1l-.3,1.4c-.1.7-.3,1.3-.4,2h.1a7.7,7.7,0,0,1,.2-1.5l.6-2.4c.1-.2.2-.6.4-.7s.3.3.4.4a6.5,6.5,0,0,1,.2,2,2.7,2.7,0,0,1-.5,1.5,1.7,1.7,0,0,1-1.4.7Z"/><path class="cls-5" d="M123.4,75.1c-.1-.3-.3-.3-.6-.2a.5.5,0,0,0-.2.6c.3.4.1.9-.1,1.4h-.1a1.1,1.1,0,0,0-.3-.7,2.1,2.1,0,0,0-.4-.6,1.9,1.9,0,0,0-1.7-.9,1.9,1.9,0,0,0-1.4,1.2A2.3,2.3,0,0,0,119,78a2.2,2.2,0,0,0,2.2.8l-.3.4a7.9,7.9,0,0,1-3,1.8.7.7,0,0,0-.3.6.5.5,0,0,0,.5.3h.1a9.8,9.8,0,0,0,3.7-2.5,3.1,3.1,0,0,0,.5-1c0-.1,0-.1.1-.2A2.5,2.5,0,0,0,123.4,75.1Zm-3.7,2.3a1.1,1.1,0,0,1-.2-1.2c.1-.3.3-.6.6-.6h.1a1,1,0,0,1,.8.5l.5.8a2.2,2.2,0,0,1,.1.8A1.5,1.5,0,0,1,119.7,77.4Z"/><path class="cls-4" d="M98.8,122.4s-.6,2-.1,2.3.8-.5.8-.5,0,1.1.3,1.1,1.3-.5,1.6-2.7S98.8,122.4,98.8,122.4Z"/><path class="cls-9" d="M121.7,93c-1.4,4.2-4.3,7.3-4.5,7s-.4,0-.6.2c-2.7,2.6-7.9,7.4-13.1,10.2l-1.3.6-1.7.7c-2.1.8-1.6-.1-2.9.9l-.3.3-.8.6-.6.5-.3.2a26.9,26.9,0,0,1-7.9,4.2l-3.1.8-3.3.7h-.4l-.2-.2L76,115.2a5.7,5.7,0,0,0,1.6-1.8c1.7-3.3,1.5-9.6,5.2-14.3s9.9-6.6,13.3-9.8c16.2-15.7,22.9-9.8,24-9a5.6,5.6,0,0,1,2,3A19.1,19.1,0,0,1,121.7,93Z"/><path class="cls-5" d="M85.7,118.3a2.1,2.1,0,0,0-1.1.9l-3.3.7c2-.4,3.6-1.2,3.9-1.9S87,117.7,85.7,118.3Z"/><path class="cls-5" d="M81.6,118.4l-.9,1.4L76,115.2a5.7,5.7,0,0,0,1.6-1.8,3,3,0,0,1,2.6-.2C81.9,113.9,82.5,116.2,81.6,118.4Z"/><path class="cls-10" d="M81.7,118.1c.4,1.4-.9,2.5-2.5,2.1a5.4,5.4,0,0,1-3.7-3.3c-.4-1.5.8-2.4,2.4-2A5.4,5.4,0,0,1,81.7,118.1Z"/><path class="cls-5" d="M81,118.4c.4,1.3-.6,2.1-2.1,1.7a5.2,5.2,0,0,1-3.5-3.1c-.4-1.3.5-2,2.1-1.7A5.2,5.2,0,0,1,81,118.4Z"/><path class="cls-11" d="M85.6,112h-.3c-.1-.1-.1-.2-.1-.4s0-3.5,3.7-2.9C88.9,108.6,90.4,112.3,85.6,112Z"/><path class="cls-12" d="M77.6,117.4c0,.4-.3.6-.6.4a1.4,1.4,0,0,1-.7-1.1c0-.4.3-.5.6-.4A1.4,1.4,0,0,1,77.6,117.4Z"/><path class="cls-12" d="M80.1,118.7c0,.4-.3.6-.6.4a1.4,1.4,0,0,1-.7-1.1q0-.6.6-.3A1.1,1.1,0,0,1,80.1,118.7Z"/><path class="cls-13" d="M88.4,109.7s-.2,1.5-1,1.6-1-.2-1.5.2l.3-.8a1.7,1.7,0,0,1,.8-1.4C87.6,108.9,88.1,109.3,88.4,109.7Z"/><path class="cls-14" d="M88.3,109.6c-.1.8-.5,1.4-1.1,1.5a1.3,1.3,0,0,1-1-.4,1.7,1.7,0,0,1,.8-1.4A.9.9,0,0,1,88.3,109.6Z"/><path d="M88.3,109.6a2.2,2.2,0,0,1-.5,1.1,1.1,1.1,0,0,1-1.1.3h-.4c-.1-.1-.1-.1-.1-.2s.1-.3.2-.5a1.2,1.2,0,0,1,.9-.9,1,1,0,0,1,1,.4h0a1.1,1.1,0,0,0-.9-.5,1.3,1.3,0,0,0-1,.9,1.4,1.4,0,0,0-.2.6h0l.3.2a1.3,1.3,0,0,0,1.2-.1,1.6,1.6,0,0,0,.6-1.3Z"/><path class="cls-15" d="M87.8,109.7a.5.5,0,0,1-.2.4.3.3,0,0,1-.3-.3c-.1-.1,0-.3.2-.3S87.8,109.6,87.8,109.7Z"/><path class="cls-5" d="M99,101.4a.6.6,0,0,1-.1.4c-2.5,3.3-2.5,10.1-7.2,5.9l-.4-.3-.9-1.4a2.9,2.9,0,0,1,1.1-4.1,8.9,8.9,0,0,1,7.1-1A.7.7,0,0,1,99,101.4Z"/><path class="cls-6" d="M99,101.4a.6.6,0,0,1-.1.4c-2.5,3.3-2.5,10.1-7.2,5.9a6,6,0,0,1,0-1.9C92.5,101.8,96.9,101.4,99,101.4Z"/><path class="cls-8" d="M102.4,109.3a20.1,20.1,0,0,1-.1,2.4,7.6,7.6,0,0,1-.1,1.5v.2h0a.4.4,0,0,0-.1.3v.3c-.1.3-.1.7-.2,1v.2h-.1v.5c-.1.1-.1.2-.1.4a.9.9,0,0,1-.1.5h0v.2h0v.8h0v.5h0v.6h0v.2h0v.3a.4.4,0,0,1,.1.3c0,.5.1.8.1,1.1v.6h0v.2a3.1,3.1,0,0,1-.3,2h-.1c-.1-.1-.1-.1-.1-.2h-1l-.5.2a1.8,1.8,0,0,0-.1-.5h0c-.2-.3-.4-.5-.9-.1h0a5.4,5.4,0,0,0,.1-1.7c-.1-1.1-.2-2-.3-2.8a20.5,20.5,0,0,0-.7-3.1c-.2-1.1-.5-2.2-.8-3.4"/><path class="cls-7" d="M118.4,113.8a1.9,1.9,0,0,0,1.8-1.1C120.8,111.4,117.9,111.2,118.4,113.8Z"/><path class="cls-8" d="M121.5,110.8a6.5,6.5,0,0,0,1.7.3c.3-.2-.8-3.1-.8-3.1Z"/><path class="cls-7" d="M119.7,114.4s3,.1,2.2-4.1S119.7,114.4,119.7,114.4Z"/><path class="cls-4" d="M118.4,111.1s-.8,2.3-.2,2.6,1.1-.5,1.1-.5-.1,1.2.4,1.2,1.6-.6,2-3.1S118.4,111.1,118.4,111.1Z"/><path class="cls-8" d="M121,82l.8.9a10,10,0,0,1,3,7.5v.5h0v.8c0,.2-.1.4-.1.6v.2c0,.3-.1.5-.1.8h0v.4a.3.3,0,0,1-.1.2v.2c0,.2-.1.4-.1.6a.8.8,0,0,0-.1.4l-.3,1.2v.2a6.4,6.4,0,0,1-.2.7h0a.4.4,0,0,1-.1.3h0V98h-.1v.2a3.5,3.5,0,0,0,.1,1.8,5.5,5.5,0,0,1,.2,4h0l-.3,1.1h0c-.1.4-.1.8-.2,1.2a.9.9,0,0,0-.1.5c0,.1-.1.1-.1.2v.3c0,.1-.1.2-.1.3v.3c-.1.2-.1.5-.2.8v.2a.4.4,0,0,0-.1.3c-.1.3-.1.7-.2,1v.3c-.1.4-.1.7-.2,1s-.1.1-.1.2H122c-.1.1-.1.3-.2.4h-.1V113h0c0-.1-.1-.1-.1-.2h-.2l-.2-.2h-1.1c-.1,0-.2,0-.2.1h-.4v-.2h-.1a.1.1,0,0,1-.1-.1h-1l.4-1.7c.5-2.2,1.2-5.7.4-6.7l-.2-.2h-.1l-.3-.5h-.1a4.1,4.1,0,0,1-.5-.9c0-.1-.1-.1-.1-.2V101l-.2-.3v-.2c-.1-.1-.1-.2-.2-.4h0l-.2-.3v-.4h0c0-.1,0-.1-.1-.2v-.2h0a.4.4,0,0,1-.1-.3c0-.1,0-.1-.1-.2V98h0a13.5,13.5,0,0,1-.4-3.3"/><path class="cls-16" d="M122.2,83.1a6.4,6.4,0,0,0-1.5-2.5h0a4.1,4.1,0,0,0,1.8-2.1c.1-.1.1-.3.2-.4l.2-.2.5-.5a2.1,2.1,0,0,0,.4-1.1c.1-.5,0-1.7-.7-1.6s-.5.2-.4.5.1.4.1.7a1.6,1.6,0,0,1-.3.9h.1c-.3-1.1-1.4-2.6-2.8-2.2a2.2,2.2,0,0,0-.6,3.5,2.6,2.6,0,0,0,2.2.7h-.1a4.3,4.3,0,0,1-1,.9l-.2.2h-.3l-.2-.2-.8-.4a5.2,5.2,0,0,0-2.1-.7,13.3,13.3,0,0,0-7.6,1.1c-4.7,2-8.7,5.3-12.4,8.7L95,90l-1.6,1.2-3.8,2.2a42.5,42.5,0,0,0-3.9,2.5l-.2.2c-.1.1-.1.1-.2-.1l-.5-.3A2.7,2.7,0,0,0,84,95a9.8,9.8,0,0,0-1.8-.8,5.5,5.5,0,0,0-3.1,0l-1.2.4-1,.5a1.1,1.1,0,0,0-.1.5c0,.4.3.6.5.8a4.2,4.2,0,0,1,1.1,1.8,15.7,15.7,0,0,0,1,2.8,3.7,3.7,0,0,0,1.3,1.2h0a36.5,36.5,0,0,0-1.8,5.6,44.3,44.3,0,0,1-1.3,4.9,5.3,5.3,0,0,1-1.9,2.5.1.1,0,0,0-.1.1h.1a1.7,1.7,0,0,0-.8,1.4,3.4,3.4,0,0,0,.8,1.7,5.2,5.2,0,0,0,3.2,2h1.4c.1,0,.2,0,.2-.1H81l1.3-.2,4.3-1.1a38,38,0,0,0,4.7-1.8h-.1a12.2,12.2,0,0,1,0,2.7h0a8.8,8.8,0,0,0-.2,1.6.7.7,0,0,0,.1.5c0,.1.3.3.3.2h0a.8.8,0,0,0,.7-.1h0c0,.3,0,.8.2.9h.4a2.3,2.3,0,0,0,1.4-1.3h0a1.4,1.4,0,0,0,.2-.6,3.1,3.1,0,0,0,.1-1v-.9c0-.2,0-.3.2-.3s.5,0,.5-.2a1.1,1.1,0,0,0-.2-.8,5.4,5.4,0,0,0-.5-1.1,1.4,1.4,0,0,1-.2-.6v-.5l.4-.3,2.6-2h-.1c.4,1.8,1,3.5,1.3,5.3a22.8,22.8,0,0,1,.2,2.6,13.3,13.3,0,0,1,0,2c-.1.1,0,.1,0,.1h0a7,7,0,0,0-.3,1.4c0,.2.1.3.1.4s.3.3.3.2h.1a.9.9,0,0,0,.7-.1h-.1c0,.3,0,.7.3.8h.3a2.1,2.1,0,0,0,1.4-1h-.1s.1.1.1,0,.2-.6.3-.9a6.2,6.2,0,0,1,.1-1.3c0-.2.2-.1.3-.1h.3a.4.4,0,0,0-.1-.5,5.4,5.4,0,0,0-.5-1.1l-.3-.5v-.6a4.9,4.9,0,0,1,.1-1.2c.1-1.9.6-3.8.7-5.7,0-.3.1-.5.1-.8v-.3c0-.2,0-.2.2-.3l1.2-.6,2.7-1.7a53.4,53.4,0,0,0,5.6-4.1h-.2a24.5,24.5,0,0,1,.2,2.7,7.4,7.4,0,0,1,0,2.1h0a5.9,5.9,0,0,0-.2,1.3c0,.3-.1.7.1.9s.9-.3,1.1-.6h-.2c0,.3-.1,1.3.4,1.3s1.4-.6,1.7-1.3h-.1a.1.1,0,0,0,.1.1,2.4,2.4,0,0,0,.2-.8,2.8,2.8,0,0,0,.1-.9v-1.1h.4a.3.3,0,0,0,.3-.3,1.9,1.9,0,0,0-.3-.8,6.1,6.1,0,0,0-.5-1.2,2.2,2.2,0,0,1-.1-.8v-.8c0-.6.1-1.1.1-1.7s0-.7.2-.9l.7-.6.5-.5.3-.3h.3c.1,0,.1.2.1.2l.5,1.2.9,1.4a1.6,1.6,0,0,1,.6.8,5.9,5.9,0,0,1,0,2.3,28.7,28.7,0,0,1-.5,3.1c-.2.8-.3,1.7-.5,2.5s0,.1.1.1h-.1a4,4,0,0,0-.3,1.5,1.1,1.1,0,0,0,.1.5.1.1,0,0,0,.1.1h.3a1.4,1.4,0,0,0,.9-.1h-.1c.1.3.1.7.4.8h.5a2.6,2.6,0,0,0,1.7-1.2h0a8.1,8.1,0,0,0,.7-2.2h-.1c.2,0,.8.2.9,0s0-.7-.1-.9a2.4,2.4,0,0,0-.2-.8,2.7,2.7,0,0,1,0-.9,9.4,9.4,0,0,0,.4-1.6l.6-3a4.5,4.5,0,0,0,.1-2.3c-.1-.5-.4-1-.5-1.5a4.9,4.9,0,0,1,0-1.7c.2-1,.4-2.1.7-3.1a20.7,20.7,0,0,0,.6-6.1,10.1,10.1,0,0,0-2.8-6.1c0-.1-.1,0-.1.1a9.6,9.6,0,0,1,2.7,5.5,15.7,15.7,0,0,1-.4,5.7c-.2,1.1-.5,2.1-.7,3.2a7,7,0,0,0-.1,2.5,12.2,12.2,0,0,1,.6,2.6,24.4,24.4,0,0,1-.6,2.6l-.6,3.3a1.1,1.1,0,0,0,0,.8,3.1,3.1,0,0,0,.2.8,1.5,1.5,0,0,1,.1.7h-.8a12.9,12.9,0,0,1-.7,2.1h0a2.3,2.3,0,0,1-1.5,1.2h-.5c-.3,0-.3-.4-.3-.7h-.1l-.7.2h-.1c-.1,0-.1-.1-.1.1h0c-.8-.2-.2-1.6-.1-2s0-.1-.1-.1h.1l.3-1.8a18.9,18.9,0,0,0,.5-2.3,7.8,7.8,0,0,0,.3-2.2,3.3,3.3,0,0,0-.1-1.7l-.3-.6a10.5,10.5,0,0,1-.8-1.1l-.6-1.1-.3-.6c0-.1,0-.3-.1-.3s-.4,0-.6.1l-.9.9c-.2.2-.5.3-.6.5s0,.3-.1.5-.1,1-.1,1.4v1.5c0,.2-.1.5,0,.7a.8.8,0,0,0,.2.4l.6,1.3c0,.1.1.2.1.4l-.2.2h-.5a16.2,16.2,0,0,1-.1,2.2l-.2.6h0c-.3.5-.8,1.3-1.5,1.2s-.3-.9-.3-1.2h-.2c-.1.3-.7,1.1-.9.4a6.2,6.2,0,0,1,.2-1.9.1.1,0,0,0-.1-.1h.1a13.4,13.4,0,0,0,.1-2c-.1-.9-.1-1.9-.2-2.8s-.1-.1-.1,0a48.4,48.4,0,0,1-9.7,6.5h0c-.1,1.2-.2,2.4-.4,3.5s-.3,2-.4,2.9a7.6,7.6,0,0,0-.1,1.5V120l.4.6.3.5c0,.2.2.4.2.6v.2h-.6a10.3,10.3,0,0,1-.1,1.8.8.8,0,0,1-.2.5h0a1.6,1.6,0,0,1-1.1,1h-.4c-.2,0-.3-.4-.3-.6h-.6c-.1,0-.1,0,0,.1h-.1c-.7-.1-.2-1.5-.1-1.8s0-.1-.1-.1h.1a6,6,0,0,0,0-1.9,21.1,21.1,0,0,0-.2-2.6,49,49,0,0,0-1.3-5.5c0-.1,0-.1-.1-.1l-1.6,1.3-.9.7-.5.3c-.1.1,0,.2,0,.3v.5c0,.1.1.2.1.3a3.6,3.6,0,0,1,.4.9,2,2,0,0,1,.4.8v.2c-.1.2-.5.2-.6.2h-.1a17.7,17.7,0,0,1-.1,2.3c-.1.1-.1.4-.2.5h.1a.1.1,0,0,0-.1-.1,1.8,1.8,0,0,1-1.2,1.2h-.3c-.3-.1-.3-.6-.3-.8h-.8c-.6,0-.2-1.8-.1-2.1h0a8.8,8.8,0,0,0,0-2.8h0a36.2,36.2,0,0,1-5.5,2l-2.5.6-1.5.3-.8.2h-.4a3.3,3.3,0,0,1-2.2,0,5.2,5.2,0,0,1-1.9-1.1,4.4,4.4,0,0,1-1.2-1.5,1.7,1.7,0,0,1,.4-2.2c.1,0,.1,0,0-.1h0a6.1,6.1,0,0,0,2.5-4.1c.5-1.8.9-3.7,1.4-5.5a19.6,19.6,0,0,1,1.2-3.4h0a3.8,3.8,0,0,1-1.4-1.4,3.5,3.5,0,0,1-.5-1.3,7.6,7.6,0,0,0-1.3-2.9c-.2-.2-.7-.5-.7-.9s.3-.5.5-.6l1.1-.5a6.5,6.5,0,0,1,2.8-.3,6.3,6.3,0,0,1,4,2.1h.1A48.3,48.3,0,0,1,91,92.7a26.7,26.7,0,0,0,4.8-3.2l5.1-4.5a47.3,47.3,0,0,1,4.6-3.2,22.6,22.6,0,0,1,7-2.9,10.6,10.6,0,0,1,4.7,0,8,8,0,0,1,2.5,1.1h.2a3.7,3.7,0,0,0,1.5-1.3h-.1a2.1,2.1,0,0,1-2.2-3.4,1.4,1.4,0,0,1,1.7-.4,2.8,2.8,0,0,1,1.7,2h.1a1.1,1.1,0,0,0,.3-.8.5.5,0,0,0,0-.5c0-.1-.2-.3-.1-.5a.4.4,0,0,1,.5-.3c.1,0,.2.2.3.3a1.3,1.3,0,0,1,.1.6,1.7,1.7,0,0,1-.2,1.2,4.7,4.7,0,0,1-.6.9l-.4.3a4.3,4.3,0,0,0-.1.5,5.5,5.5,0,0,1-1.8,1.9h0a6.1,6.1,0,0,1,1.5,2.4C122.1,83.2,122.3,83.2,122.2,83.1Z"/><path class="cls-16" d="M119.8,77.3a.8.8,0,0,1-.2-.8,1.2,1.2,0,0,1,.4-.8c.6-.3,1.1.5,1.4.9a2,2,0,0,1,.3,1.1h0a1.1,1.1,0,0,1-.8.3,1.4,1.4,0,0,1-1.1-.6h-.1a1.4,1.4,0,0,0,1.2.6,1.6,1.6,0,0,0,.9-.3h0a2.9,2.9,0,0,0-1-2,.8.8,0,0,0-.8-.1c-.3.1-.4.4-.5.8a1.2,1.2,0,0,0,.2,1C119.8,77.5,119.9,77.4,119.8,77.3Z"/></g></g></svg>