<svg xmlns="http://www.w3.org/2000/svg" viewBox="0 0 200 200"><defs><style>.cls-1{isolation:isolate;}.cls-2{fill:#353535;}.cls-3{fill:#616161;}.cls-4{fill:#262626;}.cls-5{fill:#eee;mix-blend-mode:multiply;}.cls-6{fill:#424242;}.cls-7{fill:#edecd9;}.cls-12,.cls-8{fill:none;}.cls-8{stroke:#000;stroke-miterlimit:10;stroke-width:0.06px;}.cls-9{fill:#dbdbd9;}.cls-10{fill:#333;}.cls-11{fill:#fff;}.cls-13{fill:#f4ead7;}.cls-14{fill:#b7b8ba;}.cls-15{fill:#a0a2a5;}.cls-16{fill:#4d4d4d;}</style></defs><g class="cls-1"><g id="Sheep_02"><path class="cls-2" d="M96.3,150.4l1-1.9a3.2,3.2,0,0,1-2.2,1,11.6,11.6,0,0,0,1.7-3.6s2.7-1.4,4.5.5v.4C101.8,151,97.7,150.5,96.3,150.4Z"/><path class="cls-3" d="M101.2,146.3l-.3.2-.4.2h-.4a2.9,2.9,0,0,1-2.1-.1,2.7,2.7,0,0,1-1.2-.9s1.3-6.6,0-8.5-.7-2.6-.7-4.9a57.8,57.8,0,0,0-1.6-8.1l-1.3-5.6a5.8,5.8,0,0,1,4.5-3.6,9.5,9.5,0,0,1,3.7.2s-.2,1.4-.3,3.4-.4,6.4-.4,9.1a11.4,11.4,0,0,0,.3,3.5c1.2,1.7.2,3.8,0,6-.4,4.6.8,4.4.8,5.7S101,144.8,101.2,146.3Z"/><path class="cls-4" d="M95.1,149.5a8,8,0,0,0,2.6-1.8l-.4.8A3.6,3.6,0,0,1,95.1,149.5Z"/><path class="cls-4" d="M96.3,150.4s4.5-.6,5-3.6C101.8,151,97.7,150.5,96.3,150.4Z"/><path class="cls-5" d="M101.2,146.3l-.3.2-.4.2h-.4a7.8,7.8,0,0,0,.5-2.3c.1-1.6-.7-2.4-1-3.9a7.7,7.7,0,0,1,.5-4.5c.5-1.8-.2-2.8-.5-4.6a7,7,0,0,1,.6-3.5h.5a11,11,0,0,0,.3,3.4c1.2,1.7.2,3.8,0,6-.4,4.6.8,4.4.8,5.7S101,144.8,101.2,146.3Z"/><path class="cls-6" d="M67.5,96.6c0,.1-1,2.5-1,2.5-8.8,3-14.7-1.1-14.7-2.6s.3-.9,1.1-1.5C55.7,92.7,62.6,90,67.5,96.6Z"/><path class="cls-3" d="M67.5,96.6l-.8-.5C61.4,91.6,53.8,94.6,53,95,55.7,92.7,62.6,90,67.5,96.6Z"/><path class="cls-2" d="M123.9,122.1l1.1-1.8a3.3,3.3,0,0,1-2.3.9,10.1,10.1,0,0,0,1.8-3.6s3-.2,4.4.5a.9.9,0,0,1,.1.5C129.4,122.7,125.4,122.3,123.9,122.1Z"/><path class="cls-4" d="M122.7,121.2s2.1-.8,2.6-1.7l-.3.8A3.3,3.3,0,0,1,122.7,121.2Z"/><path class="cls-4" d="M123.9,122.1s4.6-.5,5.1-3.5C129.4,122.7,125.4,122.3,123.9,122.1Z"/><path class="cls-6" d="M120.8,90.5s3,11.4,3,13.7-.5,2.9.7,4.8,0,8.6,0,8.6,1.4,2.1,4.4.5c-.2-1.5.6-2.1.6-3.4s-1.2-1-.8-5.7c.2-2.2,1.2-4.2,0-5.9s.3-16,.3-16C125.1,86,122.5,87.3,120.8,90.5Z"/><path class="cls-2" d="M85.4,144.4l1-1.9a2.8,2.8,0,0,1-2.2,1,10.6,10.6,0,0,0,1.7-3.6,12.1,12.1,0,0,1,4.5.5v.5C90.8,145,86.8,144.6,85.4,144.4Z"/><path class="cls-4" d="M84.2,143.5a9,9,0,0,0,2.6-1.7l-.4.7A3.1,3.1,0,0,1,84.2,143.5Z"/><path class="cls-4" d="M85.4,144.4s4.5-.5,5-3.5C90.8,145,86.8,144.6,85.4,144.4Z"/><path class="cls-6" d="M82.2,112.8s3,11.4,3,13.7-.5,2.8.7,4.8,0,8.6,0,8.6,1.4,2.1,4.4.5c-.2-1.5.6-2.1.6-3.4s-1.2-1-.8-5.7c.2-2.2,1.2-4.2.1-6s.3-15.9.3-15.9C86.5,108.3,83.9,109.5,82.2,112.8Z"/><path class="cls-2" d="M134.8,128.1l1.1-1.9a3.4,3.4,0,0,1-2.3,1,12.1,12.1,0,0,0,1.8-3.6s2.7-1.4,4.4.5a.6.6,0,0,1,.1.4C140.3,128.7,136.3,128.2,134.8,128.1Z"/><path class="cls-3" d="M139.8,124c-.1.2-.2.2-.3.2l-.4.2a3.3,3.3,0,0,1-2.6,0,3.1,3.1,0,0,1-1.1-.8s1.3-6.7,0-8.6-.7-2.6-.7-4.8a58.4,58.4,0,0,0-1.6-8.2c-.7-3-1.4-5.6-1.4-5.6a6.4,6.4,0,0,1,4.6-3.6,7.7,7.7,0,0,1,3.6.3s-.1,1.4-.2,3.3c-.3,4.4-.7,11.7-.1,12.6s.2,3.8,0,6c-.4,4.7.8,4.4.8,5.7S139.6,122.5,139.8,124Z"/><path class="cls-5" d="M139.8,124c-.1.2-.2.2-.3.2l-.4.2a3.3,3.3,0,0,1-2.6,0,3.1,3.1,0,0,1-1.1-.8s1.3-6.7,0-8.6-.7-2.6-.7-4.8a58.4,58.4,0,0,0-1.6-8.2c-.7-3-1.4-5.6-1.4-5.6a6.4,6.4,0,0,1,4.6-3.6,7.7,7.7,0,0,1,3.6.3s-.1,1.4-.2,3.3c-.3,4.4-.7,11.7-.1,12.6s.2,3.8,0,6c-.4,4.7.8,4.4.8,5.7S139.6,122.5,139.8,124Z"/><path class="cls-4" d="M133.6,127.2s2.1-.9,2.6-1.8l-.3.8A3.7,3.7,0,0,1,133.6,127.2Z"/><path class="cls-4" d="M134.8,128.1s4.6-.5,5.1-3.6C140.3,128.7,136.3,128.2,134.8,128.1Z"/><path class="cls-7" d="M146.5,84.7c-.4,1.6-1.6,3-2.3,4.5s-.9,3.2-1.8,4.7-2.5,2.2-3.6,3.5-1.7,2.9-2.9,4.1-2.9,1.7-4.2,2.8a14.7,14.7,0,0,0-2.1,2.2l-.6.6-.9.7c-1.3.9-3.1,1.2-4.5,2.1s-2.6,2.2-4,3-2.7.7-3.9,1.3a10.6,10.6,0,0,0-2.3,1.9l-.9.6-1.4.5a18.3,18.3,0,0,0-2.5.8c-1.3.6-2.2,1.8-3.3,2.4s-2.8.5-4,1-2.3,1.6-3.5,2h-.5c-1.2.2-2.4,0-3.5.2s-2.6,1-3.9,1l-1.1-.2-2.9-.9c-1.2-.2-2.7.1-4-.4s-2.1-1.6-3.4-2.2-2.1-.4-2.8-1a2.7,2.7,0,0,1-.7-.8H73.9a7.2,7.2,0,0,1-5.3-3.1,16.8,16.8,0,0,1-2-2.9,30.7,30.7,0,0,1-1.4-3s.6-4.2,2.9-13.2a2.9,2.9,0,0,1,1.7-2.4,1.7,1.7,0,0,1,0-1.7c.2-.5.8.3,1.4-.1s.3-.9.7-1.1.9.2,1.3,0,.3-.9.6-1.1,1,.2,1.3,0,.3-.9.7-1.1.9.2,1.3,0,.3-1,.6-1.2,1,.2,1.3,0,.3-.9.7-1.1.9.1,1.3-.1,1.8-1.9,2.8-2.5,2.5-.9,3.5-1.6,1.7-2.1,2.6-2.8,2.4-1.2,3.3-2,1.5-2.2,2.3-3,2.3-1.3,3.2-2.2,1.3-2.2,2.1-3.1,2.3-1.4,3.1-2.3,1.3-2.2,2.2-3.1,2.3-1.1,3.3-1.9,1.6-1.9,2.8-2.6,2.3-.5,3.5-1,2-1.4,3.2-1.8,2.5.1,3.7-.1,2.4-.9,3.6-1,2.4.7,3.6.9,2.6-.3,3.7.1,2,1.4,3.1,2,2.5.7,3.4,1.5a1,1,0,0,1,.4.5c.6.7,1,1.8,1.6,2.6s2,1.6,2.5,2.7.4,2.4.8,3.6,1.5,3.1,1.8,4.7v1.1c0,1.3-.4,2.6-.5,3.9S146.9,83.1,146.5,84.7Z"/><polyline class="cls-8" points="128.5 94.9 128.5 94.9 128.5 94.8"/><path class="cls-9" d="M125.8,104.5c.3.2.9.3,1.2.6s.2,1.2.6,1.6.9.2,1.4.4h.1a.1.1,0,0,1,.1.1c.4.3.5,1.2,1,1.4s1.2-.2,1.7,0h.3l.3.2h.2a.1.1,0,0,1,.1.1H134l.5-.3h.4c.5,0,1.1.6,1.6.5s.9-.9,1.3-1.1h1.6l.6-.2h.6a.1.1,0,0,1,.1-.1l.4-.2h.1c0-.1.1-.1.1-.2h.1l.2-.2h.1a.1.1,0,0,1,.1-.1v-.4h0a.3.3,0,0,1,.1-.2l.3-.7.2-.4.3-.8.3-.7c.6-1.1,1.8-2,2.3-3.3s.2-2.6.6-4,1.3-2.4,1.5-3.7-.3-2.7-.1-4,.7-2.6.7-3.9-.7-2.7-.8-3.9.2-2.8-.1-4.1a.8.8,0,0,0-.2-.4"/><path class="cls-3" d="M62.1,95.7c-3.5,4-4.1,7.3-5.8,12s-2.4,6.4.5,8.6a4,4,0,0,0,4.1.6,10.9,10.9,0,0,0,4.1-3.2c.5-.6,5.6-.3,9-4.2s2.9-9.2,2-12.2S69,87.7,62.1,95.7Z"/><path class="cls-10" d="M56,111.2c-.1-.2-.4,0-.4.2a2.8,2.8,0,0,0,1.2,1.9,3.2,3.2,0,0,0,1.2,3.3c.1.1.4,0,.3-.2a5.6,5.6,0,0,1-1-3,3.6,3.6,0,0,0,2-.6c.3-.3.5-.8-.4-.5S56.9,112.7,56,111.2Z"/><path class="cls-6" d="M69.4,104.1s-.6,1.8-1.7,1.8-1.1-.5-1.8-.1l.4-.9c.3-.6.6-1.4,1.3-1.6A1.3,1.3,0,0,1,69.4,104.1Z"/><path class="cls-10" d="M69.3,103.9a2.1,2.1,0,0,1-1.8,1.7,1.7,1.7,0,0,1-1.2-.7c.3-.6.6-1.4,1.3-1.6A1.2,1.2,0,0,1,69.3,103.9Z"/><circle class="cls-11" cx="68.2" cy="104" r="0.4"/><path class="cls-7" d="M72.1,90.3c-.5-.1-.9-.9-1.4-1s-1,.7-1.5.7-1.1-.7-1.6-.7-.9.8-1.4.9-1.2-.6-1.7-.5-.8,1-1.3,1.2-1.2-.4-1.7-.2-.5,1.2-.9,1.4-1.4.1-1.7.5.2,1.2.1,1.7-.7,1-.5,1.6,1.2.6,1.5,1.1.1,1.4.5,1.7,1.3,0,1.8.3.8,1.1,1.3,1.3,1.2-.5,1.8-.5,1,.9,1.6.9,1.1-.7,1.7-.7,1.1.8,1.6.9,1.2-.7,1.7-.6.9,1,1.3,1.2,1.4.3,1.6.8-.5,1-.5,1.3.6,1,.4,1.4-1,.3-1.3.6,0,1.1-.4,1.4-1.1,0-1.4.3-.1,1.1-.5,1.3-1.1,0-1.4.3-.1,1.1-.3,1.4-1.2.2-1.4.5.4,1,.3,1.4-.8.9-.7,1.3,1,.5,1.5.8.7,1,1.3,1.1,1-.8,1.6-.9,1.1.5,1.7.4.7-1.1,1.2-1.2,1.3.3,1.8.1.7-1.1,1.1-1.4,1.3.2,1.8,0,.6-1.2,1-1.5,1.3.1,1.7-.2.4-1.3.7-1.6,1.6-1,2-1.7.1-1.8.3-2.5,1.1-1.6,1-2.4-.9-1.6-1.1-2.3,0-1.9-.4-2.6-1.6-.9-2.2-1.5-.7-1.7-1.3-2.2-1.8-.4-2.5-.8-1.1-1.5-1.9-1.9-1.8,0-2.5-.2Z"/><path class="cls-9" d="M112.3,108.4c2-.6,3.1-.4,3.3,0a4.9,4.9,0,0,1,0,3.3c-.3.9-1.3,1.7-1.8,2.9a2.9,2.9,0,0,0-.3,1c0,.2-.1.3-.1.5a6.1,6.1,0,0,1-.5,1.8c-.6.9-1.7,1.5-2.4,2.5s-.8,2.2-1.5,3-2.1,1.2-2.9,2-1.3,1.9-2.3,2.5l-.4.2h-.6l-1.1.2h-1.5l-.4.2h-.2a3.7,3.7,0,0,1-1.5.8c-.8.1-1.7-.6-2.4-.8h-.1c-.9-.2-1.9.1-2.6-.3s-1.1-1.4-1.8-2-.3-.3-.6-.5a5.4,5.4,0,0,1-1.6-1,3,3,0,0,1-.4-1h0a.4.4,0,0,0-.1-.3"/><path class="cls-12" d="M90,116.4h-.1"/><path class="cls-13" d="M86,120.2l.4.8.8.9"/><path class="cls-14" d="M66.6,113.2h0a16.2,16.2,0,0,0,2,2.8,7.2,7.2,0,0,0,5.3,3.1H75a2.7,2.7,0,0,0,.7.8c.7.6,1.9.6,2.8,1s2.2,1.8,3.4,2.2a9.2,9.2,0,0,0,2.9.3h1.1l2.7.9h1a1.1,1.1,0,0,1-.1-.8.9.9,0,0,1,.3-.6c.5-.5,1.1-.9,1-1.4s-.5-1-1-1.5a1.8,1.8,0,0,1-.4-1c-.1-.6.4-1.4.5-2a2,2,0,0,0,.1-.7h-.1c-.6-.9-2.3-1-3.1-1.8s-.8-2.6-1.6-3.3-1.7.4-2.3.2h-.1c-.3-.1-.4-.5-.6-.8s-.2-1-.5-1.2-2,.2-2.6-.3a.9.9,0,0,1-.3-.7c-.1-.6.1-1.4-.2-1.9a14.6,14.6,0,0,0-2.4-1.5l-.7-.6-1.1-1.1c-.6-.6-1.3-.9-1.9-.1h-.1c-.1.1.1.3.3.6h0c.2.3.6.6.5.8h-.1"/><path class="cls-15" d="M88.8,124.5l-2.9-.9c-1.2-.2-2.7.1-4-.4s-2.1-1.6-3.4-2.2-2.1-.4-2.8-1a2.7,2.7,0,0,1-.7-.8H73.9a7.2,7.2,0,0,1-5.3-3.1c1.4-.4,3-.4,4.3-.8s3.5-2,5.3-1.7,2.7,2.3,4.2,3.6,1.9-.1,2.4.3,0,1.9.4,2.4,1.9.3,2.3.9-.7,1.6-.4,2.3S88.5,124,88.8,124.5Z"/><path class="cls-6" d="M85.1,109.5c-.7,1.2-9.7,3-12.5-5.1a1.9,1.9,0,0,1-.1-.8,2.3,2.3,0,0,1,.9-1.9c5.9-3.8,10.6,3.4,11.5,6.5C85.1,108.9,85.2,109.3,85.1,109.5Z"/><path class="cls-3" d="M84.9,108.2a12.6,12.6,0,0,0-5.7-5.4c-2.2-1.2-5.7.3-6.7.8a2.3,2.3,0,0,1,.9-1.9C79.3,97.9,84,105.1,84.9,108.2Z"/><path class="cls-14" d="M147.6,92.1c-.2,1.3-1.2,2.5-1.5,3.7s-.1,2.8-.6,4-1.7,2.2-2.3,3.3-.9,2.7-1.8,3.6-2.4,1.3-3.6,1.7-.8,1-1.3,1.1-1.1-.5-1.6-.5-1.1.7-1.6.6-.9-.9-1.4-1-1.3.2-1.7,0-.6-1.1-1-1.4-.1-.1-.2-.1l-.9.7c-1.3.9-3.1,1.2-4.5,2.1s-2.6,2.2-4,3-2.7.7-3.9,1.3a10.6,10.6,0,0,0-2.3,1.9,6.1,6.1,0,0,1-.5,1.8c-.6.9-1.7,1.5-2.4,2.5s-.8,2.2-1.5,3-2.1,1.2-2.9,2-1.3,1.9-2.3,2.5-2.2.5-3.3.9l-.9.5a2.6,2.6,0,0,0,.3-1.7c-.2-.5-1.8-.5-2.2-1.1s.5-1.8.2-2.4-.3-.4-.6-.6-1.2-.7-1.2-1.2,1.4-.7,1.8-1.2.1-1.8.6-2.1,1.8.5,2.3.2.4-1.9.9-2.5,2-.5,2.3-1.2-.6-1.8-.5-2.5,1.3-.7,1.3-1.1-.7-.4-1.1-.6-.3-.2-.3-.3,1.1-1,1-1.4-1.8-1.1-2-1.8,1-1.7.9-2.4-1.2-1.8-.8-2.5,1.7-.5,2.1-.9.3-1.9.9-2.1,1.4,1,2,1.1,1.3-1.1,1.9-1,.5,1.6,1,1.8,1.5-.8,2-.6,1,1.7,1.7,1.9,1.6-1.1,2.3-1.1,1.8,1,2.5.6.3-1.8.8-2.2,1.8.1,2.2-.4-.3-1.7,0-2.3,1.9-.5,2.1-1.2-.5-1.8-.2-2.4,1.8-.4,2.2-.8,1.2-2.2,2-2.2a1.9,1.9,0,0,1,1.1,1.1,5.2,5.2,0,0,0,1,1.1c.7.5,2.2,0,2.9.6s.8,2.3,1.5,2.6,1.7-.9,2.6-1.4,2.2.1,2.8-.8.5-3,1-4.4,2.2-2.3,2.4-3.8-.8-3-.7-4.4,1.5-1.4,1.5-2.1S143,78,143,77.2s1.4-1.5,1.3-2.2-1.4-1.2-1.5-1.9.8-1.6.7-2.3-1.8-1-2-1.7.6-2.2.2-3.1-2-1.4-2.3-2.3.7-1.8,1-2.6,1,1.8,1.6,2.6,2,1.6,2.5,2.7.4,2.4.8,3.6,1.5,3.1,1.8,4.7v1.1a.8.8,0,0,1,.2.4c.3,1.3-.1,2.7.1,4.1s.8,2.5.8,3.9-.7,2.6-.7,3.9S147.8,90.8,147.6,92.1Z"/><path class="cls-15" d="M127,107.8c-1.3.9-3.1,1.2-4.5,2.1s-2.6,2.2-4.1,3-2.7.7-3.8,1.3a19.2,19.2,0,0,0-2.2,1.8c-.2.1.4-2.1-1.1-2.4s-1.8-1.9-1.2-3.2,1.7-3.8,3.9-3.3.9,1.3,2.5.9,1.9-1.6,3-1.9l2.3-.5c.8,0,1.3.6,2.1-.1s.9-1.6,1.7-1.7.5.2.8,0,.2-.7.3-1,.7-1,1-.3,0,2.2.3,3.1A1.8,1.8,0,0,1,127,107.8Z"/><path class="cls-16" d="M97.7,151.1H95.3l.4-.9H93.9l.6-1a9.8,9.8,0,0,0,1.7-3.4c.5-2.5.9-6.8.1-8.1a5.1,5.1,0,0,1-.9-3.7,6.6,6.6,0,0,0,.1-1.5,19.9,19.9,0,0,0-.4-2.5h-.6a4.2,4.2,0,0,1-1.9-.3,4.1,4.1,0,0,1-1.2-1.4h-.1l-.3,1.5a11,11,0,0,0-.2,1.8c-.3,2.9.1,3.8.4,4.4a2.1,2.1,0,0,1,.4,1.2,3.4,3.4,0,0,1-.4,1.6,3.2,3.2,0,0,0-.2,1.7h0v.5H91a3.4,3.4,0,0,1-.9,3.2c-1.3,1.4-3.6,1.2-4.7,1.1h-1l.4-.9h-.6l-1.4.2.8-1.2a9.8,9.8,0,0,0,1.7-3.4c.5-2.4.9-6.8.1-8.1a5.1,5.1,0,0,1-.9-3.7c0-.4.1-.9.1-1.4a17.1,17.1,0,0,0-.4-2.4H82.3l-.6-.2a9.6,9.6,0,0,1-2-1.2l-.6-.5-.9-.5-1.1-.4a4.5,4.5,0,0,1-1.8-.7l-.6-.6h-.9a8.5,8.5,0,0,1-5.7-3.4l-.6-.7h-.1L67,115l-.7-1-.9.2a10.9,10.9,0,0,1-4.3,3.3,4.3,4.3,0,0,1-4.6-.7c-3.3-2.5-2.3-5.3-.8-9.1v-.2l1-2.7a39.1,39.1,0,0,1,1.5-4.1c-4.3-.6-7-2.8-7.1-4.2s.4-1.2,1.4-2a12.5,12.5,0,0,1,4.3-2.2l2.1-.4.8-.2h.5l.2-.4a2.3,2.3,0,0,1,.9-1.1,1.6,1.6,0,0,1,1.2.1H63l.3-.4a2.3,2.3,0,0,1,1.1-.8,1.7,1.7,0,0,1,1.2.3l.5.2.3-.3a1.7,1.7,0,0,1,1.2-.6c.5-.1.8.2,1.2.4l.4.3.4-.3a2.1,2.1,0,0,1,1.2-.4c.5,0,.8.4,1.1.7l.4.3,1.3.3h1.2a1.7,1.7,0,0,1,.6-1,2.2,2.2,0,0,1,1.1-.1h.2c0-.1.1-.1.1-.2a1.3,1.3,0,0,1,.6-.9,1.4,1.4,0,0,1,1.1-.1h.2a1.7,1.7,0,0,1,.7-1,1.7,1.7,0,0,1,1-.1h.3a8.3,8.3,0,0,0,1.4-1.3L83.4,84a9.7,9.7,0,0,1,1.9-.8,5.9,5.9,0,0,0,1.6-.7A10.3,10.3,0,0,0,88.3,81a4.9,4.9,0,0,1,1.2-1.3,8.7,8.7,0,0,1,1.8-1.1,5.3,5.3,0,0,0,1.5-.8,5.8,5.8,0,0,0,1.1-1.5,8.8,8.8,0,0,1,1.2-1.5,6.6,6.6,0,0,1,1.7-1.2,7.1,7.1,0,0,0,1.4-1A11.1,11.1,0,0,0,99.3,71a14,14,0,0,1,1-1.6l1.7-1.2a3.9,3.9,0,0,0,1.4-1,9.7,9.7,0,0,0,1.1-1.5,8.3,8.3,0,0,1,1.2-1.6,5.9,5.9,0,0,1,2-1.2,5.7,5.7,0,0,0,1.3-.8,5,5,0,0,0,1.1-1,5.6,5.6,0,0,1,1.8-1.6,6.8,6.8,0,0,1,2-.7l1.6-.4,1.3-.7a4.9,4.9,0,0,1,2-1.1,8.1,8.1,0,0,1,2.2-.1,7.5,7.5,0,0,0,1.5,0l1.4-.4a6.5,6.5,0,0,1,2.3-.6,6.4,6.4,0,0,1,2.3.5l1.4.4h1.4a6.5,6.5,0,0,1,2.4.2,5.1,5.1,0,0,1,2,1.2l1.2.8,1.3.5a6.5,6.5,0,0,1,2.2,1.1l.6.6.8,1.4.7,1.2,1,1a5.6,5.6,0,0,1,1.6,1.8,7.9,7.9,0,0,1,.5,2.2,6.6,6.6,0,0,0,.3,1.5l.7,1.8a12.1,12.1,0,0,1,1.1,3v1a.4.4,0,0,1,.1.3v.2a5.7,5.7,0,0,1,.1,1.4v1a4.9,4.9,0,0,0,0,1.7,2.7,2.7,0,0,0,.3,1.2v.4a9.3,9.3,0,0,1,.5,2.4,9.3,9.3,0,0,1-.4,2.3,4.7,4.7,0,0,0-.4,1.7h0a5,5,0,0,0,.1,1.7,8.9,8.9,0,0,1,0,2.3v.2a7.8,7.8,0,0,1-.9,2.1l-.2.5a10.4,10.4,0,0,0-.4,1,7.9,7.9,0,0,0-.2,1.7,8.5,8.5,0,0,1-.4,2.2v.2a9.6,9.6,0,0,1-1.4,2.1,4.7,4.7,0,0,0-.9,1.2l-.3.6v.2a1.4,1.4,0,0,0-.2.6v.2a3.6,3.6,0,0,0-.4.9l-.2.3v.3l-.2.2v.2l-.2.2h-.1c.1,0,0,0,0,.1a.2.2,0,0,0-.2.2h-.2l-.4.2h-.1l-.3.2h-.5a.6.6,0,0,0,.1.4c.9,1.4.6,3,.3,4.6a9.9,9.9,0,0,0-.2,1.7c-.3,3,.1,3.8.4,4.4a2.5,2.5,0,0,1,.3,1.3,3.5,3.5,0,0,1-.3,1.6,2.2,2.2,0,0,0-.2,1.6h0v.5a3.5,3.5,0,0,1-.9,3.2c-1.3,1.4-3.6,1.1-4.7,1h-1l.4-.8h-1.9l.7-1a9.8,9.8,0,0,0,1.7-3.4h0c.5-2.7.9-6.9.1-8.1a4.6,4.6,0,0,1-.9-3.7c0-.4.1-.9.1-1.4h-1.4l-.4-.2.3-.6-.4.5h0l-.2-.2c-.1-.1-.1-.2-.2-.2h-.7a1.3,1.3,0,0,1-1.2-.1,1,1,0,0,1-.5-.4.8.8,0,0,1-.1.4c-.2,3,.2,3.8.5,4.4a2.1,2.1,0,0,1,.3,1.2,4.3,4.3,0,0,1-.3,1.7,2.7,2.7,0,0,0-.3,1.6h.1v.6h0a3.3,3.3,0,0,1-.9,3.1c-1.3,1.4-3.6,1.2-4.7,1.1h-1l.4-.9h-2l.8-1.1a11.2,11.2,0,0,0,1.7-3.5,23.7,23.7,0,0,0,.4-7.2l-.4.2-1.8,1.4a18.4,18.4,0,0,1-2.2,1.7,9.4,9.4,0,0,1-2.2.7,8.5,8.5,0,0,0-1.7.6l-.5.3-1.1.9-.4.4h0a6.4,6.4,0,0,1-.6,1.8,6.1,6.1,0,0,1-1.3,1.5l-1.1,1.1a13.4,13.4,0,0,0-.6,1.2v.3a4.3,4.3,0,0,1-.9,1.6,7.4,7.4,0,0,1-1.7,1.2l-1.1.8a3.2,3.2,0,0,0-1,1,4.6,4.6,0,0,1-1.5,1.6l-.4.2-.8.3h-1.5a4.2,4.2,0,0,0,.2,1.8c.9,1.4.6,3,.3,4.6a8.8,8.8,0,0,0-.2,1.7c-.3,3,.1,3.8.4,4.4a2.5,2.5,0,0,1,.4,1.3,4.2,4.2,0,0,1-.4,1.6,2.7,2.7,0,0,0-.2,1.6h0a1.1,1.1,0,0,0,.1.5,4.2,4.2,0,0,1-.9,3.2A5,5,0,0,1,97.7,151.1Zm-.4-1.3a3.7,3.7,0,0,0,2.9-.7,2.9,2.9,0,0,0,.5-2.2v-.2l-.3-.3.2-.3a4.2,4.2,0,0,1,.3-2,2,2,0,0,0,.3-1.1,1.9,1.9,0,0,0-.2-.7c-.4-.8-.9-1.8-.6-5.1l.3-1.9c.3-1.4.5-2.6-.2-3.6s-.4-.9-.4-2.9v-.5l.7-.2h1.8l.3.6v-.6h.1l.4.6-.2-.6.4-.2a6.3,6.3,0,0,0,1.1-1.2,6.9,6.9,0,0,1,1.1-1.3,4.2,4.2,0,0,1,1.4-.9,7.1,7.1,0,0,0,1.4-1,6.7,6.7,0,0,0,.6-1.2v-.2l.8-1.6a7.4,7.4,0,0,1,1.2-1.3,3.8,3.8,0,0,0,1.1-1.1,5.8,5.8,0,0,0,.5-1.4h0v-.2l.2-.2c.2-.2.4-.3.5-.5l1.1-.9h.1l.7-.4a6.8,6.8,0,0,1,2-.7,10.6,10.6,0,0,0,1.9-.6c.7-.4,1.3-1,2-1.5a7.5,7.5,0,0,1,2-1.5l1.1-.6.6-.3.3.6c1,2.4,0,8-.2,8.6a11,11,0,0,1-.9,2.4l.3-.3.5,1.8a3.7,3.7,0,0,0,2.8-.8,2.3,2.3,0,0,0,.6-2.1c0-.1,0-.1-.1-.2l-.6-.4.5-.3a4.9,4.9,0,0,1,.4-1.9,2.4,2.4,0,0,0,.3-1.2,2.5,2.5,0,0,0-.2-.7c-.4-.7-.9-1.7-.6-5a10.8,10.8,0,0,1,.3-1.9v-.8l.9.3h.3l.3.4c.1.2.2.3.2.5v.2h0l.2.2h2.1l.3.3-.3.5.4-.4.4.3h0l.3-.2.3.4h0l-.2-.4h.2l.2-.2h.1l.8-.3v.8a5.7,5.7,0,0,1,.1,1.2v1.5a3.3,3.3,0,0,0,.7,2.9c1.2,2,.3,7.6.1,8.9h0v.3a15.7,15.7,0,0,1-.9,2.3l.3-.3.5,1.7a3.3,3.3,0,0,0,2.8-.7,2.5,2.5,0,0,0,.6-2.2v-.2l-.2-.3.2-.3a3.6,3.6,0,0,1,.3-1.9,2.7,2.7,0,0,0,.3-1.2,1.9,1.9,0,0,0-.2-.7c-.4-.7-.9-1.7-.6-5.1a11.3,11.3,0,0,1,.3-1.8c.2-1.5.5-2.7-.2-3.7a2.4,2.4,0,0,1-.3-1.4v-.5l.5-.2.5-.2h.2l.4.5-.2-.6h.2l.3-.2h.4c0-.1.1-.1.1-.2l.2-.3h.1v-.2l.4-.9v-.3l.2-.6v-.2a1.6,1.6,0,0,1,.4-.7l1-1.5a4.8,4.8,0,0,0,1.2-1.7,6.9,6.9,0,0,0,.3-2,12.5,12.5,0,0,1,.3-1.9,5,5,0,0,1,.5-1.3l.2-.5a7.7,7.7,0,0,0,.7-1.7h.1a6.1,6.1,0,0,0-.1-1.9,14.1,14.1,0,0,1-.1-2c.1-.7.3-1.4.4-2a7.2,7.2,0,0,0,.4-1.9,7.1,7.1,0,0,0-.4-2v-.4a8.3,8.3,0,0,1-.4-1.5,12.1,12.1,0,0,1,0-1.9c0-.3.1-.6.1-.9s-.1-.8-.1-1.1v-.2l-.2-.2v-.3a2.8,2.8,0,0,0-.1-.9,10.7,10.7,0,0,0-.9-2.7,10.8,10.8,0,0,1-.8-1.9,11.6,11.6,0,0,1-.4-1.8,3.3,3.3,0,0,0-.4-1.7,3.6,3.6,0,0,0-1.3-1.5,13.1,13.1,0,0,1-1.1-1.2,5.7,5.7,0,0,1-.8-1.3,6.2,6.2,0,0,0-.8-1.2h0c-.1-.1-.1-.2-.3-.3a4.4,4.4,0,0,0-1.8-.9l-1.5-.6a6,6,0,0,1-1.3-.9,7.5,7.5,0,0,0-1.7-1,5.7,5.7,0,0,0-1.9-.1,8.5,8.5,0,0,1-1.6,0l-1.7-.4a4.6,4.6,0,0,0-1.9-.4,4.5,4.5,0,0,0-1.8.5,8.5,8.5,0,0,1-1.7.4h-3.6a5.1,5.1,0,0,0-1.6.9,8.3,8.3,0,0,1-1.6.9l-1.7.5a3.8,3.8,0,0,0-1.7.5,6.1,6.1,0,0,0-1.5,1.3,4.6,4.6,0,0,1-1.2,1.2,6.5,6.5,0,0,1-1.6.9,6.2,6.2,0,0,0-1.6,1,7.1,7.1,0,0,0-1,1.4,10.9,10.9,0,0,1-1.3,1.7,6.7,6.7,0,0,1-1.6,1.2,7.1,7.1,0,0,0-1.4,1,6,6,0,0,0-.9,1.3,8,8,0,0,1-1.3,1.9,10.4,10.4,0,0,1-1.7,1.2,7.1,7.1,0,0,0-1.4,1A4.5,4.5,0,0,0,95,77a7.5,7.5,0,0,1-1.4,1.7,5.4,5.4,0,0,1-1.8,1.1,4.6,4.6,0,0,0-1.5.9,3.6,3.6,0,0,0-1,1.1,9.1,9.1,0,0,1-1.7,1.7,8.4,8.4,0,0,1-1.9.9,6.9,6.9,0,0,0-1.5.7A6,6,0,0,0,83,86.2a8.3,8.3,0,0,1-1.7,1.5,2.2,2.2,0,0,1-1.1.1H80a.4.4,0,0,1-.1.3,2,2,0,0,1-.5.9,1.7,1.7,0,0,1-1.2,0h-.1v.2a1.3,1.3,0,0,1-.6.9,1.4,1.4,0,0,1-1.1.1h-.2v.2a1.2,1.2,0,0,1-.6.8,1.1,1.1,0,0,1-1.1.1h-.2l-.2.2h-.4L72,90.9a3.3,3.3,0,0,1-1-.6l-.4-.3-.3.2a2.1,2.1,0,0,1-1.1.4h-.1a2.5,2.5,0,0,1-1.1-.4l-.4-.3-.3.3a1.5,1.5,0,0,1-1.1.6,1.4,1.4,0,0,1-1.1-.3h-.5l-.3.3a2.4,2.4,0,0,1-.9.8,2.5,2.5,0,0,1-1.2-.1h-.4c-.1,0-.2.3-.2.4a2.3,2.3,0,0,1-.7,1,3.5,3.5,0,0,1-1.1.3h-.7l-1.9.4a9.6,9.6,0,0,0-3.9,2c-.7.6-.9.9-.9,1s2.3,2.7,6.8,3h.9l-.4.8a44,44,0,0,0-1.8,4.8c-.3.8-.6,1.8-1,2.7v.2c-1.5,4.1-2,5.9.4,7.7a3.1,3.1,0,0,0,3.4.5,8.9,8.9,0,0,0,3.9-3,3.6,3.6,0,0,1,1.7-.6l.8-.2,1,1.8a1,1,0,0,0,.4.5h0l.6.8a7.1,7.1,0,0,0,4.9,2.9h1.5l.2.4a1,1,0,0,0,.5.6,2.5,2.5,0,0,0,1.3.5l1.4.4,1,.7a1.8,1.8,0,0,1,.7.5,7,7,0,0,0,1.6,1h3.1l.2.5a17,17,0,0,1,.4,3.1V128a3.9,3.9,0,0,0,.7,3c1.3,2.1.2,8.3.1,9a13.3,13.3,0,0,1-1,2.4l.4-.3.4,1.8a3.7,3.7,0,0,0,2.8-.8,2.5,2.5,0,0,0,.6-2.2h0l-.9-.6.8-.2a3.2,3.2,0,0,1,.3-1.8,2.4,2.4,0,0,0,.3-1.2,2.5,2.5,0,0,0-.2-.7c-.4-.7-.9-1.7-.6-5.1l.3-1.8a6.4,6.4,0,0,0,.2-2.7l-.2-1.3,1.1.6.8.5a6.1,6.1,0,0,1,.7,1,4.4,4.4,0,0,0,.8,1h2.9l.2.4a25.7,25.7,0,0,1,.5,3.2c0,.7-.1,1.1-.1,1.6a3.6,3.6,0,0,0,.7,2.9c1.3,2.1.3,8,.1,9v.4h-.2a6.4,6.4,0,0,1-.8,1.9l.4-.2Zm3.5-21.1h0Zm-25.9-9.5Zm58.9-9.7.2.4v-.2Z"/></g></g></svg>