<?xml version="1.0" encoding="utf-8"?>
<!-- Generator: Adobe Illustrator 25.4.1, SVG Export Plug-In . SVG Version: 6.00 Build 0)  -->
<svg version="1.1" id="Layer_1" xmlns="http://www.w3.org/2000/svg" xmlns:xlink="http://www.w3.org/1999/xlink" x="0px" y="0px"
	 viewBox="0 0 200 200" style="enable-background:new 0 0 200 200;" xml:space="preserve">
<style type="text/css">
	.st0{fill:#FFE9D0;}
	.st1{fill:#C1A38F;}
	.st2{fill:#C1B9AD;}
	.st3{fill:#E5C9B3;}
	.st4{fill:#827A6E;}
	.st5{opacity:0.5;fill:#B3B3B3;enable-background:new    ;}
	.st6{opacity:0.32;}
	.st7{fill:#FFFFFF;}
	.st8{fill:#F4DBC3;}
	.st9{fill:none;stroke:#4C2E19;stroke-width:0.15;stroke-miterlimit:10;}
	.st10{fill:none;stroke:#FFFF00;stroke-width:1.5;stroke-miterlimit:10;}
</style>
<g>
	<g id="Cat_03">
		<g>
			<path class="st0" d="M85.2,75.5l1,0.3c1.2,0.6,2.2,1.6,2.7,2.8c0.4-1.1,0.9-3.2,0.4-4.4S86.5,74.3,85.2,75.5z"/>
			<path class="st1" d="M91,94.9c0,0-0.6,0.9,0.4,4.8s1.8,10.5,0.9,11s-1.3,1.4-0.5,1.9s4.2,1.2,4.8-1.5s1.5-8.9,1.5-8.9
				C96.7,100.3,91,94.9,91,94.9z"/>
			<path class="st2" d="M91.8,112.6c-0.8-0.4-0.4-1.3,0.4-1.8s-0.5,1.9,1.8,2.2C93.2,113,92.5,112.9,91.8,112.6z"/>
			<g>
				<path class="st3" d="M93.2,112.9c2.5-0.9,0.5-9.3,0.5-9.3l4,1c-0.3,2-0.8,4.8-1.1,6.5S94.5,113.1,93.2,112.9L93.2,112.9z"/>
			</g>
			<path class="st4" d="M73,84.1c-0.2,2.6,1.8,4.8,4.4,5c0,0,0,0,0,0c2.4,0,4.3-2.2,4.3-5.1s-1.9-5.1-4.3-5.1S73,82.1,73,84.1z"/>
			<path class="st5" d="M76.8,86.1c0,1-0.3,2-0.8,2.8c-1.9-0.8-3.1-2.7-3-4.8c0-0.5,0.1-1,0.3-1.5c0.3-0.2,0.6-0.3,1-0.3
				C75.7,82.3,76.8,84,76.8,86.1z"/>
			<path class="st1" d="M112.6,99.3c0,0,6-1.8,6.9,0.6s0.4,7.9,1.7,9.5c1.4,1.8,1.8,4.2,1,6.3c-0.9,2.9-2.5,3.5-4.1,3.6
				c-0.7,0.1-1.4-0.4-1.5-1.1c0-0.1,0-0.1,0-0.2c-0.1-0.5,0.3-0.9,0.8-1c0.1,0,0.1,0,0.2,0h0.1c1.2-2,1.4-3.5-3-6.2
				S112.6,99.3,112.6,99.3z"/>
			<g>
				<path class="st3" d="M118.1,111.2c-2.1-0.4-3.9-2-4.4-4.1c0,0,2.2-7,4.9-7.8h0.4c0.2,0.1,0.4,0.3,0.5,0.6
					c0.8,2.3,0.4,7.9,1.7,9.5c1.4,1.8,1.8,4.2,1,6.3c-0.9,2.9-2.5,3.5-4.1,3.6C121.1,118.2,121.9,112.2,118.1,111.2z"/>
			</g>
			<path class="st0" d="M117.6,117L117.6,117c0.1,0-0.7,1.4,1.2,2.3h-0.7c-0.7,0.1-1.4-0.4-1.5-1.1c0-0.1,0-0.1,0-0.2
				c-0.1-0.5,0.3-0.9,0.8-1C117.5,117,117.5,117,117.6,117z"/>
			<path class="st0" d="M81.6,100.1L81.6,100.1c0,0.1,0.1,0.2,0.1,0.4c0.1,0.3,0.2,0.5,0.4,0.8c0.8,1.1,1.7,2,2.8,2.8
				c1.1,0.8,2.4,1.5,3.7,1.9l0.9,0.2h4.1l0.7,0.2h0.2c0.1,0,0.1,0,0.1,0.1c1.1,0.2,2.1,0.6,3.1,1.1c1.4,0.8,2.7,1.7,3.9,2.8
				c1.1,1,2,2.1,2.8,3.3c2.7,0.6,5.5,0.7,8.2,0.4l1.7-0.3c2.2-0.5,4-1.9,5.2-3.8c1-1.9,1.4-4.5,0.7-8.2l0,0c0-0.2,0-0.3-0.1-0.5l0,0
				c-0.1-0.6-0.2-1.1-0.4-1.7l-0.5-1.1c-0.1-0.3-0.3-0.5-0.5-0.8h-0.1c0-0.1,0-0.1-0.1-0.2c-0.4-0.7-0.9-1.3-1.5-1.9
				c-3.1-3-5.6-1.9-11.6-4.4c-3.8-1.6-7.2-3-10-5.1c-1.3-1.1-2.9-1.8-4.6-1.8h-1l-1.1,0.3c-0.4,0.3-4.5,2.3-6.6,6.5l-0.6,1.6l0,0
				c-0.2,0.6-0.3,1.3-0.4,1.9C80.8,96.4,81,98.3,81.6,100.1z"/>
			<path class="st0" d="M75.7,88.8L75.7,88.8c1.1,1.5,2.8,2.2,4.6,2c0,0.1,0.1,0.2,0.1,0.3c0,0.1,0,0.1,0.1,0.2v0.2
				c0.1,0.2,0.2,0.3,0.2,0.4v0.2c0,0.1,0,0.1,0.1,0.2c0,0.1,0.1,0.1,0.1,0.2H81l0.3,0.5h0.1c0.4,0.4,0.8,0.7,1.3,1h0.1l0.4-0.4
				l7.5-8.6c0.1-0.1,0.1-0.1,0.1-0.2l0,0v-0.3c-0.4-2-1-4-1.9-5.9c-0.5-1.2-1.5-2.2-2.7-2.8l-1-0.3c-1.2-0.2-2.5-0.2-3.7,0.1
				L81,75.8c-0.8,0.2-1.5,0.5-2.2,0.9c-1.3,0.8-2.5,1.8-3.5,3h-0.1c0,0.1,0,0.1-0.1,0.1c-0.5,0.7-0.7,1.5-0.8,2.4
				C73.9,84.5,74.4,86.8,75.7,88.8z"/>
			<path class="st5" d="M80.3,90.8L80.3,90.8c1.7-0.3,1.9,1,1.9,1l-0.5,1.7C81,92.8,80.5,91.8,80.3,90.8z"/>
			<g>
				<path class="st3" d="M84.9,75.5c0.3,0,0.6,0.1,0.8,0.3c0.9-1,2-1.7,3.3-2l0.3,0.4c0.5,1.2,0,3.3-0.4,4.4
					c0.2,0.4,0.4,0.9,0.6,1.4c-2.9-4.1-10.1-1.6-10.1-1.6s-0.7,0.3-1.4-1.2C80,75.7,82.5,75.1,84.9,75.5z"/>
			</g>
			<path class="st0" d="M83.2,96.5c0,0-2.6,2.4-1.3,7.3s1.8,10.8,0.9,11.3s-1.3,1.5-0.5,2s4.2,1.2,4.8-1.6s2-12.6,2-12.6
				C87.7,101,83.2,96.5,83.2,96.5z"/>
			<path class="st3" d="M82.6,115.2c-0.2,0.6-0.3,1.6,1.5,2.3l-1.8-0.4C81.6,116.7,81.9,115.8,82.6,115.2z"/>
			<path class="st3" d="M85.1,106.7c-0.7-4.4,1.6-7.3,3.7-6.1s1.8,3.5,1.8,5.1c4.5-0.1,6.2,1.3,8.8,0.5c1.8-0.6,3.7-0.8,5.6-0.8
				c0,0,0.2,4.8-1.7,6c-3.4-3.2-7.9-5-12.6-4.9h-0.8l-1.3-0.3c-0.4,3.1-1.1,7.6-1.5,9.3s-1.8,2.1-3.1,2
				C85.5,116.4,85.7,110.8,85.1,106.7z"/>
			<g>
				<path class="st3" d="M83,114.8c0.6-1.5-0.1-7.4-1.1-11s0.4-6.2,1-7s-1.4,2.8-0.9,4.7S84.1,112.6,83,114.8z"/>
			</g>
			<path class="st0" d="M80.9,80c0,0-2.4-4-4.5-4.5s0,5.5-0.1,5.7C77.9,81.3,80.9,80,80.9,80z"/>
			<path class="st3" d="M76.4,79.8c0,0-1.4-2.4-1-3.6s3.3,2.3,3,4.6c-0.2-0.3-0.3-0.6-0.4-0.9c-0.1,0.1-0.2,0.2-0.2,0.4
				c-0.1-0.4-0.2-0.8-0.2-1.2c-0.1,0.3-0.1,0.6-0.1,0.9c-0.1-0.2-0.2-0.4-0.2-0.6c-0.1,0.1-0.1,0.3-0.1,0.4
				c-0.3-0.6-0.5-1.2-0.7-1.9c0,0.6,0.1,1.2,0.4,1.8c-0.2-0.1-0.4-0.3-0.5-0.5C76.5,79.4,76.5,79.6,76.4,79.8z"/>
			<g>
				<path class="st3" d="M76.4,79.8c0,0-1.4-2.4-1-3.6s3.3,2.3,3,4.6c-0.2-0.3-0.3-0.6-0.4-0.9c-0.1,0.1-0.2,0.2-0.2,0.4
					c-0.1-0.4-0.2-0.8-0.2-1.2c-0.1,0.3-0.1,0.6-0.1,0.9c-0.1-0.2-0.2-0.4-0.2-0.6c-0.1,0.1-0.1,0.3-0.1,0.4
					c-0.3-0.6-0.5-1.2-0.7-1.9c0,0.6,0.1,1.2,0.4,1.8c-0.2-0.1-0.4-0.3-0.5-0.5C76.5,79.4,76.5,79.6,76.4,79.8z"/>
			</g>
			<g>
				<path class="st5" d="M80.1,79.5c0,0-2-4.4-4.4-4C76.8,75.6,78.6,76.7,80.1,79.5z"/>
			</g>
			<path class="st3" d="M74.4,82.6c0.1-1.3,1.5-3.5,4.9,1.5H79c0.7,0.9,1.1,1.9,1.3,3c-0.2-0.2-0.3-0.4-0.3-0.7
				c0.2,1.1,0.2,2.2,0,3.3c0-0.2-0.1-0.5-0.2-0.7c-0.2,0.9-1.2,1.6-1.7,1.5S74.1,88,74.4,82.6z"/>
			<g>
				<path class="st3" d="M74.4,82.6c0.1-1.3,1.5-3.5,4.9,1.5H79c0.7,0.9,1.1,1.9,1.3,3c-0.2-0.2-0.3-0.4-0.3-0.7
					c0.2,1.1,0.2,2.2,0,3.3c0-0.2-0.1-0.5-0.2-0.7c-0.2,0.9-1.2,1.6-1.7,1.5S74.1,88,74.4,82.6z"/>
			</g>
			<g class="st6">
				<path class="st7" d="M81,75.8c0.3-0.1,8-1.3,8.7,8.7c0,0.1,0.1,0.1,0.1,0.2l0.9,0.3c1.3,0.2,3.4,0.7,4.4,2s8.1,5.9,17.9,7.4
					c1.9,0.6,3.5,1.7,4.7,3.3h0.8c-0.4-0.7-0.9-1.3-1.5-1.9c-3.1-3-5.6-1.9-11.6-4.4c-3.8-1.6-7.2-3-10-5.1
					c-1.3-1.1-2.9-1.8-4.6-1.8c-0.4-2-1-4-1.9-5.9c-0.5-1.2-1.5-2.2-2.7-2.8l-1-0.3c-1.2-0.2-2.5-0.2-3.7,0.1L81,75.8z"/>
			</g>
			<path class="st0" d="M103.5,103.8c2.4-1.4,7.6,3.8,9.5,5.8c0,0-1.4,5.4,0.2,7c1.6,1.6,2.1,4.1,1.2,6.2c-1.1,3-3,3.6-4.9,3.7
				s-2-0.8-2-1.3s0.6-1,1.3-1h0.1c0-0.1,0-0.1,0.1-0.1c1.4-2,1.7-3.5-3.7-6.2S101.3,105,103.5,103.8z"/>
			<g>
				<path class="st0" d="M102.6,104.8c-0.2,0.8-1.7,8.4,1.3,11.4s6.2,3.5,5.9,5.6c-0.1-1.1-1.3-2.3-4.5-3.9S101.1,107.7,102.6,104.8
					z"/>
			</g>
			<path class="st0" d="M107.5,125.2c0.1-0.6,0.6-1.1,1.2-1c0,0,0,0,0,0c-0.4,0.9,0,1.9,0.8,2.3
				C107.9,126.5,107.5,125.7,107.5,125.2z"/>
			<path class="st8" d="M118.1,97.9c1.7,2.8,2.7,6,2.9,9.3c0.3,5.1,3.6,10.4,6.9,12.1c0.7,0.3,1.2,1.1,1,1.9
				c-0.3,1.3-1.8,0.9-2.3,0.6c-2.1-1.6-3.9-3.7-5.2-6.1c-1.8-3.1-2.8-6.5-3-10.1C118.3,103.1,116.4,96.7,118.1,97.9z"/>
		</g>
		<path class="st9" d="M75.4,88.4L74.8,88l0,0l-0.9-1.1l0,0c-0.2-0.2-0.3-0.4-0.4-0.6l0,0c-0.1-0.2-0.2-0.4-0.2-0.6l0,0
			c-0.1-0.2-0.2-0.5-0.2-0.7v-0.2c0-0.2-0.1-0.4-0.1-0.7s0.1-0.5,0.1-0.7l0,0c0.3-1.4,1.1-2.8,2.2-3.7l0,0l0.4-0.4
			c-0.6-1.5-1-3.5,0-3.8h0.8c0.6,0.1,1.1,0.4,1.5,0.8l0.5,0.5l0,0l0.3-0.2H79l0.7-0.4h0.5l0.5-0.3H81l0.5-0.2
			c1.2-0.3,2.5-0.3,3.7-0.1c1.1-1.1,2.9-2.6,3.8-1.7l0,0l0.2,0.2h0.1c0.5,1.2,0,3.3-0.4,4.4c0.9,1.9,1.5,3.9,1.9,5.9
			c1.7,0,3.3,0.7,4.6,1.8c2.8,2.1,6.2,3.5,10,5.1c6,2.5,8.5,1.4,11.6,4.4c0.6,0.6,1.1,1.2,1.5,1.9c0.1,0.1,0.1,0.1,0.1,0.2h0.1
			c0.2,0.3,0.4,0.5,0.5,0.8l0.5,1.1c0.2,0.6,0.3,1.1,0.4,1.7l0,0c0.1,0.2,0.1,0.3,0.1,0.5l0,0l0.3,1.7c0.2,1.1,0.4,2.2,0.5,3.3
			c0.1,0.8,0.2,1.6,0.3,2.4c0.8,1,1.2,2.2,1.2,3.4c1.4,2.9,3.4,5.3,5.4,6.3c0.7,0.3,1.2,1.1,1,1.9c-0.3,1.3-1.8,0.9-2.3,0.6
			c-1.9-1.5-3.5-3.3-4.7-5.3c-0.5,1.4-1.6,2.4-3.1,2.7h-0.7c-0.7,0.1-1.4-0.4-1.5-1.1c0-0.1,0-0.1,0-0.2c-0.1-0.5,0.3-0.9,0.8-1
			c0.1,0,0.1,0,0.2,0h0.1c0.9-1.4,1.2-2.6-0.3-4.2c-0.9,0.7-2,1.2-3.1,1.5l-1.7,0.3h-0.1c-0.1,0.8,0.2,1.5,0.7,2.1
			c1.6,1.6,2.1,4.1,1.2,6.2c-1.1,3-3,3.6-4.9,3.7s-1.8-0.6-1.9-1.1s-0.1-0.1-0.1-0.2s0.1-0.1,0.1-0.2h0.5c0.2-0.2,0.4-0.2,0.7-0.2
			h0.1c0-0.1,0-0.1,0.1-0.1c0.5-0.7,0.8-1.5,0.8-2.3c0-0.2,0-0.3-0.1-0.4l0,0c0-0.1,0-0.2-0.1-0.2l0,0l-0.2-0.3
			c0-0.1-0.1-0.1-0.1-0.2l-0.2-0.2l-0.2-0.2c0-0.1,0-0.1-0.1-0.1l-0.4-0.3c0-0.1-0.1-0.1-0.1-0.2l-0.5-0.3h-0.1
			c-0.1-0.2-0.3-0.3-0.5-0.4H107l-0.7-0.4c-0.1,0-0.1,0-0.1-0.1l-0.9-0.4l-0.7-0.5h-0.1l-0.6-0.6h-0.1l-0.5-0.6h-0.1
			c-0.2-0.2-0.3-0.5-0.4-0.7l0,0c-0.2-0.2-0.3-0.5-0.4-0.8l0,0l-0.3-0.8v-0.2c-0.1-0.3-0.2-0.5-0.2-0.8l0,0
			c-0.1-0.3-0.1-0.6-0.2-0.9v-0.2c0-0.2,0.1,0.4,0,0.2l-0.1-2.1c-1.2-1.1-2.4-2.1-3.8-2.8l-0.5-0.2c0,0.2-0.1,1.5-0.1,1.7v0.2
			c-0.1,0.2-0.3,0.1-0.3,0.3h-0.1c0,0.2,0,0.4-0.1,0.5v0.3c0,0.1-0.1,0.2-0.1,0.4s-0.1,0.4-0.1,0.6l-0.2,0.5c0,0.1,0,0.1-0.1,0.2
			c-0.1,0.1-0.1,0.2-0.2,0.3c0,0.1,0,0.1-0.1,0.1l-0.3,0.3l0,0l-0.4,0.2h-1.6l-1.3-0.2h-0.6l-0.2-0.2c-0.1,0-0.1,0-0.1-0.1h-0.1
			v-0.2l0,0c0-0.1,0-0.1,0.1-0.2l0,0c0.2-0.3,0.5-0.5,0.8-0.7l0,0l0.3-0.5l0,0c0-0.3,0.1-0.6,0.1-1.1l0,0c0-0.4,0.2-1.7,0.1-2.1l0,0
			c0-0.3,0-0.7-0.1-1h-2.6l-1.3-0.3c-0.3,2.5-0.9,5.9-1.3,8.1l0,0c-0.1,0.1-0.1,0.3-0.1,0.4l0,0c0,0.1-0.1,0.2-0.1,0.3l0,0
			c0,0.1,0,0.2-0.1,0.3c0,0.2-0.1,0.3-0.1,0.5c-0.1,0.1-0.1,0.1-0.1,0.2l-0.2,0.3h-0.1l-0.2,0.3h-0.1l-0.4,0.3l0,0l-0.4,0.2h-2
			l-0.8-0.2h-0.4l-0.2-0.2c0-0.1,0-0.1-0.1-0.1l0,0v-0.2l0,0c0-0.1,0-0.1,0.1-0.2l0,0l0.2-0.2l0,0c0-0.1,0.1-0.2,0.2-0.2l0,0
			c0.1-0.1,0.1-0.2,0.2-0.2l0,0c0.1,0,0.2,0,0.2-0.1s0.2-0.2,0.2-0.3c0.3-1.6,0.4-1.9,0.1-3.5l0,0v-1.7c0-0.2,0-0.4-0.1-0.6v-0.3
			c0-0.2-0.1-0.3-0.1-0.5c0-0.1,0-0.3-0.1-0.4V108c-0.1-0.2-0.1-0.3-0.1-0.5c-0.1-0.1-0.1-0.2-0.1-0.3c0-0.2-0.1-0.4-0.1-0.6
			c-0.1-0.1-0.1-0.1-0.1-0.2c0-0.3-0.1-0.5-0.2-0.8c0-0.2-0.1-0.5-0.1-0.8s-0.1-0.1-0.1-0.2c0-0.2,0-0.4-0.1-0.6v-0.8l0,0v-1.1l0,0
			c-0.5-1.6-0.8-6.1-0.6-7.8c0.1-0.6,0.2-1.3,0.4-1.9h-0.2l-0.2-0.3h-0.2C81,92,81,91.9,81,91.9v-0.2c0-0.1,0-0.1-0.1-0.2h-0.1v-0.2
			c-0.1-0.1-0.1-0.1-0.1-0.2c0-0.1-0.1-0.2-0.1-0.3l0,0c-1.8,0.2-3.5-0.5-4.6-2l0,0l-0.3-0.2L75.4,88.4z M83,113.1
			c0,0.1,0,0.1-0.1,0.2S83,113.2,83,113.1z"/>
		<path class="st10" d="M101,99.9L101,99.9z"/>
	</g>
</g>
</svg>
