<svg xmlns="http://www.w3.org/2000/svg" viewBox="0 0 200 200"><defs><style>.cls-1{fill:#f9a01e;}.cls-2{fill:#db970f;}.cls-3{fill:#f68b1f;}.cls-4{fill:#eac113;}.cls-5{fill:#ffc271;}.cls-6{fill:#fff5bd;}.cls-7{fill:#ffa726;}.cls-8{fill:#fff;}.cls-9{fill:#383838;}.cls-10{fill:#ffca28;}.cls-11{fill:#fb8c00;}.cls-12{fill:#dbcc89;}.cls-13{fill:#f4511e;}.cls-14{fill:#db4016;}.cls-15{fill:#f9e587;}.cls-16{fill:#ffc44d;}.cls-17{fill:#82651e;}</style></defs><g id="Hen_03"><path class="cls-1" d="M104,108.7a11.8,11.8,0,0,1,0,1.9,7.8,7.8,0,0,1-.1.9,9.3,9.3,0,0,1,2.2-.6c.5,0-1.2.6-1.7,1s3.3,2.2,2.4,1.9-2.9-1.5-3.2-1.4a6.8,6.8,0,0,0-2,2.3c-.4.6.4-1.8,1-2.6l-2.3-.7a9.9,9.9,0,0,1,2.9.1,9.7,9.7,0,0,0,.2-1.2v-2.2Z"/><path class="cls-2" d="M102.6,112.1l-2.3-.7a15.6,15.6,0,0,1,2.7.4.4.4,0,0,0,.2-.3h0a9.7,9.7,0,0,0,.2-1.2v-1.7l.4.4a11.8,11.8,0,0,1,0,1.9,5.4,5.4,0,0,1-.1.8,10.2,10.2,0,0,1,2.1-.5l-1.4.7h.1l2.4,1.9c-1-.5-3.2-1.7-3.4-1.7a8,8,0,0,0-1.5,1.7l-.5.9A8,8,0,0,1,102.6,112.1Z"/><path class="cls-2" d="M104.6,106l-.3,3.8a.9.9,0,0,1-1-.1v-4Z"/><path class="cls-1" d="M104.6,106l-.2,2.3c-.4,0-.7,0-1-.7v-1.9Z"/><path class="cls-3" d="M105.5,99.6a3.6,3.6,0,0,1,1.9,2.8c.1,1.7-1.6,3.9-1.6,3.9l-.7,1a1.5,1.5,0,0,1-1.6.1c-.7-.3-.8-.4-.9-.7a15.2,15.2,0,0,1-1.7-4.4C101,101.6,102.2,100,105.5,99.6Z"/><path class="cls-4" d="M105.8,98.6a3.8,3.8,0,0,1,1.9,2.7,5.3,5.3,0,0,1-1.7,3.9,3.8,3.8,0,0,1-2.2,1.1,2.8,2.8,0,0,1-1.9-.5,10.8,10.8,0,0,1-.7-4.5C101.3,100.6,102.5,98.9,105.8,98.6Z"/><path class="cls-1" d="M97.9,107.8s.2,1.3.2,1.7v.7a6.7,6.7,0,0,1,1.9-.6c.4-.1-1,.6-1.4,1s3.1,1.6,2.3,1.4-2.7-1-3-.9a5.5,5.5,0,0,0-1.5,2.2c-.2.6.2-1.6.6-2.4a12.3,12.3,0,0,0-2-.3,6.6,6.6,0,0,1,2.5-.2v-1.1c0-.5-.2-2-.2-2Z"/><path class="cls-2" d="M97,110.9l-2-.3h2.3l.2-.2h0v-1.1c0-.3-.1-1-.1-1.5l.4.3s.2,1.3.2,1.7a5.6,5.6,0,0,1-.1.7,6.9,6.9,0,0,1,1.8-.6l-1.1.7h.1c-.1,0,.1-.1,0,0L101,112a25.2,25.2,0,0,0-3.2-1c-1.1,1.4-1.1,1.5-1.1,1.6s-.2.5-.4.8A14.2,14.2,0,0,1,97,110.9Z"/><path class="cls-2" d="M98.1,105.4l.2,3.3a.7.7,0,0,1-.9.1l-.4-3.5Z"/><path class="cls-1" d="M98.1,105.4v2c-.4.1-.6.1-1-.4l-.2-1.7Z"/><path class="cls-5" d="M98.2,99.8s1.8.7,2,2.2a6.8,6.8,0,0,1-1,3.5,4.5,4.5,0,0,1-.5,1c-.2.3-.7.4-1.4.2s-.7-.2-.9-.4-1.8-3-1.8-3.7S95.4,100.4,98.2,99.8Z"/><path class="cls-3" d="M98.4,98.8a3.2,3.2,0,0,1,1.9,2.2,4.9,4.9,0,0,1-1,3.6,4.1,4.1,0,0,1-1.9,1.2,2.4,2.4,0,0,1-1.7-.3,9.8,9.8,0,0,1-1-3.8C94.7,101,95.6,99.5,98.4,98.8Z"/><path class="cls-6" d="M106.1,89.9a3.7,3.7,0,0,0,2.1-.9,7,7,0,0,0,1.5-2.8c.2-.5.3-.9.5-1s.9.7,1,1a6.9,6.9,0,0,1,1.1,3.7c0,2.2,0,4.5-.1,7.1"/><path class="cls-7" d="M109.1,101.4a8.6,8.6,0,0,1-.6,2.3,10.1,10.1,0,0,1-2.3,3.2c-.9.7-3,.6-7.1-1.2a3.8,3.8,0,0,1-1.3-.6h-.3l-2.6-1.3-.6-.3s12.7-8.8,14.3-5l.3,1.1a3.6,3.6,0,0,1,.2,1Z"/><path class="cls-6" d="M108.5,103.7a30.2,30.2,0,0,1-5.3,1.7,13.7,13.7,0,0,1-4.1.3,15.9,15.9,0,0,1-5.4-1.3,7.8,7.8,0,0,1-1.8-1.1,6.4,6.4,0,0,1-2.8-3.7l-.3-1.1L88.6,97a13.2,13.2,0,0,1,.6-4.2,5.9,5.9,0,0,0,0-1.9A4.5,4.5,0,0,0,88.1,89a2.4,2.4,0,0,1,.6-2,3.6,3.6,0,0,1,1.5-.6c1.7-.2,2.6.3,3.5,2.7s.6,2.8,3,2.9h.2a7.4,7.4,0,0,0,3.4-1,23.1,23.1,0,0,1,3.7-1c3.6-.5,6.2.8,7.4,3.6a7.7,7.7,0,0,1,.8,2.8v.9C112.4,100.5,111.2,102.3,108.5,103.7Z"/><path class="cls-8" d="M90.4,88.2c.1.2,0,.4-.2.4s-.4.1-.5-.1a.4.4,0,0,1,.2-.4A.4.4,0,0,1,90.4,88.2Z"/><path class="cls-9" d="M90.4,88.2a.5.5,0,0,1-.2.4h-.4c-.1-.1,0-.3.2-.3A.3.3,0,0,1,90.4,88.2Z"/><path class="cls-8" d="M90.2,88.3a.1.1,0,0,1-.1.1h.1Z"/><path class="cls-10" d="M87.9,88.8a2.5,2.5,0,0,0-.1,1.4c0,.2.2.2.3.1a1.5,1.5,0,0,1,1.3-.9c.5,0,.5-.1.3-.2S88,88.5,87.9,88.8Z"/><path class="cls-11" d="M88.8,88.9a.4.4,0,0,1-.1.3h-.3a.3.3,0,0,1,.1-.2Z"/><path class="cls-12" d="M108.5,103.7a10.1,10.1,0,0,1-2.3,3.2c-.9.7-3,.6-7.1-1.2a15.9,15.9,0,0,1-5.4-1.3,12.6,12.6,0,0,0,4.1.7,2.8,2.8,0,0,0,2-.5c3,1.2,4.9.1,4.9-.8,3,0,4.3-1.5,4.2-2.4h.2c1.4-.4,2.8-1.5,3.1-4.1C112.4,100.5,111.2,102.3,108.5,103.7Z"/><path class="cls-13" d="M91.5,87a1.4,1.4,0,0,1-.9-.1,1.7,1.7,0,0,0-1.4.4,2.3,2.3,0,0,0-.8,1.2l-.2.2c-.3.1-.1-1.1-.1-1.2s.1-.4.3-.5.5-.1.5-.4-.1-.4.1-.5h.4c.2,0,.2-.1.2-.3s.2-.4.4-.3l.2.2h.3l.4-.4c.2,0,.3.3.4.4s.2,0,.3-.1h.1c.1,0,.3-.1.4,0S92.1,86.7,91.5,87Z"/><path class="cls-14" d="M91.5,87a1.4,1.4,0,0,1-.9-.1,1.7,1.7,0,0,0-1.4.4,2.3,2.3,0,0,0-.8,1.2c.1-.5.4-1.9,1.8-1.9s2-.4,1.7-.9-.2-.2-.3-.2h.1c.1,0,.3-.1.4,0S92.1,86.7,91.5,87Z"/><path class="cls-15" d="M98.5,98a23.2,23.2,0,0,1,6.8-4.9c3.5-1.4,4.5-.1,4.5-.1s.7.6-.5,1.2a4,4,0,0,1,.1,2.9,7.8,7.8,0,0,1-10,3.5A1.9,1.9,0,0,1,98.5,98Z"/><path class="cls-16" d="M98.1,98.4a7.6,7.6,0,0,1,1.6-1.7s7-5.7,8.4-3.4c.3.5-.3,1.5-1.1,2.1s1.1,1,.4,2.4-2.6,3.8-7.7,2.9h-.4C98.8,100.4,97.6,99.5,98.1,98.4Z"/><path class="cls-17" d="M110.3,85.4c.1,0,.4.1.8.8a7.5,7.5,0,0,1,1,3.7v6.7H112V97h0v.3c.1,2.4-.5,4-1.9,5.2a7.7,7.7,0,0,1-1.8,1h-.1a8.8,8.8,0,0,1-2.2,3.2,1.3,1.3,0,0,1-1,.3H105l-.6.2h-.1v2.2h-.3v.7c0,.2-.1.8-.1.8v.3h.3l1.6-.5c0,.1-.1.1-.2.1l-1.1.6h.1a17,17,0,0,1,2.1,1.5l-1.5-.8-1.4-.6h-.1a4.8,4.8,0,0,0-1.6,1.7.4.4,0,0,1,.1-.3h0l.3-.8h0l.2-.3h0c.1-.1.1-.2.2-.2V112h-.2l-1.5-.4h2.2v-.2c0-.2.1-.9.1-1.2v-.5h-.1v-2.1h0v-.3h-.1l-.5-.3h0a27.8,27.8,0,0,1-3.7-1.3H99v.2l-.4.7-.5.2H98v1.9h-.2a2.1,2.1,0,0,1,.1.6,5.6,5.6,0,0,1-.1.7v.3h.3a5.3,5.3,0,0,1,1.3-.6h-.1l-.4.2h-.3l-.2.2h.1a6.7,6.7,0,0,1,1.8,1l-1.2-.5-1.2-.4h-.2a6.3,6.3,0,0,0-1.2,1.5l.4-1.2a.4.4,0,0,0,.1-.3v-.2H97l-1.2-.2h1.9v-1.1a.4.4,0,0,0-.1-.3h-.1v-1.8h0v-.2h-.1c-.5-.1-.5-.2-.6-.3l-.4-.6h-.1l-.2-.2-.3-.4h-.1l-1.7-.6-1.9-1.1a7,7,0,0,1-2.7-3.6,6,6,0,0,1-.2-1.2,5.8,5.8,0,0,1-.2-1.4,18.2,18.2,0,0,1,.5-4.2,6.1,6.1,0,0,0,0-1.9,3.1,3.1,0,0,0-.6-1.3v-.2h-.2c-.3.2-.4.5-.6.7a3.7,3.7,0,0,1,.2-1.4h.1a5.1,5.1,0,0,1,.1-.9h0c0-.2,0-.3.2-.4h.1c.2-.1.4-.2.4-.5h0c0-.2,0-.2.1-.3h.3c.3-.1.3-.2.4-.4h0a.4.4,0,0,1,.1-.3h.6c.2,0,.2-.1.3-.2h.3v.2h.2l.3-.2h.4a1.9,1.9,0,0,1-.3.9v.2h.1a4,4,0,0,1,1.8,2.4l.3.9c.4,1.3.7,2.1,2.8,2.2H97a5.5,5.5,0,0,0,2.5-.7l.9-.4a13.3,13.3,0,0,1,3.7-.9h2.3a3.4,3.4,0,0,0,1.9-.9,6.2,6.2,0,0,0,1.5-2.9V86c.1-.3.2-.6.3-.6h.1m0-.2h-.1c-.2.1-.3.5-.5,1a7,7,0,0,1-1.5,2.8,3.7,3.7,0,0,1-2.1.9H104a23.1,23.1,0,0,0-3.7,1A8.4,8.4,0,0,1,97,92h-.3c-2.4-.1-2.3-1.1-3-2.9a4,4,0,0,0-1.8-2.5c.3-.5.5-1.1.2-1.2h-.8c-.1-.1-.2-.4-.3-.4h-.1l-.4.4h-.3l-.2-.2h-.1c-.2,0-.2.2-.3.3s0,.3-.2.3H89c-.2.1-.1.3-.1.5s-.2.3-.5.4-.2.3-.3.5a4,4,0,0,0,0,1.1h0l-.2.2a2.5,2.5,0,0,0-.1,1.4v.2h.2a1.5,1.5,0,0,1,.5-.6,6.7,6.7,0,0,1,.6,1.2,5.9,5.9,0,0,1,0,1.9,13.2,13.2,0,0,0-.6,4.2l.2,1.5.3,1.1a6.4,6.4,0,0,0,2.8,3.7,7.8,7.8,0,0,0,1.8,1.1,12.7,12.7,0,0,0,1.8.6c.1.2.1.4.2.5l.4.2.3.6.8.4v.3h0l.2,1.8h.1v1.4h-.4a7.3,7.3,0,0,0-2.1.3l2,.3c0,.1-.1.2-.1.3h0a10.8,10.8,0,0,0-.6,2h0v.2h0c.1,0,.1,0,.1-.1a5.5,5.5,0,0,1,1.5-2.2H98c.4,0,1.9.7,2.9.9h.1a13.1,13.1,0,0,0-2.3-1.3h-.1l.2-.2h.3c.5-.4,1.1-.7.9-.7h0a6.7,6.7,0,0,0-1.9.6v-1.4h.2v-1.9a.5.5,0,0,0,.5-.3,2.9,2.9,0,0,0,.4-.8,16.6,16.6,0,0,0,3.7,1.3l.6.3v.3h0v2.1h.1v.5a9.7,9.7,0,0,1-.2,1.2h0l-1.7-.2h-1.2l2.3.7-.2.3h0l-.2.3h0l-.3.8h-.1a.6.6,0,0,1-.1.4h0c-.1.3-.1.5-.2.6h0v.2h.1a6.8,6.8,0,0,1,2-2.3h0c.4,0,2.1,1.1,3.2,1.4h.1c.3-.1-1.8-1.5-2.4-1.9h-.1l1.1-.5c.5-.3.9-.5.6-.5h0a9.3,9.3,0,0,0-2.2.6,7.8,7.8,0,0,0,.1-.9c.1-.1.1-.4.1-.7h.2l.2-2.2c.2-.1.4-.1.6-.3h.1l1-.4a10.1,10.1,0,0,0,2.3-3.2l1.8-1.1c1.4-1.2,2-2.9,1.9-5.3V97h0c.1-2.6.1-4.9.1-7.1a6.9,6.9,0,0,0-1.1-3.7c-.1-.3-.6-1-.9-1Z"/></g></svg>