<svg xmlns="http://www.w3.org/2000/svg" viewBox="0 0 200 200"><defs><style>.cls-1{isolation:isolate;}.cls-2{fill:#8d6e63;}.cls-3{fill:#6d4c41;}.cls-4{fill:#e0b9ad;mix-blend-mode:multiply;}.cls-5{fill:#ffab91;}.cls-6{fill:#ffccbc;}.cls-7{fill:#3f2e2a;}</style></defs><g class="cls-1"><g id="Pig_03"><path class="cls-2" d="M116.2,124.9a1.7,1.7,0,0,0,.6.6,4.4,4.4,0,0,0,4.3-.2l-.8-.4h-.2a2.5,2.5,0,0,0-3.1-.5l.4.4Z"/><path class="cls-3" d="M116.2,124.9a1.7,1.7,0,0,0,.6.6h1.5a5.9,5.9,0,0,0,2-.6h-.2a2.5,2.5,0,0,0-3.1-.5l.4.4Z"/><path class="cls-4" d="M119,98.7c1.5.6,5.6,4.9,4.3,12.3-1,5.7,3.5,5.2,1.1,7.7a6.6,6.6,0,0,0-1.3,2.7c-.2.6,0,1.6-.4,2.4s-1.4.3-1.6,1.5c-1.9.3-2.7-.5-2.6-1s1-1.1,1.6-2.5.8-3,.5-3.6c-1.4-2.7-7.9-3.2-7.3-13.1S117,97.9,119,98.7Z"/><path class="cls-2" d="M90.5,114.3l1,.8c-1.3.8-4.5.6-5.3-1.1l1.3-.2a1.2,1.2,0,0,1-.4-.4A2.9,2.9,0,0,1,90.5,114.3Z"/><path class="cls-3" d="M86.2,114l.6.7,1.7.2a5.1,5.1,0,0,0,2.2-.4l-.2-.2a2.9,2.9,0,0,0-3.4-.9,1.2,1.2,0,0,0,.4.4Z"/><path class="cls-4" d="M93.8,94.5a54.2,54.2,0,0,0-.9,8.2c-.1,2.1.4,3,.3,4s-.8.6-.8,2.4.5,3.1.3,3.7-.9.5-1,.9.6.7-.2,1.4-2.2.1-3-.8a.7.7,0,0,1,.1-1,1.6,1.6,0,0,0,.6-1.2,9.5,9.5,0,0,0-.4-5.2c-.2-.6-.8-.8-1.1-1.6s.4-1.2.3-2c-.9-5.1-2.1-10.6-2.1-10.6Z"/><path class="cls-5" d="M82.5,71.8s-1.7-1.6.4-2.3,3.9.3,6.2,1a30.6,30.6,0,0,1,4.6,1.6,13,13,0,0,0-4.4,3.3c-1.4,1.9-.7,3.3-5.6,2s-6-3-6-3l1.9-2.1Z"/><path class="cls-6" d="M60.2,79h0a16.9,16.9,0,0,0,3.3,6.4c2.3,2.5,7.8,6,7.8,6a10.4,10.4,0,0,1,3.3,3.5,33.7,33.7,0,0,0,2.1,3.4c5.8,8.2,11.4,7.2,12.7,8.5s7.3,5.8,15.9,8.6,12.5,3.1,19.1,1.2a13.3,13.3,0,0,0,8.4-7.1,12.2,12.2,0,0,0,1-3.4,1.9,1.9,0,0,0,.1-.8,13.9,13.9,0,0,0-.2-4.5c-.3-1.7-4.8-12-18.1-16.8-8.5-3.1-18.1-3-21.2-6.4l-4.2-4.4a9.6,9.6,0,0,0-2-1.7,11.4,11.4,0,0,0-5.4-1.6,24,24,0,0,0-4,.5c-2.4.5-3,.9-7.2,2l-5.2,1.3-3.7.7c-.2-.1-1.6-.8-2.5-.3S58.8,76.9,60.2,79Z"/><path class="cls-7" d="M60.2,79a9.2,9.2,0,0,0,2.3,2.8,4.9,4.9,0,0,0,1.9.8"/><path class="cls-4" d="M76.7,98.3c5.8,8.2,11.4,7.2,12.7,8.5s7.3,5.8,15.9,8.6,12.5,3.1,19.1,1.2a13.3,13.3,0,0,0,8.4-7.1c-1.8,1.3-4.2,2.6-6.7,2.2a14.4,14.4,0,0,1-7.6-3.8l-13.1-3.6s-8.9,7-14.3,1.1-5.7-11.3-8.4-10Z"/><path class="cls-5" d="M75.6,75H75a15.4,15.4,0,0,0-7.3,3.8,14.7,14.7,0,0,0-4.2,9.2,19.8,19.8,0,0,1,7.1,1c2.9,1.1,4.6,1.9,6.4-1.7a18.6,18.6,0,0,0,1.5-8.2l-1.9.2.8-2Z"/><path class="cls-6" d="M129.7,107.5a.4.4,0,0,1,.5-.2l2.5.7c1.7.3,3.5.4,4.4-.3l.3-.2a3.7,3.7,0,0,1-2.5-1.2,1.4,1.4,0,0,1-.2-1.8,2,2,0,0,1,2.2-.8c.4.1,1.4.5,1.5,2.2a1.1,1.1,0,0,1,0,.8.1.1,0,0,0,.1-.1,1.9,1.9,0,0,0,1.5-1.8,2.5,2.5,0,0,0-2-2.6c-.1-.1-.3-.3-.2-.4s.2-.3.4-.3a3.3,3.3,0,0,1,2.5,3.4,2.8,2.8,0,0,1-1.9,2.4h-.6c-.1.4-.4.6-.7.9s-3.2.7-4.9.4l-2.7-.7h0C129.7,107.8,129.7,107.7,129.7,107.5Zm8-.7a2.5,2.5,0,0,0,.1-.9c-.1-.7-.3-1.2-.7-1.4l-.4-.2a1.3,1.3,0,0,0-1.4.6.6.6,0,0,0,.1.9A2.9,2.9,0,0,0,137.7,106.8Z"/><path class="cls-2" d="M109.7,129.4l1.2.6c-1.2,1-4.6,1.2-5.5-.4l1.3-.3-.5-.4C107.2,128.5,108.5,128.1,109.7,129.4Z"/><path class="cls-3" d="M105.4,129.6a1.6,1.6,0,0,0,.7.7h1.7a5.2,5.2,0,0,0,2.2-.7h-.3c-1.2-1.3-2.5-.9-3.5-.5l.5.4Z"/><path class="cls-6" d="M104.7,99.9a6.3,6.3,0,0,0-1.1,1.2,11.7,11.7,0,0,0-1.8,6.2,17.1,17.1,0,0,0,.3,4.7,11.2,11.2,0,0,0,4.9,7.1c1.4,1,2.7,1.8,3.2,2.8s.3,2.2-.5,4.1-1.5,1.9-1.7,2.7h0c-.1.6.7,1.5,2.9,1.2.3-1.4,1.4-1,1.8-1.8a14.7,14.7,0,0,0,.4-2.7,8.2,8.2,0,0,1,1.4-3.1c2.6-2.9-2.7-3.1,1-9.3l.2-.3c2.4-4.2,2.5-7.5,1.8-9.9"/><path class="cls-2" d="M82.5,118.5l1.1.9c-1.3,1-4.7.7-5.5-1.3l1.4-.2-.4-.4A2.5,2.5,0,0,1,82.5,118.5Z"/><path class="cls-3" d="M78.1,118.1a4.7,4.7,0,0,0,.6.9l1.7.2a6.1,6.1,0,0,0,2.4-.4l-.3-.3a2.5,2.5,0,0,0-3.5-1l.5.4Z"/><path class="cls-6" d="M85.9,94.9H86s-.2,1.1-.4,2.8a57.4,57.4,0,0,0-.6,6.7v.2a36.1,36.1,0,0,0,.4,4.9c-.1,1.4-.9.7-.9,2.8s.6,3.7.3,4.4-.9.6-1,1.1.7.9-.2,1.6-2.3.2-3.1-.9a.7.7,0,0,1,.1-1.1,2.5,2.5,0,0,0,.6-1.5,11.6,11.6,0,0,0-.5-6.3c-.2-.7-.8-.8-1-1.8s.4-1.4.2-2.4-.4-2.5-.6-3.7a18.7,18.7,0,0,0-.4-2.5c0-.3-.1-.6-.1-.9L78.5,97l-.3-1.7"/><path class="cls-7" d="M108.2,131.3a5.1,5.1,0,0,1-2.2-.5h-.6l-.5-.6-.4-.6,1-.3-.2-.2.7-.3a4.1,4.1,0,0,1,1.8-.5h0l.4-.6a7.4,7.4,0,0,0,1.1-1.6c.7-1.9.7-3.2.4-3.6a6.8,6.8,0,0,0-2.3-2.1l-.7-.6a12,12,0,0,1-4-4.3c0-.1-.1-.1-.1-.2a52.9,52.9,0,0,1-9.6-4.8,5.4,5.4,0,0,0,.2,1.5,1.9,1.9,0,0,1,0,1.3c-.2.4-.6.6-.8.8s-.2,0-.2.1v.2c.3.5.1.9-.5,1.4a5.1,5.1,0,0,1-5.2-.3h-.2c-.1-.1-.2-.1-.2-.2s-.4-.4-.4-.6l-.3-.7h.9l-.2-.2.8-.3,1.4-.2a.9.9,0,0,0,.3-.6,9.1,9.1,0,0,0-.4-5.1l-.2-.2-.8-.2-1.7-.5a8.8,8.8,0,0,0,.2,1.7,9.7,9.7,0,0,1,.1,1.7,2.7,2.7,0,0,1-.5,1.3c-.2.3-.3.5-.3,1.5a18.5,18.5,0,0,0,.2,3.1,2.2,2.2,0,0,1,0,1.4,1.4,1.4,0,0,1-.8.9l-.2.2a.8.8,0,0,0,.1.4c.2.5.2.9-.5,1.5a5.1,5.1,0,0,1-5.4-.3h-.1l-.2-.2c0-.1-.1-.1-.1-.2l-.5-.7-.2-.7h1l-.2-.3.7-.2a2.1,2.1,0,0,1,1.5-.3,1.9,1.9,0,0,0,.3-.9,11.5,11.5,0,0,0-.5-6,.9.9,0,0,0-.3-.6,2,2,0,0,1-.7-1.3,2.2,2.2,0,0,1,.1-1.4,1.8,1.8,0,0,0,.1-1l-.6-3.8h0a26,26,0,0,1-2.5-3.1,28.4,28.4,0,0,1-2.2-3.4A9.4,9.4,0,0,0,71,91.9a52.3,52.3,0,0,1-4.5-3.2,17.2,17.2,0,0,0-3-.1h-.6V88a10.6,10.6,0,0,1,.3-2c-.1-.1-.1-.2-.2-.2a18.2,18.2,0,0,1-3.4-6.6,5,5,0,0,1-.8-3.9,2.3,2.3,0,0,1,1-1.6,3.3,3.3,0,0,1,2.8.1l3.6-.6,5.2-1.3,3.5-1c1.4-.4,2.2-.7,3.7-1l3.2-.5a2,2,0,0,1,.8-.4c1.8-.6,3.3-.1,4.9.4l1.7.6a44.5,44.5,0,0,1,4.6,1.6l1.1.5-1.1.5a18.3,18.3,0,0,0-2.3,1.3,33.3,33.3,0,0,1,3.2,3.4c1.7,1.8,5.7,2.6,10.3,3.5a79.9,79.9,0,0,1,10.7,2.7c13.4,4.9,18.1,15.3,18.4,17.2a16.3,16.3,0,0,1,.3,3.1,2.6,2.6,0,0,1,4.5,2,1.2,1.2,0,0,0,.5-1,2,2,0,0,0-1.6-2.1.9.9,0,0,1-.6-1.1.9.9,0,0,1,1-.6,3.6,3.6,0,0,1,2.9,3.9h0a3.2,3.2,0,0,1-2.3,2.9h-.3a2.7,2.7,0,0,1-.7.8c-1,.7-2.5.9-4.5.7l-.2.3-.6,1.3a14.6,14.6,0,0,1-5.2,5l-1.9.8c.3.6.2,1.3-.7,2.2a5.8,5.8,0,0,0-1.2,2.5c0,.2-.1.5-.1.8a3.2,3.2,0,0,1-.3,1.7,1.5,1.5,0,0,1-1,.8l-.5.3.3.2-.6.4a4.6,4.6,0,0,1-4.8.3,1.5,1.5,0,0,1-.8-.8l-.4-.6.8-.2-.2-.2.7-.3a3.4,3.4,0,0,1,1.6-.4l.4-.5a4.8,4.8,0,0,0,.9-1.4c.7-1.7.7-2.8.5-3.2s-.1-.2-.2-.3l-1,.2a26.7,26.7,0,0,1-4,0,3.6,3.6,0,0,0,.4.9,2.7,2.7,0,0,1-.4,3.6,7.3,7.3,0,0,0-1.3,2.8,3.1,3.1,0,0,0-.1,1,3.8,3.8,0,0,1-.3,1.8,1.6,1.6,0,0,1-1.1.9c-.4.2-.6.3-.7.8v.4H111A4.7,4.7,0,0,1,108.2,131.3Zm-1.7-1.4a4.4,4.4,0,0,0,3.9-.2,2.3,2.3,0,0,1,1.3-1.4l.5-.3a3.7,3.7,0,0,0,.3-1.5,4.9,4.9,0,0,1,.1-1.2,8.5,8.5,0,0,1,1.5-3.3c.9-.9.7-1.4.2-2.3a9.5,9.5,0,0,1-.6-2V117h.6a23.7,23.7,0,0,0,4.6.1l1.3-.2h.2l.2.2.6.7c.4.9.2,2.4-.5,4.1a4.5,4.5,0,0,1-1.1,1.7l-.4.5-.2.4h-.7l.5.4-1.4.3a4.1,4.1,0,0,0,3.3-.2,2,2,0,0,1,1.2-1.2c.3-.1.4-.1.5-.3a4.3,4.3,0,0,0,.2-1.2,3.7,3.7,0,0,1,.1-1.1,7,7,0,0,1,1.4-2.9c.8-.8.6-1,.3-1.5l-.4-.6.7-.2,2.3-1a12.2,12.2,0,0,0,4.8-4.5l.6-1.2c.1-.1.1-.3.2-.4l.2-.7h0v-.3a13.3,13.3,0,0,0,.5-1.9c0-.2.1-.5.1-.7a16.3,16.3,0,0,0-.2-4.4c-.3-1.8-4.8-11.7-17.8-16.4a73.8,73.8,0,0,0-10.5-2.7c-4.8-.9-8.9-1.7-10.8-3.8s-2.2-2.3-3.6-3.8l-.5-.4.5-.3a18.6,18.6,0,0,1,2-1.4c-.9-.3-2.2-.8-3.5-1.1l-1.7-.6c-1.6-.5-2.8-.9-4.2-.4l-.6.3-.2.2h-.2a15.7,15.7,0,0,0-3.2.5,19,19,0,0,0-3.6.9l-3.5,1a47.7,47.7,0,0,1-5.3,1.3l-3.8.7h-.3c-.5-.2-1.4-.5-1.9-.2a1.4,1.4,0,0,0-.6,1,4.2,4.2,0,0,0,.8,3.1h0a15.8,15.8,0,0,0,3.2,6.3l.3.3.2.2v.3a6.1,6.1,0,0,0-.3,1.6,13.8,13.8,0,0,1,2.6.2H67c2.2,1.7,4.5,3.2,4.5,3.2A9.7,9.7,0,0,1,75,94.7L77.1,98a38.8,38.8,0,0,0,2.6,3.1h.1v.3c.3,1.3.5,2.6.7,3.8a3.4,3.4,0,0,1-.2,1.5,1.4,1.4,0,0,0-.1.9,2.6,2.6,0,0,0,.5.9,1.9,1.9,0,0,1,.5.9,12.4,12.4,0,0,1,.6,6.5,3,3,0,0,1-.7,1.5l-.2.3H80l.6.6-1.6.2h.1a4.1,4.1,0,0,0,4.2.4l.2-.2h-.1a1.5,1.5,0,0,1-.1-1,1,1,0,0,1,.7-.8l.3-.4c.1-.2.1-.4,0-.9a17.3,17.3,0,0,1-.3-3.3,2.9,2.9,0,0,1,.6-2.1,1.3,1.3,0,0,0,.2-.8,3.4,3.4,0,0,0-.1-1.4,18.7,18.7,0,0,1-.2-2.7v-.8l.8.3.4.2,1.9.5,1,.3h.2a1.3,1.3,0,0,1,.5.7,9.7,9.7,0,0,1,.5,5.5,3.7,3.7,0,0,1-.7,1.4l-.2.2h-.7l.4.4-1.3.3a4.2,4.2,0,0,0,3.9.2h.1a1.3,1.3,0,0,1-.1-.9,1.4,1.4,0,0,1,.7-.8l.3-.3a2.1,2.1,0,0,0-.1-.6,13.8,13.8,0,0,1-.2-2.7v-1l.8.5a46.9,46.9,0,0,0,10.5,5.4h.2v.4h0a12,12,0,0,0,3.7,4l.7.5a7.3,7.3,0,0,1,2.7,2.5c.5.9.3,2.7-.5,4.5a5.7,5.7,0,0,1-1.2,1.9l-.4.6-.2.4h-1.1l.6.4ZM134,107.7h1.9a4.9,4.9,0,0,1-1.4-1.1l-.2-.2Zm2.4-2.9a1.1,1.1,0,0,0-.7.3c0,.1-.1.2.1.4a2.1,2.1,0,0,0,1.4.7V106a1.6,1.6,0,0,0-.4-1.1c-.1,0-.2,0-.2-.1Zm1.7-2.8Z"/><path class="cls-7" d="M120.8,118.7l-.4-1a38.2,38.2,0,0,1,4.2-1.7l.3,1Z"/><path class="cls-7" d="M92.1,109.6l-4-2.8.6-.9c.1,0,2.3,1.8,4,2.8Z"/></g></g></svg>