<svg xmlns="http://www.w3.org/2000/svg" viewBox="0 0 200 200"><defs><style>.cls-1{fill:#dbd2c1;stroke-width:0.08px;opacity:0.3;}.cls-1,.cls-11,.cls-14,.cls-2{stroke:#000;}.cls-1,.cls-11,.cls-14,.cls-17,.cls-2{stroke-miterlimit:10;}.cls-2{fill:#f4ead7;}.cls-11,.cls-14,.cls-2{stroke-width:0.04px;}.cls-3{fill:#c1955b;}.cls-4{fill:#d6aa76;}.cls-5{fill:#a3743b;}.cls-6{fill:#423b32;}.cls-7{fill:#2b2722;}.cls-8{fill:#b28957;}.cls-9{fill:#fff1e1;}.cls-10{fill:#68553e;}.cls-11{fill:#9b9286;}.cls-12{fill:#78909c;}.cls-13{fill:#262626;}.cls-14{fill:#fff;}.cls-15{fill:#e0b886;}.cls-16{fill:#6b5e4d;}.cls-17{fill:none;stroke:#4d4d4d;stroke-width:0.2px;}</style></defs><g id="Goat_03"><g id="Goat_01"><path class="cls-1" d="M80.9,97c5.6,9,12,9.1,20.1,12.9l.5.3h.1l1.4.7h1.7V111a.6.6,0,0,1,.1-.4.7.7,0,0,1,.1-.5c.2-1.1.6-2.6.8-3.9h-.1c.3-2.4-.1-4.5-2.5-4.5s-2.5.3-3.9.3c-5.9-.3-9.9-5.7-13.1-10.1l-1.5-2c-1.6-2.1-2.7-1.1-3.9.1A57.6,57.6,0,0,1,80.9,97Z"/><path class="cls-2" d="M72.9,90.9h0c.2,2.1,2.7,11.9,4.1,10.7A17.2,17.2,0,0,0,80.4,96a4.7,4.7,0,0,0,.5,1,57.6,57.6,0,0,0-.2-7c1.2-1.2,2.3-2.2,3.9-.1l1.5,2c3.2,4.4,7.2,9.8,13.1,10.1,1.4,0,2.7-.3,3.9-.3s2.8,2.1,2.5,4.5h.1c-.2,1.3-.6,2.8-.8,3.9a.7.7,0,0,0-.1.5.6.6,0,0,0-.1.4v.2l1.7-.2h1.3a26.2,26.2,0,0,0,13-4.8,13.1,13.1,0,0,0,2.8-2.4c5.3-5.4,5.3-12.1-2.2-12.6-2.1,1.3-4.3.6-6.4.8s-8.4-2.2-14-5.3C93,82.1,91.2,75,80.9,74.7a7.3,7.3,0,0,0-3,.6C74.3,77.1,72.3,82.3,72.9,90.9Z"/><path class="cls-3" d="M74.2,77.2h-.5c.6.6,1.7,1.3,3.3,0l.6-.3a2.4,2.4,0,0,1,1.7.5.7.7,0,0,0,.7-.2,7.6,7.6,0,0,0,.8-1.1,1.3,1.3,0,0,1-.8-.1l-.7-.5a3.7,3.7,0,0,1-1.1-1.5c-.1.1-.1.3-.2.4a1.6,1.6,0,0,0-1.2-.8.8.8,0,0,1,.2.5,1.4,1.4,0,0,0-1.6.5c.2,0,.4,0,.5.2s-.7,1.5-1.3,1.4.5.2.5.2-.9.6-1.8.1A3.9,3.9,0,0,0,74.2,77.2Z"/><path class="cls-3" d="M77.6,76.8a2.4,2.4,0,0,1,1.7.5.7.7,0,0,0,.7-.2,1.3,1.3,0,0,0,0-1.2l-.7-.5A8.8,8.8,0,0,0,77.6,76.8Z"/><path class="cls-4" d="M136.3,95.1c-6.6,4.2-5.7-2.3-9.4-2.5-1.9-.2-1.1-1.9.5-2.5,4.7-1.7,6,2.9,9.3,3.8C137.6,94.2,137.2,94.6,136.3,95.1Z"/><path class="cls-5" d="M127.6,92.2s1.4-.4,3.8,1.4,4.9.5,5,.8-2.2,2.1-4.2,1.7S130.1,93.1,127.6,92.2Z"/><path class="cls-6" d="M84.9,109.3l-.8-1.2a2.1,2.1,0,0,0,1.6.7,14.2,14.2,0,0,1-1.3-2.3,8.2,8.2,0,0,0-3.2.3v.3C80.8,109.7,83.8,109.4,84.9,109.3Z"/><path class="cls-7" d="M85.7,108.8a5.5,5.5,0,0,1-1.9-1.2l.3.6A2.7,2.7,0,0,0,85.7,108.8Z"/><path class="cls-7" d="M84.9,109.3s-3.4-.3-3.7-2.2C80.8,109.7,83.8,109.4,84.9,109.3Z"/><path class="cls-3" d="M81.2,106.8h0c2.2,1,3.2-.3,3.2-.3s-.9-4.3,0-5.5l.4-.6c.4-.8.2-1.3.2-2.5a47.8,47.8,0,0,1,1.4-6.3l.7-2.5c-1.2-2-3.1-2.8-6-2.1,0,0,.2,1.3.3,3a52.2,52.2,0,0,1,.1,6.7,2,2,0,0,1-.1.5c-.9,1.1-.2,2.4,0,3.8.3,3-.6,2.8-.6,3.6S81.4,105.8,81.2,106.8Z"/><path class="cls-6" d="M113.3,124.7l-.7-1.2a2.4,2.4,0,0,0,1.5.6,8.5,8.5,0,0,1-1.2-2.3,6.9,6.9,0,0,0-2.8.4v.3C109.8,125.1,112.4,124.8,113.3,124.7Z"/><path class="cls-7" d="M114.1,124.1a4.5,4.5,0,0,1-1.7-1.1l.2.5A2.1,2.1,0,0,0,114.1,124.1Z"/><path class="cls-7" d="M113.3,124.7s-2.9-.3-3.2-2.2C109.8,125.1,112.4,124.8,113.3,124.7Z"/><path class="cls-8" d="M115.3,104.7s-1.9,7.2-1.9,8.7.4,1.8-.5,3,0,5.4,0,5.4-.8,1.4-2.8.4c.2-1-.4-1.4-.4-2.2s.8-.6.5-3.6c-.1-1.4-.7-2.7,0-3.8s-.2-10.1-.2-10.1C112.6,101.8,114.3,102.6,115.3,104.7Z"/><path class="cls-6" d="M105.2,128.4l-.7-1.2a2,2,0,0,0,1.5.6,6.4,6.4,0,0,1-1.2-2.3,7.5,7.5,0,0,0-2.9.4v.3C101.6,128.8,104.3,128.5,105.2,128.4Z"/><path class="cls-7" d="M106,127.8s-1.4-.5-1.7-1.1l.2.5A1.9,1.9,0,0,0,106,127.8Z"/><path class="cls-7" d="M105.2,128.4s-3-.3-3.3-2.2C101.6,128.8,104.3,128.5,105.2,128.4Z"/><path class="cls-9" d="M107.2,108.4s-1.9,7.2-1.9,8.7.3,1.8-.5,3,0,5.4,0,5.4-.9,1.4-2.9.4c.2-1-.3-1.4-.3-2.2s.8-.6.5-3.6c-.1-1.4-.8-2.7,0-3.8s-.2-10.1-.2-10.1C104.4,105.5,106.1,106.3,107.2,108.4Z"/><path class="cls-9" d="M72.9,90.9h0c.2,2.1,2.7,11.9,4.1,10.7A17.2,17.2,0,0,0,80.4,96c5.8,10.2,12.6,10,21.1,14.2h.1l1.4.7.4.2a15.3,15.3,0,0,0,3-.1h.4a25.9,25.9,0,0,0,13.9-4.9,13.1,13.1,0,0,0,2.8-2.4c5.3-5.4,5.3-12.1-2.2-12.6-2.1,1.3-4.3.6-6.4.8s-8.4-2.2-14-5.3C93,82.1,91.2,75,80.9,74.7a7.3,7.3,0,0,0-3,.6C74.3,77.1,72.3,82.3,72.9,90.9Z"/><path class="cls-9" d="M128.6,91.6c2.4,3,2.9,5.3,4.2,8.6s1.8,4.6-.4,6.2a2.6,2.6,0,0,1-2.9.4,7.2,7.2,0,0,1-3.1-2.3c-.3-.4-4-.2-6.5-3s-2.2-6.6-1.5-8.7S126.3,88.9,128.6,91.6Z"/><path class="cls-10" d="M133,102.8c.1-.2.4-.1.3.1a2.2,2.2,0,0,1-.8,1.3,2.4,2.4,0,0,1-.9,2.4c-.1.1-.3,0-.2-.1a5.7,5.7,0,0,0,.7-2.1,5,5,0,0,1-1.5-.5c-.2-.2-.3-.6.3-.4S132.4,103.8,133,102.8Z"/><path class="cls-11" d="M123.3,97.6s.4,1.4,1.1,1.4.9-.4,1.4-.1l-.3-.7a1.9,1.9,0,0,0-.9-1.1A1,1,0,0,0,123.3,97.6Z"/><path class="cls-12" d="M123.3,97.5a1.5,1.5,0,0,0,1.3,1.2,1.2,1.2,0,0,0,.9-.5,1.9,1.9,0,0,0-.9-1.1A1.1,1.1,0,0,0,123.3,97.5Z"/><path d="M123.3,97.5a2.6,2.6,0,0,0,.7,1.1,1.3,1.3,0,0,0,1.2,0l.2-.2a.1.1,0,0,1,.1-.1h0l-.3-.6a1.1,1.1,0,0,0-1-.6,1.1,1.1,0,0,0-.9.5h.1a1,1,0,0,1,.6-.5,1.3,1.3,0,0,1,1.1.5l.3.5h.1l-.3.3a1.1,1.1,0,0,1-1.1.1,1.6,1.6,0,0,1-.7-1.1Z"/><path class="cls-13" d="M125.1,98l-.2.4-1.2-.6a.4.4,0,0,1,.2-.5Z"/><path d="M125,98a.1.1,0,0,1,0,.2h-.4l-.7-.4a.2.2,0,0,1-.2-.2v-.2h.7l.4.2h.3l-.2-.2-.4-.2-.4-.2h-.2c-.2,0-.2.2-.2.3s0,.2.1.3l.8.4h.3c.1,0,.1-.1.1-.2s.1-.1.1-.2Z"/><path class="cls-14" d="M123.8,97.6a.3.3,0,0,0,.3.3.5.5,0,0,0,.3-.3.3.3,0,0,0-.3-.3A.3.3,0,0,0,123.8,97.6Z"/><path class="cls-15" d="M80.4,96c5.8,10.3,12.6,10,21.2,14.2h.1s.5-3.2.1-3.6-8,0-11.9-3.4-7.8-12.1-8.5-11.7S80.4,96,80.4,96Z"/><path class="cls-6" d="M77.4,113.7l-.7-1.2h.1a1.9,1.9,0,0,0,.9.4h.6a8.9,8.9,0,0,1-1.3-2.3,3.4,3.4,0,0,0-3.2.3v.3C73.4,114.1,76.4,113.8,77.4,113.7Z"/><path class="cls-9" d="M73.8,111.1l.3.2h.3a3.6,3.6,0,0,0,1.8,0,1.4,1.4,0,0,0,.8-.6s-.9-4.2,0-5.5.6-1.6.6-3a3.4,3.4,0,0,1,.2-1.3c.2-1.1.6-2.6.9-4l1-3.5a4.7,4.7,0,0,0-1.6-1.8,3.4,3.4,0,0,0-1.7-.5,5.1,5.1,0,0,0-2.7.2h0a21,21,0,0,1,.2,2.1c.2,2.8.5,7.5.1,8s-.2,2.4,0,3.8c.3,3-.6,2.9-.6,3.7S74,110.2,73.8,111.1Z"/><path class="cls-7" d="M76.4,112l.3.5h.1a1.9,1.9,0,0,0,.9.4h.6A4.9,4.9,0,0,1,76.4,112Z"/><path class="cls-7" d="M77.4,113.7s-3.3-.3-3.6-2.3C73.4,114.1,76.4,113.8,77.4,113.7Z"/><path class="cls-15" d="M112.9,103.5c9.2,1,4.8-5.4,8.6-7.5,1.9-1.1.2-2.6-1.9-2.4-5.8.6-4.8,6.2-7.7,8.8C111.1,103.2,111.8,103.4,112.9,103.5Z"/><path class="cls-3" d="M120.6,96s-1.8.3-3.4,3.4-4.8,3-4.7,3.3,3.4,1.1,5.2-.3S118.4,98.2,120.6,96Z"/><path class="cls-16" d="M126.1,91.2l-.8-.4c-1.2-.6-.4-1.4.8-2.1a.6.6,0,0,1,.9.6c-.1,1-.3,2.3-.9,1.9"/><path class="cls-16" d="M123.4,93.1l-.8-.4c-1.2-.6-.4-1.4.8-2a.6.6,0,0,1,.9.6c-.1.9-.3,2.2-.9,1.8"/><path class="cls-17" d="M75.1,77.8a2.3,2.3,0,0,1-1.4-.7h.5a3.9,3.9,0,0,1-.9-.8c.9.5,1.5.3,1.8-.1s-.4,0-.5-.2,1.1-1,1.3-1.4-.3-.2-.5-.2A1.4,1.4,0,0,1,77,74a.8.8,0,0,0-.2-.5,1.6,1.6,0,0,1,1.2.8c.1-.1.1-.3.2-.4a4.1,4.1,0,0,0,.7,1.1,5.8,5.8,0,0,1,1.4-.3h.6a17.6,17.6,0,0,1,3.4.4c7.4,1.5,9.7,7.5,16.6,11.5l3.9,2c4.2,2,8.1,3.3,9.9,3.3h.2c1.4-.1,2.8.1,4.2-.1a8.2,8.2,0,0,1,5.6-1.7c0-.4.6-.9,1.4-1.4a.6.6,0,0,1,.9.6c0,.4-.1.7-.1,1.1l.5-.3c4.7-1.7,6,2.9,9.3,3.8.9.3.5.7-.4,1.2-2.6,1.7-4,1.7-5,1,.5,1.3.9,2.6,1.5,4.1s1.8,4.6-.4,6.2a2.6,2.6,0,0,1-2.9.4,7.2,7.2,0,0,1-3.1-2.3c-.2-.2-1.4-.2-2.9-.7l-.9.8-1.4,1.2-.5.3c0,.1,0,.1-.1.1l-1.2.8-.5.3-.9.6-.7.3-.9.4-.7.3-.9.4-.7.2c-.3,1.7-.7,3.3-.7,3.9s.4,1.8-.5,3,0,5.4,0,5.4a8.5,8.5,0,0,0,1.2,2.3h-.8l-.3-.2h-.1q-.2-.3-.3-.3l.7,1.2c-.9.1-3.5.4-3.2-2.2v-.3h0c.2-1-.4-1.4-.4-2.2s.8-.6.5-3.6c-.1-1.4-.7-2.7,0-3.8a4.8,4.8,0,0,0,.2-2.1h-.1l-1,.2h-2.8a52.3,52.3,0,0,0-1.2,6.1c0,1.4.3,1.8-.5,3s0,5.4,0,5.4a6.4,6.4,0,0,0,1.2,2.3h-.8l-.3-.2h-.1l-.3-.3.7,1.2c-.9.1-3.6.4-3.3-2.2v-.3h0c.2-1-.3-1.4-.3-2.2s.8-.6.5-3.6c-.1-1.4-.8-2.7,0-3.8s.2-3.3.1-5.8l-.4-.2h-.2c-6.8-3.3-12.4-3.8-17.3-8.9-.6,1.6.1,5.2.1,5.2h0a14.2,14.2,0,0,0,1.3,2.3h0l-.8-.2h-.1l-.3-.2h-.1l-.3-.2.8,1.1c-1.1.1-4.1.4-3.7-2.2v-.3h0c.2-1-.4-1.4-.4-2.2s.9-.6.6-3.6c-.2-1.3-.8-2.5-.2-3.6a6.4,6.4,0,0,1-.8-1.4,17.6,17.6,0,0,1-2.6,4.7v.3a3.4,3.4,0,0,0-.2,1.3c0,1.4.3,1.8-.6,3s0,5.5,0,5.5a8.9,8.9,0,0,0,1.3,2.3h-.6a1.9,1.9,0,0,1-.9-.4h-.1l.7,1.2c-1,.1-4,.4-3.6-2.3v-.3h0c.2-.9-.4-1.3-.4-2.1s.9-.7.6-3.7c-.2-1.4-.9-2.7,0-3.8s.2-2.9.1-5.3A46.9,46.9,0,0,1,72.9,91h0C72.5,84.9,73.4,80.5,75.1,77.8Z"/><path class="cls-15" d="M119.8,101.3l1.4,1.2,1,.6,1.3.5L122,105S120.8,104.2,119.8,101.3Z"/></g></g></svg>