<svg xmlns="http://www.w3.org/2000/svg" viewBox="0 0 200 200"><defs><style>.cls-1{isolation:isolate;}.cls-2{fill:#774d42;}.cls-3{fill:#4e342e;}.cls-4{fill:#6e4c41;}.cls-5{fill:#3e2723;}.cls-6{fill:#f2e9e7;}.cls-7{mix-blend-mode:multiply;}.cls-8{fill:#d7ccc8;}.cls-9{fill:#724d46;}.cls-10{fill:#865c51;}.cls-11{fill:#5b342c;}.cls-12{fill:#4c2822;}.cls-13{fill:#704038;}.cls-14{fill:#e57051;}.cls-15{fill:#141414;}.cls-16{fill:#fff;}.cls-17{fill:#231717;}</style></defs><g class="cls-1"><g id="Horse_03"><path class="cls-2" d="M77.9,59.1c1.6,1.6,2.8-.3,2.9-.5a5.7,5.7,0,0,0,.6-1.7,12.5,12.5,0,0,0-.2-5,18.1,18.1,0,0,0-1-2.7.5.5,0,0,0-.4-.2c-.1.1-.3.2-.3.4a3.7,3.7,0,0,1-.1,1.1,19.1,19.1,0,0,1-2,4.9C76.9,56.7,76.7,57.8,77.9,59.1Z"/><path class="cls-3" d="M129,140.1a3.5,3.5,0,0,1-1.3.8c-1.6.3-3.8-.4-4.4-1.4a.5.5,0,0,1,.1-.7c.5-.4,1.5-1,1.9-1.4Z"/><path class="cls-4" d="M122.3,99h5.3V93.4c3.9,1.4,8.7,5.4,8.7,10.3s-1.7,4.8-2.4,10.2c-.5,3.7,2.2,7.2,2.2,8.7s-.4,1.1-3.6,7.2a3.6,3.6,0,0,1-.4.9.8.8,0,0,0-.2.5c-1.7,3.4-.6,3.6-1.1,4.9s-1.3.6-1.5,1.7.4,1.5.1,2l-.4.3c-1,.5-4-1.6-3.7-2.7s.6-.6,1.2-1.5a29.9,29.9,0,0,0,2.3-5.9c0-.1,0-.2.1-.2a46.5,46.5,0,0,0,1.7-7.2c0-1.9-3.5-3.5-5.6-9.4A53.4,53.4,0,0,1,122.3,99Z"/><path class="cls-5" d="M123.2,139.4c.6,1.1,2.8,1.8,4.5,1.5-.3-.2-3.5-1.5-2.3-3.5l-2,1.4C123.2,139,123.1,139.2,123.2,139.4Z"/><path class="cls-6" d="M125.3,137.4c-.3,1.1,2.7,3.2,3.7,2.7l.4-.3c.3-.5-.4-1-.1-2s1-.6,1.5-1.7-.6-1.5,1.1-4.9c-.1-.4-.3-.6-.7-.5s-.6.7-1,.7-1-.9-1.4-1.4a29.9,29.9,0,0,1-2.3,5.9C125.9,136.8,125.5,137,125.3,137.4Z"/><g class="cls-7"><path class="cls-8" d="M130.4,102.9a5.3,5.3,0,0,0,.1-1.3,4.1,4.1,0,0,0-1.9-3.5,2.7,2.7,0,0,0-1-.6V93.4c3.9,1.4,8.7,5.4,8.7,10.3s-1.7,4.8-2.4,10.2c-.5,3.7,2.2,7.2,2.2,8.7s-.4,1.1-3.6,7.2a3.6,3.6,0,0,1-.4.9.8.8,0,0,0-.2.5c-1.7,3.4-.6,3.6-1.1,4.9s-1.3.6-1.5,1.7.4,1.5.1,2l-.4.3c-1,.5-4-1.6-3.7-2.7s.6-.6,1.2-1.5a29.9,29.9,0,0,0,2.3-5.9c0-.1,0-.2.1-.2a46.5,46.5,0,0,0,1.7-7.2c0-1.9-3.5-3.5-5.6-9.4,1-1.4,2.1-2.7,2.9-4.1A13.1,13.1,0,0,0,130.4,102.9Z"/></g><path class="cls-3" d="M87.4,124.6c.6,1.2,2.8,1.9,4.5,1.5a2,2,0,0,0,1.3-.8l-3.6-2.8-2,1.5C87.4,124.2,87.3,124.4,87.4,124.6Z"/><path class="cls-9" d="M89.4,122.8c0,2.1,3.8,2.5,3.8,2.5V124c0-1.1,1.2-1.3,1.5-2.4s-1-1.1-1-5.3a13.1,13.1,0,0,1,.1-1.7c.3-6.4,1.9-26.8,1.9-26.8l-8.4-.7c0,9.2,1.4,13,2.3,18.4.6,3.5.8,6.8,1,9.4s.1,4.6.2,5.1C90.9,122.3,89.4,122.2,89.4,122.8Z"/><path class="cls-10" d="M70.9,55.8a4,4,0,0,0-1.4.9,5.2,5.2,0,0,0-1.1,2.4,9.6,9.6,0,0,0-.6,3.5A11.5,11.5,0,0,0,69,67.9a10.2,10.2,0,0,1,4.7,3.8c2,3,1.2,6.8,1.5,10.1a10.4,10.4,0,0,1-.4,2.8h0a2.9,2.9,0,0,1-.2.9c-.1.3-.1.6-.2.9l-.6,2.7a22.5,22.5,0,0,0-.4,4.6h0a2.2,2.2,0,0,1,.1.8V95c.1.3.1.5.2.8v.4a6.4,6.4,0,0,0,.2.7.4.4,0,0,0,.1.3l.3,1.1.6,1.5.2.3h0a33.1,33.1,0,0,0,1.8,2.9,31.2,31.2,0,0,0,5.6,3.9h.1c1.4.8,3.9,2.5,7.3,4.2l1.1.5a.1.1,0,0,0,.1.1l3,1.2h0l1,.4,2.7.8a33.7,33.7,0,0,0,12.8.6h0a35.8,35.8,0,0,0,3.5-1.1h.9c2.2.1,4.5,4.6,6.7,4.2l2.9-.6h.2l1.7-.4h.6l1.4-.5h0l1.3-.4h.1l.6-.2,2.8-1.4.8-.5c1.6-1.1,2.6-2.4,2.7-3.8h0a.4.4,0,0,0,.1-.3c0-.7-.1-1.3-.1-1.9s-.1-.9-.1-1.4l-.3-1.5c0-.5-.2-1-.2-1.5s-.3-1.1-.4-1.5a23.8,23.8,0,0,0-3.2-6.6,17.5,17.5,0,0,0-4.7-4.7l-1-.6a19.7,19.7,0,0,0-8.5-2.6c-6.2-.6-11.9.9-18.3-2.8L98,82.8a15.3,15.3,0,0,1-3.3-3.4l-.3-.3c-.5-.8-1-1.6-1.6-2.4-3-5-5.5-11.5-7.6-16.8L84,59.3a6.8,6.8,0,0,0-1.2-1.2c.3,0,.5.2.8.3l1.2.6-.3-.6-1.3-.9-1.9-.7-.5-.3A9.2,9.2,0,0,0,76.5,55a12,12,0,0,0-3.7.4A5.8,5.8,0,0,0,70.9,55.8Z"/><path class="cls-5" d="M87.4,124.6c.6,1.2,2.8,1.9,4.5,1.5-.3-.1-3.5-1.5-2.3-3.6l-2,1.5C87.4,124.2,87.3,124.4,87.4,124.6Z"/><path class="cls-3" d="M74.9,131.1c.6,1.1,2.8,1.8,4.5,1.5a2,2,0,0,0,1.3-.8l-3.6-2.7-2,1.5A.4.4,0,0,0,74.9,131.1Z"/><path class="cls-10" d="M78,120.6c.2,3.2.2,5.5.3,6,.1,2.3-1.4,2.2-1.4,2.7,0,2.1,3.8,2.5,3.8,2.5v-1.3c0-1,1.2-1.2,1.5-2.4s-1-1-1-5.1a13.6,13.6,0,0,1,.1-1.8c.1-3.4.7-10.5,1.2-16.5.1-1.6.2-3.2.3-4.5.3-3.1.4-5.1.4-5.1l-5.4-.5-3-.3c0,1.7,0,3.2.1,4.5.3,6,1.4,9.2,2.2,13.6S77.8,118.2,78,120.6Z"/><path class="cls-5" d="M74.9,131.1c.6,1.1,2.8,1.8,4.5,1.5-.3-.1-3.5-1.5-2.3-3.5l-2,1.5A.4.4,0,0,0,74.9,131.1Z"/><path class="cls-10" d="M63.3,75.8a2.6,2.6,0,0,0,1.4,1,2,2,0,0,0,2.4-.7c1.2-1.4,1.5-.8,4.4-2a4.5,4.5,0,0,0,2.2-2.5,8.7,8.7,0,0,0,.6-2.3l-.8-3.5-1.9-8.9a25.3,25.3,0,0,0-2,2.2c-1.8,2.2-2.8,3.4-3.5,5.3s-1.4,4.3-2.1,5.3l-.5.5a5.1,5.1,0,0,1-.9.8C61.9,71.7,61.6,73.7,63.3,75.8Z"/><path class="cls-11" d="M63.3,71.1h.2c.1,0,.1,0,.1.1s-.4,2.6-1.1,1.8S62.8,71.8,63.3,71.1Z"/><path class="cls-3" d="M117.1,150.1a3.5,3.5,0,0,1-1.3.8c-1.6.3-3.8-.3-4.5-1.4a.6.6,0,0,1,.2-.7c.5-.4,1.5-1,1.9-1.4Z"/><path class="cls-10" d="M110.6,112.1c.7,10.6,8,18.5,8,20.3a38.1,38.1,0,0,1-1.8,7.6,34.2,34.2,0,0,1-2.2,5.8c-.6.9-1,1.2-1.2,1.6s.5,1.3,1.3,1.9a3.1,3.1,0,0,0,2.4.8c1-.5,0-1.1.2-2.3s1.1-.6,1.5-1.7-.5-1.5,1-4.7l.4-.8c3.6-7.1,3.9-6.7,3.9-8.2s-2-3.8-2.3-6.8v-.2a4.7,4.7,0,0,1,.2-1.7c.8-3.7,1.9-4.2,3.6-6.6s2-2.7,2.9-4.1a14.7,14.7,0,0,0,2.5-6.3v-1.3a4.4,4.4,0,0,0-1.9-3.6l-1.2-.7A14.7,14.7,0,0,0,123,100a24.9,24.9,0,0,0-7.8.9l-.6.2c-2.1.7-3.7,1.8-3.9,3A41.7,41.7,0,0,0,110.6,112.1Z"/><path class="cls-5" d="M111.3,149.4c.6,1.1,2.8,1.8,4.5,1.5-.3-.2-3.5-1.5-2.3-3.5l-2,1.4C111.3,149,111.2,149.2,111.3,149.4Z"/><path class="cls-6" d="M113.4,147.4c-.3,1.1,2.6,3.2,3.7,2.7s0-1.1.2-2.3,1.1-.6,1.5-1.7-.5-1.5,1-4.8c-.5.2-1.7.6-2,.2s-.3-1.3-1-1.5a34.2,34.2,0,0,1-2.2,5.8C114,146.7,113.5,147,113.4,147.4Z"/><path class="cls-8" d="M89.4,122.8c0,2.1,3.8,2.5,3.8,2.5V124c0-1.1,1.2-1.3,1.5-2.4s-1-1.1-1-5.3a13.1,13.1,0,0,1,.1-1.7,3,3,0,0,1-1.7,1.1c-.9.1-1.1-.5-1.5-.8.1,2.7.1,4.6.2,5.1C90.9,122.3,89.4,122.2,89.4,122.8Z"/><g class="cls-7"><path class="cls-8" d="M89.4,122.8c0,2.1,3.8,2.5,3.8,2.5V124c0-1.1,1.2-1.3,1.5-2.4s-1-1.1-1-5.3a13.1,13.1,0,0,1,.1-1.7,3,3,0,0,1-1.7,1.1c-.9.1-1.1-.5-1.5-.8.1,2.7.1,4.6.2,5.1C90.9,122.3,89.4,122.2,89.4,122.8Z"/></g><path class="cls-6" d="M76.9,129.3c0,2.1,3.8,2.5,3.8,2.5v-1.3c0-1,1.2-1.2,1.5-2.4s-1-1-1-5.1a13.6,13.6,0,0,1,.1-1.8,2.4,2.4,0,0,1-1.7.3c-.7-.1-1-.6-1.6-.9.2,3.2.2,5.5.3,6C78.4,128.9,76.9,128.8,76.9,129.3Z"/><path class="cls-9" d="M82.6,102.4v4.7c3.5,2,14.3,10,28,7.8l-1.1.3,1.1-.3c.2-1.1-.1-6.1.2-8.4s-.3-2.2-3.7,1.2S93,113.1,82.6,102.4Z"/><path class="cls-11" d="M128.9,120h.3a12.9,12.9,0,0,1,.1-2.8,13.7,13.7,0,0,0,.5,2.8,11.7,11.7,0,0,0,.9,3.2,4.9,4.9,0,0,1,.4,1.1.2.2,0,0,0,.3-.1,17.6,17.6,0,0,1-.6-3.9,11.7,11.7,0,0,0,.5,1.1,20.1,20.1,0,0,0,.8,4.9h.2a12.3,12.3,0,0,0,.2-2.7v-.3a26.7,26.7,0,0,0,0,4.9,11.2,11.2,0,0,0,1.1-3.4,41.9,41.9,0,0,0-.3,5c0,.1.2.1.2,0l.3-2.6v.8c.1,1.1.1,1.9.1,1.9a12.2,12.2,0,0,0,1.5-3.6c.1.8.1,1.6.2,2.4h.2c0-1.3,0-2.7.1-4s.3-1.8.5-2.9c.1,1.5.2,3,.4,4.5h.2c.2-2.8.1-8,.1-8.5a29.8,29.8,0,0,1,.7,5.1,67.3,67.3,0,0,0-.9-8.8c-.4-2.8.3-5.9.2-8.7a19.5,19.5,0,0,0-1.7-7.4c-1-1.8-4.2-4.6-5.4-3.9s.4,3.6.7,4.8a21.5,21.5,0,0,1,0,6.7c-.4,2.5-1.1,4.9-1.5,7.4a8.3,8.3,0,0,0,.7-1.3v.2l-.3.8A14.3,14.3,0,0,0,128.9,120Z"/><path class="cls-12" d="M129.7,112.6l.3-.8v-.2l-.6,1.3c.3-2.5,1-4.9,1.4-7.4a21.5,21.5,0,0,0,0-6.7c-.3-1.2-2.2-3.7-.8-4.7a4.5,4.5,0,0,0-.1,1.2c.4,1,2.2,3.3,3,6.6.3.8,1.5,5,2,6.3h-.3a12.8,12.8,0,0,1-1.1-2c-.1,2.5-.6,5.1.7,7.5a7.6,7.6,0,0,1-1.8-4c-.1,0-.1.1-.1.2a54.7,54.7,0,0,0,1.5,5.8,22.7,22.7,0,0,1,1.4,5.1c0,.1-.3.1-.4,0a17.3,17.3,0,0,0-1.7-4.4,12.1,12.1,0,0,1,.5,1.8c.4,1.8,1,3.5.6,5.4s-.2,2.8-.3,4.3v-.8l-.3,2.6c0,.1-.2.1-.2,0a41.9,41.9,0,0,1,.3-5,14.6,14.6,0,0,1-1,3.4,20,20,0,0,1-.1-4.9v.3a12.3,12.3,0,0,1-.2,2.7h-.2a20.1,20.1,0,0,1-.8-4.9,11.7,11.7,0,0,1-.5-1.1,17.6,17.6,0,0,0,.6,3.9.2.2,0,0,1-.3.1l-.3-1a10.4,10.4,0,0,1-1-3.3,13.7,13.7,0,0,1-.5-2.8,12.9,12.9,0,0,0-.1,2.8h-.3A14.3,14.3,0,0,1,129.7,112.6Z"/><path class="cls-4" d="M75.1,100.2h.2l.6-2.9c-1.4-4-1.1-12.2-1.1-12.8C73.9,88.5,72,93.9,75.1,100.2Z"/><path class="cls-13" d="M72.3,64v-.3c0-.1-.1-.2-.2-.3s-2.6-1.4-3.7,1.7C68.4,65.1,70.5,67.7,72.3,64Z"/><path class="cls-14" d="M69.4,65.1s1.2.5,1.6-.1.2-.8.7-1h-.6a1.4,1.4,0,0,0-1.4,0C69.1,64.2,69.3,64.7,69.4,65.1Z"/><path class="cls-15" d="M69.4,65a1.2,1.2,0,0,0,1.5-.2,1,1,0,0,0,.2-.9,1.4,1.4,0,0,0-1.4,0C69.1,64.2,69.3,64.7,69.4,65Z"/><path class="cls-16" d="M69.7,64.7H70a.3.3,0,0,0,0-.4.2.2,0,0,0-.4.1A.4.4,0,0,0,69.7,64.7Z"/><path class="cls-11" d="M72.8,55.4a12,12,0,0,1,3.7-.4,9.2,9.2,0,0,1,4.3,1.5l.5.3,1.9.7,1.3.9a2.4,2.4,0,0,0,1.4.3c.1,0,.1.1,0,.1a1.2,1.2,0,0,1-1.1.2l-1.2-.6c-.3-.1-.5-.3-.8-.3A6.8,6.8,0,0,1,84,59.3l1.2.6a8.2,8.2,0,0,1,2.6,3c0,.1-.1.2-.2.1a11.2,11.2,0,0,0-1.8-2,31.1,31.1,0,0,1,3.5,5.3h-.1a14,14,0,0,1-2.3-3l1.5,3a8.6,8.6,0,0,1,1.5,1.7l1.4.9c.1,0,0,.2-.1.2l-1-.6a5.6,5.6,0,0,1,.6,3.3c.5.5,1.1.9,1.5,1.4a10.4,10.4,0,0,1,2.1,4.2h-.2a7.8,7.8,0,0,0-1.4-2.9A6.5,6.5,0,0,0,91.1,73a17.6,17.6,0,0,1,1.7,3.7,11,11,0,0,1,.7,4.4v.5a.8.8,0,0,0,.2.4,8.2,8.2,0,0,0,2,2.6h0a3.8,3.8,0,0,1-1.3-.9,8.7,8.7,0,0,0,.7,1.7l.2.4h0l-.7-.4a10,10,0,0,1-2.9-2,6.4,6.4,0,0,0,1.9,2.2,11.6,11.6,0,0,1-2.4-1.9,12,12,0,0,0-.3,2.8,5.8,5.8,0,0,0,.2,1.9c0,.1-.2.2-.2.1a9,9,0,0,1-.4-1.9,11.1,11.1,0,0,1-.2-1.9A7.6,7.6,0,0,0,90,87a10.3,10.3,0,0,0,.4,3,18.2,18.2,0,0,1-1.5-2.7,10.7,10.7,0,0,1-.7-3.3c-.1.1-.1.3-.2.4s.1,2.1.3,3.2a3.4,3.4,0,0,0,.1,1c0,.1-.1.2-.2.1l-.3-1a9.8,9.8,0,0,1-.5-1.6L86.3,88a10.6,10.6,0,0,0,.9-2.5v-.2a8.7,8.7,0,0,1-2.4,3,19.6,19.6,0,0,0,.5-4.8c0,.3-.1.6-.1.9h0a8.9,8.9,0,0,1-2.3,5.5c-.1.1-.2,0-.2-.1a5.3,5.3,0,0,0,.8-1.7,3.5,3.5,0,0,1-.8,1c-.1.1-.2,0-.1-.1,1.3-1.9,1.1-4.2,1-6.5a13.2,13.2,0,0,0-.6,3.9c0,.3-.3.3-.4,0a17.7,17.7,0,0,1,.5-6A12,12,0,0,1,80,82.9a15.4,15.4,0,0,0,2.6-7.3,41,41,0,0,1-2.1,4.8c-.1.1-.2,0-.2-.2a17.7,17.7,0,0,0,1.9-8A23.5,23.5,0,0,1,80,77.6h-.1a25.1,25.1,0,0,0,1.6-4.6L80.6,74c-.9,1.1-2.4,1.8-3,3.1s-.2,0-.1-.1c.7-1.7,2.4-2.7,3.2-4.5a3.6,3.6,0,0,0,.4-1.1,7,7,0,0,1-3,2.6,23.2,23.2,0,0,0,.3-8.6,23.9,23.9,0,0,1-.9,7.1h-.1a38.1,38.1,0,0,0-.6-10.2,18.8,18.8,0,0,1-.1,7.1.2.2,0,0,1-.3,0,42.1,42.1,0,0,0-.6-6.3c-.1,1.1-.3,2.3-.4,3.2s-.2.1-.2,0,0-2.5-.1-3.7a9.9,9.9,0,0,1-.2,1.7c0,.2-.3.1-.3-.1a11.1,11.1,0,0,0-.2-4.1,4.2,4.2,0,0,0-.4-1l-.5-.9a9.4,9.4,0,0,0-1.4-1.9l-.6-.4ZM89.2,68.2c.3.8.7,1.7,1,2.6s.1.5.2.7A5.5,5.5,0,0,0,89.2,68.2Zm3.9,12.2a16.1,16.1,0,0,0-1.4-5.2l-.3-.5C91.9,76.5,92.4,78.4,93.1,80.4Z"/><path class="cls-11" d="M63.8,64.2c.4-.8.6-1.5.9-2.2a10,10,0,0,0,0,3,18.4,18.4,0,0,0,.7,2.4,6.7,6.7,0,0,1,.3-2.3,6.7,6.7,0,0,0,0,2c0,.1.2.1.2,0a12.6,12.6,0,0,1,.5-2.8v1A12,12,0,0,1,68,62.7l-.3,1.1.9-1.3v2.1s.9-3.7,2.4-5.2a1.2,1.2,0,0,0,.5-1,3.1,3.1,0,0,0-1-1.5,2.8,2.8,0,0,0,.9-.7.2.2,0,0,0-.2-.4,8.2,8.2,0,0,0-4.1,1.7,8.9,8.9,0,0,0-2.7,3.1,9.8,9.8,0,0,1,1.7-1.8,2.1,2.1,0,0,1-.4.6,8.3,8.3,0,0,0-.8,1.2A4.8,4.8,0,0,0,63.8,64.2Z"/><path class="cls-2" d="M69.2,57.3a8,8,0,0,0,.7,2.4,8.3,8.3,0,0,0,.7,1.3l.3.5a1.1,1.1,0,0,0,.9.5h.7A2.5,2.5,0,0,0,74,60.1a4.3,4.3,0,0,0-.7-2.9,3.5,3.5,0,0,0-.5-.8c-.9-1-1.7-1.3-2-3.2a.3.3,0,0,0-.3-.3h-.2l-.2.2A7.9,7.9,0,0,0,69.2,57.3Z"/><path class="cls-17" d="M115,151.6h-1.5a4.2,4.2,0,0,1-2.7-1.6.9.9,0,0,1-.1-.5v-.5a1,1,0,0,1,.4-.5l1.7-1.3.4-.5h.1l.7-.9a29.5,29.5,0,0,0,1.9-5l.2-.7a42.6,42.6,0,0,0,1.8-7.4,12.8,12.8,0,0,0-1.6-3,43,43,0,0,1-5.9-13.8l-.8.2v-.2h-7.5l-1.5-.2h-.1l-1.3-.2H99l-1.4-.3-2.7-.8h-.5v.8a11,11,0,0,0-.1,1.6,7.5,7.5,0,0,0,.7,3.9,1.9,1.9,0,0,1,.2,1.5,2.3,2.3,0,0,1-.9,1.5c-.3.3-.5.5-.5.8v2h-.4a2.5,2.5,0,0,1-1.4.8c-1.8.4-4.4-.4-5.1-1.8a1,1,0,0,1,.4-1.4l.4-.3,1.3-1,.4-.3a1.7,1.7,0,0,0,.8-1.8,5.8,5.8,0,0,1-.1-1.5c0-.9,0-2.2-.1-3.7s-.1-1.9-.2-3c-2.6-1.3-4.7-2.5-6.3-3.5l-.7-.5c-.5,6.6-.8,11-.9,13.4a11.6,11.6,0,0,0-.1,1.7,7.3,7.3,0,0,0,.7,3.8,2.2,2.2,0,0,1,.3,1.5,4.4,4.4,0,0,1-1,1.5c-.4.3-.5.5-.5.7V132h-.1a3,3,0,0,1-1.7,1.1c-1.8.4-4.4-.4-5.1-1.8a1,1,0,0,1,.4-1.4l.4-.3,1.4-1,.3-.3c.4-.3.9-.5.8-1.8a3.1,3.1,0,0,1-.1-1.2c0-1.1-.1-2.7-.2-4.7a82.2,82.2,0,0,0-.9-8.2c-.2-1.3-.5-2.6-.8-3.8a72.2,72.2,0,0,1-1.3-8.6h0l-.3-.6v-.3l-.3-.6.6-.3-.6.2a2.9,2.9,0,0,1-.2-.9v-.8l.6-.3-.6.2V96a2.5,2.5,0,0,1-.1-.8V95h0a2.8,2.8,0,0,0-.1-.9h0v-.2a21.8,21.8,0,0,1,.7-6.1h0l.3-1.1h0v-.2l.3-1.4h0a13.6,13.6,0,0,0,.4-2.7,26.2,26.2,0,0,1-.1-2.8,15.6,15.6,0,0,0-.8-6.1,3.8,3.8,0,0,1-1.9,1.7,11.2,11.2,0,0,1-2.5.8,2.9,2.9,0,0,0-1.8,1.1,2.6,2.6,0,0,1-3,.9,3.8,3.8,0,0,1-1.7-1.2c-1.9-2.4-1.5-4.7-.6-5.6h0l.4-.3.5-.5.5-.5a17.3,17.3,0,0,0,1-2.4,11.6,11.6,0,0,1-.4-1.8c-.1,0-.1-.1-.1-.2L63.6,66l-.4-1.6a5.7,5.7,0,0,1,1-3.9h-.3a12.1,12.1,0,0,1,1.7-2.5l.6-1.3-.2,1,.8-.6,1.8-1.1a9.4,9.4,0,0,1,1-3.1l.3-.4h.7c.5.1.8.4.8.8a4.5,4.5,0,0,0,.7,1.8h.6a12.9,12.9,0,0,1,3.9-.4h.6c.1-.1.1-.3.2-.4a14.3,14.3,0,0,0,1.4-3.7,3.4,3.4,0,0,0,.1-1.1,1.1,1.1,0,0,1,.8-.8.8.8,0,0,1,1,.5,15.3,15.3,0,0,1,1.1,2.7,13.4,13.4,0,0,1,.3,4.7l1.3.6a2.7,2.7,0,0,1,1,.6l.4.3c.4.2.7.3.9.2a.6.6,0,0,1,.8.5l.2.5-.5.3-.5.2a6.4,6.4,0,0,1,2.6,3.1.9.9,0,0,1,0,.7l1.3,2.3v.2l.2.2v.7h-.1l.6.8,1.3.9h.3V69c.1.3-.1.5-.3.7h-.3a6.5,6.5,0,0,1,.2,1.9c.1.1.1.2.2.2a4.7,4.7,0,0,1,1,1,9.1,9.1,0,0,1,2.2,4.4v.3l-.2.3-.3.2.4.6.3.3a16.6,16.6,0,0,0,3.1,3.3l2.1,1.4c4.4,2.5,8.4,2.5,12.7,2.5a47.8,47.8,0,0,1,5.3.2,20.2,20.2,0,0,1,8.8,2.7l1.1.6a19.2,19.2,0,0,1,4.5,4.5,10.5,10.5,0,0,1,3.2,3.5,18,18,0,0,1,1.8,7.5c0,1.3-.1,2.5-.2,3.7a29,29,0,0,0,0,5.1v.5a56.9,56.9,0,0,1,.8,8.3h-.7c0,1.3,0,2.5-.1,3.4a.7.7,0,0,1-.6.7l-.6-.2v1.9a.7.7,0,0,1-1.4,0,1.5,1.5,0,0,1-.8.5,1.3,1.3,0,0,0-.1.6c0,.4-.3.6-.7.6H133c-.1.1-.1.3-.2.5l-.2.2c-.1.2-.1.4-.2.5v.2a13.3,13.3,0,0,0-.8,2.4v.8c0,.2,0,.3.1.4a.4.4,0,0,1-.1.3,1.2,1.2,0,0,1-.2.8,1.7,1.7,0,0,1-.8,1l-.2.2h-.2c-.1,0-.2.1-.3.4a1.9,1.9,0,0,0,.1.8,1.6,1.6,0,0,1,.1,1v.3a7,7,0,0,1-2.1,1.4h0a4.7,4.7,0,0,1-2,.1h-.3a4.4,4.4,0,0,1-2.8-1.6c0-.2-.1-.3-.1-.5v-.5a1,1,0,0,1,.4-.5l1.7-1.3.5-.6.7-.9a7.5,7.5,0,0,0,1-2.2c.4-1,.8-2.2,1.2-3.5v-.3c.5-1.6.9-3.3,1.2-4.5a13.6,13.6,0,0,0,.4-2c-.1-.5-.3-1-.4-1.5l-.7-.9h-.2l-.3-.2V120a23.7,23.7,0,0,1-2-2.7h-.2l-1.2,1.5a9.4,9.4,0,0,0-2.3,4.8,4.4,4.4,0,0,0-.2,1.5v.2h0a14.3,14.3,0,0,0,1.5,4.4,6,6,0,0,1,.8,2.4c0,1.1-.1,1.4-1,2.9s-1.5,2.7-3,5.6v.2l-.2.5a5.8,5.8,0,0,0-.6,1.5,3.8,3.8,0,0,0-.2,1.7,2.8,2.8,0,0,1-.2,1.5l-.2.4a1.8,1.8,0,0,1-.9.7l-.3.3c0,.1-.1.1-.1.3a1.1,1.1,0,0,0,.1.8c.1.5.4,1.3-.6,1.8s-.1.2-.3.3l-1.2.6Zm-3.1-2.4a2.9,2.9,0,0,0,1.8,1h2a2.4,2.4,0,0,0,.9-.6h.4c-.1,0-.1-.2-.1-.3a2.4,2.4,0,0,1-.2-1.5l.3-.6a1.5,1.5,0,0,1,.7-.7,1,1,0,0,0,.5-.4v-.2a2.8,2.8,0,0,0,.1-.9,5,5,0,0,1,.3-2.2,6.4,6.4,0,0,1,.6-1.6l.3-.5v-.3c1.4-2.9,2.4-4.6,3-5.6s.8-1.6.8-2.3a6.4,6.4,0,0,0-.7-1.9,12.9,12.9,0,0,1-1.5-4.8c-.1,0-.1-.2-.1-.3a6.5,6.5,0,0,1,.2-1.9,10.9,10.9,0,0,1,2.6-5.3l1.1-1.4.2-.4h.3l1.3-.4.2.4a22.7,22.7,0,0,0,2.3,3.1l.2.2c.3.5.7.9.9,1.3v.2c.2.5.3,1.1.5,1.6h0a13.9,13.9,0,0,1-.4,2.3c-.3,1.3-.8,3-1.3,4.7v.3c-.4,1.3-.8,2.5-1.2,3.5a12.6,12.6,0,0,1-1.1,2.5,4.9,4.9,0,0,1-.8,1l-.3.4h0l-.2.3a15.6,15.6,0,0,1-1.9,1.3,3.4,3.4,0,0,0,1.9,1h1.9l1.3-.9c-.1,0-.1-.1-.1-.2a2.4,2.4,0,0,1-.1-1.5,1.6,1.6,0,0,1,.8-1.2l.3-.2a.7.7,0,0,0,.4-.5.6.6,0,0,0,.1-.4h.1c-.1-.1-.1-.2-.1-.4v-1a7.9,7.9,0,0,1,1-2.8v-.2l.3-.5v-.3l.3-.6a9.5,9.5,0,0,0,.9-1.7l1.3-2.3h0v-.3l.2,2,.5-1.3.4-1.3h0v-.2a18.6,18.6,0,0,0,.5-2.7l.8-5.7c-.1-.5-.1-.9-.2-1.4v-.5a31.3,31.3,0,0,1,0-5.3c.1-1.1.2-2.4.2-3.5a17.7,17.7,0,0,0-1.7-7.1,8.8,8.8,0,0,0-2.8-3l-.2-.2a17.6,17.6,0,0,0-4.3-4.3l-1-.6a21.1,21.1,0,0,0-8.3-2.5,46.1,46.1,0,0,0-5.2-.2c-4.2,0-8.6,0-13.3-2.7l-2.2-1.4a18.9,18.9,0,0,1-3.4-3.5.8.8,0,0,1-.2-.4A24.9,24.9,0,0,1,92.3,77h0A18.5,18.5,0,0,0,91,74v1.3l-1-3-.8-1.5.5.3h-.1a27.7,27.7,0,0,0-1-2.6L88,66.8h-.1v-.2c-.4-.9-.9-1.8-1.5-2.9l.5-.3a14.3,14.3,0,0,0-1.4-2l.3-.3-.9-.7-1.1-.6h-.2l-1.1-1.2-1.1-1.1h-.1l-.5-.2v-.3h0a11.1,11.1,0,0,0-.2-4.7,7,7,0,0,0-.6-1.7v.4a14.4,14.4,0,0,1-1.5,3.9,5.9,5.9,0,0,0-.4.8l-.2.4h-.5l-.9-.2a11.4,11.4,0,0,0-3.6.4H71.7l-.2-.2a3.9,3.9,0,0,1-1.1-2,8.4,8.4,0,0,0-.6,2.4v.4h-.3l-1.7.9-1.2,1.5-.3.5-.8,1-.2,1.4a6.6,6.6,0,0,0,0,2.8h0l1,.2v.6l-.2.5h-.5c.1.2.1.4.2.6v.2h-.1a8.7,8.7,0,0,1-1.3,3l-.5.7-.8.6H63c-.4.5-.8,2.1.8,4a3.1,3.1,0,0,0,1.1.9,1.4,1.4,0,0,0,1.7-.6A3.6,3.6,0,0,1,69,74.3l2.3-.8a3.5,3.5,0,0,0,1.9-2.1l.4-1,.6.9c1.6,2.4,1.5,5.1,1.5,7.7a22.6,22.6,0,0,0,.1,2.7,15.4,15.4,0,0,1-.4,3h0l-.3,1.4v.4h-.1a4.4,4.4,0,0,1-.2,1h0a19.6,19.6,0,0,0-.7,5.8h0a2.8,2.8,0,0,1,.1.9l-.6.2h.6l-.5.2h.6a2.2,2.2,0,0,0,.1.8l.2.9v.5a2.4,2.4,0,0,1,.2.8h.1a1.4,1.4,0,0,0,.2.6v.2l.3.6v.4a52.9,52.9,0,0,0,1.3,8.5c.3,1.3.5,2.5.8,3.9s.7,5.2.9,8.3.2,3.7.2,4.8a2.8,2.8,0,0,0,.1,1.1c.1,2-.8,2.6-1.3,2.9h-.2l-1.5,1.2-.4.3a4.5,4.5,0,0,0,3.8,1,1.5,1.5,0,0,0,.8-.4v-1.1a2.2,2.2,0,0,1,.9-1.6c.2-.3.5-.5.6-.9a1.2,1.2,0,0,0-.2-.7,8.4,8.4,0,0,1-.8-4.3,13.6,13.6,0,0,1,.1-1.8c.1-2.5.4-7.2,1-14.4v-.9l.8.5h.5v.3l1.1.7a54.2,54.2,0,0,0,6.4,3.6h.3v.4l.3,3.4c.1,1.5.1,2.7.1,3.7a3.8,3.8,0,0,0,.1,1.3c.1,2-.8,2.6-1.3,2.9l-.2.2h-.1l-1.4,1-.4.4a4.3,4.3,0,0,0,3.8,1,1.5,1.5,0,0,0,.8-.4V124a2,2,0,0,1,.9-1.6,4.7,4.7,0,0,0,.6-.9,1.3,1.3,0,0,0-.2-.8,9,9,0,0,1-.8-4.4,13.1,13.1,0,0,1,.1-1.7v-2.4l1,.3,1,.4,2.6.8,1.3.3h.3l1.2.2h.2l1.4.2h6.6l1.6-.2,1-.2v.6c1,6,3.9,10.9,5.9,14.1s1.7,2.9,1.7,3.6a43.8,43.8,0,0,1-1.8,7.8l-.2.6a35.9,35.9,0,0,1-2.1,5.4l-.8,1h-.1l-.2.3-.2.6h-.3ZM75.5,131Zm-.1-.2h0Zm60.9-2.3h0Zm.2-2.4h0ZM88,124.5Zm0-.2ZM74.2,87.7h0ZM86.1,59.3h0Zm-15.9-6h0Zm9.5-3.8Zm.4-.1Z"/><path class="cls-17" d="M95,114a18.9,18.9,0,0,1-5-2l.6-1a27.6,27.6,0,0,0,4.6,1.9Z"/></g></g></svg>