<svg xmlns="http://www.w3.org/2000/svg" viewBox="0 0 200 200"><defs><style>.cls-1{fill:#ffa726;}.cls-2{fill:#fff8e1;}.cls-3{fill:#ff8f00;}.cls-4{fill:#f7b56d;}.cls-5{fill:#fff2de;}.cls-6{fill:#ffd9b0;}.cls-7{fill:#fccfa2;}.cls-8{fill:#88bbbf;}.cls-9{fill:#424242;}.cls-10{fill:#fff;}.cls-11{fill:#f57c00;}.cls-12{fill:#5b3114;}</style></defs><g id="Duckling_02"><path class="cls-1" d="M75.3,126.9s-2.8,3-2.2,4,3-1.6,3-1.6Z"/><path class="cls-1" d="M94.2,129.1s-12.4,3.1-17.7,5.8c-1.2.7-2.2-.8-1.8-2.7.8-3.7-.6-7.5-.8-10.5s.2-2.9,1.4-3.7,3.7-3.3,3.4-1.3a30.9,30.9,0,0,0-.3,4.5,36.1,36.1,0,0,0,.2,7.6l3.5-7,.9.8a7,7,0,0,0,5.2,1.3l1.3-.3a2.8,2.8,0,0,0,.1.9c.5,1.4,1.9,2.5,3.6,3.6s.5.7,1,1"/><path class="cls-2" d="M95.7,128.4c-.8-1.1-2.8-.7-2.5.1s1.4-.1,2.5-.1"/><path class="cls-2" d="M90.9,123.3c-1-.8-3.1.4-2.4,1s.9-.5,2.4-1"/><path class="cls-2" d="M84,120.7c-1.4-.4-2.7,1.4-1.9,1.8s.6-.8,1.9-1.8"/><path class="cls-3" d="M93.2,128.1c-4.2.6-12.8,3.9-13,3.4s8.5-6.4,9.4-7c.5,1.4,1.9,2.5,3.6,3.6"/><path class="cls-3" d="M88.4,124c-3,1.7-8.9,6.5-9.3,6.2s3.2-5.1,3.9-7.6a7,7,0,0,0,5.2,1.3Z"/><path class="cls-3" d="M78.7,116.7a30.9,30.9,0,0,0-.3,4.5,9.8,9.8,0,0,1-4.5.5c-.1-1.6.2-2.9,1.4-3.7s3.7-3.3,3.4-1.3"/><path class="cls-1" d="M93.1,137.4s-2.8,3-2.3,4,3-1.6,3-1.6Z"/><path class="cls-1" d="M112.1,139.2s-12.5,3.2-17.8,5.9c-1.2.6-2.1-.8-1.7-2.7.8-3.7-.7-7.6-.8-10.5a3.8,3.8,0,0,1,1.3-3.8s3.8-3.2,3.5-1.3-.3,2.9-.4,4.5a36.2,36.2,0,0,0,.3,7.7l3.4-7.1,1,.9a7.1,7.1,0,0,0,5.1,1.3l1.4-.4a2.8,2.8,0,0,0,.1.9c.4,1.5,1.8,2.6,3.5,3.6s.5.7,1.1,1"/><path class="cls-2" d="M101.8,130.8c-1.3-.3-2.7,1.4-1.8,1.8s.6-.8,1.8-1.8"/><path class="cls-3" d="M111,138.2c-4.2.7-12.8,4-13,3.5s8.6-6.4,9.5-7.1c.4,1.5,1.8,2.6,3.5,3.6"/><path class="cls-3" d="M106.2,134.1c-2.9,1.8-8.8,6.5-9.3,6.3s3.2-5.2,4-7.6a7.1,7.1,0,0,0,5.1,1.3Z"/><path class="cls-3" d="M96.6,126.8c-.2,1.3-.3,2.9-.4,4.5a9.3,9.3,0,0,1-4.4.6,3.8,3.8,0,0,1,1.3-3.8s3.8-3.2,3.5-1.3"/><path class="cls-2" d="M113.5,138.5c-.7-1.1-2.7-.7-2.4.1s1.4-.1,2.4-.1"/><path class="cls-2" d="M108.8,133.4c-1.1-.8-3.1.4-2.4,1s.8-.5,2.4-1"/><path class="cls-4" d="M71.3,116.9S75.6,95.1,94.8,92c11.7-1.9-15.5,24.9-23.5,24.9"/><path class="cls-5" d="M118.7,111.1c-2,5.5-4.6,8.4-16.2,18.6s-26,.6-32.4-5.3l-.4-.3c-5.6-5.1-4.3-6.2-.6-7,5.2-.9,6.3-7.6,14.6-17.6,4.9-6,9.1-6.7,13.9-8.7s8.7-3.4,7.3-9.2-3.6-15.4.6-19.4a10.9,10.9,0,0,1,3.9-2.4,11.7,11.7,0,0,1,11,1.4,5.4,5.4,0,0,1,2.5,3.4c.3,1.5.6,6.8-.2,8.4l-1.6,1.7c-1.4,1.1-4,2.1-2.8,9.9s1.9,14,2,15.1a29.2,29.2,0,0,1-1.6,11.4"/><path class="cls-6" d="M76.2,116.6c4-4.2,20.4-21.9,27.3-22.1s2.6,14.9-3.3,20-18.2,8.6-17.3,5.3c.1-.4-2.1.6-3.4.5s-1-1.3-1.9-1.1-3.4-.4-1.4-2.6"/><path class="cls-7" d="M120.1,102.5c-.9,9.3-3.7,14.9-16.2,25.9-11,9.7-25.6,3.4-32.6-3l-.3-.3a3.1,3.1,0,0,1,.2-.7c-.6-2.6,31.3,16.1,48.9-21.9"/><path class="cls-6" d="M119.5,107c.8-5.6-1-20.9-2.9-26.9-1.1-3.4-3.2-2.3-3.9-3.7s3.5,1.2,7.9-1.6c-1.4,1.1-2.3,4.5-1.7,12.4s2.2,14.2.6,19.8"/><path class="cls-1" d="M117.8,67a1.4,1.4,0,1,1-2.8-.4c.3-2.3,3-1.4,2.8.4"/><path class="cls-8" d="M117.5,66.9a1.1,1.1,0,1,1-2.2-.2c.2-1.9,2.3-1.1,2.2.2"/><path class="cls-9" d="M117,66.9a.6.6,0,1,1-1.2-.2c.1-1,1.2-.6,1.2.2"/><path class="cls-10" d="M116.4,66.6c.1.3.4.4.6.2a.7.7,0,0,0,.2-.8c-.2-.2-.4-.3-.6-.2a.7.7,0,0,0-.2.8"/><path class="cls-1" d="M129.3,73a25.7,25.7,0,0,0-7.9.1,14.5,14.5,0,0,0,1.2-1.9c1-2.4-.7-4.1-2.2-5.8s1.1-3.6,2.3-2.1l.3.4a9.9,9.9,0,0,0,5.5,5.1c4,1.6,4.5,4.9.8,4.2"/><path class="cls-11" d="M129.3,73a25.7,25.7,0,0,0-7.9.1,14.5,14.5,0,0,0,1.2-1.9,52.5,52.5,0,0,1,6.7,1.8"/><path class="cls-11" d="M125.5,68.9c-.1.4,1.4,1.1,1.5.6s-1.2-1.3-1.5-.6"/><path class="cls-12" d="M93.8,146a1.5,1.5,0,0,1-1.1-.4,3.4,3.4,0,0,1-.9-3.4h0a1.2,1.2,0,0,1-.8.1,1,1,0,0,1-.8-.6c-.3-.5-.5-1.5,1.7-4.1-.1-.8-.3-1.6-.4-2.4a2.5,2.5,0,0,1-.1-.8,30.9,30.9,0,0,1-5.9-.8l-2.1-.6a70.1,70.1,0,0,0-6.6,2.6,2,2,0,0,1-2-.1,3.5,3.5,0,0,1-.8-3.4v-.3h-.8a1,1,0,0,1-.8-.5c-.4-.7-.1-1.7,1-3.2l-1.5-1.2L69.6,125h-.1l-.3-.3c-3.2-2.9-4.4-4.7-4-6.1s2.1-1.8,3.7-2.1a6.2,6.2,0,0,0,1.9-.7c1.1-4.2,6.6-21.2,23.4-24.4L95,91l2.4-.9c5.2-2,8-3.4,6.8-8.3s-3.8-15.8.7-20.1a13.4,13.4,0,0,1,4.3-2.6,12.3,12.3,0,0,1,11.6,1.5,7.9,7.9,0,0,1,1.9,1.7l.6.6.3.4a9.2,9.2,0,0,0,5.1,4.8h0c2.6,1,4.2,2.9,3.8,4.4s-.7,1.7-3.3,1.2a20.3,20.3,0,0,0-6-.1l-.7.8-.9.8-.5.4-.5.4c-.7,1.2-1.5,4.2-.9,11.2.2,2.4.4,4.6.6,6.5s.7,5.3.7,6a27,27,0,0,1-1.6,11.6c-2.1,5.9-5.2,9-16.4,18.9a.1.1,0,0,1-.1.1l.6.2-1.2.9a1.6,1.6,0,0,0-.5,1h0a6.1,6.1,0,0,0,4,.8,2.9,2.9,0,0,1,1.2-.7,2.4,2.4,0,0,1,2.2.2l1.2.9-1.4.5a1.3,1.3,0,0,0-.7.5,6.7,6.7,0,0,0,2.7,2.6l1-.2a2.3,2.3,0,0,1,2.1,1l.8,1.2h-1.4l-.6.3a1.6,1.6,0,0,1-1.4.5c-2.4.7-12.4,3.4-16.8,5.6A1.6,1.6,0,0,1,93.8,146Zm-.2-6.9v1.7a8.8,8.8,0,0,1-.2,1.7c-.2,1,0,1.7.3,1.9H94c4.3-2.2,13-4.6,16.6-5.6a7.6,7.6,0,0,1-3.8-3.9v-.2h-.5a7.6,7.6,0,0,1-5.7-1.4l-.4-.2-4,8.1-.4-2.2a48.2,48.2,0,0,1-.3-6.1v-.5l.6-.2a14,14,0,0,0,3.8-1.6l.7-.4,1.5-1.2c11.7-10.3,14.1-13.1,16-18.3a27.5,27.5,0,0,0,1.6-11c-.1-.6-.3-2.6-.7-5.9s-.5-4.2-.7-6.6c-.5-6.2-.1-10.2,1.2-12.2v-.2l.7-.5.4-.3.8-.8.7-.7.2-.4h.4a22.1,22.1,0,0,1,6.8,0c1,.2,1.5,0,1.5-.1s-.5-1.7-2.8-2.6a10.8,10.8,0,0,1-5.9-5.4l-.2-.3a.2.2,0,0,0-.2-.2h-.2v-.2a11.7,11.7,0,0,0-1.6-1.5,11.1,11.1,0,0,0-10.3-1.3,10.1,10.1,0,0,0-3.7,2.3c-3.9,3.7-1.6,13.4-.4,18.7s-2.9,8.2-7.7,10l-2.3.9-1.1.4c-16.3,3-21.5,20.1-22.3,23.5v.3l-.2.2a9,9,0,0,1-2.7,1.1c-1.6.3-2.4.6-2.5,1s.2,1.6,3.5,4.6h.1l.2.2h.1a15.4,15.4,0,0,0,2.3,1.8,15.6,15.6,0,0,0,2,1.6l.7.4-.5.7a6.6,6.6,0,0,0-1.2,1.8l.6-.4,1.2-1v1.6c-.1.8-.1,1.4-.2,2a2.1,2.1,0,0,0,.3,1.9h.3a55.7,55.7,0,0,1,7-2.8h.5a8.6,8.6,0,0,0,2.3.6,22.3,22.3,0,0,0,6.1.8h.6v.6l.3,1.4c.1.9.3,1.9.4,2.9v.3l-.2.2a20.5,20.5,0,0,0-1.6,2.3l.7-.4Zm3.3-5.5v2.7l1.6-3.3A4.4,4.4,0,0,1,96.9,133.6Z"/><path class="cls-12" d="M85.6,133.6A34.7,34.7,0,0,1,74,128.5l.9-1.2a34.4,34.4,0,0,0,11,4.8Z"/></g></svg>