<svg xmlns="http://www.w3.org/2000/svg" viewBox="0 0 200 200"><defs><style>.cls-1{isolation:isolate;}.cls-2{fill:#cc5740;}.cls-3{fill:#a06960;}.cls-4{fill:#6d4c41;}.cls-11,.cls-5{fill:#ffab91;}.cls-6{fill:#fbe9e7;mix-blend-mode:multiply;}.cls-7{fill:#ef7554;}.cls-8{fill:#ffe7e1;}.cls-9{fill:#ffccbc;}.cls-10{fill:#ff8a65;}.cls-11{stroke:#89685c;stroke-width:0.5px;}.cls-11,.cls-14,.cls-16{stroke-miterlimit:10;}.cls-12{fill:#e57051;}.cls-13{fill:#141414;}.cls-14{fill:#fff;stroke:#000;stroke-width:0.05px;}.cls-15{fill:#5b3114;}.cls-16{fill:none;stroke:#5b3114;}</style></defs><g class="cls-1"><g id="Pig_01"><path class="cls-2" d="M89.8,126.3s1.1.2,1.7-1.4S89.3,123,89.8,126.3Z"/><path d="M89.8,126.3a1.3,1.3,0,0,0,.9-.2,1.7,1.7,0,0,0,.7-1,1.9,1.9,0,0,0,.2-.7.7.7,0,0,0-.6-.7c-.3-.1-.7.2-.9.4a2.5,2.5,0,0,0-.3,1.9v.3h0a3.5,3.5,0,0,1,.2-2,1.1,1.1,0,0,1,.9-.6.9.9,0,0,1,.7.6,1.3,1.3,0,0,1-.1.6,2.7,2.7,0,0,1-.6,1l-.7.4Z"/><path class="cls-3" d="M92.4,122s1.5.3,1.7,0-1.5-3.7-1.5-3.7Z"/><path class="cls-2" d="M91,127.1s2.9.1,2.2-5.3S91,127.1,91,127.1Z"/><path d="M91,127.1a1.8,1.8,0,0,0,1.5-.8,3.3,3.3,0,0,0,.8-1.9,11.5,11.5,0,0,0-.2-3.2c0-.2-.1-.9-.4-1s-.3.4-.4.5a8.3,8.3,0,0,0-.4,1.5,17.7,17.7,0,0,0-.4,2,29.3,29.3,0,0,0-.5,2.9h0a52.2,52.2,0,0,1,1.1-5.7,3.6,3.6,0,0,1,.4-1.1c.3-.2.4.3.5.5a13.3,13.3,0,0,1,.3,2.8,4.1,4.1,0,0,1-.6,2.4,2,2,0,0,1-1.7,1.1Z"/><path class="cls-4" d="M89.8,122.8s-.8,3-.2,3.4,1-.7,1-.7,0,1.6.4,1.6,1.5-.7,1.9-4S89.8,122.8,89.8,122.8Z"/><path class="cls-3" d="M93.9,100.8l-6.8,2.4c.2,7.8,2.4,10,2.6,18a10.8,10.8,0,0,1-.1,2.4c1.2-.9,1.3,1,1.3,1s1.7-1.2,2,1c0,0,.8-1.2.3-5.5a30.7,30.7,0,0,1,.6-8.7A49.7,49.7,0,0,0,93.9,100.8Z"/><path class="cls-3" d="M117.5,109.5s1.4.3,1.7,0-1.6-3.7-1.6-3.7Z"/><path class="cls-2" d="M116,114.6s2.9.1,2.2-5.3S116,114.6,116,114.6Z"/><path d="M116,114.6a2.5,2.5,0,0,0,1.6-.8,4,4,0,0,0,.7-1.9,11.3,11.3,0,0,0-.2-3.2c0-.2-.1-.9-.4-1s-.3.3-.4.5a8.3,8.3,0,0,0-.4,1.5,14.2,14.2,0,0,0-.4,2,29.3,29.3,0,0,0-.5,2.9h0a52.2,52.2,0,0,1,1.1-5.7,2.2,2.2,0,0,1,.5-1.1c.2-.2.4.3.4.4a9.6,9.6,0,0,1,.3,2.9,4.9,4.9,0,0,1-.5,2.4,2.2,2.2,0,0,1-1.8,1.1Z"/><path class="cls-4" d="M114.8,110.3s-.8,3-.2,3.4,1.1-.7,1.1-.7-.1,1.6.3,1.6,1.6-.7,1.9-4S114.8,110.3,114.8,110.3Z"/><path class="cls-3" d="M118.9,88.3l-6.8,2.4c.2,7.8,2.4,10,2.6,18a10.8,10.8,0,0,1-.1,2.4c1.2-.9,1.3,1,1.3,1s1.7-1.2,2.1,1c0,0,.7-1.2.2-5.5a30.7,30.7,0,0,1,.6-8.7A43.1,43.1,0,0,0,118.9,88.3Z"/><path class="cls-5" d="M84.5,97.9l-1.6,3.2-1.6,3.3c-9.2-2.8-4.8-5.5-8.7-9.2a.7.7,0,0,1,.1-1.1C74.6,92.9,80,90.8,84.5,97.9Z"/><path class="cls-6" d="M82.9,101.1l-1.6,3.3c-9.2-2.8-4.8-5.5-8.7-9.2a.5.5,0,0,1-.2-.4c1.4-.5,6.4-1.5,9.8,4.5A10.8,10.8,0,0,1,82.9,101.1Z"/><path class="cls-7" d="M98.6,129.9a1.6,1.6,0,0,0,1.7-1.1C100.9,127.4,98.1,127.2,98.6,129.9Z"/><path d="M98.6,129.9a1.2,1.2,0,0,0,1-.2,1.6,1.6,0,0,0,.6-.8,1.4,1.4,0,0,0,.2-.6c0-.3-.3-.4-.6-.5a1.2,1.2,0,0,0-.9.4,1.9,1.9,0,0,0-.3,1.5v.2h0a1.9,1.9,0,0,1,.3-1.6.9.9,0,0,1,.8-.5.8.8,0,0,1,.7.4.7.7,0,0,1-.1.5,1.8,1.8,0,0,1-.6.9,1.4,1.4,0,0,1-1.1.3Z"/><path class="cls-8" d="M101.2,126.4a4.8,4.8,0,0,0,1.7,0c.2-.2-1.5-3-1.5-3Z"/><path class="cls-7" d="M99.8,130.6s2.9.1,2.2-4.4S99.8,130.6,99.8,130.6Z"/><path d="M99.8,130.6a2.8,2.8,0,0,0,1.5-.6c1-1,.9-2.8.6-4.1s-.1-.8-.4-.9-.3.2-.4.3a5.6,5.6,0,0,0-.4,1.2,8.5,8.5,0,0,0-.4,1.7,20.5,20.5,0,0,0-.5,2.4h0a11.6,11.6,0,0,1,.4-1.8c.2-1,.4-2,.7-3a3,3,0,0,1,.4-.8c.3-.2.4.4.5.5a6.5,6.5,0,0,1,.2,2.4,2.7,2.7,0,0,1-.5,1.8,2.4,2.4,0,0,1-1.7.9Z"/><path class="cls-5" d="M128.3,69.9a.5.5,0,0,0-.7-.3.7.7,0,0,0-.3.8,1.4,1.4,0,0,1-.2,1.6h0a3.6,3.6,0,0,0-.4-.9l-.4-.7a2.5,2.5,0,0,0-2.2-1.1,2.2,2.2,0,0,0-1.6,1.4,2.7,2.7,0,0,0,.4,2.6,2.9,2.9,0,0,0,2.7,1l-.4.5a9.5,9.5,0,0,1-3.6,2.2.6.6,0,0,0-.3.7.5.5,0,0,0,.5.3h.2a10.9,10.9,0,0,0,4.4-3,7.5,7.5,0,0,0,.7-1.2v-.2A3.1,3.1,0,0,0,128.3,69.9Zm-4.5,2.8a1.6,1.6,0,0,1-.3-1.5,1.3,1.3,0,0,1,.8-.7h.1a1.3,1.3,0,0,1,1,.7,2.4,2.4,0,0,1,.6.9,2.8,2.8,0,0,1,.1.9A1.6,1.6,0,0,1,123.8,72.7Z"/><path class="cls-4" d="M98.6,127.1s-.8,2.4-.2,2.8,1-.6,1-.6,0,1.3.4,1.3,1.5-.6,1.9-3.3S98.6,127.1,98.6,127.1Z"/><path class="cls-9" d="M126.2,91.5c-1.7,5.2-5.1,8.8-5.4,8.6s-.5-.1-.8.2c-3.2,3.1-9.5,8.9-15.8,12.2l-1.5.8-2.1.8c-2.6,1-2-.1-3.5,1.1l-.4.3-.9.8-.8.6-.3.3a33.5,33.5,0,0,1-9.6,5l-3.7,1.1-4,.8h-.5l-.3-.3L71,118.3a4.4,4.4,0,0,0,1.9-2.1c2.1-4,1.8-11.6,6.3-17.3s12-7.9,16-11.9c19.6-18.9,27.7-11.7,29.1-10.8a7.1,7.1,0,0,1,2.4,3.6A23,23,0,0,1,126.2,91.5Z"/><path class="cls-5" d="M82.7,122.1c-.8.4-1.1.6-1.3,1.2l-4,.8c2.4-.6,4.3-1.5,4.7-2.3S84.3,121.4,82.7,122.1Z"/><path class="cls-5" d="M77.7,122.2a6.2,6.2,0,0,1-1.1,1.7L71,118.3a4.4,4.4,0,0,0,1.9-2.1,4,4,0,0,1,3.2-.3C78.1,116.8,78.8,119.6,77.7,122.2Z"/><path class="cls-10" d="M77.8,121.9c.5,1.7-1,3-3,2.5a6.7,6.7,0,0,1-4.5-4c-.4-1.7,1-2.9,3-2.4S77.4,120.2,77.8,121.9Z"/><path class="cls-5" d="M77.1,122.3c.4,1.6-.7,2.5-2.6,2a6.5,6.5,0,0,1-4.3-3.7c-.4-1.6.7-2.5,2.6-2.1A6.6,6.6,0,0,1,77.1,122.3Z"/><path class="cls-11" d="M82.6,114.6l-.4-.2a.9.9,0,0,1-.1-.5c.1-1.4,0-4.2,4.5-3.5C86.6,110.4,88.4,114.8,82.6,114.6Z"/><path class="cls-12" d="M72.9,121c.1.5-.3.7-.7.5a1.7,1.7,0,0,1-.8-1.3c0-.5.3-.7.7-.4A1.4,1.4,0,0,1,72.9,121Z"/><path class="cls-12" d="M75.9,122.6c0,.5-.3.7-.7.5a1.4,1.4,0,0,1-.8-1.3c-.1-.5.3-.7.7-.5A1.8,1.8,0,0,1,75.9,122.6Z"/><path class="cls-12" d="M86,111.7s-.3,1.8-1.2,2-1.2-.3-1.8.1a4.6,4.6,0,0,0,.3-.9,2,2,0,0,1,.9-1.6A1.3,1.3,0,0,1,86,111.7Z"/><path d="M82.9,113.9H83l.3-.8h0a2.4,2.4,0,0,1,.9-1.7,1.3,1.3,0,0,1,1.8.5h0c0,.1-.3,1.9-1.2,2h-.9a.8.8,0,0,0-.9.2Zm2-2.8a1.1,1.1,0,0,0-.7.2c-.6.3-.7,1-.9,1.6h0c-.1.3-.1.5-.2.8s.5-.2.8-.2h.9c.8-.2,1.1-1.8,1.1-2A1.2,1.2,0,0,0,84.9,111.1Z"/><path class="cls-13" d="M85.8,111.6a1.7,1.7,0,0,1-1.3,1.8,1.2,1.2,0,0,1-1.2-.5,2,2,0,0,1,.9-1.6A1.1,1.1,0,0,1,85.8,111.6Z"/><path d="M85.6,111.6a1.7,1.7,0,0,1-.7,1.4,1.1,1.1,0,0,1-1.4-.2v.2c.2-.5.3-1.2.8-1.5a.8.8,0,0,1,.9-.1h.2l.3.2c.1.2.2.1.3,0a.2.2,0,0,0,0-.3,1.4,1.4,0,0,0-1.2-.6,1.9,1.9,0,0,0-1.5,1.1c-.1.3-.1.5-.2.8v.2l.2.3.4.3a1.5,1.5,0,0,0,1.7-.2,2.7,2.7,0,0,0,.8-1.7.3.3,0,0,0-.3-.3C85.7,111.3,85.6,111.4,85.6,111.6Z"/><path class="cls-14" d="M85.3,111.8c0,.2-.1.3-.3.4s-.4-.1-.4-.3.1-.4.3-.4S85.3,111.6,85.3,111.8Z"/><path class="cls-5" d="M98.8,101.7a.7.7,0,0,1-.1.5c-3,4-3.1,12.2-8.7,7.1l-.5-.4-1-1.6a3.5,3.5,0,0,1,1.2-5.1,11.7,11.7,0,0,1,8.6-1.1A.6.6,0,0,1,98.8,101.7Z"/><path class="cls-6" d="M98.8,101.7a.7.7,0,0,1-.1.5c-3,4-3.1,12.2-8.7,7.1a4.4,4.4,0,0,1,0-2.3C90.9,102.1,96.3,101.7,98.8,101.7Z"/><path class="cls-9" d="M102.9,111.3c0,.8,0,1.8-.1,2.9s-.1,1.2-.1,1.8h-.1v.2h0v.2a.8.8,0,0,0-.1.4c-.1.4-.1.9-.2,1.3v.2h0c-.1,0-.1.1-.1.2a1.1,1.1,0,0,1-.1.5v.5a1.3,1.3,0,0,0-.1.6h0v.3h-.1v.9h0a.4.4,0,0,0-.1.3v.5h0v.7h0v.2h0c0,.1.1.3.1.4v.4c.1.5.1.9.2,1.3v.9h0a4.3,4.3,0,0,1-.4,2.4h0v-.2h-1.4l-.5.2a1.2,1.2,0,0,0-.2-.6v-.2c-.2-.3-.5-.5-1.1-.1h0a8.3,8.3,0,0,0,.1-2.1,30.7,30.7,0,0,0-.3-3.4,36.1,36.1,0,0,0-.8-3.8,41.1,41.1,0,0,1-1-4.1"/><path class="cls-7" d="M122.2,116.6a2.2,2.2,0,0,0,2.2-1.3C125.2,113.8,121.6,113.5,122.2,116.6Z"/><path class="cls-8" d="M125.9,113s1.7.6,2.1.4-.9-3.7-.9-3.7Z"/><path class="cls-7" d="M123.8,117.4s3.6.1,2.7-5S123.8,117.4,123.8,117.4Z"/><path class="cls-4" d="M122.7,113.6s-1.1,2.8-.3,3.2,1.3-.6,1.3-.6-.1,1.4.5,1.4,1.9-.7,2.4-3.7S122.7,113.6,122.7,113.6Z"/><path class="cls-9" d="M125.3,78.3l1.1,1a12.5,12.5,0,0,1,3.6,9V91c0,.3-.1.6-.1.9h0v1c-.1.2-.1.5-.2.8a.8.8,0,0,1-.1.4l-.3,1.4c0,.1-.1.2-.1.3s-.1.6-.1.8-.1.1-.1.2v.3c-.1.1-.1.1-.1.2v.2h0a.1.1,0,0,0-.1.1h0v.2a5.3,5.3,0,0,0,.1,2.2,5.8,5.8,0,0,1,.2,4.8h0a10.6,10.6,0,0,0-.3,1.4h0l-.3,1.4c0,.2-.1.4-.1.6v.3a.4.4,0,0,0-.1.3c0,.1-.1.2-.1.4v.3a3.6,3.6,0,0,0-.2,1,.4.4,0,0,0-.1.3.4.4,0,0,1-.1.3c-.1.4-.1.8-.2,1.2a.6.6,0,0,0-.1.4l-.3,1.1c0,.2-.1.3-.1.4h-.1a1.7,1.7,0,0,0-.2.5h-.1v.2h-.1a.3.3,0,0,0-.1-.2h0a.1.1,0,0,1-.1-.1h0c0-.1-.1-.1-.1-.2h-.1l-.2-.2h0c-.1,0-.1,0-.1-.1h-1.9a.4.4,0,0,1-.1-.3h-.7c-.1,0-.2,0-.2.1h-.1l-.5.2h0c.3-1.2.3-1.6.4-2.1.7-2.7,1.6-6.9.5-8.2a.3.3,0,0,1-.1-.2h-.2l-.4-.6c0-.1-.1-.1-.1-.2l-.6-1c0-.1-.1-.1-.1-.2l-.2-.3c0-.1-.1-.3-.1-.4s-.1-.1-.1-.2-.1-.3-.2-.4,0-.2-.1-.2-.1-.3-.1-.4v-.8c-.1-.1-.1-.1-.1-.2V98c-.1,0-.1-.1-.1-.2v-.2h0a19.9,19.9,0,0,1-.5-4"/><path class="cls-15" d="M101,130.8a2.4,2.4,0,0,1-1.3.4h0c-.2,0-.6-.1-.8-.7h-1c-.5-.4-.6-1.2-.2-2.7v-.3a7.2,7.2,0,0,0,0-1.5v-.4a18.7,18.7,0,0,0-.3-3.4,32.1,32.1,0,0,0-.8-3.6l-.2-.7-.3-1.2-.9.8-.4.2a7.1,7.1,0,0,1-1.4,1v.5c1.4,2.6,1.3,3,1,3.3a.9.9,0,0,1-.7.3,6.9,6.9,0,0,1-.5,3.2,4.1,4.1,0,0,1-.5.9l-.6.5a2.9,2.9,0,0,1-1.4.4h0c-.5,0-.7-.4-.8-.8H89c-.4-.3-.7-.9-.2-3.2a6.6,6.6,0,0,0,.1-1.9v-.3l-3.8,1.4-3.6,1.1h-.2l-3.1.7-1,.2h-.4a3.8,3.8,0,0,1-2.4.2H74a6.9,6.9,0,0,1-4.7-4.2,2.3,2.3,0,0,1,.2-1.9.9.9,0,0,1,.3-.5h-.2l.7-.4.8-.6A4.7,4.7,0,0,0,72,116a23.4,23.4,0,0,0,1.8-5.8,38.4,38.4,0,0,1,2.2-7.4,5.5,5.5,0,0,1-2.2-3.7,6.4,6.4,0,0,0-2-3.5,2.1,2.1,0,0,1-.4-.7,1.4,1.4,0,0,1,.7-1.4,8.2,8.2,0,0,1,10.3,1.2,54,54,0,0,1,6.2-4,28.2,28.2,0,0,0,6.1-4.1c16.4-15.7,25.3-14,29.3-11.4l.4-.3a2.9,2.9,0,0,1-1.8-1.1,3.3,3.3,0,0,1-.5-3.2,3.1,3.1,0,0,1,2.1-1.8,2.9,2.9,0,0,1,2.6,1.3.4.4,0,0,0,.1-.3,1.1,1.1,0,0,1,.6-.7,1.4,1.4,0,0,1,.9-.1.9.9,0,0,1,.6.6c.9,1.6,0,3.4-1.2,4.4h0a6.1,6.1,0,0,1-.7,1.4,6.8,6.8,0,0,1-1.2,1.2,7.2,7.2,0,0,1,1.4,2.6,12.4,12.4,0,0,1,3.5,9v2.8c0,.3-.1.6-.1.9v1.1a2.4,2.4,0,0,0-.2.8l-.5,2.2c-.1.2-.1.5-.2.7l-.2,1.2v.4a3.8,3.8,0,0,0,.1,1.9,6.5,6.5,0,0,1,.2,5.1l-.3,1.4-.8,4.2c.6,2,.6,2.6.1,2.9h-.8c-.1.2-.1.4-.2.6l-.2.7a3.9,3.9,0,0,0-.2.6l-.2.3h0c-.1,0-.1.1-.2.2l-.4.8h-.5a3.6,3.6,0,0,1-1.9.6h0c-.3,0-.7-.1-.9-.8h-1.2c-.7-.4-.8-1.4-.2-3.2s.2-1.1.2-1.4.1-.4.2-.6c.4-1.8,1.5-6.6.6-7.7l-.3-.3-.5-.7h-.1l-.6-1.1-.3-.5-.2-.5h0a.1.1,0,0,1-.1-.1l-1.5,1.4a22.8,22.8,0,0,0-.2,4.3c1.3,2.7,1.2,3.1.9,3.4s-.3.3-.7.3a6.3,6.3,0,0,1-.4,3.2l-.6.8-.6.6a2.6,2.6,0,0,1-1.3.4h0l-.6-.3-.3-.5h0a1,1,0,0,1-.9-.2c-.4-.2-.7-.8-.2-3.2a14.9,14.9,0,0,0,.1-1.9c0-.2-.1-.3-.1-.4a15.5,15.5,0,0,0-.1-2.2,63.5,63.5,0,0,1-9.5,6.6l-1.1.5v.6c-.1.6-.1,1.2-.2,1.9l-.2,1a5.9,5.9,0,0,1-.2,1.3l-.4,3.7V124c1.2,2,1.3,2.4.9,2.8a.9.9,0,0,1-.7.3,4.5,4.5,0,0,1-.5,2.6h0l-.4.6Zm-1.3-.8Zm1.9-11.5v-.3l.3-1.3v-1c.1-.6.1-1.2.2-1.8v-1.3l.4-.2,1.3-.6a63.6,63.6,0,0,0,10.2-7.1l.9-.7v1.1l.3,3.3v.4a20.3,20.3,0,0,1-.1,2.2,10.5,10.5,0,0,0-.3,1.8l.2-.2,1.3-2.9-.2,3.2a2.8,2.8,0,0,0,.1.9,1.9,1.9,0,0,0,1.1-1.2v-.3a8,8,0,0,0,.2-2.8V109h.8c-.2-.3-.4-1-1-2v-.3a29.6,29.6,0,0,1,.2-4.9v-.4a13.3,13.3,0,0,0,1.7-1.6q.9-.7,1.5-.3h.2v.4c0,.1.1.2.1.4h.1c.1.2.1.3.2.4l.2.5.6,1h.1l.4.6.3.3c1.2,1.5.5,5.3-.4,8.8a.9.9,0,0,1-.1.5,5.6,5.6,0,0,1-.3,1.5,7.6,7.6,0,0,0-.3,1.8h.8l.8-.4v.9a.8.8,0,0,1,.1.4,2.6,2.6,0,0,0,1.8-1.2l.2-.5h.1v-.2h-.1l.2-.5.3-1.1v-.6h.8l-.4-1.5v-.2l.9-4.4a9.6,9.6,0,0,1,.3-1.5,5.9,5.9,0,0,0-.2-4.5,5,5,0,0,1-.1-2.5l.2-1.5h0a2.4,2.4,0,0,0,.2-.8l.5-2.2c.1-.2.1-.5.2-.7l.2-1h0c0-.3.1-.6.1-.9v-.2a2.8,2.8,0,0,0,.1-.8V88.3a12.2,12.2,0,0,0-3.2-8.3l-.2-.2a6.2,6.2,0,0,0-1.7-2.7l-.4-.5H124l-.3-.3c-3.6-2.5-11.9-4.4-28.2,11.1a30,30,0,0,1-6.3,4.2A60.7,60.7,0,0,0,82.7,96l-.4.3-.4-.4a7,7,0,0,0-9.2-1.3h-.1a6.7,6.7,0,0,1,2.3,4.1,4.6,4.6,0,0,0,2.1,3.2l.5.3-.2.4a35.2,35.2,0,0,0-2.3,7.7,32.7,32.7,0,0,1-1.9,6A5.8,5.8,0,0,1,72,118l-.4.4h0l-.6.4h0l-.4.5h-.1a1.2,1.2,0,0,0,0,1,5.5,5.5,0,0,0,3.8,3.3h.4a2.5,2.5,0,0,0,1.7-.2l.4-.2H77l.9-.2,2.6-.5H81l3.7-1.1a30.2,30.2,0,0,0,4.5-1.8l.8-.4v2.1a5.7,5.7,0,0,1-.1,2.2,11.6,11.6,0,0,0-.2,2h.4l.8-.5v1.4a1.9,1.9,0,0,0,1.1-1.1l.2-.4a8,8,0,0,0,.2-2.8v-.7h.7l-.9-2V118l.3-.2,1.6-1.1c0-.1.2-.2.4-.3l1-.8.6-.5.7-.6.3.9a16,16,0,0,0,.5,2.1l.2.7a27.8,27.8,0,0,1,.8,3.8,19,19,0,0,1,.3,3.5v.9l.3-.2-.4,1.6a5.8,5.8,0,0,0-.2,1.5h.4l.8-.4v1.1a1.3,1.3,0,0,0,1.1-.8v-.3a3.7,3.7,0,0,0,.2-1.9v-.8l.7-.2h0l-.8-1.4v-1a.9.9,0,0,1-.1-.5v-1l.4-3.3m-10.7,7.8Zm33-9.7Zm-7.8-2.8Zm10.6-40.5h0Zm.2-.4h0Zm-2.4-2a.7.7,0,0,0-.3.3.9.9,0,0,0,.2.9h0a1.1,1.1,0,0,0,1.3.4.4.4,0,0,1-.1-.3,4.1,4.1,0,0,0-.5-.9Z"/><path class="cls-16" d="M89.5,120.3s2.9-1,3.9-2.4"/><path class="cls-16" d="M114.4,105.8l4-3.9"/></g></g></svg>