<svg xmlns="http://www.w3.org/2000/svg" viewBox="0 0 200 200"><defs><style>.cls-1{fill:#dbd2c1;stroke-width:0.08px;opacity:0.3;}.cls-1,.cls-11,.cls-14,.cls-2{stroke:#000;stroke-miterlimit:10;}.cls-2{fill:#f4ead7;}.cls-11,.cls-14,.cls-2{stroke-width:0.04px;}.cls-3{fill:#c1955b;}.cls-4{fill:#d6aa76;}.cls-5{fill:#a3743b;}.cls-6{fill:#423b32;}.cls-7{fill:#2b2722;}.cls-8{fill:#b28957;}.cls-9{fill:#fcdaad;}.cls-10{fill:#68553e;}.cls-11{fill:#9b9286;}.cls-12{fill:#78909c;}.cls-13{fill:#262626;}.cls-14{fill:#fff;}.cls-15{fill:#e0b886;}.cls-16{fill:#6b5e4d;}.cls-17{fill:#383634;}</style></defs><g id="Goat_03"><g id="Goat_01"><path class="cls-1" d="M72.8,95.7c7.4,12.2,16.1,12.3,26.9,17.4l.7.3h.2l1.8.9.4.2h1.9v-.3a4.3,4.3,0,0,0,.1-.5c0-.2.1-.5.1-.7s.8-3.4,1.1-5.2h-.1c.4-3.3-.2-6-3.4-6.1-1.5,0-3.4.5-5.2.5-7.8-.4-13.2-7.7-17.5-13.6l-2-2.7c-2.1-2.8-3.7-1.4-5.3.2C72.7,89.5,72.9,93.5,72.8,95.7Z"/><path class="cls-2" d="M62.1,87.6h0c.3,2.9,3.6,16,5.4,14.4a22.2,22.2,0,0,0,4.6-7.6l.7,1.2c.1-2.2-.1-6.2-.3-9.3,1.6-1.6,3.2-3,5.3-.2l2,2.7c4.3,5.9,9.7,13.2,17.5,13.6,1.8,0,3.7-.5,5.2-.5,3.2.1,3.8,2.8,3.4,6.1h.1c-.3,1.8-.7,3.7-1.1,5.2s-.1.5-.1.7a4.3,4.3,0,0,1-.1.5v.3l2.2-.3h1.8a35.8,35.8,0,0,0,17.5-6.4,29.4,29.4,0,0,0,3.7-3.2c7-7.3,7.1-16.3-3-16.9-2.8,1.7-5.7.7-8.5,1S107.2,86,99.7,81.8C89,75.8,86.6,66.3,72.8,65.9a8.2,8.2,0,0,0-4.1.8C64,69.1,61.3,76.1,62.1,87.6Z"/><path class="cls-3" d="M63.8,69.2h-.6c.8.7,2.2,1.8,4.4,0l.8-.4a3.4,3.4,0,0,1,2.2.6c.3.2.7,0,1-.3a9.1,9.1,0,0,0,1-1.3,2.5,2.5,0,0,1-1-.3l-.9-.5a7.6,7.6,0,0,1-1.6-2.1.8.8,0,0,1-.2.5,2.2,2.2,0,0,0-1.7-1,.7.7,0,0,1,.3.6,1.8,1.8,0,0,0-2.1.7.8.8,0,0,1,.7.2c-.3.6-1,2.1-1.7,2s.7.2.7.2-1.3.8-2.4.1A3.1,3.1,0,0,0,63.8,69.2Z"/><path class="cls-3" d="M68.4,68.7a3.4,3.4,0,0,1,2.2.6c.3.2.7,0,1-.3a1.8,1.8,0,0,0,0-1.6l-.9-.5A6.9,6.9,0,0,0,68.4,68.7Z"/><path class="cls-4" d="M147.1,93.3c-8.8,5.6-7.7-3.1-12.7-3.5-2.5-.1-1.5-2.4.7-3.3,6.3-2.3,8.1,3.9,12.5,5.2C148.8,92,148.2,92.6,147.1,93.3Z"/><path class="cls-5" d="M135.4,89.4s1.9-.6,5.1,1.8,6.6.7,6.7,1.1-3,2.8-5.6,2.3S138.8,90.6,135.4,89.4Z"/><path class="cls-6" d="M78.1,112.3l-1-1.6a3.4,3.4,0,0,0,2.2.9,12.9,12.9,0,0,1-1.8-3.1,12.5,12.5,0,0,0-4.3.4v.4C72.7,112.8,76.7,112.4,78.1,112.3Z"/><path class="cls-7" d="M79.3,111.6a8.2,8.2,0,0,1-2.6-1.5l.4.6A3.7,3.7,0,0,0,79.3,111.6Z"/><path class="cls-7" d="M78.1,112.3s-4.5-.4-5-3C72.7,112.8,76.7,112.4,78.1,112.3Z"/><path class="cls-3" d="M73.2,108.9h0c3,1.4,4.3-.4,4.3-.4s-1.2-5.7,0-7.4a3.5,3.5,0,0,0,.5-.8c.6-1.1.2-1.7.2-3.3a52.7,52.7,0,0,1,2-8.4l.9-3.4c-1.6-2.7-4.2-3.8-8-2.8,0,0,.2,1.7.3,3.9s.5,7.5.2,9.1-.1.5-.2.6-.2,3.2,0,5.1c.4,4-.8,3.8-.8,4.9S73.5,107.6,73.2,108.9Z"/><path class="cls-6" d="M116.3,132.9l-.9-1.6a2.4,2.4,0,0,0,1.9.8,9.3,9.3,0,0,1-1.5-3,10.4,10.4,0,0,0-3.9.4v.4C111.5,133.4,115,133,116.3,132.9Z"/><path class="cls-7" d="M117.3,132.1s-1.8-.7-2.2-1.4l.3.6A2.5,2.5,0,0,0,117.3,132.1Z"/><path class="cls-7" d="M116.3,132.9s-4-.4-4.4-3C111.5,133.4,115,133,116.3,132.9Z"/><path class="cls-8" d="M119,106.1s-2.6,9.7-2.6,11.6.4,2.4-.6,4.1,0,7.3,0,7.3-1.2,1.8-3.9.4c.3-1.3-.5-1.8-.5-2.8s1.1-.9.7-4.9c-.1-1.9-1-3.6,0-5.1s-.2-13.5-.2-13.5C115.2,102.3,117.5,103.3,119,106.1Z"/><path class="cls-6" d="M105.3,137.9l-.9-1.6a3,3,0,0,0,2,.8,9.8,9.8,0,0,1-1.6-3,9.9,9.9,0,0,0-3.8.4v.4C100.6,138.4,104.1,138,105.3,137.9Z"/><path class="cls-7" d="M106.4,137.1a6.1,6.1,0,0,1-2.3-1.5l.3.7A2.8,2.8,0,0,0,106.4,137.1Z"/><path class="cls-7" d="M105.3,137.9s-3.9-.5-4.3-3C100.6,138.4,104.1,138,105.3,137.9Z"/><path class="cls-9" d="M108,111s-2.5,9.7-2.5,11.7.4,2.4-.7,4.1,0,7.3,0,7.3-1.1,1.7-3.8.4c.2-1.3-.5-1.8-.5-2.9s1.1-.9.7-4.8c-.2-1.9-1-3.6,0-5.1s-.3-13.5-.3-13.5C104.3,107.2,106.6,108.3,108,111Z"/><path class="cls-9" d="M62.1,87.6h0c.3,2.9,3.6,16,5.4,14.4a22.2,22.2,0,0,0,4.6-7.6c7.7,13.7,16.9,13.3,28.3,18.9h.2l1.8.9.6.3c1.2.3,2.6-.1,3.9-.2h.7a35.2,35.2,0,0,0,18.6-6.5,29.4,29.4,0,0,0,3.7-3.2c7-7.3,7.1-16.3-3-16.9-2.8,1.7-5.7.7-8.5,1S107.2,86,99.7,81.8C89,75.8,86.6,66.3,72.8,65.9a8.2,8.2,0,0,0-4.1.8C64,69.1,61.3,76.1,62.1,87.6Z"/><path class="cls-9" d="M136.7,88.6c3.3,4,4,7,5.7,11.5s2.4,6.1-.5,8.3a4,4,0,0,1-4,.6,12.6,12.6,0,0,1-4.1-3.1c-.4-.6-5.4-.3-8.7-4.1s-2.9-8.8-2-11.6S133.7,85,136.7,88.6Z"/><path class="cls-10" d="M142.7,103.5c.1-.2.4,0,.4.2a2.8,2.8,0,0,1-1.2,1.8,3.3,3.3,0,0,1-1.1,3.2.2.2,0,0,1-.3-.3,4.8,4.8,0,0,0,.9-2.8,6,6,0,0,1-2-.6c-.3-.3-.4-.7.4-.5S141.9,104.9,142.7,103.5Z"/><path class="cls-11" d="M129.6,96.6s.6,1.8,1.6,1.8,1.1-.5,1.8-.1a3.9,3.9,0,0,1-.4-.9c-.3-.6-.6-1.3-1.3-1.5A1.3,1.3,0,0,0,129.6,96.6Z"/><path class="cls-12" d="M129.7,96.5a1.9,1.9,0,0,0,1.7,1.6,1.7,1.7,0,0,0,1.2-.7c-.3-.6-.6-1.3-1.3-1.5A1.1,1.1,0,0,0,129.7,96.5Z"/><path d="M129.7,96.5a2.2,2.2,0,0,0,.9,1.4,1.4,1.4,0,0,0,1.5,0l.4-.3h.1v-.2l-.4-.7a1.9,1.9,0,0,0-1.4-.9,1.2,1.2,0,0,0-1.1.7h0a1.3,1.3,0,0,1,.9-.7,1.7,1.7,0,0,1,1.5.7,1.6,1.6,0,0,1,.3.6.1.1,0,0,0,.1.1v.2c.1.1-.2.3-.3.4a1.4,1.4,0,0,1-1.5.1,2.7,2.7,0,0,1-1-1.5Z"/><path class="cls-13" d="M132,97.1a.4.4,0,0,1-.2.5,4.8,4.8,0,0,1-1.6-.8c-.1-.2.1-.6.2-.6S132,96.9,132,97.1Z"/><path d="M132,97.1a.6.6,0,0,1-.1.4h-.5l-1-.5c-.1-.1-.2-.1-.2-.2v-.4c.1,0,.1-.2.2-.1h.3l.5.2.5.3h.3l-.2-.2-.6-.3-.5-.2h-.3c-.2,0-.3.3-.3.4a.5.5,0,0,0,.2.4l1.1.5h.4l.2-.2c0-.1.1-.2,0-.3Z"/><path class="cls-14" d="M130.3,96.6c0,.2.2.3.4.3a.3.3,0,0,0,.3-.3c0-.2-.1-.4-.3-.4A.4.4,0,0,0,130.3,96.6Z"/><path class="cls-15" d="M72.1,94.5c7.8,13.7,16.9,13.3,28.4,19h.1s.8-4.2.2-4.9-10.7,0-15.9-4.5S74.4,87.8,73.5,88.4,72.1,94.5,72.1,94.5Z"/><path class="cls-6" d="M68.2,118.2l-1-1.6h.1a3.4,3.4,0,0,0,1.2.6h.8a9.6,9.6,0,0,1-1.7-3.1s-2.6-1.1-4.3.4a.8.8,0,0,0-.1.4C62.8,118.7,66.8,118.3,68.2,118.2Z"/><path class="cls-9" d="M63.3,114.7l.3.2H64a3.6,3.6,0,0,0,2.5.1,2.2,2.2,0,0,0,1.1-.8s-1.2-5.7,0-7.3.7-2.2.7-4.2a8.6,8.6,0,0,1,.3-1.7c.3-1.4.8-3.4,1.3-5.3l1.3-4.7A7.3,7.3,0,0,0,69,88.7a5.7,5.7,0,0,0-2.2-.7,8.9,8.9,0,0,0-3.6.2h0c0,.4.1,1.4.2,2.8.3,3.7.7,10,.1,10.8s-.2,3.2,0,5.1c.4,4-.8,3.8-.8,4.9S63.5,113.4,63.3,114.7Z"/><path class="cls-7" d="M66.8,115.9l.3.7h.2a3.4,3.4,0,0,0,1.2.6h.8S67.3,116.7,66.8,115.9Z"/><path class="cls-7" d="M68.2,118.2s-4.5-.5-5-3.1C62.8,118.7,66.8,118.3,68.2,118.2Z"/><path class="cls-15" d="M115.7,104.5c12.3,1.4,6.4-7.2,11.5-10.1,2.6-1.5.2-3.4-2.5-3.1-7.8.7-6.4,8.2-10.3,11.8C113.3,104,114.2,104.3,115.7,104.5Z"/><path class="cls-3" d="M126,94.4s-2.3.4-4.5,4.5-6.5,4.1-6.4,4.6,4.6,1.4,7.1-.5S123,97.4,126,94.4Z"/><path class="cls-16" d="M133.4,88l-1.1-.6c-1.6-.8-.5-1.9,1-2.7a.9.9,0,0,1,1.3.8c-.1,1.3-.4,3-1.2,2.5"/><path class="cls-16" d="M129.8,90.6l-1.1-.6c-1.5-.8-.5-1.9,1.1-2.7a.8.8,0,0,1,1.2.8c-.1,1.3-.4,3-1.2,2.5"/><path class="cls-17" d="M104.1,138.6a3.8,3.8,0,0,1-3-1,3.1,3.1,0,0,1-.8-2.7h0v-.2a.4.4,0,0,1,.1-.3h0a3.1,3.1,0,0,0-.3-1.3,4.2,4.2,0,0,1-.3-1.4,1.8,1.8,0,0,1,.4-1.1c.2-.5.6-1.2.3-3.7a5.9,5.9,0,0,0-.2-1.4,5.3,5.3,0,0,1,.3-4.1c.1-.1.4-1,.1-7l-.5-.2a80.9,80.9,0,0,0-8.5-3.5c-5-1.9-9.7-3.7-14-7.7a20.6,20.6,0,0,0,.5,5.4,10.3,10.3,0,0,0,1.6,2.8l.9,1.1H78.8l.4.7H78.1c-1.2.1-3.6.3-4.9-1a3.6,3.6,0,0,1-.8-2.4h0v-.8h.1a2.4,2.4,0,0,0-.3-1.2A5.7,5.7,0,0,1,72,106a3.5,3.5,0,0,1,.3-1.2c.3-.5.7-1.1.4-3.6a7.7,7.7,0,0,0-.2-1.5,6.2,6.2,0,0,1-.1-3.3.8.8,0,0,0-.2-.4,25.7,25.7,0,0,1-2.9,5v.2a8.2,8.2,0,0,0-.2,1.6,4.1,4.1,0,0,0,.1,1.2,4.5,4.5,0,0,1-1,3.4c-.7,1-.3,4.7.2,6.8a8.2,8.2,0,0,0,1.6,2.8l.8,1H68.9l.4.7H68.2c-1.2.1-3.6.3-4.9-1.1a3.1,3.1,0,0,1-.7-2.7v-.4h0a2,2,0,0,0-.2-1.3,2.9,2.9,0,0,1-.4-1.4,1.9,1.9,0,0,1,.4-1.2c.3-.5.7-1.2.4-3.7a7.7,7.7,0,0,0-.2-1.5c-.3-1.3-.6-2.7.3-4s.4-1.1.1-6.7a61.5,61.5,0,0,1-1.6-7h0c-.5-7.4.4-13.3,2.6-17.2a5.1,5.1,0,0,1-1.3-.9l-2.2-2.2,1.3.5-1-1.7L63,67.5c.2.2.4.2.6.3l-.3-.7h1.1c.1,0,.3-.1.7-.8h-.8l.5-.9a1.7,1.7,0,0,1,1.1-.9l-.7-.5,1.9-.2a1.7,1.7,0,0,1,1.4.3l.2-1.5,1,2,.6,1,1.6-.3h1a31,31,0,0,1,4.5.5c6.1,1.3,9.7,4.7,13.5,8.3a42.5,42.5,0,0,0,9.1,7.2l5.2,2.7c5.4,2.6,10.7,4.4,12.9,4.3h5.6a11.6,11.6,0,0,1,7.3-2.3,4.5,4.5,0,0,1,2-1.8,1.5,1.5,0,0,1,1.6.1,1.5,1.5,0,0,1,.7,1.4v.2c4.1-1.4,6.5.8,8.7,2.7a9.3,9.3,0,0,0,3.8,2.5c.2.1,1,.3,1.1,1s-.6,1.3-1.4,1.8c-2.5,1.6-4.4,2.2-6,2l.7,1.8c.2.7.5,1.5.8,2.3v.2c1.4,3.7,2.4,6.4-.8,8.8a4.6,4.6,0,0,1-4.6.7,10.4,10.4,0,0,1-4.3-3.2l-.9-.2-2.5-.6-.8.9-2,1.6h-.1l-.5.4h-.2l-1.6,1.1-.5.3-.4.2-1.1.6-.6.3-.5.3-1,.5-.7.3-.5.2-1,.4-.6.2a29.1,29.1,0,0,0-.8,4.6v1.2a4.1,4.1,0,0,1-.8,3.3c-.7,1-.3,4.7.1,6.8a9.7,9.7,0,0,0,1.5,2.8l.7,1H117l.3.7h-1c-1,.1-3.1.3-4.3-.9a3.6,3.6,0,0,1-.8-2.8h0v-.5h0a2.5,2.5,0,0,0-.2-1.3,3.2,3.2,0,0,1-.3-1.4,1.9,1.9,0,0,1,.3-1.2,6.3,6.3,0,0,0,.4-3.6l-.3-1.5c-.2-1.4-.5-2.7.4-4a9.9,9.9,0,0,0,.1-1.7H111l-1.4.2h-1.9c-1.4,5.4-1.6,7-1.6,7.5s.1.8.1,1.2a4.2,4.2,0,0,1-.8,3.2c-.7,1.1-.3,4.8.1,6.8a9.1,9.1,0,0,0,1.4,2.8l.8,1.1H106l.4.7h-2.3Zm-2.5-3.6a2.2,2.2,0,0,0,.4,1.7,3.6,3.6,0,0,0,2.3.6c-.3-.6-.3-.9,0-1.2l.4-.3h.1l-.6-1.5c-.1-.7-1.1-6.1.1-7.9a3.2,3.2,0,0,0,.6-2.4,5.3,5.3,0,0,1-.1-1.3,57.2,57.2,0,0,1,1.7-8.3v-.5h4.2l1.2-.3h.8l.3.8c0,2.4-.2,2.9-.4,3.2s-.4,1.8-.2,3l.3,1.6c.2,2.7-.1,3.6-.5,4.4a.8.8,0,0,0-.2.6,2.9,2.9,0,0,0,.2.9,3.3,3.3,0,0,1,.4,1.5l.7.4-.8.5c-.1.8,0,1.4.4,1.7a3.2,3.2,0,0,0,2.2.6c-.2-.6-.2-.9.1-1.2l.4-.3h0l-.6-1.5c-.1-.7-1.1-6,.1-7.9a2.8,2.8,0,0,0,.6-2.4c0-.4-.1-.8-.1-1.3a29.5,29.5,0,0,1,1-5.3V112l.6-.2.6-.2,1-.4.5-.2.7-.3.9-.4.5-.3.6-.3,1-.5.4-.3.5-.2,1.6-1.1.5.4-.4-.5.5-.4h.1l1.9-1.5a11.4,11.4,0,0,1,1.1-1.1l.3-.3h.4l2.6.7a2.8,2.8,0,0,1,1.7.5,7.9,7.9,0,0,0,3.8,2.9,2.9,2.9,0,0,0,3.3-.5c2.3-1.7,1.8-3.4.3-7.3h0l-.9-2.3c-.4-1.2-.8-2.2-1.2-3.2l-.8-2,1.8,1.2c.9.5,2.4.9,6.1-1.4l.5-.4a11.1,11.1,0,0,1-4.2-2.8c-2.2-2-4.1-3.7-7.7-2.3l-.7.3-1.3.8.4-1.6c0-.3.1-.8.1-1.2v-.2h-.2c-1.2.6-1.5,1.1-1.5,1.2v.8h-.8c-2.8-.1-5.7.8-7.1,2.1v.2h-6.2c-2.5,0-7.8-1.8-13.5-4.5l-5.3-2.7A48.9,48.9,0,0,1,89.9,75c-3.8-3.6-7.1-6.8-12.8-8a27.4,27.4,0,0,0-4.3-.4H72a5.7,5.7,0,0,0-1.8.3h-.4l-.2-.3-.3-.3v.3l-.9-1-.2-.2v.2H67l-.3.7L66,67.4h.4l-.8,1a1.3,1.3,0,0,1-.7.6l.8.4h.6l-.7.9c-2.4,3.7-3.4,9.6-2.8,17.2a44.3,44.3,0,0,0,1.5,6.9h0c.4,6.8,0,7.4-.3,7.7s-.4,1.6-.1,3l.3,1.6c.2,2.9-.3,3.8-.6,4.5a.6.6,0,0,0-.2.5,2.9,2.9,0,0,0,.2.9,3.4,3.4,0,0,1,.4,1.6h.1l-.2.5v.2a1.8,1.8,0,0,0,.4,1.7,4.1,4.1,0,0,0,2.7.7c-.5-.9-.4-1-.1-1.3l.4-.4.4.3a7.7,7.7,0,0,1-.7-1.6c-.2-.8-1.3-6.2.1-8a3,3,0,0,0,.6-2.5v-1.3a6.9,6.9,0,0,1,.2-1.8l.2-.7a20.1,20.1,0,0,0,3.3-6l.5-1.5.7,1.3L73.8,96l.2.3-.2.4a4.4,4.4,0,0,0,0,2.8l.3,1.5c.3,3-.3,3.9-.6,4.5s-.2.3-.2.5a1.6,1.6,0,0,0,.3.9,5.7,5.7,0,0,1,.3,1.5l1.2.3-1.3.7a1.6,1.6,0,0,0,.4,1.6,3.3,3.3,0,0,0,2.8.7c-.3-.5-.3-.8,0-1.1l.4-.4h.2c-.2-.5-.5-1-.7-1.6s-1.1-5.3-.2-7.4l.3-.9.8.7c4.3,4.4,9,6.2,14.4,8.2,2.7,1,5.4,2.1,8.4,3.5h0l.4.2,1,.4v.4c.4,7.4-.1,8-.3,8.3s-.3,1.8-.1,3l.3,1.6c.2,2.7-.1,3.6-.6,4.4a.9.9,0,0,0-.1.5,3.6,3.6,0,0,0,.2,1,3.1,3.1,0,0,1,.3,1.5l1.1.5Zm3,2.2h0Zm10.9-4.9ZM77.2,111.6Zm56.1-5.3Z"/><path class="cls-15" d="M125,101.6l1.9,1.6,1.3.7,1.6.8-1.9,1.8S126.3,105.4,125,101.6Z"/></g><path class="cls-17" d="M112.6,114.5l-.4-1.3,5.4-1.4.4,1.3Z"/><path class="cls-17" d="M78.3,103.4a16,16,0,0,1-5.5-7.1l1.2-.5s1.7,4.3,5,6.5Z"/><path class="cls-17" d="M65.6,70.5l-1-.9c.4-.4,3.8-4,6.1-4.2v1.3C69.5,66.9,66.9,69.1,65.6,70.5Z"/></g></svg>