<svg xmlns="http://www.w3.org/2000/svg" viewBox="0 0 200 200"><defs><style>.cls-1{fill:#c99673;}.cls-2{fill:#353535;}.cls-11,.cls-13,.cls-3,.cls-5,.cls-6{fill:none;stroke-miterlimit:10;}.cls-11,.cls-3{stroke:#a52f00;}.cls-3{stroke-width:0.13px;}.cls-4{fill:#602f28;}.cls-5{stroke:#000;stroke-width:0.09px;}.cls-13,.cls-6{stroke:#4c2e19;}.cls-6{stroke-width:0.5px;}.cls-7{fill:#4c2e19;}.cls-8{fill:#e9e1ef;}.cls-9{fill:#0f0f0f;}.cls-10{fill:#fff;}.cls-11{stroke-width:0.13px;}.cls-12{fill:#272727;}.cls-13{stroke-width:0.33px;}</style></defs><g id="Cow_02"><path class="cls-1" d="M75.2,105.9c0,.6-1.5,1.8,0,2.8h.4c1.7.7,5.2.1,5.8-1.4a1.5,1.5,0,0,0,.2-.9,3.8,3.8,0,0,0-1.4-2.5C79,90.7,82.3,87.4,82.3,87.4A3.6,3.6,0,0,0,80,83.5l-5.1-.2s0,4.3-1.2,6.2,0,4.6.9,5.9S75.2,105.3,75.2,105.9Z"/><path class="cls-2" d="M75.9,111.4c.9,2.2,5.2,3.7,6.5,3.4s-.4-2.4.3-2.1a1.9,1.9,0,0,0,2.1-.6c0-2.5-3-5.5-3.2-5.6a1.5,1.5,0,0,1-.2.9c-.6,1.5-4.1,2.1-5.8,1.4C75.6,108.8,74.9,109.6,75.9,111.4Z"/><path class="cls-3" d="M81.6,106.5h0"/><path class="cls-1" d="M63,60.8c-1.8,2.8-1.9,13.4-3.3,17.6a23.4,23.4,0,0,1-3.8,7.1l.5-1.3s-.3-.3.1-1.2.5-2.3,1.3-4.4c1.6-4.1.9-12.4,2.7-17.8a17.2,17.2,0,0,1,3.1-6.1,10.7,10.7,0,0,1,3-2.8c4.9-3.4,5.5,1.3,1.9,3.2-2,1.1-3.4,2.5-5.5,5.7"/><path class="cls-4" d="M59.1,77.9c-3.8,3.3-3.6,5.9-5.3,9-.2.4.9-.3,1.4-1.9-.3,2.6-1.2,3.4-1.2,3.4s.2.2,1-.6a3.8,3.8,0,0,1-.5,1.1c.6-.5.9-.8,1-1.2A5.2,5.2,0,0,1,53,90.8c-1,.5,3.6-.9,3.6-4.5a5,5,0,0,1-.9,3.8,3.3,3.3,0,0,0,1.5-2.5,3.3,3.3,0,0,1,0,1c0,.2.2.2.2.1.8-1.9.1-4,.6-6.5,0,1.3.2,2.6.3,3.8a.1.1,0,1,0,.3,0c-.1-2.2-.7-5.3,1-7.2,0,0-.4,1.2-.4.8s.8-1.4.7-1.5-1.3,1.2-1.6,1.3.8-1.5.8-1.5"/><path class="cls-2" d="M117.6,136.8c1.6,4.9,6.5,5.5,6.2,5.2s0-4,0-4,2.1,1.5,2.8,1.5c.2-3.2-2.2-5.5-2.9-6.2C123.5,134.4,122.6,136.6,117.6,136.8Z"/><path class="cls-1" d="M115.4,135.8c.3.9,1.9.9,2.2.9h0c5-.2,5.9-2.4,6.1-3.5l-.2-.3a19.2,19.2,0,0,0-1-3.4,24.5,24.5,0,0,1,.4-8.3c2.4-2.8,1.2-8.7,1.2-9.6s1.2-6.2,1.2-6.2-5.7,2.7-9.1,2.3l.2.2c.6.6,0,4.6.3,6.8a8,8,0,0,0,.3,7.7c.9,1.2.3,7.7.3,9S115.1,134.9,115.4,135.8Z"/><path class="cls-2" d="M61.6,116.7a4.4,4.4,0,0,0,1,2.7c2.4,4,6.5,5.3,6.5,4.6a46.3,46.3,0,0,0-1.3-4.6s4.3,2.8,4.3,2.2c-.2-4.4-3.2-5.7-3.9-5.9C67.6,117,65.7,119.6,61.6,116.7Z"/><path class="cls-2" d="M104.8,145.5a2,2,0,0,1,1.1,1.1,6.2,6.2,0,0,0,1.8,2.8c1.2,1.2,4,2.5,4.6,1.5s-.9-3.4,0-2.7l2.8,1.5a10.8,10.8,0,0,0-.3-2.2c-.3-1.1-3.1-4-3.8-5.4C111,142.9,110.6,146.1,104.8,145.5Z"/><path class="cls-1" d="M61.9,103.6c.7,3.3,0,10.4-.3,12.4v.7c4.1,2.9,6,.3,6.6-1h-.1a5.7,5.7,0,0,0-.6-1.6c-.6-1.2-.6-12.9.3-17,4-4.9,5.9-12.9,5.9-12.9a6.2,6.2,0,0,1,7.1,1.5,48.6,48.6,0,0,0,20.1,14.2,1,1,0,0,1,.4.7c.3,1-.1,2.5-.1,3.6s1.2,2.8,2.5,4.1.9,8.6.9,10.8-1.2,1.8-1.5,5.2.9,4.7,1.5,6.2.3,9.3-.6,10.9-1.9,3-.3,3.7l1.1.4c5.8.6,6.2-2.6,6.2-3.4h0c-.1-.2-.2-.3-.2-.4s-.6-9.3,0-11.2,1.5-3.7,1.2-5.5a17.2,17.2,0,0,1,0-6.8c.7-2.8,1.9-10.5,1.9-10.5a4.6,4.6,0,0,1,2.3.1c3.4.4,8.2-1.9,9.1-2.3,4.4-4,4.4-10.8,5.6-10.8s3.4,1.2,4,1.5,0,2.2,4,3.1,6.8-2.2,6.8-3.1a4.7,4.7,0,0,1,.4-1.6,7.7,7.7,0,0,1,.6-1.5,1.4,1.4,0,0,1,.2-.6,5.3,5.3,0,0,0-1.2-5.3,94.1,94.1,0,0,1-6.5-8.3c-1.2-1.9-.3-3.1-.3-4.6s-3.4-4.7-3.4-5c3.7-1.2,4.1-5.6,3.4-6.2s-7.4-.3-11.1,1.6c-6.2-1.3-11.1,6.5-11.1,6.5a16.1,16.1,0,0,0-8.4-3.7c-7.2-1.2-12.8-8.3-17.3-11.8a32.2,32.2,0,0,0-8.6-5.2A32.4,32.4,0,0,0,77.1,49l-3.1.3a18.5,18.5,0,0,0-8.3,3.6c-6.3,5-5.1,17.9-4.1,24.4,1.6,9.9,0,16.1,0,18s-1.8,4.9-.3,6.8A2.6,2.6,0,0,1,61.9,103.6Z"/><path class="cls-5" d="M77,48.7h0"/><path class="cls-6" d="M135.5,69.4s-7.1-4.7-7.7-4.7"/><path class="cls-7" d="M116.7,71.2a23,23,0,0,0-4.5.5,12.9,12.9,0,0,0-4.1,1.6,11.2,11.2,0,0,0-3.3,2.8,12,12,0,0,0-2,3.9h.1c0,.1.2.2.3.3l.9.5,2,.5a14.1,14.1,0,0,0,4.1,0,13.3,13.3,0,0,0,4-1.2,16.9,16.9,0,0,0,3.6-2.3h0l.8-.8,1-.3a4.6,4.6,0,0,1,2,.5,4.4,4.4,0,0,0-2-.3l-.9.3a4.6,4.6,0,0,0-.7.7h0a14.8,14.8,0,0,1-7.7,3.8,12.4,12.4,0,0,1-4.3.1l-2.2-.5a5.3,5.3,0,0,1-1-.6l-.5-.4-.2-.3a.6.6,0,0,1,0-.6h0a13.6,13.6,0,0,1,2.2-4.1l.7-.9.9-.8.9-.6a5.3,5.3,0,0,1,1-.6,16.9,16.9,0,0,1,4.3-1.5A17.7,17.7,0,0,1,116.7,71.2Z"/><path class="cls-7" d="M117,84.5a12.3,12.3,0,0,0,2.3,4,15.2,15.2,0,0,0,3.2,3,4.7,4.7,0,0,0,.9.6l1,.6a3.1,3.1,0,0,1,1,.5l1.1.4,2.2.7,2.2.4h-2.3a15.5,15.5,0,0,1-2.3-.5,13.5,13.5,0,0,1-4.2-2,12.9,12.9,0,0,1-3.3-3.3A10.9,10.9,0,0,1,117,84.5Z"/><path class="cls-7" d="M138.3,88.2a18.1,18.1,0,0,0-2.8-3.4,4.9,4.9,0,0,0-3.6-1.7h-.1a.7.7,0,0,1-.4-.3.2.2,0,0,1-.2-.2l-.4-.4a3.5,3.5,0,0,1-.5-.8l-1.2-1.6-1.4-1.4a2.9,2.9,0,0,0-1.8-.7,3.4,3.4,0,0,1,2,.4l1.6,1.3a18.3,18.3,0,0,1,1.3,1.6l.6.8.3.3.2.2h-.1a4.1,4.1,0,0,1,2.4.6,11.9,11.9,0,0,1,1.8,1.5A11.4,11.4,0,0,1,138.3,88.2Z"/><path class="cls-8" d="M124.7,82.4c3.4,4.3,6.4-.6,6.4-.6l-1.4-1.7-.7-.8a4.1,4.1,0,0,0-2.8.8A5.2,5.2,0,0,0,124.7,82.4Z"/><path class="cls-9" d="M126.1,80.8a1.9,1.9,0,1,0,3.7,0,2,2,0,0,0-.1-.7l-.7-.8a4.1,4.1,0,0,0-2.8.8A1.7,1.7,0,0,0,126.1,80.8Z"/><ellipse class="cls-10" cx="126.4" cy="80.8" rx="0.6" ry="0.5"/><path class="cls-7" d="M116.8,73.3H115l-1.8.3a14.6,14.6,0,0,0-3.4,1,11.7,11.7,0,0,0-3.1,1.7,9.9,9.9,0,0,0-2.5,2.5,7.8,7.8,0,0,1,2.1-3,11.8,11.8,0,0,1,3.2-1.9,11.9,11.9,0,0,1,3.6-.9A7.6,7.6,0,0,1,116.8,73.3Z"/><path class="cls-11" d="M116.1,107.8h.1"/><path class="cls-11" d="M125.3,105.5h.2"/><path class="cls-1" d="M73.6,84.4s1.9-9.8-2.7-14.7"/><path class="cls-7" d="M145.7,96.5l-1.3.7a4.2,4.2,0,0,1-1.5.4,5,5,0,0,1-3.2-.4h-.2a8.9,8.9,0,0,0-1.5-2.9,6.2,6.2,0,0,1,2.2,2.7l-.2-.2,1.4.4h1.4Z"/><path class="cls-7" d="M114.4,107.7h-1c0-.3.1-7.4,3.6-9.7l.5.9C114.4,100.9,114.4,107.7,114.4,107.7Z"/><path class="cls-7" d="M125.2,105l.5.8c-.2.2-6.2,4-10.1,2.2l.4-.9C119.4,108.7,125.2,105,125.2,105Z"/><path class="cls-7" d="M101.9,101.3h-1s.1-7.1-.5-9.2l1-.3C102,94,101.9,101,101.9,101.3Z"/><path class="cls-12" d="M147.1,90.9a4.7,4.7,0,0,1-6.5.3,2.7,2.7,0,0,1,.3,2.1c-.3,1,2.8,1.3,3.4,0s2.2.9,2.5-.6"/><path class="cls-7" d="M111.6,151.7a7.2,7.2,0,0,1-4.2-2,5.8,5.8,0,0,1-2-2.9,1.1,1.1,0,0,0-.8-.8h0l-.5-.3-.6-.2-.4-.2-1.4-.6h.9a.4.4,0,0,1-.1-.3c-.4-1,.3-2.1,1.1-3.4s1.1-9,.6-10.4a9.3,9.3,0,0,1-.5-1,8.4,8.4,0,0,1-1.1-5.4,7.6,7.6,0,0,1,1-3.4,3,3,0,0,0,.5-1.8v-1.2c.1-2.3.2-8.4-.8-9.3s-2.6-2.6-2.6-4.4.1-.9.1-1.4a8.1,8.1,0,0,0,.1-1.5v-.5c-.1-.4-.2-.5-.3-.5l-.9-.4A47.8,47.8,0,0,1,82.3,88.1c-.7,1.2-2.6,5.3-1.7,15.7a4.1,4.1,0,0,1,1.5,2.5c.7.7,3.2,3.4,3.2,5.8h0a2.5,2.5,0,0,1-1.3.9h-.8a2.6,2.6,0,0,1,0,1.5,1,1,0,0,1-.7.5c-1.5.4-6.1-1.3-7.1-3.7a3.1,3.1,0,0,1-.4-2.5c-1.5-.9-.8-2.2-.5-2.8l.3-.4v-.5c.1-7.9-.3-9.5-.6-9.8s-2.2-4.4-.9-6.4,1-3.5,1.1-4.8h-.3L73.7,87v-.5c-.9,2.7-2.6,7.5-5.3,10.9-1,4.2-.8,15.6-.4,16.5l.6,1.4c.9.3,3.8,1.7,4.1,6.2v.3l-.3.3c-.2.1-.6.3-3.7-1.6a25.6,25.6,0,0,1,.9,3.5c0,.3-.2.6-.4.6s-4.7-1.3-6.9-4.9v-.2H62a3.9,3.9,0,0,1-.9-2.7,2.5,2.5,0,0,1,.1-.8c.2-2.1.9-9,.3-12.2a2.8,2.8,0,0,0-.5-1.3A5.6,5.6,0,0,1,60,98a4.4,4.4,0,0,1,1.2-2.9,12.8,12.8,0,0,1,.1-1.8,51.3,51.3,0,0,0-.1-15.9l-.3-2c-.2.9-.3,1.8-.5,2.5s-.1.6-.3,1-.2.4-.3.7a14.2,14.2,0,0,1-.8,1.8,18.2,18.2,0,0,0,0,3.3c0,.4.1.9.1,1.3a.6.6,0,0,1-.6.6h-.2a6.2,6.2,0,0,1-.4,2.3.6.6,0,0,1-.7.3,4,4,0,0,1-1.3,1.3l-3.2,2.1,1.8-2a4.4,4.4,0,0,1-1.5.8h-.4l-.2-.4c-.1-.1-.1-.4.3-.6h0a5.8,5.8,0,0,0,1.4-1.2h0c-.3.2-.5.2-.7,0s0-.8.2-1.1l.5-.6h-.5l-.2-.2a.4.4,0,0,1,0-.6,21.4,21.4,0,0,0,1.2-2.8A13.6,13.6,0,0,1,57,79.3l.3-.9c.8-1.9,1-4.9,1.3-8.1A41.2,41.2,0,0,1,60,60.6a21.3,21.3,0,0,1,3.2-6.2,12.2,12.2,0,0,1,3.1-2.9,6.1,6.1,0,0,1,3.1-1.3,25.9,25.9,0,0,1,4.5-1.4,17.3,17.3,0,0,1,3.2-.3h.1a32.4,32.4,0,0,1,5.3,1.6,31.3,31.3,0,0,1,8.6,5.1h.2l3.9,3.4c3.8,3.5,8,7.4,13.2,8.3a17.3,17.3,0,0,1,8.2,3.4c1.2-1.6,5.6-7.2,11.1-6.2,3.7-1.8,10.7-2.3,11.6-1.4s.4,1.7.2,2.7a5.6,5.6,0,0,1-3.2,4,.8.8,0,0,0,.4.4c1.4,1.7,2.7,3.2,2.7,4.4a6.8,6.8,0,0,1-.2,1.4,3.8,3.8,0,0,0,.4,2.9,71.8,71.8,0,0,0,6.5,8.3,5.5,5.5,0,0,1,1.2,5.7v.2l-.2.5-.2.6a5.9,5.9,0,0,0-.4.8,3.5,3.5,0,0,0-.3,1.4l-.2.7a6.6,6.6,0,0,1-7.2,3c-3.2-.8-3.7-2.1-4-2.9s-.1-.2-.1-.3h-.3a14.7,14.7,0,0,0-2.8-1.2h-.7a10.1,10.1,0,0,0-.7,2.1c-.7,2.3-1.7,5.9-4.4,8.4a38.5,38.5,0,0,1-1.2,6.1v.6c.3,2,.8,6.6-1.3,9.1a25,25,0,0,0-.3,8,33.7,33.7,0,0,1,.9,3.4h.1l.2.3c1,.9,3.1,3.2,2.8,6.3v.5h-.4a7.6,7.6,0,0,1-2.4-1.2,13.1,13.1,0,0,0,0,2.9.4.4,0,0,1,0,.5c-.1.3-.5.3-.6.3a7.7,7.7,0,0,1-6.3-5.3c-1.3-.1-2.1-.5-2.3-1.3s.3-1.5.9-2.5a6.2,6.2,0,0,0,.9-1.9,8.2,8.2,0,0,1,.1-1.4c.1-2,.3-6.5-.3-7.3a8.5,8.5,0,0,1-.4-8.1c-.1-1-.1-2.2-.1-3.4a8.9,8.9,0,0,0-.1-3,2.4,2.4,0,0,0-1.7-.2c-.3,2.1-1.3,7.8-1.8,10.2a16.2,16.2,0,0,0,0,6.6,8.6,8.6,0,0,1-.9,4.7l-.3,1.1c-.6,1.8-.3,9.7,0,10.8a.4.4,0,0,0,.1.3h0l1.8,2.4a13.9,13.9,0,0,1,2.1,3.1,11.3,11.3,0,0,1,.3,2.3v.8l-.7-.4-2.2-1.1c.2.7.5,1.6,0,2.2a1,1,0,0,1-.9.5Zm-5.8-6.1a1.9,1.9,0,0,1,.5.9,6.5,6.5,0,0,0,5.4,4.3h.2c.2-.3,0-1.2-.2-1.7s-.3-1,.1-1.3.5-.2.8.1l2,1.1c-.1-.4-.1-.8-.2-1.2a15.1,15.1,0,0,0-2-2.8l-1.2-1.6a3.2,3.2,0,0,1-.8,1.4l-.7-.7a4.1,4.1,0,0,0,.7-1.1c0-.2,0-.3.1-.4h0l-.2-.4c-.3-1.3-.6-9.5,0-11.4a7.6,7.6,0,0,0,.4-1.1,8.6,8.6,0,0,0,.9-4.3,14.6,14.6,0,0,1,0-6.9c.6-2.8,1.8-10.4,1.8-10.5h0v-.3h.3a4.3,4.3,0,0,1,2.7.2l.2.2c.5.5.5,1.6.4,3.7s-.1,2.5,0,3.4h.1v.2a7.5,7.5,0,0,0,.3,7.2c.7,1,.6,4.5.4,7.9v1.4a5.7,5.7,0,0,1-1.1,2.4c-.3.6-.9,1.5-.8,1.7s.8.6,1.7.6h.4v.4a7.1,7.1,0,0,0,5.1,4.9,15.2,15.2,0,0,1,.1-3.6v-.8l.7.5a8.8,8.8,0,0,0,2,1.2,8.2,8.2,0,0,0-2.6-5l-.2-.2a.9.9,0,0,1-.3-.6c0-.3-.6-2.2-.9-3.2s-.3-6.2.3-8.7h.1c1.9-2.1,1.4-6.5,1.2-8.4a3.2,3.2,0,0,1-.1-.8h.1a47.1,47.1,0,0,0,1.2-6.1h0v-.2c2.6-2.3,3.6-5.8,4.2-8.1a11,11,0,0,1,.9-2.3l-.3-.2.8-.3h.3a10.1,10.1,0,0,1,3.9,1.4l.3.2c.4.1.5.5.6.8s.7,1.6,3.3,2.2,5.9-1.5,6.2-2.5h.1a5.2,5.2,0,0,1,.3-1.8l.4-.8.3-.8v-.4a4.8,4.8,0,0,0-1-4.8,80.7,80.7,0,0,1-6.6-8.4,4.7,4.7,0,0,1-.5-3.7,5,5,0,0,0,.2-1.2c0-.9-1.7-2.8-2.5-3.7s-.9-1-.9-1.3V69h.3a4.9,4.9,0,0,0,3.1-3.3,3.7,3.7,0,0,0,.1-2.1c-.7-.4-7-.2-10.6,1.6h-.3c-5.8-1.1-10.6,6.2-10.6,6.3l-.3.5-.5-.4a15.6,15.6,0,0,0-8.1-3.6c-5.4-.9-9.8-4.9-13.7-8.5-1.3-1.2-2.6-2.4-3.8-3.3l-.2-.2A33.5,33.5,0,0,0,82.2,51a24.6,24.6,0,0,0-5.1-1.5,15.3,15.3,0,0,0-3,.3,17.1,17.1,0,0,0-4.4,1.3h-.2c-.5-.1-1.3.2-2.7,1.1A10.3,10.3,0,0,0,64,55a19.4,19.4,0,0,0-3.1,5.9,52.8,52.8,0,0,0-1.4,9.5,31.5,31.5,0,0,1-1.3,8.4l-.3.9h-.1a13.4,13.4,0,0,0-2.3,4.4l-.3.7h.5c-.1.7-.2,1.3-.3,1.7l.2-.2v1.1h.3a3.2,3.2,0,0,0,.3-1.4H57l.4-1.9a17,17,0,0,1,.1-2.2h.1l.5-.8h0a14.2,14.2,0,0,0,.8-1.8c0-.1.1-.1.1-.2l.2-.5h0l.2-.6c.4-1.6.7-4.1,1.1-6.7h.9c.1,1.9.4,4,.7,6.1a54.4,54.4,0,0,1,.2,16.2c-.1.8-.2,1.4-.2,1.8v.2l-.2.2a3.9,3.9,0,0,0-1,2.5,5.1,5.1,0,0,0,.8,3.6,3.9,3.9,0,0,1,.7,1.7c.6,3.4,0,10.2-.3,12.6v.6a2.8,2.8,0,0,0,.7,2.1.8.8,0,0,1,.2.4,10.5,10.5,0,0,0,5.5,4.5,33.4,33.4,0,0,0-1.1-4.2l-.4-1.2,1.1.7a28.7,28.7,0,0,0,3.5,2,5.5,5.5,0,0,0-3.5-4.8h-.4v-.4h0a3.9,3.9,0,0,0-.5-1.3c-.7-1.4-.7-13.4.3-17.4h0c3.6-4.3,5.4-11.2,5.8-12.6l.5-2.1.3,1.4.8-.2h.6v.6c0,1.3-.3,4.4-1.3,6s0,4.1.9,5.3.9,2.2.7,10.3v.5a1.6,1.6,0,0,1-.3.9c-.5.8-.6,1.1.1,1.4l.3.2.6.2-.4.5h0s-.5.6.3,2.1,4.9,3.4,5.9,3.2a.1.1,0,0,0,.1-.1,1.8,1.8,0,0,0-.1-1c-.2-.4-.3-.7,0-1s.3-.2.7-.1a1,1,0,0,0,.8.1,1.5,1.5,0,0,0,.6-.4c-.1-1.7-2-4.1-3-5.1h-.2v-.2a3,3,0,0,0-1.3-2.1v-.2h0c-1.1-12.2,1.5-16.2,2.1-16.9l.2-.8.6.6a45.2,45.2,0,0,0,17.5,12l1.1.5a1.7,1.7,0,0,1,.6,1c0,.2.1.3.1.4v.3c0,.5-.1,1.1-.1,1.7a5.7,5.7,0,0,0-.1,1.3c0,1.4,1.1,2.5,2.3,3.7s1.2,4.6,1.1,10v1.2a3.7,3.7,0,0,1-.7,2.3,7.5,7.5,0,0,0-.9,3,7.3,7.3,0,0,0,1.1,4.9l.5,1.1c.6,1.6.3,9.5-.7,11.2s-1.2,2-1,2.6.1.3.5.4l.6.3h1.3Z"/><path class="cls-7" d="M81.7,87.6c-.1-.2-3.1-5.1-7.4-3l-.4-.8c5.1-2.6,8.6,3.3,8.6,3.3Z"/><path class="cls-13" d="M107.6,80.6h0Z"/></g></svg>