<svg xmlns="http://www.w3.org/2000/svg" viewBox="0 0 200 200"><defs><style>.cls-1{fill:#fcdaad;}.cls-2{fill:#e0b886;}.cls-3{fill:#6b5e4d;}.cls-4{fill:#726556;}.cls-5{fill:#cea476;}.cls-6{opacity:0.44;}.cls-7{fill:#aa8157;}.cls-8{fill:#68553e;}.cls-9{fill:#424242;}.cls-10{fill:#fff;}.cls-11{fill:#564b3e;}.cls-12{fill:none;stroke:#4d4d4d;stroke-miterlimit:10;stroke-width:0.22px;}</style></defs><g id="Goat_02"><g id="Goat_02-2" data-name="Goat_02"><path class="cls-1" d="M56,72a2.8,2.8,0,0,1-1.3-.1c1.5,1.5,4.3,3.6,8.7-.1a3.7,3.7,0,0,1,1.4-.7,5.7,5.7,0,0,1,4.5,1.2c.6.4,1.3.1,1.9-.5a21.2,21.2,0,0,0,2-2.8,3.8,3.8,0,0,1-2-.5,6.2,6.2,0,0,1-1.8-1.1,11.7,11.7,0,0,1-3.1-4.2,2.9,2.9,0,0,1-.3,1.1,4.2,4.2,0,0,0-3.3-2,1.7,1.7,0,0,1,.5,1.2A3.7,3.7,0,0,0,59,64.9a2.4,2.4,0,0,1,1.5.4c-.6,1.2-1.9,4.1-3.5,4,.2.5,1.4.5,1.4.5s-2.5,1.5-4.7.1A6.5,6.5,0,0,0,56,72Z"/><path class="cls-2" d="M148.2,84.8c-1.6,8.2-6,2.6-9,5.3-1.5,1.3-2.3-.6-1.5-2.3,2.1-4.8,6.7-2.4,9.8-4.1C148.4,83.2,148.4,83.8,148.2,84.8Z"/><path class="cls-1" d="M139.5,89.3s.7-1.4,3.9-1.9,4-3.3,4.3-3.2-.1,3.3-1.8,4.5S142,88,139.5,89.3Z"/><path class="cls-3" d="M108.9,145.6l-1.1-1.9.4.3.2.2.5.2a2.4,2.4,0,0,0,1.2.3l-.7-1.1a11.2,11.2,0,0,1-1.1-2.5,5.5,5.5,0,0,0-2.2-.5,2.8,2.8,0,0,0-2.2,1,.6.6,0,0,0-.1.4C103.4,146.2,107.5,145.7,108.9,145.6Z"/><path class="cls-1" d="M103.9,141.5c.1.2.2.2.3.2l.4.2h.5a2.4,2.4,0,0,0,1.9,0h.2a8.2,8.2,0,0,0,1.1-.9s-1.3-6.7,0-8.6.7-2.6.7-4.8a55.8,55.8,0,0,1,1.6-8.2c.3-1.2.6-2.3.8-3.2s.6-2.4.6-2.4a6.6,6.6,0,0,0-4.1-3.6h-.4a8,8,0,0,0-3.7.3s.1,1.4.2,3.4a5.3,5.3,0,0,1,.1,1.3c.2,2.5.3,5.5.3,7.8a11.4,11.4,0,0,1-.3,3.5c-1.2,1.7-.2,3.8,0,6,.4,4.6-.8,4.4-.8,5.7S104.1,140,103.9,141.5Z"/><path class="cls-4" d="M107.5,142.9l.3.8.4.3.2.2.5.2a2.1,2.1,0,0,0,1.2.3S108,143.8,107.5,142.9Z"/><path class="cls-4" d="M108.9,145.6s-4.6-.5-5.1-3.6C103.4,146.2,107.5,145.7,108.9,145.6Z"/><path class="cls-3" d="M81.2,117.3l-1.1-1.9a3,3,0,0,0,2.3,1,10.1,10.1,0,0,1-1.8-3.6s-3-.2-4.4.5a.9.9,0,0,0-.1.5C75.7,117.9,79.7,117.5,81.2,117.3Z"/><path class="cls-4" d="M82.4,116.4s-2.1-.8-2.6-1.7l.3.8A3.3,3.3,0,0,0,82.4,116.4Z"/><path class="cls-4" d="M81.2,117.3s-4.6-.5-5.1-3.5C75.7,117.9,79.7,117.5,81.2,117.3Z"/><path class="cls-5" d="M84.3,85.6s-3,11.5-3,13.8.5,2.8-.7,4.8,0,8.6,0,8.6-1.4,2.1-4.4.5c.2-1.5-.6-2.1-.6-3.4s1.2-1,.8-5.7c-.2-2.2-1.2-4.2,0-6s-.3-15.9-.3-15.9C80,81.1,82.6,82.4,84.3,85.6Z"/><path class="cls-3" d="M119.8,139.6l-1.1-1.8a3.3,3.3,0,0,0,2.3.9,12.1,12.1,0,0,1-1.8-3.6,11.7,11.7,0,0,0-4.4.5c0,.2-.1.3-.1.5C114.3,140.2,118.4,139.8,119.8,139.6Z"/><path class="cls-4" d="M121,138.7s-2.1-.8-2.6-1.7l.3.8A3.3,3.3,0,0,0,121,138.7Z"/><path class="cls-4" d="M119.8,139.6s-4.6-.5-5.1-3.5C114.3,140.2,118.4,139.8,119.8,139.6Z"/><path class="cls-5" d="M122.9,107.9s-3,11.5-3,13.8.6,2.8-.7,4.8,0,8.6,0,8.6-1.4,2.1-4.4.5c.3-1.5-.6-2.1-.6-3.4s1.2-1,.8-5.7c-.2-2.2-1.1-4.2,0-6s-.3-15.9-.3-15.9C118.6,103.5,121.3,104.7,122.9,107.9Z"/><path class="cls-3" d="M70.2,123.3l-1-1.9.2.2a3.9,3.9,0,0,0,1.1.6l.9.2a11.6,11.6,0,0,1-1.7-3.6s-2.7-1.4-4.4.4a1.1,1.1,0,0,0-.1.5C64.8,123.9,68.8,123.4,70.2,123.3Z"/><path class="cls-1" d="M65.3,119.2c.1.2.2.2.3.2l.4.2a3.3,3.3,0,0,0,2.6,0,3.1,3.1,0,0,0,1.1-.8s-1.3-6.7,0-8.6.7-2.6.7-4.9a10.6,10.6,0,0,1,.3-2c.3-1.7.8-4,1.3-6.1s1.4-5.6,1.4-5.6a8.1,8.1,0,0,0-2.3-2.8,7.9,7.9,0,0,0-2.3-.9,8.2,8.2,0,0,0-3.7.3c0,.1.1.1.1.2s.1,1.6.2,3.2c.3,4.4.7,11.7.1,12.6s-.2,3.8,0,6c.4,4.6-.8,4.4-.8,5.7S65.5,117.7,65.3,119.2Z"/><path class="cls-4" d="M68.9,120.6l.3.8.2.2a3.9,3.9,0,0,0,1.1.6l.9.2C71.5,122.4,69.4,121.5,68.9,120.6Z"/><path class="cls-4" d="M70.2,123.3s-4.5-.5-5-3.6C64.8,123.9,68.8,123.4,70.2,123.3Z"/><path class="cls-1" d="M65.1,88.2c0,.1.1.1.1.2.2,3,3.6,16.7,5.5,14.9a22.9,22.9,0,0,0,4.6-7.9c7.9,14.3,17.2,13.9,28.8,19.8h.2l1.8.9.6.3c1.2.3,2.7-.1,4-.2h.7a35.2,35.2,0,0,0,18.9-6.7,31.6,31.6,0,0,0,3.8-3.4c7.2-7.7,7.2-17-3-17.7-2.9,1.8-5.9.8-8.7,1.1s-11.4-3-19.1-7.4C92.5,75.9,90,65.9,76.1,65.6a8.1,8.1,0,0,0-4.2.8C67,68.9,64.3,76.2,65.1,88.2Z"/><path class="cls-1" d="M141,89.3c3.4,4.1,4.1,7.3,5.8,12s2.4,6.4-.5,8.6a4,4,0,0,1-4.1.6,10.7,10.7,0,0,1-4.1-3.2c-.5-.6-5.6-.3-9-4.2s-2.9-9.3-2-12.2S137.9,85.5,141,89.3Z"/><path class="cls-6" d="M147.1,104.8c.1-.2.5,0,.4.2s-.6,1.6-1.1,1.9a3.4,3.4,0,0,1-1.2,3.3c-.2.1-.5,0-.3-.2a5.3,5.3,0,0,0,.9-2.9,5,5,0,0,1-2-.7c-.3-.3-.5-.8.4-.5S146.3,106.3,147.1,104.8Z"/><path class="cls-7" d="M133.8,97.7s.5,1.8,1.6,1.8,1.2-.5,1.9-.1a2.6,2.6,0,0,1-.5-.9c-.3-.6-.5-1.4-1.3-1.6S134.1,97.1,133.8,97.7Z"/><path class="cls-8" d="M133.9,97.5a1.9,1.9,0,0,0,1.7,1.7,1.5,1.5,0,0,0,1.2-.7c-.3-.6-.5-1.4-1.3-1.6A1.1,1.1,0,0,0,133.9,97.5Z"/><path class="cls-9" d="M136.2,98.1c.1.2-.1.5-.2.6s-1.6-.6-1.6-.9,0-.6.2-.6Z"/><path class="cls-10" d="M134.5,97.6a.4.4,0,0,0,.4.4c.2,0,.3-.2.3-.4s-.1-.4-.3-.4A.4.4,0,0,0,134.5,97.6Z"/><path class="cls-3" d="M131,74.9a40,40,0,0,1,5.4,12.9c.3,1.2,2.4,1.8,3.2,1s.4-.8.2-1.6C139.1,84.4,136.8,78.3,131,74.9Z"/><path class="cls-2" d="M121.1,102.1c9.8,3,6.3-5,10.9-6.7,2.3-.8.7-2.7-1.6-2.9-6.5-.6-6.5,5.8-10.2,8.2C119.2,101.4,119.8,101.7,121.1,102.1Z"/><path class="cls-1" d="M131,95.2s-2,0-4.4,3.2-5.9,2.3-5.9,2.8,3.6,1.8,5.8.7S128.1,97.3,131,95.2Z"/><path class="cls-3" d="M122.8,79.8a37.7,37.7,0,0,1,8.8,10.9c1.2,2.2,3.1,1.8,3.5.4a2.3,2.3,0,0,0-.3-1.9C133.3,86.7,129.3,81.5,122.8,79.8Z"/><path class="cls-2" d="M75.3,95.4c7.9,14.4,17.3,13.9,29,19.9h.1s.8-4.4.2-5-10.9,0-16.2-4.7-10.8-17-11.7-16.4S75.3,95.4,75.3,95.4Z"/><path class="cls-11" d="M122.8,79.8a37.7,37.7,0,0,1,8.8,10.9c1.2,2.2,3.1,1.8,3.5.4s-1,1.3-2.6-.5S126.9,81.9,122.8,79.8Z"/><path class="cls-11" d="M131,74.9a40,40,0,0,1,5.4,12.9c.3,1.2,2.4,1.8,3.2,1a.3.3,0,0,0,.1-.2s-1.1.7-2.4-1.1S134.6,78.7,131,74.9Z"/><path class="cls-12" d="M53.7,69.9c2.2,1.4,3.9.9,4.7-.1s-1.2,0-1.4-.5c1.6.1,2.9-2.8,3.5-4a2.4,2.4,0,0,0-1.5-.4,3.7,3.7,0,0,1,4.2-1.4,1.7,1.7,0,0,0-.5-1.2,4.2,4.2,0,0,1,3.3,2,2.9,2.9,0,0,0,.3-1.1,11.7,11.7,0,0,0,3.1,4.2l.5.4,2-1.4a8.1,8.1,0,0,1,4.2-.8c13.9.3,16.4,10.3,27.2,16.6,7.7,4.4,16.3,7.7,19.1,7.4s3.7.2,5.6-.1a6.2,6.2,0,0,1,2.1-1.3,37.6,37.6,0,0,0-7.3-8.4c5.1,1.3,8.6,4.8,10.7,7.4a13.1,13.1,0,0,1,2.8,0A42,42,0,0,0,131,74.9a19.7,19.7,0,0,1,8.3,10.7c2.4-1.8,5.8-.6,8.2-1.9s.9.1.7,1.1c-1.3,6.6-4.4,4.3-7.2,4.5,3.4,4.2,4.1,7.3,5.8,12s2.4,6.4-.5,8.6a4,4,0,0,1-4.1.6,10.7,10.7,0,0,1-4.1-3.2c-.3-.3-2-.4-4.1-1.1a24.5,24.5,0,0,1-3.7,3.4,34.7,34.7,0,0,1-9,4.7,54.3,54.3,0,0,0-1.4,7.4c0,2.3.6,2.8-.7,4.8s0,8.6,0,8.6a12.1,12.1,0,0,0,1.8,3.6h0a2.6,2.6,0,0,1-1.4-.3h-.2a.1.1,0,0,0-.1-.1h-.1l-.5-.3,1.1,1.8c-1.4.2-5.5.6-5.1-3.5,0-.2.1-.3.1-.5h0c.3-1.5-.6-2.1-.6-3.4s1.2-1,.8-5.7c-.2-2.2-1.1-4.2,0-6s.3-2.3.3-4.7a26,26,0,0,1-3.9.5c-.2.9-.5,2-.8,3.2a55.8,55.8,0,0,0-1.6,8.2c0,2.2.5,2.8-.7,4.8s0,8.6,0,8.6a11.2,11.2,0,0,0,1.1,2.5l.7,1.1a2.1,2.1,0,0,1-1.2-.3l-.5-.2-.2-.2-.4-.3,1.1,1.9c-1.4.1-5.5.6-5.1-3.6a.6.6,0,0,1,.1-.4h0c.2-1.5-.6-2.1-.6-3.3s1.2-1.1.8-5.7c-.2-2.2-1.2-4.3,0-6a11.4,11.4,0,0,0,.3-3.5c0-2.3-.1-5.3-.3-7.8-4.6-2.3-8.9-3.7-12.9-5.4h-.1l-.7-.3h-.2l-.6-.3-.4-.2-.4-.2-.5-.2-.4-.2-.5-.3-.3-.2-.6-.3-.3-.2-.5-.3-.3-.2-.6-.4-.2-.2-.6-.4a.2.2,0,0,1-.2-.2l-.7-.4a.2.2,0,0,0-.2-.2l-.6-.5c-.1-.1-.1-.2-.2-.2l-.6-.6-.2-.2-.2-.2a4.1,4.1,0,0,1-.5.9c-1.3,1.9,0,8.6,0,8.6a10.1,10.1,0,0,0,1.8,3.6h-.1a2.3,2.3,0,0,1-1.4-.4h-.2a.1.1,0,0,1-.1-.1l-.5-.3,1.1,1.8c-1.5.2-5.5.6-5.1-3.5a.9.9,0,0,1,.1-.5h0c.2-1.5-.6-2.1-.6-3.4s1.2-1,.8-5.7c-.2-2.2-1.2-4.2,0-6,.1-.1.1-.3.2-.6l-.6-.9-.7-1.3a22.9,22.9,0,0,1-4.6,7.9,10.6,10.6,0,0,0-.3,2c0,2.3.5,2.9-.7,4.9s0,8.6,0,8.6a11.6,11.6,0,0,0,1.7,3.6l-.9-.2a3.9,3.9,0,0,1-1.1-.6h-.2l1,1.9c-1.4.1-5.4.6-5-3.6a1.1,1.1,0,0,1,.1-.5h0c.2-1.5-.6-2.1-.6-3.3s1.2-1.1.8-5.7c-.2-2.2-1.2-4.3,0-6s.2-8.2-.1-12.6c-.1-1.6-.2-2.8-.2-3.2s-.1-.1-.1-.2c-.5-7.4.4-13.1,2.3-16.9a4.7,4.7,0,0,0-2.6-.2,3.7,3.7,0,0,0-1.4.7c-4.4,3.7-7.2,1.6-8.7.1A2.8,2.8,0,0,0,56,72,6.5,6.5,0,0,1,53.7,69.9Z"/></g></g></svg>