<svg xmlns="http://www.w3.org/2000/svg" viewBox="0 0 200 200"><defs><style>.cls-1{fill:#ffa726;}.cls-2{fill:#ff8f00;}.cls-3{fill:#fff8e1;}.cls-4{fill:#f57f17;}.cls-5,.cls-6{fill:#f4ead7;}.cls-13,.cls-5{stroke:#8c6239;stroke-miterlimit:10;}.cls-5{stroke-width:0.06px;}.cls-7{fill:#e2d9cc;}.cls-8{fill:#ebe1cf;}.cls-9{fill:#f57c00;}.cls-10{fill:#88bbbf;}.cls-11{fill:#424242;}.cls-12{fill:#fff;}.cls-13{fill:none;stroke-width:0.33px;}</style></defs><g id="Duck_01"><path class="cls-1" d="M112.1,127.8c0,.4-.2.9-.3,1.7s-.1.8-.2,1.3-.1,1.2-.1,1.9v1.8c.1,1.5-1.1,1.7-1.7,3.2a50.8,50.8,0,0,0-2.2,6.6.8.8,0,0,1-1.2.4l-.3-.2v-.2l-.6-.5h-.2l-.7-.4a2.8,2.8,0,0,0-1.2-.4H101l-.2-.3V142a9.4,9.4,0,0,0-.3-.9c0-.2-.1-.3-.2-.5l-.3-.4-.3-.2-.2-.2a2.9,2.9,0,0,0-1.1-.6h-.2c-.1-.1-.2-.1-.2-.3a.6.6,0,0,1,.2-.8v-.2a26.6,26.6,0,0,1,6.1-2.4c4.1-1,3.9-1.2,4.2-1.7s.3-3.2.2-5.8-.1-3.5-.2-4.6V122l2.5-.2s.2.6.4,1.5A19.9,19.9,0,0,1,112.1,127.8Z"/><path class="cls-2" d="M101,141.5a4.1,4.1,0,0,0-.1.9,3.9,3.9,0,0,0-2.6-3.3c-.2,0-.2-.2-.3-.3s.9.2,1.1.1,7.1-3.6,7.9-3.1S101,141.5,101,141.5Z"/><path class="cls-2" d="M106.4,144.7a5.9,5.9,0,0,0-4.9-2l.7-.4s5.7-6.3,6.5-6.1-1.7,6.2-2.3,8A.7.7,0,0,0,106.4,144.7Z"/><path class="cls-3" d="M100.3,143.7s.3-3.2,1.6-2.1S101,142.3,100.3,143.7Z"/><path class="cls-3" d="M106.1,146.6s-.5-3.2,1-2.5S106.4,145.1,106.1,146.6Z"/><path class="cls-3" d="M97,140.1s.7-3.2,1.8-1.9S97.9,138.8,97,140.1Z"/><path class="cls-1" d="M110.7,131.6s1.6,2.5,2.1,1.6-1.8-3-1.8-3Z"/><path class="cls-2" d="M112.1,127.8c0,.4-.2.9-.3,1.7l-.7-.2a8.2,8.2,0,0,1-2.3-1.4c0-1.8-.1-3.5-.2-4.6a7.1,7.1,0,0,1,2.9,0A19.9,19.9,0,0,1,112.1,127.8Z"/><path class="cls-2" d="M97.3,126.2c.1,1.5-1.1,1.7-1.7,3.1a57.3,57.3,0,0,0-2.2,6.7c-.2.5-.8.8-1.2.4a6,6,0,0,0-4.9-2h-.6v-.3a3.5,3.5,0,0,0-2.6-3.3l-.2-.3a.7.7,0,0,1,.3-1,24.8,24.8,0,0,1,6.1-2.4c4-1.1,3.9-1.2,4.1-1.7s0-11.7,0-11.7l2.6-.2a32.9,32.9,0,0,1,1,6A25.6,25.6,0,0,0,97.3,126.2Z"/><path class="cls-4" d="M86.8,133.2l-.2.9a3.5,3.5,0,0,0-2.6-3.3c-.1,0-.2-.2-.2-.3s.8.2,1.1.1,7.1-3.6,7.9-3.1S86.8,133.2,86.8,133.2Z"/><path class="cls-4" d="M92.2,136.4a6,6,0,0,0-4.9-2l.7-.4s5.7-6.3,6.4-6.1-1.6,6.2-2.3,8A.5.5,0,0,0,92.2,136.4Z"/><path class="cls-3" d="M86,135.4s.4-3.2,1.7-2.1S86.8,134,86,135.4Z"/><path class="cls-3" d="M91.9,138.3s-.6-3.2.9-2.5S92.2,136.8,91.9,138.3Z"/><path class="cls-3" d="M82.7,131.7s.8-3.1,1.9-1.8S83.6,130.5,82.7,131.7Z"/><path class="cls-2" d="M96.5,123.3s1.6,2.5,2.1,1.6-1.9-3-1.9-3Z"/><path class="cls-5" d="M115.8,98.9A50.2,50.2,0,0,0,132,97.1c1.7-.6,2.3.9,1.1,2.5s-4.9,3.8-9.7,5S115.8,98.9,115.8,98.9Z"/><path class="cls-6" d="M132.6,99s1.4.2,1.4,1.2-5,4.1-10.4,5.8S132.6,99,132.6,99Z"/><path class="cls-6" d="M132.6,101.1s.8,1.5,0,2.4l-6.7,6.2-1-7.1Z"/><path class="cls-6" d="M126.4,109.4c-2.9,9.7-12.8,16.8-16,17.1s-14.4-3.7-21.5-9.1c-3.1-2.2-5.3-4.8-5.8-7.3-1.9-9.7,2.4-19.1,3.4-25.9A106.8,106.8,0,0,0,88,70.1c.1-3.5-.5-5-1.3-5.4L85.8,63l-2.1-3.8a7.5,7.5,0,0,1,4.9-5.5c3.1-1.2,6.8,0,7.9,2.6a9.1,9.1,0,0,1,.6,4.8c-.1,4.4-1.7,10-2.3,15.2-.2,2.3-.3,4.3-.3,6.1-.2,7.3,1.2,11.1,3.1,12.1s5.6,1,11,1.6c8.3,1,18.1,2.5,18.5,5.8A17,17,0,0,1,126.4,109.4Z"/><path class="cls-7" d="M124.4,101.5c-10.1-2.4-23.9-2.1-25.8,1.2-2.5,4.8,7.7,13.8,15.4,11.6a29.6,29.6,0,0,0,10.1-5c1.9-1.6.4-2.7.4-2.7,2-.6,2.5-2.1,1.2-2.4C127.4,103.3,127.5,102.2,124.4,101.5Z"/><path class="cls-8" d="M87.6,66.2c-.3-.5-.3-1.2-.9-1.5L85.8,63c.1-.1,1.6,1.2,1.7,1.1,3.1,1.6,5-1.1,5.4-.6S89,68.5,87.6,66.2Z"/><path class="cls-1" d="M83.7,59.2a10.6,10.6,0,0,1-1.3,2.9c-1.6,2.4-5.4,4.7-4.2,5.8s8.3-1.7,10.1-4.2c-2.8-1.8-.2-5.2-2-6.1S83.7,59.2,83.7,59.2Z"/><path class="cls-9" d="M83.4,64.8c.2.3,2-1,1.5-1.6S82.9,64.2,83.4,64.8Z"/><path class="cls-1" d="M89.9,59c.5.8,2.3-.2,1.5-1.1S89.3,58.3,89.9,59Z"/><path class="cls-10" d="M90,58.9c.5.6,1.8-.1,1.2-.9S89.6,58.3,90,58.9Z"/><path class="cls-11" d="M90.3,58.7c.3.3,1-.1.7-.5S90.1,58.4,90.3,58.7Z"/><path class="cls-12" d="M90.6,58.4a.3.3,0,1,1-.6,0,.3.3,0,1,1,.6,0Z"/><path class="cls-8" d="M108.6,96.1c-4.5.5-13.9,3.4-15.3,1.4-4.2-5.9,1.8-24.4,3.8-36.4-.1,4.4-1.7,10-2.3,15.2-.2,2.3-.3,4.3-.3,6.1-.2,7.3,1.2,11.1,3.1,12.1S103.2,95.5,108.6,96.1Z"/><path class="cls-8" d="M126.4,109.4c-2.9,9.7-12.8,16.8-16,17.1s-14.4-3.7-21.5-9.1c5.2,2.2,16.2,7.1,24.8,4S121.8,110.4,126.4,109.4Z"/><path class="cls-13" d="M134,100.4a1,1,0,0,0-.6-.9c.8-1.5.1-2.7-1.4-2.2a46.1,46.1,0,0,1-9.2,1.7c-3.7-1.3-9.2-2.1-14.2-2.6s-10.2-1.1-11-1.6S94.3,90,94.5,82.6c0-1.7.1-3.8.3-6.1.6-5.2,2.2-10.7,2.3-15.2a9.2,9.2,0,0,0-.6-4.8c-1.1-2.6-4.8-3.8-7.9-2.6a7.9,7.9,0,0,0-4.9,5.4h0a10.6,10.6,0,0,1-1.3,2.9c-1.6,2.4-5.4,4.7-4.2,5.9s6.2-1,8.8-3a4.5,4.5,0,0,1,.6,1.2v.2a12,12,0,0,1,.3,3.7,105.2,105.2,0,0,1-1.5,14.1c-1,6.8-5.3,16.3-3.4,25.9.5,2.6,2.7,5.1,5.8,7.3a39.6,39.6,0,0,0,5.7,3.6c0,2.1,0,3.9-.3,4.4s-.1.7-4.1,1.7a24.8,24.8,0,0,0-6.1,2.4l-.2.2c-.7.2-1.2,2.1-1.2,2.1s1.1-.7,1.5-.9a3.4,3.4,0,0,1,2.3,2.7,10.4,10.4,0,0,0-.5,1.8,2.6,2.6,0,0,1,1.3-1h0a5.7,5.7,0,0,1,4.6,1.8,4.7,4.7,0,0,0,0,2.1c.2-1.2,1.8-1.6,1.4-2.1s.1-.1.1-.2a50.8,50.8,0,0,1,2.2-6.6c.6-1.5,1.8-1.7,1.7-3.2v-1.8c.5.5,1,1,1.3.5s-.5-1.7-1.2-2.3v-.2a52.4,52.4,0,0,0,11.4,4v1.5c.1,2.6.1,5.3-.2,5.8s-.1.7-4.2,1.7a26.6,26.6,0,0,0-6.1,2.4h-.1c-.7.2-1.2,2.2-1.2,2.2a2.7,2.7,0,0,1,1.5-.9l.5.3h.1l.4.3h.3c0,.1.1.1.1.2h.1l.3.4v.4h0l.3.8a5.3,5.3,0,0,0-.5,1.8,2.8,2.8,0,0,1,1.2-1h1.8l1.2.4.7.4h.1l.7.6v.2a6.9,6.9,0,0,0,0,2.1c.3-1.3,1.8-1.6,1.4-2.1v-.2a56.4,56.4,0,0,1,2.2-6.6c.6-1.5,1.8-1.7,1.7-3.2v-1.8c.5.6,1.1,1,1.3.5s-.5-1.7-1.2-2.3h0c.1-.4.1-.9.2-1.3s.3-1.3.3-1.7a11.6,11.6,0,0,0-.1-1.7c4.1-1.8,11.9-8.2,14.4-16.6a.4.4,0,0,0,.1-.3l6.1-5.7a2,2,0,0,0,.3-1.8C133.6,101.3,134,100.8,134,100.4Z"/></g></svg>