<svg xmlns="http://www.w3.org/2000/svg" viewBox="0 0 200 200"><defs><style>.cls-1{fill:#bf7a41;}.cls-2{fill:#d89c6a;}.cls-3{fill:#b77d4e;}.cls-4{fill:#616161;}.cls-5{fill:#424242;}.cls-6{fill:#b08051;}.cls-10,.cls-7{fill:#212121;}.cls-11,.cls-8{fill:#3e2723;}.cls-12,.cls-9{fill:#fff;}.cls-10,.cls-11,.cls-12{stroke:#000;stroke-miterlimit:10;stroke-width:0.05px;}.cls-13{fill:#8c6239;}</style></defs><g id="Dog_03"><path class="cls-1" d="M140.7,88.6l.7-.2a3.2,3.2,0,0,1-2,1.8l-1.1.2-.6.3c.1.3.2.5.5.6l-1.1.3a3.3,3.3,0,0,1-1.5.3,5.2,5.2,0,0,1-2.2-.7.9.9,0,0,0,.2,1.1,4.6,4.6,0,0,1-3.2-1,16,16,0,0,1-4-3.3,17.2,17.2,0,0,1-2.8-3.6l-.9-1.9c-7.8-8.7-2.3-16.1-2.3-16.1s4.5.4,8.3,4.8a31.4,31.4,0,0,1,4.3,7.1l1.2,2.4a10,10,0,0,0,3.4,3.4,5.4,5.4,0,0,0,4.6.5A6.7,6.7,0,0,1,140.7,88.6Z"/><path class="cls-2" d="M140.7,88.6l.7-.2a3.2,3.2,0,0,1-2,1.8l-1.1.2-.6.3c.1.3.2.5.5.6l-1.1.3a4.4,4.4,0,0,1-3.5-1.4c.9-.3,1.9.1,2.8-.4s-1.1-1-1-1.6h1.8c-.9-.9-1.8-1.5-2.1-2.9.6.2,1,.7,1.6.8a8.8,8.8,0,0,1-2.5-5.4,10,10,0,0,0,3.4,3.4,5.4,5.4,0,0,0,4.6.5A6.7,6.7,0,0,1,140.7,88.6Z"/><path class="cls-1" d="M85,108.5a130.8,130.8,0,0,0-1.1,14.6c0,2.8-.2,4.4-1.8,4.9a2.9,2.9,0,0,1-3.2-.4,1.7,1.7,0,0,1,.7-3.2l-1-10.4-1.1-10.6L76.9,98l9.9-2.4S85.8,101.7,85,108.5Z"/><path class="cls-1" d="M62.8,71a9.9,9.9,0,0,0-.2,1.8,1.7,1.7,0,0,0,.1.7c0,.2.3.5.3.7a1.1,1.1,0,0,1,.1-.6,3.7,3.7,0,0,0,.4,2.3,2.5,2.5,0,0,1,.2-.7c.5,1.4,1.1,2.5,1.4,2.3s3.9-8,3.9-8H66.8A12.6,12.6,0,0,0,64,70,1.9,1.9,0,0,0,62.8,71Z"/><path class="cls-2" d="M98,109c0,.8.7,1.4.7,2.1H97.5c.3.8.6.6.2,1.3a5.1,5.1,0,0,0-.9,1.6,146.9,146.9,0,0,0-1.2,15.4c0,2.1-.5,4.3-2.1,4.7s-2,.6-3.2-.3l-.3-.3a1.6,1.6,0,0,1,1-2.9L88.9,110l-.6-5.9,7.8-2,2.1-.5-.7,5.8c.1.2.3.4.4.4l.3.4a10.1,10.1,0,0,1,.9,1.3C98.7,109.4,98.4,109,98,109Z"/><path class="cls-3" d="M122.3,91.3c-.3-2.6-2.5-1.8-3.4-8a30.1,30.1,0,0,1-.1-6H100.9c1.2,10,8.5,11.2,15.9,17.7,1.2,1.1,1.4,4.9.9,8-1,0-3.4,1.7-1.3,3.3s1.9.8,3.3.4C123.4,105.6,122.6,93.7,122.3,91.3Z"/><path class="cls-2" d="M134.2,106v.8c-.2,2.2-.8,5.2-3.1,5.9s-2.1.6-3.3-.4.3-3.3,1.2-3.2a5.2,5.2,0,0,0,.2-1.1c.4-2.9.1-6-1-7l-.9-.8c-3.9-3.1-7.6-5-10.4-7.6a11.2,11.2,0,0,1-1.8-2,5.7,5.7,0,0,1-1.2-1.8,9.3,9.3,0,0,1-.5-1,18.2,18.2,0,0,1-1.3-7.2V79.3l12-9.6,1.3-.9c7.1,8.3,4,14.5,4.9,20.5a10.7,10.7,0,0,0,1.5,4.8,19.5,19.5,0,0,1,1.7,2.3.4.4,0,0,0,.1.3,18.3,18.3,0,0,1,.5,4.7A23.6,23.6,0,0,1,134.2,106Z"/><path class="cls-2" d="M125.3,80.7l-.3.4a12.8,12.8,0,0,1-1.1,2l-.6.8c-.6,1-1.4,2-2.1,3l-.9,1.1-.5.7-2.2,2.9-.7.9h-.1a2.3,2.3,0,0,1-.7,1.4c-.1.1-.1.2-.2.2s-1.2,1.6-2,1.9l.7.3a11.4,11.4,0,0,0-1.5,1.6,16.7,16.7,0,0,1-1.6,1.2,6,6,0,0,1-1.5.9l-.6.2c.4,0,.9.3,1.3.2a9.6,9.6,0,0,1-3.7,2.9c-.6.3-1.9,1.2-2.7,1.1a5,5,0,0,0,2.1-.1c-.5.2-.7.7-1,1a3.6,3.6,0,0,1-1.7,1.1l-3.5,1.1a11.7,11.7,0,0,1-2,.6l-.8.2-1.6.5a15.4,15.4,0,0,1-6.9,1.1l-1.9-.3-1-.3c.1.2,0,.4.2.5l-2.9-.8a4.5,4.5,0,0,1-1.9-1.5.5.5,0,0,0-.1.6,7.8,7.8,0,0,0-1.4-.5,5.4,5.4,0,0,1-1.6-1,6.2,6.2,0,0,1-1.7-2.2,2.3,2.3,0,0,0,.1,1.4c-.4-.6-1.1-1-1.5-1.5a5,5,0,0,1-1-1.9l-.7-1.8c-.1.1-.1.3-.1.6l-.9-1.1A9.5,9.5,0,0,1,71,96.6a7.8,7.8,0,0,1-.2-1.4c0,.4-.2.7,0,1.1a10.1,10.1,0,0,1-1.5-4.2,16.6,16.6,0,0,1-.2-2.4c0-.2-.1-.3-.1-.5s0-1.5-.1-1.7c-1.5,2.3-5.1,3.3-6,3.3A4.5,4.5,0,0,1,60.1,89c-1.9,1.1-2.4-1.6-2.3-3s3.4-5,3.7-5.6h0c1.3-2.6.9-5.5,3.9-8.7l.4-.3.3-.3.4-.3.3-.2h0l.3-.2,1-.6h.3l.6-.2.8-.2h1.8c5.2-.2,8.1,2.3,10.7,4.6l.4.3,1.1.9a15.1,15.1,0,0,0,2.6,1.8h0l.4.2,1.4.4a9.1,9.1,0,0,0,2.9.1l1.3-.3h.4a13.8,13.8,0,0,0,2.2-1l.9-.5,1.4-.9.8-.4.7-.5.8-.4,1.5-.9.6-.4.5-.2,1.3-.8.9-.5.9-.5.4-.2.7-.4,1.1-.5,1-.5,2.1-.9.8-.3.9-.3.8-.3h0a17.3,17.3,0,0,1,5.8-.8h.4l1.4.2h.4l.5.2h.5l.3.2.7.4.4.2.4.3h0l.8.6h0l.8.8c0,.1.1.1.1.2h0c.8,1.1.9,2.3,1.2,4.3A13.5,13.5,0,0,1,125.3,80.7Z"/><path class="cls-1" d="M62.9,90.7A4.1,4.1,0,0,1,60.1,89a1.2,1.2,0,0,1-1.8-.4,2.5,2.5,0,0,0,.1-1.3,2.7,2.7,0,0,1,1.1-2.7c1.9-1.2,3.2.3,3.2,2.7S61.5,89.6,62.9,90.7Z"/><path class="cls-4" d="M58.8,85.5s3.4-2.9,3.6,1.8Z"/><path d="M58.8,85.5l.9-.6a2,2,0,0,1,1.7-.1c.3.1.5.5.7.8a1.9,1.9,0,0,1,.2.8.7.7,0,0,1,.1.5s.1.4,0,.4h-.1l-.4-.2-1.2-.5-1.2-.6-.7-.4h0L62,87.1l.4.2h0c0-.9-.2-2.4-1.3-2.6a2.3,2.3,0,0,0-1.9.5l-.4.3Z"/><path class="cls-1" d="M131.8,94.1h0l-1.9-.4.5.6c-1,.7-2.6-1-3.2-1.6a4.3,4.3,0,0,0,.1.5c-.8.4-2.3-1.2-2.8-1.8s-2-2.3-1.9-3.4a2,2,0,0,0,.1,1.3,2.5,2.5,0,0,1-1-1.6,5.6,5.6,0,0,0-.5-.8l-.4-.6a7.5,7.5,0,0,0-1.6-1.5l-1-.5a1.7,1.7,0,0,1,.3,1.2c-.7-.9-2-.8-3-.7a3.6,3.6,0,0,0-1.7.7l-1,.7h.1a1,1,0,0,1,.7.6h-.5a7.9,7.9,0,0,0-2.2,1.8l-.8,1.2c-.1.3-.3.5-.4.8s1,.2,1.1.5-1.7,1-2,1.3a6.1,6.1,0,0,0-1.3,1.5,1.4,1.4,0,0,1-.7.8l.5-.2a6.1,6.1,0,0,1-2.1,2.9c-.6.5-1.4.7-2,1.2a2.1,2.1,0,0,0,1.5.5,5.2,5.2,0,0,1-4,2,13.3,13.3,0,0,1-2,0c-.5,0-1.4.4-1.8.1s.1.6.3.7a7.1,7.1,0,0,1-2,.4,6.6,6.6,0,0,1-2-.6c-1-.4-2.5-1.1-2.7-2.3a1.4,1.4,0,0,0,.1,1.1c-1-.2-1.6-2.2-1.7-3a9.4,9.4,0,0,1,.3-4.4,5.2,5.2,0,0,1-1,1.1c0-1.4.3-2.7.3-4.1s-1-2.9-1-4.2a5.1,5.1,0,0,1-.6,2.1,6.2,6.2,0,0,0-1.2-2.9L84,83.6l-1.4-1.2a5.7,5.7,0,0,0-2.9,0l-1.2.5a30.2,30.2,0,0,1-4.2,1.7,14,14,0,0,1-3.7.7c-2.6,0-5.4-1.5-4.4-5.5s3-3,2.5-4.7-3.5-1.3-3.5,1.6-1.4,3.7-3.7,3.7c1.3-2.6.9-5.5,3.9-8.7l.4-.3.3-.3.4-.3.3-.2h0l.3-.2,1-.6h.3l.6-.2.8-.2h1.9c5.1-.2,8,2.3,10.6,4.6l.4.3,1.1.9a15.1,15.1,0,0,0,2.6,1.8h0l.4.2,1.4.4a9.1,9.1,0,0,0,2.9.1l1.3-.3h.4a13.8,13.8,0,0,0,2.2-1l.9-.5,1.4-.9.8-.4.7-.5.8-.4,1.5-.9h0l.6-.4.5-.2,1.3-.8.9-.5.9-.5.4-.2.7-.4h0l1.1-.5,1-.5,2.1-.9.8-.3.9-.3.8-.3h0a17.3,17.3,0,0,1,5.8-.8h.4l1.4.2h.4l.5.2h.5l.3.2.7.4.4.2.4.3h0l.8.6h0l.7.8h0l.2.2h0a8.3,8.3,0,0,1,1.2,1.6h0l.5.6.2.4.2.3a5.4,5.4,0,0,1,.7,1.3c.1.1.1.2.2.4s.3.5.4.8l.3.8a2.4,2.4,0,0,1,.2.8.6.6,0,0,1,.1.4,1.9,1.9,0,0,1,.2.7c0,.1.1.2.1.3h0c0,.2.1.3.1.4v.5a1.5,1.5,0,0,1,.1.7,4.5,4.5,0,0,1,.1,1.1v.4c.1,1.2,0,2.4,0,3.6s-.1,1.5-.1,2.2a17.7,17.7,0,0,0,.1,2.3,1.3,1.3,0,0,0,.1.6c.1.9.3,1.6.4,2.3a24725056409691.3,24725056409691.3,0,0,1,.4,1.2l.5,1Z"/><path class="cls-5" d="M58.7,85.8a2.7,2.7,0,0,0,1.7,2.6c.9.4,1.5.1,2-.9S58.6,84.6,58.7,85.8Z"/><path d="M58.7,85.8a2.4,2.4,0,0,0,2.8,2.7,1.7,1.7,0,0,0,.8-.9c.2-.3.2-.4,0-.6a.9.9,0,0,0-.6-.6,3.4,3.4,0,0,0-1.8-.9c-.4-.1-1.2-.3-1.2.3h0c0-.6.7-.4,1-.4a5.8,5.8,0,0,1,1.8.8l.7.5a1,1,0,0,1,0,1.2l-.5.5a1.4,1.4,0,0,1-1.1.1,2.9,2.9,0,0,1-1.9-2.7Z"/><path class="cls-6" d="M64,78.6a2.7,2.7,0,0,0,.6-1.9c-.1-.9-1.6.5-1.6.5Z"/><path class="cls-7" d="M67.7,80.9s.4-1.2,1.5-1.1.8,1.4,1.3,1.7S68.7,82.6,67.7,80.9Z"/><path d="M67.7,80.9a1.8,1.8,0,0,1,.8-.9,1.2,1.2,0,0,1,1-.1,1.2,1.2,0,0,1,.6.6c.1.2.1.5.2.7v.2h.1l-.3.3h-.7a2,2,0,0,1-1.8-1h0a2.1,2.1,0,0,0,1.7,1h.7l.4-.2h0l-.2-.2a6.4,6.4,0,0,1-.2-.7.7.7,0,0,0-.4-.6,1.1,1.1,0,0,0-1-.1,1.6,1.6,0,0,0-1,1Z"/><path class="cls-8" d="M69.9,81a.8.8,0,0,1-1,.7c-.4-.1-.8-.5-.7-.9a.8.8,0,0,1,1-.7A1,1,0,0,1,69.9,81Z"/><path d="M69.9,81a.8.8,0,0,1-.7.7.9.9,0,0,1-.9-.4.7.7,0,0,1,.1-.9.8.8,0,0,1,.9-.3,1,1,0,0,1,.6.9h0a.9.9,0,0,0-.4-.8.9.9,0,0,0-1,.1.7.7,0,0,0-.2.9.8.8,0,0,0,.8.5.8.8,0,0,0,.8-.7Z"/><path class="cls-7" d="M69.6,81c-.1.3-.3.5-.6.4a.6.6,0,0,1-.5-.6.5.5,0,0,1,.6-.4A.6.6,0,0,1,69.6,81Z"/><path d="M69.6,81c-.1.2-.2.4-.4.4s-.5,0-.6-.2a.6.6,0,0,1,0-.6.7.7,0,0,1,.6-.2.7.7,0,0,1,.4.6h0a.5.5,0,0,0-.3-.5c-.2-.2-.4-.1-.6,0a.5.5,0,0,0-.1.6c0,.2.3.3.5.3a.7.7,0,0,0,.5-.4Z"/><path class="cls-9" d="M69.7,81c0,.1-.1.2-.3.2l-.2-.3c0-.2.2-.3.3-.2S69.7,80.8,69.7,81Z"/><path d="M69.7,80.9c0,.2-.1.2-.2.3l-.2-.2c-.1,0-.1-.2,0-.2s.1-.2.2-.1.2.1.2.2h0c0-.2,0-.3-.1-.3a.2.2,0,0,0-.3,0,.4.4,0,0,0-.1.3l.3.2.2-.2Z"/><path class="cls-10" d="M64.3,77.8a1.6,1.6,0,0,1-.3.8H63c-.5-.2-.5-1-.5-1s.7-.9,1.4-.5S64.4,77.6,64.3,77.8Z"/><path class="cls-11" d="M62.9,77.7a.5.5,0,0,0,.5.7.7.7,0,0,0,.7-.9C64,77.1,63.2,76.9,62.9,77.7Z"/><path class="cls-10" d="M63.2,77.7c-.1.1,0,.4.2.5a.5.5,0,0,0,.5-.6C63.8,77.4,63.3,77.2,63.2,77.7Z"/><path class="cls-1" d="M81.6,79c-3.4-4.7-9.2-4.4-8.3-2.7a2.3,2.3,0,0,1,.3,1.3v.5c0,.4-.2.9,0,1.3a2.8,2.8,0,0,1,.1,1,3.6,3.6,0,0,0-.2,1.1c0,.5.2.8.2,1.3a1.4,1.4,0,0,1,.2-.6c0,1,.3,2.8,1,3.4s.1-.3.1-.5.7,1,.9,1.3.7.8,1.2.7,1.5-.5,1.4-2C78.5,82,83,80.8,81.6,79Z"/><path class="cls-12" d="M64,77.9h-.4a.2.2,0,0,1,.4,0Z"/><path class="cls-2" d="M138.9,89.7h0c-.1,0-.1.1,0,.1Z"/><path class="cls-13" d="M142.2,84.5c-3.2,1.1-6.1-1.1-7.7-3.6a28.9,28.9,0,0,1-2.2-4.3c-.7-1.2-1.3-2.4-2.1-3.6a17.7,17.7,0,0,0-5.6-5.3,18.7,18.7,0,0,0-3.1-1.7,14.4,14.4,0,0,0-4.6-.4,26.9,26.9,0,0,0-8.7,2.8,25.8,25.8,0,0,0-3.7,1.9l-2.1,1.1-.8.5-.5.3H101l-1.9,1.1-2,1.2A22.7,22.7,0,0,1,93,76.7a8.4,8.4,0,0,1-4.7.4A9.3,9.3,0,0,1,84.1,75a56.8,56.8,0,0,0-5.6-4.4A12.4,12.4,0,0,0,71,69l-2,.4h0l-3.2.2a4.1,4.1,0,0,0-2.4.6,2.3,2.3,0,0,0-.9,1.9v1.3l.4.8h.2a1.3,1.3,0,0,1,.1-.6H63v1a4.3,4.3,0,0,1,.1.5,1.9,1.9,0,0,1-.3.8,23.3,23.3,0,0,1-.7,2.5,8.6,8.6,0,0,1-.7,2.1l-.7.7A19.3,19.3,0,0,0,58.5,84a4.5,4.5,0,0,0-.7,3.2,2.5,2.5,0,0,0,.6,1.7,1.4,1.4,0,0,0,1.8.2H60a5,5,0,0,0,2,1.5,3,3,0,0,0,2.1.1A8.5,8.5,0,0,0,69,87.6h-.2a10.9,10.9,0,0,0,.1,1.8,21.3,21.3,0,0,1,.3,2.5,10.9,10.9,0,0,0,1.5,4.6c.1.1.2,0,.2-.1a2.1,2.1,0,0,1,0-1.1h-.1a6,6,0,0,0,.7,3.2,7.3,7.3,0,0,0,1.9,3,.1.1,0,0,0,.1-.1,1.3,1.3,0,0,1,.1-.6h-.1a8.8,8.8,0,0,0,.5,1.5c.2.4.3.9.5,1.3a3.8,3.8,0,0,0,.9,1.3,6.3,6.3,0,0,1,1.2,1.1h.1a3.3,3.3,0,0,1,0-1.4h-.1l.5,1,.3.3c.1.1.2.3.3.3v.4l.2,2.1.5,4.9c.3,2.3.5,4.7.7,7.1l.4,3.7h.1a2,2,0,0,0-1.4.8,1.7,1.7,0,0,0-.1,1.9,3.3,3.3,0,0,0,2.1,1.4,4,4,0,0,0,2.4-.5c1.3-.6,1.3-2.4,1.4-3.7s0-4,.1-6,.5-5.7.9-8.6h-.1l1.3.3s.1-.1,0-.1,0-.4-.1-.5H86a9.4,9.4,0,0,0,2.9.6h-.1c.3,2.3.5,4.6.7,6.9l1.2,11,.2,2.6H91a1.6,1.6,0,0,0-1.6,1.1,1.9,1.9,0,0,0,.9,2.3,2.8,2.8,0,0,0,2.8.4,2.2,2.2,0,0,0,1.2-.5,2.7,2.7,0,0,0,.9-1.2,8.6,8.6,0,0,0,.5-3.2v-2.6c.2-2.6.4-5.1.7-7.7a40.7,40.7,0,0,1,.5-4.9,2.4,2.4,0,0,1,.5-1.3c.1-.3.4-.5.5-.8s-.2-.7-.3-1h1.1a.1.1,0,0,0,.1-.1c0-.8-.6-1.4-.7-2.1H98c.4,0,.7.4,1.1.5s.1-.1.1-.2l-.9-1.2h-.1a14.2,14.2,0,0,0,2.2-.7l2.5-.8a7,7,0,0,0,2-.8c.6-.5.9-1.1,1.5-1.5s.1-.2,0-.2a3.4,3.4,0,0,1-2,.1h-.1a1.9,1.9,0,0,0,1.5-.4l1.7-.9a10.2,10.2,0,0,0,3.2-2.6.1.1,0,0,0,0-.2l-1.3-.2v.2a4.6,4.6,0,0,0,1.4-.7l1.4-.9,1.2-1a4.7,4.7,0,0,1,1.1-1.3c.1-.1.1-.2,0-.2s-.4-.1-.6-.3v.2a6.4,6.4,0,0,0,2.1-1.9h-.2a6.3,6.3,0,0,1,1.2,1.1,2.6,2.6,0,0,1,.5,1.2,11.9,11.9,0,0,1,.4,3.3c0,.6-.1,1.2-.1,1.8s-.1.7-.2,1,0,.2-.3.3a2.7,2.7,0,0,0-1.6,1.2c-.9,1.6,1.4,3.1,2.8,2.9a4.3,4.3,0,0,0,2.2-.9,7.8,7.8,0,0,0,1.1-2,23.5,23.5,0,0,0,.9-7.4h-.2a48.4,48.4,0,0,1,4.6,3.3c.5.5,1.2.9,1.5,1.5a5.5,5.5,0,0,1,.6,2.2,20.1,20.1,0,0,1,.1,2.5c0,.4-.1.8-.1,1.3s-.1.4-.1.6,0,.6-.1.7h-.6l-.6.4a2,2,0,0,0-.8,1c-.4,1.2.8,2.1,1.8,2.5a2.5,2.5,0,0,0,1.7,0,5.3,5.3,0,0,0,1.7-.8,5.9,5.9,0,0,0,1.7-3.1,27,27,0,0,0,.5-4.1c0-1.1-.1-2.2-.1-3.3s-.1-2-.2-3a11,11,0,0,0-.6-2.6c-.4-.8-1.2-1.3-1.6-2h-.1a.1.1,0,0,0,.1-.1,8.5,8.5,0,0,1-1.1-2.6h-.1a4.9,4.9,0,0,0,2.9.8c.1,0,.1-.1,0-.1a.9.9,0,0,1-.1-1h-.2a7.2,7.2,0,0,0,2.5.7,10.5,10.5,0,0,0,2.4-.6c.1,0,.1-.1,0-.1l-.4-.6h-.1c.7-.3,1.5-.4,2.3-.8a3.1,3.1,0,0,0,1.5-1.5c.1-.1,0-.2-.1-.2a1,1,0,0,1-.7.2v.2a7,7,0,0,0,1.6-4.1h-.2a7,7,0,0,1-1.5,3.9c0,.1,0,.2.1.2l.8-.2h-.1a3.9,3.9,0,0,1-1.6,1.5,2.9,2.9,0,0,1-1,.3h-.5l-.6.3a.1.1,0,0,0-.1.1,1.3,1.3,0,0,0,.5.7h0a14.2,14.2,0,0,1-2.2.5,5.4,5.4,0,0,1-2.5-.6c0-.1-.1-.1-.1,0a1.1,1.1,0,0,0,.2,1.2v-.2a4.5,4.5,0,0,1-2.8-.7h-.2a11.9,11.9,0,0,0,1.1,2.6V94h0c-.1,0-.1.1-.1.2s1.4,1.4,1.7,2.3a11.3,11.3,0,0,1,.6,3.2,51.5,51.5,0,0,1,.1,6.8A10,10,0,0,1,133,111a3.7,3.7,0,0,1-1.9,1.6,3.3,3.3,0,0,1-2.6.1c-.8-.4-1.8-1.3-1.2-2.4a2.3,2.3,0,0,1,1.7-1.1c.1,0,.1,0,.1-.1a14.6,14.6,0,0,0,.4-4.2,9.2,9.2,0,0,0-.7-3.2,2.8,2.8,0,0,0-.9-1l-1.7-1.4-3.6-2.6h-.1c0,1.4-.1,2.8-.2,4.2a16.6,16.6,0,0,1-.9,3.7,3.3,3.3,0,0,1-2,2,3.1,3.1,0,0,1-1.9.1,3.1,3.1,0,0,1-1.7-1.3c-.5-1.1.8-2.4,1.9-2.4h.1a15.7,15.7,0,0,0,.1-5.3,4.6,4.6,0,0,0-.5-2,4.1,4.1,0,0,0-1.4-1.5c-.1-.1-.1-.1-.2,0s-1,1.5-1.9,1.8-.1.1,0,.2l.7.3v-.2a5.2,5.2,0,0,0-1,1.1,4.3,4.3,0,0,1-1.2,1.1l-1.3.9a1.8,1.8,0,0,1-.7.5c-.2.2-.6.2-.9.3s-.1.2,0,.2l1.3.2h-.1a10.2,10.2,0,0,1-3.2,2.6l-1.4.7a3.5,3.5,0,0,1-1.7.6c-.1,0-.1.1,0,.1a3,3,0,0,0,2.1,0v-.2c-.6.4-.9,1.1-1.5,1.5a5.6,5.6,0,0,1-2.1.9l-2.3.7a11.1,11.1,0,0,1-2.2.7v.2a4.7,4.7,0,0,1,.9,1.2h.1l-1.1-.5h-.1c.1.8.7,1.3.8,2.1H97.4l.3.6c.1.1.1.2,0,.4a1.8,1.8,0,0,1-.5.7l-.3.8a3,3,0,0,0-.3,1.6,14.9,14.9,0,0,0-.2,2.1c-.3,2.3-.5,4.7-.7,7.1s-.2,3.4-.2,5.1a8.6,8.6,0,0,1-.5,3.2,3.1,3.1,0,0,1-.9,1.1,3.9,3.9,0,0,1-1.4.5A2.5,2.5,0,0,1,91,134a2.9,2.9,0,0,1-1.5-1.4,1.7,1.7,0,0,1,1.5-2.1h.1l-.7-7-1.1-11L89,110h-.1a10.7,10.7,0,0,1-2.9-.6.1.1,0,0,0-.1.1c.1.2.1.4.2.6h.1l-1.3-.4h-.1a100.3,100.3,0,0,0-1,12.2c-.1,1.6.2,3.2-.3,4.7a2.4,2.4,0,0,1-1.2,1.4,4.5,4.5,0,0,1-2.3.2c-.9-.2-2.2-1.2-1.9-2.3a1.7,1.7,0,0,1,1.5-1.3h.1l-.9-8.4-.6-6.8-.3-2.5a1.1,1.1,0,0,0-.1-.5c0-.1-.2-.2-.3-.4a5.7,5.7,0,0,1-.8-1.3h-.1a1.7,1.7,0,0,0,0,1.4h.1a3.2,3.2,0,0,0-1-1,6.4,6.4,0,0,1-1-1.3c-.2-.5-.3-1-.5-1.5a8.4,8.4,0,0,1-.6-1.4.1.1,0,0,0-.1-.1c-.2.2-.1.5-.1.7h.1a7.1,7.1,0,0,1-1.8-2.7,7.6,7.6,0,0,1-.8-3.3c0-.1-.1-.1-.1,0a2.1,2.1,0,0,0-.1,1.1h.2a11.4,11.4,0,0,1-1.6-4.7,16.4,16.4,0,0,0-.2-2.2,11.5,11.5,0,0,1-.1-1.9h-.1a8.7,8.7,0,0,1-4.7,3,2.8,2.8,0,0,1-2,0,5,5,0,0,1-2-1.5h-.1a1.2,1.2,0,0,1-1.3.1c-.3-.1-.4-.3-.5-.6a4.9,4.9,0,0,1-.4-2.1,5.1,5.1,0,0,1,1.3-3,22,22,0,0,1,2-2.3,6,6,0,0,0,1.1-2.6,19.7,19.7,0,0,0,.7-2.6c.1-.2.3-.4.3-.6a4.3,4.3,0,0,1-.1-.5,4.1,4.1,0,0,1,0-1.1H63c0,.2-.1.3-.1.6h.2l-.3-.5a2.9,2.9,0,0,1-.1-1.3,4.9,4.9,0,0,1,.1-1.2,2.2,2.2,0,0,1,1-.9,7.5,7.5,0,0,1,2.6-.5H69v-.2h0c-.1.1,0,.2.1.2a11.3,11.3,0,0,1,8.3.6,30,30,0,0,1,5.7,4.2,17.4,17.4,0,0,0,3.6,2.4,7.8,7.8,0,0,0,4.3.6c2.9-.4,5.4-2.2,7.9-3.7l2-1.2.5-.3.9-.5,4-2.2,4-1.9a23.5,23.5,0,0,1,4.5-1.4,12.3,12.3,0,0,1,4.7-.4,10.2,10.2,0,0,1,2.5.6l1.8,1,1.4.8,1.6,1.2a28.9,28.9,0,0,1,2.9,3.2,25,25,0,0,1,2.1,3.5c.7,1.4,1.3,2.8,2.1,4.2s3.5,4.6,6.4,4.7a6.3,6.3,0,0,0,1.9-.3C142.3,84.6,142.3,84.5,142.2,84.5Z"/></g></svg>