<svg xmlns="http://www.w3.org/2000/svg" viewBox="0 0 200 200"><defs><style>.cls-1,.cls-15{fill:#ffa726;}.cls-2{fill:#ff8f00;}.cls-3{fill:#fff8e1;}.cls-4{fill:#f57f17;}.cls-5{fill:#ffe0ae;}.cls-6{fill:#fccfa2;}.cls-7{fill:#f7b56d;}.cls-8{fill:#fff2e1;}.cls-9{fill:#ffd9b0;}.cls-10{fill:#ffefd7;}.cls-11{fill:#ebe1cf;}.cls-12{fill:#88bbbf;}.cls-13{fill:#424242;}.cls-14{fill:#fff;}.cls-15{stroke:#8c6239;stroke-miterlimit:10;stroke-width:0.1px;}.cls-16{fill:#f57c00;}.cls-17{fill:#5b3114;}</style></defs><g id="Duckling_01"><path class="cls-1" d="M97.5,126.1a10.6,10.6,0,0,1,.3,1.4c.1.3.1.7.2,1.1s.1,1,.1,1.5v1.6c-.1,1.2,1,1.4,1.6,2.6a47.6,47.6,0,0,1,2,5.5.8.8,0,0,0,1.1.4l.3-.2.2-.2.5-.4h.2l.6-.3,1.2-.4h2.1v-.5c.1-.3.1-.5.2-.8l.3-.3c0-.2.2-.3.3-.4l.2-.2.2-.2,1-.4h.2l.2-.2c.1-.3.1-.6-.2-.7v-.2a30.1,30.1,0,0,0-5.7-2c-3.8-.8-3.6-1-3.9-1.4a27.2,27.2,0,0,1-.2-4.8,36.3,36.3,0,0,1,.2-3.8v-1.1H98.4a10.2,10.2,0,0,1-.3,1.1A14.8,14.8,0,0,0,97.5,126.1Z"/><path class="cls-2" d="M107.9,137.5a2.4,2.4,0,0,1,.1.7,3,3,0,0,1,2.5-2.7l.2-.2c-.2-.2-.8.1-1.1,0s-6.6-3-7.3-2.6S107.9,137.5,107.9,137.5Z"/><path class="cls-2" d="M102.9,140.2a5.5,5.5,0,0,1,4.5-1.7l-.6-.3s-5.4-5.3-6.1-5.1,1.6,5.2,2.2,6.6A.7.7,0,0,1,102.9,140.2Z"/><path class="cls-3" d="M108.2,138.6s0-2-1.1-1S107.5,137.5,108.2,138.6Z"/><path class="cls-3" d="M103.1,140.8s.5-1.7-.9-1.1S102.8,139.6,103.1,140.8Z"/><path class="cls-3" d="M111.4,135.5s-.5-1.8-1.5-.7S110.5,134.5,111.4,135.5Z"/><path class="cls-1" d="M98.8,129.2s-1.5,2.2-2,1.4,1.8-2.5,1.8-2.5Z"/><path class="cls-2" d="M97.5,126.1a10.6,10.6,0,0,1,.3,1.4l.7-.2a8.2,8.2,0,0,0,2.1-1.1,36.3,36.3,0,0,1,.2-3.8,8.2,8.2,0,0,0-2.7-.1A14.8,14.8,0,0,0,97.5,126.1Z"/><path class="cls-2" d="M111.4,124.7c-.1,1.3,1,1.5,1.6,2.7a55.4,55.4,0,0,1,2,5.5.8.8,0,0,0,1.1.4,5.9,5.9,0,0,1,4.6-1.7h.5v-.3a3,3,0,0,1,2.5-2.7l.2-.2a.8.8,0,0,0-.3-.9,30.1,30.1,0,0,0-5.7-2c-3.8-.8-3.7-1-3.9-1.4s0-9.7,0-9.7h-2.4a24,24,0,0,0-.9,4.9A22.1,22.1,0,0,1,111.4,124.7Z"/><path class="cls-4" d="M121.2,130.6a3.2,3.2,0,0,0,.1.7,3,3,0,0,1,2.5-2.7l.2-.2c-.2-.2-.8.1-1.1,0s-6.6-2.9-7.3-2.6S121.2,130.6,121.2,130.6Z"/><path class="cls-4" d="M116.1,133.3a5.9,5.9,0,0,1,4.6-1.7l-.6-.3s-5.4-5.3-6.1-5.1,1.6,5.2,2.2,6.6A.5.5,0,0,1,116.1,133.3Z"/><path class="cls-3" d="M121.5,131.3s0-1.5-1.1-.6S120.8,130.2,121.5,131.3Z"/><path class="cls-3" d="M116.3,134s.6-1.8-.8-1.2S116,132.7,116.3,134Z"/><path class="cls-3" d="M124.6,128.7s-.4-1.9-1.4-.8S123.7,127.7,124.6,128.7Z"/><path class="cls-2" d="M112.1,122.3s-1.5,2.2-2,1.4,1.8-2.5,1.8-2.5Z"/><path class="cls-5" d="M87.1,96.9s-9.9.6-18.6-1.9c-1.9-.5-2.6,1-1.3,2.6s5.7,3.9,11.2,5.1S87.1,96.9,87.1,96.9Z"/><path class="cls-6" d="M67.9,97s-1.7.2-1.7,1.2,5.6,4.9,11.9,5.9S69.7,96.1,67.9,97Z"/><path class="cls-7" d="M67.8,99.2s-.9,1.4,0,2.3,7.7,6.4,7.7,6.4l.5-4.1Z"/><path class="cls-8" d="M113.1,85.7c.2,7.5-8.2,4.1-10.3,5.2s-1.6-.7-7.8,0c-9.5,1-20.4,5.7-20.9,9.1a14.9,14.9,0,0,0,.8,7.6c3.3,9.9,14.7,17.1,18.3,17.4s16.5-3.7,24.7-9.2c3.5-2.3,6-4.9,6.6-7.5,2.2-9.8.1-12.2-1-19.1"/><path class="cls-9" d="M82.1,99.8c12.6-4.2,30.4-6.3,33.2-3.2s-8,15.4-18.2,14.5a44.5,44.5,0,0,1-13.6-3.4c-2.7-1.3-.9-2.7-.9-2.7-2.6-.3-3.5-1.7-1.9-2.2C78.4,102.1,78.2,101.1,82.1,99.8Z"/><path class="cls-6" d="M75.2,107.3c3.4,10.1,15,17.4,18.7,17.7s16.8-4.3,25.3-9.9c-6.2,2.2-19,7.9-29.1,4.6S80.6,108.3,75.2,107.3Z"/><path class="cls-6" d="M111.4,72.4c-.6,1,1,11.8.9,13.3a5,5,0,0,1-3.5,4.3c-7-.3-8.1.5-10.5.7,3-.2,13.6,5,16.5,1.1S110.9,72.5,111.4,72.4Z"/><path class="cls-10" d="M109.9,68.3a12.2,12.2,0,0,1,.9-6.2c1.6-3.4,6.8-4.9,11.2-3.4s5.9,8.6,6,9.2-.6-3.4-2.5-2.5,1.4,3.9-2.5,6.2c0-.7.4.4.6.6-4.1,1.6-7.1-1.4-7.7-.8s5.3,6.2,7.3,3.6a19.9,19.9,0,0,0-.4,4.8A128.9,128.9,0,0,0,125,98c.2,1.2-.1,2,.2,3.3l-9.7-7.8C113.8,84.3,111.4,76.4,109.9,68.3Zm10.3-2.7c.8-1-1.1-2.7-2.2-1.5S119.4,66.6,120.2,65.6Z"/><path class="cls-11" d="M124.2,73.3a6,6,0,0,0-.8,1.6h-.2a3.8,3.8,0,0,1,1-1.7Z"/><path class="cls-6" d="M115.9,71.4c.6-.6,3.6,2.4,7.7.8l1.3.7a6.2,6.2,0,0,0-1.7,2.1C121.2,77.6,115.3,72.1,115.9,71.4Z"/><path class="cls-1" d="M124.7,72.9a1,1,0,0,0-.5.4h0Z"/><path class="cls-1" d="M120.2,65.6c-.8,1-3.3-.2-2.2-1.5S121,64.6,120.2,65.6Zm-.2-.1a1,1,0,0,0,0-.9h0a1,1,0,0,0-1.7-.3C117.4,65.3,119.4,66.2,120,65.5Z"/><path class="cls-12" d="M120,64.6l-.4-.2h-.3a.5.5,0,0,0-.7,0c-.4.6.6,1.1,1,.7h0a.4.4,0,0,0,.4-.4v-.2a1,1,0,0,1,0,.9c-.6.7-2.6-.2-1.7-1.2A1,1,0,0,1,120,64.6Z"/><path class="cls-13" d="M119.2,64.8c0,.2.2.3.4.4h0c-.4.4-1.4-.1-1-.7a.5.5,0,0,1,.7,0C119.2,64.5,119.2,64.6,119.2,64.8Z"/><path class="cls-14" d="M120,64.6Z"/><path class="cls-14" d="M119.6,65.2h0a.5.5,0,0,0-.3-.7h.3l.4.2h0v.2A.4.4,0,0,1,119.6,65.2Z"/><path class="cls-14" d="M119.6,65.2c-.2-.1-.4-.2-.4-.4s0-.3.1-.3A.5.5,0,0,1,119.6,65.2Z"/><path class="cls-6" d="M109.9,89.7c.7-.4,3.1-2.6,1.9-8.1a67.7,67.7,0,0,1-1.9-13.3c2.5,8.4,3.9,13.6,4.9,22.6Z"/><path class="cls-15" d="M124.8,64.3c1.4-.8,2.7,1.4,2.9,1.7h0a10.2,10.2,0,0,0,1.5,3.3c1.7,2.7,5.7,2.5,4.3,3.8s-5.9,1-8.9-1.2l-.2.4-.4.3-.9-.8-.5-.6C125.6,69.2,122.8,65.3,124.8,64.3Z"/><path class="cls-16" d="M127.1,69.8c-.3.4-2.2-1.2-1.6-1.9S127.7,69.1,127.1,69.8Z"/><path class="cls-16" d="M123.2,70.8a10,10,0,0,0,7.9,3.1s-6.2,1.4-8.5-2.6Z"/><path class="cls-17" d="M102.5,140.9a1.5,1.5,0,0,1-1.3-.5,1.1,1.1,0,0,1-.2-.6,48.1,48.1,0,0,0-2-5.3,1.6,1.6,0,0,0-.7-.9,3,3,0,0,1-1-2.1v-.2H97a1,1,0,0,1-.8-.5c-.5-.9.4-2,1-2.6h0a4.3,4.3,0,0,0-.1-.5,4.5,4.5,0,0,0-.2-.8c0-.3-.1-.5-.1-.7v-.8a12.1,12.1,0,0,1-2.9.3h-.8c-3.8-.3-15.5-7.8-18.9-17.9h0c-1.8-1.4-5.7-4.6-6.8-5.7a2,2,0,0,1-.7-1.9c-1.1-1-1.2-1.5-1.2-1.9h0a1.7,1.7,0,0,1,.5-1.2,2.2,2.2,0,0,1,.2-2.1,2.2,2.2,0,0,1,2.5-.6,48.6,48.6,0,0,0,8.4,1.5c4.3-2.7,11.6-5,17.8-5.6a21.2,21.2,0,0,1,3.4-.2l1.7-.3a35,35,0,0,1,8.7-.4,5.7,5.7,0,0,0,1.8-1.2c.6-1,1.4-3,.6-6.4a73.2,73.2,0,0,1-1.9-13.4,12.3,12.3,0,0,1,1-6.6c1.8-3.6,7.3-5.3,12-3.7s5.8,5.4,6.3,8.4a14.8,14.8,0,0,0,1.3,2.6,6.2,6.2,0,0,0,3,2.2c.9.4,1.6.7,1.7,1.3a1.3,1.3,0,0,1-.5,1.2,4.9,4.9,0,0,1-3,.8h0a10.2,10.2,0,0,1-6.3-.5l-.4.5-.3.7a.1.1,0,0,0-.1.1,18.2,18.2,0,0,0-.4,4.5,83.9,83.9,0,0,0,1.2,11.9c.1.6.3,1.2.4,1.8,1,4.1,1.8,7.4.1,14.9-.6,2.5-2.6,4.9-6.1,7.4H119c-.4.5-1.6,1.2-4,2.5l-.4.2a33.9,33.9,0,0,0,.1,5.3,20,20,0,0,0,3.4,1,26.3,26.3,0,0,1,5.9,2.1h.2a1.1,1.1,0,0,1,.6,1.4,1.3,1.3,0,0,1-1.2,1,2.6,2.6,0,0,0-1.5,1.4,1.1,1.1,0,0,1-.1,1.1,1.8,1.8,0,0,1-1.4.4,4.6,4.6,0,0,0-3.4,1c.1.7-1.9,1.1-2.1.9s-.7-.5-.8-1h0a43,43,0,0,0-2-5.4,2.2,2.2,0,0,0-.7-.9,3,3,0,0,1-1-2.1v-.2h-.4a1,1,0,0,1-.8-.5c-.5-.9.4-2,1-2.5s-.1-.6-.1-.9l-3.2,1.4-5.8,2.1c0,.6-.1,1.3-.1,2a25,25,0,0,0,.1,4.6,18.8,18.8,0,0,0,3.5,1,25.6,25.6,0,0,1,5.8,2.1h.2a.9.9,0,0,1,.6.7,1.6,1.6,0,0,1-.3,1.3c-.3.2-.5.4-.8.4h-1.2v.2c0,.1-.1.1-.1.2a.4.4,0,0,0-.1.3,1.4,1.4,0,0,1-.2,1.1,1.7,1.7,0,0,1-1.4.4H106a2.3,2.3,0,0,0-1.1.3l-.5.2-.2.2-.4.2a.7.7,0,0,1-.4.6Zm0-1.4h0l.3-.4.8-.5h.1l.6-.3,1.3-.4h1.8l.3-.8.2-.4h.2l.2-.3h.1c.1-.2.3-.3.4-.4h.4l.3-.2h.4a24.5,24.5,0,0,0-5.4-1.8c-3.5-.8-3.9-1-4.3-1.7s-.4-.8-.3-5.3c0-.9.1-1.8.1-2.6v-.5h.5c1.9-.6,4.1-1.4,6.2-2.3l3.9-1.6.8-.4.2,1.1c.1.5.3,1.1.4,1.9h0v3.3c-.1.4.1.5.5.9a5.6,5.6,0,0,1,1,1.4,41.3,41.3,0,0,1,2.1,5.5h0l.2-.2a6.7,6.7,0,0,1,4.8-1.7h0a3.8,3.8,0,0,1,2.5-2.7,26.3,26.3,0,0,0-5.4-1.8c-3.5-.8-3.9-1-4.3-1.7s-.5-.9-.3-6.4v-.5l1.1-.5,3.3-2,.6-.5c3.2-2.2,5.1-4.4,5.6-6.5,1.6-7.2.9-10.2-.1-14.3a11.6,11.6,0,0,0-.4-1.8,87.3,87.3,0,0,1-1.2-12.2,17.1,17.1,0,0,1,.5-5v-.2c0-.1.1-.1.1-.2a.8.8,0,0,0,.2-.5v-.2l1-1,.3-.4.5.2a8.1,8.1,0,0,0,5.3.7h.8a6.1,6.1,0,0,0,1.9-.3l-.6-.3a7.8,7.8,0,0,1-3.7-2.8,10.8,10.8,0,0,1-1.4-3c-.5-2.7-1.8-6.1-5.4-7.3s-8.9-.1-10.3,2.9a10.8,10.8,0,0,0-.9,5.9,71.2,71.2,0,0,0,1.9,13.2c.9,3.9,0,6.3-1,7.6a8.1,8.1,0,0,1-2.4,1.7h-.3a33.1,33.1,0,0,0-8.5.4l-1.6.2h0a23,23,0,0,0-3.6.2c-6.2.6-13.3,2.9-17.5,5.6h-.4a52.6,52.6,0,0,1-8.9-1.6,1.1,1.1,0,0,0-1,0c-.1.2-.1.6.3,1.2l.4.7-.8.3a.3.3,0,0,0-.3.3c0,.1.3.4,1,1l.4.3v.5c-.2.7,0,.9.1,1l6.9,5.8h.2v.5c3.3,9.6,14.6,16.6,17.7,16.9H94a15.3,15.3,0,0,0,3.5-.5l1-.3v1.1a5.3,5.3,0,0,0-.2,1.4c0,.2.1.4.1.6s.1.5.2.8.1.4.1.6a1.1,1.1,0,0,0,.1.5v.3h0v2.8c-.1.4.1.5.5.9a5.6,5.6,0,0,1,1,1.4,47.4,47.4,0,0,1,2.1,5.5Z"/><path class="cls-17" d="M110.8,120.1l-.3-.7,4.5-2.3.4.6Z"/></g></svg>