<svg xmlns="http://www.w3.org/2000/svg" viewBox="0 0 200 200"><defs><style>.cls-1{fill:#bf7a41;}.cls-2{fill:#e5b28c;}.cls-3{fill:#af784b;}.cls-4{fill:#616161;}.cls-5{fill:#424242;}.cls-6{fill:#b08051;}.cls-7{fill:#212121;}.cls-8{fill:#3e2723;}.cls-9{fill:#fff;}.cls-10{fill:#5b3114;}.cls-11{fill:none;stroke:#5b3114;stroke-miterlimit:10;}</style></defs><g id="Dog_02"><path class="cls-1" d="M80.7,88.8h-.1a.7.7,0,0,1-.6-.3,16.2,16.2,0,0,1-.5-20,1.5,1.5,0,0,1,.7-.3h0a.7.7,0,0,1,.6,1.2,17,17,0,0,0-2.6,8,16.6,16.6,0,0,0,3.1,10.3A.7.7,0,0,1,80.7,88.8Z"/><path class="cls-1" d="M119.2,82.2a3.8,3.8,0,0,1,1.2.9l.5.5c.1.2.1.5.2.6s-.2-.2-.4-.3S122,85,122,85.5l-.6-.2c.6,1.1,1,2.2.6,2.3s-7.6-2-7.6-2l1.5-1.5a9.2,9.2,0,0,1,2.5-1.9A2.2,2.2,0,0,1,119.2,82.2Z"/><path class="cls-1" d="M80.6,98c.2-1.7,1.8-1.2,2.5-5.5a18.7,18.7,0,0,0,0-4.1H96.4c-.9,6.9-6.3,7.7-11.8,12.1-.9.8-1,3.4-.6,5.5.7,0,2.4,1.2.9,2.3a2.3,2.3,0,0,1-2.4.2C79.8,107.8,80.3,99.7,80.6,98Z"/><path class="cls-1" d="M108.1,110.6a86.9,86.9,0,0,1,.9,9.7c-.1,1.9.1,3,1.2,3.3a2.3,2.3,0,0,0,2.4-.2c1.6-1.1.2-2.2-.5-2.2l.8-6.9.8-7.1.4-3.6-7.3-1.7S107.5,106.1,108.1,110.6Z"/><path class="cls-1" d="M108.6,111a6.1,6.1,0,0,0,.5,1.2c.3.7.6.6,1.3.6s-.2,1.2-.2,1.8.8.2,1.1,0,.1,1,.1,1.3,1.1-.4,1.5-1.1l.8-7.1c-.9-.3-1.9.4-2.6.8a4.6,4.6,0,0,0-2.4,1.9A1.3,1.3,0,0,0,108.6,111Z"/><path class="cls-2" d="M99.6,109.3a3.7,3.7,0,0,0,.5,1.6l.9,1.6c1.1,2.9.7,6.7.4,9.7s.2,3.9,3,3.7c1.2-.9-.1-1.9-.7-1.8l1.5-12.5.4-3.7-5.7-1.2h0C99.9,107.6,99.6,108.6,99.6,109.3Z"/><path class="cls-2" d="M71.8,110a1.3,1.3,0,0,1,.1.5c.1,1.6.5,3.6,2.2,4.1a2.3,2.3,0,0,0,2.4-.2c1.5-1.1-.2-2.3-.9-2.3s-.1-.5-.1-.8c-.3-2-.1-4.1.7-4.8l.7-.6c2.8-2.2,5.6-3.5,7.6-5.3a8.6,8.6,0,0,0,1.4-1.3,5.7,5.7,0,0,0,.8-1.3,4.3,4.3,0,0,0,.4-.7,11.8,11.8,0,0,0,.9-5v-.9s-6.3-4.9-8.8-6.7l-.9-.6c-5.2,5.8-2.9,10.1-3.6,14.3a7.3,7.3,0,0,1-1.1,3.3,7.9,7.9,0,0,0-1.2,1.5v.3a17.5,17.5,0,0,0-.4,3.2C71.8,107.8,71.8,108.9,71.8,110Z"/><path class="cls-2" d="M78.4,92.3c0,.1.1.2.2.3l.8,1.3c.9,1.4,2,2.6,3,3.9l1.6,2,.6.7a2.1,2.1,0,0,0,.6,1,4.6,4.6,0,0,0,1.6,1.5h-.5l1.1,1.2,1.1.8,1.1.7h.5c-.3,0-.7.2-.9.1a6.5,6.5,0,0,0,2.6,2,7,7,0,0,0,2,.8,3.9,3.9,0,0,1-1.5-.1l.8.7a2.5,2.5,0,0,0,1.2.8l2.6.7,1.5.5h.5l1.2.3a13.5,13.5,0,0,0,5.1.8l1.4-.2.8-.2c-.1.1,0,.3-.2.4l2.1-.6a7.8,7.8,0,0,0,1.5-1c.1,0,.1.2.1.3l1-.3a3.7,3.7,0,0,0,1.2-.7,4.4,4.4,0,0,0,1.2-1.5,1.7,1.7,0,0,1,0,1c.2-.5.7-.7,1.1-1.1a5.4,5.4,0,0,0,.7-1.3c.1-.4.4-.9.5-1.3s0,.3,0,.5a2.7,2.7,0,0,0,.7-.8,6.4,6.4,0,0,0,1.2-2.5c0-.3.1-.7.1-1a2.2,2.2,0,0,1,0,.8,6.5,6.5,0,0,0,1.1-2.9,9.7,9.7,0,0,0,.1-1.7.4.4,0,0,0,.1-.3c.2-.4,0-1.1.1-1.2a6.3,6.3,0,0,0,4.4,2.2,3.2,3.2,0,0,0,2.1-1.2c1.4.8,1.8-1.1,1.7-2.1s-2.5-3.4-2.7-3.8-.7-4-3.2-6.2c-.1-.2-.3-.3-.5-.5l-.5-.2a5.6,5.6,0,0,0-3.3-1c-7.9-.3-8.5,7.2-15.4,5.5-3.6-.9-14.9-10-21.8-7.4A7.3,7.3,0,0,0,78.2,84c-.7.8-.7,1.7-.9,3.2A8.5,8.5,0,0,0,78.4,92.3Z"/><path class="cls-3" d="M124.4,98.4a3.1,3.1,0,0,0,2.1-1.3.8.8,0,0,0,1.3-.3,3.6,3.6,0,0,1-.1-1c.1-1.1-.2-1.6-.8-1.9s-2.3.2-2.3,2S125.5,97.5,124.4,98.4Z"/><path class="cls-4" d="M127.5,94.5s-2.5-2.1-2.7,1.3Z"/><path class="cls-1" d="M75,101l-1.4.3A8.1,8.1,0,0,0,74.7,98c.6-4.1-1.7-8.3,3.5-14s20.3,4.6,24.4,5.6c6.9,1.7,7.5-5.7,15.4-5.4a6.6,6.6,0,0,1,3.3.9l.5.3.5.4c2.5,2.2,2.2,4.3,3.2,6.2-1.7-.1-2.7-1-2.7-2.6s-2.1-2.6-2.6-1.1,1.3,1.4,1.8,3.2-1.4,3.8-3.2,3.8a17.7,17.7,0,0,1-5.9-1.7,4.5,4.5,0,0,0-3-.3l-1,.8a14.2,14.2,0,0,0-1.3,1.2,4,4,0,0,0-.9,2,4.2,4.2,0,0,1-.4-1.5c-.1.9-.8,2-.8,2.9a26.4,26.4,0,0,1,.2,2.8l-.7-.7a7.7,7.7,0,0,1,.3,3c-.2.5-.6,1.9-1.3,2.1a1.1,1.1,0,0,0,0-.8c-.1.8-1.2,1.3-2,1.6a3.2,3.2,0,0,1-1.4.3,3.9,3.9,0,0,1-1.5-.2c.2-.1.2-.3.2-.5s-.9-.1-1.3-.1H96.5a4.2,4.2,0,0,1-3-1.3,1.4,1.4,0,0,0,1.1-.4c-.3-.3-1-.4-1.4-.8a4.5,4.5,0,0,1-1.6-2H92c-.2,0-.4-.3-.5-.5l-.9-1c-.3-.2-1.3-1.4-1.6-.9a1.5,1.5,0,0,1,.9-.4,14.6,14.6,0,0,1-.9-1.3,4.6,4.6,0,0,0-2-1.4.9.9,0,0,1,.6-.4,1.3,1.3,0,0,1-.7-.5l-1.3-.5c-.8,0-1.7-.1-2.2.5a1.1,1.1,0,0,1,.2-.8A3.8,3.8,0,0,0,81.7,96l-.7.9a2.9,2.9,0,0,1-.7,1.2,1.7,1.7,0,0,0,.1-1c0,.8-.9,1.8-1.5,2.4s-1.4,1.5-2,1.2v-.3c-.4.3-1.6,1.5-2.3,1.1Z"/><path class="cls-5" d="M127.5,94.7a1.9,1.9,0,0,1-1.2,1.9c-.7.3-1.2.1-1.5-.7S127.6,93.8,127.5,94.7Z"/><path class="cls-6" d="M123.6,90.7a2.1,2.1,0,0,1-.5-1.4c.1-.7,1.2.3,1.2.3Z"/><path class="cls-6" d="M120.3,92.3a.7.7,0,0,0,.2-1.1.4.4,0,0,0-.7-.1.8.8,0,0,0-.3.8C119.5,92.1,120.3,92.3,120.3,92.3Z"/><path class="cls-7" d="M120.5,91.7a.7.7,0,0,0-.7-.5c-.5.1-.3.7-.6.8S120.1,92.5,120.5,91.7Z"/><path class="cls-8" d="M119.5,91.8a.5.5,0,0,0,.5.3c.2,0,.3-.2.3-.4a.4.4,0,0,0-.4-.4A.5.5,0,0,0,119.5,91.8Z"/><path class="cls-7" d="M119.7,91.7c0,.2.1.3.3.2l.2-.2c-.1-.2-.2-.2-.3-.2S119.7,91.6,119.7,91.7Z"/><path class="cls-9" d="M119.6,91.7h.2c0-.1,0-.1-.1-.1A.1.1,0,0,0,119.6,91.7Z"/><path class="cls-7" d="M123.6,90.1a.7.7,0,0,0,.2.4h.4c.3-.1.3-.5.3-.5s-.4-.5-.7-.3S123.6,90,123.6,90.1Z"/><path class="cls-8" d="M124.3,90.1c0,.1,0,.3-.2.3a.3.3,0,0,1-.4-.4A.3.3,0,0,1,124.3,90.1Z"/><path class="cls-7" d="M124.2,90.1a.2.2,0,0,1-.2.2c-.1,0-.2-.1-.2-.3S124.1,89.8,124.2,90.1Z"/><path class="cls-9" d="M123.6,90.2h.3a.3.3,0,0,0-.1-.2A.2.2,0,0,0,123.6,90.2Z"/><path class="cls-2" d="M98.5,110.9c0,.5-.5.9-.5,1.3a2.7,2.7,0,0,1,.9,0c-.2.5-.5.3-.1.7a5.3,5.3,0,0,1,.6,1c.5,3.8.9,7.8.9,9.5s.3,2.6,1.5,2.9a2.6,2.6,0,0,0,2.4-.3h.2c-2.8.2-3.3-1.4-3-3.7s.7-6.8-.4-9.7l-.9-1.6a3.7,3.7,0,0,1-.5-1.6c0-.7.3-1.7.3-2.5h0l-1.5-.3.5,3.6-.3.2-.2.3a4.6,4.6,0,0,0-.7.7C98,111.2,98.2,110.9,98.5,110.9Z"/><path class="cls-1" d="M109.4,89.4c5.4-3.5,8.8-1.2,8.1.7s.3,1.3-.5,2.7a7,7,0,0,0-.6.9,3.5,3.5,0,0,1-.3,1.2,2.7,2.7,0,0,1-.7,1.3c0-.2.1-.4,0-.6a3.2,3.2,0,0,0-.3,1.4c.1.6.2,1.6-.7,1.7s-2-.6-2.6-1.1-1.7-3.4-2.5-5.2S108.4,90.1,109.4,89.4Z"/><path class="cls-10" d="M103,127.1l-1.4-.2c-1.3-.3-2-1.6-2-3.5a68.4,68.4,0,0,0-.8-9.3l-.5-.7a.9.9,0,0,1-.3-.6l-.7.2v-.8a.4.4,0,0,1,.1-.3h-1l.3-.5h0l-1.2-.3-1.4-.4a4.6,4.6,0,0,1-1.5-.9l-.2-.3-.4-.3.2-.4-.3-.2h-.3a7.7,7.7,0,0,1-2.9-2.2l-.7-.9a4.1,4.1,0,0,1-1.1-.7l-.5-.6-.5-.5-1.2-.9h.6l-.3-.4-.3-.3h-.1a10.4,10.4,0,0,0-.1,3.6,2.3,2.3,0,0,1,1.6,1.4,1.7,1.7,0,0,1-.8,1.9,2.8,2.8,0,0,1-3,.3q-2-.4-2.4-4.5l-2.6,1.9-.6.5c-.5.4-.9,2.1-.6,4.2a.4.4,0,0,0,.1.3,2.6,2.6,0,0,1,1.5,1.4,1.7,1.7,0,0,1-.8,2,3,3,0,0,1-3,.3c-2.3-.7-2.6-3.7-2.7-4.6V110a18.7,18.7,0,0,1,.1-3.3V106a8.4,8.4,0,0,1,.4-2.7V103a4.4,4.4,0,0,1,.8-1.1l.5-.6a.3.3,0,0,0,.1-.2H73a7,7,0,0,0,1-3.1,12,12,0,0,0,.1-3.3c-.1-2.9-.3-6.2,2.8-10a16.7,16.7,0,0,1-1.3-7.2A17.6,17.6,0,0,1,79,68.2a1.4,1.4,0,0,1,1.1-.6,1.4,1.4,0,0,1,1.3.7,1.2,1.2,0,0,1,0,1.4,15.4,15.4,0,0,0-2.6,7.7,13.8,13.8,0,0,0,.6,4.9l1-.5h.2l.5-.2h3.7c4.4.5,9.3,3.2,13.2,5.3a26,26,0,0,0,4.8,2.4c3.2.8,4.9-.6,6.9-2.2a12.6,12.6,0,0,1,5.6-3.1h.1a8.9,8.9,0,0,1,2.8-2.1h1.2l1.2.8.2.2.7.6c.1.2.1.4.2.6h-.1a4.5,4.5,0,0,1,1,1.4h.1a8,8,0,0,1,2.7,4.6,12.7,12.7,0,0,0,.6,1.8l.2.3.3.2c.3.5.9,1,1.3,1.6l.3.3a3.7,3.7,0,0,1,.7,1.8,2.9,2.9,0,0,1-.9,2.7,1.2,1.2,0,0,1-1.2.2,3.8,3.8,0,0,1-2.2,1.1,8.3,8.3,0,0,1-4-1.5v.3a10,10,0,0,1-.2,1.6,8.2,8.2,0,0,1-1.1,3.1h-.1a8.8,8.8,0,0,1-1.2,2.8l-.8.8-.3.2c0,.2-.1.3-.1.4a5.3,5.3,0,0,1-.8,1.5l-.6.5-.5.5-.9,1.4-1.1,9.3a2,2,0,0,1,1.1,1.1,1.7,1.7,0,0,1-.9,2,3.1,3.1,0,0,1-2.9.4c-1.9-.5-1.8-2.5-1.8-4a45.5,45.5,0,0,0-.5-7.2h-.4l-1.8.3-1.2,10.1a2.7,2.7,0,0,1,1.1,1,1.6,1.6,0,0,1-.7,1.8l-.2.2A2.9,2.9,0,0,1,103,127.1Zm-3.6-14.5a6,6,0,0,1,.6,1.1v.2a61,61,0,0,1,.9,9.5c0,.5.1,2,1,2.3a2.3,2.3,0,0,0,2-.2h.1q.3-.2.3-.3a1.1,1.1,0,0,0-.6-.4H103V124l1.5-12h.5l.2.6V112l1.3-.3.7-.2,1.4-.4-.2.5h.5v.7a68,68,0,0,1,.7,8.2c-.1,2,.2,2.5.8,2.6a1.8,1.8,0,0,0,1.9-.1c.1-.1.4-.4.4-.6a.8.8,0,0,0-.6-.4h-.7v-.7l.8-7.4-.8,1.3,1-2.6.3-2.8h.2a4.1,4.1,0,0,0,.7-1.1l.6-1.2.5,1.1h.1a2.9,2.9,0,0,0,.6-1.1,1.4,1.4,0,0,1,.2-.6,1.4,1.4,0,0,0,.2-.6l.3-1,.6.5h0a4.9,4.9,0,0,0,1-2.2,2.5,2.5,0,0,0,.1-.8h.4a5.3,5.3,0,0,0,.8-2.2c0-.4.1-1.1.1-1.6V98a.9.9,0,0,0,0-.7v-.4l.3-1.5.9,1.2a5.8,5.8,0,0,0,3.9,2,2.9,2.9,0,0,0,1.6-.9l.3-.5.5.3h.4a3.1,3.1,0,0,0,.4-1.6,6.2,6.2,0,0,0-.6-1.2c-.1-.1-.1-.1-.1-.2l-1.4-1.5-.6-.7h-.1l-.4-1h.1l-.3-1.1a7.3,7.3,0,0,0-2.3-3.9l-.3-.3h-.3v-.4a4.1,4.1,0,0,0-1-1.1l.2-.2a.1.1,0,0,1-.1-.1v-.2l-.3-.3-.4-.2a1.9,1.9,0,0,0-.7-.6h-.4a8.7,8.7,0,0,0-2.2,1.7l-.4.4h-.2a12.4,12.4,0,0,0-5.3,2.9c-2.1,1.7-4.2,3.4-8,2.4a26.5,26.5,0,0,1-5.1-2.4c-3.8-2.2-8.6-4.8-12.7-5.2H81a8.3,8.3,0,0,0-1.6.9l-.7.5-.3-.8a14.6,14.6,0,0,1-.8-6.2A17.6,17.6,0,0,1,80.3,69H80a16,16,0,0,0-3.1,8.5,15.3,15.3,0,0,0,1.3,7l.2.4-.3.3c-3,3.6-2.8,6.6-2.7,9.4a21.4,21.4,0,0,1-.1,3.6,8.4,8.4,0,0,1-.6,2.4H75l-.6,1.2-.3.5-.5.6-.6.8c0,.1-.1.1-.1.2a8.8,8.8,0,0,0-.3,2.4c0,.2-.1.4-.1.7h0a16,16,0,0,0,0,3.1v.5q.3,3.1,1.8,3.6c.9.3,1.2.3,1.8-.2s.4-.3.4-.5a1.2,1.2,0,0,0-.8-.6h-.5l-.2-.5a6.4,6.4,0,0,0-.2-.9c-.2-1.9-.1-4.5,1-5.4l.7-.6,3.6-2.4.9-.6v1.1c.1,2.6.7,4.2,1.6,4.4s1.2.3,1.8-.1.4-.4.4-.5a1.5,1.5,0,0,0-.9-.7h-.5v-.5c-.5-2.1-.4-4.8.7-5.9h.1l.8-.7.2,1a1.6,1.6,0,0,0,.4.7c.1.1.3.2.4.4s.6.7.9.8l1.2.4-.8.6a.1.1,0,0,1,.1.1l.4.4.8.6.3.2.3.2.6.3h.4l4.8,1.4-4.4-.2a6,6,0,0,0,1.5.9l.4.2c.3.2,1,.6,1.3.5l5.7-.6L94,109.4h.5l1.3.4,1.3.4.6.2h.8l.8.2-.3.6h.8l-.3.8Z"/><path class="cls-11" d="M80.4,103.5a14.8,14.8,0,0,0,3.8-2.4"/></g><g id="Dog_01"><path class="cls-11" d="M108.3,112.3s3.6-.5,4.8-2"/></g></svg>