<svg xmlns="http://www.w3.org/2000/svg" viewBox="0 0 164 95"><defs><style>.cls-1{fill:#ee7373;}.cls-2{fill:#5d1222;}.cls-3{fill:#f7f2f3;}</style></defs><g id="EE"><path class="cls-1" d="M41.2,27.8s12,36,38.2,35.6c29.5-.4,39.2-35.7,39.2-35.7S91.7,50.2,41.2,27.8Z"/><path class="cls-2" d="M42.6,28.3S60.8,59.6,83.1,58.6c17.8-.8,32.8-28.1,32.8-28.1S91,49.9,42.6,28.3Z"/><path class="cls-3" d="M53,32.4S51.2,46.5,83.2,46.1c0,0,24.8-.7,22.9-11.3C106.1,34.8,85,43.5,53,32.4Z"/><path class="cls-1" d="M41.4,27.7a5.4,5.4,0,0,0,1.2,1.8c21.2,13.6,59.8,17.7,76-1.8,0,0-12.2,9-33.1,9.5S41.4,27.7,41.4,27.7Z"/><path class="cls-1" d="M69,51.5s4.5-3.3,11.7-1.4c0,0,5.5-3.3,14.3,1.7C95,51.8,83,61.2,69,51.5Z"/><path class="cls-3" d="M63.1,51.5l4.4-.4c1-.1,6,3.2,14.9,2.3,11.7-1.1,12.8-5,14.2-4.4a29.3,29.3,0,0,0,3.9,1.1S93,57.9,82.2,58.6C77.1,59,70.3,57.9,63.1,51.5Z"/></g></svg>