<svg xmlns="http://www.w3.org/2000/svg" viewBox="0 0 84 66"><defs><style>.cls-1{fill:#d79d40;}.cls-1,.cls-3,.cls-8{stroke:#d28e3a;stroke-miterlimit:10;}.cls-1,.cls-8{stroke-width:0.28px;}.cls-2{fill:#d28e3a;}.cls-3,.cls-4,.cls-8{fill:#ebb146;}.cls-3{stroke-width:0.3px;}.cls-5{fill:#a86828;}.cls-6{fill:#ffd69a;}.cls-7{fill:#a33322;}</style></defs><g id="Layer_53" data-name="Layer 53"><g id="CubF4_04"><path class="cls-1" d="M21.2,37.2a9.9,9.9,0,0,1,2.1,6.4c-.2,3.5.2,8.9-1.1,9.7s-5.7,2.9-1.2,4.2c0,0,5.4-.2,5.2-2.5s.8-3.3,1.4-3.5-1.1-1.1-.3-2.8S31,40.2,31,40.2"/><path class="cls-1" d="M62.8,9s.6,6.4,5.6,5.7c0,0,2.2-.9,2.4,1.8A7.5,7.5,0,0,0,73.5,22c2,1.8-.3,3.8-4,3.8,0,0-2.4-.7.4-3,0,0-1.2-3.5-2.4-3.5s-9.6.7-11.9-2.8-.9-3.7-.9-3.7"/><path class="cls-2" d="M19.2,56.6a3.1,3.1,0,0,1,2.5-1.8,3,3,0,0,0-2.2,1.9Z"/><path class="cls-2" d="M20.5,57.4A3.7,3.7,0,0,1,23,55.5a3.2,3.2,0,0,0-2.2,2Z"/><path class="cls-3" d="M79.4,18.3a3.1,3.1,0,0,0-.9-.7l-.2.4c-1.2,1.5-3.4,4.5-5.3,4.5s-2.3-1.1-3.3-3S67.1,8.8,65.3,6.3c0,0-3.7-7-14-2.6,0,0-3.3,1.5-4.4,2.9s-7.7,7-12.5,8.5c0,0-2.5.3-5.8,4l-4.4,4s-1.1-5.1-7.7-4.7A3.7,3.7,0,0,0,15,14.6a3.5,3.5,0,0,0-4.5,1A6.4,6.4,0,0,0,10,19a6.6,6.6,0,0,0,1.3,2.7l-.7.8a19.2,19.2,0,0,0-1.3,1.7,1.4,1.4,0,0,0-.5,1.1,4.6,4.6,0,0,0,.3,2.6,6.6,6.6,0,0,1-.6,4.4,3.1,3.1,0,0,0-.7,2.2,2.3,2.3,0,0,0,.6,1.1,4.3,4.3,0,0,0,.3,1.5A4.1,4.1,0,0,0,14,38.5l.5-.3.3-.2c.9-.8,1.5-1.8,2.3-2.6s2-.4,2.9.7,9.2,12.1,12.4,8.3h.3a8.2,8.2,0,0,1,2.6-1.4,9.8,9.8,0,0,1,3.1-3.3v-.2l2.1-2.5a19,19,0,0,1,5.3-3.8S51,30,53.2,26.4a.5.5,0,0,1,.2-.4,7.8,7.8,0,0,0,.5-1.4.4.4,0,0,1,.1.3,5.7,5.7,0,0,1,2.9-2,5.4,5.4,0,0,1,2.6-2,9.8,9.8,0,0,1,2.3-.6,5.3,5.3,0,0,1,2.9-.9h1a30.3,30.3,0,0,0,.3-5.9h0c.1,0,.5,1.3.6,1.4,1.6,4.5,3,8.5,5.8,9.3s4.8-1.2,5.9-2.6S80,19.5,79.4,18.3Z"/><path class="cls-4" d="M17,35.3s5.2.3,6-2.8A9.6,9.6,0,0,1,25.5,28"/><path class="cls-2" d="M17,35.3c2.2-.1,5.2-.4,5.9-2.8a7.7,7.7,0,0,1,1-2.5,10,10,0,0,1,1.6-2,7.7,7.7,0,0,0-1.4,2.1c-.9,1.3-.7,3-1.9,4s-3.4,1.3-5.2,1.2Z"/><path class="cls-4" d="M23.6,27.9a5.4,5.4,0,0,0,6.1-.2,4.5,4.5,0,0,0,1.2-2.4,3.8,3.8,0,0,0-1.4-2.8,4.6,4.6,0,0,0-5.9,1"/><path class="cls-2" d="M23.6,27.9c1.9,1,4.7,1.2,6.3-.6a5.2,5.2,0,0,0,.9-2,5.3,5.3,0,0,0-.8-2.2c-1.7-2-4.7-1.2-6.4.4,1.6-1.8,4.9-2.6,6.6-.5a3.8,3.8,0,0,1,.8,2.3,4.3,4.3,0,0,1-.9,2.2c-1.7,1.8-4.6,1.6-6.5.4Z"/><path class="cls-4" d="M25.2,24.7a2.6,2.6,0,0,1,3.3-.6,3,3,0,0,1,.8,1.6,3.3,3.3,0,0,1-.7,1.3,3,3,0,0,1-3.4.1"/><path class="cls-2" d="M25.2,24.7a2.5,2.5,0,0,1,3.7-.4,2.4,2.4,0,0,1,.5,1.4,2.2,2.2,0,0,1-1.7,1.9,3.6,3.6,0,0,1-2.5-.5,4.1,4.1,0,0,0,2.4.3,1.8,1.8,0,0,0,1.1-2.9c-.9-1.1-2.5-.7-3.5.2Z"/><path class="cls-4" d="M63.5,6.4s4.2,5,1.8,15.3"/><path class="cls-2" d="M63.5,6.4c3.2,4.3,3.1,10.3,1.9,15.3h-.3c1.1-5,1.3-10.7-1.6-15.2Z"/><path class="cls-2" d="M10,34.5a1.7,1.7,0,0,0,.1,1.4,3.2,3.2,0,0,0,4.6.3,8.7,8.7,0,0,0,1.2-1.4,9.1,9.1,0,0,1-1.1,1.6,3.4,3.4,0,0,1-2.5.9A3.1,3.1,0,0,1,9.9,36a1.6,1.6,0,0,1,.1-1.5Z"/><path class="cls-5" d="M9.9,34.7a1.1,1.1,0,0,1-1.2,1.2,1.1,1.1,0,0,1-.8-.7,2.9,2.9,0,0,1-.2-.9,1.9,1.9,0,0,0,.2.8c.6,1.1,2,.8,2-.4Z"/><path class="cls-5" d="M8.4,28.5c.2-.9.9-.7.9-.7a2.9,2.9,0,0,1,1.1.7.6.6,0,0,1-1.2-.3S8.8,27.9,8.4,28.5Z"/><path class="cls-6" d="M9.4,27.9s-.2.5.2.7a.4.4,0,0,0,.6-.2A1.9,1.9,0,0,0,9.4,27.9Z"/><path class="cls-7" d="M9.9,28.3c0,.2-.2.3-.3.2s-.2-.1-.1-.3a.2.2,0,0,1,.2-.2C9.9,28,9.9,28.2,9.9,28.3Z"/><path class="cls-5" d="M13.5,30c.2-1.5,1.3-1.4,1.4-1.4a5.1,5.1,0,0,1,1.8,1.1,1,1,0,0,1-1.9-.4C14.7,29.3,14.1,29,13.5,30Z"/><path class="cls-6" d="M15,28.9a.8.8,0,0,0,.5,1.1.5.5,0,0,0,.8-.4C16,29.1,15,28.9,15,28.9Z"/><path class="cls-7" d="M15.9,29.5c0,.2-.2.4-.4.3s-.3-.2-.3-.5.2-.3.4-.3A.3.3,0,0,1,15.9,29.5Z"/><path class="cls-2" d="M9.4,27.9c1.6.3,1.9,2.3,1.3,3.6a13.3,13.3,0,0,0-1.4,1.9h0c.2,1.5,1.6,1.4,2.7.9-1.2.8-2.8.8-3.1-.8a7.1,7.1,0,0,1,1.5-2.1c.5-1.2.4-2.9-1-3.4Z"/><path class="cls-8" d="M11.3,21.7a13.3,13.3,0,0,1,5.3-3.4"/><path class="cls-8" d="M25,39.1c3.5,3.8,7.9,4.8,8.4,9.6a5.5,5.5,0,0,0,3,5.4s3.4,2.5,5,.8,1.8-4.1-3.3-4.3c-1.5-2.1.1-6.4.1-6.4,1.9-1.9-1-8.6-1.1-11.5"/><path class="cls-8" d="M52.9,17.4c-.3,4.4-.5,8.8,8.5,11.5,0,0,4.1,4.1,2.1,8.1,0,0-4.8,1.8-2,4S67,39.7,67,39.7s3.7-1.5,1.2-4.1,1.6-8.7,1.2-9.9-1-.9-2-1.4-2.3-4.9-1.1-9.3-4.9-9.9-6.9-9.2"/><path class="cls-4" d="M60.6,39.8a3.2,3.2,0,0,1,2.3-1.6"/><path class="cls-2" d="M60.5,39.8a2.9,2.9,0,0,1,2.4-1.6,3.2,3.2,0,0,0-2.2,1.7Z"/><path class="cls-4" d="M61.9,41.3s-.3-1.2,1.8-1.9"/><path class="cls-2" d="M61.7,41.3c0-1.1,1.2-1.6,2-1.9s-1.8.9-1.7,1.8Z"/><path class="cls-4" d="M41.4,54.9s-2.2.1-2.5-.7"/><path class="cls-2" d="M41.4,55c-.8-.1-2,0-2.5-.8.5.8,1.7.5,2.5.5V55Z"/><path class="cls-4" d="M42.4,53.3s-1.1,1.1-3-.1"/><path class="cls-2" d="M42.5,53.4a2.5,2.5,0,0,1-3.1-.2,2.6,2.6,0,0,0,2.9,0l.2.2Z"/></g></g></svg>