<svg xmlns="http://www.w3.org/2000/svg" xmlns:xlink="http://www.w3.org/1999/xlink" viewBox="0 0 84 66"><defs><style>.cls-1{isolation:isolate;}.cls-2{fill:#8d6e63;}.cls-3{fill:#6d4d42;}.cls-4{fill:#ec927a;}.cls-4,.cls-6{stroke:#f7a991;stroke-miterlimit:10;stroke-width:0.3px;}.cls-5{fill:#f9aa92;}.cls-6{fill:#fbcbbd;}.cls-7{mix-blend-mode:multiply;fill:url(#linear-gradient);}</style><linearGradient id="linear-gradient" x1="4352.02" y1="52.34" x2="4370.14" y2="-25.16" gradientTransform="matrix(-1, 0, 0, 1, 4402.03, 0)" gradientUnits="userSpaceOnUse"><stop offset="0" stop-color="#ffe8ce"/><stop offset="1" stop-color="#e4a5c9"/></linearGradient></defs><g class="cls-1"><g id="Layer_97" data-name="Layer 97"><g id="Duck_poses_01_F_01_" data-name="Duck poses 01 ( F 01 )"><path class="cls-2" d="M50.2,53c.2.2.3.4.5.5a3.9,3.9,0,0,0,3.5-.1l-.6-.4h-.2a1.9,1.9,0,0,0-2.5-.3l.3.2Z"/><path class="cls-3" d="M50.2,53c.2.2.3.4.5.5a2.9,2.9,0,0,0,1.3,0,4.3,4.3,0,0,0,1.6-.5h-.2a1.9,1.9,0,0,0-2.5-.3l.3.2Z"/><path class="cls-4" d="M52.5,31.5c1.3.5,4.6,4,3.6,10.1s2.8,4.2.9,6.3a5.4,5.4,0,0,0-1.1,2.2c-.2.5,0,1.4-.3,2s-1.1.3-1.4,1.3-2.1-.5-2.1-.9.9-.9,1.4-2.1a3.9,3.9,0,0,0,.3-2.9c-1.1-2.2-6.5-2.6-5.9-10.7S50.9,30.9,52.5,31.5Z"/><path class="cls-2" d="M25,42.5l.2,1c-1.3-.2-3.1-2.2-2.5-3.6l.8.7v-.5A2.3,2.3,0,0,1,25,42.5Z"/><path class="cls-3" d="M22.7,39.9a2.2,2.2,0,0,0-.1.8,2.8,2.8,0,0,0,.9,1A5.3,5.3,0,0,0,25,42.8v-.3a2.3,2.3,0,0,0-1.5-2.4v.5Z"/><path class="cls-4" d="M38.2,32.6A40.8,40.8,0,0,0,33,36.9c-1.3,1.3-1.5,2.1-2.1,2.6s-.8-.1-1.8,1-1.4,2.1-1.9,2.3-.8-.2-1.1.1-.1.7-.9.6-1.4-1.1-1.4-2.1a.6.6,0,0,1,.6-.5,1.5,1.5,0,0,0,1.1-.4,7.9,7.9,0,0,0,2.7-3.4c.2-.4-.1-.9.3-1.5s.9-.5,1.2-1C32.1,31,34.5,27,34.5,27Z"/><path class="cls-5" d="M28.5,11.8s-1.5-1.2.3-1.9,3.2.3,5.1.9a32.8,32.8,0,0,1,3.8,1.3,10,10,0,0,0-3.6,2.7c-1.2,1.6-.6,2.7-4.7,1.6S24.6,14,24.6,14l1.5-1.7Z"/><path class="cls-6" d="M10.2,17.7h0A13,13,0,0,0,12.9,23a52.4,52.4,0,0,0,6.3,5A9.1,9.1,0,0,1,22,30.8a14.8,14.8,0,0,0,1.7,2.8c4.8,6.8,9.3,5.9,10.4,7s6,4.7,13.1,7.1,10.3,2.4,15.7.9a10.7,10.7,0,0,0,6.8-5.8,13.1,13.1,0,0,0,.9-2.8,1.3,1.3,0,0,1,.1-.6,16.4,16.4,0,0,0-.2-3.8c-.3-1.4-4-9.8-14.9-13.7-7-2.6-14.8-2.5-17.3-5.3L34.8,13a10.4,10.4,0,0,0-1.7-1.4,8.6,8.6,0,0,0-4.4-1.3,15.3,15.3,0,0,0-3.3.4c-2,.4-2.5.7-5.8,1.6l-4.3,1.1-3.1.6c-.2-.1-1.3-.7-2.1-.2S9,16,10.2,17.7Z"/><path class="cls-5" d="M10.2,17.7l.7.9.8.9.9.6,1,.6h0a2.5,2.5,0,0,1-1.1-.4l-1-.7a6.4,6.4,0,0,1-1.3-1.9Z"/><path class="cls-7" d="M23.7,33.6c4.8,6.8,9.3,5.9,10.4,7s6,4.7,13.1,7.1,10.3,2.4,15.7.9a10.7,10.7,0,0,0,6.8-5.8,7.5,7.5,0,0,1-5.5,1.8A12.2,12.2,0,0,1,58,41.5l-10.7-3s-7.4,5.7-11.8.9-4.7-9.3-6.9-8.2Z"/><path class="cls-5" d="M22.8,14.5h-.5a12.2,12.2,0,0,0-6,3.1,12.9,12.9,0,0,0-3.5,7.5,16.1,16.1,0,0,1,5.9.8c2.4,1,3.8,1.6,5.3-1.4a14.5,14.5,0,0,0,1.2-6.7l-1.6.2.7-1.7Z"/><path class="cls-6" d="M67.2,41.2c.1-.2.2-.3.4-.2l2.1.6c1.3.2,2.8.3,3.6-.3s.1-.1.2-.2a2.6,2.6,0,0,1-2-1,1.1,1.1,0,0,1-.2-1.4,1.6,1.6,0,0,1,1.8-.7,1.8,1.8,0,0,1,1.3,1.8v.7a.1.1,0,0,1,.1-.1A1.7,1.7,0,0,0,75.7,39,2.2,2.2,0,0,0,74,36.8a.5.5,0,0,1-.2-.4l.4-.2a2.7,2.7,0,0,1,2,2.8,2.1,2.1,0,0,1-1.6,2h-.4a1.3,1.3,0,0,1-.6.7c-.9.7-2.6.6-4,.3a15.6,15.6,0,0,1-2.2-.6h-.1A.4.4,0,0,1,67.2,41.2Zm6.6-.6v-.7a1.2,1.2,0,0,0-.6-1.2l-.3-.2a1,1,0,0,0-1.1.5.6.6,0,0,0,.1.8A2.7,2.7,0,0,0,73.8,40.6Z"/><path class="cls-2" d="M61.4,57.4h1.1c-.5,1.2-2.8,2.7-4.1,1.9l.8-.7h-.5A2.4,2.4,0,0,1,61.4,57.4Z"/><path class="cls-3" d="M58.4,59.3l.8.2,1.2-.7a5.7,5.7,0,0,0,1.3-1.4h-.3a2.4,2.4,0,0,0-2.7,1.1h.5Z"/><path class="cls-6" d="M46.3,38.1a5.1,5.1,0,0,0-.2,1.3,9.4,9.4,0,0,0,1,5.1,15.7,15.7,0,0,0,2.1,3.3,10.5,10.5,0,0,0,1.9,1.8,10,10,0,0,0,4.4,1.5c1.4.2,2.6.2,3.4.8S60,53.3,60.2,55s-.4,2-.2,2.6h0c.1.5,1.1.8,2.5-.3-.3-1.1.7-1.2.7-2s-.7-1.5-.8-2.1a7.3,7.3,0,0,1-.2-2.8c.8-3.1-3.2-1.1-2.9-7.1v-.3c.1-4-1.1-6.4-2.5-7.8"/><path class="cls-2" d="M31.8,49.7l1,.6c-1,.9-3.7,1.1-4.6-.5l1.1-.2-.4-.4A2.1,2.1,0,0,1,31.8,49.7Z"/><path class="cls-3" d="M28.2,49.8l.6.7a3.3,3.3,0,0,0,1.4,0,5.3,5.3,0,0,0,1.9-.6l-.3-.2a2.1,2.1,0,0,0-2.9-.5l.4.4Z"/><path class="cls-6" d="M32,30.1h0v2.4c0,1.4.1,3.4.3,5.5h0c.3,2.1.8,3,.9,3.9s-.7.7-.4,2.4.9,2.9.7,3.5-.7.6-.7,1.1.6.6,0,1.3-1.8.4-2.6-.4a.6.6,0,0,1-.1-.9,2.5,2.5,0,0,0,.4-1.3,9.5,9.5,0,0,0-1.1-5c-.2-.6-.8-.6-1.1-1.4s.2-1.2,0-2l-.9-3-.6-1.9-.3-.7-.3-1a10.3,10.3,0,0,1-.4-1.4"/></g></g></g></svg>