<svg xmlns="http://www.w3.org/2000/svg" viewBox="0 0 84 66"><defs><style>.cls-1{fill:#d79d40;}.cls-1,.cls-2{stroke:#d28e3a;stroke-miterlimit:10;stroke-width:0.3px;}.cls-2,.cls-3{fill:#ebb146;}.cls-4{fill:#d28e3a;}</style></defs><g id="Layer_48" data-name="Layer 48"><g id="CubF1_03"><path class="cls-1" d="M39,30.5s-2.1,6.8-.2,10.3a2.1,2.1,0,0,0,2.3.9,1,1,0,0,1,1.2.6s3.6-.1.9,3-6.1.2-6.8-.4l-.3-.2-4-2.2A1.8,1.8,0,0,1,31,40.8l-.8-9.1"/><path class="cls-1" d="M50.3,28.9s2.8,5.7,1.8,7.6c0,0-4.5-1.5-3.4.8,0,0-1.9,1.7.7,2.7s5.1.6,6.2-2.7,2.7-10.2,2.7-10.2"/><path class="cls-2" d="M51.9,31.9h0l2.3-1,1.3-1,.3-.4,1.6-1.3a6.8,6.8,0,0,1,1.2-1.2h0s1.8-2.9,2.6-8.7a8,8,0,0,1,.9-1.4c1.7-1.7,4.2-1.3,4.7-1.5s.9-1,1.3-1.9a9,9,0,0,0,.6-3.1S68.6,9.1,66,7.8c0,0,.6-1.6-2-2.6,0,0-.5-.6-4.5-2.1A9.5,9.5,0,0,0,57.1,3S52-.4,52,5.5a1.5,1.5,0,0,0,1.2,1.4,7.1,7.1,0,0,0-.4,2,4.6,4.6,0,0,1-2.3,4,12.2,12.2,0,0,0-9,4.7,14.2,14.2,0,0,1-3.7,2.7s-15,4.7-17,15.1c0,0,7.3,8.2,12.4,7.9.6,0,1,.5,1.7.3a10.8,10.8,0,0,1,5.7-6.1S51.5,32.5,51.9,31.9Z"/><path class="cls-2" d="M53.2,6.9a6.6,6.6,0,0,1,6.3-3.8"/><path class="cls-3" d="M61,10.7a3.3,3.3,0,0,0,3.1,2.2,2.1,2.1,0,0,0,1.5-.7,2.8,2.8,0,0,0,.4-1.9c-.3-1.1-1.7-1.9-3.3-1.8"/><path class="cls-4" d="M61,10.7a3.4,3.4,0,0,0,2,1.9,2,2,0,0,0,1.3.2,2.4,2.4,0,0,0,1.2-.7h0a3.3,3.3,0,0,0,.4-1.4,2.4,2.4,0,0,0-.5-1.3,3.6,3.6,0,0,0-2.7-1,3.5,3.5,0,0,1,2.9.9,2.2,2.2,0,0,1,.6,1.4,2.5,2.5,0,0,1-.5,1.5h0a3.1,3.1,0,0,1-1.3.6,1.9,1.9,0,0,1-1.5-.2A3.6,3.6,0,0,1,61,10.7Z"/><path class="cls-2" d="M37.2,38.1a21.5,21.5,0,0,0-2.8,8,3.4,3.4,0,0,1-1.5,2.2l-4.6,3.1a.7.7,0,0,0-.3.6v2.4a.7.7,0,0,0,1,.7c.9-.3,2-.5,2.2.5s3.3,1.7-.7,4.5h-.3c-.7.2-4.3,1-5.3-.8s-3.1-8.5-1.4-10.2,2.9-5.4.6-7.2-4.1-4.9-3.2-6.9"/><path class="cls-2" d="M49.6,25.2a57,57,0,0,0,1.9,7.5c1.3,2.8,3.7,2.7,5.8,4.7s3.9,5.5,5.6,5.1a5.9,5.9,0,0,0,4.2-3.3s.2-2.8-1.8-1.8c0,0-.8-1.5-2.6.4a20.1,20.1,0,0,1-4-11.6"/><path class="cls-3" d="M21.8,34.7A29.2,29.2,0,0,0,19.4,47S16.5,65.5,9.7,59c0,0-.2,6.7,5.1,3.7,0,0,5.4-4.8,6.5-18.6.2-1.9.9-5.3,3.6-6.8"/><path class="cls-4" d="M21.8,34.7c-.4,1-.7,2-1,3a28.2,28.2,0,0,0-.7,3.1,29.1,29.1,0,0,0-.4,3.1c-.1,1-.2,2.1-.2,3.1h0a37.8,37.8,0,0,1-1,4.6,21.8,21.8,0,0,1-1.6,4.5A8.7,8.7,0,0,1,14,60.1a2.9,2.9,0,0,1-2.4.3,4.4,4.4,0,0,1-2-1.3h.2a7.6,7.6,0,0,0,.3,2.1,3.5,3.5,0,0,0,.9,1.7,2.4,2.4,0,0,0,1.8.5,2.9,2.9,0,0,0,1-.3l.9-.4h0a19.9,19.9,0,0,0,3.6-5.9,37.1,37.1,0,0,0,2-6.7c.3-1.1.4-2.3.6-3.4s.3-2.3.4-3.5a9.2,9.2,0,0,1,1.1-3.3,8.3,8.3,0,0,1,1.1-1.5,7.1,7.1,0,0,1,1.4-1c-2,1.2-3,3.6-3.3,5.9s-.2,2.3-.4,3.4-.3,2.4-.6,3.5a30.5,30.5,0,0,1-2,6.7,17.7,17.7,0,0,1-3.7,6h0l-1,.4a2.9,2.9,0,0,1-1,.3,2.7,2.7,0,0,1-2.1-.6,4.4,4.4,0,0,1-1-1.9A6.6,6.6,0,0,1,9.5,59v-.2l.3.2h0a6.2,6.2,0,0,0,1.9,1.2,2.9,2.9,0,0,0,2.2-.4c1.3-.8,2-2.3,2.7-3.7a21.8,21.8,0,0,0,1.6-4.5,34.1,34.1,0,0,0,1-4.6h0a33.6,33.6,0,0,1,.6-6.3,26.4,26.4,0,0,1,2-6Z"/></g></g></svg>