<svg xmlns="http://www.w3.org/2000/svg" xmlns:xlink="http://www.w3.org/1999/xlink" viewBox="0 0 84 66"><defs><style>.cls-1{fill:none;}.cls-2,.cls-8{fill:#dfb784;}.cls-2,.cls-5,.cls-6{stroke:#dfb784;stroke-miterlimit:10;stroke-width:0.3px;}.cls-3{fill:#877d71;}.cls-4{fill:#6c5f4e;}.cls-5{fill:#cda377;}.cls-6,.cls-7{fill:#fbd9ac;}.cls-9{fill:#68553f;}.cls-10{opacity:0.39;}.cls-11{clip-path:url(#clip-path);}.cls-12{fill:#fff;}</style><clipPath id="clip-path"><rect id="SVGID" class="cls-1" x="21" y="7.5" width="0.6" height="0.55"/></clipPath></defs><g id="Layer_4" data-name="Layer 4"><g id="GoatF01_P03"><path class="cls-2" d="M33.7,9.7c-5.3,2.1-3.7-2.5-6.4-3.2s-.5-1.6.7-1.8c3.7-.6,4,3,6.2,4.1.6.4.2.6-.5.9"/><path class="cls-3" d="M62.3,60.2a2,2,0,0,0,.4.8,2.5,2.5,0,0,0,3.4.5l-.5-.6-.2-.2c-.7-1.5-1.7-1.4-2.4-1.1a1.4,1.4,0,0,0,.3.5Z"/><path class="cls-4" d="M62.3,60.2a2,2,0,0,0,.4.8,2.7,2.7,0,0,0,1.2.3,3.3,3.3,0,0,0,1.7-.4l-.2-.2c-.7-1.5-1.7-1.4-2.4-1.1a1.4,1.4,0,0,0,.3.5Z"/><path class="cls-5" d="M64.2,59.8c-.1.6.3,1.7,1.9,1.7s1.1-.7,1.5-1.5.4-2,.7-2.7a8.3,8.3,0,0,1,1.4-3c2.2-2.5-1.3-2.7.3-9.3a22.3,22.3,0,0,0,.6-9,14.7,14.7,0,0,0-2.1-6.3c-.6-.7-1.4-.5-2.1.7a16.8,16.8,0,0,0-1.7,6C63.2,47.9,66.1,49.6,66.8,53a8.9,8.9,0,0,1-.9,4.2c-.7,1.5-1.4,1.8-1.7,2.6"/><path class="cls-3" d="M37.2,43.2l.7.8a2.5,2.5,0,0,1-3.7-1.4h.9l-.3-.5c.8-.3,1.8-.4,2.4,1.2"/><path class="cls-4" d="M34.2,42.6a1.9,1.9,0,0,0,.3.8,2.7,2.7,0,0,0,1.2.3,4.7,4.7,0,0,0,1.7-.3l-.2-.2c-.7-1.6-1.6-1.5-2.4-1.2l.3.5Z"/><path class="cls-5" d="M40.9,22a72.7,72.7,0,0,0-1.2,8.7c-.2,2.3.1,3.3,0,4.4s-.7.6-.8,2.5.2,3.3,0,4-.7.5-.8.9.4.8-.2,1.5-1.6,0-2.1-.9a1.1,1.1,0,0,1,.1-1.1,3.9,3.9,0,0,0,.6-1.3,13.8,13.8,0,0,0-.1-5.7c-.1-.6-.5-.8-.6-1.7s.4-1.2.3-2.1c-.3-5.5-.9-11.5-.9-11.5Z"/><path class="cls-3" d="M23.5,37.5l1.1.3a2.6,2.6,0,0,1-3.9,1.1l.8-.7A.8.8,0,0,1,21,38c.4-.7,1.1-1.3,2.5-.5"/><path class="cls-4" d="M20.7,38.9l.8.4a3.1,3.1,0,0,0,1.2-.5,3.2,3.2,0,0,0,1.1-1.2h-.3c-1.4-.8-2.1-.2-2.5.5a.6.6,0,0,0,.4.2Z"/><path class="cls-6" d="M27.9,33.7c-.1-1.2-1.3-9.7-1.5-11.7v-.3l2.7,2.4,1.7.6,1,.4s-.1,1-.3,2.6-.1,1.8-.2,2.9,0,3.4,0,4.4-3.1,1.4-3.7,1.6-2.8.3-3,1.2-1.9.4-2.1-.5,1.7-1.7,2.4-1.9l1.9-.7C27.2,34.5,28,34.2,27.9,33.7Z"/><path class="cls-3" d="M53,54.6l1,.5a2.5,2.5,0,0,1-4,.2l.8-.4-.4-.3c.5-.6,1.4-1.1,2.6,0"/><path class="cls-4" d="M50,55.3a1.3,1.3,0,0,0,.7.6,2.5,2.5,0,0,0,1.2-.2,3.2,3.2,0,0,0,1.3-1H53c-1.2-1.1-2.1-.6-2.6,0l.4.3Z"/><path class="cls-6" d="M17.1,10.3c-.1,1.3,1.7,2.3,2.6,2.5a11.6,11.6,0,0,0,3.5-.5c.6.6,1.2,2.5,1.8,4.7s.9,3.3,1.4,5,2,5.5,3.5,7.1l1.4,1.5C37.7,36.7,47.9,41,55.1,41.5c.4,3.9,1.1,4.3,2.7,7.6s-5.4,1.5-6.1,3.7a1.6,1.6,0,0,0,.1,1.2c.2.6,1.8,2,2.2,1.1s.3-.8,1-1,5.6-.9,6.1-1.5c2.1-2.6-1.1-2.8,2.1-8.7,4.5-8.2,6.3-14.6,3.9-18.1s-10.2-4.5-16.7-5.7c-8.7-1.6-17.1-7.7-18.9-10.2A27.5,27.5,0,0,1,30,7.4c-1.1-2-2.3-3.9-4.3-3.7S18,7.5,17.2,9.8a.4.4,0,0,1-.1.3v.2"/><path class="cls-7" d="M65.1,26.5A21.2,21.2,0,0,0,66.3,31c.3.5.3.6.8.7s1.5-.2,2.4.3a14,14,0,0,0-2.4-6.2c-.6-.7-1.4-.4-2,.7"/><path class="cls-8" d="M66.5,33.5a16.6,16.6,0,0,1-.7,4.9,7.4,7.4,0,0,0,2.5-5,5.1,5.1,0,0,0-.7-2.5,2.8,2.8,0,0,0-1.1,2.6"/><path class="cls-8" d="M31.2,30.1a1.1,1.1,0,0,1,.1.5C37.7,36.7,47.9,41,55.1,41.5c-.6-4.6,1.6-5.6.8-7.2S51.4,38.5,44.1,36s-10.7-8.9-11.7-9.7-1.2,3.8-1.2,3.8"/><path class="cls-6" d="M73.3,33h.5c-.8.4-2.4.9-3.7-1.4l-.6-.5a6.2,6.2,0,0,0-2.9-.6c-1,.1-.1-1.4.5-1.5a5.5,5.5,0,0,0,3-1.6c-.1.2,0,.4,0,.6a1.8,1.8,0,0,1,1.7-.4c-.2,0-.3.2-.4.4A1.7,1.7,0,0,1,73,29.4h-.7c.1.6.2,2.1.9,2.3s-.6,0-.6,0,.8,1.1,2,.8a3.7,3.7,0,0,1-1.3.6"/><path class="cls-4" d="M28.2,5.1l-.6-.4c-1-.5-.4-1.2.6-1.8a.5.5,0,0,1,.8.6c0,.8-.2,1.9-.8,1.6"/><path class="cls-4" d="M26.6,6.7l-.7-.3c-1-.6-.3-1.3.7-1.8a.6.6,0,0,1,.8.5c-.1.9-.3,1.9-.8,1.6"/><path class="cls-8" d="M22.5,15.2c5.4-2.1,1.1-4.4,2.5-6.8s-.6-1.4-1.7-.7c-3.1,1.9-.9,4.8-1.7,7.1-.2.7.2.6.9.4"/><path class="cls-9" d="M17.1,10.3a1.7,1.7,0,0,0,.6.6c.1,0,.2-.1.1-.2l-.6-.9a.4.4,0,0,1-.1.3v.2"/><path class="cls-9" d="M22.3,7.5c0,.2-.3.5-.7.6a.7.7,0,0,1-.8-.2c0-.2.3-.4.7-.5s.7-.1.8.1"/><g class="cls-10"><g class="cls-11"><path class="cls-12" d="M21,7.7a.3.3,0,0,0,.3.3.3.3,0,0,0,.3-.3c0-.1-.2-.2-.3-.2s-.3.1-.3.2"/></g></g></g></g></svg>