<svg xmlns="http://www.w3.org/2000/svg" xmlns:xlink="http://www.w3.org/1999/xlink" viewBox="0 0 84 66"><defs><style>.cls-1{mask:url(#mask);filter:url(#luminosity-noclip-5);}.cls-2{mix-blend-mode:multiply;fill:url(#linear-gradient);}.cls-12,.cls-3{fill:#d6baa7;}.cls-3{stroke:#b79984;}.cls-10,.cls-18,.cls-20,.cls-3,.cls-5{stroke-miterlimit:10;}.cls-18,.cls-3,.cls-5{stroke-width:0.25px;}.cls-4{fill:#b79c83;}.cls-5{fill:#fff4d9;stroke:#d0b496;}.cls-18,.cls-6{fill:#fff6da;}.cls-7{fill:#e5c9b3;}.cls-8{fill:#d2d5d4;}.cls-9{mask:url(#mask-2);}.cls-10{fill:#fff;stroke:#4c2e19;stroke-width:0.1px;}.cls-11{fill:#1e1c1b;}.cls-13{fill:#1e1513;}.cls-14{fill:#fff48a;}.cls-15{mask:url(#mask-3);}.cls-16{mask:url(#mask-4);}.cls-17{mask:url(#mask-5);}.cls-18{stroke:#d1b597;}.cls-19{fill:#d1b597;}.cls-20{fill:none;stroke:#b59b82;stroke-width:0.3px;}.cls-21{filter:url(#luminosity-noclip-4);}.cls-22{filter:url(#luminosity-noclip-3);}.cls-23{filter:url(#luminosity-noclip-2);}.cls-24{filter:url(#luminosity-noclip);}</style><filter id="luminosity-noclip" x="15.22" y="-7160" width="1.54" height="32766" filterUnits="userSpaceOnUse" color-interpolation-filters="sRGB"><feFlood flood-color="#fff" result="bg"/><feBlend in="SourceGraphic" in2="bg"/></filter><mask id="mask" x="15.22" y="-7160" width="1.54" height="32766" maskUnits="userSpaceOnUse"><g class="cls-24"/></mask><linearGradient id="linear-gradient" x1="-1171.23" y1="31.44" x2="-1171.82" y2="35" gradientTransform="translate(1187.3)" gradientUnits="userSpaceOnUse"><stop offset="0" stop-color="#fff"/><stop offset="1"/></linearGradient><filter id="luminosity-noclip-2" x="14.78" y="-7160" width="1.65" height="32766" filterUnits="userSpaceOnUse" color-interpolation-filters="sRGB"><feFlood flood-color="#fff" result="bg"/><feBlend in="SourceGraphic" in2="bg"/></filter><mask id="mask-2" x="14.78" y="-7160" width="1.65" height="32766" maskUnits="userSpaceOnUse"><g class="cls-23"/></mask><filter id="luminosity-noclip-3" x="19.19" y="-7160" width="4.51" height="32766" filterUnits="userSpaceOnUse" color-interpolation-filters="sRGB"><feFlood flood-color="#fff" result="bg"/><feBlend in="SourceGraphic" in2="bg"/></filter><mask id="mask-3" x="19.19" y="-7160" width="4.51" height="32766" maskUnits="userSpaceOnUse"><g class="cls-22"/></mask><filter id="luminosity-noclip-4" x="22.86" y="-7160" width="7.06" height="32766" filterUnits="userSpaceOnUse" color-interpolation-filters="sRGB"><feFlood flood-color="#fff" result="bg"/><feBlend in="SourceGraphic" in2="bg"/></filter><mask id="mask-4" x="22.86" y="-7160" width="7.06" height="32766" maskUnits="userSpaceOnUse"><g class="cls-21"/></mask><filter id="luminosity-noclip-5" x="15.22" y="29.63" width="1.54" height="4.75" filterUnits="userSpaceOnUse" color-interpolation-filters="sRGB"><feFlood flood-color="#fff" result="bg"/><feBlend in="SourceGraphic" in2="bg"/></filter><mask id="mask-5" x="15.22" y="29.63" width="1.54" height="4.75" maskUnits="userSpaceOnUse"><g class="cls-1"><path class="cls-2" d="M16.8,29.6a6.9,6.9,0,0,0-1.6,3.8c0,.5.5.8.9,1a1.4,1.4,0,0,1-.7-1.7A12.6,12.6,0,0,1,16.8,29.6Z"/></g></mask></defs><g id="catF_03"><path class="cls-3" d="M22.9,37.2s6.7,9,7.6,10.4-.5,1.5-.5,1.5-3.8,1.8.2,2.5c0,0,.1.7,1.5.3s1.2-1.2,2-1.4a.9.9,0,0,0,.5-1c-1.1-2.8-4.1-10.8-1.7-11.1"/><path class="cls-3" d="M52.5,29s-2,4.4,1.5,5.8c0,0,1.8.2,1,2.1s-.3,2.6.3,4.2-3.5,2.3-4.3,2-1.9-1.1,1.1-2.4c0,0,.5-2.7-.3-3.2s-6.6-3-6.8-6.2.7-2.7.7-2.7"/><path class="cls-4" d="M50.4,42.5l.8-.9a1.9,1.9,0,0,1,1-.3,2.3,2.3,0,0,0-1.6,1.3Z"/><path class="cls-4" d="M51.3,43.2a1.3,1.3,0,0,1,.6-1l.9-.4-.9.5-.3.4c0,.2-.1.3,0,.5Z"/><path class="cls-4" d="M28.7,51.1l.8-.9a2,2,0,0,1,1.1-.3A2.1,2.1,0,0,0,29,51.2Z"/><path class="cls-4" d="M30.2,51.6a1.3,1.3,0,0,1,.6-1l.9-.4-.9.5-.3.4c0,.2-.1.3,0,.5Z"/><path class="cls-5" d="M57.5,16.1h0c.1-.1,2.8,3.2,6,4.9A8.7,8.7,0,0,0,69,22.2a9.4,9.4,0,0,0,5.5-2.6.7.7,0,0,1,1,0,1.5,1.5,0,0,1,0,1.3A13.6,13.6,0,0,1,69,23.5a10.5,10.5,0,0,1-6.4-1.3A13,13,0,0,1,57.5,16.1Z"/><path class="cls-6" d="M16.7,24.9s-1.1-3.8,0-5.8,1.9,2.1,4.5,3.9C21.8,23.4,16.7,24.9,16.7,24.9Z"/><path class="cls-7" d="M20.5,22.4c-1.9-1.8-2.7-4.7-3.6-3.6.6.7,1.5,2.1,1,5.1A8.2,8.2,0,0,1,20.5,22.4Z"/><path class="cls-6" d="M56.5,15.5A31,31,0,0,0,30.7,26.4l-1.3-.7c-3-1-6.5,1.2-7.8,5s.1,7.6,3.1,8.7a4.1,4.1,0,0,0,1.9.2c3.9,4.9,13.4,3.1,16.4.1,4.5-5.4,10.4-7.4,13.2-7.3a9.3,9.3,0,0,0,3.6-4.8C62.2,22,58.9,15.8,56.5,15.5Z"/><path class="cls-7" d="M52.8,32.1c-5.7-.8-10.4,1.7-11.2,3.9-2.4,6-11.3,6.4-12.7,4-2.8-4.8-1.2-7.3-1.2-7.3a55.5,55.5,0,0,0-6,3.8,5,5,0,0,0,3,2.9,4.1,4.1,0,0,0,1.9.2c3.9,4.9,13.4,3.1,16.4.1,4.4-5.2,9.9-7.3,12.8-7.3C55.4,31.5,54.3,33.1,52.8,32.1Z"/><path class="cls-6" d="M29.9,29.5a7.4,7.4,0,0,1-7.6,7.2c-4.2,0-7.8-2.7-7.8-6.7a8.1,8.1,0,0,1,7.8-7.8A7.5,7.5,0,0,1,29.9,29.5Z"/><path class="cls-6" d="M18.8,24.6c-1.6,2-4.5,5.1-3.9,9.4.4,2.4,5.7,5.1,11.4,1.2C28,31.1,24.3,17.8,18.8,24.6Z"/><path class="cls-8" d="M16.4,30c0,.7-.3,1.4-.8,1.4s-.8-.7-.8-1.4.3-1.4.8-1.4S16.4,29.2,16.4,30Z"/><g class="cls-9"><path class="cls-7" d="M16.4,30c0,.7-.3,1.4-.8,1.4s-.8-.7-.8-1.4.3-1.4.8-1.4S16.4,29.2,16.4,30Z"/></g><path class="cls-10" d="M16.3,30.3c-.2.6-.6.8-.8.8s-.7-.6-.5-1.2.5-1,.9-.9S16.4,29.7,16.3,30.3Z"/><path class="cls-7" d="M23.1,33.8C21.8,32.1,18,33,18,33H16.1c-.5-.3-.9-1.4-1.2-.6a4.9,4.9,0,0,0,0,1.7c.3,1.8,3.4,3.8,7.2,3C23.6,36.2,23.9,34.9,23.1,33.8Z"/><path class="cls-11" d="M15.3,33.7a2.9,2.9,0,0,0,1.2,1.6,2,2,0,0,0,1.4-1.5Z"/><path class="cls-12" d="M16.8,29.6a7.3,7.3,0,0,0-1.6,3.8c0,.7.7,1,1.4,1.1s1.6-.5,2.3-2.4S18.8,27,16.8,29.6Z"/><path class="cls-12" d="M22.3,22.2a7.2,7.2,0,0,0-2.9.6l-1.5.9a.1.1,0,0,0-.1.1c.6-.3,5-2.3,6.9,1.6a4.2,4.2,0,0,0,1.6-2.1A7.5,7.5,0,0,0,22.3,22.2Z"/><path class="cls-13" d="M16,30.1c0,.4-.2.6-.4.6s-.4-.2-.4-.6.2-.7.4-.7S16,29.7,16,30.1Z"/><path class="cls-14" d="M15.8,29.9c0,.2,0,.3-.1.3s-.2-.1-.2-.3.1-.3.2-.3S15.8,29.8,15.8,29.9Z"/><path class="cls-8" d="M19.2,31.9s.2-3.6,3.4-2.4S21.6,35,19.2,31.9Z"/><g class="cls-15"><path class="cls-7" d="M19.2,31.9s.2-3.6,3.4-2.4S21.6,35,19.2,31.9Z"/></g><path class="cls-10" d="M23,30.9a1.3,1.3,0,0,1-1.1,1.6c-.8.2-1.7,0-1.9-.8a1.8,1.8,0,0,1,1.3-1.8A1.3,1.3,0,0,1,23,30.9Z"/><path class="cls-13" d="M21.6,31.3c0,.5-.2.8-.5.8s-.6-.3-.6-.8.3-.8.6-.8S21.6,30.9,21.6,31.3Z"/><path class="cls-14" d="M21.4,31.1c0,.3-.1.4-.2.4s-.3-.1-.3-.4a.3.3,0,0,1,.3-.3C21.3,30.8,21.4,30.9,21.4,31.1Z"/><path class="cls-8" d="M22.9,36.7a7.3,7.3,0,0,0,7-7.2,7.2,7.2,0,0,0-.6-2.9A10.2,10.2,0,0,1,22.9,36.7Z"/><g class="cls-16"><path class="cls-12" d="M22.9,36.7a7.3,7.3,0,0,0,7-7.2,7.2,7.2,0,0,0-.6-2.9A10.2,10.2,0,0,1,22.9,36.7Z"/></g><path class="cls-11" d="M20,36.5H18.3l-.4-.2-.3-.2c-.3-.1-.4-.3-.6-.5a1.7,1.7,0,0,1-.4-.6l-.3.2.5.6a.1.1,0,0,1-.1.1c0,.1-.1.1-.1.2H17l.4.3.5.2.4.2h2.2Z"/><g class="cls-17"><path class="cls-8" d="M16.8,29.6a6.9,6.9,0,0,0-1.6,3.8c0,.5.5.8.9,1a1.4,1.4,0,0,1-.7-1.7A12.6,12.6,0,0,1,16.8,29.6Z"/></g><path class="cls-12" d="M14.8,32s-1.8-7.3,6.8-9.8C19.4,22.3,13.2,25.2,14.8,32Z"/><path class="cls-6" d="M22.4,25.6c3.6-1.8,6.4-6.7,8-6s-.8,7.7-.8,7.7C25.7,30.7,22.2,25.7,22.4,25.6Z"/><path class="cls-7" d="M24.7,27.2c1.1-1.7,4.5-7.2,5.6-6.5s-1.1,6.1-1.4,6.9-.8-.4-.8-.4.5-.4.5-.4a1.4,1.4,0,0,0-.7.2,2.7,2.7,0,0,1,1-1.1,2.2,2.2,0,0,0-1.6.7,3.2,3.2,0,0,1,1-1.8,3.3,3.3,0,0,0-1.8,1.7,2.4,2.4,0,0,1,.3-1.1A15.2,15.2,0,0,0,24.7,27.2Z"/><path class="cls-18" d="M28.3,38.9l2.5,3.9a10.1,10.1,0,0,1,2.6,5.4c.2,1.3.4,2.7.5,3s-1.6,1.7-1.6,1.7-3.6,1.2-.5,3.1a1.8,1.8,0,0,0,1.5,0,7.8,7.8,0,0,1,2.6-.7.7.7,0,0,0,.7-.8c-.2-1.6,1.1-5,1.2-7.5s-.6-8.7.5-8.5"/><path class="cls-18" d="M49.1,32c2.9-.2,6.6,3.5,10.1,2.8,0,0,3.9,2,3.3,5.3,0,0-2.9,2.4-.5,3.4s3.7-2.2,3.7-2.2,2.3-2-.1-3.3-.9-6.5-1.4-7.3-.9-.5-1.8-.6-2.8-3-2.9-6.4"/><path class="cls-6" d="M61.2,42.8a2.3,2.3,0,0,1,1.2-1.7"/><path class="cls-19" d="M61.1,42.8a1.8,1.8,0,0,1,.4-1,2.8,2.8,0,0,1,.9-.7,2.2,2.2,0,0,0-1.1,1.7Z"/><path class="cls-6" d="M62.4,43.5s-.4-.7.9-1.7"/><path class="cls-19" d="M62.3,43.6a1.1,1.1,0,0,1,.2-1.1,2.7,2.7,0,0,1,.8-.7,2.7,2.7,0,0,0-.7.8c-.1.1-.1.3-.2.4a.7.7,0,0,0,.1.5Z"/><path class="cls-4" d="M31.7,56a3.1,3.1,0,0,1,.9-1.1,2.7,2.7,0,0,1,1.2-.6,3.4,3.4,0,0,0-1.9,1.8Z"/><path class="cls-4" d="M30.6,55l.9-1a2.1,2.1,0,0,1,1.2-.5,2.4,2.4,0,0,0-1.1.6l-.8,1Z"/><path class="cls-20" d="M75.5,19.6a.7.7,0,0,0-1,0A9.4,9.4,0,0,1,69,22.2a8.7,8.7,0,0,1-5.5-1.3,20.6,20.6,0,0,1-4.7-3.6,3.8,3.8,0,0,0-2.3-1.8A31,31,0,0,0,30.7,26.4L30,26c.6-2.1,1.6-5.8.4-6.4s-2.6,1.5-4.6,3.4l-1.3-.5h-.1l-.9-.2H21.6l-1.1.2a24.5,24.5,0,0,1-2.3-3.1h0c-.1-.1-.2-.2-.2-.3a.1.1,0,0,1-.1-.1H17a.1.1,0,0,1-.1.1h0l-.2.3c-.9,1.7-.2,4.9,0,5.6A7,7,0,0,0,14.6,29c0,.4-.1.7-.1,1a4.7,4.7,0,0,0,.3,1.7v.1a.4.4,0,0,0,.1.3,6.1,6.1,0,0,0,0,1.9c0,.2.1.3.1.4s.1.1.1.2a.3.3,0,0,0,.1.2c.1.1.1.1.1.2l.3.3c0,.1,0,.1.1.1l.3.3h.2l.3.3a.1.1,0,0,1,.1.1l.5.2h.2l.5.2H22a.5.5,0,0,0,.2.4c0,.1,0,.1.1.1a1.3,1.3,0,0,0,.6.7H23l.7.6a.1.1,0,0,1,.1.1l.6.3c2.1,2.7,5.5,7.3,6.1,8.3s-.5,1.5-.5,1.5-3.8,1.8.2,2.5c0,0,.1.7,1.5.3s1.2-1.2,2-1.4a.1.1,0,0,1,.1-.1,5.4,5.4,0,0,0,.1.8c.6,1.6-1.6,1.7-1.6,1.7s-3.6,1.2-.5,3.1a1.8,1.8,0,0,0,1.5,0,7.8,7.8,0,0,1,2.6-.7.7.7,0,0,0,.7-.8c-.2-1.6,1.1-5,1.2-7.5,0-1-.1-2.9-.1-4.7A12.5,12.5,0,0,0,43,39.7l.8-.9.4-.4a1.2,1.2,0,0,1,.5-.5c.1-.2.3-.3.4-.4l.5-.4c.1-.2.3-.3.4-.4l.5-.4.4-.3a1,1,0,0,0,.5-.4l.4-.2H48a22.7,22.7,0,0,0,3.8,2.2c.8.5.3,3.2.3,3.2-3,1.3-1.1,2.4-1.1,2.4h.5c1.3.1,4.3-.5,3.8-2.1s-1.1-2.4-.3-4.2-1-2.1-1-2.1a3,3,0,0,1-1.8-1.7h.1c.1,0,.2,0,.2-.1h.1c2.2,1,4.4,2.2,6.6,1.8,0,0,3.9,2,3.3,5.3,0,0-2.9,2.4-.5,3.4s3.7-2.2,3.7-2.2,2.3-2-.1-3.3-.9-6.5-1.4-7.3-.9-.5-1.8-.6-1.6-1.4-2.3-3.3a10.6,10.6,0,0,0,0-6.6,9.9,9.9,0,0,0,2.5,2A10.5,10.5,0,0,0,69,23.5a13.6,13.6,0,0,0,6.5-2.6A1.5,1.5,0,0,0,75.5,19.6Z"/></g></svg>