<svg xmlns="http://www.w3.org/2000/svg" viewBox="0 0 91 101"><defs><style>.cls-1{isolation:isolate;}.cls-2{fill:#774d43;}.cls-3{fill:#4e342e;}.cls-4{fill:#6f4d42;}.cls-5{fill:#3e2723;}.cls-6{fill:#f0e8e5;}.cls-7{mix-blend-mode:multiply;}.cls-8{fill:#d8cdc9;}.cls-9{fill:#724e47;}.cls-10{fill:#855d52;}.cls-11{fill:#5b352c;}.cls-12{fill:#4c2822;}.cls-13{fill:#704139;}.cls-14{fill:#e57050;}.cls-15{fill:#151515;}.cls-16{fill:#fff;}</style></defs><g class="cls-1"><g id="Layer_90" data-name="Layer 90"><g id="Duck_poses_01_F_01_" data-name="Duck poses 01 ( F 01 )"><path class="cls-2" d="M25,11.7c1.5,1.5,2.6-.4,2.7-.5a7.5,7.5,0,0,0,.5-1.6A8.9,8.9,0,0,0,28,4.8a15.2,15.2,0,0,0-.9-2.5l-.4-.2a.5.5,0,0,0-.2.4,5.2,5.2,0,0,1-.2,1.1,18.4,18.4,0,0,1-1.8,4.6A2.7,2.7,0,0,0,25,11.7Z"/><path class="cls-3" d="M73.4,88.4a2.8,2.8,0,0,1-1.2.8c-1.6.3-3.7-.3-4.3-1.4s0-.4.2-.6l1.8-1.3Z"/><path class="cls-4" d="M67.1,49.5h5V44.1c3.7,1.4,8.2,5.2,8.2,9.8s-1.6,4.6-2.3,9.7,2.1,6.8,2.1,8.2-.4,1.1-3.4,6.9a3,3,0,0,1-.4.8c-.1.2-.2.3-.2.5-1.6,3.3-.5,3.4-1,4.6s-1.2.6-1.5,1.7.4,1.4.1,1.9l-.3.2c-1,.5-3.8-1.5-3.5-2.5s.5-.6,1.1-1.5a33.7,33.7,0,0,0,2.2-5.6v-.2a35.2,35.2,0,0,0,1.6-6.8c0-1.7-3.2-3.3-5.2-8.8A46.1,46.1,0,0,1,67.1,49.5Z"/><path class="cls-5" d="M67.9,87.8c.5,1,2.7,1.7,4.3,1.4-.4-.2-3.3-1.5-2.3-3.3l-1.8,1.4A.4.4,0,0,0,67.9,87.8Z"/><path class="cls-6" d="M69.9,85.9c-.3,1,2.5,3,3.5,2.5l.3-.2c.3-.5-.3-1-.1-1.9s1-.6,1.5-1.7-.6-1.3,1-4.6c-.1-.3-.3-.6-.7-.4s-.5.6-.9.6-1-.8-1.3-1.4A33.7,33.7,0,0,1,71,84.4C70.4,85.3,70,85.5,69.9,85.9Z"/><g class="cls-7"><path class="cls-8" d="M74.7,53.2a4.9,4.9,0,0,0,.1-1.2,3.9,3.9,0,0,0-1.9-3.4l-.8-.6V44.1c3.7,1.4,8.2,5.2,8.2,9.8s-1.6,4.6-2.3,9.7,2.1,6.8,2.1,8.2-.4,1.1-3.4,6.9a3,3,0,0,1-.4.8c-.1.2-.2.3-.2.5-1.6,3.3-.5,3.4-1,4.6s-1.2.6-1.5,1.7.4,1.4.1,1.9l-.3.2c-1,.5-3.8-1.5-3.5-2.5s.5-.6,1.1-1.5a33.7,33.7,0,0,0,2.2-5.6v-.2a35.2,35.2,0,0,0,1.6-6.8c0-1.7-3.2-3.3-5.2-8.8.9-1.4,1.9-2.7,2.8-3.9A14.6,14.6,0,0,0,74.7,53.2Z"/></g><path class="cls-3" d="M34,73.7c.5,1.1,2.6,1.8,4.2,1.5a2,2,0,0,0,1.2-.8L36,71.8l-1.9,1.4A.3.3,0,0,0,34,73.7Z"/><path class="cls-9" d="M35.8,72c0,2.1,3.6,2.4,3.6,2.4V73.2c0-1,1.2-1.2,1.4-2.3s-.9-1-.9-5a11,11,0,0,1,.1-1.6c.3-6.1,1.8-25.4,1.8-25.4l-7.9-.7c-.1,8.7,1.3,12.3,2.1,17.4a88,88,0,0,1,1,9c.1,2.5.1,4.3.1,4.8C37.3,71.6,35.8,71.5,35.8,72Z"/><path class="cls-10" d="M18.3,8.5a3.2,3.2,0,0,0-1.3.9,4.6,4.6,0,0,0-1.1,2.2,13.7,13.7,0,0,0-.5,3.4,10.6,10.6,0,0,0,1.1,5A9.9,9.9,0,0,1,21,23.6c1.8,2.9,1.1,6.5,1.3,9.6a6.9,6.9,0,0,1-.3,2.7h0a3.1,3.1,0,0,1-.2.8c-.1.3-.1.6-.2.9L21,40.1a20.8,20.8,0,0,0-.3,4.4h0a2,2,0,0,0,.1.7v.4c0,.2.1.5.1.8s.1.2.1.4.1.4.1.6a.4.4,0,0,1,.1.3l.3,1,.6,1.4c0,.1.1.2.1.3a.1.1,0,0,1,.1.1A13.4,13.4,0,0,0,24,53.3a35,35,0,0,0,5.2,3.8h.1a73.6,73.6,0,0,0,7,4l1.1.6h0l2.9,1.2h0l.9.3,2.6.7a27.3,27.3,0,0,0,12.2.6h0a19.7,19.7,0,0,0,3.2-1h.9c2.1.1,4.3,4.4,6.3,4l2.8-.6h.2l1.6-.5h.5l1.4-.5h0l1.2-.4h.1l.6-.3,2.7-1.3.7-.5c1.5-1,2.5-2.2,2.6-3.5h0V57.4c-.1-.4-.1-.8-.2-1.3a7.8,7.8,0,0,0-.2-1.4,5.8,5.8,0,0,0-.3-1.4,8,8,0,0,0-.3-1.5,21,21,0,0,0-3-6.2,17.1,17.1,0,0,0-4.5-4.4l-.9-.6a19.8,19.8,0,0,0-8.1-2.5c-5.9-.6-11.2.9-17.3-2.6l-2.1-1.4a15.8,15.8,0,0,1-3.1-3.2l-.2-.3-1.5-2.3c-2.9-4.7-5.2-10.9-7.3-15.9l-1.1-.6-1.1-1.1.7.3,1.1.5-.2-.5-1.3-.8a7.5,7.5,0,0,0-1.8-.7l-.4-.3a8.7,8.7,0,0,0-4.1-1.4,8.6,8.6,0,0,0-3.5.4A4.5,4.5,0,0,0,18.3,8.5Z"/><path class="cls-5" d="M34,73.7c.5,1.1,2.6,1.8,4.2,1.5-.3-.1-3.3-1.5-2.2-3.4l-1.9,1.4A.3.3,0,0,0,34,73.7Z"/><path class="cls-3" d="M22.1,79.9c.5,1.1,2.7,1.8,4.3,1.5a4.2,4.2,0,0,0,1.2-.8L24.1,78l-1.8,1.4A.4.4,0,0,0,22.1,79.9Z"/><path class="cls-10" d="M25,70c.2,3,.2,5.1.3,5.6.1,2.2-1.3,2.1-1.3,2.6,0,2,3.6,2.4,3.6,2.4V79.4c0-1,1.2-1.2,1.4-2.3s-1-1-1-4.9c0-.3.1-.9.1-1.6.2-3.3.7-10,1.2-15.7.1-1.5.2-3,.3-4.3.2-2.9.4-4.8.4-4.8l-5.2-.5L22,45c0,1.6,0,3,.1,4.3.3,5.6,1.4,8.8,2,12.9A60.3,60.3,0,0,1,25,70Z"/><path class="cls-5" d="M22.1,79.9c.5,1.1,2.7,1.8,4.3,1.5-.4-.2-3.3-1.5-2.3-3.4l-1.8,1.4A.4.4,0,0,0,22.1,79.9Z"/><path class="cls-10" d="M11.1,27.5a4.1,4.1,0,0,0,1.3,1,1.8,1.8,0,0,0,2.3-.7c1.1-1.4,1.4-.8,4.2-1.9A4.3,4.3,0,0,0,21,23.6a6.7,6.7,0,0,0,.5-2.3L20.8,18,19,9.6a12.5,12.5,0,0,0-1.9,2,17.7,17.7,0,0,0-3.4,5c-.4,1.2-1.2,4.2-1.9,5.1a2,2,0,0,1-.5.5c-.4.5-.7.5-.9.8S9.5,25.5,11.1,27.5Z"/><path class="cls-11" d="M11.1,23h.2v.2c-.2,1.3-.4,2.4-1.1,1.6S10.6,23.7,11.1,23Z"/><path class="cls-3" d="M62.1,97.9a2.8,2.8,0,0,1-1.2.8c-1.6.2-3.7-.4-4.3-1.4a.5.5,0,0,1,.2-.6l1.8-1.4Z"/><path class="cls-10" d="M56,61.9c.6,10.1,7.5,17.5,7.5,19.3a41.8,41.8,0,0,1-1.7,7.2,38.2,38.2,0,0,1-2.1,5.5,11.5,11.5,0,0,0-1.1,1.4c-.2.6.4,1.3,1.2,1.9a2.8,2.8,0,0,0,2.2.7c1-.5,0-1.1.3-2.1s1-.6,1.4-1.7-.5-1.4,1-4.5l.3-.7c3.4-6.7,3.8-6.3,3.8-7.7s-2-3.6-2.2-6.5v-.2a4.3,4.3,0,0,1,.1-1.6c.7-3.5,1.8-4,3.4-6.2l2.8-3.9a12.6,12.6,0,0,0,2.3-6,4.9,4.9,0,0,0,.1-1.2,4,4,0,0,0-1.8-3.4l-1.2-.7a13,13,0,0,0-4.6-1,20.1,20.1,0,0,0-7.4.8h-.6c-2,.7-3.5,1.8-3.7,2.9A38.4,38.4,0,0,0,56,61.9Z"/><path class="cls-5" d="M56.6,97.2c.5,1.1,2.7,1.8,4.3,1.5-.4-.2-3.4-1.5-2.3-3.4l-1.8,1.4C56.6,96.8,56.5,97.1,56.6,97.2Z"/><path class="cls-6" d="M58.6,95.3c-.3,1.1,2.5,3.1,3.5,2.6s0-1.1.2-2.1,1-.7,1.4-1.7-.5-1.4,1-4.5c-.6.2-1.6.5-2,.1s-.3-1.1-.9-1.3a38.2,38.2,0,0,1-2.1,5.5A11.5,11.5,0,0,0,58.6,95.3Z"/><path class="cls-8" d="M35.8,72c0,2.1,3.6,2.4,3.6,2.4V73.2c0-1,1.2-1.2,1.4-2.3s-.9-1-.9-5a11,11,0,0,1,.1-1.6,3.1,3.1,0,0,1-1.6,1c-.8.1-1-.5-1.4-.7.1,2.5.1,4.3.1,4.8C37.3,71.6,35.8,71.5,35.8,72Z"/><g class="cls-7"><path class="cls-8" d="M35.8,72c0,2.1,3.6,2.4,3.6,2.4V73.2c0-1,1.2-1.2,1.4-2.3s-.9-1-.9-5a11,11,0,0,1,.1-1.6,3.1,3.1,0,0,1-1.6,1c-.8.1-1-.5-1.4-.7.1,2.5.1,4.3.1,4.8C37.3,71.6,35.8,71.5,35.8,72Z"/></g><path class="cls-6" d="M24,78.2c0,2,3.6,2.4,3.6,2.4V79.4c0-1,1.2-1.2,1.4-2.3s-1-1-1-4.9c0-.3.1-.9.1-1.6a2.4,2.4,0,0,1-1.5.2c-.8-.1-1-.6-1.6-.8.2,3,.2,5.1.3,5.6C25.4,77.8,24,77.7,24,78.2Z"/><path class="cls-9" d="M29.3,52.7v4.5c3.4,1.9,13.6,9.5,26.7,7.3l-1.1.4,1.1-.3c.1-1.1-.2-5.8.2-8s-.4-2.1-3.6,1.2S39.2,62.9,29.3,52.7Z"/><path class="cls-11" d="M73.3,69.4h.2a22.8,22.8,0,0,1,.2-2.7,12.6,12.6,0,0,0,.4,2.7,17.7,17.7,0,0,0,.8,3.1,2,2,0,0,1,.5.9h.2a23.5,23.5,0,0,1-.5-3.7,10.4,10.4,0,0,0,.4,1,23.3,23.3,0,0,0,.8,4.6c.1.1.2.1.2,0a11,11,0,0,0,.2-2.6v-.2a34.9,34.9,0,0,0-.1,4.6,8.6,8.6,0,0,0,1.1-3.3,38.5,38.5,0,0,0-.2,4.8h.1l.3-2.5a1.7,1.7,0,0,0,.1.7v1.8a10.6,10.6,0,0,0,1.5-3.4c0,.8.1,1.6.1,2.3h.2c0-1.2,0-2.5.1-3.8s.3-1.7.5-2.7l.3,4.2a.2.2,0,0,0,.3,0c.2-2.5,0-7.5.1-8a26.3,26.3,0,0,1,.6,4.8,59.7,59.7,0,0,0-.8-8.3c-.4-2.7.2-5.5.1-8.3a17,17,0,0,0-1.6-6.9c-.9-1.8-3.9-4.4-5.1-3.7s.4,3.4.6,4.5a15.3,15.3,0,0,1,0,6.4c-.3,2.3-1,4.6-1.4,6.9a2.9,2.9,0,0,0,.7-1.2v.2a2.5,2.5,0,0,0-.2.7A13.4,13.4,0,0,0,73.3,69.4Z"/><path class="cls-12" d="M74.1,62.3a2.5,2.5,0,0,1,.2-.7v-.2a4.5,4.5,0,0,1-.6,1.2c.3-2.3,1-4.6,1.3-6.9a15.3,15.3,0,0,0,0-6.4c-.2-1.1-2-3.5-.7-4.5s-.2.8-.1,1.2A22.7,22.7,0,0,1,77,52.3c.4.7,1.5,4.6,2,5.9h-.4l-1-1.9c-.1,2.4-.5,4.8.7,7.1a7.8,7.8,0,0,1-1.8-3.8v.2a49.2,49.2,0,0,0,1.4,5.5,21.4,21.4,0,0,1,1.3,4.8.2.2,0,0,1-.3,0A26.6,26.6,0,0,0,77.3,66c.1.6.3,1.1.4,1.7s1,3.3.6,5.1a26.8,26.8,0,0,0-.2,4,1.7,1.7,0,0,1-.1-.7l-.3,2.5h-.1a38.5,38.5,0,0,1,.2-4.8,13.5,13.5,0,0,1-.9,3.3,17.8,17.8,0,0,1-.1-4.6v.2a11,11,0,0,1-.2,2.6c0,.1-.1.1-.2,0a23.3,23.3,0,0,1-.8-4.6,10.4,10.4,0,0,1-.4-1,23.5,23.5,0,0,0,.5,3.7h-.2a3.6,3.6,0,0,0-.4-.9,12.1,12.1,0,0,1-.9-3.1,12.6,12.6,0,0,1-.4-2.7,22.8,22.8,0,0,0-.2,2.7h-.2A13.4,13.4,0,0,1,74.1,62.3Z"/><path class="cls-4" d="M22.3,50.6l.2.2L23,48c-1.3-3.8-1-11.6-1-12.1C21.2,39.5,19.3,44.7,22.3,50.6Z"/><path class="cls-13" d="M19.6,16.3a.2.2,0,0,0,0-.3l-.2-.2c-.8-.4-2.5-1.4-3.5,1.5C15.9,17.3,17.9,19.8,19.6,16.3Z"/><path class="cls-14" d="M16.9,17.4s1.1.4,1.5-.1.2-.8.7-1h-.6c-.4-.1-.9-.3-1.3,0S16.7,17,16.9,17.4Z"/><path class="cls-15" d="M16.8,17.2c.6.3,1.2.3,1.5-.1a1,1,0,0,0,.2-.9c-.4-.1-.9-.3-1.3,0A.7.7,0,0,0,16.8,17.2Z"/><path class="cls-16" d="M17.1,17c.1.1.3,0,.4-.1a.4.4,0,0,0-.1-.3.2.2,0,0,0-.3,0C17,16.8,17,16.9,17.1,17Z"/><path class="cls-11" d="M20.1,8.2a8.6,8.6,0,0,1,3.5-.4,8.7,8.7,0,0,1,4.1,1.4l.4.3a7.5,7.5,0,0,1,1.8.7l1.3.8a2.1,2.1,0,0,0,1.3.3c.1,0,.1.1,0,.1a1.4,1.4,0,0,1-1.1.1L30.3,11l-.7-.3,1.1,1.1,1.1.6a7.6,7.6,0,0,1,2.5,2.9c0,.1-.1.2-.2.1a10,10,0,0,0-1.6-1.9,35.2,35.2,0,0,1,3.2,5h0a12.2,12.2,0,0,1-2.3-2.7,24.4,24.4,0,0,1,1.4,2.8,4.6,4.6,0,0,1,1.5,1.6l1.3.9h-.1l-.9-.5a5,5,0,0,1,.6,3.1c.4.5,1,.8,1.4,1.3a9.3,9.3,0,0,1,1.9,4h-.1a10.2,10.2,0,0,0-1.3-2.8,11.4,11.4,0,0,0-1.6-1.5,22.1,22.1,0,0,1,1.6,3.5,10.2,10.2,0,0,1,.6,4.2V33a.8.8,0,0,0,.2.4,11,11,0,0,0,1.9,2.5h0a5.7,5.7,0,0,1-1.3-.8l.7,1.6.2.4h.1l-.8-.4A13.1,13.1,0,0,1,38,34.9,8.4,8.4,0,0,0,39.8,37a8.8,8.8,0,0,1-2.3-1.9,22.8,22.8,0,0,0-.2,2.7,5.1,5.1,0,0,0,.1,1.8c.1.2-.1.2-.2.1s-.3-1.1-.4-1.8-.1-1.2-.1-1.8a6.4,6.4,0,0,0-.3,2,9.7,9.7,0,0,0,.4,2.9,11,11,0,0,1-1.4-2.6,7.6,7.6,0,0,1-.7-3.2l-.2.5c.1,1,.1,1.9.2,3s.1.6.2.9-.1.2-.2.1l-.3-.9a7.5,7.5,0,0,1-.5-1.6,7.7,7.7,0,0,1-1,1.8,9.2,9.2,0,0,0,.9-2.3.3.3,0,0,1-.1-.2,7.7,7.7,0,0,1-2.2,2.8,23,23,0,0,0,.5-4.5c-.1.3-.1.6-.2.9h0a7.9,7.9,0,0,1-2.2,5.2c0,.1-.2,0-.1-.1a8.9,8.9,0,0,0,.8-1.7,3.9,3.9,0,0,1-.8,1c-.1.1-.2,0-.1-.1,1.2-1.8,1-4,.9-6.1a15,15,0,0,0-.5,3.7c-.1.2-.4.2-.4,0a15.8,15.8,0,0,1,.5-5.7A12.2,12.2,0,0,1,27,34.2a15.9,15.9,0,0,0,2.4-6.9,22.8,22.8,0,0,1-2,4.5c-.1.1-.2,0-.2-.1A16.4,16.4,0,0,0,29,24a24.5,24.5,0,0,1-2,5.2h-.2a17.6,17.6,0,0,0,1.5-4.4,4.4,4.4,0,0,1-.8,1.1c-.8,1.1-2.2,1.7-2.8,3s-.2,0-.2-.1c.8-1.7,2.3-2.6,3-4.3a4.9,4.9,0,0,0,.4-1.1,6,6,0,0,1-2.7,2.5,23,23,0,0,0,.2-8.2,19.6,19.6,0,0,1-.9,6.8c0,.1-.1.1-.1,0a31.2,31.2,0,0,0-.5-9.7,16.8,16.8,0,0,1-.1,6.7.1.1,0,1,1-.3,0,29.8,29.8,0,0,0-.6-6,27.2,27.2,0,0,1-.3,3.1c0,.1-.2,0-.2-.1s-.1-2.3-.1-3.4c-.1.5-.1,1.1-.2,1.6s-.3.1-.3-.1a12.7,12.7,0,0,0-.1-3.9l-.5-.9-.4-.9A8.6,8.6,0,0,0,19.4,9l-.5-.4ZM35.6,20.3l1,2.4a1.9,1.9,0,0,0,.2.7A5,5,0,0,0,35.6,20.3Zm3.7,11.6a13.3,13.3,0,0,0-1.3-5l-.3-.4Z"/><path class="cls-11" d="M11.6,16.5l.8-2.1a7,7,0,0,0,.1,2.9,10.9,10.9,0,0,0,.6,2.3,6.7,6.7,0,0,1,.3-2.3,6.7,6.7,0,0,0,0,2c0,.1.2,0,.2-.1a11.7,11.7,0,0,1,.4-2.6v1a12,12,0,0,1,1.5-2.5c-.1.4-.1.7-.2,1.1l.8-1.3v1.9s.9-3.4,2.3-4.9a1.4,1.4,0,0,0,.5-.9,2.8,2.8,0,0,0-1-1.4l.9-.6c.1-.2,0-.5-.2-.5a9.5,9.5,0,0,0-3.9,1.6,9.4,9.4,0,0,0-2.6,3,6.9,6.9,0,0,1,1.7-1.7l-.4.5-.8,1.2A4.2,4.2,0,0,0,11.6,16.5Z"/><path class="cls-2" d="M16.7,9.9a12,12,0,0,0,.6,2.4l.7,1.2.3.4a1,1,0,0,0,.8.5h.7a2.3,2.3,0,0,0,1.4-1.7,3.6,3.6,0,0,0-.6-2.7,5.6,5.6,0,0,0-.5-.8c-.8-.9-1.6-1.3-1.9-3,0-.2-.1-.3-.2-.3h-.3V6A6.8,6.8,0,0,0,16.7,9.9Z"/><path class="cls-11" d="M10.5,23a12,12,0,0,0,1.2-1.1,6.1,6.1,0,0,0,.9-1.8A4.9,4.9,0,0,0,13,19a1.4,1.4,0,0,0-.2-.6c-.1-.2-.1-.4-.2-.6a9.6,9.6,0,0,1-.1-3.4h-.2l-.8,2.1h.1c-.3-1.9,1.2-3.7,2.2-5.1s0-.1,0-.1a5.8,5.8,0,0,0-1.7,1.8h.1A8.9,8.9,0,0,1,14,10.8a11.1,11.1,0,0,1,2.7-1.7h.1a4.1,4.1,0,0,1,.3-1.6,2.9,2.9,0,0,1,.5-1.3q0-.3.3,0c.2-.1.3,0,.3.1a.6.6,0,0,0,.1.4,2.5,2.5,0,0,0,.2.7L19,8c.2.4.2.3.7.3A7,7,0,0,0,21.1,8a10.3,10.3,0,0,1,3.5,0h.1l1.2-2.6a8.4,8.4,0,0,0,.5-1.7c0-.2.1-.5.1-.8V2.7l.5-.3c.1,0,.2.4.3.4a11.8,11.8,0,0,1,.9,6.7h0a7,7,0,0,1,2,.8l1.5.9h-.5l-1.6-.8s-.1.1,0,.1l.8.9a2.8,2.8,0,0,0,.9.6,7,7,0,0,1,1.9,1.5,3.6,3.6,0,0,1,.7,1l.2.3c.1.4-.1.1-.2,0a10.7,10.7,0,0,0-1.4-1.6h-.1a35.1,35.1,0,0,1,2.7,4l.3.7c.1.1.2.2.2.3s-.3-.3-.4-.5a19.5,19.5,0,0,1-1.7-2.3c-.1-.1-.2,0-.1.1s.7,1.3,1,2a3,3,0,0,0,.4.8l.6.6c.5.5.7,1,1.2,1.3a1.6,1.6,0,0,0,.9.5,1.8,1.8,0,0,1-.9-.4h-.1a6.8,6.8,0,0,1,.7,2.3v.5a.6.6,0,0,0-.1.4l.4.3a9,9,0,0,1,2.4,3.1,5.8,5.8,0,0,1,.5,1.6,10.4,10.4,0,0,0-.6-1.6,7.8,7.8,0,0,0-2.3-2.5c0-.1-.1,0-.1.1l.9,1.7a13.4,13.4,0,0,1,.7,1.8l1,1.5,1.1,1.5a16,16,0,0,0,5.5,4.5,16.8,16.8,0,0,0,6.6,1.9,49.5,49.5,0,0,0,6.7.2,25.8,25.8,0,0,1,6.8.8,16.8,16.8,0,0,1,6.7,3.3,14.8,14.8,0,0,1,2.5,2.5l.6.8.5.4L78.4,47c1.7,1.9,2.3,4.6,2.6,7.1s-.4,5.8-.2,8.7.4,3,.6,4.5.3,3.2.4,4.7h.1a39.7,39.7,0,0,0-.7-4.8c0-.1-.1-.1-.1,0s0,3.1,0,4.7,0,2-.1,3,.1.4-.1.2-.1-.5-.1-.6-.1-.7-.1-1.1-.1-1.6-.2-2.4h-.1a15.5,15.5,0,0,1-.4,2.1c-.1.7-.1,1.3-.2,2v1.1c0,.1-.1,1.1,0,1.1s-.1-.6-.1-.8a5.7,5.7,0,0,0-.1-1.3c0-.1-.1-.1-.1,0a11.1,11.1,0,0,1-1.4,3.4h.1c0-.8-.1-1.5-.1-2.3H78c-.1.2-.1.4-.2.6a3.1,3.1,0,0,1-.1,1v.5c-.1.2-.1,0-.1-.1s.1-.8.1-1.2h-.2a35.9,35.9,0,0,0-1.7,3.4,7.2,7.2,0,0,0-.7,2.5,3.7,3.7,0,0,1-.2,1.8c-.2.5-.7.6-1.1,1a1.7,1.7,0,0,0-.3,1.2c.1.4.5,1.2-.2,1.4v.2c-.1-.1-.4.3-.5.3l-.6.3c-.1,0-.2.1-.1.1h0a4.8,4.8,0,0,1-3.3-.6c-.4-.2-1.1-.7-.7-1.2l1.2-.9.7-.5.5-.7a5.5,5.5,0,0,0,1.2-2.1,48.3,48.3,0,0,0,2.2-6.4c.3-1,.5-2.1.8-3.1a6.9,6.9,0,0,1,.2-1.3,7.9,7.9,0,0,0-.3-1.3c-.1-.2-.1-.4-.3-.6l-.4-.6-.6-.7c-.7-1-1.5-1.9-2.1-2.9a.1.1,0,0,0-.1-.1c-.3.1-.7.1-.9.3a7,7,0,0,0-.6.9l-1.2,1.4a12.4,12.4,0,0,0-1.7,3.7,7.6,7.6,0,0,0-.2,2.6,10.9,10.9,0,0,0,.7,2.4,11.3,11.3,0,0,0,.9,2,8.5,8.5,0,0,1,.6,1.7,4.2,4.2,0,0,1-.9,2.4l-1.7,3.1a23.8,23.8,0,0,0-2.2,4.9c-.1.7,0,1.3-.1,1.9a1.8,1.8,0,0,1-.5,1.2l-.8.6c-.5.6-.3,1.2-.1,1.9s.1.4-.1.6l-.3.2a3.5,3.5,0,0,1-1.2.7s-.1.1,0,.1h0a4.7,4.7,0,0,1-3.9-1c-.3-.3-.4-.6,0-.9l.6-.4,1.1-.9h.1c.2-.6.8-1,1.1-1.5l.6-1.2c.2-.7.5-1.3.7-2s.9-2.2.7-2.3h.1c.6-2.1,1.2-4.2,1.6-6.3a2.4,2.4,0,0,0,0-1.2,1.8,1.8,0,0,0-.4-1c-.6-1.2-1.3-2.2-2-3.4a45.2,45.2,0,0,1-2.5-4.9,35.6,35.6,0,0,1-2.3-7.2h-.4l-1,.3h0l1.1-.3c.1,0,0-.1,0-.1a32.2,32.2,0,0,1-8.2.1,27.9,27.9,0,0,1-4-.7L42,63.4l-.8-.3h-.4c-.1-.1-.4-.2-.4-.1s0-.1-.1-.1H40a29,29,0,0,0-.1,5.1,8.3,8.3,0,0,0,.4,1.5l.4.8a1.4,1.4,0,0,1-.1,1.1c-.3.5-.9.8-1.1,1.4a3.3,3.3,0,0,0-.1,1.7h0s-.2.2-.1.2a2.9,2.9,0,0,1-1.2.7,5.7,5.7,0,0,1-2.6-.3l-1.1-.6-.3-.4a.8.8,0,0,1,.4-.9L36,71.8a2.7,2.7,0,0,0,.8-.7c.6-.8.4-2.1.3-3.1s-.1-3.7-.2-5.6a4.1,4.1,0,0,0-.1-1.1,3.6,3.6,0,0,0-.9-.4l-.8-.4-2.7-1.6-2.2-1.3-.7-.4-.4-.3a.1.1,0,0,0-.1.1c-.2,3.1-.5,6.2-.7,9.4-.1,1.2-.2,2.4-.2,3.6a24.1,24.1,0,0,0-.1,3.8,7.3,7.3,0,0,0,.6,2.1,1.8,1.8,0,0,1,.2,1.4c-.2.6-.7.9-1,1.3a1.9,1.9,0,0,0-.3,1.3v.6c0,.2-.2.3-.4.4a2.7,2.7,0,0,1-1.9.4,4.6,4.6,0,0,1-2-.5l-.7-.5-.3-.3a.8.8,0,0,1,.4-.7l2.1-1.6a2.5,2.5,0,0,0,.6-2.2V72.8c-.2-3.1-.4-6.2-.9-9.3s-1-5.2-1.5-7.9-.5-3-.6-4.5a2.8,2.8,0,0,0-.1-.9,4.7,4.7,0,0,0-.5-1,12.1,12.1,0,0,1-.5-1.8,19.5,19.5,0,0,1,.3-9.3l.6-2.2h-.2c0,.1.2.1.2,0a9.6,9.6,0,0,0,.3-2.9c-.1-1.1,0-2.3,0-3.4A11,11,0,0,0,21,23.5h-.1a3.8,3.8,0,0,1-1.5,2,6.5,6.5,0,0,1-2.3.9,4.3,4.3,0,0,0-2.1.9c-.6.6-1,1.2-1.9,1.2A2.6,2.6,0,0,1,10.8,27c-.7-1-1.3-2.9-.3-4s-.1-.2-.1-.1a3,3,0,0,0-.4,2.6,4.2,4.2,0,0,0,2.5,3.1,2,2,0,0,0,1.5-.1,6.8,6.8,0,0,0,1.2-1.2,7,7,0,0,1,2.4-.9,7.8,7.8,0,0,0,2.1-.9A5,5,0,0,0,21,23.6h-.1c1.2,1.8,1.3,4.1,1.3,6.2v3a8.2,8.2,0,0,1-.3,3.1h.2c0-.1-.1-.1-.2-.1-.7,3.2-1.5,6.3-1.2,9.5a12.4,12.4,0,0,0,.9,3.8l.3.8a8,8,0,0,1,.3,1.5,16.6,16.6,0,0,0,.3,2.2c.3,2.7,1,5.4,1.5,8.1a84.3,84.3,0,0,1,1.1,10.1c0,1.1,0,2.3.1,3.4s.1,1.9-.8,2.5l-.9.7-.7.5-.7.5c-.6.7,1,1.5,1.5,1.7a4.2,4.2,0,0,0,3.3.1c.2-.1.7-.3.7-.7s-.1-1,.1-1.5.7-.8,1-1.2a1.8,1.8,0,0,0,.4-1,3.1,3.1,0,0,0-.5-1.2c-.8-2.1-.4-4.6-.3-6.8s.4-6.2.7-9.3a21.1,21.1,0,0,1,.2-2.5h-.1c0,.1.2.1.2.2h.2l1,.7a26.1,26.1,0,0,1,2.8,1.7l1.8.9.9.5.3.2a.5.5,0,0,1,.4.6c.1,1.4.2,2.7.2,4.1s.1,2,.1,3,.1,1.6-.5,2.2l-.5.5a3.9,3.9,0,0,0-1,.8c-.6.4-1.5.8-.9,1.5a3.5,3.5,0,0,0,2.6,1.3,4.3,4.3,0,0,0,1.6,0l.7-.4c.1,0,.4-.4.4-.4h.1v-.7a2.8,2.8,0,0,1,.1-.9,1,1,0,0,1,.5-.6c.4-.5.9-1,.8-1.7a2.5,2.5,0,0,0-.4-1.1,6.6,6.6,0,0,1-.5-2.5V65a4.5,4.5,0,0,1,.1-1.1v-.8s.1-.3.1-.2h.1A31.1,31.1,0,0,0,56,64.6h0l-1.1.3c-.1,0,0,.2,0,.1l1.1-.2h.1a.2.2,0,0,1,.2.2v.3c.1.3.1.6.2.9l.4,1.6c.3,1,.7,2,1.1,3a45.9,45.9,0,0,0,2.4,5l2.2,3.7a3.8,3.8,0,0,1,.8,2.3c-.1,1-.4,1.9-.6,2.9s-.3,1.3-.5,2l-.3,1v.3a.6.6,0,0,0-.1.4c-.1.1-.1.2,0,.1h-.1c-.4,1.4-.9,2.8-1.4,4.2a8.3,8.3,0,0,1-.7,1.3,2.4,2.4,0,0,1-.6.8c-.1.1-.5.6-.4.7h-.1l-1.7,1.3c-.4.3-.4.6-.1,1s2.9,1.3,4.2,1.1.1-.1,0-.1h-.1a1.7,1.7,0,0,0,1.2-.6c.2-.2.5-.3.6-.6s-.2-.8-.3-1.2a1.7,1.7,0,0,1,.3-1l.8-.6c.7-.6.5-1.4.5-2.3a10.8,10.8,0,0,1,1.6-4.2l2.7-5.1a3.9,3.9,0,0,0,.6-1.7,3.6,3.6,0,0,0-.6-2,23.5,23.5,0,0,1-1.4-3.7,8.6,8.6,0,0,1,2-7.2l.9-1.2.5-.7.6-.2c.3-.1.3-.1.4.2l1.3,1.7.5.7c.2.2.2.4.3.5l.3.2.3.4a2.2,2.2,0,0,1,.6,1.3c.1.5.3.8.2,1.2s-.1.7-.2,1l-1.2,4.7c-.5,1.5-1,2.9-1.6,4.4a8.2,8.2,0,0,1-.9,1.9l-.9,1.1a6.4,6.4,0,0,1-1.3,1,2,2,0,0,0-.8.8c-.1.4.4.8.6,1a4.5,4.5,0,0,0,1.8.7h2s.1-.1,0-.1h0a2.1,2.1,0,0,0,1.2-.7h0v.2c.2-.1.5-.3.5-.6s-.3-1-.2-1.6.7-.7,1.1-1.2a1.7,1.7,0,0,0,.5-1.3,7.5,7.5,0,0,1,0-1.5,8.8,8.8,0,0,1,.5-1.5,25.8,25.8,0,0,1,1.9-3.7h-.2c0,.3-.2,1.8.2,1.7s.1-.4.1-.5a2.5,2.5,0,0,0,.1-.8c.1-.3,0-.8.2-1.1h-.2c.1.8.1,1.5.2,2.3a.1.1,0,0,0,.1.1,10.7,10.7,0,0,0,1.4-3.5h-.1c0,.5.1,1.1.1,1.6s-.1.7.1.8.3-.6.3-.7v-3c.1-.9.4-1.9.5-2.8h-.1c.1,1,.1,1.9.2,2.8s.1.8.1,1.3,0,.3.2.3.3-.4.3-.6V73c.1-1.9,0-3.9,0-5.8h-.1c.3,1.6.5,3.2.7,4.8h.1a74,74,0,0,0-.8-8.1c-.4-2.7.1-5.4.1-8.1a16.1,16.1,0,0,0-1.6-7.2,7.2,7.2,0,0,0-1.9-2.4,13.1,13.1,0,0,1-1.2-1.1l-1.1-1.4A18.6,18.6,0,0,0,63.1,38c-4.6-.4-9.3.3-13.8-1.1a17.1,17.1,0,0,1-7.2-4.6,21.1,21.1,0,0,1-2.6-3.5,12.1,12.1,0,0,1-.9-2,19.8,19.8,0,0,0-1.1-2h-.1a6.7,6.7,0,0,1,2,2.1,3.1,3.1,0,0,1,.6,1.3c.2.3.2.7.4.9h.1c.3-.1-.3-1.3-.3-1.6a9.8,9.8,0,0,0-1.3-2.2l-.9-1-.6-.4c-.2-.3-.1-.4-.1-.7a5.8,5.8,0,0,0-.6-2.6h-.1l.6.3.3.2c.2,0,.2,0,.2-.1s.1-.1,0-.1-.2-.2-.3-.3l-.7-.4c-.5-.4-.8-1-1.3-1.4l-.6-.7a3.6,3.6,0,0,1-.4-.9l-.9-1.7h-.1l1.2,1.8.8.8.3.2a.1.1,0,0,0,.1-.1c0-.2-.3-.5-.4-.7l-.8-1.4a27.3,27.3,0,0,0-2.1-3h-.1l1,1,.5.7.3.3c.5.1-.2-.9-.2-1a7.3,7.3,0,0,0-1.7-1.8L31,11.9a8,8,0,0,1-1.3-1.3v.2c.7.2,1.3.8,2.1.9s1,0,1-.4-.1-.1-.2-.1-.4.1-.6,0l-.7-.3-2-1.1-.5-.2c-.2-.1-.3-.1-.4-.3a1.9,1.9,0,0,1,.2-.7,15.5,15.5,0,0,0-.1-2.2,8.7,8.7,0,0,0-.5-2.2,4.9,4.9,0,0,0-.4-1.1,2.5,2.5,0,0,0-.4-.9c-.3-.3-.6-.1-.7.2s-.1.8-.2,1.2a2.7,2.7,0,0,1-.3,1.2A14.5,14.5,0,0,1,25,7l-.4.8c-.2.1-.9-.1-1.1-.1a9,9,0,0,0-2.3.2l-1.3.2c-.3,0-.6.1-.8-.1a4.1,4.1,0,0,1-.5-.9A6.1,6.1,0,0,1,18.3,6c-.2-.3-.5-.4-.7-.2a3,3,0,0,0-.4.8,3.6,3.6,0,0,0-.4,1.1c0,.2-.1.4-.1.6a.7.7,0,0,1-.1.5c-.1.3-.4.4-.6.5l-.6.3a8.5,8.5,0,0,0-3.3,3.5c-.1.1,0,.1.1.1a9.3,9.3,0,0,1,1.6-1.8h-.1c-1.1,1.5-2.6,3.3-2.2,5.3h.1a14.5,14.5,0,0,0,.9-2.2h-.2a11.3,11.3,0,0,0,0,2.6l.3,1.3a1.4,1.4,0,0,1,.2.6,1.9,1.9,0,0,1-.2.7,5.4,5.4,0,0,1-1.1,2.3,10.9,10.9,0,0,1-1.1,1C10.3,23,10.4,23.1,10.5,23Z"/><path class="cls-11" d="M35.5,20.3l.7,1.6c.2.5.3,1,.5,1.5s.2.1.2,0a6.3,6.3,0,0,0-1.2-3.2c-.1,0-.2,0-.2.1a5,5,0,0,1,1.2,3.1h.2l-.6-1.5-.6-1.6C35.6,20.2,35.5,20.2,35.5,20.3Z"/><path class="cls-11" d="M13.4,17.7a.8.8,0,0,1,.1-.4c0-.1-.2-.1-.2,0s-.1.6-.2.9.1.2.1.1a1.4,1.4,0,0,0,.2-.6h-.1c-.1.2-.1.4-.2.5h.1l.3-.9h-.2v.4C13.3,17.8,13.4,17.8,13.4,17.7Z"/></g></g></g></svg>