<svg id="Layer_1" data-name="Layer 1" xmlns="http://www.w3.org/2000/svg" xmlns:xlink="http://www.w3.org/1999/xlink" viewBox="0 0 112.6 150.3"><defs><style>.cls-1,.cls-2{opacity:0.25;}.cls-2{fill:#d0e8ec;}.cls-3{fill:#ef4136;}.cls-4,.cls-5{stroke:#9e4d2d;stroke-miterlimit:10;}.cls-4{fill:url(#linear-gradient);}.cls-5{fill:#efb49a;}.cls-6{fill:#231f20;}.cls-7{fill:url(#linear-gradient-2);}.cls-8{fill:#933d18;}</style><linearGradient id="linear-gradient" x1="8.75" y1="75.52" x2="105.54" y2="75.52" gradientUnits="userSpaceOnUse"><stop offset="0.19" stop-color="#ffd"/><stop offset="0.26" stop-color="#fff6d8"/><stop offset="0.41" stop-color="#ffe8cf"/><stop offset="0.54" stop-color="#ffe3cc"/><stop offset="0.67" stop-color="#ffe8d2"/><stop offset="0.83" stop-color="#fff8e3"/><stop offset="0.89" stop-color="#ffffea"/></linearGradient><linearGradient id="linear-gradient-2" x1="39.52" y1="12.53" x2="51.47" y2="12.53" gradientUnits="userSpaceOnUse"><stop offset="0.14" stop-color="#ffe3cc"/><stop offset="0.3" stop-color="#ffddc9"/><stop offset="0.51" stop-color="#ffccbf"/><stop offset="0.52" stop-color="#ffccbf"/><stop offset="1" stop-color="#ffe3cc"/></linearGradient></defs><g class="cls-1"><path class="cls-2" d="M31,136.1c-5.2,1.2-32.2,14.6,51.6,10.9C49.6,151-14.9,146.6,31,136.1Z"/><path class="cls-2" d="M103.4,138.1c1.9.5,12.5,6.8-18.2,8.3C97.5,147.3,120.7,142.1,103.4,138.1Z"/></g><path class="cls-3" d="M18.1,31.4C10.7,29.8,11.7,20,9.7,14.9.2,22.1,3.3,33.8,6.3,38.6c-3.2,1.5-5.2,6.5-4.5,9.3,3.1-1.5,7.2-3,10.4-.5,5.2-5.3,6.1-9.7,5.9-16.3Z"/><path class="cls-4" d="M87.9,87.6c-11.9-3.2-25.3.6-36.4-3.7-5.4-2.1-8.9-5.9-11.6-10.3,8.5,1.5,19.5,2.2,25.7-1.7,3.9-2.4,1-4.3.3-7.5s.8-9.4,1.5-13.8A48.1,48.1,0,0,0,67.1,35C65.4,24.5,55.4,16.4,44.2,14.3c-8-1.4-16.7-.1-22.6,4.5C12.2,26,5.2,41.2,10.7,52.1a43.5,43.5,0,0,0,7.1,10.2c.1,18.9,4,39.7,14.1,56.2,7.7,12.6,25.3,19.6,40.7,18.7,9.8-.5,17.1-1.4,24.3-7.8,5.4-4.8,8.6-11.1,8.6-18C105.6,100.6,99.9,90.8,87.9,87.6Z"/><path class="cls-5" d="M93.3,91.5c5.3-4.2,12.6-4.9,17.1-11.9,1.7,5.7-.6,10.9-3,16.2a34.5,34.5,0,0,1,3.4-3c0,1.7-.9,3.2-2.4,4.7l1.6-.9c0,3.1-4.8,9.6-8.7,8.3-1.9-.9-5-8.6-6.6-10.5Z"/><path class="cls-6" d="M16.3,31.8c-.9,1.8-2.4,2.9-3.4,2.5s-1.1-2.2-.2-4,2.4-2.9,3.4-2.5S17.2,30,16.3,31.8Z"/><path class="cls-7" d="M50.7,20.9c4-7-8.4-12.1-8.2-19h0c-.3,3.4-.6,7.3,1.2,10.7a52.3,52.3,0,0,0-3.1-4.9c0,1.1,0,2.3.1,3.8a4.1,4.1,0,0,1-.9-2.3,48.3,48.3,0,0,0-.2,8.5h0a11.5,11.5,0,0,1,11.6,5.5Z"/><path class="cls-8" d="M50.7,20.9c3.6-7.6-8.8-11.7-8.6-19h.8c-.3,3.5-.5,7.3,1.2,10.5l-.9.4a56,56,0,0,0-3.1-4.9l.9-.2c.1,1.2.1,4.5.2,5.7-.6-1.3-1.7-2.5-1.9-4.1h.9a58.9,58.9,0,0,0-.2,8.4l-.4-.3a11.5,11.5,0,0,1,11.6,5.7h-.1l-.4-2.3Zm0,0,.5,2.3.2.4-.3-.4a11.6,11.6,0,0,0-11.8-5.1,52.9,52.9,0,0,1,0-8.9h.9a4.8,4.8,0,0,0,.9,2.1l-.9.2V5.9l1,1.5c.9,1.6,2.3,3.2,3.1,5l-.9.4a13.1,13.1,0,0,1-1.4-5.4,35.1,35.1,0,0,1,.3-5.6h.8a8.9,8.9,0,0,0,1.8,4.8c2.6,4.2,9.2,8.7,6,14.2Z"/><path class="cls-5" d="M69,85.6c-6.4,0-15,0-17,5-.9,2.3,2-5,4-5,5.3,0,0,8,7,18,3.2,4.6,10.1,9.4,11,15,4-10,3.5-12.5-.6-18.9,2.4,2.2,5.8,3.6,7.6,6.5.2-3.7,0-6.6-2.2-10.3,1.3.8,2.6,2,3.9,2.7C83.1,91.6,74,85.6,69,85.6Z"/></svg>