<svg xmlns="http://www.w3.org/2000/svg" viewBox="0 0 164 95"><defs><style>.cls-1{fill:#5d1222;}.cls-2{fill:#f7f2f3;}.cls-3{fill:#ee7373;}</style></defs><g id="mouth"><path class="cls-1" d="M42.9,35.2s38.9,4.3,73.9-.6c0,0-8.2,29-37.2,29.2S42.9,35.2,42.9,35.2Z"/><path class="cls-2" d="M55.7,37.4S56,40,62,41.8s23.6,3.5,34.2-.1,9.3-5.5,9.3-5.5-19.8,2.7-51.7,1.1"/><path class="cls-3" d="M58.5,54.8s5-7.6,16.8-3.5c0,0,14.7-5.1,22.7,6.6,0,0-17.3,15.1-39.5-3.1"/><path class="cls-2" d="M59.1,54.1c-2.6,1.4-1.1,1.7.1,2.7l1.3.9s6.6,5.5,19.7,6S99.6,59,99.6,59s-1.2-3.8-6.1-2.1-14.2,4.8-27.3-.6c0,0-3.7-2.4-6.2-2.3"/><path class="cls-3" d="M42.9,35.2s43.1-2.1,73.9-.6C116.8,34.6,78.4,42.9,42.9,35.2Z"/><path class="cls-3" d="M48.8,47.3s28.2,36.2,61.9-.4C96.1,77.1,60.2,77,48.8,47.3Z"/></g></svg>