<svg xmlns="http://www.w3.org/2000/svg" viewBox="0 0 133 144"><defs><style>.cls-1{fill:#353535;}.cls-2{fill:#c89572;}.cls-3{fill:#f0d4be;stroke:#c0272d;stroke-width:0.11px;}.cls-3,.cls-5{stroke-miterlimit:10;}.cls-4{fill:#86604e;}.cls-5{fill:none;stroke:#86604e;stroke-width:0.3px;}.cls-6{fill:#602f28;}.cls-7{fill:#fff;}</style></defs><g id="Calf_Pose01_F01"><g id="_001" data-name="001"><path class="cls-1" d="M89.3,106.6c-.2,0-2,0-2.5.5s1.7,1,1.7,1l-1.9-.2s-1.4,1.8,1.7,3.1,4.3-.5,4.3-.7.4-.2.8-.6-.8-1.2-.8-1.2"/><path class="cls-2" d="M63.7,87.6c-1.1,3.4,1.6,3.4,1.8,2.6s2.1-.8,2.1-.8,0-3.9-.3-4.9.7-5.4.7-5.6l-4.8-2.8C64.1,78.3,63.9,87.4,63.7,87.6Z"/><path class="cls-1" d="M60.8,88.8a4.9,4.9,0,0,0,3.5,3.5c1.6.4,1.6-1.3,1.6-1.5s.2.2,1,0,.7-.4.7-1.4-1.9,0-2.1.8-2.9.8-1.8-2.6a4.7,4.7,0,0,1-1.5.2l1,1Z"/><path class="cls-1" d="M52.2,95.6a8.1,8.1,0,0,0,3.9,2.8c1.2.2,1.6-1,2-1.6s1.2-.4,1.9-.8.2-.8-.2-1.5-2.1.2-2.3.9-2.7,2.2-2.3-1.5c-3.4-1-.7,1-.6,1C52.4,94.3,52,94.9,52.2,95.6Z"/><path class="cls-3" d="M62,51.6a.1.1,0,0,0,.1.1l-.3-.3C61.9,51.5,61.9,51.6,62,51.6Z"/><path class="cls-1" d="M80.9,111.8s-3.5-.8-3.9.4,0,3.3,1.6,3.7,3.1,1.6,4.8-.4c.2-.2,2.3.5,1.7-2.4"/><path class="cls-2" d="M42.9,44.3s-.4.4-.4.6a10.5,10.5,0,0,0,2.7,2c-.2.2-2.9,5.8-2.1,6.4,3.1.4,5.6-2.1,5.8-1.9a9.8,9.8,0,0,0,1.6.7v.4a45.9,45.9,0,0,0,0,5.3c.2,1.6,1.9,3.9,1.5,4.7s.8,6.6,1,7.2,1,4.7,1.2,5.3a9,9,0,0,1-.2,3.9c-.4,1.7.8,3.1,1.2,3.9s.7,7.6.4,8.9l-.4,2.2c-.4,3.7,2.1,2.1,2.3,1.5s2.3-.9,2.3-.9a6.1,6.1,0,0,0-.5-4.5c-.4-.8,0-8.2.7-9s.6-5.1.8-5.1S76,84.1,76.2,84.1c.4,2.6,3.9,11.7,3.7,12.7s1.4,6.8,1.2,7.6a54.2,54.2,0,0,0,0,5.7c0,.7-1.2,2.9-1.2,4.1s1.2,1.3,2.6.9,2.7-1.1,2.7-2.7-.2-6.6.2-8.2,2.3-.8,1-4.5,1.5-9.3,1.5-8.9.4,1.3,1.6,3.7-.4,13.4-.8,14.6.6,1.2,2.3,1a2.1,2.1,0,0,0,2-2.4c-.2-.8,2.7-10.5,2.7-11.3s-.8-2.3-.8-3.7a87.8,87.8,0,0,1,1.2-10.5,10.8,10.8,0,0,0-.8-6.9c-.5-.8-.6-.7-1.5-1.9-2.2-3.2-1.6-4.2-3.1-5.5s-1.6-.5-4.7-2.1A32.8,32.8,0,0,1,82.9,64c-4.9-3.3-5.6-3.1-9.2-5.6s-5.1-6.1-9.2-6.1a6.1,6.1,0,0,1-2.4-.6l-.3-.3c0-.1-.1-.2-.2-.4a9.8,9.8,0,0,1-1-4.7,14.5,14.5,0,0,1,.4-3.1c4.1-2.6,4.5-3.6,4.5-4.1s-5.7-1-6.6-.8-3-.4-3.9-.6a9.3,9.3,0,0,0-2.8-.8c-1.3,0-4.4,2.4-5,2.4s-.2-.2-1.8-1-3.5,3.1-3.7,4.1S42.9,44.2,42.9,44.3Z"/><path class="cls-4" d="M41.8,42.5c.3-1.4,1.5-4.2,3.3-4a2.8,2.8,0,0,1,1.5.8.5.5,0,0,0,.4.2c.5.1,1.1-.3,1.5-.5a22.6,22.6,0,0,1,2.6-1.6,5.3,5.3,0,0,1,1.2-.3,5.6,5.6,0,0,1,2.1.6,14.6,14.6,0,0,0,3,.7,7.2,7.2,0,0,0,2.1.1,21.2,21.2,0,0,1,5,.5l.8.2c.2.1.2,0,.1.2a2.8,2.8,0,0,1-.8,1.1,16.4,16.4,0,0,1-2.6,2,3.6,3.6,0,0,0-1,.7.8.8,0,0,0-.2.5,15.2,15.2,0,0,0-.3,2.1,16.2,16.2,0,0,0,.2,3.1,8,8,0,0,0,.7,2c.1.2.3.3.5.5a5.4,5.4,0,0,0,2,1l1.8.2a4.9,4.9,0,0,1,1.7.6A10.4,10.4,0,0,1,70,55.3,19.3,19.3,0,0,0,73,58a35.1,35.1,0,0,0,5.2,3.3c2.1,1.1,4.1,2.4,6.1,3.7A21.2,21.2,0,0,0,88,66.8l2.1.7c1.6.8,1.9,2.6,2.6,4a12.7,12.7,0,0,0,2,3.1A6.5,6.5,0,0,1,96,76.9c.9,3,0,6.1-.4,9.1a46.2,46.2,0,0,0-.7,6.5,14.5,14.5,0,0,0,.8,3.6,3.4,3.4,0,0,1-.2,1.4c-.7,3.1-1.8,6.2-2.4,9.5a12.4,12.4,0,0,1-.2,1.8.1.1,0,0,0,.1.1c.3.3.7.5.2,1l-.4.2-.2.3a1.2,1.2,0,0,1-.6.6c-1.4.8-3.4.2-4.6-.7a1.6,1.6,0,0,1-.5-2.2h1.8c.1,0,.2-.2,0-.3a3.5,3.5,0,0,1-1.4-.6c-.3-.4.7-.4.9-.5h1.3a48.2,48.2,0,0,0,.8-10,8.6,8.6,0,0,0-.3-1.7A8.1,8.1,0,0,0,89,93c-.2-.6-.5-1.1-.7-1.7s-.1-.5-.2-.5-.8,1.3-.9,1.5a16.5,16.5,0,0,0-1,4.4,6.9,6.9,0,0,0,.1,2.5,10.2,10.2,0,0,1,.6,2.5c0,1-.8,1.3-1.3,2a4.7,4.7,0,0,0-.4,1.7,19.5,19.5,0,0,0-.2,2.5,24.4,24.4,0,0,0-.1,2.7,7.1,7.1,0,0,1,.2,2.5.3.3,0,0,0,.1.2,3,3,0,0,1-.1,1.3.8.8,0,0,1-.4.6c-.3.2-.6.1-1,.2s-.7.6-1.2.9a3.1,3.1,0,0,1-2.5-.1c-.7-.3-1.7-.4-2.2-1a3.2,3.2,0,0,1-.7-2.3,1.3,1.3,0,0,1,.5-.9,2.3,2.3,0,0,1,1.1-.3l2,.2h.2a4.8,4.8,0,0,0,.5-1.7v-1.2c-.1-1.1-.1-2.2-.1-3.3s.1-1.2.1-1.9l-.6-3a28.4,28.4,0,0,1-.6-3.1c-.1-.4,0-.9-.1-1.4a51.8,51.8,0,0,0-1.7-5.6,48.8,48.8,0,0,1-2-6.5h-.1l-.8-.4-1.9-1L68,79.7h-.2a30.1,30.1,0,0,0-.5,4.2c-.1,1.2.7,2.4.7,3.6a2,2,0,0,1-.1,1.1c-.1.4-.4.6-.4,1s.1.6,0,.8-.9.3-1.3.3-.3-.1-.3.1-.1.8-.4,1.1-2-.1-2.6-.5A4.4,4.4,0,0,1,61,88.8V89h2.4c.2,0,.2-.2.1-.2l-1-1.1V88a3.4,3.4,0,0,0,1.4-.2c.2-.1.2-.2.2-.5a21.7,21.7,0,0,0,.2-3.6c0-1.7-.1-3.3-.2-5a3.4,3.4,0,0,0-.1-1c-.1-.4-.4-.4-.7-.6A14.8,14.8,0,0,1,61,75.8h-.2c-.4.1-.3,1.4-.3,1.7a12,12,0,0,1-.5,3.3,14.9,14.9,0,0,0-.8,5.2c-.1,1-.1,2.1-.1,3.1a15.5,15.5,0,0,0,.6,2.3,7.1,7.1,0,0,1,.2,2.5c-.1.3-.3.6-.2.8l.3.4c.1.3.2.7-.2.9s-1.3.2-1.7.8-.6,1.1-1.1,1.4-1.6-.1-2.3-.5l-1.8-1.4c-.2-.2-.8-.7-.5-1.1s1.8-.2,2.2,0,.3-.2.1-.3l-.8-.7-.2-.2c0-.2,0,0,.1-.1s1.2.2,1.4.2.2,0,.2-.1a15,15,0,0,0,.5-3.7c0-1.5,0-3-.1-4.5a7.8,7.8,0,0,0-.4-3,10.8,10.8,0,0,1-1.2-2.4c-.3-1.2.3-2.4.3-3.6a12.1,12.1,0,0,0-.6-3.8,33.8,33.8,0,0,0-.8-3.4c-.3-1.2-.5-2.4-.7-3.6a9.8,9.8,0,0,1-.3-3.4,3.9,3.9,0,0,0-.5-2.3,8.7,8.7,0,0,1-1-3.1c-.1-1.7.1-3.4.1-5.1a.1.1,0,0,0-.1-.1l-1.3-.4c-.2-.1-.3-.3-.6-.2l-1,.6-1.8.9a6.6,6.6,0,0,1-2.4.3c-.3,0-.3,0-.4-.2a1.3,1.3,0,0,1,.1-.6,16,16,0,0,1,1-3.1l.7-1.5a2.5,2.5,0,0,1,.4-.7c.1-.1,0-.2-.1-.3a6.2,6.2,0,0,1-1.7-1.1l-.7-.6c-.1-.2-.1-.1-.1-.3l.3-.4c.1,0,.1-.1,0-.2s-1.2-1.1-1.2-1.7-.2-.2-.3,0,.8,1.5,1.3,1.9v-.2c-.2.2-.5.5-.4.8s.4.5.6.6a5.7,5.7,0,0,0,2.2,1.5v-.2c-.4.4-.5,1-.8,1.4a23.3,23.3,0,0,0-1.1,2.8,3.6,3.6,0,0,0-.3,2.1l.2.3a2.4,2.4,0,0,0,1.2,0h1a11.7,11.7,0,0,0,3-1.4l.6-.3.4.2.8.3h.3c.2.1,0,.1,0,0v.4a6.1,6.1,0,0,1-.1,1.4,25.4,25.4,0,0,0,.1,3.9,22,22,0,0,0,1.3,3.6c.3.7,0,1.4.1,2.1a37.5,37.5,0,0,0,.9,5.7c.4,1.5.8,3.1,1.1,4.7a8.6,8.6,0,0,1,.4,2.8,23.4,23.4,0,0,1-.4,2.6,4.3,4.3,0,0,0,.4,1.9l1,1.7c.1.3.1.7.2,1s.1,2.2.2,3.3.1,2.3,0,3.5a11.9,11.9,0,0,1-.5,3.2l.2-.2c-.2,0-2.1-.7-1.9.2a2.5,2.5,0,0,0,1.2,1.1v-.2c-.7-.2-1.8-.6-2.4-.1a.8.8,0,0,0-.2,1,5.2,5.2,0,0,0,1.7,1.6,5.8,5.8,0,0,0,2.3,1.3,1.8,1.8,0,0,0,1.8-1.1c.4-.6.6-.9,1.2-1.1a2,2,0,0,0,1.3-.6c.2-.2.1-.5,0-.8s-.4-.4-.3-.7.1-.5.1-.8a6.7,6.7,0,0,0-.5-3.1,12.9,12.9,0,0,1-.3-3.9,20.5,20.5,0,0,1,.6-4.9c.1-.5.3-.8.4-1.3a20,20,0,0,0,.4-2.4,4.9,4.9,0,0,1,.1-1.2c0-.2.1-.5.1-.8s-.3-.1-.1.1.1.1.1.2l.5.3a10.4,10.4,0,0,1,1.8,1c.4.3.3,1.1.3,1.5a10.9,10.9,0,0,1,.1,1.8c.1,1.3.1,2.5.1,3.7a21.8,21.8,0,0,0-.1,2.5c-.1.3,0,.4-.2.5s-.9.1-1.2.1-.2.2-.1.2l1,1.1v-.3H60.9c-.2,0-.2.1-.2.2a4.9,4.9,0,0,0,3.7,3.6A1.5,1.5,0,0,0,66.2,91c-.1-.2-.1,0-.1,0h.3a1.7,1.7,0,0,0,1-.1c.5-.3.4-.7.4-1.2s.3-.6.4-1a2,2,0,0,0,.1-1.1,10.1,10.1,0,0,0-.5-2.5c-.5-1.7,0-3.6.3-5.3h-.2l5.8,3,1.9,1,.5.2h.1a61.4,61.4,0,0,0,2.2,7.3c.4,1.2.8,2.4,1.1,3.6a6.8,6.8,0,0,1,.3,1.9,18.6,18.6,0,0,0,.6,3.4,22.9,22.9,0,0,1,.7,3.6c0,.3-.1.7-.1,1.1v2.2c0,.7.1,1.5.1,2.2a5,5,0,0,1-.5,2.1h.2c-1-.1-2.7-.5-3.5.2s-.4,2.6.1,3.4a2.7,2.7,0,0,0,1.6,1,10.4,10.4,0,0,0,2.2.6,2.5,2.5,0,0,0,2-.7c.2-.2.3-.4.6-.4h.4c1.4-.1,1.4-1.4,1.2-2.5h-.1v.2a8.1,8.1,0,0,0-.1-2.2,24.4,24.4,0,0,1-.1-2.7l.3-2.8a5.3,5.3,0,0,1,.4-1.7l.9-.9a2,2,0,0,0,.4-1.3,26.8,26.8,0,0,0-.7-2.7,10.1,10.1,0,0,1,.1-3,14.5,14.5,0,0,1,1.3-4.5l.2-.4c-.1-.3-.2-.1-.2,0v.2l.6,1.4a11.5,11.5,0,0,1,1.2,2.5,7.8,7.8,0,0,1,.3,2.2,56.3,56.3,0,0,1-.3,5.8c-.1,1.1-.4,2.1-.4,3.2s0,.3-.2.3h-.7l-1.2.2c-1.3.6,1,1.4,1.4,1.5V108H87.6c-.2,0-.7-.2-.9-.1s-.4.9-.4,1.2a2.7,2.7,0,0,0,1.9,2.1,4.6,4.6,0,0,0,3.6.3,1.5,1.5,0,0,0,.9-.6l.4-.5c.3-.2.9-.4.7-.9s-.5-.5-.5-.8a2.7,2.7,0,0,0,0-.9,10.1,10.1,0,0,1,.3-1.7c.2-1,.5-1.9.7-2.9s1.1-3.8,1.6-5.8a4.1,4.1,0,0,0-.1-1.9,7.6,7.6,0,0,1-.6-2.6,5.3,5.3,0,0,1,.1-1.3c.2-3.4.9-6.7,1.3-10s0-5.2-1.7-7.1a14.1,14.1,0,0,1-2.4-3.9,7,7,0,0,0-1.1-2.3A3.6,3.6,0,0,0,89.6,67a19.7,19.7,0,0,1-4-1.6l-4.2-2.6a25.9,25.9,0,0,0-3.3-1.9,30.7,30.7,0,0,1-6.7-4.6c-1.9-1.8-3.5-3.9-6.4-4.1a3.2,3.2,0,0,1-1.9-.3L62,51a2.8,2.8,0,0,1-.9-1.7,9.9,9.9,0,0,1-.3-2.4,12.8,12.8,0,0,1,.1-1.9,6.8,6.8,0,0,1,.2-1.4c.2-.5.9-.7,1.3-1a17.8,17.8,0,0,0,2.7-2.1c.2-.3.6-.7.6-1.1s-.4-.6-.8-.6a13.5,13.5,0,0,0-2.9-.5,12.2,12.2,0,0,0-2.7-.1H58.1a6.5,6.5,0,0,1-2-.4,4.8,4.8,0,0,1-1.7-.5,8,8,0,0,0-2.1-.5A5.8,5.8,0,0,0,49.5,38l-1.4.9c-.3.1-.7.4-1,.3s-.5-.3-.7-.4a2,2,0,0,0-1.6-.6,3.2,3.2,0,0,0-2.2,1.7,9.1,9.1,0,0,0-1.1,2.5C41.5,42.6,41.8,42.7,41.8,42.5Z"/><path class="cls-4" d="M44.8,47.2l2.5-2.4,1.3-1.1,1.4-1h0a1.4,1.4,0,0,0,.8-.9,1.6,1.6,0,0,0-.1-1.2,1.6,1.6,0,0,1,.1,1.2,2.3,2.3,0,0,1-.7,1h0a7.1,7.1,0,0,0-1.4,1L47.4,45,45,47.4Z"/><path class="cls-4" d="M53.2,44a2.2,2.2,0,0,0-.9.7c-.1.3-.1.7-.2,1a5.4,5.4,0,0,1-.5,2.2,5.6,5.6,0,0,1-1.1,2,7.5,7.5,0,0,1-1.6,1.5,10.1,10.1,0,0,0,2.5-3.6,12.9,12.9,0,0,0,.5-2.1,6.1,6.1,0,0,1,.3-1.1A2.1,2.1,0,0,1,53.2,44Z"/><path class="cls-4" d="M52,49.6a2.8,2.8,0,0,1-.4,1.5l-.4.6-.7.4a3.4,3.4,0,0,0,.9-1.2l.3-.6Z"/><path class="cls-5" d="M58.6,38.3s1.7,1.3,2.3,5.1"/><path class="cls-4" d="M87.6,91a23.9,23.9,0,0,0,1.5-3.7,23.4,23.4,0,0,0,.9-3.8,17.7,17.7,0,0,0-.1-4,9,9,0,0,0-1.6-3.6A9.2,9.2,0,0,1,90,79.5a17.7,17.7,0,0,1,.1,4,18,18,0,0,1-.8,3.9,29.9,29.9,0,0,1-1.5,3.8Z"/><path class="cls-4" d="M43.3,41.6c.1.4-.1.8,0,1.1s.5.5.9.7h-.7a.8.8,0,0,1-.5-.5,1.7,1.7,0,0,1,.1-.7C43.1,41.9,43.3,41.8,43.3,41.6Z"/><path class="cls-5" d="M88.5,74.5h1a4.6,4.6,0,0,1,1.3,1.2,8.3,8.3,0,0,1,1.5,2.2,12.5,12.5,0,0,1,1,4.5c.3,3.7-1.4,9-1.1,11.9s0,2.3.1,3-.1.8-.1.8V99A15.9,15.9,0,0,1,91,93.8c-.2-2.8,1.4-9.7.7-11.8,0,0-.7-4.9-3.2-5.7"/><path class="cls-6" d="M91.5,94c1.9,2.8,1.4,4.4,2,6.7,0,.3-.5-.3-.6-1.5a4,4,0,0,0,.2,2.4c.3.8-.1.1-.5-.6a1.7,1.7,0,0,0,.1.9,4.5,4.5,0,0,1-.5-1,3.7,3.7,0,0,0,1.2,2.4c.5.5-2.2-1.2-1.6-3.5a3,3,0,0,0,0,2.6,2.1,2.1,0,0,1-.7-1.8c0,.2-.1.4-.1.7h-.2c-.2-1.3.6-2.6.7-4.2a22.5,22.5,0,0,1-.8,2.4c0,.1-.2.1-.2-.1s1.3-3.2.5-4.8c0,0,.1.9.2.6s-.3-1-.2-1.1.6,1,.8,1.1-.3-1.1-.3-1.1"/><path class="cls-4" d="M63.2,52.2a4.9,4.9,0,0,1-2.2-1,3,3,0,0,1-.8-.8,6.1,6.1,0,0,1-.7-1,3.1,3.1,0,0,0,.7.9l.9.8a9.5,9.5,0,0,0,2.1.9Z"/><path class="cls-4" d="M51.8,62.6h0l.2-.4a1.4,1.4,0,0,1,.2-.6l.6-1.2c.4-.8.8-1.6,1.3-2.4a13.4,13.4,0,0,1,3.6-3.9,16.8,16.8,0,0,0-3.5,4c-.4.8-.9,1.6-1.2,2.4l-.6,1.2a1.4,1.4,0,0,1-.2.6v.5h0Z"/><path class="cls-4" d="M76,84.1a17.7,17.7,0,0,1,.1-4.6,9,9,0,0,1,.6-2.2,4.6,4.6,0,0,1,1.5-1.6,3.9,3.9,0,0,0-1.4,1.7,7.9,7.9,0,0,0-.6,2.2,16.2,16.2,0,0,0,.1,4.4Z"/><path d="M46.1,41.8c0,.3.4.5.7.5s-.1-.3-.1-.4h0v-1h-.1c0-.1.1-.2.1-.3a.8.8,0,0,0-.4.4A.8.8,0,0,0,46.1,41.8Z"/><path class="cls-7" d="M46.3,41.6c0,.2.2.3.4.3h0v-1h-.1l-.2.2C46.3,41.3,46.2,41.5,46.3,41.6Z"/><path class="cls-4" d="M47.6,43.3a3.4,3.4,0,0,1-.7-3.5c.1-.2-.2-.3-.3-.1a3.8,3.8,0,0,0,.8,3.8c.2.1.4-.1.2-.2Z"/></g></g></svg>