<svg xmlns="http://www.w3.org/2000/svg" viewBox="0 0 84 66"><defs><style>.cls-1{fill:#be7a40;}.cls-2{fill:#8b6339;}.cls-3{fill:#d79b6b;}.cls-4{fill:#ae784a;}.cls-5{fill:#616261;}.cls-6{fill:#434343;}.cls-7{fill:#af8051;}.cls-8{fill:#212121;}.cls-9{fill:#3e2723;}.cls-10{fill:#fff;}.cls-11{fill:none;stroke:#8b6339;stroke-miterlimit:10;stroke-width:0.3px;}</style></defs><g id="Layer_61" data-name="Layer 61"><g id="Puppy_06_F03"><path class="cls-1" d="M27.8,23.9h0a.7.7,0,0,1-.6-.2A13.2,13.2,0,0,1,24.3,15a12.2,12.2,0,0,1,2.6-6.9.5.5,0,0,1,.5-.3h0a.6.6,0,0,1,.5.9A14,14,0,0,0,25.8,15a12.2,12.2,0,0,0,2.5,8A.6.6,0,0,1,27.8,23.9Z"/><path class="cls-1" d="M57.9,18.8c.4.1.7.5,1,.7s.3.2.4.4a.6.6,0,0,1,.1.4l-.3-.2c.3.2,1,.9,1,1.3l-.5-.2c.5.9.8,1.7.5,1.8a54.7,54.7,0,0,1-5.9-1.6,5.7,5.7,0,0,1,1.1-1.1,7,7,0,0,1,2-1.5A.6.6,0,0,1,57.9,18.8Z"/><path class="cls-1" d="M20.9,31.9c.8-1.1,1.8-.1,3.8-2.8a12.8,12.8,0,0,0,1.6-2.8l9.1,5.1c-3.2,4.3-7.2,2.8-12.6,3.8-1,.2-2,1.9-2.6,3.5s1.3,1.7-.2,1.9a1.9,1.9,0,0,1-1.8-.8C16.7,38.3,20.1,33,20.9,31.9Z"/><path class="cls-2" d="M21,32a1.3,1.3,0,0,1,.7-.6c.3-.1.6-.1.8-.3a2.9,2.9,0,0,0,1.2-.7,7.3,7.3,0,0,0,1.4-1.6c.5-.8.9-1.6,1.3-2.4h-.1l.9.5,2.1,1.2L32,29.6l2.2,1.2.8.4.3.2h0a6.4,6.4,0,0,1-2.6,2.3,10.4,10.4,0,0,1-3,.9l-3.4.2-1.9.2H22.6c-.6.2-.9.7-1.3,1.1a17.4,17.4,0,0,0-1,1.9,1.4,1.4,0,0,1-.2.6h.1c.3.1.4.5.5.8a.5.5,0,0,1,0,.5c-.1.2-.2.3-.4.3h-.9l-.7-.4c-.3-.3-.6-.5-.7-.9a2,2,0,0,1,0-1.1,7.4,7.4,0,0,1,.4-1.4A16.6,16.6,0,0,1,19.7,34l1.2-1.9H21c.1-.2-.1-.3-.2-.2l-1.2,2a24.4,24.4,0,0,0-1.4,2.8,8.3,8.3,0,0,0-.4,1.5,2.4,2.4,0,0,0,0,1.2,1.9,1.9,0,0,0,.8,1l.7.4h.9a.9.9,0,0,0,.8-.9,3.7,3.7,0,0,0-.5-1.1h-.2a12.4,12.4,0,0,1,1-2,3.7,3.7,0,0,1,1.2-1.3l.8-.2h1l1.9-.2,3.4-.2a11.1,11.1,0,0,0,3-.8,7.5,7.5,0,0,0,2.6-2.1l.3-.4h0l-.9-.5-2.2-1.2-2.6-1.5-2.3-1.2-1.1-.7h-.2a21.2,21.2,0,0,1-1.1,2.1,8.6,8.6,0,0,1-1.4,1.8,3.7,3.7,0,0,1-1.2.7,3.2,3.2,0,0,1-.9.3l-.8.6C20.8,32,20.9,32.1,21,32Z"/><path class="cls-3" d="M22.9,41.4c0,.2,0,.3.1.4s.7,2.8,2.1,3a1.5,1.5,0,0,0,1.8-.4c1.1-1-.4-1.8-.9-1.7s-.1-.4-.2-.6-.4-3.2.2-3.8l.5-.5c1.9-1.9,3.9-2.5,5.4-4.8l.9-1.2a3.1,3.1,0,0,0,.5-1,1.4,1.4,0,0,0,.2-.6,8.5,8.5,0,0,0,.3-4,1.7,1.7,0,0,0-.1-.7s-5.3-3.2-7.4-4.3l-.8-.5c-3.5,5-1.3,8.1-1.4,11.4a6.3,6.3,0,0,1-.6,2.7c-.2.5-.7.9-.8,1.4h-.1a22.5,22.5,0,0,0,0,2.6A21.3,21.3,0,0,0,22.9,41.4Z"/><path class="cls-1" d="M50.8,43.4a71.7,71.7,0,0,1,2.9,7.1c.4,1.4.3,2.2,1.7,2.2a1.8,1.8,0,0,0,1.8-.8c.9-1.1-.5-1.7-.9-1.5l-1.1-5.3-1.1-5.5-.5-2.8-5.8.5S49.3,40.2,50.8,43.4Z"/><path class="cls-1" d="M49.7,41.3a3.2,3.2,0,0,0,.3.9c.3.6.5.5,1.1.5s-.3.9-.3,1.4.7.1.9,0,.1.8.1,1,.8-.3,1.2-.8l.6-5.6c-.7-.2-1.4.3-2.1.6a4.4,4.4,0,0,0-1.8,1.5C49.7,41,49.6,41.2,49.7,41.3Z"/><path class="cls-3" d="M47.5,40.7a2.2,2.2,0,0,1-1,.9l-1.2.7c-1.3,1-1,2.9-1.8,4.4s-2.1,1.2-2.5,1.9-1.7,2.5-3.5,1.3.8-1.2,1.2-.9L41,46l.9-6.1L44,37.4l4.3,1.5h0C48,39.5,47.8,40.3,47.5,40.7Z"/><path class="cls-3" d="M26,26.6v.3a6.1,6.1,0,0,0,.7,1A35.5,35.5,0,0,0,29.1,31l1.3,1.5.4.6a3.5,3.5,0,0,0,.5.8c.3.3.7.9,1.2,1.1l-.4.2c.4.2.6.6.9.8l.9.7.9.5h-.4a4.5,4.5,0,0,0,2.1,1.5c.4.2,1.1.7,1.6.6a2.4,2.4,0,0,1-1.2,0c.2.1.4.4.6.6l1,.5,1.9.6,1.2.4h.5l.9.2a9.7,9.7,0,0,0,4,.7l1.1-.2.5-.2v.3l1.6-.4,1.1-.8c.1,0,.1.1.1.3s.5-.2.8-.3l.9-.5a3.8,3.8,0,0,0,1-1.2.9.9,0,0,1,0,.7c.2-.3.6-.5.8-.8a2.1,2.1,0,0,0,.6-1l.4-1v.3a1.7,1.7,0,0,0,.6-.6,4.6,4.6,0,0,0,.8-1.9,2.2,2.2,0,0,0,.1-.8.6.6,0,0,1,0,.6,4.7,4.7,0,0,0,.9-2.2,6.6,6.6,0,0,0,.1-1.4c0-.1.1-.2.1-.3a2.7,2.7,0,0,0,0-.9A5.3,5.3,0,0,0,62,32.1a2.5,2.5,0,0,0,1.6-.9c1.1.6,1.4-.9,1.3-1.7s-1.9-2.7-2.1-3-.5-3.1-2.4-4.9l-.5-.3-.3-.2a6.1,6.1,0,0,0-2.6-.8c-6.2-.2-6.7,5.7-12,4.3-2.9-.7-11.7-7.8-17.2-5.7a4.6,4.6,0,0,0-1.9,1.3c-.6.6-.6,1.3-.8,2.5A6.1,6.1,0,0,0,26,26.6Z"/><path class="cls-4" d="M62,31.4a2.4,2.4,0,0,0,1.6-1,.8.8,0,0,0,1.1-.2,1.1,1.1,0,0,1-.1-.8,1.4,1.4,0,0,0-.6-1.5c-1.1-.7-1.9.2-1.9,1.5S62.8,30.7,62,31.4Z"/><path class="cls-5" d="M64.4,28.4s-2-1.7-2.1,1Z"/><path class="cls-1" d="M24.3,34.5l-1.1.2c.3-.5-.3-2.2-.1-3.6.5-3.2-1.3-6.5,2.8-10.9S41.7,23.8,45,24.6c5.3,1.3,5.8-4.5,11.9-4.3a6,6,0,0,1,2.7.7l.3.3.5.3c1.9,1.7,1.6,3.4,2.4,4.8a1.9,1.9,0,0,1-2.1-2c0-1.6-1.6-2.1-2-.9s1,1.1,1.4,2.5-1.1,3-2.5,3A13,13,0,0,1,53,27.7a3.3,3.3,0,0,0-2.4-.2l-.8.6-.9.9a2.7,2.7,0,0,0-.8,1.6,2.7,2.7,0,0,1-.3-1.2c0,.7-.6,1.5-.6,2.3s.2,1.4.2,2.2l-.6-.6a4.8,4.8,0,0,1,.2,2.4c-.1.4-.4,1.4-1,1.6a1.5,1.5,0,0,0,.1-.6c-.2.6-1.1,1-1.6,1.2l-1.1.3L42.2,38a.8.8,0,0,0,.2-.4c-.3.2-.8,0-1,0H40.2a3.4,3.4,0,0,1-2.4-1.1,1.2,1.2,0,0,0,.9-.3,6,6,0,0,1-1.1-.6A4,4,0,0,1,36.3,34h.3c-.1,0-.3-.3-.4-.4a2.7,2.7,0,0,0-.7-.8c-.2-.2-.9-1-1.2-.7s.5-.3.7-.3-.4-.7-.7-1a3.6,3.6,0,0,0-1.6-1.1c.1-.2.3-.2.5-.3l-.6-.4-1-.4c-.6,0-1.3-.1-1.7.4s0-.5.2-.6a2.6,2.6,0,0,0-1.6,1.1l-.5.7a1.6,1.6,0,0,1-.5.9c0-.3.1-.6,0-.8s-.7,1.4-1.1,1.9-1.1,1.2-1.6.9a.3.3,0,0,0,.1-.2c-.4.3-.3,2.2-.9,1.8Z"/><path class="cls-6" d="M64.4,28.5a1.8,1.8,0,0,1-.9,1.6c-.6.2-.9,0-1.2-.6S64.5,27.8,64.4,28.5Z"/><path class="cls-7" d="M61.4,25.4a1.4,1.4,0,0,1-.4-1.1c.1-.5.9.3.9.3Z"/><path class="cls-7" d="M58.8,26.6a.5.5,0,0,0,.2-.8.5.5,0,0,0-.6-.1c-.2.1-.3.5-.3.7Z"/><path class="cls-8" d="M59,26.2a.7.7,0,0,0-.6-.4c-.4.1-.3.5-.5.6S58.6,26.8,59,26.2Z"/><path class="cls-9" d="M58.2,26.3l.3.2a.3.3,0,0,0,.3-.3c0-.2-.2-.3-.4-.3A.3.3,0,0,0,58.2,26.3Z"/><path class="cls-8" d="M58.3,26.2a.2.2,0,1,0,.4,0c0-.1-.1-.2-.3-.2S58.3,26.1,58.3,26.2Z"/><path class="cls-10" d="M58.2,26.2a.1.1,0,1,0,.2,0h-.2Z"/><path class="cls-8" d="M61.3,24.9l.2.4h.4c.2-.1.1-.4.1-.4a.4.4,0,0,0-.5-.1Z"/><path class="cls-9" d="M61.9,24.9c0,.1,0,.3-.2.3a.3.3,0,0,1-.3-.3C61.5,24.7,61.8,24.6,61.9,24.9Z"/><path class="cls-8" d="M61.8,24.9c0,.1,0,.2-.1.2a.2.2,0,0,1-.2-.2C61.6,24.8,61.7,24.7,61.8,24.9Z"/><path class="cls-10" d="M61.4,25c0,.1,0,.1.1.1a.1.1,0,0,0,0-.2C61.4,24.9,61.4,24.9,61.4,25Z"/><path class="cls-3" d="M47.6,42.3c-.2.3,0,.8-.2,1.1l-.6-.4c-.1.4.2.4-.2.5s-.5.6-.7.8-.9,1.8-1.6,2.8-2.6,2.2-3,2.8-1.3,1.6-2.2,1.3-1.2-.4-1.5-1.2a.1.1,0,0,1-.1-.1c1.8,1.2,2.7.4,3.5-1.3s1.6-1.3,2-2,.9-3.3,2.3-4.3l1.2-.7a2.2,2.2,0,0,0,1-.9c.3-.4.5-1.2.8-1.7h0l1.2.4-1.8,2.2c0,.1.1.2.1.3V42a3.1,3.1,0,0,1,.2.8C47.8,42.7,47.8,42.4,47.6,42.3Z"/><path class="cls-1" d="M50.3,24.4c4.2-2.7,6.9-.9,6.3.6s.2,1-.4,2.1-.3.4-.5.7a2.9,2.9,0,0,1-.2.9,3.3,3.3,0,0,1-.6,1,.4.4,0,0,0,0-.5,4.3,4.3,0,0,0-.2,1.1c.1.5.2,1.3-.5,1.4a3.3,3.3,0,0,1-2.1-.9c-1.2-1-1.3-2.7-1.9-4S49.4,25,50.3,24.4Z"/><path class="cls-11" d="M31.3,33.9c.3.3.7.9,1.2,1.1l-.4.2c.4.2.6.6.9.8l.9.7.9.5h-.4a4.5,4.5,0,0,0,2.1,1.5c.4.2,1.1.7,1.6.6a2.4,2.4,0,0,1-1.2,0c.2.1.4.4.6.6l1,.5,1.9.6.7.2h.1l.4.2c-.1.2-.3.4-.3.6H42c-.1.4-.4.3-.1.6s-.6,0-.5.3,0,2-.4,2.9-2.3,2.4-2.3,3.2-1.2-.7-1.3.2a1.3,1.3,0,0,0,.6,1.3c2,1.5,2.9-.2,2.9-.2l3.2-3,2.8-4.9H47l1.1-.2.5-.2v.3l1.8-.2c.3,2.5,3.3,6.8,3.3,8.2s.3,2.2,1.2,2.2a4.9,4.9,0,0,0,2.3-.8c1.2-.8-.4-1.5-.9-1.5L55.1,46c.1,0-.3-3-.3-3l-.4-2.5c.3-.2-.5-.6-.3-.9a.9.9,0,0,1,0,.7c.2-.3.6-.5.8-.8a2.1,2.1,0,0,0,.6-1l.4-1v.3a1.7,1.7,0,0,0,.6-.6,4.6,4.6,0,0,0,.8-1.9,2.2,2.2,0,0,0,.1-.8.6.6,0,0,1,0,.6,4.7,4.7,0,0,0,.9-2.2,6.6,6.6,0,0,0,.1-1.4c0-.1.1-.2.1-.3a2.7,2.7,0,0,0,0-.9A5.3,5.3,0,0,0,62,32.1a2.5,2.5,0,0,0,1.6-.9c1.1.6,1.4-.9,1.3-1.7a2.1,2.1,0,0,0-.5-1.2h-.1c-.6-.8-1.4-1.5-1.5-1.7h0c-.8-1.4-.5-3.1-2.4-4.8l-.3-.2c0-.4-.7-1.1-1-1.3l.3.2a.6.6,0,0,0-.1-.4c-.1-.2-.3-.3-.4-.4s-.6-.6-1-.7a.6.6,0,0,0-.6,0,7,7,0,0,0-2,1.5h-.2c-4.4.9-5.3,5.3-10.1,4.2-2.4-.6-8.8-5.5-14-6.1H27.8l-1.3.7a11.1,11.1,0,0,1-.7-4.6,14,14,0,0,1,2.1-6.3.6.6,0,0,0-.5-.9h0a.5.5,0,0,0-.5.3,12.1,12.1,0,0,0-1.5,12.6c-3.5,4.2-1.8,7.4-2.3,10.4a6.3,6.3,0,0,1,0,4.4c-.9,2.2-.1,6.6,0,6.9s.9,2.7,2.8,2.7c0,0,3.2-1.5.1-2.4,0,0-.7-2.6-.3-3.8s5.9-4.3,6.2-5.9a14.2,14.2,0,0,0,.3-2.1"/></g></g></svg>