<svg xmlns="http://www.w3.org/2000/svg" viewBox="0 0 84 66"><defs><style>.cls-1{fill:#f89f1f;}.cls-2{fill:#d99728;}.cls-15,.cls-3{fill:#fbe508;}.cls-12,.cls-3,.cls-5{stroke:#bcaf32;stroke-miterlimit:10;stroke-width:0.3px;}.cls-4{fill:#e9c01e;}.cls-14,.cls-5{fill:#fcd60a;}.cls-6{fill:#faa629;}.cls-7{fill:#fff;}.cls-8{fill:#383838;}.cls-9{fill:#ffcb29;}.cls-10{fill:#f78c1e;}.cls-11{fill:#f3c714;}.cls-12{fill:#f05223;}.cls-13{fill:#d84326;}</style></defs><g id="Layer_88" data-name="Layer 88"><g id="Duck_poses_06_F_03_" data-name="Duck poses 06 ( F 03 )"><path class="cls-1" d="M38.7,39.3l-.8,1.1-.5.4a5.3,5.3,0,0,1,1.5.6c.3.2-.9-.1-1.4-.1s1,2.6.6,2.1-1-2.1-1.3-2.2a3.7,3.7,0,0,0-2,.5c-.5.1,1-.9,1.6-1.1a11.5,11.5,0,0,0-1-1.3A6.8,6.8,0,0,1,37,40.5a3.3,3.3,0,0,0,.6-.6l1-1.2Z"/><path class="cls-2" d="M36.4,40.6l-1-1.3,1.4,1.3H37a3.3,3.3,0,0,0,.6-.6l.8-1v.4l-.8,1.1-.4.5,1.4.5h-1s.4,1.4.5,2S37,41.1,36.9,41l-1.6.4c-.2,0-.4.2-.6.3A6.2,6.2,0,0,1,36.4,40.6Z"/><path class="cls-2" d="M40.1,38l-1.7,2s-.5,0-.6-.4l1.8-2.3Z"/><path class="cls-1" d="M40.1,38l-1,1.2c-.3-.2-.5-.3-.4-.8l.9-1.1Z"/><path class="cls-3" d="M43.3,34.7a2.8,2.8,0,0,1-.1,2.4,5.3,5.3,0,0,1-2.5,1.5,3,3,0,0,1-.9.3c-.2.1-.6-.1-.9-.6s-.3-.6-.2-.8.5-2.8.9-3.1S41.3,33.6,43.3,34.7Z"/><path class="cls-4" d="M43.9,34.2a2.8,2.8,0,0,1-.1,2.4,3.8,3.8,0,0,1-2.5,1.5,2.9,2.9,0,0,1-1.8-.3c-.6-.4-.9-.9-.8-1.1a6.8,6.8,0,0,1,1.5-2.8C40.5,33.5,41.9,33.1,43.9,34.2Z"/><path class="cls-1" d="M44.3,40.9l.5,1.5a5.6,5.6,0,0,0,.1.7,6.3,6.3,0,0,1,1.6-1c.3-.1-.8.8-1.1,1.2s3.1.8,2.3.8-2.6-.4-2.8-.2a6.1,6.1,0,0,0-.9,2.3c-.1.5-.2-1.5.1-2.3H42.2a7.7,7.7,0,0,1,2.2-.7,5.1,5.1,0,0,0-.2-.9,18.2,18.2,0,0,0-.6-1.8Z"/><path class="cls-2" d="M44.1,43.9H42.2a9.5,9.5,0,0,1,2.1-.4.4.4,0,0,0,.1-.3h0a5.1,5.1,0,0,0-.2-.9L43.8,41l.4.2s.4,1.1.5,1.5a5.6,5.6,0,0,0,.1.7,5,5,0,0,1,1.5-1l-.9.9h.1c-.1.1.1,0,0,0l2.3.8a22.7,22.7,0,0,0-3-.3c-.7,1.5-.7,1.5-.7,1.7a1.5,1.5,0,0,0-.1.7A6.2,6.2,0,0,1,44.1,43.9Z"/><path class="cls-2" d="M43.9,38.8l.8,2.9a.5.5,0,0,1-.7.2l-1.1-3.1Z"/><path class="cls-1" d="M43.9,38.8l.5,1.7c-.3.2-.5.3-1-.2l-.5-1.5Z"/><path class="cls-3" d="M47.3,34.4a3,3,0,0,1,.4,2.7,6,6,0,0,1-2.6,2.2s-.6.5-.9.5-.7,0-1.1-.5-.5-.6-.5-.8a13.1,13.1,0,0,1,.4-3.7C43.3,34.3,44.8,33.5,47.3,34.4Z"/><path class="cls-4" d="M47.8,33.8a2.9,2.9,0,0,1,.4,2.6,4.4,4.4,0,0,1-2.6,2.3,3.5,3.5,0,0,1-2-.1,2.5,2.5,0,0,1-1.2-1,10.3,10.3,0,0,1,1.2-3.5C43.9,33.6,45.4,32.8,47.8,33.8Z"/><path class="cls-5" d="M46,22a42,42,0,0,0,5.1-1.6,7.4,7.4,0,0,0,1.6-2.8c.1-.5.2-.9.5-1s.8.7,1,1a6.7,6.7,0,0,1,1.1,3.7c-.1,2.2-.1,4.5-.1,7.1"/><path class="cls-6" d="M52,32.8a5.9,5.9,0,0,1-.5,2.3,8.8,8.8,0,0,1-2.4,3.2c-.8.7-3,.5-7-1.2l-1.4-.6h-.2l-2.6-1.3-.6-.3S50,26,51.6,29.8l.3,1a4.5,4.5,0,0,1,.1,1.1A1.4,1.4,0,0,1,52,32.8Z"/><path class="cls-3" d="M55.2,27.8v.9c.2,3.2-1,5-3.7,6.4a30.2,30.2,0,0,1-5.3,1.7,13.9,13.9,0,0,1-4.1.3,15.9,15.9,0,0,1-5.4-1.3,11.8,11.8,0,0,1-1.9-1.1A7.2,7.2,0,0,1,32,31c-.1-.4-.1-.8-.2-1.1l-.2-1.5a19.1,19.1,0,0,1,.5-4.2,4,4,0,0,0,0-1.9,3.6,3.6,0,0,0-1-1.9,2.3,2.3,0,0,1,.6-2,3.6,3.6,0,0,1,1.5-.6c1.7-.2,2.6.3,3.5,2.7s.6,2.8,2.9,2.9h.3c1.3,0,2-.5,3.4-1A47.1,47.1,0,0,1,49,21"/><path class="cls-7" d="M33.4,19.6c.1.2,0,.3-.2.4s-.4.1-.5-.1,0-.3.2-.4A.4.4,0,0,1,33.4,19.6Z"/><path class="cls-8" d="M33.3,19.6c.1.2,0,.3-.1.4s-.4,0-.4-.1a.2.2,0,0,1,.1-.3C33.1,19.5,33.3,19.5,33.3,19.6Z"/><path class="cls-7" d="M33.2,19.7a.1.1,0,0,1-.1.1h.1Z"/><path class="cls-9" d="M30.9,20.2a2.5,2.5,0,0,0-.1,1.4c0,.2.2.2.2.1a1.6,1.6,0,0,1,1.4-.9c.4,0,.5-.1.3-.2S31,19.9,30.9,20.2Z"/><path class="cls-10" d="M31.8,20.3a.4.4,0,0,1-.1.3h-.3c-.1,0,0-.1.1-.2Z"/><path class="cls-11" d="M51.5,35.1a8.8,8.8,0,0,1-2.4,3.2c-.8.7-3,.5-7-1.2a15.9,15.9,0,0,1-5.4-1.3,12.5,12.5,0,0,0,4,.7c1.1,0,1.9-.2,2.1-.5,2.9,1.2,4.9.1,4.9-.8,3,0,4.3-1.5,4.2-2.4H52c1.5-.4,2.9-1.5,3.2-4.1C55.4,31.9,54.2,33.7,51.5,35.1Z"/><path class="cls-12" d="M34.5,18.4c-.3.1-.6-.1-1-.1a1.8,1.8,0,0,0-1.4.4,2.2,2.2,0,0,0-.7,1.2l-.2.2c-.3.1-.1-1.1-.1-1.2s.1-.4.3-.5.5-.1.5-.4-.1-.4.1-.5h.4c.2,0,.2-.1.2-.3a.3.3,0,0,1,.4-.3h.2c0,.1.2.1.3.1s.2-.3.4-.4.3.2.4.4.2,0,.3-.1h.1c.1,0,.2-.1.4,0S35.1,18.1,34.5,18.4Z"/><path class="cls-13" d="M34.5,18.4c-.3.1-.6-.1-1-.1a1.8,1.8,0,0,0-1.4.4,2.2,2.2,0,0,0-.7,1.2A1.9,1.9,0,0,1,33.2,18c1.4-.1,2-.4,1.7-.9s-.2-.2-.3-.2h.1c.1,0,.2-.1.4,0S35.1,18.1,34.5,18.4Z"/><path class="cls-14" d="M41.3,28a23.4,23.4,0,0,1,7.9-3.1c3.7-.5,4.4,1.1,4.4,1.1s.5.8-.8,1a4.5,4.5,0,0,1-.6,2.8,7.9,7.9,0,0,1-10.6.9A1.9,1.9,0,0,1,41.3,28Z"/><path class="cls-15" d="M40.9,28.2a9.2,9.2,0,0,1,2-1.2s8.2-3.7,8.9-1.2c.2.6-.7,1.4-1.6,1.8s.9,1.3-.2,2.4-3.5,3.1-8.1.9l-.4-.3C41,30.3,40.1,29.1,40.9,28.2Z"/></g></g></svg>