<svg xmlns="http://www.w3.org/2000/svg" viewBox="0 0 91 101"><defs><style>.cls-1{fill:#5b352c;}.cls-15,.cls-2{fill:#724e47;}.cls-2,.cls-9{stroke:#5b352c;stroke-width:0.3px;}.cls-10,.cls-13,.cls-14,.cls-2,.cls-5,.cls-8,.cls-9{stroke-miterlimit:10;}.cls-3{fill:#472922;}.cls-14,.cls-4{fill:#f0e8e5;}.cls-10,.cls-5{fill:#4e342e;}.cls-5,.cls-8{stroke:#000;stroke-width:0.04px;}.cls-6{fill:#774d43;}.cls-7{fill:#4c2822;}.cls-8{fill:#e7792a;}.cls-9{fill:#855d52;}.cls-10,.cls-13,.cls-14{stroke:#422825;}.cls-10,.cls-13{stroke-width:0.04px;}.cls-11{fill:#3e2723;}.cls-12{fill:#422825;}.cls-13{fill:#fff;}.cls-14{stroke-width:0.01px;}</style></defs><g id="Layer_7" data-name="Layer 7"><g id="Duck_poses_04_F_03_" data-name="Duck poses 04 ( F 03 )"><path class="cls-1" d="M74.3,38.2h.3a7.2,7.2,0,0,1,.1-2.1,15.5,15.5,0,0,0,.4,2.1,22.5,22.5,0,0,0,.8,2.4,3.5,3.5,0,0,1,.5.8c0,.1.2,0,.2,0a10.5,10.5,0,0,1-.5-3l.4.9a11.7,11.7,0,0,0,.8,3.6h.2a14.8,14.8,0,0,0,.1-2.1l.2-.2a11.4,11.4,0,0,0-.1,3.7,7,7,0,0,0,1-2.6c-.1,1.2-.2,2.5-.2,3.7s.1.1.1,0l.3-1.9v.6a12.5,12.5,0,0,1,.1,1.4,9.3,9.3,0,0,0,1.4-2.7,10.9,10.9,0,0,1,.1,1.8c0,.1.2.1.2,0s0-2,.1-3,.3-1.3.5-2.1l.3,3.3c0,.1.3.1.3,0,.2-2,0-5.9,0-6.3a25.3,25.3,0,0,1,.7,3.8,49.5,49.5,0,0,0-.8-6.6c-.4-2.1.2-4.4.1-6.5a11.2,11.2,0,0,0-1.6-5.5c-1.2-2.2-5.6-3.2-6.7-2.6l-2,.9c-1.3.8,4.2,1.5,4.4,2.4a10.6,10.6,0,0,1,0,5c-.3,1.8-.9,3.6-1.3,5.5a2.7,2.7,0,0,0,.6-1v.2c-.1.2-.1.4-.2.5A9.1,9.1,0,0,0,74.3,38.2Z"/><path class="cls-2" d="M72.5,51.6c-.5,1.5-2,3.7-3.8,8l-.9,2.1-.7,1.6c-.2.7.3,1.5,0,2.3s-.9.9-1.1,1.9a2.3,2.3,0,0,1-1.4.4,1.7,1.7,0,0,1-1.2-.4,1,1,0,0,1-.7-.7v-.3c.1-.6.9-.9,1.3-2.3s.9-2.7,1.2-3.8l.6-1.8,1.4-4.3c.4-1.5.4-2.3,0-2.7-6.6-6.5-4.1-21-4.1-21S70.5,20,74.4,23a38,38,0,0,1-1.5,13.7c-.3,1.4-.7,2.8-1.1,4.2s-.3,1.1-.4,1.6c-1.3,4.9-.2,5.5.6,6.3a2,2,0,0,1,.7,1.2A2.3,2.3,0,0,1,72.5,51.6Z"/><path class="cls-1" d="M63.4,65.8a4.6,4.6,0,0,0-1.7,2.5c-.3,1.3,3.6,2.9,4.3-.8C63.4,67.5,63.4,65.8,63.4,65.8Z"/><path class="cls-3" d="M65.8,68.2a2.3,2.3,0,0,1-4,.7A3.6,3.6,0,0,0,65.8,68.2Z"/><path class="cls-4" d="M67.1,65.6c-.3.7-.9.9-1.1,1.9a2.3,2.3,0,0,1-1.4.4l-1.2-.4-.7-1c.1-.6.9-.9,1.3-2.3s.9-2.7,1.2-3.8l.6-1.8,2.9,1-.9,2.1-.7,1.6C66.9,64,67.4,64.8,67.1,65.6Z"/><path class="cls-1" d="M33.2,77.8c-.1.2-.1.4-.2.6-.9,2.8-4.2,1.5-4.1.3a5.1,5.1,0,0,1,1.7-2.6A3.5,3.5,0,0,0,33.2,77.8Z"/><path class="cls-5" d="M37.2,61.3c-.3,1.3-.9,1.4-1.3,2.9s-1,3.5-1.7,7.4a4.3,4.3,0,0,1-.2,1.2c0,.5.6,1.2.4,2.3s-1.1.4-1.2,2.7c0,0-2.2,1.3-3.3-.6s1.2-1.4,1.6-3.2l.3-1.6c.1-.4.1-.8.2-1.2a36.3,36.3,0,0,0,.6-6.6c0-1-.5-1.4-.4-2.5s.8-1.5,1.1-3.4c.8-5.1-1.3-11.4,1.5-15.7l6.3-.4S39.3,51,37.4,58.8C37.2,59.7,37.6,59.9,37.2,61.3Z"/><path class="cls-2" d="M37.2,61.3c-.3,1.3-1,1.4-1.3,2.9s-.8,3.1-1.4,6.2l-.3,1.3a4.3,4.3,0,0,1-.2,1.1c0,.5.6,1.2.4,2.3s-1.1.4-1.2,2.7c0,0-2.2,1.3-3.3-.6s1.2-1.4,1.6-3.2l.3-1.6c.1-.4.1-.8.2-1.2s.1-.6.2-.9a39.8,39.8,0,0,0,.4-5.7c0-1-.5-1.4-.4-2.5s.8-1.6,1.1-3.4c.8-5.1-1.3-11.4,1.5-15.7l6.3-.4S39.3,51,37.4,58.8C37.2,59.7,37.6,59.9,37.2,61.3Z"/><path class="cls-3" d="M33,78.4a2.3,2.3,0,0,1-4,.8A3.6,3.6,0,0,0,33,78.4Z"/><path class="cls-4" d="M33.2,77.8s-2.2,1.3-3.3-.6,1.2-1.4,1.6-3.2l.3-1.6c.1-.4.1-.8.2-1.2s.1-.6.2-.9h2.3l-.3,1.3a4.3,4.3,0,0,1-.2,1.1c0,.5.6,1.2.4,2.3S33.3,75.5,33.2,77.8Z"/><path class="cls-6" d="M11,27h-.3c-1.9-.2-2.1-2.7-.9-4.8l.7-.9c.1-.2.5-.1.5.1C11,24.6,13.9,27,11,27Z"/><path class="cls-7" d="M10.7,27c-1.9-.2-2.1-2.7-.9-4.8a7.6,7.6,0,0,0,.8,4.2A1.3,1.3,0,0,1,10.7,27Z"/><path class="cls-8" d="M11.2,34.7c0-.1-.1-.1-.2-.2l-.8-1.1"/><path class="cls-9" d="M9.5,29.3a5.8,5.8,0,0,1,.3-1.4h.1A15.7,15.7,0,0,1,12,24h0l.5-.5c.1-.1.2-.2.2-.3h.6c1.5-.3,5.6-.5,14.3,4.8,3.8,2.3,7,3.2,9.9,3.1a18.7,18.7,0,0,0,7.6-2c8.6-3.9,9.5-9.6,16.3-12.4,4.3-1.7,8.7-1.6,12.2,1.1a11.4,11.4,0,0,1,2.2,2.2l.6.7a3.5,3.5,0,0,1,.5.8l.4.5a15.8,15.8,0,0,1,1.3,2.6l.2.4h0v.2h0a10.7,10.7,0,0,1-.7,6.8h0a18.3,18.3,0,0,1-1.4,2.8l-1.3,2-2,2.3h-.2l-.3.3-1.1.9c-1,.7-1.8.9-2.1.4h0c-.1-.1-.1-.3-.2-.4a.1.1,0,0,1-.1-.1h-.2a.1.1,0,0,1-.1-.1h-.3a2,2,0,0,0-1,.2h-.3c-.2.1-.3.3-.4.4l-.4.5-.4.5-.2.2h-.2c0,.1,0,.1-.1.1l-.3.4h0a.1.1,0,0,1-.1.1c0,.1,0,.1-.1.1s-.1.1-.1.2H65l-.3.3-.5.6-.3.3h0a4.6,4.6,0,0,1-.7.7c0,.1-.1.2-.2.3h0a.1.1,0,0,0-.1.1l-.3.3h0l-.4.4-.3.3a4.6,4.6,0,0,0-.7.7h0l-.3.3h0l-.4.3-.3.3-1,.9h0l-1.1.9-.4.4a.2.2,0,0,0-.2.2l-.9.6c-.1.1-.2.1-.2.2l-.5.3-.7.5c-1.4.9-2.7,1.8-4.2,2.6h-.7c-.1.1-.2.1-.2.2l-.5.2-.4.2-.4.2-.9.4h0l-5,1.8h0l-1.1.3h-.1a26,26,0,0,1-4,.5H35l-1.4-.2a.1.1,0,0,1-.1-.1H30.9l-.9-.4h-.3l-.4-.2H29a.1.1,0,0,0-.1-.1c-.1-.1-.2-.1-.2-.2h-.3a.1.1,0,0,0-.1-.1.1.1,0,0,1-.1-.1H28a.1.1,0,0,1-.1-.1h-.2c-.1-.1-.2-.1-.2-.2h-.2l-.7-.6h-.1l-.2-.2h-.1l-.5-.5c-.1-.1-.2-.2-.2-.3s-.1,0-.1-.1H25l-.2-.2c0-.1-.1-.1-.1-.2l-.5-.6H24a1,1,0,0,0-.4-.5h0c-2.8-3.9-3-5.8-3.3-7.5s-.6-3-3.8-5.7l-1.1-.5"/><path class="cls-9" d="M23.8,31.9c0,.1,0,.2-.1.2a17.4,17.4,0,0,1-1.6,3.4c-1.8,3.2-6.6,3.3-9.1,4.9-.1,0-.2,0-.2.1a3.2,3.2,0,0,0-1,1c-.4.7-.3,1.4-1.6,1.9a10.1,10.1,0,0,1-3.1.4,6,6,0,0,1-3.9-1.5,2.5,2.5,0,0,1-.7-2.1A5.3,5.3,0,0,1,4,38.5c0-.1.1-.1.1-.2l.8-.8a12.6,12.6,0,0,0,2.5-7.3c0-2.1.8-2.9,2.5-4.1s2.5-3.3,7.5-3.2l2.4.2C24.3,23.8,25.5,27.3,23.8,31.9Z"/><path class="cls-10" d="M15,31.8s-.1,1.4-.9,1.5-1-.2-1.5.2a6.4,6.4,0,0,0,.2-.7,1.9,1.9,0,0,1,.7-1.3,1.2,1.2,0,0,1,1.4.2Z"/><path class="cls-11" d="M14.9,31.7a1.3,1.3,0,0,1-1,1.4,1.1,1.1,0,0,1-1.1-.3,1.9,1.9,0,0,1,.7-1.3A1.2,1.2,0,0,1,14.9,31.7Z"/><path class="cls-12" d="M14.9,31.7a2.1,2.1,0,0,1-.4,1.1,1.1,1.1,0,0,1-1.1.3h-.5a.1.1,0,0,1-.1-.1c.1-.2.1-.4.2-.5a1.2,1.2,0,0,1,.8-.9,1.4,1.4,0,0,1,1.1.3h0a1.1,1.1,0,0,0-1.3-.2.9.9,0,0,0-.6.6,1.9,1.9,0,0,0-.2.7h0a1.4,1.4,0,0,0,1.5.1,1.6,1.6,0,0,0,.6-1.3Z"/><path class="cls-13" d="M14.4,31.9c.1.1,0,.3-.2.3s-.3-.1-.3-.2,0-.3.2-.3Z"/><path class="cls-14" d="M6.3,36.4a16.2,16.2,0,0,0,1.9-3.7c.5-1.4.4-3.8,1.9-4.8s2.9-.3,3,1.1a3.7,3.7,0,0,1-1.3,2.8,10.5,10.5,0,0,0-2.3,2.4A10.2,10.2,0,0,0,8.2,37c-.3.8-.6,1.8-1.6,2s-1.5,0-1.5-.8.7-1.2,1-1.6Z"/><path class="cls-11" d="M6.4,39.7a.2.2,0,0,1,.2-.2.2.2,0,0,1,.3.1c.7.7,1.1,2.1-.1,2.3s-1.6-.5-1-1.1A1.4,1.4,0,0,0,6.4,39.7Z"/><path class="cls-11" d="M3.9,39a1.2,1.2,0,0,0-.3,1.2c.1.6-.5.9-1.1.6a10.6,10.6,0,0,1,1.4-2.1A.2.2,0,0,1,3.9,39Z"/><path class="cls-1" d="M38.5,32a5.9,5.9,0,0,0-1.9-1.1h.2c.6.7,1.8,1.7,1.7,2.6h0A4.5,4.5,0,0,0,37,31.7a3.9,3.9,0,0,1,.2,1.2,3.2,3.2,0,0,0-1.9-1.5,5.8,5.8,0,0,1,2.4,3.4c0,.1-.1.1-.2,0a6.2,6.2,0,0,0-2.8-3.2l-.6-.3.3.7a7.6,7.6,0,0,1,.6,2,9.1,9.1,0,0,1,.1,2.3c0,.1-.1.1-.1,0s-.3-1.7-.5-2.5a.7.7,0,0,1-.1.5,9.8,9.8,0,0,1-.2,3.4h-.1a7,7,0,0,0,.1-2.5,3.6,3.6,0,0,0-.4-.9.6.6,0,0,0,.1.4v.2c.1.1,0,.1,0,0a5.4,5.4,0,0,1,0,1.8h-.1a17.6,17.6,0,0,0-.7-3.3l-.6-.5c.1.2.3.4.3.6a2.5,2.5,0,0,1,.3,1,6.4,6.4,0,0,1-1.1-.9l.7,1.1h0a10.7,10.7,0,0,0-1.8-1.9,3.3,3.3,0,0,1-.4,1.7.1.1,0,0,1-.1-.1,5.2,5.2,0,0,0,.2-1.1c-.1.3-.1.7-.2,1.1a6.8,6.8,0,0,1-1.1,3,.1.1,0,0,1-.1-.1,5.4,5.4,0,0,0,.7-2.7h0l-.3-.8v-.2a13.7,13.7,0,0,1-.7,2.4c0,.1-.1.1-.1,0l.3-1.4-.5.9a10.5,10.5,0,0,1-.8,2.9h-.1c.1-.7.3-1.4.4-2a.3.3,0,0,0-.1.2,3.7,3.7,0,0,0-.2-1.2c0,.5-.1,1-.1,1.5s-.2.1-.2,0a7,7,0,0,0,.1-2.5l-.3-.7a3.9,3.9,0,0,1,0,1.2,11.9,11.9,0,0,0-.6-1.4l-.6-1a5,5,0,0,1,.5,1.3c.1,0,0,.1-.1,0a2,2,0,0,0-.4-.8,5.7,5.7,0,0,1,.3,2.9.1.1,0,0,1-.1-.1,6.3,6.3,0,0,0-.5-2.6l.3,1.3a.1.1,0,0,1-.1.1,13.2,13.2,0,0,0-1.9-4.6,17.4,17.4,0,0,1,1.3,3.6h-.1A15.9,15.9,0,0,0,23.5,30a4.3,4.3,0,0,1,0,1.6h-.1c0-.3-.1-.5-.1-.8A30.1,30.1,0,0,1,22.2,34s-.2,0-.1-.1.3-1,.5-1.6h0c.1-.5.1-1,.2-1.5a11.8,11.8,0,0,1-.7,2,6.4,6.4,0,0,1-.8,1.9c-.1,0-.1,0-.1-.1a6.8,6.8,0,0,0,.8-2.4,3,3,0,0,1-.4,1c-.1.1-.2,0-.2-.1s.1-.2.1-.3h0c0-.5.1-1,.1-1.5a14.6,14.6,0,0,0-.7-1.9,5.9,5.9,0,0,1,.2,1.3,7.2,7.2,0,0,1-.8-1l-.5-.7a14.2,14.2,0,0,1,.8,1.8h-.1l-1.2-2.2a10,10,0,0,1,1,2.9h-.1l-1.1-2.2c0-.1-.1-.2-.1-.3a4.3,4.3,0,0,1,.4,3.3c0,.1-.1.1,0,0a8.1,8.1,0,0,0-1.2-4.2,10.9,10.9,0,0,1,.4,2.5h0c-.4-1.1-.7-2.2-1.1-3.3l-.3-.5-.5-.7a7.3,7.3,0,0,1-.8,3.3c0,.1-.1.1-.1,0a5.7,5.7,0,0,0,.4-2.9v-.4a1.9,1.9,0,0,1-.2.8,7.4,7.4,0,0,1-.8,2.9h-.1a11.6,11.6,0,0,0,.4-1.8h0c0-.5-.1-1-.1-1.4a.1.1,0,0,1-.1-.1,8.7,8.7,0,0,1-.1,2.3h-.1a7,7,0,0,0-.1-2.9l-.5-.5a.6.6,0,0,1,.1.4,2.1,2.1,0,0,1,0,.9l-.6-.6a2.9,2.9,0,0,1,.2.9h0l-.9-1.8-.2-.2a2.8,2.8,0,0,1,.4,1.3h0a7.2,7.2,0,0,0-.9-2l-.5-.8-.8-1-.3-.4h1.9c1.4-.4,2.6-.9,4.1-.2h.2a3.5,3.5,0,0,1,1.7.2.1.1,0,0,1-.1.1,2.9,2.9,0,0,0-1.3-.1l.9.7h.2c1.5-.4,3.4.3,4.7.9s0,.2-.1.2a6.4,6.4,0,0,0-3.8-.8l1.3.4c1.3-.1,3.1,1,4.3.7h0c-1,.3-2.1-.2-3.1-.4l2.1.9a5.2,5.2,0,0,1,4,1.2c0,.1-.1.2-.1.1a3.6,3.6,0,0,0-2.8-1l1.6.7.9.8,1.2.5c.7.2,1.6-.1,2.1.4s0,.1,0,.1a6.2,6.2,0,0,0-1.9-.1l1.1.5A5.1,5.1,0,0,1,33.6,29a4.5,4.5,0,0,1,2.5,1.1l.2.2c.6.1,1.2,0,1.7.4H37a4,4,0,0,1,1.6,1.2A.1.1,0,0,1,38.5,32Zm-7.8-3.8,2.1.8A4.9,4.9,0,0,0,30.7,28.2Zm-5.8-3,1.2.6.8.5h.2a3.5,3.5,0,0,0-.9-.7Zm-8.5-3,1.2.3-.6-.4Zm-2.9-.3,2.2.2,1-.2a3.7,3.7,0,0,0-2.1-.3Z"/><path class="cls-15" d="M69.7,40.8c-.5-1.4-1.8-1.2-2.7-.1C60.1,49.1,52.6,55,42.1,58a16,16,0,0,0,.9-4.4c0-2.1,8.4,5.4,20.7-11,2.6-3.3,2-7.9,3.7-8.4C70.9,33.1,69.9,41.9,69.7,40.8Z"/><path class="cls-6" d="M13.8,22.4c0-.2.3-.3.5-.1,1.8,1.9,2,5.9-.5,5.9-.9,0-1.1-.7-1.1-1.3S13.7,24,13.8,22.4Z"/><path class="cls-7" d="M14.2,22.8c.2,2.4-1.1,4.4,0,4.4S15.3,24,14.2,22.8Z"/><path class="cls-1" d="M47.2,79.1a4.3,4.3,0,0,0-.1,3c.5,1.3,4.5.5,3.1-2.9A3.1,3.1,0,0,1,47.2,79.1Z"/><path class="cls-9" d="M40,49.5c1,3.1,2.5,7.3,3.8,11.4.3.8.8.8,1.2,2.1s-.1,1.7.4,3.2.7,2.3,1.4,4.2a18.6,18.6,0,0,0,.9,2.4c.2.5.4,1.1.7,1.7s1.1.7,1.5,1.7-.8,1,.3,3a2.8,2.8,0,0,1-1.4,1.3,1.8,1.8,0,0,1-1.6-.1c-.7-.4.3-1.8-.4-3.5s-.8-2.2-1.2-3.2a20,20,0,0,0-1-2.1,29.2,29.2,0,0,0-1.8-3.3c-.6-.8-1.2-1-1.6-1.9s-.2-1.8-.9-3.5c-1.5-3.5-4.6-6.7-6.1-10.2"/><path class="cls-3" d="M50.4,79.8a2.2,2.2,0,0,1-2.9,2.7A3.3,3.3,0,0,0,50.4,79.8Z"/><path class="cls-4" d="M50.2,79.2a2.8,2.8,0,0,1-1.4,1.3,1.8,1.8,0,0,1-1.6-.1c-.7-.4.3-1.8-.4-3.5s-.8-2.2-1.2-3.2a20,20,0,0,0-1-2.1l2.2-1.2a18.6,18.6,0,0,0,.9,2.4c.2.5.4,1.1.7,1.7s1.1.7,1.5,1.7S49.1,77.2,50.2,79.2Z"/><path class="cls-1" d="M88.6,64.9c.1,0,.1-.1,0-.1Z"/><path class="cls-1" d="M80.2,66.3a4.4,4.4,0,0,0-.3,3c.4,1.3,4.5.9,3.4-2.6A2.5,2.5,0,0,1,80.2,66.3Z"/><path class="cls-9" d="M63.4,35.4s.4,1.2,1.2,3L65.9,41h0l.9,1.5.2.3a6.1,6.1,0,0,0,.7,1l.3.6c.1.1.1.2.2.2l.4.6,1.8,2.2a10.7,10.7,0,0,0,1.9,1.8l.6.5.3.2.3.2h.2l.2.2h.2l.3.2h0l.3.2,1,.4a2,2,0,0,0,.8.4H77a.1.1,0,0,0,.1.1c.6.1.9.7,1.2,2.3a.9.9,0,0,1,.1.5.6.6,0,0,1,.1.4.3.3,0,0,1,.1.2v.2c0,.1,0,.2.1.2a1.5,1.5,0,0,0,.1.7v.3a.4.4,0,0,1,.1.3l.3,1.6v.2a2,2,0,0,0,.1.7v.3c.1.1.1.1.1.2s.5,2.6.9,4.4c0,.2,0,.5.1.6v.2h0c0,.2-.1.3-.1.4h0v.3a2.5,2.5,0,0,0-.1.8h0c0,.1,0,.1.1.2h0c0,.1,0,.1.1.1l.4.3h1.3a3.2,3.2,0,0,0,1.5-3.4c-.2-.7-.9-1.3-1-2a1.7,1.7,0,0,1-.1-.7c0-.1-.1-.3-.1-.4v-.5c0-.1-.1-.2-.1-.4h0v-.4c0-.2-.1-.3-.1-.4v-.2h0v-.6a.3.3,0,0,1-.1-.2v-1a.3.3,0,0,0-.1-.2V56a.6.6,0,0,1-.1-.4v-.2h0V53.6a1.3,1.3,0,0,1-.1-.6V50.2a.1.1,0,0,0-.1-.1h0v-.2a1.3,1.3,0,0,0-.1-.6h0v-.2a1.4,1.4,0,0,1-.2-.6h-.2a.1.1,0,0,0-.1-.1h-.3l-.2-.2h-.5a5.9,5.9,0,0,1-1.4-.6h-.1l-.3-.2v-.2l-.3-.2c0-.1,0-.1-.1-.2s-.1-.1-.1-.2v-.2c-.1,0-.1,0-.1-.1v-.2l-.3-.6c0-.1-.1-.2-.1-.3s-.6-2-.7-2.4.2-5.6,1.9-10.7a10.2,10.2,0,0,0,.6-2.3"/><path class="cls-3" d="M83.4,67.3a2.3,2.3,0,0,1-3.2,2.5A3.4,3.4,0,0,0,83.4,67.3Z"/><path class="cls-4" d="M82.3,59.1h0v.2a.6.6,0,0,0,.1.4v.4h0v.4c.1.1.1.2.1.4v.4a2.2,2.2,0,0,1,.1.8c.1.7.9,1.2,1,2s-.4,1.2-.1,2.2a2.4,2.4,0,0,1-1.4,1.2H80.7l-.4-.3h-.1c0-.1,0-.1-.1-.2h0a3.1,3.1,0,0,1,.2-.8v-.3h0v-.4h0v-.8c-.4-1.8-.6-3.2-.8-4.4Z"/></g></g></svg>