<svg id="Layer_1" data-name="Layer 1" xmlns="http://www.w3.org/2000/svg" xmlns:xlink="http://www.w3.org/1999/xlink" viewBox="0 0 140.3 103.8"><defs><style>.cls-1{opacity:0.8;}.cls-2{fill:#d0e8ec;}.cls-11,.cls-3{fill:#efb49a;}.cls-3,.cls-4{stroke:#9e4d2d;stroke-miterlimit:10;}.cls-4{fill:url(#linear-gradient);}.cls-5{fill:url(#linear-gradient-2);}.cls-6{fill:#933d18;}.cls-7{fill:#231f20;}.cls-8{fill:#d82e2a;}.cls-9{fill:#b22424;}.cls-10{fill:#ef4136;}</style><linearGradient id="linear-gradient" x1="4.62" y1="69.62" x2="124.66" y2="69.62" gradientTransform="translate(0.9 -20) rotate(1.2)" gradientUnits="userSpaceOnUse"><stop offset="0.19" stop-color="#ffd"/><stop offset="0.26" stop-color="#fff6d8"/><stop offset="0.41" stop-color="#ffe8cf"/><stop offset="0.54" stop-color="#ffe3cc"/><stop offset="0.67" stop-color="#ffe8d2"/><stop offset="0.83" stop-color="#fff8e3"/><stop offset="0.89" stop-color="#ffffea"/></linearGradient><linearGradient id="linear-gradient-2" x1="20.28" y1="28.58" x2="34.31" y2="28.58" gradientTransform="translate(0.9 -20) rotate(1.2)" gradientUnits="userSpaceOnUse"><stop offset="0.14" stop-color="#ffe3cc"/><stop offset="0.3" stop-color="#ffddc9"/><stop offset="0.51" stop-color="#ffccbf"/><stop offset="0.52" stop-color="#ffccbf"/><stop offset="1" stop-color="#ffe3cc"/></linearGradient></defs><g class="cls-1"><ellipse class="cls-2" cx="90.2" cy="86.2" rx="9" ry="24.3" transform="translate(0.1 172.6) rotate(-87.5)"/></g><path class="cls-3" d="M84,46.2s-12-13.9-1.5-31c0,0-11,7-11.2,17.8a20,20,0,0,1,1.9-19.4S56.4,25.5,68.8,48.1Z"/><path class="cls-3" d="M118,53.2c1-1.2,2.8-1.4,4.5-1.7,5.6-1.9,9.3-3.9,13.5-8.3-.7,4.5-2.3,9-5.7,12.3.9-.9,2.8-1.4,3.7-2.3,0,3-2.3,5.5-4.5,7.1l1.4-1c-.6,4.3-6.4,6.9-9.9,8.4,0-3.6,2.7-11.3-1.1-13.5Z"/><path class="cls-4" d="M115.2,47.9a47.1,47.1,0,0,0-29.3-7.6c-7.5.6-14.4,3.6-21.7,4.7a12.4,12.4,0,0,1-1.9-2.6,33.9,33.9,0,0,1-2-5.3C58.9,32.5,59,27.2,56.5,23A24.7,24.7,0,0,0,42.2,12.3a34.1,34.1,0,0,0-14.9-.6c-6.3,1.1-9.4,3.9-13.2,8.7s-3.7,7.7-4.7,11.9-2,7-3.9,9.7-1.8,1.8-1.2,3.7A13.8,13.8,0,0,0,7,50.2a33.1,33.1,0,0,0,8.9,7.3C23.3,62,29.5,64,36.8,63.8c2.3,4.2,8.7,9.7,11.1,12.1,14.1,11.5,41.5,19.2,58.4,12a29.1,29.1,0,0,0,16-16.5C125.4,62.7,123.8,53.9,115.2,47.9Z"/><path class="cls-5" d="M33.6,11.3C29.9,7.7,24,8,20.7,3.5c-.6,2.2,1.5,4.4,3.4,5.9l-3-1.3c.1,1.2,1.4,2.2,2.6,3.1a8.8,8.8,0,0,1-3-.8c2.4,7.2,8.5,2.8,13.7,3.4Z"/><path class="cls-6" d="M33.6,11.3C29.7,8,23.6,8.2,20.4,3.7h.7c-.5,2.2,1.6,4.1,3.2,5.4l2.1,1.6-2.5-.8a13.6,13.6,0,0,1-3-1.3l.7-.4c.1,1.1,1.4,2,2.3,2.7l1.2.8H23.7a6.3,6.3,0,0,1-3.3-.9l.7-.5A6.5,6.5,0,0,0,23,13.3c3.4,2.3,7.7-.3,11.5.4l-.2.2-.7-2.6Zm0,0,1,2.5h0c-4-.5-8.3,2.5-12.1.1a9.4,9.4,0,0,1-2.7-4.6,7.9,7.9,0,0,0,3.9,1.3l-.3.8c-1.2-.8-2.7-1.8-2.8-3.4V7.2a14.9,14.9,0,0,0,3.6,1.7l-.4.8a9.2,9.2,0,0,1-3.5-4.3,4.9,4.9,0,0,1,.3-2.9l.5.7c2.9,4.4,9,4.4,12.5,8.1Z"/><path class="cls-7" d="M32.2,38.7a5.2,5.2,0,0,1-.2,1.7c-.4,1.7-1.5,2.8-2.4,2.6s-1.4-1.8-.9-3.5c0-.2,0-.3.1-.4Z"/><path class="cls-7" d="M12.1,35.6v.3c-.1,1.7-1,3-1.9,2.9s-1.6-1.6-1.5-3.2a7.4,7.4,0,0,1,.5-1.9Z"/><path class="cls-8" d="M28.4,47.1c-.9,3.3-8.7,5.8-11.7,7.8-8.1,6.2-8.1-8.5-5-12.7,5.6,2,11.2,2.9,16.7,4.9Z"/><path class="cls-9" d="M22.6,46.9c-1.6,2.8-6.1,3.2-8.5,5.5a50,50,0,0,1,.1-6.7c3,.6,5.3,1.7,8.3,1.2Z"/><path class="cls-10" d="M4.9,38.1c1.3-2.5,3.3,0,5.9,0s5.1-2.3,7.9-1.9,6.5,2.8,6.2,5.9c4.2,2.4,6.1,6.1-.8,6.5C20.8,48.6,2,43.6,4.9,38.1Z"/><path class="cls-11" d="M62.3,43.3S82.6,56.7,44.7,62.8C44.7,62.8,64.1,57,62.3,43.3Z"/><path class="cls-3" d="M82.8,54.8s21-8.9,19.3-29.8c0,0,4.2,8,1.7,20.9,0,0,11.7-9.1,10.6-22.8,0,0,2.7,9.4-4.1,23,0,0,10.2-7.7,11.9-19.9C122.2,26.2,112.4,84.2,82.8,54.8Z"/></svg>