<svg xmlns="http://www.w3.org/2000/svg" viewBox="0 0 84 66"><defs><style>.cls-1{fill:#f9a529;}.cls-2{fill:#fdf6e1;}.cls-3{fill:#f68e1e;}.cls-4{fill:#f5b46d;}.cls-5{fill:#ffdfad;}.cls-6{fill:#fbcea1;}.cls-7{fill:#87babe;}.cls-8{fill:#434343;}.cls-9{fill:#fff;}.cls-10{fill:#f37c20;}.cls-11{fill:none;stroke:#f4b46d;stroke-miterlimit:10;stroke-width:0.3px;}</style></defs><g id="Layer_67" data-name="Layer 67"><g id="Duck_poses_06_F_01_" data-name="Duck poses 06 ( F 01 )"><path class="cls-1" d="M50.2,41.7s1.3,1.4,1,1.8-1.4-.7-1.4-.7Z"/><path class="cls-1" d="M41.4,42.7a65.3,65.3,0,0,1,8.3,2.7c.5.3.9-.4.8-1.2s.3-3.6.3-4.9a1.7,1.7,0,0,0-.6-1.8s-1.7-1.5-1.6-.6a13.6,13.6,0,0,1,.2,2.1c0,1.4,0,2.7-.1,3.6L47,39.3l-.4.4a3.4,3.4,0,0,1-2.4.6l-.6-.2c0,.2,0,.3-.1.4a3.3,3.3,0,0,1-1.6,1.7l-.5.5"/><path class="cls-2" d="M40.7,42.4c.3-.6,1.3-.4,1.2,0s-.7-.1-1.2,0"/><path class="cls-2" d="M42.9,40c.5-.4,1.5.2,1.1.4s-.4-.2-1.1-.4"/><path class="cls-2" d="M46.2,38.8c.6-.2,1.2.6.8.8s-.3-.4-.8-.8"/><path class="cls-3" d="M41.9,42.2c1.9.3,5.9,1.9,6,1.6s-3.9-2.9-4.4-3.3a3.3,3.3,0,0,1-1.6,1.7"/><path class="cls-3" d="M44.1,40.3c1.4.8,4.1,3,4.3,2.9s-1.5-2.4-1.8-3.5a3.4,3.4,0,0,1-2.4.6Z"/><path class="cls-3" d="M48.6,36.9a13.6,13.6,0,0,1,.2,2.1,4.6,4.6,0,0,0,2,.3,1.7,1.7,0,0,0-.6-1.8s-1.7-1.5-1.6-.6"/><path class="cls-1" d="M41.9,46.6S43.2,48,43,48.4s-1.4-.7-1.4-.7Z"/><path class="cls-1" d="M33.1,47.4a60.5,60.5,0,0,1,8.2,2.7c.6.3,1-.3.8-1.2s.3-3.6.4-4.9a1.8,1.8,0,0,0-.6-1.8s-1.7-1.5-1.6-.6.1,1.4.2,2.1a18.4,18.4,0,0,1-.2,3.6L38.7,44l-.4.4a3.4,3.4,0,0,1-2.4.6l-.6-.2c0,.2-.1.3-.1.5a3.3,3.3,0,0,1-1.7,1.6c-.2.2-.2.4-.4.5"/><path class="cls-2" d="M37.8,43.5c.7-.2,1.3.6.9.8s-.3-.3-.9-.8"/><path class="cls-3" d="M33.5,46.9c2,.4,6,1.9,6.1,1.6s-4-2.9-4.4-3.2a3.3,3.3,0,0,1-1.7,1.6"/><path class="cls-3" d="M35.8,45c1.4.8,4.1,3.1,4.3,2.9s-1.5-2.4-1.8-3.5a3.4,3.4,0,0,1-2.4.6Z"/><path class="cls-3" d="M40.3,41.6c.1.6.1,1.4.2,2.1a3.4,3.4,0,0,0,2,.3,1.8,1.8,0,0,0-.6-1.8s-1.7-1.5-1.6-.6"/><path class="cls-2" d="M32.4,47.1c.3-.5,1.3-.4,1.1,0s-.6,0-1.1,0"/><path class="cls-2" d="M34.6,44.7c.5-.4,1.5.2,1.1.5s-.4-.3-1.1-.5"/><path class="cls-4" d="M52.1,37S50,26.9,41.1,25.4c-5.4-.9,7.2,11.6,11,11.6"/><path class="cls-5" d="M30,34.3c.9,2.6,2.1,3.9,7.5,8.7s12.1.3,15.1-2.5h.2c2.6-2.4,2-2.9.3-3.3s-3-3.5-6.8-8.2c-2.3-2.8-4.3-3.1-6.5-4s-4-1.6-3.4-4.3,1.7-7.2-.3-9.1a4.9,4.9,0,0,0-1.8-1.1,5.5,5.5,0,0,0-5.1.6A2.7,2.7,0,0,0,28,12.6c-.1.8-.3,3.2.1,4l.8.7c.6.6,1.8,1,1.3,4.7s-.9,6.5-1,7a13.7,13.7,0,0,0,.8,5.3"/><path class="cls-4" d="M49.8,36.9c-1.9-2-9.5-10.2-12.8-10.3s-1.1,6.9,1.6,9.3,8.5,4,8.1,2.5.9.3,1.6.2.4-.6.8-.5,1.6-.2.7-1.2"/><path class="cls-6" d="M29.3,30.3c.4,4.4,1.7,6.9,7.6,12.1S48.8,43.9,52,41c.1-.1.2-.1.2-.2a.4.4,0,0,0-.1-.3c.3-1.2-14.6,7.5-22.8-10.2"/><path class="cls-6" d="M29.6,32.4c-.4-2.6.5-9.7,1.4-12.5s1.5-1.1,1.8-1.8-1.7.6-3.7-.7c.6.5,1.1,2.1.8,5.8s-1,6.6-.3,9.2"/><path class="cls-1" d="M30.4,13.8a.7.7,0,1,0,1.3-.2c-.1-1.1-1.4-.7-1.3.2"/><path class="cls-7" d="M30.5,13.7c.1.7,1.1.8,1-.1s-1-.5-1,.1"/><path class="cls-8" d="M30.8,13.7c0,.4.6.4.5-.1s-.6-.3-.5.1"/><path class="cls-9" d="M31,13.6c0,.1-.1.2-.2.1s-.2-.3-.1-.4.2-.2.3-.1a.3.3,0,0,1,0,.4"/><path class="cls-1" d="M25,16.5a12.3,12.3,0,0,1,3.7.1,4.1,4.1,0,0,1-.5-.9c-.5-1.1.3-1.9,1-2.7s-.5-1.6-1.1-.9H28a4.4,4.4,0,0,1-2.6,2.4c-1.8.7-2.1,2.3-.4,1.9"/><path class="cls-10" d="M25,16.5a12.3,12.3,0,0,1,3.7.1,4.1,4.1,0,0,1-.5-.9l-3.2.8"/><path class="cls-10" d="M26.8,14.6c.1.3-.6.5-.7.3s.6-.6.7-.3"/><path class="cls-11" d="M25,16.5a10.7,10.7,0,0,1,3.1,0h0l.8.7a1,1,0,0,0,.5.4c.4.8.7,2.4.5,5.5l-.3,3.1c-.2,1.5-.4,2.4-.4,2.7a13.7,13.7,0,0,0,.8,5.3c.9,2.6,2.1,3.9,7.5,8.7l.8.5h-.5c.4.3.3.8.5.9a3.5,3.5,0,0,1-2.4.6h-.1a.9.9,0,0,0-1.2-.3.9.9,0,0,1,.6.6,3,3,0,0,1-1.7,1.6h0c-.1-.3-.8-.4-1.1.1s.7.5.9.4a48.5,48.5,0,0,1,8,2.6c.6.3,1-.3.8-1.2v-.8c.3.3.7.6.9.3s-.5-1.2-.9-1.6l.3-2a9.2,9.2,0,0,0,2.9-.4l1.1-.2,3.3,1.2c.5.3.9-.4.8-1.2a2.8,2.8,0,0,1-.1-.9c.3.2.7.5.8.2s-.3-.9-.6-1.4l.9-.7,1.1-.9h.2c2.6-2.4,2-2.9.3-3.3L52,36.7c-.5-1.8-2.9-9.8-10.7-11.3l-1.5-.5c-2.3-.9-4-1.6-3.4-4.3s1.7-7.2-.3-9.1a4.9,4.9,0,0,0-1.8-1.1,5.5,5.5,0,0,0-5.1.6,3.4,3.4,0,0,0-.8.9l-.3.2H28a4.4,4.4,0,0,1-2.6,2.4C23.6,15.3,23.3,16.9,25,16.5ZM38.6,43.8a6.2,6.2,0,0,0,1.9.7,11.4,11.4,0,0,1-.2,2.8l-1.5-3.1A.4.4,0,0,0,38.6,43.8Z"/></g></g></svg>