<svg xmlns="http://www.w3.org/2000/svg" xmlns:xlink="http://www.w3.org/1999/xlink" viewBox="0 0 84 66"><defs><style>.cls-1{mask:url(#mask);filter:url(#luminosity-noclip-5);}.cls-2{mix-blend-mode:multiply;fill:url(#linear-gradient);}.cls-12,.cls-3{fill:#d6baa7;}.cls-3{stroke:#b79984;}.cls-10,.cls-18,.cls-19,.cls-3{stroke-miterlimit:10;}.cls-18,.cls-3{stroke-width:0.25px;}.cls-4{fill:#b79c83;}.cls-5{fill:#fff4d9;}.cls-18,.cls-6{fill:#fff6da;}.cls-7{fill:#e5c9b3;}.cls-8{fill:#d2d5d4;}.cls-9{mask:url(#mask-2);}.cls-10{fill:#fff;stroke:#4c2e19;stroke-width:0.1px;}.cls-11{fill:#1e1c1b;}.cls-13{fill:#1e1513;}.cls-14{fill:#fff48a;}.cls-15{mask:url(#mask-3);}.cls-16{mask:url(#mask-4);}.cls-17{mask:url(#mask-5);}.cls-18{stroke:#d1b597;}.cls-19{fill:none;stroke:#b29a8d;stroke-width:0.3px;}.cls-20{filter:url(#luminosity-noclip-4);}.cls-21{filter:url(#luminosity-noclip-3);}.cls-22{filter:url(#luminosity-noclip-2);}.cls-23{filter:url(#luminosity-noclip);}</style><filter id="luminosity-noclip" x="15.38" y="-7160" width="1.56" height="32766" filterUnits="userSpaceOnUse" color-interpolation-filters="sRGB"><feFlood flood-color="#fff" result="bg"/><feBlend in="SourceGraphic" in2="bg"/></filter><mask id="mask" x="15.38" y="-7160" width="1.56" height="32766" maskUnits="userSpaceOnUse"><g class="cls-23"/></mask><linearGradient id="linear-gradient" x1="-1171.05" y1="32.13" x2="-1171.65" y2="35.75" gradientTransform="translate(1187.3)" gradientUnits="userSpaceOnUse"><stop offset="0" stop-color="#fff"/><stop offset="1"/></linearGradient><filter id="luminosity-noclip-2" x="14.93" y="-7160" width="1.67" height="32766" filterUnits="userSpaceOnUse" color-interpolation-filters="sRGB"><feFlood flood-color="#fff" result="bg"/><feBlend in="SourceGraphic" in2="bg"/></filter><mask id="mask-2" x="14.93" y="-7160" width="1.67" height="32766" maskUnits="userSpaceOnUse"><g class="cls-22"/></mask><filter id="luminosity-noclip-3" x="19.42" y="-7160" width="4.59" height="32766" filterUnits="userSpaceOnUse" color-interpolation-filters="sRGB"><feFlood flood-color="#fff" result="bg"/><feBlend in="SourceGraphic" in2="bg"/></filter><mask id="mask-3" x="19.42" y="-7160" width="4.59" height="32766" maskUnits="userSpaceOnUse"><g class="cls-21"/></mask><filter id="luminosity-noclip-4" x="23.15" y="-7160" width="7.18" height="32766" filterUnits="userSpaceOnUse" color-interpolation-filters="sRGB"><feFlood flood-color="#fff" result="bg"/><feBlend in="SourceGraphic" in2="bg"/></filter><mask id="mask-4" x="23.15" y="-7160" width="7.18" height="32766" maskUnits="userSpaceOnUse"><g class="cls-20"/></mask><filter id="luminosity-noclip-5" x="15.38" y="30.29" width="1.56" height="4.84" filterUnits="userSpaceOnUse" color-interpolation-filters="sRGB"><feFlood flood-color="#fff" result="bg"/><feBlend in="SourceGraphic" in2="bg"/></filter><mask id="mask-5" x="15.38" y="30.29" width="1.56" height="4.84" maskUnits="userSpaceOnUse"><g class="cls-1"><path class="cls-2" d="M16.9,30.3a6.6,6.6,0,0,0-1.5,3.9c0,.5.4.8.9.9a1.3,1.3,0,0,1-.7-1.7A8.8,8.8,0,0,1,16.9,30.3Z"/></g></mask></defs><g id="castF_04"><path class="cls-3" d="M55.8,27.5s1.8,4.9,5.6,3.2c0,0,1.6-1.2,2.3.9a6.5,6.5,0,0,0,3.4,3.8c1.9.9.5,3-2.4,3.8,0,0-2,0-.3-2.4,0,0-1.7-2.5-2.6-2.3s-7.5,2.7-10.1.4-1.5-2.6-1.5-2.6"/><path class="cls-3" d="M25.1,39.4a8,8,0,0,1,1.8,5.2c-.2,2.8.2,7.2-.9,7.9s-4.7,2.4-1,3.4c0,0,4.4-.1,4.2-2s.7-2.7,1.2-2.8-.9-1-.3-2.4,3.1-6.9,3.1-6.9"/><path class="cls-4" d="M23.5,55.2a4.3,4.3,0,0,1,.9-1,1.7,1.7,0,0,1,1.2-.5,1.7,1.7,0,0,0-1.1.6,3,3,0,0,0-.7,1Z"/><path class="cls-4" d="M24.6,55.8a3,3,0,0,1,2-1.5,2.4,2.4,0,0,0-1.1.6,3.6,3.6,0,0,0-.7,1Z"/><path class="cls-5" d="M58.4,16.5h0c0-.2,2.8,3.2,6.1,4.9a9.5,9.5,0,0,0,5.6,1.4,10.5,10.5,0,0,0,5.6-2.7.6.6,0,0,1,.9,0,1,1,0,0,1,0,1.3,12.7,12.7,0,0,1-6.5,2.7,12.2,12.2,0,0,1-6.6-1.3A13.5,13.5,0,0,1,58.4,16.5Z"/><path class="cls-6" d="M16.9,25.5s-1.1-3.9,0-5.9,2,2.1,4.5,3.9C22,24,16.9,25.5,16.9,25.5Z"/><path class="cls-7" d="M20.8,23c-2-1.9-2.8-4.9-3.7-3.7s1.6,2.2,1,5.1A8.6,8.6,0,0,1,20.8,23Z"/><path class="cls-6" d="M57.4,16A31.3,31.3,0,0,0,31.1,27l-1.3-.7c-3.1-1-6.6,1.2-8,5s.1,7.8,3.2,8.9a4.4,4.4,0,0,0,2,.2c3.9,5,13.6,3.2,16.6.1C48.3,35,54.2,33,57,33.2a9.8,9.8,0,0,0,3.7-5C63.1,22.6,59.8,16.3,57.4,16Z"/><path class="cls-7" d="M53.9,30.1c-5.9-.8-10.8,4.5-11.7,6.7-2.4,6.1-11.5,6.5-12.9,4-2.9-4.9-1.3-7.4-1.3-7.4a47.2,47.2,0,0,0-6,3.9,5,5,0,0,0,3,2.9,4.4,4.4,0,0,0,2,.2c3.9,5,13.6,3.2,16.6.1,4.5-5.3,10.1-7.4,13.1-7.4A7.6,7.6,0,0,0,53.9,30.1Z"/><path class="cls-6" d="M30.3,30.1a7.5,7.5,0,0,1-7.7,7.4c-4.3,0-7.9-2.8-7.9-6.8a8.2,8.2,0,0,1,7.9-8A7.6,7.6,0,0,1,30.3,30.1Z"/><path class="cls-6" d="M19.1,25.2c-1.7,2-4.7,5.1-4,9.6.3,2.3,5.8,5.2,11.6,1.2C28.4,31.8,24.6,18.3,19.1,25.2Z"/><path class="cls-8" d="M16.6,30.7c0,.7-.4,1.4-.8,1.4s-.9-.7-.9-1.4.4-1.5.9-1.5S16.6,29.9,16.6,30.7Z"/><g class="cls-9"><path class="cls-7" d="M16.6,30.7c0,.7-.4,1.4-.8,1.4s-.9-.7-.9-1.4.4-1.5.9-1.5S16.6,29.9,16.6,30.7Z"/></g><path class="cls-10" d="M16.4,31a.9.9,0,0,1-.8.8c-.4,0-.6-.6-.5-1.2s.5-1,.9-.9S16.6,30.4,16.4,31Z"/><path class="cls-7" d="M23.4,34.5c-1.3-1.7-5.2-.7-5.2-.7l-1.9-.2c-.5-.3-1-1.4-1.3-.6a10.9,10.9,0,0,0,.1,1.8c.2,1.7,3.4,3.8,7.3,3C23.9,37,24.2,35.7,23.4,34.5Z"/><path class="cls-11" d="M15.4,34.4a3.6,3.6,0,0,0,1.2,1.7,2.1,2.1,0,0,0,1.5-1.6Z"/><path class="cls-12" d="M17,30.2a6.6,6.6,0,0,0-1.6,4c0,.6.7,1,1.3,1s1.8-.4,2.4-2.4S19,27.6,17,30.2Z"/><path class="cls-12" d="M22.6,22.7a7.3,7.3,0,0,0-3,.7,6,6,0,0,0-1.5.9H18c.6-.3,5.1-2.3,7.1,1.7a5,5,0,0,0,1.6-2.1A8.2,8.2,0,0,0,22.6,22.7Z"/><path class="cls-13" d="M16.1,30.8c0,.3-.1.6-.3.6s-.4-.3-.4-.6.2-.7.4-.7S16.1,30.4,16.1,30.8Z"/><path class="cls-14" d="M16,30.6c0,.2-.1.3-.2.3s-.1-.1-.1-.3,0-.3.1-.3S16,30.4,16,30.6Z"/><path class="cls-8" d="M19.4,32.6s.2-3.6,3.5-2.4S21.9,35.8,19.4,32.6Z"/><g class="cls-15"><path class="cls-7" d="M19.4,32.6s.2-3.6,3.5-2.4S21.9,35.8,19.4,32.6Z"/></g><path class="cls-10" d="M23.3,31.6a1.4,1.4,0,0,1-1.1,1.7c-.8.1-1.7-.1-1.9-.9a1.6,1.6,0,0,1,1.2-1.8A1.4,1.4,0,0,1,23.3,31.6Z"/><path class="cls-13" d="M21.9,32c0,.5-.3.8-.6.8s-.5-.3-.5-.8.2-.8.5-.8S21.9,31.6,21.9,32Z"/><path class="cls-14" d="M21.7,31.8c0,.2-.1.4-.3.4s-.2-.2-.2-.4.1-.3.2-.3A.3.3,0,0,1,21.7,31.8Z"/><path class="cls-8" d="M23.1,37.5a7.5,7.5,0,0,0,7.2-7.4,7.2,7.2,0,0,0-.6-2.9A10.3,10.3,0,0,1,23.1,37.5Z"/><g class="cls-16"><path class="cls-12" d="M23.1,37.5a7.5,7.5,0,0,0,7.2-7.4,7.2,7.2,0,0,0-.6-2.9A10.3,10.3,0,0,1,23.1,37.5Z"/></g><path class="cls-11" d="M20.2,37.3H18.6l-.5-.2-.3-.2-.6-.5-.4-.6h-.3a2.1,2.1,0,0,0,.5.7h.1a.1.1,0,0,0,.1-.1l.4.3.5.2h2.1l.6-.2h0Z"/><g class="cls-17"><path class="cls-8" d="M16.9,30.3a6.6,6.6,0,0,0-1.5,3.9c0,.5.4.8.9.9a1.3,1.3,0,0,1-.7-1.7A8.8,8.8,0,0,1,16.9,30.3Z"/></g><path class="cls-12" d="M15,32.7s-1.9-7.4,6.9-9.9C19.7,22.8,13.3,25.8,15,32.7Z"/><path class="cls-6" d="M22.7,26.2c3.7-1.9,6.5-6.8,8.1-6.1s-.8,7.8-.8,7.8C26,31.3,22.5,26.3,22.7,26.2Z"/><path class="cls-7" d="M25,27.8c1.2-1.7,4.6-7.3,5.7-6.6s-1.1,6.2-1.4,7a.7.7,0,0,0-.8-.4c.3-.4.5-.4.5-.4a1.5,1.5,0,0,0-.8.2,5.7,5.7,0,0,1,1-1.1,1.9,1.9,0,0,0-1.5.8,3.2,3.2,0,0,1,1-1.9,4,4,0,0,0-1.9,1.7,9.1,9.1,0,0,1,.3-1.2Z"/><path class="cls-18" d="M50.9,25.7c-.3,3.6-.5,7.2,6.8,9.4,0,0,3.4,3.3,1.7,6.6,0,0-3.9,1.5-1.6,3.3s4.5-1,4.5-1,3-1.3,1-3.4,1.3-7.1,1-8.1-.8-.8-1.6-1.2-2-4-.9-7.5-4.1-8.1-5.6-7.5"/><path class="cls-4" d="M57,44a2,2,0,0,1,.9-.9,1.5,1.5,0,0,1,1.1-.4,2.5,2.5,0,0,0-1.8,1.4Z"/><path class="cls-4" d="M58,45.2a1.3,1.3,0,0,1,.6-1l1.1-.5a3.3,3.3,0,0,0-1,.6c-.1.1-.3.3-.3.4s-.2.4-.1.5Z"/><path class="cls-18" d="M29.3,40.3c2.8,3.2,6.4,4,6.8,7.9a4.4,4.4,0,0,0,2.4,4.4s2.8,2.1,4.2.6,1.4-3.3-2.8-3.5c-1.2-1.7.1-5.1.1-5.1,1.5-1.6-.8-7.1-.9-9.4"/><path class="cls-4" d="M42.6,53.4H41.5l-.5-.2c-.2-.1-.4-.2-.4-.4s.2.3.4.3h.5a4,4,0,0,0,1.1,0Z"/><path class="cls-4" d="M43.5,52.1a2.1,2.1,0,0,1-1.3.3,3.3,3.3,0,0,1-1.2-.5,4.2,4.2,0,0,0,1.2.4,1.5,1.5,0,0,0,1.1-.4Z"/><path class="cls-19" d="M76.6,20.1a.6.6,0,0,0-.9,0,10.5,10.5,0,0,1-5.6,2.7,9.5,9.5,0,0,1-5.6-1.4,19.5,19.5,0,0,1-4.8-3.7A3.5,3.5,0,0,0,57.4,16,31.3,31.3,0,0,0,31.1,27l-.7-.4c.6-2.1,1.6-5.9.4-6.5s-2.7,1.5-4.7,3.5L24.8,23h-.1l-.9-.2H21.9a2.3,2.3,0,0,0-1.1.2,19.3,19.3,0,0,1-2.4-3.3h0l-.2-.2a.1.1,0,0,0-.1-.1c0-.1-.1-.1-.1-.2h-.3a.1.1,0,0,1-.1-.1h-.5l-.2.3c-.9,1.8-.3,4.9-.1,5.7a7,7,0,0,0-2,4.4,3.1,3.1,0,0,0-.1,1,8.8,8.8,0,0,0,.2,1.7.8.8,0,0,1,.1.3c0-.1,0-.2-.1-.2a.4.4,0,0,1,.1.3,14.1,14.1,0,0,0,.1,2,.6.6,0,0,0,.1.4h0l.2.3a.1.1,0,0,0,.1.1l.3.4h0a.8.8,0,0,0,.4.4h.1l.4.2a.1.1,0,0,0,.1.1l.5.3h.2l.5.2h4.2l.3.4h0a2.3,2.3,0,0,0,.7.7c0,.1,0,.1.1.1l.7.6h.1l.9.4.8.2a7.2,7.2,0,0,1,1.1,4.2c-.2,2.8.2,7.2-.9,7.9s-4.5,2.3-1.3,3.3c0,.1.1,0,.1,0H25s4.4-.1,4.2-2,.7-2.7,1.2-2.8-.9-1-.3-2.4,1.6-3.6,2.4-5.3h.4c1.6,1.3,3,2.5,3.2,4.8a4.4,4.4,0,0,0,2.4,4.4s2.8,2.1,4.2.6,1.4-3.3-2.8-3.5c-1.2-1.7.1-5.1.1-5.1a2.6,2.6,0,0,0,.5-2.2,7.8,7.8,0,0,0,3.1-1.9l.9-.9.3-.4.6-.5a.8.8,0,0,1,.4-.4l.5-.5.4-.3.5-.4.4-.3.5-.4.5-.3.4-.3.5-.3.4-.2.5-.3.4-.2.5-.2h0l.4.4c1.5,1.3,4.2,1.1,6.4.6.9,1,2.6,3.6,1.3,6.2,0,0-3.9,1.5-1.6,3.3s4.5-1,4.5-1,3-1.3,1-3.4-.5-3.3.1-5.1a7,7,0,0,1,1,1.3c-1.7,2.4.3,2.4.3,2.4,2.9-.8,4.3-2.9,2.4-3.8a5.9,5.9,0,0,1-2.8-2.6v-.3a1,1,0,0,0-.5-.7c0-.1,0-.2-.1-.2s-1.2-1.3-1.7-1.1a10.8,10.8,0,0,1-.6-4.4,5.7,5.7,0,0,0,.1-1.3l.3-1a4.6,4.6,0,0,0-.2-2.6,12.1,12.1,0,0,0,1.9,1.6,12.2,12.2,0,0,0,6.6,1.3,12.7,12.7,0,0,0,6.5-2.7A1,1,0,0,0,76.6,20.1Z"/></g></svg>