<svg xmlns="http://www.w3.org/2000/svg" viewBox="0 0 227 210"><defs><style>.cls-1{fill:#f0b3a4;stroke:#593129;}.cls-1,.cls-2{stroke-miterlimit:10;}.cls-2{fill:#ee4241;stroke:#cb2f2f;stroke-width:2px;}</style></defs><g id="Layer_9" data-name="Layer 9"><path class="cls-1" d="M95,78c7,16.2,26.5,60.8,33.1,66.1,8.1,6.5,41.7,29.2,65,43.4l6.1-40.3s-36.7-23.1-48.7-26.9c-2.9-8.8-28.1-43.6-34.6-55.4"/><path class="cls-1" d="M115,69c1.5-1.1,3.8-3.7,5.6-9.1,1.2-3.4,1.5-10,3.9-16,.9-2,2-4,2-4s-.7-1.9-2.8-2-4.7,1.9-5.4,3.7c0,0-3.4,9.5-5.3,9.1s-3.1-6-3.1-6c-.8-4.5-1.5-10-1.5-10l-2.2-20.5a3.6,3.6,0,0,0-4.4-2.3c-1.9.6-2.9,3.1-2.4,4.9l1,18a.9.9,0,0,1-.7,1.1c-.4.1-1,.3-1.4-.5L91.7,13.6a3.5,3.5,0,0,0-4.3-2.4,3.4,3.4,0,0,0-2.3,4.3l6.3,23c.4.8-.7,1.7-1.2.8l-10.4-18a3.3,3.3,0,0,0-4.1-2.2,3.5,3.5,0,0,0-2.2,4.2L83.6,44.7c.5,1.3-.6,1.8-1,1h0L72,34.5c-1.2-1.6-2.8-2.8-4.3-1.8s-1.7,2.1-.9,3.9L77.1,51.7c3.2,17.4,12.7,23.7,12.7,23.7a28,28,0,0,0,5.1,3"/><path class="cls-2" d="M158.6,122.3c-.2,4.2-2,21.1-13.2,39.4a1.8,1.8,0,0,0,.7,2.6l42.4,23.8c.4.2.6-.3,1.1-.5,13-4.6,24.2-33,8.3-48-5.2-4.9-32.6-16.1-38.3-18C159.2,121.4,158.7,121.8,158.6,122.3Z"/></g></svg>