<svg xmlns="http://www.w3.org/2000/svg" viewBox="0 0 84 66"><defs><style>.cls-1,.cls-15,.cls-4{fill:#f9a528;}.cls-1,.cls-5,.cls-7{stroke:#f5b46d;stroke-width:0.3px;}.cls-1,.cls-10,.cls-15,.cls-5,.cls-7{stroke-miterlimit:10;}.cls-2,.cls-5{fill:#f68e1e;}.cls-3{fill:#fff8e1;}.cls-6{fill:#f47f20;}.cls-7{fill:#ffdfad;}.cls-8{fill:#fbcea1;}.cls-10,.cls-9{fill:#f5b46d;}.cls-10{stroke:#fbcea1;}.cls-10,.cls-15{stroke-width:0.1px;}.cls-11{fill:#eae0ce;}.cls-12{fill:#87bbbe;}.cls-13{fill:#424243;}.cls-14{fill:#fff;}.cls-15{stroke:#f37c20;}.cls-16{fill:#f37c20;}</style></defs><g id="Layer_63" data-name="Layer 63"><g id="Duck_poses_01_F_01_" data-name="Duck poses 01 ( F 01 )"><path class="cls-1" d="M43.1,43.5a2.8,2.8,0,0,1-.1-.6H41.9v.5c0,.4.1,1,.1,1.7a15.5,15.5,0,0,1-.1,2.2c-.1.2-.1.3-1.8.7a11.4,11.4,0,0,0-2.6.9.1.1,0,0,0-.1.1.4.4,0,0,0-.1.3h.2l.5.3h.1c0,.1,0,.1.1.1s.1.1.1.2.1.1.1.2a.4.4,0,0,1,.1.3c0,.1.1.1.1.2h1l.5.2.3.2h.1l.3.2h0c.1,0,.1,0,.1.1H41a.4.4,0,0,0,.5-.2,10.6,10.6,0,0,1,.9-2.5c.3-.6.8-.7.7-1.3V47c0-.2.1-.5.1-.7a1.1,1.1,0,0,1,.1-.5c0-.2.1-.5.1-.6A4.7,4.7,0,0,0,43.1,43.5Z"/><path class="cls-2" d="M41.2,48.2a22.3,22.3,0,0,0-3.4,1.2c-.1.1-.4-.1-.5,0a.1.1,0,0,1,.1.1,1.4,1.4,0,0,1,1.2,1.3v-.4S41.5,48.4,41.2,48.2Z"/><path class="cls-2" d="M40.9,51.4c.3-.6,1.3-2.9,1-3s-2.8,2.3-2.8,2.3l-.3.2a2.4,2.4,0,0,1,2.1.8Z"/><path class="cls-3" d="M39,50.5c-.5-.5-.7.8-.7.8S39.5,50.9,39,50.5Z"/><path class="cls-3" d="M41.2,51.4c-.6-.2-.4,1-.4,1S41.9,51.7,41.2,51.4Z"/><path class="cls-3" d="M37.7,49.2c-.5-.5-.8.7-.8.7S38.2,49.7,37.7,49.2Z"/><path class="cls-4" d="M42.9,46.1s1,.8.8,1.2-.9-.7-.9-.7Z"/><path class="cls-2" d="M43.1,43.5a2.4,2.4,0,0,0-1.2,0c0,.4.1,1,.1,1.7l.9.6h.4c0-.2.1-.5.1-.6A4.7,4.7,0,0,0,43.1,43.5Z"/><path class="cls-5" d="M39.1,42.7a15.7,15.7,0,0,0-.4-2.3H37.6a33.8,33.8,0,0,1,0,4.5c-.1.2-.1.3-1.8.7a11.4,11.4,0,0,0-2.6.9h0c-.2.1-.2.2-.2.4a.1.1,0,0,1,.1.1,1.4,1.4,0,0,1,1.2,1.2v.2a.1.1,0,0,1,.2,0,2.6,2.6,0,0,1,2.1.7h.1c.2,0,.4,0,.5-.2a13.4,13.4,0,0,1,.9-2.6c.3-.5.8-.6.8-1.2A7.1,7.1,0,0,1,39.1,42.7Z"/><path class="cls-6" d="M36.9,45.7c-.3-.2-3.4,1.2-3.4,1.2s-.4-.1-.5,0a.1.1,0,0,1,.1.1,1.4,1.4,0,0,1,1.2,1.2v-.3S37.2,45.9,36.9,45.7Z"/><path class="cls-6" d="M36.6,48.9c.3-.6,1.3-2.9,1-3s-2.8,2.3-2.8,2.3l-.3.2a2.6,2.6,0,0,1,2.1.7Z"/><path class="cls-3" d="M34.7,47.9c-.5-.4-.7.8-.7.8S35.3,48.4,34.7,47.9Z"/><path class="cls-3" d="M36.9,48.9c-.6-.3-.4.9-.4.9S37.6,49.2,36.9,48.9Z"/><path class="cls-3" d="M33.4,46.7c-.5-.5-.8.7-.8.7S33.9,47.1,33.4,46.7Z"/><path class="cls-2" d="M38.6,43.6s1,.8.8,1.1-.9-.6-.9-.6Z"/><path class="cls-7" d="M51.5,34.1c2.6-.6,4.6-1.6,5.2-2.3s.3-1.5-.6-1.2a31,31,0,0,1-8.6.8S49,34.7,51.5,34.1Z"/><path class="cls-8" d="M51.7,34.7c2.9-.4,5.4-2.1,5.4-2.7s-.7-.5-.7-.5S48.3,35.2,51.7,34.7Z"/><path class="cls-9" d="M52.6,34.6l.3,1.9,3.5-2.9a1,1,0,0,0,0-1.1Z"/><path class="cls-7" d="M30.8,27.9c-.5,3.2-1.5,4.2-.5,8.8.3,1.2,1.5,2.3,3.1,3.4,3.7,2.5,9.9,4.4,11.3,4.3s6.9-3.5,8.4-8a7.4,7.4,0,0,0,.4-3.6c-.2-1.5-5.3-3.7-9.6-4.1s-3.1.2-3.6,0-4.8,1-4.7-2.4"/><path class="cls-10" d="M50.5,34.1c.7.3.3.9-.9,1s.8.7-.4,1.3a22.3,22.3,0,0,1-6.3,1.5c-4.7.5-10.1-4.6-8.3-6.6s9.5-.5,15.2,1.4C51.6,33.3,51.5,33.8,50.5,34.1Z"/><path class="cls-8" d="M46.1,41.9c-4.6,1.5-10.5-1.1-13.3-2.1,3.9,2.6,10.1,4.7,11.6,4.6s7.1-3.6,8.6-8.2C50.5,36.7,51,40.3,46.1,41.9Z"/><path class="cls-8" d="M34.8,29.1c1.3,1.8,6.2-.6,7.6-.5a19.9,19.9,0,0,0-4.9-.3,2.3,2.3,0,0,1-1.5-2c-.1-.7.6-5.7.3-6.2S33.9,27.7,34.8,29.1Z"/><path class="cls-7" d="M30,33.4a7.6,7.6,0,0,0,.1-1.5,57,57,0,0,0,1-8.3,7.8,7.8,0,0,0-.2-2.2c1,1.2,3.7-1.4,3.4-1.7s-1.7,1.1-3.6.4c.1-.1.3-.6.3-.3-1.8-1.1,0-2.3-1.1-2.9s-1.1,1-1.2,1.2.2-3.3,2.8-4.2,4.4,0,5.1,1.5.4,2.9-1,10.9m-2.3-9.9c-.5-.6-1.4.2-1,.6S33.8,16.9,33.3,16.4Z"/><path class="cls-11" d="M30.5,20.5a3.6,3.6,0,0,1,.4.9h-.1l-.3-.7Z"/><path class="cls-8" d="M30.9,21.4a2,2,0,0,0-.8-1c.2-.2.5-.2.6-.3,1.9.7,3.3-.7,3.6-.4S31.9,22.6,30.9,21.4Z"/><path class="cls-4" d="M30.5,20.5h0l-.3-.2Z"/><path class="cls-4" d="M33.3,16.4c.5.5-.6,1.1-1,.6S32.8,15.8,33.3,16.4Zm-.9.6c.3.3,1.2-.1.8-.6h-.1a.5.5,0,0,0-.7.3h0c-.1.1-.1.2,0,.4Z"/><path class="cls-12" d="M32.5,16.4a.5.5,0,0,1,.7,0c.4.5-.5.9-.8.6s-.1-.3,0-.4h0l.2.2h0c.2.2.6,0,.4-.3a.2.2,0,0,0-.3,0h-.1c-.1,0-.2,0-.2.1S32.5,16.5,32.5,16.4Z"/><path class="cls-13" d="M32.7,16.5a.2.2,0,0,1,.3,0c.2.3-.2.5-.4.3h0a.2.2,0,0,0,.2-.2A.1.1,0,0,0,32.7,16.5Z"/><path class="cls-14" d="M32.4,16.6Z"/><path class="cls-14" d="M32.4,16.6h0c0-.1.1-.1.2-.1h.1c-.1.1-.2.2-.1.3h0Z"/><path class="cls-14" d="M32.6,16.8c-.1-.1,0-.2.1-.3a.1.1,0,0,1,.1.1.2.2,0,0,1-.2.2Z"/><path class="cls-8" d="M34.8,28.7A52,52,0,0,1,37,18.3a42.5,42.5,0,0,1-.8,6.1c-.6,2.5.5,3.5.8,3.7Z"/><path class="cls-15" d="M31.2,19.6l-.2.3-.4.4h-.2V20c-1.4,1-3.6,1-4.1.5s1.2-.5,2-1.7a7.7,7.7,0,0,0,.7-1.6h0c.1-.1.6-1.1,1.3-.8S29.8,18.7,31.2,19.6Z"/><path class="cls-16" d="M29.9,18.1c.2.3-.6,1-.8.9S29.6,17.8,29.9,18.1Z"/><path class="cls-16" d="M31.2,19.6c-1,1.9-3.9,1.2-3.9,1.2a4.3,4.3,0,0,0,3.6-1.4Z"/></g></g></svg>