<svg xmlns="http://www.w3.org/2000/svg" viewBox="0 0 91 101"><defs><style>.cls-1{fill:#5b352c;}.cls-2{fill:#855d52;}.cls-3{fill:#472922;}.cls-14,.cls-4{fill:#f0e8e5;}.cls-5{fill:#724e47;}.cls-10,.cls-6{fill:#4e342e;}.cls-6,.cls-9{stroke:#000;stroke-width:0.04px;}.cls-10,.cls-13,.cls-14,.cls-6,.cls-9{stroke-miterlimit:10;}.cls-7{fill:#774d43;}.cls-8{fill:#4c2822;}.cls-9{fill:#e7792a;}.cls-10,.cls-13,.cls-14{stroke:#422825;}.cls-10,.cls-13{stroke-width:0.04px;}.cls-11{fill:#3e2723;}.cls-12{fill:#422825;}.cls-13{fill:#fff;}.cls-14{stroke-width:0.01px;}</style></defs><g id="Layer_95" data-name="Layer 95"><path class="cls-1" d="M74.3,36.3h.2a7.1,7.1,0,0,1,.2-2.1,7.8,7.8,0,0,0,.4,2.1,7.5,7.5,0,0,0,.8,2.4,3,3,0,0,1,.4.8c.1,0,.3,0,.2-.1a13.5,13.5,0,0,1-.5-2.9,5.6,5.6,0,0,0,.5.8,15.1,15.1,0,0,0,.7,3.7c.1,0,.2,0,.2-.1a12.3,12.3,0,0,0,.2-2,.3.3,0,0,1,.1-.2,21.7,21.7,0,0,0-.1,3.6,5.3,5.3,0,0,0,1-2.5c-.1,1.2-.2,2.5-.2,3.7s.2.1.2,0a15,15,0,0,1,.2-2,2,2,0,0,1,.1.7,9.4,9.4,0,0,0,.1,1.4,9.3,9.3,0,0,0,1.4-2.7,10.9,10.9,0,0,0,.1,1.8h.2c-.1-1,0-2,0-3a10.8,10.8,0,0,0,.5-2.1c.1,1.1.2,2.2.4,3.3s.2.1.2,0c.2-2.1.1-6,.1-6.4a17.6,17.6,0,0,1,.6,3.9,37.2,37.2,0,0,0-.8-6.6c-.4-2.1.2-4.4.1-6.5a11.1,11.1,0,0,0-1.5-5.5c-1.3-2.2-5.6-3.2-6.8-2.6l-2,.9c-1.3.8,4.3,1.5,4.5,2.3a12.5,12.5,0,0,1,0,5.1c-.4,1.8-1,3.6-1.4,5.5l.7-1h0l-.3.6A9,9,0,0,0,74.3,36.3Z"/><path class="cls-1" d="M75.6,68.7a4.8,4.8,0,0,0-1.2,2.8c0,1.3,4,2.2,4-1.6A2.4,2.4,0,0,1,75.6,68.7Z"/><path class="cls-2" d="M82.2,52.5v.3h0c0,.2-.1.4-.1.6v.2h0c0,.1-.1.1-.1.2v.2c-.1.2-.1.5-.2.7a.3.3,0,0,1-.1.2.4.4,0,0,1-.1.3v.3a.3.3,0,0,0-.1.2c-.1.2-.1.4-.2.6s-.1.4-.1.6a.1.1,0,0,0-.1.1.6.6,0,0,1-.1.4h0l-.3,1.1h0V59c-.1.1-.1.3-.2.4v.2a.4.4,0,0,1-.1.3c0,.2-.1.4-.1.6s-.1.2-.1.3a.8.8,0,0,1-.1.4c0,.2-.1.4-.1.6V62a.4.4,0,0,0-.1.3v.2h-.1v.2a12330855011929.4,12330855011929.4,0,0,0-.2.8h0v.3a.9.9,0,0,0-.1.5v.4c0,.2-.1.5-.1.7s.5,1.5.4,2.3-.8,1-.7,2.1a2.8,2.8,0,0,1-1.8.6h-.5l-.7-.3a.8.8,0,0,1-.4-.4h0c0-.1-.1-.1-.1-.2s.1-.1.1-.2h0a3,3,0,0,1,.4-.8v-.2h0c0-.1.1-.2.1-.4h.1a1.5,1.5,0,0,0,.1-.7c.2-1.8.3-3.3.5-4.5V62a1.5,1.5,0,0,0,.1-.7h0c.1-.6.1-1.1.2-1.6v-.4a.4.4,0,0,0,.1-.3,2,2,0,0,1,.1-.7v-.6c0-.1.1-.3.1-.4v-.5c.2-1.6,0-2.3-.5-2.7h-.5l-.7-.5-.8-.8-.2-.2h0l-.2-.3-.2-.2-.2-.2c0-.1-.1-.1-.1-.2l-.2-.2-.3-.4a2.1,2.1,0,0,0-.4-.6,16.7,16.7,0,0,1-1.2-2.3,11.9,11.9,0,0,1-1.1-2.6,2.5,2.5,0,0,1-.2-.7.4.4,0,0,1-.1-.3,1.4,1.4,0,0,1-.2-.6L70,42.4a.4.4,0,0,1-.1-.3,13.6,13.6,0,0,1-.4-1.7h0c-.2-1.1-.4-2-.5-2.9s-.3-3.2-.3-3.2h.1a6.4,6.4,0,0,1,.5-1.1c0-.1.1-.2.1-.3h.1l7.7-8.4a2,2,0,0,1,1.1.3h0c.1.2.1.4.2.6a4.3,4.3,0,0,1,.1.5c.1.2.1.4.2.6a4.3,4.3,0,0,1,.1.5,17,17,0,0,1,.4,2.2,2.5,2.5,0,0,1,.1.8,7.6,7.6,0,0,1,.1,1.5c.1,0,.1.1.1.2v2.1c.1,3.5-.2,7.1-.4,10.7v2.8c0,.2.1.4.1.6a.4.4,0,0,0,.1.3h0v.2a.3.3,0,0,0,.1.2c0,.1,0,.2.1.2a.4.4,0,0,0,.1.3v.2l.2.3h0l1.2.9h.1l.3.3h.1c0,.1.1.1.1.2h.1a.1.1,0,0,1,.1.1h.1A1.3,1.3,0,0,1,82.2,52.5Z"/><path class="cls-3" d="M78.4,70.6A2.3,2.3,0,0,1,74.6,72,3.5,3.5,0,0,0,78.4,70.6Z"/><path class="cls-4" d="M79.5,62.6h0c0,.1-.1.1-.1.2a.4.4,0,0,1-.1.3v.5h-.1V64a.6.6,0,0,0-.1.4c0,.2-.1.3-.1.5a1.7,1.7,0,0,0-.1.7c-.2.7.5,1.4.3,2.2s-.8,1.1-.8,2.1a2.4,2.4,0,0,1-1.7.7h-.6l-.7-.3-.3-.4h0a.3.3,0,0,0-.1-.2c0-.1.1-.1.1-.2h0a3,3,0,0,1,.4-.8c0-.1.1-.1.1-.2h0c0-.1.1-.2.1-.4s.1,0,.1-.1h0A6.4,6.4,0,0,0,76,67c.2-1.8.3-3.2.5-4.4Z"/><path class="cls-5" d="M71.9,47.8c-.3,1.5-1.3,3.9-2.4,8.5-.2.7-.3,1.4-.5,2.3l-.3,1.6c-.2.7.5,1.5.4,2.3s-.8,1-.8,2.1a2.6,2.6,0,0,1-1.3.6H65.7a2.7,2.7,0,0,1-.8-.7v-.2c-.1-.6.7-1.1.9-2.5s.3-2.9.5-4a11.1,11.1,0,0,1,.2-1.9c.2-1.5.4-2.8.6-4.5s0-2.3-.5-2.6c-7.7-5.2-7.8-19.9-7.8-19.9s5.4-11.8,9.7-9.5c1.4,4.3,1.3,9,1,13.7l-.3,4.3c0,.6-.1,1.1-.1,1.7-.4,5,.7,5.4,1.7,6.1a1.8,1.8,0,0,1,.9,1A3.1,3.1,0,0,1,71.9,47.8Z"/><path class="cls-1" d="M65.4,63.4a4.3,4.3,0,0,0-1.2,2.7c0,1.4,4.1,2.2,4.1-1.5C65.7,65.1,65.4,63.4,65.4,63.4Z"/><path class="cls-3" d="M68.2,65.2a2.3,2.3,0,0,1-3.8,1.4A3.3,3.3,0,0,0,68.2,65.2Z"/><path class="cls-4" d="M69.1,62.5c-.2.8-.8,1-.8,2.1a2.6,2.6,0,0,1-1.3.6H65.7l-.8-.9c-.1-.6.7-1.1.9-2.5s.3-2.9.5-4a11.1,11.1,0,0,1,.2-1.9l3,.5c-.2.7-.3,1.4-.5,2.3l-.3,1.6C68.5,60.9,69.2,61.7,69.1,62.5Z"/><path class="cls-1" d="M30.8,83.4v.7c-.5,2.9-3.9,2.1-4,.9A4.8,4.8,0,0,1,28,82.2,3.7,3.7,0,0,0,30.8,83.4Z"/><path class="cls-6" d="M32.1,66.5c-.1,1.4-.7,1.5-.8,3s-.4,3.7-.4,7.7v1.2c0,.5.7,1,.7,2.1s-1,.7-.8,2.9c0,0-1.9,1.6-3.2,0s.9-1.6.9-3.4.1-1.1.1-1.7V77.1a34.1,34.1,0,0,0-.5-6.6c-.2-1-.7-1.3-.7-2.4s.5-1.7.4-3.5c-.1-5.2-3.1-11.1-1-15.8l6.1-1.4s-.4,8.6-1,16.6C31.8,64.9,32.3,65,32.1,66.5Z"/><path class="cls-5" d="M32.1,66.5c-.1,1.4-.7,1.5-.8,3s-.3,3.3-.4,6.4v2.5c0,.5.7,1,.7,2.1s-1,.7-.8,2.9c0,0-1.9,1.6-3.2,0s.9-1.6.9-3.4.1-1.1.1-1.7V76.2a34.5,34.5,0,0,0-.5-5.7c-.2-1-.7-1.3-.7-2.4s.5-1.7.4-3.5c-.1-5.2-3.2-11.1-1-15.8l6.1-1.4s-.4,8.6-1,16.6C31.8,64.9,32.3,65,32.1,66.5Z"/><path class="cls-3" d="M30.8,84.1A2.3,2.3,0,0,1,27,85.5,3.7,3.7,0,0,0,30.8,84.1Z"/><path class="cls-4" d="M30.8,83.4s-1.9,1.6-3.2,0,.9-1.6.9-3.4.1-1.1.1-1.7V76.2l2.3-.3v2.5c0,.5.7,1,.7,2.1S30.6,81.2,30.8,83.4Z"/><path class="cls-7" d="M11,26.8h-.3c-1.9-.2-2.2-2.7-.9-4.8l.6-.9c.2-.2.5-.1.5.1C10.9,24.3,13.8,26.8,11,26.8Z"/><path class="cls-8" d="M10.7,26.8c-1.9-.2-2.2-2.7-.9-4.8a7.1,7.1,0,0,0,.7,4.2A1.4,1.4,0,0,1,10.7,26.8Z"/><path class="cls-9" d="M11.2,34.5l-.2-.2-.8-1.1"/><path class="cls-2" d="M9.4,29.1a5.7,5.7,0,0,1,.4-1.4v-.2h0A13.9,13.9,0,0,1,12,23.8h0l.5-.6.2-.2h.2l.4-.2h0c1.4-.3,5.5-.5,14.3,4.8a18.3,18.3,0,0,0,9.9,3.1,20.9,20.9,0,0,0,7.6-2c8.6-3.9,9.4-9.6,16.3-12.4,4.2-1.7,8.6-1.6,12.1,1.1a11.9,11.9,0,0,1,2.3,2.2l.5.7.6.8.3.4a14,14,0,0,1,1.4,2.7c0,.1.1.3.1.4h0a11.5,11.5,0,0,1-.6,6.8h0c-.4.9-.9,1.9-1.4,2.8l-1.4,2a14.2,14.2,0,0,1-2,2.2c0,.1-.1.1-.1.2l-.3.3-1.1.9c-1.1.7-1.9.9-2.1.4h-.1a.8.8,0,0,0-.2-.4v-.2h-.4c0-.1,0-.1-.1-.1h-.1a1,1,0,0,0-.9.2h-.2a.1.1,0,0,1-.1.1h-.1l-.4.4-.4.5-.3.4-.2.2a.1.1,0,0,1-.1.1.3.3,0,0,1-.1.2h-.1l-.3.4h0a.1.1,0,0,0-.1.1h-.1l-.2.2H65a.1.1,0,0,1-.1.1l-.3.3-.4.6-.4.3h0l-.6.7-.2.2h0l-.2.2-.3.3h0l-.3.3-.4.4-.6.6h0l-.4.4h0l-.3.3-.4.3-1,.9h0l-1.1.9-.4.3a.2.2,0,0,1-.2.2l-.8.7-.3.2-.4.3-.8.5A34.5,34.5,0,0,1,51,54.1h-.4a.5.5,0,0,1-.4.2c0,.1-.1.1-.2.1l-.4.3-.5.2-.4.2-.8.3h0a38.2,38.2,0,0,1-5.1,1.8h0l-1.1.4h0a20.6,20.6,0,0,1-4,.4H34.9l-1.3-.2H32.3a.1.1,0,0,0-.1-.1h-1a.1.1,0,0,1-.1-.1h-.3l-.8-.3h-.3a.5.5,0,0,1-.4-.2l-.3-.2h-.8a.1.1,0,0,0-.1-.1.1.1,0,0,1-.1-.1h0c-.1,0-.1,0-.1-.1h-.1l-.2-.2h-.4a4.6,4.6,0,0,1-.7-.7h0l-.3-.2a.1.1,0,0,0-.1-.1c-.2-.2-.3-.4-.5-.5s-.1-.2-.2-.3a.1.1,0,0,1-.1-.1h-.1a.3.3,0,0,1-.1-.2H25a.1.1,0,0,1-.1-.1h-.1c-.1-.1-.1-.2-.2-.2l-.5-.6h0c-.1,0-.1-.1-.2-.2l-.3-.4h0c-2.9-3.9-3.1-5.9-3.3-7.5s-.7-3-3.9-5.7a2.2,2.2,0,0,0-1.1-.5"/><path class="cls-2" d="M23.8,31.7v.2A21.5,21.5,0,0,1,22,35.3c-1.8,3.2-6.6,3.3-9.1,4.9h-.2a5.2,5.2,0,0,0-1,1.1c-.4.6-.3,1.4-1.5,1.8a8.6,8.6,0,0,1-3.2.5,5.7,5.7,0,0,1-3.8-1.5A2.3,2.3,0,0,1,2.4,40a5.3,5.3,0,0,1,1.5-1.7l.2-.2.8-.9a12.5,12.5,0,0,0,2.4-7.3c0-2.1.8-2.8,2.5-4.1s2.5-3.3,7.5-3.1l2.5.2C24.2,23.6,25.4,27,23.8,31.7Z"/><path class="cls-10" d="M15,31.6s-.2,1.4-1,1.5-1-.2-1.5.2a1.4,1.4,0,0,0,.2-.7,1.7,1.7,0,0,1,.8-1.3,1,1,0,0,1,1.3.2Z"/><path class="cls-11" d="M14.8,31.5a1.3,1.3,0,0,1-1,1.4,1.1,1.1,0,0,1-1.1-.3,1.7,1.7,0,0,1,.8-1.3A1,1,0,0,1,14.8,31.5Z"/><path class="cls-12" d="M14.8,31.5a1.5,1.5,0,0,1-.4,1.1,1.1,1.1,0,0,1-1.1.3h-.5a.7.7,0,0,1,.1-.5,1.2,1.2,0,0,1,.9-.9.9.9,0,0,1,1,.3h.1a1.1,1.1,0,0,0-1.4-.2,1.7,1.7,0,0,0-.6.6c-.1.2-.1.5-.2.7h0a1.1,1.1,0,0,0,1.5.1,1.2,1.2,0,0,0,.7-1.2Z"/><path class="cls-13" d="M14.4,31.7a.3.3,0,0,1-.3.3l-.3-.2c0-.2.1-.3.2-.3S14.3,31.5,14.4,31.7Z"/><path class="cls-14" d="M6.2,36.2a13,13,0,0,0,1.9-3.7c.5-1.4.5-3.8,2-4.8A1.7,1.7,0,0,1,13,28.8a3.1,3.1,0,0,1-1.3,2.7A13.1,13.1,0,0,0,9.5,34a10.5,10.5,0,0,0-1.4,2.8c-.2.8-.5,1.8-1.5,2S5,38.7,5,38s.7-1.2,1.1-1.7Z"/><path class="cls-11" d="M6.4,39.5c0-.1,0-.2.2-.2h.3c.6.8,1,2.2-.2,2.4s-1.6-.5-.9-1.1A1.5,1.5,0,0,0,6.4,39.5Z"/><path class="cls-11" d="M3.8,38.7A1.8,1.8,0,0,0,3.6,40c.1.6-.5.9-1.2.6a6.9,6.9,0,0,1,1.5-2.1S3.9,38.7,3.8,38.7Z"/><path class="cls-1" d="M38.5,31.7A3.6,3.6,0,0,0,37,30.5h.9c.1,0,.1,0,.1-.1a5.7,5.7,0,0,0-1.8-.3l-.2-.2a4.2,4.2,0,0,0-2.5-1.1A4.9,4.9,0,0,0,30,27.7l-1-.5a5.5,5.5,0,0,1,1.8.1.1.1,0,0,0,.1-.1c-.6-.6-1.5-.3-2.2-.4l-1.1-.5-.9-.8-1.6-.7a3.4,3.4,0,0,1,2.7,1c.1.1.2,0,.1-.1a4.7,4.7,0,0,0-4-1.2,9.5,9.5,0,0,0-2.1-.9c1,.2,2.1.7,3.1.4s.1-.1,0-.1-2.9-.8-4.3-.8l-1.2-.4a6.9,6.9,0,0,1,3.8.9c.1,0,.1-.1,0-.2a6.8,6.8,0,0,0-4.6-.9h-.3l-.9-.7a2.3,2.3,0,0,1,1.4.1s.1-.1,0-.1a3.3,3.3,0,0,0-1.7-.2h-.2c-1.4-.7-2.7-.2-4.1.2H11s-.1.1,0,.1l.3.4.8,1,.5.8a10.8,10.8,0,0,1,.8,1.9h.1a2.9,2.9,0,0,0-.5-1.3l.2.2a5.1,5.1,0,0,1,.9,1.8h.1c-.1-.3-.1-.6-.2-.9l.5.6a3.1,3.1,0,0,0,.1-.9,4.3,4.3,0,0,1-.1-.5l.4.6a8.6,8.6,0,0,1,.2,2.8.1.1,0,0,0,.1.1,8.9,8.9,0,0,0,0-2.3h.1a5.7,5.7,0,0,1,.1,1.3.1.1,0,0,0,.1.1,12.1,12.1,0,0,1-.5,1.8h.2a9.6,9.6,0,0,0,.8-2.9,2.4,2.4,0,0,1,.2-.8v.4a9.7,9.7,0,0,1-.4,2.9c-.1.1.1.1.1,0a8.9,8.9,0,0,0,.7-3.4l.6.8c.1.2.2.3.2.5s.7,2.2,1.1,3.3h.1a11.1,11.1,0,0,0-.5-2.5,7.9,7.9,0,0,1,1.2,4.2s.1.1.1,0a4.4,4.4,0,0,0-.5-3.3l.2.3c.3.7.7,1.4,1,2.2h.1a7.2,7.2,0,0,0-1-2.9,9.4,9.4,0,0,1,1.2,2.2h.1a14.2,14.2,0,0,0-.8-1.8l.5.7.8,1a5.9,5.9,0,0,0-.2-1.3,4.4,4.4,0,0,1,.7,1.9,7.6,7.6,0,0,1-.1,1.5h.1a.4.4,0,0,0-.1.3c-.1.1.1.2.1.1s.3-.7.5-1a7.8,7.8,0,0,1-.9,2.4.1.1,0,0,0,.1.1,8.2,8.2,0,0,0,.9-1.9,11.7,11.7,0,0,0,.6-2,7.7,7.7,0,0,1-.2,1.5h0a9.8,9.8,0,0,1-.5,1.6h.1a10.4,10.4,0,0,0,1.1-3.1,1.7,1.7,0,0,1,.1.7h.1a7.1,7.1,0,0,0,.1-1.5,14,14,0,0,1,1.7,3.7.1.1,0,0,0,.1-.1,16.1,16.1,0,0,0-1.2-3.5,12.5,12.5,0,0,1,1.8,4.5c0,.1.1.1.1,0a3.1,3.1,0,0,0-.3-1.3,4.8,4.8,0,0,1,.5,2.6h.2a6.7,6.7,0,0,0-.3-2.8,5.9,5.9,0,0,1,.4.8.1.1,0,0,0,.1-.1,6.1,6.1,0,0,1-.5-1.2l.5,1a11.9,11.9,0,0,1,.6,1.4,7.3,7.3,0,0,0,.1-1.3,2.5,2.5,0,0,1,.2.7,11.3,11.3,0,0,1,0,2.6c0,.1.1.1.1,0s.1-1,.2-1.6a4.9,4.9,0,0,1,.1,1.2H28l-.3,1.9h0a13.1,13.1,0,0,0,.9-2.8l.4-.9a6.8,6.8,0,0,1-.2,1.4s.1.1.1,0a14,14,0,0,0,.6-2.4c0,.1,0,.1.1.2a7.3,7.3,0,0,0,.2.8.1.1,0,0,1,.1-.1,9,9,0,0,1-.7,2.7c-.1.1,0,.1.1.1a9.1,9.1,0,0,0,1.1-3c0-.4.1-.8.1-1.1a4.5,4.5,0,0,1-.1,1.1h.1a4.7,4.7,0,0,0,.4-1.7,15.4,15.4,0,0,1,1.7,1.9h.1a4.4,4.4,0,0,0-.8-1.1l1.1.9a3.5,3.5,0,0,0-.2-1l-.3-.6c.2.1.3.3.5.5a11.4,11.4,0,0,1,.7,3.2c0,.1.2.1.2,0a9.7,9.7,0,0,0-.1-1.7h.1a.3.3,0,0,0-.1-.2c0-.2,0-.3-.1-.4l.5.9a20.9,20.9,0,0,1-.1,2.5h.1a13,13,0,0,0,.2-3.4v-.5c.2.8.3,1.7.5,2.5s.1.1.1,0a6,6,0,0,0-.1-2.3,4.2,4.2,0,0,0-.6-2.1,1.4,1.4,0,0,0-.2-.6l.6.3a6.2,6.2,0,0,1,2.8,3.2c0,.1.2,0,.1-.1a5.8,5.8,0,0,0-2.3-3.3,3.3,3.3,0,0,1,1.8,1.5,2.5,2.5,0,0,0-.2-1.3,5.5,5.5,0,0,1,1.5,2h.1c0-.9-1.2-1.9-1.8-2.6h-.1a4.6,4.6,0,0,1,1.8,1.1A.1.1,0,0,0,38.5,31.7Zm-5.8-2.9L30.6,28A3.9,3.9,0,0,1,32.7,28.8Zm-6.6-3.4a2.2,2.2,0,0,1,.9.7h-.1l-.8-.5-1.2-.7Zm-9.2-3.5.7.4L16.3,22Zm-2.3-.5a3.4,3.4,0,0,1,2,.3l-1,.2-2.1-.2Z"/><path class="cls-5" d="M69.6,40.6c-.5-1.4-1.7-1.2-2.6-.1-7,8.4-14.4,14.3-24.9,17.3a17.8,17.8,0,0,0,.8-4.4c0-2.1,8.5,5.3,20.8-11,2.5-3.4,2-7.9,3.6-8.4C70.9,32.9,69.8,41.7,69.6,40.6Z"/><path class="cls-7" d="M13.8,22.2a.2.2,0,0,1,.4-.1c1.9,1.9,2,5.8-.4,5.8s-1.1-.6-1.1-1.2S13.6,23.8,13.8,22.2Z"/><path class="cls-8" d="M14.1,22.6c.3,2.4-1.1,4.4,0,4.4S15.2,23.8,14.1,22.6Z"/><path class="cls-1" d="M38.2,87.6A4.3,4.3,0,0,0,37,90.3c0,1.4,4,2.2,4-1.5A3.3,3.3,0,0,1,38.2,87.6Z"/><path class="cls-2" d="M42.1,69.4c-.1.9.4,1,.2,2.4s-.7,1.6-.8,3.1-.2,2.5-.3,4.4a20.9,20.9,0,0,0-.1,2.6v1.8c0,.5.7,1.1.7,2.2s-1,.6-.8,2.9a3.5,3.5,0,0,1-1.8.7,2.1,2.1,0,0,1-1.5-.7c-.5-.7,1-1.6,1-3.5s.1-2.3.1-3.4a17,17,0,0,0-.1-2.2c-.1-1.1-.2-2.3-.4-3.8s-.7-1.3-.8-2.4.6-1.7.5-3.6c-.1-3.7-1.7-7.9-1.8-11.7a9.2,9.2,0,0,1,.8-4l4.2-1,1.9-.4s-.1,1.9-.3,4.6S42.4,65.1,42.1,69.4Z"/><path class="cls-3" d="M41,89.4a2.3,2.3,0,0,1-3.8,1.4A3.4,3.4,0,0,0,41,89.4Z"/><path class="cls-4" d="M41,88.8a3.5,3.5,0,0,1-1.8.7,2.1,2.1,0,0,1-1.5-.7c-.5-.7,1-1.6,1-3.5s.1-2.3.1-3.4a17,17,0,0,0-.1-2.2l2.5-.4a20.9,20.9,0,0,0-.1,2.6v1.8c0,.5.7,1.1.7,2.2S40.8,86.5,41,88.8Z"/><path class="cls-1" d="M88.6,64.6Z"/><path class="cls-1" d="M82.2,51.9c-.2-1-1-1.4-1.7-1.9s-1.2-2.4-1.3-3.7v-2a3.4,3.4,0,0,0,.1-1,1.5,1.5,0,0,1,.3-.7,3,3,0,0,0,.4-.8c.1-.1.2-.7.3-.8a12.4,12.4,0,0,0,.2,1.8c.3.2.2-.5.2-.6a16.9,16.9,0,0,1,.1-2.3,15.5,15.5,0,0,1,.4-2.1V38c0,.2.1.4.1.6a4.9,4.9,0,0,0,.1,1.2c0,.3.1.6.1.9s0,.3.2.3.2-.4.2-.6V34.7h0c0,.2.1.4.1.6a3.6,3.6,0,0,1,.2,1,14.6,14.6,0,0,1,.3,2.2h.1a29.8,29.8,0,0,0-.5-4.3,23,23,0,0,1-.5-4.5c.1-1.4.3-2.8.3-4.3a12.9,12.9,0,0,0-.8-3.8,6.8,6.8,0,0,0-1.5-2.6,7.1,7.1,0,0,0-2.2-1.3L75,17H74c-.2,0-.5.2-.7.1l-.8-.5-.8-.5-1.6-.6a14.8,14.8,0,0,0-3.5-.5,15.7,15.7,0,0,0-6.8,1.9c-3.3,1.8-5.5,4.8-8.2,7.3A23.5,23.5,0,0,1,46,28.1a20.4,20.4,0,0,1-8.2,2.4h-.5c-.5-.1-.1-.1,0-.1s.5.1.7,0h0c0-.3-.7-.3-.9-.4h-.8l-.5-.4a2.7,2.7,0,0,0-1-.6l-.7-.2-.7-.2L32.2,28l-1.4-.3h-.9l-.8-.4h1.8c0-.3-.7-.4-1-.4H29a2.1,2.1,0,0,1-1.3-.5l-.8-.7a3.1,3.1,0,0,0-1-.5l-.4-.2h-.2l1.1.2a3.1,3.1,0,0,1,1,.5l.5.4c.3-.1-.4-.6-.4-.6a3.6,3.6,0,0,0-1.7-.7l-.8-.2a4.8,4.8,0,0,1-1.2,0l-1.2-.5h-.4l.7.2,1.2.2h.3l-1.5-.3-1.5-.4-1.6-.3H21l1.9.7s.4.3.4,0-.7-.4-.8-.5a6.6,6.6,0,0,0-3.1-.6h-.6a.5.5,0,0,1-.6-.1l-.3-.2c-.2-.2-.5-.3-.1-.3h1c.1,0,.1,0,0-.1l-.6-.2h-.8a12.4,12.4,0,0,1-1.6-.4H14.4l-1.8.5H11.3c-.2,0-.3,0-.4-.2s.1-.5-.2-.5-.6.4-.7.6a5.3,5.3,0,0,0-1,2.9,2.5,2.5,0,0,0,.2,1.2c.1.2.2.3.1.5s-.4.3-.5.4a5.2,5.2,0,0,0-1.3,1.7,14.2,14.2,0,0,0-.2,2.9,12.4,12.4,0,0,1-2.6,6.1c-.6.9-1.6,1.5-2.2,2.4s0,1.6.4,2.2,3.6,1.8,5.4,1.6a4.1,4.1,0,0,0,2.8-.9,2.5,2.5,0,0,0,.4-.7,3.5,3.5,0,0,1,.8-1.3,8.6,8.6,0,0,1,3.2-1.5l.8-.3c.3-.1.8-.3,1-.2l.7.6.5.6A7.4,7.4,0,0,1,19.9,42a8.5,8.5,0,0,1,.4,1.7,9.5,9.5,0,0,0,.9,3.3,23.3,23.3,0,0,0,3.1,5l.9,1,.3.4c.2.2.5.4.6.6s0,.6.1.9.1.6.1.9a11.6,11.6,0,0,0,.4,1.8c.2,1.3.5,2.6.8,3.9a15.4,15.4,0,0,1,.3,3.7c-.1.8-.4,1.5-.5,2.2a6.1,6.1,0,0,0,.1,1.4,11.2,11.2,0,0,1,.5,1.3,11.6,11.6,0,0,1,.4,1.8,11.1,11.1,0,0,0,.2,1.7c0,.9.1,1.8.1,2.7s-.1,2.4-.1,3.6a4.1,4.1,0,0,1-.5,1.8L27.4,83a3.1,3.1,0,0,0-.6,1.3c0,.2-.2,1.1.2,1.1s-.1.1,0,.1a2.3,2.3,0,0,0,2.4.5,2.7,2.7,0,0,0,1.5-2.4,7.5,7.5,0,0,1,0-1.5c.1-.5.5-.7.7-1.1a2.2,2.2,0,0,0-.1-1.4,6,6,0,0,1-.6-1.1V76.4c0-.7.1-1.4.1-2.1s.1-2.1.2-3.2a11.7,11.7,0,0,1,.4-2.7,7.8,7.8,0,0,0,.5-1.4,7.6,7.6,0,0,0,.1-1.5l-.3-1.1a10.9,10.9,0,0,1,.1-1.8l.3-4.4v-.5c.1-.1.2,0,.4,0l.9.2,1.9.3H36c.3,0,.2.1.2.3a3.4,3.4,0,0,0,.1,1,12.3,12.3,0,0,0,.2,1.9c.5,2.7,1.4,5.4,1.5,8.2a9.7,9.7,0,0,1-.1,1.7,4.5,4.5,0,0,0-.3,1.1,6.6,6.6,0,0,0-.1,1.4,6.7,6.7,0,0,0,.6,1.5,6.3,6.3,0,0,1,.3,1.9,13.7,13.7,0,0,1,.2,1.9,17,17,0,0,1,.1,3.9c0,1.3.2,2.8-.4,4a13.4,13.4,0,0,0-1.2,2.4c-.1.3-.4,1.3.1,1.4s-.1,0,0,.1a2.4,2.4,0,0,0,2.2.5,2.3,2.3,0,0,0,1.6-2h-.1c.2-.2.1-.4.1-.6h0v-.6a2.5,2.5,0,0,1,.1-.8,3.5,3.5,0,0,1,.5-.8c.5-.6.2-1.4-.2-2.1l-.3-.6a4.1,4.1,0,0,1,0-1.1V80.4l.3-4.2c.1-.6.1-1.3.2-1.9a7.8,7.8,0,0,1,.5-1.4,4.7,4.7,0,0,0,.3-1.7,5.3,5.3,0,0,0-.3-1.2,14.1,14.1,0,0,1,.1-2.1c.1-.9.1-1.7.2-2.6l.3-4.8c0-.7.1-1.4.1-2.1v-.5c0-.2,0-.3.2-.4l1.1-.4a31.2,31.2,0,0,0,3.9-1.5,50.7,50.7,0,0,0,7.2-4,62.1,62.1,0,0,0,6.3-5.2l.7-.7.4-.4c.1-.1.2-.3.4-.2l.3.5.3.4.7.8L66,48.3a2.2,2.2,0,0,1,1,1.1,4.1,4.1,0,0,1,0,1.9,19.5,19.5,0,0,1-.2,2.3l-.6,4.5L65.9,60a10.1,10.1,0,0,1-.4,2.5,13.9,13.9,0,0,1-.6,1.3.8.8,0,0,1-.1.4,7.9,7.9,0,0,0-.4.9c-.1.2-.5,1.4,0,1.5h0a2.4,2.4,0,0,0,2.3.5,2.3,2.3,0,0,0,1.5-2h0c.2-.4.1-1,.3-1.5a9.3,9.3,0,0,0,.5-1,2.2,2.2,0,0,0-.2-1.6,4.1,4.1,0,0,1-.1-1.1l.3-1.1a66.6,66.6,0,0,1,1.9-7.7,21.7,21.7,0,0,0,.7-2.4l.2-.5c0-.1,0-.4.1-.4h0a.4.4,0,0,0,.1.3c.1.1.1.3.2.4l.6,1.1a21.7,21.7,0,0,0,2.3,3l1.4,1.1c.4.3.7.5.8,1a6.6,6.6,0,0,1,.1,2,14.9,14.9,0,0,0-.2,2.1l-.3,2.2c0,.3-.1.7-.1,1.1s0,.3-.3.3h0L76.2,65a26.8,26.8,0,0,1-.5,3l-.6,1.1c0,.1-.1.2-.1.3a.5.5,0,0,1-.2.4,5,5,0,0,0-.4,1.3c0,.1-.1.8.2.9h0a2.2,2.2,0,0,0,2.2.6,2.4,2.4,0,0,0,1.6-2h0c.1-.1,0-.1.1-.3s.1-.1.2-.2l.2-.2v-.3c0-.2.1-.3.1-.5s.6-.8.6-1.3a4.1,4.1,0,0,0-.3-1.6,6.3,6.3,0,0,1,.2-2.4,66.6,66.6,0,0,1,1.9-7.7l.6-2.3a4.1,4.1,0,0,0,.2-1.9h-.1a4.4,4.4,0,0,1-.2,2,11.7,11.7,0,0,1-.5,2l-1.1,3.8c-.3,1.3-.5,2.5-.8,3.8a15.2,15.2,0,0,0-.3,2.1c-.1.6.3,1.1.4,1.7s-.3,1.1-.6,1.7-.1.7-.3.9l-.3.3c-.1.1,0,.3,0,.4h0c-.1.2-.1.4-.2.6a.9.9,0,0,1-.3.6,2.6,2.6,0,0,1-1.1.7H75.1l-.5-.4h0a2,2,0,0,1,.1-1.7,10.4,10.4,0,0,0,.4-1,11.7,11.7,0,0,0,.5-1.1,4.2,4.2,0,0,0,.4-1l.3-2.8c0-.4.1-.8.1-1.2s0-.4.1-.5,0-.1.1-.1h.2c.1-1.2.3-2.4.4-3.6s.3-2.3.3-3.4a1.8,1.8,0,0,0-.6-1.6,9.9,9.9,0,0,1-2.6-2.4,13.6,13.6,0,0,1-2.4-3.8h-.1a8.3,8.3,0,0,1-.6,2.1l-.9,3.2c-.4,1.5-.8,3-1.1,4.5a18.9,18.9,0,0,0-.5,2.3,4.7,4.7,0,0,0,.2,1.7,1.5,1.5,0,0,1,0,1.3,4.3,4.3,0,0,0-.4.7,4.1,4.1,0,0,0-.3,1.6h0a4.2,4.2,0,0,1-.4,1,1.5,1.5,0,0,1-1.1.8,2.5,2.5,0,0,1-1.2.1l-.6-.2a.9.9,0,0,0-.5-.3h.1c-.4-.4-.2-1-.1-1.5a9.3,9.3,0,0,0,.5-1c.1-.2.1-.4.2-.6a2.5,2.5,0,0,0,.4-.7,9.3,9.3,0,0,0,.4-2.3l.3-2.4c.3-1.8.5-3.5.7-5.3a26,26,0,0,0,.3-2.6,2.8,2.8,0,0,0-.3-1.3l-.7-.5A6.5,6.5,0,0,1,65,47.3a11.6,11.6,0,0,1-2-2.4h0A48.4,48.4,0,0,1,48,55.6a46,46,0,0,1-5.2,1.9h0c-.1,2.6-.3,5.1-.5,7.6L42,69.4a2.9,2.9,0,0,0,.2.9,7.1,7.1,0,0,1,.1,1.4c-.1,1-.7,1.8-.8,2.8a26.4,26.4,0,0,0-.2,2.8c-.1,1.3-.2,2.5-.2,3.8s-.1,1.3-.1,2a2,2,0,0,0,.2,1.1c.4.8.9,1.7.3,2.5l-.4.6a.9.9,0,0,0-.1.5.8.8,0,0,0-.1.4v.5h0v.6H41c-.1.1-.1.3-.2.5l-.3.6a1.9,1.9,0,0,1-1.1.7H38.2l-.5-.2c-.2-.1-.3-.3-.5-.3h0a2.1,2.1,0,0,1,.2-2l.5-1a5.3,5.3,0,0,0,.8-2.4,40.9,40.9,0,0,0-.1-7,7.8,7.8,0,0,0-.2-1.6,5.1,5.1,0,0,0-.3-1.7,5,5,0,0,1-.5-1.3,4.2,4.2,0,0,1,.1-1.6,6.1,6.1,0,0,0,.3-2.3,13.2,13.2,0,0,0-.4-3.4c-.5-2.8-1.3-5.5-1.3-8.3h-.1a13.4,13.4,0,0,1-3.9-.7h0l-.3,4c0,.6-.1,1.3-.1,2a4.8,4.8,0,0,0,0,1.2,4.5,4.5,0,0,1,0,2.8,6.1,6.1,0,0,0-.5,1.2c-.1.4-.1.9-.2,1.3-.1,2-.3,4-.3,6V78a1.8,1.8,0,0,0,.2,1,3.3,3.3,0,0,1,.5,1.5c0,.5-.4.8-.6,1.3a1.7,1.7,0,0,0-.2,1.4,5.7,5.7,0,0,1-.3,1.8,2.1,2.1,0,0,1-1.8,1,1.4,1.4,0,0,1-.9-.1l-.4-.2-.4-.2h0c-.3-.4-.1-1.1.1-1.7a6.7,6.7,0,0,1,.6-1.2,8.5,8.5,0,0,0,.9-2.2c.1-1,0-2.1,0-3.1V74.7c-.1-.9-.1-1.7-.2-2.6a11.4,11.4,0,0,0-.6-2.5,4.2,4.2,0,0,1-.3-2.7c.1-.6.3-1.1.4-1.8a26.5,26.5,0,0,0-.9-6.2l-.6-3.2a7.8,7.8,0,0,1-.2-1.6c-.1-.3-.4-.5-.7-.8a20,20,0,0,1-4.8-7.9c-.3-1-.4-2.1-.7-3.1a9.2,9.2,0,0,0-2.7-3.8h-.1a35.9,35.9,0,0,0-3.5,1.2,3.8,3.8,0,0,0-2.2,1.9,2.7,2.7,0,0,1-.5,1.1,5.6,5.6,0,0,1-1.8.7,10.2,10.2,0,0,1-3.9-.1,3.8,3.8,0,0,1-2.7-2.2,2.9,2.9,0,0,1-.2-.9,1.4,1.4,0,0,1,.5-.8l1.2-1.3a11.2,11.2,0,0,0,3-5.8,6.9,6.9,0,0,0,.3-2,5.5,5.5,0,0,1,.2-1.8,5.5,5.5,0,0,1,1.9-2.4h0a3.4,3.4,0,0,1-.3-2.6A6.7,6.7,0,0,1,9.8,22l.4-.6c.2-.2.4-.6.7,0v.4h0a16.4,16.4,0,0,0,2.3-.2,5.7,5.7,0,0,1,2.2-.4,3.2,3.2,0,0,1,1.4.3h.6c.3.2.6.6,1,.7s.7-.1,1-.1a7.5,7.5,0,0,1,2.6.5l.7.3h.4c-.1.1-1-.3-1.2-.4a7.2,7.2,0,0,0-2.5-.3s-.1.1,0,.1l1.1.3,1,.2,1.9.5.8.2h.4c.1,0,.3-.1.2,0s-.6,0-.7,0h-.8L22,23.6h0a5.2,5.2,0,0,0,1.3.6l.6.3h.4a7.3,7.3,0,0,1,2.5.4,3.1,3.1,0,0,1,.9.7c.2.2-.2-.1-.2-.2a.5.5,0,0,1-.4-.2,4.5,4.5,0,0,0-2-.4h0a8.4,8.4,0,0,1,2.1,1.1,2,2,0,0,0,.7.6,1.3,1.3,0,0,0,.8.3h1.7s.5.2.3.3H29a2.2,2.2,0,0,0,1.1.5h1.5a7.5,7.5,0,0,1,1.3.6l.6.4H34l1.3.5.8.6c.3.2.8.1,1.1.2s.8.2.6.3H37s-.1.1,0,.1h2.1l2.2-.5a25.4,25.4,0,0,0,4.6-1.7,25.5,25.5,0,0,0,6.3-4.6c1.6-1.5,2.9-3.1,4.6-4.6a16.8,16.8,0,0,1,6.7-3.6,11.6,11.6,0,0,1,9.9,1.7h0a2.9,2.9,0,0,1,1.6-.1,5.4,5.4,0,0,1,2.1.5,7.5,7.5,0,0,1,2,1,4.6,4.6,0,0,1,1.6,2.1,12.7,12.7,0,0,1,1,6.9,21.7,21.7,0,0,0-.1,3.6c.1,1.2.4,2.4.6,3.6a15,15,0,0,1,.2,2.2,2.8,2.8,0,0,1,.1.9c0,.1,0,.3.1.3s-.1-.5-.1-.5a18,18,0,0,0-.6-3.2h0c-.1,1.2,0,2.5,0,3.7a16.9,16.9,0,0,1-.1,2.3v.3c-.3.2-.3-.5-.3-.5s-.1-.6-.1-.9-.1-1.2-.1-1.8-.1-.1-.1,0a9.4,9.4,0,0,1-.4,1.6,7.6,7.6,0,0,0-.1,1.5c0,.3-.1.6-.1.9v.5s.1.4,0,.4-.1-.2-.1-.3V40.9c0-.1-.1-.1-.1,0a6.5,6.5,0,0,1-.8,1.7c0,.2-.2.3-.2.5a1.3,1.3,0,0,0-.1.6,21.6,21.6,0,0,0,0,3.6,3.6,3.6,0,0,0,1.2,2.6c.7.6,1.6,1,1.7,2Z"/><path class="cls-1" d="M32.7,28.7l-2.1-.8h0a4.9,4.9,0,0,1,2.1.8c.1,0,.1,0,.1-.1a5.8,5.8,0,0,0-2.2-.8s-.1.1,0,.1l2.1.8C32.8,28.8,32.8,28.7,32.7,28.7Z"/><path class="cls-1" d="M26.1,25.4a2.2,2.2,0,0,1,.9.7h-.2l-.2-.2-.6-.3-1.1-.6h0l1.2.4c.1.1.1,0,0,0l-1.2-.5s-.1.1,0,.1l1.1.6.5.3.3.2h.3l-1-.7Z"/><path class="cls-1" d="M16.9,21.9l.7.4h0L16.3,22h0l.7-.2h-.1l-.6.2h0l1.3.2h0l-.6-.5Z"/><path class="cls-1" d="M14.6,21.4a3.4,3.4,0,0,1,2,.3H13.5l1.1-.3h0l-1.2.3h.1l1.6.2h.7l.8-.2h0a2.8,2.8,0,0,0-2-.3Z"/><path class="cls-1" d="M12,23.4c.1.1.1.1.1.2h0l-.2.2-.3.4h.1A8.1,8.1,0,0,1,11,22h-.1L12,23.4h.1L11,22h-.1a14.2,14.2,0,0,0,.7,2.2h0c.2,0,.2-.1.3-.3l.3-.3h0a.3.3,0,0,0-.1-.2Z"/><path class="cls-1" d="M11,21.9h-.1V22H11Z"/><path class="cls-1" d="M69,39.8a1.2,1.2,0,0,1,.5.5,1.3,1.3,0,0,0,.1.6l.3,1.4a27.6,27.6,0,0,0,.8,2.7h.1a4.8,4.8,0,0,1-1.1-.9,5.1,5.1,0,0,1-.6-2.1,8.1,8.1,0,0,1,0-2.2H69a13,13,0,0,0,.2,3.4,3.4,3.4,0,0,0,.9,1.4l.6.4c0,.1.1,0,.1,0a24.6,24.6,0,0,1-.9-2.9l-.3-1.5-.2-.5c-.1-.1-.2-.3-.3-.3Z"/></g></svg>