<svg xmlns="http://www.w3.org/2000/svg" viewBox="0 0 227 210"><defs><style>.cls-1{fill:#f0b3a4;stroke:#593129;}.cls-1,.cls-2{stroke-miterlimit:10;}.cls-2{fill:#ee4241;stroke:#cb2f2f;stroke-width:2px;}</style></defs><g id="Layer_10" data-name="Layer 10"><path class="cls-1" d="M77.7,99.1c10,14.5,37.9,54.4,45.4,58.3,9.2,4.8,46.7,20.4,72.4,29.7l-2-40.7s-40.6-15.5-53.1-16.8c-4.6-8.1-36.2-37.1-44.9-47.4"/><path class="cls-1" d="M95.2,83c.8-1.7,1.7-5.1.8-10.7-.6-3.6-3.4-9.5-4.1-15.9a38.7,38.7,0,0,1-.1-4.5c-.1-1.2-1.5-1.4-3.4-.5s-3.3,3.9-3.1,5.8c0,0,1.4,10-.4,10.5s-5.5-3.8-5.5-3.8c-2.8-3.6-6-8.2-6-8.2l-11.6-17a3.4,3.4,0,0,0-4.9,0,4,4,0,0,0,.2,5.4l9.3,15.5a.8.8,0,0,1-.2,1.2c-.3.4-.7.8-1.4.3L48.7,44.9a3.4,3.4,0,1,0-4.9,4.8L60.1,67c.7.6.2,1.9-.7,1.4L41.8,57.3a3.3,3.3,0,1,0-4.6,4.6L56.1,76.2c1.1.9.3,1.9-.4,1.3h0L41.1,72.6c-1.8-.9-3.8-1.2-4.6.3s-.5,2.8,1,3.9l16.1,8.6c11,13.9,22.3,15,22.3,15a31.4,31.4,0,0,0,5.9.3"/><path class="cls-2" d="M148.8,129.9a92.6,92.6,0,0,1-5.2,41.3,1.8,1.8,0,0,0,1.2,2.4l46.3,14.9c.4.2.5-.4,1-.7,11.7-7.1,17.1-37.1-1.5-48.7-6-3.7-35.1-9.3-41-10A.7.7,0,0,0,148.8,129.9Z"/></g></svg>