<svg xmlns="http://www.w3.org/2000/svg" viewBox="0 0 91 101"><defs><style>.cls-1,.cls-15{fill:#724e47;}.cls-1,.cls-9{stroke:#5b352c;stroke-width:0.3px;}.cls-1,.cls-10,.cls-13,.cls-14,.cls-5,.cls-8,.cls-9{stroke-miterlimit:10;}.cls-2{fill:#5b352c;}.cls-3{fill:#472922;}.cls-14,.cls-4{fill:#f0e8e5;}.cls-10,.cls-5{fill:#4e342e;}.cls-5,.cls-8{stroke:#000;stroke-width:0.04px;}.cls-6{fill:#774d43;}.cls-7{fill:#4c2822;}.cls-8{fill:#e7792a;}.cls-9{fill:#855d52;}.cls-10,.cls-13,.cls-14{stroke:#422825;}.cls-10,.cls-13{stroke-width:0.04px;}.cls-11{fill:#3e2723;}.cls-12{fill:#422825;}.cls-13{fill:#fff;}.cls-14{stroke-width:0.01px;}</style></defs><g id="Layer_6" data-name="Layer 6"><g id="Duck_poses_04_F_02_" data-name="Duck poses 04 ( F 02 )"><path class="cls-1" d="M74.5,45.1c.3,1.4.3,3.8,1,8.1.1.7.3,1.3.4,2.1l.3,1.5c.2.7,1,1.1,1.1,1.8s-.3,1.2.1,2.1-.5.6-.8.9a2.8,2.8,0,0,1-1.2.4,1.6,1.6,0,0,1-.9-.3c0-.1-.1-.1-.1-.2s.2-1.1-.1-2.4-.8-2.6-1-3.5-.4-1.2-.5-1.7l-1.1-4.1c-.4-1.4-.8-1.9-1.4-2C62,46.1,56.7,33.6,56.7,33.6s.4-11.8,4.9-11.5a35.9,35.9,0,0,1,5.7,11.4c.4,1.2.8,2.5,1.3,3.7s.3,1,.4,1.5c1.5,4.4,2.6,4.3,3.7,4.5a2.4,2.4,0,0,1,1.1.6A1.9,1.9,0,0,1,74.5,45.1Z"/><path class="cls-2" d="M74.6,60.6a4.4,4.4,0,0,0-.1,2.8c.5,1.1,4.2.4,2.9-2.7C75.4,62,74.6,60.6,74.6,60.6Z"/><path class="cls-3" d="M77.6,61.2a2.1,2.1,0,0,1-2.7,2.6A3.3,3.3,0,0,0,77.6,61.2Z"/><path class="cls-4" d="M77.3,58.6c.2.7-.3,1.2.1,2.1s-.5.6-.8.9l-1.2.4-1-.5c-.3-.5.2-1.1-.1-2.4s-.8-2.6-1-3.5-.4-1.2-.5-1.7l2.7-.7c.1.7.3,1.3.4,2.1l.3,1.5C76.4,57.5,77.2,57.9,77.3,58.6Z"/><path class="cls-2" d="M74.4,35.5c0,.1.2.1.2,0a6.6,6.6,0,0,1,.1-2,15.5,15.5,0,0,0,.4,2.1A11.7,11.7,0,0,0,76,38a2,2,0,0,1,.4.8h.2a14.7,14.7,0,0,1-.5-2.9l.4.8a11.1,11.1,0,0,0,.8,3.6h.2a12.7,12.7,0,0,0,.1-2c.1,0,.1-.2.2-.2a14.5,14.5,0,0,0-.1,3.6,6.4,6.4,0,0,0,1-2.6c-.1,1.3-.2,2.6-.2,3.8s.1.1.1,0l.3-2a1.3,1.3,0,0,0,.1.6,7.9,7.9,0,0,0,.1,1.4,11.9,11.9,0,0,0,1.3-2.6c.1.6.1,1.2.2,1.8h.1c0-1,.1-2,.1-3a12.9,12.9,0,0,0,.5-2.1l.3,3.3h.3c.2-2.1,0-6,.1-6.4a27.1,27.1,0,0,1,.6,3.8,37.2,37.2,0,0,0-.8-6.5c-.4-2.1.2-4.4.1-6.6a12.2,12.2,0,0,0-1.5-5.4c-1.3-2.2-5.7-3.2-6.8-2.7a18.6,18.6,0,0,1-2,1c-1.3.7,4.2,1.5,4.5,2.3a12.5,12.5,0,0,1,0,5.1c-.4,1.8-1,3.6-1.4,5.4l.7-.9h-.1a1.4,1.4,0,0,1-.2.6A8.8,8.8,0,0,0,74.4,35.5Z"/><path class="cls-2" d="M43.6,76.3a1.4,1.4,0,0,1,.2.6c.6,2.6-2.5,3.1-3,2.1a3.7,3.7,0,0,1,0-2.7A3.4,3.4,0,0,0,43.6,76.3Z"/><path class="cls-5" d="M38.9,61.6c.4,1.2-.1,1.6.4,2.9a68.9,68.9,0,0,0,2.2,6.6,3.6,3.6,0,0,1,.4.9c.2.5,1,.7,1.4,1.6s-.6.9.3,2.7c0,0-1,2-2.7,1.1s.2-1.6-.4-3.2L40,72.8a10.4,10.4,0,0,0-.4-1,29.8,29.8,0,0,0-2.7-5.4c-.5-.8-1-.9-1.4-1.8s-.2-1.6-.8-3.1c-1.9-4.4-6.5-8.2-6.3-12.9l4.7-3.3s2.5,7.3,4.8,14.3C38.1,60.4,38.5,60.4,38.9,61.6Z"/><path class="cls-1" d="M38.9,61.6c.4,1.2-.1,1.6.4,2.9s.8,2.8,1.8,5.5c.1.3.3.7.4,1.1a3.6,3.6,0,0,1,.4.9c.2.5,1,.7,1.4,1.6s-.7.9.3,2.7c0,0-1,2-2.7,1.1s.2-1.6-.4-3.2L40,72.8a10.4,10.4,0,0,0-.4-1l-.3-.8a25.8,25.8,0,0,0-2.4-4.6c-.5-.8-1-.9-1.4-1.8s-.2-1.6-.8-3.1c-1.9-4.4-6.5-8.2-6.3-12.9l4.7-3.3s2.5,7.3,4.8,14.3C38.1,60.4,38.5,60.4,38.9,61.6Z"/><path class="cls-3" d="M43.8,76.9a2.1,2.1,0,0,1-2.7,2.5A3.3,3.3,0,0,0,43.8,76.9Z"/><path class="cls-4" d="M43.6,76.3s-1,2-2.7,1.1.2-1.6-.4-3.2L40,72.8a10.4,10.4,0,0,0-.4-1l-.3-.8,1.8-1c.1.3.3.7.4,1.1a3.6,3.6,0,0,1,.4.9c.2.5,1,.7,1.4,1.6S42.6,74.5,43.6,76.3Z"/><path class="cls-6" d="M11,26.1h-.2c-1.9-.2-2.2-2.7-.9-4.8a3.5,3.5,0,0,1,.6-.9c.2-.2.5-.1.5.1C11,23.6,13.9,26.1,11,26.1Z"/><path class="cls-7" d="M10.8,26.1c-1.9-.2-2.2-2.7-.9-4.8-.1.1-.4,1.8.7,4.2C10.7,25.7,10.7,25.9,10.8,26.1Z"/><path class="cls-8" d="M11.2,33.8l-.2-.3a6.1,6.1,0,0,1-.7-1"/><path class="cls-9" d="M9.5,28.4,9.8,27v-.2h0A15.1,15.1,0,0,1,12,23.1h0l.5-.6.2-.2h.1c0-.1.1-.1.2-.2h.4c1.4-.4,5.5-.5,14.2,4.8a18.8,18.8,0,0,0,9.9,3.1,21.4,21.4,0,0,0,7.7-2c8.5-3.9,9.4-9.6,16.2-12.4,4.3-1.8,8.7-1.6,12.2,1a16.7,16.7,0,0,1,2.3,2.3l.5.7.6.8.3.4a16.6,16.6,0,0,1,1.3,2.7c.1.1.1.3.2.4h0a10.4,10.4,0,0,1-.7,6.7h0a9.2,9.2,0,0,1-1.4,2.8,14.8,14.8,0,0,1-1.3,2.1l-2,2.2-.2.2-.2.2-1.1.9c-1.1.8-1.9,1-2.2.5h0l-.2-.4c0-.1-.1-.1-.1-.2h-.3a.1.1,0,0,1-.1-.1h-.2a1,1,0,0,0-.9.2c-.1,0-.1,0-.1.1h-.1a1990328647664.3,1990328647664.3,0,0,0-.2.2l-.4.4c-.1.1-.2.3-.4.4a1,1,0,0,1-.4.5.3.3,0,0,1-.1.2h-.1l-.2.2a.1.1,0,0,1-.1.1l-.3.4h0a1990328647664.3,1990328647664.3,0,0,1-.2.2.3.3,0,0,1-.1.2h-.1a.1.1,0,0,0-.1.1l-.3.3a1.2,1.2,0,0,1-.5.5l-.3.4h0a4.6,4.6,0,0,1-.7.7.2.2,0,0,1-.2.2h0c0,.1,0,.1-.1.1l-.3.4h0l-.3.3-.4.4-.7.6h0l-.3.3h0l-.3.4-.4.3-1,.9h0l-1.1.9-.4.3c-.1.1-.1.2-.2.2l-.9.7c-.1,0-.1.1-.2.2l-.5.3-.7.5A29.1,29.1,0,0,1,51,53.4a.1.1,0,0,1-.1.1h-.2l-.4.2h-.2l-.5.2-.4.2-.4.2-.9.4h0a36.8,36.8,0,0,1-5,1.8h0l-1.1.4h0a23.4,23.4,0,0,1-4,.4H35l-1.4-.2a.1.1,0,0,0-.1-.1H31.9a.1.1,0,0,1-.1-.1h-.9l-.8-.3h-.4l-.4-.2-.3-.2a.1.1,0,0,1-.1-.1h-.3a.1.1,0,0,0-.1-.1.1.1,0,0,1-.1-.1h-.1a.1.1,0,0,0-.1-.1h-.3c-.1-.1-.2-.1-.2-.2h-.4l-.7-.6h-.1c0-.1-.1-.1-.2-.2s-.1-.1-.1-.2l-.5-.4-.2-.3a.1.1,0,0,1-.1-.1h0a.1.1,0,0,1-.1-.1l-.2-.2h0c-.1,0-.1,0-.1-.1h-.2v-.2l-.5-.6a.1.1,0,0,0-.1-.1c0-.1,0-.1-.1-.2l-.3-.4h-.1c-2.8-3.8-3-5.8-3.3-7.4s-.6-3.1-3.8-5.7a2.7,2.7,0,0,0-1.1-.5"/><path class="cls-9" d="M23.8,31c0,.1,0,.1-.1.2a14.8,14.8,0,0,1-1.6,3.4c-1.8,3.2-6.6,3.3-9.1,4.8h-.2a2.7,2.7,0,0,0-1,1.1c-.4.6-.3,1.4-1.6,1.8a7.8,7.8,0,0,1-3.1.4,5.2,5.2,0,0,1-3.8-1.4,2.4,2.4,0,0,1-.8-2.2c.1-.4.8-1,1.5-1.6s.1-.1.1-.2l.8-.9a11.9,11.9,0,0,0,2.5-7.3c0-2.1.8-2.8,2.5-4.1s2.5-3.3,7.5-3.1a11.4,11.4,0,0,1,2.5.2C24.3,22.9,25.5,26.3,23.8,31Z"/><path class="cls-10" d="M15,30.9s-.1,1.4-.9,1.5-1-.2-1.5.2a1.4,1.4,0,0,0,.2-.7,1.7,1.7,0,0,1,.7-1.3,1.1,1.1,0,0,1,1.4.2Z"/><path class="cls-11" d="M14.9,30.8a1.3,1.3,0,0,1-1,1.4,1.1,1.1,0,0,1-1.1-.3,1.7,1.7,0,0,1,.7-1.3A1.1,1.1,0,0,1,14.9,30.8Z"/><path class="cls-12" d="M14.9,30.8a1.2,1.2,0,0,1-.4,1,1.2,1.2,0,0,1-1.1.4l-.3-.2h-.2v-.2c.1-.1.1-.3.2-.5a1.1,1.1,0,0,1,.9-.8,1,1,0,0,1,1,.3h0a.9.9,0,0,0-1.3-.2,1,1,0,0,0-.6.5,2.4,2.4,0,0,0-.2.8h0a1.2,1.2,0,0,0,1.5.1,1.3,1.3,0,0,0,.6-1.2Z"/><path class="cls-13" d="M14.4,31c.1.1,0,.2-.2.3l-.3-.2c-.1-.2,0-.3.2-.3S14.4,30.8,14.4,31Z"/><path class="cls-14" d="M6.3,35.5a18.5,18.5,0,0,0,1.9-3.7c.5-1.4.5-3.8,1.9-4.9s2.9-.2,3,1.1a3.4,3.4,0,0,1-1.3,2.8,10.4,10.4,0,0,0-2.2,2.5,8.2,8.2,0,0,0-1.4,2.8c-.3.8-.5,1.7-1.6,2s-1.5-.1-1.5-.8.7-1.2,1.1-1.7A.1.1,0,0,1,6.3,35.5Z"/><path class="cls-11" d="M6.4,38.8l.2-.3H7c.6.8,1,2.2-.2,2.4s-1.6-.6-1-1.1S6.5,39.2,6.4,38.8Z"/><path class="cls-11" d="M3.9,38a1.2,1.2,0,0,0-.3,1.2c.1.7-.5,1-1.1.7a10.7,10.7,0,0,1,1.4-2.2A.2.2,0,0,1,3.9,38Z"/><path class="cls-2" d="M38.5,31a7.7,7.7,0,0,0-1.8-1,.1.1,0,0,0,.1.1c.6.7,1.8,1.7,1.8,2.6h-.1a5.5,5.5,0,0,0-1.5-2,4.8,4.8,0,0,1,.2,1.3,2.9,2.9,0,0,0-1.8-1.5,5.5,5.5,0,0,1,2.3,3.3.1.1,0,0,1-.1.1,6.7,6.7,0,0,0-2.8-3.2l-.6-.3c.1.2.1.4.2.6a8.3,8.3,0,0,1,.6,2.1,8.9,8.9,0,0,1,.1,2.3s-.1.1-.1,0-.3-1.7-.5-2.5v.5a9.8,9.8,0,0,1-.3,3.4s-.1,0,0-.1a9.6,9.6,0,0,0,0-2.4,2.5,2.5,0,0,0-.4-.9c0,.1.1.2.1.4a.3.3,0,0,0,.1.2h-.1a4.9,4.9,0,0,1,0,1.7h-.1a19.4,19.4,0,0,0-.7-3.3l-.6-.5a1.3,1.3,0,0,1,.3.7,2.5,2.5,0,0,1,.3,1L32,32.7l.8,1h-.1A15.4,15.4,0,0,0,31,31.9a10.5,10.5,0,0,1-.4,1.7c-.1,0-.1,0-.1-.1s.1-.8.1-1.2-.1.8-.2,1.2a6.5,6.5,0,0,1-1.1,2.9c0,.1-.1,0-.1,0a5.4,5.4,0,0,0,.7-2.7h0l-.3-.7v-.2a16.8,16.8,0,0,1-.6,2.4h-.1a5.9,5.9,0,0,1,.2-1.4l-.5.9a9.8,9.8,0,0,1-.8,2.8c0,.1-.1.1-.1,0a11.8,11.8,0,0,0,.4-2,.3.3,0,0,0-.1.2c0-.4-.1-.8-.1-1.2s-.1,1.1-.2,1.6-.2,0-.1,0a11.3,11.3,0,0,0,0-2.6,6.4,6.4,0,0,1-.2-.7,7.3,7.3,0,0,1-.1,1.3,11.9,11.9,0,0,0-.6-1.4l-.6-1,.6,1.2c0,.1-.1.1-.2.1l-.3-.9a9.9,9.9,0,0,1,.3,2.9c-.1.1-.2.1-.2,0a4.7,4.7,0,0,0-.5-2.6l.3,1.3H26a14.6,14.6,0,0,0-1.8-4.5,24.2,24.2,0,0,1,1.2,3.5h-.1a14.9,14.9,0,0,0-1.7-3.6,7.6,7.6,0,0,1-.1,1.5h-.1c0-.2-.1-.5-.1-.7A28.3,28.3,0,0,1,22.2,33c0,.1-.2.1-.1,0a9.8,9.8,0,0,0,.5-1.6h0a6.8,6.8,0,0,0,.2-1.4l-.6,2a6.1,6.1,0,0,1-.9,1.8h-.1a7.5,7.5,0,0,0,.8-2.4,4.2,4.2,0,0,1-.4,1c0,.1-.2,0-.2-.1s.1-.2.1-.4h0c0-.4.1-.9.1-1.4a6.2,6.2,0,0,0-.7-1.9,5.9,5.9,0,0,1,.2,1.3l-.8-1.1-.5-.6a14.2,14.2,0,0,1,.8,1.8s-.1.1-.1,0l-1.2-2.3a11.1,11.1,0,0,1,1,2.9.1.1,0,0,1-.1.1l-1.1-2.3a.3.3,0,0,0-.1-.2,4.9,4.9,0,0,1,.5,3.3h-.1a7.9,7.9,0,0,0-1.2-4.2,10.1,10.1,0,0,1,.4,2.5h0c-.4-1.1-.6-2.3-1.1-3.4a.8.8,0,0,1-.2-.4l-.6-.8a9.4,9.4,0,0,1-.7,3.4c-.1.1-.2.1-.2,0a7.4,7.4,0,0,0,.5-2.9c0-.1-.1-.3-.1-.4a1.4,1.4,0,0,1-.2.7,6.1,6.1,0,0,1-.8,3c0,.1-.1,0-.1-.1a10.5,10.5,0,0,0,.4-1.7h0a5.7,5.7,0,0,0-.1-1.3h-.1a8.1,8.1,0,0,1-.1,2.2h0A8.6,8.6,0,0,0,15,25a2.1,2.1,0,0,1-.4-.6v.5a2.1,2.1,0,0,1,0,.9l-.6-.7a3,3,0,0,1,.2,1h0l-.9-1.9c-.1,0-.1-.1-.2-.2a7.8,7.8,0,0,1,.5,1.4h-.1a6.6,6.6,0,0,0-.9-1.9,2.2,2.2,0,0,0-.5-.8l-.8-1-.3-.4a.1.1,0,0,1,.1-.1h1.8c1.4-.4,2.6-1,4.1-.2h.2a2.5,2.5,0,0,1,1.7.2h-.1a2,2,0,0,0-1.3-.1l.9.6h.2a7,7,0,0,1,4.7.9c.1.1,0,.2-.1.2a6.4,6.4,0,0,0-3.7-.9l1.2.4c1.3-.1,3.2,1.1,4.3.8s.1.1,0,.1a8.3,8.3,0,0,1-3.1-.4l2.1.8A5.1,5.1,0,0,1,28,25c0,.1-.1.2-.1.1a3.5,3.5,0,0,0-2.7-1,3.4,3.4,0,0,1,1.5.7,2.4,2.4,0,0,1,.9.8l1.2.5c.7.1,1.6-.2,2.1.4s0,.1,0,0a10.8,10.8,0,0,0-1.8,0l1,.5a4.9,4.9,0,0,1,3.5,1.1,4.5,4.5,0,0,1,2.5,1.1l.2.2a3.8,3.8,0,0,1,1.8.3c0,.1,0,.1-.1.1h-.9A3,3,0,0,1,38.6,31S38.6,31.1,38.5,31Zm-7.8-3.8a9.6,9.6,0,0,0,2.1.8A6.6,6.6,0,0,0,30.7,27.2Zm-5.7-3,1.1.7.9.4h.1a2.2,2.2,0,0,0-.9-.7Zm-8.6-2.9,1.3.3-.7-.5ZM13.5,21l2.2.2,1-.2a2.8,2.8,0,0,0-2-.3Z"/><path class="cls-15" d="M69.7,39.9c-.5-1.4-1.7-1.2-2.7-.1C60.1,48.2,52.6,54,42.1,57.1a16,16,0,0,0,.9-4.4c0-2.1,8.4,5.3,20.7-11,2.6-3.4,2-7.9,3.7-8.4C70.9,32.2,69.9,41,69.7,39.9Z"/><path class="cls-6" d="M13.8,21.5c0-.2.3-.3.5-.1,1.8,1.8,2,5.8-.4,5.8s-1.1-.6-1.1-1.2S13.7,23,13.8,21.5Z"/><path class="cls-7" d="M14.2,21.8c.2,2.5-1.1,4.5,0,4.5S15.3,23.1,14.2,21.8Z"/><path class="cls-2" d="M30.1,83.6A5.1,5.1,0,0,0,28,85.9c-.4,1.3,3.2,3.3,4.4-.2A3.2,3.2,0,0,1,30.1,83.6Z"/><path class="cls-9" d="M45.7,51.2s-.9,2.6-2,5.2-2.8,7.1-4.4,11.2c-.3.8.1,1-.5,2.3s-1.2,1.3-1.7,2.7-1,2.3-1.7,4.1-.5,1.5-.8,2.4a18.9,18.9,0,0,0-.6,1.8c-.2.5.4,1.2,0,2.3s-1.2.2-1.6,2.5a3.5,3.5,0,0,1-2,.1,2,2,0,0,1-1.2-1.2c-.3-.7,1.4-1.2,2-2.9l1.2-3.3q.3-.9.6-2.1c.2-1.1.5-2.3.7-3.7a10.5,10.5,0,0,1,.1-2.5c.5-1.8,1-1.5,1.5-3.3,1.1-3.6.8-8.1,1.9-11.7"/><path class="cls-3" d="M32.1,86.3a2.2,2.2,0,0,1-4,.1A3.6,3.6,0,0,0,32.1,86.3Z"/><path class="cls-4" d="M32.4,85.7a3.5,3.5,0,0,1-2,.1,2,2,0,0,1-1.2-1.2c-.3-.7,1.4-1.2,2-2.9l1.2-3.3q.3-.9.6-2.1l2.4.4c-.3.7-.5,1.5-.8,2.4a18.9,18.9,0,0,0-.6,1.8c-.2.5.4,1.2,0,2.3S32.8,83.4,32.4,85.7Z"/><path class="cls-2" d="M70,70.1a4.6,4.6,0,0,0-1.7,2.5c-.2,1.4,3.6,2.8,4.2-.8A2.3,2.3,0,0,1,70,70.1Z"/><path class="cls-9" d="M78.9,24.3l.9,2.7h0a1.3,1.3,0,0,0,.1.6v.5c0,.2.1.4.1.6v.6a16.2,16.2,0,0,1,0,2.2v.8c0,.5-.1,1-.1,1.5V34c0,.3-.1.6-.1.9s-.1.8-.2,1.2c-.5,3.5-1.4,7-2.1,10.5a7.5,7.5,0,0,0-.4,2.4.4.4,0,0,0-.1.3v1h0v.5a.3.3,0,0,1,.1.2.6.6,0,0,0,.1.4h0c.1.2.1.3.2.4h0a5.5,5.5,0,0,0,1,1.1.1.1,0,0,1,.1.1l.2.3h.1c0,.1.1.1.1.2h0c.1,0,.1,0,.1.1h0c.1,0,.1,0,.1.1h0v.5c0,.1-.1.2-.1.3h0a2.5,2.5,0,0,1-.2.7h-.1a.1.1,0,0,1-.1.1v.4l-.3.7c-.1,0-.1.1-.1.2l-.2.3a.3.3,0,0,1-.1.2v.2c-.1.2-.1.4-.2.6l-.3.5c0,.1,0,.1-.1.2s-.1.2-.1.3h-.1l-.4,1h0v.2c-.1.1-.1.3-.2.4v.2c0,.1,0,.2-.1.2a2.5,2.5,0,0,1-.2.7c-.1,0-.1.1-.1.2s-.1.2-.2.4-.1.3-.2.5,0,.2-.1.2-.1.3-.1.4H75v.2a.4.4,0,0,1-.1.3v.4h0l-.2.4c0,.2-.1.3-.1.4l-.2.4c-.1.3-.1.5-.2.8s.3,1.5,0,2.2-.9.9-1,2a2.8,2.8,0,0,1-1.8.4l-.6-.2-.7-.4a.8.8,0,0,1-.2-.4h-.1v-.2h0l.5-.7.2-.2h0c0-.1.1-.2.2-.3h.1a6.4,6.4,0,0,0,.2-.7c.5-1.8.9-3.1,1.2-4.3V64a.4.4,0,0,0,.1-.3,1.9,1.9,0,0,0,.2-.7.1.1,0,0,1,.1-.1c.1-.6.3-1.1.4-1.6s.1-.2.1-.3.1-.2.1-.4a1.4,1.4,0,0,1,.2-.6v-.2c0-.1.1-.1.1-.2v-.2a.6.6,0,0,0,.1-.4l.2-.5c.4-1.5.3-2.3-.1-2.7h-.2c0-.1-.1-.1-.1-.2h-.2l-.5-.6-.7-.9-.2-.2h0c0-.1-.1-.1-.2-.2s-.1-.2-.1-.3v-.4l-.2-.3a.8.8,0,0,0-.2-.4l-.3-.6-.9-2.5L69,46.1c0-.2-.1-.5-.1-.7a.4.4,0,0,0-.1-.3v-.6c-.1-.5-.1-.9-.2-1.3v-.3c0-.6-.1-1.2-.1-1.8h0V38.2a30.9,30.9,0,0,1,.3-3.2h0"/><path class="cls-3" d="M72.4,72.4a2.3,2.3,0,0,1-4,.8A3.6,3.6,0,0,0,72.4,72.4Z"/><path class="cls-4" d="M75.1,64.6h0v.2c-.1.1-.1.3-.2.4s-.1.2-.1.4h0c-.1.1-.1.3-.2.4s-.1.3-.1.4-.1.3-.2.4a1.9,1.9,0,0,0-.2.7c-.3.7.2,1.5,0,2.3s-1,.9-1.2,1.9a2.1,2.1,0,0,1-1.8.4l-.5-.2-.7-.4a.8.8,0,0,1-.2-.4h0v-.2h0l.5-.7c.1,0,.1-.1.2-.2h0l.2-.3h.1l.3-.6c.5-1.8.9-3.2,1.2-4.4Z"/></g></g><g id="Layer_7" data-name="Layer 7"><g id="Duck_poses_04_F_03_" data-name="Duck poses 04 ( F 03 )"><path class="cls-2" d="M88.6,64.9c.1,0,.1-.1,0-.1Z"/></g></g></svg>