<svg xmlns="http://www.w3.org/2000/svg" viewBox="0 0 84 66"><defs><style>.cls-1,.cls-2{fill:#f9a529;}.cls-2,.cls-5,.cls-6{stroke:#f4b46d;stroke-miterlimit:10;stroke-width:0.3px;}.cls-3{fill:#fdf6e1;}.cls-4{fill:#f68e1e;}.cls-5,.cls-7{fill:#f5b46d;}.cls-6{fill:#ffdfad;}.cls-8{fill:#fbcea1;}.cls-9{fill:#87babe;}.cls-10{fill:#434343;}.cls-11{fill:#fff;}.cls-12{fill:#f37c20;}</style></defs><g id="Layer_68" data-name="Layer 68"><g id="Duck_poses_06_F_02_" data-name="Duck poses 06 ( F 02 )"><path class="cls-1" d="M47.5,45.3s1.4.1,1.6.4-1.2.4-1.2.4Z"/><path class="cls-2" d="M43.6,50.5a41.7,41.7,0,0,1,5.7-3c.4-.1.3-.7-.3-1s-1.7-2-2.4-2.8a1.4,1.4,0,0,0-1.3-.5s-1.7.1-1.1.5l1.2,1a14.8,14.8,0,0,1,1.8,1.9l-2.6-.8v.4a2.6,2.6,0,0,1-.9,1.6l-.4.2.2.3c.3.4.2,1,.1,1.7v.5"/><path class="cls-3" d="M43.1,50.7c-.1-.4.4-.8.6-.6s-.4.3-.6.6"/><path class="cls-3" d="M42.9,48.3c.1-.4.9-.7.8-.4s-.3.1-.8.4"/><path class="cls-3" d="M43.9,46c.2-.4,1-.4.9-.1s-.3,0-.9.1"/><path class="cls-4" d="M43.6,50c1.1-.9,4-2.2,3.9-2.4s-3.6.6-4,.7.2,1,.1,1.7"/><path class="cls-4" d="M43.7,47.8l3.8-.7c0-.2-2.1-.5-2.9-.9a2.6,2.6,0,0,1-.9,1.6Z"/><path class="cls-4" d="M44.2,43.7l1.2,1a5.3,5.3,0,0,0,1.2-1,1.4,1.4,0,0,0-1.3-.5s-1.7.1-1.1.5"/><path class="cls-1" d="M37.1,45.9s1.2,1.5.9,1.9-1.4-.8-1.4-.8Z"/><path class="cls-2" d="M28.2,46a61.4,61.4,0,0,1,8,3.4c.5.4,1-.3.9-1.1s.6-3.5.8-4.9a2,2,0,0,0-.5-1.8s-1.6-1.6-1.6-.7a7.4,7.4,0,0,1,0,2.1,11.6,11.6,0,0,1-.4,3.5l-1.3-3.4-.5.4a3.3,3.3,0,0,1-2.4.4l-.6-.2c0,.1-.1.3-.1.4a3.4,3.4,0,0,1-1.8,1.5l-.5.4"/><path class="cls-3" d="M33.3,42.5c.6-.1,1.2.8.8.9s-.3-.3-.8-.9"/><path class="cls-4" d="M28.7,45.6c1.9.5,5.8,2.4,5.9,2.1s-3.7-3.3-4.1-3.6a3.4,3.4,0,0,1-1.8,1.5"/><path class="cls-4" d="M31.1,43.9c1.3.9,3.9,3.4,4.1,3.3s-1.3-2.6-1.6-3.7a3.3,3.3,0,0,1-2.4.4Z"/><path class="cls-4" d="M35.8,40.9a7.4,7.4,0,0,1,0,2.1,5.2,5.2,0,0,0,2.1.4,2,2,0,0,0-.5-1.8s-1.6-1.6-1.6-.7"/><path class="cls-3" d="M27.5,45.7c.4-.5,1.3-.3,1.2.1s-.7-.1-1.2-.1"/><path class="cls-3" d="M29.9,43.5c.6-.3,1.5.3,1.1.5s-.4-.2-1.1-.5"/><path class="cls-5" d="M53.9,33.8s-4.2-9.5-13.2-8.9c-5.5.3,9.6,9.7,13.2,8.9"/><path class="cls-6" d="M30,33.8c.9,2.6,2.1,3.9,7.5,8.7s12.1.3,15.1-2.5h.2c2.6-2.4,2-2.9.3-3.3s-3-3.5-6.8-8.2c-2.3-2.8-4.3-3.1-6.5-4s-4-1.6-3.4-4.3,1.7-7.2-.3-9a4.1,4.1,0,0,0-1.8-1.2,5.5,5.5,0,0,0-5.1.7A2.5,2.5,0,0,0,28,12.1c-.1.8-.3,3.2.1,4l.8.7c.6.6,1.8,1,1.3,4.7s-.9,6.5-1,7a13.4,13.4,0,0,0,.8,5.3"/><path class="cls-7" d="M47.7,37.9c-1.4-2.4-6.9-12.1-10-13s-2.8,6.5-.7,9.5,7.4,5.8,7.3,4.2.9.5,1.5.6.6-.5,1-.3,1.6.2.9-1"/><path class="cls-8" d="M29.3,29.8c.4,4.4,1.7,6.9,7.6,12.1S48.8,43.4,52,40.5c.1-.1.2-.1.2-.2a.4.4,0,0,0-.1-.3c.3-1.2-14.6,7.5-22.8-10.2"/><path class="cls-8" d="M29.6,31.9c-.4-2.6.5-9.7,1.4-12.5s1.5-1.1,1.8-1.8-1.7.6-3.7-.7c.6.5,1.1,2.1.8,5.8s-1,6.6-.3,9.2"/><path class="cls-1" d="M30.4,13.3a.7.7,0,1,0,1.3-.2c-.1-1.1-1.4-.7-1.3.2"/><path class="cls-9" d="M30.5,13.2c.1.7,1.1.8,1-.1s-1-.5-1,.1"/><path class="cls-10" d="M30.8,13.2c0,.4.6.4.5-.1s-.6-.2-.5.1"/><path class="cls-11" d="M31,13.1c0,.1-.1.2-.2.1s-.2-.3-.1-.4H31a.3.3,0,0,1,0,.4"/><path class="cls-1" d="M25,16a12.3,12.3,0,0,1,3.7.1,4.1,4.1,0,0,1-.5-.9c-.5-1.1.3-1.9,1-2.7s-.5-1.6-1.1-.9H28a4.4,4.4,0,0,1-2.6,2.4c-1.8.7-2.1,2.3-.4,1.9"/><path class="cls-12" d="M25,16a12.3,12.3,0,0,1,3.7.1,4.1,4.1,0,0,1-.5-.9L25,16"/><path class="cls-12" d="M26.8,14.1c.1.3-.6.5-.7.3s.6-.6.7-.3"/></g></g></svg>