<svg xmlns="http://www.w3.org/2000/svg" viewBox="0 0 84 66"><defs><style>.cls-1,.cls-10,.cls-17{fill:#f5b46d;}.cls-1,.cls-2,.cls-6,.cls-8{stroke:#f4b46d;stroke-width:0.3px;}.cls-1,.cls-15,.cls-17,.cls-2,.cls-6,.cls-8{stroke-miterlimit:10;}.cls-15,.cls-2,.cls-5{fill:#f9a528;}.cls-3,.cls-6{fill:#f68e1e;}.cls-4{fill:#fff8e1;}.cls-7{fill:#f47f20;}.cls-8{fill:#ffdfad;}.cls-9{fill:#fbcea1;}.cls-11{fill:#eae0ce;}.cls-12{fill:#87bbbe;}.cls-13{fill:#424243;}.cls-14{fill:#fff;}.cls-15{stroke:#f37c20;}.cls-15,.cls-17{stroke-width:0.1px;}.cls-16{fill:#f37c20;}.cls-17{stroke:#fbcea1;}</style></defs><g id="Layer_72" data-name="Layer 72"><g id="Duck_poses_08_F_03_" data-name="Duck poses 08 ( F 03 )"><path class="cls-1" d="M27.5,27.9c6.1-.6,14.3.3,15.2,2s-5.1,6.1-9.6,4.6a24.2,24.2,0,0,1-5.8-2.9c-1-.9-.1-1.3-.1-1.3s-1.4-1.1-.6-1.2C25.6,28.6,25.6,28.1,27.5,27.9Z"/><path class="cls-2" d="M34.9,45.6a6.4,6.4,0,0,0-.2.7v.5l-.3.6a1.4,1.4,0,0,1-.2.7c-.2.5.2.8.3,1.4v2.7c0,.2.2.4.4.3h1.6c0,.1.1,0,.1.1h.9l.3-.3a.1.1,0,0,1,.1-.1h1.2a.3.3,0,0,0,0-.4h0A16.8,16.8,0,0,0,37,49.5c-1.5-1-1.5-1-1.5-1.2a8.1,8.1,0,0,1,.7-2.2,12.6,12.6,0,0,1,.7-1.6l.2-.4L36,43.6l-.3.5A10.9,10.9,0,0,0,34.9,45.6Z"/><path class="cls-3" d="M37.5,52.2v.3a1.3,1.3,0,0,1,1.4-.8h.2l-.5-.2a21.5,21.5,0,0,0-2.7-2.3C35.5,49.3,37.5,52.2,37.5,52.2Z"/><path class="cls-3" d="M34.9,52.5a3,3,0,0,1,2.3,0l-.3-.2s-1.4-3.1-1.8-3.2-.1,2.5-.1,3.2S35,52.5,34.9,52.5Z"/><path class="cls-4" d="M37.5,53.1s.3-1.2-.3-1S37.4,52.5,37.5,53.1Z"/><path class="cls-4" d="M34.8,53.2s.6-1-.1-1S34.9,52.7,34.8,53.2Z"/><path class="cls-4" d="M39.3,52.3s.1-1.3-.5-1S39.1,51.7,39.3,52.3Z"/><path class="cls-5" d="M34.9,47.2s-1,.7-1.1.2,1.2-.7,1.2-.7Z"/><path class="cls-3" d="M34.9,45.6a6.4,6.4,0,0,0-.2.7h.4a2.2,2.2,0,0,0,1.1-.2,12.6,12.6,0,0,1,.7-1.6l-1.2-.4A10.9,10.9,0,0,0,34.9,45.6Z"/><path class="cls-6" d="M41.9,47.4c.2.5.7.3,1.2.7l2,1.9a.3.3,0,0,0,.4,0h.1a2.6,2.6,0,0,1,1.5-1.6h.2a1.6,1.6,0,0,1,.5-1.7h0c0-.2-.1-.3-.2-.3h-.1a12.4,12.4,0,0,0-2.7.3c-1.7.4-1.7.4-1.9.2a29.9,29.9,0,0,1-2-4l-1,.5a9,9,0,0,0,.6,2.2A8.3,8.3,0,0,1,41.9,47.4Z"/><path class="cls-7" d="M47.1,47.8l.2.3a1.6,1.6,0,0,1,.5-1.7h0l-.4.2s-3.3.1-3.5.4S47.1,47.8,47.1,47.8Z"/><path class="cls-7" d="M45.6,49.9a2.6,2.6,0,0,1,1.5-1.6h-.3s-3.3-1.1-3.5-.9,1.7,1.8,2.2,2.3S45.6,49.8,45.6,49.9Z"/><path class="cls-4" d="M47.8,48.4s-.7-1-1-.4S47.3,48.1,47.8,48.4Z"/><path class="cls-4" d="M46,50.5s-.3-1.2-.8-.7S45.6,50,46,50.5Z"/><path class="cls-4" d="M48.4,46.5s-.8-.9-1-.3S47.9,46.3,48.4,46.5Z"/><path class="cls-3" d="M41.7,46.2s-.2,1.2-.5,1,.2-1.4.2-1.4Z"/><path class="cls-8" d="M31.4,32.2a30.4,30.4,0,0,1-8.5-.9c-.9-.2-1.2.5-.6,1.2s2.6,1.8,5.1,2.4S31.4,32.2,31.4,32.2Z"/><path class="cls-9" d="M22.6,32.2s-.8.1-.8.6,2.6,2.3,5.5,2.7S23.4,31.8,22.6,32.2Z"/><path class="cls-10" d="M22.5,33.2s-.4.7.1,1.1,3.5,3,3.5,3l.2-1.9Z"/><path class="cls-8" d="M43.4,27.1c.1,3.4-3.8,1.8-4.8,2.3s-.7-.3-3.6,0-9.4,2.7-9.6,4.2a8.2,8.2,0,0,0,.4,3.5c1.5,4.6,6.8,7.9,8.4,8s7.6-1.7,11.4-4.2a6.8,6.8,0,0,0,3-3.5c1-4.5.1-5.6-.5-8.8"/><path class="cls-9" d="M25.9,37c1.6,4.6,7,8,8.6,8.1s7.8-2,11.7-4.6c-2.9,1.1-8.8,3.7-13.4,2.2S28.4,37.5,25.9,37Z"/><path class="cls-9" d="M42.6,20.9c-.3.5.4,5.4.4,6.2A2.1,2.1,0,0,1,41.4,29a19.4,19.4,0,0,0-4.8.3c1.3-.1,6.2,2.3,7.6.5S42.4,21,42.6,20.9Z"/><path class="cls-8" d="M44.2,29.4c-.8-4.2-1.6-6.6-2.3-10.4a5.5,5.5,0,0,1,.4-2.8c.8-1.6,3.1-2.3,5.2-1.6s2.7,4,2.7,4.2-.3-1.5-1.1-1.1.6,1.8-1.2,2.9c0-.3.2.1.3.3-1.9.7-3.3-.7-3.5-.4s2.4,2.8,3.3,1.6a18,18,0,0,0-.2,2.2,74.2,74.2,0,0,0,1,8.4c0,.5.1,1,.1,1.5M46.6,17.8c.4-.4-.4-1.2-1-.7S46.3,18.3,46.6,17.8Z"/><path class="cls-11" d="M48.5,21.3a3,3,0,0,0-.4.8H48a2.2,2.2,0,0,1,.5-.8Z"/><path class="cls-9" d="M44.7,20.5c.2-.3,1.6,1.1,3.5.4l.6.2-.8,1C47.1,23.3,44.4,20.8,44.7,20.5Z"/><path class="cls-5" d="M48.7,21.2h0Z"/><path class="cls-5" d="M46.6,17.8c-.3.5-1.5-.1-1-.7S47,17.4,46.6,17.8Zm-.1-.1a.2.2,0,0,0,0-.3h0a.5.5,0,0,0-.6-.2h-.2c-.3.4.5.9.8.5Z"/><path class="cls-12" d="M46.5,17.3h-.3a.2.2,0,0,0-.3,0c-.2.3.3.5.4.3h.1c.1,0,.1-.1.2-.2h-.1a.2.2,0,0,1,0,.3c-.3.4-1.1-.1-.8-.5a.5.5,0,0,1,.7,0A.1.1,0,0,1,46.5,17.3Z"/><path class="cls-13" d="M46.2,17.4c0,.1,0,.2.2.2h-.1c-.1.2-.6,0-.4-.3a.2.2,0,0,1,.3,0Z"/><path class="cls-14" d="M46.5,17.4h0Z"/><path class="cls-14" d="M46.4,17.6h0c0-.1,0-.3-.2-.3h.4C46.5,17.5,46.5,17.6,46.4,17.6Z"/><path class="cls-14" d="M46.4,17.6c-.2,0-.2-.1-.2-.2h0c.2,0,.2.2.2.3Z"/><path class="cls-9" d="M41.9,28.9c.3-.2,1.4-1.2.9-3.7a32,32,0,0,1-.9-6.2,53.8,53.8,0,0,1,2.3,10.4Z"/><path class="cls-15" d="M48.7,17.2c.7-.3,1.3.6,1.4.8h0a3.5,3.5,0,0,0,.7,1.5c.8,1.3,2.6,1.2,2,1.8s-2.8.5-4.1-.6v.2c-.1.1-.2.1-.2.2l-.4-.4-.3-.3C49.1,19.5,47.8,17.7,48.7,17.2Z"/><path class="cls-16" d="M49.8,19.7c-.1.2-1-.5-.7-.8S50.1,19.4,49.8,19.7Z"/><path class="cls-16" d="M48,20.2a4.5,4.5,0,0,0,3.6,1.4s-2.8.7-3.9-1.2Z"/><path class="cls-17" d="M28.8,34.5c5.2-3.1,13-5.8,14.6-4.7s-2.1,7.7-6.8,8.3a22.9,22.9,0,0,1-6.4-.2c-1.3-.4-.7-1.2-.7-1.2s-1.7-.4-1-.8C27.4,35.9,27.2,35.4,28.8,34.5Z"/></g></g></svg>