<svg xmlns="http://www.w3.org/2000/svg" xmlns:xlink="http://www.w3.org/1999/xlink" viewBox="0 0 164 95"><defs><style>.cls-1{fill:#ee7373;}.cls-2{fill:#5d1222;}.cls-3{fill:url(#linear-gradient);}.cls-4{fill:url(#linear-gradient-2);}</style><linearGradient id="linear-gradient" x1="30.93" y1="-190.43" x2="72.44" y2="-190.43" gradientTransform="translate(-0.1 221.7) rotate(9.4)" gradientUnits="userSpaceOnUse"><stop offset="0" stop-color="#e7d8d6"/><stop offset="0.39" stop-color="#eee4e3"/><stop offset="1" stop-color="#fff"/></linearGradient><linearGradient id="linear-gradient-2" x1="24.64" y1="-197.71" x2="73.12" y2="-197.71" xlink:href="#linear-gradient"/></defs><g id="S"><path class="cls-1" d="M41.1,28.2s10,21.5,35.7,22.6c33.3,1.5,40.7-24.1,40.7-24.1S91.6,44.2,41.1,28.2Z"/><path class="cls-2" d="M42.5,28.6S57.3,48.9,83.3,48c21.2-.6,31.4-19.3,31.4-19.3S90.9,44,42.5,28.6Z"/><path class="cls-1" d="M68.4,42.7s4.2-2.9,11.3-1.7c0,0,5.2-3,14,.7C93.7,41.7,82.6,50,68.4,42.7Z"/><path class="cls-3" d="M60.9,43.1a3.7,3.7,0,0,1,4.2-1.8c2.9.7,4.9,3.5,19.6,2,5.7-.6,10.9-3.2,14.4-4.4s4.2,2.2,4.2,2.2S96,47.4,83.3,48C72.2,48.6,61.2,43.7,60.9,43.1Z"/><path class="cls-4" d="M56.9,32.2s-9.1,10.7,29.6,7.7c5.5-.4,22.1-2.3,18.3-9C104.8,30.9,78.8,40,56.9,32.2Z"/><path class="cls-1" d="M41.4,28.1l.9.5c12.6,7.6,56.1,14.9,76.3-2.8a101.5,101.5,0,0,1-37.3,8C61.1,33.9,41.4,28.1,41.4,28.1Z"/></g></svg>