<svg xmlns="http://www.w3.org/2000/svg" viewBox="0 0 84 66"><defs><style>.cls-1{fill:#f89f1f;}.cls-2{fill:#d99728;}.cls-3,.cls-5{fill:#fbe508;}.cls-4{fill:#e9c01e;}.cls-5,.cls-8{stroke:#bcae32;stroke-miterlimit:10;stroke-width:0.3px;}.cls-6{fill:#f9b31a;}.cls-7{fill:#e49f24;}.cls-11,.cls-8{fill:#e6e125;}.cls-9{fill:#d4cb27;}.cls-10{fill:#f2d54f;}.cls-12{fill:#e55446;}.cls-13{fill:#d74741;}.cls-14{fill:#fff;}.cls-15{fill:#282625;}</style></defs><g id="Layer_83" data-name="Layer 83"><g id="Duck_poses_01_F_03_" data-name="Duck poses 01 ( F 03 )"><path class="cls-1" d="M46.1,42.9l.8,1.1.4.4a5.3,5.3,0,0,0-1.5.6c-.3.2,1-.1,1.4-.1s-.9,2.6-.5,2.1,1-2.1,1.2-2.2a4.6,4.6,0,0,1,2.1.4c.4.2-1-.8-1.7-1a11.5,11.5,0,0,1,1-1.3,6.8,6.8,0,0,0-1.6,1.2l-.6-.6-.9-1.2Z"/><path class="cls-2" d="M48.3,44.2l1-1.3A7.9,7.9,0,0,0,48,44.2h-.3l-.6-.6-.7-1v.4l.8,1.1.4.5-1.4.5h1.1c.1-.1-.1,0,0,0l-.6,2a22,22,0,0,1,1.3-2.4l1.5.4c.3,0,.4.2.7.3A5.6,5.6,0,0,0,48.3,44.2Z"/><path class="cls-2" d="M44.7,41.6l1.7,2a.5.5,0,0,0,.5-.4l-1.7-2.3Z"/><path class="cls-1" d="M44.7,41.6l1,1.2A.7.7,0,0,0,46,42l-.8-1.1Z"/><path class="cls-3" d="M41.4,38.3a2.8,2.8,0,0,0,.1,2.4,5.5,5.5,0,0,0,2.6,1.5l.8.3q.5.2.9-.6c.3-.5.3-.6.3-.8a14.6,14.6,0,0,0-.9-3.1C44.8,37.6,43.4,37.2,41.4,38.3Z"/><path class="cls-4" d="M40.8,37.8a2.8,2.8,0,0,0,.1,2.4,3.7,3.7,0,0,0,2.6,1.5,2.6,2.6,0,0,0,1.7-.3,1.9,1.9,0,0,0,.9-1.1,8.2,8.2,0,0,0-1.5-2.8C44.2,37.1,42.8,36.7,40.8,37.8Z"/><path class="cls-1" d="M43.7,44.4l-1,1.2-.4.5a5.8,5.8,0,0,0-1-1.5c-.3-.3.4,1,.5,1.5s-3.2-.4-2.5-.1,2.6.6,2.7.9a5.3,5.3,0,0,1,0,2.4c-.2.6.7-1.3.8-2.1l1.7.9a7.8,7.8,0,0,0-1.8-1.6l.5-.8,1.3-1.3Z"/><path class="cls-2" d="M42.8,47.2l1.7.9a8.9,8.9,0,0,0-1.8-1.3s-.1-.1,0-.3h0l.5-.8,1-1h-.5a7.6,7.6,0,0,0-1,1.2l-.4.5a4.5,4.5,0,0,0-1-1.4l.5,1.1h-.1c0,.1-.1-.1,0,0l-2.5-.2a30.2,30.2,0,0,1,3,.9v1.9a1.4,1.4,0,0,0-.2.7A8.7,8.7,0,0,0,42.8,47.2Z"/><path class="cls-2" d="M44.9,42.5,43,44.9a.6.6,0,0,0,.6.5L45.8,43Z"/><path class="cls-1" d="M44.9,42.5,43.8,44c.2.2.4.4.9.1L45.8,43Z"/><path class="cls-5" d="M43.5,37.2a3.1,3.1,0,0,0-1.4,2.4,6.5,6.5,0,0,0,1.5,3,3.3,3.3,0,0,0,.6.8,1.4,1.4,0,0,0,1.3,0c.5-.3.6-.4.7-.6a12.1,12.1,0,0,0,1.1-3.6C47.2,38.6,46.1,37.4,43.5,37.2Z"/><path class="cls-4" d="M43.2,36.4a3.1,3.1,0,0,0-1.4,2.3,4.6,4.6,0,0,0,1.6,3.1,2.7,2.7,0,0,0,1.8.7,2,2,0,0,0,1.5-.5,9.2,9.2,0,0,0,.3-3.6C46.9,37.8,45.9,36.5,43.2,36.4Z"/><path class="cls-6" d="M50.2,18.3a1.7,1.7,0,0,1,0-1.7c.3-.4,1.9.1,2.3.3a7.9,7.9,0,0,0-1.6,1.2C50.5,18.7,50.3,18.4,50.2,18.3Z"/><path class="cls-7" d="M50.2,18.3c.1.1.3.4.7-.2a7.9,7.9,0,0,1,1.6-1.2h0a4,4,0,0,0-1.5.3,2.3,2.3,0,0,0-.9.8A.4.4,0,0,0,50.2,18.3Z"/><path class="cls-8" d="M42,23.9h0c-2.8,1.2-7.4,3.4-9.6,6.5,0,0-3.2-2.3-3.5,0S26.8,43.3,40.8,41.5c4.1-.5,11-2.7,10.5-12.9l-1.2-4.5s-.9-2.2-.4-2.9,2.3-3.6.4-5.7-5.7,1.4-6.8,3.9A40.3,40.3,0,0,0,42,23.9Z"/><path class="cls-9" d="M41.3,41.7c-8.9,1.1-10.2-1.9-11.7-5.9,2.4.4,5.1,4.6,10.4,3.7s6.4-2.7,9-4.9,1.1-7.3,1.2-10.2c0,0,.9,3.1,1.1,4.2C52.8,38.9,45.3,41.2,41.3,41.7Z"/><path class="cls-10" d="M36.3,26.9a19.4,19.4,0,0,1,6-3h0a40.3,40.3,0,0,1,1.3-4.5,13.5,13.5,0,0,1,1.9-3.2l1.2-.2a4.9,4.9,0,0,1,1.1,4.4c-.7,2.7-1.9,7.7-5.5,9.1s-8.7,3.9-9.7,2.5a2,2,0,0,1,.1-1.5A20.2,20.2,0,0,1,36.3,26.9Zm6.1-3,.4-.2Z"/><path class="cls-11" d="M46.3,28.3s-5.9-.8-10.3.6-4.3,3.4-4.3,3.4-.3,1.1,1.3.7a5.2,5.2,0,0,0,2.1,2.8,9.6,9.6,0,0,0,12.2-4.4A2.3,2.3,0,0,0,46.3,28.3Z"/><path class="cls-10" d="M46.9,28.4A12.3,12.3,0,0,0,44,28s-11,0-10.5,3.1c.1.7,1.5,1.3,2.7,1.3s-.3,1.8,1.4,2.5,5.4,1.7,9.5-3.1c.1-.1.3-.3.3-.4S48.2,29,46.9,28.4Z"/><path class="cls-12" d="M48.5,15c.2,0,.8-.1.6-.4s-1.4-1.4-2.3-1.2a1,1,0,0,0-.6.7.9.9,0,0,0-.6.8c0,.4-.2.5-.4.8s0,.9.2.9.6-.4,1.3-.9A5.1,5.1,0,0,1,48.5,15Z"/><path class="cls-13" d="M46.7,15.7a5.1,5.1,0,0,1,1.8-.7c.2,0,.8-.1.6-.4a2.3,2.3,0,0,0-.7-.7,1.8,1.8,0,0,0-1-.1.7.7,0,0,0-.6.7.9.9,0,0,0-.7.9c0,.4-.2.6-.5.9l-.2.3C45.7,16.7,46.1,16.1,46.7,15.7Z"/><ellipse class="cls-14" cx="49.7" cy="16.6" rx="0.4" ry="0.6"/><ellipse class="cls-15" cx="49.7" cy="16.6" rx="0.2" ry="0.3"/><ellipse class="cls-14" cx="49.8" cy="16.4" rx="0.1" ry="0.1" transform="translate(14.3 55) rotate(-65.6)"/></g></g></svg>