<svg xmlns="http://www.w3.org/2000/svg" viewBox="0 0 84 66"><defs><style>.cls-1{fill:#d79d40;}.cls-1,.cls-2,.cls-8{stroke:#d28e3a;stroke-miterlimit:10;}.cls-1,.cls-8{stroke-width:0.28px;}.cls-2,.cls-3,.cls-8{fill:#ebb146;}.cls-2{stroke-width:0.3px;}.cls-4{fill:#d28e3a;}.cls-5{fill:#a86828;}.cls-6{fill:#ffd69a;}.cls-7{fill:#a33322;}</style></defs><g id="Layer_51" data-name="Layer 51"><g id="CubF4_02"><path class="cls-1" d="M27.6,36.4c-2.2,4.3-2.3,5.8-3.9,9.4s2,5.6,2,5.6,1.7,2.9,3.8,4,2.7-.4,2.7-1.5-1.8-5-3.7-3.7a4,4,0,0,1-.6-3.2s3.2-4.6,7-4.3"/><path class="cls-1" d="M59.4,22.7s-2.5,5.6,2,7.4c0,0,2.3.2,1.3,2.6S62.3,36,63,38s-4.5,3-5.4,2.6-2.5-1.3,1.3-3c0,0,.7-3.5-.3-4.1s-8.5-3.9-8.7-7.9.9-3.5.9-3.5"/><path class="cls-2" d="M79.3,18.5a1.5,1.5,0,0,0-.9-.7l-.2.3c-1.2,1.6-3.4,4.6-5.3,4.6s-2.3-1.1-3.3-3.1S67,9,65.2,6.4c0,0-3.7-7-14-2.6,0,0-3.3,1.5-4.4,3,0,0-7.7,6.9-12.4,8.4,0,0-2.6.4-5.9,4,0,0-3.7,3.3-4.4,4.1s-1.1-5.2-7.7-4.8a3.5,3.5,0,0,0-1.5-3.7,3.3,3.3,0,0,0-4.4.9,5.5,5.5,0,0,0-.6,3.4,6.6,6.6,0,0,0,1.3,2.7,2.7,2.7,0,0,1-.7.8L9.2,24.3a1.7,1.7,0,0,0-.5,1.2A5.9,5.9,0,0,0,9,28.1a6.3,6.3,0,0,1-.6,4.3,3.1,3.1,0,0,0-.7,2.2,3.4,3.4,0,0,0,.6,1.2,2.3,2.3,0,0,0,.4,1.4,4,4,0,0,0,5.2,1.5,1,1,0,0,0,.5-.4l.3-.2c.9-.7,1.5-1.8,2.4-2.6s1.9-.4,2.8.8,9.2,12.1,12.4,8.2h.3A10.8,10.8,0,0,1,35.2,43a10.1,10.1,0,0,1,3.2-3.3h0a20.2,20.2,0,0,1,2-2.6,19,19,0,0,1,5.3-3.8s5.3-3,7.4-6.7c0-.1.1-.2.2-.4a5.8,5.8,0,0,0,.5-1.4l.2.3a4.5,4.5,0,0,1,2.8-1.9A5.5,5.5,0,0,1,59.4,21l2.3-.6a5.2,5.2,0,0,1,2.9-.8h1a31.3,31.3,0,0,0,.3-6h0a5.2,5.2,0,0,1,.6,1.5c1.6,4.4,3.1,8.5,5.8,9.2s4.8-1.2,5.9-2.5S79.9,19.6,79.3,18.5Z"/><path class="cls-3" d="M17,35.5s5.1.3,5.9-2.9a10.1,10.1,0,0,1,2.5-4.5"/><path class="cls-4" d="M17,35.5c2.1-.1,5.1-.5,5.8-2.9a10.1,10.1,0,0,1,1-2.4,8.3,8.3,0,0,1,1.6-2.1c-.5.7-1,1.4-1.4,2.1s-.7,3-1.9,4A7.2,7.2,0,0,1,17,35.5Z"/><path class="cls-3" d="M23.5,28c2.2,1.3,4.6,1.2,6.1-.2a4.2,4.2,0,0,0,1.2-2.4,3.5,3.5,0,0,0-1.4-2.7c-1.5-1.2-4-.9-5.9.9"/><path class="cls-4" d="M23.5,28c2,1.1,4.7,1.2,6.3-.6a4.1,4.1,0,0,0,.9-1.9,4.2,4.2,0,0,0-.8-2.2c-1.6-2-4.7-1.3-6.4.3,1.6-1.8,4.9-2.6,6.6-.5a5,5,0,0,1,.9,2.3,5.5,5.5,0,0,1-1,2.2c-1.7,1.9-4.6,1.6-6.5.4Z"/><path class="cls-3" d="M25.1,24.8c1.1-1,2.5-1.2,3.3-.5a2.4,2.4,0,0,1,.8,1.5,2.4,2.4,0,0,1-.7,1.3,3,3,0,0,1-3.4.1"/><path class="cls-4" d="M25.1,24.8c.9-1,2.8-1.5,3.7-.3a2.1,2.1,0,0,1,.5,1.3,2.2,2.2,0,0,1-1.7,1.9,3.1,3.1,0,0,1-2.5-.5,3.7,3.7,0,0,0,2.5.3,1.8,1.8,0,0,0,1-2.9c-.9-1-2.5-.7-3.5.2Z"/><path class="cls-3" d="M63.4,6.6s4.2,5,1.8,15.2"/><path class="cls-4" d="M63.4,6.6c3.2,4.3,3.1,10.2,1.9,15.2h-.2c1-5,1.2-10.8-1.7-15.2Z"/><path class="cls-4" d="M9.9,34.6c-.1.5-.2,1.1.1,1.4a3.2,3.2,0,0,0,4.6.4A8.1,8.1,0,0,0,15.8,35a4.2,4.2,0,0,1-1.1,1.5,3.9,3.9,0,0,1-2.5,1,3.5,3.5,0,0,1-2.4-1.4c-.3-.4,0-1,.1-1.5Z"/><path class="cls-5" d="M9.8,34.9A1,1,0,0,1,8.6,36c-.4,0-.6-.4-.8-.7a2.9,2.9,0,0,1-.2-.9l.3.9a1,1,0,0,0,1.9-.4Z"/><path class="cls-5" d="M8.3,28.7c.2-.9.9-.8.9-.8a2.9,2.9,0,0,1,1.1.7.6.6,0,0,1-1.2-.3S8.7,28.1,8.3,28.7Z"/><path class="cls-6" d="M9.3,28.1s-.2.5.2.7.6-.2.6-.2A1.2,1.2,0,0,0,9.3,28.1Z"/><path class="cls-7" d="M9.8,28.5c0,.1-.1.2-.3.2s-.2-.2-.1-.3.1-.3.3-.2S9.9,28.3,9.8,28.5Z"/><path class="cls-5" d="M13.4,30.1c.3-1.5,1.4-1.3,1.4-1.3a6.2,6.2,0,0,1,1.9,1c-.4.7-1.8,1.1-2-.4C14.6,29.4,14,29.1,13.4,30.1Z"/><path class="cls-6" d="M15,29a.8.8,0,0,0,.4,1.1.5.5,0,0,0,.8-.4A2.2,2.2,0,0,0,15,29Z"/><path class="cls-7" d="M15.8,29.6a.4.4,0,0,1-.4.4.5.5,0,0,1-.3-.5c.1-.2.2-.4.4-.4S15.9,29.4,15.8,29.6Z"/><path class="cls-4" d="M9.3,28.1c1.6.3,1.9,2.2,1.3,3.5a24.3,24.3,0,0,0-1.4,2h0c.2,1.4,1.6,1.4,2.7.8-1.2.9-2.8.8-3-.8a7.7,7.7,0,0,1,1.4-2.1,2.3,2.3,0,0,0-1-3.3Z"/><path class="cls-8" d="M11.2,21.8a12.5,12.5,0,0,1,5.3-3.3"/><path class="cls-8" d="M32.3,43c2.7,3.2,7.5,7.6,7.1,9.4s-2.5,7.1,2.4,4.5c0,0,4.4-4.4,2.4-6.3s-2-3.5-1.7-4.1-1.9-.1-2.6-2.2-3.8-10.4-3.8-10.4"/><path class="cls-8" d="M51.3,22.5s5.8,10.8,15.1,5.9c0,0,1.3-1.5,1.6,3.9s3.6,2.3,3.6,2.3,1.4.5,1.3-1.9-2-2.7-2-2.7.1-9.2-1.8-8.3-1.7,4.2-2.3,2.6-1.2-13.5-4.7-14.2"/><path class="cls-3" d="M41.8,57.2a4.2,4.2,0,0,1,.4-3.5"/><path class="cls-4" d="M41.6,57.2a4.7,4.7,0,0,1,.6-3.5,4.7,4.7,0,0,0-.3,3.5Z"/><path class="cls-3" d="M39.5,57.6s-.5-2.3.6-3.3"/><path class="cls-4" d="M39.4,57.6a3.6,3.6,0,0,1,.7-3.3,3.8,3.8,0,0,0-.5,3.3Z"/><path class="cls-3" d="M71.5,34.5a3.4,3.4,0,0,1-.7-2.8"/><path class="cls-4" d="M71.4,34.6a3.4,3.4,0,0,1-.6-2.9,3.3,3.3,0,0,0,.8,2.7l-.2.2Z"/><path class="cls-3" d="M70.2,35.3s-1.3-1.9-.6-3.3"/><path class="cls-4" d="M70.1,35.4a3.5,3.5,0,0,1-.5-3.4c-.5,1.1.1,2.3.7,3.2l-.2.2Z"/><path class="cls-4" d="M58.1,40.7A3.4,3.4,0,0,1,60.5,39a2.9,2.9,0,0,0-2.1,1.8Z"/><path class="cls-4" d="M56.9,39.8c.7-.9,1.6-1.9,2.8-1.8-1.1,0-2,1-2.6,1.9Z"/><path class="cls-4" d="M31.6,54.8a3.5,3.5,0,0,1-2-2.1,3.1,3.1,0,0,0,2.1,1.9v.2Z"/><path class="cls-4" d="M30.5,55.6c-1-.6-2.1-1.3-2.2-2.5a3.4,3.4,0,0,0,2.3,2.2v.3Z"/></g></g></svg>