<svg xmlns="http://www.w3.org/2000/svg" viewBox="0 0 227 210"><defs><style>.cls-1{fill:#f0b3a4;stroke:#593129;}.cls-1,.cls-2{stroke-miterlimit:10;}.cls-2{fill:#ee4241;stroke:#cb2f2f;stroke-width:2px;}</style></defs><g id="Layer_11" data-name="Layer 11"><path class="cls-1" d="M66.4,128.3c13,11.8,49.3,44.4,57.5,46.5,10,2.5,50.1,9.3,77.1,12.5l-11.1-39.2s-43-5.9-55.5-4.3c-6.3-6.8-43.6-28-54.4-36.1"/><path class="cls-1" d="M80.4,108.3c.2-1.8.1-5.3-2.4-10.4-1.6-3.3-6-8.1-8.5-14.1a25.5,25.5,0,0,1-1.4-4.2c-.5-1.1-1.9-.9-3.5.5s-2,4.7-1.2,6.5c0,0,4.3,9.1,2.7,10.1s-6.4-2.1-6.4-2.1c-3.8-2.5-8.2-6-8.2-6l-16-12.9a3.4,3.4,0,0,0-4.7,1.5,4.1,4.1,0,0,0,1.8,5.1L46,94.4a.9.9,0,0,1,.2,1.2c-.2.4-.5,1-1.3.7L24.8,85.5A3.5,3.5,0,0,0,20,86.8a3.4,3.4,0,0,0,1.5,4.7l20.7,11.8c.8.4.7,1.7-.3,1.5L21.8,99.3a3.3,3.3,0,0,0-3,5.8L41,113.2c1.3.6.9,1.7,0,1.4h0l-15.4-.5c-2-.2-4,.1-4.3,1.8s.3,2.7,2.1,3.4l17.9,3.5c14.6,10,25.8,7.8,25.8,7.8a26.1,26.1,0,0,0,5.7-1.5"/><path class="cls-2" d="M142.6,142.2c1.5,3.9,6.9,20.1,4.3,41.4a2,2,0,0,0,1.7,2.1l48.5,4c.5.1.4-.5.8-.9,9.9-9.5,8.3-40.1-12.4-47.1-6.7-2.3-36.3-1.2-42.2-.5A.8.8,0,0,0,142.6,142.2Z"/></g></svg>