<svg id="Layer_1" data-name="Layer 1" xmlns="http://www.w3.org/2000/svg" xmlns:xlink="http://www.w3.org/1999/xlink" viewBox="0 0 112.6 150.3"><defs><style>.cls-1{opacity:0.8;}.cls-2{fill:#d0e8ec;}.cls-3{fill:#ef4136;}.cls-4,.cls-5{stroke:#9e4d2d;stroke-miterlimit:10;}.cls-4{fill:url(#linear-gradient);}.cls-5{fill:#efb49a;}.cls-6{fill:#231f20;}.cls-7{fill:url(#linear-gradient-2);}.cls-8{fill:#933d18;}</style><linearGradient id="linear-gradient" x1="8.5" y1="75.54" x2="105.29" y2="75.54" gradientUnits="userSpaceOnUse"><stop offset="0.19" stop-color="#ffd"/><stop offset="0.26" stop-color="#fff6d8"/><stop offset="0.41" stop-color="#ffe8cf"/><stop offset="0.54" stop-color="#ffe3cc"/><stop offset="0.67" stop-color="#ffe8d2"/><stop offset="0.83" stop-color="#fff8e3"/><stop offset="0.89" stop-color="#ffffea"/></linearGradient><linearGradient id="linear-gradient-2" x1="39.27" y1="12.55" x2="51.22" y2="12.55" gradientUnits="userSpaceOnUse"><stop offset="0.14" stop-color="#ffe3cc"/><stop offset="0.3" stop-color="#ffddc9"/><stop offset="0.51" stop-color="#ffccbf"/><stop offset="0.52" stop-color="#ffccbf"/><stop offset="1" stop-color="#ffe3cc"/></linearGradient></defs><g class="cls-1"><ellipse class="cls-2" cx="69.1" cy="132.7" rx="9" ry="24.3" transform="translate(-66.6 195.9) rotate(-87.5)"/></g><path class="cls-3" d="M17.8,31.4C10.5,29.9,11.5,20,9.4,14.9-.1,22.1,3,33.8,6,38.6,2.9,40.1.8,45.1,1.5,48c3.2-1.6,7.2-3.1,10.5-.6,5.2-5.3,6-9.7,5.8-16.3Z"/><path class="cls-4" d="M87.7,87.6c-11.9-3.1-25.3.7-36.4-3.7-5.4-2.1-9-5.9-11.7-10.3,8.5,1.5,19.5,2.2,25.7-1.7,3.9-2.4,1.1-4.2.4-7.5s.7-9.4,1.4-13.7A46,46,0,0,0,66.8,35C65.1,24.5,55.1,16.4,43.9,14.4c-7.9-1.5-16.7-.2-22.6,4.4C11.9,26,4.9,41.3,10.5,52.1a43.5,43.5,0,0,0,7.1,10.2c0,18.9,4,39.7,14,56.2,7.8,12.6,25.3,19.6,40.8,18.7,9.7-.5,17-1.4,24.3-7.8a24.4,24.4,0,0,0,8.6-18C105.4,100.6,99.6,90.8,87.7,87.6Z"/><path class="cls-5" d="M46.3,103.4c-5.8-4.7-6.7-11-.9-16.1,2.1-1.8,5-2.2,7.7-2.6,6.3-.8,12.7,0,18.6-.7s12.5-3.9,17.7-7.5c-1.2,9-15.7,17-24.4,19.1,3.9-.1,8.1,1.1,12,.1-2.8,2.9-6.6,4-10,6.3,1.7.3,3.8.2,5.6.5C67.5,108,52.1,108.1,46.3,103.4Z"/><path class="cls-5" d="M93.1,91.5c5.2-4.1,12.5-4.9,17-11.9,1.8,5.7-.6,10.9-3,16.2,1-.9,2.2-2.1,3.4-3,.1,1.8-.8,3.2-2.4,4.7l1.6-.9c.1,3.2-4.8,9.6-8.6,8.3-1.9-.8-5-8.5-6.7-10.5Z"/><path class="cls-6" d="M16.1,31.8c-.9,1.8-2.5,2.9-3.5,2.5s-1.1-2.2-.2-4,2.5-2.9,3.5-2.5S17,30,16.1,31.8Z"/><path class="cls-7" d="M50.4,20.9c4-7-8.4-12.1-8.1-19h0c-.4,3.5-.7,7.3,1.1,10.7a52.3,52.3,0,0,0-3.1-4.9c0,1.2.1,2.3.1,3.9a6.1,6.1,0,0,1-.9-2.3,78.5,78.5,0,0,0-.2,8.4h0c5.1-.5,9,1.3,11.6,5.5Z"/><path class="cls-8" d="M50.4,20.9c3.6-7.5-8.8-11.7-8.6-19h.9c-.3,3.6-.6,7.3,1.1,10.5l-.8.4c-.8-1.6-2.1-3.1-3.1-4.8l.9-.3c0,1.3.1,4.5.1,5.7-.6-1.3-1.7-2.5-1.8-4.1H40a59,59,0,0,0-.3,8.4l-.4-.3A11.6,11.6,0,0,1,51,23.2h-.2l-.4-2.3Zm0,0,.6,2.3v.4l-.3-.3A11.4,11.4,0,0,0,39,18.1a53,53,0,0,1,.1-8.9H40a4.7,4.7,0,0,0,.8,2l-.8.3-.2-3.9V5.9l.9,1.6c1,1.6,2.3,3.1,3.2,4.9l-.9.5a13.2,13.2,0,0,1-1.4-5.5,33.3,33.3,0,0,1,.2-5.5h.9a7.8,7.8,0,0,0,1.7,4.8c2.6,4.2,9.3,8.7,6,14.2Z"/></svg>