<svg xmlns="http://www.w3.org/2000/svg" viewBox="0 0 84 66"><defs><style>.cls-1{fill:#be7a40;}.cls-2{fill:#c58851;}.cls-3{fill:#d79b6b;}.cls-4{fill:#434343;}.cls-5{fill:#212121;}.cls-6{fill:#3e2723;}.cls-7{fill:#fff;}.cls-8{fill:none;stroke:#8b6339;stroke-miterlimit:10;stroke-width:0.3px;}</style></defs><g id="Layer_56" data-name="Layer 56"><g id="Puppy_01_F02"><path class="cls-1" d="M50.6,9.9a4.1,4.1,0,0,0,0,1.1.7.7,0,0,0,.1.5l.2.4v-.4c.1.3.2,1.2.5,1.4a.6.6,0,0,1,.1-.4c.4.8.8,1.5,1,1.3s2.1-5.3,2.1-5.3l-1.5.3a4.4,4.4,0,0,0-2.2.7Z"/><path class="cls-2" d="M53.3,31.3l-.5,11.6a4,4,0,0,1,1.3-.3c.9,0,1.4,2.3.5,2.8-6,3.4-3.8-5.4-6.1-7.6s-4.4-1.1-4.4-1.1Z"/><path class="cls-1" d="M24.9,50.7A12.6,12.6,0,0,1,23,47.1c0-.5,2.8-2.5,0-6.5s2.3-3.6,3.5-3.8,4.7-.7,3.5,4.8.4,5.1-1,6a9.9,9.9,0,0,1-2.3,1l.6,1.6a14.6,14.6,0,0,1,.7,2.4"/><path class="cls-3" d="M65.2,13.4h0a2,2,0,0,1-.8,1.4,2.3,2.3,0,0,1-1.5.7c-.2.5,1.5-.2,1.5-.2-.2,1.8-3.1,1.2-4.5,2.4A2.7,2.7,0,0,0,58.8,21c.9,2.1,1.7,7.5-1.7,9.5-1,.6-3.4,4.3-6.5,5.3s-9,3.9-12.4,4H36.8l-1.5.2h-.1a26.6,26.6,0,0,0-3.8,1l-3.1.9h0a18.9,18.9,0,0,1-3.2.7h-.6c-.6,0-1-1.6-1.3-1.9C20,38.5,20,30.5,27,27.1a23.9,23.9,0,0,1,5-1.8h.4c3.5-.8,5.5-.4,11.8-4.3,4.2-2.7,5.3-5.3,6-7.8a6.6,6.6,0,0,1,3.1-4.5h.3a8.8,8.8,0,0,1,2.6-.8h3.6l.2.2a2.7,2.7,0,0,1,.8.7c.4.4.4.7.7,1s.4.4,2.7,1.5c0,.1.1.1.2.1a2.7,2.7,0,0,1,.8.7A1.4,1.4,0,0,1,65.2,13.4Z"/><path class="cls-3" d="M39,45.5c-1,4.9-3.2,5.6-2.8,6.7a17.8,17.8,0,0,0,1.3,2.9,2.2,2.2,0,0,1,1.1-.5,1.5,1.5,0,0,1,1.2,1.5,2.5,2.5,0,0,1-1.3,1.1,1.9,1.9,0,0,1-2.5-.4c-.7-.8-3.7-4.5-3.7-5.1a2.5,2.5,0,0,1,.2-.7,4.6,4.6,0,0,0,.7-3,3.3,3.3,0,0,0-1.4-2.1A10.5,10.5,0,0,1,29.6,43s-4.1.3-5.2-.9a5.7,5.7,0,0,1-1.2-2.2c-.8-2.3,2.4-3.4,5.6-3.9l5.1-.3H35a3.6,3.6,0,0,1,.7.7l.5.4A22.8,22.8,0,0,1,38,39.4l.3.5A8.5,8.5,0,0,1,39,45.5Z"/><path class="cls-4" d="M65.2,13.4h0c-.4-.1-.6-.1-.8-.4a1.5,1.5,0,0,1,0-1.3,2.7,2.7,0,0,1,.8.7A1.4,1.4,0,0,1,65.2,13.4Z"/><path class="cls-1" d="M62.3,11.8h0a1.9,1.9,0,0,1-.3,1h0l-.2.2a4.3,4.3,0,0,1-1.9,1.4l-1.6.5A4.6,4.6,0,0,0,56,16.1a6.7,6.7,0,0,0-.7,1.1c-.1.4-.5.9-.4,1.4s-.1-.4-.2-.5a16.8,16.8,0,0,0-.7,2.4c0,.4.2,2.2.3,2.7l-.6-.8c0,.9.5,4.3.1,5l-.4-.6a11,11,0,0,1-.2,1.8,5.7,5.7,0,0,0-.4,1.4.5.5,0,0,0-.2-.4,2.7,2.7,0,0,1-.9,2l-.8.6-.4.3a1.1,1.1,0,0,0,.2-.5c-.6.3-1.8,1.7-3.1,1.9s.3-.4.4-.5l-2,.2H44.7l-.6-.2h-.4a4.5,4.5,0,0,0-1.1.3,4.2,4.2,0,0,1-1.6.1c.1-.2.3-.2.4-.4l-1.8.5-1.4.7c-.3.3-1,.7-1,1.1s.1-.5.1-.8A4.7,4.7,0,0,0,36,36.5h0a3.3,3.3,0,0,0-.4,1.3,1.9,1.9,0,0,1-.2-.7c0,.1-.1.2-.1.4a6.4,6.4,0,0,0-.1,2.5l.3,1.7-.7-.7.3,4.1-.3-.3a8.9,8.9,0,0,1-.1,2.3c-.1.4-.2,1-.5,1.2v-.6a5.1,5.1,0,0,1-.9,1.6V49h-.1a4.3,4.3,0,0,0-1.3-1.9c-.7-.6-2.3-4.1-2.3-4.1s.5,2.9-1.1,2.2a12.9,12.9,0,0,1-3.3-1.7,4.6,4.6,0,0,1-.7-.7c-.6,0-1.1-1.9-1.5-2.2-3.1-2.4-3-10.1,4-13.5a23.9,23.9,0,0,1,5-1.8h.4c3.5-.8,5.5-.4,11.8-4.3,4.2-2.7,5.3-5.3,6-7.8a6.6,6.6,0,0,1,3.1-4.5h.3a8.8,8.8,0,0,1,2.6-.8h3.6l.2.2c-.5.6-.2,1.6,1,1.9s1.3.8,1.3,1.4Z"/><path class="cls-5" d="M61.4,10.9a1.4,1.4,0,0,1,.4.4c-.1.2-.2.5-.3.5a.6.6,0,0,1-.7.1s-.4-.6,0-.9S61.2,10.8,61.4,10.9Z"/><path class="cls-6" d="M60.9,11.7c.2.1.5.2.6-.1a.4.4,0,0,0-.3-.6C60.9,10.9,60.5,11.3,60.9,11.7Z"/><path class="cls-5" d="M61,11.6c.1,0,.3.1.4-.1a.3.3,0,0,0-.2-.4C61,11.1,60.8,11.3,61,11.6Z"/><ellipse class="cls-7" cx="61" cy="11.5" rx="0.1" ry="0.1" transform="translate(-0.9 6.3) rotate(-5.9)"/><path class="cls-1" d="M25.5,37.6a10.2,10.2,0,0,1-6.9-5.1,10.6,10.6,0,0,1-.7-7c0-.2.1-.3.3-.5h0a.6.6,0,0,1,1,.4,9.6,9.6,0,0,0,7,11.1"/><path class="cls-1" d="M53.5,10.6c4.3-3.5,7.5-1.8,7-.1s.4,1.1-.2,2.4-.3.5-.4.8-.1.7-.2,1.1a2.7,2.7,0,0,1-.5,1.1v-.5a2.5,2.5,0,0,0-.2,1.2c.1.6.4,1.4-.4,1.6a3.2,3.2,0,0,1-2.3-.7c-1.5-1-1.8-2.8-2.6-4.3S52.6,11.3,53.5,10.6Z"/><path class="cls-1" d="M24.9,50.7s.7.5.4.9-1.8,1-.4,2a2.2,2.2,0,0,0,3-.7c.1-.3.4-.4,0-1.3"/><path class="cls-3" d="M52,31.3s-.9,3.8,1,3.7,2.8-.8,3.8-.6,1.4,4.1,1.4,4.1-1.5,2.2-1.3,2.8,2.6.3,3.7-2.1c0,0,1.2-6.7-.1-8.2s-1.9-1.4-1.9-1.4l1.1-3.7"/><path class="cls-8" d="M53,35a47.1,47.1,0,0,1-.2,7.9l1.3-.3c1.2-.1,1.4,2.3.5,2.8-5.9,3.4-4-5.2-6.1-7.6a2.6,2.6,0,0,0-1.5-.6c-3.5,1.5-5.9,2.5-8.8,2.6h.1a8.5,8.5,0,0,1,.7,5.6c-1,4.9-3.2,5.6-2.8,6.7a17.8,17.8,0,0,0,1.3,2.9,2.2,2.2,0,0,1,1.1-.5,1.5,1.5,0,0,1,1.2,1.5,2.5,2.5,0,0,1-1.3,1.1,1.9,1.9,0,0,1-2.5-.4c-.7-.8-3.7-4.5-3.7-5.1a2.5,2.5,0,0,1,.2-.7,5.2,5.2,0,0,0,.7-2,4.3,4.3,0,0,0-1.3-1.9c-.7-.6-1.8-3.7-2.3-4.1-.1,1.5.5,3.4-.1,4.1a4,4,0,0,1-2.8,1.5s1.7,3.7,1.2,4.3-3,1.4-3.6,0,1.9-.7.6-2.2A12.6,12.6,0,0,1,23,47.1c0-.4,2.8-2.7.2-6.2a6.6,6.6,0,0,1-2-5.3,9,9,0,0,1-2.6-3.1,10.6,10.6,0,0,1-.7-7c0-.2.1-.3.3-.5h0a.6.6,0,0,1,1,.4,9.7,9.7,0,0,0,.9,6.2,8,8,0,0,0,1.5,2.1,10.5,10.5,0,0,1,1.6-3.4A9.3,9.3,0,0,1,27,27.1l.9-.4a19,19,0,0,1,3-1.1l1.1-.3a.1.1,0,0,0,.1-.1h.3l1.7-.4c2.6-.4,4.9-.7,10.1-3.9h.1c4.2-2.6,5.2-5.2,5.9-7.7v-.3l.4-1.2h0a.7.7,0,0,1-.1-.5,4.1,4.1,0,0,1,0-1.1l.3-.4a5.7,5.7,0,0,1,2.2-.7c0-.1.1-.1.2-.2h.3l1.1-.4,1.5-.4h3.6l.2.2h0a2.7,2.7,0,0,1,.8.7c.4.4.4.7.7,1s.4.4,2.7,1.5c0,.1.1.1.2.1a2.7,2.7,0,0,1,.8.7,1.4,1.4,0,0,1,0,.9h0a2,2,0,0,1-.8,1.4,2.3,2.3,0,0,1-1.5.7c-.2.5,1.5-.2,1.5-.2-.2,1.8-3.1,1.2-4.5,2.4s-1.1.7-1,2.3.6.9.7,4.8-1.2,3.6-1,4.7,1-.1,1.9,1.4.4,5.9.3,7.3c-.3,3.4-3.2,4-3.7,3.3s1.2-2.3,1.1-3.1-.7-4.3-1.4-4.1c-3.1.6-5.1,1.8-5.1-1a14.4,14.4,0,0,1,.6-4.1"/><path class="cls-8" d="M22.7,40.3A8.2,8.2,0,0,0,29.6,43"/><path class="cls-8" d="M36.2,36.8A5.6,5.6,0,0,1,38,39.9"/><path class="cls-8" d="M47.3,37a27.4,27.4,0,0,0,4.6-1.8"/><path class="cls-8" d="M56.4,24.1s2.2-1.7,3.2.8"/></g></g></svg>