<svg id="Layer_1" data-name="Layer 1" xmlns="http://www.w3.org/2000/svg" xmlns:xlink="http://www.w3.org/1999/xlink" viewBox="0 0 118.3 150.2"><defs><style>.cls-1{fill:#efb49a;}.cls-1,.cls-3{stroke:#9e4d2d;stroke-miterlimit:10;}.cls-2{fill:#d0e8ec;opacity:0.4;}.cls-3{fill:url(#linear-gradient);}.cls-4{fill:url(#linear-gradient-2);}.cls-5{fill:#933d18;}.cls-6{fill:#231f20;}.cls-7{fill:#d82e2a;}.cls-8{fill:#b22424;}.cls-9{fill:#ef4136;}</style><linearGradient id="linear-gradient" x1="29.49" y1="74.28" x2="100.25" y2="74.28" gradientTransform="translate(3 -2.9) rotate(2.3)" gradientUnits="userSpaceOnUse"><stop offset="0.19" stop-color="#ffd"/><stop offset="0.26" stop-color="#fff6d8"/><stop offset="0.41" stop-color="#ffe8cf"/><stop offset="0.54" stop-color="#ffe3cc"/><stop offset="0.67" stop-color="#ffe8d2"/><stop offset="0.83" stop-color="#fff8e3"/><stop offset="0.89" stop-color="#ffffea"/></linearGradient><linearGradient id="linear-gradient-2" x1="54.68" y1="10.18" x2="67.41" y2="10.18" gradientTransform="translate(3 -2.9) rotate(2.3)" gradientUnits="userSpaceOnUse"><stop offset="0.14" stop-color="#ffe3cc"/><stop offset="0.3" stop-color="#ffddc9"/><stop offset="0.51" stop-color="#ffccbf"/><stop offset="0.52" stop-color="#ffccbf"/><stop offset="1" stop-color="#ffe3cc"/></linearGradient></defs><path class="cls-1" d="M43,72.6c-5.4,2.4-6.5,13.1-7.6,18-1.9,10.9-5.5,21.3-13.1,30.2v-.4c6.4-2.9,15-13.4,18.3-19.9,0,3.9-2.9,7.4-4.9,10.8,4.9-2.9,7.2-7,10.3-11.2-.4,3.1-1.9,6.2-3,9C57.2,99,59,78.6,43,72.6Z"/><path class="cls-2" d="M48.9,129.8c-5.2,1.2-32.2,14.5,51.6,10.8C67.5,144.7,3,140.3,48.9,129.8Z"/><path class="cls-1" d="M93.5,108.1c6-.8,11.8,1.8,18.8-1.5-1.7,5-6.1,7.9-10.6,10.7a25,25,0,0,1,4.1-.7,6.3,6.3,0,0,1-4.2,2.4h1.6c-1.5,2.4-8.4,5-10.6,2.4s.7-8.4.5-10.6Z"/><path class="cls-3" d="M79,85.8C73.3,80,68.2,72.1,67.5,64.4a41.2,41.2,0,0,0,14-2.4c3.2-1.3,6.9-2.8,8.7-5.8s-1.2-4.6-1.7-7.4a33.2,33.2,0,0,1-.3-5.5c0-4.6,1.6-9.5.4-14.1S83,19.1,77.8,16.2a32.6,32.6,0,0,0-14.5-3.5c-6.5-.3-10.4,1.8-15.5,5.5s-5.9,6.5-8.1,10.2a35.5,35.5,0,0,1-6.6,8.4c-1.5,1.2-2.4,1.4-2.3,3.3a11.9,11.9,0,0,0,1.3,4.8,30.5,30.5,0,0,0,6.5,8.7,47.3,47.3,0,0,0,9,6.8c-1.6,7.8-5.9,15.1-8.1,22.8-2.7,9.7-2.9,23.7,2,32.8,7.3,13.2,31.9,26.5,49.2,15.9S89.3,96.3,79,85.8Z"/><path class="cls-4" d="M69.6,13.6C67,9.5,61.2,8.5,59.3,3.6c-1.3,2,.1,4.4,1.5,6.2A16,16,0,0,1,58.3,8c-.3,1.1.7,2.4,1.6,3.4A5,5,0,0,1,57.2,10c.2,7.4,7.6,4.5,12.5,6.1Z"/><path class="cls-5" d="M69.6,13.6c-2.9-4-8.8-5-10.7-9.9h.7c-1.1,1.9.4,4.1,1.6,5.7l1.5,1.9-2.1-1.2A12.4,12.4,0,0,1,58,8.3l.8-.2c-.2,1.1.8,2.2,1.5,3l.9,1.1-1.4-.3a7.3,7.3,0,0,1-2.9-1.5l.7-.4c.1,2.8,1.6,4.6,4.4,4.9s5.2.2,7.7,1.1h-.1V13.6Zm0,0,.2,2.5v.2c-2.6-.8-5.3-.4-7.9-.7S56.7,12.7,56.7,9A6.1,6.1,0,0,0,60,10.9l-.5.8c-.8-1-2-2.3-1.7-3.9l.2-.7.6.5A18.8,18.8,0,0,0,61,9.4l-.6.7A10.3,10.3,0,0,1,58.7,7a4,4,0,0,1,.2-3.7l.5-.7.3.8c1.7,4.8,7.5,6,9.9,10.2Z"/><path class="cls-6" d="M57.3,38.5c-.9,1.5-.9,3-.1,3.4s2.3-.4,3.2-1.9.9-3,.1-3.5S58.2,37,57.3,38.5Z"/><path class="cls-6" d="M39.3,29.7c-.7,1.5-.5,3.1.3,3.4s2.2-.6,3-2.2.5-3.1-.3-3.5S40.1,28.1,39.3,29.7Z"/><path class="cls-7" d="M39.2,36.7h.3a7.6,7.6,0,0,1,4.7,1,8.1,8.1,0,0,1,3.2,3.9c1.1,2.6-1.4,5.1-4,5.6s-4.7,0-7.1.4-4.8,1.7-4-1.8a13.7,13.7,0,0,1,3.4-5.8C36.6,38.8,37.6,37.2,39.2,36.7Z"/><path class="cls-8" d="M44.6,42.5c-.3,1.1-1.8,1.5-2.9,1.5s-4.2-.3-6.4,1.3c-.2-1.1,3-6,4.3-5.9s1.6,1.7,2.2,2.2a8.4,8.4,0,0,0,2.5.9Z"/><path class="cls-9" d="M38.8,24.4c1.1,1.5-.4,4.2,1.1,6.3s3.5,2.2,5.1,3.4a10.4,10.4,0,0,1,1.9,2.2c1.5,2.1,2,7.6-.8,7.8s-3.5-1.6-4.9-2.7a24.1,24.1,0,0,0-5-3.3c-2.8-2.1-4.5-4.9-3.5-8.3C33.1,28.2,37,21.7,38.8,24.4Z"/><path class="cls-1" d="M76.2,83c4.5,2.4,4.5,12,5.1,16.3.7,9.8,2.9,19.3,8.7,27.6v-.3c-5.3-3-11.7-12.8-14-18.8-.3,3.5,1.8,6.8,3.3,9.9-4-2.9-5.6-6.7-7.9-10.6.1,2.7,1.1,5.6,1.8,8.2C61.9,105.5,62,87.2,76.2,83Z"/></svg>