<svg xmlns="http://www.w3.org/2000/svg" viewBox="0 0 84 66"><defs><style>.cls-1{isolation:isolate;}.cls-2{fill:#cb5741;}.cls-3{fill:#f7a991;}.cls-4{fill:#e57050;}.cls-5{fill:#ec927a;}.cls-10,.cls-5,.cls-6,.cls-7{stroke:#f7a991;stroke-width:0.3px;}.cls-10,.cls-12,.cls-14,.cls-5,.cls-6,.cls-7{stroke-miterlimit:10;}.cls-11,.cls-6{fill:#f9aa92;}.cls-7{fill:#fae8e6;mix-blend-mode:multiply;}.cls-8{fill:#ee7554;}.cls-9{fill:#f58967;}.cls-10{fill:#fbcbbd;}.cls-12{fill:none;stroke:#f9aa92;stroke-width:0.25px;}.cls-13{fill:#151515;}.cls-14{fill:#fff;stroke:#000;stroke-width:0.05px;}</style></defs><g class="cls-1"><g id="Layer_100" data-name="Layer 100"><g id="Duck_poses_04_F_01_" data-name="Duck poses 04 ( F 01 )"><path class="cls-2" d="M32.3,56.7s1,.2,1.6-1.3S31.9,53.7,32.3,56.7Z"/><path d="M32.3,56.7c.3.1.6-.1.9-.2a3.5,3.5,0,0,0,.6-.9.7.7,0,0,0,.1-.6.6.6,0,0,0-.5-.6.8.8,0,0,0-.8.3,2.6,2.6,0,0,0-.3,1.7v.3h0a2.8,2.8,0,0,1,.2-1.8,1,1,0,0,1,.8-.5.6.6,0,0,1,.6.5v.5c-.2.3-.3.7-.6.9l-.6.4Z"/><path class="cls-2" d="M34.7,52.9s1.3.2,1.5-.1-1.3-3.3-1.3-3.3Z"/><path class="cls-3" d="M34.7,52.9h1.1c.2,0,.4,0,.5-.2v-.2a3.6,3.6,0,0,0-.4-1.1l-.6-1.3a2.5,2.5,0,0,0-.4-.7c0-.1-.1-.1-.1,0l-.2,2.9v.5h.2V49.5h-.1a13,13,0,0,1,.8,1.7,5.4,5.4,0,0,1,.5,1.1c0,.1.1.3.1.4l-.3.2H34.7C34.6,52.8,34.6,52.9,34.7,52.9Z"/><path class="cls-2" d="M33.4,57.4s2.6.1,2-4.8S33.4,57.4,33.4,57.4Z"/><path d="M33.4,57.4a1.9,1.9,0,0,0,1.4-.7,3.5,3.5,0,0,0,.6-1.7,7,7,0,0,0-.1-2.9c0-.2-.1-.8-.4-.9s-.3.3-.3.4a7.4,7.4,0,0,0-.4,1.4,11.6,11.6,0,0,0-.4,1.8,23.4,23.4,0,0,0-.4,2.6h0a31.8,31.8,0,0,1,1-5.2,2.5,2.5,0,0,1,.4-.9c.2-.2.3.2.4.4a10.7,10.7,0,0,1,.3,2.5,7.1,7.1,0,0,1-.5,2.2,2,2,0,0,1-1.6,1Z"/><path class="cls-4" d="M32.3,53.5s-.7,2.8-.2,3.1,1-.6,1-.6-.1,1.4.3,1.4,1.4-.7,1.7-3.6S32.3,53.5,32.3,53.5Z"/><path class="cls-5" d="M36,33.7l-6.1,2.2c.1,7,2.1,9,2.3,16.2a9.2,9.2,0,0,1-.1,2.2c1.1-.8,1.2.9,1.2.9s1.5-1.1,1.8.8c0,0,.7-1,.2-4.9a33,33,0,0,1,.6-7.8A40.8,40.8,0,0,0,36,33.7Z"/><path class="cls-2" d="M57.2,41.6s1.4.2,1.6-.1-1.4-3.3-1.4-3.3Z"/><path class="cls-3" d="M57.2,41.6a2.5,2.5,0,0,0,1.2.1c.1,0,.4,0,.4-.1a.4.4,0,0,0,.1-.3c-.1-.4-.3-.7-.4-1.1l-.7-1.3-.3-.7a.1.1,0,0,0-.2,0v3.4c0,.1.1.1.1,0l.2-3v-.4h-.2l.9,1.6c.1.4.3.8.4,1.2a.4.4,0,0,1,.1.3.2.2,0,0,1-.2.2H57.3C57.2,41.5,57.1,41.6,57.2,41.6Z"/><path class="cls-2" d="M56,46.1s2.6.2,1.9-4.8S56,46.1,56,46.1Z"/><path d="M56,46.1a1.5,1.5,0,0,0,1.3-.7,3.6,3.6,0,0,0,.7-1.7,9.5,9.5,0,0,0-.2-2.9c0-.2-.1-.8-.3-.9s-.3.3-.4.5a6.5,6.5,0,0,0-.4,1.3l-.3,1.8c-.2.9-.3,1.8-.5,2.6s.1.1.1,0a28.6,28.6,0,0,1,.9-5.1,4.2,4.2,0,0,1,.4-1c.3-.2.4.3.4.4A7.4,7.4,0,0,1,58,43a3.8,3.8,0,0,1-.5,2.1,1.6,1.6,0,0,1-1.5,1Z"/><path class="cls-4" d="M54.8,42.3s-.7,2.7-.2,3.1,1-.7,1-.7-.1,1.4.4,1.4,1.3-.6,1.7-3.6S54.8,42.3,54.8,42.3Z"/><path class="cls-5" d="M58.6,22.5l-6.2,2.1c.2,7,2.2,9,2.4,16.2a9.1,9.1,0,0,1-.1,2.2c1-.8,1.1.9,1.1.9a1.1,1.1,0,0,1,1.9.9s.7-1.1.2-5a27.8,27.8,0,0,1,.5-7.8A43.2,43.2,0,0,0,58.6,22.5Z"/><path class="cls-6" d="M27.5,31.1,26.1,34l-1.5,2.9c-8.3-2.4-4.2-4.9-7.8-8.2l-.2-.4c-.1-.3,0-.5.3-.7S23.4,24.7,27.5,31.1Z"/><path class="cls-7" d="M26.1,34l-1.5,2.9c-8.3-2.4-4.2-4.9-7.8-8.2l-.2-.4c1.3-.4,5.8-1.4,8.8,4.1A7.1,7.1,0,0,1,26.1,34Z"/><path class="cls-8" d="M40.3,60s.9.1,1.5-1.1S39.8,57.5,40.3,60Z"/><path d="M40.3,60l.8-.2a1.9,1.9,0,0,0,.6-.7,1.4,1.4,0,0,0,.2-.6,1.2,1.2,0,0,0-.5-.5,1.1,1.1,0,0,0-.9.4,1.9,1.9,0,0,0-.3,1.3.4.4,0,0,0,.1.3h0a1.9,1.9,0,0,1,.2-1.5.7.7,0,0,1,.7-.4c.3,0,.6.1.6.3s0,.3,0,.5a1.3,1.3,0,0,1-.6.7,1.1,1.1,0,0,1-.9.4Z"/><path class="cls-9" d="M42.6,56.8s1.3.2,1.5,0-1.3-2.7-1.3-2.7Z"/><path class="cls-3" d="M42.6,56.9h1c.2,0,.7,0,.6-.4a1.2,1.2,0,0,0-.4-.8,3.9,3.9,0,0,0-.6-1.1,2.5,2.5,0,0,0-.4-.7.1.1,0,0,0-.1.1l-.2,2.4v.3c0,.1.2.1.2,0V54.1h-.1l.9,1.4a10.4,10.4,0,0,0,.4,1,.3.3,0,0,0,.1.2H42.6C42.5,56.7,42.5,56.9,42.6,56.9Z"/><path class="cls-8" d="M41.3,60.5s2.6.2,2-3.9S41.3,60.5,41.3,60.5Z"/><path d="M41.3,60.6a2,2,0,0,0,1.3-.6c1-.9.9-2.5.6-3.7s-.1-.7-.3-.8-.3.2-.4.3a3.6,3.6,0,0,0-.4,1.1c-.1.5-.3,1-.4,1.5s-.3,1.4-.4,2.1h0l.3-1.6a19.7,19.7,0,0,1,.7-2.6,2,2,0,0,1,.4-.8c.3-.1.4.3.4.5a5,5,0,0,1,.2,2.1,2.6,2.6,0,0,1-.5,1.7,1.7,1.7,0,0,1-1.5.7Z"/><path class="cls-10" d="M67,5.8a.5.5,0,0,0-.6-.2.4.4,0,0,0-.2.7A1.7,1.7,0,0,1,66,7.8h-.1a1.1,1.1,0,0,0-.3-.8,1.6,1.6,0,0,0-.4-.7,2.2,2.2,0,0,0-1.9-1,2,2,0,0,0-1.5,1.3A2.2,2.2,0,0,0,62.2,9a2.3,2.3,0,0,0,2.4.9.8.8,0,0,1-.4.4,8.3,8.3,0,0,1-3.2,2c-.2.1-.4.4-.3.6a.7.7,0,0,0,.5.4.1.1,0,0,0,.1-.1,8.1,8.1,0,0,0,4-2.6,3.4,3.4,0,0,0,.6-1.2H66A2.8,2.8,0,0,0,67,5.8ZM62.9,8.4a1.5,1.5,0,0,1-.2-1.3,1.2,1.2,0,0,1,.7-.7h.1a1.2,1.2,0,0,1,.9.6,4.1,4.1,0,0,1,.5.9,1.9,1.9,0,0,1,.2.8A1.7,1.7,0,0,1,62.9,8.4Z"/><path class="cls-9" d="M40.2,57.4s-.7,2.2-.2,2.5,1-.5,1-.5-.1,1.1.3,1.1,1.4-.5,1.7-2.9S40.2,57.4,40.2,57.4Z"/><path class="cls-10" d="M65.1,25.4c-1.5,4.6-4.6,7.9-4.8,7.6s-.5-.1-.7.2c-2.9,2.9-8.6,8.1-14.3,11.1l-1.4.6-1.8.8c-2.4.9-1.8-.1-3.2,1l-.4.3-.8.7-.7.5-.3.3A30.6,30.6,0,0,1,28.1,53l-3.4.9-3.6.8h-.4l-.2-.3-5.2-5a4.2,4.2,0,0,0,1.8-1.9C19,44,18.7,37.1,22.8,31.9s10.8-7.1,14.4-10.6c17.7-17.1,25-10.6,26.2-9.7a6.6,6.6,0,0,1,2.2,3.2A21.2,21.2,0,0,1,65.1,25.4Z"/><path class="cls-11" d="M25.9,52.9a2.1,2.1,0,0,0-1.2,1l-3.6.8c2.2-.5,3.9-1.4,4.3-2.1S27.3,52.2,25.9,52.9Z"/><path class="cls-11" d="M21.4,53a5.4,5.4,0,0,1-.9,1.5l-5.2-5c.8-.4,1.3-1.9,1.8-2.7s1.9.2,2.9.6S22.4,50.6,21.4,53Z"/><path class="cls-9" d="M21.5,52.7c.5,1.6-.9,2.7-2.7,2.2a5.6,5.6,0,0,1-4-3.6c-.5-1.5.8-2.5,2.6-2.1S21.1,51.2,21.5,52.7Z"/><path class="cls-11" d="M20.8,53c.4,1.5-.6,2.3-2.3,1.9s-3.6-1.6-3.8-3.4.6-2.2,2.3-1.8A5.5,5.5,0,0,1,20.8,53Z"/><path class="cls-3" d="M20.8,53.1a1.8,1.8,0,0,1-.2,1.4,2.3,2.3,0,0,1-1.4.4,5,5,0,0,1-3.3-1.4,2.9,2.9,0,0,1-1.1-3c.4-1.2,2-.9,2.8-.5a5.2,5.2,0,0,1,3.2,3.1c0,.1.1,0,.1-.1a5.4,5.4,0,0,0-3-3.1c-.9-.4-2.4-.8-3.1.2a2.9,2.9,0,0,0,.7,3.2A6.2,6.2,0,0,0,19,55.1a2.5,2.5,0,0,0,1.7-.5,2.2,2.2,0,0,0,.2-1.6C20.9,52.9,20.7,53,20.8,53.1Z"/><path class="cls-12" d="M25.9,46.1a.5.5,0,0,1-.4-.2c-.1-.1-.1-.2-.1-.4s0-3.8,4.1-3.1C29.5,42.4,31,46.3,25.9,46.1Z"/><path class="cls-4" d="M17.1,51.9c0,.5-.3.7-.7.5a1.9,1.9,0,0,1-.7-1.2c0-.4.3-.6.7-.4A1.4,1.4,0,0,1,17.1,51.9Z"/><path class="cls-4" d="M19.8,53.4c0,.4-.3.6-.7.4a1.4,1.4,0,0,1-.7-1.2c0-.4.3-.6.7-.4A1.4,1.4,0,0,1,19.8,53.4Z"/><path class="cls-12" d="M28.9,43.6s-.3,1.6-1.1,1.7-1.1-.3-1.6.2a2.4,2.4,0,0,0,.2-.8c.2-.6.3-1.3.9-1.6S28.5,43.1,28.9,43.6Z"/><path class="cls-13" d="M28.7,43.4a1.7,1.7,0,0,1-1.1,1.7,1.9,1.9,0,0,1-1.2-.4c.2-.6.3-1.3.9-1.6A1,1,0,0,1,28.7,43.4Z"/><path d="M28.7,43.4a1.7,1.7,0,0,1-.5,1.2,1,1,0,0,1-1.1.4.5.5,0,0,1-.4-.2h-.1a.1.1,0,0,1-.1-.1,1.4,1.4,0,0,1,.2-.6,1.2,1.2,0,0,1,.9-1,1,1,0,0,1,1.1.4c0,.1.1,0,.1,0a1.4,1.4,0,0,0-1-.5,1.7,1.7,0,0,0-1.1.9,1.9,1.9,0,0,0-.2.7c-.1,0-.1.1-.1.2h.1l.3.3a1.2,1.2,0,0,0,1.3-.2,2.3,2.3,0,0,0,.7-1.4Z"/><path class="cls-14" d="M28.2,43.6c.1.2-.1.3-.2.4s-.4-.1-.4-.3.1-.3.3-.4A.3.3,0,0,1,28.2,43.6Z"/><path class="cls-6" d="M40.4,34.5c.1.2,0,.3-.1.5-2.7,3.6-2.7,10.9-7.8,6.4L32,41l-.9-1.5A3.2,3.2,0,0,1,32.2,35,10.2,10.2,0,0,1,40,34,.7.7,0,0,1,40.4,34.5Z"/><path class="cls-7" d="M40.4,34.5c.1.2,0,.3-.1.5-2.7,3.6-2.7,10.9-7.8,6.4a3.7,3.7,0,0,1,0-2.1C33.3,34.9,38.2,34.5,40.4,34.5Z"/><path class="cls-10" d="M44.1,43.1v2.7c-.1.5-.1,1-.2,1.6h0v.2h0a.4.4,0,0,0-.1.3v.3a5,5,0,0,0-.2,1.2.1.1,0,0,1-.1.1h0v.2a.9.9,0,0,1-.1.5v.4a1.3,1.3,0,0,0-.1.6h0v.3h0a.4.4,0,0,0-.1.3v.6h0v.5c-.1,0-.1.1-.1.2h0v.6c0,.1.1.1.1.2h0v.7c.1.5.1.9.2,1.2V57h0a4.9,4.9,0,0,1-.3,2.2h-.2v-.2h-.4a.1.1,0,0,1-.1-.1h-.6l-.5.2a1.3,1.3,0,0,0-.1-.5A.3.3,0,0,0,41,58c-.1-.3-.4-.5-.9-.1h0a5.2,5.2,0,0,0,0-1.8,26.9,26.9,0,0,0-.2-3.1c-.2-1.3-.5-2.4-.7-3.4a20,20,0,0,1-.9-3.7"/><path class="cls-8" d="M61.5,48a2,2,0,0,0,2-1.2C64.2,45.4,61,45.1,61.5,48Z"/><path class="cls-9" d="M64.9,44.7s1.5.5,1.9.3-.9-3.3-.9-3.3Z"/><path class="cls-3" d="M64.9,44.8l1.1.3c.2,0,.8.2.9-.1v-.4a6.4,6.4,0,0,0-.2-.7c-.1-.4-.3-.9-.4-1.4l-.3-.8c-.1-.1-.2-.1-.2,0l-.9,2.6v.4H65l.8-2.6.2-.4h-.2a14.6,14.6,0,0,1,.7,1.9l.3,1.2c0,.1,0,.1-.1.2a.7.7,0,0,1-.6-.1,2.7,2.7,0,0,1-1.2-.3C64.8,44.6,64.8,44.7,64.9,44.8Z"/><path class="cls-8" d="M62.9,48.6s3.3.2,2.5-4.4S62.9,48.6,62.9,48.6Z"/><path class="cls-9" d="M61.6,45s-1,2.6-.3,2.9,1.2-.6,1.2-.6-.1,1.3.4,1.3,1.8-.6,2.2-3.3S61.6,45,61.6,45Z"/><path class="cls-10" d="M64.3,13.4l1,.9a11.6,11.6,0,0,1,3.3,8.2V23c0,.1,0,.1-.1.1v.8a2,2,0,0,1-.1.7v.2c0,.3-.1.6-.1.8v.7c-.1,0-.1.1-.1.2v.2a6.4,6.4,0,0,0-.2.7.4.4,0,0,1-.1.3,6.9,6.9,0,0,0-.2,1.3.4.4,0,0,0-.1.3,6.4,6.4,0,0,1-.2.7v.2a.4.4,0,0,1-.1.3h0V31h0a.1.1,0,0,0-.1.1h0v.2a3.9,3.9,0,0,0,.1,1.9,5.4,5.4,0,0,1,.2,4.3h0a10.4,10.4,0,0,0-.3,1.2h0a5.1,5.1,0,0,0-.2,1.3c-.1.2-.1.4-.2.6v.2a.4.4,0,0,1-.1.3v.3c0,.1-.1.2-.1.3s-.1.6-.1.9-.1.1-.1.2a.4.4,0,0,1-.1.3,3.6,3.6,0,0,1-.2,1.1c0,.1-.1.3-.1.4a4.4,4.4,0,0,0-.2,1,.4.4,0,0,0-.1.3h0a.1.1,0,0,0-.1.1h0c-.1.2-.2.3-.2.4h-.2a.3.3,0,0,0-.1-.2h-.1v-.2h0l-.2-.2H62.9a.1.1,0,0,1-.1.1h-.1c0-.1,0-.2-.1-.2h-.1a.1.1,0,0,1-.1-.1h-.1a.1.1,0,0,0-.1-.1h-.4a.5.5,0,0,0-.4.2h0c.2-1.1.2-1.4.3-1.9.6-2.5,1.4-6.2.4-7.4a.1.1,0,0,0-.1-.1c0-.1-.1-.1-.1-.2l-.4-.5c0-.1,0-.1-.1-.1l-.5-1c-.1,0-.1-.1-.1-.2s-.1-.1-.1-.2l-.2-.4c0-.1-.1-.1-.1-.2s-.1-.2-.1-.4a.1.1,0,0,1-.1-.1c0-.2-.1-.3-.1-.4a.3.3,0,0,1-.1-.2h0a.3.3,0,0,1-.1-.2v-.2c-.1-.1-.1-.1-.1-.2h0a.8.8,0,0,1-.1-.4.3.3,0,0,1-.1-.2v-.2h0a15.9,15.9,0,0,1-.4-3.6"/></g></g></g></svg>