<svg xmlns="http://www.w3.org/2000/svg" xmlns:xlink="http://www.w3.org/1999/xlink" viewBox="0 0 54 35"><defs><style>.cls-1{fill:#ee7373;}.cls-2{fill:#5d1222;}.cls-3{fill:url(#linear-gradient);}.cls-4{fill:url(#linear-gradient-2);}</style><linearGradient id="linear-gradient" x1="18.97" y1="-277.14" x2="40.3" y2="-277.14" gradientTransform="translate(-48.4 289.1) rotate(9.4)" gradientUnits="userSpaceOnUse"><stop offset="0" stop-color="#e7d8d6"/><stop offset="0.39" stop-color="#eee4e3"/><stop offset="1" stop-color="#fff"/></linearGradient><linearGradient id="linear-gradient-2" x1="15.74" y1="-280.87" x2="40.65" y2="-280.87" xlink:href="#linear-gradient"/></defs><g id="S"><path class="cls-1" d="M5.1,13.3A22,22,0,0,0,23.5,25c17.1.7,20.9-12.4,20.9-12.4S31.1,21.5,5.1,13.3Z"/><path class="cls-2" d="M5.8,13.5s7.7,10.4,21,10c10.9-.3,16.1-9.9,16.1-9.9S30.7,21.4,5.8,13.5Z"/><path class="cls-1" d="M19.1,20.8a8.4,8.4,0,0,1,5.8-.9s2.7-1.5,7.2.4A12.8,12.8,0,0,1,19.1,20.8Z"/><path class="cls-3" d="M15.3,21a1.9,1.9,0,0,1,2.1-.9c1.5.3,2.5,1.7,10.1,1,2.9-.3,5.6-1.7,7.4-2.2S37.1,20,37.1,20a18.3,18.3,0,0,1-10.3,3.5C21.1,23.8,15.4,21.3,15.3,21Z"/><path class="cls-4" d="M13.2,15.4s-4.6,5.5,15.2,4c2.8-.2,11.4-1.2,9.4-4.7C37.8,14.7,24.5,19.4,13.2,15.4Z"/><path class="cls-1" d="M5.3,13.3l.4.2c6.5,3.9,28.9,7.7,39.2-1.4a51.5,51.5,0,0,1-19.1,4.1A79.5,79.5,0,0,1,5.3,13.3Z"/></g></svg>