<svg xmlns="http://www.w3.org/2000/svg" viewBox="0 0 349 339"><defs><style>.cls-1{fill:#f0b3a4;stroke:#593129;}.cls-1,.cls-2{stroke-miterlimit:10;}.cls-2{fill:#ee4241;stroke:#cb2f2f;stroke-width:2px;}</style></defs><g id="hand_01"><path class="cls-1" d="M148.5,126.2c9.8,27.5,37.2,103,47.5,112.5,12.7,11.5,65.7,52.5,102.6,78.3L313,251.3s-58.1-42.1-77.5-49.6c-3.8-14.8-41.7-74.7-51.2-94.8"/><path class="cls-1" d="M182.3,113.5c2.6-1.8,6.8-5.7,10.3-14.4,2.3-5.5,3.5-16.3,8.1-25.9a49.3,49.3,0,0,1,3.7-6.4c.9-1.8-.9-3.3-4.4-3.7s-7.9,2.7-9.3,5.5c0,0-6.7,15.4-9.7,14.5s-4.4-10.2-4.4-10.2c-.9-7.5-1.5-16.7-1.5-16.7l-1.5-33.9a5.7,5.7,0,0,0-6.9-4.3c-3.1.8-5.2,4.7-4.4,7.8L162,55.6a1.7,1.7,0,0,1-1.3,1.7c-.7.2-1.7.4-2.2-.9l-8.6-36.7a5.9,5.9,0,0,0-7-4.4,5.7,5.7,0,0,0-4.2,6.9l8.1,38.5c.5,1.4-1.3,2.8-2.2,1.2L129.5,31.2a5.4,5.4,0,1,0-10.6,2.5l14.4,36.4c.6,2.3-1.3,3-1.8,1.5h0L115.2,52.1c-1.8-2.8-4.3-4.9-6.8-3.5s-3.1,3.4-1.9,6.3l15.2,26c3.5,29.1,18.5,40.5,18.5,40.5a47.4,47.4,0,0,0,8.1,5.4"/><path class="cls-2" d="M248.7,205.9c-.9,6.8-5.7,34.5-26,63.6a3,3,0,0,0,.9,4.3L291,317.4c.7.5,1.1-.4,1.8-.6,21.9-6.3,43.4-51.9,18.7-78.3-8-8.6-51.9-30-61.1-33.6A1.2,1.2,0,0,0,248.7,205.9Z"/></g></svg>