<svg xmlns="http://www.w3.org/2000/svg" viewBox="0 0 84 66"><defs><style>.cls-1,.cls-2{fill:#f9a529;}.cls-2,.cls-5,.cls-6{stroke:#f4b46d;stroke-miterlimit:10;stroke-width:0.3px;}.cls-3{fill:#fdf6e1;}.cls-4{fill:#f68e1e;}.cls-5,.cls-7{fill:#f5b46d;}.cls-6{fill:#ffdfad;}.cls-8{fill:#fbcea1;}.cls-9{fill:#87babe;}.cls-10{fill:#434343;}.cls-11{fill:#fff;}.cls-12{fill:#f37c20;}</style></defs><g id="Layer_69" data-name="Layer 69"><g id="Duck_poses_06_F_03_" data-name="Duck poses 06 ( F 03 )"><path class="cls-1" d="M45.5,45.7s1.4,0,1.5.4-1.1.3-1.1.3Z"/><path class="cls-2" d="M41.4,50.7a39.7,39.7,0,0,1,5.8-2.8c.4-.1.3-.7-.3-1.1s-1.6-2-2.3-2.8-.7-.7-1.2-.6-1.7.1-1.2.5l1.2,1,1.8,2L42.6,46v.4a2.5,2.5,0,0,1-1,1.6l-.4.2c.1.1.1.2.2.2a2.8,2.8,0,0,1,0,1.8c-.1.2,0,.3,0,.5"/><path class="cls-3" d="M40.9,50.8c-.1-.4.5-.8.6-.5s-.4.3-.6.5"/><path class="cls-3" d="M40.8,48.5c.1-.5.9-.7.8-.4s-.3.1-.8.4"/><path class="cls-3" d="M41.9,46.2c.2-.4,1-.3.9,0s-.4-.1-.9,0"/><path class="cls-4" d="M41.4,50.2c1.2-.8,4.1-2.1,4-2.2s-3.6.4-4,.4a2.8,2.8,0,0,1,0,1.8"/><path class="cls-4" d="M41.6,48l3.8-.6c0-.2-2-.6-2.8-1a2.5,2.5,0,0,1-1,1.6Z"/><path class="cls-4" d="M42.2,43.9l1.2,1a2.6,2.6,0,0,0,1.2-.9c-.4-.4-.7-.7-1.2-.6s-1.7.1-1.2.5"/><path class="cls-1" d="M40,46.4s1.4,1.2,1.2,1.7-1.5-.6-1.5-.6Z"/><path class="cls-2" d="M31.2,47.9A54.3,54.3,0,0,1,39.7,50c.6.2,1-.5.7-1.4s0-3.5,0-4.9a1.6,1.6,0,0,0-.8-1.6s-1.8-1.4-1.6-.5.2,1.3.3,2.1a15,15,0,0,1,.2,3.5l-1.9-3.1-.4.4a3.2,3.2,0,0,1-2.3.8h-.7v.4a3.7,3.7,0,0,1-1.5,1.8c-.2.2-.2.4-.5.5"/><path class="cls-3" d="M35.7,43.6c.6-.2,1.3.6.9.8s-.3-.4-.9-.8"/><path class="cls-4" d="M31.7,47.4c2,.2,6.1,1.4,6.2,1.1s-4.2-2.6-4.7-2.9a3.7,3.7,0,0,1-1.5,1.8"/><path class="cls-4" d="M33.8,45.3c1.4.7,4.3,2.7,4.5,2.6s-1.7-2.3-2.1-3.4a3.2,3.2,0,0,1-2.3.8Z"/><path class="cls-4" d="M38,41.6q.2.9.3,2.1a5,5,0,0,0,2.1,0,1.6,1.6,0,0,0-.8-1.6s-1.8-1.4-1.6-.5"/><path class="cls-3" d="M30.5,47.6c.3-.5,1.3-.4,1.2,0s-.7,0-1.2,0"/><path class="cls-3" d="M32.5,45.1c.5-.4,1.5.1,1.2.4s-.4-.2-1.2-.4"/><path class="cls-5" d="M53.4,35.8S50.9,25.7,41.9,24.7c-5.5-.6,7.8,11.2,11.5,11.1"/><path class="cls-6" d="M30,33.7c.9,2.5,2.1,3.9,7.5,8.6s12.1.3,15.1-2.4l.2-.2c2.6-2.4,2-2.9.3-3.2s-3-3.6-6.8-8.2c-2.3-2.8-4.3-3.2-6.5-4.1s-4-1.6-3.4-4.3,1.7-7.2-.3-9a5.2,5.2,0,0,0-1.8-1.2,5.5,5.5,0,0,0-5.1.7A2.4,2.4,0,0,0,28,12c-.1.7-.3,3.2.1,3.9a5.7,5.7,0,0,0,.8.8c.6.5,1.8,1,1.3,4.6s-.9,6.6-1,7.1a13.7,13.7,0,0,0,.8,5.3"/><path class="cls-7" d="M49.5,36.2c-1.7-2-9-10.6-12.2-10.8s-1.5,6.9,1.1,9.4,8.3,4.3,8,2.8,1,.3,1.6.3.5-.6.9-.5,1.6-.1.6-1.2"/><path class="cls-8" d="M29.3,29.7c.4,4.3,1.7,6.9,7.6,12S48.8,43.3,52,40.3h.2a.4.4,0,0,0-.1-.3c.3-1.3-14.6,7.5-22.8-10.2"/><path class="cls-8" d="M29.6,31.8c-.4-2.7.5-9.8,1.4-12.6s1.5-1.1,1.8-1.7-1.7.6-3.7-.7c.6.5,1.1,2.1.8,5.7s-1,6.6-.3,9.3"/><path class="cls-1" d="M30.4,13.1c0,.9,1.4.9,1.3-.2s-1.4-.6-1.3.2"/><path class="cls-9" d="M30.5,13.1c.1.6,1.1.7,1-.1s-1-.5-1,.1"/><path class="cls-10" d="M30.8,13.1c0,.3.6.4.5-.1s-.6-.3-.5.1"/><path class="cls-11" d="M31,12.9c0,.2-.1.2-.2.1a.2.2,0,0,1-.1-.3c.1-.2.2-.2.3-.1a.2.2,0,0,1,0,.3"/><path class="cls-1" d="M25,15.9a9.5,9.5,0,0,1,3.7.1l-.5-.9c-.5-1.1.3-1.9,1-2.7s-.5-1.7-1.1-1v.2a4.3,4.3,0,0,1-2.6,2.3c-1.8.8-2.1,2.3-.4,2"/><path class="cls-12" d="M25,15.9a9.5,9.5,0,0,1,3.7.1l-.5-.9-3.2.8"/><path class="cls-12" d="M26.8,14c.1.2-.6.5-.7.3s.6-.6.7-.3"/></g></g></svg>