<svg xmlns="http://www.w3.org/2000/svg" viewBox="0 0 133 144"><defs><style>.cls-1{fill:#353535;}.cls-2{fill:#c89572;}.cls-2,.cls-5{stroke:#86604e;stroke-width:0.3px;}.cls-2,.cls-3,.cls-5{stroke-miterlimit:10;}.cls-3{fill:#f0d4be;stroke:#c0272d;stroke-width:0.11px;}.cls-4{fill:#86604e;}.cls-5{fill:none;}.cls-6{fill:#602f28;}.cls-7{fill:#fff;}</style></defs><g id="Calf_Pose01_F02"><g id="_002" data-name="002"><path class="cls-1" d="M81.2,105.5s1.1.8.7,1.3-.7.4-.7.6-1.1,1.8-3.8.6-1.5-3-1.5-3l1.7.2s-1.8-.6-1.5-1.1,2.4-.3,2.6-.3"/><path class="cls-2" d="M50,81c-1.7,3,.6,4.1,1.1,3.4a3.8,3.8,0,0,1,2-.7c1.7-.8,1.3-2.9,1.6-4s2.8-4.5,2.9-4.7l-3.1-4.6C54.3,72.8,50.3,80.9,50,81Z"/><path class="cls-1" d="M47.1,82.6a5.2,5.2,0,0,0,3.8,3.2c1.7.3,1.5-1.4,1.5-1.6s.2.2,1-.1.6-.4.5-1.4-1.8.1-1.9.9-2.8,1.1-2.1-2.5a4.4,4.4,0,0,1-1.4.3l1.1,1Z"/><path class="cls-1" d="M52.7,95.3c.2.6,2.7,2.7,3.9,2.8s1.7-1,2.1-1.6,1.2-.4,1.8-.8.2-.9-.2-1.5-2,.2-2.2.9-2.7,2.2-2.3-1.5c-3.4-.9-.7,1-.6,1.1C52.9,94.1,52.5,94.7,52.7,95.3Z"/><path class="cls-3" d="M62.2,51.3h.1l-.2-.2C62.1,51.2,62.1,51.2,62.2,51.3Z"/><path class="cls-1" d="M84.7,110.6s-3.5-.8-3.9.4,0,3.3,1.6,3.7,3.1,1.6,4.8-.4c.2-.3,2.3.5,1.7-2.4"/><path class="cls-2" d="M88.9,96.6c.5-.7,7-5.8,7.9-9.9.3-1.4.7-.8.4-5.7a13.7,13.7,0,0,0-1.5-6.3,22.1,22.1,0,0,0-1.3-2.3c-2.2-3.1-1.7-3.3-3.2-4.6s-1.7-1-4.8-2.5a32.8,32.8,0,0,1-3.1-1.8c-5-3.3-5.7-3-9.3-5.5s-5.2-6.1-9.3-6.1a4.8,4.8,0,0,1-2.4-.6l-.2-.2-.3-.4a9.8,9.8,0,0,1-1-4.7,12.8,12.8,0,0,1,.3-3.1c4.1-2.6,4.5-3.6,4.5-4.1s-5.7-1-6.5-.8-3.1-.4-4-.6a9.3,9.3,0,0,0-2.8-.8c-1.3,0-4.3,2.5-4.9,2.5s-.2-.2-1.9-1-3.5,3.1-3.7,4.1,1.3,1.9,1.3,1.9-.4.4-.4.6a10.5,10.5,0,0,0,2.7,2c-.2.2-2.9,5.8-2,6.4,3,.4,5.5-2.1,5.7-1.9a8.2,8.2,0,0,0,1.6.6v.4c.1.6-.1,3.7.1,5.4s1.9,3.8,1.5,4.7.8,6.5,1,7.1,1.1,4.7,1.3,5.4a9,9,0,0,1-.2,3.9c-.4,1.6.9,3,1.3,3.9s.7,7.5.5,8.8l-.4,2.2c-.4,3.7,2.1,2.1,2.3,1.5s2.2-.9,2.2-.9,0-3.7-.4-4.5-.1-8.2.5-9,.7-5.3.8-5.2c3,3.5,14,7.7,14.2,7.7-.7,2.2.9,8.1,3.6,10.9s6.9,5.2,6.7,8.5c0,.8-.8,5.7-.8,6.3s-1.3,2.9-1.2,4.2,1.2,1.2,2.6.8,2.7-1.1,2.7-2.7.6-7.5,1-9.1-.5-3-1.1-5.5"/><path class="cls-2" d="M82.2,97c-1.7,2.6-5.2,7.1-5.2,8.4s.9,1.8,2.6,1.6,1.5-.8,1.5-2.1,1.3-2.9,3.7-5"/><path class="cls-4" d="M45,47l2.5-2.4,1.3-1.1a4.5,4.5,0,0,1,1.4-1h0a2.3,2.3,0,0,0,.7-1,1.7,1.7,0,0,0,0-1.2,2.5,2.5,0,0,1,.1,1.2,1.6,1.6,0,0,1-.8,1h0a6.9,6.9,0,0,0-1.3,1.1l-1.3,1.2-2.4,2.4Z"/><path class="cls-4" d="M53.4,43.8a1.5,1.5,0,0,0-.9.6c-.2.3-.1.7-.2,1.1a8.7,8.7,0,0,1-.5,2.2,5.6,5.6,0,0,1-1.1,2,5.7,5.7,0,0,1-1.6,1.5,9,9,0,0,0,2.5-3.6,16,16,0,0,0,.5-2.1c.1-.4,0-.8.3-1.2A1.6,1.6,0,0,1,53.4,43.8Z"/><path class="cls-4" d="M52.2,49.3a4,4,0,0,1-.3,1.5l-.5.6-.7.4a3.1,3.1,0,0,0,.9-1.1l.3-.7Z"/><path class="cls-5" d="M58.7,38s1.7,1.3,2.4,5"/><path class="cls-4" d="M87.3,89.3A17.4,17.4,0,0,0,89.1,86a20.4,20.4,0,0,0,1.1-3.5,12.1,12.1,0,0,0,0-3.8,8.7,8.7,0,0,0-1.5-3.4,8.9,8.9,0,0,1,1.6,3.4,12.1,12.1,0,0,1,0,3.8,24.2,24.2,0,0,1-1,3.6,22.1,22.1,0,0,1-1.8,3.4Z"/><path class="cls-4" d="M43.5,41.4c0,.4-.2.8,0,1.1s.5.5.8.7h-.6a.8.8,0,0,1-.5-.5.6.6,0,0,1,0-.6A3.3,3.3,0,0,1,43.5,41.4Z"/><path class="cls-5" d="M89.2,73.4a1.6,1.6,0,0,1,.9.3,4.3,4.3,0,0,1,1.2,1.4,8.6,8.6,0,0,1,.9,2.6,13.4,13.4,0,0,1,0,4.5c-.5,3.7-3.4,8.5-3.7,11.4s-.5,2.2-.5,3-.3.7-.3.7v.9a14.4,14.4,0,0,1-.1-5.3c.4-2.9,3.5-9.2,3.2-11.5,0,0,.3-4.9-1.9-6.2"/><path class="cls-6" d="M87.9,93.2c1.3,3.1.4,4.5.5,6.9,0,.3-.5-.4-.3-1.6a3.7,3.7,0,0,0-.3,2.4c.2.8-.1.1-.4-.6a3.2,3.2,0,0,0-.1.8,2.3,2.3,0,0,1-.2-1.1,3.2,3.2,0,0,0,.6,2.6c.4.7-1.9-1.6-.8-3.7a3,3,0,0,0-.6,2.5,2.1,2.1,0,0,1-.2-1.9l-.3.6c0,.1-.1.1-.1,0s1.1-2.4,1.6-4.1a16.4,16.4,0,0,1-1.4,2.2h-.1c.7-1.3,2-3,1.5-4.6,0,0-.1.8,0,.6s0-1.1.1-1.2.4,1.2.5,1.3,0-1.2,0-1.1"/><path class="cls-4" d="M63.4,51.9a6.2,6.2,0,0,1-2.2-1,3,3,0,0,1-.8-.8,2.7,2.7,0,0,1-.6-1,4.7,4.7,0,0,0,.6.9l.9.8a5.8,5.8,0,0,0,2.2.8Z"/><path class="cls-4" d="M52.2,62.4v-.2h0c0-.1,0-.1.1-.2v-.3a1.9,1.9,0,0,1,.2-.7,6.1,6.1,0,0,0,.5-1.2,17.6,17.6,0,0,1,1.4-2.3,13.5,13.5,0,0,1,3.5-4,14.5,14.5,0,0,0-3.4,4,13.4,13.4,0,0,0-1.2,2.4L52.7,61a2.5,2.5,0,0,1-.2.7V62h0Z"/><path class="cls-4" d="M75.2,83.2a16.4,16.4,0,0,1,.9-4.4,7.2,7.2,0,0,1,2.5-3.6,7,7,0,0,0-2.4,3.6,21.3,21.3,0,0,0-.7,4.4Z"/><path d="M46.2,41.6a.8.8,0,0,0,.8.5c-.1-.2-.1-.3-.2-.4h0v-1h0v-.4l-.4.5A1.5,1.5,0,0,0,46.2,41.6Z"/><path class="cls-7" d="M46.4,41.4c.1.2.2.3.4.3h0v-1h0a.2.2,0,0,0-.2.2A.6.6,0,0,0,46.4,41.4Z"/><path class="cls-4" d="M47.8,43.1a3.3,3.3,0,0,1-.7-3.5c0-.2-.3-.3-.3-.1a3.6,3.6,0,0,0,.8,3.8c.1.1.3-.1.2-.2Z"/></g></g></svg>