<svg xmlns="http://www.w3.org/2000/svg" viewBox="0 0 97 62"><defs><style>.cls-1{fill:#4c2d1d;}.cls-2,.cls-4{fill:#f7f2f3;}.cls-2{stroke:#6f451b;}.cls-2,.cls-5{stroke-miterlimit:10;stroke-width:0.75px;}.cls-3{fill:#271717;}.cls-5{fill:#cd8c80;stroke:#593129;}</style></defs><g id="eye_02"><path class="cls-1" d="M7.4,20S15.1,6.4,24.1,8.5c.7.2.5,3.3,1.2,3.5s1.9-2.4,1.9-2.4a15.7,15.7,0,0,1,.1,3.4A2,2,0,0,1,25,14.4c-6.4-.6-15,5-15,5C7.1,21.3,6.1,22.2,7.4,20Z"/><path class="cls-1" d="M92,21.7S81.6,5.6,70.8,8.9c-.8.2-.3,4-1.2,4.4s-2.5-2.9-2.5-2.9a16.6,16.6,0,0,0,.2,4.2,2.3,2.3,0,0,0,2.8,1.5c7.8-1.2,18.7,5,18.7,5C92.5,23.3,93.7,24.3,92,21.7Z"/><path class="cls-2" d="M24.3,49.9A13.6,13.6,0,0,1,6.1,42.2a14.6,14.6,0,0,1,7.6-18.8A13.6,13.6,0,0,1,31.9,31a14.7,14.7,0,0,1-7.6,18.9"/><path class="cls-3" d="M26.7,40.4a7.9,7.9,0,0,1-9.4,6,8,8,0,0,1-5.7-9.7,7.8,7.8,0,1,1,15.1,3.7"/><path class="cls-4" d="M24.9,33A2.5,2.5,0,1,1,20,31.9a2.7,2.7,0,0,1,3.1-2A2.7,2.7,0,0,1,24.9,33"/><path class="cls-2" d="M75.8,54.7A13.7,13.7,0,0,1,57.5,47a14.7,14.7,0,0,1,7.7-18.9,13.6,13.6,0,0,1,18.2,7.7,14.8,14.8,0,0,1-7.6,18.9"/><path class="cls-3" d="M78.2,44.6a7.8,7.8,0,1,1-15.1-3.7,7.9,7.9,0,0,1,9.4-6,8.1,8.1,0,0,1,5.7,9.7"/><path class="cls-4" d="M76.4,37.2A2.5,2.5,0,1,1,71.5,36a2.5,2.5,0,0,1,3-1.9,2.6,2.6,0,0,1,1.9,3.1"/><path class="cls-5" d="M32.9,34.7s-8.1-8.2-25.6-5.8c0,0,4-8.8,15.2-6.3C22.5,22.6,31.9,24.8,32.9,34.7Z"/><path class="cls-5" d="M58,35.1s17.2-3.2,26.1,3A13.8,13.8,0,0,0,70.6,27S63.4,26.3,58,35.1Z"/></g></svg>