<svg xmlns="http://www.w3.org/2000/svg" viewBox="0 0 164 95"><defs><style>.cls-1{fill:#ee7373;}.cls-2{fill:#5d1222;}.cls-3{fill:#f7f2f3;}</style></defs><g id="Uh"><path class="cls-1" d="M41.5,31.1S54,65.5,82.6,65.5c23.7,0,36-35.8,36-35.8S80.3,50.9,41.5,31.1Z"/><path class="cls-2" d="M46.7,34S61.4,61.7,83.3,60.5s29.6-27.2,29.6-27.2S85,47,46.7,34Z"/><path class="cls-3" d="M52.7,34.4s7.8,17.2,35.2,14.1c0,0,15-.8,19.7-12C107.6,36.5,77.3,45.5,52.7,34.4Z"/><path class="cls-1" d="M41.2,30.6a3.8,3.8,0,0,0,1.3,1.2c20.3,8.7,49.9,20,76.1-2.1,0,0-13.1,8.7-36.2,8.9A110.9,110.9,0,0,1,41.2,30.6Z"/><path class="cls-1" d="M67.1,54.8s4.8-3.7,12.8-1.9c0,0,5.1-3.1,14.9,2C94.8,54.9,82.9,65,67.1,54.8Z"/></g></svg>