<svg xmlns="http://www.w3.org/2000/svg" xmlns:xlink="http://www.w3.org/1999/xlink" viewBox="0 0 84 66"><defs><style>.cls-1{isolation:isolate;}.cls-2{fill:#8d6e63;}.cls-3{fill:#6d4d42;}.cls-4{fill:#ec927a;}.cls-4,.cls-5,.cls-6{stroke:#f7a991;stroke-miterlimit:10;stroke-width:0.3px;}.cls-5,.cls-7{fill:#f9aa92;}.cls-6{fill:#fbcbbd;}.cls-8{mix-blend-mode:multiply;fill:url(#linear-gradient);}</style><linearGradient id="linear-gradient" x1="4002.02" y1="52.34" x2="4020.14" y2="-25.16" gradientTransform="matrix(-1, 0, 0, 1, 4052.03, 0)" gradientUnits="userSpaceOnUse"><stop offset="0" stop-color="#ffe8ce"/><stop offset="1" stop-color="#e4a5c9"/></linearGradient></defs><g class="cls-1"><g id="Layer_99" data-name="Layer 99"><g id="Duck_poses_01_F_03_" data-name="Duck poses 01 ( F 03 )"><path class="cls-2" d="M58.5,58.3a.9.9,0,0,0,.6.4,3.5,3.5,0,0,0,3.3-1.1h-.9a2,2,0,0,0-2.6.3l.4.2Z"/><path class="cls-3" d="M58.5,58.3a.9.9,0,0,0,.6.4l1.2-.3,1.4-.9h-.2a2,2,0,0,0-2.6.3l.4.2Z"/><path class="cls-4" d="M55.3,36.9c1.3.1,5.5,2.7,6,8.9s3.7,3.4,2.4,5.9a5.4,5.4,0,0,0-.5,2.4,11.2,11.2,0,0,1,.2,2c-.1.6-1,.5-1,1.5s-2.2.2-2.2-.3.5-1.1.7-2.3a4.6,4.6,0,0,0-.3-2.9c-1.7-1.9-7-1-8.5-8.9S53.5,36.7,55.3,36.9Z"/><path class="cls-2" d="M33.3,47.7l.9.5c-1,.7-3.7.7-4.4-.7l1.1-.2-.4-.3A2.3,2.3,0,0,1,33.3,47.7Z"/><path class="cls-3" d="M29.8,47.5l.5.6h1.4a4.8,4.8,0,0,0,1.8-.4h-.2a2.3,2.3,0,0,0-2.8-.7l.4.3Z"/><path class="cls-4" d="M35.4,31.3a36.7,36.7,0,0,0-.5,6.7,29.1,29.1,0,0,0,.4,3.3c0,1-.6.5-.6,2s.6,2.5.4,3-.7.4-.8.8.5.6-.1,1.1-1.8.2-2.5-.5a.6.6,0,0,1,0-.8,1.4,1.4,0,0,0,.5-1,7.3,7.3,0,0,0-.5-4.3c-.2-.5-.7-.6-.9-1.3s.3-1,.1-1.6C30,34.5,28.8,30,28.8,30Z"/><path class="cls-5" d="M28.5,11.8s-1.5-1.2.3-1.9,3.2.3,5.1.9a32.8,32.8,0,0,1,3.8,1.3,10,10,0,0,0-3.6,2.7c-1.2,1.6-.6,2.7-4.7,1.6S24.6,14,24.6,14l1.5-1.7Z"/><path class="cls-6" d="M10.2,17.7h0A13,13,0,0,0,12.9,23a52.4,52.4,0,0,0,6.3,5A9.1,9.1,0,0,1,22,30.8a14.8,14.8,0,0,0,1.7,2.8c4.8,6.8,9.3,5.9,10.4,7s6,4.7,13.1,7.1,10.3,2.4,15.7.9a10.7,10.7,0,0,0,6.8-5.8,13.1,13.1,0,0,0,.9-2.8,1.3,1.3,0,0,1,.1-.6,16.4,16.4,0,0,0-.2-3.8c-.3-1.4-4-9.8-14.9-13.7-7-2.6-14.8-2.5-17.3-5.3L34.8,13a10.4,10.4,0,0,0-1.7-1.4,8.6,8.6,0,0,0-4.4-1.3,15.3,15.3,0,0,0-3.3.4c-2,.4-2.5.7-5.8,1.6l-4.3,1.1-3.1.6c-.2-.1-1.3-.7-2.1-.2S9,16,10.2,17.7Z"/><path class="cls-7" d="M10.2,17.7l.7.9.8.9.9.6,1,.6h0a2.5,2.5,0,0,1-1.1-.4l-1-.7a6.4,6.4,0,0,1-1.3-1.9Z"/><path class="cls-8" d="M23.7,33.6c4.8,6.8,9.3,5.9,10.4,7s6,4.7,13.1,7.1,10.3,2.4,15.7.9a10.7,10.7,0,0,0,6.8-5.8,7.5,7.5,0,0,1-5.5,1.8A12.2,12.2,0,0,1,58,41.5l-10.7-3s-7.4,5.7-11.8.9-4.7-9.3-6.9-8.2Z"/><path class="cls-5" d="M22.8,14.5h-.5a12.2,12.2,0,0,0-6,3.1,12.9,12.9,0,0,0-3.5,7.5,16.1,16.1,0,0,1,5.9.8c2.4,1,3.8,1.6,5.3-1.4a14.5,14.5,0,0,0,1.2-6.7l-1.6.2.7-1.7Z"/><path class="cls-6" d="M67.2,41.2c.1-.2.2-.3.4-.2l2.1.6c1.3.2,2.8.3,3.6-.3s.1-.1.2-.2a2.6,2.6,0,0,1-2-1,1.1,1.1,0,0,1-.2-1.4,1.6,1.6,0,0,1,1.8-.7,1.8,1.8,0,0,1,1.3,1.8v.7a.1.1,0,0,1,.1-.1A1.7,1.7,0,0,0,75.7,39,2.2,2.2,0,0,0,74,36.8a.5.5,0,0,1-.2-.4l.4-.2a2.7,2.7,0,0,1,2,2.8,2.1,2.1,0,0,1-1.6,2h-.4a1.3,1.3,0,0,1-.6.7c-.9.7-2.6.6-4,.3a15.6,15.6,0,0,1-2.2-.6h-.1A.4.4,0,0,1,67.2,41.2Zm6.6-.6v-.7a1.2,1.2,0,0,0-.6-1.2l-.3-.2a1,1,0,0,0-1.1.5.6.6,0,0,0,.1.8A2.7,2.7,0,0,0,73.8,40.6Z"/><path class="cls-2" d="M48.1,58.4l.7.8c-1.2.4-3.8-.5-4-2h1.1l-.3-.4A2.4,2.4,0,0,1,48.1,58.4Z"/><path class="cls-3" d="M44.8,57.2a1.1,1.1,0,0,0,.3.7l1.3.5a6.5,6.5,0,0,0,1.9.2l-.2-.2a2.3,2.3,0,0,0-2.5-1.5l.3.4Z"/><path class="cls-6" d="M53.7,34.5a3.4,3.4,0,0,0-1.2.6,9.2,9.2,0,0,0-3.3,4,13.7,13.7,0,0,0-1.3,3.7,7.8,7.8,0,0,0-.1,2.6,8.8,8.8,0,0,0,1.5,4.3,8,8,0,0,1,1.6,3.2,5,5,0,0,1-1.7,2.9c-.9,1-1.7,1-2.1,1.5H47c-.3.4.1,1.3,1.8,1.8s1.4-.3,2-.8.8-1.4,1.2-1.9a6.6,6.6,0,0,1,2-1.9c2.9-1.3-1.1-3.2,3.7-6.7l.2-.2c3.2-2.4,4.3-4.8,4.5-6.9"/><path class="cls-2" d="M20,45.2v1.2c-1.4-.3-3-2.5-2.2-4.1l.8.7a1.8,1.8,0,0,1,.1-.5A2.2,2.2,0,0,1,20,45.2Z"/><path class="cls-3" d="M17.9,42.3a1.5,1.5,0,0,0-.2.9,2.8,2.8,0,0,0,.8,1.1A3.3,3.3,0,0,0,20,45.5v-.3a2.2,2.2,0,0,0-1.2-2.7,1.8,1.8,0,0,0-.1.5Z"/><path class="cls-6" d="M36.4,34.4h0l-2,1.3c-1.2.8-2.8,2-4.4,3.3h-.1c-1.6,1.3-2,2.2-2.8,2.8s-.9-.1-2.2,1.1-1.9,2.3-2.5,2.5-.8-.2-1.2,0-.2.9-1.1.8-1.4-1.3-1.2-2.4a.8.8,0,0,1,.8-.6,1.7,1.7,0,0,0,1.2-.4,9.2,9.2,0,0,0,3.6-3.7c.3-.5.1-1,.6-1.7s1.1-.5,1.6-1.1l1.9-2.4,1.3-1.6.5-.6.6-.8.9-1.2"/></g></g></g></svg>