<svg xmlns="http://www.w3.org/2000/svg" xmlns:xlink="http://www.w3.org/1999/xlink" viewBox="0 0 84 66"><defs><style>.cls-1{fill:none;}.cls-2{isolation:isolate;}.cls-3{fill:#353535;}.cls-4{fill:#262626;}.cls-5{fill:#646262;}.cls-5,.cls-6,.cls-7{stroke:#b7b7b9;stroke-miterlimit:10;stroke-width:0.3px;}.cls-12,.cls-6{fill:#444;}.cls-7{fill:#d9dad8;}.cls-8{fill:#f2e8d4;}.cls-9{mix-blend-mode:multiply;}.cls-10{clip-path:url(#clip-path);}.cls-11{fill:#ebebec;}.cls-13{fill:#b7b7b8;}</style><clipPath id="clip-path"><rect id="SVGID" class="cls-1" x="18.1" y="36.7" width="6.4" height="6.08"/></clipPath></defs><g class="cls-2"><g id="SheepF01_P02"><path class="cls-3" d="M23.6,58.7a1.3,1.3,0,0,1-.5.7,2.4,2.4,0,0,1-3.2.1l.5-.5h.2c.9-1.3,1.8-1.1,2.4-.7l-.3.3Z"/><path class="cls-4" d="M23.6,58.7a1.3,1.3,0,0,1-.5.7,2,2,0,0,1-1.1.1,3,3,0,0,1-1.6-.5h.2c.9-1.3,1.8-1.1,2.4-.7l-.3.3Z"/><path class="cls-5" d="M21.3,30.4c-1.1.8-4.2,5.8-3.2,13.7.8,6.1-2.6,5.9-.8,8.4a9.2,9.2,0,0,1,1,2.9,12.2,12.2,0,0,0,.3,2.6c.3.7,1.1.3,1.3,1.5s2-.7,1.9-1.3-.8-1.1-1.2-2.6a7.2,7.2,0,0,1-.4-3.9c1-3,6.1-4,5.5-14.7s-2.8-7.6-4.4-6.6"/><path class="cls-3" d="M29.5,59.8s.1,2.2,1.9,2.1a1.5,1.5,0,0,0,.7-.5c.1-.1.4-.5.3-.7l-.5-.3-.8-.3C30.9,60.1,30.8,60.2,29.5,59.8Z"/><path class="cls-5" d="M29.4,49.1s-3,1.4-2.5,2.1,4.4,6.3,4.8,7.6A1.3,1.3,0,0,1,29.4,60c-.8-1.1-1.8-3.9-2.5-4.7s-3.7-3.7-2.2-5.5a46.8,46.8,0,0,1,3.4-3.7Z"/><path class="cls-4" d="M31.6,58.7l1,1.3-.8.3c0,.1.1.1.4.2l.4.3-.6.8h-.2a4.2,4.2,0,0,1-1.3-.7,4.8,4.8,0,0,1-1-1.2C30.4,60.3,31.2,60.7,31.6,58.7Z"/><path class="cls-3" d="M51.9,43.9l-.8.7a2.4,2.4,0,0,0,3.7-.6l-.9-.3a1.2,1.2,0,0,0,.4-.4c-.7-.4-1.5-.6-2.4.6"/><path class="cls-4" d="M54.8,44a1.8,1.8,0,0,1-.5.7H53.2a3.4,3.4,0,0,1-1.5-.6l.2-.2c.9-1.2,1.7-1,2.4-.6l-.4.4Z"/><path class="cls-5" d="M52.4,23.6s-.1,4.2-.5,8.3c-.3,2.2-.8,3.1-.8,4.1s.4.7.2,2.5-.8,3-.7,3.6.5.6.5,1.1-.5.7,0,1.4a2.4,2.4,0,0,0,2.1-.5.9.9,0,0,0,.1-1,2.5,2.5,0,0,1-.3-1.3,12.8,12.8,0,0,1,1.1-5.2c.2-.6.6-.7.9-1.5s-.1-1.2.1-2C56.4,28,58,22.5,58,22.5Z"/><path class="cls-3" d="M62.2,43.8l-.3,1A2.4,2.4,0,0,0,64.5,42l-.8.3v-.5c-.8.1-1.6.4-1.5,2"/><path class="cls-4" d="M64.5,42a1.4,1.4,0,0,1,0,.9,2.7,2.7,0,0,1-.8.7,3.2,3.2,0,0,1-1.6.4v-.2c-.1-1.6.7-1.9,1.5-2v.5Z"/><path class="cls-5" d="M54.1,23l.8,2.1c.5,1.3,1.2,3.2,2,5.1l1.2,3c.3.7,1,1,1.2,1.6s0,1.2.1,1.8a13.5,13.5,0,0,0,2.4,4.8,4.1,4.1,0,0,0,1,.9.8.8,0,0,1,.5.8c0,1-1.4,1.7-1.4,1.7s-.4-.6-.8-1.2-.6,0-1.1-.5-.3-1-1.6-3.3-1-.8-1.7-1.8-.7-1.9-1.8-3.8h-.1l-3.1-4.8-1.4-2,.7-.8,1.1-1.3Z"/><path class="cls-5" d="M70.6,15.1c.6,1.8-1.4,3.8-2.6,4.4s-9.5-1.8-9.5-1.8A9.7,9.7,0,0,1,62.4,10s6,1.6,7.9,4.5l.2.3v.3"/><path class="cls-6" d="M53.1,8.7l-.3,1.7c-4.9,3.3-9.2,1.7-9.4.8s0-.6.4-1.1S49,5.4,53.1,8.7"/><path class="cls-7" d="M61,26a8.6,8.6,0,0,1,0,1.6c-.1.8,1.4,1.5,1.2,2.2s-1.6,1.2-1.9,1.9.5,1.8.1,2.5-.5,1.6-1,2.1a4,4,0,0,1-2.2,1c-.3.1-.5.6-.8.7s-.7-.3-1-.3-.6.4-.9.4-.6-.6-.8-.6h-.4a.9.9,0,0,1-.7,0c-.2-.1-.3-.6-.5-.8h-.2c-.3-.1-.6,0-.8-.2s-.2-.7-.4-.9-.7-.3-.8-.5-.2-.5-.2-.9a9,9,0,0,1,.2-1.3,3.3,3.3,0,0,1,.3-1c.3-.7,1-1.3,1.3-2.1a11.7,11.7,0,0,0,.5-2c0-.1.1-.2.1-.4a24.3,24.3,0,0,0,1.4-2,16.8,16.8,0,0,0,.7-2.4c.4-.7,1.1-1.2,1.5-1.9s.5-1.6.9-2.3,1.3-1.2,1.7-1.7,1-1.7,1.5-1.9a.8.8,0,0,1,.8-.1.7.7,0,0,1,.6.4l.5.7a6.7,6.7,0,0,0,.9,1.4c0,.2.1.3.1.4l.2.3c.1.7-2.1,1.6-2,2.4a16.9,16.9,0,0,1,.5,2.4c0,.7-.4,1.5-.4,2.3a1.1,1.1,0,0,0,0,.8"/><path class="cls-7" d="M49.9,12.1c.1-.3.5-.7.6-1.1s.1-.9.3-1.3.8-.4,1-.8.3-.8.6-1.1a6,6,0,0,1,1.1-.6c.3-.3.5-.8.8-1s.8-.2,1.2-.4.7-.6,1.1-.6.8.2,1.3.2l1.2-.3c.5,0,.9.4,1.3.5a5.7,5.7,0,0,1,1.3-.1c.4.1.8.5,1.1.6s1,.1,1.4.3.5.7.8,1,.8.5.9.9a3.2,3.2,0,0,1-.1,1.7c-.1.6,0,1.2-.4,1.7s-.9.8-1.3,1.2-.5,1-.9,1.5-1,.7-1.3,1.2a8.4,8.4,0,0,0-.5,1.7,6.9,6.9,0,0,0-.5,1.7,13.6,13.6,0,0,0,.4,1.7c.1.4-.5.1-1.5-.6s-1.1-.4-1.6-.8-.7-1-1.2-1.4-1.2-.5-1.6-.9-.7-1-1.2-1.4-1.1-.6-1.6-1-.7-1.1-1.1-1.5-1.2-.2-1.6-1"/><path class="cls-8" d="M63,14.8c-.1.5-1,1-1.1,1.6s1,3.5.8,4.1-1.2.8-1.4,1.4.1,1.5-.2,2l-.2.3c-.3.1,1.4.2,1.1.4s-.5.2-.6.4-1.6,1.2-2,.3a1.3,1.3,0,0,1-.1-.6,13.3,13.3,0,0,0,.3-2.1c0-.1-.1-.2-.1-.3s-.1-.2-.1-.3a5,5,0,0,1-.8-2c0-.7.7-1.6.8-2.4s-.6-2-.5-2.8a3.8,3.8,0,0,1,.8-1.7,2.5,2.5,0,0,0,.4-.7,9.7,9.7,0,0,1,.4-2.2c.1-.3.2-.5.4-.4s.1.9.4,1,.8-.4,1-.3.1.9.3,1.1.9-.4,1.1-.3.1.4.1.7v.4c.3.2,1-.3,1.2-.2s.6.3.7.7a.4.4,0,0,1,.1.3c0,.6-.8.6-.9,1.6s-1.8-.7-1.9,0"/><path class="cls-7" d="M35.3,39.8a23.3,23.3,0,0,1-2.2,1.9,7.5,7.5,0,0,0-.7,1.2,7.3,7.3,0,0,1-1,1.3A19.4,19.4,0,0,1,29,45.7c-.7.6-1.3,1.7-2,2.2s-1.6.4-2.4.8-1.5,1.3-2.3,1.5-1.5-.1-2.3-.1l-.7.2c-.4.1-.8.3-1.1.2s-.8-.9-1.3-1.3-1.1-.4-1.4-.9-.1-1.5-.3-2.2-.7-1.1-.7-1.8a3.1,3.1,0,0,1,.1-.9,8.9,8.9,0,0,0,.3-1.4c0-.8-.4-1.5-.3-2.1s-.2-1.4.7-2,1-.7,2.6-.8,1.7.4,2.7.3,1.9-.7,2.8-.8,1.7.5,2.7.4,1.5-.5,2.3-.6h.5c.9-.1,1.7.5,2.6.5s2-.6,2.8-.6,2.2.5,2.2.9a6.7,6.7,0,0,1-1.2,2.7"/><path class="cls-7" d="M53.4,36.4l-.3.2a6,6,0,0,0-.8.8c-.1.2-.1.3-.2.4l-.6.6-.6.4a4.4,4.4,0,0,0-1.5.8c-.6.5-1,1.3-1.6,1.8s-1.8.9-2.6,1.5-1.4,1.4-2.2,1.9l-.6.3-.5.2-1.7.7c-.9.5-1.6,1.2-2.5,1.6s-.1.1-.2.1l-2.7.6-1.8.8a1.7,1.7,0,0,1-1,.3,15,15,0,0,1-3,0c-1,0-2,.4-3,.3s-1.8-.8-2.8-1.1l-1.7-.4h-.6l-.6-.3a19.9,19.9,0,0,1-2.2-2c-.6-.4-1.4-.6-1.8-1.2a6.9,6.9,0,0,1-1-1.9c-.3-.5-.8-.9-1.1-1.4L14,41a8.1,8.1,0,0,1,0-2.2,19.4,19.4,0,0,1-.5-2,11.9,11.9,0,0,1,.8-2,17,17,0,0,1,.4-2.2A19.2,19.2,0,0,1,16,30.9c.4-.6.5-1.4.9-1.9a20.9,20.9,0,0,1,1.7-1.4c.6-.5.9-1.3,1.4-1.6a9.5,9.5,0,0,1,2.1-.9,12.4,12.4,0,0,1,1.8-1.4c.6-.3,1.5-.2,2.2-.5s1.2-.9,1.9-1.2l2.3-.4c.7-.3,1.2-.9,1.9-1.2s1.5-.3,2.2-.6,1.2-1,1.8-1.4a19.5,19.5,0,0,0,2.2-.8c.6-.3,1-1.1,1.7-1.5s1.5-.5,2.1-1A3.7,3.7,0,0,1,44.1,14h.4c.3-.1.5-.7.7-.9a2,2,0,0,1,1.2-.6c.7-.1.6-.5,1-.9s1.1-.4,1.7-.5,1.3.2,1.9-.1,1.6-1.3,1.8-.8,1.6-.1,2.4.2,1.4-.1,1.9.5a7.5,7.5,0,0,0,1.5.9l1.1,1.1.2.2,1.2,1.7v.3a4,4,0,0,1,.4,3v.2l-.3.6c.1.2.3.3.3.5.5,1.8-.2-.2-.1,1.8S60,22.7,60,23.4"/><path class="cls-7" d="M60,23.4c0,.9,1.5,1.6,1.3,2.3a4.1,4.1,0,0,0-.1,1.1v.5c0,.3-.1.4-.1.6"/><path class="cls-7" d="M43.1,38.6a3.7,3.7,0,0,1,.1,2.5"/><path class="cls-7" d="M43.2,41.1c-.3.8-1.1,1.4-1.5,2.3l-.3,1.2A5.7,5.7,0,0,1,41,46l-.4.5A10.6,10.6,0,0,0,39.1,48a13.4,13.4,0,0,1-1.2,2.4c-.6.7-1.6.9-2.2,1.5s-1.1,1.5-1.8,2-1.8.4-2.6.7l-.8.4a1.7,1.7,0,0,1-1.1.6c-.7.1-1.4-.5-2-.6s-1.5.1-2.1-.2-.8-1.1-1.2-1.5-1.4-.8-1.9-1.3l-.3-.8L21.6,50c-.4-.6-1.2-1-1.4-1.6s-.6-.9-.6-1.2a1.5,1.5,0,0,1,.3-.6"/><g class="cls-9"><g class="cls-10"><path class="cls-11" d="M18.3,39.4h0"/><path class="cls-11" d="M24.5,39.6c-.1-.3-.9-.4-1-.7s.7-.6.6-.8-.9-.2-.9-.4.2-.5.3-.7,0-.3-.1-.3-1.1.5-.8.9.5.6.4.8-.9.2-1.1.5.1,1-.2,1.2-.7-.5-.9-.5-.2.9-.4,1-.4-.8-.6-.8-.6.6-.8.5.2-.8.1-.9-.3,0-.4.1-.8.6-.6,1,1.3.5,1.8.9.8,1.3,1.4,1.3,1-.8,1.5-1.1,1,.1,1.2-.1-.5-.8-.4-1.1.9-.5.9-.8"/></g></g><path class="cls-6" d="M62.2,23c-1-.1-4.8-5.6-.2-9.7l.4-.3A2.2,2.2,0,0,1,64,13c4.2,2.9.8,8-1,9.5l-.8.5"/><path class="cls-12" d="M70.2,15.7a1.7,1.7,0,0,1-.6.6c-.1.1-.2-.1-.1-.2l.6-.9v.5"/><path class="cls-13" d="M53.4,36.3l-.3.2-1,1.2-.5.6-.6.4a7.5,7.5,0,0,0-1.5.9c-.6.5-1,1.3-1.6,1.8s-1.8,1-2.6,1.6-1.4,1.5-2.2,2l-.6.3-.5.2-1.7.7c-.9.5-1.6,1.3-2.5,1.7h-.3c-.3-.5.4-.8.1-1.5s-1.2-.4-1.4-.9.4-1.1.2-1.5-1-.7-1.2-1.1.6-1.1.6-1.5-.6-1.3-.2-1.6,1.5.2,2.7-.1,1.4-1,2.3-1.2,1.7.5,2.6.4,1.5-1.1,2.3-1.3,1.9.3,2.6.1,1.3-1.4,1.8-1.8.9.1,1.1-.1,0-1,.2-1.1.9.3,1.1.3.8-.7.9-.5-.4.7-.4,1.1l.6.6"/></g></g></svg>