<svg xmlns="http://www.w3.org/2000/svg" viewBox="0 0 133 144"><defs><style>.cls-1{fill:#c89572;}.cls-2{fill:#353535;}.cls-11,.cls-13,.cls-14,.cls-3,.cls-5{fill:none;stroke-miterlimit:10;}.cls-11,.cls-3{stroke:#a33322;}.cls-3{stroke-width:0.13px;}.cls-4{fill:#602f28;}.cls-5{stroke:#000;stroke-width:0.09px;}.cls-6{fill:#8b6339;}.cls-7{fill:#86604e;}.cls-8{fill:#e4e1e7;}.cls-9{fill:#101010;}.cls-10{fill:#fff;}.cls-11{stroke-width:0.13px;}.cls-12{fill:#272727;}.cls-13{stroke:#86604e;stroke-width:0.3px;}.cls-14{stroke:#4c2f1b;stroke-width:0.33px;}</style></defs><g id="Calf_Pose03_F001"><g id="_0001" data-name="0001"><path class="cls-1" d="M53,71.4c0,.4-1.1,1.3,0,1.9l.3.2c1.2.4,3.6,0,4-1a2,2,0,0,0,.1-.7c.1-.7-.4-1.2-1-1.7-.8-9.2,1.5-11.6,1.5-11.6a2.5,2.5,0,0,0-1.6-2.7H52.8s0,3-.9,4.3,0,3.2.7,4.1S53,71,53,71.4Z"/><path class="cls-2" d="M53.4,75.3c.7,1.5,3.7,2.6,4.6,2.3s-.3-1.7.2-1.5a1.2,1.2,0,0,0,1.5-.4c0-1.7-2.2-3.8-2.3-3.9a2,2,0,0,1-.1.7c-.4,1-2.8,1.4-4,1S52.8,74,53.4,75.3Z"/><path class="cls-3" d="M57.4,71.8h0"/><path class="cls-1" d="M44.5,40c-1.3,2-1.4,9.4-2.3,12.2a16.7,16.7,0,0,1-2.6,5l.3-.9s-.2-.2.1-.8.3-1.6.8-3.1.7-8.6,1.9-12.4a13.2,13.2,0,0,1,2.2-4.3A8.8,8.8,0,0,1,47,33.8c3.4-2.4,3.8.9,1.3,2.2a9.8,9.8,0,0,0-3.8,4"/><path class="cls-4" d="M41.8,51.9c-2.7,2.3-2.5,4.1-3.7,6.3-.2.3.6-.2,1-1.4a4.1,4.1,0,0,1-.9,2.4c-.5.7.1.2.7-.4a1.6,1.6,0,0,1-.3.8,4.4,4.4,0,0,0,.7-.9,3.8,3.8,0,0,1-1.8,2.2c-.7.4,2.5-.6,2.5-3.1a3.4,3.4,0,0,1-.6,2.6,2.8,2.8,0,0,0,1.1-1.7,1.7,1.7,0,0,1-.1.7c0,.1.2.1.2,0s.1-2.8.4-4.5a24.5,24.5,0,0,0,.2,2.7c0,.1.2.1.2,0s-.5-3.7.7-5-.3.8-.3.5.6-1,.5-1.1-.9.9-1.1.9.6-1,.6-1"/><path class="cls-2" d="M82.5,92.9c1.1,3.4,4.5,3.9,4.3,3.6a13.1,13.1,0,0,1,0-2.8,7.1,7.1,0,0,0,2,1.1c.1-2.2-1.6-3.8-2.1-4.3S86,92.8,82.5,92.9Z"/><path class="cls-1" d="M81,92.2c.2.7,1.3.7,1.5.7h0c3.5-.1,4.2-1.6,4.2-2.4a.3.3,0,0,1-.1-.2c0-.2-.4-1.7-.6-2.4a14.6,14.6,0,0,1,.2-5.8c1.7-1.9.8-6,.8-6.7s.9-4.3.9-4.3-4,1.9-6.4,1.7c.1,0,.1,0,.1.1s0,3.2.3,4.7a5.5,5.5,0,0,0,.2,5.4c.6.8.2,5.4.2,6.2S80.8,91.6,81,92.2Z"/><path class="cls-2" d="M43.5,79a2.7,2.7,0,0,0,.7,1.8c1.7,2.8,4.5,3.7,4.5,3.3a29.3,29.3,0,0,0-.9-3.3s3,2,3,1.5a4,4,0,0,0-2.7-4C47.7,79.2,46.3,81,43.5,79Z"/><path class="cls-2" d="M73.6,99c.4.2.6.3.7.8a4.6,4.6,0,0,0,1.3,1.9c.9.9,2.8,1.7,3.2,1.1s-.6-2.4,0-1.9l2,1a7.7,7.7,0,0,0-.2-1.5c-.2-.8-2.2-2.8-2.7-3.8C77.9,97.2,77.6,99.4,73.6,99Z"/><path class="cls-1" d="M43.7,69.8c.5,2.4,0,7.2-.2,8.7V79c2.8,2,4.2.2,4.6-.7H48a3.2,3.2,0,0,0-.4-1c-.4-.9-.4-9.1.2-11.9,2.8-3.4,4.1-9,4.1-9a4.4,4.4,0,0,1,5,1.1,34.8,34.8,0,0,0,14,9.9,1.1,1.1,0,0,1,.3.5,22.6,22.6,0,0,1-.1,2.5c0,1.1.9,1.9,1.7,2.8s.7,6,.7,7.5-.9,1.3-1.1,3.7a6.7,6.7,0,0,0,1.1,4.3c.4,1.1.2,6.4-.5,7.5s-1.3,2.2-.2,2.6l.8.3c4,.4,4.3-1.8,4.3-2.4h0a.4.4,0,0,1-.1-.3c-.2-.8-.5-6.4,0-7.7s1-2.6.8-3.9a12.3,12.3,0,0,1,0-4.7c.5-2,1.3-7.4,1.3-7.4a3.5,3.5,0,0,1,1.6.2c2.4.2,5.8-1.4,6.4-1.7,3-2.8,3-7.5,3.9-7.5a10.2,10.2,0,0,1,2.8,1.1c.4.2,0,1.5,2.8,2.1s4.7-1.5,4.7-2.1a3,3,0,0,1,.3-1.2c.1-.2.2-.6.4-1s.1-.3.1-.4a3.8,3.8,0,0,0-.8-3.7,45.5,45.5,0,0,1-4.5-5.8c-.9-1.3-.2-2.1-.2-3.2S95,46.2,95,45.9c2.6-.8,2.8-3.8,2.4-4.3s-5.2-.2-7.8,1.1c-4.3-.9-7.7,4.5-7.7,4.5A12.1,12.1,0,0,0,76,44.6c-5-.8-8.9-5.7-12-8.1a22.4,22.4,0,0,0-6-3.6,15.9,15.9,0,0,0-3.7-1.1,9.8,9.8,0,0,0-2.2.2,13.8,13.8,0,0,0-5.8,2.5C42,38,42.8,47,43.5,51.5a42.3,42.3,0,0,1,0,12.5c-.8.7-1.3,3.5-.2,4.8A1.9,1.9,0,0,1,43.7,69.8Z"/><path class="cls-5" d="M54.2,31.6h.1"/><path class="cls-6" d="M95,46l-2.7-1.6L91,43.5l-1.4-.7a5.9,5.9,0,0,1,1.4.6l1.4.8Z"/><path class="cls-7" d="M81.9,47.3a11.5,11.5,0,0,0-3.2.2,14.5,14.5,0,0,0-2.9,1.1,7.9,7.9,0,0,0-3.7,4.8h0c-.1,0,.1.3.3.4l.7.3,1.4.4a14,14,0,0,0,2.9,0,13.1,13.1,0,0,0,2.8-.9A13.2,13.2,0,0,0,82.7,52h0a1.5,1.5,0,0,1,1.2-.7,3.2,3.2,0,0,1,1.4.3,3.2,3.2,0,0,0-1.4-.3,1.5,1.5,0,0,0-1.1.8h0a10.9,10.9,0,0,1-5.4,2.6,7.6,7.6,0,0,1-3,0,8,8,0,0,1-1.5-.3l-.6-.4c-.2-.1-.3-.1-.4-.3s-.2-.2-.1-.5h0a9.4,9.4,0,0,1,1.5-2.8,7.9,7.9,0,0,1,2.4-2.1A11.1,11.1,0,0,1,81.9,47.3Z"/><path class="cls-7" d="M82.1,56.5a8.4,8.4,0,0,0,1.5,2.8,8,8,0,0,0,2.3,2.2,9.2,9.2,0,0,0,2.8,1.4,15.7,15.7,0,0,0,3.1.8l-1.6-.2-1.6-.4a8.6,8.6,0,0,1-2.9-1.4,9.7,9.7,0,0,1-2.3-2.2A8.1,8.1,0,0,1,82.1,56.5Z"/><path class="cls-7" d="M96.9,59.1a10.8,10.8,0,0,0-1.8-2.4,3.5,3.5,0,0,0-2.7-1.3h0l-.4-.3a.2.2,0,0,0-.2-.2l-.4-.6a10.5,10.5,0,0,0-.8-1.1,4.7,4.7,0,0,0-1-1,2.8,2.8,0,0,0-1.3-.4,2.2,2.2,0,0,1,1.4.3l1,.9.9,1.1.4.6.3.2a.3.3,0,0,0,.1.2h0a2.9,2.9,0,0,1,1.6.4,4,4,0,0,1,1.2,1A10.6,10.6,0,0,1,96.9,59.1Z"/><path class="cls-8" d="M87.5,55c2.3,3.1,4.4-.4,4.4-.4L91,53.5l-.5-.6a2.5,2.5,0,0,0-2,.6A2.8,2.8,0,0,0,87.5,55Z"/><path class="cls-9" d="M88.4,54A1.3,1.3,0,1,0,91,54v-.5l-.5-.6a2.5,2.5,0,0,0-2,.6A4.3,4.3,0,0,0,88.4,54Z"/><ellipse class="cls-10" cx="88.6" cy="54" rx="0.4" ry="0.3"/><path class="cls-7" d="M82,48.7a2.9,2.9,0,0,0-1.3,0H79.5l-2.5.7a9.4,9.4,0,0,0-2.2,1.2,10.5,10.5,0,0,0-1.7,1.9,6.5,6.5,0,0,1,1.6-2.1l2.2-1.3a11.4,11.4,0,0,1,2.5-.6A5.7,5.7,0,0,1,82,48.7Z"/><path class="cls-11" d="M81.4,72.8h.1"/><path class="cls-11" d="M87.9,71.1H88"/><path class="cls-1" d="M51.9,56.5s1.3-6.8-1.9-10.3"/><path class="cls-7" d="M102.1,64.9a6.8,6.8,0,0,1-2,.7,3.7,3.7,0,0,1-2.1-.3h-.1a5.9,5.9,0,0,0-1.2-2,3.7,3.7,0,0,1,1.4,1.9h0a3.4,3.4,0,0,0,2,.3Z"/><path class="cls-7" d="M79.8,72.7a10.3,10.3,0,0,1,.6-3.5,5.1,5.1,0,0,1,1.9-3,5.2,5.2,0,0,0-1.8,3,13.4,13.4,0,0,0-.4,3.5Z"/><path class="cls-7" d="M71.1,68.2V65a18.3,18.3,0,0,0-.2-3.3,18.6,18.6,0,0,1,.4,3.3c0,1.1.1,2.2.1,3.2Z"/><path class="cls-12" d="M103.1,61a3.3,3.3,0,0,1-4.5.2,2.4,2.4,0,0,1,.2,1.5c-.2.6,1.9.8,2.3,0s1.5.6,1.8-.5"/><path class="cls-13" d="M37.5,60.9a3.8,3.8,0,0,0,1.8-2.2,4.4,4.4,0,0,1-.7.9,1.6,1.6,0,0,0,.3-.8c-.6.6-1.2,1.1-.7.4a4.1,4.1,0,0,0,.9-2.4c-.4,1.2-1.2,1.7-1,1.4,1-1.8,1-3.4,2.5-5.1a2.5,2.5,0,0,0,.2-.7c1.1-2.8.7-8.6,1.9-12.4a13.2,13.2,0,0,1,2.2-4.3A8.8,8.8,0,0,1,47,33.8a3.5,3.5,0,0,1,2-.8,12.5,12.5,0,0,1,3.1-1,9.8,9.8,0,0,1,2.2-.2A15.9,15.9,0,0,1,58,32.9a22.4,22.4,0,0,1,6,3.6c3.1,2.4,7,7.3,12,8.1a12.1,12.1,0,0,1,5.9,2.6s3.4-5.4,7.7-4.5c2.6-1.3,7.3-1.5,7.8-1.1s.2,3.5-2.4,4.3c0,.3,2.4,2.4,2.4,3.5s-.7,1.9.2,3.2a45.5,45.5,0,0,0,4.5,5.8,3.8,3.8,0,0,1,.8,3.7h0a.4.4,0,0,0-.1.3h0c-.2.4-.3.8-.4,1a3,3,0,0,0-.3,1.2v.2h0a4.3,4.3,0,0,1-4.7,1.9c-2.8-.6-2.4-1.9-2.8-2.1a10.2,10.2,0,0,0-2.8-1.1h-.1c-.8.5-.9,4.9-3.8,7.5,0,0-.4,3.5-.9,4.3s.9,4.8-.8,6.7a14.6,14.6,0,0,0-.2,5.8c.2.7.6,2.2.6,2.4a.3.3,0,0,0,.1.2c.5.5,2.2,2.1,2.1,4.3a7.1,7.1,0,0,1-2-1.1,13.1,13.1,0,0,0,0,2.8c.2.3-3.2-.2-4.3-3.6h0c-.2,0-1.3,0-1.5-.7s1.3-2.1,1.3-3,.4-5.4-.2-6.2a5.5,5.5,0,0,1-.2-5.4c-.3-1.5.2-4.3-.3-4.7s0-.1-.1-.1a3.2,3.2,0,0,0-1.6-.2h0S79.1,78,78.6,80a12.3,12.3,0,0,0,0,4.7c.2,1.3-.4,2.6-.8,3.9s-.2,6.9,0,7.7a.4.4,0,0,0,.1.3h0c.5,1,2.5,3,2.7,3.8a7.7,7.7,0,0,1,.2,1.5l-2-1c-.6-.5.5,1.2,0,1.9s-2.3-.2-3.2-1.1a4.6,4.6,0,0,1-1.3-1.9c-.1-.5-.3-.6-.7-.8h0l-.8-.3c-1.1-.4-.4-1.5.2-2.6s.9-6.4.5-7.5a6.7,6.7,0,0,1-1.1-4.3c.2-2.4,1.1-2.2,1.1-3.7s.2-6.7-.7-7.5-1.7-1.7-1.7-2.8.1-1.5.1-2.1v-.4a1.1,1.1,0,0,0-.3-.5c-.6-.5-6.7-2-13-8.8h0s-2.3,2.4-1.5,11.6c.6.5,1.1,1,1,1.7s2.3,2.2,2.3,3.9a1.2,1.2,0,0,1-1.5.4c-.5-.2.6,1.3-.2,1.5s-3.9-.8-4.6-2.3-.1-1.8-.1-1.8l-.3-.2c-1.1-.6,0-1.5,0-1.9s.2-6.5-.4-7.3-1.5-2.8-.7-4.1a8.9,8.9,0,0,0,.9-4l-.9.3v.2h0c-.2.9-1.5,5.8-4.1,8.9-.6,2.8-.6,11-.2,11.9a3.2,3.2,0,0,1,.4,1h.1a4,4,0,0,1,2.7,4c0,.5-3-1.5-3-1.5a29.3,29.3,0,0,1,.9,3.3c0,.4-2.8-.5-4.5-3.3a2.7,2.7,0,0,1-.7-1.8v-.5c.2-1.5.7-6.3.2-8.7a1.9,1.9,0,0,0-.4-1c-1.1-1.3-.6-4.1.2-4.8a42.3,42.3,0,0,0,0-12.5,37.4,37.4,0,0,1-.5-4.2,36.9,36.9,0,0,1-.7,4.7h0c.1.1-.1.3-.2.5h0c0-.1-.1.2-.2.4a6.9,6.9,0,0,1-.5,1.3,18.2,18.2,0,0,0,0,3.3c0,.1-.2.1-.2,0A24.6,24.6,0,0,1,41,55h0c-.3,1.7.1,3.1-.4,4.4s-.2.1-.2,0a1.7,1.7,0,0,0,.1-.7,2.8,2.8,0,0,1-1.1,1.7,3.4,3.4,0,0,0,.6-2.6C40,60.3,36.8,61.3,37.5,60.9ZM77.8,97.3v0a4.1,4.1,0,0,1-.5.9A4.1,4.1,0,0,0,77.8,97.3Z"/><path class="cls-14" d="M87.9,71.1h0Z"/><path class="cls-13" d="M57.8,58.5s-2.2-3.9-5.6-2.2"/></g></g></svg>