<svg xmlns="http://www.w3.org/2000/svg" xmlns:xlink="http://www.w3.org/1999/xlink" viewBox="0 0 84 66"><defs><style>.cls-1{mask:url(#mask);filter:url(#luminosity-noclip-5);}.cls-2{mix-blend-mode:multiply;fill:url(#linear-gradient);}.cls-12,.cls-3{fill:#d4b9a6;}.cls-3{stroke:#b69883;}.cls-10,.cls-3,.cls-5{stroke-miterlimit:10;}.cls-3,.cls-5{stroke-width:0.25px;}.cls-4{fill:#b59b82;}.cls-5,.cls-6{fill:#fff4d9;}.cls-5{stroke:#d0b496;}.cls-7{fill:#e5c9b3;}.cls-8{fill:#d2d5d3;}.cls-9{mask:url(#mask-2);}.cls-10{fill:#fff;stroke:#4c2f1b;stroke-width:0.1px;}.cls-11{fill:#1e1b1b;}.cls-13{fill:#1e1614;}.cls-14{fill:#fdf38c;}.cls-15{mask:url(#mask-3);}.cls-16{mask:url(#mask-4);}.cls-17{mask:url(#mask-5);}.cls-18{filter:url(#luminosity-noclip-4);}.cls-19{filter:url(#luminosity-noclip-3);}.cls-20{filter:url(#luminosity-noclip-2);}.cls-21{filter:url(#luminosity-noclip);}</style><filter id="luminosity-noclip" x="15.77" y="-7160" width="1.5" height="32766" filterUnits="userSpaceOnUse" color-interpolation-filters="sRGB"><feFlood flood-color="#fff" result="bg"/><feBlend in="SourceGraphic" in2="bg"/></filter><mask id="mask" x="15.77" y="-7160" width="1.5" height="32766" maskUnits="userSpaceOnUse"><g class="cls-21"/></mask><linearGradient id="linear-gradient" x1="-1190.26" y1="51.02" x2="-1190.86" y2="54.67" gradientTransform="translate(1205.6 -43.6) rotate(-1.2)" gradientUnits="userSpaceOnUse"><stop offset="0" stop-color="#fff"/><stop offset="1"/></linearGradient><filter id="luminosity-noclip-2" x="15.26" y="-7160" width="1.69" height="32766" filterUnits="userSpaceOnUse" color-interpolation-filters="sRGB"><feFlood flood-color="#fff" result="bg"/><feBlend in="SourceGraphic" in2="bg"/></filter><mask id="mask-2" x="15.26" y="-7160" width="1.69" height="32766" maskUnits="userSpaceOnUse"><g class="cls-20"/></mask><filter id="luminosity-noclip-3" x="19.82" y="-7160" width="4.6" height="32766" filterUnits="userSpaceOnUse" color-interpolation-filters="sRGB"><feFlood flood-color="#fff" result="bg"/><feBlend in="SourceGraphic" in2="bg"/></filter><mask id="mask-3" x="19.82" y="-7160" width="4.6" height="32766" maskUnits="userSpaceOnUse"><g class="cls-19"/></mask><filter id="luminosity-noclip-4" x="23.67" y="-7160" width="7.08" height="32766" filterUnits="userSpaceOnUse" color-interpolation-filters="sRGB"><feFlood flood-color="#fff" result="bg"/><feBlend in="SourceGraphic" in2="bg"/></filter><mask id="mask-4" x="23.67" y="-7160" width="7.08" height="32766" maskUnits="userSpaceOnUse"><g class="cls-18"/></mask><filter id="luminosity-noclip-5" x="15.77" y="29.72" width="1.5" height="4.88" filterUnits="userSpaceOnUse" color-interpolation-filters="sRGB"><feFlood flood-color="#fff" result="bg"/><feBlend in="SourceGraphic" in2="bg"/></filter><mask id="mask-5" x="15.77" y="29.72" width="1.5" height="4.88" maskUnits="userSpaceOnUse"><g class="cls-1"><path class="cls-2" d="M17.3,29.7a6.5,6.5,0,0,0-1.5,4c0,.5.4.8.9.9a1.3,1.3,0,0,1-.7-1.7A9.3,9.3,0,0,1,17.3,29.7Z"/></g></mask></defs><g id="catF_02"><path class="cls-3" d="M27.1,35.6c-2.4,3.2-2.8,4.6-4.6,7.4s.8,5.1.8,5.1,1,2.7,2.7,4,2.4,0,2.5-.9-.8-4.5-2.6-3.8a3.2,3.2,0,0,1,0-2.7s3.4-3.6,6.6-2.7"/><path class="cls-3" d="M56.4,28.4s-2.9,4.4.7,6.6a1.4,1.4,0,0,1,.7,2.4c-1.3,1.9-.8,2.9-.5,4.7S53,44,52.2,43.5s-1.9-1.5,1.6-2.4c0,0,1.1-2.9.3-3.5s-6.6-4.6-6.3-8.1,1.4-2.9,1.4-2.9"/><path class="cls-4" d="M52.7,43.6a3.9,3.9,0,0,1,1-.8,3.1,3.1,0,0,1,1.3-.3,2.7,2.7,0,0,0-2.1,1.3Z"/><path class="cls-4" d="M51.8,42.7a2.7,2.7,0,0,1,1.2-.9,2,2,0,0,1,1.5-.2,1.7,1.7,0,0,0-1.4.3,5.4,5.4,0,0,0-1.2.9Z"/><path class="cls-4" d="M27.9,51.9a2.8,2.8,0,0,1-1-.9,2.5,2.5,0,0,1-.4-1.2,2.6,2.6,0,0,0,1.6,1.9Z"/><path class="cls-4" d="M26.9,52.4a3.8,3.8,0,0,1-1.1-1.1,2.4,2.4,0,0,1-.5-1.4,2,2,0,0,0,.6,1.3,5.2,5.2,0,0,0,1.1,1Z"/><path class="cls-5" d="M58.7,15h0c.1-.2,2.9,3.1,6.3,4.8A8.3,8.3,0,0,0,70.6,21a10.4,10.4,0,0,0,5.7-2.7c.2-.4.6-.4.9,0a1,1,0,0,1,0,1.3,13.6,13.6,0,0,1-6.5,2.8A11.7,11.7,0,0,1,64,21.2,13.9,13.9,0,0,1,58.7,15Z"/><path class="cls-6" d="M17.1,24.9S16,21,17,18.9s2,2.1,4.6,3.9C22.3,23.3,17.1,24.9,17.1,24.9Z"/><path class="cls-7" d="M21,22.3c-2-1.9-2.9-4.8-3.8-3.7.7.7,1.6,2.2,1.1,5.2A9.5,9.5,0,0,1,21,22.3Z"/><path class="cls-6" d="M57.7,14.5A31.4,31.4,0,0,0,31.5,26.1a3.5,3.5,0,0,0-1.4-.6c-3.1-1.1-6.6,1.3-7.9,5.2s.3,7.8,3.4,8.8a3.4,3.4,0,0,0,2,.2c4.1,5,13.8,2.9,16.8-.2,4.5-5.7,10.4-7.8,13.3-7.7a10.6,10.6,0,0,0,3.6-5.1C63.6,21,60.2,14.7,57.7,14.5Z"/><path class="cls-7" d="M54.5,28.8c-5.9-.7-10.8,4.7-11.7,6.9-2.3,6.2-11.4,6.8-12.9,4.4-3-4.9-1.4-7.5-1.4-7.5a59.4,59.4,0,0,0-6,4.1,5.1,5.1,0,0,0,3.1,2.8,3.4,3.4,0,0,0,2,.2c4.1,5,13.8,2.9,16.8-.2,4.3-5.5,10-7.7,12.9-7.7A6,6,0,0,0,54.5,28.8Z"/><path class="cls-6" d="M30.8,29.3a7.7,7.7,0,0,1-7.7,7.6c-4.3.1-8-2.6-8.1-6.8A8.2,8.2,0,0,1,22.8,22,7.7,7.7,0,0,1,30.8,29.3Z"/><path class="cls-6" d="M19.3,24.6c-1.6,2-4.6,5.2-3.8,9.7.4,2.4,6,5.1,11.7.9C28.8,31,24.8,17.4,19.3,24.6Z"/><path class="cls-8" d="M16.9,30.1c.1.8-.3,1.4-.8,1.4s-.8-.6-.8-1.4.3-1.4.8-1.4S16.9,29.3,16.9,30.1Z"/><g class="cls-9"><path class="cls-7" d="M16.9,30.1c.1.8-.3,1.4-.8,1.4s-.8-.6-.8-1.4.3-1.4.8-1.4S16.9,29.3,16.9,30.1Z"/></g><path class="cls-10" d="M16.8,30.4c-.2.6-.6.9-.8.9s-.7-.6-.6-1.2.5-1.1.9-1S16.9,29.8,16.8,30.4Z"/><path class="cls-7" d="M23.8,33.8c-1.3-1.6-5.2-.6-5.2-.6H16.7c-.5-.3-1-1.4-1.3-.6a10.9,10.9,0,0,0,.1,1.8c.3,1.8,3.5,3.7,7.5,2.9A2.2,2.2,0,0,0,23.8,33.8Z"/><path class="cls-11" d="M15.8,33.9a3,3,0,0,0,1.3,1.6A1.7,1.7,0,0,0,18.5,34Z"/><path class="cls-12" d="M17.3,29.7a6.9,6.9,0,0,0-1.5,4c0,.6.7.9,1.4,1s1.7-.5,2.3-2.5S19.3,27,17.3,29.7Z"/><path class="cls-12" d="M22.8,22a7.8,7.8,0,0,0-3,.7l-1.5.9h-.1c.6-.3,5.1-2.5,7.2,1.5A3.7,3.7,0,0,0,26.9,23,9.2,9.2,0,0,0,22.8,22Z"/><path class="cls-13" d="M16.5,30.2c0,.4-.2.7-.4.7s-.4-.3-.4-.7a.8.8,0,0,1,.4-.7C16.3,29.5,16.5,29.8,16.5,30.2Z"/><path class="cls-14" d="M16.3,30.1c0,.1,0,.3-.1.3s-.2-.2-.2-.3.1-.3.2-.3S16.3,29.9,16.3,30.1Z"/><path class="cls-8" d="M19.8,32s.1-3.6,3.4-2.5S22.4,35.1,19.8,32Z"/><g class="cls-15"><path class="cls-7" d="M19.8,32s.1-3.6,3.4-2.5S22.4,35.1,19.8,32Z"/></g><path class="cls-10" d="M23.7,30.9a1.4,1.4,0,0,1-1.1,1.7c-.8.2-1.7,0-1.9-.8a1.7,1.7,0,0,1,1.2-1.9A1.4,1.4,0,0,1,23.7,30.9Z"/><path class="cls-13" d="M22.3,31.4c0,.4-.3.8-.6.8s-.5-.4-.5-.8.2-.8.5-.9S22.3,30.9,22.3,31.4Z"/><path class="cls-14" d="M22.1,31.2c0,.2-.1.4-.3.4s-.2-.2-.2-.4.1-.4.2-.4S22.1,31,22.1,31.2Z"/><path class="cls-8" d="M23.7,36.9a7.8,7.8,0,0,0,7.1-7.6,9.5,9.5,0,0,0-.7-2.9A10.6,10.6,0,0,1,23.7,36.9Z"/><g class="cls-16"><path class="cls-12" d="M23.7,36.9a7.8,7.8,0,0,0,7.1-7.6,9.5,9.5,0,0,0-.7-2.9A10.6,10.6,0,0,1,23.7,36.9Z"/></g><path class="cls-11" d="M20.7,36.7H19l-.4-.2-.4-.2a1.2,1.2,0,0,1-.5-.5,1.7,1.7,0,0,1-.4-.6l-.4.2.5.7h-.2l.2.2h.2a.1.1,0,0,1,.1-.1l.4.3.4.2h2.2a1.1,1.1,0,0,0,.6-.2h0Z"/><g class="cls-17"><path class="cls-8" d="M17.3,29.7a6.5,6.5,0,0,0-1.5,4c0,.5.4.8.9.9a1.3,1.3,0,0,1-.7-1.7A9.3,9.3,0,0,1,17.3,29.7Z"/></g><path class="cls-12" d="M15.4,32.2S13.3,24.8,22.1,22C19.9,22.1,13.5,25.2,15.4,32.2Z"/><path class="cls-6" d="M23,25.5c3.6-2,6.4-7,8-6.3s-.7,7.9-.7,7.9C26.4,30.6,22.8,25.6,23,25.5Z"/><path class="cls-7" d="M25.4,27.1c1.1-1.8,4.4-7.5,5.6-6.8s-1.1,6.2-1.4,7.1-.8-.4-.8-.4a1.4,1.4,0,0,1,.6-.5l-.8.3a3.1,3.1,0,0,1,1-1.2,2.7,2.7,0,0,0-1.6.8,3.2,3.2,0,0,1,1-1.9,3.8,3.8,0,0,0-1.8,1.8,4.4,4.4,0,0,1,.2-1.2C26.9,25.5,25.4,27.1,25.4,27.1Z"/><path class="cls-5" d="M49.5,27.1s3.4,10,12.1,7.3c0,0,1.3-1.2.8,3.5s2.7,2.5,2.7,2.5,1.2.6,1.5-1.5a2.2,2.2,0,0,0-1.4-2.6s1.4-7.8-.3-7.4-2.1,3.5-2.4,2,1-11.8-1.9-12.9"/><path class="cls-4" d="M65,40.3a5,5,0,0,1-.4-1.3,2.7,2.7,0,0,1,.3-1.2,2.9,2.9,0,0,0,.3,2.4Z"/><path class="cls-4" d="M63.7,40.8a8,8,0,0,1-.3-1.5,2.3,2.3,0,0,1,.4-1.4,2.2,2.2,0,0,0-.3,1.4,5.8,5.8,0,0,0,.5,1.4Z"/><path class="cls-5" d="M30.4,38.6C28.7,41.3,38,49,35.2,51.7c-1.3,1.2-3.3,4.7,1.2,3.5,0,0,4.4-3.2,2.9-5.1s-1.1-3.2-.8-3.7S37,45.2,36.6,44s-1.8-9.4-1.8-9.4"/><path class="cls-4" d="M36.2,55.4a4.3,4.3,0,0,1,.1-1.6,3.8,3.8,0,0,1,.9-1.3,3.8,3.8,0,0,0-.8,2.9Z"/><path class="cls-4" d="M34.1,55.4a8,8,0,0,1,.3-1.5,2.6,2.6,0,0,1,.9-1.2,1.8,1.8,0,0,0-.8,1.3,6.1,6.1,0,0,0-.1,1.4Z"/><path class="cls-4" d="M77.1,18.3a.5.5,0,0,0-.4-.2c-.1,0-.3.1-.3.2h-.1a11.1,11.1,0,0,1-3.9,2.4,8,8,0,0,1-4.6.2,13,13,0,0,1-4.2-1.8A35.1,35.1,0,0,1,60,16.3h0a4,4,0,0,0-1.5-1.4,1.2,1.2,0,0,0-.9-.3h-1a28.1,28.1,0,0,0-4.1.1,35,35,0,0,0-7.9,1.9,32.8,32.8,0,0,0-13.1,9.6h-.1l-.7-.4h0c.2-1.1.5-2.1.7-3.1a9.2,9.2,0,0,0,.1-1.6,2.5,2.5,0,0,0-.3-1.5.6.6,0,0,0-.6-.3l-.7.3-1.2,1-2.2,2.3h-.2l-1-.3a3.5,3.5,0,0,0-1.1-.3H21.4L22,22h.1v.2l-1.1.3h-.1a9.6,9.6,0,0,1-1.8-2.2l-.8-1.2-.5-.4a.4.4,0,0,0-.5.2h0a3.4,3.4,0,0,0-.5,1.4,7.6,7.6,0,0,0-.1,1.5,10.6,10.6,0,0,0,.5,3.1h-.1a6.7,6.7,0,0,0-1.8,3.3,12.3,12.3,0,0,0-.2,1.9,6.3,6.3,0,0,0,.3,1.9h0v.3h-.1V32h.2v.3h0a2.8,2.8,0,0,0,0,1.3,2.7,2.7,0,0,0,.3,1.2,4.2,4.2,0,0,0,1.8,1.7,8.2,8.2,0,0,0,5.1.6h.1c.2.1.3.4.4.5l.5.6.5.4.6.4h0l-1.3,2.1-1.2,2.2a3.3,3.3,0,0,0,0,2.4,6.5,6.5,0,0,0,1.1,2.2h0l.6,1.2a5.4,5.4,0,0,0,.7,1.3l.9,1,.5.5h.8l.9-.2a1.2,1.2,0,0,0,.7-.7h0a1.4,1.4,0,0,0,.3-1.3,3.8,3.8,0,0,0-.6-1.3,3.2,3.2,0,0,0-1-1,1.5,1.5,0,0,0-1.3-.1h-.1a3.9,3.9,0,0,1,0-2.8h0A18.4,18.4,0,0,1,28,42.9a6.3,6.3,0,0,1,2.7-1h0l.5.2h.1c1.3,2.2,3,4.2,4,6.5a4.5,4.5,0,0,1,.5,1.9,1.4,1.4,0,0,1-.3.9l-.7.8a8.6,8.6,0,0,0-1,1.6,2.8,2.8,0,0,0-.1.9c0,.3.3.5.6.6h0a4.6,4.6,0,0,0,2-.1h0v.2h-.1v-.2h0A11.5,11.5,0,0,0,39,52.5a2.6,2.6,0,0,0,.5-1.7c-.1-.6-.6-1-.9-1.6a3,3,0,0,1-.4-1.8c-.1-.7.6-1.3,0-1.8a13.1,13.1,0,0,1-1.5-1.2,1.1,1.1,0,0,1-.3-.8l-.3-.9h0a16.4,16.4,0,0,0,4.4-.9,10.3,10.3,0,0,0,3.8-2.2h0a38.3,38.3,0,0,1,2.8-2.9,18.3,18.3,0,0,1,3.1-2.4h.1a22.8,22.8,0,0,0,3.3,2.9c.3.2.7.4.8.8a2,2,0,0,1,0,1.1,16,16,0,0,1-.5,2.1h-.1a3.6,3.6,0,0,0-1.7.7.8.8,0,0,0-.3.8,1,1,0,0,0,.5.8h-.1l.6.2h0a7.4,7.4,0,0,0,3.3-.1,1.5,1.5,0,0,0,1.1-1.1,4.4,4.4,0,0,0-.2-1.6,4.9,4.9,0,0,1,0-1.7,4.7,4.7,0,0,1,.6-1.5,2.3,2.3,0,0,0,.5-1.5,1.2,1.2,0,0,0-1-1.1h0l-.7-.6h0a8.4,8.4,0,0,0,5.2-.2h0c.2-.1.4-.2.6,0l.3.5a4.9,4.9,0,0,1,.1,1.2,19.4,19.4,0,0,1-.2,2.4,3.4,3.4,0,0,0,.5,2.2,1.5,1.5,0,0,0,1.1.2l1.1-.4h0a1,1,0,0,0,1.2-.5,3.1,3.1,0,0,0,.3-1.3,3.2,3.2,0,0,0-.3-1.4,1.8,1.8,0,0,0-1.1-.8h0a27.5,27.5,0,0,0,.5-5.7,2.2,2.2,0,0,0-.3-1.4.5.5,0,0,0-.6-.2.9.9,0,0,0-.6.3,3.1,3.1,0,0,0-.9,1.1l-.4.6c0,.1-.1.3-.2.3s-.2-.2-.2-.4a28,28,0,0,1,0-2.9V25.1a15.7,15.7,0,0,0-.7-5.7h0A12.4,12.4,0,0,0,64,21.2h0a10.9,10.9,0,0,0,6.9,1.1,13.2,13.2,0,0,0,6.3-2.7,1,1,0,0,0,0-1.3Zm.1,0a1,1,0,0,1,0,1.3h0a14.4,14.4,0,0,1-6.3,2.8A11.7,11.7,0,0,1,64,21.2h0l-1.1-.8a5.2,5.2,0,0,1-1.1-1h0a15.7,15.7,0,0,1,.7,5.7V28a28,28,0,0,0,0,2.9l.2.4c.1,0,.1-.2.2-.3l.4-.6a3.1,3.1,0,0,1,.9-1.1l.6-.4h.4l.2.3a3.3,3.3,0,0,1,.4,1.4,36.6,36.6,0,0,1-.5,5.7h-.1a2,2,0,0,1,1.1.9,3.2,3.2,0,0,1,.3,1.4,3.1,3.1,0,0,1-.3,1.3,1.2,1.2,0,0,1-.5.5.9.9,0,0,1-.7,0h0l-1.1.5a1.5,1.5,0,0,1-1.1-.3,2.2,2.2,0,0,1-.5-1.1,4,4,0,0,1,0-1.1c0-.8.1-1.6.1-2.4a4.9,4.9,0,0,0-.1-1.2c0-.2-.1-.3-.3-.5s-.3,0-.5.1h0a8.4,8.4,0,0,1-5.2.1h0l.7.5h0a1.7,1.7,0,0,1,1.1,1.2,2.2,2.2,0,0,1-.6,1.5,4.7,4.7,0,0,0-.6,1.5,4.9,4.9,0,0,0,.1,1.7,4.4,4.4,0,0,1,.2,1.6c-.1.6-.7.9-1.2,1.1a7.4,7.4,0,0,1-3.3.1h0l-.6-.2h0c-.2-.2-.5-.5-.5-.8a.9.9,0,0,1,.4-.9,3.6,3.6,0,0,1,1.7-.7h0a16,16,0,0,0,.5-2.1,2,2,0,0,0,0-1.1c-.1-.3-.5-.5-.7-.7a23.7,23.7,0,0,1-3.4-2.9h.1a24.3,24.3,0,0,0-3.2,2.4,17.9,17.9,0,0,0-2.7,2.8h0a10.3,10.3,0,0,1-3.9,2.3,16.4,16.4,0,0,1-4.4.9h.1l.2.8a2.5,2.5,0,0,0,.4.9c.4.5,1,.7,1.5,1.2a.8.8,0,0,1,.2.9,2.9,2.9,0,0,0-.2.9,2.5,2.5,0,0,0,.4,1.7c.3.6.8,1,.9,1.7a2.7,2.7,0,0,1-.5,1.8,13.8,13.8,0,0,1-2.7,2.7h0v0h.1a4.5,4.5,0,0,1-2,.1h0v-.1h.1c-.4-.1-.7-.3-.7-.7a1.8,1.8,0,0,1,.1-1,8.6,8.6,0,0,1,1-1.6l.7-.7a3.2,3.2,0,0,0,.3-.9,4.1,4.1,0,0,0-.5-1.8c-1-2.3-2.7-4.3-4-6.5h0l-.6-.2h.1a8.2,8.2,0,0,0-2.6,1,18.4,18.4,0,0,0-2.2,1.7h0a3.6,3.6,0,0,0,0,2.7h0a1.7,1.7,0,0,1,1.4.1,2.7,2.7,0,0,1,1,1.1,3.1,3.1,0,0,1,.6,1.3,1.4,1.4,0,0,1-.3,1.4h0a1.1,1.1,0,0,1-.7.8,3.8,3.8,0,0,1-1,.3H27l.2.3-.3-.3h-.8c-.3-.1-.4-.3-.6-.5l-.9-1.1a7.5,7.5,0,0,1-.7-1.2,4.7,4.7,0,0,0-.7-1.2h.1a10.1,10.1,0,0,1-1.2-2.3,3.6,3.6,0,0,1,.1-2.5l1.2-2.1,1.3-2.2h0l-.6-.4a1,1,0,0,1-.5-.4l-.5-.6c-.2-.1-.3-.4-.4-.6h.1a8.4,8.4,0,0,1-5.2-.6,4.4,4.4,0,0,1-2-1.8,3.1,3.1,0,0,1-.3-1.3V32.2h0V32h.2v.3h-.1v-.3h0a5.8,5.8,0,0,1-.3-1.9c.1-.7.1-1.3.2-1.9A8,8,0,0,1,17,24.6h0a10.6,10.6,0,0,1-.5-3.1,7.6,7.6,0,0,1,.1-1.5,2.8,2.8,0,0,1,.6-1.5h0a.6.6,0,0,1,.7-.3,1.2,1.2,0,0,1,.5.5l.9,1.2A9.2,9.2,0,0,0,21,22.2h-.1l1.2-.3h.7l-.6.2h-.1V22h2.3l1.1.3,1,.4h-.1l2.3-2.3a4.3,4.3,0,0,1,1.2-1.1l.8-.3a.9.9,0,0,1,.8.4,2.9,2.9,0,0,1,.3,1.6c0,.5-.1,1.1-.1,1.6s-.5,2.1-.8,3.1h0l.7.4h-.1a32.1,32.1,0,0,1,13.1-9.7,32.1,32.1,0,0,1,8-1.9l4.1-.2h1a2.1,2.1,0,0,1,1.1.4,6.6,6.6,0,0,1,1.5,1.4h-.1A25.4,25.4,0,0,0,63.7,19a13,13,0,0,0,4.2,1.8,8.3,8.3,0,0,0,4.4-.3,9.6,9.6,0,0,0,3.9-2.3h0a.5.5,0,0,1,.5-.3.6.6,0,0,1,.6.3Z"/></g></svg>