<svg xmlns="http://www.w3.org/2000/svg" viewBox="0 0 84 66"><defs><style>.cls-1{isolation:isolate;}.cls-2{fill:#cb5741;}.cls-3{fill:#e57050;}.cls-4{fill:#ec927a;}.cls-4,.cls-6,.cls-7,.cls-9{stroke:#f7a991;stroke-width:0.3px;}.cls-10,.cls-12,.cls-4,.cls-6,.cls-7,.cls-9{stroke-miterlimit:10;}.cls-5,.cls-9{fill:#f9aa92;}.cls-6{fill:#fae8e6;mix-blend-mode:multiply;}.cls-7{fill:#fbcbbd;}.cls-8{fill:#f58967;}.cls-10{fill:none;stroke:#f9aa92;stroke-width:0.25px;}.cls-11{fill:#151515;}.cls-12{fill:#fff;stroke:#000;stroke-width:0.05px;}.cls-13{fill:#ee7554;}</style></defs><g class="cls-1"><g id="Layer_102" data-name="Layer 102"><g id="Duck_poses_04_F_03_" data-name="Duck poses 04 ( F 03 )"><path class="cls-2" d="M42.4,53.6s.8-.1.7-1.4S41.1,51.6,42.4,53.6Z"/><path d="M42.4,53.7a1,1,0,0,0,.5-.4,1.4,1.4,0,0,0,.2-.6V52a.7.7,0,0,0-.6-.4c-.2,0-.4.3-.5.5a2.4,2.4,0,0,0,.4,1.6h0c-.2-.4-.5-.9-.4-1.3s.2-.6.4-.6a.4.4,0,0,1,.6.2,1.3,1.3,0,0,1,.1.6,1.9,1.9,0,0,1-.2.7.7.7,0,0,1-.5.4Z"/><path class="cls-2" d="M42.9,50.2s1-.3,1.1-.6a18,18,0,0,0-2.1-1.9Z"/><path class="cls-2" d="M43.4,53.8s1.9-.7-.1-4S43.4,53.8,43.4,53.8Z"/><path d="M43.4,53.8a1.5,1.5,0,0,0,.8-1.1,3.8,3.8,0,0,0-.3-1.8,9.5,9.5,0,0,0-1-1.7c-.1-.1-.3-.4-.4-.3s-.1.4-.1.6a20.5,20.5,0,0,0,.5,2.4c.2.7.3,1.3.5,1.9h0c-.3-1.2-.7-2.5-.9-3.8s-.1-.5-.1-.8.1-.3.3-.2a3.2,3.2,0,0,1,.8,1.2,4.4,4.4,0,0,1,.7,2.1,1.5,1.5,0,0,1-.8,1.5Z"/><path class="cls-3" d="M41.4,51.4s.3,2.2.8,2.3.5-.8.5-.8.4,1,.7.9.8-.9.1-3.1S41.4,51.4,41.4,51.4Z"/><path class="cls-4" d="M37.7,36.2l-3.6,3.4c2.3,5,4.3,5.7,6.8,10.8a7.8,7.8,0,0,1,.6,1.6c.5-.9,1.1.3,1.1.3s.8-1.3,1.6,0,.1-1-1.4-3.6A19.5,19.5,0,0,1,40.7,43,27.3,27.3,0,0,0,37.7,36.2Z"/><path class="cls-2" d="M64.4,39.2s1.2-.2,1.3-.5-2.2-2.5-2.2-2.5Z"/><path class="cls-2" d="M64.6,43.5s2.3-.7.3-4.7S64.6,43.5,64.6,43.5Z"/><path d="M64.6,43.5a1.9,1.9,0,0,0,1.1-1.2,4.4,4.4,0,0,0-.2-2,6.7,6.7,0,0,0-1-2.3c-.1-.1-.3-.4-.4-.3s-.2.4-.2.6a25.8,25.8,0,0,0,.3,2.9c.1.8.3,1.5.4,2.3h.1a34,34,0,0,1-.8-4.6,3.4,3.4,0,0,1,.1-1c0-.2.2-.2.3,0l.4.4a6.1,6.1,0,0,1,.5,1.2,5.2,5.2,0,0,1,.5,2.4,1.7,1.7,0,0,1-1.1,1.6Z"/><path class="cls-3" d="M62.5,40.5s.2,2.6.8,2.7.6-.8.6-.8.4,1.2.7,1.1,1-1,.4-3.6S62.5,40.5,62.5,40.5Z"/><path class="cls-4" d="M59.8,22.3,55.2,26c2.2,6,4.5,7.1,6.8,13.2a12.9,12.9,0,0,1,.6,2c.7-1.1,1.3.4,1.3.4a1,1,0,0,1,1.8.2s.3-1.1-1.3-4.3a29.2,29.2,0,0,1-1.9-6.9A36.3,36.3,0,0,0,59.8,22.3Z"/><path class="cls-5" d="M28.2,31l-1.5,2.9-1.4,2.9c-8.3-2.4-4.3-4.9-7.8-8.2a.5.5,0,0,1-.2-.4.4.4,0,0,1,.3-.6C19.3,26.5,24.1,24.6,28.2,31Z"/><path class="cls-6" d="M26.7,33.9l-1.4,2.9c-8.3-2.4-4.3-4.9-7.8-8.2a.5.5,0,0,1-.2-.4c1.3-.4,5.8-1.4,8.8,4.1A4,4,0,0,1,26.7,33.9Z"/><path class="cls-7" d="M67.7,5.8a.4.4,0,0,0-.6-.3.6.6,0,0,0-.3.7,1.4,1.4,0,0,1-.1,1.5h-.1a1.9,1.9,0,0,0-.3-.8l-.4-.7A2.1,2.1,0,0,0,64,5.4a1.8,1.8,0,0,0-1.5,1.2,2.1,2.1,0,0,0,.4,2.3,2.3,2.3,0,0,0,2.4.9l-.4.5a9.9,9.9,0,0,1-3.2,1.9.5.5,0,0,0-.3.7.5.5,0,0,0,.5.3H62a10.2,10.2,0,0,0,4-2.7,3,3,0,0,0,.6-1.1c0-.1,0-.2.1-.2A2.8,2.8,0,0,0,67.7,5.8ZM63.6,8.3A1.3,1.3,0,0,1,63.4,7a1,1,0,0,1,.7-.7h.1a1.2,1.2,0,0,1,.9.6,4.1,4.1,0,0,1,.5.9,1.1,1.1,0,0,1,.1.8A1.6,1.6,0,0,1,63.6,8.3Z"/><path class="cls-7" d="M65.8,25.3c-1.5,4.6-4.6,7.9-4.9,7.7s-.4-.1-.6.1C57.4,36,51.6,41.2,46,44.2l-1.4.7-1.8.7c-2.4.9-1.8-.1-3.2,1l-.4.3-.8.7-.7.5-.3.3a28.2,28.2,0,0,1-8.6,4.5l-3.4,1-3.6.7h-.4l-.3-.2L16,49.4a4,4,0,0,0,1.7-1.9c2-3.6,1.7-10.5,5.8-15.6s10.8-7.1,14.4-10.7c17.7-17,25-10.6,26.2-9.7a6.6,6.6,0,0,1,2.2,3.2A21.2,21.2,0,0,1,65.8,25.3Z"/><path class="cls-5" d="M26.6,52.8c-.7.4-1,.6-1.2,1.1l-3.6.7c2.2-.5,3.9-1.3,4.3-2S28,52.2,26.6,52.8Z"/><path class="cls-5" d="M22.1,52.9a4,4,0,0,1-1,1.5l-5.1-5c.7-.4,1.3-1.8,1.8-2.7s1.9.2,2.8.6S23.1,50.6,22.1,52.9Z"/><path class="cls-8" d="M22.2,52.6c.5,1.6-.9,2.7-2.7,2.3a6,6,0,0,1-4-3.6c-.5-1.6.8-2.6,2.6-2.1S21.8,51.1,22.2,52.6Z"/><path class="cls-9" d="M21.5,53c.4,1.4-.6,2.2-2.3,1.8s-3.6-1.5-3.8-3.3.6-2.3,2.3-1.9A5.4,5.4,0,0,1,21.5,53Z"/><path class="cls-10" d="M26.5,46h-.3c-.1-.1-.2-.3-.1-.4s0-3.9,4-3.2C30.1,42.3,31.7,46.3,26.5,46Z"/><path class="cls-3" d="M17.8,51.9c0,.4-.3.6-.7.4a1.4,1.4,0,0,1-.7-1.2c0-.4.3-.6.7-.4A1.4,1.4,0,0,1,17.8,51.9Z"/><path class="cls-3" d="M20.5,53.3c0,.4-.3.6-.7.4a1.4,1.4,0,0,1-.7-1.1c0-.5.3-.7.7-.5A1.9,1.9,0,0,1,20.5,53.3Z"/><path class="cls-10" d="M29.5,43.5s-.2,1.6-1,1.8-1.1-.3-1.6.1a1.9,1.9,0,0,0,.2-.8c.2-.6.3-1.2.9-1.5S29.2,43.1,29.5,43.5Z"/><path class="cls-11" d="M29.4,43.3A1.6,1.6,0,0,1,28.2,45a1.5,1.5,0,0,1-1.1-.4c.2-.6.3-1.2.9-1.5A1,1,0,0,1,29.4,43.3Z"/><path d="M29.4,43.3a2.1,2.1,0,0,1-.5,1.3,1.2,1.2,0,0,1-1.2.3h-.5v-.2c0-.2.1-.4.1-.6a1.7,1.7,0,0,1,1-1,1,1,0,0,1,1.1.5s.1-.1,0-.1a.9.9,0,0,0-.9-.4,1.3,1.3,0,0,0-1.2.9,1.4,1.4,0,0,1-.2.6v.2h.1l.3.3a1.5,1.5,0,0,0,1.3-.1,2.6,2.6,0,0,0,.7-1.5Z"/><path class="cls-12" d="M28.9,43.5c0,.2-.1.4-.2.4s-.4-.1-.4-.3a.3.3,0,0,1,.3-.3C28.7,43.2,28.9,43.4,28.9,43.5Z"/><path class="cls-5" d="M41.1,34.4a.7.7,0,0,1-.1.5c-2.7,3.6-2.8,11-7.8,6.4l-.5-.4-.9-1.4a3.3,3.3,0,0,1,1.1-4.6,10.7,10.7,0,0,1,7.8-1A.7.7,0,0,1,41.1,34.4Z"/><path class="cls-6" d="M41.1,34.4a.7.7,0,0,1-.1.5c-2.7,3.6-2.8,11-7.8,6.4a4.3,4.3,0,0,1-.1-2C34,34.8,38.8,34.4,41.1,34.4Z"/><path class="cls-13" d="M35.1,58.1a1.5,1.5,0,0,0,1.8-.5C37.8,56.7,35.5,55.6,35.1,58.1Z"/><path d="M35.1,58.1a1.2,1.2,0,0,0,1,.1,2.4,2.4,0,0,0,.8-.6.5.5,0,0,0,.2-.4c0-.2-.2-.4-.4-.6a1.1,1.1,0,0,0-.8.1,2,2,0,0,0-.8,1.4h0a2.6,2.6,0,0,1,.6-1.3,1,1,0,0,1,.9-.2c.2.1.5.3.5.5s0,.3-.1.4l-.7.6a1.7,1.7,0,0,1-1.2,0Z"/><path class="cls-8" d="M38.4,55.9s1.1.6,1.4.5-.4-3-.4-3Z"/><path d="M38.4,55.9a1.9,1.9,0,0,0,.9.4c.1.1.5.3.6,0a2.8,2.8,0,0,0-.1-.9,5,5,0,0,0-.2-1.2c0-.3-.1-.5-.1-.8h-.1l-.9,2.2v.3c-.1,0,0,.1,0,0l.5-1.2.4-.8c0-.2.1-.3.2-.5h-.1a.1.1,0,0,0,.1.1v.2c.1.3.1.6.2.8s.1.7.1,1,.1.5.1.8h-.7a2,2,0,0,1-.8-.4Z"/><path class="cls-13" d="M35.9,59s2.4,1,3.2-3S35.9,59,35.9,59Z"/><path d="M35.9,59a1.7,1.7,0,0,0,1.4,0,2.9,2.9,0,0,0,1.1-1.1,6.2,6.2,0,0,0,.7-2.3,1.3,1.3,0,0,0,.1-.6.3.3,0,0,1-.1-.2c-.2-.2-.4.1-.5.2a7.3,7.3,0,0,0-.8.9L37,57.1l-.7,1.2-.3.4c0,.1-.1.2-.1.3h0a10,10,0,0,0,.8-1.4,18.8,18.8,0,0,1,1.6-2.3c.1-.2.4-.5.6-.5s.2.3.2.5a6.5,6.5,0,0,1-.4,2,4.2,4.2,0,0,1-1.1,1.5,2,2,0,0,1-1.1.3h-.6Z"/><path class="cls-8" d="M36,55.7s-1.5,1.8-1.1,2.3,1.1-.2,1.1-.2-.5,1.1-.1,1.2,1.5,0,2.6-2.2S36,55.7,36,55.7Z"/><path class="cls-7" d="M44.4,43.6a14.4,14.4,0,0,1-.9,2.4l-.7,1.5a.1.1,0,0,1-.1.1v.2h-.1c0,.1,0,.2-.1.2s-.1.2-.2.3l-.5,1.1a.1.1,0,0,0-.1.1h-.1l-.3.5-.2.4a.8.8,0,0,0-.2.5h0c-.1,0-.1.1-.2.2h0c0,.1-.1.1-.1.2s-.1.2-.1.3-.1.1-.1.2h-.1c0,.1,0,.2-.1.2s-.1.2-.1.3v.2h0c0,.1-.1.1-.1.2s-.1.3-.1.4a.1.1,0,0,1-.1.1v.2h0c0,.1-.1.2-.1.3s-.1.3-.1.4l-.3,1.2a.4.4,0,0,1-.1.3v.3c-.1,0-.1,0-.1.1h0c-.6,1.6-1.1,1.9-1.1,1.9h0v-.2h0v-.2h-.1a.1.1,0,0,1-.1-.1h0a.1.1,0,0,1-.1-.1H36.4a1.2,1.2,0,0,0,.1-.5v-.2c-.1-.3-.3-.6-.9-.4h.1a7,7,0,0,0,.6-1.7,13.5,13.5,0,0,0,.8-3,23.3,23.3,0,0,0,.5-3.4c.1-1.2.2-2.4.4-3.8"/><path class="cls-13" d="M54.8,49.4a2,2,0,0,0,2.2-.6C58,47.6,54.9,46.6,54.8,49.4Z"/><path class="cls-8" d="M58.9,47.1s1.3.9,1.7.8,0-3.5,0-3.5Z"/><path class="cls-13" d="M56,50.4s3.2,1,3.5-3.7S56,50.4,56,50.4Z"/><path class="cls-8" d="M55.6,46.6s-1.6,2.2-1,2.7,1.3-.2,1.3-.2-.4,1.2.1,1.3,1.8-.1,2.9-2.7S55.6,46.6,55.6,46.6Z"/><path class="cls-7" d="M57.6,28.8a29.4,29.4,0,0,0-.5,3.5h0v1.2h0V34c0,.1.1.1.1.2v.4h0a.9.9,0,0,0,.1.5h0c0,.2,0,.3.1.4V36a.3.3,0,0,0,.1.2l.3,1.1h0l.3.6c0,.1,0,.2.1.2v.2c.7,1.4-1,4.8-2.2,7.1l-.8,1.7h1c.1,0,.1,0,.1.1h0a.1.1,0,0,1,.1.1h0V48h1.5a.1.1,0,0,1,.1.1h.2c0,.1.1.1.1.2h.1v.2h.1v.2h.1l.3-.3H59a.1.1,0,0,0,.1-.1h0l.2-.2a9.3,9.3,0,0,0,.5-1l.2-.3a4.7,4.7,0,0,1,.5-1,.4.4,0,0,1,.1-.3.3.3,0,0,1,.1-.2,5.9,5.9,0,0,1,.4-.8c0-.1.1-.2.1-.3l.2-.3c0-.1.1-.2.1-.3s.1-.1.1-.2l.2-.5.6-1.2h0L63,41h0c1-1.7,1-2.1.9-4.2a4.4,4.4,0,0,1,.3-1.9c.1-.1.1-.1.1-.2h.2c0-.1,0-.1.1-.2h0l.2-.3h0a1.6,1.6,0,0,1,.4-.7c0-.1,0-.2.1-.2l.6-1.2.2-.4.3-.6V30c0-.1,0-.1.1-.2v-.4l.3-.7a.4.4,0,0,0,.1-.3l.3-.6v-.2a.4.4,0,0,0,.1-.3v-.2h0a.4.4,0,0,0,.1-.3.4.4,0,0,1,.1-.3,21,21,0,0,0,.3-4.4c-.1-1.2-.2-2.6-.5-4.4A10.8,10.8,0,0,0,66,13.5a7.8,7.8,0,0,0-1.5-1.6"/></g></g></g></svg>