<svg id="Layer_1" data-name="Layer 1" xmlns="http://www.w3.org/2000/svg" xmlns:xlink="http://www.w3.org/1999/xlink" viewBox="0 0 118.3 150.2"><defs><style>.cls-1{fill:#efb49a;}.cls-1,.cls-3{stroke:#9e4d2d;stroke-miterlimit:10;}.cls-2{fill:#d0e8ec;opacity:0.25;}.cls-3{fill:url(#linear-gradient);}.cls-4{fill:url(#linear-gradient-2);}.cls-5{fill:#933d18;}.cls-6{fill:#231f20;}.cls-7{fill:#d82e2a;}.cls-8{fill:#b22424;}.cls-9{fill:#ef4136;}</style><linearGradient id="linear-gradient" x1="29.49" y1="74.28" x2="100.25" y2="74.28" gradientTransform="translate(5.7 -5.3) rotate(4.4)" gradientUnits="userSpaceOnUse"><stop offset="0.19" stop-color="#ffd"/><stop offset="0.26" stop-color="#fff6d8"/><stop offset="0.41" stop-color="#ffe8cf"/><stop offset="0.54" stop-color="#ffe3cc"/><stop offset="0.67" stop-color="#ffe8d2"/><stop offset="0.83" stop-color="#fff8e3"/><stop offset="0.89" stop-color="#ffffea"/></linearGradient><linearGradient id="linear-gradient-2" x1="54.68" y1="10.18" x2="67.41" y2="10.18" gradientTransform="translate(5.7 -5.3) rotate(4.4)" gradientUnits="userSpaceOnUse"><stop offset="0.14" stop-color="#ffe3cc"/><stop offset="0.3" stop-color="#ffddc9"/><stop offset="0.51" stop-color="#ffccbf"/><stop offset="0.52" stop-color="#ffccbf"/><stop offset="1" stop-color="#ffe3cc"/></linearGradient></defs><path class="cls-1" d="M46.2,75.9a30.9,30.9,0,0,0-5.6,2.9C36.7,81,33,83.4,30.8,89c-1.7,4-1.6,6.9-1,11s2.9,12.5,3.1,12.3c-6.6-5.6-9.6-7.8-7-13.6-2.1,1.8-1.1,1.9-2,3.9-2.5-3.7-1.7-4.7-.5-9.2-1.9,2-.8.9-2.1,3.2C13.9,79.5,33.2,68.9,46.2,75.9Z"/><path class="cls-2" d="M34.1,133.7c-5.2,1.3-32.2,14.6,51.6,10.9C52.6,148.7-11.8,144.3,34.1,133.7Z"/><path class="cls-2" d="M106.4,135.7c2,.5,12.6,6.9-18.1,8.3C100.5,144.9,123.8,139.8,106.4,135.7Z"/><path class="cls-1" d="M92.2,108.9c6-.6,11.7,2.2,18.8-.8-1.8,4.9-6.4,7.6-10.9,10.3a38,38,0,0,1,4-.6c-.9,1.3-2.3,1.9-4.2,2.3h1.6c-1.7,2.3-8.7,4.7-10.7,2s1-8.4.8-10.5Z"/><path class="cls-3" d="M78.5,86C73,80,68.2,72,67.8,64.2a38.9,38.9,0,0,0,14-1.9c3.3-1.1,7.1-2.4,8.9-5.4s-.9-4.7-1.4-7.5a32.5,32.5,0,0,1-.1-5.4c.2-4.7,2-9.5.9-14.1S84.9,19.5,79.8,16.5a33.8,33.8,0,0,0-14.3-4.1c-6.6-.5-10.5,1.4-15.7,4.9s-6.1,6.3-8.5,10a38,38,0,0,1-6.9,8.1c-1.6,1.2-2.4,1.3-2.5,3.2a14.1,14.1,0,0,0,1.2,4.9c1.3,3.3,3.7,6.2,6.2,8.9a37.6,37.6,0,0,0,8.8,7.1c-2,7.8-6.5,14.9-9,22.5-3.1,9.7-3.8,23.6.9,32.9,6.7,13.5,30.8,27.6,48.5,17.6S88.4,96.9,78.5,86Z"/><path class="cls-4" d="M71.7,13.6c-2.4-4.3-8.2-5.4-9.9-10.4-1.4,1.9,0,4.4,1.3,6.2a9.7,9.7,0,0,1-2.5-1.9c-.3,1.1.6,2.4,1.5,3.5a5.8,5.8,0,0,1-2.7-1.4c0,7.3,7.5,4.7,12.3,6.5Z"/><path class="cls-5" d="M71.7,13.6C69,9.4,63.1,8.3,61.4,3.3h.7c-1.6,2.7,1.3,5.6,2.8,7.7a25.1,25.1,0,0,1-4.6-3.2l.8-.2a2.1,2.1,0,0,0,.3,1.5,21.4,21.4,0,0,0,1.9,2.6,8.1,8.1,0,0,1-4.2-1.9l.8-.3c-.3,6.7,7.6,4.5,11.8,6.4h-.1V13.6Zm0,0v2.5h0c-2.5-.8-5.2-.5-7.9-.9s-5-3.1-4.9-6.8a6.9,6.9,0,0,0,3.2,2.1l-.5.7c-.8-1.1-2-2.4-1.6-3.9l.3-.8.6.6A13,13,0,0,0,63.3,9l-.6.7A11.7,11.7,0,0,1,61,6.6a4.1,4.1,0,0,1,.4-3.7l.5-.7.3.8c1.5,4.8,7.3,6.3,9.5,10.6Z"/><path class="cls-6" d="M58.5,38c-.9,1.4-1,3-.2,3.4s2.3-.3,3.2-1.8,1.1-3,.3-3.4S59.5,36.5,58.5,38Z"/><path class="cls-6" d="M40.9,28.5c-.8,1.6-.7,3.1.2,3.5s2.2-.6,3-2.1.7-3.1-.2-3.5S41.7,27,40.9,28.5Z"/><path class="cls-7" d="M40.5,35.6h.3a7.1,7.1,0,0,1,4.7,1.2,8.2,8.2,0,0,1,3.1,4c.9,2.6-1.7,5-4.3,5.4s-4.7-.2-7.1.2-4.9,1.5-4-2a16.2,16.2,0,0,1,3.6-5.7C37.9,37.6,38.9,36,40.5,35.6Z"/><path class="cls-8" d="M45.6,41.5c-.3,1.1-1.8,1.5-2.8,1.5-2.6.1-4.3-.6-6.5,1.1-.2-1.2,3.1-6,4.5-5.9s1.6,1.8,2.1,2.4a8.9,8.9,0,0,0,2.4.9Z"/><path class="cls-9" d="M40.5,23.2c1.1,1.5-.5,4.3.9,6.4s3.4,2.3,5,3.6a11.5,11.5,0,0,1,1.8,2.3c1.4,2,1.7,7.6-1.1,7.6s-3.4-1.6-4.8-2.8a26.8,26.8,0,0,0-4.8-3.5c-2.8-2.2-4.3-5-3.3-8.4C34.7,26.8,38.8,20.5,40.5,23.2Z"/><path class="cls-1" d="M70.6,77.4c3.8,3.2,2,1.8,4.6,4.4s6.1,6.4,6.8,12.5c.4,4.2-.4,7-2.1,10.8a105.3,105.3,0,0,1-6.2,11c7.8-3.6,11.3-4.9,10.3-11.3,1.6,2.4.6,2.2.9,4.4,3.4-2.9,2.9-4.1,3-8.7,1.2,2.4.5,1,1.2,3.6C100.8,89.6,85,74.2,70.6,77.4Z"/></svg>