<svg xmlns="http://www.w3.org/2000/svg" viewBox="0 0 161 140"><defs><style>.cls-1{isolation:isolate;}.cls-2{fill:none;}.cls-11,.cls-2,.cls-20,.cls-6,.cls-8{stroke:#86614f;stroke-width:0.5px;}.cls-11,.cls-2,.cls-20,.cls-3,.cls-6,.cls-8{stroke-miterlimit:10;}.cls-3{fill:#6d4d42;stroke:#000;stroke-width:0.11px;}.cls-4{fill:#353535;}.cls-5{fill:#262525;}.cls-21,.cls-6{fill:#c89572;}.cls-14,.cls-7{fill:#eee;}.cls-13,.cls-7{mix-blend-mode:multiply;}.cls-15,.cls-8{fill:#cdc2c1;}.cls-9{fill:#bbadab;}.cls-10{fill:#f3987f;}.cls-11{fill:#f9aa92;}.cls-12,.cls-20{fill:#a6754f;}.cls-16{fill:#7c4839;}.cls-17{fill:#602f28;}.cls-18{fill:#3e2723;}.cls-19{fill:#fff;}</style></defs><g class="cls-1"><g id="SB_31_Cow"><path class="cls-2" d="M140.6,22.8l-2.9-3,.2.8h0l-.8-3.3h0c-.3-1-.5-1.8-.6-2.3-1.1-4.4-3.2-3.9-5-3.9S124,5.8,120,6.1c-1.5.1-3.6,2.2-6.6,5.1S103,21.5,94.7,25.1a10.2,10.2,0,0,1-2.2.9L82,30l-4.1,1.6C65.6,36.6,53.3,42.5,50.8,47a10.5,10.5,0,0,1-1.7,2.1,23.7,23.7,0,0,1-3,2.3C39.5,55.8,32,56.9,32,57h0a3.2,3.2,0,0,0-1.9,1l-.5-.4a15.2,15.2,0,0,1-2.2-2.7c-.6-.8-1.1-1.7-1.5-2.3a.6.6,0,0,0-1.2.1,8.6,8.6,0,0,0-.2,2.2v.8c-2.7-.3-6.4.4-6.5,1.6s2.8,6.4,8.5,6.9l-.3.8C24.7,68.8,24,72.3,22,76.6q-.6,1.5-1.2,2.7a24.4,24.4,0,0,1-3.6,5.9h0c-2.9,1.6-3.9,7.5,1,10.3s6.7.5,7.7-.8A21.5,21.5,0,0,1,29,92.5a19.1,19.1,0,0,1,7.4-2.8,12.4,12.4,0,0,0,8-4.7l.3.2,1.6.8.9.7h.3l1.1,1,.3.2H49l.3.4h0l.3.2.8.9h.1a16.3,16.3,0,0,1,1.7,2l1.2,1.4h0l.4.4h0a38,38,0,0,1,.9,5.3c0,3-.7,3.8.9,6.3s0,11.4,0,11.4a16.1,16.1,0,0,1-2.3,4.8h.3a2,2,0,0,0,1.1-.3H55l.4-.2h0l.3-.2h.2l.4-.3-1.4,2.5c1.8.2,7.2.8,6.7-4.7a1.3,1.3,0,0,1-.1-.6h0c-.4-2,.8-2.8.8-4.5s-1.7-1.4-1.1-7.6c.3-2.9,1.5-5.6,0-7.8h4.1l1.7-.8h0c1,4.4,2.1,9.3,2.1,10.9s-.3,3,0,4.3h0a9.2,9.2,0,0,0,1,2,8.7,8.7,0,0,1,.7,4,54.9,54.9,0,0,1-.7,7.4h0a16.6,16.6,0,0,1-2.4,4.8,4.1,4.1,0,0,0,3-1.3l-1.4,2.5c1.9.2,7.3.8,6.7-4.7a1.3,1.3,0,0,0-.1-.6h0a1.7,1.7,0,0,1,0-1v-.2h0c0-.1,0-.1.1-.2v-.2c0-.2.1-.3.1-.4s.1-.2.1-.3v-.2h0l.3-.8h0V121h0v-.3c0-1.4-1.2-1.4-1.2-5.5v-.4h0c0-.5.1-1,.1-1.7v-.3a1.7,1.7,0,0,1,.1-.7,2,2,0,0,1,.1-.7c0-.2.1-.4.1-.6s.1-.5.1-.7a1.3,1.3,0,0,0,.1-.6,10,10,0,0,0,.2-1.6v-.4a.4.4,0,0,0-.1-.3v-.4c-.1-.2-.1-.4-.2-.6v-.6h-.1v-.2h0c-.9-1.3-.4-10.9,0-16.7h1.8l.7-.2h.5l.5-.2h.5l.7-.2.5-.2h1.2l.7-.3.6-.2h.4l.4-.2.9-.3.5-.2.9-.4h.4l.5-.3.5-.2.6-.3h.3l.7-.3.6-.3h.2l.6-.2.6-.4.6-.3,1-.5h.4l.5-.3.7-.4h.2l.3-.2.8-.5.4-.3h.4l.4-.2.4-.3.4-.2.5-.3.5-.3.7-.4c0-.1.1-.1.2-.2l.5-.3.4-.3.7-.4.3-.3,1.1-.7c.1-.1.2-.1.2-.2a1.8,1.8,0,0,0,.7-.5l.5-.3.4-.3.2-.2.5-.3,1-.7a1,1,0,0,1,.5-.4l.6-.5h.2l.8-.6h.1l.3-.2h.3l1.3-1.2.3-.2.3-.2h0l.3-.2h0a.8.8,0,0,0,.4.8c.7.4,1.7-.5,2.6-1.7l2.4,1.1c-.3,1.3-.4,2.7.5,2.8h.6a30.9,30.9,0,0,1-1,8.8,14,14,0,0,1-2.4,4.7h.3a2.7,2.7,0,0,0,1.2-.3h.3l.3-.2h.1l.2-.2h.2a.1.1,0,0,0,.1-.1l.3-.2L116.1,87c1.9.2,7.3.8,6.7-4.7a1.3,1.3,0,0,0-.1-.6h0c-.7-2.8.1-3.6.1-5.5s-.6-1.4-.5-4.5c.3.6.6,1,1.1.9s1-1.8.9-3.5l.8-.4,1.5-1.4c1.7,2.4,3.4,3.9,4.5,7s2,7.2.2,14.6h0a15.7,15.7,0,0,1-2.3,4.7h.3a2,2,0,0,0,1.1-.3h.2a.1.1,0,0,1,.1-.1l.4-.2h0l.3-.2h.2l.3-.2-1.3,2.4c1.8.2,7.2.8,6.7-4.7a1.3,1.3,0,0,1-.1-.6h0c-.8-2.8.1-3.6.1-5.5s-1.4-1.4.2-11.4c.4-2.6.6-3.6-.4-5.1s-.7-2.7-.5-5.3,1-7.8,1.7-12c.2-1.2.4-2.3.5-3.4a9.3,9.3,0,0,0,7.1-3.7C149.1,39,149.6,32.7,140.6,22.8Zm-1,19.8h0c.9-4.1.5-9.2-.2-14h0c0-.3-.1-.5-.1-.8h0a.8.8,0,0,1-.1-.4c0-.2-.1-.3-.1-.5h0a34.7,34.7,0,0,1,3.5,4.3c2.7,4.1,3.8,8.5,1,11.2a9.3,9.3,0,0,1-4.4,2.6A17.7,17.7,0,0,0,139.6,42.6Z"/><path class="cls-3" d="M67.7,129.2s2.8-1.1,3.5-2.3l-.5,1A4.3,4.3,0,0,1,67.7,129.2Z"/><path class="cls-4" d="M116.1,87l1.4-2.5a4.1,4.1,0,0,1-3,1.3,14,14,0,0,0,2.4-4.7s3.7-1.5,5.8.6a1.3,1.3,0,0,1,.1.6C123.4,87.8,118,87.2,116.1,87Z"/><path class="cls-5" d="M114.5,85.8s2.8-1.1,3.5-2.3l-.5,1.1A4.4,4.4,0,0,1,114.5,85.8Z"/><path class="cls-5" d="M116.1,87s6.1-.7,6.7-4.7C123.4,87.8,118,87.2,116.1,87Z"/><path class="cls-4" d="M130.6,94.9l1.4-2.5a4.1,4.1,0,0,1-3,1.3,16.1,16.1,0,0,0,2.3-4.8s3.9-1.9,5.9.7a1.3,1.3,0,0,0,.1.6C137.8,95.7,132.4,95.1,130.6,94.9Z"/><path class="cls-5" d="M129,93.7s2.7-1.1,3.4-2.3l-.4,1A4.5,4.5,0,0,1,129,93.7Z"/><path class="cls-5" d="M130.6,94.9s6-.7,6.7-4.7C137.8,95.7,132.4,95.1,130.6,94.9Z"/><path class="cls-4" d="M54.9,122.5l1.4-2.5a4.1,4.1,0,0,1-3,1.3,16.1,16.1,0,0,0,2.3-4.8s3.9-.3,5.9.7a1.3,1.3,0,0,0,.1.6C62.1,123.3,56.7,122.7,54.9,122.5Z"/><path class="cls-5" d="M53.3,121.3s2.7-1.1,3.4-2.3l-.4,1A4.5,4.5,0,0,1,53.3,121.3Z"/><path class="cls-5" d="M54.9,122.5s6-.7,6.7-4.7C62.1,123.3,56.7,122.7,54.9,122.5Z"/><path class="cls-6" d="M30.2,62.7s-1.4-5.1-3.7-6.4-8.4-.5-8.5,1,3.6,7.8,11,6.9Z"/><path class="cls-7" d="M26.5,59.7c-1-.9-2.1-2.2-5.6-2a.7.7,0,0,0-.6,1c.8,1.3,2.5,3.5,4.9,3.9A1.7,1.7,0,0,0,26.5,59.7Z"/><path class="cls-8" d="M30.8,58.4l-2.9,3.4a9.7,9.7,0,0,1-3.3-5.7,4.9,4.9,0,0,1-.1-1.2,8.6,8.6,0,0,1,.2-2.2.6.6,0,0,1,1.2-.1c.4.6.9,1.5,1.5,2.3a15.2,15.2,0,0,0,2.2,2.7Z"/><path class="cls-9" d="M30.8,58.4l-2.9,3.4a9.7,9.7,0,0,1-3.3-5.7c.2.5,2.3,5.2,5,1.5Z"/><path class="cls-6" d="M122.2,54.4c-.3,2.6-.1,4.6.4,5.3s.9,2.5.5,5.1c-1.6,10-.3,9.6-.3,11.4s-.8,2.7-.1,5.5c0,0-6.6,2.5-5.8-.6,1.8-7.4.8-11.6-.2-14.7-1.8-5.2-5.7-6.2-7.7-13.9a65.6,65.6,0,0,1-1.8-12.9,11.9,11.9,0,0,1,14-9.9h.4c2.2.9,3.6,4.7,3.6,4.7s-.1.1-.1.2c-.4,2.3-.8,4.9-1.2,7.7S122.6,51,122.2,54.4Z"/><path class="cls-6" d="M50.7,80.6s4,15.1,4,18.2-.7,3.8.9,6.3,0,11.4,0,11.4,1.8,2.8,5.9.7c-.4-2,.8-2.8.8-4.5s-1.7-1.4-1.1-7.6c.3-2.9,1.5-5.6,0-7.8s.4-21.2.4-21.2C56.4,74.7,52.9,76.3,50.7,80.6Z"/><path class="cls-10" d="M123.4,72.6c-.9.2-1.3-1.2-1.5-2.5a12,12,0,0,1-.1-2.5l2.2-1.7a19.9,19.9,0,0,1,.3,3.2C124.4,70.8,124.3,72.4,123.4,72.6Z"/><path class="cls-10" d="M120.3,66.4a26.4,26.4,0,0,1-1.1,3.8c-.5,1.2-1.1,2.3-1.9,2.2s-.8-1.5-.5-2.8a14.3,14.3,0,0,1,.8-2.4Z"/><path class="cls-10" d="M116.4,65.3a21.8,21.8,0,0,1-2,3.2c-.9,1.1-1.9,2.1-2.6,1.7s-.2-1.9.5-3.1a14.1,14.1,0,0,1,1.3-1.8Z"/><path class="cls-4" d="M69.3,130.4l1.4-2.5a4.1,4.1,0,0,1-3,1.3,16.6,16.6,0,0,0,2.4-4.8s3.6-1.8,5.8.7a1.3,1.3,0,0,1,.1.6C76.6,131.2,71.2,130.6,69.3,130.4Z"/><path class="cls-11" d="M129.7,62a15.1,15.1,0,0,1-4.6,6.7c-7.1,5.3-16.2-4.3-16.2-4.3-1.7-6.2,4.4-10.8,10.5-12.2S133.4,53.1,129.7,62Z"/><path class="cls-10" d="M129.7,62a15.1,15.1,0,0,1-4.6,6.7c-1.5-2-3.3-6.3-10.6-2-2.5,1.4,5.2-12.1,4.9-14.5C126.3,50.6,133.4,53.1,129.7,62Z"/><path class="cls-6" d="M67,95.8h0l-.3.2h-.4l-.3.2-.4.2H65c0,.1,0,.1-.1.1H58.4a5.1,5.1,0,0,1-1.8-.9h-.3l-.2-.2h-.2l-1.5-1.4h-.1l-.5-.5h0l-.4-.4h0l-.4-.5c-1.1-1.3-2.2-2.7-3.5-4l-.2-.2-.4-.4a.2.2,0,0,1-.2-.2l-1.2-1h-.2l-1-.7-1.9-1h-.1a10.4,10.4,0,0,0-2.5-.8l-1-.2H39.7a11,11,0,0,1-2.6-.6l-.3-.2c-3.2-1.5-5.1-5.1-6.2-9a10.5,10.5,0,0,1-.4-1.7,12.3,12.3,0,0,1-.2-1.9A39.2,39.2,0,0,1,32,57c0-.1,7.5-1.2,14.1-5.6a23.7,23.7,0,0,0,3-2.3A10.5,10.5,0,0,0,50.8,47c2.5-4.5,14.8-10.4,27.1-15.4L82,30l10.5-4a10.2,10.2,0,0,0,2.2-.9c8.3-3.6,14.3-9.6,18.7-13.9s5.1-5,6.6-5.1c4-.3,9.7,5,11.5,5s3.9-.5,5,3.9c.1.5.3,1.3.6,2.3h0l.8,3.3h0c.1.6.3,1.3.4,1.9s.1.6.2.9h0c0,.2.1.3.1.5a1.1,1.1,0,0,1,.1.5,1.3,1.3,0,0,1,.1.6h0c0,.1.1.1.1.2a1.3,1.3,0,0,0,.1.6h0a4.3,4.3,0,0,0,.1.5h0c0,.2.1.3.1.5a.8.8,0,0,0,.1.4h0c0,.3.1.5.1.8h0c.7,4.8,1.1,9.9.2,14h0a10.4,10.4,0,0,1-.3,1.2l-.3.8-.3,1.1c-.2.4-.3.9-.5,1.3a26.4,26.4,0,0,1-4.5,8l-.4.4a16.9,16.9,0,0,1-2.6,2.2c-2.5,1.7-5.1,2.2-7.3,2.8h-.3l-.6.2h-1.2l-.7.2c0,.1-.1.1-.2.1l-.2.2c-.1,0-.2,0-.2.1h-.2c-.1,0-.1,0-.1.1h-.3l-.2.2h-.3a.2.2,0,0,1-.2.2h0c0,.1,0,.1-.1.1h-.1c0,.1-.1.1-.1.2a.1.1,0,0,0-.1.1c-.1,0-.1,0-.1.1H118a.1.1,0,0,1-.1.1l-.3.4-.3.2c0,.1-.1.1-.1.2H117a3.6,3.6,0,0,1-.9.8.2.2,0,0,1-.2.2l-1.1,1.1h0l-.2.2h0c-.1,0-.1,0-.1.1h0l-.3.2-.7.6-.3.3a2.7,2.7,0,0,1-.8.7h-.1a1,1,0,0,1-.5.4.8.8,0,0,1-.4.4h0l-2.2,1.9h-.3l-.3.2h-.1l-.8.6h-.2c-1.7,1.3-3.6,2.7-5.7,4.1l-.3.3L98,79.2l-.4.2-.4.3-.4.2h-.4l-.4.3-.8.5-.4.2-.8.4-.5.3-.4.2-2.2,1.2-.6.2L86.8,85h-.3l-.9.4-.5.2-.9.3-.4.2-1.7.6-.7.2h-.5l-.5.2-2.9.8H75.7"/><path class="cls-6" d="M139.6,42.6c-.4,2.3-.9,4.9-1.3,7.7s-1.3,8.6-1.7,12-.1,4.6.5,5.3.8,2.5.4,5.1c-1.6,10-.2,9.6-.2,11.4s-.9,2.7-.1,5.5c0,0-6.6,2.5-5.9-.7,1.8-7.4.9-11.5-.2-14.6-1.8-5.2-5.7-6.2-7.7-13.9a68.3,68.3,0,0,1-1.8-12.6v-.3"/><path class="cls-6" d="M76,84h.1a.3.3,0,0,0-.1.2c0,.5-.1,2.1-.3,4.3h0c-.4,5.8-.9,15.4,0,16.7h0v.2h.1v.6c.1.2.1.4.2.6v.4a.4.4,0,0,1,.1.3v.4a10,10,0,0,1-.2,1.6,1.3,1.3,0,0,1-.1.6c0,.2-.1.4-.1.7s-.1.4-.1.6a2,2,0,0,0-.1.7,1.7,1.7,0,0,0-.1.7v.3c0,.7-.1,1.2-.1,1.7h0v.4c0,4.1,1.2,4.1,1.2,5.5v.3h0v.4h0l-.3.8h0v.2c0,.1-.1.2-.1.3s-.1.2-.1.4v.2c-.1.1-.1.1-.1.2h0v.2a1.7,1.7,0,0,0,0,1h-.5l-.5.3a6.1,6.1,0,0,1-2.2.3h-.9a3.2,3.2,0,0,1-1.7-1.3h0a54.9,54.9,0,0,0,.7-7.4,8.7,8.7,0,0,0-.7-4,9.2,9.2,0,0,1-1-2h0c-.3-1.3,0-2.3,0-4.3S68,100.2,67,95.8h0v-.2h0c-.4-1.9-.9-3.7-1.2-4.9v-.2a9.5,9.5,0,0,1-.4-1.7h-.1"/><path class="cls-6" d="M46.6,78.4A10.8,10.8,0,0,1,44.3,85a11.9,11.9,0,0,1-7.9,4.7A19.1,19.1,0,0,0,29,92.5a18.9,18.9,0,0,0-3.3,2.4c-1.2.9-7.1-5.5-8.5-9.7a24.4,24.4,0,0,0,3.6-5.9q.6-1.2,1.2-2.7c2-4.3,2.7-7.8,4.2-11.6a5.4,5.4,0,0,1,.5-1.1A28.2,28.2,0,0,1,29,59.3,4,4,0,0,1,32,57c5.4-.7,12.9,13.1,14.3,19.5A8.1,8.1,0,0,1,46.6,78.4Z"/><path class="cls-12" d="M26.2,94.2c-.8,1.2-3.1,4.2-8,1.3s-3.9-8.7-1-10.3,1.4,1,3.5,2.6,3.9.2,4.7.9A4.6,4.6,0,0,1,26.2,94.2Z"/><g class="cls-13"><path class="cls-14" d="M65.2,88.5c0,.1,1.9,7.3,1.8,7.3a12.3,12.3,0,0,1-5.9,1.5c-6.9,0-8.7-7.5-14.8-11.3l-1.9-1a12.4,12.4,0,0,1-8,4.7A19.1,19.1,0,0,0,29,92.5c1.6-1.7,4-2.1,6.1-3.1s5.2-1.8,6.7-5.2c2.9-6.2,5.4-5.5,10.2-4.1a12.6,12.6,0,0,0,5.8.5,13.7,13.7,0,0,1,2.9-.2c2,.1,3.2,1.7,3.9,3.4a13.8,13.8,0,0,1,.6,2.6A12.5,12.5,0,0,1,65.2,88.5Z"/></g><path class="cls-15" d="M47.7,61.2a5.6,5.6,0,0,1-.8,2.6,9.1,9.1,0,0,1-4.4,2.9c-1.4.5-2.6-1-2.6-2.3A1.7,1.7,0,0,1,41,62.7c2.2-.6,4.5-1.2,5.5-3.1a.6.6,0,0,1,1.1.1A7.6,7.6,0,0,1,47.7,61.2Z"/><path class="cls-7" d="M42.8,71.1a1.6,1.6,0,0,1,1.4-1.7c2.1-.2,5.8-.4,7.4.6s3.3,4.8,3.7,6a.8.8,0,0,1-.2.7c-1.1.9-4.6,3-9.8-.9a6.4,6.4,0,0,1-2.5-4.4Z"/><path class="cls-7" d="M26,71.9c-.1.2-.1.5-.2.7a14.4,14.4,0,0,1-2.5,3.9A14.9,14.9,0,0,1,21,79.2c.2-.7.6-1.6,1-2.6,2-4.3,2.7-7.8,4.2-11.6A11.6,11.6,0,0,1,26,71.9Z"/><path class="cls-16" d="M20.4,91.9c-1.1-1.4,1.9-.2,2.9-.8S23.5,96.1,20.4,91.9Z"/><path class="cls-16" d="M17.7,90.5c1.7-.2-.5-1.4-.8-2.7S13.8,91.1,17.7,90.5Z"/><path class="cls-17" d="M37,75.9s-.6,1.9-1.6,1.9-1.2-.5-1.9-.1l.4-.9a2.8,2.8,0,0,1,1.3-1.7,1.3,1.3,0,0,1,1.7.6A.3.3,0,0,1,37,75.9Z"/><path class="cls-18" d="M36.9,75.7a1.9,1.9,0,0,1-1.7,1.7,1.6,1.6,0,0,1-1.3-.6,2.8,2.8,0,0,1,1.3-1.7A1.3,1.3,0,0,1,36.9,75.7Z"/><circle class="cls-19" cx="35.9" cy="75.8" r="0.4"/><path class="cls-9" d="M46.8,63.8a8.3,8.3,0,0,1-4.3,2.9c-1.4.5-2.6-1-2.6-2.3C41,66.2,44,66.4,46.8,63.8Z"/><path class="cls-7" d="M46.2,71.9c2.6.9,4.5-1,7.1,3.2a.6.6,0,0,1-.3,1c-1.8.5-6.4,1.4-8.1-2.8A1,1,0,0,1,46.2,71.9Z"/><path class="cls-5" d="M69.3,130.4s6.1-.7,6.7-4.7C76.6,131.2,71.2,130.6,69.3,130.4Z"/><path class="cls-7" d="M76,88.4h.7l.8-.2.7-.2,1.3-.3,2.3-.7h.3l.7-.3,1.4-.5.9-.3,1.7-.7.6-.3.5-.2.6-.3h.3l.7-.3.6-.3,2-1,1-.5a25.9,25.9,0,0,0,3.3-1.9l.8-.4L99,78.6l.8-.5.6-.4.4-.3.7-.4.3-.3,1.1-.7,1.4-1,1.1-.8,1-.7a1,1,0,0,1,.5-.4l.6-.5h.2l.8-.6h.1l.3-.2.3-.2,1.6-1.4.3-.2h0l.3-.2h0l.2-.2.5-.4c.1,0,.1-.1.2-.2h.2l.7-.6.3-.3.7-.6.3-.2h.3l.6-.5h0l.5-.6a.2.2,0,0,0,.2-.2h.4l.2-.2.3-.3h.2l.7-.8a.1.1,0,0,0,.1-.1h.2a.1.1,0,0,1,.1-.1h.1c0-.1.1-.1.1-.2h.1c.1,0,.1,0,.1-.1h0a.2.2,0,0,0,.2-.2h.8c0-.1,0-.1.1-.1h.2c0-.1.1-.1.2-.1l.2-.2c.1,0,.2,0,.2-.1h.9l.4-.2h.6c0-.1.1-.1.2-.1h.7a4.1,4.1,0,0,0-1.2-1.8,3.5,3.5,0,0,0-5.1.4l-.4.5a32.5,32.5,0,0,1-2.3,2.9c-1.1,1.4-2.3,2.6-3.4,3.8-18.1,19-35,16.1-35,16.1v1.9"/><path class="cls-7" d="M67,95.8a12.3,12.3,0,0,1-5.9,1.5c-6.9,0-8.7-7.5-14.8-11.3,4.5,2.2,15.4,6.9,18.9,2.5Z"/><path class="cls-20" d="M145.9,43.2c-4.6,6.1-11.3,2.2-21.9,6.4-2.4.3-1.1-1.3-.9-2.4l3.7-1c9.5-2.4,12.4.2,16.8-4.2,2.8-2.7,1.7-7.1-1-11.2a34.7,34.7,0,0,0-3.5-4.3l-1.4-6.7,2.9,3C149.6,32.7,149.1,39,145.9,43.2Z"/><path class="cls-17" d="M124.1,46.9c-6,1.3-6.6,4.4-10.2,6.7-.5.3,1,.2,2.6-1.2-1.9,2.6-3.3,2.9-3.3,2.9s0,.3,1.4-.1a3.8,3.8,0,0,1-1.1.9,5.2,5.2,0,0,0,1.8-.7,6.8,6.8,0,0,1-4.5,1.8c-1.4.1,4.3,1.1,6.3-2.7-.7,1.5-1.5,3-3.1,3.5a4.2,4.2,0,0,0,3.1-1.7l-.6,1c-.1.2.1.3.2.2,1.9-1.5,2.4-4.2,4.4-6.5-.8,1.4-1.3,2.9-1.9,4.2s.2.4.3.2c1.2-2.4,2.1-5,5-6,0,0-1,0-.7-.5s1.7-1,1.7-1.2-2.2.6-2.5.5S124.1,46.9,124.1,46.9Z"/><path class="cls-21" d="M145.4,41.2c-3.3,6.8-10.3,3.6-18.6,5,9.5-2.4,12.4.2,16.8-4.2,2.8-2.7,1.7-7.1-1-11.2a34.7,34.7,0,0,0-3.5-4.3l-1.4-6.7C139,21.2,149,33.8,145.4,41.2Z"/></g></g></svg>