<svg xmlns="http://www.w3.org/2000/svg" viewBox="0 0 84 66"><defs><style>.cls-1{fill:#d79d40;}.cls-1,.cls-2,.cls-8{stroke:#d28e3a;stroke-miterlimit:10;}.cls-1,.cls-2{stroke-width:0.3px;}.cls-2,.cls-3,.cls-8{fill:#ebb146;}.cls-4{fill:#d28e3a;}.cls-5{fill:#a86828;}.cls-6{fill:#ffd69a;}.cls-7{fill:#a33322;}.cls-8{stroke-width:0.28px;}</style></defs><g id="Layer_52" data-name="Layer 52"><g id="CubF4_03"><path class="cls-1" d="M18.8,34.5s8.9,12,10.1,13.8-.6,2-.6,2-5.1,2.4.2,3.3c0,0,.1,1,2,.4s1.7-1.5,2.7-1.9a1,1,0,0,0,.6-1.3c-1.4-3.6-5.4-14.3-2.3-14.7"/><path class="cls-1" d="M56.2,20.2s-2.6,5.9,2.1,7.8c0,0,2.4.2,1.3,2.7s-.4,3.5.4,5.5-4.7,3.2-5.7,2.8-2.6-1.4,1.4-3.2c0,0,.6-3.7-.4-4.2s-8.8-4.1-9-8.3,1-3.6,1-3.6"/><path class="cls-2" d="M79.4,18.2a1.5,1.5,0,0,0-.9-.7l-.2.3c-1.2,1.6-3.4,4.6-5.3,4.6s-2.3-1.1-3.3-3.1S67.1,8.7,65.3,6.1c0,0-3.7-7-14-2.5,0,0-3.3,1.4-4.4,2.9s-7.7,7-12.5,8.4c0,0-2.5.4-5.8,4.1l-4.4,4s-1.1-5.1-7.7-4.8A3.5,3.5,0,0,0,15,14.5a3.5,3.5,0,0,0-4.5.9,6.8,6.8,0,0,0-.5,3.4,6,6,0,0,0,1.3,2.7l-.7.9a19.2,19.2,0,0,0-1.3,1.7c-.3.3-.4.3-.5,1.1a4.6,4.6,0,0,0,.3,2.6,6.3,6.3,0,0,1-.6,4.3c-.3.6-.9,1.3-.7,2.2a2.7,2.7,0,0,0,.6,1.2A4.3,4.3,0,0,0,8.7,37,4.2,4.2,0,0,0,14,38.4l.5-.3.3-.3a27.3,27.3,0,0,0,2.3-2.5c0,.1,2-.5,2.9.7s9.2,12.1,12.4,8.3l.3-.2a15.9,15.9,0,0,1,2.6-1.4,10.8,10.8,0,0,1,3.1-3.3h0a23.2,23.2,0,0,1,2.1-2.5,22.1,22.1,0,0,1,5.3-3.9s5.2-3,7.4-6.7l.2-.3a12.1,12.1,0,0,0,.5-1.4v.2a5.5,5.5,0,0,1,2.9-1.9,4.8,4.8,0,0,1,2.6-2,9.8,9.8,0,0,1,2.3-.6,4.6,4.6,0,0,1,2.9-.9h1a30.3,30.3,0,0,0,.3-5.9v-.2a11.6,11.6,0,0,1,.6,1.5c1.6,4.5,3,8.5,5.8,9.3s4.8-1.2,5.9-2.6S80,19.4,79.4,18.2Z"/><path class="cls-3" d="M17,35.2s5.2.3,6-2.8a10.1,10.1,0,0,1,2.5-4.6"/><path class="cls-4" d="M17,35.2c2.2-.1,5.2-.5,5.9-2.9a7.2,7.2,0,0,1,1-2.4,8.3,8.3,0,0,1,1.6-2.1A10.2,10.2,0,0,0,24.1,30c-.9,1.2-.7,2.9-1.9,3.9A7.3,7.3,0,0,1,17,35.2Z"/><path class="cls-3" d="M23.6,27.7a5.2,5.2,0,0,0,6.1-.1,4.5,4.5,0,0,0,1.2-2.4,3.7,3.7,0,0,0-1.4-2.8c-1.5-1.2-4.1-.9-5.9.9"/><path class="cls-4" d="M23.6,27.7c1.9,1.1,4.7,1.3,6.3-.5a5.9,5.9,0,0,0,.9-2A5.3,5.3,0,0,0,30,23c-1.7-2-4.7-1.3-6.4.3,1.6-1.7,4.9-2.5,6.6-.5a4.1,4.1,0,0,1,.8,2.4,4,4,0,0,1-.9,2.1c-1.7,1.9-4.6,1.7-6.5.4Z"/><path class="cls-3" d="M25.2,24.5a2.7,2.7,0,0,1,3.3-.5,3.1,3.1,0,0,1,.8,1.5,3.7,3.7,0,0,1-.7,1.4,3,3,0,0,1-3.4,0"/><path class="cls-4" d="M25.2,24.5c.9-1,2.7-1.5,3.7-.3a2.4,2.4,0,0,1,.5,1.3,2.2,2.2,0,0,1-1.7,1.9,2.8,2.8,0,0,1-2.5-.5,3,3,0,0,0,2.4.3,1.7,1.7,0,0,0,1.1-2.8c-.9-1.1-2.5-.7-3.5.1Z"/><path class="cls-3" d="M63.5,6.3s4.2,5,1.8,15.2"/><path class="cls-4" d="M63.5,6.3c3.2,4.3,3.1,10.2,1.9,15.3h-.3c1.1-5,1.3-10.7-1.6-15.2Z"/><path class="cls-4" d="M10,34.3a1.9,1.9,0,0,0,.1,1.5,3.2,3.2,0,0,0,4.6.3l1.2-1.4a9.1,9.1,0,0,1-1.1,1.6,3.8,3.8,0,0,1-2.5.9,3.1,3.1,0,0,1-2.4-1.3,1.8,1.8,0,0,1,.1-1.6Z"/><path class="cls-5" d="M9.9,34.6a1.1,1.1,0,0,1-1.2,1.2,1.1,1.1,0,0,1-.8-.8,1.9,1.9,0,0,1-.2-.8c0,.2.2.6.2.8a1,1,0,0,0,2-.4Z"/><path class="cls-5" d="M8.4,28.4c.2-.9.9-.8.9-.8a2.9,2.9,0,0,1,1.1.7c-.2.5-1.1.6-1.2-.3S8.8,27.8,8.4,28.4Z"/><path class="cls-6" d="M9.4,27.8s-.2.5.2.7a.4.4,0,0,0,.6-.2A1.9,1.9,0,0,0,9.4,27.8Z"/><path class="cls-7" d="M9.9,28.2c0,.1-.2.2-.3.2a.2.2,0,0,1-.1-.3c0-.2.1-.2.2-.2S9.9,28.1,9.9,28.2Z"/><path class="cls-5" d="M13.5,29.8c.2-1.5,1.3-1.3,1.4-1.3a5.3,5.3,0,0,1,1.8,1,1,1,0,0,1-1.9-.3C14.7,29.1,14.1,28.8,13.5,29.8Z"/><path class="cls-6" d="M15,28.7s-.3.9.5,1.2a.5.5,0,0,0,.8-.4A2.8,2.8,0,0,0,15,28.7Z"/><path class="cls-7" d="M15.9,29.3a.4.4,0,0,1-.4.4c-.2,0-.3-.3-.3-.5s.2-.4.4-.3S16,29.1,15.9,29.3Z"/><path class="cls-4" d="M9.4,27.8c1.6.3,1.9,2.2,1.3,3.5a24.3,24.3,0,0,0-1.4,2h0c.2,1.5,1.6,1.4,2.7.9-1.2.8-2.8.8-3.1-.9a11.3,11.3,0,0,1,1.5-2.1c.5-1.2.4-2.8-1-3.3Z"/><path class="cls-8" d="M11.3,21.5a12.5,12.5,0,0,1,5.3-3.3"/><path class="cls-4" d="M53.5,38.2a2.9,2.9,0,0,1,2.4-1.6,3,3,0,0,0-2.2,1.7Z"/><path class="cls-4" d="M54.7,39.1c0-1.1,1.1-1.6,2-1.8-.7.3-1.8.8-1.7,1.8Z"/><path class="cls-4" d="M26.6,53A2.9,2.9,0,0,1,29,51.4a2.8,2.8,0,0,0-2.1,1.7Z"/><path class="cls-4" d="M28.6,53.7c0-1.1,1.1-1.6,2-1.9-.8.3-1.8.9-1.7,1.8Z"/><path class="cls-2" d="M51.8,24.2c3.8-.2,8.8,4.7,13.4,3.7,0,0,5.1,2.7,4.4,7.1,0,0-3.9,3.2-.6,4.5s4.8-2.9,4.8-2.9,3-2.7-.1-4.4-1.2-8.7-1.9-9.8-1.2-.6-2.3-.7-3.8-4-3.9-8.5"/><path class="cls-3" d="M67.8,38.6a3.3,3.3,0,0,1,1.7-2.3"/><path class="cls-4" d="M67.7,38.6a2.9,2.9,0,0,1,1.8-2.3A2.8,2.8,0,0,0,68,38.6Z"/><path class="cls-3" d="M69.4,39.6s-.5-1,1.2-2.3"/><path class="cls-4" d="M69.3,39.6c-.3-1,.6-1.8,1.3-2.3s-1.4,1.3-1,2.2Z"/><path class="cls-2" d="M25.7,37.8l3.7,4.1a14.6,14.6,0,0,1,3.4,7.2,36,36,0,0,0,.7,4c.8,2.1-2.1,2.3-2.1,2.3s-4.9,1.6-.7,4.2a4.1,4.1,0,0,0,2,0c1.6-.6,2.2-1,3.4-1a1.2,1.2,0,0,0,1-1.1c-.3-2.1,1.4-6.6,1.6-9.9s-.9-11.6.7-11.3"/><path class="cls-3" d="M30.7,59.6a4.2,4.2,0,0,1,2.7-2.3"/><path class="cls-4" d="M30.5,59.5a4.1,4.1,0,0,1,2.9-2.2,4.2,4.2,0,0,0-2.6,2.3Z"/><path class="cls-3" d="M29.3,58.2s1.1-2,2.6-2"/><path class="cls-4" d="M29.1,58.1c.7-.9,1.6-1.9,2.8-1.9a3.5,3.5,0,0,0-2.5,2.1l-.3-.2Z"/></g></g></svg>