<svg xmlns="http://www.w3.org/2000/svg" xmlns:xlink="http://www.w3.org/1999/xlink" viewBox="0 0 161 140"><defs><style>.cls-1{isolation:isolate;}.cls-2{fill:#d6962f;}.cls-3{fill:#a33322;}.cls-10,.cls-13,.cls-18,.cls-20,.cls-21,.cls-22,.cls-4,.cls-7,.cls-8{mix-blend-mode:multiply;}.cls-4{fill:url(#linear-gradient);}.cls-5{fill:#cf8c29;}.cls-6{fill:#ba6228;}.cls-7{fill:url(#linear-gradient-2);}.cls-8{fill:url(#linear-gradient-3);}.cls-9{fill:#ebb146;}.cls-10{fill:url(#linear-gradient-4);}.cls-11{fill:#f8c573;}.cls-12,.cls-25,.cls-26{fill:none;}.cls-13{fill:url(#linear-gradient-5);}.cls-14{fill:#d47428;}.cls-15{fill:#c06628;}.cls-16{fill:#ffd9a5;}.cls-17{fill:#ffd69a;}.cls-18{fill:url(#linear-gradient-6);}.cls-19{fill:url(#linear-gradient-7);}.cls-20{fill:url(#linear-gradient-8);}.cls-21{fill:url(#linear-gradient-9);}.cls-22{fill:url(#linear-gradient-10);}.cls-23{fill:url(#linear-gradient-11);}.cls-24{fill:#d25527;}.cls-25{stroke:#000;stroke-width:0.33px;}.cls-25,.cls-26{stroke-miterlimit:10;}.cls-26{stroke:#a33322;stroke-width:0.5px;}</style><linearGradient id="linear-gradient" x1="120.11" y1="60.94" x2="119.91" y2="54.67" gradientUnits="userSpaceOnUse"><stop offset="0.11" stop-color="#d38028"/><stop offset="1" stop-color="#ebb146"/></linearGradient><linearGradient id="linear-gradient-2" x1="101.9" y1="85.9" x2="101.9" y2="76.91" xlink:href="#linear-gradient"/><linearGradient id="linear-gradient-3" x1="48.86" y1="106.28" x2="47.06" y2="111.92" xlink:href="#linear-gradient"/><linearGradient id="linear-gradient-4" x1="90.69" y1="94.7" x2="90.69" y2="78.99" xlink:href="#linear-gradient"/><linearGradient id="linear-gradient-5" x1="65.84" y1="94.57" x2="65.84" y2="67.05" xlink:href="#linear-gradient"/><linearGradient id="linear-gradient-6" x1="39.84" y1="54.35" x2="37.08" y2="63" xlink:href="#linear-gradient"/><linearGradient id="linear-gradient-7" x1="26.09" y1="61.43" x2="29.28" y2="52.36" xlink:href="#linear-gradient"/><linearGradient id="linear-gradient-8" x1="30.53" y1="50.9" x2="35.2" y2="42.95" xlink:href="#linear-gradient"/><linearGradient id="linear-gradient-9" x1="71.01" y1="124.3" x2="71.01" y2="106.76" xlink:href="#linear-gradient"/><linearGradient id="linear-gradient-10" x1="120.06" y1="87.35" x2="119.48" y2="68.68" xlink:href="#linear-gradient"/><linearGradient id="linear-gradient-11" x1="53.95" y1="86.4" x2="41.27" y2="42.95" gradientUnits="userSpaceOnUse"><stop offset="0.09" stop-color="#832619"/><stop offset="1" stop-color="#a33322"/></linearGradient></defs><g class="cls-1"><g id="Layer_45" data-name="Layer 45"><path class="cls-2" d="M113.4,47.3s10.2,26.3,20.1,6.1l.7.3c-2.9,7-6.5,14.3-17.6,6.3A22.5,22.5,0,0,1,113.4,47.3Z"/><path class="cls-3" d="M133.5,53.4s-1.5-4.4.6-7.9a3.2,3.2,0,0,0,0,1.6c1.9-4.3,6.3-7.4,7.8-7.5a28.3,28.3,0,0,0-3.2,3.3c3-1.6,7.5-3.5,7.9-5,.5,2.2-3.7,7.6-7.2,9.2,3.4-.6,4.3-2.2,4.3-2.2-1.5,2.6-5.7,5.3-5.7,5.3a8.3,8.3,0,0,0,3.9-2.2c-6.2,6.3-7.3,6.3-8,6.4A.9.9,0,0,0,133.5,53.4Z"/><path class="cls-4" d="M113.3,49a24.4,24.4,0,0,0,3.3,11c4.3,3.1,7.5,3.9,10,3.3-1.9.1-4-1-7-3a7,7,0,0,0,.1-2.5,32,32,0,0,1-5.2-8Z"/><path class="cls-5" d="M84.8,62.4s4.4,7.5,9.5,8.4,3.8,9.3,2.9,9.9-3.1,1.2-2.7,4.8,7.4,2.3,9.1.8.3-3.1,1.1-3.6,1.8-11.8,1-13.8-4.5-2-5.8-7S99.5,49.7,95.4,45C96,49.7,90.8,58.9,84.8,62.4Z"/><path class="cls-6" d="M101.4,86.6c-.7-1.4-.5-2.9.2-3.3-1.3.2-1.2,2.1-.9,3.3a5.8,5.8,0,0,1-3.5,0c-.1-1.2,0-3,.8-3.6-1.2.4-1.4,1.7-1.5,3.4a1.9,1.9,0,0,1-1.1-.4c-.5-1.6.2-3.6,1-4-1.1,0-1.6,2.3-1.7,3.3s-.2-.9-.2-.9a2.1,2.1,0,0,0,0,1.1c1.2,2.1,6.3,2.3,8.5,1.2l.6-.4S102,86.9,101.4,86.6Z"/><path class="cls-7" d="M97.8,74.6A6.8,6.8,0,0,1,98,76c2.1.5,6.3,2.4,4.4,10.9l1.2-.6c.2-2,.3-3.1,1.1-3.6s1.1-5.6,1.3-9.6C103.8,72.1,100.4,71.5,97.8,74.6Z"/><path class="cls-5" d="M41,81.5s2.8,21.2,1.5,29c-2.8,1.4-3.1,2.1-3.2,5.5,2.5,3.6,11.5,2.5,13-1-.2-2.2-.4-4.8.9-5.4,1.3-11.4,6.5-22.3,6.1-29l.6.9c.6-2,0-5.6,0-5.6l.5,1.7c.6-1.6,1.2-6.3-1.5-8.5S48,62.5,41,81.5Z"/><path class="cls-6" d="M46.6,117a4.7,4.7,0,0,1,.9-3.6c-1.1.3-1.5,2-1.6,3.8a9,9,0,0,1-3.5-.2c.3-3.5,1.3-4,1.9-4.3-1.8,0-2.2,2.4-2.6,4.3a2.4,2.4,0,0,1-1.4-1c.1-2.9,1.1-3.6,1.9-3.9-1.8,0-2.4,2.4-2.5,3.9l-.3-.7a2,2,0,0,1-.1.7c2.5,3.6,11.5,2.5,13-1A7.1,7.1,0,0,1,46.6,117Z"/><path class="cls-8" d="M53.2,109.6a57.1,57.1,0,0,1,1.3-7.2l-9.1-3.5H45s5.9,9.8,5.1,14.7a4.8,4.8,0,0,0-2.2,4.3h0c2.1-.4,3.8-1.4,4.4-2.8S51.9,110.2,53.2,109.6Z"/><path class="cls-9" d="M47,89.9s5.9,9.5,22.2,7.5S88.3,83.9,91.3,79.6s12.6-5.6,15.4-4.9,10.2-13.1,8.1-23.5-13.3-13.1-25.6-8.8S60.9,55.7,60.9,55.7C55.2,62.3,47,89.9,47,89.9Z"/><path class="cls-10" d="M106,71.6c-7.7-2.7-17.8,3.5-20.5,8.9s-7.6,3.9-7.6,3.9L73.7,96.5c12.3-3.4,14.9-13,17.6-16.9s12.6-5.6,15.4-4.9a1.3,1.3,0,0,0,1-.2A23.8,23.8,0,0,0,106,71.6Z"/><path class="cls-11" d="M42.5,110.5c-2.7,1.3-3,2-3.1,5,.2-3.3,1.5-4.1,3.4-4.7s1.4-12.3,1.4-12.3l-1.7-2.4C42.9,101.6,43,107.2,42.5,110.5Z"/><path class="cls-12" d="M71.2,75H71"/><path class="cls-9" d="M77.9,84.4h0c0,.3.6,3.6,0,5.5l-.6-.8a22.3,22.3,0,0,1-.8,6.4h0l-.6,2.3h0a19.4,19.4,0,0,1-.5,2c0,.2-.1.3-.2.5s-.5,1.9-.8,2.9-.1.6-.2.9l-.9,3.3a6.4,6.4,0,0,0-.2.7,1.4,1.4,0,0,1-.2.6v.6l-.3,1.4a1.9,1.9,0,0,0-.2.8l-.3,1.1v.2l-.3,1.3c0,.3-.1.5-.1.8h0c-.1.4-.1.7-.2,1h0c0,.3-.1.7-.1,1a3.4,3.4,0,0,0-.1,1c-1.3.7-1.1,3.3-.9,5.5h-.2c0,.1,0,.1-.1.1h0a.3.3,0,0,0-.1.2.2.2,0,0,0-.2.2h-.4c0,.1-.1.1-.1.2h-.8c0,.1-.1.1-.2.1h-.1l-.3.2H62.3l-1.7-.2H60l-.5-.2-.4-.2-.3-.2-.6-.4-.3-.2h0l-.2-.2-.2-.2c0-.1-.1-.2-.2-.3v-.6h0a2,2,0,0,0,.1-.7v-.6a.1.1,0,0,0,.1-.1v-.4c.1-.2.1-.4.2-.6a.3.3,0,0,0,.1-.2h.1a1.3,1.3,0,0,1,.3-.5h.1a5.3,5.3,0,0,1,1.1-.9h.2l.9-.4a53.4,53.4,0,0,0,.3-6.2v-1.5h0v-.5h0a9.1,9.1,0,0,1-.1-1.7v-2.2c-.1-1.8-.3-3.7-.4-5.4a5.7,5.7,0,0,1-.1-1.3v-.2c-.1-.4-.1-.8-.2-1.2h0a3.4,3.4,0,0,0-.1-1h0v-.8a2.8,2.8,0,0,1-.1-.9c0-.1-.1-.3-.1-.4s-.1-.7-.1-1.1v-.3L59,89.9a54.3,54.3,0,0,1,2.7-6.2h0c1.8-3.4,3.5-5.6,5.2-6.9"/><path class="cls-9" d="M77.9,84.4l.5,1.6a8.4,8.4,0,0,0,.4-1.4"/><path class="cls-11" d="M67,52.4l1.1.9S91,39.3,105,41.1c-4.5-1.2-10-.7-15.8,1.3A185.8,185.8,0,0,0,67,52.4Z"/><path class="cls-11" d="M59.5,94.2c.7,6.6,1.9,19.2,1,24.8-2.6,1.3-3,2-3.2,4.8.6-2.8,1-3.4,3.6-4.7,1.3-4.1-.4-26.3-.4-26.3Z"/><path class="cls-13" d="M59.8,97.7s3.1-1.4,2.9-3.2c.8,1.7,1.4,1.6,1.4,1.6a32.4,32.4,0,0,1-.6-5.2,6,6,0,0,1,.6,1.9,11,11,0,0,0,1-4.1l.9,1.8c.7-4.1,1-8.9,1-8.9a14.6,14.6,0,0,0,1.1,3.7c2.4-5.6,1.9-13,1.9-13l1.1,3.1c1.3-4.5-.2-14.2-.2-14.2s.7,1.7.7,1.7c.9-3.4-1.2-9.4-2.9-10C63.5,64.3,59.8,97.7,59.8,97.7Z"/><path class="cls-14" d="M64.5,125.5a5.6,5.6,0,0,1,.9-3.6c-1,.2-1.5,2-1.6,3.8a8.5,8.5,0,0,1-3.4-.2c.3-3.5,1.2-4,1.9-4.3-1.8-.1-2.2,2.4-2.6,4.3a3.9,3.9,0,0,1-1.5-1c.2-2.9,1.2-3.6,1.9-3.9-1.7,0-2.3,2.4-2.4,3.9l-.4-.7v.6c2.4,3.7,11.5,2.5,13-.9A7.2,7.2,0,0,1,64.5,125.5Z"/><path class="cls-3" d="M55.7,105.7s-12.2-2.6-15.6-11.2a32.1,32.1,0,0,1,.5,3.2,25.9,25.9,0,0,1-4-5.9c.4,4,1.1,5,1.1,5-5.4-3.7-12-14.6-12.7-17.5a8.4,8.4,0,0,0,1.2,4.4c-3.1-2.3-4.6-14.1-4.6-14.1a19.4,19.4,0,0,0-.5,3.1c-1.7-2.3-7.5-7.7.5-20.5-.9-2.2-2.6-8.9-2.5-10.9l.7,1.9c.2-4.4,3.2-9.3,5.5-10.5l-.6,2.6,1.5-1c.4,2.8,0,1.7,0,1.7.8-1.8,8.5-5.6,12-5.7l-1.8,1.4c2.6-.7,18.8-3.9,25.2,5.2l-1.4-.4c3.4,3.9,6.9,9.9,8,10.1a2.1,2.1,0,0,1-1.7,0c1.8,2.4,4.7,10.8,4.4,13.1l-1.2-2c.8,5-.1,12.2-.7,13.8l-.2-3.3a115.3,115.3,0,0,1-3,12.8l-.4-2.6c-.4,3-2.2,7.1-1.7,9a5.3,5.3,0,0,0-1.5-2.1,8.5,8.5,0,0,1,0,3.9A3.6,3.6,0,0,1,61,87.9a11.1,11.1,0,0,0,1.5,4.8,2.2,2.2,0,0,1-1.9-.7c1.6,3.3-2.6,11.2-2.6,11.6v-2.9C57.3,100.7,55.7,105.7,55.7,105.7Z"/><path class="cls-15" d="M25.8,72.2s1.8,6,4.8,9.8c4.1-1.7,4.3-6.8,4.4-8.3a20.7,20.7,0,0,1-.4,5.5,10,10,0,0,0,2.7-6.8,15,15,0,0,1-.4,5c2.3-2.3,5.3-8,5.5-10.3a4.6,4.6,0,0,1,.7,2.3c2.1-2.8,1-7.1,1-7.1a9.2,9.2,0,0,1,.6,7.1c3.8-3.9,3.4-10.7,3.1-11.8,1,3,.9,5.1,2.3,6.2-.5-1.6,1.2-6.8-1.6-9,.9.1,1.7.9,2.7,3.1a5.7,5.7,0,0,0-2.5-5.3c.8-1.3,4.9-1.3,5.9-.4-.9-2.6-5.6-4.3-5.6-4.3,2.5-1,5.2-1.5,6.4,0-1.3-2.6-5.3-2.6-8-2.5a12,12,0,0,1,3.1-1.3c-2.5-1.3-8.8-3.2-11.2-2,1.4-1.9,5.7-2.7,7.7-2.3a10.6,10.6,0,0,0-10.4,2.1,15,15,0,0,1,1.5-2.6,3.8,3.8,0,0,0-2.2,1.9,10.2,10.2,0,0,1,.7-4.7c-1.4,1.1-1.9,4.3-1.9,4.3-1.2-1.8-6.5-3.6-6.5-3.6a6.6,6.6,0,0,1,2.4,2.7c-1.3-1-4.9-.9-4.9-.9,2.7.9,2.7,1.4,2.7,1.4-2.6.5-5.5,3.4-6,5.3.9-1.1,2-1.9,2-1.6-3.5,5.3-.4,7-1.4,8.5a.9.9,0,0,0,.8-.4c-.1,2-2.2,5.2-2.2,5.2A6.1,6.1,0,0,0,23.2,56c-1.8,2.9-3.3,6.4-1.6,10.5a6.1,6.1,0,0,1,.3-1.5c.3,2.6,2,8.7,3.1,10.4-.4-3.2,0-4.3,0-4.3a5.6,5.6,0,0,0,.5,2.5A12.1,12.1,0,0,1,25.8,72.2Z"/><path class="cls-9" d="M36,66.6s1-4.5,5.3-4.3c4.8-2.4,9.7-18.8-6.7-17.9-.7-1.1-4.9-2.4-7.7-.4s-4.8,6.8-.9,10.3S31.8,65.7,36,66.6Z"/><path class="cls-16" d="M22.1,59.4S20.2,65.2,24,68a10.4,10.4,0,0,0,4.2,5.2v-.5a3.1,3.1,0,0,0,2.1,1.2c-.6-1.3,0-1.8,0-1.8v.7c.4,0,2.8-1.7,2.9-2.4S36,67.7,36,66.6s-2.1-4.3-5.2-5.4C28.8,62.6,25.2,61.8,22.1,59.4Z"/><path class="cls-3" d="M25.2,63s-.1,3.6,1,4.7,5,2.9,6.4,2.5c-.8.6-4,.3-6.2-1.7s-2.4-.4-2.4-.4l-.4-.4c1.2-.4,1.4-2.8.8-5S25.2,63,25.2,63Z"/><path class="cls-3" d="M27.2,53c1.9-1.2,0-2.5,0-2.5a8.4,8.4,0,0,0-2.1-1.1c-.2.7-.3,3.3,2.3,2.5C27.5,52.1,27.7,52.4,27.2,53Z"/><path class="cls-17" d="M27.2,51.6a4.5,4.5,0,0,0-.2-.8,3.5,3.5,0,0,0-1.7-1C25,50.9,25.8,52.5,27.2,51.6Z"/><path class="cls-3" d="M31.5,67.6a.5.5,0,0,1-.5.4.4.4,0,0,1-.4-.4.5.5,0,0,1,.4-.5A.5.5,0,0,1,31.5,67.6Z"/><path class="cls-3" d="M31.5,65.5l-.2.2-.3-.2a.3.3,0,0,1,.3-.3C31.4,65.2,31.5,65.3,31.5,65.5Z"/><path class="cls-3" d="M22.5,61.8c0,.2-.1.3-.2.3s-.2-.1-.2-.3a.2.2,0,0,1,.2-.2Z"/><path class="cls-3" d="M32.9,66.3a.3.3,0,0,1-.6,0,.3.3,0,1,1,.6,0Z"/><path class="cls-3" d="M29.6,64.4a.4.4,0,1,1-.4-.4A.4.4,0,0,1,29.6,64.4Z"/><path class="cls-3" d="M31.4,64.1a.3.3,0,0,1-.3.3.3.3,0,1,1,0-.6A.3.3,0,0,1,31.4,64.1Z"/><path class="cls-3" d="M23.2,64.6c0,.1,0,.2-.2.2a.2.2,0,0,1-.2-.2l.2-.2C23.2,64.4,23.2,64.5,23.2,64.6Z"/><path class="cls-3" d="M23.5,63.2a.4.4,0,0,1-.3.4.4.4,0,0,1-.4-.4.4.4,0,0,1,.7,0Z"/><path class="cls-3" d="M24.4,63.8a.3.3,0,0,1-.6,0l.3-.2Z"/><path class="cls-3" d="M22.1,59.2s5.9,3.7,8.7,2c-.3,1.3-1.8,2.1-3.6,1.6a3.2,3.2,0,0,0-2.5.4c-.7-.9-.2-1.4-1.6-2A1.7,1.7,0,0,1,22.1,59.2Z"/><path class="cls-3" d="M21.3,52.8a14.5,14.5,0,0,1-1.9-4.6,11.8,11.8,0,0,0,1.5,2C21.9,51.4,22.6,52.3,21.3,52.8Z"/><path class="cls-18" d="M36,66.6s1-4.5,5.3-4.3c4.6-2.3,9.2-17.2-4.4-18,8.7,1.7,6.8,11.5,4.6,13.9s-4.6.1-6.4-.8c1,2.2,1.1,6,.2,7.2a3.2,3.2,0,0,0-.7-.8c1.1,3.2-1.5,6.6-1.5,6.6C34.6,70.5,36,67.7,36,66.6Z"/><path class="cls-11" d="M34.6,44.4c-.7-1.1-4.9-2.4-7.7-.4s-4.8,6.8-.9,10.3l.3.3.2-.7s-2.7-.7-2.1-5.1S29.5,41.3,34.6,44.4Z"/><path class="cls-19" d="M22.1,59.2a21.3,21.3,0,0,1,5.6-6.6c1.8-.3,4.6.7,5.2,1.8a35.5,35.5,0,0,1-2.1,7.1C27.8,61.9,25.2,62.3,22.1,59.2Z"/><path class="cls-11" d="M22.8,58.9a28.3,28.3,0,0,1,4-5.6,21.4,21.4,0,0,0-4.7,5.9,8,8,0,0,0,5.4,2.6C26.2,61.4,23.1,60.3,22.8,58.9Z"/><path class="cls-9" d="M102.8,70.8s4.4,7.6,9.5,8.4,3.8,9.4,2.9,10-3.1,1.2-2.7,4.8,7.4,2.2,9,.8.4-3.1,1.2-3.7,1.8-11.7,1-13.7-4.5-2.1-5.8-7-1-19.4-5.1-24.1C113.3,51,108.7,67.4,102.8,70.8Z"/><path class="cls-14" d="M119.4,95.1c-.7-1.4-.5-2.9.2-3.3-1.3.2-1.2,2.1-.9,3.3a6.8,6.8,0,0,1-3.5,0c-.1-1.3,0-3.1.8-3.7-1.2.5-1.5,1.8-1.5,3.5a1.8,1.8,0,0,1-1.1-.4c-.5-1.7.2-3.6,1-4-1.2,0-1.7,2.2-1.8,3.2l-.2-.8a4.5,4.5,0,0,0,.1,1.1c1.2,2.1,6.3,2.2,8.4,1.2l.6-.4A5.5,5.5,0,0,1,119.4,95.1Z"/><path class="cls-11" d="M41.3,62.3c2.4-1.2,4.7-5.7,4.6-9.9-.2,4-3.2,8-5,9.4-4.3.1-4.9,4.8-4.9,4.8S37,62.1,41.3,62.3Z"/><path class="cls-3" d="M32.6,55.8c0-2.8,2.1-2.9,2.2-2.9a11.3,11.3,0,0,1,3.7,1.3c-.5,1.4-2.9,2.5-3.7,0C34.6,54.1,33.4,53.8,32.6,55.8Z"/><path class="cls-17" d="M35.1,53.3s-.3,1.6,1.1,1.9,1.5-1,1.5-1S35.1,53.3,35.1,53.3Z"/><path class="cls-3" d="M36.9,54.1a.7.7,0,1,1-1.4,0,.7.7,0,1,1,1.4,0Z"/><path class="cls-3" d="M26.8,50.7a.5.5,0,1,1-.5-.6A.6.6,0,0,1,26.8,50.7Z"/><path class="cls-20" d="M31.5,50.1s1-3.8,2.8-5C32.8,45.2,31.4,48.6,31.5,50.1Z"/><path class="cls-21" d="M71.1,118c.9-7.2,3.3-14.3,4.8-20.2-2,6.3-6.7,19.9-7.8,23.3-2.1.9-2,5.2-2,5.2,2-.5,3.6-1.5,4.2-2.8S69.9,118.7,71.1,118Z"/><path class="cls-22" d="M117.9,70.4c-1-3.7-1.1-12.6-2.7-18.9,0,0,.5,5.3.4,9.6s-.8,10.5.7,12.9c2.6,4.5,7.5,1.9,6.2,10.7-.7,4.1-.4,5.4-1.7,5.8s-.7,4.2-.7,5h0a3.7,3.7,0,0,0,1.4-.7c.3-2,.4-3.1,1.2-3.7s1.8-11.7,1-13.7S119.2,75.3,117.9,70.4Z"/><path class="cls-11" d="M112.3,79.2c5.1.9,3.8,9.4,2.9,10a4.6,4.6,0,0,0-2.4,2.1,3.6,3.6,0,0,1,2.6-1.8s.6,1,1.3-3.5-1.4-7.1-4.9-7.8-9-7.4-9-7.4S107.2,78.4,112.3,79.2Z"/><path class="cls-11" d="M112.7,91.6Z"/><path class="cls-23" d="M69.7,57.7l1.2,2c.3-2.3-2.6-10.7-4.4-13.1a2.1,2.1,0,0,0,1.7,0c-1.1-.2-4.6-6.2-8-10.1l1.4.4C57.4,31,49,30.3,43,30.7c5.5,1,12.4,3.7,14.8,7.3,0,0-2.8-2.3-10,0,5,.1,11.3,3.6,13.6,8.9a10.4,10.4,0,0,0-6.8-1.8c1.7,0,7.8,5,8.7,9.7,0,0-1.6-2.4-3.5-2.4,0,0,1.1,1.2,1.5,5.6,0,0-1.8-3.6-4.8-4.7,0,0,1,1.1,4.4,7.4a14.9,14.9,0,0,0-5.1-4.4S60,60.9,60.4,66c0,0-1.2-3.7-3.1-4.8a16.9,16.9,0,0,1,.9,8.6A34.3,34.3,0,0,0,57,66.2s-.6,10.4-2.5,16.5c0,0,0-1-2.4-3.1,0,0,1.9,8.7.7,15.1a6.9,6.9,0,0,0-1.9-3.1,13.4,13.4,0,0,1,.8,4.5,46,46,0,0,1-12.4-7.3,41.6,41.6,0,0,0,0,4.4s-1.2-.7-3.7-4.4a42.9,42.9,0,0,0,0,4.4c-1.1-.8-6.1-6.4-8-8.6,2.5,4.3,6.6,9.8,10.1,12.2,0,0-.7-1-1.1-5a25.9,25.9,0,0,0,4,5.9,32.1,32.1,0,0,0-.5-3.2c3.5,8.6,15.6,11.2,15.6,11.2s1.5-5,2.3-5v2.9c0-.4,4.2-8.3,2.6-11.6a2.1,2.1,0,0,0,1.9.7A9.7,9.7,0,0,1,61,87.9a3.6,3.6,0,0,0,1.2,1.3,8.5,8.5,0,0,0,0-3.9,5.3,5.3,0,0,1,1.5,2.1c-.5-1.9,1.3-6,1.7-9l.4,2.6a115.3,115.3,0,0,0,3-12.8l.2,3.3C69.6,69.9,70.5,62.7,69.7,57.7Z"/><path class="cls-24" d="M61.3,36.5h0c-6.6-8.6-22.4-5.5-24.9-4.8l1.8-1.4c-3.4.1-10.5,3.6-11.8,5.5,0-.3-.1-.8-.2-1.5l-1.5,1,.6-2.6C23,33.9,20,38.8,19.8,43.2l-.7-1.9c-.1,2,1.6,8.7,2.5,10.9-7.8,12.6-2.4,18-.6,20.3-.9-1.2-5.9-9,1.8-19.5l-1.1-1.8.8.5c-1-3.7-1.8-7.4-1.8-7.4l.8,1.1c.2-5.3,1.5-9.6,2.5-10.5,0,2.6.4,3.2.4,3.2s.6-1.7.9-1.6l.4,1.1A73.8,73.8,0,0,1,35.5,32l-.6,1.4C39.3,32,51.7,28.1,61.3,36.5Z"/><path class="cls-25" d="M141.9,48c0,.1-.1.1-.1.2A.3.3,0,0,0,141.9,48Z"/><path class="cls-26" d="M143.6,44.9c-.1.2-1.1,1.6-4.2,2.2,3.5-1.6,7.7-7,7.2-9.2-.4,1.5-4.9,3.4-7.9,5a28.3,28.3,0,0,1,3.2-3.3c-1.5.1-5.9,3.2-7.8,7.5a3.2,3.2,0,0,1,0-1.6c-2.1,3.5-.6,7.9-.6,7.9-5,10.2-10.1,8.5-13.9,4.4l-.7-.9h-.1l-1.5-2h0l-.6-1h-.1l-.6-1h0a4.7,4.7,0,0,1-.5-1h-.1l-.4-.9h-.1a10.8,10.8,0,0,0-2.1-4.3h0a12.6,12.6,0,0,0-7.8-5.2H99.9c-.2-.1-.4,0-.6,0H94.7l-.6.2H92.5l-.6.2h-.5l-.7.2h-.4l-1.1.4-1.3.5h-.4l-.9.4-.5.2-.9.3-.5.2-1,.4-.4.2-1.3.6h-.3l-1.1.5-.5.2-.9.4-.5.2-.9.4-.4.2-1.2.6H76l-1.3.6-.4.2-.9.4-.4.2-.8.4-.5.2-.8.5h-.4l-1.1.6h-.2l-.3.2a24.8,24.8,0,0,0-2.4-4.9,2.1,2.1,0,0,0,1.7,0c-1.1-.2-4.6-6.2-8-10.1l1.4.4-.3-.4h0l-.3-.3c0-.1,0-.1-.1-.2s-.1-.1-.2-.2h-.1l-.3-.3h0l-.3-.2a.1.1,0,0,0-.1-.1l-.3-.2c0-.1-.1-.1-.1-.2a.2.2,0,0,1-.2-.2h-.2l-.3-.2h-.4l-.3-.2h-.2c-.1-.1-.2-.1-.2-.2h-.2l-.4-.2H57a.1.1,0,0,0-.1-.1h-.2l-.4-.2a.1.1,0,0,1-.1-.1h-.4l-.4-.2H54.1c0-.1-.1-.1-.2-.1h-.7a.1.1,0,0,1-.1-.1H37.2a.1.1,0,0,1-.1.1h-.7l1.8-1.4H33.9c-.1,0-.2,0-.2.1H32c0,.1-.1.1-.2.1h-.2l-.3.2H29.8c-.1.1-.2.1-.2.2h-.2l-.4.2h-.9c0,.1-.1.1-.1.2H26.6a.1.1,0,0,0-.1.1h-.1v-.2h-.1v-.6a.7.7,0,0,1-.1-.5l-1.5,1,.6-2.6C23,33.9,20,38.8,19.8,43.2l-.7-1.9a17,17,0,0,0,.3,2.6,44.4,44.4,0,0,0,1.5,6.3h0a11.8,11.8,0,0,1-1.5-2,15.9,15.9,0,0,0,1.9,4.6l-.4.6c-.1.1-.1.3-.2.4l-.4.7c-.1.2-.2.3-.2.5l-.4.6c0,.2-.1.3-.2.5a1.7,1.7,0,0,0-.2.5,1.7,1.7,0,0,0-.2.5l-.3.6c0,.1-.1.2-.1.4s-.2.3-.2.5l-.2.4a4.3,4.3,0,0,1-.1.5.9.9,0,0,0-.1.5c-.1.1-.1.3-.2.4v.4a.9.9,0,0,0-.1.5c-.1.1-.1.2-.1.4a.6.6,0,0,1-.1.4v.4a.6.6,0,0,1-.1.4v2.8a.4.4,0,0,0,.1.3v.3c0,.1.1.2.1.3v.3a.4.4,0,0,1,.1.3v.3a.3.3,0,0,1,.1.2.4.4,0,0,0,.1.3v.2a.4.4,0,0,0,.1.3V69a.3.3,0,0,1,.1.2c0,.1.1.1.1.2v.2l.2.3h.1v.3h.1v.4l.2.2h.1a.3.3,0,0,0,.1.2h.1l.2.2c0,.1,0,.1.1.1V72h.1l.2.3H21v.2a19.4,19.4,0,0,1,.5-3.1s1.5,11.8,4.6,14.1A8.4,8.4,0,0,1,25,79.3a28.4,28.4,0,0,0,3.1,6.1h0L29.7,88h.1a5.6,5.6,0,0,0,.5.8h.1l1.2,1.7h0l.6.8h.1L33.6,93h0l.6.6h.1l.6.6H35l.6.6h.1l.6.5h.1l.5.4H37l.7.5h0s-.7-1-1.1-4.9a29.4,29.4,0,0,0,4,5.8h0a32.1,32.1,0,0,0-.5-3.2,13.6,13.6,0,0,0,2.5,4,1.7,1.7,0,0,0,.1.7h0v.9h0v2h0v.8h0v.9h0v.8h0v.8h0v1.6h0a1.7,1.7,0,0,0-.1.7h0v.7a.1.1,0,0,1-.1.1v.6h0a1.3,1.3,0,0,0-.1.6l-.5.2h-.2c0,.1-.1.1-.2.2H41a.1.1,0,0,1-.1.1h-.2c0,.1-.1.1-.1.2h-.4v.2H40a.1.1,0,0,1-.1.1v.2a.1.1,0,0,0-.1.1v.2h0c0,.1-.1.1-.1.2v2.1h0a1.1,1.1,0,0,1-.1.5c1.5,2.2,5.4,2.6,8.6,1.9h0c2.1-.5,3.8-1.5,4.4-2.9s-.4-4.8.9-5.4a11,11,0,0,1,.2-1.8h0c.2-.8.3-1.7.5-2.5l1.8.5h0s1.6-5,2.3-5v2.7a.4.4,0,0,0,.1-.3c.1,0,.1-.1.1-.2a35.1,35.1,0,0,0,1.7-4.2c.1.5.1,1,.2,1.6a3.8,3.8,0,0,0,.1,1h0a2.8,2.8,0,0,0,.1.9v1.2a5.3,5.3,0,0,0,.1,1.3v.9c0,.3.1.7.1,1.1V109a9.1,9.1,0,0,0,.1,1.7h0v.5h0v1.5c0,1.2,0,2.3-.1,3.3h0v.7h0a1.3,1.3,0,0,1-.1.6h0v.6h-.1v.7l-.9.4h-.2c-.1.1-.2.1-.2.2h-.8v.2h-.2l-.2.4h-.1c0,.1-.1.1-.1.2s0,.2-.1.2h0v.2a.1.1,0,0,1-.1.1h0v.2h0a.1.1,0,0,1-.1.1h0v.4h0a2,2,0,0,1-.1.7h0v.6l.2.2h.6a1.8,1.8,0,0,0,.7.5h0c.1.1.2.1.2.2h1l1.4.3h1a3.3,3.3,0,0,0,1.4,0h2.5c.1,0,.2,0,.2-.1h1.6l.2-.2h.1l.3-.2h.1l.2-.2h.1l.2-.2h0c.1,0,.1,0,.1-.1l.3-.2h0l.2-.2h.2c.1-.1.1-.1.1-.2h.1c-.2-2.2-.4-4.8.9-5.5v-.6c0-.2.1-.3.1-.5a.9.9,0,0,1,.1-.5,1.7,1.7,0,0,1,.1-.7,2,2,0,0,1,.1-.7h0a1.7,1.7,0,0,0,.1-.7l.3-1.3v-.2a3.1,3.1,0,0,0,.2-.8v-.3c0-.2.1-.4.1-.7v-.3a3,3,0,0,0,.2-1c.1-.2.1-.4.2-.6v-.2a.4.4,0,0,0,.1-.3c.1-.2.1-.4.2-.5a.9.9,0,0,1,.1-.5,8.3,8.3,0,0,1,.4-1.5c0-.2.1-.4.1-.6l.3-.9c0-.2.1-.3.1-.5a1.9,1.9,0,0,0,.2-.7c.3-1,.6-1.9.8-2.9s.2-.3.2-.5v-.2c.2-.5.3-1.1.5-1.6v-.2h0l.6-2.3h0l1.1-.4.3-.2.6-.3.4-.2.5-.3.4-.2.5-.3.3-.2.5-.4.3-.2.5-.3.3-.3.4-.3.3-.2.4-.5h.1L85,89.6v-.2l.4-.4c.1-.1.1-.2.2-.2l.3-.5.2-.2.3-.4a.2.2,0,0,1,.2-.2c.1-.2.2-.3.2-.5a.2.2,0,0,0,.2-.2l.3-.4c0-.1.1-.1.1-.2l.3-.4v-.2c.4-.8.9-1.5,1.2-2.2h.1a15,15,0,0,1,.9-1.8v-.2l.2-.3v-.2c0-.1.1-.2.2-.3v-.2c0-.1.1-.2.1-.3H91l.3-.4c1.3-1.9,3.9-3.3,6.7-4V76c.2,2.2-.4,4.4-.8,4.7s-2.6,1.1-2.7,3.7h0v.2a.4.4,0,0,0-.1.3,1.3,1.3,0,0,1,.1.6c.1.2.1.3.2.4h.1l.3.3h0a.5.5,0,0,1,.4.2h.1l.4.2h.1l.5.2h4.9l.5-.2h.5l.5-.2h.4l.2-.2c.2-2,.3-3.1,1.1-3.6h.1c.1-.1.1-.1.1-.2h0V82h0v-.2h.1v-.3h0c.1-.1.1-.2.1-.4h0c0-.1.1-.2.1-.4h0v-.4h.1v-.4h0c0-.1.1-.2.1-.4h0v-.4h.1v-.5h0c0-.1.1-.3.1-.4h0v-.7a.4.4,0,0,0,.1-.3v-.7h0c0-.2.1-.3.1-.4v-.2h0c1.7,1.9,4,3.8,6.4,4.2,5.1.9,3.8,9.4,2.9,10h-.6l-.6.4h-.1l-.2.2c-.1,0-.1,0-.1.1a1,1,0,0,0-.5.6c-.1,0-.1,0-.1.1l-.2.3h0a7.1,7.1,0,0,0-.4,1.7h0v.5a1.3,1.3,0,0,0,.1.6l.2.3h0l.4.3h0l.4.3h.1l.4.2h0l.5.2h.1l.5.2h5.8l.3-.2h.1l.2-.2c.3-2,.4-3.1,1.2-3.7s1.8-11.7,1-13.7-4.5-2.1-5.8-7c0-.1-.1-.3-.1-.4v-.2a.4.4,0,0,1-.1-.3v-.2a.9.9,0,0,1-.1-.5h0a1.3,1.3,0,0,1-.1-.6V68a.6.6,0,0,1-.1-.4v-.2c-.1-.4-.1-.9-.2-1.3v-.2a1.3,1.3,0,0,0-.1-.6h0c-.1-1.2-.2-2.5-.4-3.8v-.7c0-.1-.1-.2-.1-.3V60l.9.7.3.2.6.4h.3l.7.4h.2l.8.4h.2l.6.3h.2l.6.2h.2l.7.2h3.6c3.7-.9,5.7-4.8,7.4-8.9h0c.7-.1,1.8-.1,7.9-6.2a8.9,8.9,0,0,1-3.8,2S142.1,47.5,143.6,44.9Z"/><path class="cls-25" d="M143.6,44.9h0Z"/></g></g></svg>