<svg xmlns="http://www.w3.org/2000/svg" viewBox="0 0 84 66"><defs><style>.cls-1,.cls-10,.cls-17{fill:#f5b46d;}.cls-1,.cls-2,.cls-6,.cls-8{stroke:#f5b46d;stroke-width:0.3px;}.cls-1,.cls-15,.cls-17,.cls-2,.cls-6,.cls-8{stroke-miterlimit:10;}.cls-15,.cls-2,.cls-5{fill:#f9a528;}.cls-3,.cls-6{fill:#f68e1e;}.cls-4{fill:#fff8e1;}.cls-7{fill:#f47f20;}.cls-8{fill:#ffdfad;}.cls-9{fill:#fbcea1;}.cls-11{fill:#eae0ce;}.cls-12{fill:#87bbbe;}.cls-13{fill:#424243;}.cls-14{fill:#fff;}.cls-15{stroke:#f37c20;}.cls-15,.cls-17{stroke-width:0.1px;}.cls-16{fill:#f37c20;}.cls-17{stroke:#fbcea1;}</style></defs><g id="Layer_65" data-name="Layer 65"><g id="Duck_poses_01_F_03_" data-name="Duck poses 01 ( F 03 )"><path class="cls-1" d="M52.3,28.1c.8.1.6.8-.6,1.2s1,.4-.1,1.3a23.5,23.5,0,0,1-5.7,2.9c-4.5,1.5-11-2.2-9.7-4.6s9.2-2.6,15.2-2C53.3,27.1,53.3,27.6,52.3,28.1Z"/><path class="cls-2" d="M43.2,43.1l-.3-.5-1,.5.2.4a13.8,13.8,0,0,1,.6,1.6,5.7,5.7,0,0,1,.7,2.2c0,.2.1.2-1.4,1.2a9.1,9.1,0,0,0-2.1,1.8h-.1c-.1.1,0,.3.1.4h.8c.1,0,.1,0,.1.1s.2,0,.2.1h.2l.2.3h.9c.1-.1.1,0,.1-.1h1.4a.1.1,0,0,0,.1.1h.2c.2.1.3-.1.3-.3a24.4,24.4,0,0,1,.1-2.7c0-.6.5-.9.2-1.4a6.4,6.4,0,0,1-.2-.7,1.4,1.4,0,0,1-.2-.6,4.3,4.3,0,0,0-.1-.5,2,2,0,0,1-.1-.7A6,6,0,0,0,43.2,43.1Z"/><path class="cls-3" d="M43.1,48.2c-.4,0-2.8,2.3-2.8,2.3s-.4.1-.4.2H40a1.6,1.6,0,0,1,1.5.8v-.3S43.5,48.3,43.1,48.2Z"/><path class="cls-3" d="M43.9,51.3c.1-.7.2-3.2-.1-3.2A21.1,21.1,0,0,0,42,51.3l-.2.2a2.8,2.8,0,0,1,2.2,0A.3.3,0,0,1,43.9,51.3Z"/><path class="cls-4" d="M41.8,51.1c-.7-.2-.4,1-.4,1S42.4,51.3,41.8,51.1Z"/><path class="cls-4" d="M44.2,51.2c-.7,0-.1,1-.1,1S44.9,51.2,44.2,51.2Z"/><path class="cls-4" d="M40.1,50.3c-.6-.3-.5,1-.5,1S40.7,50.6,40.1,50.3Z"/><path class="cls-5" d="M43.9,45.7s1.3.3,1.2.7-1.1-.2-1.1-.2Z"/><path class="cls-3" d="M43.2,43.1l-1.1.4a13.8,13.8,0,0,1,.6,1.6,2.5,2.5,0,0,0,1.2.2h.3a2,2,0,0,1-.1-.7A6,6,0,0,0,43.2,43.1Z"/><path class="cls-6" d="M38.4,44.2A9,9,0,0,0,39,42l-1-.5a21.4,21.4,0,0,1-2,4c-.1.2-.1.2-1.8-.2a13.3,13.3,0,0,0-2.8-.3h0a.3.3,0,0,0-.3.3.1.1,0,0,0,.1.1,1.5,1.5,0,0,1,.4,1.7h.2a3.1,3.1,0,0,1,1.6,1.6h0a.4.4,0,0,0,.5,0,18,18,0,0,1,2-1.9c.4-.4.9-.2,1.2-.7A8,8,0,0,1,38.4,44.2Z"/><path class="cls-7" d="M35.1,45.9c-.2-.3-3.6-.4-3.6-.4l-.4-.2a.1.1,0,0,0,.1.1,1.4,1.4,0,0,1,.4,1.6l.2-.2S35.3,46.2,35.1,45.9Z"/><path class="cls-7" d="M33.4,48.7c.6-.5,2.5-2.1,2.3-2.3s-3.6.9-3.6.9h-.3a2.6,2.6,0,0,1,1.5,1.6C33.3,48.8,33.4,48.8,33.4,48.7Z"/><path class="cls-4" d="M32.1,47c-.3-.6-.9.4-.9.4S32.4,47.6,32.1,47Z"/><path class="cls-4" d="M33.7,48.8c-.5-.5-.8.7-.8.7S34.2,49.4,33.7,48.8Z"/><path class="cls-4" d="M31.5,45.2c-.2-.6-1,.3-1,.3S31.7,45.9,31.5,45.2Z"/><path class="cls-3" d="M37.6,44.8s.5,1.1.2,1.4-.6-1-.6-1Z"/><path class="cls-8" d="M51.5,33.9c2.6-.6,4.6-1.6,5.2-2.4s.3-1.4-.6-1.2a31.1,31.1,0,0,1-8.6.9S49,34.4,51.5,33.9Z"/><path class="cls-9" d="M51.7,34.5c2.9-.4,5.4-2.1,5.4-2.7s-.7-.6-.7-.6S48.3,35,51.7,34.5Z"/><path class="cls-10" d="M52.6,34.4l.3,1.9s2.8-2.3,3.5-3,0-1.1,0-1.1Z"/><path class="cls-8" d="M30.8,27.6c-.5,3.2-1.5,4.3-.5,8.8.3,1.2,1.5,2.4,3.1,3.5,3.7,2.5,9.9,4.3,11.3,4.2s6.9-3.4,8.4-8a6.9,6.9,0,0,0,.4-3.5c-.2-1.5-5.3-3.7-9.6-4.2s-3.1.3-3.6,0-4.8,1.1-4.7-2.3"/><path class="cls-9" d="M46.1,41.7c-4.6,1.5-10.5-1.1-13.3-2.2,3.9,2.6,10.1,4.7,11.6,4.6S51.5,40.6,53,36C50.5,36.5,51,40.1,46.1,41.7Z"/><path class="cls-9" d="M34.8,28.8c1.3,1.8,6.2-.6,7.6-.5a19.9,19.9,0,0,0-4.9-.3A2,2,0,0,1,36,26.1c-.1-.8.6-5.7.3-6.2S33.9,27.5,34.8,28.8Z"/><path class="cls-8" d="M30,33.2a7.6,7.6,0,0,0,.1-1.5,56.7,56.7,0,0,0,1-8.4,8.6,8.6,0,0,0-.2-2.2c1,1.2,3.7-1.3,3.4-1.6s-1.7,1.1-3.6.4c.1-.2.3-.6.3-.3-1.8-1.1,0-2.4-1.1-2.9s-1.1,1-1.2,1.1.2-3.2,2.8-4.2,4.4,0,5.1,1.6A4.6,4.6,0,0,1,37,18c-.7,3.8-1.3,5.1-2.1,9.4M33.3,16.1c-.5-.5-1.4.3-1,.7S33.8,16.7,33.3,16.1Z"/><path class="cls-11" d="M30.5,20.3a2,2,0,0,1,.4.8h-.1l-.3-.8Z"/><path class="cls-9" d="M30.9,21.1a3.5,3.5,0,0,0-.8-1l.6-.2c1.9.7,3.3-.7,3.6-.4S31.9,22.3,30.9,21.1Z"/><path class="cls-5" d="M30.5,20.3Z"/><path class="cls-5" d="M33.3,16.1c.5.6-.6,1.2-1,.7S32.8,15.6,33.3,16.1Zm-.9.6c.3.4,1.2-.1.8-.5h-.1a.6.6,0,0,0-.7.2h0a.2.2,0,0,0,0,.3Z"/><path class="cls-12" d="M32.5,16.2a.5.5,0,0,1,.7,0c.4.4-.5.9-.8.5a.2.2,0,0,1,0-.3h0a.2.2,0,0,0,.2.2h0c.2.2.6,0,.4-.3a.2.2,0,0,0-.3,0h-.2Z"/><path class="cls-13" d="M32.7,16.3a.2.2,0,0,1,.3,0c.2.3-.2.5-.4.3h0a.2.2,0,0,0,.2-.2Z"/><path class="cls-14" d="M32.4,16.3h0Z"/><path class="cls-14" d="M32.4,16.4h.3a.2.2,0,0,0-.1.3h0A.2.2,0,0,1,32.4,16.4Z"/><path class="cls-14" d="M32.6,16.6a.2.2,0,0,1,.1-.3h.1a.2.2,0,0,1-.2.2Z"/><path class="cls-9" d="M34.8,28.4A53.5,53.5,0,0,1,37,18a42,42,0,0,1-.8,6.2c-.6,2.5.5,3.5.8,3.7Z"/><path class="cls-15" d="M31.2,19.4l-.2.3-.4.4-.2-.2v-.2c-1.4,1.1-3.6,1.1-4.1.6s1.2-.5,2-1.8a5.2,5.2,0,0,0,.7-1.5h0c.1-.2.6-1.1,1.3-.8S29.8,18.5,31.2,19.4Z"/><path class="cls-16" d="M29.9,17.9c.2.3-.6,1-.8.8S29.6,17.6,29.9,17.9Z"/><path class="cls-16" d="M31.2,19.4c-1,1.9-3.9,1.2-3.9,1.2a4.3,4.3,0,0,0,3.6-1.4Z"/><path class="cls-17" d="M50.5,34.9c.7.4.1,1-1.1.8s.7.8-.6,1.2a23.6,23.6,0,0,1-6.5.2c-4.7-.6-9-6.7-6.8-8.3s9.4,1.6,14.7,4.7C51.8,34.4,51.6,34.9,50.5,34.9Z"/></g></g></svg>