<svg xmlns="http://www.w3.org/2000/svg" viewBox="0 0 84 66"><defs><style>.cls-1{isolation:isolate;}.cls-2{fill:#353535;}.cls-3{fill:#616261;}.cls-4{fill:#262626;}.cls-5{fill:#eee;mix-blend-mode:multiply;}.cls-6{fill:#434343;}.cls-7{fill:#dadbd9;}.cls-11,.cls-15,.cls-8{fill:none;}.cls-8{stroke:#000;stroke-width:0.04px;}.cls-15,.cls-8{stroke-miterlimit:10;}.cls-9{fill:#333;}.cls-10{fill:#fff;}.cls-12{fill:#f3e9d6;}.cls-13{fill:#b7b7b9;}.cls-14{fill:#9ea0a3;}.cls-15{stroke:#b7b7b9;stroke-width:0.25px;}</style></defs><g class="cls-1"><g id="Layer_32" data-name="Layer 32"><path class="cls-2" d="M37,58.9l.5-.9a1.7,1.7,0,0,1-1.2.5,10.1,10.1,0,0,0,1-1.6,2.4,2.4,0,0,1,2.3.2v.2C39.9,59.1,37.7,58.9,37,58.9Z"/><path class="cls-3" d="M39.6,57.1H39a2,2,0,0,1-1.1,0c-.5-.2-.6-.4-.6-.4s.6-2.9,0-3.8-.4-1.1-.4-2.1a30.1,30.1,0,0,0-.9-3.6L35.3,45a3.1,3.1,0,0,1,2.4-1.6,7,7,0,0,1,2,.1s-.1.6-.2,1.5-.2,2.8-.2,4a3.6,3.6,0,0,0,.2,1.5c.6.8.1,1.7,0,2.6s.4,2,.4,2.5S39.5,56.4,39.6,57.1Z"/><path class="cls-4" d="M36.3,58.5a4.2,4.2,0,0,0,1.4-.8l-.2.3A1.9,1.9,0,0,1,36.3,58.5Z"/><path class="cls-4" d="M37,58.9s2.4-.3,2.6-1.6C39.9,59.1,37.7,58.9,37,58.9Z"/><path class="cls-5" d="M39.6,57.1H39a2.9,2.9,0,0,0,.3-1c0-.7-.4-1.1-.6-1.7a2.8,2.8,0,0,1,.3-2c.3-.8-.1-1.2-.3-2a2.6,2.6,0,0,1,.4-1.5h.2a3.6,3.6,0,0,0,.2,1.5c.6.8.1,1.7,0,2.6s.4,2,.4,2.5S39.5,56.4,39.6,57.1Z"/><path class="cls-6" d="M21.8,34l-.7,1.5c-5.3,1.8-8.8-.6-8.9-1.5a1.7,1.7,0,0,1,.7-.9C14.6,31.7,18.8,30,21.8,34Z"/><path class="cls-3" d="M21.8,34c-.2,0-.3-.1-.5-.3-3.2-2.7-7.8-.9-8.3-.7C14.6,31.7,18.8,30,21.8,34Z"/><path class="cls-2" d="M51.7,45.6l.6-.9a2.1,2.1,0,0,1-1.2.5,5.1,5.1,0,0,0,.9-1.8,6.2,6.2,0,0,1,2.4.3v.2C54.6,45.9,52.5,45.7,51.7,45.6Z"/><path class="cls-4" d="M51.1,45.2s1.1-.5,1.3-.9v.4A2.2,2.2,0,0,1,51.1,45.2Z"/><path class="cls-4" d="M51.7,45.6s2.4-.3,2.7-1.7C54.6,45.9,52.5,45.7,51.7,45.6Z"/><path class="cls-6" d="M50,30.1a61.1,61.1,0,0,1,1.6,6.7c0,1.2-.2,1.4.4,2.4s0,4.2,0,4.2.7,1,2.4.3c-.2-.8.3-1.1.3-1.7s-.7-.5-.4-2.8.6-2.1,0-2.9.1-7.8.1-7.8A3.5,3.5,0,0,0,50,30.1Z"/><path class="cls-2" d="M31.1,56.1l.6-.8a2.8,2.8,0,0,1-1.2.4,5.3,5.3,0,0,0,.9-1.6,7.8,7.8,0,0,1,2.4.2v.2C34.1,56.4,31.9,56.2,31.1,56.1Z"/><path class="cls-4" d="M30.5,55.7a4.2,4.2,0,0,0,1.4-.8l-.2.4A2.1,2.1,0,0,1,30.5,55.7Z"/><path class="cls-4" d="M31.1,56.1s2.5-.2,2.7-1.6C34.1,56.4,31.9,56.2,31.1,56.1Z"/><path class="cls-6" d="M29.5,41.9A51.6,51.6,0,0,1,31.1,48c0,1.1-.3,1.3.3,2.2s0,3.9,0,3.9a2,2,0,0,0,2.4.2c-.1-.7.3-.9.3-1.5s-.6-.5-.4-2.6.6-1.9,0-2.7.1-7.1.1-7.1C31.8,39.9,30.3,40.4,29.5,41.9Z"/><path class="cls-2" d="M57.5,48.4l.6-.9a1.9,1.9,0,0,1-1.2.4,4.7,4.7,0,0,0,.9-1.7,2.4,2.4,0,0,1,2.4.3v.2C60.4,48.6,58.3,48.4,57.5,48.4Z"/><path class="cls-3" d="M60.2,46.4h-.4a1.7,1.7,0,0,1-1.4,0,1.1,1.1,0,0,1-.6-.4s.7-3.2,0-4.1-.4-1.2-.4-2.3a26.6,26.6,0,0,0-.8-3.9l-.7-2.6a3.2,3.2,0,0,1,2.4-1.8,4.3,4.3,0,0,1,1.9.2s0,.6-.1,1.6-.3,5.5,0,6,.1,1.8,0,2.8.4,2.1.4,2.7S60.1,45.7,60.2,46.4Z"/><path class="cls-5" d="M60.2,46.4h-.4a1.7,1.7,0,0,1-1.4,0,1.1,1.1,0,0,1-.6-.4s.7-3.2,0-4.1-.4-1.2-.4-2.3a26.6,26.6,0,0,0-.8-3.9l-.7-2.6a3.2,3.2,0,0,1,2.4-1.8,4.3,4.3,0,0,1,1.9.2s0,.6-.1,1.6-.3,5.5,0,6,.1,1.8,0,2.8.4,2.1.4,2.7S60.1,45.7,60.2,46.4Z"/><path class="cls-4" d="M56.9,47.9a4.2,4.2,0,0,0,1.4-.8l-.2.4A1.7,1.7,0,0,1,56.9,47.9Z"/><path class="cls-4" d="M57.5,48.4s2.5-.3,2.7-1.7C60.4,48.6,58.3,48.4,57.5,48.4Z"/><path class="cls-7" d="M63.7,27.2a10.8,10.8,0,0,1-1.2,2.4,13,13,0,0,1-1,2.5c-.4.7-1.3,1.2-1.8,1.9s-1,1.5-1.6,2.2a12.8,12.8,0,0,1-2.3,1.4l-1.1,1.2-.3.3-.5.4c-.7.5-1.6.7-2.4,1.2s-1.3,1.2-2.1,1.6a12.9,12.9,0,0,0-2.1.7,5.3,5.3,0,0,0-1.2,1l-.5.3-.7.2-1.4.5c-.6.3-1.1.9-1.7,1.2s-1.5.3-2.1.6-1.3.8-1.9,1H35.6a16,16,0,0,1-2.1.5h-.6L31.4,48a16.5,16.5,0,0,1-2.1-.2c-.6-.3-1.2-.9-1.8-1.2s-1.1-.2-1.5-.5l-.4-.5c-.2,0-.4.1-.6,0A3.9,3.9,0,0,1,22.2,44l-1.1-1.6a8.4,8.4,0,0,1-.7-1.6s.3-2.2,1.5-7a1.9,1.9,0,0,1,.9-1.3c0-.3-.2-.5,0-.9s.5.1.8-.1.1-.4.4-.6.4.2.6.1.2-.5.4-.6.5.1.7,0,.1-.5.3-.6.5.1.7,0,.2-.5.4-.7.5.2.7,0,.1-.5.3-.6.5.1.7,0,1-1,1.5-1.4a15.4,15.4,0,0,0,1.9-.8,17.4,17.4,0,0,0,1.3-1.5c.6-.4,1.3-.6,1.8-1s.8-1.2,1.3-1.6,1.2-.7,1.6-1.2.7-1.2,1.2-1.7,1.2-.7,1.6-1.2.7-1.2,1.2-1.6,1.2-.6,1.8-1,.8-1.1,1.4-1.4,1.3-.3,1.9-.6,1.1-.8,1.7-.9a14.1,14.1,0,0,1,2-.1,13.3,13.3,0,0,1,1.9-.5c.7,0,1.3.4,1.9.4a12.7,12.7,0,0,1,2,.1c.6.2,1.1.8,1.7,1.1s1.3.3,1.8.8l.2.2a11,11,0,0,0,.9,1.4c.3.5,1,.9,1.3,1.5a9,9,0,0,1,.4,1.9,15.2,15.2,0,0,1,.9,2.5,1.3,1.3,0,0,1,.1.6,15.2,15.2,0,0,0-.3,2.1A21.7,21.7,0,0,1,63.7,27.2Z"/><polyline class="cls-8" points="54.2 32.6 54.2 32.6 54.2 32.6"/><path class="cls-7" d="M52.7,37.8c.2.1.5.1.6.3s.1.6.3.9h.9c.2.2.3.6.5.8s.7-.1,1,0h1.1l.2-.2h.2c.3,0,.6.3.9.2s.5-.4.7-.5a.1.1,0,0,0,.1-.1h.5a.1.1,0,0,0,.1-.1h.5a.1.1,0,0,1,.1-.1h.1a.1.1,0,0,1,.1-.1h0c.1-.1.2-.1.2-.2h.3a.1.1,0,0,1,.1-.1h.1a.1.1,0,0,0,.1-.1c0-.1.1-.2.1-.3a.4.4,0,0,0,.1-.3c.1-.1.1-.3.2-.4L62,37a12.5,12.5,0,0,0,1.2-1.7c.3-.6.1-1.4.3-2.1a16.7,16.7,0,0,0,.8-2,16.2,16.2,0,0,0-.1-2.2,16,16,0,0,0,.5-2.1,11.7,11.7,0,0,0-.5-2c-.1-.8.1-1.5,0-2.2a.3.3,0,0,1-.1-.2"/><path class="cls-3" d="M18.7,33.1c-1.8,2.1-2.1,3.9-3.1,6.4s-1.2,3.4.3,4.6a2,2,0,0,0,2.2.3,7.2,7.2,0,0,0,2.2-1.7c.2-.3,2.9-.2,4.8-2.3s1.5-4.9,1-6.5S22.4,28.8,18.7,33.1Z"/><path class="cls-9" d="M15.5,41.4a.1.1,0,1,0-.2.1,1.4,1.4,0,0,0,.6,1,1.8,1.8,0,0,0,.6,1.7c.1.1.2,0,.2-.1a2.7,2.7,0,0,1-.5-1.6,1.7,1.7,0,0,0,1-.3c.2-.2.3-.4-.2-.3A1,1,0,0,1,15.5,41.4Z"/><path class="cls-6" d="M22.6,37.6s-.3.9-.9.9-.6-.2-1,0L21,38a1.5,1.5,0,0,1,.7-.9C22.2,36.9,22.4,37.3,22.6,37.6Z"/><path class="cls-9" d="M22.5,37.4c-.1.6-.4,1-.9,1A.8.8,0,0,1,21,38a1.5,1.5,0,0,1,.7-.9A.6.6,0,0,1,22.5,37.4Z"/><circle class="cls-10" cx="22" cy="37.5" r="0.2"/><path class="cls-7" d="M24.1,30.2c-.3,0-.5-.5-.8-.5s-.5.4-.8.4-.6-.4-.8-.4-.5.4-.8.5-.6-.4-.9-.3-.4.5-.7.6-.6-.2-.9-.1-.3.6-.5.8-.7,0-.9.2.1.7.1.9-.4.6-.3.9.6.3.8.6.1.7.3.9.7,0,.9.1.4.6.7.7.7-.3,1-.2.5.5.8.5.6-.4.9-.4.6.4.9.4.7-.3.9-.3.5.6.7.7.8.1.9.4-.3.5-.3.7.3.6.2.8-.6.1-.7.3,0,.6-.2.7-.6,0-.7.1-.1.6-.3.8h-.8c-.1.2,0,.6-.1.8s-.6.1-.8.3.2.5.2.7-.4.4-.4.7.6.3.8.4.4.6.7.6.5-.4.8-.5.7.3,1,.2.4-.5.6-.6.7.1,1,0,.3-.6.6-.7.7.1.9,0,.3-.7.5-.8.8,0,1-.1.2-.7.3-.9.9-.5,1.1-.8,0-1,.1-1.4.6-.9.6-1.3-.5-.8-.6-1.2a5.9,5.9,0,0,0-.2-1.4c-.3-.4-.9-.5-1.2-.8s-.3-.9-.7-1.2-.9-.2-1.3-.4-.6-.8-1-1-1,0-1.4-.1Z"/><path class="cls-7" d="M45.5,39.8c1.1-.2,1.7-.1,1.8.1a3,3,0,0,1,0,1.7c-.2.5-.7.9-1,1.5s-.1.4-.2.6V44a3.2,3.2,0,0,1-.3.9c-.3.5-.9.8-1.3,1.4s-.4,1.1-.8,1.6-1.1.6-1.5,1S41.5,50,41,50.3s-.2,0-.2.1H39c0,.1-.1.1-.2.2h-.1a1.2,1.2,0,0,1-.8.4c-.4.1-.9-.3-1.3-.4h0c-.5-.1-1,.1-1.4-.1s-.6-.8-.9-1.1l-.4-.3-.8-.5a1.4,1.4,0,0,1-.2-.6h0a.1.1,0,0,1-.1-.1"/><path class="cls-11" d="M33.6,44.1c0,.1,0,.1-.1.1"/><path class="cls-12" d="M31.5,46.2l.2.4.4.5"/><path class="cls-13" d="M32.9,48.5,31.4,48a16.5,16.5,0,0,1-2.1-.2c-.6-.3-1.2-.9-1.8-1.2s-1.1-.2-1.5-.5l-.4-.5c-.2,0-.4.1-.6,0A3.9,3.9,0,0,1,22.2,44c.7-.3,1.6-.2,2.3-.5s1.8-1,2.8-.9,1.4,1.2,2.3,1.9,1,0,1.2.2,0,1,.3,1.3,1,.1,1.2.5-.4.8-.2,1.2S32.8,48.2,32.9,48.5Z"/><path class="cls-6" d="M29.1,43.1c-.6.5-6.2-.7-5.8-6a.6.6,0,0,1,.1-.4,1.5,1.5,0,0,1,1-.9c4.3-.7,5.2,4.5,4.9,6.5S29.3,43,29.1,43.1Z"/><path class="cls-3" d="M29.3,42.3a7.4,7.4,0,0,0-1.8-4.5c-1-1.1-3.4-1.2-4.1-1.1a1.5,1.5,0,0,1,1-.9C28.7,35.1,29.6,40.3,29.3,42.3Z"/><path class="cls-13" d="M64.3,31.2a16.7,16.7,0,0,1-.8,2c-.2.7,0,1.5-.3,2.1A12.5,12.5,0,0,1,62,37c-.4.7-.5,1.5-1,2a6.6,6.6,0,0,1-1.9.9c-.2.1-.4.5-.7.5s-.6-.2-.9-.2-.5.3-.8.3-.5-.5-.7-.5-.7.1-1,0-.3-.6-.5-.8a.1.1,0,0,1-.1-.1l-.5.4c-.7.5-1.6.7-2.4,1.2s-1.3,1.2-2.1,1.6a12.9,12.9,0,0,0-2.1.7,5.3,5.3,0,0,0-1.2,1,3.2,3.2,0,0,1-.3.9c-.3.5-.9.8-1.3,1.4s-.4,1.1-.8,1.6-1.1.6-1.5,1S41.5,50,41,50.3s-1.2.2-1.8.4l-.5.3c.1-.3.3-.7.2-.9s-1-.3-1.2-.6.3-1,.1-1.3-.2-.2-.3-.3-.6-.4-.6-.6.7-.4.9-.7.1-.9.4-1.1.9.3,1.2.1.2-1,.4-1.3,1.1-.3,1.3-.6-.4-1-.3-1.4.7-.4.7-.6-.4-.2-.6-.3h-.2c0-.2.6-.6.6-.8s-1-.6-1.1-.9.5-1,.5-1.4-.6-.9-.4-1.3.9-.2,1.1-.4.2-1.1.5-1.2.7.6,1.1.6.7-.6.9-.5.3.8.6.9.8-.4,1.1-.3.5.9.9,1,.8-.5,1.2-.5,1,.5,1.3.3.2-1,.4-1.2,1,0,1.2-.2-.2-1,0-1.2,1-.3,1.2-.7-.4-1-.2-1.3,1-.2,1.2-.4.6-1.2,1.1-1.2a1.7,1.7,0,0,1,.6.6,1.5,1.5,0,0,0,.5.6c.4.3,1.2,0,1.5.3s.5,1.2.9,1.4.9-.5,1.3-.7,1.2,0,1.5-.5.3-1.6.5-2.3,1.2-1.3,1.3-2-.4-1.7-.3-2.4.7-.7.8-1.1-.6-.9-.6-1.3.7-.8.7-1.1-.8-.7-.9-1.1.5-.8.4-1.2-.9-.5-1-.9.3-1.2.1-1.7S60.1,16.5,60,16s.3-1,.5-1.4a11,11,0,0,0,.9,1.4c.3.5,1,.9,1.3,1.5a9,9,0,0,1,.4,1.9,15.2,15.2,0,0,1,.9,2.5,1.3,1.3,0,0,1,.1.6.3.3,0,0,0,.1.2c.1.7-.1,1.4,0,2.2a11.7,11.7,0,0,1,.5,2,16,16,0,0,1-.5,2.1A16.2,16.2,0,0,1,64.3,31.2Z"/><path class="cls-14" d="M53.9,39.5c-.7.5-1.6.7-2.4,1.2s-1.3,1.2-2.1,1.6a12.9,12.9,0,0,0-2.1.7,4.8,4.8,0,0,0-1.1.9c-.1.1.1-1.1-.7-1.3a1.2,1.2,0,0,1-.6-1.7c.5-1,.9-2,2.1-1.7s.5.6,1.4.4.9-.8,1.6-1l1.1-.2c.5,0,.8.3,1.2-.1s.5-.9.9-.9.2.1.4,0,.1-.4.2-.5.3-.6.5-.2,0,1.2.2,1.7A1,1,0,0,1,53.9,39.5Z"/><path class="cls-15" d="M64.2,29a16,16,0,0,0,.5-2.1,6.1,6.1,0,0,0-.3-1.3,2.5,2.5,0,0,1-.2-.7,7.5,7.5,0,0,1,0-1.5v-.7h-.1a1.3,1.3,0,0,0-.1-.6,15.2,15.2,0,0,0-.9-2.5,9,9,0,0,0-.4-1.9c-.3-.6-1-1-1.3-1.5a11,11,0,0,1-.9-1.4l-.2-.2c-.5-.5-1.3-.5-1.8-.8s-1.1-.9-1.7-1.1a12.7,12.7,0,0,0-2-.1c-.6,0-1.2-.4-1.9-.4a13.3,13.3,0,0,0-1.9.5,14.1,14.1,0,0,0-2,.1c-.6.1-1.1.7-1.7.9s-1.4.2-1.9.6-.9,1-1.4,1.4-1.3.5-1.8,1-.7,1.1-1.2,1.6-1.2.7-1.6,1.2-.7,1.2-1.2,1.7-1.1.7-1.6,1.2-.8,1.1-1.3,1.6-1.2.6-1.8,1a17.4,17.4,0,0,1-1.3,1.5,15.4,15.4,0,0,1-1.9.8c-.5.4-.9,1.1-1.5,1.4s-.5-.1-.7,0-.2.5-.3.6-.6,0-.7,0-.2.6-.4.7-.5-.1-.7,0-.2.5-.3.6-.5-.1-.7,0h-.1l-.8-.2c-.3,0-.5-.5-.8-.5s-.5.4-.8.4-.6-.4-.8-.4-.5.4-.8.5-.6-.4-.9-.3-.4.5-.7.6-.6-.2-.9-.1-.3.6-.5.8-.7,0-.9.2h0a4.1,4.1,0,0,0-1.6.3,7.3,7.3,0,0,0-2.5,1.3,1.7,1.7,0,0,0-.7.9c.1.6,1.8,2,4.6,2.2-.4,1-.7,2-1.2,3.3s-1.2,3.4.3,4.6a2,2,0,0,0,2.2.3,7.2,7.2,0,0,0,2.2-1.7l.8-.3h0l.3.5.2.3.6.8A3.9,3.9,0,0,0,25,45.6c.2.1.3,0,.4,0h.2l.4.5c.4.3,1,.2,1.5.5l.4.3a11,11,0,0,0,1.4.9h.3a.1.1,0,0,1,.1.1H31a.1.1,0,0,0,.1.1c0,1.1-.3,1.3.3,2.2s0,3.9,0,3.9a5.3,5.3,0,0,1-.9,1.6h1.2l-.6.8c.8.1,3,.3,2.7-1.6v-.2h0c-.1-.7.3-.9.3-1.5s-.6-.5-.4-2.6c0-.2.1-.5.1-.7h.1l.4.3c.3.3.5.8.9,1.1s.9,0,1.4.1h.3c0,.9-.3,1.2.4,2s0,3.8,0,3.8h0a10.1,10.1,0,0,1-1,1.6h1c.1-.1.2-.1.2-.2l-.5.9c.7,0,2.9.2,2.6-1.6v-.2h0c-.1-.7.3-.9.3-1.5s-.6-.4-.4-2.5.5-1.7.1-2.5h.9a.1.1,0,0,0,.1-.1h.2c0-.1.1-.1.2-.1a2.7,2.7,0,0,0,.7-.8l.5-.6c.4-.4,1.1-.6,1.5-1a2.5,2.5,0,0,0,.4-.7l.4-.9c.4-.6,1-.9,1.3-1.4a3.2,3.2,0,0,0,.3-.9h0a6,6,0,0,1,.8-.8H47l.3-.2a12.9,12.9,0,0,1,2.1-.7c.8-.4,1.4-1.2,2.1-1.6l.8-.4a13.1,13.1,0,0,1-.3,3.1,5.1,5.1,0,0,1-.9,1.8h0l.6-.2H52l.3-.2-.6.9c.8.1,2.9.3,2.7-1.7v-.2h0c-.2-.8.3-1.1.3-1.7s-.6-.5-.5-2.7h.2a.1.1,0,0,0,.1.1h0c.1,0,.1.1.1.2s.2.2.2.3h0c.1.1.2.2.2.3h2.1l.2-.2h.1a2.7,2.7,0,0,0,.4,1.9c.7.9,0,4.1,0,4.1h0a4.7,4.7,0,0,1-.9,1.7h.9l.3-.2-.6.9c.8,0,2.9.2,2.7-1.7v-.2h0c-.1-.7.3-1,.3-1.6s-.7-.5-.4-2.7.5-1.8.1-2.6h.1a.1.1,0,0,1,.1-.1h.1a.1.1,0,0,1,.1-.1h.5a.1.1,0,0,1,.1-.1h.1a.1.1,0,0,0,.1-.1c0-.1.1-.2.1-.3s.1-.3.2-.4a.3.3,0,0,1,.1-.2A1.7,1.7,0,0,1,62,37h0a12.5,12.5,0,0,0,1.2-1.7h0a3.6,3.6,0,0,0,.2-1,3.4,3.4,0,0,1,.1-1,1.4,1.4,0,0,0,.2-.6,5.9,5.9,0,0,0,.6-1.4h0A16.2,16.2,0,0,0,64.2,29Z"/></g></g></svg>