<svg xmlns="http://www.w3.org/2000/svg" viewBox="0 0 84 66"><defs><style>.cls-1{isolation:isolate;}.cls-2{fill:#cb5741;}.cls-3{fill:#e57050;}.cls-4{fill:#ec927a;}.cls-4,.cls-6,.cls-7{stroke:#f7a991;stroke-width:0.3px;}.cls-10,.cls-12,.cls-4,.cls-6,.cls-7{stroke-miterlimit:10;}.cls-5{fill:#f9aa92;}.cls-6{fill:#fae8e6;mix-blend-mode:multiply;}.cls-7{fill:#fbcbbd;}.cls-8{fill:#f58967;}.cls-9{fill:#f7a991;}.cls-10{fill:none;stroke:#f9aa92;stroke-width:0.25px;}.cls-11{fill:#151515;}.cls-12{fill:#fff;stroke:#000;stroke-width:0.05px;}.cls-13{fill:#ee7554;}</style></defs><g class="cls-1"><g id="Layer_101" data-name="Layer 101"><g id="Duck_poses_04_F_02_" data-name="Duck poses 04 ( F 02 )"><path class="cls-2" d="M35.6,56.8s.8.3,1.4-.9S35.5,54.1,35.6,56.8Z"/><path d="M35.6,56.8a1.1,1.1,0,0,0,.8-.1,2.4,2.4,0,0,0,.6-.8.8.8,0,0,0,.2-.5.7.7,0,0,0-.4-.5.8.8,0,0,0-.8.2,2.3,2.3,0,0,0-.4,1.4v.3h0a2.5,2.5,0,0,1,.3-1.5.9.9,0,0,1,.8-.4.4.4,0,0,1,.4.4c.1.2,0,.3,0,.5l-.6.7a1,1,0,0,1-.9.3Z"/><path class="cls-2" d="M38,53.7s1.1.3,1.4.1-.9-3-.9-3Z"/><path class="cls-2" d="M36.5,57.5s2.2.4,2.1-3.9S36.5,57.5,36.5,57.5Z"/><path d="M36.5,57.5a1.4,1.4,0,0,0,1.2-.4,2.6,2.6,0,0,0,.7-1.5,5.3,5.3,0,0,0,.2-2.5c0-.2,0-.7-.2-.8a.4.4,0,0,0-.3.4,2.2,2.2,0,0,0-.5,1.1,8.8,8.8,0,0,0-.5,1.5,7.4,7.4,0,0,0-.4,1.4l-.2.5v.3h0l.4-1.6.9-2.8.5-.7c.2-.2.3.2.3.4a8.1,8.1,0,0,1-.1,2.2,3,3,0,0,1-.6,1.8,1.6,1.6,0,0,1-1.4.7Z"/><path class="cls-3" d="M35.9,54.1s-.9,2.2-.5,2.6.9-.4.9-.4-.2,1.2.2,1.2,1.2-.4,1.8-2.9S35.9,54.1,35.9,54.1Z"/><path class="cls-4" d="M41.1,37.4l-5.5,1.2c-.6,6,.9,7.9.4,14.2a11.2,11.2,0,0,1-.3,1.9c1-.6.9.9.9.9s1.4-.8,1.5.9c0,0,.7-.8.7-4.2A28,28,0,0,1,40,45.6,35.9,35.9,0,0,0,41.1,37.4Z"/><path class="cls-2" d="M60.5,41.5s1.1.4,1.3.2-.5-3.2-.5-3.2Z"/><path class="cls-2" d="M58.4,45.2s2.3.7,2.7-3.8S58.4,45.2,58.4,45.2Z"/><path d="M58.4,45.3a1.6,1.6,0,0,0,1.3-.4,2.8,2.8,0,0,0,1-1.4,12.8,12.8,0,0,0,.5-2.7c0-.1,0-.6-.2-.7s-.3.2-.4.3a4.1,4.1,0,0,0-.7,1.1l-.7,1.6a6.9,6.9,0,0,1-.5,1.3c-.1.2-.1.4-.2.5s-.1.2-.1.3h0l.6-1.7a22.4,22.4,0,0,1,1.3-2.7,2.4,2.4,0,0,1,.6-.8c.2-.2.2.3.2.4a8.6,8.6,0,0,1-.2,2.3,5.6,5.6,0,0,1-.9,1.9,1.9,1.9,0,0,1-1,.5h-.6Z"/><path class="cls-3" d="M58.2,41.6s-1.2,2.3-.8,2.7,1-.4,1-.4-.4,1.3,0,1.3,1.3-.3,2.2-2.8S58.2,41.6,58.2,41.6Z"/><path class="cls-4" d="M65.5,24.8l-5.8.6c-1.3,6.3,0,8.4-1.3,14.9a8.8,8.8,0,0,1-.5,1.9c1.1-.5.8,1.1.8,1.1s1.6-.7,1.5,1.1c0,0,.8-.8,1.2-4.3a26.3,26.3,0,0,1,2.1-6.9A35.2,35.2,0,0,0,65.5,24.8Z"/><path class="cls-5" d="M27.7,31.1,26.2,34l-1.4,2.9c-8.3-2.5-4.3-4.9-7.8-8.3-.2-.1-.2-.2-.2-.3a.6.6,0,0,1,.2-.7C18.8,26.5,23.6,24.6,27.7,31.1Z"/><path class="cls-6" d="M26.2,34l-1.4,2.9c-8.3-2.5-4.3-4.9-7.8-8.3-.2-.1-.2-.2-.2-.3s5.8-1.4,8.8,4A7,7,0,0,1,26.2,34Z"/><path class="cls-7" d="M67.2,5.8a.6.6,0,0,0-.7-.2.5.5,0,0,0-.2.6,1.4,1.4,0,0,1-.2,1.6h0L65.8,7l-.4-.6a2.3,2.3,0,0,0-2-1A1.8,1.8,0,0,0,62,6.7,2.2,2.2,0,0,0,62.4,9a2.7,2.7,0,0,0,2.4.9l-.4.4a9.1,9.1,0,0,1-3.2,2,.4.4,0,0,0-.3.6c.1.2.2.3.4.3h.2a9.7,9.7,0,0,0,4-2.7,2.4,2.4,0,0,0,.6-1.1V9.2A2.9,2.9,0,0,0,67.2,5.8ZM63.1,8.3A1.2,1.2,0,0,1,62.9,7a.9.9,0,0,1,.7-.6h.1a1.2,1.2,0,0,1,.9.6l.5.8a2.8,2.8,0,0,1,.1.9A1.7,1.7,0,0,1,63.1,8.3Z"/><path class="cls-7" d="M65.3,25.3c-1.5,4.6-4.6,7.9-4.9,7.7s-.4-.1-.7.2a65.5,65.5,0,0,1-14.2,11l-1.4.7-1.9.8c-2.3.8-1.7-.1-3.1,1l-.4.3-.8.6-.7.6-.3.2a27.7,27.7,0,0,1-8.7,4.5l-3.3,1-3.6.8h-.4l-.3-.3-5.1-5a4.5,4.5,0,0,0,1.7-1.9C19.1,44,18.9,37.1,23,31.9s10.7-7.1,14.4-10.6C55,4.2,62.4,10.7,63.6,11.5a6.8,6.8,0,0,1,2.2,3.3A21.9,21.9,0,0,1,65.3,25.3Z"/><path class="cls-5" d="M26.1,52.9a2.1,2.1,0,0,0-1.2,1l-3.6.8c2.2-.5,3.9-1.4,4.2-2.1S27.5,52.2,26.1,52.9Z"/><path class="cls-5" d="M21.6,52.9a6.2,6.2,0,0,1-1,1.6l-5.1-5c.7-.4,1.3-1.9,1.8-2.7s1.9.1,2.8.5S22.6,50.6,21.6,52.9Z"/><path class="cls-8" d="M21.7,52.7c.4,1.5-.9,2.7-2.7,2.2a6,6,0,0,1-4.1-3.6c-.4-1.5.9-2.5,2.7-2.1S21.3,51.1,21.7,52.7Z"/><path class="cls-5" d="M21,53c.4,1.5-.6,2.3-2.3,1.9s-3.6-1.6-3.8-3.4.6-2.3,2.3-1.8A5.5,5.5,0,0,1,21,53Z"/><path class="cls-9" d="M20.9,53a1.2,1.2,0,0,1-.2,1.4,1.5,1.5,0,0,1-1.3.5A6.9,6.9,0,0,1,16,53.5a3,3,0,0,1-1-3c.4-1.2,1.9-.9,2.8-.6A5.6,5.6,0,0,1,20.9,53c.1.1.2.1.2,0A5.9,5.9,0,0,0,18,49.9c-.9-.4-2.4-.8-3,.2a2.8,2.8,0,0,0,.7,3.2A5.6,5.6,0,0,0,19.2,55a1.8,1.8,0,0,0,1.6-.4,1.9,1.9,0,0,0,.3-1.6A.1.1,0,0,0,20.9,53Z"/><path class="cls-10" d="M26,46.1l-.3-.2a.5.5,0,0,1-.2-.4c.2-1.2.1-3.8,4.1-3.2C29.6,42.3,31.2,46.3,26,46.1Z"/><path class="cls-3" d="M17.3,51.9c0,.5-.3.6-.7.4a1.4,1.4,0,0,1-.7-1.1c0-.5.3-.6.7-.4A1.6,1.6,0,0,1,17.3,51.9Z"/><path class="cls-3" d="M20,53.3c0,.5-.3.7-.7.5a1.5,1.5,0,0,1-.7-1.2c0-.4.3-.6.6-.4A1.5,1.5,0,0,1,20,53.3Z"/><path class="cls-10" d="M29,43.5s-.2,1.7-1.1,1.8-1-.3-1.6.1.2-.5.3-.8a2,2,0,0,1,.9-1.5A1.1,1.1,0,0,1,29,43.5Z"/><path class="cls-11" d="M28.9,43.4A1.5,1.5,0,0,1,27.7,45a1.2,1.2,0,0,1-1.1-.4,2,2,0,0,1,.9-1.5A1,1,0,0,1,28.9,43.4Z"/><path d="M28.9,43.4a1.8,1.8,0,0,1-.5,1.2,1.3,1.3,0,0,1-1.2.4l-.3-.2h-.2c0-.1-.1-.1,0-.2a4.3,4.3,0,0,1,.1-.5,1.4,1.4,0,0,1,1-1,1.2,1.2,0,0,1,1.1.4h0a1.2,1.2,0,0,0-1-.5,1.4,1.4,0,0,0-1.1.9,6.4,6.4,0,0,0-.2.7h0l.4.2a1.2,1.2,0,0,0,1.3-.1,1.8,1.8,0,0,0,.6-1.4Z"/><path class="cls-12" d="M28.4,43.6a.3.3,0,0,1-.3.3c-.1.1-.3-.1-.3-.2s.1-.4.2-.4S28.4,43.4,28.4,43.6Z"/><path class="cls-5" d="M40.6,34.5a1.1,1.1,0,0,1-.1.5c-2.7,3.6-2.8,10.9-7.8,6.4l-.5-.4-.9-1.5A3.2,3.2,0,0,1,32.4,35a9.8,9.8,0,0,1,7.8-1A.5.5,0,0,1,40.6,34.5Z"/><path class="cls-6" d="M40.6,34.5a1.1,1.1,0,0,1-.1.5c-2.7,3.6-2.8,10.9-7.8,6.4a4.8,4.8,0,0,1-.1-2.1C33.5,34.9,38.3,34.4,40.6,34.5Z"/><path class="cls-13" d="M67.1,44.1a1.7,1.7,0,0,0,1.3-1.4C68.5,41.4,66,42.1,67.1,44.1Z"/><path class="cls-8" d="M68.9,40.7a4.9,4.9,0,0,0,1.5-.3c.2-.2-1.6-2.4-1.6-2.4Z"/><path class="cls-13" d="M68.4,44.3s2.6-.9.7-4.2S68.4,44.3,68.4,44.3Z"/><path class="cls-8" d="M66.4,41.8s0,2.3.6,2.3.7-.8.7-.8.3,1.1.7,1,1.2-1,.8-3.2S66.4,41.8,66.4,41.8Z"/><path class="cls-7" d="M59.8,28.7a21,21,0,0,0,1.3,2.6h0c0,.1.1.1.1.2h.1v.3c.1,0,.1,0,.1.1h.1a.1.1,0,0,0,.1.1v.2h.1a.1.1,0,0,0,.1.1.3.3,0,0,0,.1.2c.1.1.1.1.1.2l.3.2h.1c0,.1.1.2.2.3h.3a3.4,3.4,0,0,0,.6.6.1.1,0,0,1,.1.1l.5.3h.3c1,.6,1.4,3.8,1.6,5.8,0,.4.1.7.2,1.6h0l.3-.3h.6a.1.1,0,0,1,.1.1h2.2c0,.1,0,.1.1.2h0c0,.1,0,.1.1.1h0V42h0v-.2a2.8,2.8,0,0,0-.1-.9v-.3c0-.3-.1-.6-.1-.9v-.3c-.1-.1-.1-.1-.1-.2a1.7,1.7,0,0,0-.1-.7v-.5a.4.4,0,0,1-.1-.3v-.2c0-.1-.1-.3-.1-.4s-.1-.8-.1-1.1h0a8.7,8.7,0,0,0-.2-1h0a4.4,4.4,0,0,0-1.3-3.3,6.4,6.4,0,0,1-.6-1.4v-.2h0a.1.1,0,0,1-.1-.1h0v-.3h0a1.3,1.3,0,0,1-.1-.6v-.3c-.1-.3-.1-.7-.2-1v-.4a1.1,1.1,0,0,0-.1-.5V25h0c0-.2-.1-.4-.1-.6a.4.4,0,0,0-.1-.3,1.1,1.1,0,0,0-.1-.5v-.2c0-.1-.1-.1-.1-.2v-.2h-.1v-.2c-.1-.1-.1-.1-.1-.2A16.4,16.4,0,0,0,64,19.2a22.1,22.1,0,0,0-2.3-2.8,8,8,0,0,0-2.9-2,8.3,8.3,0,0,0-1.8-.5"/><path class="cls-13" d="M44.6,56.3a1.3,1.3,0,0,0,.7-1.4C45.2,53.8,43.3,54.7,44.6,56.3Z"/><path d="M44.7,56.3l.4-.4a1.4,1.4,0,0,0,.2-.6v-.6c-.1-.2-.4-.4-.6-.3a1.2,1.2,0,0,0-.5.5,1.8,1.8,0,0,0,.4,1.4h.1a1.3,1.3,0,0,1-.5-1.1.8.8,0,0,1,.4-.7c.3,0,.5,0,.6.2a1.3,1.3,0,0,1,.1.6,1.4,1.4,0,0,1-.2.6.7.7,0,0,1-.5.4Z"/><path class="cls-8" d="M45,53s1-.4,1.1-.6S44,51,44,51Z"/><path d="M45,53l.7-.3c.2-.1.5-.3.4-.4l-.3-.2-.4-.3-.9-.5L44,51h0l.9,1.8V53h0l-.5-1-.3-.6v-.3A.1.1,0,0,1,44,51h.2l.6.4.7.4a1,1,0,0,1,.5.4c.1,0,.1.1,0,.2l-.4.2L45,53Z"/><path class="cls-13" d="M45.7,56.2s1.8-1-.3-3.6S45.7,56.2,45.7,56.2Z"/><path d="M45.7,56.2a1.4,1.4,0,0,0,.7-1.1,2.5,2.5,0,0,0-.3-1.5A8.3,8.3,0,0,0,45,52.1c-.1,0-.3-.2-.4-.1a.7.7,0,0,0-.1.5,8.3,8.3,0,0,0,.6,2.1c.2.6.3,1.1.5,1.6h.1A30.1,30.1,0,0,1,44.6,53c0-.2-.3-1.2.2-1l.3.3.6.7a2.9,2.9,0,0,1,.7,1.8,1.5,1.5,0,0,1-.8,1.4Z"/><path class="cls-8" d="M43.6,54.4s.4,1.9.9,1.9.4-.8.4-.8.5.9.8.7.7-.9-.1-2.8S43.6,54.4,43.6,54.4Z"/><path class="cls-7" d="M46.4,40.2a56.3,56.3,0,0,0-3,6.5c-.6,1.6-.6,2-.3,2.6l3,4.1a1.8,1.8,0,0,1-2.7,1.2c.1,0-.1-.9-.9-2s-2-2-2.6-2.8,0-3.1.3-4.5.4-7.5.4-7.5C43.4,37.1,45.2,38,46.4,40.2Z"/></g></g></g></svg>