<svg id="Layer_1" data-name="Layer 1" xmlns="http://www.w3.org/2000/svg" xmlns:xlink="http://www.w3.org/1999/xlink" viewBox="0 0 140.3 103.8"><defs><style>.cls-1,.cls-11{fill:#efb49a;}.cls-1,.cls-4{stroke:#9e4d2d;stroke-miterlimit:10;}.cls-2{fill:#d0e8ec;opacity:0.2;}.cls-3{opacity:0.8;}.cls-4{fill:url(#linear-gradient);}.cls-5{fill:url(#linear-gradient-2);}.cls-6{fill:#933d18;}.cls-7{fill:#231f20;}.cls-8{fill:#d82e2a;}.cls-9{fill:#b22424;}.cls-10{fill:#ef4136;}</style><linearGradient id="linear-gradient" x1="4.09" y1="50.6" x2="124.13" y2="50.6" gradientTransform="translate(2.7 -3.4) rotate(3.2)" gradientUnits="userSpaceOnUse"><stop offset="0.19" stop-color="#ffd"/><stop offset="0.26" stop-color="#fff6d8"/><stop offset="0.41" stop-color="#ffe8cf"/><stop offset="0.54" stop-color="#ffe3cc"/><stop offset="0.67" stop-color="#ffe8d2"/><stop offset="0.83" stop-color="#fff8e3"/><stop offset="0.89" stop-color="#ffffea"/></linearGradient><linearGradient id="linear-gradient-2" x1="19.75" y1="9.56" x2="33.78" y2="9.56" gradientTransform="translate(2.7 -3.4) rotate(3.2)" gradientUnits="userSpaceOnUse"><stop offset="0.14" stop-color="#ffe3cc"/><stop offset="0.3" stop-color="#ffddc9"/><stop offset="0.51" stop-color="#ffccbf"/><stop offset="0.52" stop-color="#ffccbf"/><stop offset="1" stop-color="#ffe3cc"/></linearGradient></defs><path class="cls-1" d="M81.6,34.7c-7.1,0-16.7,0-19,5.6-1,2.6,2.3-5.6,4.5-5.6,6,0,0,9,7.8,20.2C78.5,60,86.2,65.4,87.2,71.7c4.5-11.2,4-14.1-.7-21.2,2.7,2.4,6.6,4,8.6,7.3.2-4.2,0-7.4-2.5-11.5,1.4.8,2.9,2.1,4.3,3C97.4,41.4,87.2,34.7,81.6,34.7Z"/><path class="cls-2" d="M51.9,89.6c-5.2,1.2-32.2,14.6,51.6,10.9C70.5,104.5,6,100.1,51.9,89.6Z"/><path class="cls-2" d="M124.3,91.6c1.9.5,12.5,6.8-18.2,8.3C118.4,100.8,141.6,95.6,124.3,91.6Z"/><path class="cls-1" d="M117.7,54.8c1.1-1.1,2.9-1.3,4.6-1.5,5.7-1.7,9.4-3.5,13.8-7.8-.8,4.5-2.6,8.9-6.2,12,1-.8,2.9-1.2,3.9-2.1-.2,3-2.5,5.4-4.8,6.9a4.6,4.6,0,0,0,1.4-.9c-.7,4.2-6.7,6.7-10.2,8,.1-3.6,3.1-11.1-.6-13.5Z"/><path class="cls-4" d="M115.1,49.5c-8.2-6.1-19-9-29-8.6-7.5.3-14.5,3.1-21.8,3.9a12.4,12.4,0,0,1-1.9-2.6,38,38,0,0,1-1.8-5.4c-1.2-4.7-.9-9.9-3.3-14.3A24.7,24.7,0,0,0,43.4,11.3a35.3,35.3,0,0,0-14.8-1.1c-6.4.9-9.6,3.6-13.5,8.3s-4,7.5-5.2,11.7-2.2,6.9-4.2,9.5-1.9,1.8-1.3,3.8A13.3,13.3,0,0,0,6.9,48a32.9,32.9,0,0,0,8.6,7.6c7.3,4.8,13.5,7,20.7,7,2.2,4.3,8.3,10,10.7,12.5,13.6,11.9,40.8,20.7,57.9,14a28.6,28.6,0,0,0,16.6-15.9C124.8,64.6,123.6,55.7,115.1,49.5Z"/><path class="cls-5" d="M34.9,10.1c-3.7-3.7-9.5-3.7-12.6-8.3-.8,2.2,1.3,4.5,3.1,6a15.7,15.7,0,0,1-2.9-1.4c0,1.2,1.3,2.3,2.4,3.2a7.5,7.5,0,0,1-3-.9c2.2,7.3,8.5,3.1,13.7,3.9Z"/><path class="cls-6" d="M34.9,10.1c-3.8-3.5-10-3.5-13-8.1h.8c-.6,2.2,1.4,4.2,3,5.5l1.9,1.7-2.4-.9a13.5,13.5,0,0,1-3-1.4l.8-.4c.2,1.6,2.2,2.7,3.3,3.7H24.9a6.3,6.3,0,0,1-3.2-1l.7-.5a7.2,7.2,0,0,0,1.8,3.2c3.3,2.4,7.6-.1,11.4.8h-.1l-.6-2.5Zm0,0,.8,2.5h.1c-4-.6-8.4,2.2-12.1-.4-1.5-1.1-2-2.9-2.6-4.6a8,8,0,0,0,3.8,1.4l-.3.8C23.5,9,22.1,8,22,6.4V5.5a16.6,16.6,0,0,0,3.5,1.8l-.4.9C23,6.4,20.7,3.7,22.1.8c2.7,5,9.2,5.3,12.8,9.3Z"/><path class="cls-7" d="M32.5,37.4a11.1,11.1,0,0,1-.2,1.7c-.5,1.6-1.6,2.7-2.6,2.5s-1.2-1.9-.8-3.5l.2-.5Z"/><path class="cls-7" d="M12.5,33.6v.3c-.2,1.7-1.1,2.9-2,2.8S9,35.1,9.2,33.4a3.5,3.5,0,0,1,.5-1.8Z"/><path class="cls-8" d="M28.4,45.6c-1,3.3-8.9,5.5-11.9,7.4-8.4,6-7.8-8.7-4.6-12.8,5.5,2.2,11,3.3,16.5,5.4Z"/><path class="cls-9" d="M22.7,45.2c-1.8,2.8-6.3,3-8.8,5.3-.1-2.3.2-4.5.3-6.7,3,.7,5.3,1.9,8.3,1.5Z"/><path class="cls-10" d="M5.3,35.9c1.3-2.5,3.2.1,5.8.2s5.2-2.2,8-1.7,6.3,3.1,6,6.2c4.1,2.5,5.8,6.3-1,6.4C20.8,46.9,2.1,41.3,5.3,35.9Z"/><path class="cls-11" d="M62.4,43S82.3,57.1,44.2,61.9C44.2,61.9,63.7,56.8,62.4,43Z"/><path class="cls-1" d="M97.6,43.7c-7.1,0-16.7,0-19,5.6-1,2.6,2.3-5.6,4.5-5.6,6,0,0,9,7.8,20.2,3.6,5.1,11.3,10.5,12.3,16.8,4.5-11.2,4-14.1-.7-21.2,2.7,2.4,6.6,4,8.6,7.3.2-4.2,0-7.4-2.5-11.5,1.4.8,2.9,2.1,4.3,3C113.4,50.4,103.2,43.7,97.6,43.7Z"/></svg>