<svg xmlns="http://www.w3.org/2000/svg" viewBox="0 0 161 140"><defs><style>.cls-1{isolation:isolate;}.cls-2{fill:#353535;}.cls-3{fill:#616261;}.cls-4{fill:#262626;}.cls-5{fill:#eee;mix-blend-mode:multiply;}.cls-6{fill:#434343;}.cls-7{fill:#dadbd9;}.cls-11,.cls-15,.cls-8{fill:none;}.cls-8{stroke:#000;stroke-width:0.06px;}.cls-15,.cls-8{stroke-miterlimit:10;}.cls-9{fill:#333;}.cls-10{fill:#fff;}.cls-12{fill:#f3e9d6;}.cls-13{fill:#b7b7b9;}.cls-14{fill:#9ea0a3;}.cls-15{stroke:#b7b7b9;stroke-width:0.5px;}</style></defs><g class="cls-1"><g id="Isolation_Mode" data-name="Isolation Mode"><path class="cls-2" d="M71.8,107l.8-1.5a2.5,2.5,0,0,1-1.7.8,10.9,10.9,0,0,0,1.4-2.9s2.1-1,3.5.4v.4C76.1,107.5,72.9,107.1,71.8,107Z"/><path class="cls-3" d="M75.7,103.8c0,.1-.1.1-.2.2h-.7a2.1,2.1,0,0,1-1.6-.1,1.8,1.8,0,0,1-.9-.7s1-5.2,0-6.7-.6-2-.6-3.8a46.9,46.9,0,0,0-1.2-6.5L69.4,82a5,5,0,0,1,3.5-2.9,7.4,7.4,0,0,1,2.9.3s-.1,1.1-.2,2.6-.3,5.1-.3,7.2a7.8,7.8,0,0,0,.3,2.8c.9,1.3.1,2.9,0,4.7-.4,3.6.6,3.5.6,4.5S75.6,102.6,75.7,103.8Z"/><path class="cls-4" d="M70.9,106.3a5.6,5.6,0,0,0,2-1.4l-.3.6A2.5,2.5,0,0,1,70.9,106.3Z"/><path class="cls-4" d="M71.8,107s3.6-.4,4-2.8C76.1,107.5,72.9,107.1,71.8,107Z"/><path class="cls-5" d="M75.7,103.8c0,.1-.1.1-.2.2h-.7a12.1,12.1,0,0,0,.5-1.8c0-1.3-.6-1.9-.9-3.1a6.4,6.4,0,0,1,.4-3.6c.4-1.4-.1-2.2-.3-3.6a3.9,3.9,0,0,1,.5-2.8h.3a7.8,7.8,0,0,0,.3,2.8c.9,1.3.1,2.9,0,4.7-.4,3.6.6,3.5.6,4.5S75.6,102.6,75.7,103.8Z"/><path class="cls-6" d="M49.2,64.6l-.9,2c-6.9,2.3-11.5-.9-11.6-2.1a2.3,2.3,0,0,1,.9-1.2C39.8,61.5,45.3,59.4,49.2,64.6Z"/><path class="cls-3" d="M49.2,64.6l-.7-.4c-4.2-3.6-10.1-1.2-10.8-.9C39.8,61.5,45.3,59.4,49.2,64.6Z"/><path class="cls-2" d="M93.6,84.7l.9-1.4a2.9,2.9,0,0,1-1.8.7,10.5,10.5,0,0,0,1.4-2.8,8.4,8.4,0,0,1,3.5.4v.3C98,85.2,94.8,84.8,93.6,84.7Z"/><path class="cls-4" d="M92.7,84a5.6,5.6,0,0,0,2-1.4l-.2.7A2.5,2.5,0,0,1,92.7,84Z"/><path class="cls-4" d="M93.6,84.7s3.6-.4,4-2.8C98,85.2,94.8,84.8,93.6,84.7Z"/><path class="cls-6" d="M91.2,59.8s2.3,9,2.3,10.8-.4,2.2.6,3.8,0,6.8,0,6.8,1.1,1.6,3.5.4c-.2-1.2.4-1.7.4-2.7s-.9-.8-.6-4.5c.2-1.7.9-3.4,0-4.7s.3-12.6.3-12.6C94.6,56.2,92.5,57.2,91.2,59.8Z"/><path class="cls-2" d="M63.2,102.3l.8-1.5a2.5,2.5,0,0,1-1.7.8,10.9,10.9,0,0,0,1.4-2.9,10.7,10.7,0,0,1,3.5.4v.4C67.5,102.8,64.3,102.4,63.2,102.3Z"/><path class="cls-4" d="M62.3,101.6a5.6,5.6,0,0,0,2-1.4l-.3.6A2.5,2.5,0,0,1,62.3,101.6Z"/><path class="cls-4" d="M63.2,102.3s3.6-.4,4-2.8C67.5,102.8,64.3,102.4,63.2,102.3Z"/><path class="cls-6" d="M60.8,77.3s2.3,9.1,2.3,10.9-.4,2.2.6,3.8,0,6.7,0,6.7,1,1.7,3.5.4c-.3-1.2.4-1.6.4-2.6s-.9-.9-.6-4.5c.1-1.8.9-3.4,0-4.7s.2-12.6.2-12.6C64.1,73.8,62.1,74.8,60.8,77.3Z"/><path class="cls-2" d="M102.2,89.4l.9-1.5a2.5,2.5,0,0,1-1.8.8,10.5,10.5,0,0,0,1.4-2.8s2.1-1.1,3.5.4v.3C106.6,89.9,103.4,89.5,102.2,89.4Z"/><path class="cls-3" d="M106.2,86.2l-.3.2h-.3a2.8,2.8,0,0,1-2,.1,2.7,2.7,0,0,1-.9-.7s1-5.3,0-6.8-.6-2-.6-3.8a46.9,46.9,0,0,0-1.2-6.5l-1.1-4.3a4.6,4.6,0,0,1,3.6-2.9,5.9,5.9,0,0,1,2.9.2s-.1,1.1-.2,2.6c-.3,3.5-.6,9.3-.1,10s.2,3,0,4.7c-.3,3.7.6,3.5.6,4.5S106,85.1,106.2,86.2Z"/><path class="cls-5" d="M106.2,86.2l-.3.2h-.3a2.8,2.8,0,0,1-2,.1,2.7,2.7,0,0,1-.9-.7s1-5.3,0-6.8-.6-2-.6-3.8a46.9,46.9,0,0,0-1.2-6.5l-1.1-4.3a4.6,4.6,0,0,1,3.6-2.9,5.9,5.9,0,0,1,2.9.2s-.1,1.1-.2,2.6c-.3,3.5-.6,9.3-.1,10s.2,3,0,4.7c-.3,3.7.6,3.5.6,4.5S106,85.1,106.2,86.2Z"/><path class="cls-4" d="M101.3,88.7a5.6,5.6,0,0,0,2-1.4l-.2.7A2.5,2.5,0,0,1,101.3,88.7Z"/><path class="cls-4" d="M102.2,89.4s3.6-.4,4-2.8C106.6,89.9,103.4,89.5,102.2,89.4Z"/><path class="cls-7" d="M111.4,55.2c-.3,1.3-1.2,2.3-1.8,3.5a23.5,23.5,0,0,1-1.4,3.7c-.7,1.1-1.9,1.8-2.8,2.8a37.1,37.1,0,0,1-2.3,3.2c-1,.9-2.3,1.4-3.3,2.2s-1.1,1.2-1.7,1.8l-.5.4a2,2,0,0,1-.7.6c-1,.7-2.4,1-3.5,1.7s-2,1.8-3.2,2.4-2.1.5-3.1,1L85.3,80l-.7.4a2.1,2.1,0,0,1-1.1.4,6.8,6.8,0,0,0-2,.7c-.9.5-1.7,1.4-2.6,1.8a17.7,17.7,0,0,1-3.1.8A20,20,0,0,1,73,85.7h-.4a25.3,25.3,0,0,1-2.7.1,20.3,20.3,0,0,1-3.1.8h-.9c-.8-.2-1.5-.6-2.2-.7s-2.2,0-3.2-.3-1.7-1.3-2.7-1.8a14.2,14.2,0,0,1-2.2-.7,1.8,1.8,0,0,1-.5-.7h-.9A5.7,5.7,0,0,1,50,80a13.8,13.8,0,0,1-1.6-2.3,20.3,20.3,0,0,1-1.1-2.4s.5-3.3,2.3-10.4A2.4,2.4,0,0,1,51,63a1.2,1.2,0,0,1-.1-1.3c.2-.4.7.2,1.2-.1s.2-.7.5-.9.7.2,1,0,.2-.7.5-.8.8.1,1,0,.3-.8.5-.9.8.1,1.1,0,.2-.8.5-.9.8.1,1,0,.3-.8.5-1,.8.2,1.1,0,1.4-1.5,2.2-2,2-.7,2.7-1.3,1.4-1.6,2.1-2.2,1.9-.9,2.6-1.5a18.8,18.8,0,0,0,1.8-2.4c.8-.7,1.9-1,2.5-1.7s1.1-1.8,1.7-2.5,1.8-1.1,2.4-1.8,1.1-1.7,1.8-2.4,1.8-.9,2.6-1.5,1.3-1.6,2.2-2.1,1.8-.4,2.7-.8,1.7-1.1,2.6-1.4a28,28,0,0,1,2.9,0,14.7,14.7,0,0,1,2.8-.8c1-.1,1.9.5,2.9.7s2-.3,2.9,0a12.5,12.5,0,0,1,2.4,1.6c.9.4,2,.5,2.7,1.2s.3.2.3.4.8,1.4,1.3,2a14.2,14.2,0,0,1,2,2.2,23,23,0,0,1,.6,2.8,34.4,34.4,0,0,1,1.4,3.7v.9c0,1-.3,2.1-.4,3.1A25.1,25.1,0,0,1,111.4,55.2Z"/><polyline class="cls-8" points="97.3 63.2 97.3 63.2 97.3 63.2"/><path class="cls-7" d="M95.1,70.8a1.6,1.6,0,0,1,.9.5c.3.3.2.9.5,1.3s.7.1,1.1.2h.2c.3.3.4,1,.8,1.1s.9-.1,1.3.1h.3l.2.2h.6a.1.1,0,0,0,.1.1h.4c.1,0,.1,0,.1-.1h.7c.4,0,.8.4,1.3.3s.6-.7,1-.8h1.2l.5-.2h.6a.2.2,0,0,0,.2-.2h.1l.2-.2h0l.2-.2h.1a.1.1,0,0,0,.1-.1h.1v-.2l.3-.6c0-.1.1-.2.1-.3l.3-.6.3-.6c.4-.8,1.3-1.5,1.8-2.6s.1-2.1.4-3.1,1-1.9,1.2-2.9-.2-2.2-.1-3.2.6-2.1.6-3.1-.6-2.1-.7-3.1.2-2.2,0-3.2l-.2-.3"/><path class="cls-3" d="M44.9,63.9c-2.8,3.2-3.2,5.8-4.6,9.4s-1.9,5.1.4,6.8a3,3,0,0,0,3.2.5,8.4,8.4,0,0,0,3.3-2.5c.3-.5,4.4-.3,7-3.4s2.4-7.2,1.6-9.6S50.3,57.6,44.9,63.9Z"/><path class="cls-9" d="M40.1,76.1c-.1-.2-.4,0-.3.2a1.9,1.9,0,0,0,.9,1.4,2.7,2.7,0,0,0,.9,2.7c.1.1.3-.1.3-.2a4,4,0,0,1-.8-2.3,4.1,4.1,0,0,0,1.6-.6c.2-.2.4-.5-.3-.3S40.7,77.3,40.1,76.1Z"/><path class="cls-6" d="M50.6,70.5S50.1,72,49.3,72s-.9-.5-1.5-.2.3-.4.4-.7a2.1,2.1,0,0,1,1-1.3A1.2,1.2,0,0,1,50.6,70.5Z"/><path class="cls-9" d="M50.5,70.3c-.2.8-.7,1.4-1.3,1.4a1.1,1.1,0,0,1-1-.6,2.1,2.1,0,0,1,1-1.3A1.1,1.1,0,0,1,50.5,70.3Z"/><circle class="cls-10" cx="49.7" cy="70.4" r="0.3"/><path class="cls-7" d="M52.8,59.6c-.4-.1-.7-.7-1.1-.7s-.9.5-1.3.5-.8-.6-1.2-.6-.7.7-1.1.8-.9-.5-1.3-.4-.7.8-1,.9-1-.3-1.4-.1-.4.8-.7,1.1-1.1.1-1.3.4.1.9,0,1.3-.5.8-.4,1.2,1,.5,1.2.9.1,1.1.4,1.3,1.1.1,1.4.3.6.9,1.1,1,.9-.4,1.4-.4.8.7,1.2.8.9-.6,1.4-.6.8.6,1.2.7,1-.6,1.4-.5.7.8,1,1,1.1.2,1.3.6-.4.7-.4,1,.4.8.3,1.1-.8.2-1.1.5,0,.9-.2,1.1-.9,0-1.1.2-.2.9-.4,1.1-.9-.1-1.2.2,0,.8-.2,1.1-.9.1-1.1.4.3.8.3,1.1-.7.7-.6,1,.8.4,1.2.6.6.9,1,.9.8-.6,1.2-.7,1,.4,1.4.3.6-.8,1-1,1,.3,1.4.1.5-.8.9-1,1,.1,1.3-.1.5-.9.8-1.1,1.1,0,1.4-.2.3-1,.5-1.3,1.3-.7,1.6-1.3.1-1.4.2-2,.9-1.2.9-1.9-.7-1.2-.9-1.8,0-1.5-.4-2-1.2-.7-1.7-1.2-.5-1.3-1-1.7-1.4-.3-2-.7-.9-1.2-1.4-1.4-1.5,0-2.1-.2Z"/><path class="cls-7" d="M84.5,73.9c1.5-.4,2.4-.3,2.6,0a4.2,4.2,0,0,1,0,2.6,17.6,17.6,0,0,1-1.5,2.3c-.1.2-.1.5-.2.8a.8.8,0,0,1-.1.4,4.3,4.3,0,0,1-.4,1.4c-.4.7-1.3,1.2-1.8,2s-.7,1.7-1.3,2.4-1.6.9-2.2,1.5-1.1,1.5-1.8,2l-.3.2H77l-.9.2H74.9l-.3.2h-.2a1.7,1.7,0,0,1-1.1.6c-.7.1-1.4-.5-2-.6h0c-.7-.1-1.5.1-2.1-.2s-.9-1.2-1.3-1.7l-.5-.3a2.9,2.9,0,0,1-1.3-.8,1.9,1.9,0,0,1-.3-.8h0v-.2"/><path class="cls-11" d="M66.9,80.2h-.1"/><path class="cls-12" d="M63.7,83.2l.3.6.7.8"/><path class="cls-13" d="M48.4,77.7h0A18.8,18.8,0,0,0,50,80a5.7,5.7,0,0,0,4.2,2.4h.9a1.8,1.8,0,0,0,.5.7,14.2,14.2,0,0,0,2.2.7c1,.5,1.8,1.4,2.7,1.8a8.6,8.6,0,0,0,2.3.2h.9a10.3,10.3,0,0,1,2.1.7h.8a1.4,1.4,0,0,1-.2-.6l.4-.5c.3-.3.8-.7.7-1.1s-.4-.8-.7-1.2a1,1,0,0,1-.4-.7c-.1-.5.3-1.1.4-1.6a1.1,1.1,0,0,0,.1-.5c-.1-.1-.1-.1-.1-.2h0c-.5-.7-1.8-.8-2.5-1.4s-.6-2.1-1.2-2.6-1.3.3-1.8.2h-.1c-.2,0-.3-.3-.4-.6a4.6,4.6,0,0,0-.5-1c-.5-.3-1.6.2-2-.2s-.2-.3-.2-.5,0-1.2-.2-1.5A7.8,7.8,0,0,0,56,71.4l-.6-.5-.8-.9c-.5-.4-1-.7-1.5-.1H53c-.1.1.1.3.2.5h0c.2.2.5.5.4.6h0"/><path class="cls-14" d="M65.9,86.6c-.8-.2-1.5-.6-2.2-.7s-2.2,0-3.2-.3-1.7-1.3-2.7-1.8a14.2,14.2,0,0,1-2.2-.7,1.8,1.8,0,0,1-.5-.7h-.9A5.7,5.7,0,0,1,50,80c1.1-.4,2.4-.3,3.4-.6s2.7-1.7,4.1-1.4,2.2,1.8,3.4,2.8,1.5-.1,1.9.3,0,1.5.3,1.9,1.5.2,1.8.6-.5,1.3-.3,1.9S65.7,86.2,65.9,86.6Z"/><path class="cls-6" d="M63,74.8c-.5.9-7.7,2.4-9.9-4,0-.2-.1-.4-.1-.7a1.8,1.8,0,0,1,.8-1.5c4.6-3,8.3,2.7,9.1,5.2C63,74.3,63.1,74.6,63,74.8Z"/><path class="cls-3" d="M62.9,73.8a10.1,10.1,0,0,0-4.5-4.3c-1.7-.9-4.5.2-5.4.6a1.8,1.8,0,0,1,.8-1.5C58.4,65.6,62.1,71.3,62.9,73.8Z"/><path class="cls-13" d="M112.3,61.1c-.2,1-.9,1.9-1.2,2.9s-.1,2.2-.4,3.1-1.4,1.8-1.8,2.6-.8,2.2-1.4,2.9a6.9,6.9,0,0,1-2.9,1.3c-.4.1-.6.8-1,.8s-.9-.3-1.3-.3-.9.5-1.3.4-.7-.6-1.1-.7-1,.1-1.3-.1-.5-.8-.8-1.1h-.2a2,2,0,0,1-.7.6c-1,.7-2.4,1-3.5,1.7s-2,1.8-3.2,2.4-2.1.5-3.1,1L85.3,80a4.3,4.3,0,0,1-.4,1.4c-.4.7-1.3,1.2-1.8,2s-.7,1.7-1.3,2.4-1.6.9-2.2,1.5-1.1,1.5-1.8,2-1.8.4-2.6.7l-.8.4c.2-.5.5-1,.3-1.4s-1.4-.3-1.7-.8.3-1.5.1-1.9a.8.8,0,0,0-.5-.5c-.4-.3-.9-.6-.9-.9s1.1-.6,1.4-1,.1-1.4.5-1.7,1.4.5,1.8.2.3-1.5.7-1.9,1.6-.4,1.9-1-.6-1.4-.5-2,1.1-.5,1.1-.8-.6-.4-.9-.5l-.3-.2c0-.3.9-.8.8-1.1s-1.4-.9-1.5-1.5.7-1.3.7-1.9-1-1.4-.7-1.9,1.4-.4,1.7-.7.3-1.6.7-1.7,1.1.8,1.6.9,1-.9,1.4-.8.5,1.2.9,1.4,1.2-.7,1.5-.5.8,1.4,1.4,1.5,1.2-.8,1.8-.8,1.4.7,2,.4.2-1.4.6-1.7,1.4.1,1.7-.3-.2-1.4,0-1.8,1.5-.5,1.7-1-.4-1.4-.2-1.9,1.4-.3,1.8-.6.9-1.8,1.5-1.7.7.4.9.8a3.4,3.4,0,0,0,.8.9c.6.4,1.8,0,2.3.4s.6,1.9,1.2,2.1,1.3-.7,2-1.1,1.7.1,2.3-.6.3-2.4.7-3.5,1.7-1.8,1.9-3-.6-2.4-.5-3.5,1.1-1,1.2-1.6-1-1.3-.9-1.9,1.1-1.2,1-1.7-1.1-1-1.2-1.6.6-1.2.6-1.7-1.4-.9-1.6-1.4.5-1.7.1-2.5-1.6-1-1.8-1.7.6-1.5.8-2.1.8,1.4,1.3,2a14.2,14.2,0,0,1,2,2.2,23,23,0,0,1,.6,2.8,34.4,34.4,0,0,1,1.4,3.7v.9l.2.3c.2,1-.1,2.1,0,3.2s.7,2,.7,3.1-.5,2.1-.6,3.1S112.5,60,112.3,61.1Z"/><path class="cls-14" d="M96,73.4c-1,.7-2.4,1-3.5,1.7s-2,1.8-3.2,2.4-2.1.5-3,1a5.8,5.8,0,0,0-1.7,1.4c-.2.1.2-1.7-.9-1.9a1.7,1.7,0,0,1-1-2.5c.7-1.5,1.4-3,3.1-2.6s.7,1,2,.6,1.5-1.2,2.4-1.4a5.3,5.3,0,0,1,1.7-.4c.7,0,1.1.4,1.7-.1s.7-1.3,1.4-1.4.3.3.6,0,.1-.5.2-.7.6-.8.8-.2,0,1.6.2,2.4S96.5,73.1,96,73.4Z"/><path class="cls-15" d="M112.2,57.9c.1-1,.6-2.1.6-3.1a6.5,6.5,0,0,0-.4-2,2.3,2.3,0,0,1-.3-1.1,16.2,16.2,0,0,1,0-2.2v-1a.1.1,0,0,1-.1-.1.3.3,0,0,0-.1-.2v-.9a34.4,34.4,0,0,0-1.4-3.7,23,23,0,0,0-.6-2.8,14.2,14.2,0,0,0-2-2.2c-.5-.6-.8-1.4-1.3-2s-.2-.3-.3-.4-1.8-.8-2.7-1.2a12.5,12.5,0,0,0-2.4-1.6c-.9-.3-2,.1-2.9,0s-1.9-.8-2.9-.7a14.7,14.7,0,0,0-2.8.8,28,28,0,0,0-2.9,0c-.9.3-1.7,1.1-2.6,1.4s-2,.4-2.7.8-1.4,1.5-2.2,2.1-1.9.8-2.6,1.5-1,1.7-1.8,2.4-1.7,1.1-2.4,1.8-1,1.8-1.7,2.5-1.7,1-2.5,1.7a18.8,18.8,0,0,1-1.8,2.4c-.7.6-1.8.9-2.6,1.5s-1.2,1.6-2.1,2.2-1.8.7-2.7,1.3-1.4,1.5-2.2,2-.8-.1-1.1,0-.2.8-.5,1-.8-.2-1,0-.3.7-.5.9-.8-.2-1.1,0-.2.7-.5.9-.7-.2-1,0H54l-1.2-.4c-.4-.1-.7-.7-1.1-.7s-.9.5-1.3.5-.8-.6-1.2-.6-.7.7-1.1.8-.9-.5-1.3-.4-.7.8-1,.9-1-.3-1.4-.1-.4.8-.7,1.1-.9.1-1.2.3a5.1,5.1,0,0,0-1.7.3,10.6,10.6,0,0,0-3.2,1.6,2.3,2.3,0,0,0-.9,1.2c.1.8,2.2,2.6,5.8,2.9-.9,1.8-1.3,3.7-2.2,5.9s-1.9,5.1.4,6.8a3,3,0,0,0,3.2.5,8.4,8.4,0,0,0,3.3-2.5c.1-.2.6-.2,1.2-.4h0a.5.5,0,0,1,.2.4c.1,0,.1.1.2.2s.1.2.2.3a.3.3,0,0,0,.1.2l.3.5h.1l.5.6a5.7,5.7,0,0,0,4.2,2.4h.9a1.8,1.8,0,0,0,.5.7,14.2,14.2,0,0,0,2.2.7l.8.5a8,8,0,0,0,1.9,1.3h2.3a15.2,15.2,0,0,1,.3,2.4c0,1.8-.4,2.2.6,3.8s0,6.7,0,6.7a10.9,10.9,0,0,1-1.4,2.9h0l.9-.2h0l.4-.2h.1l.3-.3-.8,1.5c1.1.1,4.3.5,4-2.8v-.4h0c-.3-1.2.4-1.6.4-2.6s-.9-.9-.6-4.5c.1-1.4.6-2.7.4-3.8h0l.5.3c.4.5.7,1.3,1.3,1.7s1.4.1,2.1.2h0a10.3,10.3,0,0,1,.4,2.5c0,1.8-.4,2.2.6,3.8s0,6.7,0,6.7h0a10.9,10.9,0,0,1-1.4,2.9h0l.9-.2h0l.4-.2h.1a.7.7,0,0,0,.3-.3l-.8,1.5c1.1.1,4.3.5,4-2.8v-.4h-.1c-.1-1.2.5-1.6.5-2.6s-1-.9-.6-4.5c.1-1.8.9-3.4,0-4.7a6.6,6.6,0,0,1-.3-2.1h2.2l.3-.2a5.2,5.2,0,0,0,1-1.1,3.4,3.4,0,0,1,.8-.9c.6-.6,1.6-.9,2.2-1.5a2.4,2.4,0,0,0,.6-1.1,4,4,0,0,1,.7-1.3c.5-.8,1.4-1.3,1.8-2a3.3,3.3,0,0,0,.4-1.4h0l1.3-1.1c0-.1,0-.1.1-.1l.4-.3c1-.5,2.1-.5,3.1-1s2-1.8,3.2-2.4l.8-.5c.8,1.8-.1,6.6-.1,6.6A10.5,10.5,0,0,1,92.7,84h0l.9-.2h.1l.3-.2h.1l.4-.2-.9,1.4c1.2.1,4.4.5,4-2.8v-.3h0c-.2-1.2.4-1.7.4-2.7s-.9-.8-.6-4.5l.3-1.5h.1l.2.3.2.4h.1a.3.3,0,0,0,.3.3c.3.2.7,0,1,0h.6l.2.2h.6a.1.1,0,0,0,.1.1h.4c.1,0,.1,0,.1-.1h.4a3.4,3.4,0,0,1,.1.9c0,1.8-.4,2.2.6,3.8s0,6.8,0,6.8h0a10.5,10.5,0,0,1-1.4,2.8h0l.9-.2h.1l.3-.2h.1l.4-.2-.9,1.4c1.2.1,4.4.5,4-2.8v-.3h0c-.2-1.1.4-1.6.4-2.6s-.9-.8-.6-4.5c.2-1.7.9-3.4,0-4.7a4.1,4.1,0,0,1-.2-.9h1.4l.2-.2h.3a.1.1,0,0,0,.1-.1h.1v-.2h.1l.3-.7h0l.2-.5v-.2l.3-.5c.4-.8,1.3-1.5,1.8-2.6h0a4.1,4.1,0,0,0,.2-1.6c.1-.5.1-.9.2-1.4a3.6,3.6,0,0,1,.4-.9,10.8,10.8,0,0,0,.8-1.9h0C112.5,60,112.1,58.9,112.2,57.9Z"/></g></g></svg>