<svg id="Layer_1" data-name="Layer 1" xmlns="http://www.w3.org/2000/svg" xmlns:xlink="http://www.w3.org/1999/xlink" viewBox="0 0 118.3 150.2"><defs><style>.cls-1{fill:#d0e8ec;opacity:0.8;}.cls-2{fill:#efb49a;}.cls-2,.cls-3{stroke:#9e4d2d;stroke-miterlimit:10;}.cls-3{fill:url(#linear-gradient);}.cls-4{fill:url(#linear-gradient-2);}.cls-5{fill:#933d18;}.cls-6{fill:#231f20;}.cls-7{fill:#d82e2a;}.cls-8{fill:#b22424;}.cls-9{fill:#ef4136;}</style><linearGradient id="linear-gradient" x1="29.49" y1="74.28" x2="100.25" y2="74.28" gradientUnits="userSpaceOnUse"><stop offset="0.19" stop-color="#ffd"/><stop offset="0.26" stop-color="#fff6d8"/><stop offset="0.41" stop-color="#ffe8cf"/><stop offset="0.54" stop-color="#ffe3cc"/><stop offset="0.67" stop-color="#ffe8d2"/><stop offset="0.83" stop-color="#fff8e3"/><stop offset="0.89" stop-color="#ffffea"/></linearGradient><linearGradient id="linear-gradient-2" x1="54.68" y1="10.18" x2="67.41" y2="10.18" gradientUnits="userSpaceOnUse"><stop offset="0.14" stop-color="#ffe3cc"/><stop offset="0.3" stop-color="#ffddc9"/><stop offset="0.51" stop-color="#ffccbf"/><stop offset="0.52" stop-color="#ffccbf"/><stop offset="1" stop-color="#ffe3cc"/></linearGradient></defs><ellipse class="cls-1" cx="76.9" cy="130.1" rx="24.3" ry="9" transform="translate(-4.3 2.6) rotate(-1.9)"/><path class="cls-2" d="M46.4,72.7c-4.7-2.2-12.2,3.5-16,5.7-8.1,5.3-16.9,9.1-27,9.5h.3c5.6,2.4,17.4,1.7,23.5-.1-2.5,2.4-6.4,2.6-9.8,3.3,4.8,1.4,8.7.5,13.3,0-2.2,1.6-5.1,2.4-7.6,3.4C37.8,97.5,52,86.5,46.4,72.7Z"/><path class="cls-2" d="M95,107.2c6-1.1,11.8,1.3,18.7-2.2-1.5,5-5.8,8-10.1,11a34.2,34.2,0,0,1,4-.9c-.8,1.4-2.2,2.1-4.1,2.6a8.6,8.6,0,0,1,1.6,0c-1.4,2.4-8.2,5.3-10.5,2.8s.3-8.5.1-10.6Z"/><path class="cls-3" d="M79.6,85.4c-5.9-5.5-11.4-13.1-12.4-20.8a43.8,43.8,0,0,0,13.9-3c3.2-1.4,6.8-3,8.4-6.1s-1.3-4.6-1.9-7.4a24.8,24.8,0,0,1-.6-5.4c-.2-4.6,1.2-9.6-.1-14.1S80.8,18.6,75.5,16a34.4,34.4,0,0,0-14.6-3c-6.5.1-10.3,2.3-15.2,6.2S40,25.9,37.9,29.7a32.9,32.9,0,0,1-6.2,8.7c-1.4,1.3-2.3,1.5-2.2,3.4A12.9,12.9,0,0,0,31,46.5a29.3,29.3,0,0,0,6.9,8.4,42.6,42.6,0,0,0,9.3,6.5c-1.3,7.9-5.3,15.3-7.2,23.1-2.3,9.8-2,23.8,3.4,32.7,7.8,12.9,32.9,25.2,49.7,13.8S90.3,95.5,79.6,85.4Z"/><path class="cls-4" d="M67.2,13.7c-2.8-4-8.6-4.7-10.7-9.6-1.2,2.1.3,4.5,1.8,6.2a13,13,0,0,1-2.6-1.7c-.3,1.1.8,2.3,1.7,3.3a5.1,5.1,0,0,1-2.7-1.2c.5,7.3,7.7,4.1,12.7,5.5Z"/><path class="cls-5" d="M67.2,13.7c-3-3.9-9-4.6-11.1-9.4h.8c-1.1,2,.5,4.2,1.7,5.7l1.6,1.8A25.2,25.2,0,0,1,55.4,9l.8-.3c-.2,1.5,1.6,2.8,2.5,3.9A7.6,7.6,0,0,1,54.4,11l.7-.4A5.1,5.1,0,0,0,56.4,14c2.8,2.6,7.5.8,11,2.1h-.1V13.7Zm0,0,.3,2.5v.2c-2.6-.7-5.2-.2-7.9-.4s-5.3-2.7-5.5-6.3a7.5,7.5,0,0,0,3.4,1.8l-.4.8c-.9-1.1-2.2-2.3-1.9-3.8l.2-.8.6.5a22,22,0,0,0,2.5,1.7l-.6.7a15.3,15.3,0,0,1-1.9-3,4.3,4.3,0,0,1,.1-3.7l.5-.7.3.8c1.9,4.6,7.8,5.6,10.3,9.7Z"/><path class="cls-6" d="M56,39.1c-.8,1.5-.8,3.1,0,3.5s2.3-.6,3.1-2.1.8-3.1,0-3.5S56.8,37.6,56,39.1Z"/><path class="cls-6" d="M37.7,31c-.7,1.6-.5,3.2.4,3.5s2.2-.8,2.8-2.4.5-3.1-.4-3.4S38.3,29.4,37.7,31Z"/><path class="cls-7" d="M37.8,38.1h.3a7.3,7.3,0,0,1,4.8.8,7.9,7.9,0,0,1,3.3,3.7c1.2,2.6-1.2,5.2-3.8,5.8s-4.7.2-7,.7-4.8,1.9-4.2-1.7a15.5,15.5,0,0,1,3.2-5.9C35.3,40.3,36.3,38.6,37.8,38.1Z"/><path class="cls-8" d="M43.4,43.6c-.2,1.1-1.7,1.6-2.8,1.7s-4.3-.2-6.3,1.6c-.3-1.2,2.7-6.2,4-6.2s1.7,1.7,2.3,2.2a8.6,8.6,0,0,0,2.5.7Z"/><path class="cls-9" d="M36.9,25.8c1.2,1.4-.3,4.2,1.4,6.2s3.5,2.1,5.2,3.3a6.6,6.6,0,0,1,1.9,2.1c1.6,1.9,2.4,7.4-.4,7.7s-3.6-1.4-5-2.5-3.4-2-5.1-3-4.7-4.8-3.9-8.2C31.3,29.8,35,23.2,36.9,25.8Z"/><path class="cls-2" d="M69.4,77.6c4.2-2.9,12.8,1.3,16.9,2.8,9.1,3.7,18.5,5.9,28.5,4.4h-.3c-4.9,3.4-16.7,4.8-23,4.1,3,1.9,6.9,1.4,10.3,1.5-4.4,2.2-8.4,2.1-13,2.4,2.5,1.1,5.5,1.4,8.1,1.9-13.8,5.7-30-2.5-27.5-17.1Z"/></svg>