<svg xmlns="http://www.w3.org/2000/svg" viewBox="0 0 84 66"><defs><style>.cls-1{fill:#dbd1c0;stroke-width:0.08px;opacity:0.3;}.cls-1,.cls-12,.cls-2,.cls-9{stroke:#000;}.cls-1,.cls-12,.cls-15,.cls-2,.cls-9{stroke-miterlimit:10;}.cls-2{fill:#f3e9d6;}.cls-12,.cls-2,.cls-9{stroke-width:0.04px;}.cls-3{fill:#fbd9ac;}.cls-4{fill:#c0945b;}.cls-5{fill:#423b32;}.cls-6{fill:#2b2722;}.cls-7{fill:#b18856;}.cls-8{fill:#68553f;}.cls-9{fill:#999085;}.cls-10{fill:#78909c;}.cls-11{fill:#434343;}.cls-12{fill:#fff;}.cls-13{fill:#dfb784;}.cls-14{fill:#6c5f4e;}.cls-15{fill:none;stroke:#dfb784;stroke-width:0.3px;}</style></defs><g id="Layer_77" data-name="Layer 77"><path class="cls-1" d="M62.6,28.3c-4.8,7.9-10.5,8-17.6,11.3l-.5.3h-.1l-1.2.6H41.7v-.4a.6.6,0,0,1-.1-.4c-.2-1-.5-2.2-.7-3.4h0c-.2-2.2.2-4,2.2-4s2.3.3,3.5.3c5.1-.2,8.6-5,11.4-8.9L59.4,22c1.4-1.8,2.4-.9,3.4.2S62.5,26.8,62.6,28.3Z"/><path class="cls-2" d="M69.6,23h0c-.2,1.9-2.3,10.5-3.5,9.4a15.7,15.7,0,0,1-3-5,4.1,4.1,0,0,1-.5.9c-.1-1.5.1-4.1.2-6.1s-2-2-3.4-.2L58,23.8c-2.8,3.9-6.3,8.7-11.4,8.9-1.2,0-2.4-.3-3.5-.3s-2.4,1.8-2.2,4h0c.2,1.2.5,2.4.7,3.4a.6.6,0,0,0,.1.4v.4H39.1a22.2,22.2,0,0,1-11.4-4.2,10.3,10.3,0,0,1-2.5-2.1c-4.6-4.8-4.6-10.6,2-11.1,1.8,1.1,3.7.5,5.6.7s7.3-1.9,12.2-4.7C52,15.2,53.6,9,62.6,8.7a6,6,0,0,1,2.7.6C68.4,10.8,70.2,15.4,69.6,23Z"/><path class="cls-3" d="M68.5,10.9h.4c-.5.5-1.4,1.2-2.9,0l-.5-.2a1.6,1.6,0,0,0-1.4.4.7.7,0,0,1-.7-.2l-.7-.9.7-.2c.2,0,.4-.2.6-.3A4.2,4.2,0,0,0,65.1,8a.6.6,0,0,0,.1.4,1.4,1.4,0,0,1,1.1-.7c-.2.1-.2.2-.2.4a1.3,1.3,0,0,1,1.4.4l-.5.2c.2.4.6,1.3,1.2,1.3h-.5c.3.4.8.5,1.6.1A1.8,1.8,0,0,1,68.5,10.9Z"/><path class="cls-3" d="M65.5,10.6a1.6,1.6,0,0,0-1.4.4.7.7,0,0,1-.7-.2,1.4,1.4,0,0,1,0-1.1c.2,0,.4-.2.6-.3A3.7,3.7,0,0,1,65.5,10.6Z"/><path class="cls-3" d="M14,26.7c5.7,3.7,5-2.1,8.3-2.3,1.6-.1.9-1.6-.5-2.1-4.1-1.6-5.3,2.5-8.2,3.3C12.9,25.9,13.2,26.2,14,26.7Z"/><path class="cls-4" d="M21.6,24.1s-1.2-.3-3.3,1.2-4.3.4-4.4.7,2,1.8,3.6,1.5S19.4,24.9,21.6,24.1Z"/><path class="cls-5" d="M59.2,39.2l.6-1.1a1.9,1.9,0,0,1-1.4.5,6.6,6.6,0,0,0,1.1-2,9,9,0,0,1,2.9.3v.3C62.7,39.5,60.1,39.2,59.2,39.2Z"/><path class="cls-6" d="M58.4,38.6a4.6,4.6,0,0,0,1.7-.9l-.3.4A1.8,1.8,0,0,1,58.4,38.6Z"/><path class="cls-6" d="M59.2,39.2s2.9-.3,3.2-2C62.7,39.5,60.1,39.2,59.2,39.2Z"/><path class="cls-4" d="M62.4,36.9h0c-2,.9-2.9-.3-2.9-.3s.8-3.7,0-4.8l-.3-.5c-.4-.7-.1-1.1-.1-2.2a49.1,49.1,0,0,0-1.3-5.5,20.5,20.5,0,0,1-.6-2.2c1-1.8,2.7-2.5,5.2-1.9,0,0-.1,1.2-.2,2.6a41.8,41.8,0,0,0-.1,6c0,.2.1.3.1.4s.2,2.1,0,3.3.5,2.5.5,3.2S62.2,36.1,62.4,36.9Z"/><path class="cls-5" d="M34.2,52.6l.6-1a2.1,2.1,0,0,1-1.3.5,9.3,9.3,0,0,0,1-2,6.6,6.6,0,0,1,2.5.3v.3C37.3,53,35,52.7,34.2,52.6Z"/><path class="cls-6" d="M33.5,52.1s1.2-.4,1.4-.9v.4A1.7,1.7,0,0,1,33.5,52.1Z"/><path class="cls-6" d="M34.2,52.6s2.5-.3,2.8-1.9C37.3,53,35,52.7,34.2,52.6Z"/><path class="cls-7" d="M32.4,35a72.9,72.9,0,0,1,1.7,7.7c0,1.2-.3,1.6.4,2.6s0,4.8,0,4.8a1.8,1.8,0,0,0,2.5.3c-.2-.8.3-1.2.3-1.9s-.7-.6-.4-3.2.6-2.3,0-3.3.1-8.8.1-8.8C34.8,32.6,33.3,33.3,32.4,35Z"/><path class="cls-5" d="M41.3,55.9l.6-1.1a1.8,1.8,0,0,1-1.3.6,5.3,5.3,0,0,0,1-2,7.3,7.3,0,0,1,2.6.3v.2C44.4,56.2,42.1,56,41.3,55.9Z"/><path class="cls-6" d="M40.6,55.4a4.2,4.2,0,0,0,1.5-1l-.2.5A2.3,2.3,0,0,1,40.6,55.4Z"/><path class="cls-6" d="M41.3,55.9s2.6-.3,2.9-2C44.4,56.2,42.1,56,41.3,55.9Z"/><path class="cls-3" d="M39.5,38.3a76.2,76.2,0,0,1,1.7,7.6c0,1.3-.3,1.6.4,2.7s0,4.8,0,4.8.8,1.2,2.6.3c-.2-.9.3-1.2.3-1.9s-.7-.6-.5-3.2.7-2.3,0-3.3.2-8.9.2-8.9A3.7,3.7,0,0,0,39.5,38.3Z"/><path class="cls-3" d="M69.6,23h0c-.1,1.9-2.3,10.5-3.5,9.4a15.7,15.7,0,0,1-3-5c-5.1,9-11,8.8-18.6,12.5h-.1l-1.2.6-.3.2a11.3,11.3,0,0,1-2.6-.1h-.4a23.6,23.6,0,0,1-12.2-4.3,10.3,10.3,0,0,1-2.5-2.1c-4.6-4.8-4.6-10.6,2-11.1,1.8,1.1,3.7.5,5.6.7s7.3-1.9,12.2-4.7C52,15.2,53.6,9,62.6,8.7a6,6,0,0,1,2.7.6C68.4,10.8,70.2,15.4,69.6,23Z"/><path class="cls-3" d="M20.8,23.6c-2.2,2.6-2.6,4.6-3.8,7.6s-1.5,4,.4,5.4a2.3,2.3,0,0,0,2.6.3,6.3,6.3,0,0,0,2.6-2c.3-.3,3.6-.2,5.8-2.6s1.9-5.8,1.3-7.7S22.8,21.2,20.8,23.6Z"/><path class="cls-8" d="M16.9,33.4c-.1-.2-.3,0-.3.1a2.2,2.2,0,0,0,.7,1.2,2.5,2.5,0,0,0,.8,2.1c.1,0,.3-.1.2-.2a2.9,2.9,0,0,1-.6-1.8,2.7,2.7,0,0,0,1.3-.5c.2-.1.3-.4-.3-.2S17.4,34.3,16.9,33.4Z"/><path class="cls-9" d="M25.4,28.9S25,30,24.4,30s-.8-.3-1.2,0l.3-.6c.1-.4.3-.9.8-1S25.2,28.5,25.4,28.9Z"/><path class="cls-10" d="M25.4,28.7c-.2.7-.6,1.1-1.1,1.1a.9.9,0,0,1-.8-.4c.1-.4.3-.9.8-1A.8.8,0,0,1,25.4,28.7Z"/><path d="M25.3,28.7a1.1,1.1,0,0,1-.5.9.9.9,0,0,1-1,.1l-.2-.2a.1.1,0,0,1-.1-.1h0l.3-.5a1,1,0,0,1,.8-.5.8.8,0,0,1,.7.5c.1,0,.1,0,.1-.1s-.4-.4-.6-.4a1,1,0,0,0-1,.4l-.3.5c0,.1-.1.2,0,.2h.2a.9.9,0,0,0,1,.1,1.3,1.3,0,0,0,.7-.9A.1.1,0,0,0,25.3,28.7Z"/><path class="cls-11" d="M23.8,29.2c0,.1.1.3.2.3a3.1,3.1,0,0,0,1-.5c.1-.2,0-.4-.1-.4Z"/><path d="M23.8,29.2a.3.3,0,0,0,.1.2.1.1,0,0,0,.1.1h.2l.7-.4h.2a.6.6,0,0,0-.1-.4h-.2l-.4.2L24,29l-.2.2H24l.3-.2.6-.3H25V29h-.1l-.6.3H24a.2.2,0,0,1-.1-.3Z"/><path class="cls-12" d="M24.9,28.8c0,.2-.1.3-.2.3s-.2-.1-.2-.3a.2.2,0,0,1,.4,0Z"/><path class="cls-13" d="M63.1,27.4C58,36.5,52,36.2,44.5,39.9h-.1s-.5-2.8-.1-3.2,7,0,10.4-2.9,6.9-10.7,7.5-10.3S63.1,27.4,63.1,27.4Z"/><path class="cls-5" d="M65.7,43l.6-1.1c0,.1,0,.1-.1.1l-.7.4h-.6a8.1,8.1,0,0,0,1.1-2s1.7-.8,2.8.2a.4.4,0,0,1,.1.3C69.2,43.3,66.6,43.1,65.7,43Z"/><path class="cls-3" d="M68.9,40.7h-.3c0,.1-.1.1-.2.1a2,2,0,0,1-1.7,0,1.7,1.7,0,0,1-.7-.4s.8-3.8,0-4.9-.4-1.4-.4-2.7a8.9,8.9,0,0,0-.2-1.1,30.2,30.2,0,0,0-.9-3.5l-.8-3.1a4.1,4.1,0,0,1,1.4-1.5,3.8,3.8,0,0,1,1.5-.5,6.1,6.1,0,0,1,2.3.1h0c0,.3-.1.9-.1,1.8-.2,2.5-.4,6.6-.1,7.1s.2,2.1,0,3.3.5,2.5.5,3.2S68.7,39.9,68.9,40.7Z"/><path class="cls-6" d="M66.6,41.5l-.3.4c0,.1,0,.1-.1.1l-.7.4h-.6A5.4,5.4,0,0,0,66.6,41.5Z"/><path class="cls-6" d="M65.7,43s2.9-.3,3.2-2C69.2,43.3,66.6,43.1,65.7,43Z"/><path class="cls-13" d="M34.5,34c-8,.9-4.2-4.7-7.5-6.6-1.7-1-.2-2.2,1.6-2,5.2.4,4.3,5.3,6.8,7.7C36.1,33.7,35.5,33.9,34.5,34Z"/><path class="cls-4" d="M27.8,27.4s1.5.3,2.9,3,4.3,2.6,4.2,3-3,.9-4.6-.3S29.7,29.4,27.8,27.4Z"/><path class="cls-14" d="M23,23.2l.7-.4c1-.5.3-1.2-.7-1.8a.6.6,0,0,0-.9.6c.1.8.3,1.9.9,1.6"/><path class="cls-14" d="M25.3,24.9l.7-.4c1-.5.3-1.2-.7-1.8s-.8.1-.8.6.3,1.9.8,1.6"/><path class="cls-15" d="M67.7,11.5a2,2,0,0,0,1.2-.7h-.4a1.8,1.8,0,0,0,.8-.7c-.8.4-1.3.3-1.6-.1h.5c-.6,0-1-.9-1.2-1.3l.5-.2a1.3,1.3,0,0,0-1.4-.4c0-.2,0-.3.2-.4a1.4,1.4,0,0,0-1.1.7.6.6,0,0,1-.1-.4,8.6,8.6,0,0,1-.7,1l-1.2-.3h-.6l-2.9.4c-6.5,1.3-8.5,6.6-14.7,10a22.1,22.1,0,0,1-3.4,1.8c-3.6,1.8-7.1,2.9-8.6,2.9h-.2c-1.2-.1-2.5.1-3.7,0a7,7,0,0,0-4.9-1.5c0-.4-.6-.9-1.2-1.3a.6.6,0,0,0-.9.6c.1.3.1.6.2.9l-.5-.2c-4.1-1.6-5.3,2.5-8.2,3.3-.7.3-.4.6.4,1.1s3.5,1.4,4.4.9c-.5,1.1-.8,2.2-1.4,3.6s-1.5,4,.4,5.4a2.3,2.3,0,0,0,2.6.3,6.3,6.3,0,0,0,2.6-2c.2-.2,1.3-.2,2.7-.7l.7.8,1.2,1,.5.3h0l1.1.7.5.3.8.4.6.3.7.4.7.3.8.3.5.2a18.3,18.3,0,0,1,.7,3.4c0,1.2-.3,1.6.4,2.6s0,4.8,0,4.8a9.3,9.3,0,0,1-1,2h.7c.1-.1.2-.1.2-.2h.1l.3-.2-.6,1c.8.1,3.1.4,2.8-1.9v-.3h0c-.2-.8.3-1.2.3-1.9s-.7-.6-.4-3.2.6-2.3,0-3.3a3.7,3.7,0,0,1-.2-1.8h3.4a38.6,38.6,0,0,1,1.1,5.3c0,1.3-.3,1.6.4,2.7s0,4.8,0,4.8a5.3,5.3,0,0,1-1,2h1l.3-.2-.6,1c.8.1,3.1.3,2.9-2v-.2h0c-.2-.9.3-1.2.3-1.9s-.7-.6-.5-3.2.7-2.3,0-3.3a20.2,20.2,0,0,1,0-5.1l.3-.2h.2c5.9-2.9,10.9-3.4,15.2-7.8.5,1.3-.2,4.5-.2,4.5h0a6.6,6.6,0,0,1-1.1,2h.8l.3-.2h0l.3-.2-.6,1.1c.9,0,3.5.3,3.2-2v-.3h0c-.2-.8.3-1.2.3-1.9s-.7-.6-.5-3.2.7-2.2.2-3.1.5-.8.7-1.3a16.2,16.2,0,0,0,2.2,4.1.4.4,0,0,1,.1.3,8.9,8.9,0,0,1,.2,1.1c0,1.3-.4,1.6.4,2.7s0,4.9,0,4.9a8.1,8.1,0,0,1-1.1,2h.6l.7-.4c.1,0,.1,0,.1-.1L65.7,43c.9.1,3.5.3,3.2-2a.4.4,0,0,0-.1-.3h.1c-.2-.8.3-1.2.3-1.9s-.7-.5-.5-3.2.8-2.3,0-3.3a20.4,20.4,0,0,1-.1-4.7,20.2,20.2,0,0,0,1-4.6h0C70,17.7,69.3,13.8,67.7,11.5Z"/></g></svg>