<svg id="Layer_1" data-name="Layer 1" xmlns="http://www.w3.org/2000/svg" xmlns:xlink="http://www.w3.org/1999/xlink" viewBox="0 0 108.1 121.2"><defs><style>.cls-1,.cls-2{opacity:0.4;}.cls-2{fill:#d0e8ec;}.cls-3{fill:#efb49a;}.cls-3,.cls-4{stroke:#9e4d2d;stroke-miterlimit:10;}.cls-4{fill:url(#linear-gradient);}.cls-5{fill:url(#linear-gradient-2);}.cls-6{fill:#933d18;}.cls-7{fill:#231f20;}.cls-8{fill:#d82e2a;}.cls-9{fill:#ef4136;}</style><linearGradient id="linear-gradient" x1="-1076.81" y1="-9.55" x2="-980.38" y2="-9.55" gradientTransform="matrix(-1, -0.13, -0.12, 0.99, -980.25, -64.27)" gradientUnits="userSpaceOnUse"><stop offset="0.19" stop-color="#ffd"/><stop offset="0.26" stop-color="#fff6d8"/><stop offset="0.41" stop-color="#ffe8cf"/><stop offset="0.54" stop-color="#ffe3cc"/><stop offset="0.67" stop-color="#ffe8d2"/><stop offset="0.83" stop-color="#fff8e3"/><stop offset="0.89" stop-color="#ffffea"/></linearGradient><linearGradient id="linear-gradient-2" x1="-1064.37" y1="-63.72" x2="-1048.28" y2="-63.72" gradientTransform="matrix(-1, -0.13, -0.12, 0.99, -980.25, -64.27)" gradientUnits="userSpaceOnUse"><stop offset="0.14" stop-color="#ffe3cc"/><stop offset="0.3" stop-color="#ffddc9"/><stop offset="0.51" stop-color="#ffccbf"/><stop offset="0.52" stop-color="#ffccbf"/><stop offset="1" stop-color="#ffe3cc"/></linearGradient></defs><g class="cls-1"><path class="cls-2" d="M65.8,103.6c5.1,1.3,32.1,14.6-51.6,10.9C47.2,118.6,111.7,114.2,65.8,103.6Z"/></g><path class="cls-3" d="M19.2,71.1c-5-4.8-7.4-13.5-6.5-20.6h0c-3.4,5-6.9,10-7,16,.3-1.8-.2-3.7,0-5.5a22.4,22.4,0,0,0-3.6,6.2l.2-1.7c-1.2,4,.4,7.8,2.7,11.7H5c3.2-3.2,7.1-5.8,12.1-6.4Z"/><path class="cls-4" d="M7.6,70.9a29.4,29.4,0,0,1,12.8-3.4c7.7-.4,15.4,1.2,23-.8s10.9-7.6,13.4-13.5l-.9-.5c-5.3-2.5-10.3-5.6-14.1-9.7s-5.1-5.8-5-9.3,3.7-3.6,5.8-5.9A25.5,25.5,0,0,0,46,23.1c2.7-4.1,3.9-9.3,7.7-12.8S64.9,3.8,71.5,3.8A40.6,40.6,0,0,1,87.4,7.4c6.5,2.9,9,6.6,11.8,12.3s1.9,8.6,2,13a32.6,32.6,0,0,0,1.5,10.7c.7,1.7,1.5,2.3.3,4a14.2,14.2,0,0,1-4,3.7,35.8,35.8,0,0,1-11.2,4.6,48.9,48.9,0,0,1-11.9,1.9c-1.1,5.1.7,10,.6,15.3-.5,13-7.3,28.6-22.8,33.2s-33.2.9-44-9.3c-3.5-3.2-7.4-8.9-8.5-13.3S3.2,73.4,7.6,70.9Z"/><path class="cls-5" d="M80.8,5.3c5-2.5,11.1-.6,15.7-4.1.1,2.4-2.7,3.9-5,4.9l3.4-.5c-.3,1.2-2,1.8-3.4,2.3a7.4,7.4,0,0,0,3.3.1c-4.4,6.4-9.8.4-15.4-.5Z"/><path class="cls-6" d="M80.8,5.3c4.8-2.7,11.1-1,15.5-4.4l.6-.5v.8A4.2,4.2,0,0,1,95,4.7a15.2,15.2,0,0,1-3.3,1.8l-.2-.9a20.5,20.5,0,0,0,4.2-.7l-.3.9c-.6,1.6-2.4,2-3.8,2.6V7.5a9,9,0,0,0,4.3-.2l-.7.9c-4.5,6.7-10.5.4-16-.6V7.4l1.5-2.1Zm0,0L79.4,7.6V7.4c5.1.5,11.2,6.4,15.1.3l.4.7a7.3,7.3,0,0,1-3.6,0L89.8,8a26.8,26.8,0,0,0,3.4-1.3,3.1,3.1,0,0,0,1.3-1.2l.5.6a19.7,19.7,0,0,1-3.5.4H88.9l2.4-1c2-.8,4.7-2,4.8-4.4l.7.3C92.1,5,85.9,3.1,80.8,5.3Z"/><path class="cls-7" d="M78.9,34.4c0,1.7-.8,3.2-1.9,3.1s-1.9-1.4-1.9-3.2.8-3.2,1.9-3.1S78.9,32.6,78.9,34.4Z"/><path class="cls-7" d="M101,36.2c-.3,1.6-1.4,2.8-2.4,2.7s-1.6-1.7-1.2-3.3,1.4-2.9,2.4-2.8S101.3,34.5,101,36.2Z"/><path class="cls-8" d="M92.4,49.6c0-.4-1,.1-1.6.3a16.9,16.9,0,0,1-7.4-.3c-5.1-1.2-7.7-4.3-8.4-8.6h0c3.9.2,7.4.7,10.8,2.5a16,16,0,0,1,4.4,3.6L92.5,49c.1.2.7.7.1.2Z"/><path class="cls-9" d="M101.4,43.1l1,.6c1.6.8,5.7,1.6,4.6,4s-3.7,2.5-5.7,2.9c-4.9.9-9.4-.5-13.7-2.7-2.3-1.3-4.2-2.9-7-3.7s-5.5-.9-6.6-2c-3.8-3.8,7.5-2.3,9.5-2.5s6-2.2,9.2-2.5,4.9,2.2,6.7,4Z"/><path class="cls-3" d="M21.7,79.8c-5,1-5,7-5.5,8.7-2.5-10.7,6.6-23,15.5-27.7,4.4-3.4,13.5-1.6,17,3,2.1,2.7,2.9,5.8,1.9,8.6a24.1,24.1,0,0,1-8.9,10.4s-1-7-11-5c-4.9,1-12,13-12,13v-4A66.9,66.9,0,0,1,21.7,79.8Z"/></svg>