<svg xmlns="http://www.w3.org/2000/svg" viewBox="0 0 97 62"><defs><style>.cls-1{fill:#4c2d1d;}.cls-2,.cls-4{fill:#f7f2f3;}.cls-2{stroke:#6f451b;stroke-miterlimit:10;stroke-width:0.75px;}.cls-3{fill:#271717;}</style></defs><g id="eye_01"><path class="cls-1" d="M7.4,22.6S15.1,8.4,24.1,10.5c.7.1.5,3.2,1.2,3.5s1.9-2.5,1.9-2.5a16.7,16.7,0,0,1,.1,3.5A2.1,2.1,0,0,1,25,16.4C18.6,15.8,10,22,10,22,7.1,23.9,6.1,24.8,7.4,22.6Z"/><path class="cls-1" d="M92,24.3S81.6,7.6,70.8,10.8c-.8.3-.3,4-1.2,4.4s-2.5-2.8-2.5-2.8a16.6,16.6,0,0,0,.2,4.2c.4,1.3,1.6,1.6,2.8,1.5,7.8-1.2,18.7,5.6,18.7,5.6C92.5,25.9,93.7,26.9,92,24.3Z"/><path class="cls-2" d="M24.3,52.4A13.6,13.6,0,0,1,6.1,44.8a14.7,14.7,0,0,1,7.6-18.9,13.6,13.6,0,0,1,18.2,7.7,14.6,14.6,0,0,1-7.6,18.8"/><path class="cls-3" d="M26.7,43a7.9,7.9,0,0,1-9.4,6,8.1,8.1,0,0,1-5.7-9.7,7.9,7.9,0,0,1,9.4-6A7.9,7.9,0,0,1,26.7,43"/><path class="cls-4" d="M24.9,35.6a2.6,2.6,0,0,1-3,2A2.7,2.7,0,0,1,20,34.4a2.6,2.6,0,0,1,3.1-1.9,2.6,2.6,0,0,1,1.8,3.1"/><path class="cls-2" d="M75.8,57.2a13.7,13.7,0,0,1-18.3-7.6,14.7,14.7,0,0,1,7.7-18.9,13.7,13.7,0,0,1,18.2,7.6,14.8,14.8,0,0,1-7.6,18.9"/><path class="cls-3" d="M78.2,47.2a7.8,7.8,0,1,1-5.7-9.7,8,8,0,0,1,5.7,9.7"/><path class="cls-4" d="M76.4,39.8a2.5,2.5,0,0,1-3.1,1.9,2.6,2.6,0,0,1,1.2-5,2.6,2.6,0,0,1,1.9,3.1"/></g></svg>