<svg xmlns="http://www.w3.org/2000/svg" viewBox="0 0 97 62"><defs><style>.cls-1{fill:#4c2d1d;}.cls-2{fill:#cd8c80;stroke:#593129;stroke-miterlimit:10;stroke-width:0.75px;}</style></defs><g id="eye_04"><path class="cls-1" d="M6.4,17.4S14.1,3.8,23.1,5.9c.7.1.5,3.2,1.2,3.5S26.2,7,26.2,7a15.7,15.7,0,0,1,.1,3.4A2,2,0,0,1,24,11.8c-6.4-.6-15,5-15,5C6.1,18.7,5.1,19.6,6.4,17.4Z"/><path class="cls-1" d="M91,19.1S80.6,3,69.8,6.2c-.8.3-.3,4-1.2,4.4s-2.5-2.8-2.5-2.8a16.6,16.6,0,0,0,.2,4.2,2.3,2.3,0,0,0,2.8,1.5c7.8-1.2,18.7,5,18.7,5C91.5,20.7,92.7,21.7,91,19.1Z"/><path class="cls-2" d="M23.3,46.1A13.6,13.6,0,0,1,5.1,38.4a14.7,14.7,0,0,1,7.6-18.9,13.7,13.7,0,0,1,18.2,7.7,14.7,14.7,0,0,1-7.6,18.9"/><path class="cls-2" d="M74.8,50.9a13.8,13.8,0,0,1-18.3-7.7,14.7,14.7,0,0,1,7.7-18.9A13.6,13.6,0,0,1,82.4,32a14.8,14.8,0,0,1-7.6,18.9"/></g></svg>