<svg xmlns="http://www.w3.org/2000/svg" xmlns:xlink="http://www.w3.org/1999/xlink" viewBox="0 0 84 66"><defs><style>.cls-1{isolation:isolate;}.cls-2{fill:#8d6e63;}.cls-3{fill:#6d4d42;}.cls-4{fill:#ec927a;}.cls-4,.cls-5,.cls-6{stroke:#f7a991;stroke-miterlimit:10;stroke-width:0.3px;}.cls-5,.cls-7{fill:#f9aa92;}.cls-6{fill:#fbcbbd;}.cls-8{mix-blend-mode:multiply;fill:url(#linear-gradient);}.cls-9{fill:#877d71;}.cls-10{fill:#6c5f4e;}</style><linearGradient id="linear-gradient" x1="4176.02" y1="52.59" x2="4194.14" y2="-24.91" gradientTransform="matrix(-1, 0, 0, 1, 4226.03, 0)" gradientUnits="userSpaceOnUse"><stop offset="0" stop-color="#ffe8ce"/><stop offset="1" stop-color="#e4a5c9"/></linearGradient></defs><g class="cls-1"><g id="Layer_98" data-name="Layer 98"><g id="Duck_poses_01_F_02_" data-name="Duck poses 01 ( F 02 )"><path class="cls-2" d="M59,58.5l.6.4a3.7,3.7,0,0,0,3.3-1.3h-1a2.1,2.1,0,0,0-2.5.5h.4Z"/><path class="cls-3" d="M59,58.5l.6.4,1.2-.4a7.1,7.1,0,0,0,1.4-1h-.3a2.1,2.1,0,0,0-2.5.5h.4Z"/><path class="cls-4" d="M54.4,37.4c1.3.1,5.6,2.4,6.5,8.4s4,3.2,2.9,5.7a5.1,5.1,0,0,0-.4,2.5,5.8,5.8,0,0,1,.4,1.9c-.1.7-1,.7-.9,1.7-1.5.7-2.2.3-2.3-.2s.5-1.1.6-2.3a4.6,4.6,0,0,0-.5-2.9c-1.8-1.8-7-.5-9.1-8.3S52.6,37.3,54.4,37.4Z"/><path class="cls-2" d="M33.4,47.5l.9.5c-.9.8-3.6,1-4.4-.3l1.1-.3-.4-.2A2.2,2.2,0,0,1,33.4,47.5Z"/><path class="cls-3" d="M29.9,47.7l.6.5h1.4a4.9,4.9,0,0,0,1.7-.6h-.2a2.2,2.2,0,0,0-2.8-.3l.4.2Z"/><path class="cls-4" d="M33.8,31a43,43,0,0,0,.2,6.7,26.5,26.5,0,0,0,.8,3.3c0,1-.6.6-.4,2s.8,2.5.6,3-.6.5-.6.9.5.5-.1,1.1a4,4,0,0,1-2.5-.3.6.6,0,0,1,0-.8,2.1,2.1,0,0,0,.4-1,7.7,7.7,0,0,0-1-4.3c-.3-.4-.8-.5-1-1.1s.2-1-.1-1.7c-1.3-4-2.9-8.4-2.9-8.4Z"/><path class="cls-5" d="M28.5,12.1s-1.5-1.3.3-1.9,3.2.3,5.1.8a32.8,32.8,0,0,1,3.8,1.3A10,10,0,0,0,34.1,15c-1.2,1.6-.6,2.8-4.7,1.7s-4.8-2.4-4.8-2.4l1.5-1.8Z"/><path class="cls-6" d="M10.2,18h0a12.6,12.6,0,0,0,2.7,5.3,48.2,48.2,0,0,0,6.3,4.9A8.8,8.8,0,0,1,22,31.1a26.1,26.1,0,0,0,1.7,2.8c4.8,6.7,9.3,5.9,10.4,6.9a37.2,37.2,0,0,0,13.1,7.1c7,2.4,10.3,2.5,15.7,1a10.7,10.7,0,0,0,6.8-5.8,13.1,13.1,0,0,0,.9-2.8,1.7,1.7,0,0,1,.1-.7,15.6,15.6,0,0,0-.2-3.7c-.3-1.4-4-9.8-14.9-13.8-7-2.5-14.8-2.4-17.3-5.2l-3.5-3.6c-1-.9-1.2-1.2-1.7-1.4a7.7,7.7,0,0,0-4.4-1.3,10.8,10.8,0,0,0-3.3.4c-2,.4-2.5.7-5.8,1.6l-4.3,1.1-3.1.5a2.7,2.7,0,0,0-2.1-.2C9.3,14.5,9,16.3,10.2,18Z"/><path class="cls-7" d="M10.2,18l.7.9a6,6,0,0,0,.8.8l.9.7,1,.6h0l-1.1-.4-1-.7A6.4,6.4,0,0,1,10.2,18Z"/><path class="cls-8" d="M23.7,33.9c4.8,6.7,9.3,5.9,10.4,6.9a37.2,37.2,0,0,0,13.1,7.1c7,2.4,10.3,2.5,15.7,1a10.7,10.7,0,0,0,6.8-5.8c-1.4,1-3.4,2.1-5.5,1.7a11.6,11.6,0,0,1-6.2-3l-10.7-3s-7.4,5.7-11.8.9-4.7-9.3-6.9-8.2Z"/><path class="cls-5" d="M22.8,14.7h-.5a13.2,13.2,0,0,0-6,3.1,12.9,12.9,0,0,0-3.5,7.5,17.2,17.2,0,0,1,5.9.9c2.4.9,3.8,1.6,5.3-1.4a14.5,14.5,0,0,0,1.2-6.7l-1.6.2.7-1.7Z"/><path class="cls-6" d="M67.2,41.4l.4-.2,2.1.6c1.3.3,2.8.4,3.6-.2l.2-.2a3,3,0,0,1-2-1,1.2,1.2,0,0,1-.2-1.5,1.9,1.9,0,0,1,1.8-.7,2,2,0,0,1,1.3,1.9v.6h.1a1.8,1.8,0,0,0,1.2-1.5A2.3,2.3,0,0,0,74,37c-.1,0-.2-.2-.2-.3s.2-.3.4-.2a2.7,2.7,0,0,1,2,2.7,2,2,0,0,1-1.6,2h-.4a1.3,1.3,0,0,1-.6.7c-.9.8-2.6.6-4,.4l-2.2-.6h-.1C67.2,41.7,67.2,41.5,67.2,41.4Zm6.6-.6v-.7a1.2,1.2,0,0,0-.6-1.2h-.3a1.1,1.1,0,0,0-1.1.4.6.6,0,0,0,.1.8A2.4,2.4,0,0,0,73.8,40.8Z"/><path class="cls-2" d="M48.1,58.4l.7.8c-1.2.4-3.8-.5-4-2h1l-.2-.4A2.3,2.3,0,0,1,48.1,58.4Z"/><path class="cls-3" d="M44.8,57.2a.9.9,0,0,0,.3.7l1.3.5a6.2,6.2,0,0,0,1.9.2l-.2-.3a2.3,2.3,0,0,0-2.5-1.4l.2.4Z"/><path class="cls-6" d="M53.4,34.4a3.4,3.4,0,0,0-1.2.6,9.4,9.4,0,0,0-3.3,4.1,17.5,17.5,0,0,0-1.2,3.7,7.7,7.7,0,0,0-.1,2.6,10.4,10.4,0,0,0,1.6,4.3,8.3,8.3,0,0,1,1.6,3.1c.1.6-.4,1.8-1.6,3s-1.8,1-2.2,1.5h0c-.3.4.1,1.3,1.8,1.8s1.4-.3,2-.8.7-1.5,1.1-2A5.7,5.7,0,0,1,54,54.5c2.8-1.3-1.2-3.2,3.5-6.8l.3-.2c3.1-2.4,4.2-4.8,4.4-6.9"/><path class="cls-9" d="M24.6,45.9l1.2.2a2.7,2.7,0,0,1-4,1.6l.7-.8H22c.3-.8,1-1.6,2.6-.9"/><path class="cls-10" d="M21.8,47.7l.9.4a4.1,4.1,0,0,0,1.1-.7A3.6,3.6,0,0,0,24.9,46h-.3c-1.6-.7-2.3.1-2.6.9h.5Z"/><path class="cls-6" d="M31.9,31.8v2.7c0,.9,0,2,.1,3.2s.4,3.5.5,4.6-3.1,1.9-3.7,2.1-2.9.8-3.1,1.7-1.9.7-2.2-.3,1.6-2,2.3-2.3l2-1c.3-.2,1.2-.6,1-1.1s-2.6-10.2-3-12.2a1,1,0,0,1-.1-.4"/></g></g></g></svg>