<svg xmlns="http://www.w3.org/2000/svg" viewBox="0 0 84 66"><defs><style>.cls-1{isolation:isolate;}.cls-2{fill:#353535;}.cls-11,.cls-3{fill:#616261;}.cls-4{fill:#262626;}.cls-5{fill:#eee;mix-blend-mode:multiply;}.cls-6,.cls-7{fill:#434343;}.cls-11,.cls-17,.cls-7,.cls-8{stroke:#b7b7b9;stroke-width:0.3px;}.cls-11,.cls-17,.cls-7,.cls-8,.cls-9{stroke-miterlimit:10;}.cls-10,.cls-8{fill:#d9dad8;}.cls-14,.cls-9{fill:none;}.cls-9{stroke:#000;stroke-width:0.04px;}.cls-12{fill:#333;}.cls-13{fill:#fff;}.cls-15{fill:#f2e8d4;}.cls-16,.cls-17{fill:#b7b7b8;}.cls-18{fill:#9c9ea1;}</style></defs><g class="cls-1"><g id="SheepF05_P02"><path class="cls-2" d="M36.1,58.2l.5-.8a1.6,1.6,0,0,1-1.2.3,4.8,4.8,0,0,0,1.1-1.5,2.2,2.2,0,0,1,2.2.4c.1,0,.1.1.1.2C38.9,58.5,36.8,58.3,36.1,58.2Z"/><path class="cls-3" d="M38.7,56.5a.1.1,0,0,1-.1.1h-.5a1.9,1.9,0,0,1-1.1-.1.7.7,0,0,1-.5-.4s.8-2.8.1-3.6-.3-1.1-.2-2.1a35.2,35.2,0,0,0-.7-3.6l-.6-2.4a3.4,3.4,0,0,1,2.5-1.4,4.4,4.4,0,0,1,1.9.2s-.1.6-.2,1.4a25.8,25.8,0,0,0-.4,3.9c-.1.8-.1,1.4.1,1.5s0,1.6-.2,2.6.3,1.9.3,2.4S38.6,55.9,38.7,56.5Z"/><path class="cls-4" d="M35.4,57.7a4.8,4.8,0,0,0,1.4-.6l-.2.3A1.7,1.7,0,0,1,35.4,57.7Z"/><path class="cls-4" d="M36.1,58.2s2.3-.2,2.7-1.4C38.9,58.5,36.8,58.3,36.1,58.2Z"/><path class="cls-5" d="M38.7,56.5a.1.1,0,0,1-.1.1h-.5a3.6,3.6,0,0,0,.4-.9c0-.7-.4-1.1-.5-1.7a2.8,2.8,0,0,1,.4-2c.3-.7-.1-1.2-.2-1.9a2,2,0,0,1,.4-1.5h.3c-.1.8-.1,1.4.1,1.5s0,1.6-.2,2.6.3,1.9.3,2.4S38.6,55.9,38.7,56.5Z"/><path class="cls-2" d="M51.6,45.3l.5-.9a1.7,1.7,0,0,1-1.2.5,5.4,5.4,0,0,0,1-1.8,5.7,5.7,0,0,1,2.3.3v.2C54.4,45.6,52.3,45.4,51.6,45.3Z"/><path class="cls-4" d="M50.9,44.9a3.4,3.4,0,0,0,1.4-.9l-.2.4A1.9,1.9,0,0,1,50.9,44.9Z"/><path class="cls-4" d="M51.6,45.3s2.4-.2,2.6-1.7C54.4,45.6,52.3,45.4,51.6,45.3Z"/><path class="cls-6" d="M49.9,30.2a56,56,0,0,1,1.6,6.5c0,1.1-.3,1.4.4,2.3s0,4.1,0,4.1.7,1.1,2.3.3c-.2-.7.3-1,.3-1.6s-.7-.5-.4-2.8.6-2,0-2.8.1-7.7.1-7.7A3.5,3.5,0,0,0,49.9,30.2Z"/><path class="cls-2" d="M30.4,56.3l.6-.8a1.7,1.7,0,0,1-1.2.4,4.3,4.3,0,0,0,.9-1.6,5.6,5.6,0,0,1,2.3.3c.1,0,.1.1.1.2C33.3,56.6,31.2,56.4,30.4,56.3Z"/><path class="cls-4" d="M29.8,55.9a5.9,5.9,0,0,0,1.4-.7l-.2.3A2.1,2.1,0,0,1,29.8,55.9Z"/><path class="cls-4" d="M30.4,56.3s2.4-.2,2.7-1.5C33.3,56.6,31.2,56.4,30.4,56.3Z"/><path class="cls-6" d="M28.8,42.4a49.3,49.3,0,0,1,1.6,6c0,1-.3,1.3.3,2.1s0,3.8,0,3.8a1.8,1.8,0,0,0,2.3.3c-.1-.7.4-1,.4-1.5s-.7-.5-.5-2.6.6-1.8,0-2.6.2-7,.2-7A3.6,3.6,0,0,0,28.8,42.4Z"/><path class="cls-2" d="M56.6,47.9l.5-.8a2.1,2.1,0,0,1-1.2.4,5,5,0,0,0,1-1.7,2.2,2.2,0,0,1,2.3.3v.2C59.4,48.2,57.3,48,56.6,47.9Z"/><path class="cls-3" d="M59.2,46h-.4a1.9,1.9,0,0,1-1.3,0,1.1,1.1,0,0,1-.6-.4s.6-3.1,0-4-.4-1.2-.4-2.3a29,29,0,0,0-.8-3.8L55,33.1a3.3,3.3,0,0,1,2.3-1.7,4.3,4.3,0,0,1,1.9.2s0,.6-.1,1.5-.3,5.5,0,5.9.1,1.8,0,2.8.4,2.1.4,2.7S59.1,45.3,59.2,46Z"/><path class="cls-5" d="M59.2,46h-.4a1.9,1.9,0,0,1-1.3,0,1.1,1.1,0,0,1-.6-.4s.6-3.1,0-4-.4-1.2-.4-2.3a29,29,0,0,0-.8-3.8L55,33.1a3.3,3.3,0,0,1,2.3-1.7,4.3,4.3,0,0,1,1.9.2s0,.6-.1,1.5-.3,5.5,0,5.9.1,1.8,0,2.8.4,2.1.4,2.7S59.1,45.3,59.2,46Z"/><path class="cls-4" d="M55.9,47.5a4.2,4.2,0,0,0,1.4-.8l-.2.4A2.1,2.1,0,0,1,55.9,47.5Z"/><path class="cls-4" d="M56.6,47.9s2.4-.2,2.6-1.6C59.4,48.2,57.3,48,56.6,47.9Z"/><path class="cls-7" d="M21.6,33.9,21,35.4c-5.3,1.7-8.7-.7-8.8-1.6s.3-.5.7-.9S18.7,30,21.6,33.9Z"/><path class="cls-3" d="M21.6,33.9l-.5-.3c-3.2-2.7-7.6-.9-8.1-.7C14.6,31.6,18.7,30,21.6,33.9Z"/><path class="cls-8" d="M62.7,27.2c-.3.9-.9,1.6-1.2,2.4a24.4,24.4,0,0,1-1,2.4c-.5.7-1.3,1.2-1.8,1.9s-.9,1.5-1.6,2.1a16.4,16.4,0,0,1-2.2,1.4l-1.1,1.2-.3.3-.4.4c-.7.4-1.6.6-2.4,1.1s-1.3,1.1-2.1,1.6-1.4.3-2,.6a12.7,12.7,0,0,0-1.2,1l-.5.3-.7.3-1.3.4c-.7.3-1.2.9-1.8,1.2s-1.4.3-2,.6-1.2.8-1.9,1H35.1a14.6,14.6,0,0,1-2,.5h-.6L31,47.5a7.8,7.8,0,0,1-2.1-.2c-.6-.2-1.1-.8-1.7-1.1s-1.1-.2-1.5-.5l-.4-.5h-.6A4,4,0,0,1,22,43.6l-1.1-1.5-.7-1.6s.3-2.1,1.5-6.9a1.7,1.7,0,0,1,.9-1.2,1,1,0,0,1,0-.9c.1-.3.4.1.8-.1s.1-.4.3-.5.5.1.7,0,.1-.5.3-.6.5.1.7,0,.2-.5.3-.6.5.1.7,0,.2-.5.4-.6.5.1.6,0,.2-.5.4-.6.5.1.7,0,.9-1,1.4-1.4a9.8,9.8,0,0,0,1.8-.8c.6-.4.9-1.1,1.4-1.5s1.3-.5,1.7-1,.8-1.1,1.3-1.5,1.2-.7,1.6-1.2.7-1.2,1.1-1.6,1.2-.7,1.6-1.2.7-1.2,1.2-1.6,1.2-.6,1.7-1l1.4-1.4c.5-.3,1.3-.2,1.9-.5s1-.8,1.7-.9a12.1,12.1,0,0,1,1.9-.1,10.5,10.5,0,0,1,1.9-.5c.6,0,1.2.4,1.9.4a12.1,12.1,0,0,1,1.9.1,14,14,0,0,1,1.6,1,9.8,9.8,0,0,1,1.8.8l.2.3.8,1.3a9.3,9.3,0,0,1,1.3,1.5,9,9,0,0,1,.4,1.9A24.4,24.4,0,0,1,63,22v.6c0,.7-.3,1.4-.3,2A11.3,11.3,0,0,1,62.7,27.2Z"/><polyline class="cls-9" points="53.3 32.5 53.3 32.5 53.3 32.5"/><path class="cls-10" d="M51.8,37.5l.7.4c.1.2.1.6.3.8l.7.2h.1c.3.1.3.6.5.7s.7-.1.9,0h.5a.1.1,0,0,1,.1.1h.6c0-.1.1-.1.2-.1h.2c.3,0,.6.3.9.3s.4-.5.6-.6h.7a.1.1,0,0,0,.1-.1h.9a.1.1,0,0,0,.1-.1h.3a.1.1,0,0,0,.1-.1h0a.5.5,0,0,0,.2-.4.3.3,0,0,0,.1-.2c.1-.1.1-.3.2-.4a.8.8,0,0,1,.2-.4,7.1,7.1,0,0,0,1.1-1.7,13,13,0,0,0,.4-2.1c.1-.6.6-1.2.7-1.9s-.1-1.4,0-2.1.4-1.4.4-2.1a14.6,14.6,0,0,0-.5-2c-.1-.7.1-1.4,0-2.1a.3.3,0,0,0-.1-.2"/><path class="cls-11" d="M18.6,32.9c-1.8,2.2-2.1,3.9-3,6.3s-1.3,3.4.3,4.5A1.8,1.8,0,0,0,18,44a4.4,4.4,0,0,0,2.1-1.7c.3-.2,2.9-.1,4.7-2.2s1.5-4.8,1-6.3S22.2,28.8,18.6,32.9Z"/><path class="cls-12" d="M15.4,41.1c0-.2-.2,0-.2.1a1.7,1.7,0,0,0,.6.9,1.9,1.9,0,0,0,.6,1.8c.1,0,.3,0,.2-.1a2.7,2.7,0,0,1-.5-1.6,1.7,1.7,0,0,0,1-.3c.2-.2.3-.4-.2-.3S15.9,41.8,15.4,41.1Z"/><path class="cls-6" d="M22.4,37.3s-.3,1-.9,1-.6-.3-.9-.1.1-.3.2-.4a1.3,1.3,0,0,1,.7-.9C22,36.7,22.2,37,22.4,37.3Z"/><path class="cls-12" d="M22.3,37.2c-.1.5-.4.9-.9.9a.9.9,0,0,1-.6-.3,1.3,1.3,0,0,1,.7-.9A.6.6,0,0,1,22.3,37.2Z"/><circle class="cls-13" cx="21.8" cy="37.3" r="0.2"/><path class="cls-8" d="M25,30.5l-1.2-.4c-.2,0-.4-.4-.7-.5s-.6.4-.8.4-.6-.4-.8-.4-.5.5-.8.5-.6-.3-.8-.3-.5.6-.7.6-.7-.1-.9,0-.3.6-.5.7-.7.1-.9.3.1.6.1.8-.4.6-.3.8.6.4.8.6.1.7.3.9.7,0,.9.2.4.6.7.6.6-.2.9-.2.5.5.8.5.6-.4.9-.4.6.4.9.5.6-.4.9-.3.4.5.7.6.7.1.8.4-.3.5-.3.7.3.5.2.7-.5.2-.7.3,0,.6-.1.8h-.8c-.1.1-.1.6-.2.7s-.6,0-.8.1,0,.6-.2.8-.6.1-.7.3.2.5.2.7-.4.4-.4.6.6.3.8.5.4.5.7.5.5-.4.8-.4.6.2.9.2.4-.6.7-.7.6.2.9.1.3-.6.6-.7.6.1.9,0,.3-.7.5-.8"/><path class="cls-8" d="M44.8,39.6c1.1-.3,1.6-.2,1.7,0a2.3,2.3,0,0,1,0,1.7c-.1.5-.6.9-.9,1.5s-.1.4-.2.6v.2c-.1.3-.1.7-.3.9s-.9.9-1.2,1.4-.5,1.1-.8,1.5-1.1.7-1.5,1.1-.7,1-1.2,1.3H39.1a.1.1,0,0,0-.1.1h-.5c-.1.1-.2.1-.2.2h-.1c-.3.2-.5.4-.8.4s-.9-.3-1.3-.4h0c-.5-.1-1,.1-1.4-.1s-.6-.8-.9-1.1l-.3-.2a2.4,2.4,0,0,1-.8-.6l-.3-.5h0"/><path class="cls-14" d="M33.2,43.8h-.1"/><path class="cls-15" d="M31.1,45.8c0,.1.1.2.2.3l.4.6"/><path class="cls-16" d="M32.5,48,31,47.5a7.8,7.8,0,0,1-2.1-.2c-.6-.2-1.1-.8-1.7-1.1s-1.1-.2-1.5-.5l-.4-.5h-.6A4,4,0,0,1,22,43.6l2.2-.4c1-.3,1.9-1.1,2.8-.9s1.4,1.2,2.2,1.9,1-.1,1.2.2,0,.9.3,1.2,1,.1,1.1.4-.3.9-.2,1.3S32.4,47.7,32.5,48Z"/><path class="cls-6" d="M28.8,42.8c-.7.4-6.2-.7-5.8-5.9.1-.1.1-.3.2-.4a1.5,1.5,0,0,1,1-.9c4.1-.7,5,4.4,4.8,6.4A1.3,1.3,0,0,1,28.8,42.8Z"/><path class="cls-3" d="M29,42a8.4,8.4,0,0,0-1.9-4.4c-.9-1.1-3.2-1.2-3.9-1.1a1.5,1.5,0,0,1,1-.9C28.3,34.9,29.2,40,29,42Z"/><path class="cls-17" d="M63.2,31.1c-.1.7-.6,1.3-.7,1.9a13,13,0,0,1-.4,2.1A7.1,7.1,0,0,1,61,36.8a8.5,8.5,0,0,1-1,1.9,3.7,3.7,0,0,1-1.9.9c-.2.1-.4.5-.6.6s-.6-.3-.9-.3-.6.4-.8.3-.5-.4-.8-.5-.6.1-.9,0-.2-.6-.5-.7,0-.1-.1-.1l-.4.4c-.7.4-1.6.6-2.4,1.1s-1.3,1.1-2.1,1.6-1.4.3-2,.6a12.7,12.7,0,0,0-1.2,1c-.1.3-.1.7-.3.9s-.9.9-1.2,1.4-.5,1.1-.8,1.5-1.1.7-1.5,1.1-.7,1-1.2,1.3-1.2.2-1.7.5l-.5.2c.1-.3.3-.6.1-.9s-.9-.2-1.1-.6.2-.9.1-1.2-.2-.2-.3-.3-.7-.4-.7-.6.8-.4,1-.7,0-.9.3-1.1.9.3,1.2.1.2-.9.5-1.3,1-.2,1.2-.6-.3-.9-.3-1.3.7-.4.7-.6-.4-.2-.6-.3h-.2c0-.2.6-.6.6-.8s-.9-.5-1-.9.4-.9.4-1.3-.6-.9-.4-1.3.9-.2,1.1-.4.2-1.1.5-1.2.7.6,1,.6.7-.6,1-.5.3.8.5,1,.8-.5,1.1-.4.5.9.9,1,.8-.5,1.2-.5.9.5,1.3.2.1-.9.3-1.1,1,.1,1.2-.2-.2-.9,0-1.2,1-.3,1.1-.6-.3-1-.1-1.3.9-.2,1.2-.4.6-1.1,1-1.1.4.2.6.5a1.5,1.5,0,0,0,.5.6c.4.2,1.2,0,1.5.3s.4,1.2.8,1.4.9-.5,1.4-.7,1.1,0,1.4-.5.3-1.6.5-2.3S60.9,28.7,61,28s-.4-1.6-.4-2.4.8-.7.8-1.1-.6-.8-.6-1.2.8-.8.7-1.1-.7-.7-.8-1.1.4-.8.4-1.1-.9-.6-1-.9.3-1.2,0-1.7-1-.7-1.1-1.1.3-1,.5-1.4l.8,1.3a9.3,9.3,0,0,1,1.3,1.5,9,9,0,0,1,.4,1.9A24.4,24.4,0,0,1,63,22v.6a.3.3,0,0,1,.1.2c.1.7-.1,1.4,0,2.1a12.9,12.9,0,0,1,.5,2.1c0,.6-.4,1.3-.4,2S63.3,30.4,63.2,31.1Z"/><path class="cls-18" d="M53.1,39.3c-.7.4-1.6.6-2.4,1.1s-1.3,1.1-2.1,1.6-1.4.3-2,.6l-1.2.9c0,.1.2-1.1-.5-1.2a1.2,1.2,0,0,1-.7-1.7c.5-.9.9-1.9,2.1-1.7s.5.7,1.3.5,1-.9,1.6-1l1.1-.3c.4,0,.7.3,1.1,0s.5-.9.9-.9.3.1.5,0,0-.4.1-.5.4-.5.6-.2,0,1.1.1,1.6S53.4,39.1,53.1,39.3Z"/></g></g></svg>