<svg xmlns="http://www.w3.org/2000/svg" viewBox="0 0 133 144"><defs><style>.cls-1{fill:#353535;}.cls-2,.cls-5{fill:#c89572;}.cls-3{fill:#86604e;}.cls-4{fill:#f0d4be;stroke:#c0272d;stroke-width:0.11px;}.cls-4,.cls-5{stroke-miterlimit:10;}.cls-5{stroke:#86604e;stroke-width:0.3px;}.cls-6{fill:#602f28;}.cls-7{fill:#fff;}</style></defs><g id="Calf_Pose01_F04"><g id="_004" data-name="004"><path class="cls-1" d="M90.7,106.5c-1-.1-3.1.2-3.4.7s1.8.8,1.8.8H87.2s-1,1.2,2.2,2,4.1-.2,4.1-.4.3-.3.7-.8-1-1.1-1-1.1"/><path class="cls-2" d="M55.2,75a35,35,0,0,0-3.5,4.3c-.5,1-.9,3.7-2.7,4.2s-.5,1.1-1.3.8-.8-.8-.9-.6a1.2,1.2,0,0,1-2.1.2,4.8,4.8,0,0,1-.9-4.8l2,1.4-.2-1.4s1,.7,1.3.6a75.7,75.7,0,0,0,6.2-9.1"/><path class="cls-3" d="M55.1,74.9a26.9,26.9,0,0,0-2.7,3.2l-.9,1.1a10.3,10.3,0,0,0-.4,1.4,9.3,9.3,0,0,1-1,2l-.9.7c-.4.1-.4.2-.6.6s-.2.3-.5.3-.5-.1-.7-.2-.3-.4-.5-.5-.5.5-.7.6-2-1-2.3-1.9a4.4,4.4,0,0,1,0-3h-.2l2,1.4c.2.1.3,0,.3-.1L45.7,79l-.2.2c.4.3,1.2,1,1.6.5a16.6,16.6,0,0,0,1.6-2.1,62.8,62.8,0,0,0,4.5-6.9c.1-.2-.1-.3-.2-.2a52.3,52.3,0,0,1-4.1,6.3,19.5,19.5,0,0,1-1.7,2.3c-.1.1-.3.5-.4.5s-.9-.5-1.1-.7-.3.1-.3.2l.3,1.4h.2l-2-1.5h-.2a5.1,5.1,0,0,0,.7,4.9c.5.6,1.1,1,1.8.6a1.2,1.2,0,0,0,.6-.6c.1-.1.1,0,0-.1l.3.3c.4.4,1.1.7,1.5.3s.3-.7.7-.9a2.4,2.4,0,0,0,.9-.6A5.9,5.9,0,0,0,51.3,81a12.7,12.7,0,0,1,.6-1.8c.4-.7,1-1.3,1.5-2l1.9-2.1c.2-.2,0-.4-.2-.2Z"/><path class="cls-1" d="M43.7,78.9a5,5,0,0,0,.8,4.9,1.3,1.3,0,0,0,2.2-.3c.1-.1,0,.3.8.6s.8,0,1.4-.8-1.5-1.1-2.2-.5-2.8-1,0-3.3c-.2.1-1.2-.6-1.2-.6l.2,1.4Z"/><path class="cls-1" d="M52.8,95.3a8.7,8.7,0,0,0,3.9,2.9c1.3.2,1.7-1.1,2.1-1.7s1.2-.4,1.8-.8.2-.8-.2-1.4-2,.2-2.2.8-2.7,2.2-2.3-1.4c-3.4-1-.7.9-.6,1C53,94.1,52.6,94.7,52.8,95.3Z"/><path class="cls-4" d="M61.5,51.2h.1l-.2-.2Z"/><path class="cls-1" d="M74.5,102.1s-2.2,2.5-2,3.7,1.9,1.1,3.3.2,3.8-.2,3.4-2.8c0-.3-.2-.6-2.7-2.1"/><path class="cls-5" d="M42.5,43.9s-.4.4-.4.6a9.8,9.8,0,0,0,2.6,2.1c-.2.2-2.8,5.7-2,6.3,3.1.4,5.5-2,5.7-1.8a8.8,8.8,0,0,0,1.7.6v.4a45.9,45.9,0,0,0,0,5.3c.2,1.7,1.8,3.9,1.4,4.8s.9,6.5,1.1,7.1,2,4.9,2.2,5.5a9,9,0,0,1-.2,3.9c-.4,1.6.9,3,1.3,3.9s.6,7.6.4,8.8l-.4,2.3c-.4,3.6,2,2,2.3,1.4s2.2-.8,2.2-.8a6.9,6.9,0,0,0-.4-4.6c-.4-.8,0-8.2.6-9s.6-5.1.8-5.1,14.2,8,14.4,8c-.2,2.3-.2,3.7.6,5.3s5.3,7.7,5.1,8.5-6.5,4.2-7,4.7a3.3,3.3,0,0,0-1.4,2.5c0,1.3,1.3.7,2.8.2s2.8-.1,2.8-1.8,1.3-1.6,4.3-2.6,3.6-.6,2.4-4.3,2.1-6.1,2.1-5.7,1.4,1.3,2.7,3.8.7,12.4.3,13.7.6,1.2,2.2,1,1.2-.8,1-1.6S96.3,96.8,96.3,96s-1.8-2.3-1.8-3.8,1.6-6.1,2.4-11.1c.6-3.2-1.2-4.8-2-6.3A23.8,23.8,0,0,0,93.5,72c-2.2-3.2-1.2-2.6-3-4s-1.8-1.1-4.9-2.6c-1.4-.7-2.4-.9-3.2-1.4-4.9-3.3-5.9-3-9.5-5.6s-4.8-6.5-8.9-6.5a6.5,6.5,0,0,1-2.4-.6l-.2-.2a.8.8,0,0,1-.2-.5,9,9,0,0,1-1.1-4.7,14.5,14.5,0,0,1,.4-3.1c4.1-2.6,4.5-3.6,4.5-4.1s-5.7-1-6.5-.8a12.7,12.7,0,0,1-3.9-.6,11.1,11.1,0,0,0-2.9-.8c-1.3,0-4.3,2.5-4.9,2.5s-.2-.2-1.9-1-3.5,3-3.7,4.1S42.5,43.9,42.5,43.9Z"/><path class="cls-2" d="M44.4,47s3.9-4,5.2-4.6a1.7,1.7,0,0,0,.6-2.2"/><path class="cls-3" d="M44.3,46.9l2.5-2.4,1.4-1.1,1.4-1.1h0a1.6,1.6,0,0,0,.7-.9,1.7,1.7,0,0,0-.1-1.2,1.7,1.7,0,0,1,.2,1.2,1.6,1.6,0,0,1-.8,1h0l-1.4,1.1L47,44.6c-.9.8-1.7,1.7-2.5,2.5Z"/><path class="cls-2" d="M52.7,43.7s-.8.2-1,.8a9.2,9.2,0,0,1-3.3,6.6"/><path class="cls-3" d="M52.7,43.7c-.3.1-.7.3-.8.6a2,2,0,0,0-.2,1.1,17.4,17.4,0,0,1-.5,2.2,8.6,8.6,0,0,1-1.1,1.9,12.9,12.9,0,0,1-1.7,1.6,9.8,9.8,0,0,0,2.5-3.6,14.1,14.1,0,0,0,.6-2.2,2.3,2.3,0,0,1,.2-1.1A2.4,2.4,0,0,1,52.7,43.7Z"/><path class="cls-2" d="M51.5,49.2s-.2,1.9-1.4,2.5"/><path class="cls-3" d="M51.5,49.2a2.7,2.7,0,0,1-.3,1.5l-.5.6c-.1.2-.4.3-.6.4a2.8,2.8,0,0,0,.8-1.1c.2-.2.2-.5.3-.7Z"/><path class="cls-5" d="M58.1,38s1.7,1.2,2.4,5"/><path class="cls-2" d="M87.3,90.6s3.9-7.2-.6-13"/><path class="cls-3" d="M87.2,90.6a17.5,17.5,0,0,0,1.2-3.2,19.7,19.7,0,0,0,.4-3.4,13.3,13.3,0,0,0-.5-3.4,17.3,17.3,0,0,0-1.6-3,12.4,12.4,0,0,1,1.6,3,9.7,9.7,0,0,1,.6,3.4,12.7,12.7,0,0,1-.3,3.4,16,16,0,0,1-1.1,3.3Z"/><path class="cls-2" d="M42.9,41.2c0,.5-.9,1.5.8,1.9"/><path class="cls-3" d="M42.9,41.2c0,.5-.2.9-.1,1.2s.5.5.9.7h-.6a1.2,1.2,0,0,1-.5-.5.8.8,0,0,1,0-.7Z"/><path class="cls-5" d="M88.3,73.8a1.1,1.1,0,0,1,.9.2,4.6,4.6,0,0,1,1.3,1.2,8.6,8.6,0,0,1,1.3,2.4,13.2,13.2,0,0,1,.7,4.5c0,3.8-2.2,8.9-2.1,11.8s-.2,2.2-.1,3-.2.8-.2.8v.9a14,14,0,0,1-.9-5.3c0-2.9,2.1-9.6,1.6-11.8,0,0-.4-4.9-2.8-5.9"/><path class="cls-6" d="M89.7,93.6c1.8,2.8,1.1,4.4,1.5,6.7,0,.4-.5-.3-.5-1.5a4.1,4.1,0,0,0,.1,2.5c.2.7-.2,0-.6-.7a5.5,5.5,0,0,0,.1.9,3,3,0,0,1-.4-1.1,3.6,3.6,0,0,0,1,2.5c.5.6-2.1-1.3-1.3-3.5a3.2,3.2,0,0,0-.3,2.5,2.3,2.3,0,0,1-.4-1.8,1.4,1.4,0,0,0-.2.6h-.2c-.1-1.4.8-2.6,1-4.2a9.4,9.4,0,0,1-1,2.3c0,.1-.2.1-.1,0s1.5-3.2.8-4.8c0,0,.1.9.1.6s-.2-1-.1-1.1.6,1.1.7,1.1-.2-1.1-.2-1"/><path class="cls-2" d="M62.8,51.7A5.1,5.1,0,0,1,59.1,49"/><path class="cls-3" d="M62.8,51.9a5.7,5.7,0,0,1-2.2-1.1l-.9-.8-.6-1a6.1,6.1,0,0,0,.7,1,2.2,2.2,0,0,0,.9.7,7.8,7.8,0,0,0,2.1.9Z"/><path class="cls-2" d="M51.5,62.2c-.2-.2,2.1-6.2,5.8-8.9"/><path class="cls-3" d="M51.4,62.3v-.2h0v-.5l.3-.7a6.1,6.1,0,0,1,.5-1.2,17.6,17.6,0,0,1,1.4-2.3,13.7,13.7,0,0,1,3.6-4,13.3,13.3,0,0,0-3.5,4c-.5.8-.9,1.6-1.3,2.4a6.1,6.1,0,0,1-.5,1.2,6.4,6.4,0,0,0-.2.7v.3h-.1Z"/><path class="cls-2" d="M75.8,83.6s1.7-5.5,4.8-7.4"/><path class="cls-3" d="M75.7,83.6a21.7,21.7,0,0,1,1.9-4.1,9.5,9.5,0,0,1,3-3.3,9.4,9.4,0,0,0-2.9,3.4A20.9,20.9,0,0,0,76,83.7Z"/><path d="M45.6,41.4c.1.3.4.6.7.5s-.1-.2-.1-.3h0v-1h0v-.3l-.4.5A.7.7,0,0,0,45.6,41.4Z"/><path class="cls-7" d="M45.8,41.3a.4.4,0,0,0,.4.3h0v-1h0c-.1.1-.2.2-.2.3S45.8,41.1,45.8,41.3Z"/><path class="cls-2" d="M47.1,43a4.4,4.4,0,0,1-.8-1.1c0-.1-.1-.2-.1-.3v-.3a1.5,1.5,0,0,1-.1-.7v-.3a2.9,2.9,0,0,1,.2-.9"/><path class="cls-3" d="M47.2,42.9a3.2,3.2,0,0,1-.7-3.5c0-.2-.3-.2-.3-.1a3.6,3.6,0,0,0,.8,3.8c.1.2.3,0,.2-.2Z"/></g></g></svg>