<svg xmlns="http://www.w3.org/2000/svg" xmlns:xlink="http://www.w3.org/1999/xlink" viewBox="0 0 84 66"><defs><style>.cls-1{mask:url(#mask);filter:url(#luminosity-noclip-6);}.cls-2{mix-blend-mode:multiply;fill:url(#linear-gradient);}.cls-3{fill:#fff4d9;}.cls-4{fill:#e5c9b3;}.cls-5{fill:#ffe8cf;}.cls-6{fill:#d4b9a6;}.cls-7{fill:#d2b29b;}.cls-8{fill:#d2d5d3;}.cls-9{mask:url(#mask-2);}.cls-10{fill:#fff;stroke:#4c2f1b;stroke-width:0.1px;}.cls-10,.cls-23{stroke-miterlimit:10;}.cls-11{fill:#c0b8ac;}.cls-12{fill:#1e1b1b;}.cls-13{fill:#1e1614;}.cls-14{fill:#fdf38c;}.cls-15{mask:url(#mask-3);}.cls-16{mask:url(#mask-4);}.cls-17{fill:#8d8c8c;}.cls-18{mask:url(#mask-5);}.cls-19{mask:url(#mask-6);}.cls-20{mask:url(#mask-7);}.cls-21{mask:url(#mask-8);}.cls-22{fill:#f3dac3;}.cls-23{fill:none;stroke:#b29a8d;stroke-width:0.3px;}.cls-24{filter:url(#luminosity-noclip-8);}.cls-25{filter:url(#luminosity-noclip-7);}.cls-26{filter:url(#luminosity-noclip-5);}.cls-27{filter:url(#luminosity-noclip-4);}.cls-28{filter:url(#luminosity-noclip-3);}.cls-29{filter:url(#luminosity-noclip-2);}.cls-30{filter:url(#luminosity-noclip);}</style><filter id="luminosity-noclip" x="15.62" y="-7160" width="1.5" height="32766" filterUnits="userSpaceOnUse" color-interpolation-filters="sRGB"><feFlood flood-color="#fff" result="bg"/><feBlend in="SourceGraphic" in2="bg"/></filter><mask id="mask" x="15.62" y="-7160" width="1.5" height="32766" maskUnits="userSpaceOnUse"><g class="cls-30"/></mask><linearGradient id="linear-gradient" x1="-1170.85" y1="31.04" x2="-1171.42" y2="34.5" gradientTransform="translate(1187.3)" gradientUnits="userSpaceOnUse"><stop offset="0" stop-color="#fff"/><stop offset="1"/></linearGradient><filter id="luminosity-noclip-2" x="15.19" y="-7160" width="1.6" height="32766" filterUnits="userSpaceOnUse" color-interpolation-filters="sRGB"><feFlood flood-color="#fff" result="bg"/><feBlend in="SourceGraphic" in2="bg"/></filter><mask id="mask-2" x="15.19" y="-7160" width="1.6" height="32766" maskUnits="userSpaceOnUse"><g class="cls-29"/></mask><filter id="luminosity-noclip-3" x="19.48" y="-7160" width="4.38" height="32766" filterUnits="userSpaceOnUse" color-interpolation-filters="sRGB"><feFlood flood-color="#fff" result="bg"/><feBlend in="SourceGraphic" in2="bg"/></filter><mask id="mask-3" x="19.48" y="-7160" width="4.38" height="32766" maskUnits="userSpaceOnUse"><g class="cls-28"/></mask><filter id="luminosity-noclip-4" x="23.04" y="-7160" width="6.86" height="32766" filterUnits="userSpaceOnUse" color-interpolation-filters="sRGB"><feFlood flood-color="#fff" result="bg"/><feBlend in="SourceGraphic" in2="bg"/></filter><mask id="mask-4" x="23.04" y="-7160" width="6.86" height="32766" maskUnits="userSpaceOnUse"><g class="cls-27"/></mask><filter id="luminosity-noclip-5" x="37.81" y="-7160" width="4.72" height="32766" filterUnits="userSpaceOnUse" color-interpolation-filters="sRGB"><feFlood flood-color="#fff" result="bg"/><feBlend in="SourceGraphic" in2="bg"/></filter><mask id="mask-5" x="37.81" y="-7160" width="4.72" height="32766" maskUnits="userSpaceOnUse"><g class="cls-26"/></mask><filter id="luminosity-noclip-6" x="15.62" y="29.27" width="1.5" height="4.62" filterUnits="userSpaceOnUse" color-interpolation-filters="sRGB"><feFlood flood-color="#fff" result="bg"/><feBlend in="SourceGraphic" in2="bg"/></filter><mask id="mask-6" x="15.62" y="29.27" width="1.5" height="4.62" maskUnits="userSpaceOnUse"><g class="cls-1"><path class="cls-2" d="M17.1,29.3A6.9,6.9,0,0,0,15.6,33c0,.5.4.8.9.9a1.3,1.3,0,0,1-.7-1.6A8.3,8.3,0,0,1,17.1,29.3Z"/></g></mask><filter id="luminosity-noclip-7" x="50.68" y="-7160" width="3.21" height="32766" filterUnits="userSpaceOnUse" color-interpolation-filters="sRGB"><feFlood flood-color="#fff" result="bg"/><feBlend in="SourceGraphic" in2="bg"/></filter><mask id="mask-7" x="50.68" y="-7160" width="3.21" height="32766" maskUnits="userSpaceOnUse"><g class="cls-25"/></mask><filter id="luminosity-noclip-8" x="55.48" y="-7160" width="9.17" height="32766" filterUnits="userSpaceOnUse" color-interpolation-filters="sRGB"><feFlood flood-color="#fff" result="bg"/><feBlend in="SourceGraphic" in2="bg"/></filter><mask id="mask-8" x="55.48" y="-7160" width="9.17" height="32766" maskUnits="userSpaceOnUse"><g class="cls-24"/></mask></defs><g id="Layer_37" data-name="Layer 37"><path class="cls-3" d="M57.3,16.3h0a25.4,25.4,0,0,0,5.3,4.4,9.3,9.3,0,0,0,4.9,1.1,8.6,8.6,0,0,0,4.9-2.3c.2-.3.5-.3.8,0a1.3,1.3,0,0,1,0,1.2A12.6,12.6,0,0,1,67.5,23a10.6,10.6,0,0,1-5.8-1.2A11.7,11.7,0,0,1,57.3,16.3Z"/><path class="cls-3" d="M17.1,24.7S16,21,17.1,19s1.8,2,4.3,3.8C22,23.3,17.1,24.7,17.1,24.7Z"/><path class="cls-4" d="M20.8,22.3c-1.9-1.8-2.6-4.6-3.5-3.5s1.4,2,.9,4.9A7.4,7.4,0,0,1,20.8,22.3Z"/><path class="cls-5" d="M22.7,35.3s4,13.3,3.3,15.1-.5,4.5,2.1,3.1S30.3,34.3,30,30.2C27.6,28.5,22.7,35.3,22.7,35.3Z"/><path class="cls-6" d="M25.7,51.3c-.5,2,.1,3.4,2.4,2.2a1.7,1.7,0,0,0,.6-.6A2.8,2.8,0,0,0,25.7,51.3Z"/><path class="cls-6" d="M30.2,40.1c-1.3-1.3-4.7-2.2-6.3-2.1a20.3,20.3,0,0,0,3.2,4.5c.9,4,.6,7.9,0,8.9s1.1,1.6,1.4,1.7C29.8,51.5,30.2,45.6,30.2,40.1Z"/><path class="cls-6" d="M38.5,25.4s-1,9.5,8.5,10.4c2.2.2,2.5,3,1.3,5.3S47.4,44.7,50,44s2.9-10.3,2-11.6-3.6-4.1-3.6-7.5.4-4-5.6-3.9C39.5,27.4,38.5,25.4,38.5,25.4Z"/><path class="cls-7" d="M48.2,41.3C47,43.6,47.4,44.7,50,44a2.1,2.1,0,0,0,.8-.6A3.3,3.3,0,0,0,48.2,41.3Z"/><path class="cls-3" d="M55.8,15.6A30,30,0,0,0,30.6,26.1a3.4,3.4,0,0,0-1.2-.6c-2.9-1-6.3,1.1-7.6,4.8s.1,7.4,3,8.5a6.2,6.2,0,0,0,1.9.2c3.8,4.8,13,3,15.9.1C47,33.8,52.7,31.8,55.4,32A9.4,9.4,0,0,0,59,27.3C61.3,21.9,58.1,15.9,55.8,15.6Z"/><path class="cls-4" d="M52.4,29.1c-5.6-.7-10.5,3.4-12.1,5-3,3.3-7.4,4.5-8.8,2.1-2.7-4.7-3.8-3.9-3.8-3.9A53.3,53.3,0,0,0,21.9,36a5.3,5.3,0,0,0,2.9,2.8,6.2,6.2,0,0,0,1.9.2c3.8,4.8,13,3,15.9.1C46.9,34,52.2,32,55.1,32A6.5,6.5,0,0,0,52.4,29.1Z"/><path class="cls-3" d="M31.9,36.7s4.3,16.1,3.6,17.9-.6,4.5,2.1,3.1,2.2-19.2,1.9-23.3C37.1,32.7,31.9,36.7,31.9,36.7Z"/><path class="cls-3" d="M29.9,29.1a7.3,7.3,0,0,1-7.4,7.1c-4.1,0-7.5-2.7-7.5-6.6a7.7,7.7,0,0,1,7.5-7.5A7.2,7.2,0,0,1,29.9,29.1Z"/><path class="cls-3" d="M19.1,24.4c-1.5,1.9-4.4,4.9-3.8,9.2.4,2.2,5.6,4.9,11.1,1.1C28,30.8,24.4,17.8,19.1,24.4Z"/><path class="cls-8" d="M16.8,29.6c0,.8-.4,1.4-.8,1.4s-.8-.6-.8-1.4.3-1.3.8-1.3S16.8,28.9,16.8,29.6Z"/><g class="cls-9"><path class="cls-4" d="M16.8,29.6c0,.8-.4,1.4-.8,1.4s-.8-.6-.8-1.4.3-1.3.8-1.3S16.8,28.9,16.8,29.6Z"/></g><path class="cls-10" d="M16.6,29.9c-.1.6-.5.8-.7.8s-.6-.6-.5-1.1.5-1,.8-.9S16.8,29.4,16.6,29.9Z"/><path class="cls-11" d="M35.5,54.7c-.9,2.3-.5,4.4,2.1,3a3.1,3.1,0,0,0,.9-1.2C37.6,54.8,36.4,54.5,35.5,54.7Z"/><path class="cls-4" d="M23.2,33.3c-1.2-1.6-4.9-.7-4.9-.7H16.5c-.5-.4-.9-1.4-1.2-.6a4.8,4.8,0,0,0,0,1.7c.3,1.7,3.3,3.6,7.1,2.8A1.9,1.9,0,0,0,23.2,33.3Z"/><path class="cls-12" d="M15.7,33.2a3.1,3.1,0,0,0,1.1,1.6,1.9,1.9,0,0,0,1.4-1.5Z"/><path class="cls-6" d="M17.1,29.2A7.3,7.3,0,0,0,15.6,33c0,.6.7.9,1.3,1s1.7-.5,2.3-2.3S19.1,26.7,17.1,29.2Z"/><path class="cls-6" d="M22.5,22.1a6.7,6.7,0,0,0-2.8.6l-1.5.8h-.1c.6-.3,4.9-2.2,6.8,1.6a4.6,4.6,0,0,0,1.5-2.1A8.4,8.4,0,0,0,22.5,22.1Z"/><path class="cls-13" d="M16.4,29.7c0,.4-.2.7-.4.7s-.4-.3-.4-.7.2-.6.4-.6S16.4,29.4,16.4,29.7Z"/><path class="cls-14" d="M16.2,29.6c0,.1,0,.3-.1.3s-.2-.2-.2-.3.1-.3.2-.3S16.2,29.4,16.2,29.6Z"/><path class="cls-8" d="M19.5,31.5s.1-3.5,3.3-2.3S21.9,34.5,19.5,31.5Z"/><g class="cls-15"><path class="cls-4" d="M19.5,31.5s.1-3.5,3.3-2.3S21.9,34.5,19.5,31.5Z"/></g><path class="cls-10" d="M23.2,30.5a1.3,1.3,0,0,1-1.1,1.6,1.4,1.4,0,0,1-1.8-.8,1.6,1.6,0,0,1,1.2-1.8A1.5,1.5,0,0,1,23.2,30.5Z"/><path class="cls-13" d="M21.8,30.9c0,.5-.2.8-.5.8s-.5-.3-.5-.8.2-.8.5-.8S21.8,30.5,21.8,30.9Z"/><path class="cls-14" d="M21.6,30.8c0,.2-.1.3-.2.3s-.2-.1-.2-.3.1-.4.2-.4S21.6,30.6,21.6,30.8Z"/><path class="cls-8" d="M23,36.2a7.2,7.2,0,0,0,6.9-7.1,6,6,0,0,0-.6-2.7A9.9,9.9,0,0,1,23,36.2Z"/><g class="cls-16"><path class="cls-6" d="M23,36.2a7.2,7.2,0,0,0,6.9-7.1,6,6,0,0,0-.6-2.7A9.9,9.9,0,0,1,23,36.2Z"/></g><path class="cls-17" d="M40.5,35.1c-4-5.1-2.5,10.7-2,13.6a36,36,0,0,1-.1,7.9c1.2-2.8,1.4-10.1,1.3-15.8a7.4,7.4,0,0,0,2.8-1.6C42.5,38.1,41.9,36.8,40.5,35.1Z"/><g class="cls-18"><path class="cls-4" d="M40.5,35.1c-4-5.1-2.5,10.7-2,13.6a36,36,0,0,1-.1,7.9c1.2-2.8,1.4-10.1,1.3-15.8a7.4,7.4,0,0,0,2.8-1.6C42.5,38.1,41.9,36.8,40.5,35.1Z"/></g><path class="cls-12" d="M20.2,35.9H18.3l-.4-.2-.5-.5a1.7,1.7,0,0,1-.4-.6l-.3.2a1.4,1.4,0,0,0,.5.6c-.1,0-.1,0-.1.1h.3l.4.3.4.2h.4a1.4,1.4,0,0,0,.9,0h.8l.5-.2h-.6Z"/><g class="cls-19"><path class="cls-8" d="M17.1,29.3A6.9,6.9,0,0,0,15.6,33c0,.5.4.8.9.9a1.3,1.3,0,0,1-.7-1.6A8.3,8.3,0,0,1,17.1,29.3Z"/></g><path class="cls-6" d="M15.2,31.6s-1.7-7.1,6.7-9.5C19.7,22.1,13.6,25,15.2,31.6Z"/><path class="cls-17" d="M51,26.9a7.8,7.8,0,0,0,.6,5.8l2.3-.6Z"/><g class="cls-20"><path class="cls-6" d="M51,26.9a7.8,7.8,0,0,0,.6,5.8l2.3-.6Z"/></g><path class="cls-3" d="M50.7,24.9s-1,10.3,8.5,11.3c2.2.2,2.5,3.2,1.3,5.7s-.9,3.9,1.7,3.1,2.9-11.1,2-12.5-3.6-4.4-3.6-8.1-.1-8.8-6.1-8.6C51.2,22.7,50.7,24.9,50.7,24.9Z"/><path class="cls-7" d="M60.4,42c-1.2,2.6-.8,3.8,1.8,3a2.9,2.9,0,0,0,1.1-1.1A2.8,2.8,0,0,0,60.4,42Z"/><path class="cls-8" d="M64.2,32.5c-1-1.4-3.6-4.4-3.6-8.1s-.1-7.7-4.4-8.5c.7.7,1.6,2.3,1.1,5.1s-3.9,9.1.3,12.5c2.3,1.8,5.3.4,6.1,3.9a13,13,0,0,1,.1,5.2C64.9,39.3,64.9,33.5,64.2,32.5Z"/><g class="cls-21"><path class="cls-22" d="M64.2,32.5c-1-1.4-3.6-4.4-3.6-8.1s-.1-7.7-4.4-8.5c.7.7,1.6,2.3,1.1,5.1s-3.9,9.1.3,12.5c2.3,1.8,5.3.4,6.1,3.9a13,13,0,0,1,.1,5.2C64.9,39.3,64.9,33.5,64.2,32.5Z"/></g><path class="cls-3" d="M22.6,25.4c3.5-1.8,6.2-6.6,7.8-5.8s-.8,7.4-.8,7.4C25.8,30.3,22.4,25.5,22.6,25.4Z"/><path class="cls-4" d="M24.8,26.9c1.1-1.7,4.4-7,5.5-6.3s-1.1,5.9-1.4,6.7-.8-.4-.8-.4.5-.4.5-.4a1.4,1.4,0,0,0-.7.2,2.7,2.7,0,0,1,1-1.1,2,2,0,0,0-1.5.8,3.4,3.4,0,0,1,.9-1.8,3.7,3.7,0,0,0-1.8,1.7,3.5,3.5,0,0,1,.4-1.2A15.2,15.2,0,0,0,24.8,26.9Z"/><path class="cls-23" d="M73.2,19.5c-.3-.3-.6-.3-.8,0a8.6,8.6,0,0,1-4.9,2.3,9.3,9.3,0,0,1-4.9-1.1,18.5,18.5,0,0,1-2.7-1.9,4.2,4.2,0,0,0-2.3-2.4h0l-.6-.2h-.2a2.1,2.1,0,0,0-1-.4A30,30,0,0,0,30.6,26.1l-.6-.4c.6-2,1.5-5.6.4-6.1s-2.6,1.4-4.5,3.3a3.5,3.5,0,0,0-1.3-.5H21.9l-1.1.2a17.5,17.5,0,0,1-2.3-3.1h0l-.2-.3h-.1c0-.1-.1-.1-.1-.2h-.2a.1.1,0,0,1-.1-.1h-.4a.1.1,0,0,0-.1.1h0c-.1,0-.1.1-.2.2-.9,1.7-.3,4.8-.1,5.5a6.9,6.9,0,0,0-2,4.2v.9a4.7,4.7,0,0,0,.2,1.7v.1a.3.3,0,0,0,.1.2,6.7,6.7,0,0,0,0,2c.1.1.1.2.1.4s.1,0,.1.1.1.2.1.3.1,0,.1.1l.3.3h0l.4.3h.1l.3.2H17l.5.3a.1.1,0,0,1,.1.1l.5.2h.2l.5.2h3.4c0,.1.1.2.2.3a.3.3,0,0,0,.1.2l.2.2c0,.1.1.1.1.2s.2.1.2.2l.2.2c.1,0,.1.1.2.2h.1c1.1,4,3,11.1,2.5,12.4l-.3.9h0v.2a.7.7,0,0,0-.1.5h0v.3h0v.2h0v.2h0v.2h.1a.1.1,0,0,1,.1.1.1.1,0,0,0,.1.1c0,.1.1.1.1.2h.5a.1.1,0,0,0,.1.1h.2a.1.1,0,0,0,.1-.1h.8l.4-.2.3-.2h0l.3-.3h0a12.7,12.7,0,0,0,1-4h0c0-.3.1-.5.1-.8h0c0-.3.1-.5.1-.8V47c0-.2.1-.4.1-.7v-.9a.4.4,0,0,0,.1-.3V43.5a.8.8,0,0,0,.1-.4V41.5h0a10.5,10.5,0,0,0,3,.5c1.2,4.9,2.7,11.6,2.3,12.7a6.3,6.3,0,0,0-.5,2.1h0c0,.1.1.2.1.3h0v.3h0c.1,0,.1.1.1.2h.1c0,.1,0,.1.1.2h0c.1,0,.1,0,.1.1h.4a.1.1,0,0,1,.1.1h.9c.1,0,.2,0,.2-.1l.5-.2a.2.2,0,0,0,.2-.2h.1a.2.2,0,0,1,.2-.2h0c0-.1.1-.2.2-.3h0a.4.4,0,0,1,.1-.3h0l.2-.5h0c.1-.4.2-.8.3-1.4H39a1.5,1.5,0,0,1,.1-.7v-.2c0-.3.1-.5.1-.7v-.2a2.2,2.2,0,0,0,.1-.8v-.2c.1-.9.2-2,.3-3V47.5a3.4,3.4,0,0,0,.1-1h0V40.8h0a8.3,8.3,0,0,0,2.8-1.6h.1l.8-1,.4-.3.5-.5.4-.4.5-.4.4-.3c.1-.2.3-.3.4-.4h1c2.2.2,2.5,3,1.3,5.3a6.8,6.8,0,0,0-.7,1.7h0c0,.2-.1.4,0,.6h0a.6.6,0,0,0,.1.4h0l.3.2h2l.4-.3h0c2.1-1.5,2.4-9.5,1.7-11.1l.4-.2c1.2,1.9,3.3,3.4,6.7,3.8s2.5,3.2,1.3,5.7h-.1c-.6,1.3-.8,2.2-.5,2.8h0a.1.1,0,0,0,.1.1h2.2l.3-.2h0c.1-.1.2-.1.2-.2h.1l.5-.7h0c.2-.4.3-.8.5-1.3h0a21.6,21.6,0,0,0,.8-5.9h0c0-.2.1-.5.1-.7h0c0-.2-.1-.4-.1-.6h0v-.5h0v-.5h0a.8.8,0,0,1-.1-.4h0c0-.2-.1-.3-.1-.4h0c0-.1-.1-.2-.1-.3h0a.3.3,0,0,0-.1-.2c-1-1.4-3.6-4.4-3.6-8.1v-.7c.1-.1,0-.2,0-.3V21.7a4.3,4.3,0,0,0-.1-.5v-.4a7.1,7.1,0,0,0,1.2,1A10.6,10.6,0,0,0,67.5,23a12.6,12.6,0,0,0,5.7-2.3A1.3,1.3,0,0,0,73.2,19.5Z"/></g></svg>