<svg xmlns="http://www.w3.org/2000/svg" viewBox="0 0 161 140"><defs><style>.cls-1{isolation:isolate;}.cls-2{fill:#ffcb29;}.cls-3{fill:#ffecb2;mix-blend-mode:multiply;}.cls-4{fill:#f6eedf;}.cls-5{fill:#fcb316;}.cls-6{fill:#e18c2a;}.cls-7{fill:#faa629;}.cls-8{fill:#cd7f29;}.cls-9{fill:#a51f23;}.cls-10{fill:#c12a3e;}.cls-11{fill:#fff;}.cls-12{fill:#383838;}.cls-13{fill:#f78c1e;}.cls-14{fill:#f47c20;}.cls-15{fill:none;stroke:#cd7f29;stroke-miterlimit:10;stroke-width:0.5px;}</style></defs><g class="cls-1"><g id="Hen"><path class="cls-2" d="M90.3,89.1,89.2,93h1.3c.4.1.7.1.7.3s-2.2,1-2.2,1a46.3,46.3,0,0,1-1.9,5.4c-.4.8-.7,1.4-.9,1.3s-.2-.4-.2-.8a27.6,27.6,0,0,1,1.3-5c-.4.3-2.8,1.8-4.9,2.9s-2.4,1.1-2.7.8a.4.4,0,0,1,.1-.3l.4-.5L81.8,97A41.2,41.2,0,0,1,86,94.5s-6.3.9-6.5,0,0-.2.1-.3l.6-.2a49.2,49.2,0,0,1,7.5-1.2s.2-1.8.5-4,.5-3.3.7-4.8.4-3.6.4-3.6l3.6-.6L91.4,85Z"/><path class="cls-3" d="M91.2,93.3c.1.5-2.2,1-2.2,1a46.3,46.3,0,0,1-1.9,5.4l-.2.3s.9-5.1,1.7-5.8A5.4,5.4,0,0,1,91.2,93.3Z"/><path class="cls-3" d="M87.3,95.2c-.4.3-2.8,1.8-4.9,2.9s-2.4,1.1-2.7.8a.4.4,0,0,1,.1-.3,16.7,16.7,0,0,0,4.1-2.2C86.2,94.9,87.3,95.2,87.3,95.2Z"/><path class="cls-3" d="M86,94.5s-6.3.9-6.5,0,0-.2.1-.3h.8Z"/><path class="cls-4" d="M79.9,98.1a.9.9,0,0,0-.5,1.1.7.7,0,0,1,.8-.4C80.8,98.8,80.4,98,79.9,98.1Z"/><path class="cls-4" d="M79.9,93.7a1,1,0,0,0-1,.9.7.7,0,0,1,.9-.1C80.3,94.8,80.4,93.8,79.9,93.7Z"/><path class="cls-4" d="M85.7,100.4c-.2.3-.2.8.4,1.2a.8.8,0,0,1,.3-.9C86.8,100.3,86,100,85.7,100.4Z"/><path class="cls-4" d="M90.7,92.8c.3-.2.9,0,1.2.5a1,1,0,0,0-1,.2C90.5,93.8,90.3,93,90.7,92.8Z"/><path class="cls-5" d="M91.4,85l-1.1,4.1a3.9,3.9,0,0,1-2.1-.3c.2-1.5.5-3.3.7-4.8l1.1.2A2.9,2.9,0,0,1,91.4,85Z"/><path class="cls-2" d="M78.1,85.3l-.3,1.2h1.3c.4,0,.7.1.7.2s-2.2,1-2.2,1a46.3,46.3,0,0,1-1.9,5.4c-.4.9-.7,1.4-.9,1.3s-.2-.4-.2-.8a27.6,27.6,0,0,1,1.3-5A38.7,38.7,0,0,1,71,91.5c-1.3.6-2.4,1.1-2.7.8a.4.4,0,0,1,.1-.3l.4-.5,1.6-1.1a41.2,41.2,0,0,1,4.2-2.5s-6.3.9-6.5,0,0-.2.1-.2l.6-.3a60.5,60.5,0,0,1,7.5-1.1s.1-.5.2-1.2.2-1.8.3-2.9l.3-2c.1-1,.3-1.9.4-2.8s.4-3.5.4-3.6l3.6-.6L80,78.4,79.3,81l-.4,1.5Z"/><path class="cls-3" d="M79.8,86.7c.1.5-2.2,1-2.2,1a46.3,46.3,0,0,1-1.9,5.4l-.2.3s.9-5.1,1.7-5.8A5.4,5.4,0,0,1,79.8,86.7Z"/><path class="cls-3" d="M75.9,88.6A38.7,38.7,0,0,1,71,91.5c-1.3.6-2.4,1.1-2.7.8a.4.4,0,0,1,.1-.3,18.8,18.8,0,0,0,4.1-2.1C74.8,88.3,75.9,88.6,75.9,88.6Z"/><path class="cls-3" d="M74.6,87.9s-6.3.9-6.6,0,.1-.2.2-.2H69Z"/><path class="cls-4" d="M68.5,91.5c-.3.1-.6.5-.5,1.2a.9.9,0,0,1,.8-.5C69.4,92.2,69,91.4,68.5,91.5Z"/><path class="cls-4" d="M68.5,87.2a.9.9,0,0,0-1,.8.7.7,0,0,1,.9-.1C68.9,88.2,69,87.3,68.5,87.2Z"/><path class="cls-4" d="M74.3,93.8c-.2.3-.2.8.4,1.3a1,1,0,0,1,.3-1C75.4,93.8,74.6,93.4,74.3,93.8Z"/><path class="cls-4" d="M79.3,86.2a1.1,1.1,0,0,1,1.2.6.9.9,0,0,0-1,.1C79.1,87.3,78.9,86.4,79.3,86.2Z"/><path class="cls-5" d="M79.3,81l-.4,1.5-.8,2.8a3,3,0,0,1-1.6-.2c.1-.8.2-1.8.3-2.9l.3-2H78Z"/><path class="cls-6" d="M103.1,65.7a14.2,14.2,0,0,1-.5,1.6c-.4,1.2-1,2.6-1.7,4.3s-.8,0-1.7-.8l-1.1-1C93.5,65,85.3,53.3,87,53l.7-.2A3.5,3.5,0,0,0,90,50.5c.7-1.8.9-4.4,2.4-6.7a11.2,11.2,0,0,1,3.3-3.2c4.1-2.6,5.6,1,4.7,3.4,0,0,3.9.8,1.2,5.5,0,0,2.8,0,1.7,3.5s-.4,4.4,0,6.4A13.6,13.6,0,0,1,103.1,65.7Z"/><path class="cls-7" d="M96.8,75.4a16.4,16.4,0,0,1-1,4.5,19.1,19.1,0,0,1-4.3,6.5c-1.4,1.3-5.4,1-12.8-2.4l-2.5-1.2-.4-.2L71,80l-1.1-.7S93.1,61.9,96,69.5l.6,2.1a14.9,14.9,0,0,1,.2,2.1A4.9,4.9,0,0,1,96.8,75.4Z"/><path class="cls-6" d="M95.8,79.9a49.3,49.3,0,0,1-9.6,3.5,23.1,23.1,0,0,1-7.5.6,28,28,0,0,1-9.9-2.7,18.5,18.5,0,0,1-3.3-2.1,13.2,13.2,0,0,1-5.1-7.4,24.6,24.6,0,0,1-.8-5c-.7-9.3,3.4-13.3-.4-14.8a1.4,1.4,0,0,1-.9-1.2s-.4-4.5,4.1-5.1,4.8.6,6.5,5.3,1,5.6,5.3,5.8h.4c2.6.1,3.7-.9,6.3-2a28.6,28.6,0,0,1,6.8-2c6.5-.9,11.2,1.6,13.5,7a23.6,23.6,0,0,1,1.3,5.8,2.2,2.2,0,0,0,.1.8v.9C102.9,73.7,100.8,77.3,95.8,79.9Z"/><path class="cls-8" d="M94.2,71.1c3.5-3.5,4.7-6.4,4.7-8.5s-2.1-1.7-3.6-.1c0,0,1-3.4-2.7-1.5,0,0-.1-2.5-4-1.4s-12.3,4-13.7,9.1S85.1,80.2,94.2,71.1Z"/><path class="cls-6" d="M94,69.9c8.8-8.8,3.6-11.2,1.2-8.7,0,0,.9-3.3-2.7-1.5,0,0-.1-2.5-4-1.4S76.8,62.9,75,68,84.9,78.9,94,69.9Z"/><path class="cls-8" d="M69.9,64.1c-1.6,5.7-3.8,5-4.6,3.6-.2.9-1,2.5-3.6.1-.4.4-.7.7-1,.6a2,2,0,0,1-1.1-1.6c-.7-9.3,3.4-13.3-.4-14.8a1.4,1.4,0,0,1-.9-1.2s-.2-2.9,1.9-4.3a4.8,4.8,0,0,1,2.2-.8c2.8-.3,4.4.4,5.9,3.8.2.5.4.9.6,1.5,1,2.8,1,4.7,3.2,5.5s1.9,1.3-.1,2.9C73.8,60.3,73,61.8,69.9,64.1Z"/><path class="cls-6" d="M59.3,49.8c2-3.2,4.9-1.7,4.6.7s-3,3.4-4.3,1.6S58.5,51,59.3,49.8Z"/><path class="cls-9" d="M61.7,54.3a1.5,1.5,0,0,1-2,1.1,1.7,1.7,0,0,1-1.1-2,8.6,8.6,0,0,1,.9-2.9A3,3,0,0,1,61.7,54.3Z"/><path class="cls-10" d="M61.7,54.3a1.5,1.5,0,0,1-2,1.1,1.7,1.7,0,0,1-1.1-2,1.5,1.5,0,0,1,1.9-1.1C61.4,52.5,61.7,53.4,61.7,54.3Z"/><path class="cls-2" d="M58.3,50.4a5.7,5.7,0,0,0-.3,2.9.4.4,0,0,0,.6.1A2.4,2.4,0,0,1,61,51.7c.8,0,.9-.2.6-.5C59.9,49.4,58.5,49.9,58.3,50.4Z"/><path class="cls-11" d="M62.9,49.3a.7.7,0,0,1-.4.8c-.4.2-.8.1-.9-.2A.7.7,0,0,1,62,49,.8.8,0,0,1,62.9,49.3Z"/><path class="cls-12" d="M62.7,49.3a.5.5,0,0,1-.3.7.6.6,0,0,1-.7-.2c-.1-.2.1-.5.3-.6A.5.5,0,0,1,62.7,49.3Z"/><path class="cls-11" d="M62.5,49.4a.3.3,0,0,1-.1.2.2.2,0,0,1-.2-.2c0-.1.1-.1.2-.1A.1.1,0,0,1,62.5,49.4Z"/><path class="cls-13" d="M59.9,50.7c.1.1,0,.3-.2.5s-.4.2-.5.1,0-.4.2-.5A.3.3,0,0,1,59.9,50.7Z"/><path class="cls-8" d="M100.1,55.5c-.5-1.7-1.9,2.4-2.3-2.7s-3.6,1.7-3.8-2.5-3-2-4,.2c1.1-2.7.9-6.9,5.7-9.9s5.6,1,4.7,3.4c0,0,3.9.8,1.2,5.5,0,0,2.8,0,1.7,3.5S100.7,57.8,100.1,55.5Z"/><path class="cls-8" d="M95.8,79.9a19.1,19.1,0,0,1-4.3,6.5c-1.4,1.3-5.4,1-12.8-2.4a28,28,0,0,1-9.9-2.7,19.5,19.5,0,0,0,7.4,1.5c2,0,3.5-.4,3.7-1.1,5.4,2.5,9,.3,9-1.6,5.5,0,7.8-2.9,7.7-4.6h.2c2.7-.8,5.2-2.9,5.8-8.1C102.9,73.7,100.8,77.3,95.8,79.9Z"/><path class="cls-14" d="M64,46.3a4.9,4.9,0,0,0-4.5,2.6,7.4,7.4,0,0,1,.7-2.4,4.8,4.8,0,0,1,2.2-.8c2.2-.2,3.6.1,4.8,1.8C66.5,47.7,66.1,46.5,64,46.3Z"/><path class="cls-10" d="M66.2,46.1c-.6.3-1.3-.1-2.1-.3A3.7,3.7,0,0,0,61,46.9a6.5,6.5,0,0,0-1.7,2.9.8.8,0,0,1-.4.4c-.6.2-.2-2.6-.2-2.8a1.7,1.7,0,0,1,.7-1.3c.5-.3,1-.2,1-.9s-.2-1,.3-1.3h.8c.4-.1.4-.4.5-.7s.4-1.1.8-.9.3.3.5.4a.6.6,0,0,0,.7.1c.4-.1.6-.8,1-.8s.5.5.7.7.5.1.7-.1l.3-.2a1.1,1.1,0,0,1,.8-.1C68.4,42.6,67.5,45.4,66.2,46.1Z"/><path class="cls-9" d="M66.2,46.1c-.6.3-1.3-.1-2.1-.3A3.7,3.7,0,0,0,61,46.9a6.5,6.5,0,0,0-1.7,2.9c.1-1.3,1-4.5,4.1-4.7s4.5-.9,3.8-2.2a1,1,0,0,0-.8-.4l.3-.2a1.1,1.1,0,0,1,.8-.1C68.4,42.6,67.5,45.4,66.2,46.1Z"/><path class="cls-15" d="M103.3,59.4c-.4-2-.9-3.6,0-6.4s-1.7-3.5-1.7-3.5c2.7-4.7-1.2-5.5-1.2-5.5.9-2.4-.6-6-4.7-3.4a1,1,0,0,0-.5.4H95l-.3.3a.1.1,0,0,0-.1.1l-.4.3h-.1l-.3.3h-.1l-.3.3h-.1c-.1.1-.2.2-.2.3s-.1,0-.1.1a9.7,9.7,0,0,0-1.5,2.6h0l-.3.8h0c-.1.1-.1.2-.1.4H91c0,.2,0,.3-.1.4h0c0,.1-.1.2-.1.3v.2a.3.3,0,0,0-.1.2c0,.2-.1.3-.1.5h0a.4.4,0,0,0-.1.3v.4h0a.4.4,0,0,0-.1.3h-.1v.3c-.1,0-.1,0-.1.1s-.1.2-.1.3a3.5,3.5,0,0,1-2.3,2.3,28.6,28.6,0,0,0-6.8,2c-2.6,1.1-3.7,2.1-6.3,2h-.4l-1.4-.2H71.7l-.3-.2h0l-.3-.2h0l-.3-.2h0c0-.1-.1-.2-.2-.3h0l-.4-.6h0c0-.1-.1-.2-.1-.3h0l-.2-.3h0c0-.1-.1-.2-.1-.3h0a.4.4,0,0,1-.1-.3c0-.1-.1-.1-.1-.2V53a13.1,13.1,0,0,1-.5-1.5h0l-.2-.5-.3-.8-.2-.5c0-.1-.1-.1-.1-.2h0a.8.8,0,0,0-.2-.4.4.4,0,0,0-.1-.3l-.2-.3a.3.3,0,0,0-.1-.2l-.2-.3c0-.1-.1-.2-.1-.3s-.1-.1-.2-.2h0a.1.1,0,0,0-.1-.1.3.3,0,0,0-.1-.2h-.2a.3.3,0,0,1-.1-.2h-.2l-.3-.2h0l-.3-.2h.3c1.3-.7,2.2-3.5,1.3-3.9a1.1,1.1,0,0,0-.8.1l-.3.2c-.2.2-.4.5-.7.1s-.3-.8-.7-.7-.6.7-1,.8a.6.6,0,0,1-.7-.1c-.2-.1-.3-.4-.5-.4s-.7.5-.8.9-.1.6-.5.7h-.8c-.5.3-.3.8-.3,1.3s-.5.6-1,.9a1.7,1.7,0,0,0-.7,1.3c0,.1-.1.7-.1,1.3h-.1v.4h0a1.3,1.3,0,0,0-.1.6h-.1v.5h0a5.2,5.2,0,0,0-.3,2.9.4.4,0,0,0,.6.1h0a1.7,1.7,0,0,0,1.1,2,2,2,0,0,0,1.1,0c-.4,2.4-1.6,6-1.2,11.4a24.6,24.6,0,0,0,.8,5,13.2,13.2,0,0,0,5.1,7.4,18.5,18.5,0,0,0,3.3,2.1,29.6,29.6,0,0,0,7.8,2.5c0,.4-.1.9-.1,1.3s-.2,1.2-.2,1.2a60.5,60.5,0,0,0-7.5,1.1h0l-.3-.2a.9.9,0,0,0-1,.8.9.9,0,0,1,.6-.2.1.1,0,0,1-.1.1c.1.2.6.3,1.3.4a37.5,37.5,0,0,0,5.3-.4,41.2,41.2,0,0,0-4.2,2.5l-1.6,1.1h-.3c-.3.1-.6.5-.5,1.2a.8.8,0,0,1,.3-.4h.4a12.6,12.6,0,0,0,2.3-.9,38.7,38.7,0,0,0,4.9-2.9,27.6,27.6,0,0,0-1.3,5l-.3.2c-.2.3-.2.8.4,1.3a.8.8,0,0,1,0-.7h.1c.2.1.5-.4.9-1.3a46.3,46.3,0,0,0,1.9-5.4h.6c.7-.2,1.7-.6,1.6-.9h0a.9.9,0,0,1,.7.1,1.1,1.1,0,0,0-1.2-.6c-.1,0-.2.1-.2.3H77.8l.3-1.2.4-1.3h.2c4.4,2,7.6,2.9,9.8,3.1l-.3,1.7c-.3,2.2-.5,4-.5,4A49.2,49.2,0,0,0,80.2,94h0l-.3-.3a1,1,0,0,0-1,.9.6.6,0,0,1,.6-.2h0l.2.2c1.1.5,6.3-.2,6.3-.2A41.2,41.2,0,0,0,81.8,97l-1.6,1.1h-.3a.9.9,0,0,0-.5,1.1.7.7,0,0,1,.3-.3h0c.3.3,1.4-.2,2.7-.8s4.5-2.6,4.9-2.9a27.6,27.6,0,0,0-1.3,5l-.3.2c-.2.3-.2.8.4,1.2a.6.6,0,0,1,0-.6h.1c.2.1.5-.5.9-1.3A46.3,46.3,0,0,0,89,94.3h.1c.4-.1,2.2-.6,2.1-1h.7c-.3-.5-.9-.7-1.2-.5a.2.2,0,0,0-.2.2H89.2l1.1-3.9.7-2.4.5-.3a19.1,19.1,0,0,0,4.3-6.5c5-2.6,7.1-6.2,6.8-12.6a14.2,14.2,0,0,0,.5-1.6A13.6,13.6,0,0,0,103.3,59.4Z"/></g></g></svg>