<svg xmlns="http://www.w3.org/2000/svg" viewBox="0 0 161 140"><defs><style>.cls-1{fill:#faa629;}.cls-2{fill:#f78f1e;}.cls-3{fill:#fff7e2;}.cls-4{fill:#f57f20;}.cls-5,.cls-6{fill:#f3e9d6;}.cls-5,.cls-7{stroke:#fbcea1;}.cls-13,.cls-5,.cls-7{stroke-miterlimit:10;}.cls-5{stroke-width:0.06px;}.cls-7{fill:#e1d8cb;stroke-width:0.25px;}.cls-8{fill:#eae0ce;}.cls-9{fill:#f47c20;}.cls-10{fill:#87babe;}.cls-11{fill:#434343;}.cls-12{fill:#fff;}.cls-13{fill:none;stroke:#f4b46d;stroke-width:0.5px;}</style></defs><g id="Layer_66" data-name="Layer 66"><path class="cls-1" d="M92.2,94.8c0,.3-.1.9-.2,1.7a4.4,4.4,0,0,0-.2,1.3,9.7,9.7,0,0,0-.1,1.8,5.4,5.4,0,0,0,0,1.8c.1,1.6-1.2,1.7-1.8,3.2s-1.7,5.1-2.2,6.7-.8.7-1.1.4l-.3-.3-.2-.2-.6-.5h-.2c-.2-.1-.4-.3-.6-.3l-1.3-.5H81.1v-.2c0-.2-.1-.3-.1-.4a3,3,0,0,0-.2-1l-.3-.4-.3-.5-.2-.2-.3-.2-1-.6h-.2l-.3-.3a1,1,0,0,1,.2-.9c0-.1.1-.1.2-.1a28.9,28.9,0,0,1,6.1-2.5c4-1,3.9-1.2,4.1-1.6s.3-3.3.2-5.9-.1-3.4-.2-4.6V88.9h2.6s.1.6.3,1.4A20,20,0,0,1,92.2,94.8Z"/><path class="cls-2" d="M81.1,108.4a5.1,5.1,0,0,1-.1.9,3.5,3.5,0,0,0-2.6-3.2l-.3-.3c.2-.2.9.2,1.2.1s7-3.6,7.8-3.2S81.1,108.4,81.1,108.4Z"/><path class="cls-2" d="M86.5,111.7a5.8,5.8,0,0,0-4.8-2.1l.6-.3s5.8-6.4,6.5-6.1-1.7,6.2-2.3,7.9A1.1,1.1,0,0,0,86.5,111.7Z"/><path class="cls-3" d="M80.4,110.6s.4-3.2,1.6-2S81.1,109.3,80.4,110.6Z"/><path class="cls-3" d="M86.2,113.5s-.5-3.1,1-2.4S86.6,112,86.2,113.5Z"/><path class="cls-3" d="M77.1,107s.8-3.1,1.9-1.8S78,105.8,77.1,107Z"/><path class="cls-1" d="M90.8,98.5s1.7,2.6,2.2,1.6-1.9-2.9-1.9-2.9Z"/><path class="cls-2" d="M92.2,94.8c0,.3-.1.9-.2,1.7l-.8-.3a6.8,6.8,0,0,1-2.3-1.4c0-1.7-.1-3.4-.2-4.6a9.4,9.4,0,0,1,2.9,0A20,20,0,0,1,92.2,94.8Z"/><path class="cls-2" d="M77.4,93.1c.1,1.6-1.1,1.7-1.7,3.2a51.8,51.8,0,0,0-2.2,6.7.8.8,0,0,1-1.2.4,6,6,0,0,0-4.9-2.1h-.5a.4.4,0,0,1-.1-.3,3.7,3.7,0,0,0-2.6-3.2c-.2-.1-.2-.2-.3-.3a.7.7,0,0,1,.3-1A28.9,28.9,0,0,1,70.3,94c4-1,3.9-1.2,4.2-1.7s0-11.7,0-11.7h2.6a35.2,35.2,0,0,1,.9,6A24,24,0,0,0,77.4,93.1Z"/><path class="cls-4" d="M66.9,100.1a4.1,4.1,0,0,0-.1.9,3.7,3.7,0,0,0-2.6-3.2c-.2-.1-.2-.2-.3-.3s.9.2,1.1,0,7.1-3.5,7.9-3.1S66.9,100.1,66.9,100.1Z"/><path class="cls-4" d="M72.3,103.4a6,6,0,0,0-4.9-2.1l.7-.3s5.7-6.4,6.5-6.1-1.7,6.2-2.3,7.9A1.1,1.1,0,0,0,72.3,103.4Z"/><path class="cls-3" d="M66.2,102.3s.3-3.2,1.6-2.1S66.9,101,66.2,102.3Z"/><path class="cls-3" d="M72,105.2s-.5-3.1,1-2.4S72.3,103.7,72,105.2Z"/><path class="cls-3" d="M62.9,98.7s.7-3.1,1.8-1.8S63.8,97.5,62.9,98.7Z"/><path class="cls-2" d="M76.6,90.2s1.6,2.6,2.1,1.6-1.8-2.9-1.8-2.9Z"/><path class="cls-5" d="M95.9,65.8A50.2,50.2,0,0,0,112.1,64c1.7-.5,2.3,1,1.2,2.6s-5,3.7-9.8,5S95.9,65.8,95.9,65.8Z"/><path class="cls-6" d="M112.7,66s1.5.1,1.4,1.2-5,4-10.3,5.7S112.7,66,112.7,66Z"/><path class="cls-6" d="M112.8,68.1s.8,1.4-.1,2.3L106,76.7l-1-7.1Z"/><path class="cls-6" d="M106.6,76.4c-2.9,9.7-12.9,16.8-16,17.1S76.2,89.8,69,84.4c-3-2.3-5.2-4.8-5.7-7.4-2-9.6,2.3-19,3.3-25.9A132.4,132.4,0,0,0,68.2,37c0-3.4-.5-4.9-1.4-5.4L65.9,30l-2.1-3.9a7.7,7.7,0,0,1,4.9-5.5c3.1-1.2,6.8,0,7.9,2.6a10.8,10.8,0,0,1,.7,4.9c-.2,4.4-1.8,10-2.3,15.1a48,48,0,0,0-.4,6.2c-.2,7.3,1.3,11,3.1,12.1s5.6.9,11,1.6c8.3,1,18.1,2.5,18.6,5.8A18.8,18.8,0,0,1,106.6,76.4Z"/><path class="cls-7" d="M104.5,68.5c-10.1-2.4-23.9-2.2-25.7,1.2s7.6,13.7,15.4,11.6a31.9,31.9,0,0,0,10-5.1c1.9-1.5.4-2.7.4-2.7,2-.5,2.5-2,1.2-2.3C107.5,70.3,107.6,69.2,104.5,68.5Z"/><path class="cls-8" d="M67.8,33.1c-.3-.5-.4-1.1-1-1.5L65.9,30c.1-.1,1.6,1.1,1.7,1.1,3.2,1.5,5-1.1,5.5-.6S69.1,35.5,67.8,33.1Z"/><path class="cls-1" d="M63.8,26.1A9.4,9.4,0,0,1,62.5,29c-1.6,2.4-5.4,4.8-4.1,5.9s8.3-1.8,10-4.2c-2.7-1.8-.1-5.2-2-6.2S63.8,26.1,63.8,26.1Z"/><path class="cls-9" d="M63.5,31.7c.3.4,2-1,1.5-1.6S63,31.1,63.5,31.7Z"/><path class="cls-1" d="M70,26c.5.7,2.3-.2,1.5-1.2S69.4,25.2,70,26Z"/><path class="cls-10" d="M70.2,25.8c.4.6,1.8-.1,1.2-.8S69.7,25.3,70.2,25.8Z"/><path class="cls-11" d="M70.5,25.6c.2.4,1,0,.6-.5S70.2,25.3,70.5,25.6Z"/><path class="cls-12" d="M70.7,25.3a.3.3,0,0,1-.3.3.3.3,0,1,1,0-.6A.3.3,0,0,1,70.7,25.3Z"/><path class="cls-8" d="M88.7,63.1c-4.5.4-13.8,3.3-15.2,1.4-4.2-5.9,1.7-24.5,3.8-36.4-.2,4.4-1.8,10-2.3,15.1a48,48,0,0,0-.4,6.2c-.2,7.3,1.3,11,3.1,12.1S83.3,62.4,88.7,63.1Z"/><path class="cls-8" d="M106.6,76.4c-2.9,9.7-12.9,16.8-16,17.1S76.2,89.8,69,84.4c5.2,2.1,16.3,7.1,24.8,3.9S101.9,77.4,106.6,76.4Z"/><path class="cls-13" d="M114.1,67.4c.1-.5-.3-.8-.6-1s.2-2.7-1.4-2.2a39.2,39.2,0,0,1-9.1,1.7c-3.7-1.2-9.3-2-14.3-2.6s-10.1-1.1-11-1.6-3.3-4.8-3.1-12.1a45.5,45.5,0,0,1,.4-6.1c.5-5.2,2.1-10.8,2.3-15.2a10.8,10.8,0,0,0-.7-4.9c-1.1-2.6-4.8-3.7-7.9-2.6a8,8,0,0,0-4.9,5.5h0a9.4,9.4,0,0,1-1.3,2.9c-1.6,2.4-5.4,4.8-4.1,5.9s6.1-.9,8.8-3c.3.4.3.9.6,1.3a.1.1,0,0,0,.1.1,17.7,17.7,0,0,1,.3,3.7,132.4,132.4,0,0,1-1.6,14.1c-1,6.9-5.3,16.3-3.3,26,.5,2.5,2.7,5,5.7,7.3a46.1,46.1,0,0,0,5.7,3.6,22.1,22.1,0,0,1-.2,4.4c-.3.5-.2.6-4.2,1.6a28.9,28.9,0,0,0-6.1,2.5h-.1c-.8.2-1.2,2.1-1.2,2.1a2.5,2.5,0,0,1,1.5-.8,3.4,3.4,0,0,1,2.3,2.6,5.3,5.3,0,0,0-.5,1.8,2.6,2.6,0,0,1,1.2-.9h0a5.6,5.6,0,0,1,4.6,1.7,6.9,6.9,0,0,0,0,2.1c.3-1.2,1.8-1.6,1.4-2.1h.1a57.3,57.3,0,0,1,2.2-6.7c.6-1.4,1.8-1.6,1.7-3.2V91.5c.5.6,1.1,1.1,1.3.6s-.5-1.7-1.2-2.4h0a52.9,52.9,0,0,0,11.4,3.9V95c.1,2.7.1,5.3-.2,5.9s-.1.6-4.1,1.6a28.9,28.9,0,0,0-6.1,2.5h-.2c-.7.2-1.2,2.1-1.2,2.1a2.5,2.5,0,0,1,1.5-.8l.5.2h.2l.3.2h.5l.3.5a.1.1,0,0,1,.1.1v.2c0,.1,0,.1.1.1s.1.5.2.8a5.3,5.3,0,0,0-.5,1.8,2.6,2.6,0,0,1,1.2-.9h1.8l1.3.5.6.3h.1l.7.6h.2a5.2,5.2,0,0,0-.1,2.1c.3-1.2,1.9-1.6,1.5-2.1h0c.5-1.6,1.4-4.6,2.2-6.7s1.9-1.6,1.8-3.1a5.4,5.4,0,0,1,0-1.8c.5.5,1,1,1.3.5s-.6-1.7-1.2-2.4h0a5.1,5.1,0,0,1,.2-1.3c.1-.8.2-1.4.2-1.7a5.9,5.9,0,0,0-.1-1.8c4.1-1.7,12-8.2,14.5-16.6v-.3c1.5-1.3,5.1-4.6,6.1-5.7a2,2,0,0,0,.3-1.8C113.7,68.3,114.1,67.8,114.1,67.4Z"/></g></svg>