<svg xmlns="http://www.w3.org/2000/svg" viewBox="0 0 161 140"><defs><style>.cls-1{fill:#fbd9ac;}.cls-2{fill:#dfb784;}.cls-3{fill:#6c5f4e;}.cls-4{fill:#726556;}.cls-5{fill:#cda377;}.cls-6{opacity:0.44;}.cls-7{fill:#a98057;}.cls-8{fill:#68553f;}.cls-9{fill:#434343;}.cls-10{fill:#fff;}.cls-11{fill:#564b3e;}.cls-12{fill:none;stroke:#dfb784;stroke-miterlimit:10;stroke-width:0.5px;}</style></defs><g id="Layer_73" data-name="Layer 73"><path class="cls-1" d="M35.5,44.2H34.3c1.5,1.5,4.3,3.5,8.7-.1a2.7,2.7,0,0,1,1.4-.7,5.9,5.9,0,0,1,4.5,1.2c.6.4,1.3.1,1.9-.6a15.6,15.6,0,0,0,2-2.7,5.8,5.8,0,0,1-2-.5A5.8,5.8,0,0,1,49,39.6a12.6,12.6,0,0,1-3.1-4.2,3.5,3.5,0,0,1-.3,1.1,4.2,4.2,0,0,0-3.4-2c.4.2.5.7.6,1.1-2-.4-3.6.3-4.2,1.4a3,3,0,0,1,1.5.5c-.6,1.1-2,4.1-3.5,4,.2.4,1.4.4,1.4.4s-2.5,1.5-4.7.2A5.6,5.6,0,0,0,35.5,44.2Z"/><path class="cls-2" d="M127.8,57c-1.6,8.2-6,2.6-9,5.3-1.5,1.3-2.3-.6-1.5-2.3,2.1-4.9,6.7-2.4,9.8-4.2C128,55.4,128,56,127.8,57Z"/><path class="cls-1" d="M119,61.5s.8-1.4,3.9-1.9,4-3.4,4.3-3.2,0,3.3-1.7,4.4S121.6,60.2,119,61.5Z"/><path class="cls-3" d="M88.4,117.8l-1-1.9.4.3.2.2.5.2a3.5,3.5,0,0,0,1.1.3l-.6-1.1a11.9,11.9,0,0,1-1.1-2.6,4.6,4.6,0,0,0-2.2-.4,3,3,0,0,0-2.2.9,1.1,1.1,0,0,0-.1.5C83,118.3,87,117.9,88.4,117.8Z"/><path class="cls-1" d="M83.5,113.7l.3.2.4.2h.5a4,4,0,0,0,1.9,0,.1.1,0,0,0,.1-.1,2.6,2.6,0,0,0,1.2-.9s-1.3-6.6,0-8.6.7-2.5.7-4.8a58.4,58.4,0,0,1,1.6-8.2c.3-1.1.5-2.2.8-3.1a22,22,0,0,1,.6-2.4,6.5,6.5,0,0,0-4.1-3.6H87a8.1,8.1,0,0,0-3.7.3s.2,1.4.3,3.4c0,.4.1.8.1,1.2.1,2.5.3,5.6.3,7.9a11.9,11.9,0,0,1-.3,3.5c-1.2,1.7-.2,3.7,0,5.9.4,4.7-.8,4.5-.8,5.8S83.7,112.2,83.5,113.7Z"/><path class="cls-4" d="M87.1,115.1l.3.8.4.3.2.2.5.2a2,2,0,0,0,1.1.3A6.9,6.9,0,0,1,87.1,115.1Z"/><path class="cls-4" d="M88.4,117.8s-4.5-.6-5-3.6C83,118.3,87,117.9,88.4,117.8Z"/><path class="cls-3" d="M60.7,89.5l-1-1.9a3.4,3.4,0,0,0,2.2,1A11.6,11.6,0,0,1,60.2,85s-3-.3-4.5.5v.4C55.2,90.1,59.3,89.6,60.7,89.5Z"/><path class="cls-4" d="M61.9,88.6a6.9,6.9,0,0,1-2.5-1.8l.3.8A3.6,3.6,0,0,0,61.9,88.6Z"/><path class="cls-4" d="M60.7,89.5s-4.5-.5-5-3.6C55.2,90.1,59.3,89.6,60.7,89.5Z"/><path class="cls-5" d="M63.9,57.8s-3,11.5-3,13.7.5,2.9-.7,4.9,0,8.6,0,8.6-1.4,2.1-4.5.5c.3-1.5-.5-2.1-.5-3.4s1.2-1.1.8-5.7c-.2-2.2-1.2-4.3-.1-6s-.3-16-.3-16C59.6,53.3,62.2,54.6,63.9,57.8Z"/><path class="cls-3" d="M99.4,111.8l-1.1-1.9a3,3,0,0,0,2.3,1,12.1,12.1,0,0,1-1.8-3.6s-3-.2-4.4.5a.8.8,0,0,0-.1.4C93.9,112.4,97.9,111.9,99.4,111.8Z"/><path class="cls-4" d="M100.6,110.9s-2.1-.9-2.6-1.8l.3.8A3.7,3.7,0,0,0,100.6,110.9Z"/><path class="cls-4" d="M99.4,111.8s-4.6-.5-5.1-3.6C93.9,112.4,97.9,111.9,99.4,111.8Z"/><path class="cls-5" d="M102.5,80.1s-3,11.5-3,13.7.5,2.9-.7,4.9,0,8.6,0,8.6-1.4,2.1-4.4.5c.2-1.5-.6-2.1-.6-3.4s1.2-1,.8-5.7c-.2-2.2-1.2-4.3,0-6s-.3-16-.3-16C98.2,75.6,100.8,76.9,102.5,80.1Z"/><path class="cls-3" d="M49.8,95.5l-1-1.9.2.2a2.9,2.9,0,0,0,1.1.6H51a12.1,12.1,0,0,1-1.8-3.6s-2.6-1.3-4.3.5a1.1,1.1,0,0,0-.1.5C44.3,96,48.4,95.6,49.8,95.5Z"/><path class="cls-1" d="M44.8,91.4l.4.2.4.2a3,3,0,0,0,2.5,0,2.1,2.1,0,0,0,1.1-.9s-1.2-6.6,0-8.6.8-2.5.8-4.8c0-.4.1-1.1.2-2s.9-4,1.4-6.2l1.3-5.5A7.1,7.1,0,0,0,50.7,61a5,5,0,0,0-2.3-.9,8.1,8.1,0,0,0-3.7.3h0a31.2,31.2,0,0,1,.3,3.3c.3,4.4.6,11.7,0,12.6s-.1,3.7,0,5.9c.5,4.7-.8,4.5-.8,5.8S45.1,89.9,44.8,91.4Z"/><path class="cls-4" d="M48.4,92.8l.4.8.2.2a2.9,2.9,0,0,0,1.1.6,1.4,1.4,0,0,0,.9.1A7.2,7.2,0,0,1,48.4,92.8Z"/><path class="cls-4" d="M49.8,95.5s-4.5-.6-5-3.6C44.3,96,48.4,95.6,49.8,95.5Z"/><path class="cls-1" d="M44.7,60.4h0c.3,3,3.7,16.7,5.5,15a23.2,23.2,0,0,0,4.7-7.9C62.8,81.9,72,81.5,83.7,87.3c0,.1.1.1.2.1l1.8,1,.6.2c1.2.4,2.7,0,4-.1H91a34.8,34.8,0,0,0,18.9-6.8,24.1,24.1,0,0,0,3.7-3.3c7.2-7.7,7.2-17-3-17.7-2.8,1.8-5.8.8-8.6,1.1s-11.5-3-19.1-7.5C72.1,48.1,69.6,38.1,55.6,37.7a9.9,9.9,0,0,0-4.2.9C46.6,41.1,43.9,48.4,44.7,60.4Z"/><path class="cls-1" d="M120.6,61.4c3.4,4.2,4.1,7.4,5.8,12.1s2.4,6.4-.5,8.6a4,4,0,0,1-4.1.6,10.9,10.9,0,0,1-4.1-3.2c-.5-.6-5.6-.3-9-4.3s-2.9-9.2-2-12.1S117.5,57.6,120.6,61.4Z"/><path class="cls-6" d="M126.7,77c.1-.3.4,0,.4.2a3.1,3.1,0,0,1-1.2,1.9,3.2,3.2,0,0,1-1.2,3.3c-.1.1-.4-.1-.3-.2a5.6,5.6,0,0,0,1-3,3.5,3.5,0,0,1-2-.7c-.3-.2-.5-.7.4-.4S125.8,78.4,126.7,77Z"/><path class="cls-7" d="M113.3,69.8s.6,1.9,1.6,1.9,1.2-.5,1.9-.1l-.4-.9a2.8,2.8,0,0,0-1.3-1.7A1.5,1.5,0,0,0,113.3,69.8Z"/><path class="cls-8" d="M113.4,69.6c.3,1,1,1.7,1.7,1.7a1.6,1.6,0,0,0,1.3-.6,2.8,2.8,0,0,0-1.3-1.7A1.4,1.4,0,0,0,113.4,69.6Z"/><path class="cls-9" d="M115.8,70.3a.4.4,0,0,1-.2.5,3.8,3.8,0,0,1-1.7-.8c-.1-.2.1-.6.2-.6A9.1,9.1,0,0,1,115.8,70.3Z"/><path class="cls-10" d="M114.1,69.8a.3.3,0,0,0,.3.3c.2,0,.4-.1.4-.3a.4.4,0,0,0-.4-.4C114.2,69.4,114.1,69.6,114.1,69.8Z"/><path class="cls-3" d="M110.5,47A40.1,40.1,0,0,1,116,60c.3,1.1,2.4,1.8,3.2,1s.4-.8.2-1.6C118.7,56.6,116.3,50.4,110.5,47Z"/><path class="cls-2" d="M100.6,74.3c9.8,3,6.4-5,11-6.7,2.3-.8.7-2.8-1.6-3-6.5-.5-6.5,5.9-10.2,8.3C98.7,73.5,99.4,73.9,100.6,74.3Z"/><path class="cls-1" d="M110.5,67.4s-1.9,0-4.3,3.1-5.9,2.4-5.9,2.8,3.5,1.9,5.8.7S107.7,69.5,110.5,67.4Z"/><path class="cls-3" d="M102.4,52a37.8,37.8,0,0,1,8.8,10.9c1.2,2.2,3.1,1.7,3.5.4a2.7,2.7,0,0,0-.3-1.9C112.9,58.9,108.9,53.6,102.4,52Z"/><path class="cls-2" d="M54.9,67.6c7.9,14.3,17.2,13.9,29,19.8H84s.8-4.4.2-5-10.9,0-16.3-4.8-10.7-17-11.6-16.3S54.9,67.6,54.9,67.6Z"/><path class="cls-11" d="M102.4,52a37.8,37.8,0,0,1,8.8,10.9c1.2,2.2,3.1,1.7,3.5.4s-1.1,1.3-2.6-.5S106.5,54.1,102.4,52Z"/><path class="cls-11" d="M110.5,47A40.1,40.1,0,0,1,116,60c.3,1.1,2.4,1.8,3.2,1v-.3s-1.1.8-2.5-1S114.2,50.8,110.5,47Z"/><path class="cls-12" d="M33.3,42.1c2.2,1.3,3.9.9,4.7-.2s-1.2,0-1.4-.4c1.5.1,2.9-2.9,3.5-4a3,3,0,0,0-1.5-.5c.6-1.1,2.2-1.8,4.2-1.4-.1-.4-.2-.9-.6-1.1a4.2,4.2,0,0,1,3.4,2,3.5,3.5,0,0,0,.3-1.1A12.6,12.6,0,0,0,49,39.6l.5.4a8.5,8.5,0,0,1,1.9-1.4,9.9,9.9,0,0,1,4.2-.9c14,.4,16.5,10.4,27.3,16.6,7.6,4.5,16.2,7.7,19.1,7.5s3.7.1,5.6-.1a7,7,0,0,1,2.1-1.4,38.4,38.4,0,0,0-7.3-8.3A19.9,19.9,0,0,1,113,59.4h2.8A39.2,39.2,0,0,0,110.5,47a20,20,0,0,1,8.4,10.8c2.4-1.8,5.7-.6,8.2-2,.9-.4.9.2.7,1.2-1.3,6.6-4.5,4.3-7.2,4.5,3.4,4.1,4.1,7.3,5.8,12s2.4,6.4-.5,8.6a4,4,0,0,1-4.1.6,10.9,10.9,0,0,1-4.1-3.2c-.3-.3-2-.4-4.1-1.1a23.5,23.5,0,0,1-3.7,3.3,32,32,0,0,1-9,4.8,53.7,53.7,0,0,0-1.4,7.3c0,2.3.5,2.9-.7,4.9s0,8.6,0,8.6a12.1,12.1,0,0,0,1.8,3.6h-.1a3.3,3.3,0,0,1-1.4-.4h-.3l-.5-.4,1.1,1.9c-1.5.1-5.5.6-5.1-3.6a.8.8,0,0,1,.1-.4h0c.2-1.5-.6-2.1-.6-3.4s1.2-1,.8-5.7c-.2-2.2-1.2-4.3,0-6s.3-2.3.3-4.7l-3.9.5c-.3.9-.5,2-.8,3.1a58.4,58.4,0,0,0-1.6,8.2c0,2.3.5,2.9-.7,4.8s0,8.6,0,8.6a11.9,11.9,0,0,0,1.1,2.6l.6,1.1a2,2,0,0,1-1.1-.3l-.5-.2-.2-.2-.4-.3,1,1.9c-1.4.1-5.4.5-5-3.6a1.1,1.1,0,0,1,.1-.5h0c.2-1.5-.6-2.1-.6-3.3s1.2-1.1.8-5.8c-.2-2.2-1.2-4.2,0-5.9a11.9,11.9,0,0,0,.3-3.5c0-2.3-.2-5.4-.3-7.9C79,85,74.8,83.7,70.8,82h-.1l-.7-.3h-.3l-.5-.2-.4-.2-.4-.2-.5-.3-.4-.2-.5-.2-.3-.2-.6-.3-.3-.2-.6-.4H65l-.6-.4-.2-.2-.7-.4-.2-.2-.6-.5h-.2l-.6-.6h-.2l-.6-.6-.2-.2-.2-.2a3.6,3.6,0,0,0-.5.9c-1.3,1.9,0,8.6,0,8.6a11.6,11.6,0,0,0,1.7,3.6h0a3.3,3.3,0,0,1-1.4-.4.1.1,0,0,1-.1-.1h-.3c-.2-.2-.4-.3-.4-.4l1,1.9c-1.4.1-5.5.6-5-3.6v-.4h0c.3-1.5-.5-2.1-.5-3.4s1.2-1.1.8-5.7c-.2-2.2-1.2-4.3-.1-6a1,1,0,0,0,.2-.7,3.5,3.5,0,0,0-.5-.8c-.2-.5-.5-.9-.7-1.3a23.2,23.2,0,0,1-4.7,7.9c-.1.9-.2,1.6-.2,2,0,2.3.5,2.9-.8,4.8s0,8.6,0,8.6A12.1,12.1,0,0,0,51,94.5a1.4,1.4,0,0,1-.9-.1,2.9,2.9,0,0,1-1.1-.6l-.2-.2h0l1,1.9c-1.4.1-5.5.5-5-3.6a1.1,1.1,0,0,1,.1-.5h-.1c.3-1.5-.6-2.1-.6-3.3s1.3-1.1.8-5.8c-.1-2.2-1.1-4.2,0-5.9s.3-8.2,0-12.6a31.2,31.2,0,0,0-.3-3.3h0c-.5-7.4.4-13.1,2.2-16.9a4.3,4.3,0,0,0-2.5-.2A2.7,2.7,0,0,0,43,44c-4.4,3.6-7.2,1.6-8.7.1h1.2A5.6,5.6,0,0,1,33.3,42.1Z"/></g></svg>