<svg xmlns="http://www.w3.org/2000/svg" viewBox="0 0 245 420"><defs><style>.cls-1{fill:#114875;}.cls-2{fill:#75b2ef;}.cls-3,.cls-4,.cls-5{fill:none;stroke:#75b2ef;}.cls-10,.cls-12,.cls-3,.cls-4,.cls-5,.cls-6{stroke-miterlimit:10;}.cls-10,.cls-3,.cls-4,.cls-5{stroke-width:2px;}.cls-4{stroke-dasharray:4.99 4.99;}.cls-5{stroke-dasharray:5.09 5.09;}.cls-6,.cls-8{fill:#f2b5a5;}.cls-12,.cls-6{stroke:#593129;stroke-width:0.75px;}.cls-7{fill:#4f3824;}.cls-9{fill:#593129;}.cls-10{fill:#fc3d3d;stroke:#cc2f2f;}.cls-11{fill:#ff885f;}.cls-12{fill:#ce8d80;}.cls-13{fill:#cc2f2f;}.cls-14{fill:#af1e1e;}.cls-15{fill:#4c2d1c;}.cls-16{fill:#d87e66;}</style></defs><g id="Ch_01"><path class="cls-1" d="M151.2,295.2l-48.1,12.4v-.2l-55.6,6.3C43.3,346.3,51.3,417,58.4,412h46.4c-1.9-16.3-1.7-47.3-1.4-63.7,7.2,25.9,18.2,67.3,22.2,63.5l52.6.2C166.8,396.6,168.4,330.1,151.2,295.2Z"/><path class="cls-2" d="M59.1,325.9a10.3,10.3,0,0,1-.4,5.5,11.7,11.7,0,0,1-2.8,4.8,12.4,12.4,0,0,1-2.1,1.9l-1.2.8-1.2.6-1.3.5-1.3.4a12.4,12.4,0,0,1-2.7.3l2.1-1.6,1-.8.5-.4.5-.4.9-.8.9-.8.4-.4.5-.4.8-.9a27.2,27.2,0,0,0,2.9-3.8A47.9,47.9,0,0,0,59.1,325.9Z"/><path class="cls-2" d="M140.9,315a24,24,0,0,0,4.4,3.6,31.7,31.7,0,0,0,4.9,2.4c1.7.7,3.5,1.2,5.3,1.8l2.8.9a15.2,15.2,0,0,1,2.8.9,15.7,15.7,0,0,1-3,.5h-3a21,21,0,0,1-6-1.4,16.6,16.6,0,0,1-5.3-3.4A9.9,9.9,0,0,1,140.9,315Z"/><path class="cls-3" d="M153.9,323.7l.3,2.5"/><path class="cls-4" d="M154.6,331.2c1.6,17.5,6.3,60.8,13.3,75.9"/><path class="cls-3" d="M169.1,409.3a6.5,6.5,0,0,0,1.5,2"/><path class="cls-3" d="M103,348.6l-.8,2.4"/><path class="cls-5" d="M101,355.9A136,136,0,0,0,98.9,404"/><path class="cls-3" d="M99.2,406.5c.1.8.3,1.6.4,2.5"/><path class="cls-6" d="M234.4,340.9,214,315s-17.5-57.5-24.9-62l-18.9-36.4s-37.4-4.7-23.9,27.9c3.6,8.6,12.1,17.1,17.7,25.8.2,19.1,35.3,47.1,36,57.2h0a18.2,18.2,0,0,0,1.6,4.4c7.6,14.9,17.9,19.7,17.9,19.7,1.9,4.5,1.7,11.7,1.1,19.2,0,0-.3,3.1.9,3.9s5.4-3.3,5.4-3.3a2.2,2.2,0,0,0,1.6,2.7c2.2.5,5.5-8.4,5.5-8.4s-.1,3,2,2.1a3.3,3.3,0,0,0,1.7-1.8C242.4,353.6,234.4,340.9,234.4,340.9Z"/><path class="cls-7" d="M235.6,352.9a13.8,13.8,0,0,1,.3,3.5c-.1,1.2-.2,2.4-.4,3.5a29.8,29.8,0,0,1-2,6.8l.6-3.5.6-3.4.6-3.4C235.4,355.2,235.6,354.1,235.6,352.9Z"/><path class="cls-7" d="M232.4,350.2a8.7,8.7,0,0,1,.5,5.5,25.9,25.9,0,0,1-1.3,5.5c-.7,1.8-1.4,3.5-2.2,5.2a38.4,38.4,0,0,1-2.7,4.9l2.2-5.1c.7-1.7,1.3-3.5,1.9-5.2a36.8,36.8,0,0,0,1.6-5.4,12.4,12.4,0,0,0,.3-2.7A6.3,6.3,0,0,0,232.4,350.2Z"/><path class="cls-8" d="M225.8,342.8s8.9,6.5,9.1,20c.4,4.6-4.4,6.2-5.7,1.1,0,0-.6-7.8-11.1-13.8"/><path class="cls-9" d="M225.8,342.8a21.6,21.6,0,0,1,4,4,24.8,24.8,0,0,1,3,4.9,28.1,28.1,0,0,1,2.5,11.1h0a5.1,5.1,0,0,1-.4,2.7,3.3,3.3,0,0,1-2.2,1.8,2.5,2.5,0,0,1-2.6-.9,5,5,0,0,1-1.2-2.4h-.1a12.8,12.8,0,0,0-1.3-4.2,22.6,22.6,0,0,0-2.5-3.8,24.2,24.2,0,0,0-3.2-3.2c-.5-.5-1.2-.9-1.8-1.4l-1.9-1.2,2,1.1,1.9,1.3a25,25,0,0,1,3.4,3.1,26,26,0,0,1,2.7,3.8,13.2,13.2,0,0,1,1.4,4.5h0a4.7,4.7,0,0,0,1.1,2.1,2,2,0,0,0,2,.7,2.5,2.5,0,0,0,1.6-1.4,6.4,6.4,0,0,0,.4-2.4h0a53.2,53.2,0,0,0-.6-5.6,32.7,32.7,0,0,0-1.7-5.3,33.6,33.6,0,0,0-2.7-4.9A25.3,25.3,0,0,0,225.8,342.8Z"/><path class="cls-8" d="M202.3,329.7a42.5,42.5,0,0,0,6,24.4c.1,6.1,9,5.1,7.7-.7,0,0-2.5-10.7-2.3-14.8"/><path class="cls-9" d="M202.3,329.7a33.3,33.3,0,0,0,.3,6.3,46.2,46.2,0,0,0,1.1,6.3,39.7,39.7,0,0,0,4.9,11.6h0a3.9,3.9,0,0,0,1.3,2.9,3.6,3.6,0,0,0,3,.8,3.2,3.2,0,0,0,2.5-1.8,2.9,2.9,0,0,0,.4-1.6,12.2,12.2,0,0,0-.3-1.7c-.5-2.3-.9-4.7-1.3-7s-.3-2.4-.4-3.6a20.8,20.8,0,0,1-.1-3.5,42.2,42.2,0,0,0,1,7c.4,2.3.9,4.7,1.5,7l.3,1.8a4.1,4.1,0,0,1-.4,1.9,4.2,4.2,0,0,1-3.1,2.2,4,4,0,0,1-3.6-.9,4.7,4.7,0,0,1-1.5-3.5v.2a43.7,43.7,0,0,1-2.9-5.7,34.1,34.1,0,0,1-1.9-6.2,45.8,45.8,0,0,1-1-6.3A34.1,34.1,0,0,1,202.3,329.7Z"/><path class="cls-10" d="M58.2,172.9l76.9,12.3a15.6,15.6,0,0,1,4.8,1.4s10.3,28.3,8.3,37.3-100,6-104-10,14-41,14-41"/><path class="cls-10" d="M152,266.3c11.3,2.8,32.3-16.2,39.2-22.8a3.3,3.3,0,0,0,.3-4.5l-36.2-44a27,27,0,0,0-17.6-9.6h0a24.1,24.1,0,0,0-5.5-.5"/><path class="cls-10" d="M152.2,219.9l14.6,104.8a4.6,4.6,0,0,1-3.7,5.3c-21,4-111,19.3-130.4-11.5a5,5,0,0,1-.7-3.4c2.1-10.8,13.1-70.6,14.8-98.5"/><path class="cls-11" d="M70.2,178.3s-8.7,29,24.1,30.4,32.1-25,32.1-25Z"/><path class="cls-6" d="M76.1,178.6s-5.7,18.9,19.2,21.5,23.5-27.3,23.5-27.3Z"/><path class="cls-6" d="M183.6,123.9c-10.6-11.2-18.2,1.4-23.5,5.6C167,97,184,38,98.1,39.5c-47.5.8-55.7,39.6-55.2,71.7-2.1-10.6-12.7-8-15.8,1.8-4.9,15.9,9,20.2,15.7,22.9.3.2.8,7.2,1,9.3,2,22,27.5,46.8,59.1,44.2,24.2-2,49.3-19.7,56-36,2.9,3,7.9,2.8,13.3-.1C180.5,148.9,190.4,131,183.6,123.9Z"/><path class="cls-12" d="M174.7,128.4s-14.1,4.9-12.6,14a5.5,5.5,0,0,0,5.6,4.5,7.4,7.4,0,0,0,5.1-1.9c2.5-2.6-.2-6.9-3.7-5.9s-5.1.8-4.8-2.1C164.3,137,165,133,174.7,128.4Z"/><path class="cls-13" d="M53.2,189.9c-1,5.4-2.3,10.7-3.5,16-.6,2.6-1.2,5.2-1.7,7.9s-1.1,5.3-1.5,8a28.2,28.2,0,0,1-.1-8.2c.1-1.4.4-2.8.6-4.1s.5-2.7.8-4.1a71.5,71.5,0,0,1,2.3-7.9A41.8,41.8,0,0,1,53.2,189.9Z"/><path class="cls-14" d="M152.2,213.9c.2,2.2.3,4.4.5,6.5s.5,4.3.8,6.5c.8,4.3,1.5,8.6,2.1,13s1.2,8.7,1.6,13.1.8,8.7,1,13.1c-1-4.3-1.8-8.6-2.5-12.9s-1.5-8.7-2.1-13-1.2-8.7-1.6-13.1a48.6,48.6,0,0,1-.3-6.6C151.8,218.2,152,216.1,152.2,213.9Z"/><path class="cls-11" d="M44.1,241.6c14.1,17.1,87.6,24.4,110.5,4.2l5.4,31c-28.6,20.5-103.1,18.9-120.8-3.1Z"/><path class="cls-15" d="M55.6,22s10.1,62.2,91.5,35.1c-5.7,4-7.9,11-7.6,20.4,0,0,8.2-9.8,18.2-13,0,0-14,49.6,2.1,71,0,0,2.5-16.1,20.6-14.2,0,0,36.4-37.6-4.1-70,0,0,3.9-7.6,10.9-5.1,0,0-3.9-10.5-13.6-2.5,0,0,12.9-14.5,2.3-20.8,0,0,.7,15.8-7.6,15.6,0,0-14.1-30.7-79.1-21.4,0,0-14.6,2.1-17.4-9.6,0,0-11.5,12.5,3.8,20.8C75.6,28.3,61.8,31.1,55.6,22Z"/><path class="cls-15" d="M43.8,114.1c.3,1.1-2.9-43.3,24.6-56.7s.3-26.8-5.6-19.7c0,0-20.4,6-23.2,29.8s.1,38.6.1,38.6S40.8,106.7,43.8,114.1Z"/><path class="cls-16" d="M91,127.5a3.4,3.4,0,0,1-.5,1.9,5.7,5.7,0,0,1-1.6,1.5c-1.1.7-2.4,1-3.3,1.6a3,3,0,0,0-1,.9.4.4,0,0,0-.1.3l-.2.4a1.9,1.9,0,0,1-.2.7,3.5,3.5,0,0,0,.8,2.8,5.9,5.9,0,0,0,2.7,1.8,13.6,13.6,0,0,0,3.5.7,27,27,0,0,0,7.5-.3,19.4,19.4,0,0,1-7.5,1.6,13.7,13.7,0,0,1-4-.5,7,7,0,0,1-3.6-2.1,4.7,4.7,0,0,1-1.3-4.2,3.6,3.6,0,0,1,.2-1.1l.2-.5.3-.6a4.6,4.6,0,0,1,1.8-1.6c1.3-.6,2.6-.8,3.7-1.2A3.9,3.9,0,0,0,91,127.5Z"/><path class="cls-8" d="M43.9,111.1s-1.1,10.6-1.1,25.3"/><path class="cls-9" d="M43.9,111.1v6.4c0,2.1-.1,4.2-.2,6.3l-.3,6.3c-.1,2.1-.3,4.2-.5,6.3-.1-1-.1-2.1-.2-3.1v-3.2c0-2.1,0-4.2.1-6.4s.2-4.2.4-6.3S43.5,113.2,43.9,111.1Z"/></g></svg>