<svg xmlns="http://www.w3.org/2000/svg" viewBox="0 0 84 66"><defs><style>.cls-1{fill:#be7a40;}.cls-2{fill:#d79b6b;}.cls-3{fill:#ae784a;}.cls-4{fill:#616261;}.cls-5{fill:#434343;}.cls-6{fill:#af8051;}.cls-7{fill:#212121;}.cls-8{fill:#3e2723;}.cls-9{fill:#fff;}.cls-10{fill:none;stroke:#8b6339;stroke-miterlimit:10;stroke-width:0.3px;}</style></defs><g id="Layer_59" data-name="Layer 59"><g id="Puppy_06_F01"><path class="cls-1" d="M28.1,23.8h0c-.2,0-.4,0-.5-.2a12.2,12.2,0,0,1-2.9-8.7A11.6,11.6,0,0,1,27.2,8a.5.5,0,0,1,.5-.3h0a.6.6,0,0,1,.5.9,13,13,0,0,0-2,6.3,12.2,12.2,0,0,0,2.4,8A.6.6,0,0,1,28.1,23.8Z"/><path class="cls-1" d="M58.2,18.7a2.3,2.3,0,0,1,1,.7l.4.3c.1.2.1.4.2.5l-.4-.2c.3.2,1,.9,1,1.3l-.4-.2c.4.9.7,1.7.5,1.7s-6-1.5-6-1.5l1.1-1.2a9,9,0,0,1,2-1.4Z"/><path class="cls-1" d="M28,31c.2-1.4,1.5-.9,2-4.3a11.4,11.4,0,0,0,0-3.2H40.4c-.7,5.4-4.9,6-9.2,9.5-.7.6-.8,2.6-.5,4.3.5,0,1.9.9.7,1.8a2.1,2.1,0,0,1-1.9.2C27.4,38.7,27.8,32.3,28,31Z"/><path class="cls-1" d="M49.5,40.8a50.5,50.5,0,0,1,.7,7.7c0,1.5.1,2.3,1,2.6a2.1,2.1,0,0,0,1.9-.2c1.2-.8.1-1.7-.4-1.7l.6-5.4.6-5.6.3-2.8-5.7-1.3S49.1,37.3,49.5,40.8Z"/><path class="cls-1" d="M50,41.2a3.2,3.2,0,0,0,.3.9c.3.6.5.5,1.1.5s-.2.9-.2,1.4a2.7,2.7,0,0,0,.9,0c.4,0,0,.8.1,1s.8-.3,1.1-.8l.6-5.6c-.7-.3-1.4.3-2,.6A4.1,4.1,0,0,0,50,40.7Z"/><path class="cls-2" d="M42.9,39.8a2.8,2.8,0,0,0,.4,1.3l.7,1.2c.9,2.3.6,5.3.3,7.7s.2,3,2.4,2.9-.1-1.5-.6-1.5l1.2-9.8.3-2.8-4.5-1h.1C43.2,38.5,42.9,39.3,42.9,39.8Z"/><path class="cls-2" d="M21.2,40.4v.4c.1,1.2.5,2.8,1.8,3.2a1.5,1.5,0,0,0,1.8-.2c1.2-.8-.1-1.8-.6-1.8s-.1-.4-.2-.6,0-3.2.6-3.7l.6-.5c2.1-1.7,4.3-2.7,5.9-4.1L32.2,32l.6-1,.3-.5a10.3,10.3,0,0,0,.8-3.9c0-.3-.1-.5-.1-.8L27,20.6l-.8-.5c-4.1,4.6-2.3,7.9-2.8,11.2a6.6,6.6,0,0,1-.8,2.6,10.6,10.6,0,0,0-1,1.2v.2a10.9,10.9,0,0,0-.4,2.5A22.6,22.6,0,0,0,21.2,40.4Z"/><path class="cls-2" d="M26.3,26.5c0,.1.1.2.1.3l.7,1a36.5,36.5,0,0,0,2.4,3.1l1.2,1.5.5.5a1.5,1.5,0,0,0,.4.9c.4.3.7.9,1.3,1.1h-.4l.8.9,1,.7.8.5h-.4a6.2,6.2,0,0,0,2.1,1.5c.4.2,1.1.7,1.6.6a2.4,2.4,0,0,1-1.2,0c.3.1.4.4.6.6a3.1,3.1,0,0,0,1,.5l2,.6,1.1.4h.5l.9.2a9.5,9.5,0,0,0,4,.6l1.1-.2H49c-.1.1,0,.2-.1.3l1.6-.4a4.8,4.8,0,0,0,1.1-.9c.2.1.1.2.1.3l.8-.2a1.8,1.8,0,0,0,.9-.6,2.7,2.7,0,0,0,1-1.1.9.9,0,0,1,0,.7c.2-.3.6-.5.8-.8a2.4,2.4,0,0,0,.6-1.1l.4-.9c.1,0,0,.1,0,.3l.6-.6a8.2,8.2,0,0,0,.9-1.9c0-.3.1-.6,0-.8a.7.7,0,0,1,.1.6,5.7,5.7,0,0,0,.8-2.3,5.3,5.3,0,0,0,.1-1.3.4.4,0,0,0,.1-.3,2.6,2.6,0,0,0,0-.9A5.3,5.3,0,0,0,62.3,32a2.4,2.4,0,0,0,1.6-1c1.1.6,1.4-.8,1.4-1.6s-2-2.7-2.2-3-.5-3.1-2.4-4.9l-.4-.3-.4-.2a5,5,0,0,0-2.6-.8c-6.2-.2-6.6,5.7-12,4.3-2.9-.7-11.7-7.8-17.1-5.8a4.6,4.6,0,0,0-2,1.4c-.6.6-.6,1.3-.8,2.4A7.8,7.8,0,0,0,26.3,26.5Z"/><path class="cls-3" d="M62.3,31.3a2.4,2.4,0,0,0,1.6-1,.8.8,0,0,0,1.1-.2,2.8,2.8,0,0,1-.1-.8,1.4,1.4,0,0,0-.6-1.5c-1.1-.7-1.9.1-1.8,1.5S63.2,30.6,62.3,31.3Z"/><path class="cls-4" d="M64.7,28.3s-2-1.7-2.1,1Z"/><path class="cls-1" d="M23.6,33.4l-1.1.2a5.1,5.1,0,0,0,.9-2.6c.5-3.2-1.3-6.5,2.8-10.9S42,23.7,45.3,24.4c5.4,1.4,5.8-4.4,12-4.2a4.8,4.8,0,0,1,2.6.7.5.5,0,0,0,.4.2l.4.4c1.9,1.7,1.7,3.4,2.4,4.8a1.9,1.9,0,0,1-2.1-2c0-1.6-1.6-2.1-2-.9s1.1,1.1,1.4,2.5-1,3-2.5,3a13,13,0,0,1-4.6-1.3,4,4,0,0,0-2.4-.3l-.7.7a4.3,4.3,0,0,0-1,.9,3.3,3.3,0,0,0-.7,1.6,2.8,2.8,0,0,1-.4-1.2c0,.7-.6,1.5-.6,2.3s.2,1.4.2,2.1a1.2,1.2,0,0,1-.5-.5,6,6,0,0,1,.1,2.3c-.1.5-.4,1.5-.9,1.7v-.6c-.1.6-1,1-1.6,1.2l-1.1.3-1.2-.2a.8.8,0,0,0,.2-.4c-.2.2-.8,0-1,0H40.5a3.3,3.3,0,0,1-2.3-1,1.1,1.1,0,0,0,.8-.3c-.3-.3-.8-.3-1.1-.6a3.1,3.1,0,0,1-1.2-1.6c0,.1.1.1.2.1s-.3-.3-.3-.4a6,6,0,0,0-.8-.8c-.2-.2-.9-1.1-1.2-.7s.5-.3.7-.3-.4-.7-.7-1A3.1,3.1,0,0,0,33,29.7a.5.5,0,0,1,.5-.3l-.6-.4-1-.4c-.6,0-1.3-.1-1.7.4s0-.5.2-.6a3.1,3.1,0,0,0-1.5,1,3.5,3.5,0,0,0-.5.8c-.2.3-.3.7-.6.9s.1-.6.1-.8-.8,1.4-1.2,1.9-1.1,1.1-1.6.9a.3.3,0,0,1,.1-.2c-.4.3-1.3,1.2-1.9.8Z"/><path class="cls-5" d="M64.8,28.4a2,2,0,0,1-1,1.6c-.6.2-.9,0-1.2-.6S64.8,27.7,64.8,28.4Z"/><path class="cls-6" d="M61.7,25.3a1.4,1.4,0,0,1-.4-1.1c.1-.5,1,.3,1,.3Z"/><path class="cls-6" d="M59.1,26.5a.5.5,0,0,0,.2-.8.5.5,0,0,0-.6-.1,1.5,1.5,0,0,0-.3.7Z"/><path class="cls-7" d="M59.3,26.1a.7.7,0,0,0-.6-.4c-.4,0-.3.5-.4.6S58.9,26.7,59.3,26.1Z"/><path class="cls-8" d="M58.5,26.1a.3.3,0,0,0,.3.3c.2,0,.3-.2.3-.4s-.2-.2-.3-.2A.3.3,0,0,0,58.5,26.1Z"/><path class="cls-7" d="M58.6,26.1l.2.2.2-.2a.2.2,0,0,0-.4,0Z"/><path class="cls-9" d="M58.5,26.1h.2c0-.1,0-.1-.1-.1Z"/><path class="cls-7" d="M61.7,24.8a.4.4,0,0,0,.1.3h.4c.2-.1.2-.4.2-.4a.5.5,0,0,0-.6-.1C61.7,24.6,61.7,24.8,61.7,24.8Z"/><path class="cls-8" d="M62.2,24.8c0,.1,0,.3-.2.3s-.3-.2-.3-.4A.3.3,0,0,1,62.2,24.8Z"/><path class="cls-7" d="M62.1,24.8c0,.1,0,.2-.1.2a.2.2,0,0,1-.2-.2C61.9,24.7,62.1,24.6,62.1,24.8Z"/><path class="cls-9" d="M61.7,24.9a.1.1,0,1,0,.2,0h-.2Z"/><path class="cls-2" d="M42,41.1c0,.4-.4.7-.4,1h.7c-.1.4-.3.3-.1.6a2.4,2.4,0,0,1,.6.8,66.4,66.4,0,0,1,.6,7.4c0,1,.3,2,1.2,2.2a2.1,2.1,0,0,0,1.9-.1h.2c-2.2.1-2.6-1.1-2.4-2.9s.6-5.4-.3-7.7l-.7-1.2a2.8,2.8,0,0,1-.4-1.3c0-.5.3-1.3.3-1.9h-.1L42,37.6s.1,1.1.3,2.8l-.2.2-.2.2a1.5,1.5,0,0,0-.5.6C41.6,41.3,41.8,41.1,42,41.1Z"/><path class="cls-1" d="M50.6,24.3c4.2-2.8,6.9-1,6.3.5s.3,1.1-.4,2.2-.3.4-.4.7l-.3.9a2.1,2.1,0,0,1-.6,1,.9.9,0,0,0,.1-.5,2.3,2.3,0,0,0-.3,1.1c.1.5.2,1.3-.5,1.4a3.3,3.3,0,0,1-2.1-.9c-1.2-1-1.3-2.7-1.9-4.1S49.8,24.8,50.6,24.3Z"/><path class="cls-10" d="M21.2,37.8a10.9,10.9,0,0,1,.4-2.5v-.2a10.6,10.6,0,0,1,1-1.2c0-.1.1-.2.2-.3h-.3a5.1,5.1,0,0,0,.9-2.6c.5-3.1-1.2-6.2,2.3-10.4a12.1,12.1,0,0,1-1-5.7A11.6,11.6,0,0,1,27.2,8a.5.5,0,0,1,.5-.3h0a.6.6,0,0,1,.5.9,13,13,0,0,0-2,6.3,13.2,13.2,0,0,0,.6,4.6,3.3,3.3,0,0,1,1.3-.7h3.2c5.2.6,11.6,5.5,14,6,4.8,1.2,5.7-3.3,10.2-4.1v-.2a9,9,0,0,1,2-1.4h.6a2.3,2.3,0,0,1,1,.7l.4.3c.1.2.1.4.2.5l-.4-.2c.3.2,1,.9,1,1.3l.3.2c1.9,1.7,1.7,3.4,2.4,4.8h0L64.6,28a.3.3,0,0,0,.1.2,3.4,3.4,0,0,1,.6,1.2c0,.8-.3,2.2-1.4,1.6a2.4,2.4,0,0,1-1.6,1,5.3,5.3,0,0,1-3.5-1.8,2.6,2.6,0,0,1,0,.9.4.4,0,0,1-.1.3,5.3,5.3,0,0,1-.1,1.3,5.7,5.7,0,0,1-.8,2.3.7.7,0,0,0-.1-.6c.1.2,0,.5,0,.8a8.2,8.2,0,0,1-.9,1.9l-.6.6c0-.2.1-.3,0-.3l-.4.9a2.4,2.4,0,0,1-.6,1.1c-.2.3-.6.5-.8.8a.9.9,0,0,0,0-.7l-.7.9-.4,3.8h-.1l-.5,5c.5,0,1.6.9.4,1.7a2.1,2.1,0,0,1-1.9.2c-.9-.3-1-1.1-1-2.6a41.1,41.1,0,0,0-.5-6.3l-.8.2c.1-.1,0-.2.1-.3h-.6l-1.1.2h-.1l-1.1,9c.5,0,1.5.7.6,1.5h-.2a2.1,2.1,0,0,1-1.9.1c-.9-.2-1.2-1.2-1.2-2.2a66.4,66.4,0,0,0-.6-7.4,2.4,2.4,0,0,0-.6-.8c-.2-.3,0-.2.1-.6h-.7c0-.2.2-.4.3-.6l-.4-.2h-.1l-.6-.2-2-.6a3.1,3.1,0,0,1-1-.5c-.2-.2-.3-.5-.6-.6a2.4,2.4,0,0,0,1.2,0c-.5.1-1.2-.4-1.6-.6a6.2,6.2,0,0,1-2.1-1.5h.4l-.8-.5-1-.7-.8-.9h.4c-.6-.2-.9-.8-1.3-1.1a3,3,0,0,1-.4-.8.1.1,0,0,0-.1.1h0c-.6.6-.7,2.6-.4,4.2.5,0,1.9.9.7,1.8a2.1,2.1,0,0,1-1.9.2c-1.1-.4-1.5-2.1-1.6-4l-2.7,1.9-.6.5c-.6.5-.8,2.2-.6,3.7s.1.4.2.6,1.8,1,.6,1.8A1.5,1.5,0,0,1,23,44c-1.3-.4-1.7-2-1.8-3.2v-.4A22.6,22.6,0,0,1,21.2,37.8Z"/></g></g></svg>