<svg xmlns="http://www.w3.org/2000/svg" viewBox="0 0 84 66"><defs><style>.cls-1,.cls-10,.cls-17{fill:#f5b46d;}.cls-1,.cls-2,.cls-6,.cls-8{stroke:#f4b46d;stroke-width:0.3px;}.cls-1,.cls-15,.cls-17,.cls-2,.cls-6,.cls-8{stroke-miterlimit:10;}.cls-2,.cls-5{fill:#f68e1e;}.cls-3{fill:#f47f20;}.cls-4{fill:#fff8e1;}.cls-15,.cls-6,.cls-7{fill:#f9a528;}.cls-8{fill:#ffdfad;}.cls-9{fill:#fbcea1;}.cls-11{fill:#eae0ce;}.cls-12{fill:#87bbbe;}.cls-13{fill:#424243;}.cls-14{fill:#fff;}.cls-15{stroke:#f37c20;}.cls-15,.cls-17{stroke-width:0.1px;}.cls-16{fill:#f37c20;}.cls-17{stroke:#fbcea1;}</style></defs><g id="Layer_71" data-name="Layer 71"><g id="Duck_poses_08_F_02_" data-name="Duck poses 08 ( F 02 )"><path class="cls-1" d="M27.4,30.5c5.9-1.5,14.1-1.8,15.3-.3s-4.2,6.8-8.8,6a19.6,19.6,0,0,1-6.2-2c-1.1-.7-.3-1.3-.3-1.3s-1.5-.9-.7-1C25.6,31.5,25.5,31,27.4,30.5Z"/><path class="cls-2" d="M35.8,47.4c-.3.5.1.8,0,1.4a24.8,24.8,0,0,1-.3,2.7c-.1.2.1.4.3.4h0a2.8,2.8,0,0,1,2.2.3h.3a1.5,1.5,0,0,1,1.6-.6h.2a.6.6,0,0,0,.1-.4h-.1a9.1,9.1,0,0,0-1.8-2.1C37,48,37,48,37,47.8a31.1,31.1,0,0,1,2.2-4l-1-.5a8.6,8.6,0,0,0-1.4,1.8A9.4,9.4,0,0,1,35.8,47.4Z"/><path class="cls-3" d="M38.5,51.9l-.2.4a1.5,1.5,0,0,1,1.6-.6h.2l-.5-.2s-2-2.7-2.4-2.7S38.5,51.9,38.5,51.9Z"/><path class="cls-3" d="M35.8,51.9a2.8,2.8,0,0,1,2.2.3V52s-1-3.3-1.4-3.4-.5,2.4-.6,3.1S35.9,51.9,35.8,51.9Z"/><path class="cls-4" d="M38.3,52.8s.5-1.1-.2-1S38.3,52.2,38.3,52.8Z"/><path class="cls-4" d="M35.6,52.6s.8-.9.1-1S35.8,52,35.6,52.6Z"/><path class="cls-4" d="M40.2,52.3s.3-1.2-.3-1S40.1,51.7,40.2,52.3Z"/><path class="cls-5" d="M36.6,46.6s-1.1.5-1.1.1,1.3-.6,1.3-.6Z"/><path class="cls-6" d="M39.5,45.8l.4.5.3.5.3.6.3.6c.2.6.7.4,1.1.8a18,18,0,0,1,1.9,2,.4.4,0,0,0,.5,0h.1a.1.1,0,0,1,.1-.1c0-.1.1-.2.1-.3h.1c0-.1.1-.1.2-.2l.4-.4h.1c0-.1,0-.1.1-.1l.3-.2h.4a.6.6,0,0,1-.1-.4v-.2c0-.1.1-.1.1-.2h.1l.3-.4h.2c0-.1-.1-.3-.2-.3h-.1a12.7,12.7,0,0,0-2.8.2c-1.7.3-1.7.3-1.9.1a12.4,12.4,0,0,1-1-2c-.2-.6-.5-1.2-.6-1.6l-.2-.5-1,.4a2.1,2.1,0,0,0,.1.6A4.7,4.7,0,0,0,39.5,45.8Z"/><path class="cls-5" d="M46,48.6l.2.3a1.4,1.4,0,0,1,.5-1.6h.1c-.1-.1-.4.2-.5.2s-3.3,0-3.6.3S46,48.6,46,48.6Z"/><path class="cls-5" d="M44.4,50.7A2.8,2.8,0,0,1,46,49.1h-.3s-3.3-1.2-3.5-1,1.6,1.9,2.1,2.4S44.4,50.6,44.4,50.7Z"/><path class="cls-4" d="M46.6,49.3s-.6-1.1-.9-.5S46.1,48.9,46.6,49.3Z"/><path class="cls-4" d="M44.8,51.3s-.3-1.2-.8-.7S44.4,50.8,44.8,51.3Z"/><path class="cls-4" d="M47.4,47.4s-.8-.9-1.1-.3S46.8,47.2,47.4,47.4Z"/><path class="cls-7" d="M40.6,46.9s-.2,1.1-.5.9.2-1.4.2-1.4Z"/><path class="cls-5" d="M39.5,45.8l.4.5.3-.2a2,2,0,0,0,.6-.9c-.2-.6-.5-1.2-.6-1.6l-1.1.5A4.7,4.7,0,0,0,39.5,45.8Z"/><path class="cls-8" d="M31.4,32.7a27,27,0,0,1-8.5-.8c-.9-.3-1.2.4-.6,1.2s2.6,1.7,5.1,2.3S31.4,32.7,31.4,32.7Z"/><path class="cls-9" d="M22.6,32.8s-.8.1-.8.6,2.6,2.2,5.5,2.6S23.4,32.3,22.6,32.8Z"/><path class="cls-10" d="M22.5,33.8s-.4.7.1,1.1,3.5,2.9,3.5,2.9l.2-1.9Z"/><path class="cls-8" d="M43.4,27.6c.1,3.4-3.8,1.9-4.8,2.4s-.7-.3-3.6,0-9.4,2.6-9.6,4.2a8.4,8.4,0,0,0,.4,3.5c1.5,4.5,6.8,7.8,8.4,8s7.6-1.8,11.4-4.3a6.3,6.3,0,0,0,3-3.4c1-4.5.1-5.6-.5-8.8"/><path class="cls-9" d="M25.9,37.5c1.6,4.7,7,8,8.6,8.2s7.8-2,11.7-4.6c-2.9,1-8.8,3.6-13.4,2.1S28.4,38,25.9,37.5Z"/><path class="cls-9" d="M42.6,21.5c-.3.4.4,5.4.4,6.1a2.4,2.4,0,0,1-1.6,2,19.4,19.4,0,0,0-4.8.3c1.3-.1,6.2,2.3,7.6.5S42.4,21.5,42.6,21.5Z"/><path class="cls-8" d="M44.2,30.4c-.8-4.3-1.6-7.1-2.3-10.8a5.7,5.7,0,0,1,.4-2.9c.8-1.5,3.1-2.2,5.2-1.5s2.7,3.9,2.7,4.2-.3-1.5-1.1-1.2.6,1.8-1.2,2.9c0-.3.2.2.3.3-1.9.7-3.3-.7-3.5-.4s2.4,2.9,3.3,1.7a16.4,16.4,0,0,0-.2,2.2,80.1,80.1,0,0,0,1,8.4c0,.5.1.9.1,1.4M46.6,18.4c.4-.5-.4-1.3-1-.7S46.3,18.8,46.6,18.4Z"/><path class="cls-11" d="M48.5,21.9a1.6,1.6,0,0,0-.4.7H48a2.2,2.2,0,0,1,.5-.8Z"/><path class="cls-9" d="M44.7,21c.2-.3,1.6,1.1,3.5.4l.6.3a3.9,3.9,0,0,0-.8,1C47.1,23.9,44.4,21.3,44.7,21Z"/><path class="cls-7" d="M48.7,21.7l-.2.2h0Z"/><path class="cls-7" d="M46.6,18.4c-.3.4-1.5-.2-1-.7S47,17.9,46.6,18.4Zm-.1-.1a.3.3,0,0,0,0-.4h0a.4.4,0,0,0-.6-.3h-.2c-.3.5.5.9.8.6Z"/><path class="cls-12" d="M46.5,17.9h-.3c-.1-.1-.2,0-.3.1s.3.4.4.3h.3a.1.1,0,0,0-.1-.1.3.3,0,0,1,0,.4c-.3.3-1.1-.1-.8-.6h.7Z"/><path class="cls-13" d="M46.2,18c0,.1,0,.1.2.1h-.1c-.1.1-.6-.1-.4-.3s.2-.2.3-.1Z"/><path class="cls-14" d="M46.5,17.9Z"/><path class="cls-14" d="M46.4,18.1h0c0-.1,0-.2-.2-.3h.3a.1.1,0,0,1,.1.1Z"/><path class="cls-14" d="M46.4,18.1c-.2,0-.2,0-.2-.1v-.2c.2.1.2.2.2.3Z"/><path class="cls-9" d="M41.9,29.4c.3-.2,1.4-1.2.9-3.7a31,31,0,0,1-.9-6.1A53.8,53.8,0,0,1,44.2,30Z"/><path class="cls-15" d="M48.7,17.7c.7-.3,1.3.7,1.4.8h0a5.1,5.1,0,0,0,.7,1.5c.8,1.2,2.6,1.2,2,1.7s-2.8.5-4.1-.5v.2h-.2l-.4-.4-.3-.2C49.1,20,47.8,18.2,48.7,17.7Z"/><path class="cls-16" d="M49.8,20.3c-.1.1-1-.6-.7-.9S50.1,20,49.8,20.3Z"/><path class="cls-16" d="M48,20.7a4.5,4.5,0,0,0,3.6,1.4s-2.8.7-3.9-1.1Z"/><path class="cls-17" d="M29,36.1c5-3.4,12.6-6.7,14.2-5.7s-1.5,7.8-6.2,8.8a19.7,19.7,0,0,1-6.4.2c-1.3-.2-.7-1.1-.7-1.1s-1.8-.2-1.1-.7C27.7,37.7,27.4,37.2,29,36.1Z"/></g></g></svg>