<svg xmlns="http://www.w3.org/2000/svg" viewBox="0 0 54 35"><defs><style>.cls-1{fill:#ee7373;}.cls-2{fill:#5d1222;}.cls-3{fill:#f7f2f3;}</style></defs><g id="EE"><path class="cls-1" d="M6.1,8.6s6.2,18.5,19.7,18.3C40.9,26.7,45.9,8.5,45.9,8.5S32.1,20.1,6.1,8.6Z"/><path class="cls-2" d="M6.9,8.9s9.3,16,20.8,15.5C36.9,24,44.5,10,44.5,10S31.7,20,6.9,8.9Z"/><path class="cls-3" d="M12.2,11s-.9,7.2,15.5,7c0,0,12.8-.3,11.8-5.8C39.5,12.2,28.7,16.7,12.2,11Z"/><path class="cls-1" d="M6.3,8.5s.2.8.6,1c10.9,7,30.7,9.1,39-1,0,0-6.2,4.7-17,4.9S6.3,8.5,6.3,8.5Z"/><path class="cls-1" d="M20.5,20.8a7.3,7.3,0,0,1,5.9-.8s2.9-1.6,7.4.9A11.2,11.2,0,0,1,20.5,20.8Z"/><path class="cls-3" d="M17.4,20.8l2.3-.2c.5-.1,3.1,1.6,7.7,1.2s6.5-2.6,7.2-2.3l2,.6a15.3,15.3,0,0,1-9.4,4.3A12.8,12.8,0,0,1,17.4,20.8Z"/></g></svg>