<svg xmlns="http://www.w3.org/2000/svg" xmlns:xlink="http://www.w3.org/1999/xlink" viewBox="0 0 84 66"><defs><style>.cls-1{fill:none;}.cls-2,.cls-8{fill:#dfb784;}.cls-2,.cls-5,.cls-6{stroke:#dfb784;stroke-miterlimit:10;stroke-width:0.3px;}.cls-3{fill:#877d71;}.cls-4{fill:#6c5f4e;}.cls-5{fill:#cda377;}.cls-6,.cls-7{fill:#fbd9ac;}.cls-9{fill:#68553f;}.cls-10{opacity:0.39;}.cls-11{clip-path:url(#clip-path);}.cls-12{fill:#fff;}</style><clipPath id="clip-path"><rect id="SVGID" class="cls-1" x="21.1" y="7.1" width="0.6" height="0.55"/></clipPath></defs><g id="Layer_5" data-name="Layer 5"><g id="GoatF01_P04"><path class="cls-2" d="M33.8,9.3c-5.3,2.1-3.7-2.5-6.4-3.2s-.5-1.6.7-1.8c3.7-.6,4,3,6.2,4.1.6.4.2.6-.5.9"/><path class="cls-3" d="M60.7,59.6l.3.8a2.6,2.6,0,0,0,3.4.8l-.5-.7-.2-.2c-.6-1.5-1.5-1.5-2.3-1.2l.2.4Z"/><path class="cls-4" d="M60.7,59.6l.3.8,1.2.4a3.2,3.2,0,0,0,1.7-.3l-.2-.2c-.6-1.5-1.5-1.5-2.3-1.2l.2.4Z"/><path class="cls-5" d="M62.6,59.4c-.2.6.2,1.6,1.8,1.8.4-1.3,1.1-.7,1.6-1.4a16.2,16.2,0,0,0,.8-2.7,8.5,8.5,0,0,1,1.6-2.9c2.4-2.4-1.1-2.8.9-9.3A21.7,21.7,0,0,0,70.5,36a15.3,15.3,0,0,0-1.7-6.4c-.6-.8-1.3-.6-2.1.5A15,15,0,0,0,64.6,36c-2.2,11.4.6,13.3,1,16.7a8.4,8.4,0,0,1-1.2,4.1c-.7,1.5-1.5,1.7-1.8,2.6"/><path class="cls-3" d="M54.3,56.4l1.1.3a2.6,2.6,0,0,1-3.9,1.1l.7-.6-.5-.2c.4-.8,1.2-1.4,2.6-.6"/><path class="cls-4" d="M51.5,57.8l.8.4a2.2,2.2,0,0,0,1.1-.5,3.4,3.4,0,0,0,1.2-1.2h-.3c-1.5-.8-2.2-.2-2.6.6l.5.2Z"/><path class="cls-3" d="M20.9,37.8v1.1a2.4,2.4,0,0,1-2-3.4l.8.5v-.5c.8.2,1.6.7,1.2,2.3"/><path class="cls-4" d="M18.9,35.5a1.5,1.5,0,0,0-.2.9,2,2,0,0,0,.7.9,3.7,3.7,0,0,0,1.5.8v-.3c.4-1.6-.4-2.1-1.2-2.3V36Z"/><path class="cls-5" d="M36.8,23.4a77.3,77.3,0,0,0-6.3,6.1A38.2,38.2,0,0,0,27.8,33c-.9.9-.9.1-2.1,1.5s-1.9,2.7-2.5,3.1-.8,0-1.2.3-.1.9-1.1,1a2.7,2.7,0,0,1-1.1-2,1.1,1.1,0,0,1,.8-.8,3.4,3.4,0,0,0,1.2-.6A16.3,16.3,0,0,0,25.3,31c.3-.6,0-1,.5-1.8s1.1-.8,1.6-1.5c3.1-4.6,6.3-9.6,6.3-9.6Z"/><path class="cls-3" d="M29.5,46l.8.8a2.6,2.6,0,0,1-3.9-1.2h1a1.4,1.4,0,0,1-.3-.5,1.6,1.6,0,0,1,2.4,1"/><path class="cls-4" d="M26.4,45.6a2.2,2.2,0,0,0,.5.8,2.2,2.2,0,0,0,1.2.2,2.9,2.9,0,0,0,1.6-.4l-.2-.2a1.6,1.6,0,0,0-2.4-1,1.4,1.4,0,0,0,.3.5Z"/><path class="cls-6" d="M27.7,34.1c.1.9-.3,1.5-.2,2.2s.6,1,.8,1.7a15.5,15.5,0,0,1,.3,5.6,2.5,2.5,0,0,1-.4,1.3.9.9,0,0,0-.1,1.1c.6.9,2.2.8,2.2.8s0-.8.1-1.5.5-.3.7-1-.2-1.2-.2-3.9.5-1.3.6-2.6-.3-2-.2-4.4h0c0-1.1,0-2.1.1-3.1s.2-2.1.2-2.9.3-2.6.3-2.6l-1-.4-1.7-.6-2.7-2.4v.3l1.2,12.5"/><path class="cls-6" d="M17.2,9.9c-.1,1.3,1.7,2.3,2.6,2.5a11.6,11.6,0,0,0,3.5-.5c.6.6,1.2,2.5,1.8,4.7s.9,3.3,1.4,5,2,5.5,3.5,7.1l1.4,1.5C37.8,36.3,48,40.6,55.2,41.1c.4,3.9,1,4,2.1,7.6s-2.2,4.3-3.7,5.8-.7,1.1-.5,1.4a2.4,2.4,0,0,0,.9.8c.3.1,1.3.5,1.9-.2s.4-1.6,1.1-2,3.2-1.5,3.7-2.1c2.1-2.6-1.5-1.1,1.7-7.1,4.5-8.2,7.2-16.4,4.8-19.9S57,20.9,50.5,19.7C41.8,18.1,33.4,12,31.6,9.5A27.5,27.5,0,0,1,30.1,7C29,5,27.8,3.1,25.8,3.3s-7.7,3.8-8.5,6.2v.4"/><path class="cls-7" d="M65.2,26.1a21.2,21.2,0,0,0,1.2,4.5c.3.5.3.6.8.7s1.5-.2,2.4.3a14.6,14.6,0,0,0-2.4-6.2c-.6-.7-1.4-.4-2,.7"/><path class="cls-8" d="M66.6,33.1a16.6,16.6,0,0,1-.7,4.9,7.4,7.4,0,0,0,2.5-5,5.1,5.1,0,0,0-.7-2.5,2.8,2.8,0,0,0-1.1,2.6"/><path class="cls-8" d="M31.3,29.7a1.1,1.1,0,0,1,.1.5C37.8,36.3,48,40.6,55.2,41.1c-.6-4.6,1.6-5.6.8-7.2s-4.5,4.2-11.8,1.7-10.7-8.9-11.7-9.7-1.2,3.8-1.2,3.8"/><path class="cls-6" d="M73.4,32.6h.5c-.8.4-2.4.9-3.7-1.4l-.6-.5a6.2,6.2,0,0,0-2.9-.6c-1,.1-.1-1.4.5-1.5a5.5,5.5,0,0,0,3-1.6c-.1.2,0,.4,0,.6a1.8,1.8,0,0,1,1.7-.4c-.2,0-.3.2-.4.4A1.7,1.7,0,0,1,73.1,29h-.7c.1.6.2,2.1.9,2.3s-.6,0-.6,0,.8,1.1,2,.8a3.7,3.7,0,0,1-1.3.6"/><path class="cls-4" d="M28.3,4.7l-.6-.4c-1-.5-.4-1.2.6-1.8a.5.5,0,0,1,.8.6c0,.8-.2,1.9-.8,1.6"/><path class="cls-4" d="M26.7,6.3,26,6c-1-.6-.3-1.3.7-1.8a.5.5,0,0,1,.8.5c-.1.9-.3,1.9-.8,1.6"/><path class="cls-2" d="M22.6,14.8c5.4-2.1,1.1-4.4,2.5-6.8s-.6-1.4-1.7-.7c-3.1,2-.9,4.8-1.7,7.1-.2.7.2.6.9.4"/><path class="cls-9" d="M17.2,9.9a3.4,3.4,0,0,0,.6.6c.1,0,.2-.1.1-.2l-.6-.8v.4"/><path class="cls-9" d="M22.4,7.1c0,.2-.3.5-.7.6a.7.7,0,0,1-.8-.2c0-.2.3-.4.7-.5s.7-.1.8.1"/><g class="cls-10"><g class="cls-11"><path class="cls-12" d="M21.1,7.3a.3.3,0,0,0,.3.3.3.3,0,0,0,.3-.3l-.3-.2c-.2,0-.3.1-.3.2"/></g></g></g></g></svg>