<svg xmlns="http://www.w3.org/2000/svg" viewBox="0 0 349 339"><defs><style>.cls-1{fill:#f0b3a4;stroke:#593129;}.cls-1,.cls-2{stroke-miterlimit:10;}.cls-2{fill:#ee4241;stroke:#cb2f2f;stroke-width:2px;}</style></defs><g id="hand_03"><path class="cls-1" d="M96.1,206c20.2,20.9,76.5,78.4,89.8,82.7,16.2,5.3,81.5,20.6,125.8,28.9l-14.2-65.8s-70.2-14.3-91-13.1c-9.6-11.9-68.9-50.7-85.9-65.1"/><path class="cls-1" d="M121.2,174.6c.6-3,.8-8.7-2.8-17.4-2.3-5.6-9.1-14-12.6-24.1a60.8,60.8,0,0,1-1.9-7.1c-.6-1.9-2.9-1.7-5.7.5s-3.8,7.4-2.7,10.5c0,0,6.1,15.5,3.3,17s-10.3-4.1-10.3-4.1c-5.9-4.6-12.8-10.8-12.8-10.8l-25-23a5.9,5.9,0,0,0-8,1.9c-1.6,2.7-.3,7,2.4,8.6L66,148a1.4,1.4,0,0,1,.2,2c-.3.7-.9,1.6-2.2,1L32.1,131.1a5.9,5.9,0,0,0-8.1,1.7,5.6,5.6,0,0,0,1.9,7.9l32.9,21.5c1.3.8,1,3-.7,2.5L25.7,153.6a5.4,5.4,0,0,0-7.5,1.7,5.5,5.5,0,0,0,1.8,7.6l35.9,15.6c1.9,1.2,1.1,3-.3,2.3h0l-25.3-2.4c-3.2-.6-6.5-.4-7.3,2.4s.3,4.6,3.1,5.9l29.1,7.6c23,18.1,41.7,15.7,41.7,15.7a56.2,56.2,0,0,0,9.6-1.9"/><path class="cls-2" d="M220.2,237c2,6.6,9.2,33.8,2.7,68.7a3.2,3.2,0,0,0,2.6,3.6l79.4,11.8c.8.1.8-.9,1.4-1.4,17.3-14.7,18-65.2-15.4-79-10.8-4.5-59.7-5.8-69.5-5.3A1.2,1.2,0,0,0,220.2,237Z"/></g></svg>