<svg xmlns="http://www.w3.org/2000/svg" viewBox="0 0 84 66"><defs><style>.cls-1,.cls-2,.cls-4{fill:#ebb146;}.cls-1,.cls-4{stroke:#d28e3a;stroke-miterlimit:10;}.cls-1{stroke-width:0.3px;}.cls-3{fill:#d28e3a;}.cls-4{stroke-width:0.28px;}.cls-5{fill:#a86828;}.cls-6{fill:#ffd69a;}.cls-7{fill:#a33322;}</style></defs><g id="Layer_50" data-name="Layer 50"><path class="cls-1" d="M78.5,17.8l-.3.3c-1.1,1.6-3.3,4.6-5.2,4.6s-2.3-1.1-3.3-3.1S67.1,9,65.3,6.4c0,0-3.7-7-14-2.5,0,0-3.3,1.4-4.4,2.9,0,0-7.7,7-12.5,8.4,0,0-2.6.4-5.9,4.1l-4.4,4s-1.1-5.1-7.7-4.8A3.3,3.3,0,0,0,15,14.8a3.5,3.5,0,0,0-4.5.9,5.9,5.9,0,0,0-.5,3.4,5.1,5.1,0,0,0,1.3,2.7l-.7.9L9.2,24.4a1.6,1.6,0,0,0-.4,1.1,4.6,4.6,0,0,0,.3,2.6,6.3,6.3,0,0,1-.6,4.3c-.3.6-.9,1.3-.7,2.2a1.6,1.6,0,0,0,.6,1.2,2.8,2.8,0,0,0,.3,1.5A4.1,4.1,0,0,0,14,38.7c1.3-.7,2.1-2.1,3.1-3.1A3.6,3.6,0,0,1,21.2,38s1.1,7.7,1.8,9.2a23.4,23.4,0,0,1,.8,4.4s-4.4,1.1-3,3.6a1.7,1.7,0,0,0,1.1,1.5,2.5,2.5,0,0,0,2.6.7s3.7-.7,4.4-3.3c0,0,.7-6.6.4-9.1l.7.3a15.9,15.9,0,0,0,.7,2q.8,1.8,1.5,3.3a20.6,20.6,0,0,1,.3,2.6,17.7,17.7,0,0,1,0,4,4.3,4.3,0,0,0-1.9,1.1,5.1,5.1,0,0,0-1.3,2.1,1.9,1.9,0,0,0,1.4,1.8,2.6,2.6,0,0,0,2.6.8s4.1-1.5,4.4-4.5a3.7,3.7,0,0,0,.1-1.1,4.3,4.3,0,0,0-.5-1.6c.3-1.6.6-3.2.8-4.9a48.6,48.6,0,0,0,.3-11.3,11.6,11.6,0,0,1,2.1-2.5,18.2,18.2,0,0,1,5.3-3.9s7-4,8.1-8.4a15.4,15.4,0,0,1,1.4,7,2.9,2.9,0,0,0-3.6,1.8,1.5,1.5,0,0,0,.7,1.8s0,1.9,2.9.8c0,0,4.4-1.5,4.1-4.1a23.4,23.4,0,0,0,0-4.8,9.2,9.2,0,0,0,2.9,3.3s.4,3.7,0,4.8-3.3,1.1-2.9,3.3a1.7,1.7,0,0,0,1.4,1.5,1.7,1.7,0,0,0,1.5.7,3.8,3.8,0,0,0,4.4-4.6c.2-1.4.4-3,.5-4.6a49.7,49.7,0,0,0,.2-5.3l-1.1-1.1a5.1,5.1,0,0,1-1-3.5s1.1-5.5.7-8v-.2a11.6,11.6,0,0,1,.6,1.5c1.6,4.5,3,8.5,5.8,9.3s4.7-1.2,5.8-2.6,1.8-2.1,1.1-3.3A1.3,1.3,0,0,0,78.5,17.8Z"/><path class="cls-2" d="M17,35.5s5.2.3,6-2.8a10.1,10.1,0,0,1,2.5-4.6"/><path class="cls-3" d="M17,35.5a10.3,10.3,0,0,0,3.5-.6A4.6,4.6,0,0,0,22,34a2.8,2.8,0,0,0,.9-1.4h0a7.2,7.2,0,0,1,1-2.4,8.3,8.3,0,0,1,1.6-2.1A10.7,10.7,0,0,0,24,30.3a8.5,8.5,0,0,0-.9,2.4h0a2.9,2.9,0,0,1-.9,1.5,4.3,4.3,0,0,1-1.6.9A8.9,8.9,0,0,1,17,35.5Z"/><path class="cls-2" d="M23.5,28c2.2,1.3,4.7,1.2,6.1-.1a4.1,4.1,0,0,0,1.3-2.4,4.1,4.1,0,0,0-1.4-2.8c-1.5-1.2-4.1-.9-6,.9"/><path class="cls-3" d="M23.5,28a5.5,5.5,0,0,0,4.5.6,3.7,3.7,0,0,0,1.8-1.1,4,4,0,0,0,.9-2.1h0a3.5,3.5,0,0,0-.8-2.2,2.9,2.9,0,0,0-2-1.1,5.3,5.3,0,0,0-4.4,1.4A5.8,5.8,0,0,1,28,21.9a3.5,3.5,0,0,1,2.1,1.2,4.2,4.2,0,0,1,.9,2.4h0a3.5,3.5,0,0,1-1,2.1,3.2,3.2,0,0,1-2,1.2,5.9,5.9,0,0,1-2.3.1A8.5,8.5,0,0,1,23.5,28Z"/><path class="cls-2" d="M25.2,24.8a2.7,2.7,0,0,1,3.3-.5,2.2,2.2,0,0,1,.7,1.5,2.1,2.1,0,0,1-.7,1.4,2.8,2.8,0,0,1-3.3,0"/><path class="cls-3" d="M25.2,24.8a3.1,3.1,0,0,1,2.4-1,2.1,2.1,0,0,1,1.3.7,3.5,3.5,0,0,1,.5,1.3h0a3.4,3.4,0,0,1-.6,1.2,2.4,2.4,0,0,1-1.1.6,3.1,3.1,0,0,1-2.5-.5,2.9,2.9,0,0,0,2.4.3,1.7,1.7,0,0,0,1-.6,2.2,2.2,0,0,0,.5-1.1h0a2.1,2.1,0,0,0-.4-1.1,1.4,1.4,0,0,0-1.1-.6A2.8,2.8,0,0,0,25.2,24.8Z"/><path class="cls-4" d="M20,36.3s6.2,7.2,10,9"/><path class="cls-2" d="M29,42.7s1.8,5.1,2.4,6.4"/><path class="cls-3" d="M29,42.7c.5,1.1,1,2.1,1.4,3.2l1.1,3.2h-.2L30.1,46C29.7,44.9,29.4,43.8,29,42.7Z"/><path class="cls-2" d="M38.4,39.6a16.6,16.6,0,0,0-.5-2.8,8.1,8.1,0,0,1-.4-2.5"/><path class="cls-3" d="M38.3,39.6c-.1-.4-.1-.9-.2-1.4l-.3-1.3h0a5.8,5.8,0,0,1-.3-2.6h0a11.1,11.1,0,0,0,.5,2.5h0a5.7,5.7,0,0,1,.4,1.4c0,.4.1.9.1,1.4Z"/><path class="cls-2" d="M62.3,30.6S58,28,54.7,20"/><path class="cls-3" d="M62.2,30.8a13.1,13.1,0,0,1-2.4-2.3,17.1,17.1,0,0,1-2.1-2.6C57.1,25,56.6,24,56,23s-.9-2-1.3-3l1.5,2.9,1.7,2.8A18.3,18.3,0,0,0,60,28.3a12.6,12.6,0,0,0,2.4,2.2Z"/><path class="cls-2" d="M63.9,5.6s3.8,6,1.4,16.2"/><path class="cls-3" d="M63.9,5.6a13.4,13.4,0,0,1,1.6,3.9,18.5,18.5,0,0,1,.7,4.1c0,1.4,0,2.8-.1,4.2l-.3,2c-.1.7-.3,1.4-.4,2.1h-.3c.3-1.3.5-2.7.7-4.1s.1-2.7.1-4.1a29,29,0,0,0-.6-4.1A15.3,15.3,0,0,0,63.9,5.6Z"/><path class="cls-4" d="M53.8,25.2a6.8,6.8,0,0,1,1.7-3.6"/><path class="cls-2" d="M20.8,55.2s.9-1.8,2.4-1.8"/><path class="cls-3" d="M20.7,55.2a6.4,6.4,0,0,1,1-1.3,2,2,0,0,1,1.5-.5,2.2,2.2,0,0,0-1.4.6,3.5,3.5,0,0,0-.8,1.3Z"/><path class="cls-2" d="M21.9,56.7a3.2,3.2,0,0,1,2.4-1.9"/><path class="cls-3" d="M21.8,56.7a3.2,3.2,0,0,1,2.5-1.9l-1.4.7a2.6,2.6,0,0,0-.8,1.3Z"/><path class="cls-2" d="M30.7,62.2A4.2,4.2,0,0,1,33.5,60"/><path class="cls-3" d="M30.6,62.2a4.4,4.4,0,0,1,1.2-1.5,3.6,3.6,0,0,1,1.7-.7,4,4,0,0,0-2.6,2.3Z"/><path class="cls-2" d="M29.3,60.9s1.2-2,2.7-2"/><path class="cls-3" d="M29.2,60.8a7.4,7.4,0,0,1,1.2-1.3,2.3,2.3,0,0,1,1.6-.6,2.1,2.1,0,0,0-1.5.7,5.7,5.7,0,0,0-1,1.3Z"/><path class="cls-2" d="M51.7,33.7a3,3,0,0,1,2.7-.9"/><path class="cls-3" d="M51.6,33.6a3.5,3.5,0,0,1,1.3-.8h1.5a2.8,2.8,0,0,0-2.6,1Z"/><path class="cls-2" d="M52.4,35.4s.1-1.1,2.3-1.1"/><path class="cls-3" d="M52.3,35.4a.7.7,0,0,1,.4-.6l.6-.4h1.4a3.1,3.1,0,0,0-1.3.3l-.6.3-.3.5Z"/><path class="cls-2" d="M59.4,38s1.6-1.5,2.3-1.2"/><path class="cls-3" d="M59.3,37.9l1.1-.8.6-.3h.1l-.6.4a3.9,3.9,0,0,0-1,.8Z"/><path class="cls-2" d="M60.8,40.2s.2-1.5,2.4-1.9"/><path class="cls-3" d="M60.7,40.2a2.1,2.1,0,0,1,1-1.4,3.8,3.8,0,0,1,1.5-.5,4.7,4.7,0,0,0-1.5.6,1.9,1.9,0,0,0-.7,1.3Z"/><path class="cls-3" d="M10,34.6c-.1.3-.1.5-.2.8a1.9,1.9,0,0,0,.2.7h0a3.4,3.4,0,0,0,2.3,1.1,2.5,2.5,0,0,0,1.2-.2,6.7,6.7,0,0,0,1.2-.6h0A7.6,7.6,0,0,0,15.8,35a4,4,0,0,1-1,1.5h0l-.6.4-.6.3-1.4.2a3.4,3.4,0,0,1-2.3-1.3h0a.8.8,0,0,1-.1-.8A2.4,2.4,0,0,1,10,34.6Z"/><path class="cls-5" d="M9.9,34.9v.4c0,.1-.1.2-.2.3h0a1.2,1.2,0,0,1-1,.5,1.4,1.4,0,0,1-.9-.8h0a2.2,2.2,0,0,1-.1-.8,2.4,2.4,0,0,0,.2.8h0c.2.3.5.6.8.6a1.3,1.3,0,0,0,1-.3h0a.4.4,0,0,0,.1-.3A.8.8,0,0,0,9.9,34.9Z"/><path class="cls-5" d="M8.4,28.7c.2-.9.8-.8.9-.8a4.2,4.2,0,0,1,1.1.7c-.3.5-1.2.6-1.2-.3S8.8,28.1,8.4,28.7Z"/><path class="cls-6" d="M9.4,28.1s-.3.5.2.7a.3.3,0,0,0,.5-.2C10,28.3,9.4,28.1,9.4,28.1Z"/><path class="cls-7" d="M9.9,28.5l-.3.2c-.1,0-.2-.2-.2-.3s.2-.2.3-.2S9.9,28.4,9.9,28.5Z"/><path class="cls-5" d="M13.5,30.1c.2-1.5,1.3-1.3,1.4-1.3a5.3,5.3,0,0,1,1.8,1,1,1,0,0,1-2-.3C14.7,29.4,14.1,29.1,13.5,30.1Z"/><path class="cls-6" d="M15,29s-.3.9.4,1.2.9-.4.9-.4A2.8,2.8,0,0,0,15,29Z"/><path class="cls-7" d="M15.9,29.6c-.1.3-.3.4-.4.4a.4.4,0,0,1-.3-.5c0-.2.2-.4.4-.3S15.9,29.4,15.9,29.6Z"/><path class="cls-3" d="M9.4,28.1a1.9,1.9,0,0,1,1.5,1.4,1.7,1.7,0,0,1,0,1,4.3,4.3,0,0,1-.2,1.1h-.1l-.7,1a8.6,8.6,0,0,0-.7,1h0a1.5,1.5,0,0,0,1,1.2h.9l.8-.3-.8.4a1.4,1.4,0,0,1-.9.1,1.1,1.1,0,0,1-.9-.5,1.9,1.9,0,0,1-.4-.9h0a14.9,14.9,0,0,1,1.5-2h-.1a1.6,1.6,0,0,0,.3-.9,1.7,1.7,0,0,0,0-1A1.9,1.9,0,0,0,9.4,28.1Z"/><path class="cls-4" d="M11.3,21.8a11.7,11.7,0,0,1,5.3-3.3"/></g></svg>