<svg xmlns="http://www.w3.org/2000/svg" viewBox="0 0 164 95"><defs><style>.cls-1{fill:#4c2d1d;}.cls-2,.cls-4{fill:#f7f2f3;}.cls-2{stroke:#6f451b;stroke-miterlimit:10;stroke-width:0.75px;}.cls-3{fill:#271717;}</style></defs><g id="eye_01"><path class="cls-1" d="M13.3,29.9S26.1,6.1,41.1,9.6c1.1.3.8,5.5,2.1,5.9s3.1-4.1,3.1-4.1.6,4,.1,5.8-2.1,2.4-3.8,2.3c-10.7-1-25.1,9.3-25.1,9.3C12.6,32.1,11.1,33.6,13.3,29.9Z"/><path class="cls-1" d="M154.5,32.7S137.2,4.8,119.2,10.2c-1.4.4-.6,6.7-2.1,7.4s-4.1-4.8-4.1-4.8-.4,4.9.3,7,2.7,2.8,4.8,2.5c12.9-2,31.2,9.5,31.2,9.5C155.4,35.3,157.5,37,154.5,32.7Z"/><path class="cls-2" d="M41.4,79.8A22.9,22.9,0,0,1,11,67,24.6,24.6,0,0,1,23.8,35.4,22.8,22.8,0,0,1,54.2,48.2,24.6,24.6,0,0,1,41.4,79.8"/><path class="cls-3" d="M45.5,64a13.1,13.1,0,0,1-15.8,9.9A13.4,13.4,0,0,1,36,47.8,13.3,13.3,0,0,1,45.5,64"/><path class="cls-4" d="M42.5,51.6a4.3,4.3,0,0,1-5.1,3.3,4.3,4.3,0,0,1-3.1-5.2,4.2,4.2,0,1,1,8.2,1.9"/><path class="cls-2" d="M127.4,87.8A22.9,22.9,0,0,1,97,75a24.6,24.6,0,0,1,12.8-31.6,22.8,22.8,0,0,1,30.4,12.8,24.6,24.6,0,0,1-12.8,31.6"/><path class="cls-3" d="M131.5,71A13,13,0,1,1,122,54.8,13.3,13.3,0,0,1,131.5,71"/><path class="cls-4" d="M128.5,58.6a4.3,4.3,0,0,1-5.1,3.3,4.3,4.3,0,0,1-3.1-5.2,4.2,4.2,0,1,1,8.2,1.9"/></g></svg>