<svg xmlns="http://www.w3.org/2000/svg" viewBox="0 0 133 144"><defs><style>.cls-1,.cls-6{fill:#c89572;}.cls-1{stroke:#86624f;stroke-width:0.3px;}.cls-1,.cls-11,.cls-3,.cls-5{stroke-miterlimit:10;}.cls-2{fill:#353535;}.cls-11,.cls-3,.cls-5{fill:none;}.cls-11,.cls-3{stroke:#a33322;}.cls-3{stroke-width:0.13px;}.cls-4{fill:#602f28;}.cls-5{stroke:#000;stroke-width:0.09px;}.cls-7{fill:#86624f;}.cls-8{fill:#e4e3e5;}.cls-9{fill:#101010;}.cls-10{fill:#fff;}.cls-11{stroke-width:0.13px;}.cls-12{fill:#272727;}</style></defs><g id="Calf_Pose07_F02"><path class="cls-1" d="M79,81.8c0,.4,1,1.2,0,1.9h-.3c-1.2.5-3.6,0-4-1a1.4,1.4,0,0,1-.2-.6,2.5,2.5,0,0,1,1-1.7c.9-9.3.6-12.6.6-12.6a2.6,2.6,0,0,1,1.5-2.8h3.6s-2,4-1.2,5.3,0,3.3-.6,4.1S79,81.3,79,81.8Z"/><path class="cls-2" d="M78.5,85.6c-.6,1.5-3.6,2.6-4.5,2.4s.2-1.7-.2-1.5a1.4,1.4,0,0,1-1.5-.4c0-1.7,2.1-3.8,2.2-3.9a1.4,1.4,0,0,0,.2.6c.4,1,2.8,1.5,4,1S79.2,84.3,78.5,85.6Z"/><path class="cls-3" d="M74.5,82.2h0"/><path class="cls-1" d="M89.5,49.4c1.2,1.9,1.3,9.3,2.3,12.2a18.4,18.4,0,0,0,2.6,5l-.3-.9s.2-.2-.1-.9-.3-1.5-.9-3.1-.6-8.6-1.8-12.4a14.7,14.7,0,0,0-2.2-4.2,9.3,9.3,0,0,0-2.1-2c-3.4-2.3-3.9,1-1.4,2.3s2.4,1.7,3.9,4"/><path class="cls-4" d="M92.2,61.3c2.7,2.3,2.5,4.1,3.7,6.2.1.3-.6-.2-1-1.3a4.1,4.1,0,0,0,.9,2.4c.5.7-.1.1-.7-.5a2.2,2.2,0,0,0,.3.9,2.4,2.4,0,0,1-.7-.9,3.6,3.6,0,0,0,1.8,2.1c.6.4-2.5-.6-2.5-3.1a3.2,3.2,0,0,0,.6,2.7A2.5,2.5,0,0,1,93.5,68v.7c0,.2-.1.2-.1.1s-.1-2.8-.4-4.5a23,23,0,0,1-.3,2.6c0,.1-.1.2-.1,0s.4-3.6-.7-5,.3.8.3.5-.6-.9-.5-1,.9.9,1.1.9-.6-1-.6-1"/><path class="cls-2" d="M47.5,102.3c-1.1,3.4-4.6,3.8-4.3,3.6a13.1,13.1,0,0,0,0-2.8,8.9,8.9,0,0,1-2,1.1c-.2-2.2,1.6-3.8,2-4.4C43.3,100.7,43.9,102.1,47.5,102.3Z"/><path class="cls-1" d="M47.8,101.4c-.2.7-.1.8-.3.8h0c-3.6-.2-4.2-1.6-4.3-2.5h.2c0-.3,1.4-1.8,1.6-2.4a7.4,7.4,0,0,0,.2-4.1c-.2-2.1,0-8.8,1.3-11s-.4-1.7-.4-1.7,4,1.9,6.3,1.6c0,.1,0,.1-.1.1a12.5,12.5,0,0,0-2.2,4.5c-.6,3.2-.8,5.6-1.4,6.5s0,4.5,0,5.4A8.4,8.4,0,0,1,47.8,101.4Z"/><path class="cls-2" d="M93.5,85.3a3.2,3.2,0,0,1-.7,1.9c-1.7,2.8-4.5,3.6-4.5,3.2s.8-3.2.8-3.2-3,1.9-3,1.5a4.4,4.4,0,0,1,2.7-4.1C89.3,85.5,90.6,87.3,93.5,85.3Z"/><path class="cls-2" d="M62.4,107.4c-.5.1-.6.3-.8.7a4.4,4.4,0,0,1-1.2,2c-.9.8-2.8,1.7-3.3,1s.7-2.3,0-1.9l-1.9,1.1a6.9,6.9,0,0,1,.2-1.5c.2-.8,2.2-2.8,2.7-3.8C58.1,105.6,58.3,107.8,62.4,107.4Z"/><path class="cls-1" d="M93.2,76.2c-.4,2.3.1,7.2.2,8.6a1.1,1.1,0,0,1,.1.5c-2.9,2-4.2.2-4.7-.7h.1a3.5,3.5,0,0,1,.5-1.1c.4-.8.4-9-.3-11.8A31,31,0,0,0,82,65.6a4.3,4.3,0,0,0-4.9,1.1,33.2,33.2,0,0,1-14,9.9.5.5,0,0,0-.3.5,10.7,10.7,0,0,0,.1,2.5A9.2,9.2,0,0,1,61.2,84c-.9.9.3,2.5.3,4s.9,2.3,1.1,4.6.3,3.3-.1,4.3.3,6.3.4,7.6.8,2,.3,2.6l-.8.3c-4.1.4-4.3-1.8-4.3-2.4h0v-.3c.2-.9.4-6.5,0-7.8s-1.1-2.6-.9-3.8a9.6,9.6,0,0,0,0-4.8C56.9,86.4,54,82,54,82a3.1,3.1,0,0,0-1.6.1c-2.3.3-5.7-1.3-6.3-1.6-3-2.8-3-7.6-3.9-7.6A8.2,8.2,0,0,0,39.4,74c-.4.2,0,1.5-2.8,2.2s-4.7-1.5-4.7-2.2a2.3,2.3,0,0,0-.3-1.1,6.9,6.9,0,0,0-.4-1c0-.2-.1-.3-.1-.5a3.4,3.4,0,0,1,.8-3.6A56.9,56.9,0,0,0,36.4,62c.8-1.3.2-2.2.2-3.3S39,55.5,39,55.3c-2.6-.9-2.8-3.9-2.4-4.3s5.2-.2,7.8,1.1c4.3-.9,7.7,4.5,7.7,4.5A10.6,10.6,0,0,1,57.9,54c5-.8,8.9-5.8,12.1-8.2a22.4,22.4,0,0,1,6-3.6,23,23,0,0,1,3.7-1.1l2.1.2a13.7,13.7,0,0,1,5.8,2.6c4.4,3.5,3.6,12.4,2.8,17-1,6.9,3,8.2,3,9.5s1.3,3.4.3,4.7A2.3,2.3,0,0,0,93.2,76.2Z"/><path class="cls-5" d="M79.7,41h0"/><path class="cls-6" d="M39,55.3s4.9-3.2,5.4-3.2"/><path class="cls-7" d="M39,55.3l2.5-1.8,1.4-.8a6.7,6.7,0,0,1,1.5-.6l-.7.4-.7.4-1.3.9C40.8,54.3,39.9,54.9,39,55.3Z"/><path class="cls-6" d="M52.1,56.6s7.8-.8,9.9,6.1c.4.8-5.6,3.2-10.8-1.3-.8-1.3-2.5-.5-2.5-.5"/><path class="cls-7" d="M52.1,56.6a10.7,10.7,0,0,1,6.1,1.2,8.2,8.2,0,0,1,2.5,2,9.4,9.4,0,0,1,1.5,2.8h-.1a.4.4,0,0,1-.1.5l-.3.3-.7.3-1.5.4a10.1,10.1,0,0,1-3-.1,9.8,9.8,0,0,1-5.3-2.6h0a1.5,1.5,0,0,0-1.1-.7l-1.4.2a3.2,3.2,0,0,1,1.4-.3,2.1,2.1,0,0,1,1.2.7h0a9.6,9.6,0,0,0,2.5,1.6,7.1,7.1,0,0,0,2.8.9,7.1,7.1,0,0,0,2.9,0l1.4-.4.7-.3.3-.4h0A11.5,11.5,0,0,0,60.5,60a7.8,7.8,0,0,0-2.4-2,7.9,7.9,0,0,0-2.9-1.1A15.5,15.5,0,0,0,52.1,56.6Z"/><path class="cls-6" d="M51.9,65.9s-1.5,6.5-9.7,7.1"/><path class="cls-7" d="M51.9,65.9a8.4,8.4,0,0,1-1.3,2.9,10,10,0,0,1-2.3,2.3,11.1,11.1,0,0,1-2.9,1.4l-1.6.4H42.2l3.1-.7a14.7,14.7,0,0,0,2.8-1.4,12,12,0,0,0,2.3-2.2A15.1,15.1,0,0,0,51.9,65.9Z"/><path class="cls-6" d="M37,68.5c.2-.5,2.2-4.1,4.6-3.9.2,0,1.1-1.6,2.2-2.6a2.3,2.3,0,0,1,1.8-.8"/><path class="cls-7" d="M37,68.5a12.4,12.4,0,0,1,1.7-2.7l1.3-1a2.9,2.9,0,0,1,1.6-.3h0c-.1,0,.1-.1.1-.2l.2-.3.4-.5.9-1.1a8.7,8.7,0,0,1,1.1-.9,1.6,1.6,0,0,1,1.3-.3,1.4,1.4,0,0,0-1.2.4l-1,.9-.8,1.1-.4.6-.3.3c-.1.1-.1.2-.3.3h-.1A3.8,3.8,0,0,0,38.9,66,16.4,16.4,0,0,0,37,68.5Z"/><path class="cls-8" d="M46.5,64.4c-2.4,3-4.4-.4-4.4-.4l.9-1.2.5-.6a3,3,0,0,1,2,.6A3.3,3.3,0,0,1,46.5,64.4Z"/><path class="cls-9" d="M45.5,63.3c0,.9-.5,1.6-1.3,1.6S43,64.2,43,63.3v-.5l.5-.6a3,3,0,0,1,2,.6Z"/><ellipse class="cls-10" cx="45.3" cy="63.3" rx="0.4" ry="0.3"/><path class="cls-6" d="M52,58c.2-.2,6.5-.4,8.8,3.9"/><path class="cls-7" d="M52,58a7.6,7.6,0,0,1,2.6,0,10.5,10.5,0,0,1,2.4.6,6.3,6.3,0,0,1,3.8,3.3,7.3,7.3,0,0,0-1.7-1.8,7.8,7.8,0,0,0-2.2-1.2,6.7,6.7,0,0,0-2.4-.7L53.3,58A5.6,5.6,0,0,0,52,58Z"/><path class="cls-11" d="M52.5,82.1h-.1"/><path class="cls-11" d="M46.1,80.5H46"/><path class="cls-6" d="M82.1,65.8S80.8,59,84,55.6"/><path class="cls-6" d="M31.9,74.2s2.3,1.2,4.1.3a3.9,3.9,0,0,1,1.2-1.9"/><path class="cls-7" d="M31.9,74.2l2,.5a4.4,4.4,0,0,0,2-.3h-.1a4,4,0,0,1,1.4-1.9,4.3,4.3,0,0,0-1.1,2H36a3,3,0,0,1-2.1.3A4.8,4.8,0,0,1,31.9,74.2Z"/><path class="cls-6" d="M54,82s0-4.9-2.3-6.4"/><path class="cls-7" d="M53.9,82a13.2,13.2,0,0,0-.4-3.4,4.9,4.9,0,0,0-1.8-3,4.8,4.8,0,0,1,1.9,2.9,14.3,14.3,0,0,1,.6,3.5Z"/><path class="cls-6" d="M62.7,77.6a44.7,44.7,0,0,1,.4-6.5"/><path class="cls-7" d="M62.6,77.6c0-1.1,0-2.2.1-3.3a16.5,16.5,0,0,1,.4-3.2,31.6,31.6,0,0,0-.3,3.2c0,1.1.1,2.2.1,3.3Z"/><path class="cls-12" d="M30.9,70.3a3.2,3.2,0,0,0,4.5.2,2.6,2.6,0,0,0-.2,1.5c.2.7-1.9.9-2.4,0s-1.5.7-1.7-.4"/><path class="cls-1" d="M76.2,67.9s2.2-3.9,5.5-2.2"/></g></svg>