<svg xmlns="http://www.w3.org/2000/svg" viewBox="0 0 84 66"><defs><style>.cls-1{fill:#d79d40;}.cls-1,.cls-2{stroke:#d28e3a;stroke-miterlimit:10;stroke-width:0.3px;}.cls-2,.cls-3{fill:#ebb146;}.cls-4{fill:#d28e3a;}</style></defs><g id="Layer_49" data-name="Layer 49"><g id="CubF1_04"><path class="cls-1" d="M24.3,35.3s1.4,5,5.1,5.1,4.7,4,3.4,5.1,1.4.9,6.1,1.3c2.8.2,4.2-.6,4.9-1.4a1.7,1.7,0,0,0,.2-1.8,1.7,1.7,0,0,0-2.8-.4l-2.4-.4a1.2,1.2,0,0,1-1-1.1l.3-1.8a2.6,2.6,0,0,0-.7-1.9l-2.5-2.6s-1.1-1.3-.1-1.7"/><path class="cls-1" d="M60.9,34.4a2.9,2.9,0,0,0,3-.8c1-1.4,2.9.8,1.9,2.2s-3.5,2-4.6.6S60.9,34.4,60.9,34.4Z"/><path class="cls-1" d="M59.3,22.5S61.1,33.8,63,34.9c0,0,4.8-2.4,4,1.9,0,0-5.1,3.6-6,2.3S52.2,30,51.3,26.7"/><path class="cls-2" d="M65.7,7.7s.7-1.6-1.9-2.6c0,0-.5-.6-4.6-2.1a9.2,9.2,0,0,0-2.4-.1S51.7-.5,51.7,5.4a1.5,1.5,0,0,0,1.2,1.4,7.1,7.1,0,0,0-.4,2,4.4,4.4,0,0,1-2.2,4,12.1,12.1,0,0,0-9,4.7,19.3,19.3,0,0,1-3.7,2.8s-15,4.6-17.1,15c-1.1,5,3.8,10.2,7.1,9.4a13.8,13.8,0,0,1,4.7-1.6c1.6-1,3.1-2.1,4.6-3.2a8.5,8.5,0,0,1,3.5-2.5l4.5-1.9H45l.6-.3a15.1,15.1,0,0,1,2.2-1.1A10.7,10.7,0,0,1,50,32.6h.1a3.5,3.5,0,0,1,1.4-.6c0-.1.1-.1.1-.2h0l1.1-.3,1.9-1.1a11.7,11.7,0,0,1,3.7-3.3v-.3s1.9-2.9,2.6-8.7a5.3,5.3,0,0,1,1-1.4c1.7-1.7,4.2-1.3,4.6-1.5s.9-1,1.3-1.9a7.1,7.1,0,0,0,.6-3.1S68.3,9,65.7,7.7Z"/><path class="cls-3" d="M21.5,35.6s-2.4,4.6-2.4,12.3c0,0-3,18.4-9.7,12,0,0-.2,6.6,5.1,3.7,0,0,5.3-4.9,6.5-18.7.2-1.9.8-5.3,3.6-6.7"/><path class="cls-4" d="M21.5,35.6a24.7,24.7,0,0,0-1,2.9,19.5,19.5,0,0,0-.7,3.1,16.5,16.5,0,0,0-.4,3.1c-.1,1.1-.2,2.1-.2,3.2h0c-.3,1.6-.6,3.1-1,4.7s-1,3-1.6,4.5a9,9,0,0,1-2.9,3.8,2.9,2.9,0,0,1-2.4.4,6.9,6.9,0,0,1-2-1.3h.2a6.9,6.9,0,0,0,.3,2,2.6,2.6,0,0,0,.9,1.7,2,2,0,0,0,1.8.5l1-.2.9-.5h0A17.7,17.7,0,0,0,18,57.5a36,36,0,0,0,2-6.6c.3-1.2.4-2.3.6-3.5s.2-2.3.4-3.5a9.9,9.9,0,0,1,1.1-3.3,7.6,7.6,0,0,1,1.1-1.4,4.5,4.5,0,0,1,1.4-1A7.7,7.7,0,0,0,21.3,44c-.2,1.1-.3,2.3-.4,3.5s-.3,2.3-.6,3.4a40.7,40.7,0,0,1-2,6.8,19.9,19.9,0,0,1-3.7,6h0l-1,.5-1,.2a2.1,2.1,0,0,1-2.1-.6,4,4,0,0,1-1-1.8,7.6,7.6,0,0,1-.3-2.1v-.3l.2.2h0a5.9,5.9,0,0,0,2,1.2,2.9,2.9,0,0,0,2.2-.3,10.5,10.5,0,0,0,2.7-3.8,23.2,23.2,0,0,0,1.6-4.4,37.8,37.8,0,0,0,1-4.6h0a32.8,32.8,0,0,1,.6-6.3,23.5,23.5,0,0,1,2-6Z"/><path class="cls-3" d="M51,32.2l.6-.4-6.9,3.8,3.9-2.1A9.2,9.2,0,0,1,51,32.2Z"/><path class="cls-4" d="M51,32.2l.6-.4h0l-3.4,1.9-3.4,1.9v-.3l3.8-2h0l1.2-.8,1.2-.6Zm.1.1-1.3.6a4.1,4.1,0,0,0-1.1.7h0l-3.9,2.1-.2-.3,3.5-1.8a38.4,38.4,0,0,1,3.5-1.8h0l-.6.3Z"/><path class="cls-2" d="M52.9,6.8A6.6,6.6,0,0,1,59.2,3"/><path class="cls-3" d="M60.8,10.6a3.2,3.2,0,0,0,3,2.2,1.9,1.9,0,0,0,1.5-.7,1.9,1.9,0,0,0,.4-1.8,2.9,2.9,0,0,0-3.2-1.9"/><path class="cls-4" d="M60.8,10.6a3.5,3.5,0,0,0,1.9,1.9,2.2,2.2,0,0,0,1.4.2,2.6,2.6,0,0,0,1.1-.7h0a2.4,2.4,0,0,0,.5-1.4,1.9,1.9,0,0,0-.6-1.3,3.4,3.4,0,0,0-2.6-1,3.3,3.3,0,0,1,2.8.9,1.8,1.8,0,0,1,.6,1.4,2.4,2.4,0,0,1-.4,1.5h-.1a2.6,2.6,0,0,1-1.3.6,2.6,2.6,0,0,1-1.5-.1A3.9,3.9,0,0,1,60.8,10.6Z"/><path class="cls-3" d="M35.7,40.7l.9-2.9A12.7,12.7,0,0,0,35.3,41Z"/><path class="cls-4" d="M35.5,40.9v-.3l.9-2.8h.2A18.3,18.3,0,0,0,35.3,41h.2Zm.4-.3h-.2l-.4.3h0a21.9,21.9,0,0,1,1.2-3.3l.4-.6-.2.7Z"/><path class="cls-2" d="M55.4,42.6a1.7,1.7,0,0,0,1.8-.4c1-.8,2.7,0,2.6.9s-2.9,1.8-3,1.7S55.4,42.6,55.4,42.6Z"/><path class="cls-2" d="M50.8,26.2s2.1,1.4-2.2,7.4c0,0-2.2.8-.2,4.1s3.9,5.2,3.2,6.9.4,3.1,3.6,2.3a48.2,48.2,0,0,0,5.2-1.2c1-.4.2-2.8-3.2-2.4-.9.1-1.6-1.1-1.8-2.1s-.6-5.4-.2-5.5S60.8,29,58.6,25"/><path class="cls-2" d="M22.2,40.3s.9,4.4,7.4,5.4a2.7,2.7,0,0,1,.5,3.4l-.4.6s-3.5-.8-1.4,3.5a3.6,3.6,0,0,1-.2,3.1c-1,1.4-1.3,2.4-.3,2.5s-1,.8-.2,1.2,4.5,0,5.1-3.2-.2-4.6-.2-4.6,7.5-1.7,5.2-8.3-4-8.5-4-8.5"/></g></g></svg>