<svg xmlns="http://www.w3.org/2000/svg" xmlns:xlink="http://www.w3.org/1999/xlink" viewBox="0 0 84 66"><defs><style>.cls-1,.cls-12{fill:none;}.cls-2{fill:#dfb784;}.cls-3{fill:#877d71;}.cls-4{fill:#6c5f4e;}.cls-5{fill:#cda377;}.cls-6,.cls-7{fill:#fbd9ac;}.cls-12,.cls-7{stroke:#dfb784;stroke-miterlimit:10;stroke-width:0.3px;}.cls-8{fill:#68553f;}.cls-9{opacity:0.39;}.cls-10{clip-path:url(#clip-path);}.cls-11{fill:#fff;}</style><clipPath id="clip-path"><rect id="SVGID" class="cls-1" x="21.1" y="7.5" width="0.6" height="0.55"/></clipPath></defs><g id="Layer_2" data-name="Layer 2"><path class="cls-2" d="M33.9,9.7c-5.3,2.1-3.8-2.5-6.4-3.2s-.6-1.6.7-1.8c3.6-.6,3.9,3,6.1,4.1.6.4.3.6-.4.9"/><path class="cls-3" d="M62.3,56.5a2.2,2.2,0,0,0,.5.8,2.5,2.5,0,0,0,3.4.4l-.6-.6-.2-.2c-.7-1.5-1.7-1.4-2.4-1l.3.4Z"/><path class="cls-4" d="M62.3,56.5a2.2,2.2,0,0,0,.5.8l1.2.2a2.9,2.9,0,0,0,1.6-.4l-.2-.2c-.7-1.5-1.7-1.4-2.4-1l.3.4Z"/><path class="cls-5" d="M64.3,56.1c-.2.6.3,1.6,1.9,1.6s1.1-.8,1.4-1.6a15.7,15.7,0,0,0,.6-2.8,7.8,7.8,0,0,1,1.3-3c2.1-2.6-1.5-2.7-.1-9.3a23.3,23.3,0,0,0,.3-9,13.8,13.8,0,0,0-2.5-6.2c-.6-.7-1.3-.4-2,.7a17.1,17.1,0,0,0-1.4,6.1c-1.1,11.6,1.9,13.2,2.7,16.6a8,8,0,0,1-.7,4.1c-.6,1.6-1.3,1.9-1.5,2.8"/><path class="cls-3" d="M56.8,61.9l.7.8a2.5,2.5,0,0,1-3.8-1.2l1-.2-.3-.4c.7-.4,1.7-.5,2.4,1"/><path class="cls-4" d="M53.7,61.5a2.2,2.2,0,0,0,.5.8l1.1.2a3.3,3.3,0,0,0,1.7-.4l-.2-.2c-.7-1.5-1.7-1.4-2.4-1l.3.4Z"/><path class="cls-3" d="M37,42.1l.7.8a2.5,2.5,0,0,1-3.8-1.2h1a1.4,1.4,0,0,1-.3-.5,1.6,1.6,0,0,1,2.4,1"/><path class="cls-4" d="M33.9,41.7a2.2,2.2,0,0,0,.5.8l1.1.2a3.3,3.3,0,0,0,1.7-.4l-.2-.2a1.6,1.6,0,0,0-2.4-1,1.4,1.4,0,0,0,.3.5Z"/><path class="cls-3" d="M29.6,46.4l.7.8A2.5,2.5,0,0,1,26.5,46h.9l-.3-.5c.8-.3,1.7-.5,2.5,1"/><path class="cls-4" d="M26.5,46a2,2,0,0,0,.4.8,2.5,2.5,0,0,0,1.2.2,3.3,3.3,0,0,0,1.7-.4l-.2-.2c-.8-1.5-1.7-1.3-2.5-1l.3.5Z"/><path class="cls-5" d="M39.4,20.8a86.1,86.1,0,0,0-.7,8.7c0,2.4.3,3.4.3,4.4s-.6.7-.6,2.6.4,3.3.2,3.9-.6.5-.7,1,.5.8-.2,1.5-1.5.1-2.1-.8a1.1,1.1,0,0,1,0-1.1,1.9,1.9,0,0,0,.5-1.3,15.5,15.5,0,0,0-.3-5.6c-.2-.7-.6-.8-.8-1.7s.3-1.3.2-2.2c-.6-5.4-1.5-11.4-1.5-11.4Z"/><path class="cls-6" d="M27.8,34.5c.1.9-.4,1.5-.2,2.2s.6,1,.7,1.7a13.7,13.7,0,0,1,.4,5.6,3.9,3.9,0,0,1-.5,1.3,1.1,1.1,0,0,0-.1,1.1c.6.9,2.2.8,2.2.8s.1-.8.2-1.5.5-.4.7-1-.2-1.2-.2-3.9.5-1.3.6-2.6-.3-2-.3-4.4h0a30.3,30.3,0,0,1,.2-3.1,23.3,23.3,0,0,1,.2-2.9,21.5,21.5,0,0,1,.3-2.6l-1.1-.4-1.7-.6-2.7-2.4a.8.8,0,0,0,.1.3l1.2,12.5"/><path class="cls-7" d="M17.3,10.3c-.1,1.3,1.6,2.3,2.6,2.5a12,12,0,0,0,3.5-.5c.6.6,1.1,2.5,1.7,4.7s.9,3.3,1.5,5,1.9,5.5,3.4,7.1.9,1,1.5,1.5C37.8,36.7,48,41,55.3,41.5A55.4,55.4,0,0,0,58,53.2c.9,2.6-1.7,5.5-2.3,7.7-.1.4-.1.7.1.9a1.2,1.2,0,0,0,.7.7l1.1.2c.3-1.4,1.1-.8,1.4-1.6a14,14,0,0,0,.6-2.8,7.8,7.8,0,0,1,1.3-3c2.1-2.6-1.7-3.6,1.6-9.6,4.4-8.2,7.1-16.4,4.7-19.9S57,21.3,50.5,20.1c-8.6-1.6-17-7.7-18.8-10.2a27.5,27.5,0,0,1-1.5-2.5c-1.2-2-2.4-3.9-4.3-3.7s-7.8,3.8-8.5,6.1a.4.4,0,0,0-.1.3c0,.1-.1.1,0,.2"/><path class="cls-6" d="M65.2,26.5A21.3,21.3,0,0,0,66.5,31c.2.5.2.6.8.7s1.5-.2,2.4.3a13.8,13.8,0,0,0-2.5-6.2c-.6-.7-1.3-.4-2,.7"/><path class="cls-2" d="M66.7,33.5a14,14,0,0,1-.8,4.9,7,7,0,0,0,2.5-5,5.1,5.1,0,0,0-.7-2.5s-1,.6-1,2.6"/><path class="cls-2" d="M31.4,30.1a.7.7,0,0,0,.1.5C37.8,36.7,48,41,55.3,41.5c-.6-4.6,1.6-5.6.7-7.2S51.5,38.5,44.3,36s-10.8-8.9-11.8-9.7-1.1,3.8-1.1,3.8"/><path class="cls-6" d="M73.4,33H74c-.9.4-2.5.9-3.8-1.4a1.2,1.2,0,0,0-.5-.5,7,7,0,0,0-3-.6c-1,.1,0-1.4.6-1.5a5.3,5.3,0,0,0,2.9-1.6v.6a1.9,1.9,0,0,1,1.8-.4c-.2,0-.3.2-.4.4a1.7,1.7,0,0,1,1.6,1.3h-.7c.1.6.2,2.1.9,2.3s-.7,0-.7,0a1.5,1.5,0,0,0,2,.8,2.8,2.8,0,0,1-1.3.6"/><path class="cls-4" d="M28.4,5.1l-.7-.4c-1-.5-.3-1.2.7-1.8s.8.1.8.6-.3,1.9-.8,1.6"/><path class="cls-4" d="M26.7,6.7,26,6.4c-.9-.6-.3-1.3.7-1.8s.9.1.8.5-.2,1.9-.8,1.6"/><path class="cls-2" d="M22.6,15.2c5.4-2.1,1.1-4.4,2.6-6.8s-.7-1.4-1.7-.7c-3.1,1.9-.9,4.8-1.7,7.1-.3.7.2.6.8.4"/><path class="cls-8" d="M17.3,10.3l.5.6a.2.2,0,0,0,.2-.2l-.6-.8c-.1,0-.1.1-.1.2v.2"/><path class="cls-8" d="M22.4,7.5c.1.2-.2.5-.6.6s-.8,0-.8-.2.2-.4.6-.5.8-.1.8.1"/><g class="cls-9"><g class="cls-10"><path class="cls-11" d="M21.1,7.7a.3.3,0,0,0,.3.3.3.3,0,0,0,.3-.3c0-.1-.1-.2-.3-.2s-.3.1-.3.2"/></g></g><path class="cls-12" d="M17.3,10.1a.4.4,0,0,1,.1-.3c.7-2.3,5.4-5.6,8.5-6.1l1.3.2a3.2,3.2,0,0,1,1.2-1c.4-.2.8.1.8.6s-.1.8-.2,1.2c2.9-.1,3.3,3.1,5.3,4.1s.3.6-.4.9a6.4,6.4,0,0,1-2,.5c2.2,2.7,10.3,8.4,18.6,9.9C57,21.3,64,21,67.2,25.8h0a11.3,11.3,0,0,1,1.5,2.8,5.8,5.8,0,0,0,1.5-1.1v.6a1.9,1.9,0,0,1,1.8-.4c-.2,0-.3.2-.4.4a1.7,1.7,0,0,1,1.6,1.3h-.7c.1.6.2,2.1.9,2.3s-.7,0-.7,0a1.5,1.5,0,0,0,2,.8,2.8,2.8,0,0,1-1.3.6H74c-.9.4-2.5.9-3.8-1.4a1.2,1.2,0,0,0-.5-.5h-.2c.1.3.1.6.2.9a23.3,23.3,0,0,1-.3,9c-1.4,6.6,2.2,6.7.1,9.3a7.8,7.8,0,0,0-1.3,3,15.7,15.7,0,0,1-.6,2.8c-.3.8-1.1.2-1.4,1.6h0a2.5,2.5,0,0,1-3.4-.4,2.2,2.2,0,0,1-.5-.8l1-.2-.3-.4a1.5,1.5,0,0,1,1.3-.1,26.5,26.5,0,0,0,1.5-2.5,8,8,0,0,0,.7-4.1c-.5-2-1.7-3.4-2.4-6.6l-1.6,3.1c-3.3,6,.5,7-1.6,9.6a7.8,7.8,0,0,0-1.3,3,14,14,0,0,1-.6,2.8c-.3.8-1.1.2-1.4,1.6h-.1a2.4,2.4,0,0,1-3.3-.4h-.1c0-.1-.1-.2-.1-.3h-.1l-.2-.4h0l1-.2h-.1c-.1-.1-.2-.2-.2-.3a1.5,1.5,0,0,1,1.3-.1c.8-2.2,3.1-5.1,2.3-7.6a55.4,55.4,0,0,1-2.7-11.7h0c-5-.3-11.3-2.4-16.9-5.7v.7c0,2.7.4,3.3.2,3.9s-.6.5-.7,1,.5.8-.2,1.5h0a2.4,2.4,0,0,1-3.3-.4h-.1c0-.1-.1-.2-.1-.3a.1.1,0,0,1-.1-.1c-.1-.1-.1-.3-.2-.4h.9c-.1,0-.2-.2-.2-.3a2,2,0,0,1,1.1-.2,2.1,2.1,0,0,0,.4-1.2,15.5,15.5,0,0,0-.3-5.6,29.8,29.8,0,0,1-4.3-3.5h0a30.3,30.3,0,0,0-.2,3.1h0c0,2.4.3,3.4.3,4.4s-.6.7-.6,2.6.4,3.3.2,3.9-.7.5-.7,1,.4.8-.2,1.5h0a2.5,2.5,0,0,1-3.4-.4h0l-.2-.3a.1.1,0,0,0-.1-.1c0-.1-.1-.3-.1-.4h.8l-.2-.3a2.5,2.5,0,0,1,1.2-.2,3.4,3.4,0,0,0,.4-1.2,13.7,13.7,0,0,0-.4-5.6c-.1-.7-.6-.8-.7-1.7s.3-1.3.2-2.2L26.6,22h0c-.6-1.7-1-3.4-1.5-5a17.3,17.3,0,0,0-.8-2.7,6.5,6.5,0,0,1-1.7.9c-.6.2-1.1.3-.8-.4a5.4,5.4,0,0,0,.1-2.2,5.4,5.4,0,0,1-2,.2c-1-.2-2.7-1.2-2.6-2.5S17.3,10.2,17.3,10.1Z"/></g></svg>