<svg xmlns="http://www.w3.org/2000/svg" viewBox="0 0 133 144"><defs><style>.cls-1,.cls-6{fill:#c89572;}.cls-1{stroke:#86604e;stroke-width:0.3px;}.cls-1,.cls-11,.cls-3,.cls-5{stroke-miterlimit:10;}.cls-2{fill:#353535;}.cls-11,.cls-3,.cls-5{fill:none;}.cls-11,.cls-3{stroke:#a33322;}.cls-3{stroke-width:0.13px;}.cls-4{fill:#602f28;}.cls-5{stroke:#000;stroke-width:0.09px;}.cls-7{fill:#86604e;}.cls-8{fill:#e4e1e7;}.cls-9{fill:#101010;}.cls-10{fill:#fff;}.cls-11{stroke-width:0.13px;}.cls-12{fill:#272727;}</style></defs><g id="Calf_Pose03_F01"><path class="cls-1" d="M42.8,70.9c-.2.3-1.6.4-1.1,1.5a.4.4,0,0,0,.1.3c.7,1.1,2.9,2.2,3.8,1.6s-.2-.3,0-.4a2.7,2.7,0,0,0,.1-2c6.5-6.5,7.7-6.3,9.6-9,.7-1,.9-2.9,2-4.6L52.4,56s-2.1,4.6-3.6,5.1-1.9,2.6-1.9,3.7S43.1,70.5,42.8,70.9Z"/><path class="cls-2" d="M40.8,74.2c-.4,1.6,1.4,4.3,2.2,4.7s.9-1.6,1.1-1.1a1.2,1.2,0,0,0,1.5.5,10.4,10.4,0,0,0,.1-3.5c-.2.2.1-.6-.1-.5s-3.1-.5-3.8-1.6S41.1,72.8,40.8,74.2Z"/><path class="cls-3" d="M46.1,73.9h0"/><path class="cls-1" d="M44.5,40c-1.3,2-1.4,9.4-2.3,12.2a16.7,16.7,0,0,1-2.6,5l.3-.9s-.2-.2.1-.8.3-1.6.8-3.1.7-8.6,1.9-12.4a13.2,13.2,0,0,1,2.2-4.3A8.8,8.8,0,0,1,47,33.8c3.4-2.4,3.8.9,1.3,2.2a9.8,9.8,0,0,0-3.8,4"/><path class="cls-4" d="M41.8,51.9c-2.7,2.3-2.5,4.1-3.7,6.3-.2.3.6-.2,1-1.4a4.1,4.1,0,0,1-.9,2.4c-.5.7.1.2.7-.4a1.6,1.6,0,0,1-.3.8,4.4,4.4,0,0,0,.7-.9,3.8,3.8,0,0,1-1.8,2.2c-.7.4,2.5-.6,2.5-3.1a3.4,3.4,0,0,1-.6,2.6,2.8,2.8,0,0,0,1.1-1.7,1.7,1.7,0,0,1-.1.7c0,.1.2.1.2,0s.1-2.8.4-4.5a24.5,24.5,0,0,0,.2,2.7c0,.1.2.1.2,0s-.5-3.7.7-5-.3.8-.3.5.6-1,.5-1.1-.9.9-1.1.9.6-1,.6-1"/><path class="cls-2" d="M88.9,92.8c2.2,2.8,5.6,2,5.3,1.9s-1-2.6-1-2.6a10.6,10.6,0,0,0,2.2.3c-.6-2.2-1.3-3.1-2-3.4S92.1,91.4,88.9,92.8Z"/><path class="cls-1" d="M88.9,92.8c.4.6,1.4.2,1.6.1h0c3.3-1.4,3.3-3,3.1-3.8h-.2L92,87a15.7,15.7,0,0,1-1.9-5.5c.9-2.4-1.4-5.9-1.6-6.5a22.1,22.1,0,0,0-.8-4.3c-.4.5-3.9,1.4-6.2,2.1a15.1,15.1,0,0,1,1,1.7c.6.3,1.2,3,1.9,4.3a5.7,5.7,0,0,0,2.2,5c.9.6,2.1,4.9,2.4,5.8S88.4,92.3,88.9,92.8Z"/><path class="cls-2" d="M47.5,80a2.7,2.7,0,0,0,.7,1.8c1.7,2.8,4.5,3.7,4.5,3.3a29.3,29.3,0,0,0-.9-3.3s3,2,3,1.5a4,4,0,0,0-2.7-4C51.7,80.2,50.3,82,47.5,80Z"/><path class="cls-2" d="M72.6,99c.4.2.6.3.7.8a4.6,4.6,0,0,0,1.3,1.9c.9.9,2.8,1.7,3.2,1.1s-.6-2.4,0-1.9l2,1a7.7,7.7,0,0,0-.2-1.5c-.2-.8-2.2-2.8-2.7-3.8C76.9,97.2,76.6,99.4,72.6,99Z"/><path class="cls-1" d="M47.7,70.8c.5,2.4,0,7.2-.2,8.7V80c2.8,2,4.2.2,4.6-.7H52a3.2,3.2,0,0,0-.4-1c-.4-.9-.4-9.1.2-11.9,3-3.7.6-8.3.6-8.3s1-1.8,3.4.5c6.7,7.8,14.4,8.3,15.1,8.8a1.1,1.1,0,0,1,.3.5,22.6,22.6,0,0,1-.1,2.5c0,1.1-.1,1.9.7,2.8s.7,6,.7,7.5-.9,1.3-1.1,3.7a6.7,6.7,0,0,0,1.1,4.3c.4,1.1.2,6.4-.5,7.5s-1.3,2.2-.2,2.6l.8.3c4,.4,4.3-1.8,4.3-2.4h0a.4.4,0,0,1-.1-.3c-.2-.8-.5-6.4,0-7.7s1-2.6.8-3.9a12.3,12.3,0,0,1,0-4.7c.5-2,1.3-7.4,1.3-7.4a8.5,8.5,0,0,1,2.6.2c2.4.2,5.8-1.4,6.4-1.7,3-2.8,3-7.5,3.9-7.5a10.2,10.2,0,0,1,2.8,1.1c.4.2,0,1.5,2.8,2.1s4.7-1.5,4.7-2.1a3,3,0,0,1,.3-1.2c.1-.2.2-.6.4-1s.1-.3.1-.4a3.8,3.8,0,0,0-.8-3.7,45.5,45.5,0,0,1-4.5-5.8c-.9-1.3-.2-2.1-.2-3.2S95,46.2,95,45.9c2.6-.8,2.8-3.8,2.4-4.3s-5.2-.2-7.8,1.1c-4.3-.9-7.7,4.5-7.7,4.5A12.1,12.1,0,0,0,76,44.6c-5-.8-8.9-5.7-12-8.1a22.4,22.4,0,0,0-6-3.6,15.9,15.9,0,0,0-3.7-1.1,9.8,9.8,0,0,0-2.2.2,13.8,13.8,0,0,0-5.8,2.5C42,38,42.8,47,43.5,51.5c1.1,6.9,4,12.2,4,13.5s-1.3,3.5-.2,4.8A1.9,1.9,0,0,1,47.7,70.8Z"/><path class="cls-5" d="M54.2,31.6h.1"/><path class="cls-6" d="M95,46s-5-3.2-5.4-3.2"/><path class="cls-7" d="M95,46l-2.7-1.6-1.4-.8-.6-.4a1,1,0,0,0-.7-.4,4.7,4.7,0,0,1,1.5.6l1.3.8A15.1,15.1,0,0,1,95,46Z"/><path class="cls-6" d="M81.9,47.3s-7.8-.9-9.9,6c-.5.9,5.6,3.2,10.7-1.3.9-1.3,2.6-.4,2.6-.4"/><path class="cls-7" d="M81.9,47.3a11.5,11.5,0,0,0-3.2.2,14.5,14.5,0,0,0-2.9,1.1,7.9,7.9,0,0,0-3.7,4.8h0c-.1,0,.1.3.3.4l.7.3,1.4.4a14,14,0,0,0,2.9,0,13.1,13.1,0,0,0,2.8-.9A13.2,13.2,0,0,0,82.7,52h0a1.5,1.5,0,0,1,1.2-.7,3.2,3.2,0,0,1,1.4.3,3.2,3.2,0,0,0-1.4-.3,1.5,1.5,0,0,0-1.1.8h0a10.9,10.9,0,0,1-5.4,2.6,7.6,7.6,0,0,1-3,0,8,8,0,0,1-1.5-.3l-.6-.4c-.2-.1-.3-.1-.4-.3s-.2-.2-.1-.5h0a9.4,9.4,0,0,1,1.5-2.8,7.9,7.9,0,0,1,2.4-2.1A11.1,11.1,0,0,1,81.9,47.3Z"/><path class="cls-6" d="M82.1,56.5s1.5,6.5,9.7,7.2"/><path class="cls-7" d="M82.1,56.5a8.4,8.4,0,0,0,1.5,2.8,8,8,0,0,0,2.3,2.2,9.2,9.2,0,0,0,2.8,1.4,15.7,15.7,0,0,0,3.1.8l-1.6-.2-1.6-.4a8.6,8.6,0,0,1-2.9-1.4,9.7,9.7,0,0,1-2.3-2.2A8.1,8.1,0,0,1,82.1,56.5Z"/><path class="cls-6" d="M96.9,59.1c-.2-.4-2.1-4.1-4.5-3.8-.3,0-1.1-1.6-2.2-2.7a2.5,2.5,0,0,0-1.9-.8"/><path class="cls-7" d="M96.9,59.1a10.8,10.8,0,0,0-1.8-2.4,3.5,3.5,0,0,0-2.7-1.3h0l-.4-.3a.2.2,0,0,0-.2-.2l-.4-.6a10.5,10.5,0,0,0-.8-1.1,4.7,4.7,0,0,0-1-1,2.8,2.8,0,0,0-1.3-.4,2.2,2.2,0,0,1,1.4.3l1,.9.9,1.1.4.6.3.2a.3.3,0,0,0,.1.2h0a2.9,2.9,0,0,1,1.6.4,4,4,0,0,1,1.2,1A10.6,10.6,0,0,1,96.9,59.1Z"/><path class="cls-8" d="M87.5,55c2.3,3.1,4.4-.4,4.4-.4L91,53.5l-.5-.6a2.5,2.5,0,0,0-2,.6A2.8,2.8,0,0,0,87.5,55Z"/><path class="cls-9" d="M88.4,54A1.3,1.3,0,1,0,91,54v-.5l-.5-.6a2.5,2.5,0,0,0-2,.6A4.3,4.3,0,0,0,88.4,54Z"/><ellipse class="cls-10" cx="88.6" cy="54" rx="0.4" ry="0.3"/><path class="cls-6" d="M82,48.7c-.2-.2-6.5-.4-8.9,3.9"/><path class="cls-7" d="M82,48.7a2.9,2.9,0,0,0-1.3,0H79.5l-2.5.7a9.4,9.4,0,0,0-2.2,1.2,10.5,10.5,0,0,0-1.7,1.9,6.5,6.5,0,0,1,1.6-2.1l2.2-1.3a11.4,11.4,0,0,1,2.5-.6A5.7,5.7,0,0,1,82,48.7Z"/><path class="cls-11" d="M81.4,72.8h.1"/><path class="cls-11" d="M87.9,71.1H88"/><path class="cls-6" d="M51.9,56.5s1.3-6.8-1.9-10.3"/><path class="cls-6" d="M102.1,64.9s-2.4,1.1-4.1.3a4.3,4.3,0,0,0-1.3-2"/><path class="cls-7" d="M102.1,64.9a6.8,6.8,0,0,1-2,.7,3.7,3.7,0,0,1-2.1-.3h-.1a5.9,5.9,0,0,0-1.2-2,3.7,3.7,0,0,1,1.4,1.9h0a3.4,3.4,0,0,0,2,.3Z"/><path class="cls-6" d="M78.9,72.6s1-4.9,3.4-6.4"/><path class="cls-7" d="M78.8,72.6A20.6,20.6,0,0,1,80,69.1a7.3,7.3,0,0,1,2.3-2.9,6.9,6.9,0,0,0-2.1,3,14.2,14.2,0,0,0-1.1,3.5Z"/><path class="cls-6" d="M71.2,68.2a41.5,41.5,0,0,0-.3-6.5"/><path class="cls-7" d="M71.1,68.2V65a18.3,18.3,0,0,0-.2-3.3,18.6,18.6,0,0,1,.4,3.3c0,1.1.1,2.2.1,3.2Z"/><path class="cls-12" d="M103.1,61a3.3,3.3,0,0,1-4.5.2,2.4,2.4,0,0,1,.2,1.5c-.2.6,1.9.8,2.3,0s1.5.6,1.8-.5"/><path class="cls-1" d="M52.6,65.8s2.5-2.3,2.9-3.4,1.2-2.9,1.2-2.9-1.2-2.6-4.5-1"/></g></svg>