<svg xmlns="http://www.w3.org/2000/svg" viewBox="0 0 91 101"><defs><style>.cls-1{fill:#4e342e;}.cls-2,.cls-9{fill:#855d52;}.cls-3{fill:#3e2723;}.cls-4,.cls-7{fill:#f1e8e6;}.cls-4,.cls-8,.cls-9{stroke:#5b352c;stroke-miterlimit:10;stroke-width:0.3px;}.cls-5{fill:#774d43;}.cls-6{fill:#6f4d42;}.cls-8{fill:#d7ccc8;}.cls-10{fill:#5b352c;}.cls-11{fill:#724e47;}.cls-12{fill:#4c2822;}.cls-13{fill:#704139;}.cls-14{fill:#e57050;}.cls-15{fill:#151515;}.cls-16{fill:#fff;}</style></defs><g id="Layer_91" data-name="Layer 91"><g id="Duck_poses_01_F_02_" data-name="Duck poses 01 ( F 02 )"><path class="cls-1" d="M16.1,65.5c-.3.9.5,2.6,1.5,3.4l1.2.3-.3-3.5-2-.4C16.4,65.2,16.2,65.3,16.1,65.5Z"/><path class="cls-2" d="M37.8,43.5l-2.4,4.2c-.6,1.1-1.4,2.4-2.1,3.8l-6.2,11-4.2,1.3a.8.8,0,0,0,.2-.5c.8-2.1,1.7-4.7,2.5-7.4s1.5-7.3,3.6-12.6c.4-1.1,1-2.4,1.7-3.9l2.4,1.5Z"/><path class="cls-2" d="M27.2,62.3h0l-2,1.5-1,.9c-2.4,2.2-1.7,2.9-2.5,3.3s-1.6-.1-2.2.4l-.7.7s-1.8-2.4-.6-3.5,1.1.7,2.3-.7,1.5-1.3,3-2.9a.1.1,0,0,0,.1-.1Z"/><path class="cls-3" d="M16.1,65.5c-.3.9.5,2.6,1.5,3.4s-.9-2.8.9-3.2l-2-.4C16.4,65.2,16.2,65.3,16.1,65.5Z"/><path class="cls-4" d="M18.2,65.6c-1.2,1.1.6,3.6.6,3.6l.8-.7c.6-.5,1.4.1,2.2-.4s.1-1.1,2.6-3.4l1.1-.9a1.8,1.8,0,0,1-1.1-.8c-.3-.5-.1-.9-.3-1.5-1.8,1.9-3.2,3.1-3.5,3.4S18.6,65.3,18.2,65.6Z"/><path class="cls-5" d="M24.4,11.6c1.5,1.5,2.6-.3,2.7-.5a5.2,5.2,0,0,0,.6-1.6,11.1,11.1,0,0,0-.2-4.8,25,25,0,0,0-.9-2.5L26.2,2c-.2.1-.3.2-.3.4a4.5,4.5,0,0,1-.1,1.1,20.3,20.3,0,0,1-1.9,4.6A2.8,2.8,0,0,0,24.4,11.6Z"/><path class="cls-1" d="M71.1,89.7a2.1,2.1,0,0,1-1.1.8c-1.5.5-3.7.2-4.4-.7a.6.6,0,0,1,.1-.7l1.6-1.5Z"/><path class="cls-6" d="M59.9,51.9l5-.7-.7-5.3c3.8.9,8.8,4.1,9.4,8.7s-1,4.7-1.1,9.9c0,3.5,2.9,6.5,3.1,7.8s-.2,1.1-2.4,7.3l-.3.8c-.1.2-.1.4-.2.5-1.2,3.5-.1,3.5-.4,4.8s-1.1.7-1.2,1.8.5,1.4.3,1.9l-.3.3c-.9.5-4-1-3.8-2.1s.5-.7.9-1.6a29.1,29.1,0,0,0,1.5-5.8V80a41.7,41.7,0,0,0,.8-7c-.3-1.7-3.7-2.9-6.4-8.1A49.4,49.4,0,0,1,59.9,51.9Z"/><path class="cls-3" d="M65.6,89.7c.6,1,2.8,1.4,4.4.9-.4-.1-3.5-1-2.6-3l-1.7,1.6C65.5,89.3,65.5,89.5,65.6,89.7Z"/><path class="cls-7" d="M67.3,87.6c-.2,1.1,2.9,2.6,3.8,2.1l.3-.3c.2-.5-.4-1-.3-1.9s.9-.7,1.2-1.8-.8-1.3.4-4.8c-.1-.3-.3-.4-.7-.3s-.4.7-.8.8-1.1-.7-1.5-1.2A29.1,29.1,0,0,1,68.2,86C67.8,86.9,67.4,87.2,67.3,87.6Z"/><path class="cls-8" d="M67.9,54.5a4.9,4.9,0,0,0-.1-1.2,3.9,3.9,0,0,0-2.2-3.1l-.9-.4-.5-3.9c3.8.8,8.8,4.1,9.4,8.7s-1,4.7-1.1,9.9c0,3.5,2.9,6.5,3.1,7.8s-.2,1.1-2.4,7.3l-.3.8c-.1.2-.1.4-.2.5-1.2,3.5-.1,3.5-.4,4.8s-1.1.7-1.2,1.8.5,1.4.3,1.9l-.3.3c-.9.5-4-1-3.8-2.1s.5-.7.9-1.6a29.1,29.1,0,0,0,1.5-5.8V80a41.7,41.7,0,0,0,.8-7c-.3-1.7-3.7-2.9-6.4-8.1l2.3-4.2A13.2,13.2,0,0,0,67.9,54.5Z"/><path class="cls-9" d="M17.8,8.4a4.2,4.2,0,0,0-1.4.9,4.4,4.4,0,0,0-1,2.2,11.6,11.6,0,0,0,.5,8.4,9.9,9.9,0,0,1,4.5,3.6c1.9,2.9,1.1,6.5,1.4,9.6a12.4,12.4,0,0,1-.3,2.7h0a1.9,1.9,0,0,0-.2.8l-.3.9a18.4,18.4,0,0,0-.5,2.5,21.8,21.8,0,0,0-.4,4.4h0a1.5,1.5,0,0,1,.1.7v.4c.1.3.1.5.2.8v.4c.1.2.1.4.2.6a.4.4,0,0,0,.1.3,3.8,3.8,0,0,0,.3,1,5.8,5.8,0,0,0,.5,1.4l.2.3h0a26.1,26.1,0,0,0,1.7,2.8A38.7,38.7,0,0,0,28.7,57h.1a59,59,0,0,0,6.9,4l1.1.6h.1l2.8,1.2h0l1,.3,2.5.7a29.6,29.6,0,0,0,12.2.7h0l3.3-1.1h.8c2.1,0,4.4,4.3,6.4,3.9l2.8-.6h.2l1.6-.5H71l1.3-.5h.1l1.1-.4h.2l.5-.3a11.3,11.3,0,0,0,2.7-1.3l.8-.5a5.1,5.1,0,0,0,2.5-3.5c.1,0,.1,0,0-.1a.4.4,0,0,0,.1-.3c0-.6-.1-1.2-.1-1.8s-.1-.8-.1-1.2-.1-1-.2-1.5l-.3-1.4a8.3,8.3,0,0,0-.4-1.5,20.9,20.9,0,0,0-3-6.2,18.4,18.4,0,0,0-4.4-4.4l-1-.6A19.2,19.2,0,0,0,62.7,38c-5.8-.6-11.2.9-17.3-2.6l-2-1.4a15.7,15.7,0,0,1-3.1-3.2l-.3-.3-1.5-2.3c-2.8-4.7-5.2-10.8-7.2-15.9l-1.2-.5a12.7,12.7,0,0,0-1-1.2l.7.3,1.1.5-.3-.5-1.2-.8-1.8-.7-.5-.3a8.4,8.4,0,0,0-4-1.4,11.1,11.1,0,0,0-3.6.4A4.7,4.7,0,0,0,17.8,8.4Z"/><path class="cls-2" d="M10.5,27.4a3.6,3.6,0,0,0,1.4,1,1.9,1.9,0,0,0,2.2-.7c1.2-1.4,1.5-.8,4.3-1.9a4.1,4.1,0,0,0,2-2.3,9.8,9.8,0,0,0,.6-2.3l-.7-3.3L18.4,9.5a19.2,19.2,0,0,0-1.9,2c-1.7,2.1-2.7,3.3-3.3,5.1s-1.3,4.1-2,5l-.4.5-.9.8C9.2,23.5,8.9,25.4,10.5,27.4Z"/><path class="cls-10" d="M10.6,22.9h.1c.1,0,.1.1.1.2s-.4,2.4-1,1.6S10,23.6,10.6,22.9Z"/><path class="cls-11" d="M28.8,52.7v4.4c3.3,1.9,13.6,9.5,26.6,7.4a3.8,3.8,0,0,0-1,.3l1-.3c.1-1.1-.1-5.8.2-8s-.4-2.1-3.5,1.2S38.7,62.8,28.8,52.7Z"/><path class="cls-1" d="M62.5,93.5a3.5,3.5,0,0,1-1.1,1c-1.5.5-3.7.2-4.4-.8s-.1-.5.1-.6l1.6-1.6Z"/><path class="cls-9" d="M55.5,58.3c-3.2,9,5.8,16.7,6.1,18.5a45.1,45.1,0,0,1-.7,7.3,37.5,37.5,0,0,1-1.3,5.8,10.2,10.2,0,0,0-.9,1.6c-.1.5.6,1.2,1.4,1.6a3.3,3.3,0,0,0,2.4.5c.9-.7-.2-1.1-.1-2.2s.9-.8,1.2-1.9-.7-1.3.3-4.5l.3-.8c2.4-7.1,2.8-6.8,2.6-8.2s-2.4-3.3-3.1-6v-.3a4.3,4.3,0,0,1-.1-1.6c.2-3.5,1.3-4.2,2.5-6.6"/><path class="cls-3" d="M57,93.6c.6,1,2.8,1.4,4.4.9-.4-.1-3.5-1-2.7-3l-1.6,1.6A.3.3,0,0,0,57,93.6Z"/><path class="cls-7" d="M58.7,91.5c-.2,1.1,2.9,2.6,3.8,2s-.2-1-.1-2.1.9-.8,1.2-1.9-.7-1.3.3-4.5c-.5.2-1.5.7-1.9.3s-.5-1.1-1.1-1.2a37.5,37.5,0,0,1-1.3,5.8A10.2,10.2,0,0,0,58.7,91.5Z"/><path class="cls-10" d="M72.7,69.3c0,.1.3.1.3,0a12.2,12.2,0,0,1,.1-2.7,25.1,25.1,0,0,0,.4,2.7,18.1,18.1,0,0,0,.9,3.1,3.6,3.6,0,0,1,.4.9c.1.1.3.1.3,0a22,22,0,0,1-.6-3.7l.5,1.1a17.8,17.8,0,0,0,.8,4.5H76a21.7,21.7,0,0,0,.1-2.6c0,.1.1-.1.2-.2a23.6,23.6,0,0,0-.1,4.6,7.5,7.5,0,0,0,1-3.3c-.1,1.6-.2,3.2-.2,4.8h.2a10.1,10.1,0,0,1,.3-2.5v.8a13.3,13.3,0,0,0,.1,1.7A12.8,12.8,0,0,0,79,75.1c.1.8.1,1.6.2,2.3h.1c0-1.2.1-2.5.1-3.8a16.4,16.4,0,0,0,.5-2.7c.1,1.4.2,2.9.4,4.3h.2c.2-2.6.1-7.6.1-8.1a38.5,38.5,0,0,1,.7,4.9,57,57,0,0,0-.9-8.3c-.4-2.8.2-5.6.2-8.4a16.7,16.7,0,0,0-1.7-6.9c-.8-1.8-3.9-4.4-5.1-3.7s.5,3.4.7,4.5a17.2,17.2,0,0,1,0,6.4c-.4,2.3-1,4.6-1.4,7a5.4,5.4,0,0,0,.7-1.3v.2l-.3.8A15,15,0,0,0,72.7,69.3Z"/><path class="cls-12" d="M73.5,62.3l.3-.8v-.2l-.6,1.3c.3-2.4.9-4.7,1.3-7a17.2,17.2,0,0,0,0-6.4c-.2-1.1-2.1-3.5-.7-4.5s-.3.8-.1,1.2,2.1,3.1,2.8,6.3c.3.7,1.4,4.7,1.9,5.9s-.2.2-.3,0a11.4,11.4,0,0,1-1-1.9c-.1,2.4-.6,4.8.6,7.1A7.7,7.7,0,0,1,76,59.5v.2a49,49,0,0,0,1.3,5.5,21.1,21.1,0,0,1,1.4,4.9c0,.1-.3.1-.4,0a15.2,15.2,0,0,0-1.6-4.2,10.9,10.9,0,0,1,.5,1.7,12.6,12.6,0,0,1,.6,5.1,27.3,27.3,0,0,0-.3,4.1V76a10.1,10.1,0,0,0-.3,2.5H77c0-1.6.1-3.2.2-4.8a10.2,10.2,0,0,1-.9,3.3,17.7,17.7,0,0,1,0-4.6c-.1.1-.2.3-.2.2a21.7,21.7,0,0,1-.1,2.6h-.2a17.7,17.7,0,0,1-.8-4.6,9.3,9.3,0,0,1-.5-1,22,22,0,0,0,.6,3.7c0,.1-.2.1-.3,0l-.3-.9a11.2,11.2,0,0,1-1-3.1,25.1,25.1,0,0,1-.4-2.7,12.2,12.2,0,0,0-.1,2.7c0,.1-.3.1-.3,0A15,15,0,0,1,73.5,62.3Z"/><path class="cls-6" d="M21.7,50.5l.3.2.5-2.8c-1.4-3.8-1.1-11.6-1-12.1C20.6,39.4,18.8,44.6,21.7,50.5Z"/><path class="cls-13" d="M19.1,16.2v-.3c-.1-.1-.1-.2-.2-.2s-2.5-1.4-3.5,1.5C15.4,17.2,17.4,19.7,19.1,16.2Z"/><path class="cls-14" d="M16.3,17.3s1.2.4,1.6-.1.2-.8.6-1h-.6a1.5,1.5,0,0,0-1.3,0,.9.9,0,0,0-.3,1.2Z"/><path class="cls-15" d="M16.3,17.2a1.2,1.2,0,0,0,1.5-.2,1,1,0,0,0,.1-.9,1.5,1.5,0,0,0-1.3,0A.8.8,0,0,0,16.3,17.2Z"/><path class="cls-16" d="M16.6,16.9a.2.2,0,0,0,.3,0h0a.2.2,0,0,0,0-.3.2.2,0,0,0-.3.1h-.1A.4.4,0,0,0,16.6,16.9Z"/><path class="cls-10" d="M19.5,8.1a11.1,11.1,0,0,1,3.6-.4,8.4,8.4,0,0,1,4,1.4l.5.3,1.8.7,1.2.8a1.6,1.6,0,0,0,1.3.3c.1,0,.2.1.1.1a1.1,1.1,0,0,1-1.1.1l-1.1-.5-.7-.3a12.7,12.7,0,0,1,1,1.2l1.2.5a6.8,6.8,0,0,1,2.4,2.9c.1.1-.1.2-.1.1a15.4,15.4,0,0,0-1.7-1.9,32.7,32.7,0,0,1,3.2,5c.1,0,0,.1,0,.1a14.2,14.2,0,0,1-2.2-2.8l1.4,2.8a7.3,7.3,0,0,1,1.4,1.6l1.4.9c.1,0,0,.2-.1.1l-1-.5a4.5,4.5,0,0,1,.6,3.2A8.1,8.1,0,0,1,38,25a9.4,9.4,0,0,1,2,4h-.1a8.7,8.7,0,0,0-1.4-2.7,8.1,8.1,0,0,0-1.6-1.6,18.1,18.1,0,0,1,1.6,3.5,10.3,10.3,0,0,1,.7,4.2.9.9,0,0,1-.1.5.8.8,0,0,1,.2.4,15,15,0,0,0,1.9,2.5h0A3.2,3.2,0,0,1,40,35a11.1,11.1,0,0,0,.7,1.6V37h.1l-.7-.4a10.1,10.1,0,0,1-2.7-1.9,6,6,0,0,0,1.8,2.1A8.3,8.3,0,0,1,37,35a12.4,12.4,0,0,0-.3,2.7,5.5,5.5,0,0,0,.2,1.8c0,.2-.2.2-.2.1a11.6,11.6,0,0,1-.4-1.8,11,11,0,0,1-.2-1.8l-.3,2a9.7,9.7,0,0,0,.4,2.9,21.5,21.5,0,0,1-1.4-2.6,11.4,11.4,0,0,1-.7-3.2,4.3,4.3,0,0,1-.1.5c0,1,.1,2,.2,3s.1.6.1.9-.1.2-.1.1a3.6,3.6,0,0,1-.4-.9c-.2-.5-.3-1-.5-1.5a8.1,8.1,0,0,1-1,1.8,11.7,11.7,0,0,0,.9-2.4h0a8.5,8.5,0,0,1-2.3,2.7,16.8,16.8,0,0,0,.5-4.5c0,.3-.1.6-.1.9h0a8.4,8.4,0,0,1-2.2,5.2c-.1.1-.2,0-.2-.1a6,6,0,0,0,.8-1.6l-.8.9c0,.1-.1.1-.1,0h0c1.3-1.7,1.1-4,1-6.1a11.5,11.5,0,0,0-.6,3.7c0,.1-.1.2-.2.1s-.1,0-.1-.1a15.6,15.6,0,0,1,.4-5.7,10.9,10.9,0,0,1-2.9,2.3,14,14,0,0,0,2.4-6.9,22.8,22.8,0,0,1-2,4.5c0,.1-.1.1-.1,0s-.1,0,0-.1a18.5,18.5,0,0,0,1.8-7.7,23.6,23.6,0,0,1-2.1,5.2.1.1,0,0,1-.1-.1,32.6,32.6,0,0,0,1.5-4.4,10.5,10.5,0,0,1-.8,1.1c-.9,1.1-2.3,1.7-2.9,3s-.2,0-.1-.1c.7-1.7,2.2-2.6,3-4.3a3.6,3.6,0,0,0,.4-1.1,6.7,6.7,0,0,1-2.8,2.5,22,22,0,0,0,.3-8.1,25.7,25.7,0,0,1-.9,6.7h-.1a31.5,31.5,0,0,0-.6-9.7,16.8,16.8,0,0,1-.1,6.7v.2l-.2-.2a40.5,40.5,0,0,0-.5-6,29.1,29.1,0,0,1-.4,3.1c0,.1-.2.1-.2,0s0-2.4-.1-3.5c0,.5-.1,1.1-.1,1.6s-.3.1-.3-.1a10.3,10.3,0,0,0-.2-3.9l-.4-.9-.5-.9L18.9,8.9l-.6-.4ZM35,20.2a24.4,24.4,0,0,1,1,2.4,2.5,2.5,0,0,1,.2.7A4.7,4.7,0,0,0,35,20.2Zm3.8,11.6a15,15,0,0,0-1.4-5,.8.8,0,0,0-.2-.4c.5,1.7.9,3.4,1.6,5.4Z"/><path class="cls-10" d="M11,16.4a9,9,0,0,0,.8-2.1,9.3,9.3,0,0,0,.1,2.9,20.2,20.2,0,0,0,.7,2.3,6,6,0,0,1,.2-2.3v2c.1.1.2,0,.2-.1s.2-1.7.4-2.6v1A15.3,15.3,0,0,1,15,15l-.3,1.1.9-1.3v2s.9-3.5,2.3-4.9a1.8,1.8,0,0,0,.4-1,2.1,2.1,0,0,0-1-1.4,2,2,0,0,0,.9-.6.3.3,0,0,0,0-.4H18a8.5,8.5,0,0,0-3.9,1.7A8.8,8.8,0,0,0,11.6,13a8.5,8.5,0,0,1,1.6-1.7l-.3.6A4.8,4.8,0,0,0,12,13,4.6,4.6,0,0,0,11,16.4Z"/><path class="cls-5" d="M16.2,9.9a4.9,4.9,0,0,0,.6,2.3l.6,1.2.3.4a1.1,1.1,0,0,0,.9.5h.6a2.3,2.3,0,0,0,1.5-1.7,4.2,4.2,0,0,0-.6-2.7L19.5,9c-.8-.9-1.5-1.2-1.8-3a.3.3,0,0,0-.3-.3h-.3c0,.1-.1.1-.1.2A6.9,6.9,0,0,0,16.2,9.9Z"/><path class="cls-1" d="M16.3,75.4c.1,1.2,1.8,2.6,3.4,3a3.2,3.2,0,0,0,1.4-.3L19,74.3l-2.3.7A.4.4,0,0,0,16.3,75.4Z"/><path class="cls-9" d="M28.8,45.9C26,53,26.2,54.4,25.1,59.4A84.7,84.7,0,0,1,22.6,68c-.9,2.4-1.6,4.1-1.7,4.6-.7,2.1-2,1.4-2.2,1.9s2.5,3.6,2.5,3.6l.4-1.2c.4-.9,1.6-.6,2.2-1.6s-.5-1.2,1-4.9a8.5,8.5,0,0,1,.7-1.5C28.1,63.4,31,57.7,31,57.7"/><path class="cls-3" d="M16.3,75.4c.1,1.2,1.8,2.6,3.4,3-.2-.3-2.5-2.7-.7-4.1l-2.3.7A.4.4,0,0,0,16.3,75.4Z"/><path class="cls-7" d="M18.7,74.5c-.8,1.9,2.5,3.6,2.5,3.6l.4-1.2c.4-.9,1.6-.6,2.2-1.6s-.5-1.2,1-4.9a8.5,8.5,0,0,1,.7-1.5,3,3,0,0,1-1.8.4c-.9-.3-.8-.9-1.1-1.3-.9,2.4-1.6,4.1-1.7,4.6C20.2,74.7,18.9,74,18.7,74.5Z"/></g></g></svg>