<svg xmlns="http://www.w3.org/2000/svg" viewBox="0 0 133 144"><defs><style>.cls-1{fill:#c89572;}.cls-2{fill:#353535;}.cls-11,.cls-13,.cls-3,.cls-5{fill:none;stroke-miterlimit:10;}.cls-11,.cls-3{stroke:#a33322;}.cls-3{stroke-width:0.13px;}.cls-4{fill:#602f28;}.cls-5{stroke:#000;stroke-width:0.09px;}.cls-6{fill:#8b6339;}.cls-7{fill:#86604e;}.cls-8{fill:#e7e5e9;}.cls-9{fill:#101010;}.cls-10{fill:#fff;}.cls-11{stroke-width:0.13px;}.cls-12{fill:#272727;}.cls-13{stroke:#86604e;stroke-width:0.3px;}</style></defs><g id="Calf_Pose03_F02"><path class="cls-1" d="M39.4,67.7c-.3.3-1.6.1-1.4,1.3v.3c.5,1.2,2.5,2.7,3.5,2.3l.6-.4c.5-.4.5-1.2.5-1.9,6.2-6.9,9.5-6.8,9.5-6.8s7.6-3,6.9-5L53.4,54s-4.8,4.9-6.3,5.1-2.4,2.2-2.6,3.3S39.8,67.4,39.4,67.7Z"/><path class="cls-2" d="M36.9,70.6c-.7,1.5.6,4.5,1.3,5s1.2-1.4,1.3-.9a1.3,1.3,0,0,0,1.3.8c1.3-1.1,1.4-4.1,1.4-4.3l-.6.4c-1,.4-3-1.1-3.5-2.3S37.4,69.3,36.9,70.6Z"/><path class="cls-3" d="M58.4,70.8h0"/><path class="cls-1" d="M44.5,40c-1.3,2-1.4,9.4-2.3,12.2a16.7,16.7,0,0,1-2.6,5l.3-.9s-.2-.2.1-.8.3-1.6.8-3.1.7-8.6,1.9-12.4a13.2,13.2,0,0,1,2.2-4.3A8.8,8.8,0,0,1,47,33.8c3.4-2.4,3.8.9,1.3,2.2a9.8,9.8,0,0,0-3.8,4"/><path class="cls-4" d="M41.8,51.9c-2.7,2.3-2.5,4.1-3.7,6.3-.2.3.6-.2,1-1.4a4.1,4.1,0,0,1-.9,2.4c-.5.7.1.2.7-.4a1.6,1.6,0,0,1-.3.8,4.4,4.4,0,0,0,.7-.9,3.8,3.8,0,0,1-1.8,2.2c-.7.4,2.5-.6,2.5-3.1a3.4,3.4,0,0,1-.6,2.6,2.8,2.8,0,0,0,1.1-1.7,1.7,1.7,0,0,1-.1.7c0,.1.2.1.2,0s.1-2.8.4-4.5a24.5,24.5,0,0,0,.2,2.7c0,.1.2.1.2,0s-.5-3.7.7-5-.3.8-.3.5.6-1,.5-1.1-.9.9-1.1.9.6-1,.6-1"/><path class="cls-2" d="M82.5,92.9c1.1,3.4,4.5,3.9,4.3,3.6a13.1,13.1,0,0,1,0-2.8,7.1,7.1,0,0,0,2,1.1c.1-2.2-1.6-3.8-2.1-4.3S86,92.8,82.5,92.9Z"/><path class="cls-1" d="M81.4,91.8a1.9,1.9,0,0,0,1.1,1.1h0c3.5-.1,4.2-1.6,4.2-2.4a.3.3,0,0,1-.1-.2c0-.2-.4-1.7-.6-2.4a12.5,12.5,0,0,1-.2-5.3c1.8-1.9.9-6,.9-6.7a41.4,41.4,0,0,0,1.2-4.8c-.6.3-4,1.9-6.4,1.7.1,0,.1,0,.1.1s.9,3.1,1.1,4.6a5.5,5.5,0,0,0,.2,5.3c.7.9-.2,5.1-.2,6S81.2,91.2,81.4,91.8Z"/><path class="cls-2" d="M47.5,76a2.7,2.7,0,0,0,.7,1.8c1.7,2.8,4.5,3.7,4.5,3.3a29.3,29.3,0,0,0-.9-3.3s3,2,3,1.5a4,4,0,0,0-2.7-4C51.7,76.2,50.3,78,47.5,76Z"/><path class="cls-2" d="M77.8,88.8c-.5,0-.7.5-.8.7s-1.1.3-1.2,1.1.5,2.5,1,2.5.6-1.6.7-1.1a3.4,3.4,0,0,0,.5,1.4l1.3-1c1-.6.7-2,1-2.6A2.4,2.4,0,0,1,77.8,88.8Z"/><path class="cls-1" d="M43.4,50.6c2.6,5.8,0,9.1,0,10.4s-.3,3.6.8,4.8a44,44,0,0,1,2.1,4.3c1,2.4,1.4,3.9,1.2,5.4V76c2.8,2,4.2.2,4.6-.7H52a3.2,3.2,0,0,0-.4-1c-.4-.9-3.9-7.4-4.4-10.1,6-2,4.9-6.1,5.4-8"/><path class="cls-1" d="M51.9,56.3a4.4,4.4,0,0,1,5,1.1,34.8,34.8,0,0,0,14,9.9,1.1,1.1,0,0,1,.3.5,22.6,22.6,0,0,1-.1,2.5c0,1.1-.2,2.7-.2,4s-.7,4.1.2,5.4,6.2,5.2,7.6,6.2-.1,1.2-1,2.3-.1.5-1.1,1.2.7,1.3.9,1.4c2.9,1.1,2.8-.5,2.8-1a2.6,2.6,0,0,0,.7-1,7,7,0,0,0,.1-3.2c-.3-1.8-3.3-4.4-4-5.5s0-3.8.7-5.3a3.9,3.9,0,0,1,2.1-2.2,3.5,3.5,0,0,1,1.6.2c2.4.2,5.8-1.4,6.4-1.7,3-2.8,3-7.5,3.9-7.5a10.2,10.2,0,0,1,2.8,1.1c.4.2,0,1.5,2.8,2.1s4.7-1.5,4.7-2.1a3,3,0,0,1,.3-1.2c.1-.2.2-.6.4-1s.1-.3.1-.4a3.8,3.8,0,0,0-.8-3.7,45.5,45.5,0,0,1-4.5-5.8c-.9-1.3-.2-2.1-.2-3.2S95,46.2,95,45.9c2.6-.8,2.8-3.8,2.4-4.3s-5.2-.2-7.8,1.1c-4.3-.9-7.7,4.5-7.7,4.5A12.1,12.1,0,0,0,76,44.6c-5-.8-8.9-5.7-12-8.1a22.4,22.4,0,0,0-6-3.6,15.9,15.9,0,0,0-3.7-1.1,9.8,9.8,0,0,0-2.2.2,13.8,13.8,0,0,0-5.8,2.5c-4,3.3-3.6,11.3-2.9,16.1"/><path class="cls-5" d="M54.2,31.6h.1"/><path class="cls-6" d="M95,46l-2.7-1.6L91,43.5l-1.4-.7a5.9,5.9,0,0,1,1.4.6l1.4.8Z"/><path class="cls-7" d="M81.9,47.3a11.5,11.5,0,0,0-3.2.2,14.5,14.5,0,0,0-2.9,1.1,7.9,7.9,0,0,0-3.7,4.8h0c-.1,0,.1.3.3.4l.7.3,1.4.4a14,14,0,0,0,2.9,0,13.1,13.1,0,0,0,2.8-.9A13.2,13.2,0,0,0,82.7,52h0a1.5,1.5,0,0,1,1.2-.7,3.2,3.2,0,0,1,1.4.3,3.2,3.2,0,0,0-1.4-.3,1.5,1.5,0,0,0-1.1.8h0a10.9,10.9,0,0,1-5.4,2.6,7.6,7.6,0,0,1-3,0,8,8,0,0,1-1.5-.3l-.6-.4c-.2-.1-.3-.1-.4-.3s-.2-.2-.1-.5h0a9.4,9.4,0,0,1,1.5-2.8,7.9,7.9,0,0,1,2.4-2.1A11.1,11.1,0,0,1,81.9,47.3Z"/><path class="cls-7" d="M82.1,56.5a8.4,8.4,0,0,0,1.5,2.8,8,8,0,0,0,2.3,2.2,9.2,9.2,0,0,0,2.8,1.4,15.7,15.7,0,0,0,3.1.8l-1.6-.2-1.6-.4a8.6,8.6,0,0,1-2.9-1.4,9.7,9.7,0,0,1-2.3-2.2A8.1,8.1,0,0,1,82.1,56.5Z"/><path class="cls-7" d="M96.9,59.1a10.8,10.8,0,0,0-1.8-2.4,3.5,3.5,0,0,0-2.7-1.3h0l-.4-.3a.2.2,0,0,0-.2-.2l-.4-.6a10.5,10.5,0,0,0-.8-1.1,4.7,4.7,0,0,0-1-1,2.8,2.8,0,0,0-1.3-.4,2.2,2.2,0,0,1,1.4.3l1,.9.9,1.1.4.6.3.2a.3.3,0,0,0,.1.2h0a2.9,2.9,0,0,1,1.6.4,4,4,0,0,1,1.2,1A10.6,10.6,0,0,1,96.9,59.1Z"/><path class="cls-8" d="M87.5,55c2.3,3.1,4.4-.4,4.4-.4L91,53.5l-.5-.6a2.5,2.5,0,0,0-2,.6A2.8,2.8,0,0,0,87.5,55Z"/><path class="cls-9" d="M88.4,54A1.3,1.3,0,1,0,91,54v-.5l-.5-.6a2.5,2.5,0,0,0-2,.6A4.3,4.3,0,0,0,88.4,54Z"/><ellipse class="cls-10" cx="88.6" cy="54" rx="0.4" ry="0.3"/><path class="cls-7" d="M82,48.7a2.9,2.9,0,0,0-1.3,0H79.5l-2.5.7a9.4,9.4,0,0,0-2.2,1.2,10.5,10.5,0,0,0-1.7,1.9,6.5,6.5,0,0,1,1.6-2.1l2.2-1.3a11.4,11.4,0,0,1,2.5-.6A5.7,5.7,0,0,1,82,48.7Z"/><path class="cls-11" d="M81.4,72.8h.1"/><path class="cls-11" d="M87.9,71.1H88"/><path class="cls-1" d="M51.9,56.5s1.3-6.8-1.9-10.3"/><path class="cls-7" d="M102.1,64.9a6.8,6.8,0,0,1-2,.7,3.7,3.7,0,0,1-2.1-.3h-.1a5.9,5.9,0,0,0-1.2-2,3.7,3.7,0,0,1,1.4,1.9h0a3.4,3.4,0,0,0,2,.3Z"/><path class="cls-7" d="M79.8,72.7a10.3,10.3,0,0,1,.6-3.5,5.1,5.1,0,0,1,1.9-3,5.2,5.2,0,0,0-1.8,3,13.4,13.4,0,0,0-.4,3.5Z"/><path class="cls-7" d="M71.1,68.2V65a18.3,18.3,0,0,0-.2-3.3,18.6,18.6,0,0,1,.4,3.3c0,1.1.1,2.2.1,3.2Z"/><path class="cls-12" d="M103.1,61a3.3,3.3,0,0,1-4.5.2,2.4,2.4,0,0,1,.2,1.5c-.2.6,1.9.8,2.3,0s1.5.6,1.8-.5"/><path class="cls-13" d="M71.2,67.8a1.1,1.1,0,0,0-.3-.5,34.4,34.4,0,0,1-12.8-8.6"/><path class="cls-13" d="M80.6,72.6s-2.2-.1-2.6,1.3-1.2,3.4-1.5,4.7,4,4.6,4.6,7a6,6,0,0,1-.8,4c-.4.3-.2.8-.3,1.6s-2,2.2-2,2.2a3.7,3.7,0,0,0-.5-1.4c-.5-.6-.1.6-.7,1.1s-.8-1.1-1-1.9,1.9-2.7,3.1-4.6-2.4-2.7-4.2-3.7-4.3-2.3-4.1-4.7.7-2.2.7-3.7.2-6.7-.6-7.5-1.8-1.8-1.8-2.8"/><path class="cls-13" d="M52.5,56.1l-.6.2v.2h0A26.1,26.1,0,0,1,47.5,65c.5,2.9,3.7,8.3,4.1,9.2a3.2,3.2,0,0,1,.4,1h.1a4,4,0,0,1,2.7,4c0,.5-3-1.5-3-1.5a29.3,29.3,0,0,1,.9,3.3c0,.4-2.8-.5-4.5-3.3a2.7,2.7,0,0,1-.7-1.8v-.5c.2-1.5-.8-4.4-1.8-6.6-.2-.5-2.2-4.5-2.4-4.7s.6-6.3,1.4-7c0-3.6-.2-2.9-1.2-5.7a16.7,16.7,0,0,1-.5-4.2,36.9,36.9,0,0,1-.7,4.7h0c.1.1-.1.3-.2.5h0c0-.1-.1.2-.2.4a6.9,6.9,0,0,1-.5,1.3,18.2,18.2,0,0,0,0,3.3c0,.1-.2.1-.2,0A24.6,24.6,0,0,1,41,55h0c-.3,1.7.1,3.1-.4,4.4s-.2.1-.2,0a1.7,1.7,0,0,0,.1-.7,2.8,2.8,0,0,1-1.1,1.7,3.4,3.4,0,0,0,.6-2.6c0,2.5-3.2,3.5-2.5,3.1a3.8,3.8,0,0,0,1.8-2.2,4.4,4.4,0,0,1-.7.9,1.6,1.6,0,0,0,.3-.8c-.6.6-1.2,1.1-.7.4a4.1,4.1,0,0,0,.9-2.4c-.4,1.2-1.2,1.7-1,1.4,1-1.8,1-3.4,2.5-5.1a2.5,2.5,0,0,0,.2-.7c1.1-2.8.7-8.6,1.9-12.4a13.2,13.2,0,0,1,2.2-4.3A8.8,8.8,0,0,1,47,33.8a3.5,3.5,0,0,1,2-.8,12.5,12.5,0,0,1,3.1-1,9.8,9.8,0,0,1,2.2-.2A15.9,15.9,0,0,1,58,32.9a22.4,22.4,0,0,1,6,3.6c3.1,2.4,7,7.3,12,8.1a12.1,12.1,0,0,1,5.9,2.6s3.4-5.4,7.7-4.5c2.6-1.3,7.3-1.5,7.8-1.1s.2,3.5-2.4,4.3c0,.3,2.4,2.4,2.4,3.5s-.7,1.9.2,3.2a45.5,45.5,0,0,0,4.5,5.8,3.8,3.8,0,0,1,.8,3.7h0a.4.4,0,0,0-.1.3h0c-.2.4-.3.8-.4,1a3,3,0,0,0-.3,1.2v.2h0a4.3,4.3,0,0,1-4.7,1.9c-2.8-.6-2.4-1.9-2.8-2.1a10.2,10.2,0,0,0-2.8-1.1h-.1c-.8.5-.9,4.9-3.8,7.5,0,0-.7,4.2-1.2,5s.9,4.1-.5,6a14.6,14.6,0,0,0-.2,5.8c.2.7.6,2.2.6,2.4a.3.3,0,0,0,.1.2c.5.5,2.2,2.1,2.1,4.3a7.1,7.1,0,0,1-2-1.1,13.1,13.1,0,0,0,0,2.8c.2.3-3.2-.2-4.3-3.6h0a1.9,1.9,0,0,1-1.1-1.1c-.2-.6,1.3-1.9,1.3-2.8s.9-5.3.2-6.2a6,6,0,0,1-.2-5.5c-.2-1.5-.6-4-1.1-4.4s0-.1-.1-.1a1.3,1.3,0,0,0-.9-.2"/><path class="cls-13" d="M44.7,67.4l-2,1.7c0,.7.1,1.4-.4,1.9s0,3.1-1.1,4.4a1.3,1.3,0,0,1-1.4-.8c-.2-.4-.5,1.4-1.2,1s-2.2-3.4-1.6-4.9,1.1-1.4,1.1-1.4V69c-.3-1.2,1.1-1.1,1.4-1.4l3.9-3.4"/><path class="cls-13" d="M48.8,63.9a5.9,5.9,0,0,1,2.8-1.1c1.6-.1,6.7-3.7,6.7-3.7"/></g></svg>