<svg id="Layer_1" data-name="Layer 1" xmlns="http://www.w3.org/2000/svg" xmlns:xlink="http://www.w3.org/1999/xlink" viewBox="0 0 100.8 152.1"><defs><style>.cls-1{fill:#d0e8ec;opacity:0.2;}.cls-2{opacity:0.8;}.cls-3{fill:#efb49a;}.cls-3,.cls-4{stroke:#9e4d2d;stroke-miterlimit:10;}.cls-4{fill:url(#linear-gradient);}.cls-5{fill:url(#linear-gradient-2);}.cls-6{fill:#933d18;}.cls-7{fill:#231f20;}.cls-8{fill:#d82e2a;}.cls-9{fill:#b22424;}.cls-10{fill:#ef4136;}</style><linearGradient id="linear-gradient" x1="-29.43" y1="204.17" x2="41.33" y2="204.17" gradientTransform="translate(25 -127.9) rotate(-5.4)" gradientUnits="userSpaceOnUse"><stop offset="0.19" stop-color="#ffd"/><stop offset="0.26" stop-color="#fff6d8"/><stop offset="0.41" stop-color="#ffe8cf"/><stop offset="0.54" stop-color="#ffe3cc"/><stop offset="0.67" stop-color="#ffe8d2"/><stop offset="0.83" stop-color="#fff8e3"/><stop offset="0.89" stop-color="#ffffea"/></linearGradient><linearGradient id="linear-gradient-2" x1="3.4" y1="140.07" x2="16.13" y2="140.07" gradientTransform="translate(25 -127.9) rotate(-5.4)" gradientUnits="userSpaceOnUse"><stop offset="0.14" stop-color="#ffe3cc"/><stop offset="0.3" stop-color="#ffddc9"/><stop offset="0.51" stop-color="#ffccbf"/><stop offset="0.52" stop-color="#ffccbf"/><stop offset="1" stop-color="#ffe3cc"/></linearGradient></defs><path class="cls-1" d="M81.2,135.6c5.2,1.3,32.2,14.6-51.6,10.9C62.7,150.6,127.2,146.1,81.2,135.6Z"/><path class="cls-1" d="M8.9,137.6c-2,.5-12.6,6.9,18.1,8.3C14.8,146.8-8.4,141.6,8.9,137.6Z"/><path class="cls-3" d="M85.7,80.5c-7-1.4-16.5-3.3-19.8,1.8-1.5,2.3,3.3-5.1,5.5-4.6,5.9,1.1-1.7,8.8,3.8,21.3,2.5,5.7,9,12.5,8.8,18.8,6.6-10.1,6.6-13,3.4-20.9,2.2,2.9,5.7,5.3,7,8.8,1-4,1.4-7.2-.2-11.7,1.2,1.1,2.4,2.7,3.7,3.8C99.8,90.2,91.2,81.6,85.7,80.5Z"/><path class="cls-3" d="M23.4,110.4c-6-.5-11.6,2.4-18.7-.5,1.8,4.9,6.4,7.5,11,10.1a24.3,24.3,0,0,0-4-.5,6.2,6.2,0,0,0,4.3,2.2H14.3c1.7,2.3,8.8,4.5,10.8,1.8S24,115.2,24,113Z"/><path class="cls-4" d="M80,35.9a31.7,31.7,0,0,1-7.1-8c-2.5-3.6-4.8-7.3-8.7-9.8S55,12.8,48.4,13.4a35.2,35.2,0,0,0-14.2,4.4c-5.1,3.1-9,8.1-10.1,13.5s.9,9.5,1.2,14.1a25.3,25.3,0,0,1-.1,5.5c-.3,2.8-3,4.7-1.2,7.5s5.6,4.2,9,5.3a41.6,41.6,0,0,0,14.1,1.6c-.3,7.8-5,15.9-10.4,22-9.7,11-28.4,36.1-9.1,46.6,17.8,9.7,41.6-4.8,48.2-18.5,4.4-9.3,3.5-23.2.2-32.8C73.5,75,68.8,68,66.7,60.3a44.1,44.1,0,0,0,8.6-7.4,28.7,28.7,0,0,0,6.1-9,13.3,13.3,0,0,0,1-4.8C82.4,37.2,81.5,37,80,35.9Z"/><path class="cls-5" d="M42.2,14.7c2.4-4.3,8.2-5.5,9.8-10.6,1.4,2,.1,4.5-1.2,6.3a15.5,15.5,0,0,0,2.4-1.9c.4,1.1-.6,2.4-1.4,3.5a6.6,6.6,0,0,0,2.6-1.5c.2,7.3-7.3,4.8-12.1,6.7Z"/><path class="cls-6" d="M42.2,14.7c2.2-4.3,8-5.9,9.4-10.7l.2-.8.5.7a3.9,3.9,0,0,1,.5,3.6,9.6,9.6,0,0,1-1.6,3.2l-.7-.7a14.3,14.3,0,0,0,2.4-1.9l.5-.5.3.7c.4,1.5-.7,2.9-1.5,4l-.5-.8a7.5,7.5,0,0,0,3.2-2.1c.1,3.7-.9,6.3-4.8,6.9s-5.4.2-7.9,1.1V14.7Zm0,0,.2,2.5h-.2c4.2-1.9,12.1.2,11.8-6.6l.7.3a7.6,7.6,0,0,1-4.1,2,26.1,26.1,0,0,0,1.9-2.7,2,2,0,0,0,.2-1.5l.9.2A21.5,21.5,0,0,1,49,12.1C50.4,10,53.3,7,51.6,4.4h.8c-1.6,5-7.5,6.2-10.2,10.4Z"/><path class="cls-7" d="M55.8,38.9c1,1.4,1.1,3,.3,3.4s-2.3-.3-3.2-1.7-1.1-3-.3-3.5S54.8,37.4,55.8,38.9Z"/><path class="cls-7" d="M73.3,29.1c.8,1.5.8,3.1-.1,3.5s-2.2-.5-3-2.1-.8-3.1.1-3.4S72.5,27.6,73.3,29.1Z"/><path class="cls-8" d="M73.8,36.1h-.3a7.2,7.2,0,0,0-4.6,1.2,8.2,8.2,0,0,0-3,4.1c-1,2.6,1.7,5,4.3,5.3s4.7-.2,7.1.1,4.9,1.4,3.9-2.1a13.4,13.4,0,0,0-3.7-5.5C76.5,38.1,75.4,36.5,73.8,36.1Z"/><path class="cls-9" d="M68.8,42.2c.3,1.1,1.9,1.4,2.9,1.4,2.6.1,4.2-.6,6.4,1,.2-1.2-3.2-5.9-4.5-5.8s-1.6,1.9-2.1,2.4a9.5,9.5,0,0,1-2.4,1Z"/><path class="cls-10" d="M73.6,23.8c-1.1,1.6.6,4.2-.8,6.4s-3.3,2.4-4.9,3.7a6.9,6.9,0,0,0-1.7,2.3c-1.4,2.1-1.7,7.6,1.1,7.7s3.4-1.8,4.8-3,3.1-2.4,4.8-3.6,4.2-5.1,3.1-8.4C79.5,27.3,75.2,21,73.6,23.8Z"/><path class="cls-3" d="M28.5,81.8c6.4-3.2,15.1-7.4,19.6-3.4,2.1,1.9-4.5-4-6.5-3-5.4,2.6,4,8,1.8,21.5-1,6.2-5.5,14.4-3.7,20.5-8.9-8.1-9.7-10.9-8.6-19.3-1.4,3.3-4.2,6.5-4.5,10.3-2-3.7-3.2-6.7-2.8-11.5-.9,1.4-1.7,3.3-2.6,4.7C17.4,94.7,23.5,84.2,28.5,81.8Z"/></svg>