<svg xmlns="http://www.w3.org/2000/svg" xmlns:xlink="http://www.w3.org/1999/xlink" viewBox="0 0 84 66"><defs><style>.cls-1{mask:url(#mask);filter:url(#luminosity-noclip-3);}.cls-2,.cls-4{mix-blend-mode:multiply;}.cls-2{fill:url(#linear-gradient);}.cls-3{mask:url(#mask-2);filter:url(#luminosity-noclip-5);}.cls-4{fill:url(#linear-gradient-2);}.cls-5{isolation:isolate;}.cls-11,.cls-6{fill:#e5c9b3;}.cls-6{stroke:#cca98b;}.cls-17,.cls-18,.cls-6{stroke-miterlimit:10;}.cls-17,.cls-6{stroke-width:0.25px;}.cls-17,.cls-7{fill:#ffe9d0;}.cls-8{fill:#827a6e;}.cls-9{fill:#b3b3b3;opacity:0.5;}.cls-15,.cls-9{mix-blend-mode:screen;}.cls-10{mask:url(#mask-3);}.cls-12{mask:url(#mask-4);}.cls-13{mask:url(#mask-5);}.cls-14{mask:url(#mask-6);}.cls-15{opacity:0.32;}.cls-16{fill:#fff;}.cls-17{stroke:#e2c4a6;}.cls-18{fill:none;stroke:#b29a8d;stroke-width:0.3px;}.cls-19{filter:url(#luminosity-noclip-6);}.cls-20{filter:url(#luminosity-noclip-4);}.cls-21{filter:url(#luminosity-noclip-2);}.cls-22{filter:url(#luminosity-noclip);}</style><filter id="luminosity-noclip" x="22.33" y="-7087" width="11.58" height="32766" filterUnits="userSpaceOnUse" color-interpolation-filters="sRGB"><feFlood flood-color="#fff" result="bg"/><feBlend in="SourceGraphic" in2="bg"/></filter><mask id="mask" x="22.33" y="-7087" width="11.58" height="32766" maskUnits="userSpaceOnUse"><g class="cls-22"/></mask><linearGradient id="linear-gradient" x1="-329.14" y1="8.01" x2="-317.57" y2="8.01" gradientTransform="matrix(-1, 0, 0, 1, -295.24, 0)" gradientUnits="userSpaceOnUse"><stop offset="0" stop-color="#fff"/><stop offset="1"/></linearGradient><filter id="luminosity-noclip-2" x="20.04" y="-7087" width="4.45" height="32766" filterUnits="userSpaceOnUse" color-interpolation-filters="sRGB"><feFlood flood-color="#fff" result="bg"/><feBlend in="SourceGraphic" in2="bg"/></filter><mask id="mask-2" x="20.04" y="-7087" width="4.45" height="32766" maskUnits="userSpaceOnUse"><g class="cls-21"/></mask><linearGradient id="linear-gradient-2" x1="-317.61" y1="8" x2="-317.38" y2="9.41" xlink:href="#linear-gradient"/><filter id="luminosity-noclip-3" x="22.33" y="4.91" width="11.58" height="6.2" filterUnits="userSpaceOnUse" color-interpolation-filters="sRGB"><feFlood flood-color="#fff" result="bg"/><feBlend in="SourceGraphic" in2="bg"/></filter><mask id="mask-3" x="22.33" y="4.91" width="11.58" height="6.2" maskUnits="userSpaceOnUse"><g class="cls-1"><path class="cls-2" d="M29.3,6.6l.7.3a7.3,7.3,0,0,1,3.4-2l.3.4c.5,1.2-.1,3.3-.4,4.4l.6,1.4C31,7.1,23.7,9.6,23.7,9.6s-.7.2-1.4-1.2A9.7,9.7,0,0,1,29.3,6.6Z"/></g></mask><filter id="luminosity-noclip-4" x="19.7" y="-7087" width="3.11" height="32766" filterUnits="userSpaceOnUse" color-interpolation-filters="sRGB"><feFlood flood-color="#fff" result="bg"/><feBlend in="SourceGraphic" in2="bg"/></filter><mask id="mask-4" x="19.7" y="-7087" width="3.11" height="32766" maskUnits="userSpaceOnUse"><g class="cls-20"/></mask><filter id="luminosity-noclip-5" x="20.04" y="6.61" width="4.45" height="3.97" filterUnits="userSpaceOnUse" color-interpolation-filters="sRGB"><feFlood flood-color="#fff" result="bg"/><feBlend in="SourceGraphic" in2="bg"/></filter><mask id="mask-5" x="20.04" y="6.61" width="4.45" height="3.97" maskUnits="userSpaceOnUse"><g class="cls-3"><path class="cls-4" d="M24.5,10.6s-2.1-4.3-4.5-4C21.1,6.7,22.9,7.9,24.5,10.6Z"/></g></mask><filter id="luminosity-noclip-6" x="18.78" y="-7087" width="5.85" height="32766" filterUnits="userSpaceOnUse" color-interpolation-filters="sRGB"><feFlood flood-color="#fff" result="bg"/><feBlend in="SourceGraphic" in2="bg"/></filter><mask id="mask-6" x="18.78" y="-7087" width="5.85" height="32766" maskUnits="userSpaceOnUse"><g class="cls-19"/></mask></defs><g class="cls-5"><g id="catF6_04"><path class="cls-6" d="M59.9,39.7s-2.1,4.2-5.1,3.8-4.5,3-3.7,4.2-1.3.6-5.2.4c-2.2-.2-3.2-1.1-3.6-1.8a1.4,1.4,0,0,1,.2-1.6c1.3-1.6,2.3-.1,2.3-.1h2a1.1,1.1,0,0,0,1-.9l.2-1.6a1.9,1.9,0,0,1,.8-1.6l2.6-2s1-1,.3-1.5"/><path class="cls-6" d="M29.6,27.5s-1.7,10-3.4,11c.1,0-5-.7-3.5,1.7s4.2,3.3,5.3,2,7.8-8,8.6-11"/><path class="cls-7" d="M29.5,6.6l1,.3a5.5,5.5,0,0,1,2.8,2.8c.3-1.1.9-3.2.4-4.4S30.8,5.4,29.5,6.6Z"/><path class="cls-8" d="M17.4,15.2c0,2.8,1.9,5.1,4.3,5.1s4.4-2.3,4.4-5.1-2-5.1-4.4-5.1S17.4,13.2,17.4,15.2Z"/><path class="cls-9" d="M21.2,17.2a4.9,4.9,0,0,1-.8,2.8,4.8,4.8,0,0,1-3-4.8,3.9,3.9,0,0,1,.3-1.4,1.7,1.7,0,0,1,1-.3C20.1,13.5,21.2,15.1,21.2,17.2Z"/><path class="cls-7" d="M25.9,31.2h0c.1.1.1.3.2.4l.3.9a15.1,15.1,0,0,0,2.9,2.8A15.4,15.4,0,0,0,33,37.1l.9.2h2.4c.1,0,.2,0,.2.1H38l.6.2H39a12.1,12.1,0,0,1,3,1.1c1.4.7,10.9,7.1,15,6.5l1.6-.3a8,8,0,0,0,5.2-3.8c1.1-1.8,1.5-4.5.8-8.2h0c0-.1-.1-.3-.1-.4h0A15.4,15.4,0,0,0,64,31l-.5-1.1a3.5,3.5,0,0,0-.5-.8h0c0-.1-.1-.1-.1-.2A12.9,12.9,0,0,0,61.3,27c-3.1-3-5.5-2-11.5-4.5a47.6,47.6,0,0,1-10.1-5.1,6.8,6.8,0,0,0-4.5-1.7h-1l-1.1.4a14.8,14.8,0,0,0-6.6,6.4,11.1,11.1,0,0,0-.7,1.6h0c-.1.5-.3,1.2-.4,1.8A12.9,12.9,0,0,0,25.9,31.2Z"/><path class="cls-7" d="M20.1,19.9h0a4.8,4.8,0,0,0,4.6,2,.4.4,0,0,0,.1.3v.3a.1.1,0,0,1,.1.1l.2.5v.2h.1c0,.1,0,.2.1.2v.2l.3.4h.1c.6.7,1.1,1,1.3,1h0a.8.8,0,0,0,.4-.4l7.5-8.8h.1v-.2a24,24,0,0,0-1.9-6,5.5,5.5,0,0,0-2.8-2.8l-1-.3a8.8,8.8,0,0,0-3.6.1l-.5.2a8.5,8.5,0,0,0-2.2.9,14.3,14.3,0,0,0-3.5,3h0V11h-.1a4.4,4.4,0,0,0-.8,2.3A9.4,9.4,0,0,0,20.1,19.9Z"/><path class="cls-9" d="M24.7,21.9h-.1c1.7-.3,2,.9,2,.9l-.5,1.7A5.2,5.2,0,0,1,24.7,21.9Z"/><g class="cls-10"><path class="cls-11" d="M29.3,6.6l.7.3a7.3,7.3,0,0,1,3.4-2l.3.4c.5,1.2-.1,3.3-.4,4.4l.6,1.4C31,7.1,23.7,9.6,23.7,9.6s-.7.2-1.4-1.2A9.7,9.7,0,0,1,29.3,6.6Z"/></g><path class="cls-7" d="M25.3,11.1s-2.5-3.9-4.5-4.4-.1,5.5-.1,5.6C22.2,12.4,25.3,11.1,25.3,11.1Z"/><path class="cls-11" d="M20.8,10.9s-1.5-2.4-1-3.6,3.2,2.3,3,4.6a2.8,2.8,0,0,1-.5-.9,1,1,0,0,0-.1.4,6.5,6.5,0,0,1-.2-1.1l-.2.8a2.1,2.1,0,0,1-.1-.6.5.5,0,0,0-.1.5,6.8,6.8,0,0,1-.7-2,5.3,5.3,0,0,0,.4,1.9l-.5-.6A1.1,1.1,0,0,1,20.8,10.9Z"/><g class="cls-12"><path class="cls-11" d="M20.8,10.9s-1.5-2.4-1-3.6,3.2,2.3,3,4.6a2.8,2.8,0,0,1-.5-.9,1,1,0,0,0-.1.4,6.5,6.5,0,0,1-.2-1.1l-.2.8a2.1,2.1,0,0,1-.1-.6.5.5,0,0,0-.1.5,6.8,6.8,0,0,1-.7-2,5.3,5.3,0,0,0,.4,1.9l-.5-.6A1.1,1.1,0,0,1,20.8,10.9Z"/></g><g class="cls-13"><path class="cls-9" d="M24.5,10.6s-2.1-4.3-4.5-4C21.1,6.7,22.9,7.9,24.5,10.6Z"/></g><path class="cls-11" d="M18.8,13.7c.1-1.3,1.5-3.5,4.8,1.5h-.3a4.8,4.8,0,0,1,1.3,3,2.3,2.3,0,0,1-.2-.7,15.2,15.2,0,0,1,0,3.3,3.1,3.1,0,0,0-.2-.7,2.2,2.2,0,0,1-1.7,1.6C22,21.5,18.4,19.1,18.8,13.7Z"/><g class="cls-14"><path class="cls-11" d="M18.8,13.7c.1-1.3,1.5-3.5,4.8,1.5h-.3a4.8,4.8,0,0,1,1.3,3,2.3,2.3,0,0,1-.2-.7,15.2,15.2,0,0,1,0,3.3,3.1,3.1,0,0,0-.2-.7,2.2,2.2,0,0,1-1.7,1.6C22,21.5,18.4,19.1,18.8,13.7Z"/></g><g class="cls-15"><path class="cls-16" d="M25.4,6.9c.3-.1,8-1.3,8.7,8.8h.1l.9.3c1.3.3,3.4.7,4.4,2s8.1,5.9,17.9,7.4c1,.5,3.3,1.2,4.7,3.3h.8A12.9,12.9,0,0,0,61.3,27c-3.1-3-5.5-2-11.5-4.5a47.6,47.6,0,0,1-10.1-5.1,6.8,6.8,0,0,0-4.5-1.7,24,24,0,0,0-1.9-6,5.5,5.5,0,0,0-2.8-2.8l-1-.3a8.8,8.8,0,0,0-3.6.1Z"/></g><path class="cls-17" d="M62.7,39.6s.7,4.7-4.6,7a2.9,2.9,0,0,0,.2,3.3l.5.6s2.8-1.6,1.8,3a3.7,3.7,0,0,0,.8,2.9c1.1,1.2-1.6,2.5-3.2.5s-1.3-3.5-1.3-3.5-6.7,0-5.9-6.8,1.8-9.1,1.8-9.1"/><path class="cls-17" d="M35.2,28.2s-2.2,1.4,2.2,7.6c0,0,2.3.7.2,4.1s-2.9,5.5-3.9,7-2.6,2.8-5.1,2.2-2-.6-3.2-1.1-.2-2.7,3.2-2.4c1,.1,1.7-1.1,1.8-2.1s.7-5.5.3-5.6S25,31,27.2,27"/><path class="cls-7" d="M62.5,29a23,23,0,0,1,2.8,9.3c.3,5.1,3.7,10.5,7,12.1a1.7,1.7,0,0,1,1,1.9c-.3,1.4-1.9.9-2.4.6a20.9,20.9,0,0,1-5.2-6.1,23.1,23.1,0,0,1-2.9-10.1C62.6,34.2,60.7,27.8,62.5,29Z"/><path class="cls-18" d="M19.5,19.5h-.3l-.5-.6h-.1a2.1,2.1,0,0,1-.4-.6c-.1-.1-.1-.1-.1-.2l-.3-.6c0-.1-.1-.2-.1-.3s-.1-.3-.2-.6v-.2a3.4,3.4,0,0,1-.1-1,2,2,0,0,1,.1-.7h0a6,6,0,0,1,2.2-3.7h0l.3-.4c-.5-1.5-.9-3.5.1-3.8h.7a2.8,2.8,0,0,1,1.5.8l.5.5h.1l.3-.2h.1l.8-.3.4-.2.6-.2h.3l.5-.2a8.8,8.8,0,0,1,3.6-.1c1.2-1.1,3-2.6,3.9-1.7h0v.2c.1,0,.1.1.1.2h.1c.5,1.2-.1,3.3-.4,4.4a24,24,0,0,1,1.9,6,6.8,6.8,0,0,1,4.5,1.7,47.6,47.6,0,0,0,10.1,5.1c6,2.5,8.4,1.5,11.5,4.5a12.9,12.9,0,0,1,1.6,1.8c0,.1.1.1.1.2h0a3.5,3.5,0,0,1,.5.8L64,31a15.4,15.4,0,0,1,.5,1.7h0c0,.1.1.3.1.4h0a9.9,9.9,0,0,1,.2,1.7,11.4,11.4,0,0,1,.5,3.3c.3,5.1,3.7,10.5,7,12.1a1.7,1.7,0,0,1,1,1.9c-.3,1.4-1.9.9-2.4.6a20.9,20.9,0,0,1-5.2-6.1,23.3,23.3,0,0,1-2.1-5,6.1,6.1,0,0,1-2.2,2.3,8.2,8.2,0,0,1-3.3,2.5,2.9,2.9,0,0,0,.2,3.3l.5.6s2.8-1.6,1.8,3a3.7,3.7,0,0,0,.8,2.9c1.1,1.2-1.6,2.5-3.2.5s-1.3-3.5-1.3-3.5-5.4,0-5.9-5.1a24.7,24.7,0,0,1-5.1-.2c-2.2-.2-3.2-1.1-3.6-1.8a1.4,1.4,0,0,1,.2-1.6c1.3-1.6,2.3-.1,2.3-.1h2a1.1,1.1,0,0,0,1-.9V42.5c-2.8-1.5-5.2-3.1-5.9-3.4A12.1,12.1,0,0,0,39,38h-.6a5.6,5.6,0,0,1-.8,2.1c-2.2,3.4-2.9,5.5-3.9,7s-2.6,2.8-5.1,2.2-2-.6-3.2-1.1-.2-2.7,3.2-2.4c1,.1,1.7-1.1,1.8-2.1s.4-3.2.5-4.4L28,42.2c-1.1,1.3-4.7-1-5.3-2s3.6-1.7,3.5-1.7,1.3-2.2,1.9-4.2H28l-1.6-1.7-.3-.9c-.1-.1-.1-.3-.2-.4h0a12.9,12.9,0,0,1-.5-5.1c.1-.6.3-1.3.4-1.8h-.1a.1.1,0,0,0-.1-.1.3.3,0,0,0-.1-.2v-.2a.1.1,0,0,1-.1-.1h-.1v-.2c0-.1-.1-.2-.1-.3h-.1a.1.1,0,0,0-.1-.1v-.3a.4.4,0,0,1-.1-.3h0a4.8,4.8,0,0,1-4.6-2h-.2Z"/></g></g></svg>