<svg xmlns="http://www.w3.org/2000/svg" viewBox="0 0 133 144"><defs><style>.cls-1,.cls-5{fill:#c89572;}.cls-2{fill:#86604e;}.cls-3{fill:#353535;}.cls-4{fill:#f0d4be;stroke:#c0272d;stroke-width:0.11px;}.cls-4,.cls-5{stroke-miterlimit:10;}.cls-5{stroke:#86604e;stroke-width:0.3px;}.cls-6{fill:#602f28;}.cls-7{fill:#fff;}</style></defs><g id="Calf_Pose01_F03"><g id="_003" data-name="003"><path class="cls-1" d="M41.5,42c.2-1,1.4-4.5,3.7-4.1s1.2,1,1.8,1,3.7-2.4,4.9-2.4a9.2,9.2,0,0,1,2.9.8c.8.2,3.1.8,3.9.6s6.6.5,6.6.9-.4,1.5-4.5,4.1a9.7,9.7,0,0,0-.5,3,9.5,9.5,0,0,0,1,4.6L63,51.7l1.2.2c4.1,0,4.8,3.1,9.2,6.2s4.3,2.3,9.3,5.6a21.2,21.2,0,0,0,3,1.8c3.1,1.6,3.6,1,4.7,2.1s.9,2.3,3.1,5.5c.9,1.3,1,1.1,1.4,1.9s1.4,3.7.8,7a86.8,86.8,0,0,0-1.2,10.4c0,1.5,2.7,4.1,2.7,4.9s-2,11.6-1.8,12.4a1.8,1.8,0,0,1-.2,1c.4.3.8.8.6,1.1s-.9.4-.9.6-1.2,1.8-4.3.6-1.2-3.1-1.2-3.1l1.4.2s-1.7-.7-1.1-.9c2.9-1.3,1.9.1,2.4.1-.4-3.8-.3-13.3-1.1-13.8-3-2.1-3.5-4.5-3.5-4.9s-2.6.8-1.2,5.1-3.9,3.3-4.8,3.6-5.8.2-6.4.6-.1,2.4-.2,2.6a2.9,2.9,0,0,1-4.7-.2c-.2-.5-.7-2-.3-2.5s3-1.1,3-1.3,3.2-1.6,4-1.7c3.1-.3,4.8-.8,5-1.8s-5.7-8.6-6.1-11.3a97,97,0,0,1-10-6.5c-.2,1.4-.9,6-.8,6.7s1.2,5.5,0,6.9.2,1.3-.6,1.5-1.1-.2-1.1,0,0,1.8-1.6,1.4a5.1,5.1,0,0,1-3.5-3.5h2.5l-1-1s1.2,0,1.4-.2.9-11.2.4-14.5c-.5-1.2-.2-1-.5-1.2s-.8,6.5-1.4,7.3-9.6,3-9.1,3.9,1,.6,1.7,1.9,1.4,1.7.8,2.1-1.8-.1-2.3,1.6a1.4,1.4,0,0,1-2.3.8c-.5-.4-5.4-3.9-.9-3.7,0,0-2.7-1.6.1-1.1.3,0-.8-2-.7-2.8s7.6-3.6,7.8-6.1a13.3,13.3,0,0,0-.5-4.1,36.8,36.8,0,0,0-1.6-5.6c-1.1-2.4-1.4-4.6-.9-5.4s0-.2,0-.4-.6-3.9-.7-5.3-.7-3.7-.7-4.3v-.4a10.3,10.3,0,0,1-1.7-.7c-.2-.2-2.7,2.3-5.7,1.9-.9-.7,1.8-6.2,2-6.4a8.2,8.2,0,0,1-2.6-2.1c0-.2.4-.6.4-.6S41.3,42.7,41.5,42Z"/><path class="cls-2" d="M41.6,42c.3-1.5,1.7-4.8,3.8-3.8.5.2,1,.9,1.5.9s1.3-.6,1.8-.9a18.2,18.2,0,0,1,2.7-1.5c1.2-.4,2.4.5,3.5.8s2,.5,3,.6,1.3-.1,1.9,0a17.4,17.4,0,0,1,5.1.6c.4.1.2.4,0,.7a7.1,7.1,0,0,1-1.5,1.5l-1.8,1.2c-.2.2-.8.4-.9.6s-.2.5-.3.8a13.5,13.5,0,0,0-.2,3.5,5.7,5.7,0,0,0,.3,1.8,3.6,3.6,0,0,0,.7,1.8l.6.5,1,.7A2.3,2.3,0,0,0,64,52a15.2,15.2,0,0,1,2.1.3,7.5,7.5,0,0,1,2.9,2l3,2.9a22.7,22.7,0,0,0,3.2,2.2c1.6,1.1,3.4,1.9,5.1,2.9s4.6,3.2,7.3,4.2a19.5,19.5,0,0,1,2.2.8A3.6,3.6,0,0,1,91.3,69a20.3,20.3,0,0,0,1.1,2.6,14.9,14.9,0,0,0,2,2.9c1.7,2.1,1.6,5.2,1.1,7.7s-.8,5.7-1.1,8.5a8.8,8.8,0,0,0,0,2.3A8.2,8.2,0,0,0,96,95.5c.3.6,1,1.3,1,1.9a7.7,7.7,0,0,1-.2,1.5c-.5,3.3-1.2,6.6-1.6,10a5.5,5.5,0,0,1-.1,1.8v.2l.5.4c.2.6-.4.6-.6.8l-.2.3-.5.5c-1.2.8-3,.3-4.2-.3s-1.4-1.4-.8-2.4.1-.1.2-.2,0,.1.1.1l1.2.2c.2,0,.2-.3.1-.3s-.9-.3-1-.6,0-.1.2-.2l.6-.2.8-.2c.3.1.1.6.6.7a.3.3,0,0,0,.1-.2c-.3-3-.3-6.1-.4-9.1a25.3,25.3,0,0,0-.3-3.8,1.6,1.6,0,0,0-.3-.9l-.3-.3-1.5-1.3a14.3,14.3,0,0,1-1.4-2,7.9,7.9,0,0,1-.3-1.3c-.2-.5-.7-.2-1,.1a4.1,4.1,0,0,0-1,3c.2,1.4,1.3,3.1-.1,4.2A7.2,7.2,0,0,1,82.4,99l-3.6.4H76.3a6.1,6.1,0,0,0-1.3.3,1.8,1.8,0,0,0-.5,1.7c0,.2.2.5.2.8s-.7.8-1,.9a2.7,2.7,0,0,1-2.5-.1,3,3,0,0,1-1.2-1.9,1.9,1.9,0,0,1,0-1.3c.1-.3.5-.4.8-.5a12.7,12.7,0,0,1,1.8-.6c.4-.1.4-.3.6-.5a5.2,5.2,0,0,1,2-.9c1.6-.5,3.2-.5,4.8-1s2.1-.6,2.1-1.6a6.8,6.8,0,0,0-1.2-2.2,70.1,70.1,0,0,1-4.4-7.5,2.4,2.4,0,0,1-.5-1.4h-.1c-.4-.1-.8-.5-1.2-.6l-2.5-1.6c-2.1-1.4-4.3-2.8-6.3-4.3-.1-.1-.2,0-.2.1s-.5,3-.7,4.6a12.3,12.3,0,0,0-.2,2l.3,1.5a12.4,12.4,0,0,1,.3,2.7,4,4,0,0,1-.4,2.6c-.2.3-.1.5-.1.9s0,.4-.2.5a1.5,1.5,0,0,1-.9.2c-.4-.1-.6-.2-.6.2s-.1.7-.3.9a1.5,1.5,0,0,1-1.8,0,4.2,4.2,0,0,1-2.7-3.1l-.2.2h2.5a.2.2,0,0,0,.1-.3l-1-1v.2c.3,0,1.2.1,1.5-.2a.7.7,0,0,0,.1-.5c.1-1,.2-2,.2-3,.2-3.1.4-6.2.3-9.3a10.9,10.9,0,0,0-.1-1.8l-.3-1-.2-.4H61c-.2.1-.2.4-.2.6l-.3,1.5c-.2,1.4-.3,2.7-.6,4.1a5.6,5.6,0,0,1-.4,1.2l-.8.5-3.5,1.2-3.6,1.3c-.4.1-1.3.4-1.3.9s.8.9,1.2,1.2l.8,1.2.7,1.1c.2.8-1.1.7-1.5.9s-.7,1.3-1.3,1.9-2.7-.6-3.4-1.3-1-.9-1-1.4,1.2-.7,1.7-.7.2-.2,0-.3l-.7-.5c-.2-.2-.4-.3-.2-.4s.8.3,1.1.1,0-.5,0-.7-.8-1.5-.6-2.1a1.2,1.2,0,0,1,.7-.7l1.6-.9a28.5,28.5,0,0,0,3.7-2.3c.8-.6,1.7-1.3,1.8-2.3a10.9,10.9,0,0,0-.3-3.1c-.2-.7-.3-1.4-.5-2.2a23.5,23.5,0,0,0-1.3-4.3c-.7-1.8-1.5-3.6-1-5.4a4.4,4.4,0,0,0-.1-2c-.2-1-.3-2-.5-3a28.7,28.7,0,0,0-.5-3.1,19.7,19.7,0,0,1-.3-2.4c0-.1,0-.2-.1-.2l-1.2-.4c-.3-.1-.4-.3-.7-.2l-1,.6a5.1,5.1,0,0,1-1.8.9,6.1,6.1,0,0,1-2.4.4c-.2-.1-.3-.1-.3-.3s0-.4,0-.6A12.8,12.8,0,0,1,44,48.8l.6-1.4.4-.8c.1-.1.1-.2,0-.2a10.4,10.4,0,0,1-1.7-1.2,2.2,2.2,0,0,1-.7-.6c-.1-.2-.2-.1-.1-.3l.3-.4a.1.1,0,0,0,0-.2c-.5-.4-1.3-1-1.2-1.7a.2.2,0,1,0-.3,0c-.1.7.8,1.5,1.3,1.9v-.2c-.2.2-.5.5-.5.8a1.7,1.7,0,0,0,.6.6,8.9,8.9,0,0,0,2.2,1.6v-.3a6.9,6.9,0,0,0-.7,1.5A16.9,16.9,0,0,0,43,50.6a3.8,3.8,0,0,0-.4,2.1l.3.3A2,2,0,0,0,44,53h1.1A11.1,11.1,0,0,0,48,51.5l.6-.3.4.2.8.3h.3c.2,0,0,0,0-.1v.5l.3,1.7c.3,1.4.4,2.7.7,4.1a11.1,11.1,0,0,0,.2,1.9,6.2,6.2,0,0,1,.2,1.9c0,.3-.1.6-.1.9a4.7,4.7,0,0,0,.1,1.7,15.5,15.5,0,0,0,1.3,3.8c.4,1.2.7,2.4,1,3.7l.3,1.5c.1.7.3,1.4.4,2.1a4.5,4.5,0,0,1,0,2,4.4,4.4,0,0,1-.8,1.1A22.8,22.8,0,0,1,48.4,82a3.6,3.6,0,0,0-1.6,1.1,2.5,2.5,0,0,0,.1,1.2l.6,1.5V86c.2-.1-.4-.1-.4-.1a.9.9,0,0,0-.7,0c-.2.1-.2.2-.2.4s.8.8,1.2,1V87c-.6,0-1.8-.1-2,.7s.4,1.2.7,1.5A13.7,13.7,0,0,0,48,90.8a1.8,1.8,0,0,0,2.2.3c.5-.4.6-1,.9-1.6s.9-.5,1.5-.7.7-1,.3-1.7a6.7,6.7,0,0,0-1.2-1.6c-.2-.2-1.2-.8-1.1-1.1s1.2-.7,1.5-.8l5.7-2a5.8,5.8,0,0,0,1.8-.8c.4-.3.5-1,.6-1.4.4-1.9.5-3.9.9-5.8,0,0,.1-.2,0-.2s-.1,0-.1,0h.1c0,.5.3.9.3,1.4a25.3,25.3,0,0,1,.1,2.8c0,2.4-.1,4.8-.2,7.2-.1.9-.1,1.8-.2,2.8a4.5,4.5,0,0,1-.1,1.2c-.2.2-1,.1-1.3.1s-.2.2-.2.3l1.1,1v-.2H58.2a.1.1,0,0,0-.1.1A4.5,4.5,0,0,0,59.9,93c.7.5,1.9,1.2,2.8.8a1.4,1.4,0,0,0,.8-1.3c0-.1,0-.2-.1-.2s.3.2.3.2a1.7,1.7,0,0,0,1.2-.3c.2-.1.2-.3.3-.5s-.1-.5-.1-.7l.3-.5a4.9,4.9,0,0,0,.3-2.7,24.8,24.8,0,0,0-.3-2.7,11.3,11.3,0,0,1-.3-1.8c.2-2,.5-4.1.9-6.1h-.2a69.7,69.7,0,0,0,9.6,6.4l.3.2h0a.4.4,0,0,0,.1.3,13.4,13.4,0,0,0,.7,1.8c.8,1.5,1.7,2.9,2.6,4.3s1.6,2.4,2.3,3.7a1.3,1.3,0,0,1,.3,1c-.2.7-1.2,1-1.8,1.2l-3.2.5a14.1,14.1,0,0,0-2.2.6c-.5.2-1.3.4-1.6.9l-.2.3-1,.2a4.8,4.8,0,0,0-1.8.8c-.4.4-.3,1.2-.2,1.8a3.2,3.2,0,0,0,1,1.8,3.2,3.2,0,0,0,1.9.7,2.7,2.7,0,0,0,2.2-1.1c.4-.4,0-1-.1-1.5s.8-1.3,1.7-1.4h2.8l3.7-.5a5.8,5.8,0,0,0,3.3-1.4,2,2,0,0,0,.4-1.5,5.3,5.3,0,0,0-.3-1.2,5.7,5.7,0,0,1-.3-1.8,3.9,3.9,0,0,1,.6-2.1l.5-.4c.1-.1.3-.1.2-.2s.1.3.1.4.1.5.2.7a8.2,8.2,0,0,0,1.2,2L90,94.9a3.9,3.9,0,0,1,1,.8,5.3,5.3,0,0,1,.3,1.2c.4,3.4.3,6.9.5,10.3a14.8,14.8,0,0,0,.1,2.1h.2a3.3,3.3,0,0,0-.3-.6c-.3-.3-1,0-1.4.1s-1.2.3-.9.8a2.4,2.4,0,0,0,1.3.7V110c-.4-.1-1.3-.4-1.6-.1a1.7,1.7,0,0,0-.4,1.7c.3,1.2,2,1.7,3.1,1.9a3.2,3.2,0,0,0,2.7-.5l.5-.5c.2-.3.8-.5.9-.9a.9.9,0,0,0-.3-.6c-.1-.2-.2-.2-.2-.4s.1-.5,0-.7v-.7a52.1,52.1,0,0,1,.8-5.5c.3-1.9.7-3.8.9-5.7a2.2,2.2,0,0,0-.1-1.4c-.6-1-1.5-1.9-2.1-3a5.1,5.1,0,0,1-.3-3l.6-4.9c.5-3.2,1.5-6.7.2-9.9a25.3,25.3,0,0,0-1.8-2.7,22.8,22.8,0,0,1-2-3.8,4.1,4.1,0,0,0-1.4-2,5.6,5.6,0,0,0-2.1-.9c-3.2-1.1-5.9-3.3-8.8-4.9s-4.2-2.3-6.1-3.7a46.4,46.4,0,0,1-4-3.6,7.8,7.8,0,0,0-3-2.1,6.9,6.9,0,0,0-2-.3,5.9,5.9,0,0,1-1.3-.2l-.4-.3a4.8,4.8,0,0,1-1.1-.9,4.2,4.2,0,0,1-.8-2.2,11.9,11.9,0,0,1,0-4.6,1.7,1.7,0,0,1,.9-1.1l1.2-.8,1.4-1.1c.3-.3,1.9-1.7.9-2.1a11.9,11.9,0,0,0-2.6-.5l-3.1-.3h-.9a6.5,6.5,0,0,1-2-.2l-1.8-.5a17.2,17.2,0,0,0-2.1-.7,3.9,3.9,0,0,0-2.9.9l-1.6.9a3.9,3.9,0,0,1-1.1.6c-.3,0-.4-.2-.7-.4a2.9,2.9,0,0,0-1.6-.7,3.3,3.3,0,0,0-2.3,1.7,7.1,7.1,0,0,0-1.1,2.5C41.3,42.1,41.6,42.2,41.6,42Z"/><path class="cls-3" d="M91.5,108.6a2.6,2.6,0,0,0-1.5.5c-.4.4,1.6,1,1.6,1l-1.8-.2s-2.5,1.8.6,3,4.3-.4,4.3-.6.4-.2.9-.6-.9-1.2-.9-1.2"/><path class="cls-1" d="M60.9,88.9c-1,3.5,1.6,3.5,1.8,2.7s2.1-.8,2.1-.8.2-5.9,0-6.9.9-7.1.9-7.3l-4.1-2.8C62.4,76.1,61.1,88.7,60.9,88.9Z"/><path class="cls-3" d="M58,90.1a4.9,4.9,0,0,0,3.5,3.5c1.6.5,1.6-1.2,1.6-1.4s.2.2,1.1,0,.6-.4.6-1.4-1.9,0-2.1.8-2.8.8-1.8-2.7c-.2.2-1.4.2-1.4.2l1,1Z"/><path class="cls-3" d="M46.2,89a4.7,4.7,0,0,0,2.9,2c1.2.2,1.6-1,2-1.7s1.3-.4,1.9-.8-.7-1.9-1.1-2.5a9.2,9.2,0,0,0-1.4,1.9c-.2.6-2.6,2.3-2.2-1.4-3.4-1.1-1.2.7-1.1.8C44.9,86.7,46,88.4,46.2,89Z"/><path class="cls-4" d="M61.5,51.2h.1l-.2-.2C61.4,51.1,61.5,51.1,61.5,51.2Z"/><path class="cls-3" d="M72.6,98.8s-2.4.2-2.7,1.2a2.7,2.7,0,0,0,1.2,3c1.1.6,2.2,1.3,3.4-.4.2-.1,0-.9.3-2.3"/><path class="cls-1" d="M44.4,46.8s3.9-3.9,5.2-4.5a1.8,1.8,0,0,0,.7-2.2"/><path class="cls-2" d="M44.3,46.7l2.6-2.3,1.3-1.2,1.4-1h0a2.4,2.4,0,0,0,.8-.9,2.5,2.5,0,0,0-.1-1.2,1.7,1.7,0,0,1,.1,1.2,1.8,1.8,0,0,1-.7,1h-.1l-1.3,1L47,44.5l-2.5,2.4Z"/><path class="cls-1" d="M52.7,43.6s-.8.2-1,.8A9.2,9.2,0,0,1,48.4,51"/><path class="cls-2" d="M52.7,43.6a1.6,1.6,0,0,0-.8.6c-.2.3-.1.7-.2,1.1a17.4,17.4,0,0,1-.5,2.2,11.8,11.8,0,0,1-1.1,1.9A12.9,12.9,0,0,1,48.4,51a10.7,10.7,0,0,0,2.5-3.6,14.1,14.1,0,0,0,.6-2.2c.1-.3,0-.7.3-1.1A1.6,1.6,0,0,1,52.7,43.6Z"/><path class="cls-1" d="M51.5,49.1s-.2,1.9-1.4,2.5"/><path class="cls-2" d="M51.5,49.1a4,4,0,0,1-.3,1.5l-.5.6-.6.4a7.6,7.6,0,0,0,.8-1.1l.3-.7Z"/><path class="cls-5" d="M58.2,37.9s1.6,1.3,2.3,5"/><path class="cls-1" d="M87.1,90.7s5.1-9.4.7-15.2"/><path class="cls-2" d="M87,90.7A28.7,28.7,0,0,0,88.5,87a18.3,18.3,0,0,0,.9-3.9,10.8,10.8,0,0,0-.1-4,9.5,9.5,0,0,0-1.5-3.6,9.7,9.7,0,0,1,1.6,3.6,13.5,13.5,0,0,1,.2,4,25.9,25.9,0,0,1-.9,4,19.2,19.2,0,0,1-1.5,3.7Z"/><path class="cls-1" d="M42.9,41.1c0,.4-.8,1.4.8,1.8"/><path class="cls-2" d="M42.9,41.1c.1.4-.2.8,0,1.1s.5.5.8.7h-.6a.8.8,0,0,1-.5-.5c-.1-.2,0-.4,0-.6A3.3,3.3,0,0,1,42.9,41.1Z"/><path class="cls-5" d="M88,74.1a1,1,0,0,1,.9.1,4.2,4.2,0,0,1,1.4,1.1,10.1,10.1,0,0,1,1.5,2.3,11.9,11.9,0,0,1,1,4.4c.2,3.8-1.5,9.1-1.2,11.9s0,2.3.1,3.1-.1.8-.1.8v.9a16.9,16.9,0,0,1-1.3-5.2c-.2-2.9,1.5-9.8.7-11.9,0,0-.7-4.9-3.1-5.7"/><path class="cls-6" d="M90.9,93.7c1.9,2.7,1.4,4.4,2,6.6,0,.3-.6-.3-.6-1.4a4.2,4.2,0,0,0,.2,2.4c.3.7-.1.1-.5-.6a1.3,1.3,0,0,0,.1.8,2.4,2.4,0,0,1-.5-1,3.9,3.9,0,0,0,1.2,2.5c.5.5-2.2-1.2-1.6-3.5a3.4,3.4,0,0,0-.1,2.6,2.7,2.7,0,0,1-.6-1.9c0,.3-.1.5-.1.7h-.2c-.2-1.3.6-2.6.7-4.3a16.9,16.9,0,0,1-.8,2.4h-.2c.4-1.4,1.3-3.3.5-4.8,0,0,.1.8.2.6s-.3-1.1-.2-1.1.6,1,.8,1.1-.3-1.1-.3-1.1"/><path class="cls-1" d="M62.8,51.7a5.4,5.4,0,0,1-3.7-2.8"/><path class="cls-2" d="M62.7,51.8a5.1,5.1,0,0,1-2.1-1,2.4,2.4,0,0,1-.9-.8,3.9,3.9,0,0,1-.6-1.1,3.6,3.6,0,0,0,.7,1,3,3,0,0,0,.8.8,5.8,5.8,0,0,0,2.2.8Z"/><path class="cls-1" d="M51.5,62.1c-.2-.3,2-6.2,5.7-8.9"/><path class="cls-2" d="M51.4,62.2c-.1-.1-.1-.1-.1-.2h0c0-.1,0-.2.1-.2v-.3a1.4,1.4,0,0,1,.2-.7l.6-1.2a18.4,18.4,0,0,1,4.9-6.3,17.3,17.3,0,0,0-3.5,4.1l-1.2,2.3-.6,1.2a2.5,2.5,0,0,1-.2.7v.3h0Z"/><path class="cls-1" d="M75.6,83.7s-1-6.6,2.1-8.4"/><path class="cls-2" d="M75.5,83.7a17.7,17.7,0,0,1,0-4.6,12.9,12.9,0,0,1,.7-2.1,3.5,3.5,0,0,1,1.5-1.7A3.3,3.3,0,0,0,76.3,77a7.9,7.9,0,0,0-.6,2.2,17.1,17.1,0,0,0,.1,4.5Z"/><path d="M45.6,41.3a.8.8,0,0,0,.8.5c-.1-.1-.1-.3-.2-.4h.1v-1a.1.1,0,0,1-.1.1v-.3l-.3.4A1,1,0,0,0,45.6,41.3Z"/><path class="cls-7" d="M45.8,41.1a.5.5,0,0,0,.4.3h.1v-1a.1.1,0,0,1-.1.1l-.2.2A.8.8,0,0,0,45.8,41.1Z"/><path class="cls-1" d="M47.1,42.9a2.6,2.6,0,0,1-.7-1.1c-.1-.1-.1-.3-.2-.4v-.2a1.7,1.7,0,0,1-.1-.7v-.3c.1-.3.1-.7.3-.9"/><path class="cls-2" d="M47.2,42.8a3.2,3.2,0,0,1-.7-3.5c.1-.2-.2-.3-.3-.1A3.6,3.6,0,0,0,47,43c.1.2.3-.1.2-.2Z"/></g></g></svg>