<svg xmlns="http://www.w3.org/2000/svg" viewBox="0 0 110 106"><defs><style>.cls-1{fill:#be7a40;}.cls-2{fill:#d79b6b;}.cls-3{fill:#b67d4e;}.cls-4{fill:#616261;}.cls-5{fill:#434343;}.cls-6{fill:#af8051;}.cls-10,.cls-7{fill:#212121;}.cls-11,.cls-8{fill:#3e2723;}.cls-12,.cls-9{fill:#fff;}.cls-10,.cls-11,.cls-12{stroke:#000;stroke-miterlimit:10;stroke-width:0.05px;}.cls-13{fill:#8b6339;}</style></defs><g id="Layer_54" data-name="Layer 54"><path class="cls-1" d="M99.4,45.8l.7-.2A3,3,0,0,1,98,47.3l-1,.3-.6.2c.1.3.2.6.4.7l-1,.3a2.7,2.7,0,0,1-1.6.2,5.1,5.1,0,0,1-2.1-.6.8.8,0,0,0,.2,1.1,5.4,5.4,0,0,1-3.3-1,15.9,15.9,0,0,1-3.9-3.4,12.3,12.3,0,0,1-2.8-3.5l-.9-1.9c-7.9-8.8-2.3-16.1-2.3-16.1s4.5.4,8.3,4.8a28.2,28.2,0,0,1,4.2,7.1,26,26,0,0,0,1.3,2.4,9.6,9.6,0,0,0,3.4,3.3,5.4,5.4,0,0,0,4.6.6A7.8,7.8,0,0,1,99.4,45.8Z"/><path class="cls-2" d="M99.4,45.8l.7-.2A3,3,0,0,1,98,47.3l-1,.3-.6.2c.1.3.2.6.4.7l-1,.3a4.7,4.7,0,0,1-3.5-1.4c.9-.3,1.9.1,2.8-.5s-1.1-.9-1-1.5h1.8c-.9-.9-1.8-1.5-2.1-2.9.5.1,1,.6,1.6.7-1.4-1.1-2.2-3.3-2.5-5.3a9.6,9.6,0,0,0,3.4,3.3,5.4,5.4,0,0,0,4.6.6A7.8,7.8,0,0,1,99.4,45.8Z"/><path class="cls-1" d="M43.7,65.6a138.5,138.5,0,0,0-1.2,14.6c.1,2.8-.1,4.5-1.7,5s-2,.5-3.3-.4a1.7,1.7,0,0,1,.8-3.2L37.2,71.2,36.1,60.6l-.5-5.4,9.8-2.5S44.5,58.9,43.7,65.6Z"/><path class="cls-1" d="M21.5,28.1a3.7,3.7,0,0,0-.2,1.8v.8c.1.2.4.5.4.6s0-.3.1-.6a3.8,3.8,0,0,0,.4,2.4,1.4,1.4,0,0,1,.2-.7c.5,1.4,1.1,2.5,1.4,2.3s3.9-8.1,3.9-8.1H25.4a8.6,8.6,0,0,0-2.7.5A1.8,1.8,0,0,0,21.5,28.1Z"/><path class="cls-2" d="M56.7,66.2c0,.7.7,1.4.7,2a4.8,4.8,0,0,0-1.2,0c.3.8.6.6.1,1.2a5.3,5.3,0,0,0-.8,1.7,145,145,0,0,0-1.2,15.4c0,2.1-.5,4.2-2.1,4.7s-2,.5-3.3-.4l-.2-.2c-1.7-1.5.1-3,1-3L47.6,67.2l-.6-6,7.8-1.9,2-.5s-.2,2.4-.6,5.8l.3.4.4.4.9,1.2C57.4,66.6,57.1,66.2,56.7,66.2Z"/><path class="cls-3" d="M81,48.4c-.3-2.5-2.5-1.7-3.4-8a29.8,29.8,0,0,1-.1-6h-18c1.2,10,8.6,11.2,16,17.7,1.2,1.2,1.4,4.9.8,8.1-.9,0-3.3,1.7-1.2,3.3s1.9.8,3.3.3C82,62.7,81.3,50.9,81,48.4Z"/><path class="cls-2" d="M92.9,63.2a1.7,1.7,0,0,1-.1.8c-.2,2.2-.7,5.1-3,5.9s-2.1.5-3.3-.4.3-3.3,1.2-3.2a6,6,0,0,0,.2-1.2c.4-2.8.1-5.9-1-6.9l-.9-.8c-3.9-3.2-7.6-5.1-10.5-7.7a16.2,16.2,0,0,1-1.8-1.9A17.4,17.4,0,0,1,72.6,46l-.5-1a18.2,18.2,0,0,1-1.3-7.2V36.4l12-9.5,1.3-.9c7.1,8.3,4,14.5,4.9,20.5a10.7,10.7,0,0,0,1.5,4.8c.5.8,1.3,1.4,1.6,2.2s.1.2.2.4a23.1,23.1,0,0,1,.5,4.6A36.9,36.9,0,0,1,92.9,63.2Z"/><path class="cls-2" d="M83.9,37.8c0,.2-.1.3-.2.5a21.2,21.2,0,0,1-1.2,2l-.5.8L79.9,44,79,45.1a3.5,3.5,0,0,0-.5.8c-.7.9-1.5,1.8-2.2,2.8l-.8,1h0a3.5,3.5,0,0,1-.7,1.5.2.2,0,0,0-.2.2c-.6.7-1.2,1.6-2,1.9l.7.2a11.4,11.4,0,0,0-1.5,1.7,16.7,16.7,0,0,1-1.6,1.2c-.5.2-1,.7-1.5.9l-.6.2,1.2.2a9.2,9.2,0,0,1-3.6,2.8c-.7.4-1.9,1.2-2.7,1.1a3.7,3.7,0,0,0,2.1,0c-.5.2-.7.6-1.1,1a3.7,3.7,0,0,1-1.7,1l-3.4,1.1-2,.7-.8.2a12.4,12.4,0,0,0-1.6.4,15.8,15.8,0,0,1-6.9,1.2l-1.9-.4-1-.3c.1.3,0,.5.2.6L42,66.3a7,7,0,0,1-1.9-1.5c-.2.1-.2.3-.2.5l-1.3-.4a7.5,7.5,0,0,1-1.7-1,8.9,8.9,0,0,1-1.6-2.2,2.2,2.2,0,0,0,0,1.4c-.3-.6-1-1-1.5-1.5a4.6,4.6,0,0,1-.9-2,9.6,9.6,0,0,1-.7-1.8c-.1.1-.1.4-.1.7a6.2,6.2,0,0,1-.9-1.2,11.1,11.1,0,0,1-1.6-3.5,7.1,7.1,0,0,1-.1-1.4,1.4,1.4,0,0,0,0,1.1A10.6,10.6,0,0,1,28,49.3a19.4,19.4,0,0,1-.2-2.4c-.1-.2-.1-.4-.2-.6a8.4,8.4,0,0,1,0-1.6,8.5,8.5,0,0,1-6,3.2,4.1,4.1,0,0,1-2.8-1.7c-1.9,1.1-2.4-1.6-2.3-3s3.4-5,3.7-5.6h0c1.3-2.6.9-5.6,3.9-8.7l.3-.3.4-.3.4-.3.3-.2h0l.2-.2,1.1-.6h.3l.6-.2.8-.3h1.8c5.2-.2,8,2.3,10.7,4.6l.4.3,1,.9a15.9,15.9,0,0,0,2.7,1.8h.4l1.3.5a9.4,9.4,0,0,0,2.9,0l1.4-.2.4-.2,2.2-1,.9-.5,1.4-.8.7-.4.8-.5.8-.5,1.5-.8.6-.4.4-.3,1.4-.7a1.9,1.9,0,0,1,.9-.5l.9-.5.4-.3.7-.3,1.1-.6,1-.5,2-.8.9-.3.9-.4.8-.2h0a17.1,17.1,0,0,1,5.8-.9H78l1.4.2h.9l.4.2h0l.4.2.7.3.3.2.5.3h0l.8.7h0l.7.8h.2c.8,1,.9,2.2,1.1,4.3A12.2,12.2,0,0,1,83.9,37.8Z"/><path class="cls-1" d="M21.6,47.9a4.1,4.1,0,0,1-2.8-1.7,1.2,1.2,0,0,1-1.8-.4,2.8,2.8,0,0,0,.1-1.4,2.5,2.5,0,0,1,1.1-2.6c1.9-1.2,3.2.3,3.2,2.7S20.1,46.7,21.6,47.9Z"/><path class="cls-4" d="M17.5,42.6s3.4-2.8,3.6,1.9Z"/><path d="M17.5,42.6l.8-.5a1.9,1.9,0,0,1,1.8-.2,2.2,2.2,0,0,1,.7.9c.1.2.1.5.2.7a4.3,4.3,0,0,0,.1.5v.5h-.2l-.3-.2-1.2-.6L18.2,43l-.7-.3h0l3.2,1.7.4.2h0c0-.9-.2-2.4-1.3-2.7a3,3,0,0,0-1.9.5l-.4.3C17.4,42.6,17.5,42.7,17.5,42.6Z"/><path class="cls-1" d="M90.5,51.3h0l-1.9-.4.5.6c-1,.7-2.6-1.1-3.2-1.6a4.3,4.3,0,0,1,.1.5c-.9.4-2.3-1.2-2.8-1.8s-2.1-2.4-2-3.5a6.6,6.6,0,0,0,.1,1.4c-.5-.3-.7-1.1-.9-1.6a4.1,4.1,0,0,1-.5-.9,1,1,0,0,1-.4-.5A4,4,0,0,0,77.8,42l-.9-.5a2,2,0,0,1,.3,1.1c-.7-.8-2-.7-3-.6a2.6,2.6,0,0,0-1.7.7l-1,.7h0a1.6,1.6,0,0,1,.8.6l-.5.2A5.6,5.6,0,0,0,69.6,46a8.3,8.3,0,0,0-.8,1.2,1.8,1.8,0,0,1-.5.7c.4,0,1.1.2,1.2.5s-1.7,1-2.1,1.3a9.5,9.5,0,0,0-1.2,1.6,5,5,0,0,1-.7.8l.5-.2c-.2,1.1-1.3,2.1-2.1,2.9s-1.5.7-2,1.1a2.2,2.2,0,0,0,1.5.6,5.6,5.6,0,0,1-4,2H57.3c-.4,0-1.3.3-1.7,0a1.1,1.1,0,0,0,.3.8,5.1,5.1,0,0,1-2.1.3,4.5,4.5,0,0,1-1.9-.5c-1-.4-2.5-1.1-2.7-2.3a2.1,2.1,0,0,0,0,1.1c-.9-.3-1.5-2.2-1.7-3a13.1,13.1,0,0,1,.3-4.4,2.2,2.2,0,0,1-.9,1c0-1.3.3-2.7.3-4s-1-2.9-1.1-4.3a4.2,4.2,0,0,1-.5,2.2,6.1,6.1,0,0,0-1.3-3,8.7,8.7,0,0,0-1.7-1.6l-1.3-1.2a4.8,4.8,0,0,0-2.9,0l-1.2.4L33,41.8a14,14,0,0,1-3.8.7c-2.5,0-5.4-1.5-4.4-5.6.7-2.6,3.1-2.9,2.5-4.7s-3.4-1.3-3.5,1.7a3.3,3.3,0,0,1-3.6,3.7c1.3-2.6.9-5.6,3.9-8.7l.3-.3.4-.3.4-.3.3-.2h0l.2-.2,1.1-.6h.3l.6-.2.8-.3h1.8c5.2-.2,8.1,2.3,10.7,4.6l.4.3,1,.9a15.9,15.9,0,0,0,2.7,1.8h.4l1.3.4a7,7,0,0,0,2.9.1l1.4-.2.4-.2,2.2-1,.9-.5,1.4-.8.7-.4.8-.5.8-.5,1.5-.8h0l.6-.3.4-.3,1.4-.7a1.9,1.9,0,0,1,.9-.5l.9-.5.4-.3.7-.3h0l1.1-.6,1-.5,2-.8.9-.3.9-.4.8-.2h0a17.1,17.1,0,0,1,5.8-.9H78l1.4.2h.9l.4.2h0l.4.2.7.3.3.2.5.3h0l.8.7h0l.7.8h.2a9.5,9.5,0,0,1,1.2,1.6h0l.5.6c0,.1.1.2.2.3s.1.2.2.4l.7,1.2a.5.5,0,0,0,.2.4l.3.9a1.1,1.1,0,0,1,.3.8l.3.8c0,.1.1.2.1.4a6.4,6.4,0,0,1,.2.7.4.4,0,0,0,.1.3h0v.8a1.7,1.7,0,0,1,.1.7c0,.4.1.8.1,1.2v.4c.1,1.2,0,2.4,0,3.5a18.5,18.5,0,0,0-.1,2.3,16.2,16.2,0,0,0,.1,2.2,1.7,1.7,0,0,0,.1.7,10.9,10.9,0,0,0,.4,2.2c0,.2.1.3.1.4s.1.2.1.3.1.2.1.3.1.2.1.3a7.3,7.3,0,0,0,.5.9A.8.8,0,0,0,90.5,51.3Z"/><path class="cls-5" d="M17.4,42.9A3,3,0,0,0,19,45.6a1.5,1.5,0,0,0,2.1-1C21.5,43.6,17.3,41.7,17.4,42.9Z"/><path d="M17.3,42.9a3,3,0,0,0,1.6,2.6,2,2,0,0,0,1.3.2,2,2,0,0,0,.8-1,.6.6,0,0,0,0-.6c-.1-.2-.4-.4-.6-.6a5.6,5.6,0,0,0-1.9-.9c-.3-.1-1.2-.3-1.2.3h.1c-.1-.5.7-.4,1-.3a4.8,4.8,0,0,1,1.8.8l.6.5a.9.9,0,0,1,.3.6c0,.2-.2.4-.2.5s-.3.4-.5.5-.8.2-1.2.1a2.7,2.7,0,0,1-1.8-2.7Z"/><path class="cls-6" d="M22.7,35.7a2.4,2.4,0,0,0,.6-1.8c-.1-1-1.6.4-1.6.4Z"/><path class="cls-7" d="M26.4,38.1s.4-1.2,1.5-1.1.8,1.4,1.3,1.6S27.4,39.8,26.4,38.1Z"/><path d="M26.4,38.1a1.6,1.6,0,0,1,.8-1,1.7,1.7,0,0,1,1,0,.9.9,0,0,1,.6.6c0,.2.1.4.1.6a.4.4,0,0,1,.1.3c.1,0,.2,0,.2.1l-.3.2-.7.2a2.2,2.2,0,0,1-1.8-1h0a1.8,1.8,0,0,0,1.6,1h.8c.1-.1.3-.1.4-.3h0a.1.1,0,0,0-.1-.1H29c-.1-.2-.1-.5-.2-.7s-.2-.5-.4-.6a1.2,1.2,0,0,0-1-.2,1.8,1.8,0,0,0-1,1.1Z"/><path class="cls-8" d="M28.5,38.2a.8.8,0,0,1-.9.7.8.8,0,0,1-.7-1,.8.8,0,0,1,.9-.6A.7.7,0,0,1,28.5,38.2Z"/><path d="M28.5,38.2a.9.9,0,0,1-.6.7,1.1,1.1,0,0,1-.9-.4.9.9,0,0,1,.1-1,1,1,0,0,1,.9-.2.7.7,0,0,1,.5.9h.1a1.1,1.1,0,0,0-.5-.9.9.9,0,0,0-.9.1,1,1,0,0,0-.3,1,1.1,1.1,0,0,0,.9.5.8.8,0,0,0,.8-.7Z"/><path class="cls-7" d="M28.2,38.1a.6.6,0,0,1-.6.5.7.7,0,0,1-.4-.6.4.4,0,0,1,.6-.4C28.1,37.6,28.3,37.9,28.2,38.1Z"/><path d="M28.2,38.1c0,.3-.2.4-.4.5a.5.5,0,0,1-.5-.3.6.6,0,0,1,0-.6.7.7,0,0,1,.6-.1c.2.1.4.3.3.5h0a.4.4,0,0,0-.2-.5c-.2-.1-.5-.1-.6.1a.5.5,0,0,0-.2.6.5.5,0,0,0,.5.3.5.5,0,0,0,.5-.5Z"/><path class="cls-9" d="M28.4,38.1c0,.2-.2.3-.3.2s-.2-.1-.2-.3.1-.2.3-.2S28.4,38,28.4,38.1Z"/><path d="M28.4,38.1a.2.2,0,0,1-.2.2h-.3v-.3h.3c.1.1.2.2.2.3h0a.4.4,0,0,0-.1-.3H28c-.1,0-.1.2-.1.3h.3a.2.2,0,0,0,.2-.2Z"/><path class="cls-10" d="M23,34.9a1.6,1.6,0,0,1-.3.8h-1a1.3,1.3,0,0,1-.5-1s.7-.9,1.4-.5A.7.7,0,0,1,23,34.9Z"/><path class="cls-11" d="M21.6,34.8a.6.6,0,0,0,.4.8.7.7,0,0,0,.8-.9A.6.6,0,0,0,21.6,34.8Z"/><path class="cls-10" d="M21.8,34.9c0,.1,0,.4.3.4s.6-.3.5-.5A.4.4,0,0,0,21.8,34.9Z"/><path class="cls-1" d="M40.3,36.2c-3.5-4.7-9.2-4.4-8.3-2.8a2.6,2.6,0,0,1,.3,1.4v.5a5.7,5.7,0,0,0-.1,1.3c.2.2.2.5.2.9a5.2,5.2,0,0,0-.2,1.1c0,.5.2.9.2,1.3a.8.8,0,0,1,.2-.5c0,1,.3,2.8,1,3.3s0-.3.1-.4.7.9.9,1.3.6.8,1.1.7,1.5-.6,1.5-2.1C37.1,39.1,41.6,37.9,40.3,36.2Z"/><path class="cls-12" d="M22.7,35a.2.2,0,1,1-.2-.2A.2.2,0,0,1,22.7,35Z"/><path class="cls-2" d="M97.6,46.9h0c-.1,0-.1.1,0,.1Z"/><path class="cls-13" d="M100.9,41.7c-3.2,1.1-6.1-1.1-7.8-3.6a34.8,34.8,0,0,1-2.2-4.3,33.5,33.5,0,0,0-2.1-3.6,17.4,17.4,0,0,0-5.5-5.3,16.2,16.2,0,0,0-3.2-1.7,13.5,13.5,0,0,0-4.5-.4,29.3,29.3,0,0,0-8.7,2.7q-3.7,1.8-7.2,3.9l-3.9,2.4a22.7,22.7,0,0,1-4.1,2.1,8.4,8.4,0,0,1-4.7.4,10.2,10.2,0,0,1-4.3-2.1,40.2,40.2,0,0,0-5.6-4.4,11.9,11.9,0,0,0-7.4-1.6l-2,.4h0l-3.2.2a4.1,4.1,0,0,0-2.4.6,1.8,1.8,0,0,0-.8,1.8,5.6,5.6,0,0,0,0,1.3c0,.4.3.5.3.8h.1a4.3,4.3,0,0,1,.1-.5h-.1v.8a4.1,4.1,0,0,1,0,1.1l-.6,2.1-.6,2.1a3.3,3.3,0,0,1-.6,1c-1.1,1.4-2.5,2.7-3.2,4.4a4.1,4.1,0,0,0-.1,2.9c.3.8.8,1.6,1.8,1.3l.4-.2.2.3a5.2,5.2,0,0,0,1.1,1,3.4,3.4,0,0,0,2.2.4,8.9,8.9,0,0,0,5.4-3.2h-.1a9.7,9.7,0,0,0,0,1.7,20.6,20.6,0,0,1,.3,2.6,10.4,10.4,0,0,0,1.5,4.5c0,.1.1,0,.1,0a2.1,2.1,0,0,1,.1-1.1h-.1a6,6,0,0,0,.7,3.2,7,7,0,0,0,1.9,2.9h.1c0-.1-.1-.5,0-.5v.3l.3.7c.2.5.3,1,.5,1.5a3.8,3.8,0,0,0,.9,1.3,15.9,15.9,0,0,1,1.3,1.3.1.1,0,0,0,.1-.1,1.5,1.5,0,0,1,0-1.3h-.1a4.1,4.1,0,0,0,.5.9l.5.7a.4.4,0,0,1,.1.3l.2,1.6.4,4.6.6,5.3.5,4.7v1.4c0,.1.1.3,0,.3h-.4a1.9,1.9,0,0,0-1.2,1.7c0,1,1,1.8,1.9,2.1a4.2,4.2,0,0,0,2.7-.3,2.4,2.4,0,0,0,1.2-1.7,18.3,18.3,0,0,0,.2-3.3c0-1.1,0-2.3.1-3.4.1-3,.5-5.9.8-8.9a.9.9,0,0,1,.1-.5c0-.2-.1-.4.2-.4h1c.1.1.1,0,.1,0s-.2-.4-.1-.5l.4.2,1.3.3h1.1v.7l.4,3.6,1.1,10.8.4,4.1v1s.1.2,0,.2h-.1l-.6.2a1.7,1.7,0,0,0-.6,2.4,3,3,0,0,0,2.9,1.3,3.5,3.5,0,0,0,1.7-.6,2.7,2.7,0,0,0,.9-1.2,9.2,9.2,0,0,0,.5-3.7c0-2.6.3-5.3.5-7.9s.3-3.5.5-5.2a6.6,6.6,0,0,1,.6-2.7,4.7,4.7,0,0,1,.6-.9.6.6,0,0,0,.1-.4c0-.2-.2-.3-.3-.5s.1-.2.4-.2h.8a5.2,5.2,0,0,0-.6-1.3c0-.1-.2-.4-.1-.5s.2-.1.3,0l.7.3s.1,0,0-.1l-.7-1.1H57c-.1-.1-.1-.1-.1,0h.3l.6-.3,2.9-.9a7.5,7.5,0,0,0,2.5-.9l.9-.7,1-1a.1.1,0,0,0-.1-.1,3.4,3.4,0,0,1-2,.1h0a4.2,4.2,0,0,0,1.5-.4l1.7-1a8,8,0,0,0,3.2-2.6.1.1,0,0,0-.1-.1l-1.2-.2h0a3,3,0,0,0,1.4-.6l1.5-1a5.2,5.2,0,0,0,1.1-1,5,5,0,0,1,1.2-1.3h0c-.3-.1-.5-.1-.7-.3h0A3.8,3.8,0,0,0,74,52.2c.1-.1.5-.8.6-.8l.2.2c0,.1.1.1.2.2l.5.4a4.8,4.8,0,0,1,1,3.3,13,13,0,0,1-.2,4.4c0,.3-.1.2-.3.3l-.6.2a3.8,3.8,0,0,0-.9.9c-.6.9,0,1.8.8,2.3a2,2,0,0,0,1.4.6l1.8-.3a3.8,3.8,0,0,0,1.6-1.7,13.9,13.9,0,0,0,.9-3.5,27.3,27.3,0,0,0,.3-4.1v-.5c.1-.1.3.2.4.2l1,.7,2.1,1.5,2,1.7a2.9,2.9,0,0,1,.8,1.4A13.2,13.2,0,0,1,88,64a4.5,4.5,0,0,0-.1,1.1,1.7,1.7,0,0,0-.1.7c-.1.2-.1.4-.2.4h-.5l-.6.4a1.7,1.7,0,0,0-.8,1.9A2.7,2.7,0,0,0,87,69.9a2.8,2.8,0,0,0,1.5.4,4.2,4.2,0,0,0,2.8-1.4c1.5-1.8,1.6-4.5,1.7-6.7s-.1-3.5-.2-5.2a8.7,8.7,0,0,0-1-4.2l-.6-.7-.3-.4-.3-.3h-.1a11.9,11.9,0,0,1-1.1-2.6h0a4.8,4.8,0,0,0,2.9.7h0c-.1-.2-.6-1-.1-1l.6.3,1.4.3a7,7,0,0,0,2.7-.6h0c-.2-.1-.3-.3-.4-.4s0-.2.1-.3l.6-.2,1.3-.4a3.7,3.7,0,0,0,1.7-1.6.1.1,0,0,0-.1-.1l-.7.2h0a7.6,7.6,0,0,0,1.5-4h-.1a7,7,0,0,1-1.5,3.9h.1l.7-.2h0a3.5,3.5,0,0,1-1.6,1.6l-1,.3h-.6l-.6.3h0a1.5,1.5,0,0,0,.5.6h0a7.9,7.9,0,0,1-2.2.6,5.4,5.4,0,0,1-2.5-.6c0-.1-.1-.1-.1,0a.9.9,0,0,0,.2,1.1h.1a4.8,4.8,0,0,1-2.9-.7h0a5,5,0,0,0,.4,1.3c.1.2.4,1.2.7,1.2h-.1c.5.8,1.4,1.4,1.7,2.3a12.8,12.8,0,0,1,.6,3.2,53,53,0,0,1,.1,6.9,10,10,0,0,1-1.1,4.5,4.2,4.2,0,0,1-1.9,1.6,3.3,3.3,0,0,1-2.6.1c-.9-.5-1.9-1.4-1.3-2.4a2.3,2.3,0,0,1,1.8-1.2h0a12,12,0,0,0,.4-4.2,11.3,11.3,0,0,0-.6-3.2l-.9-1-1.7-1.4-3.6-2.6c-.1,0-.1,0-.1.1s-.1,2.8-.2,4.1a14.3,14.3,0,0,1-.9,3.7,3.2,3.2,0,0,1-2,2.1,3.1,3.1,0,0,1-1.9.1,2.8,2.8,0,0,1-1.8-1.4c-.5-1.1.9-2.4,1.9-2.4h.1a19.6,19.6,0,0,0,.2-5.4,13.3,13.3,0,0,0-.5-1.9,4.3,4.3,0,0,0-1.5-1.5c0-.1,0-.1-.1,0a5.5,5.5,0,0,1-1.9,1.8c-.1,0-.1.1,0,.1l.6.3h0a5.2,5.2,0,0,0-1,1.1A4.3,4.3,0,0,1,71,55.7l-1.3.9a1.8,1.8,0,0,1-.7.5,3.2,3.2,0,0,1-.9.3c-.1,0,0,.1,0,.1l1,.2h.1l-.3.3a.8.8,0,0,1-.4.4A7,7,0,0,1,66.6,60l-1.6.9a4.8,4.8,0,0,1-2,.7h0a3.8,3.8,0,0,0,2.1-.1H65c-.6.4-.9,1.1-1.5,1.5a5.6,5.6,0,0,1-2.1.9l-2.4.7a8.6,8.6,0,0,1-2.1.7h-.1a6.4,6.4,0,0,1,1,1.3h0l-1.1-.5a.1.1,0,0,0-.1.1,3.1,3.1,0,0,0,.6,1.3c0,.2.1.3.1.4a.2.2,0,0,1,0,.3.1.1,0,0,1-.1-.1,3.4,3.4,0,0,1-1,0,.1.1,0,0,0-.1.1l.3.5c.1.2.2.3,0,.5a4.3,4.3,0,0,0-.4.7,2.5,2.5,0,0,0-.4.7,3.4,3.4,0,0,0-.3,1.7,13.6,13.6,0,0,0-.2,2c-.3,2.4-.5,4.8-.7,7.2s-.2,3.4-.2,5.1a8.1,8.1,0,0,1-.5,3.1,2.7,2.7,0,0,1-.9,1.2,3.8,3.8,0,0,1-1.5.5,2.5,2.5,0,0,1-1.7-.2,3.4,3.4,0,0,1-1.5-1.4,1.7,1.7,0,0,1,1.6-2.1h0L49,80.7l-1.1-11c-.1-.9-.1-1.7-.2-2.5h-.1a9.4,9.4,0,0,1-2.9-.6h-.1c.1.3.1.5.2.6h.1l-1.3-.4h-.1c-.5,4-.9,8.1-1,12.2a14.9,14.9,0,0,1-.3,4.7A2.4,2.4,0,0,1,41,85.1a4.8,4.8,0,0,1-2.4.2c-.9-.2-2.1-1.2-1.9-2.3a1.8,1.8,0,0,1,1.6-1.4h0l-.8-8.4c-.2-2.3-.5-4.6-.7-6.8l-.3-2.5v-.5l-.3-.4a6.4,6.4,0,0,1-.8-1.4c-.1,0-.1,0-.1.1a1.7,1.7,0,0,0,0,1.4h.1c-.3-.4-.7-.6-1-1a4.7,4.7,0,0,1-1.1-1.3c-.2-.4-.3-.9-.5-1.4a8.8,8.8,0,0,1-.5-1.5h-.1c-.2.2-.1.4-.1.7h.1a7.4,7.4,0,0,1-1.9-2.7,7.8,7.8,0,0,1-.7-3.3c0-.1-.1-.1-.1,0a2.1,2.1,0,0,0-.1,1.1h.1a13.6,13.6,0,0,1-1.6-4.8,7.4,7.4,0,0,0-.1-2.1,6.2,6.2,0,0,1-.1-1.9c0-.1-.1-.1-.1,0a8.7,8.7,0,0,1-4.7,3,3,3,0,0,1-2.1,0,5.9,5.9,0,0,1-2-1.5h0a1.2,1.2,0,0,1-1.3.1c-.3-.1-.4-.4-.6-.6a5.2,5.2,0,0,1-.4-2.1,5.2,5.2,0,0,1,1.3-3,23.1,23.1,0,0,1,2-2.4A7.2,7.2,0,0,0,21,35.6a19.7,19.7,0,0,1,.7-2.6c0-.2.2-.4.2-.6a.7.7,0,0,0-.1-.5V30.7h-.1c0,.2-.1.4-.1.6h.1c0-.2-.2-.3-.3-.5a5.7,5.7,0,0,1,0-1.3,2.5,2.5,0,0,1,.1-1.2,1.5,1.5,0,0,1,.9-1,8,8,0,0,1,2.6-.5h1.3c.2,0,1.3.1,1.4-.1s0,.1,0,.1a11.6,11.6,0,0,1,8.4.7,25.8,25.8,0,0,1,5.7,4.1,10.8,10.8,0,0,0,3.6,2.4,7.8,7.8,0,0,0,4.3.6c2.9-.4,5.4-2.2,7.8-3.7,5-2.9,10.2-6.2,15.9-7.5a15.6,15.6,0,0,1,4.8-.4,11.4,11.4,0,0,1,2.5.6,10.8,10.8,0,0,1,1.8,1.1l1.4.7,1.6,1.3a17.8,17.8,0,0,1,2.9,3.2,19.4,19.4,0,0,1,2.1,3.4c.7,1.4,1.3,2.9,2.1,4.2s3.5,4.6,6.3,4.7a6.4,6.4,0,0,0,2-.3C101,41.8,100.9,41.7,100.9,41.7Z"/></g></svg>