<svg xmlns="http://www.w3.org/2000/svg" viewBox="0 0 438 498"><defs><style>.cls-1{isolation:isolate;}.cls-2{fill:#50a3a5;}.cls-3{fill:#fff;}.cls-4{fill:#cebcaa;}.cls-17,.cls-21,.cls-22,.cls-5,.cls-7,.cls-9{mix-blend-mode:multiply;}.cls-5{opacity:0.22;}.cls-6{fill:#d8cab6;}.cls-7{opacity:0.42;}.cls-13,.cls-8,.cls-9{fill:#d1cabf;}.cls-20,.cls-9{opacity:0.8;}.cls-10,.cls-15,.cls-19,.cls-20{mix-blend-mode:screen;}.cls-11{fill:#aa998a;}.cls-12{fill:#020201;}.cls-13{opacity:0.32;}.cls-14{fill:#ff7f00;}.cls-15,.cls-19,.cls-20{fill:#ff8e12;}.cls-15{opacity:0.3;}.cls-16{fill:#a55a00;}.cls-17,.cls-19{opacity:0.7;}.cls-18{fill:#c67d34;}.cls-21{fill:#c9521d;opacity:0.6;}.cls-22{fill:#bc300f;}.cls-23{fill:none;stroke:#6d5948;stroke-miterlimit:10;stroke-width:2px;}</style></defs><g class="cls-1"><g id="Title_001_Duck"><path class="cls-2" d="M185,446.3c0-1.2,100.7,2.3,163.8,5,51.8,2.2-7.1,4.9-29.7,5.8a1,1,0,0,0-.2,2l32.3,6.6a1.6,1.6,0,0,1,0,3.2c-25.1,4.7-104,17.2-162.6.3,0,0,26.7,3.1,53.6-.7s-45.3-9.7-45.3-9.7,59-4.2,70.9-.7Z"/><path class="cls-3" d="M223.5,65.7c0,30.6,24.4,56.3,59.3,56.3s63.1-24.8,63.1-55.3-28.3-51.6-63.1-51.6S223.5,35.2,223.5,65.7Z"/><path class="cls-3" d="M297.5,121c-.8,3.3.4,8.2,4.1,15.1a109.9,109.9,0,0,0,7.3,11.7c9.2,13.1,20.1,31.2,54.2,52.5s40.4,38.5,49.7,66.1c7.9,23,.5,47.7-10.9,61.1s-39.7,55.1-62.9,68.4-54.8,17.2-54.8,17.2c-8.2,3.8-8.1,10.3-8.6,9.5a7.3,7.3,0,0,1-.5-2v-1.5l-2.1,2.1.4-3.8a42.4,42.4,0,0,1-5,3.6c-.7.3-.7-3.6-.7-3.6l-4.6,3.1c-1,.6-1.1-1.8-1.1-1.8a7.8,7.8,0,0,0-1.3,1.1s-3.4,1.9-2.1.7,1.8-4.3,1.8-4.3-17.6,2.2-30.3,9.1-10.7,14.2-11.3,12.8-2.1-4.9-2.1-4.9a30.8,30.8,0,0,1-.4-3.8s-3.2,3.5-4,6a43,43,0,0,1-4.4-6.7,45.1,45.1,0,0,1-3.1,5.6c-1,1.3-1.7-5.3-1.7-5.3s-3.1,3.8-5.3,6.2c0,0-2.4,3.1-2.4,1.4,0-16.8-12.1-21.3-27.1-29.5-28.9-15.6-47.9-30.7-53.7-40.6-3-5-5.5-5.8-5.5-5.8-40.2-2.8-61.4-22-59.5-23.6S61.4,336,61.4,336c-9.6-3.4-33.3-15.7-27.4-19.1s16.8-5.8,16.8-5.8c-11.7-1.5-26.1-3.8-18.8-8.3,29.5-18,73.1-28.6,73.1-28.6,24.6-12,44.3-11.4,44.3-11.4,33.9-39.1,54.2-34.6,54.2-34.6,29.1-30,63.7-13.8,63.7-13.8,12.3-21.6,6.1-32.4-21.6-76C214,88.2,225.4,50.7,225.4,50.7"/><path class="cls-4" d="M269.8,120.1l1,.7,1.1.6,1.3.6a7.5,7.5,0,0,0,1.3.6l1.4.5,1.5.4,1.6.3,1.5.2h3.2l3-.2,2.8-.5,2.5-.6a23.7,23.7,0,0,0,3.6-1.3l1.2-.6-1.3.5-3.6.9-2.5.4a24,24,0,0,1-2.8.3h-6l-1.5-.2-1.5-.3-1.4-.3-1.4-.5-1.3-.5-1.3-.5-1.1-.5-1-.7"/><path class="cls-4" d="M292.7,230.1l-1.5-1.3a37.1,37.1,0,0,0-4.1-3.2l-2.8-2.1-3.3-2.1c-1.1-.8-2.4-1.5-3.6-2.2s-2.5-1.4-3.8-2.1l-3.9-1.9-3.9-1.6-3.8-1.3-3.4-.9-3-.5-2.3-.3h-2l2,.3,2.3.4,2.8.7,3.4,1.1,3.6,1.4c1.3.4,2.6,1.1,3.9,1.6l3.8,1.9,3.9,2,3.6,2.1,3.3,2.1,2.9,1.9c1.8,1.2,3.3,2.2,4.3,3Z"/><path class="cls-4" d="M208.4,223.2l-.9.6-2.3,1.9-3.1,2.8-1.7,1.7-1.6,1.7-1.6,1.9a11.9,11.9,0,0,0-1.5,1.8l-1.4,1.8-1.1,1.6a20.3,20.3,0,0,0-1.5,2.5l-.6.9.7-.8,1.9-2.3c.7-1,1.7-2,2.6-3.2l1.6-1.7,1.6-1.8,1.6-1.8,1.6-1.7c1.1-1.1,2-2.2,2.9-3Z"/><path class="cls-4" d="M152.9,258.2s-1,.8-2.4,2.2l-1.2,1.2-1.2,1.3-2.4,3-1.3,1.6a8.6,8.6,0,0,0-1,1.6l-1.8,2.8-1.2,2.1a4.6,4.6,0,0,0-.4.8l.5-.7a11.4,11.4,0,0,0,1.5-1.9c.7-.7,1.3-1.7,2.1-2.6a9.1,9.1,0,0,1,1.1-1.6l1.2-1.5,2.4-3.1a13.4,13.4,0,0,1,1.1-1.4l1-1.2a21.1,21.1,0,0,1,1.5-1.9Z"/><path class="cls-4" d="M144.8,267.7l-3.7,1.7c-2.3,1.1-5.7,2.7-9.5,4.9a143.7,143.7,0,0,0-12.9,8,145.2,145.2,0,0,0-13.8,10.6c-2.2,2-4.3,4-6.3,6.1a84.3,84.3,0,0,0-5.7,6.4,39.2,39.2,0,0,0-2.5,3.2,36.2,36.2,0,0,0-2.2,3.2,57,57,0,0,0-3.6,6.1,9.1,9.1,0,0,0-.7,1.4l-.4.7c0,.1-.1.2-.1.4a.7.7,0,0,0,.7,1h.8l1.4-.2a34.8,34.8,0,0,0,4.6-1.1l3.8-1.3-3.9,1.1a24.4,24.4,0,0,1-4.6,1h-2c-.3,0-.4-.2-.4-.3s-.1,0,0-.2.1-.2.2-.3l.3-.7c.3-.4.5-.9.8-1.4a70.3,70.3,0,0,1,3.7-6c.7-1,1.5-2,2.2-3.1s1.7-2.1,2.5-3.1,3.7-4.3,5.7-6.3,4.2-4,6.4-6A142.2,142.2,0,0,1,119.1,283c4.6-3.2,8.9-6,12.8-8.2s7-4.1,9.3-5.3Z"/><path class="cls-4" d="M322.3,273.4a26.6,26.6,0,0,1,3.3,2.1,23.7,23.7,0,0,1,2.9,2.5,26.9,26.9,0,0,1,4.7,6.1,29.4,29.4,0,0,1,2.9,7.1,27,27,0,0,1,.8,7.5,43.3,43.3,0,0,1-3.5,14.7,37.3,37.3,0,0,1-1.6,3.5,24,24,0,0,1-2.1,3.1c-.1.1-.3.2-.3.3h0c-.1-.3-.1-.7-.2-1s-.3-1.2-.4-1.9a21.7,21.7,0,0,0-1.5-3.5c0-.2-.2-.2-.3-.2a.4.4,0,0,0-.1.3,41.7,41.7,0,0,1-2.6,11.5,50.7,50.7,0,0,1-5.5,10.6,52.9,52.9,0,0,1-7.7,9.3,21.1,21.1,0,0,1-2.3,1.9l-1.2.8-.5.2H307c0-.2-.1-.3-.1-.4a14,14,0,0,1-.6-2.8c-.1-1-.3-2-.3-3s-.2-.3-.4-.3-.2.1-.3.3a23.4,23.4,0,0,1-2.6,6.1,42.8,42.8,0,0,1-3.7,5.7,26.2,26.2,0,0,1-2.2,2.5l-.6.5c-.1.1-.3.1-.1.1h.1l.3-1.7c.2-1.1.3-2.2.4-3.3s.1-2.3.1-3.4-.1-.4-.3-.4l-.3.2a20.9,20.9,0,0,1-4.6,6.4,27.9,27.9,0,0,1-6.6,4.6,54.9,54.9,0,0,1-15.4,5.2,67.7,67.7,0,0,1-16.2,1.2,28.5,28.5,0,0,1-4.1-.4l-1.9-.5c-.6-.2-1.1-.6-1-.8s.7-2.6,1.2-3.8a23.9,23.9,0,0,1,1.5-3.7h0c.2-.2.1-.4-.2-.6s-.4,0-.5.2a32.1,32.1,0,0,1-12.7,8.7,44.9,44.9,0,0,1-15.4,2.6,54.3,54.3,0,0,1-15.6-2l-3.7-1.3-1.6-1a1,1,0,0,1-.6-.5c-.1-.2-.1-.1.1-.5a36.2,36.2,0,0,1,2-3.3,34,34,0,0,1,2.3-3h0c.2-.2.2-.5,0-.6h-.6a37.3,37.3,0,0,1-13.5,6,57.9,57.9,0,0,1-15,1.5,83.2,83.2,0,0,1-14.9-1.9c-2.5-.5-4.9-1.1-7.3-1.8s-4.8-1.5-7.1-2.4l.2.4.4-1,.5-.8a1.9,1.9,0,0,1,.5-.9l.6-.9a35.9,35.9,0,0,1,2.5-3.3,54.8,54.8,0,0,1,5.9-5.9h0a.2.2,0,0,0,.1-.4c-.1-.2-.3-.2-.5-.1a24.7,24.7,0,0,1-11.3,4.3,41.6,41.6,0,0,1-12.2-.3,53.1,53.1,0,0,1-6-1.2,28.9,28.9,0,0,1-5.8-2.2l-1.2-.7-.3-.4.5-.2,2.8-1.3a46.8,46.8,0,0,0,5.4-3c.2,0,.2-.2.1-.3H127a71.4,71.4,0,0,1-17.9-.3,69,69,0,0,1-17.2-4.9,28.7,28.7,0,0,1-3.9-2l-.9-.7-.3-.4c0-.1-.1-.1,0-.2v-.2l1-2a39.1,39.1,0,0,1,5.3-7,72.8,72.8,0,0,1,6.3-6.1c2.2-2,4.5-3.9,6.8-5.7l-6.9,5.6c-2.2,2-4.3,4-6.3,6.2a40.1,40.1,0,0,0-5.4,6.9,18.6,18.6,0,0,0-1,2v.3c-.1.1,0,.2,0,.3l.4.5.9.6a21,21,0,0,0,3.9,2.1,65.2,65.2,0,0,0,17.2,5,64,64,0,0,0,18,.5v-.5l-5.4,3a23.6,23.6,0,0,1-2.8,1.2l-.4.2c-.1,0-.3.1-.4.4a.4.4,0,0,0,.1.5l.3.4,1.4.8a36.6,36.6,0,0,0,5.8,2.2,59.9,59.9,0,0,0,6.1,1.3,46.8,46.8,0,0,0,12.4.3,25.3,25.3,0,0,0,11.6-4.4l-.4-.5a67.9,67.9,0,0,0-6,6l-2.6,3.3-.6.9a4.1,4.1,0,0,0-.5.9,9.3,9.3,0,0,0-.5,1l-.5,1a.4.4,0,0,0,.2.4h0l7.2,2.5c2.4.7,4.9,1.3,7.3,1.8a77,77,0,0,0,15.1,1.9,55.6,55.6,0,0,0,15.2-1.4,40.8,40.8,0,0,0,13.8-6.1l-.6-.6a37.1,37.1,0,0,0-2.3,3.2,23,23,0,0,0-2.1,3.3c-.1.2-.2.2-.2.6a.8.8,0,0,0,.1.7,5.9,5.9,0,0,0,.8.8l1.8,1.1,3.8,1.3a57,57,0,0,0,15.9,2.2,46.8,46.8,0,0,0,15.7-2.8,31.5,31.5,0,0,0,13.1-9l-.7-.5a31.7,31.7,0,0,0-1.7,3.8c-.4,1.2-.8,2.6-1.1,3.9a.6.6,0,0,0,.1.7,1.1,1.1,0,0,0,.4.5,2.7,2.7,0,0,0,1,.6l2.1.5a30.5,30.5,0,0,0,4.1.5,76.1,76.1,0,0,0,8.3-.2,73.6,73.6,0,0,0,8.2-1.2,54.1,54.1,0,0,0,15.6-5.2,31.6,31.6,0,0,0,6.7-4.8,20.4,20.4,0,0,0,4.7-6.6l-.7-.2c0,1.2,0,2.3-.1,3.4s-.2,2.2-.4,3.3l-.3,1.7v.3a.3.3,0,0,0,.1.2.2.2,0,0,0,.2.2c.5.1.6-.1.8-.1l.7-.6,2.2-2.6a52.5,52.5,0,0,0,3.8-5.8A29.2,29.2,0,0,0,306,342h-.7a25.4,25.4,0,0,0,.4,2.9,15.9,15.9,0,0,0,.6,3c.1.2.1.3.2.4v.2c0,.1.2.2.3.2a1.6,1.6,0,0,0,1-.1l1.3-.9,2.3-2a55.8,55.8,0,0,0,13.3-20.1,39.5,39.5,0,0,0,2.5-11.7h-.4a36.5,36.5,0,0,1,1.4,3.5,12.1,12.1,0,0,1,.5,1.8c0,.3.1.6.1.9a.8.8,0,0,0,.1.4h.5l.5-.4a16,16,0,0,0,2.1-3.2c.6-1.2,1.2-2.3,1.7-3.5a42.9,42.9,0,0,0,3.3-14.9,28.1,28.1,0,0,0-.8-7.6,30.8,30.8,0,0,0-3-7,27.6,27.6,0,0,0-4.7-6.1,24.8,24.8,0,0,0-3-2.5A18.5,18.5,0,0,0,322.3,273.4Z"/><path class="cls-4" d="M322.3,289.4a10.1,10.1,0,0,1,.6,1.7c.2.5.4,1.2.6,1.9s.3,1.6.5,2.6l.3,1.5c0,.5.1,1,.1,1.5a9.7,9.7,0,0,1,.1,1.7,5.4,5.4,0,0,1,0,1.8,21.7,21.7,0,0,1-.2,3.6,12.9,12.9,0,0,1-.4,1.9,12.1,12.1,0,0,1-.5,1.8l-.2.9-.4.9a8.7,8.7,0,0,1-.7,1.7c-.7,1.1-1.2,2.2-1.9,3.1a17.1,17.1,0,0,1-1.1,1.4.3.3,0,0,1-.1.2h-.3a.9.9,0,0,1-.6-.3,9.6,9.6,0,0,1-1.7-2.4,23.7,23.7,0,0,1-1.7-4.4l-.3-1.7v.4c0,.4.1.8.1,1.3a19.1,19.1,0,0,0,1.4,4.6,10.1,10.1,0,0,0,1.7,2.7l.9.6h1l.2-.2,1.1-1.5a17.7,17.7,0,0,0,2.1-3.2c.3-.5.5-1.2.8-1.8l.4-.9.3-.9c.1-.7.4-1.3.5-1.9l.3-1.9c.1-1.3.2-2.6.2-3.8a10.9,10.9,0,0,0-.1-1.8c-.1-.6-.1-1.2-.2-1.7a10,10,0,0,1-.2-1.6,11.3,11.3,0,0,1-.4-1.5,26.2,26.2,0,0,0-1.4-4.5A17.8,17.8,0,0,0,322.3,289.4Z"/><path class="cls-4" d="M301.7,294.4a39.5,39.5,0,0,1-1,9.7,28,28,0,0,1-1.6,4.6,21.2,21.2,0,0,1-1.1,2.1,13.7,13.7,0,0,1-1.3,2,14.6,14.6,0,0,1-1.6,1.9,11.9,11.9,0,0,1-1.8,1.5l-2.1,1.3h-.3l-.2.2h-.5a1.6,1.6,0,0,1-.9-.3,3.1,3.1,0,0,1-1.2-1.7,20.2,20.2,0,0,1-.7-2.3,39.1,39.1,0,0,1-.5-4.8v-2.9l-.8,2.8a4.2,4.2,0,0,1-.4,1,4.7,4.7,0,0,1-.5,1,8,8,0,0,1-1.5,1.7l-.9.6-1.1.4h-.9a1.6,1.6,0,0,1-.7-.7,7.2,7.2,0,0,1-.5-2.1,19.4,19.4,0,0,1-.2-2.4,37.3,37.3,0,0,1,.4-4.6,24.4,24.4,0,0,0-.7,4.6v2.4a10.3,10.3,0,0,0,.5,2.4,2.2,2.2,0,0,0,1,.9l.7.2h.6l1.2-.4a4.1,4.1,0,0,0,1.1-.7,7.3,7.3,0,0,0,1.7-1.8l.6-1.1a3.6,3.6,0,0,0,.4-1.1h-.8a26.3,26.3,0,0,0,.4,4.9,18.2,18.2,0,0,0,.7,2.5,4.6,4.6,0,0,0,1.5,2.2,2.9,2.9,0,0,0,1.6.4l.7-.2h.6a10.2,10.2,0,0,0,2.2-1.4,10,10,0,0,0,1.9-1.6l1.7-1.9a23.1,23.1,0,0,0,3.8-9.2,20.5,20.5,0,0,0,.6-4.9A26.8,26.8,0,0,0,301.7,294.4Z"/><path class="cls-4" d="M326.6,318.3a2.3,2.3,0,0,1,.2-.7c.1-.5.2-1.1.4-2a5.3,5.3,0,0,0,.1-1.3,7.6,7.6,0,0,0,.1-1.5v-1.6c0-.5-.1-1.1-.1-1.6s-.1-1.1-.2-1.7a9.4,9.4,0,0,0-.4-1.6l-.3-1.4c-.1-.5-.3-.9-.4-1.3a16,16,0,0,1-.7-1.9l-.3-.7a4.5,4.5,0,0,0,.1.8c.1.5.2,1.1.3,1.9l.3,1.3c.1.5.1,1,.2,1.5l.3,1.5c0,.6.1,1.1.1,1.6a9.9,9.9,0,0,1,.2,1.7c0,.5.1,1,.1,1.5v5.5Z"/><path class="cls-4" d="M308.5,331.2l-.4.7-1.3,1.8-.9,1.2a6.9,6.9,0,0,1-1.1,1.3l-1.2,1.3-.7.6a2,2,0,0,1-.7.6l-.7.5-.7.3h-.5l-.4-.6a8,8,0,0,1-.4-3v-3.1a7.3,7.3,0,0,0-.2.8c-.1.6-.3,1.4-.4,2.3a7.5,7.5,0,0,0,0,1.5,5.5,5.5,0,0,0,.2,1.8,2.4,2.4,0,0,0,.6.9,1.4,1.4,0,0,0,1.2.4,3.6,3.6,0,0,0,1.1-.4l.8-.6.8-.6.7-.7,1.2-1.3,1-1.5a8.3,8.3,0,0,0,.7-1.3,4.1,4.1,0,0,0,.6-1.1l.4-.9Z"/><path class="cls-4" d="M275.2,322.4c-.8,1.2-1.6,2.3-2.5,3.4a13.3,13.3,0,0,1-2.9,2.9l-.4.3h-.5a.7.7,0,0,1-.6-.1,1.9,1.9,0,0,1-.3-.8,2.9,2.9,0,0,1-.2-.9,18.5,18.5,0,0,1,.2-4.1l.2-1.3-1,.9a21.1,21.1,0,0,1-2.3,1.9l-1.2.9-1.3.7-1.4.6-1.4.4h-2a1,1,0,0,1-.5-.4,3.6,3.6,0,0,1-.5-2.6,10.4,10.4,0,0,1,.5-2.9q.8-2.8,1.8-5.7c-.4.9-.9,1.8-1.3,2.8a23.1,23.1,0,0,0-1,2.8,16.3,16.3,0,0,0-.7,3,4.3,4.3,0,0,0,0,1.6,2.7,2.7,0,0,0,.6,1.6,1.6,1.6,0,0,0,.8.5h2.5l1.6-.4a6.1,6.1,0,0,0,1.4-.7,17.5,17.5,0,0,0,2.7-1.6,23.1,23.1,0,0,0,2.4-2l-.8-.4a19.7,19.7,0,0,0-.1,4.2,3.6,3.6,0,0,0,.2,1.1,2.4,2.4,0,0,0,.6,1.1,1.2,1.2,0,0,0,1.4.2h.5l.5-.4a5.4,5.4,0,0,0,1.5-1.5c.5-.5.9-1.1,1.4-1.7A31,31,0,0,0,275.2,322.4Z"/><path class="cls-4" d="M273.9,337.1s-.2.6-.7,1.7-1.4,2.4-2.5,4.1a29,29,0,0,1-4.4,5.2,36.1,36.1,0,0,1-3,2.5,38.7,38.7,0,0,1-3.4,2.1,23.9,23.9,0,0,1-3.7,1.5,17,17,0,0,1-3.7,1l-1.9.2-1.8.2h-2c-.1,0-.2,0-.2-.1a.8.8,0,0,1-.2-.5,6.6,6.6,0,0,1,.6-2.5,9.3,9.3,0,0,1,.8-2l.8-1.6-1,1.6-1,1.8a9.6,9.6,0,0,0-.8,2.7,1.1,1.1,0,0,0,.4.9.5.5,0,0,0,.5.3h4l1.9-.2a18.6,18.6,0,0,0,3.9-1,31.2,31.2,0,0,0,3.9-1.5,19.8,19.8,0,0,0,3.4-2.2,38.8,38.8,0,0,0,3.1-2.6,27.8,27.8,0,0,0,4.2-5.5,22.2,22.2,0,0,0,2.2-4.4A7.7,7.7,0,0,0,273.9,337.1Z"/><path class="cls-4" d="M234.5,331.8a51.1,51.1,0,0,1-7.2,7.5,31.9,31.9,0,0,1-4.2,3,17.1,17.1,0,0,1-2.3,1.3l-2.3,1.1a21.6,21.6,0,0,1-4.9,1.6l-1.3.3h-1.2l-2.6.2h-1.9c-.1,0-.3,0-.3-.1H206c-.5-.2-.5-1.1-.4-1.8a7.5,7.5,0,0,1,.8-2.4,15.1,15.1,0,0,1,1.1-2.2l.9-1.6-1.5,1a30.2,30.2,0,0,1-4.3,2.5l-1.1.4a2.7,2.7,0,0,1-1.2.3h-1.1a1.4,1.4,0,0,1-.8-.7,4.6,4.6,0,0,1-.5-2.3,9.9,9.9,0,0,1,.3-2.4,19.8,19.8,0,0,1,1.5-4.7,20.3,20.3,0,0,0-1.9,4.6,11.3,11.3,0,0,0-.3,2.5,4.4,4.4,0,0,0,.4,2.5,2.2,2.2,0,0,0,1.1,1h1.4l1.2-.4,1.3-.4a19.5,19.5,0,0,0,4.5-2.4l-.6-.5a16.7,16.7,0,0,0-1.2,2.3,10.6,10.6,0,0,0-.9,2.5,6.6,6.6,0,0,0,0,1.4,2,2,0,0,0,1,1.4h5.5l1.3-.2,1.3-.3a30.5,30.5,0,0,0,5.1-1.7l2.3-1.2,2.3-1.4c1.5-1,2.8-2.1,4.2-3.2s2.5-2.4,3.7-3.7A32.5,32.5,0,0,0,234.5,331.8Z"/><path class="cls-4" d="M234.5,293a93,93,0,0,1-8.1,5.9l-2.2,1.3-1,.6-1.2.5-1.1.5-1.2.5a3.5,3.5,0,0,1-1.1.3l-1.2.3h-1.8l-.4-.2a2.2,2.2,0,0,1-1-1.8,8.8,8.8,0,0,1,0-2.3,20.5,20.5,0,0,1,.5-2.4,49.9,49.9,0,0,1,3.4-9.1l1.2-2.5-1.9,2-1.6,1.6a8,8,0,0,1-1.7,1.5,2.7,2.7,0,0,1-.8.7l-1,.7-.9.6-1,.4a1.4,1.4,0,0,1-1,.2c-.3,0-.5-.3-.7-.6a4.9,4.9,0,0,1-.3-2.1,31.1,31.1,0,0,1,.7-4.4,21.6,21.6,0,0,0-1,4.4,6.2,6.2,0,0,0,.2,2.3,1.3,1.3,0,0,0,1,.9,1.6,1.6,0,0,0,1.2-.2l1.2-.4,1-.6,1-.6.9-.7,1.8-1.5c.6-.5,1.1-1.1,1.6-1.6l-.6-.5a38.2,38.2,0,0,0-2.1,4.6,36.8,36.8,0,0,0-1.5,4.7,11.1,11.1,0,0,0-.5,2.5,7.6,7.6,0,0,0,0,2.6,3.3,3.3,0,0,0,.4,1.3,2.4,2.4,0,0,0,1,1c.2.2.5.2.8.3h2l1.3-.3,1.2-.4,1.2-.5,1.2-.5,1.1-.6,1.1-.7,2.1-1.3,2.1-1.5,1.9-1.6A39,39,0,0,0,234.5,293Z"/><path class="cls-4" d="M256.3,271.3a28.1,28.1,0,0,0-.8,3.1,16.6,16.6,0,0,0-.3,3.2,5.3,5.3,0,0,0,.4,1.6,1.8,1.8,0,0,0,1.5,1,4.3,4.3,0,0,0,1.7-.4,4.6,4.6,0,0,0,1.5-.9,19.6,19.6,0,0,0,4.1-5,51.4,51.4,0,0,0,2.7-5.8l-.9-.3c-.3.9-.4,1.7-.6,2.5a21.3,21.3,0,0,0-.3,2.5,5.7,5.7,0,0,0-.1,1.3,3.9,3.9,0,0,0,.2,1.4l.6.6.8.2a2.8,2.8,0,0,0,1.3-.4,10.5,10.5,0,0,0,2.3-1.3,15.4,15.4,0,0,0,1.9-1.7,14.6,14.6,0,0,0,2.9-4.1,17,17,0,0,1-3.2,3.8,12.2,12.2,0,0,1-4.1,2.7l-1.1.3a.7.7,0,0,1-.7-.4,4,4,0,0,1,0-1.1,4.8,4.8,0,0,1,0-1.2,20,20,0,0,1,.4-2.4,10.5,10.5,0,0,1,.6-2.4l-.9-.3-1.2,2.9c-.5.9-.9,1.9-1.4,2.8a17.9,17.9,0,0,1-3.8,4.8l-1.3.9a3.3,3.3,0,0,1-1.4.4c-.4,0-.7-.3-1-.7a5.7,5.7,0,0,1-.4-1.4,16.3,16.3,0,0,1,.1-3.1C255.9,273.4,256.1,272.4,256.3,271.3Z"/><path class="cls-4" d="M174.6,339.2l-1.3.4-3.5,1-4.9,1.2-2.7.6-2.9.4h-3.5l-.5-.2a1.8,1.8,0,0,1-.7-.8,4.9,4.9,0,0,1,.2-2.4c.3-.7.6-1.5.9-2.1a18.7,18.7,0,0,1,1.7-3l.7-1.2-.9,1.1a26.8,26.8,0,0,0-2,2.9,10.2,10.2,0,0,0-1,2.1,5,5,0,0,0-.4,2.8,2.6,2.6,0,0,0,1,1.3,2,2,0,0,0,.8.4h.7l1.5.2h1.6l2.9-.5a23,23,0,0,0,2.8-.6l4.9-1.5,3.3-1.3Z"/><path class="cls-4" d="M170.3,259.2l-2.8,2.1a31.1,31.1,0,0,0-2.8,2.3l-2.6,2.3a12.2,12.2,0,0,0-2.4,2.7,2.6,2.6,0,0,0-.5.9,1.3,1.3,0,0,0,0,1.2,1.4,1.4,0,0,0,1.1.5h.9l1.9-.2,1.8-.3a23.5,23.5,0,0,0,3.5-1.1,23.3,23.3,0,0,0,3.3-1.4l-.5-.6a29.2,29.2,0,0,0-2.4,3.7l-.5,1-.5,1.1a1.7,1.7,0,0,1-.2.5c0,.2-.1.5,0,.7a1.2,1.2,0,0,0,.6.6h.6a7.9,7.9,0,0,0,2.3-.4l2.1-.8a16.3,16.3,0,0,0,3.8-2.4l-1.9,1.1-2,.9-2.1.7a5.3,5.3,0,0,1-2.1.3q-.6,0-.6-.3c-.1-.1,0-.5.2-.8a10.4,10.4,0,0,0,.4-1l.6-.9a37.5,37.5,0,0,1,2.4-3.6l1-1.4-1.6.8-3.2,1.3-3.4,1-1.7.4h-2.6l-.5-.2a1.8,1.8,0,0,1,.1-.5,2.1,2.1,0,0,1,.4-.6,14.4,14.4,0,0,1,2.2-2.7l2.5-2.5,2.6-2.4Z"/><path class="cls-4" d="M124.8,299.8l-3.5,2.3c-1.2.8-2.3,1.7-3.4,2.6l-1.6,1.4-1.5,1.5-1.4,1.6-.6.9a1.5,1.5,0,0,0-.1,1.3,1.8,1.8,0,0,0,.9,1l1.1.4a7.8,7.8,0,0,0,2.2.3,20.6,20.6,0,0,0,4.3,0,21.4,21.4,0,0,0,4.3-.7l2-.7a5.9,5.9,0,0,0,2-1.2l-.7-.5a21.3,21.3,0,0,0-1.6,2.5l-.6,1.3a7.8,7.8,0,0,0-.5,1.4,1.2,1.2,0,0,0,.2,1c.2.3.5.4.7.6a4.5,4.5,0,0,0,1.6.3,15.1,15.1,0,0,0,3-.1,21.9,21.9,0,0,0,5.7-1.6,29,29,0,0,0,5.3-2.6,32.5,32.5,0,0,1-5.4,2.3,26.3,26.3,0,0,1-5.7,1.3,14,14,0,0,1-2.9,0,4.2,4.2,0,0,1-1.2-.3c-.4-.2-.6-.5-.5-.7a6.9,6.9,0,0,1,.5-1.3l.6-1.3a18.2,18.2,0,0,1,1.5-2.3l-.6-.6a9.5,9.5,0,0,1-1.7,1,6.6,6.6,0,0,1-2,.6,18.5,18.5,0,0,1-4.1.7,19.7,19.7,0,0,1-4.2.1l-2-.3a2.7,2.7,0,0,1-1.5-.9c-.1-.2,0-.3.1-.6l.6-.9,1.2-1.6,1.5-1.5a6.7,6.7,0,0,1,1.5-1.4A55.6,55.6,0,0,1,124.8,299.8Z"/><path class="cls-4" d="M247.7,226.1q-2.7.8-5.4,1.8l-2.6,1.1a20.1,20.1,0,0,0-2.5,1.4,2.9,2.9,0,0,0-1.1,1.1.9.9,0,0,0,0,.7.5.5,0,0,0,.4.3l.8.3a14.6,14.6,0,0,0,2.9.2,54.4,54.4,0,0,0,5.7-.3l-.2-.9-1.6,1-1.4,1.1a14.9,14.9,0,0,0-2.3,2.7l-.5.7v.4c-.1.1-.1.3-.2.5a2,2,0,0,0,.1.7l.4.4a2.6,2.6,0,0,0,1,.4h1.9l1.7-.3c2.3-.5,4.6-1.2,6.8-1.9l3.2-1.3a30.7,30.7,0,0,0,3.1-1.7l-3.2,1.4-3.3,1.1a38.4,38.4,0,0,1-6.7,1.6,9.3,9.3,0,0,1-3.3.2l-.7-.2c-.1-.1-.1-.1-.1-.3a11.7,11.7,0,0,1,.8-1.3,16.5,16.5,0,0,1,2.2-2.4,6.9,6.9,0,0,1,1.3-1.1l1.4-.8,2.4-1.2-2.7.3a50.9,50.9,0,0,1-5.6.4h-2.7l-.6-.2h-.1c.1-.3.5-.6.8-.9a38,38,0,0,1,4.9-2.6Z"/><path class="cls-4" d="M76.4,312.8H74.9l-4.1-.3-5.8-.3-6.6-.4-3.3-.3-3.2-.2-5.7-.6-2.3-.3-1.8-.3-1.5-.3,1.5.5,1.7.4,2.3.5,2.7.5,3,.4c2.1.3,4.3.4,6.6.6s4.5.2,6.6.3a56,56,0,0,0,5.8,0h5.6Z"/><path class="cls-4" d="M80.3,343.3,76,341.8l-4.3-1.6-2.5-.9-2.5-.9-2.5-1-2.4-.9-4.3-1.8-3-1.3-1.1-.5,1,.7,2.9,1.6,1.9,1,2.3,1,4.9,2,2.5,1,2.5.8,4.5,1.3C78.5,343,80.3,343.3,80.3,343.3Z"/><path class="cls-4" d="M80.3,302.8h-2l-2.1.4-1.1.4-.6.3a.9.9,0,0,0-.6.9,1.1,1.1,0,0,0,.6.7c.1.2.4.3.6.4l1.1.4a7.6,7.6,0,0,0,2.1.3,10.7,10.7,0,0,0,2,0l-1.9-.5-1.9-.6-1-.4-.5-.3c-.1-.1-.1-.2-.1-.1H75l.5-.3,1-.4,1.9-.6Z"/><path class="cls-4" d="M113.6,366l-.5-.8a14.4,14.4,0,0,0-1.5-2.1,5.7,5.7,0,0,0-1-1.3l-.7-.8-.7-.6-.8-.7-.8-.7-1.8-1.1-1.9-1-2-.8-1.8-.6-.9-.2-.8-.2-2.6-.4h-1l1,.3,2.4.8.8.2.8.3,1.8.7.9.4,1,.4,1.8,1,1.8,1.1,1.5,1.2a8.7,8.7,0,0,1,1.4,1.2c.4.5.9.8,1.2,1.2l1.8,1.9Z"/><path class="cls-4" d="M387.5,302.8a26.7,26.7,0,0,1-.3,3.4,75.9,75.9,0,0,1-1.5,8.7c-.5,1.7-1,3.7-1.7,5.6s-1.5,4.1-2.4,6.2a62.3,62.3,0,0,1-3.2,6.3c-.5,1-1.2,2-1.8,3.1l-2.1,3c-.8,1-1.5,2-2.3,2.9l-1.1,1.4-1.2,1.4-2.5,2.6a29.6,29.6,0,0,1-2.6,2.4,27.5,27.5,0,0,1-2.6,2.2l-2.6,2c-1.6,1.3-3.4,2.4-4.9,3.4l-2.3,1.4-2.1,1.2-3.5,1.7-3.2,1.5,3.2-1.3a36.7,36.7,0,0,0,3.6-1.7c1.4-.6,2.9-1.5,4.6-2.3l5.1-3.3,2.6-2,2.7-2.2A29.6,29.6,0,0,0,368,348l2.5-2.6,1.3-1.4,1.2-1.4,2.3-3,2.1-3,1.8-3.2a63.6,63.6,0,0,0,3.2-6.4c.9-2.1,1.6-4.2,2.3-6.3s1.1-3.9,1.5-5.7a52.7,52.7,0,0,0,1.2-8.8A21.9,21.9,0,0,0,387.5,302.8Z"/><g class="cls-5"><path class="cls-6" d="M296.8,121c-1.2,5,2.2,13.6,11.4,26.8s20.1,31.2,54.2,52.5,40.4,38.5,49.8,66.1c7.8,23,.5,47.7-11,61.1s-39.7,55.1-62.9,68.4-54.7,17.2-54.7,17.2c-8.2,3.8-8.2,10.3-8.6,9.5a4.7,4.7,0,0,1-.5-2v-1.5l-2.2,2.1.5-3.8a38.3,38.3,0,0,1-5.1,3.6c-.6.3-.6-3.6-.6-3.6l-4.7,3.1c-.9.6-1-1.8-1-1.8a4.8,4.8,0,0,0-1.3,1.1s-3.5,1.9-2.2.7,1.9-4.3,1.9-4.3-17.7,2.2-30.4,9.1-10.6,14.2-11.3,12.8-2.1-4.9-2.1-4.9-.3-2.4-.4-3.8-3.2,3.5-3.9,6a40.5,40.5,0,0,1-4.5-6.7s-2,4.4-3.1,5.6-1.6-5.3-1.6-5.3-3.1,3.8-5.3,6.2c0,0-2.5,3.1-2.5,1.4,0-16.8-12-21.3-27.1-29.5-28.9-15.6-47.9-30.7-53.7-40.6-2.9-5-5.4-5.8-5.4-5.8-40.3-2.8-61.5-22-59.5-23.6S60.7,336,60.7,336c-9.6-3.4-33.3-15.7-27.3-19.1s16.8-5.8,16.8-5.8c-11.8-1.5-26.2-3.8-18.9-8.3,29.5-18,73.1-28.6,73.1-28.6,24.7-12,44.4-11.4,44.4-11.4,33.9-39.1,54.2-34.6,54.2-34.6,29-30,63.6-13.8,63.6-13.8,25.7-26.8-31.6-73.7-39.3-120.5,0,0,21.5,37.4,70,28.1M327,244c-4.2-10.1-7.4-17.2,8.1,2.6s15.5,41.2,8.5,30.9-10.9-14.1-3.8,5c14.6,39.5-17.1,71.6-6.2,60.8s14.2-20.7,10-3.3-18.4,24.8-2.6,18.8c45.4-17,45.5-73.5,48.4-59s-9.6,41.5-1.9,28.4,9-32.9,9-15.4c0,23.4,25.2-17.5,6.8-60.9-15.4-36.4-62.6-54.2-87.1-84.8-9.7-12.1-18-30.6-23.5-34.4-2.2-1.6,12.2,25.6,1.6,17.2s-5.7-2.6,2.5,14.1c10,20.1-2.1,9.3-7.7,4.9s8,10,8.6,34.7,12.7,48.1,10.8,31.7S331.2,254,327,244Zm-36.5-4.7c-2.2-1.9-22-9.9-12.8-9.2s26.6,9.4,12.8,0-36.1-26.7-61.7-12.9-37.4,26.8-44.2,42c-3.3,7.2.7-6.8,2.9-16.8,3.6-16.3-32.5,9.2-47.5,35.6-7.3,12.6-4.3,16.7-.9,13.7s13.9-5.9,3.5-.3c-14.3,7.8-19,17.8-13.5,15.3s17.1-10.1,9.7-3.9-9.4,12.5-1,10.7,16.1-12.1,12.9-7.1-8.4,10.2-1.6,8.5,11.6-10.5,8.7-3.7-16.8,17.5,1.7,8.1,26-33.8,21.7-19.5-22.7,34.2,1,29.8,33.8-23.5,26.1-8.4-2.7,15.9.6,11.7,12.8-13.3,10-9-12.2,20.9,3.5,14.2S246,308,243.6,315.8c-2.8,9.3-12.7,27.7-.3,18s20.1-30.5,18.1-24.1-3.9,15.7,2.4,12.4,9.3-11.1,8-6.3-3.9,13.4.2,11.3,5.5-19.1,5.3-9.1,6.5-2.2,6.5-2.2c0,16.1-15,38,0,27.5s18-29.4,18-29.4c0,6.5-.4,18.2,3.6,13.8,6.8-7.4,7.9-26.4,9-22.4s2.8,11.5,5.3-3.4-11.9-50.7-11.7-37.8c.1,10.1-.7-.2-4.1-8.7s-1.4-2.4-2.1,2.1S300.6,248.1,290.5,239.3ZM59.2,318.8c6.2,2-12.9-3-23.7-2s25,20.1,50.1,10.3c3-1.1.6-1.3-11.2-2.8s-.1-1.7,6.5-6.2,2.1-2.9-1.9-2.7a86,86,0,0,1-24.4-1.6C42.5,311,53.1,316.8,59.2,318.8Zm5.7-17c22.4-2.7,8.2-.1,5.3,1s5.1,1.2,12.1-1c19.2-6,17.8-6.8,11.3-6s23.2-20.9,45-29.3c0,0-21.9,1.5-37.7,12.1s-1.2-.9-1.2-.9-36.3,8.9-55.8,19.4S42.5,304.5,64.9,301.8Z"/></g><g class="cls-7"><path class="cls-8" d="M308.2,147.8c9.1,13.2,20.1,31.2,54.2,52.5s40.4,38.5,49.8,66.1c7.8,23,.5,47.7-11,61.1s-39.7,55.1-62.9,68.4-54.7,17.2-54.7,17.2c-8.2,3.8-8.2,10.3-8.6,9.5a4.7,4.7,0,0,1-.5-2v-1.5l-2.2,2.1.5-3.8a38.3,38.3,0,0,1-5.1,3.6c-.6.3-.6-3.6-.6-3.6l-4.7,3.1c-.9.6-1-1.8-1-1.8a4.8,4.8,0,0,0-1.3,1.1s-3.5,1.9-2.2.7,1.9-4.3,1.9-4.3-17.7,2.2-30.4,9.1-10.6,14.2-11.3,12.8-2.1-4.9-2.1-4.9-.3-2.4-.4-3.8-3.2,3.5-3.9,6a40.5,40.5,0,0,1-4.5-6.7s-2,4.4-3.1,5.6-1.6-5.3-1.6-5.3-3.1,3.8-5.3,6.2c0,0-2.5,3.1-2.5,1.4,0-16.8-12-21.3-27.1-29.5-28.9-15.6-47.9-30.7-53.7-40.6-2.9-5-5.4-5.8-5.4-5.8-40.3-2.8-61.5-22-59.5-23.6S60.7,336,60.7,336c-9.6-3.4-33.3-15.7-27.3-19.1s16.8-5.8,16.8-5.8c-11.8-1.5-26.2-3.8-18.9-8.3,29.5-18,73.1-28.6,73.1-28.6,24.7-12,44.4-11.4,44.4-11.4,33.9-39.1,54.2-34.6,54.2-34.6,29-30,63.6-13.8,63.6-13.8,12-21.3,7.7-33.2-21.5-76-2.3-3.4-19.7-37-20.9-57.3-.7-24.7-.7-39.7,18.8-54.3,36-24.8,74.2-4.2,74.2-4.2-49.7-15-76.1,20.6-80.3,31.9s-11.5,45,22.9,95.1c20.9,25.3,32.4,49.6,22.4,67.2-1,1.7,10.3,9.6,14,15s-20.6-16.7-41.4-20.3-50.2,13-66,36.1c0,0-.2-5.8,5.9-13.9s-40.5,12.6-60.5,53.2c-2.2,4.7.3-4,3.8-10.8s-30.5,14.8-37.6,27.3,12.6-.6,12.6-.6-9.2,11.2-12.8,18.4,26.3,10.1,45.4,1.2a35.7,35.7,0,0,1-11.8,12.5c-8.9,5.7,16.2,9.2,31.7-15,0,0-6,13.1-6,15.7,0,4.2,15,2.7,30.1-3.8,0,0-5,11.5-26.9,16.7-11.2,2.6,20.5,19.3,49.1-1.1a17.6,17.6,0,0,0-1.4,8.6c.5,9.1,33.6-6.9,46.3-23,0,0-4.5,10.4-5.7,14.4-3.2,10.8,18.9-.9,29.4-22.5,0,0-5.2,22.5-19.4,31.9-1.4.9,30.5,11.8,38.5-24.1,0,0-2.2,17.8,9.6-2.4a39.5,39.5,0,0,0-.6,10.9c.7,5.3,12.2-6.5,14.7-18.8s-.4-6-3.5-1.8c-1.5,2.2-6.3-5.3-5.9-14.2,0,0,1.7,7.6,4.7,9.6s8.4-17.1,2.1-29.1c0,0,8.8,12.5,9.2,23.6s13.4-20.5-10.1-38.9c0,0,24.4,4.4,19.9,38.1-2.1,15.7-9.4,17.7-9.4,17.7a37.8,37.8,0,0,0-1.1-4.1c-.8-2.5-4.9,20.3-18.3,33.7-8.8,8.8-9.5,1.2-9.5,1.2a45.1,45.1,0,0,1-10.5,13.5c-6.9,5.6-3.3-3.2-3.3-3.2s-9.7,12.9-42.8,12.5c-11.3-.2-6.4-6.8-6.4-6.8s-9.5,6.9-36.6,4.9-16.2-7.2-16.2-7.2-14.4,4.1-41.9-2.8c-16.8-4.2-6.5-9.7-6.5-9.7s-3.8-1.4-22.5-5.5-6.8-4,6.7,9.9c30.5,31.3,41.4,31.6,62.4,46.3s13.2,22.4,16.7,17.8,4.1-11.5,4.3-8.1-.5,12,1,9.5,4.2-8.2,4.3-5.2,1.7,8.6,3.6,5.1,7.3-10.5,6.4-7-1.4,9.8,1,5.7,11.7-8.7,26.7-12.1,18.3-8.9,18.2-5.4-2.6,7.5.2,5.6,6.4-6.5,6.1-3.6-2.6,4.8.5,2.7a16.7,16.7,0,0,0,4.6-5s-1.3,7.2,0,4.3,4.7-6.6,10.7-7.3c30.2-3.5,51.6-23.6,51.6-23.6s-7.6,13.2,12.9-2.6c28.9-22.3,41.1-54.9,41.1-54.9s-2.9,12,3.1,4.5c24.3-30.5,19.2-52.2,9.7-76.1S388.6,221,355.9,199s-45.4-41-53.2-56.3-8.4-16.4-19.4-16.7"/></g><path class="cls-9" d="M330.3,279.9s10.6,8.5,6.7,26.5-7.6,17.4-8.6,14.2-3,21.7-21.7,31.3c-1.5.8-1.9-3.1-1.9-3.1s-6,9.8-10.8,13-1.5-3.5-1.5-3.5S274.6,370.7,252,371s-9.4-5-9.4-5-19.7,5.8-37.4,2.5-8.8-6.3-8.8-6.3-26.1,8.6-53.2-3.2c-3-1.3,2.4-8.3,2.4-8.3s-15.6,4.2-29.5-5.5c-2.8-1.9,1.9-3.9,1.9-3.9s-21.9,1.4-32.2-9.5c-.8-.9,2.4-7.9,8.8-13,0,0-8.2,9-7.9,10.8s17.1,11,40.3,8.7c0,0-6,3.5-8.8,4.4s23.4,11.6,37.2,1.1c0,0-7.1,6-10.3,12.8,0,0,34.9,14.2,58.1-1.4,0,0-4,4.9-4.7,6.9s30.5,13.4,50.3-6.1c0,0-2.6,6.6-2.5,8.2s38.7,7,50.4-15.9l-.8,8.9s8.8-8.5,9.7-15.8c0,0,.4,5.1,1.2,6.8s18.5-13.6,20.2-33.9a18.3,18.3,0,0,1,1.9,4.4c.5,2.2,3.6-1.4,5.2-6.4S341.3,292,330.3,279.9Z"/><g class="cls-10"><path class="cls-3" d="M261.7,259.8c-2.4,5.5-6.8,19.1-2.1,15.3s10.5-17.5,9.5-13.4-1.8,13.8,3.7,8.6,7.8-14.5,7.8-14.5c-2.5,4.5-8.1,13.4-8.6,5.1s1.9-11.2-.8-6.7-8.4,11.1-7.8,5.7,7.3-13.2,2.3-10.1-10.3,7.8-4.8.8,9.2-8.9,1.3-3.4-16,19-8.3,15.8S264.1,254.4,261.7,259.8Z"/></g><g class="cls-10"><path class="cls-3" d="M301.8,290.8c2.5,3.5,3.5,7.3,4.6,2.1,1.6-7.3-4.6-14-4.6-14,2.5,6.4,2,11.8-1.4,7.2s-5.1-11.9-4.4-1.8-3.6,21.4-5.5,14-.5-19.4-1.3-13.9-4.3,12.5-4.2,8.1,1.6-13.9.4-10.1-4.3,7.5-3.1,3.7,4.1-9.2,2.6-6.2-4.8,5.6-3.1,1.7,7.6-10.7.8-4.6-9.8,16.1-6.9,14.2,4-2.9,3-1c-5.9,11.9-5.3,15.9-1.3,11.4s8-16.8,5.4-7.7-1,16.9,1.5,14,3.2-9.4,3.2-9.4a51.2,51.2,0,0,0,.9,10.3c.3,1.3.7,2.6,1.1,3.9s.9,1.8,2,1.5,2.5-1.9,3.4-3a17.6,17.6,0,0,0,2.3-3.7c2.3-4.8,2.9-10,3.4-15.2C300.7,291.6,300.8,289.4,301.8,290.8Z"/></g><g class="cls-10"><path class="cls-3" d="M263,230.8s-9.1,5.3-17.2,6.9,1.2-5.5,6.1-6.9-3.2.5-9.3.6,1.8-3.4,8.7-5.7-3.9-.2-9.6.4,1.3-6.7,18.3-6.7c3.6,0,10.2,2.3,5.7,2s1.4.6,3,2.5-1.2-.3-6.4,1.5-2.1,2,1.6,1.8-.6,2-2.9,2.9S259.4,231.9,263,230.8Z"/></g><g class="cls-10"><path class="cls-3" d="M247.8,273s1.1,10.3-3.5,19-11.1,10.1-11,9.7a78.6,78.6,0,0,0,4.4-11.7c2.3-7.3.4.8-9.3,6.6s-10.7,3.8-10.7,3.8,2.7-2.3,8.7-15.2-2.1.9-4,2.2-1.6-.1,1.2-6.4-6.3,6.4-11.8,9.2c-1.3.7-.2-9.4,5.4-16.3.6-.8-4.5,3.9-6.8,6s.6-8.3,13.2-14,1.5-.1,1,1.3,1.4.1,3-.7.5,1.9-1.3,3.4,4.9-1.1,7.4-5.6,1.2,2.1-1.2,5.4,1,2.6,2.7,0,2,5.8.3,10.6,5.1-4.5,5.7-9.2,1.4,2.7.4,8.4,5-5,5.4-9.3S247.8,273,247.8,273Z"/></g><g class="cls-10"><path class="cls-3" d="M262.5,285.2s-.4,24.4-15.5,40.4,3.5-14.4,3.8-20.8-14,18.7-30.4,29.5,6-9.7,14.1-23.1,10.1-11.3,6.7-5.9,6.1-1.8,9.6-11,3-1.6,2.3,2.4S258.8,294.6,262.5,285.2Z"/></g><g class="cls-10"><path class="cls-3" d="M233.3,218.7s-35.6,16.6-49.9,47.8c-3.8,8.4,6.7-4.7,20.2-17.5,9.3-8.7,1.3,3.8.5,8s16.3-15.6,22.9-26.1-5.8,4.1-7.2,5S226.4,226,233.3,218.7Z"/></g><g class="cls-10"><path class="cls-3" d="M211.2,297.8s-12.7,21.2-25.3,25.9-1.3-9.5,2.8-20-4.1,1.4-6,4.6.8-7.2,5.5-19.4,1.7-3.4.9,4.1,3.1-1.3,7.5-7.8,5.8,1.8,1.1,15.6S204.3,305.3,211.2,297.8Z"/></g><g class="cls-10"><path class="cls-3" d="M169.3,281.6s-23.7,7.1-33.5,15.8,4.6,1.5,8.3-.7-3.4,3.5-5.4,8.6,9.7,1.8,17.6-5.5-3.2,3.8-4.7,7.9,6.4,1.8,15.3-9.7,1.7,1-.1,4.8,5-1.2,9.3-12.3,1-4.4-.6-2.1.5-3.2,1.5-6.1-2.1,4-6.3,7.3-1.7-.2.2-3.4.3-.5-2.7.8-2.5-.3,1.6-4.2S172.3,279.6,169.3,281.6Z"/></g><g class="cls-10"><path class="cls-3" d="M169.8,256.6c-22.9,17-34.6,44.1-25,18.8s38.2-37.9,37.4-30a31.9,31.9,0,0,1-4,13.2c-4.6,7.1-1.8,1.9-.6-5.3s-4.8,5.8-7.7,9.1-.8-.7,1-3.7S173.2,254.1,169.8,256.6Z"/></g><path class="cls-11" d="M311,56.8s-.3-7.4-4.4-8.4-8.1,3.6-8.1,3.6-.6.8.3.3,8.6-1.9,10.9,3.8C311,59.4,311.3,58.8,311,56.8Z"/><path class="cls-4" d="M303.6,85.9s0-.4-.1-1.3a18.1,18.1,0,0,0-1-3.2,14,14,0,0,0-2.4-4.2,11.9,11.9,0,0,0-1.9-2,14.6,14.6,0,0,0-2.4-1.7l-2.6-1.1-2.8-.7h-6.9l-1.4.3-1.3.3H289l1.3.2,1.3.3,1.3.4a10.8,10.8,0,0,1,2.4,1.2,9.1,9.1,0,0,1,2.3,1.5l1.9,1.8a19.5,19.5,0,0,1,2.5,3.9,21.1,21.1,0,0,1,1.3,3.1Z"/><path class="cls-12" d="M295.4,66.7c-1.1,3.9-.6,7.5,1.1,7.9s4-2.3,5.1-6.3.6-7.5-1.1-7.9S296.5,62.8,295.4,66.7Z"/><path class="cls-3" d="M297.5,64.2c-.7,2.3-.4,4.5.6,4.7s2.4-1.4,3.1-3.8.3-4.5-.7-4.7S298.1,61.8,297.5,64.2Z"/><path class="cls-13" d="M344.6,77.6s-24.5-5.8-38.6,1.1c-.3.2,15-18.6,3.5-31.7s-24.8,20.6-24.8,20.6-8.5,2.9-8.1,7.1c0,0,21.4-4.2,21.4,11.2,0,0-2.1,6.4-8.7,6.2s-8.5,10.8-8.5,10.8.1,11.6,11.5,13.4c0,0-6.9,6.8-22.5,2.5,0,0,9.8,10,33.4,0l9.2-3.3,30.8-32.8Z"/><path class="cls-14" d="M285.1,103.7c-1-6,3.8-8,11-10.3,4.3-1.5,4.6-8,17.4-12.1s26.6-.1,26.6-.1c9.7,3.4,4.9,7.1,6,10.9.3,1.3,6.5,3.8,8.6,5.8,4.1,3.7,3.8,6.1,13.5,11.8s13,9.3,13.6,11.7-4.1,1.5-4.1,1.5c.6,2.6-4.5,2.5-11.3,1.5a91.9,91.9,0,0,0-14.7-1c-5-.1-13-.1-20.1-3.2s-11.3-4.4-16.9-4.6l-13-.5C291.4,114.7,286.1,109.7,285.1,103.7Z"/><path class="cls-15" d="M352,97c-3.4-2.2-14.5-7.5-30.6-3.3-9.8,2.5-3.6,5.9,6.9,7.9s14.6,8.7,24.4,12.3c12.6,4.6,27.5,6.9,23,2.7s-16.5-10.9-17.9-12.6S354.4,98.6,352,97Z"/><path class="cls-16" d="M378.8,123h-2.3l-1.6-.3-2-.4h-2.5l-5.9-.4-6.9-.6a63.6,63.6,0,0,1-7.3-1.6l-1.7-.6-1.7-.7-1.7-.8-1.7-.8-3.2-1.6-3.1-1.8c-2.1-1.2-4.1-2.4-6-3.7l-2.8-1.8-1.5-.9-.7-.4-.8-.4a25,25,0,0,0-7.6-1.5l-7-.3h-1.5l-1.5-.3a5.4,5.4,0,0,1-2-1,9.6,9.6,0,0,1-2.5-4.1,2.8,2.8,0,0,1-.1-.6,2.8,2.8,0,0,0,.1.6,9.6,9.6,0,0,0,.5,1.7,7.1,7.1,0,0,0,1.8,2.4,5.3,5.3,0,0,0,2.1,1.2l1.5.3h1.6l7,.4a25,25,0,0,1,7.2,1.5l.8.3.7.4,1.4.9,2.8,1.9,6,3.7,3.1,1.8,3.3,1.6,1.7.8,1.7.7,1.7.8,1.8.6a50.2,50.2,0,0,0,7.5,1.6l7,.6,5.9.2h2.5l2,.4,1.6.2h2.3Z"/><path class="cls-16" d="M305.9,95.4a1,1,0,0,1-.1.4,3.3,3.3,0,0,1-.6.8c-.1.2-.3.3-.5.5a1.8,1.8,0,0,1-.7.5l-.9.4-.6.2-.5.2-1.2.2h.1l1.3-.2.6-.2.6-.2.9-.5.7-.6.5-.5.3-.5c0-.2.1-.3.1-.4Z"/><g class="cls-17"><path class="cls-18" d="M296.1,93.4c4.3-1.5,4.6-8,17.4-12.1s26.6-.1,26.6-.1c9.7,3.4,4.9,7.1,6,10.9.3,1.3,6.5,3.8,8.6,5.8,4.1,3.7,3.8,6.1,13.5,11.8s13,9.3,13.6,11.7-4.1,1.5-4.1,1.5c.6,2.6-4.5,2.5-11.3,1.5a91.9,91.9,0,0,0-14.7-1c-5-.1-13-.1-20.1-3.2s-11.3-4.4-16.9-4.6l-13-.5c-10.3-.4-15.6-5.4-16.6-11.4S288.9,95.7,296.1,93.4ZM340,92.1c-1-.1,3.4,0,4.7-2,2.7-4.4,2.2-7.6-9.3-9.5s-28.8,2.5-28.8,8.4-1.6,4.1-9.8,5.3-13.7,6.9-7.3,13.6,26.4,1.9,37,8.2,18.8,7.1,25.8,6.9,9.5.4,15.2.9c4.1.4-6.5-.8-18.9-3.8-17.1-4-19.6-10.7-25.5-13s-10.9-1.2-16.1-2.8-4.2-5.5-5-5.3c-3.1.7-7.3-.4-7.3-.4a27.5,27.5,0,0,0,7.2-.1,5.4,5.4,0,0,0,4.2-3.6c-.3,1.7-.8,7.4,9.7,7.6s10.9,1.1,17.7,6.4c11.7,9.2,21.3,11.2,35.3,11.4,11.1.3,13.7,3.1,11.8-.4s-9.2-7.8-14-10.9a76.2,76.2,0,0,1-8.3-6l-2.7-3.3a14.3,14.3,0,0,0-5.1-4.2A34.6,34.6,0,0,0,340,92.1Z"/></g><path class="cls-19" d="M340.9,91.2c2.2-.9,2.7-3.7,1.5-5.7s-17.9-4.5-24.3-3.1,4.2-2.6,13.1-1.9,13,2.7,14.1,4.6S344.9,90.9,340.9,91.2Z"/><path class="cls-19" d="M338.8,92.3l.8.2,2,.6,1.2.4,1.5.5,1.4.5,1.5.6,1.4.6.7.3.7.3,1.2.7,1,.5.9.5.7.5.6.3-.4-.4-.4-.5-.7-.7-.4-.3a1,1,0,0,1-.5-.4l-.6-.3c-.1-.2-.4-.3-.6-.4l-1.3-.7-1.5-.7-1.6-.5-1.6-.5-1.5-.4-1.4-.3A15.8,15.8,0,0,0,338.8,92.3Z"/><path class="cls-20" d="M374.3,120.4l-3.4-.4-8.8-.8-5.7-.9a57.2,57.2,0,0,1-5.9-1.7l-2.8-1.2-2.8-1.4c-1.7-.9-3.5-1.9-5.2-3l-4.8-3.2-2.2-1.7a3.9,3.9,0,0,1-1-.8,5,5,0,0,0-1.2-.8,16.6,16.6,0,0,0-5.9-2.1,44.3,44.3,0,0,0-6-.7l-5-.2-3.8-.5a7.7,7.7,0,0,1-2-.9,1.1,1.1,0,0,1-.5-.4l.4.5a13.7,13.7,0,0,0,2,.9,17.2,17.2,0,0,0,3.8.7l5,.4a41.6,41.6,0,0,1,5.8.7,17.7,17.7,0,0,1,5.3,2l1,.8,1,.9,2.3,1.7,4.8,3.3,5.3,3,2.9,1.4,2.9,1.2a35.4,35.4,0,0,0,6.2,1.6c2.1.4,4.1.6,5.9.8l5.1.4,3.9.2h3.4Z"/><path class="cls-19" d="M306,94.1l-.2.4-.7.9a1.2,1.2,0,0,0-.5.5l-.7.5-.4.3-.5.2-1,.5-1,.3-1.2.3-1.1.2h1.5l1.3-.2,1.4-.4,1.1-.6.9-.6.6-.7.4-.7a1.1,1.1,0,0,0,.1-.5v-.9Z"/><path class="cls-21" d="M346.2,102.2c.9.8,1.4,1.8,2.6,2.5l3.2,1.4h-.7c-1.5,0-3.2.3-4.7.2s-2.2-1.2-2.4-2.1-.7-3.1,1.6-2.3Z"/><path class="cls-22" d="M347.2,105.6c-1.5-.1-1.9-.2-2.2-1.1a5.5,5.5,0,0,1-.1-1.8c.2-.5.6-.6,1.1-.2l.6.6a6.9,6.9,0,0,0,2.2,1.9l2,.8h-.9l-2.6-.5c-.3-.1-.5,0-.3.2Z"/><path class="cls-21" d="M345.6,99.9a4.6,4.6,0,0,1,1.5,2.2c-.9-1-2.7-2.6-4.1-1.8s-.9,2.4-1.1,3.3a11.7,11.7,0,0,1-.6-2c-.1-.7-.3-1.7.5-2.3S344.8,99.2,345.6,99.9Z"/><path class="cls-22" d="M345.4,101.9c.8.1,1.3,1,1.6,1.4s1.5,1.6,4.2,2.6l-.8-.2c-2.9-.7-2.6-.6-4-2.1s-1.1-.9-1.1-.5-.2,2.2,2,2.6l1.2.2c-1.3-.2-2.8-.1-3.3-.5a1.1,1.1,0,0,1-.5-1C344.4,103.5,344,101.7,345.4,101.9Z"/><path class="cls-22" d="M343.5,99.9a3.8,3.8,0,0,1,3.4,1.8c.1.1,0,.1,0,0s-1.9-1.5-3.1-1.5-1.5,1.8-1.8,2.2,0-.5,0-.6A1.7,1.7,0,0,1,343.5,99.9Z"/><path class="cls-21" d="M356.1,101.7c.8.7,1.2,1.6,2.3,2.3l2.8,1.4h-.7c-1.4-.1-2.9.2-4.3,0s-1.9-1.1-2-2-.4-2.8,1.6-2Z"/><path class="cls-22" d="M356.8,104.8c-1.3-.1-1.7-.2-1.9-1.1a2.9,2.9,0,0,1,.1-1.6c.1-.4.5-.5,1-.1l.5.5a5.2,5.2,0,0,0,1.8,1.8l1.8.8h-.8l-2.4-.5c-.2-.1-.4.1-.3.2Z"/><path class="cls-21" d="M355.8,99.6a3.9,3.9,0,0,1,1.2,2c-.7-.9-2.3-2.4-3.6-1.7s-1,2.2-1.2,3a6.5,6.5,0,0,1-.4-1.9,2.1,2.1,0,0,1,.6-2.1C353.5,98.1,355.1,98.9,355.8,99.6Z"/><path class="cls-22" d="M355.5,101.4c.7.1,1.1.9,1.3,1.3s1.2,1.5,3.6,2.4h-.7c-2.6-.7-2.3-.6-3.5-2s-.9-.9-.9-.5-.4,2,1.6,2.4l1.1.2c-1.1-.2-2.6-.2-3-.6a.9.9,0,0,1-.4-.8C354.4,102.8,354.2,101.2,355.5,101.4Z"/><path class="cls-22" d="M353.9,99.5a3.5,3.5,0,0,1,3,1.8h-.1a5.8,5.8,0,0,0-2.7-1.5c-1,0-1.5,1.6-1.8,1.9v-.5C352.5,100.6,352.7,99.6,353.9,99.5Z"/><path class="cls-19" d="M358.6,103.7a20.3,20.3,0,0,0,2.9,3.1,20.8,20.8,0,0,0,3.8,2.8l2.4,1.5,2.5,1.5,2.3,1.5,2.2,1.6,1,.7.9.7,1.5,1.4.6.7.5.6a3.7,3.7,0,0,1,.6,1c0,.2.1.3.1.4v.3a1.5,1.5,0,0,0,.1-.7,7.6,7.6,0,0,0-.4-1.1l-.3-.7a1.8,1.8,0,0,1-.5-.7l-1.4-1.5-1.8-1.6-1-.8-1.1-.8-2.4-1.6-2.5-1.5a28,28,0,0,1-2.5-1.4c-1.6-.9-2.9-1.8-4.1-2.6A42.6,42.6,0,0,1,358.6,103.7Z"/><path class="cls-23" d="M279.8,415.8a8.6,8.6,0,0,1,5.4-2.4c16.4-.7,52.3-16,60.5-22,10.1-5.9,29.1-29.6,29.1-29.6l23.8-30.3c6.9-6.7,13.7-22.7,13.7-22.7,3.8-9.4,3.8-22.6,3.8-22.6.7-10.9-5.1-25.1-5.1-25.1-.1-2-6-15.8-6-15.8-5.6-17.9-31.2-38.7-39.9-43.7-3.5-1.8-25.7-17.1-33.4-25.5l-9.9-10.7-9-12-12-18.9c-4.7-8.6-3.4-13.8-3.4-13.8,2.8.1,15-5.2,15-5.2,7.6-.3,15.8,3.3,15.8,3.3,10.8,5.4,23.9,4.6,23.9,4.6a116.4,116.4,0,0,1,15,1.1,53.3,53.3,0,0,0,6.8.5c4.5.1,3.8-2.1,3.8-2.1,6.1.8,4-2,4-2-.7-2.8-7.1-7.1-7.1-7.1s-7.7-5.1-10.1-6.4-5.5-4.8-5.5-4.8l-2.5-3c-.5-1.1-3.1-2.7-3.3-2.9s-5.9-3.4-6.8-4.2-.1-4.6-.1-4.6a4.5,4.5,0,0,0-3.1-5.2c8.2-25-4.4-40.7-4.4-40.7-3.6-6.8-18.7-24.3-48.9-26.6s-45.3,10.3-45.3,10.3c-13.4,8.1-18.4,19.7-20.9,35s5.8,43.9,5.8,43.9c.2,6.9,21.3,44.3,24.2,46.7s17.1,31.4,17.1,31.4c6.8,16.7-3.8,31.2-3.8,31.2s-13.5-5.5-31.9-3.1-32.6,17.1-32.6,17.1c-23.1-2-54.4,35-54.4,35-19.2-.6-44.2,11.4-44.2,11.4-26.3,4.8-73.8,27.6-74.5,31.2s18.9,6,18.9,6-16.5,4-15.9,6.8,13.9,12.3,26.1,17.5c0,0-11.1.2-9.7,1.6s-1.9,4.7,22.7,15,31.5,6.6,36.7,8.2c0,0,3.1.7,6.6,7.3s19.8,18.6,19.8,18.6,23.8,16.7,39,23.8,18,13.8,18,13.8a24.6,24.6,0,0,1,3.1,12.5s2.5,0,8.4-7.5l1.4,5.4s3.3-6.1,3.4-5.8a72.3,72.3,0,0,0,4.3,6.8l3.9-6.1,2.8,8.9a16.7,16.7,0,0,1,8.8-11.6c7.7-3.9,24.5-10.3,32.4-10.4,0,0-.6,3.4-1.8,4.5s1.2,0,3.7-2.1c0,0-.4,1.7.7,1.9s5-3.2,5-3.2-.1,3.2.5,3.6a24.3,24.3,0,0,0,5.2-3.6,34.3,34.3,0,0,0-.4,3.8l2.1-2.1s-.4,2.6.5,3.5A19.7,19.7,0,0,1,279.8,415.8Z"/></g></g></svg>