<svg id="Layer_1" data-name="Layer 1" xmlns="http://www.w3.org/2000/svg" xmlns:xlink="http://www.w3.org/1999/xlink" viewBox="0 0 109.8 152.1"><defs><style>.cls-1{fill:#efb49a;}.cls-1,.cls-4{stroke:#9e4d2d;stroke-miterlimit:10;}.cls-2{opacity:0.8;}.cls-3{fill:#d0e8ec;}.cls-4{fill:url(#linear-gradient);}.cls-5{fill:url(#linear-gradient-2);}.cls-6{fill:#933d18;}.cls-7{fill:#231f20;}.cls-8{fill:#d82e2a;}.cls-9{fill:#b22424;}.cls-10{fill:#ef4136;}</style><linearGradient id="linear-gradient" x1="-28.25" y1="179.36" x2="42.51" y2="179.36" gradientTransform="translate(31 -103.5) rotate(-3.9)" gradientUnits="userSpaceOnUse"><stop offset="0.19" stop-color="#ffd"/><stop offset="0.26" stop-color="#fff6d8"/><stop offset="0.41" stop-color="#ffe8cf"/><stop offset="0.54" stop-color="#ffe3cc"/><stop offset="0.67" stop-color="#ffe8d2"/><stop offset="0.83" stop-color="#fff8e3"/><stop offset="0.89" stop-color="#ffffea"/></linearGradient><linearGradient id="linear-gradient-2" x1="4.58" y1="115.26" x2="17.31" y2="115.26" gradientTransform="translate(31 -103.5) rotate(-3.9)" gradientUnits="userSpaceOnUse"><stop offset="0.14" stop-color="#ffe3cc"/><stop offset="0.3" stop-color="#ffddc9"/><stop offset="0.51" stop-color="#ffccbf"/><stop offset="0.52" stop-color="#ffccbf"/><stop offset="1" stop-color="#ffe3cc"/></linearGradient></defs><path class="cls-1" d="M70.4,71.6c5.1-.5,10.4,7.3,13.2,10.6,6,7.6,13.1,14.1,22.6,17.7l-.3-.2c-6.1.5-17-4-22.2-7.7,1.6,3.1,5.3,4.6,8.2,6.3-4.9-.2-8.4-2.3-12.6-4.2,1.6,2.1,4.1,3.9,6.1,5.6-14.9-1.8-24.8-16.8-15-28.1Z"/><g class="cls-2"><ellipse class="cls-3" cx="42.9" cy="132.2" rx="24.3" ry="9" transform="translate(-5.8 2) rotate(-2.5)"/></g><path class="cls-1" d="M22.4,109.8c-6.1-.6-11.8,2.1-18.8-.9,1.8,4.9,6.3,7.6,10.8,10.3-1.2-.2-2.7-.5-4.1-.6.9,1.3,2.4,1.9,4.3,2.3H13c1.6,2.3,8.6,4.8,10.6,2.1s-.9-8.4-.7-10.6Z"/><path class="cls-4" d="M80.9,36.9a33,33,0,0,1-6.8-8.2c-2.4-3.7-4.7-7.4-8.5-10S56.5,13.2,50,13.6a32.3,32.3,0,0,0-14.3,4A21.4,21.4,0,0,0,25.2,30.8c-1.1,4.6.7,9.5.8,14.1a33.7,33.7,0,0,1-.2,5.5c-.5,2.8-3.1,4.7-1.5,7.4s5.6,4.4,8.9,5.6a40.9,40.9,0,0,0,14,2c-.5,7.8-5.4,15.8-10.9,21.7C26.2,97.9,6.9,122.4,25.9,133.5s41.7-3.8,48.6-17.2c4.8-9.2,4.2-23.2,1.2-32.8-2.4-7.7-6.9-14.8-8.7-22.6a45.7,45.7,0,0,0,8.8-7.1A30.2,30.2,0,0,0,82.1,45a13.6,13.6,0,0,0,1.2-4.9C83.3,38.2,82.4,38.1,80.9,36.9Z"/><path class="cls-5" d="M43.7,14.7C46.2,10.5,52,9.4,53.8,4.4c1.3,2,0,4.5-1.4,6.3a18.1,18.1,0,0,0,2.5-1.9c.3,1.1-.6,2.4-1.5,3.4a5.8,5.8,0,0,0,2.7-1.4c-.1,7.3-7.5,4.6-12.4,6.4Z"/><path class="cls-6" d="M43.7,14.7C46,10.4,51.8,9,53.4,4.2l.3-.7.5.7a4.1,4.1,0,0,1,.3,3.6,10.3,10.3,0,0,1-1.7,3.1l-.6-.7,2.4-1.8.5-.5.3.7c.4,1.5-.8,2.9-1.6,3.9l-.5-.7a6.9,6.9,0,0,0,3.2-2.1c.1,3.7-1,6.3-5,6.8s-5.3,0-7.9.9V14.7Zm0,0v2.5h-.1c2.5-1,5.2-.8,7.7-1.3a4.5,4.5,0,0,0,4.2-5l.8.3A8.4,8.4,0,0,1,52.1,13c.9-1.1,2.6-2.6,2.3-4.1l.8.2a25.1,25.1,0,0,1-4.6,3.2c1.5-2.1,4.4-5,2.8-7.7h.8c-1.8,5-7.7,6.1-10.5,10.2Z"/><path class="cls-7" d="M56.7,39.2c.9,1.5,1,3.1.2,3.5s-2.3-.4-3.2-1.9-1.1-3-.2-3.4S55.7,37.8,56.7,39.2Z"/><path class="cls-7" d="M74.4,29.9c.8,1.6.7,3.2-.2,3.5s-2.2-.6-3-2.1-.6-3.1.3-3.5S73.7,28.4,74.4,29.9Z"/><path class="cls-8" d="M74.7,37h-.3A7.5,7.5,0,0,0,69.8,38a8.8,8.8,0,0,0-3.2,4c-1,2.6,1.6,5.1,4.3,5.5s4.7-.1,7,.2,4.9,1.6,4-2a15.1,15.1,0,0,0-3.5-5.6C77.4,39,76.3,37.4,74.7,37Z"/><path class="cls-9" d="M69.6,42.9c.2,1.1,1.8,1.4,2.8,1.5,2.6.2,4.3-.5,6.4,1.1.3-1.1-3-5.9-4.4-5.8s-1.6,1.8-2.1,2.3a8.9,8.9,0,0,1-2.4.9Z"/><path class="cls-10" d="M74.8,24.7c-1.1,1.5.6,4.2-.9,6.3s-3.4,2.3-5,3.6a5.8,5.8,0,0,0-1.8,2.2c-1.5,2.1-1.9,7.6,1,7.7s3.4-1.6,4.8-2.8,3.2-2.3,4.9-3.4,4.3-5,3.3-8.4C80.7,28.3,76.6,21.9,74.8,24.7Z"/><path class="cls-1" d="M47.7,74.1c-4.8-1.7-12,4.6-15.6,7.1C24.2,87.1,15.7,91.7,5.6,92.9l.3-.2c5.7,2,17.4.4,23.4-1.9-2.4,2.6-6.3,3.1-9.6,4.1,4.8,1,8.7-.2,13.1-1.1-2.1,1.8-4.9,2.8-7.3,4,14.8,2,28.3-10.2,22.2-23.7Z"/></svg>