<svg xmlns="http://www.w3.org/2000/svg" viewBox="0 0 54 37"><defs><style>.cls-1{fill:#ee7373;}.cls-2{fill:#5d1222;}.cls-3{fill:#f7f2f3;}</style></defs><g id="Uh"><path class="cls-1" d="M7.3,9.8s6.4,17.7,21.1,17.7c12.2,0,18.5-18.4,18.5-18.4S27.2,20,7.3,9.8Z"/><path class="cls-2" d="M10,11.3s7.5,14.2,18.8,13.6S44,11,44,11,29.7,18,10,11.3Z"/><path class="cls-3" d="M13.1,11.5s4,8.9,18.1,7.2c0,0,7.7-.4,10.1-6.1C41.3,12.6,25.7,17.2,13.1,11.5Z"/><path class="cls-1" d="M7.1,9.6a3.7,3.7,0,0,0,.8.6c10.3,4.5,25.6,10.3,39-1.1,0,0-6.7,4.5-18.6,4.6A58.7,58.7,0,0,1,7.1,9.6Z"/><path class="cls-1" d="M20.4,22a8.7,8.7,0,0,1,6.7-1s2.6-1.6,7.6,1.1C34.7,22.1,28.6,27.2,20.4,22Z"/></g></svg>