<svg xmlns="http://www.w3.org/2000/svg" viewBox="0 0 84 66"><defs><style>.cls-1,.cls-15,.cls-4{fill:#f9a528;}.cls-1,.cls-5,.cls-7{stroke:#f4b46d;stroke-width:0.3px;}.cls-1,.cls-10,.cls-15,.cls-5,.cls-7{stroke-miterlimit:10;}.cls-2,.cls-5{fill:#f68e1e;}.cls-3{fill:#fff8e1;}.cls-6{fill:#f47f20;}.cls-7{fill:#ffdfad;}.cls-8{fill:#fbcea1;}.cls-10,.cls-9{fill:#f5b46d;}.cls-10{stroke:#fbcea1;}.cls-10,.cls-15{stroke-width:0.1px;}.cls-11{fill:#eae0ce;}.cls-12{fill:#87bbbe;}.cls-13{fill:#424243;}.cls-14{fill:#fff;}.cls-15{stroke:#f37c20;}.cls-16{fill:#f37c20;}</style></defs><g id="Layer_70" data-name="Layer 70"><g id="Duck_poses_08_F_01_" data-name="Duck poses 08 ( F 01 )"><path class="cls-1" d="M36.2,45.9a3.5,3.5,0,0,1,.1.6.7.7,0,0,1,.1.5c0,.2.1.4.1.7v.7c-.1.6.4.7.7,1.2a11.4,11.4,0,0,1,.9,2.6.4.4,0,0,0,.5.1h.5a.1.1,0,0,1,.1-.1h.3l.5-.2h1.1a.6.6,0,0,1,.1-.4.3.3,0,0,1,.1-.2h.1a.1.1,0,0,1,.1-.1h.1l.5-.2h.1c0-.1,0-.1.1-.1s0-.3-.1-.4h-.1l-2.6-1c-1.7-.3-1.7-.4-1.8-.6a16.2,16.2,0,0,1-.1-2.2c0-.7.1-1.3.1-1.8v-.5H36.6a1.8,1.8,0,0,1-.1.5A5.7,5.7,0,0,0,36.2,45.9Z"/><path class="cls-2" d="M41,51.1v.3a1.4,1.4,0,0,1,1.2-1.2.1.1,0,0,1,.1-.1c-.1-.1-.4,0-.5,0s-3.1-1.4-3.4-1.2S41,51.1,41,51.1Z"/><path class="cls-2" d="M38.7,52.3a3,3,0,0,1,2.1-.8h-.3S38,49,37.7,49.1s.7,2.3,1,3Z"/><path class="cls-3" d="M41.3,51.9s-.2-1.2-.7-.8S41,51.4,41.3,51.9Z"/><path class="cls-3" d="M38.8,53s.2-1.2-.4-.9S38.6,52.4,38.8,53Z"/><path class="cls-3" d="M42.7,50.5s-.3-1.2-.8-.7S42.3,50.1,42.7,50.5Z"/><path class="cls-4" d="M36.8,47.3s-.7,1-.9.6.8-1.1.8-1.1Z"/><path class="cls-2" d="M36.2,45.9a3.5,3.5,0,0,1,.1.6h.4l.9-.5c0-.7.1-1.3.1-1.8H36.5A5.7,5.7,0,0,0,36.2,45.9Z"/><path class="cls-5" d="M42.6,45.2c-.1.6.4.7.7,1.2a13.4,13.4,0,0,1,.9,2.6c.1.2.3.2.5.2h.1a2.6,2.6,0,0,1,2.1-.7h.2v-.2A1.5,1.5,0,0,1,48.3,47a.1.1,0,0,1,.1-.1c0-.2,0-.3-.1-.4h-.1a11.4,11.4,0,0,0-2.6-.9c-1.7-.4-1.7-.5-1.8-.7a32.3,32.3,0,0,1,0-4.4H42.7a15.7,15.7,0,0,0-.4,2.3A10.7,10.7,0,0,1,42.6,45.2Z"/><path class="cls-6" d="M47.1,47.9v.3A1.5,1.5,0,0,1,48.3,47a.1.1,0,0,1,.1-.1c-.1-.1-.4.1-.5,0s-3-1.4-3.4-1.2S47.1,47.9,47.1,47.9Z"/><path class="cls-6" d="M44.8,49.1a2.6,2.6,0,0,1,2.1-.7l-.3-.2s-2.5-2.4-2.8-2.3.7,2.4,1,3Z"/><path class="cls-3" d="M47.4,48.7s-.2-1.2-.7-.8S47.1,48.2,47.4,48.7Z"/><path class="cls-3" d="M44.9,49.8s.2-1.2-.4-.9S44.8,49.3,44.9,49.8Z"/><path class="cls-3" d="M48.8,47.4s-.3-1.2-.8-.7S48.4,46.9,48.8,47.4Z"/><path class="cls-2" d="M42.9,44.1s-.7,1-.9.6.8-1.1.8-1.1Z"/><path class="cls-7" d="M31.4,32.4a30.3,30.3,0,0,1-8.5-.8c-.9-.3-1.2.4-.6,1.2s2.6,1.7,5.1,2.3S31.4,32.4,31.4,32.4Z"/><path class="cls-8" d="M22.6,32.5s-.8.1-.8.5,2.6,2.3,5.5,2.7S23.4,32,22.6,32.5Z"/><path class="cls-9" d="M22.5,33.5a.9.9,0,0,0,.1,1.1c.6.6,3.5,2.9,3.5,2.9l.2-1.9Z"/><path class="cls-7" d="M43.4,27.3c.1,3.4-3.8,1.9-4.8,2.4s-.7-.3-3.6,0-9.4,2.6-9.6,4.1a8.9,8.9,0,0,0,.4,3.6c1.5,4.5,6.8,7.8,8.4,8s7.6-1.8,11.4-4.3c1.6-1.1,2.7-2.2,3-3.4,1-4.6.1-5.6-.5-8.8"/><path class="cls-10" d="M29.1,33.7c5.8-1.9,14-2.8,15.3-1.4s-3.7,7.1-8.4,6.6a22.3,22.3,0,0,1-6.3-1.5c-1.2-.6-.3-1.3-.3-1.3s-1.7-.7-.9-1C27.4,34.8,27.3,34.3,29.1,33.7Z"/><path class="cls-8" d="M25.9,37.2c1.6,4.6,7,8,8.6,8.2s7.8-2,11.7-4.6c-2.9,1-8.8,3.6-13.4,2.1S28.4,37.7,25.9,37.2Z"/><path class="cls-8" d="M42.6,21.1c-.3.5.4,5.5.4,6.2a2.4,2.4,0,0,1-1.6,2,19.4,19.4,0,0,0-4.8.3c1.3-.1,6.2,2.3,7.6.5S42.4,21.2,42.6,21.1Z"/><path class="cls-7" d="M44.2,29.7c-.8-4.3-1.6-6.7-2.3-10.4a5.7,5.7,0,0,1,.4-2.9c.8-1.5,3.1-2.2,5.2-1.5s2.7,3.9,2.7,4.2-.3-1.6-1.1-1.2.6,1.8-1.2,2.9c0-.3.2.2.3.3-1.9.7-3.3-.7-3.5-.4s2.4,2.9,3.3,1.7a15,15,0,0,0-.2,2.2,75.3,75.3,0,0,0,1,8.3c0,.5.1,1,.1,1.5M46.6,18c.4-.4-.4-1.2-1-.6S46.3,18.5,46.6,18Z"/><path class="cls-11" d="M48.5,21.6a1.6,1.6,0,0,0-.4.7H48a4.1,4.1,0,0,1,.5-.9Z"/><path class="cls-8" d="M44.7,20.7c.2-.3,1.6,1.1,3.5.4.2.1.4.1.6.3a2.7,2.7,0,0,0-.8,1C47.1,23.6,44.4,21,44.7,20.7Z"/><path class="cls-4" d="M48.7,21.4a.2.2,0,0,0-.2.2h.2Z"/><path class="cls-4" d="M46.6,18c-.3.5-1.5-.1-1-.6S47,17.6,46.6,18Zm-.1,0c.1-.2.1-.3,0-.4h0a.4.4,0,0,0-.6-.3h-.2c-.3.5.5.9.8.6Z"/><path class="cls-12" d="M46.5,17.6a.1.1,0,0,0-.1-.1h-.2a.2.2,0,0,0-.3,0c-.2.3.3.5.4.3h.1l.2-.2h-.1c.1.1.1.2,0,.4s-1.1-.1-.8-.6a.5.5,0,0,1,.7,0C46.5,17.5,46.5,17.5,46.5,17.6Z"/><path class="cls-13" d="M46.2,17.6c0,.1,0,.2.2.2h-.1c-.1.2-.6,0-.4-.3a.2.2,0,0,1,.3,0Z"/><path class="cls-14" d="M46.5,17.6Z"/><path class="cls-14" d="M46.4,17.8h0c0-.1,0-.2-.2-.3h.2a.1.1,0,0,1,.1.1h.1Z"/><path class="cls-14" d="M46.4,17.8c-.2,0-.2-.1-.2-.2h0c.2.1.2.2.2.3Z"/><path class="cls-8" d="M41.9,29.1c.3-.2,1.4-1.2.9-3.7a32.1,32.1,0,0,1-.9-6.1,52.2,52.2,0,0,1,2.3,10.4Z"/><path class="cls-15" d="M48.7,17.4c.7-.3,1.3.7,1.4.8h0a4.6,4.6,0,0,0,.7,1.6c.8,1.2,2.6,1.1,2,1.7S50,22,48.7,21v.2c-.1,0-.2,0-.2.1a.8.8,0,0,1-.4-.4l-.3-.3C49.1,19.7,47.8,17.9,48.7,17.4Z"/><path class="cls-16" d="M49.8,20c-.1.1-1-.6-.7-.9S50.1,19.6,49.8,20Z"/><path class="cls-16" d="M48,20.4a4.5,4.5,0,0,0,3.6,1.4s-2.8.7-3.9-1.2Z"/></g></g></svg>