<svg xmlns="http://www.w3.org/2000/svg" xmlns:xlink="http://www.w3.org/1999/xlink" viewBox="0 0 431 640"><defs><style>.cls-1,.cls-5,.cls-6,.cls-7{fill:none;}.cls-2{clip-path:url(#clip-path);}.cls-3{fill:#114875;}.cls-4{fill:#75b2ef;}.cls-5,.cls-6,.cls-7{stroke:#75b2ef;}.cls-12,.cls-15,.cls-5,.cls-6,.cls-7,.cls-8{stroke-miterlimit:10;}.cls-12,.cls-5,.cls-6,.cls-7{stroke-width:2px;}.cls-6{stroke-dasharray:4.98 4.98;}.cls-7{stroke-dasharray:5.04 5.04;}.cls-10,.cls-8{fill:#f2b5a5;}.cls-15,.cls-8{stroke:#593129;}.cls-9{fill:#4f3824;}.cls-11{fill:#593129;}.cls-12,.cls-13{fill:#fc3d3d;}.cls-12{stroke:#cc2f2f;}.cls-14{fill:#ff885f;}.cls-15{fill:#ce8d80;stroke-width:0.75px;}.cls-16{fill:#4c2d1c;}.cls-17{fill:#d87e66;}</style><clipPath id="clip-path"><rect class="cls-1" x="-131" y="17" width="552" height="616"/></clipPath></defs><g id="Ch_02"><g class="cls-2"><path class="cls-3" d="M248.2,497.7l-79,20.4v-.3L78,528.2c-7,53.4,4.6,152.5,16.3,144.3l72.5-10.1c-3.1-26.8,2.4-50.5,2.9-77.4,11.8,42.4,28.4,81.1,35.1,74.7L290.6,681C271.8,655.8,276.3,555.1,248.2,497.7Z"/><path class="cls-4" d="M96.9,548.1a18.3,18.3,0,0,1-1.2,8.7,23.5,23.5,0,0,1-4.7,7.7l-1.6,1.6-.8.7-.9.7-1.8,1.3-2,1.1-.9.5-1.1.4-2,.8a32.9,32.9,0,0,1-4.3.9l3.6-2.2,1.8-1.2.9-.6.8-.6,1.7-1.2,1.5-1.4.8-.7.7-.7a18.5,18.5,0,0,0,1.4-1.4,44.5,44.5,0,0,0,4.8-6.6A38.9,38.9,0,0,0,96.9,548.1Z"/><path class="cls-4" d="M231.3,530.2a18.3,18.3,0,0,0,3.1,3.6c1.1,1.1,2.4,2,3.6,3a39.6,39.6,0,0,0,8.2,4.2,84.2,84.2,0,0,0,8.9,2.9l4.6,1.1a41.5,41.5,0,0,1,4.8,1.1l-4.9.4-4.9-.3a34.7,34.7,0,0,1-9.6-2.4,27.1,27.1,0,0,1-8.6-5.2l-1.7-1.8c-.5-.7-1.1-1.3-1.5-2A13.4,13.4,0,0,1,231.3,530.2Z"/><path class="cls-5" d="M252.7,544.6v2.5"/><path class="cls-6" d="M252.8,552.1c.6,20.3,3.1,76,14.7,95.3"/><path class="cls-5" d="M169,585.5a22.4,22.4,0,0,0-1.4,2"/><path class="cls-7" d="M165.1,591.9c-4.6,9.5-11,30.3-5.7,66.9"/><path class="cls-8" d="M384.8,572.8l-33.6-42.6S322.5,436,310.4,428.4l-31-59.7s-61.4-7.6-39.2,45.8c5.8,14.1,19.8,28.2,29,42.5.3,31.3,57.9,77.3,59.1,93.7h.1a23.8,23.8,0,0,0,2.5,7.2c12.5,24.5,29.4,32.3,29.4,32.3,3.2,7.5,2.8,19.2,1.9,31.5,0,0-.5,5.1,1.4,6.4,3.9,2.4,8.8-5.4,8.8-5.4a3.6,3.6,0,0,0,2.7,4.4c3.6.8,8.9-13.8,8.9-13.8s-.1,4.9,3.4,3.4a5,5,0,0,0,2.8-2.9C397.9,593.7,384.8,572.8,384.8,572.8Z"/><path class="cls-9" d="M386.7,592.5a16.6,16.6,0,0,1,.8,5.8,54.2,54.2,0,0,1-.6,5.8c-.4,1.9-.8,3.8-1.4,5.7a25,25,0,0,1-2.3,5.3c.4-3.8,1-7.6,1.7-11.3l1-5.6A52.1,52.1,0,0,0,386.7,592.5Z"/><path class="cls-9" d="M381.5,588a9.8,9.8,0,0,1,1.3,4.5,24.4,24.4,0,0,1-.1,4.7,48.6,48.6,0,0,1-2.3,9.1,63.7,63.7,0,0,1-3.6,8.5,57.8,57.8,0,0,1-4.7,8c1-2.9,2.2-5.8,3.3-8.6s2.2-5.7,3.1-8.6a51.3,51.3,0,0,0,2.6-8.7,31.1,31.1,0,0,0,.7-4.4A13.7,13.7,0,0,0,381.5,588Z"/><path class="cls-10" d="M370.7,575.9s14.6,10.8,14.9,32.8c.7,7.6-7.3,10.2-9.4,1.8,0,0-.9-12.8-18.2-22.7"/><path class="cls-11" d="M370.7,575.9a36.9,36.9,0,0,1,6.5,6.6,43.5,43.5,0,0,1,4.8,8,46,46,0,0,1,4.1,18.2h0a8.4,8.4,0,0,1-.7,4.4,5.1,5.1,0,0,1-3.4,3,4,4,0,0,1-2.4-.2,4.1,4.1,0,0,1-1.9-1.3,8.3,8.3,0,0,1-1.9-4h-.1a19.7,19.7,0,0,0-2.2-7,31.7,31.7,0,0,0-4.1-6.2,32.7,32.7,0,0,0-5.3-5.2,45.1,45.1,0,0,0-6.1-4.4,38.7,38.7,0,0,1,6.4,4.1,36.7,36.7,0,0,1,9.9,11.3,26.1,26.1,0,0,1,2.4,7.3h-.1a9.4,9.4,0,0,0,1.8,3.6,3.7,3.7,0,0,0,3.4,1.1,4.3,4.3,0,0,0,2.7-2.4,7.5,7.5,0,0,0,.6-3.9h0a40.3,40.3,0,0,0-1-9.1c-.3-1.5-.7-3-1.1-4.4s-1-3-1.6-4.4a42.5,42.5,0,0,0-4.6-8A36.4,36.4,0,0,0,370.7,575.9Z"/><path class="cls-10" d="M332,554.4s-2.1,21,9.9,40.1c.1,10,14.8,8.3,12.6-1.3,0,0-4-17.5-3.8-24.3"/><path class="cls-11" d="M332,554.4a72.6,72.6,0,0,0,2.3,20.7,67.3,67.3,0,0,0,3.2,9.9,72.8,72.8,0,0,0,4.8,9.2h.1v.2a6.4,6.4,0,0,0,2,4.9,6.1,6.1,0,0,0,5.1,1.3,5.6,5.6,0,0,0,4.2-3.1,5.8,5.8,0,0,0,.6-2.6,15.1,15.1,0,0,0-.5-2.8c-.8-3.8-1.5-7.7-2.1-11.6-.3-1.9-.6-3.8-.8-5.8a57.2,57.2,0,0,1-.2-5.9,73.6,73.6,0,0,0,1.6,11.6c.7,3.9,1.6,7.7,2.4,11.5a13.4,13.4,0,0,1,.5,3,7.7,7.7,0,0,1-.6,3,6.6,6.6,0,0,1-4.9,3.6,7.3,7.3,0,0,1-6-1.5,7.5,7.5,0,0,1-2.3-5.6v.2a55.5,55.5,0,0,1-4.8-9.4l-1.8-4.9c-.5-1.7-.9-3.4-1.3-5.1a74.8,74.8,0,0,1-1.6-10.4A61.4,61.4,0,0,1,332,554.4Z"/><path class="cls-12" d="M226,317.5h0a44.1,44.1,0,0,1,28.9,15.8l59.4,72.1a5.7,5.7,0,0,1-.5,7.6c-11.2,10.8-45.8,42-64.3,37.4C229,445.3,224,339.2,223.2,320A2.4,2.4,0,0,1,226,317.5Z"/><path class="cls-12" d="M252.6,331c-7-8-18.8-12.3-30.9-13.9l-5-.6-117.1-15c-1.3-.2-2.8-3.9-4-3.5"/><path class="cls-13" d="M95.6,298c1.2-.4,2.7,3.3,4,3.5l117.1,15,5,.6c12.1,1.6,23.9,5.9,30.9,13.9,0,0-7,70-15,74s-124,2-132-8-27-26.5-27-26.5,12-48.5,13-61.5S95.6,298,95.6,298Z"/><path class="cls-12" d="M252.2,391.9l21.6,154.4a7.5,7.5,0,0,1-6.2,8.6c-34.4,6.7-182.1,31.7-214-18.8a8.7,8.7,0,0,1-1.1-5.7C55.9,512.7,70.6,402,79.6,365"/><path class="cls-14" d="M115.2,305.9s-14.3,47.6,39.6,49.8,52.7-40.9,52.7-40.9Z"/><path class="cls-8" d="M124.9,306.4s-9.4,31.1,31.5,35.3,38.5-44.9,38.5-44.9Z"/><path class="cls-8" d="M301.4,216.5c-17.4-18.3-30,2.4-38.5,9.3C274.1,172.4,302,75.5,160.9,78c-77.8,1.3-91.3,65.1-90.5,117.8-3.5-17.5-20.9-13.2-25.9,2.9-8.1,26.1,14.8,33.2,25.7,37.6.5.2,1.4,11.9,1.7,15.3,3.3,36.1,45,76.8,97,72.5,39.7-3.3,80.9-32.3,91.9-59.2,4.8,5,13,4.7,21.8,0C296.3,257.6,312.5,228.2,301.4,216.5Z"/><path class="cls-15" d="M286.7,224s-23.2,8-20.6,22.9a8.9,8.9,0,0,0,9.2,7.4c2.9-.1,6.2-.8,8.3-3.1,4.2-4.3-.3-11.4-6-9.7s-8.4,1.4-7.9-3.4C269.7,238.1,270.9,231.6,286.7,224Z"/><path class="cls-14" d="M71.6,410c23.1,28.1,144.5,39.8,182.1,6.6l9,50.9c-47.1,33.8-169.3,31.1-198.5-4.9Z"/><path class="cls-16" d="M91.3,49.3s16.6,102.1,150.2,57.6c-9.4,6.5-13.1,18.1-12.5,33.5,0,0,13.5-16.2,29.9-21.4,0,0-23.1,81.4,3.4,116.5,0,0,4-26.3,33.8-23.3,0,0,59.8-61.6-6.7-114.8,0,0,6.5-12.6,17.9-8.3,0,0-6.4-17.3-22.3-4.1,0,0,21.2-23.8,3.7-34.3,0,0,1.2,26-12.4,25.6,0,0-23.1-50.3-129.9-35.1,0,0-24,3.4-28.5-15.8,0,0-18.9,20.7,6.2,34.2C124.1,59.6,101.4,64.2,91.3,49.3Z"/><path class="cls-16" d="M71.8,200.5c.6,1.7-4.7-71.1,40.4-93.1s.5-43.9-9.2-32.4c0,0-33.4,10-38,49s.2,63.3.2,63.3S67,188.4,71.8,200.5Z"/><path class="cls-17" d="M149.4,222.5a5.8,5.8,0,0,1-1.1,3,7.2,7.2,0,0,1-2.5,2.1c-1.9,1.1-4,1.6-5.6,2.5a5.5,5.5,0,0,0-1.9,1.8l-.3.5-.2.7a5.8,5.8,0,0,0-.3,1.4,6.1,6.1,0,0,0,1.4,5,10.7,10.7,0,0,0,4.8,3,26.9,26.9,0,0,0,5.9,1.1,42.3,42.3,0,0,0,12.2-1,34.4,34.4,0,0,1-12.3,2.3,22.3,22.3,0,0,1-6.3-.9,11.8,11.8,0,0,1-5.7-3.3,8.7,8.7,0,0,1-1.8-3.1,9.8,9.8,0,0,1-.2-3.4,8.5,8.5,0,0,1,.4-1.7l.3-.8a2,2,0,0,1,.4-.8,5.7,5.7,0,0,1,2.7-2.4c2-1.1,4.1-1.4,5.9-2.1a7.9,7.9,0,0,0,2.5-1.5A7,7,0,0,0,149.4,222.5Z"/><path class="cls-10" d="M72,195.6s-1.7,17.4-1.7,41.6"/><path class="cls-11" d="M72,195.6l-.8,20.8-.4,10.4c-.2,3.4-.3,6.9-.5,10.4-.1-1.8-.2-3.5-.2-5.3v-5.2c0-3.4.1-6.9.2-10.4s.4-6.9.7-10.4S71.5,199,72,195.6Z"/></g></g></svg>