<svg xmlns="http://www.w3.org/2000/svg" viewBox="0 0 84 66"><defs><style>.cls-1{fill:#f89f1f;}.cls-2{fill:#d99728;}.cls-3,.cls-7{fill:#e6e125;}.cls-14,.cls-3{stroke:#bcae32;stroke-miterlimit:10;stroke-width:0.3px;}.cls-4{fill:#e9c01e;}.cls-5{fill:#f9b31a;}.cls-6{fill:#e49f24;}.cls-8{fill:#d4cb27;}.cls-9{fill:#f2d54f;}.cls-10{fill:#e55446;}.cls-11{fill:#d74741;}.cls-12{fill:#fff;}.cls-13{fill:#282625;}.cls-14{fill:none;}</style></defs><g id="Layer_81" data-name="Layer 81"><g id="Duck_poses_01_F_01_" data-name="Duck poses 01 ( F 01 )"><path class="cls-1" d="M45.3,44.7a9.2,9.2,0,0,0,.1,1.5,5.6,5.6,0,0,0,.1.7,4.4,4.4,0,0,0-1.8-.3c-.4,0,1,.4,1.5.7s-2.5,1.9-1.9,1.6,2.3-1.4,2.6-1.3a5.6,5.6,0,0,1,1.7,1.7c.3.5-.5-1.4-1-2a8.8,8.8,0,0,1,1.8-.6,5.1,5.1,0,0,0-2.3.2,5.6,5.6,0,0,1-.2-1,13.6,13.6,0,0,1-.1-1.8Z"/><path class="cls-2" d="M46.6,47.3l1.8-.6-2.1.4s-.2-.1-.2-.2h0a5.6,5.6,0,0,1-.2-1c0-.3-.1-.9-.1-1.4l-.3.4a9.2,9.2,0,0,0,.1,1.5,5.6,5.6,0,0,0,.1.7,6.3,6.3,0,0,0-1.7-.3l1.2.5h-.1c.1.1-.1,0,0,0L43.2,49a16.4,16.4,0,0,1,2.7-1.5c1.3,1.1,1.3,1.1,1.3,1.2l.5.7A6.1,6.1,0,0,0,46.6,47.3Z"/><path class="cls-2" d="M44.7,42.5l.4,3a.7.7,0,0,0,.8,0l-.2-3.3Z"/><path class="cls-1" d="M44.7,42.5l.3,1.8a.7.7,0,0,0,.8-.5V42.2Z"/><path class="cls-3" d="M43.6,37.4a3.1,3.1,0,0,0-1.3,2.4,5.7,5.7,0,0,0,1.5,3,3.3,3.3,0,0,0,.6.8,1.2,1.2,0,0,0,1.2,0c.6-.3.7-.4.8-.6a15.2,15.2,0,0,0,1-3.6C47.3,38.8,46.3,37.5,43.6,37.4Z"/><path class="cls-4" d="M43.4,36.6A2.9,2.9,0,0,0,42,38.9,4.6,4.6,0,0,0,43.5,42a2.9,2.9,0,0,0,1.9.7,2,2,0,0,0,1.5-.5,9.6,9.6,0,0,0,.3-3.7C47.1,38,46,36.7,43.4,36.6Z"/><path class="cls-1" d="M39.9,44a12.3,12.3,0,0,0-.2,1.3v.6a5.9,5.9,0,0,0-1.5-.5c-.4-.1.8.5,1.1.8s-2.5,1.2-1.8,1.1,2.2-.8,2.4-.7a5.1,5.1,0,0,1,1.2,1.8c.2.4-.2-1.3-.5-1.9a7.4,7.4,0,0,1,1.6-.3,6.9,6.9,0,0,0-2-.2v-.8c0-.4.1-1.6.1-1.6Z"/><path class="cls-2" d="M40.6,46.5l1.6-.3a12,12,0,0,0-1.9,0,.3.3,0,0,1-.1-.2h0v-.8c0-.3.1-.9.1-1.3l-.3.3a12.3,12.3,0,0,0-.2,1.3v.6a4.6,4.6,0,0,0-1.4-.5l.9.6h-.1l-1.8,1.1a21.6,21.6,0,0,1,2.6-.8l.9,1.3c.1.2.1.4.2.6A4.4,4.4,0,0,0,40.6,46.5Z"/><path class="cls-2" d="M39.7,42v2.7a.5.5,0,0,0,.7,0l.3-2.8Z"/><path class="cls-1" d="M39.7,42v1.6c.3.1.5.1.8-.3l.2-1.4Z"/><path class="cls-3" d="M39.6,37.5A2.6,2.6,0,0,0,38,39.2a5.2,5.2,0,0,0,.8,2.9l.4.8a1.2,1.2,0,0,0,1.1.2c.5-.2.6-.2.7-.4a10.7,10.7,0,0,0,1.6-2.9C42.6,39.2,41.9,38,39.6,37.5Z"/><path class="cls-4" d="M39.5,36.7a2.8,2.8,0,0,0-1.6,1.8,3.8,3.8,0,0,0,.8,2.8,3.1,3.1,0,0,0,1.5,1c.7.1,1.3,0,1.4-.2a8.2,8.2,0,0,0,.9-3.1C42.5,38.5,41.8,37.2,39.5,36.7Z"/><path class="cls-5" d="M50.3,18.5a2,2,0,0,1,0-1.7c.3-.4,1.9.1,2.3.3A5.2,5.2,0,0,0,51,18.3C50.6,18.9,50.4,18.6,50.3,18.5Z"/><path class="cls-6" d="M50.3,18.5c.1.1.3.4.7-.2a5.2,5.2,0,0,1,1.6-1.2h0c-.4-.1-.9.2-1.4.3a2,2,0,0,0-1,.8C50.2,18.3,50.3,18.4,50.3,18.5Z"/><path class="cls-7" d="M42.1,24.1h0c-2.7,1.2-7.4,3.4-9.5,6.5,0,0-3.3-2.3-3.6,0S27,43.5,40.9,41.7c4.1-.6,11-2.7,10.5-12.9l-1.2-4.5s-.9-2.2-.4-2.9,2.4-3.6.5-5.7-5.8,1.4-6.9,3.9A40.3,40.3,0,0,0,42.1,24.1Z"/><path class="cls-8" d="M41.5,41.9C32.6,43,31.3,40,29.7,36c2.4.4,5.1,4.6,10.5,3.7s6.3-2.7,8.9-4.9,1.1-7.3,1.3-10.3a41.4,41.4,0,0,1,1,4.3C53,39.1,45.4,41.4,41.5,41.9Z"/><path class="cls-9" d="M32.8,30.7a1.6,1.6,0,0,0,0,1.5c.9,1.3,5.5-.9,9.7-2.5s4.8-6.4,5.4-9.1a4.6,4.6,0,0,0-1.1-4.4l-1.2.2a13.5,13.5,0,0,0-1.9,3.2c-.4,1.1-1.2,4.5-1.2,4.5h0a18.4,18.4,0,0,0-6,3A18.2,18.2,0,0,0,32.8,30.7Zm10.1-6.8-.3.2C42.6,24,42.8,24,42.9,23.9Z"/><path class="cls-7" d="M46.4,28.5s-5.8-.8-10.3.6-4.3,3.4-4.3,3.4-.2,1.1,1.4.7A5.2,5.2,0,0,0,35.3,36a9.6,9.6,0,0,0,12.2-4.4C47.8,31,48,29.1,46.4,28.5Z"/><path class="cls-9" d="M47,28.6a8.3,8.3,0,0,0-2.8-.4s-11,0-10.6,3.1c.1.7,1.5,1.3,2.7,1.3s-.3,1.8,1.4,2.5,5.5,1.7,9.6-3.1l.3-.4C47.9,31,48.3,29.2,47,28.6Z"/><path class="cls-10" d="M48.7,15.2c.2-.1.7-.1.5-.4a2.6,2.6,0,0,0-2.3-1.2c-.5.1-.5.7-.5.7a.9.9,0,0,0-.6.8c0,.4-.2.5-.5.8s0,.8.2.9.7-.4,1.4-.9A4.5,4.5,0,0,1,48.7,15.2Z"/><path class="cls-11" d="M46.9,15.9a4.5,4.5,0,0,1,1.8-.7c.2-.1.7-.1.5-.4s-.3-.5-.7-.7a1.7,1.7,0,0,0-1-.1.7.7,0,0,0-.6.7.8.8,0,0,0-.6.9,2.6,2.6,0,0,1-.5.9c-.1.1-.2.2-.2.3S46.2,16.3,46.9,15.9Z"/><ellipse class="cls-12" cx="49.8" cy="16.8" rx="0.4" ry="0.6"/><ellipse class="cls-13" cx="49.8" cy="16.8" rx="0.2" ry="0.3"/><ellipse class="cls-12" cx="49.9" cy="16.6" rx="0.1" ry="0.1" transform="translate(14.2 55.2) rotate(-65.6)"/><path class="cls-14" d="M47.4,39.9c2.7-1.8,4.9-5.1,4-11.1a41.4,41.4,0,0,0-1-4.3v.2l-.2-.4s-.9-2.2-.4-2.9a8.4,8.4,0,0,0,1.3-3.1,5.3,5.3,0,0,1,1.5-1.2h0a3.8,3.8,0,0,0-1.7-.5l-.6-.9-1-.8h-.1c0-.1,0-.1-.1-.2h-.3v-.2h-.2a2,2,0,0,0-1.6-.5c-.5.1-.5.7-.5.7a.9.9,0,0,0-.6.8c0,.4-.2.5-.5.8a.6.6,0,0,0-.1.7,14,14,0,0,0-1.8,3,40.3,40.3,0,0,0-1.3,4.5h0l-1.2.6a14.5,14.5,0,0,0-3.9,2,15.2,15.2,0,0,0-4.4,3.9s-3.3-2.3-3.6,0-1.2,7.8,3.8,10.3c1.3.8,3.1,1.3,6.1,1.2C38.9,42.1,44.1,42.2,47.4,39.9Z"/></g></g></svg>