<svg xmlns="http://www.w3.org/2000/svg" viewBox="0 0 84 66"><defs><style>.cls-1,.cls-4{fill:#d79b6b;}.cls-2,.cls-3{fill:#be7a40;}.cls-3,.cls-4,.cls-9{stroke:#8b6339;stroke-miterlimit:10;stroke-width:0.3px;}.cls-5{fill:#434343;}.cls-6{fill:#212121;}.cls-7{fill:#3e2723;}.cls-8{fill:#fff;}.cls-9{fill:none;}</style></defs><g id="Layer_58" data-name="Layer 58"><g id="Puppy_01_F04"><path class="cls-1" d="M54.9,32.5s-2.1,1.4-2.1,2.9.7,1.7,1.5,2.7,3.3,5.6,4.3,5.4,3.2-.8,1.7-2.6c0,0-1-.6-1.5.1l-.7-5.7.2-1.8-.4-1.7"/><path class="cls-2" d="M50.6,9.9a4.1,4.1,0,0,0,0,1.1.7.7,0,0,0,.1.5l.2.4v-.4c.1.3.2,1.2.5,1.4a.6.6,0,0,1,.1-.4c.4.8.8,1.5,1,1.3s2.1-5.3,2.1-5.3l-1.5.3a4.4,4.4,0,0,0-2.2.7Z"/><path class="cls-3" d="M57.6,23.1l5.8,12.4s.5-.9,1.1-.8,1.9,1,1.3,1.9-2.4,2.3-4.9-.5l-8.8-9.8Z"/><path class="cls-3" d="M38.5,35.3c1.7-.7,5.5-.2,5.1,5.5s-2.3,5.8-1.8,6.8a23.2,23.2,0,0,0,1.7,2.6,2.2,2.2,0,0,1,1.1-.7c.5,0,1.4.7,1.3,1.3s-2.1,2.5-3.6,1.3-4.3-3.8-4.4-4.4,1.6-3.7-1.8-5.4S36.8,36,38.5,35.3Z"/><path class="cls-1" d="M65.2,13.4h0a2,2,0,0,1-.8,1.4,2.3,2.3,0,0,1-1.5.7c-.2.5,1.5-.2,1.5-.2-.2,1.8-3.1,1.2-4.5,2.4s-1.1,1.5-1.1,3.2,1.8,4.8.1,9.9c0,.1-.6,1-.6,1.1s-1.3.2-3,1.6h-.2l-.6.6a32,32,0,0,1-3.6,2.4c-3.6,2.1-9.3,3-12.7,3.1H36.8l-1.5.2h-.1a26.6,26.6,0,0,0-3.8,1l-3.1.9h0a18.9,18.9,0,0,1-3.2.7h-.6a2.3,2.3,0,0,1-1.3-.3C20,40,20,30.5,27,27.1a23.9,23.9,0,0,1,5-1.8h.4c3.5-.8,5.5-.4,11.8-4.3,4.2-2.7,5.3-5.3,6-7.8a6.6,6.6,0,0,1,3.1-4.5h.3a8.8,8.8,0,0,1,2.6-.8h3.6l.2.2a2.7,2.7,0,0,1,.8.7c.4.4.4.7.7,1s.4.4,2.7,1.5c0,.1.1.1.2.1a2.7,2.7,0,0,1,.8.7A1.4,1.4,0,0,1,65.2,13.4Z"/><path class="cls-4" d="M35.2,39.2a6.7,6.7,0,0,0,.1,2.4c.1.2,1.1,4,0,6-2.4,4.3-6.3,4.3-6.7,5.3s.4,1.7-.1,3.2-2.1,1.4-2.3.5-1.2-1.7-1.3-3.2c-.2-4,1-2.8,2.1-3.3s1.2-1,1.2-2.2c.1-4.6-3.9-3.9-5-5.4"/><path class="cls-5" d="M65.2,13.4h0c-.4-.1-.6-.1-.8-.4a1.5,1.5,0,0,1,0-1.3,2.7,2.7,0,0,1,.8.7A1.4,1.4,0,0,1,65.2,13.4Z"/><path class="cls-2" d="M62.3,11.8h0a1.9,1.9,0,0,1-.3,1h0l-.2.2a4.3,4.3,0,0,1-1.9,1.4l-1.6.5A4.6,4.6,0,0,0,56,16.1a6.7,6.7,0,0,0-.7,1.1c-.1.4-.5.9-.4,1.4s-.1-.4-.2-.5a16.8,16.8,0,0,0-.7,2.4c0,.4.2,2.2.3,2.7l-.6-.8c0,.9.5,4.3.1,5l-.4-.6a11,11,0,0,1-.2,1.8,5.7,5.7,0,0,0-.4,1.4.5.5,0,0,0-.2-.4,2.7,2.7,0,0,1-.9,2l-.8.6-.4.3a1.1,1.1,0,0,0,.2-.5c-.6.3-1.8,1.7-3.1,1.9s.3-.4.4-.5l-2,.2H44.7l-.6-.2h-.4a4.5,4.5,0,0,0-1.1.3,4.2,4.2,0,0,1-1.6.1c.1-.2.3-.2.4-.4l-1.8.5-1.4.7c-.3.3-1,.7-1,1.1s.1-.5.1-.8A4.7,4.7,0,0,0,36,36.5h0a3.3,3.3,0,0,0-.4,1.3,1.9,1.9,0,0,1-.2-.7c0,.1-.1.2-.1.4s-2.2,1.5-2.1,2.5.5.3.3,1.7-.9,2.2-1,2c.1,1.3-.5-.9-.4.4l-.3-.3a8.9,8.9,0,0,1-.1,2.3c-.1.4-.2,1-.5,1.2v-.6a5.1,5.1,0,0,1-.9,1.6V48l-1.1-1a8.5,8.5,0,0,0-2-2.4,12.4,12.4,0,0,0-4-2.1C20,40,20,30.5,27,27.1a23.9,23.9,0,0,1,5-1.8h.4c3.5-.8,5.5-.4,11.8-4.3,4.2-2.7,5.3-5.3,6-7.8a6.6,6.6,0,0,1,3.1-4.5h.3a8.8,8.8,0,0,1,2.6-.8h3.6l.2.2c-.5.6-.2,1.6,1,1.9s1.3.8,1.3,1.4Z"/><path class="cls-6" d="M61.4,10.9a1.4,1.4,0,0,1,.4.4c-.1.2-.2.5-.3.5a.6.6,0,0,1-.7.1s-.4-.6,0-.9S61.2,10.8,61.4,10.9Z"/><path class="cls-7" d="M60.9,11.7c.2.1.5.2.6-.1a.4.4,0,0,0-.3-.6C60.9,10.9,60.5,11.3,60.9,11.7Z"/><path class="cls-6" d="M61,11.6c.1,0,.3.1.4-.1a.3.3,0,0,0-.2-.4C61,11.1,60.8,11.3,61,11.6Z"/><ellipse class="cls-8" cx="61" cy="11.5" rx="0.1" ry="0.1" transform="translate(-0.9 6.3) rotate(-5.9)"/><path class="cls-2" d="M25.5,37.6a10.2,10.2,0,0,1-6.9-5.1,10.6,10.6,0,0,1-.7-7c0-.2.1-.3.3-.5h0a.6.6,0,0,1,1,.4,9.6,9.6,0,0,0,7,11.1"/><path class="cls-2" d="M53.5,10.6c4.3-3.5,7.5-1.8,7-.1s.4,1.1-.2,2.4-.3.5-.4.8-.1.7-.2,1.1a2.7,2.7,0,0,1-.5,1.1v-.5a2.5,2.5,0,0,0-.2,1.2c.1.6.4,1.4-.4,1.6a3.2,3.2,0,0,1-2.3-.7c-1.5-1-1.8-2.8-2.6-4.3S52.6,11.3,53.5,10.6Z"/><path class="cls-9" d="M35.3,40.1a28.5,28.5,0,0,0,2.9-.3,33.9,33.9,0,0,0,11-2.3h0c1.7-.8.6,0,2.4-1.2"/><path class="cls-9" d="M51.6,36.3A5.3,5.3,0,0,0,53.1,35c-.7,1.6,2.2,4.3,2.8,5.4,1.5,2.9,2.5,3.6,4.3,2.5a1.3,1.3,0,0,0,0-2.1,2.4,2.4,0,0,0-1.4.2l-.9-6.6.2-2.1c0-.1.8-1.3.8-1.4,1.7-5.1,0-7.9-.1-9.9s.4-2.6,1.1-3.2,4.3-.6,4.5-2.4c0,0-1.7.7-1.5.2a2.3,2.3,0,0,0,1.5-.7,2,2,0,0,0,.8-1.4h0a1.4,1.4,0,0,0,0-.9,2.7,2.7,0,0,0-.8-.7c-.1,0-.2,0-.2-.1-2.3-1.1-2.5-1.2-2.7-1.5s-.3-.6-.7-1a2.7,2.7,0,0,0-.8-.7h0l-.2-.2H56.2l-1.5.4-1.1.4h-.3c-.1.1-.2.1-.2.2a5.7,5.7,0,0,0-2.2.7l-.3.4a4.1,4.1,0,0,0,0,1.1.7.7,0,0,0,.1.5h0l-.4,1.2v.3c-.7,2.5-1.7,5.1-5.9,7.7h-.1c-5.2,3.2-7.5,3.5-10.1,3.9l-1.7.4h-.3a.1.1,0,0,1-.1.1l-1.1.3a19,19,0,0,0-3,1.1l-.9.4a9.3,9.3,0,0,0-3.8,3.2,10.5,10.5,0,0,0-1.6,3.4,8,8,0,0,1-1.5-2.1,9.7,9.7,0,0,1-.9-6.2.6.6,0,0,0-1-.4h0c-.2.2-.3.3-.3.5a10.6,10.6,0,0,0,.7,7,9,9,0,0,0,2.6,3.1c-.3,3,.5,5.7,2,6.9a19.4,19.4,0,0,1,3.4,1.8"/><path class="cls-9" d="M53.2,28.6S50.7,33,53.1,35"/><path class="cls-4" d="M28.4,51c.9.5-1-1.4-1.8-.7"/></g></g></svg>