<svg xmlns="http://www.w3.org/2000/svg" viewBox="0 0 84 66"><defs><style>.cls-1{fill:#dbd1c0;stroke-width:0.08px;opacity:0.3;}.cls-1,.cls-12,.cls-15,.cls-2{stroke:#000;}.cls-1,.cls-10,.cls-12,.cls-15,.cls-2,.cls-4,.cls-5,.cls-9{stroke-miterlimit:10;}.cls-2{fill:#f3e9d6;}.cls-12,.cls-15,.cls-2{stroke-width:0.04px;}.cls-3,.cls-5{fill:#fbd9ac;}.cls-4{fill:none;}.cls-10,.cls-4,.cls-5,.cls-9{stroke:#dfb784;stroke-width:0.3px;}.cls-6,.cls-9{fill:#c0945b;}.cls-7{fill:#423b32;}.cls-8{fill:#2b2722;}.cls-10{fill:#b18856;}.cls-11{fill:#68553f;}.cls-12{fill:#999085;}.cls-13{fill:#78909c;}.cls-14{fill:#434343;}.cls-15{fill:#fff;}.cls-16{fill:#dfb784;}.cls-17{fill:#6c5f4e;}</style></defs><g id="Layer_78" data-name="Layer 78"><g id="GoatF04_P02"><path class="cls-1" d="M62.4,28.3c-4.9,8-10.5,8-17.6,11.4l-.5.2h-.1l-1.2.6-.2.2H41.6c0-.1-.1-.1-.1-.2v-.4c-.1-.1-.1-.2-.1-.4s-.5-2.2-.7-3.4h0c-.2-2.1.2-3.9,2.2-4s2.3.4,3.5.3c5.1-.2,8.6-5,11.4-8.8L59.2,22c1.4-1.8,2.4-.8,3.4.2S62.3,26.8,62.4,28.3Z"/><path class="cls-2" d="M69.4,23h0c-.2,1.8-2.3,10.4-3.5,9.3a13,13,0,0,1-3-4.9l-.5.8c-.1-1.5.1-4.1.2-6.1s-2-2-3.4-.2l-1.4,1.9c-2.8,3.8-6.3,8.6-11.4,8.8-1.2.1-2.4-.3-3.5-.3s-2.4,1.9-2.2,4h0c.2,1.2.5,2.4.7,3.4s0,.3.1.4v.4c0,.1.1.1.1.2l-1.5-.2H38.9a22.1,22.1,0,0,1-11.4-4.1A18.4,18.4,0,0,1,25,34.3c-4.6-4.9-4.6-10.7,2-11.1,1.8,1.1,3.7.5,5.5.6s7.4-1.9,12.3-4.6c7-4,8.6-10.2,17.6-10.5a6,6,0,0,1,2.7.6C68.2,10.8,70,15.5,69.4,23Z"/><path class="cls-3" d="M68.3,10.9h.4c-.5.5-1.4,1.2-2.9,0l-.5-.2a1.6,1.6,0,0,0-1.4.4.6.6,0,0,1-.7-.2l-.7-.9h.7l.6-.4a3.2,3.2,0,0,0,1-1.4l.2.4a1.4,1.4,0,0,1,1.1-.7c-.2.1-.2.2-.2.4a1.3,1.3,0,0,1,1.4.5h-.5c.2.4.6,1.3,1.2,1.3l-.5.2c.3.3.8.4,1.6,0A3.1,3.1,0,0,1,68.3,10.9Z"/><path class="cls-4" d="M68.3,10.9h.4c-.5.5-1.4,1.2-2.9,0l-.5-.2a1.6,1.6,0,0,0-1.4.4.6.6,0,0,1-.7-.2l-.7-.9h.7l.6-.4a3.2,3.2,0,0,0,1-1.4l.2.4a1.4,1.4,0,0,1,1.1-.7c-.2.1-.2.2-.2.4a1.3,1.3,0,0,1,1.4.5h-.5c.2.4.6,1.3,1.2,1.3l-.5.2c.3.3.8.4,1.6,0A3.1,3.1,0,0,1,68.3,10.9Z"/><path class="cls-3" d="M65.3,10.6a1.6,1.6,0,0,0-1.4.4.6.6,0,0,1-.7-.2c-.1-.4-.2-.7,0-1l.6-.4A4.9,4.9,0,0,1,65.3,10.6Z"/><path class="cls-5" d="M13.7,26.7c5.8,3.7,5.1-2,8.4-2.3,1.6-.1.9-1.6-.5-2.1-4.1-1.6-5.3,2.5-8.2,3.3C12.7,25.9,13,26.2,13.7,26.7Z"/><path class="cls-6" d="M21.4,24.1s-1.2-.3-3.3,1.2-4.3.5-4.4.7,1.9,1.9,3.6,1.5S19.2,24.9,21.4,24.1Z"/><path class="cls-7" d="M57.9,40.4l.8-1a2.8,2.8,0,0,1-1.5.4,10.2,10.2,0,0,0,1.4-1.9,8,8,0,0,1,2.8.8v.2C61.3,41.2,58.8,40.6,57.9,40.4Z"/><path class="cls-8" d="M57.2,39.8A4.2,4.2,0,0,0,59,39l-.3.4A2.4,2.4,0,0,1,57.2,39.8Z"/><path class="cls-8" d="M57.9,40.4s2.9.1,3.5-1.5C61.3,41.2,58.8,40.6,57.9,40.4Z"/><path class="cls-9" d="M61.4,38.7h0c-2.1.5-2.8-.8-2.8-.8s1.4-3.5.8-4.7l-.3-.6c-.2-.8.1-1.1.2-2.2a33.3,33.3,0,0,0-.4-5.6,21.4,21.4,0,0,0-.3-2.3c1.3-1.6,3.1-2,5.5-1,0,0-.3,1.1-.6,2.5a36,36,0,0,0-1,5.9c0,.2,0,.3.1.4s-.2,2.1-.6,3.3.2,2.5,0,3.2S61.3,37.8,61.4,38.7Z"/><path class="cls-7" d="M44.1,52.1V50.9a1.9,1.9,0,0,1-.7,1.2,8,8,0,0,0-.3-2.3,6.1,6.1,0,0,1,2.2-1.1l.2.2C46.9,50.6,44.8,51.7,44.1,52.1Z"/><path class="cls-8" d="M43.3,52.1a3.6,3.6,0,0,0,.6-1.7v.5A1.9,1.9,0,0,1,43.3,52.1Z"/><path class="cls-8" d="M44.1,52.1s2-1.7,1.3-3.2C46.9,50.6,44.8,51.7,44.1,52.1Z"/><path class="cls-10" d="M32.7,38.6s5,4.3,5.7,5.3.7,1.5,1.9,2S43,49.8,43,49.8s1.3.6,2.2-1.1c-.6-.6-.4-1.2-.8-1.8s-.9-.1-2.1-2.3-.8-2.3-1.9-2.8-4.9-7.4-4.9-7.4A3.6,3.6,0,0,0,32.7,38.6Z"/><path class="cls-7" d="M38.6,55.7l.7-.9a1.5,1.5,0,0,1-1.3.3,6.8,6.8,0,0,0,1.3-1.8,6.2,6.2,0,0,1,2.4.6v.3C41.6,56.5,39.4,55.9,38.6,55.7Z"/><path class="cls-8" d="M38,55.1a4.7,4.7,0,0,0,1.6-.7l-.3.4A2.1,2.1,0,0,1,38,55.1Z"/><path class="cls-8" d="M38.6,55.7s2.6.1,3.1-1.5C41.6,56.5,39.4,55.9,38.6,55.7Z"/><path class="cls-5" d="M39.4,38s.7,6.6.6,7.8-.6,1.6,0,2.7-.7,4.8-.7,4.8.6,1.2,2.4.6c0-.8.5-1.1.6-1.8s-.6-.7,0-3.2,1-2.2.5-3.3,1.5-8.7,1.5-8.7A3.6,3.6,0,0,0,39.4,38Z"/><path class="cls-5" d="M69.4,23h0c-.2,1.8-2.3,10.4-3.5,9.3a13,13,0,0,1-3-4.9c-5.1,8.9-11.1,8.7-18.6,12.4h-.1l-1.2.6-.3.2a7.6,7.6,0,0,1-2.6-.1h-.4a22.7,22.7,0,0,1-12.2-4.2A18.4,18.4,0,0,1,25,34.3c-4.6-4.9-4.6-10.7,2-11.1,1.8,1.1,3.7.5,5.5.6s7.4-1.9,12.3-4.6c7-4,8.6-10.2,17.6-10.5a6,6,0,0,1,2.7.6C68.2,10.8,70,15.5,69.4,23Z"/><path class="cls-5" d="M20.6,23.6c-2.2,2.6-2.6,4.6-3.8,7.6s-1.5,4,.4,5.4a2.5,2.5,0,0,0,2.6.4,6.7,6.7,0,0,0,2.6-2.1c.3-.3,3.6-.1,5.8-2.6s1.9-5.8,1.3-7.7S22.5,21.2,20.6,23.6Z"/><path class="cls-11" d="M16.7,33.4c-.1-.2-.3,0-.3.1a1.9,1.9,0,0,0,.7,1.2,2.5,2.5,0,0,0,.8,2.1c.1.1.3-.1.2-.2a2.9,2.9,0,0,1-.6-1.8l1.3-.4c.2-.2.3-.5-.3-.3S17.2,34.3,16.7,33.4Z"/><path class="cls-12" d="M25.2,28.9s-.4,1.2-1,1.2-.8-.4-1.2-.1l.3-.6a1.3,1.3,0,0,1,.8-1A.9.9,0,0,1,25.2,28.9Z"/><path class="cls-13" d="M25.2,28.8a1.3,1.3,0,0,1-1.1,1,.8.8,0,0,1-.8-.4,1.3,1.3,0,0,1,.8-1A1,1,0,0,1,25.2,28.8Z"/><path d="M25.1,28.8a1.4,1.4,0,0,1-.5.8.8.8,0,0,1-1,.1l-.2-.2a.1.1,0,0,1-.1-.1h0l.3-.4a1,1,0,0,1,.8-.6.8.8,0,0,1,.7.5h.1c-.2-.3-.4-.5-.6-.5a1.5,1.5,0,0,0-1,.4l-.3.5a.3.3,0,0,1-.1.2h.3c.2.3.6.3,1,.2a1.8,1.8,0,0,0,.7-1C25.2,28.7,25.1,28.7,25.1,28.8Z"/><path class="cls-14" d="M23.6,29.2c0,.1.1.3.2.3a3.1,3.1,0,0,0,1-.5c.1-.1,0-.4-.1-.4Z"/><path d="M23.6,29.2c0,.1,0,.1.1.2a.1.1,0,0,0,.1.1c0,.1.1,0,.2,0l.7-.4h.2a.6.6,0,0,0-.1-.4h-.6a.5.5,0,0,1-.4.2c0,.1-.2.1-.2.2h.2l.3-.2.6-.2h.1v.2h0a.1.1,0,0,1-.1.1l-.6.3h-.3a.2.2,0,0,1-.1-.3Z"/><path class="cls-15" d="M24.7,28.8c0,.2-.1.3-.2.3s-.2-.1-.2-.3a.2.2,0,0,1,.4,0Z"/><path class="cls-16" d="M62.9,27.5c-5.1,9-11.1,8.7-18.6,12.4h-.1s-.5-2.7-.1-3.1,7,0,10.4-3S61.4,23.1,62,23.5,62.9,27.5,62.9,27.5Z"/><path class="cls-7" d="M66.9,43l.5-1.1a.1.1,0,0,1-.1.1c-.1.2-.4.3-.7.5h-.5a5,5,0,0,0,.8-2.1,2.9,2.9,0,0,1,2.9-.1c0,.1,0,.2.1.2C70.4,42.9,67.8,43,66.9,43Z"/><path class="cls-5" d="M67.6,23.1h.1V25c.2,2.5.4,6.6.9,7s.4,2.1.4,3.3c.1,2.7.8,2.5.9,3.2s-.4,1.1-.1,1.9h-.5a2,2,0,0,1-1.6.3l-.8-.4s.4-3.8-.6-4.8-.6-1.4-.8-2.6a2.6,2.6,0,0,0-.3-1.1"/><path class="cls-8" d="M67.6,41.4l-.2.5a.1.1,0,0,1-.1.1c-.1.2-.4.3-.7.5h-.5A4.2,4.2,0,0,0,67.6,41.4Z"/><path class="cls-8" d="M66.9,43s2.9-.6,3-2.4C70.4,42.9,67.8,43,66.9,43Z"/><path class="cls-16" d="M34.3,34c-8,.9-4.2-4.7-7.5-6.6-1.7-1-.2-2.2,1.6-2,5.2.5,4.3,5.3,6.8,7.7C35.9,33.7,35.3,33.9,34.3,34Z"/><path class="cls-6" d="M27.6,27.4s1.5.3,2.9,3,4.3,2.6,4.2,3-3,.9-4.6-.3S29.5,29.4,27.6,27.4Z"/><path class="cls-17" d="M22.8,23.2l.7-.3c1-.6.3-1.3-.7-1.8a.6.6,0,0,0-.9.5c.1.9.3,1.9.9,1.6"/><path class="cls-17" d="M25.1,24.9l.7-.3c1-.6.3-1.3-.7-1.8a.5.5,0,0,0-.8.5c.1.9.3,1.9.8,1.6"/></g></g></svg>