<svg id="Layer_1" data-name="Layer 1" xmlns="http://www.w3.org/2000/svg" xmlns:xlink="http://www.w3.org/1999/xlink" viewBox="0 0 108.1 121.2"><defs><style>.cls-1{opacity:0.25;}.cls-2{fill:#d0e8ec;opacity:0.2;}.cls-3{fill:#efb49a;}.cls-3,.cls-4{stroke:#9e4d2d;stroke-miterlimit:10;}.cls-4{fill:url(#linear-gradient);}.cls-5{fill:url(#linear-gradient-2);}.cls-6{fill:#933d18;}.cls-7{fill:#231f20;}.cls-8{fill:#d82e2a;}.cls-9{fill:#ef4136;}</style><linearGradient id="linear-gradient" x1="-1350.48" y1="-26.74" x2="-1254.05" y2="-26.74" gradientTransform="matrix(-1.01, -0.06, -0.06, 1, -1263, 0.62)" gradientUnits="userSpaceOnUse"><stop offset="0.19" stop-color="#ffd"/><stop offset="0.26" stop-color="#fff6d8"/><stop offset="0.41" stop-color="#ffe8cf"/><stop offset="0.54" stop-color="#ffe3cc"/><stop offset="0.67" stop-color="#ffe8d2"/><stop offset="0.83" stop-color="#fff8e3"/><stop offset="0.89" stop-color="#ffffea"/></linearGradient><linearGradient id="linear-gradient-2" x1="-1338.04" y1="-80.91" x2="-1321.95" y2="-80.91" gradientTransform="matrix(-1.01, -0.06, -0.06, 1, -1263, 0.62)" gradientUnits="userSpaceOnUse"><stop offset="0.14" stop-color="#ffe3cc"/><stop offset="0.3" stop-color="#ffddc9"/><stop offset="0.51" stop-color="#ffccbf"/><stop offset="0.52" stop-color="#ffccbf"/><stop offset="1" stop-color="#ffe3cc"/></linearGradient></defs><g class="cls-1"><path class="cls-2" d="M80.6,107.6c5.2,1.3,32.2,14.6-51.6,10.9C62,122.6,126.5,118.1,80.6,107.6Z"/><path class="cls-2" d="M8.3,109.6c-2,.5-12.6,6.9,18.1,8.3C14.1,118.8-9.1,113.6,8.3,109.6Z"/></g><path class="cls-3" d="M20.3,73.2c-5.3-4.5-8.2-13-7.7-20.1h0c-3.2,5.2-6.3,10.4-6,16.4.1-1.8-.5-3.7-.4-5.4A20.2,20.2,0,0,0,3,70.5V68.7c-1,4.1.9,7.8,3.4,11.5h0c3-3.4,6.7-6.2,11.7-7.1Z"/><path class="cls-4" d="M8.7,73.8a28.7,28.7,0,0,1,12.6-4.3c7.7-.8,15.5.3,22.9-2.1S54.6,59.1,56.7,53l-.9-.4a42.3,42.3,0,0,1-14.7-8.9c-2.6-2.5-5.4-5.4-5.6-8.9S39,30.9,41,28.6a50.4,50.4,0,0,0,3.1-4.9c2.4-4.3,3.3-9.6,6.8-13.3S61.7,3.2,68.3,2.8A39.8,39.8,0,0,1,84.4,5.4c6.6,2.5,9.4,6,12.5,11.6,2.3,4,2.5,8.4,2.8,12.8a31.3,31.3,0,0,0,2.2,10.5c.8,1.8,1.6,2.3.6,4.1a15.6,15.6,0,0,1-3.8,3.9,36.8,36.8,0,0,1-10.9,5.3A51.5,51.5,0,0,1,76,56.2c-.7,5.2,1.4,10,1.6,15.3.3,13-5.5,28.9-20.7,34.5s-33.1,3-44.5-6.5c-3.7-3-7.9-8.4-9.3-12.8S4.4,76.6,8.7,73.8Z"/><path class="cls-5" d="M77.7,3.7c4.7-2.8,11-1.2,15.4-5,.2,2.3-2.5,4.1-4.7,5.1a29.8,29.8,0,0,0,3.4-.6c-.3,1.1-1.9,1.9-3.3,2.5a7.3,7.3,0,0,0,3.3-.2c-4,6.7-9.7,1-15.4.5Z"/><path class="cls-6" d="M77.7,3.7C82.3.8,88.6,2.1,92.8-1.7l.6-.5v.8a4.3,4.3,0,0,1-1.7,3.6,12.2,12.2,0,0,1-3.2,2l-.3-.9a21,21,0,0,0,4.2-.9l-.2.9c-.5,1.6-2.3,2.2-3.7,2.8V5.2a8.6,8.6,0,0,0,4.2-.4l-.6,1c-4.1,6.9-10.4,1-16,.3h.1l1.4-2.3Zm0,0L76.5,6.1V5.9C80.6,6,84.5,9.4,88.6,8a6.1,6.1,0,0,0,2.8-2.7L92,6a9.8,9.8,0,0,1-5.1-.2c1.4-.7,3.8-1.2,4.4-2.8l.6.6a25,25,0,0,1-6.1.9l2.4-1.1c1.9-1,4.6-2.3,4.5-4.7l.7.3C89,2.8,82.6,1.2,77.7,3.7Z"/><path class="cls-7" d="M77.6,32.9c.1,1.7-.6,3.2-1.7,3.2s-2-1.3-2.1-3.1.6-3.2,1.7-3.2S77.5,31.1,77.6,32.9Z"/><path class="cls-7" d="M99.7,33.3c-.2,1.6-1.2,2.9-2.2,2.8s-1.6-1.5-1.4-3.2,1.2-3,2.2-2.9S99.9,31.6,99.7,33.3Z"/><path class="cls-8" d="M92,47.2c0-.4-1,.2-1.5.4a16.8,16.8,0,0,1-7.4.2c-5.2-.9-8-3.8-9-8.1h0c3.9,0,7.5.2,11,1.9a14.3,14.3,0,0,1,4.6,3.3A26.8,26.8,0,0,0,92,46.6c.2.2.8.6.2.2Z"/><path class="cls-9" d="M100.6,40.1a5.3,5.3,0,0,0,1,.6c1.7.7,5.8,1.2,4.9,3.7s-3.6,2.7-5.6,3.2c-4.8,1.3-9.4.1-13.7-1.8-2.5-1.2-4.5-2.6-7.3-3.2S74.3,42,73.2,41c-4-3.6,7.4-2.8,9.3-3.1s5.8-2.6,9.1-3.1,5,1.9,6.8,3.6A18.4,18.4,0,0,0,100.6,40.1Z"/><path class="cls-3" d="M22.8,59.9c-5.1,0-6.2-5.9-7-7.5-.3,6.4,2.7,11.8,7.1,15.8a21.5,21.5,0,0,0,18.2,5A10.3,10.3,0,0,0,48,69.3c2.1-2.6,3-5,4.6-7.6S54,59.3,54,57.3c0,0-11,7-21.9,2.9-4.7-1.8-14.3-10.5-14.3-10.5l.8,3.9A68.8,68.8,0,0,0,22.8,59.9Z"/></svg>