<svg id="Layer_1" data-name="Layer 1" xmlns="http://www.w3.org/2000/svg" xmlns:xlink="http://www.w3.org/1999/xlink" viewBox="0 0 140.3 103.8"><defs><style>.cls-1{fill:#d0e8ec;opacity:0.4;}.cls-2{opacity:0.8;}.cls-11,.cls-3{fill:#efb49a;}.cls-3,.cls-4{stroke:#9e4d2d;stroke-miterlimit:10;}.cls-4{fill:url(#linear-gradient);}.cls-5{fill:url(#linear-gradient-2);}.cls-6{fill:#933d18;}.cls-7{fill:#231f20;}.cls-8{fill:#d82e2a;}.cls-9{fill:#b22424;}.cls-10{fill:#ef4136;}</style><linearGradient id="linear-gradient" x1="4.35" y1="60.11" x2="124.4" y2="60.11" gradientTransform="translate(1.8 -11.6) rotate(2.1)" gradientUnits="userSpaceOnUse"><stop offset="0.19" stop-color="#ffd"/><stop offset="0.26" stop-color="#fff6d8"/><stop offset="0.41" stop-color="#ffe8cf"/><stop offset="0.54" stop-color="#ffe3cc"/><stop offset="0.67" stop-color="#ffe8d2"/><stop offset="0.83" stop-color="#fff8e3"/><stop offset="0.89" stop-color="#ffffea"/></linearGradient><linearGradient id="linear-gradient-2" x1="20.01" y1="19.07" x2="34.04" y2="19.07" gradientTransform="translate(1.8 -11.6) rotate(2.1)" gradientUnits="userSpaceOnUse"><stop offset="0.14" stop-color="#ffe3cc"/><stop offset="0.3" stop-color="#ffddc9"/><stop offset="0.51" stop-color="#ffccbf"/><stop offset="0.52" stop-color="#ffccbf"/><stop offset="1" stop-color="#ffe3cc"/></linearGradient></defs><path class="cls-1" d="M66.8,85.6c-5.2,1.3-32.2,14.6,51.6,10.9C85.3,100.6,20.9,96.2,66.8,85.6Z"/><path class="cls-3" d="M117.9,53.9c1.1-1.1,2.8-1.3,4.5-1.6,5.7-1.8,9.3-3.7,13.6-8.1-.7,4.6-2.4,9-5.9,12.2,1-.8,2.8-1.3,3.8-2.2-.1,3-2.4,5.5-4.6,7a3.7,3.7,0,0,0,1.4-1c-.6,4.3-6.6,6.9-10,8.3,0-3.6,2.9-11.2-.9-13.6Z"/><path class="cls-4" d="M115.1,48.7A45.9,45.9,0,0,0,86,40.6c-7.5.4-14.4,3.4-21.7,4.3a12.8,12.8,0,0,1-2-2.6A33.1,33.1,0,0,1,60.5,37c-1.3-4.7-1.2-9.9-3.6-14.2a24.7,24.7,0,0,0-14.1-11A34.2,34.2,0,0,0,27.9,11c-6.4,1-9.5,3.8-13.4,8.5s-3.8,7.6-4.9,11.8-2.1,7-4,9.6-1.8,1.9-1.3,3.8A13.8,13.8,0,0,0,7,49.2a32.6,32.6,0,0,0,8.7,7.4c7.4,4.7,13.6,6.8,20.9,6.6,2.1,4.3,8.4,9.9,10.8,12.3,13.9,11.7,41.2,19.9,58.2,12.9a28.6,28.6,0,0,0,16.3-16.2C125.1,63.6,123.7,54.7,115.1,48.7Z"/><path class="cls-5" d="M34.2,10.8c-3.7-3.7-9.6-3.5-12.8-8.1-.6,2.2,1.4,4.4,3.3,5.9a13.6,13.6,0,0,1-3-1.3c.1,1.2,1.4,2.2,2.5,3.1a7.4,7.4,0,0,1-3-.8c2.4,7.3,8.6,2.9,13.8,3.7Z"/><path class="cls-6" d="M34.2,10.8c-3.9-3.5-10-3.4-13.1-7.9h.7C21.3,5,23.4,6.9,25,8.3l1.9,1.6-2.4-.8a13.8,13.8,0,0,1-3-1.4l.7-.4c.3,1.6,2.3,2.6,3.5,3.6A9.4,9.4,0,0,1,21,10l.7-.6a5.8,5.8,0,0,0,1.9,3.1c3.3,2.4,7.6-.2,11.4.6v.2l-.7-2.5Zm0,0,.9,2.4v.2c-4-.6-8.3,2.3-12-.2-1.5-1.1-2.1-2.9-2.7-4.6a7,7,0,0,0,3.8,1.3l-.3.9c-1.1-.9-2.6-1.9-2.7-3.5V6.4a17.3,17.3,0,0,0,3.6,1.8l-.5.8a12.9,12.9,0,0,1-2.5-2.7A4.4,4.4,0,0,1,21,2.6l.3-.9.5.8c2.9,4.3,9,4.5,12.4,8.3Z"/><path class="cls-7" d="M32.3,38.1a5.2,5.2,0,0,1-.2,1.7c-.4,1.6-1.5,2.8-2.4,2.5s-1.4-1.8-.9-3.5c0-.1.1-.3.1-.4Z"/><path class="cls-7" d="M12.2,34.7V35c-.1,1.7-.9,2.9-1.9,2.8s-1.5-1.6-1.4-3.2a8.7,8.7,0,0,1,.5-1.9Z"/><path class="cls-8" d="M28.4,46.4c-.9,3.3-8.8,5.7-11.8,7.6-8.2,6.2-8-8.6-4.8-12.7,5.5,2.1,11.1,3.1,16.6,5.1Z"/><path class="cls-9" d="M22.6,46.1c-1.7,2.8-6.2,3.1-8.6,5.4-.1-2.2.1-4.5.2-6.7,3,.7,5.2,1.8,8.3,1.4Z"/><path class="cls-10" d="M5.1,37.1c1.2-2.5,3.2,0,5.9.1s5.1-2.3,7.9-1.8,6.4,2.9,6.1,6c4.1,2.5,5.9,6.2-.9,6.4C20.8,47.8,2,42.5,5.1,37.1Z"/><path class="cls-11" d="M62.4,43.2S82.5,56.9,44.5,62.3C44.5,62.3,63.9,56.9,62.4,43.2Z"/><path class="cls-3" d="M77.2,47s-3.8,24.8,24,34.5c0,0-9-8.2-10.5-12.7,0,0,5.3,7.5,17.3,9,0,0-6-3.8-7.5-7.5,0,0,5.2,4.5,9.7,3.7,0,0-12.7-14.2-10.5-27C99.7,47,79.4,39.5,77.2,47Z"/></svg>