<svg xmlns="http://www.w3.org/2000/svg" xmlns:xlink="http://www.w3.org/1999/xlink" viewBox="0 0 84 66"><defs><style>.cls-1{fill:none;}.cls-2,.cls-8{fill:#dfb784;}.cls-2,.cls-5,.cls-6{stroke:#dfb784;stroke-miterlimit:10;stroke-width:0.3px;}.cls-3{fill:#877d71;}.cls-4{fill:#6c5f4e;}.cls-5{fill:#cda377;}.cls-6,.cls-7{fill:#fbd9ac;}.cls-9{fill:#68553f;}.cls-10{opacity:0.39;}.cls-11{clip-path:url(#clip-path);}.cls-12{fill:#fff;}</style><clipPath id="clip-path"><rect id="SVGID" class="cls-1" x="21.1" y="7.5" width="0.6" height="0.55"/></clipPath></defs><g id="Layer_3-2" data-name="Layer 3"><g id="GoatF01_P02"><path class="cls-2" d="M33.9,9.7c-5.3,2.1-3.8-2.5-6.4-3.2s-.6-1.6.7-1.8c3.6-.6,3.9,3,6.1,4.1.6.4.3.6-.4.9"/><path class="cls-3" d="M48.6,54.3a2.8,2.8,0,0,0-.1.9,2.5,2.5,0,0,0,2.7,2.1l-.2-.8v-.3c.1-1.6-.8-2-1.6-2.1a2.2,2.2,0,0,0,.1.6Z"/><path class="cls-4" d="M48.6,54.3a2.8,2.8,0,0,0-.1.9l.9.8a3.3,3.3,0,0,0,1.6.5v-.3c.1-1.6-.8-2-1.6-2.1a2.2,2.2,0,0,0,.1.6Z"/><path class="cls-5" d="M50.4,54.9c-.4.5-.5,1.6.8,2.4,1-1,1.3-.1,2.1-.6s1.3-1.5,1.9-2a7.3,7.3,0,0,1,2.7-1.9c3.2-1.1.2-3,4.8-8a25.6,25.6,0,0,0,5-7.5,14.9,14.9,0,0,0,1.1-6.6c-.1-.9-.9-1.1-2-.4a16.3,16.3,0,0,0-4.5,4.4C55.3,44,57,46.9,56,50.2a8.7,8.7,0,0,1-2.9,3.2c-1.3,1-2,.9-2.7,1.5"/><path class="cls-3" d="M56.8,61.9l.7.8a2.5,2.5,0,0,1-3.8-1.2l1-.2-.3-.4c.7-.4,1.7-.5,2.4,1"/><path class="cls-4" d="M53.7,61.5a2.2,2.2,0,0,0,.5.8l1.1.2a3.3,3.3,0,0,0,1.7-.4l-.2-.2c-.7-1.5-1.7-1.4-2.4-1l.3.4Z"/><path class="cls-3" d="M21,38.2v1.1a2.5,2.5,0,0,1-2.1-3.4l.8.5a1.8,1.8,0,0,1,.1-.5c.8.2,1.6.7,1.2,2.3"/><path class="cls-4" d="M18.9,35.9a2.9,2.9,0,0,0-.2.9,2.3,2.3,0,0,0,.8.9,2.8,2.8,0,0,0,1.5.8v-.3c.4-1.6-.4-2.1-1.2-2.3a1.8,1.8,0,0,0-.1.5Z"/><path class="cls-5" d="M36.8,23.8a77.3,77.3,0,0,0-6.3,6.1c-1.5,1.7-1.9,2.7-2.7,3.5s-.8.1-2.1,1.5-1.8,2.7-2.4,3.1-.8,0-1.2.3-.2.9-1.1,1-1.3-.9-1.1-2a1.1,1.1,0,0,1,.7-.8,3.8,3.8,0,0,0,1.3-.6,16.1,16.1,0,0,0,3.4-4.5c.3-.6.1-1,.6-1.8s1-.8,1.5-1.5l6.4-9.6Z"/><path class="cls-3" d="M29.6,46.4l.7.8A2.5,2.5,0,0,1,26.5,46h.9l-.3-.5c.8-.3,1.7-.5,2.5,1"/><path class="cls-4" d="M26.5,46a2,2,0,0,0,.4.8,2.5,2.5,0,0,0,1.2.2,3.3,3.3,0,0,0,1.7-.4l-.2-.2c-.8-1.5-1.7-1.3-2.5-1l.3.5Z"/><path class="cls-6" d="M27.8,34.5c.1.9-.4,1.5-.2,2.2s.6,1,.7,1.7a13.7,13.7,0,0,1,.4,5.6,3.9,3.9,0,0,1-.5,1.3,1.1,1.1,0,0,0-.1,1.1c.6.9,2.2.8,2.2.8s.1-.8.2-1.5.5-.4.7-1-.2-1.2-.2-3.9.5-1.3.6-2.6-.3-2-.3-4.4h0a30.3,30.3,0,0,1,.2-3.1,23.3,23.3,0,0,1,.2-2.9,21.5,21.5,0,0,1,.3-2.6l-1.1-.4-1.7-.6-2.7-2.4a.8.8,0,0,0,.1.3l1.2,12.5"/><path class="cls-6" d="M17.3,10.3c-.1,1.3,1.6,2.3,2.6,2.5a12,12,0,0,0,3.5-.5c.6.6,1.1,2.5,1.7,4.7s.9,3.3,1.5,5,1.9,5.5,3.4,7.1.9,1,1.5,1.5C37.8,36.7,48,41,55.3,41.5A55.4,55.4,0,0,0,58,53.2c.9,2.6-1.7,5.5-2.3,7.7-.1.4-.1.7.1.9a1.2,1.2,0,0,0,.7.7l1.1.2c.3-1.4,1.1-.8,1.4-1.6a14,14,0,0,0,.6-2.8,7.8,7.8,0,0,1,1.3-3c2.1-2.6-1.7-3.6,1.6-9.6,4.4-8.2,7.1-16.4,4.7-19.9S57,21.3,50.5,20.1c-8.6-1.6-17-7.7-18.8-10.2a27.5,27.5,0,0,1-1.5-2.5c-1.2-2-2.4-3.9-4.3-3.7s-7.8,3.8-8.5,6.1a.4.4,0,0,0-.1.3c0,.1-.1.1,0,.2"/><path class="cls-7" d="M65.2,26.5A21.3,21.3,0,0,0,66.5,31c.2.5.2.6.8.7s1.5-.2,2.4.3a13.8,13.8,0,0,0-2.5-6.2c-.6-.7-1.3-.4-2,.7"/><path class="cls-8" d="M66.7,33.5a14,14,0,0,1-.8,4.9,7,7,0,0,0,2.5-5,5.1,5.1,0,0,0-.7-2.5s-1,.6-1,2.6"/><path class="cls-8" d="M31.4,30.1a.7.7,0,0,0,.1.5C37.8,36.7,48,41,55.3,41.5c-.6-4.6,1.6-5.6.7-7.2S51.5,38.5,44.3,36s-10.8-8.9-11.8-9.7-1.1,3.8-1.1,3.8"/><path class="cls-6" d="M73.4,33H74c-.9.4-2.5.9-3.8-1.4a1.2,1.2,0,0,0-.5-.5,7,7,0,0,0-3-.6c-1,.1,0-1.4.6-1.5a5.3,5.3,0,0,0,2.9-1.6v.6a1.9,1.9,0,0,1,1.8-.4c-.2,0-.3.2-.4.4a1.7,1.7,0,0,1,1.6,1.3h-.7c.1.6.2,2.1.9,2.3s-.7,0-.7,0a1.5,1.5,0,0,0,2,.8,2.8,2.8,0,0,1-1.3.6"/><path class="cls-4" d="M28.4,5.1l-.7-.4c-1-.5-.3-1.2.7-1.8s.8.1.8.6-.3,1.9-.8,1.6"/><path class="cls-4" d="M26.7,6.7,26,6.4c-.9-.6-.3-1.3.7-1.8s.9.1.8.5-.2,1.9-.8,1.6"/><path class="cls-2" d="M22.6,15.2c5.4-2.1,1.1-4.4,2.6-6.8s-.7-1.4-1.7-.7c-3.1,1.9-.9,4.8-1.7,7.1-.3.7.2.6.8.4"/><path class="cls-9" d="M17.3,10.3l.5.6a.2.2,0,0,0,.2-.2l-.6-.9a.4.4,0,0,0-.1.3v.2"/><path class="cls-9" d="M22.4,7.5c.1.2-.2.5-.6.6s-.8,0-.8-.2.2-.4.6-.5.8-.1.8.1"/><g class="cls-10"><g class="cls-11"><path class="cls-12" d="M21.1,7.7a.3.3,0,0,0,.3.3.3.3,0,0,0,.3-.3c0-.1-.1-.2-.3-.2s-.3.1-.3.2"/></g></g></g></g></svg>