<svg xmlns="http://www.w3.org/2000/svg" viewBox="0 0 161 140"><defs><style>.cls-1{fill:#724e47;}.cls-2,.cls-5{fill:#5b352c;}.cls-10,.cls-13,.cls-14,.cls-2,.cls-3,.cls-4{stroke:#422825;}.cls-10,.cls-13,.cls-14,.cls-16,.cls-2,.cls-3,.cls-4,.cls-6,.cls-9{stroke-miterlimit:10;stroke-width:0.07px;}.cls-3{fill:#774d43;}.cls-4{fill:#4c2822;}.cls-10,.cls-6{fill:#4e342e;}.cls-16,.cls-6,.cls-9{stroke:#000;}.cls-13,.cls-7{fill:#fff;}.cls-8{fill:#855d52;}.cls-9{fill:#e7792a;}.cls-11,.cls-14{fill:#3e2723;}.cls-12{fill:#422825;}.cls-15{fill:#472922;}.cls-16{fill:#6f4d42;}.cls-17{fill:#f6f5f5;}</style></defs><g id="Layer_89" data-name="Layer 89"><path class="cls-1" d="M54.8,87.1a2.1,2.1,0,0,0,1.2.7h.4a2.4,2.4,0,0,0,2.7-1c0-.1.1-.2.1-.4h0l-.8-1S58.1,87.8,54.8,87.1Z"/><path class="cls-1" d="M50.2,64c.4,2,1.6,5.1,2.8,10.7l4.2,1c-.3-2.4-.6-4.3-.9-6.8s0-3.1.7-3.6c9.7-7.1,9.9-27.4,9.9-27.4s-6.8-16.1-12.4-13c-1.7,5.9-1.7,12.3-1.3,18.9.1,1.9.3,3.9.4,5.9s.1,1.5.2,2.3c.5,6.9-1,7.4-2.2,8.3a3.6,3.6,0,0,0-1.2,1.5A3.9,3.9,0,0,0,50.2,64Z"/><path class="cls-2" d="M37.4,69.1v3.1h0c0,2.2.1,4.3.1,5.9s.3.2.4,0,.1-2.3.2-3.4h0c.1-1.5.1-2.9.2-4.4.2,1.9.4,3.5.6,5s.1,1.7.1,2.5h0v4.6h.2c.1-1,.1-2.1.2-3.1h0V78.1a37.9,37.9,0,0,0,1.2,4.7,7,7,0,0,0,.6,1.6V83c0-.6.1-1.2.1-1.9V79.7l.3,3.3c0,.5.1.9.1,1.3s.2.2.2,0V83.1c-.1-2.5-.1-5.1-.3-7.6a20.8,20.8,0,0,0,1.3,6,80.4,80.4,0,0,0-.1-8.5c.1.1.1.5.2.4a37,37,0,0,0,.2,4.8c0,.1.2.2.2.1s.1-.5.1-.7h0a27.4,27.4,0,0,0,.7-5c.1-1,.1-1.9.2-2.8s.4-1.3.5-2a32.5,32.5,0,0,1-.3,4.4l-.3,2.5c0,.2.2.2.2.1s.3-1.2.6-1.9.3-1,.4-1.4h0c.3-1.3.5-2.7.7-4.2s.4-3.2.5-4.9c.1,1.6.2,3.2.2,4.9s.2.2.2,0a36,36,0,0,0-.9-13.1l-.3-1.3v-.4a9,9,0,0,0,.8,2.3c-.2-2.2-.5-4.3-.9-6.4s-.6-4.4-.8-6.6a50.9,50.9,0,0,1-.3-7.8,26.9,26.9,0,0,1,.3-4c.2-2.1,7.3-3.7,5.7-5.6l-2.6-2.2h0c-1.4-1.3-7,1.1-8.6,6.2a47.5,47.5,0,0,0-2,12.9c-.1,5.2.7,10.5.2,15.5s-1,10.3-1.1,15.5a88.5,88.5,0,0,1,.9-9C37.5,63.6,37.4,66.1,37.4,69.1Z"/><path class="cls-3" d="M131.7,33.4h.3c2.4-.3,2.8-3.7,1.2-6.6a9.4,9.4,0,0,0-.9-1.2c-.1-.3-.5-.2-.5.2C131.7,30.1,128,33.4,131.7,33.4Z"/><path class="cls-4" d="M132,33.4c2.4-.3,2.8-3.7,1.2-6.6a11.8,11.8,0,0,1-.9,5.8A4.1,4.1,0,0,0,132,33.4Z"/><path class="cls-5" d="M54.8,87.1v.4c.3,4.7,5.2,3.6,5.2,1.7a4.5,4.5,0,0,0-.3-1.6l-.5-1.1h0l-.8-1S58.1,87.8,54.8,87.1Z"/><path class="cls-5" d="M102.6,113v.9c.6,4,5,3,5.1,1.3a6.9,6.9,0,0,0-1.5-3.9A4.7,4.7,0,0,1,102.6,113Z"/><path class="cls-6" d="M100.9,89.7c.1,1.9.9,2.2,1.1,4.2s.4,5.1.5,10.6v1.6c0,.7-1,1.4-1,2.9s1.4.9,1.1,4c0,0,2.4,2.2,4.1,0s-1.2-2.2-1.2-4.7c0-.8-.1-1.5-.1-2.3v-1.7a46,46,0,0,1,.7-9c.2-1.4.8-1.8.9-3.3s-.7-2.3-.6-4.9c.1-7.1,4-15.1,1.3-21.6l-7.8-1.9s.6,11.7,1.3,22.8C101.3,87.6,100.7,87.8,100.9,89.7Z"/><path class="cls-1" d="M100.9,89.7c.1,1.9.9,2.2,1.1,4.2s.3,3.7.4,6.8c0,1.1.1,2.3.1,3.8v1.6c0,.7-1,1.4-1,2.9s1.4.9,1.1,4c0,0,2.4,2.2,4.1,0s-1.2-2.2-1.2-4.7c0-.8-.1-1.5-.1-2.3v-4a49.2,49.2,0,0,1,.7-6.7c.2-1.4.8-1.8.9-3.3s-.7-2.3-.6-4.9c.1-7.1,4-15.1,1.3-21.6l-7.8-1.9s.6,11.7,1.3,22.8C101.3,87.6,100.7,87.8,100.9,89.7Z"/><path class="cls-7" d="M102.6,113s2.4,2.2,4.1,0-1.2-2.2-1.2-4.7c0-.8-.1-1.5-.1-2.3v-4l-3-1.3c0,1.1.1,2.3.1,3.8v1.6c0,.7-1,1.4-1,2.9S102.9,109.9,102.6,113Z"/><path class="cls-5" d="M41.8,94.5a.6.6,0,0,0,.1.4v.5h0c0,.3.1.5.1.7h.1v.2h.1a.1.1,0,0,1,.1.1h.4a.1.1,0,0,0,.1.1h0l.2.2h.4l.6.2h1l.9-.2h.4l.4-.3h.2c.1-.1.1-.2.1-.4v-.8a.4.4,0,0,0-.1-.3l-.2-.7-.3-.7v-.2h0a5.6,5.6,0,0,0-.8-1.1A2.9,2.9,0,0,1,41.8,94.5Z"/><path class="cls-8" d="M119.1,44.4c0,.1.1.3.1.4a57,57,0,0,0,1.7,5.6c1.9,5.1,7,5.3,9.6,7.9h.2a5.9,5.9,0,0,1,1,1.7c.5,1.1.4,2.4,1.7,3.1a6.2,6.2,0,0,0,3.3.7,4.9,4.9,0,0,0,4-2.4,5.5,5.5,0,0,0,.8-3.5,10.6,10.6,0,0,0-1.6-2.8.3.3,0,0,0-.1-.2l-.9-1.5a28.4,28.4,0,0,1-2.6-12c0-3.4-.8-4.6-2.6-6.7s-2.6-5.4-7.8-5.2a8.2,8.2,0,0,0-2.6.4C118.6,31.1,117.4,36.8,119.1,44.4Z"/><path class="cls-9" d="M127.6,45.8l.3-.3a13,13,0,0,0,1-1.5"/><path class="cls-8" d="M129.8,38.4a7.1,7.1,0,0,0-.4-2,.1.1,0,0,0-.1-.1h0a21.7,21.7,0,0,0-2.7-5.1h0l-.6-.8-.3-.3h0l-.3-.2h-.5c-1.8-.5-7.1-.7-18.2,6.6-4.8,3.1-8.8,4.3-12.6,4.2a22.8,22.8,0,0,1-9.7-2.7c-11-5.3-12-13.2-20.8-17-5.4-2.4-11-2.2-15.5,1.4a21.6,21.6,0,0,0-2.9,3.1l-.7,1a6.1,6.1,0,0,1-.7,1,2.5,2.5,0,0,1-.4.7,23.1,23.1,0,0,0-1.7,3.6c-.1.2-.1.4-.2.6h0v.2h0a15.7,15.7,0,0,0,.8,9.3h0a23.2,23.2,0,0,0,1.8,3.9l1.7,2.8c.9,1.1,1.7,2.2,2.6,3.1l.2.2.3.3,1.4,1.3c1.4,1,2.4,1.3,2.7.6h.1l.2-.6c.1-.1.1-.2.2-.2s0-.1.1-.1H54a.1.1,0,0,1,.1-.1h.2a1.3,1.3,0,0,1,1.1.3h.3a.1.1,0,0,1,.1.1h.1c.2.1.3.3.5.5l.5.7.5.6.2.3h.1l.2.3H58l.4.5h0c.1.1.1.1.1.2a.1.1,0,0,1,.1.1l.2.3c.1,0,.1.1.2.2h.1l.3.4.7.8.4.5h0l.8.9.3.3h0c0,.1.1.1.1.2s.3.3.5.5h0c.1.1.2.3.4.4l.4.5.9.9h0l.4.4h0l.4.5.5.4,1.3,1.3h0l1.3,1.2.6.5.3.2,1.1.9.3.3.5.4,1,.7a48.6,48.6,0,0,0,5.3,3.5h.2l.2.2h0l.5.2.3.2.6.3.5.2.5.3,1.1.5h0a49.9,49.9,0,0,0,6.4,2.5h0l1.5.5h0a23.7,23.7,0,0,0,5.1.6h1.9l1.6-.2,1.8-.3h.2l.7-.2h1.6l.3-.2h.7l1-.5.3-.2h.1l.5-.3.4-.3h1.5l.3-.2.2-.2h.1v-.2l1-.8h0l.3-.3c.1,0,.1-.1.2-.2l.6-.6.3-.4h.1c0-.1.1-.1.1-.2l.2-.2h.1c0-.1.1-.1.1-.2s.1-.1.2-.2l.2-.3.6-.7v-.2a.3.3,0,0,0,.1-.2l.5-.7h0c3.6-5.3,3.9-8,4.2-10.3s.8-4.1,4.9-7.7a4.1,4.1,0,0,1,1.5-.7Z"/><path class="cls-8" d="M41.8,94.5a2.1,2.1,0,0,0,1,.6,1.8,1.8,0,0,0,1,.2H44a2.4,2.4,0,0,0,2.1-1.1h0v-.2h0a5.6,5.6,0,0,0-.8-1.1A2.9,2.9,0,0,1,41.8,94.5Z"/><path class="cls-8" d="M37.2,70.4V71h0a6.4,6.4,0,0,1,.2.9v.2h0v.2a.4.4,0,0,0,.1.3V73l.3,1v.3a.8.8,0,0,0,.1.4h0c0,.1.1.2.1.4s.1.2.1.3.1.5.2.7a2.9,2.9,0,0,1,.2.9c.1,0,.1.1.1.2v.4c0,.1.1.1.1.2h0a8.3,8.3,0,0,0,.4,1.5h0v.3c.1.1.1.3.2.5v.3a.4.4,0,0,1,.1.3,4.4,4.4,0,0,1,.2,1,.4.4,0,0,1,.1.3.9.9,0,0,1,.1.5.4.4,0,0,1,.1.3h.4a7,7,0,0,0,.6,1.6V83h.4c0,.5.1.9.1,1.3s.2.2.2,0V83.1l2.3.4a2.2,2.2,0,0,0-.1-.8v-.2l-.3-2.2v-.5c0-.2-.1-.3-.1-.5a2.2,2.2,0,0,0-.1-.8v-.4c0-.1,0-.2-.1-.2v-.3h0a1.3,1.3,0,0,0-.1-.6v-.7c-.3-2.2-.1-3.1.6-3.6h.2a.2.2,0,0,0,.2-.2h.2l.9-.7h0l.9-1,.3-.3h0l.3-.4.2-.3c.1-.1.2-.2.2-.3l.2-.2.3-.3.3-.6.5-.8A18.7,18.7,0,0,0,50.2,64a23.5,23.5,0,0,0,1.4-3.7v-.2a1.4,1.4,0,0,0,.2-.6.9.9,0,0,0,.1-.5,1.9,1.9,0,0,0,.2-.8,8.5,8.5,0,0,0,.4-1.7c.1-.1.1-.2.1-.4a2.9,2.9,0,0,0,.2-.9c.1-.4.1-.7.2-1h0a.9.9,0,0,1,.1-.5h0c.2-1.5.4-2.8.5-4s.3-3.3.3-4v-.4h0l-.7-1.5h0l-.2-.5h-.1l-8.2-9.3-1.9-2a2.2,2.2,0,0,0-1.3.4h0a2.5,2.5,0,0,0-.2.7,2.4,2.4,0,0,0-.2.8c-.1.2-.1.5-.2.8s-.1.5-.1.7a28.7,28.7,0,0,0-.5,3.1c0,.3-.1.7-.1,1.1a12.7,12.7,0,0,0-.1,2v.2A6.2,6.2,0,0,0,40,43v1.7c0,4.8.4,9.7.8,14.6.1,1.4.1,2.5.1,3.4a4.3,4.3,0,0,0-.1.5v.9a.4.4,0,0,0-.1.3h0v.3c0,.2,0,.3-.1.4v.2c-.1.2-.2.3-.2.5v.2l-.3.5h0a8.7,8.7,0,0,1-1.5,1.3h-.1l-.3.4a.1.1,0,0,0-.1.1h-.1c0,.1-.1.1-.1.2h-.1c0,.1,0,.1-.1.1v.2h-.2v.2h0c-.1.1-.1.1-.1.2Z"/><path class="cls-10" d="M126.5,43.7s.2,1.9,1.1,2.1,1.2-.3,1.8.2a2,2,0,0,1-.2-.9,2.6,2.6,0,0,0-.9-1.8,1.3,1.3,0,0,0-1.7.3Z"/><path class="cls-11" d="M126.6,43.6a2,2,0,0,0,1.3,1.9,1.7,1.7,0,0,0,1.3-.4,2.6,2.6,0,0,0-.9-1.8A1.3,1.3,0,0,0,126.6,43.6Z"/><path class="cls-12" d="M126.6,43.6a2.7,2.7,0,0,0,.5,1.5,1.5,1.5,0,0,0,1.4.4h.4l.2-.2a.1.1,0,0,0,.1-.1h0c0-.1,0-.2-.1-.2s0-.3-.1-.4a1.7,1.7,0,0,0-1-1.3,1.3,1.3,0,0,0-1.4.4c0,.1,0,.1.1.1a1.2,1.2,0,0,1,1-.5,1.7,1.7,0,0,1,1.2,1.1,6.4,6.4,0,0,1,.2.7h0c0,.1,0,.1-.1.2a.5.5,0,0,1-.4.2,1.2,1.2,0,0,1-1.4-.3,2.1,2.1,0,0,1-.5-1.5C126.7,43.5,126.6,43.5,126.6,43.6Z"/><path class="cls-13" d="M127.2,43.8c0,.2.1.4.3.4a.3.3,0,0,0,.4-.2.5.5,0,0,0-.3-.5C127.4,43.5,127.2,43.6,127.2,43.8Z"/><path class="cls-1" d="M131.8,60.2c.3,1,.3,2.3,1.6,3a5.5,5.5,0,0,0,7.3-1.7C135.6,65.4,132.4,60.7,131.8,60.2Z"/><path class="cls-14" d="M136.8,57.3a.3.3,0,0,0-.3-.3c-.1-.1-.2,0-.3.1s-1.3,2.9.1,3.2,1.9-.7,1.2-1.5A1.9,1.9,0,0,1,136.8,57.3Z"/><path class="cls-14" d="M139.8,55.4a2,2,0,0,1,.3,1.6c-.1.9.6,1.3,1.4.9a17,17,0,0,0-1.7-3A.5.5,0,0,0,139.8,55.4Z"/><path class="cls-5" d="M122,39.7a8.7,8.7,0,0,0,1.1-.9,3.2,3.2,0,0,0-.7,2,6.1,6.1,0,0,1,.7-1.4,4.8,4.8,0,0,0,0,3.1c-.1-1.8,1.1-2.6,2.5-3.2a4.3,4.3,0,0,0-1.9,2.3,3.9,3.9,0,0,1,2.2-2l.5-.2a4.1,4.1,0,0,0-1,.9c1.8-1.2,4.1-1.1,5.6-2.9a5.9,5.9,0,0,0,1-4.3,5,5,0,0,0-.2-1.2,5,5,0,0,1,.5,1.3,5.9,5.9,0,0,1-1.2,4.6,5.5,5.5,0,0,0,1.5-5.3,4.6,4.6,0,0,1,.5,2,5.1,5.1,0,0,0-1.3-4.4,3.5,3.5,0,0,0-2.4-1.4,5,5,0,0,1,3.2.6,4.1,4.1,0,0,0-4.7-.6h-.4a4.1,4.1,0,0,1,2.6-.9,2.6,2.6,0,0,0-2.8.5,2.9,2.9,0,0,0-.7.8,1.8,1.8,0,0,0-.5.7,2.2,2.2,0,0,0-.1,1.4c.8,2.9,2.4,4.9.5,5.5l-1.8.4h-.3A4.9,4.9,0,0,0,122,39.7Z"/><path class="cls-5" d="M90.8,42.9a6.7,6.7,0,0,1,2-1.7H91.5a4.6,4.6,0,0,1,2.3-.5l.2-.2a.1.1,0,0,0,.1-.1l.3-.2a.2.2,0,0,1,.2-.2l.7-.5h.3l.6-.2a.1.1,0,0,1,.1-.1l.9-.2a5.8,5.8,0,0,1,4.5-1.5l1.3-.7a17.7,17.7,0,0,0-2.3.1h-.1c.7-.7,1.9-.3,2.7-.5a4.1,4.1,0,0,0,1.5-.7l1.2-1.1a7.5,7.5,0,0,1,2-1,4.7,4.7,0,0,0-3.5,1.4c-.1.1-.2,0-.1-.1s3.2-1.8,5.1-1.7l2.6-1.3c-1.3.3-2.6,1-3.9.6s-.1-.1,0-.1,3.7-1.1,5.4-1l1.6-.6a8.5,8.5,0,0,0-4.8,1.1c-.1.1-.2-.1-.1-.1,1.7-1,4.1-1.8,6-1.3h.3l1.2-.9a3.7,3.7,0,0,0-1.8.1c0,.1-.1-.1,0-.1a3.9,3.9,0,0,1,2.1-.3h.3c1.8-1,3.4-.3,5.2.3h2.5l-.2.2c.1,0,.1,0,.1.1h0l-.3.4h0v.2l-.9,1.2h0a.1.1,0,0,0-.1.1l-.7,1.1h-.1a18.4,18.4,0,0,0-.9,2.5h-.1a5.9,5.9,0,0,1,.5-1.9c0,.1-.1.2-.2.3a14.5,14.5,0,0,0-1.1,2.5.1.1,0,0,1-.1-.1,2.7,2.7,0,0,1,.3-1.2l-.8.9a3.9,3.9,0,0,1,0-1.2,1.7,1.7,0,0,1,.1-.7,3.5,3.5,0,0,0-.5.8,12.4,12.4,0,0,0-.3,3.9s-.1.1-.1,0a16.1,16.1,0,0,1-.1-3.1h0a11.1,11.1,0,0,0-.2,1.9h-.1l.6,2.5c0,.1-.1.1-.2,0a10.7,10.7,0,0,1-1-4,3.6,3.6,0,0,1-.2-1,.9.9,0,0,0-.1.5,10.8,10.8,0,0,0,.6,4c0,.1-.2.1-.2,0a13.4,13.4,0,0,1-.9-4.6h0l-.8,1a1.4,1.4,0,0,0-.2.6,40.3,40.3,0,0,0-1.4,4.6c0,.1-.1,0-.1,0a13.5,13.5,0,0,1,.6-3.4,10.9,10.9,0,0,0-1.5,5.8h-.2c-.5-1.4,0-3.1.6-4.6a.5.5,0,0,1-.2.4c-.4,1-.8,2-1.3,3s-.1.1-.1,0a11.7,11.7,0,0,1,1.3-4c-.6,1-1.1,2.1-1.6,3.1s-.1.1-.1,0l1-2.5a3.5,3.5,0,0,1-.6.9,10,10,0,0,1-1.1,1.4l.3-1.7a11.4,11.4,0,0,0-.9,2.6,13.4,13.4,0,0,1,.1,2h0c0,.2.1.3.1.5s-.1.2-.2.1a5.8,5.8,0,0,1-.5-1.4,14.6,14.6,0,0,0,1,3.4h-.1a11.9,11.9,0,0,1-1.1-2.6,21.3,21.3,0,0,1-.8-2.7,6.9,6.9,0,0,0,.3,2,.1.1,0,0,1-.1.1c.2.7.4,1.4.7,2.2h-.2a43.4,43.4,0,0,1-1.4-4.3c0,.3-.1.7-.1,1s-.1.1-.1,0a14.1,14.1,0,0,1-.1-2.1,22.4,22.4,0,0,0-2.2,5c0,.1-.1.1-.1,0a20.6,20.6,0,0,1,1.5-4.8,19.3,19.3,0,0,0-2.3,6.2h-.1l.3-1.9a9.4,9.4,0,0,0-.6,3.6c.1.2-.2.2-.2.1a10.9,10.9,0,0,1,.4-4,5.4,5.4,0,0,0-.5,1.1c0,.1-.2.1-.1,0l.6-1.8c-.2.6-.5,1-.7,1.5a14.4,14.4,0,0,0-.7,1.8,4.6,4.6,0,0,1-.1-1.7,6.9,6.9,0,0,0-.4,1c0,1.2,0,2.4.1,3.5s-.1.1-.1,0l-.3-2.1a8.6,8.6,0,0,0-.1,1.6l-.2-.2.5,2.7s-.1.1-.1,0a19,19,0,0,1-1.1-3.9,11.2,11.2,0,0,0-.5-1.3,13.8,13.8,0,0,0,.3,2h-.2a26.6,26.6,0,0,1-.8-3.3v.3l-.3,1a.1.1,0,0,1-.1-.1,9.6,9.6,0,0,0,.9,3.7c0,.1-.1.2-.1.1a10.2,10.2,0,0,1-1.5-4.1c0-.5-.1-1-.1-1.5a9.2,9.2,0,0,0,.1,1.6c0,.1-.1.1-.1,0a5.4,5.4,0,0,1-.5-2.2,18.4,18.4,0,0,0-2.3,2.5h0l1-1.5-1.5,1.3a8.3,8.3,0,0,1,.4-1.4,3.6,3.6,0,0,1,.4-.9,4.6,4.6,0,0,0-.7.7,18,18,0,0,0-.9,4.5c0,.1-.2.1-.2,0a8.8,8.8,0,0,1,0-2.3s-.1,0,0-.1a.4.4,0,0,1,.1-.3,1.1,1.1,0,0,1,.1-.5,3.4,3.4,0,0,0-.6,1.2,12.8,12.8,0,0,0,.1,3.4.1.1,0,0,1-.1.1,18.3,18.3,0,0,1-.3-4.7v-.7c-.3,1.2-.4,2.3-.7,3.5s-.1,0-.1,0a11.6,11.6,0,0,1,.1-3.2,9.8,9.8,0,0,1,.8-2.8l.3-.9-.8.4a8.5,8.5,0,0,0-3.5,4.4c-.1.1-.3,0-.2-.1a7.5,7.5,0,0,1,3-4.6,4.4,4.4,0,0,0-2.4,2.1,4.8,4.8,0,0,1,.3-1.7A7,7,0,0,0,91,45.3h-.1c0-1.2,1.5-2.6,2.2-3.5a.2.2,0,0,0,.2-.2A7.5,7.5,0,0,0,90.9,43,.1.1,0,0,1,90.8,42.9Zm7.4-4,2.7-1.1A5.4,5.4,0,0,0,98.2,38.9Zm8.4-4.6-1.1.9h.2l1-.7,1.5-.9Zm11.7-4.9-.8.6,1.7-.4Zm3.1-.6a3.8,3.8,0,0,0-2.6.4l1.2.3a13.3,13.3,0,0,1,2.8-.3Z"/><path class="cls-15" d="M102.6,113.9c.5,3.5,3.9,3.2,4.8,1.9A4.3,4.3,0,0,1,102.6,113.9Z"/><path class="cls-15" d="M54.9,88c.5,3.5,3.8,3.2,4.8,2A4.4,4.4,0,0,1,54.9,88Z"/><path class="cls-15" d="M41.9,95.4c.5,3.5,3.9,3.2,4.8,1.9A4.2,4.2,0,0,1,41.9,95.4Z"/><path class="cls-1" d="M53.1,54.2c.6-1.9,2.2-1.7,3.4-.1,8.9,11.5,18.3,19.5,31.7,23.7a26.1,26.1,0,0,1-1-6c0-2.9-10.8,7.3-26.5-15.1C57.4,52,58.1,45.8,56,45.1,51.5,43.6,52.8,55.7,53.1,54.2Z"/><path class="cls-16" d="M93.8,78.4a19,19,0,0,0,15.9-7.2,25.5,25.5,0,0,0,2.1-2.8s-9.4,8.5-16.3,7.2C92.8,75.1,92.6,76.7,93.8,78.4Z"/><path class="cls-1" d="M95.1,74c.6,2.3-.1,2.1.3,4.4h.3l1.6-.2a14.7,14.7,0,0,0,3.5-.8l1.8-.6a20.5,20.5,0,0,0,5.5-3.7l1.4-1.6.2-.3a25.5,25.5,0,0,0,2.1-2.8c3.6-5.3,3.9-8,4.2-10.3s.8-4.1,4.9-7.7c1.9,5.1,7,5.3,9.6,7.9h.2c-.3-1.9-1.7-2.5-3.2-3.1a9.8,9.8,0,0,1-5.1-5.5c-.4-1.6-.1-4.8-1.8-5.2a2.4,2.4,0,0,0-1.4.2,12.5,12.5,0,0,0-2.4,1.5,25.9,25.9,0,0,0-3.2,4.2c-1.5,2.3-2,4.5-3,7a17.4,17.4,0,0,1-4.1,6,7.7,7.7,0,0,1-5.4,2.4c-1.9-.2-4.1-.4-5.5,1.2S94.6,72.1,95.1,74Z"/><path class="cls-5" d="M93.2,118.7a6.5,6.5,0,0,1,1.5,3.8c0,1.9-5.1,3-5.1-2.1A4.3,4.3,0,0,0,93.2,118.7Z"/><path class="cls-8" d="M88.2,93.8c.1,1.2-.5,1.4-.3,3.3s.9,2.2,1.1,4.2.3,3.6.4,6.5c0,.9.1,1.9.1,3.1v2.6c0,.7-1,1.4-1,2.9s1.4.9,1.1,4a4,4,0,0,0,2.3,1,3,3,0,0,0,1.9-1c.6-.9-1.3-2.2-1.3-4.7s-.1-3.2-.1-4.8a23.5,23.5,0,0,1,.1-2.6,44.8,44.8,0,0,1,.6-5.6c.2-1.4.8-1.9.9-3.3s-.7-2.3-.6-4.9c.1-5.2,2.2-10.9,2.3-16.1a14.5,14.5,0,0,0-1-5.5l-5.3-1.3L86.9,71s.1,2.5.3,6.3S87.8,87.8,88.2,93.8Z"/><path class="cls-7" d="M89.6,120.4a4,4,0,0,0,2.3,1,3,3,0,0,0,1.9-1c.6-.9-1.3-2.2-1.3-4.7s-.1-3.2-.1-4.8a23.5,23.5,0,0,1,.1-2.6,18.1,18.1,0,0,1-3.1-.5c0,.9.1,1.9.1,3.1v2.6c0,.7-1,1.4-1,2.9S89.9,117.3,89.6,120.4Z"/><path class="cls-15" d="M89.6,121.3a2.9,2.9,0,0,0,4.9,1.9A4.4,4.4,0,0,1,89.6,121.3Z"/><path class="cls-3" d="M126.1,28.9a.3.3,0,0,0-.5-.2c-2.4,2.6-2.6,8.1.5,8.1,1.3,0,1.4-.9,1.4-1.7S126.3,31,126.1,28.9Z"/><path class="cls-4" d="M125.7,29.4c-.3,3.4,1.4,6.1,0,6.1S124.3,31.1,125.7,29.4Z"/><path class="cls-7" d="M53.8,84.2c.2,1.1,1,1.5,1,2.9h0c3.3.7,3.6-1.6,3.6-1.6l.8,1c0-.8-1-1.4-1.2-3.4s-.4-3.9-.6-5.4a13.6,13.6,0,0,1-.2-2l-4.2-1c.3,1.3.6,2.6.9,4.2s.3,1.5.4,2.3S53.6,83.2,53.8,84.2Z"/><path class="cls-7" d="M40.2,82.8c0,.2.1.4.1.6s.1.2.1.3v.7a.4.4,0,0,1,.1.3,4.3,4.3,0,0,1,.1.5c0,.2.1.4.1.6h0v.5a1.3,1.3,0,0,1,.1.6,1.3,1.3,0,0,1,.1.6,4.4,4.4,0,0,1,.2,1c.2,1-.6,2-.5,3.1a3.9,3.9,0,0,0,.6,1.3,3.4,3.4,0,0,1,.4,1.6,2.9,2.9,0,0,0,3.6-1.7,5.6,5.6,0,0,1,.8,1.1v-.2h-.1l-.5-1.1v-.3h0a.8.8,0,0,1-.2-.5h-.1v-.2c-.1-.3-.1-.6-.2-.9-.3-2.5-.5-4.5-.7-6.1v-.3a.9.9,0,0,0-.1-.5h0l-2.3-.4v1.2c0,.2-.2.2-.2,0s-.1-.8-.1-1.3h-.4v1.4a7,7,0,0,1-.6-1.6Z"/><path class="cls-7" d="M41.9,83.1h-.3c0,.5.1.9.1,1.3s.2.2.2,0Z"/><path class="cls-7" d="M40.6,82.8a7,7,0,0,0,.6,1.6V83Z"/><path class="cls-5" d="M51.7,60.4a8.6,8.6,0,0,0,1.4-1.3,4.4,4.4,0,0,0,.7-1.9A29.5,29.5,0,0,0,54,53h-.2l-.5.5-.2.4c-.1.1-.1.3-.2.4h.2c-.1-.1-.2-.1-.2,0s-.4,2.1-.7,3.2a9.4,9.4,0,0,1-.4,1.6c-.1.3-.1.5-.2.8l-.2.5a.2.2,0,0,0,.2.2h.1a.1.1,0,1,0-.1-.2h.1a1.9,1.9,0,0,1,.2-.7,6.4,6.4,0,0,0,.2-.7c.1-.5.3-1,.4-1.6l.6-3h-.2a.1.1,0,0,0,.1.1h.2c.1-.1.1-.4.2-.6a1.2,1.2,0,0,1,.5-.5l-.2-.2a17.7,17.7,0,0,1-.1,4,6.4,6.4,0,0,1-.6,1.8,4.7,4.7,0,0,1-1.4,1.4C51.5,60.3,51.6,60.5,51.7,60.4Z"/><path class="cls-5" d="M131.1,28.6a4.9,4.9,0,0,0-1.7,0c-.2,0-.2.2,0,.2l.8.2.8.4c0,.1.1,0,.1-.1l.2-.3v-.2c0-.1,0-.1-.1-.2h-.1c-.1,0-.2.2,0,.3H131c0,.1-.1.2-.1.3h.2a4.9,4.9,0,0,0-1.7-.6v.2a3.3,3.3,0,0,1,1.7.1C131.2,28.9,131.3,28.6,131.1,28.6Z"/><path class="cls-5" d="M121.4,28.7a3.7,3.7,0,0,0-2.7.4c-.1,0-.1.2,0,.2l1.1.2h.9l2.1-.2c.1,0,.2-.2,0-.2l-1.4-.4c-.2-.1-.2.2-.1.2l1.5.4v-.2h-3l-1-.3v.3a3.7,3.7,0,0,1,2.5-.4C121.5,28.9,121.6,28.7,121.4,28.7Z"/><path class="cls-5" d="M118.3,29.3l-.9.6c-.1.1.1.2.2.2l1.6-.4c.1,0,.1-.2,0-.2l-.8-.2c-.2-.1-.2.2-.1.2l.8.2v-.2l-1.6.4v.2l.8-.6C118.5,29.4,118.4,29.2,118.3,29.3Z"/><path class="cls-5" d="M106.6,34.2a2.7,2.7,0,0,0-1.2.9c-.1.1,0,.3.1.2h.3l.4-.2.6-.4,1.5-.9c.1,0,0-.2-.1-.2l-1.6.7a.1.1,0,1,0,.1.2,4.4,4.4,0,0,1,1.6-.6v-.3l-1.5.9-.6.4-.4.2h-.3l.2.2a3.1,3.1,0,0,1,1.1-.9C106.8,34.3,106.7,34.1,106.6,34.2Z"/><path class="cls-5" d="M98.3,39l2.7-1.1a.1.1,0,1,0-.1-.2,5.4,5.4,0,0,0-2.7,1.1.1.1,0,1,0,.1.2,5.4,5.4,0,0,1,2.7-1.1v-.2l-2.7,1.1C98,38.8,98.1,39,98.3,39Z"/><path class="cls-5" d="M132.6,33.2h0c.1,0,.1,0,.1.1v-.2c0,.1.1.1.1.2h0l.2.2h.1c.1,0,.1-.1.1-.2a4.3,4.3,0,0,1-.1-.5c-.1,0-.1-.1-.2,0h-.1l.2.5h.2a.3.3,0,0,1-.1-.2h-.1c0-.1-.1-.1-.2-.1A.1.1,0,0,0,132.6,33.2Z"/><path class="cls-5" d="M37.4,69.7a1.4,1.4,0,0,1,.2-.6V63.2c0-.2-.2-.2-.3,0-.4,3-.6,5.9-.8,9h.2c.1-3.8.4-7.6.7-11.4.2-1.8.4-3.7.5-5.6a50.4,50.4,0,0,0,0-5.5c-.1-3.6-.4-7.2-.2-10.9a44.7,44.7,0,0,1,2-10.8,9.6,9.6,0,0,1,3.7-4.7l2-1.1a3,3,0,0,1,2.6,0c.1.1.1.1.2,0s1.5-1.1,2.3-1.5a12.8,12.8,0,0,1,3.1-1.1,6.3,6.3,0,0,1,1.9-.3c.1,0,.4,0,.4-.1l1-.2a12.8,12.8,0,0,1,3.3.6,20.5,20.5,0,0,1,8.6,4.6c3.4,3,5.9,6.9,9.5,9.7a26.9,26.9,0,0,0,2.7,2,19.2,19.2,0,0,0,3.1,1.8,27.8,27.8,0,0,0,6.8,2.5l1.8.3c.4,0,1.1.2,1.5,0a.2.2,0,0,0,.2-.2l.7-.5a4.2,4.2,0,0,1,1.4-.6l.8-.2.8-.6,1.6-.7a5.5,5.5,0,0,1,1.8-.2,3.7,3.7,0,0,0,1.6-.7c.1,0,0-.2-.1-.2h-1.5c-.2,0-.4.1-.6,0h.3c.7-.3,1.5,0,2.2-.2l1-.4,1-.9a7.4,7.4,0,0,1,2.6-1.5c.1,0,.1-.2,0-.2a4.8,4.8,0,0,0-2.6.6l-.5.3-.3.3c0,.1-.2.2,0,.1l.6-.5.7-.4a6.2,6.2,0,0,1,3-.6h.6l.8-.4,1.9-.8c.1-.1.1-.3-.1-.3a9.8,9.8,0,0,1-3.3.7c-.1,0-.7,0-.4.1h.5l1.1-.2,2.5-.8h1.2l1.6-.6c.1,0,.1-.2-.1-.2a6.7,6.7,0,0,0-3.1.4l-.8.3c-.1,0-.7.2-.7.3s.1,0,.1,0l.3-.2.9-.4a9.8,9.8,0,0,1,3.3-.7,3,3,0,0,0,1.3.2l.5-.3a2.7,2.7,0,0,1,.8-.7c.1-.1.1-.2,0-.2h-1.4c-.2,0-.3,0-.2.2l.3-.2h.9c.4,0,.7.1,1-.1a4.8,4.8,0,0,1,1.7-.5,8.8,8.8,0,0,1,2.8.6l1,.2h1.3c.1,0,.1,0,.1-.1s.1,0,.1-.1.2-.3.5-.1a.8.8,0,0,1,.2.6h.3a3.1,3.1,0,0,1,3.7-1.7v-.3a4.6,4.6,0,0,0-2.7,1.1c-.1,0,0,.2.1.2l1.5-.5a6,6,0,0,1,2.3.2h.1a18.9,18.9,0,0,0,.5-2.3s-.1-.2,0-.2,0-.3.2-.3.2-.2.3,0l.4.7a8,8,0,0,1,.8,1.6,5.1,5.1,0,0,1,.3,3.2,2.6,2.6,0,0,1-.6,1.3c0,.1-.1.1-.1.2h-.1c-.2.1.1-.1,0-.1s-.1.1-.1.2.1.3.1.4-.1.4,0,.6.3.5.5.7l1.2,1.7a6.3,6.3,0,0,1,1.3,3.5,22.6,22.6,0,0,1,.1,2.6c.1.9.1,1.9.2,2.8a41.5,41.5,0,0,0,1.1,4.8,18,18,0,0,0,2.2,4.9c0,.1.1.1.2,0h-.2a16.3,16.3,0,0,0,1.1,1.7l.4.7.2.4h-.1a5.1,5.1,0,0,1-1.1,4.1.8.8,0,0,1-.4.4l-.2.3h0c.1-.1-.1,0-.1,0l-1.4.8a6.2,6.2,0,0,1-3.8,0,3.2,3.2,0,0,1-1.9-1.5c-.2-.6-.3-1.2-.5-1.9l-.2.2h0c.1.1.2,0,.2-.2-.8-2.3-3.3-3.3-5.3-4.3a19.8,19.8,0,0,1-3.1-1.9,9,9,0,0,1-2.5-3.6h-.2a29,29,0,0,0-3.4,3.6,11.8,11.8,0,0,0-1.6,4.9,19.1,19.1,0,0,1-1.6,5.3,15.5,15.5,0,0,1-1.2,2.2,5.7,5.7,0,0,1-.8,1.3c-.1.2-.5.6-.5.8h.1a.1.1,0,0,0-.1.1c0-.1,0,0-.1.1l-.4.5-.4.6c-.1.2-.1.1-.2.2a3.3,3.3,0,0,1-.3.6h-.1l-.4.4-.2.3c-.1.2-.1,0,0,0h-.1c-.2.4-.8.7-1,1.2s-.1.1-.1.2-.1,1-.1,1.5-.7,3.6-1,5.4a45.1,45.1,0,0,0-.9,5.3,12.4,12.4,0,0,0,0,4.3,6.5,6.5,0,0,1,.3,3.9,15.9,15.9,0,0,0-.7,2,22.3,22.3,0,0,0-.4,2.3,67.4,67.4,0,0,0-.2,11,7.1,7.1,0,0,0,.4,2l1,2.1a6.1,6.1,0,0,1,.8,2.6c0,.3-.2.5-.3.8l-.3.2h-.1a2.7,2.7,0,0,1-3.2-.2,3.5,3.5,0,0,1-1-2.2c-.1-.7.1-1.5,0-2.2a3.6,3.6,0,0,0-.4-1.1,3.5,3.5,0,0,1-.5-.8,2,2,0,0,1,.1-1.7c.2-.6.5-1,.7-1.6a14.7,14.7,0,0,0,0-2.1v-1.8c-.1-1.5-.1-2.9-.2-4.4s-.2-3.1-.4-4.6a6,6,0,0,0-.6-1.9,6.5,6.5,0,0,1-.4-2.1,3.7,3.7,0,0,1,.2-1.8,9.2,9.2,0,0,0,.1-1.6c-.1-2-.3-4.1-.4-6.1s-.1-1.6-.1-2.4-.1-.2-.2-.1a26.5,26.5,0,0,1-4.9.9c-.1,0-.2,0-.2.1,0,4.2-1.3,8.2-1.9,12.3a16.3,16.3,0,0,0-.2,5.4c.1.5.3,1.1.4,1.6a8.8,8.8,0,0,1-.1,2.8c-.2.7-.6,1.4-.8,2.1l-.3,3a44.1,44.1,0,0,0-.3,5.2v3c.1,1,0,2,.2,3s1.3,2.7,1.8,4.1.5,1.6.1,2.2a1.8,1.8,0,0,1-.9.6,2.9,2.9,0,0,1-2.4-.1,2.8,2.8,0,0,1-1.2-1.6,8.8,8.8,0,0,1-.2-1.6,10.8,10.8,0,0,0,0-1.8,3.1,3.1,0,0,0-.5-1c-.2-.3-.5-.5-.5-.9a3.8,3.8,0,0,1,.6-2.3,3.2,3.2,0,0,0,.3-1.7c0-3.8-.2-7.5-.5-11.2a7.9,7.9,0,0,0-.5-2.2,7.9,7.9,0,0,1-.6-2.2,5,5,0,0,1,.2-2.1,6.2,6.2,0,0,0,.1-1.9c-.3-4.3-.5-8.5-.8-12.8,0-.9-.1-1.9-.1-2.8h-.1A57.4,57.4,0,0,1,66.8,65.3c-1.5-1.4-2.9-2.8-4.3-4.3l-.5-.5-.4-.5c-.2,0-.3.2-.4.3a14.4,14.4,0,0,1-1.8,2.5,10.4,10.4,0,0,1-2.1,2.1,1.9,1.9,0,0,0-.9,1.1c-.6,1.3-.2,3.1,0,4.5.4,3.6.9,7.2,1.3,10.8a13.5,13.5,0,0,0,.4,2.9c.2.7.7,1.3.9,2a13.4,13.4,0,0,0,.7,1.8,2,2,0,0,1-.3,2.1,1.6,1.6,0,0,1-1.1.5,2,2,0,0,1-1.1,0,2.5,2.5,0,0,1-1.9-1.5l-.3-1h0v-.3a2.8,2.8,0,0,1-.1-.9,3.2,3.2,0,0,0-.6-1.7,3,3,0,0,1-.1-2.6l.3-1c0-.5-.2-.9-.2-1.4L53.7,77c-.4-1.8-.8-3.5-1.3-5.3s-1.3-4.4-1.8-6.6a4.3,4.3,0,0,1-.2-1.1.2.2,0,0,0-.3,0,21.6,21.6,0,0,1-3.9,6.5,4.3,4.3,0,0,0-.9,1c-.2.6-.3,1.2-.5,1.8a2.9,2.9,0,0,0-.2.9c-.1.1-.1.3-.2.4s.1-.4.1-.5a11.1,11.1,0,0,0,.2-1.9c0-.1-.1-.1-.2-.1s-.4.3-.5.7a6.1,6.1,0,0,1-.1,1.4,29.1,29.1,0,0,1-.4,3.1,5,5,0,0,0,.1,2.1c.1,1.1.3,2.1.4,3.2s.5,4.4.7,6.5a15.5,15.5,0,0,0,.6,3.1,9.1,9.1,0,0,1,.7,1.4,2.1,2.1,0,0,0,.3.7c.4.9,1.1,2.7-.1,3.3h0c0-.1,0,0-.2,0l-.3.2-.8.2-1.1-.2a2.6,2.6,0,0,1-1-.7,5.4,5.4,0,0,1-.7-1.3c-.1-.6-.1-1.1-.2-1.8s-.9-1.7-1-2.7.7-1.8.6-2.8-.4-1.8-.5-2.7-.9-4.5-1.5-6.6c-.1-.2-.3-.1-.3,0s-.1,2-.1,2.9V79.3a7.5,7.5,0,0,0,0-1.5,2.5,2.5,0,0,0-.2-.7,21.7,21.7,0,0,0-.7-2.4c0-.2-.2-.1-.2,0a7.6,7.6,0,0,0-.1,1.5c-.1.5,0,1-.1,1.5s-.1.1-.2-.1V72.3a7.6,7.6,0,0,1-.2-2.6c0-.1-.2-.2-.3,0a17.2,17.2,0,0,0,.2,3.2c0,1.3,0,2.6.1,3.9v.9c0,.2,0,.5.1.6a.3.3,0,0,0,.4,0,.7.7,0,0,0,.1-.5c0-.3.1-.7.1-1s.1-1.4.1-2.1H38c.3,1,.5,2,.8,2.9a9.7,9.7,0,0,1,.1,1.7v1.9c0,.2-.1,1.9.4,1.3s.1-.2.1-.3v-.9c0-.7.1-1.3.1-2h-.3q.9,3.3,1.5,6.6c.1.3.1.6.2,1a7.1,7.1,0,0,1,.3,2.1c-.1,1-.7,1.9-.4,3a6.7,6.7,0,0,0,.6,1.2,4,4,0,0,1,.3,1.9,7,7,0,0,0,.3,1.2l.3.7.2.3h.1a2.5,2.5,0,0,0,1.2.8,3,3,0,0,0,2.6-.4h0c-.1.2.1,0,.1,0l.3-.3a2,2,0,0,0,.2-1.7,5.8,5.8,0,0,0-.5-1.4,2.5,2.5,0,0,1-.2-.7c-.2-.5-.5-1-.7-1.4a15.3,15.3,0,0,1-.7-3.6c-.1-1.2-.2-2.3-.4-3.4s-.5-4.9-.8-7.3a1.4,1.4,0,0,1,.1-.9,11.1,11.1,0,0,0,.2-1.9,5.9,5.9,0,0,0,.2-1.3,3.8,3.8,0,0,1,.1-1l.4-.5h-.2c-.1.5-.1,1-.2,1.5s-.2.7-.1,1,.1.4.4.3.1-.4.2-.5l.3-1.2.3-1.1a1.5,1.5,0,0,1,.4-.9,24.6,24.6,0,0,0,4.6-7.2h-.3c.4,2,1.1,3.9,1.6,5.9s.9,3.2,1.2,4.8a28.2,28.2,0,0,1,.7,3.1c.2,1.1.5,2.3.6,3.4s-.5,1.7-.5,2.5a3,3,0,0,0,.6,1.8,4.1,4.1,0,0,1,.4,2.2c0,.1.1.2.1.3h0a.9.9,0,0,0,.1.5,3.2,3.2,0,0,0,1.4,2l.9.3h.9A2.5,2.5,0,0,0,60,89.7a3.3,3.3,0,0,0-.2-2.2l-.5-1a6.4,6.4,0,0,1-.2-.7,7,7,0,0,1-.9-2.4c-.2-1-.3-2.1-.4-3.1s-.4-3.8-.7-5.7l-.6-5.5a7.6,7.6,0,0,1,0-2.6,1.6,1.6,0,0,1,.9-1.3,18.6,18.6,0,0,0,3.9-4.5c.2-.3.1-.4.4-.2l.5.6,1.2,1.2a22.8,22.8,0,0,0,2.2,2.2A59,59,0,0,0,85.9,77.2l.8.2H87c.2.1,0-.4.1.2a7.6,7.6,0,0,1,.1,1.5c.1,1.1.1,2.2.2,3.3s.3,4.4.4,6.5.1,2.2.2,3.2a10.5,10.5,0,0,1,0,2.5,6.4,6.4,0,0,0,.2,4.1,14.1,14.1,0,0,1,.6,2.2,26.4,26.4,0,0,1,.2,2.9,56.3,56.3,0,0,1,.3,5.8,26.2,26.2,0,0,1,.1,2.8,4.5,4.5,0,0,1-.1,1.2,7.9,7.9,0,0,1-.4.9,2.6,2.6,0,0,0-.1,2.9,3.3,3.3,0,0,1,.6,1,12.7,12.7,0,0,1,.1,2,4.4,4.4,0,0,0,.6,2.5,2.8,2.8,0,0,0,3.8.8c.9-.5,1-1.2.9-2.2a11.9,11.9,0,0,0-.8-2,13.8,13.8,0,0,1-1-2.2,7.3,7.3,0,0,1-.4-2.9c0-1.1-.1-2.1-.1-3.1a48.9,48.9,0,0,1,.3-5.4c.1-1.1.2-2.1.4-3.2a20.2,20.2,0,0,1,.7-2.3,7.1,7.1,0,0,0-.2-4.1,16.7,16.7,0,0,1,.2-5.9c.3-2.1.8-4.2,1.2-6.3a27.9,27.9,0,0,0,.7-5.8h-.1a21.9,21.9,0,0,0,5-.9h-.2c.1,1.9.2,3.8.4,5.7s.1,2.1.2,3.2a7.7,7.7,0,0,1-.2,1.5,6.2,6.2,0,0,0,.4,3.8,15.1,15.1,0,0,1,.7,4.8c.2,2.9.4,5.9.4,8.9a3.4,3.4,0,0,1-.1,1c-.1.3-.3.5-.4.8a4.1,4.1,0,0,0-.5,1.9c0,.7.5,1.1.8,1.7a3.6,3.6,0,0,1,.3,1.8,5,5,0,0,0,.3,2.4,2.9,2.9,0,0,0,4.7,1c.8-1,0-2.6-.5-3.6s-.8-1.6-1.1-2.4a7.4,7.4,0,0,1-.3-2.6c-.1-2-.1-4-.1-5.9a49.5,49.5,0,0,1,.6-5.4,9.8,9.8,0,0,1,.6-2.3,5.2,5.2,0,0,0,.4-2.1c0-1.3-.5-2.3-.6-3.5a24.1,24.1,0,0,1,.4-5.4c.4-1.9.7-3.7,1.1-5.6s.3-1.8.5-2.7.1-.8.1-1.2a1.3,1.3,0,0,1,.1-.6c0-.2,0-.1.1-.2l.6-.7.2-.3h.1l.5-.6.2-.2c-.2.2-.1,0,0,0l.5-.7.5-.7a1.8,1.8,0,0,0,.5-.8v.2h0c.1,0,.1-.1.1-.2s.4-.5.5-.6a2.1,2.1,0,0,1,.4-.6l.6-1a15.1,15.1,0,0,0,1.1-2.2,17.3,17.3,0,0,0,1.5-4.9,11.8,11.8,0,0,1,1.6-4.9,17,17,0,0,1,3.4-3.7h-.2a9.8,9.8,0,0,0,5.1,5.3c2,1.1,4.9,2,5.7,4.5h.2c-.1-.1-.2,0-.2.1s.5,2.5,1.8,3.2a7.4,7.4,0,0,0,3.9.5,5.1,5.1,0,0,0,4.3-4.9,2.8,2.8,0,0,0-.3-2l-1.4-2.1c-.1-.1-.2-.1-.2,0h.2a25.1,25.1,0,0,1-3.2-9.3c-.2-1.8-.1-3.6-.3-5.4a7.5,7.5,0,0,0-1-3.3,8.6,8.6,0,0,0-1-1.6l-.9-1.1c-.2-.2-.2-.3-.2-.6s0-.6-.1-.5h.1l.3-.3.3-.6a5,5,0,0,0,.4-1.3,7.5,7.5,0,0,0-.9-3.9c-.2-.3-1.1-2.2-1.7-1.4s-.1,1-.2,1.3a10.1,10.1,0,0,1-.3,1.7h.1a4.1,4.1,0,0,0-2.2-.3l-1.6.5v.2a3.8,3.8,0,0,1,2.5-.9c.1,0,.2-.2,0-.3a3.3,3.3,0,0,0-2.4.2l-.9.8c-.1.1-.7.9-.6.9a.1.1,0,0,0-.1.1h.3c0-.3-.1-1-.5-1.1l-.5.2a.9.9,0,0,0-.3.5h-1.4a4.8,4.8,0,0,1-1.7-.5,4.4,4.4,0,0,0-3.2.1l-.7.3h-1a2.4,2.4,0,0,0-1.2.3c-.1.2-.1.3.1.3s.5-.1.6-.1h1.2v-.2l-.8.6a.9.9,0,0,1-1,.3h-1.7a13.5,13.5,0,0,0-3.4,1.1c-.2.1-.8.3-.6.6s.5.1.7,0a8,8,0,0,1,4.3-1v-.2a6.5,6.5,0,0,1-2,.5l-1.3.3a11.8,11.8,0,0,1-3.1.8c-.2,0-.6-.1-.8.1s.4.3.5.3a9.3,9.3,0,0,0,3.7-.6v-.3l-1.3.6a3.9,3.9,0,0,1-1.5.6l-2.2.2a7,7,0,0,0-2,.8c-.3.2-1.1.8-.8,1.1h.1a.8.8,0,0,0,.5-.5l1-.6a7.8,7.8,0,0,1,2.1-.4v-.2a8.4,8.4,0,0,0-2.1,1.1,9.5,9.5,0,0,1-2,1.5,9,9,0,0,1-2.3.2c-.4.1-1,.3-1,.7h0a2.2,2.2,0,0,0,1.1-.1H103v-.3c-.4.2-.9.7-1.4.7h-1.3a7.2,7.2,0,0,0-2.4,1,3.3,3.3,0,0,1-1,.6,5.3,5.3,0,0,0-1.2.3l-.9.5c-.2.2-.4.5-.7.6s-.4,0-.6,0h-.7a4.7,4.7,0,0,1-1.7-.3l-3.1-.8a42.7,42.7,0,0,1-6.1-2.9,42.2,42.2,0,0,1-9.1-8.3,27.1,27.1,0,0,0-8.6-7.2A22.6,22.6,0,0,0,58.5,19l-1.3-.2h-.5L56,19H54.7l-1.5.3A12.2,12.2,0,0,0,49.5,21l-1.2.9h-.2c.1,0-.1-.1-.1-.1s-.7-.2-1-.2a6.8,6.8,0,0,0-4.2,1.7,10.3,10.3,0,0,0-3.4,4.8,44.1,44.1,0,0,0-2,13c-.1,4.6.5,9,.3,13.6-.1,2.3-.4,4.6-.6,6.9s-.4,4.7-.5,7-.1,2.3-.1,3.5h.2c.2-3.1.5-6,.9-9h-.3c.1,1,0,2.1,0,3.1V69a2.5,2.5,0,0,1-.2.7C37.1,69.8,37.3,69.9,37.4,69.7Z"/><path class="cls-17" d="M135.3,42.2a.5.5,0,0,0-.3-.4c-.9-.7-3.2-1.6-3.7-.2s-1.1,4.6.6,5.7,4,2.3,4.5,4.6,1.2,4,1.7,2.2-1.1-3.9-1.7-5.1-1.7-5.1-1.1-5.7"/></g></svg>