<svg xmlns="http://www.w3.org/2000/svg" viewBox="0 0 54 35"><defs><style>.cls-1{fill:#5d1222;}.cls-2{fill:#f7f2f3;}.cls-3{fill:#ee7373;}</style></defs><g id="mouth"><path class="cls-1" d="M9,10.9s20,2.3,38-.2c0,0-4.2,14.8-19.1,14.9S9,10.9,9,10.9Z"/><path class="cls-2" d="M15.6,12.1s.1,1.3,3.2,2.2,12.2,1.8,17.6,0,4.8-2.9,4.8-2.9a159.1,159.1,0,0,1-26.6.6"/><path class="cls-3" d="M17.1,21s2.5-3.9,8.6-1.8c0,0,7.6-2.6,11.6,3.4,0,0-8.8,7.8-20.2-1.6"/><path class="cls-2" d="M17.4,20.7c-1.4.7-.6.9,0,1.3l.7.5s3.3,2.8,10.1,3.1,10-2.4,10-2.4-.6-2-3.2-1.1a18.3,18.3,0,0,1-14-.3s-1.9-1.3-3.2-1.2"/><path class="cls-3" d="M9,10.9s22.2-1,38-.2C47,10.7,27.3,14.9,9,10.9Z"/><path class="cls-3" d="M12,17.2S26.6,35.8,43.9,17C36.3,32.5,17.9,32.5,12,17.2Z"/></g></svg>