<svg xmlns="http://www.w3.org/2000/svg" viewBox="0 0 164 95"><defs><style>.cls-1{fill:#4c2d1d;}.cls-2{fill:#cd8c80;stroke:#593129;stroke-miterlimit:10;stroke-width:0.75px;}</style></defs><g id="eye_04"><path class="cls-1" d="M13.3,30.8S26.1,8,41.1,11.5c1.1.3.8,5.4,2.1,5.9s3.1-4.1,3.1-4.1.6,4,.1,5.8-2.1,2.4-3.8,2.2c-10.7-.9-25.1,8.4-25.1,8.4C12.6,33,11.1,34.5,13.3,30.8Z"/><path class="cls-1" d="M154.5,33.6S137.2,6.7,119.2,12.1c-1.4.4-.6,6.7-2.1,7.4s-4.1-4.8-4.1-4.8-.4,4.8.3,7,2.7,2.8,4.8,2.5c12.9-2,31.2,8.4,31.2,8.4C155.4,36.2,157.5,37.9,154.5,33.6Z"/><path class="cls-2" d="M41.4,78.6A22.8,22.8,0,0,1,11,65.9,24.6,24.6,0,0,1,23.8,34.3,22.7,22.7,0,0,1,54.2,47.1,24.5,24.5,0,0,1,41.4,78.6"/><path class="cls-2" d="M127.4,86.6A22.8,22.8,0,0,1,97,73.9a24.6,24.6,0,0,1,12.8-31.6,22.7,22.7,0,0,1,30.4,12.8,24.5,24.5,0,0,1-12.8,31.5"/></g></svg>