<svg xmlns="http://www.w3.org/2000/svg" xmlns:xlink="http://www.w3.org/1999/xlink" viewBox="0 0 84 66"><defs><style>.cls-1{fill:none;}.cls-2{isolation:isolate;}.cls-3{fill:#353535;}.cls-4{fill:#262626;}.cls-5{fill:#646262;}.cls-5,.cls-7,.cls-8{stroke:#b7b7b9;stroke-miterlimit:10;stroke-width:0.3px;}.cls-6,.cls-7{fill:#444;}.cls-8{fill:#d9dad8;}.cls-9{fill:#f2e8d4;}.cls-10{mix-blend-mode:multiply;}.cls-11{clip-path:url(#clip-path);}.cls-12{fill:#ebebec;}.cls-13{fill:#b7b7b8;}</style><clipPath id="clip-path"><rect id="SVGID" class="cls-1" x="20.2" y="35.8" width="6.4" height="6.08"/></clipPath></defs><g class="cls-2"><g id="SheepF01_P04"><g id="_1" data-name="1"><path class="cls-3" d="M28.3,54c0,.3-.2.5-.3.8a2.4,2.4,0,0,1-3.1.7l.4-.6.2-.2c.5-1.4,1.4-1.4,2.1-1.2l-.2.5Z"/><path class="cls-4" d="M28.3,54c0,.3-.2.5-.3.8l-1.1.3a2.9,2.9,0,0,1-1.6-.2l.2-.2c.5-1.4,1.4-1.4,2.1-1.2l-.2.5Z"/><path class="cls-5" d="M20.2,27.1c-1,.9-3,6.4-.3,13.9,2,5.7-1.3,6.2,1,8.3a7.5,7.5,0,0,1,1.6,2.5,12.1,12.1,0,0,0,.8,2.5c.4.7,1.1.1,1.6,1.2s1.8-1.1,1.6-1.7-1-.9-1.8-2.2a6.9,6.9,0,0,1-1.1-3.7c.3-3.1,5-5.2,2.2-15.4s-4.3-6.7-5.6-5.4"/></g><g id="_1-2" data-name="1"><path class="cls-3" d="M28.3,60l-1,.3A2.3,2.3,0,0,0,31,61l-.7-.5.4-.2c-.4-.7-1.1-1.2-2.4-.3"/><path class="cls-4" d="M31,61a1.2,1.2,0,0,1-.7.5,2.3,2.3,0,0,1-1.1-.3A4.3,4.3,0,0,1,28,60.1h.3c1.3-.9,2-.4,2.4.3l-.4.2Z"/><path class="cls-5" d="M30.8,53.1a8.3,8.3,0,0,0-1.2,3.8c-.2,1.5.2,2,0,2.8a.8.8,0,0,1-.4.7,1.7,1.7,0,0,1-1.9-.1c.3-1.2-.6-1.1-.5-2a10.4,10.4,0,0,1,.8-2.5,7,7,0,0,0,.2-3.1c-.6-3.1,3-2.3,3-8.7v-.4c.1-9.3,5.7-12.6,6.9-13.1a4.6,4.6,0,0,1,5.1,2.8c.6,1.7.6,4.2-.8,8a27.2,27.2,0,0,1-2.1,4.2A13.5,13.5,0,0,1,38.1,48,12,12,0,0,1,34,51.1l-1.2.6a6,6,0,0,0-2,1.4"/><path class="cls-6" d="M29.2,60.4c-.7-.4-.5-1.1-.5-1.8a8.1,8.1,0,0,1,0-2.2l.6-1.5c.1-.5.3-1,.4-1.5s.4-.8.3-1.3-.4-.7-.5-1.1a2.1,2.1,0,0,1,.3-1.3.8.8,0,0,1,.9-.4,2.5,2.5,0,0,1,.7.8,5.4,5.4,0,0,0,.9,1.2l.5.4a6,6,0,0,0-2,1.4,8.3,8.3,0,0,0-1.2,3.8c-.2,1.5.2,2,0,2.8a.8.8,0,0,1-.4.7"/></g><g id="_1-3" data-name="1"><path class="cls-3" d="M58.5,42l-.8.8a2.4,2.4,0,0,0,3.7-1.2h-.9l.2-.4c-.6-.4-1.6-.5-2.2.9"/><path class="cls-4" d="M61.4,41.6l-.4.8-1.2.2a2.6,2.6,0,0,1-1.5-.4l.2-.2c.6-1.4,1.6-1.3,2.2-.9l-.2.4Z"/><path class="cls-5" d="M56.2,21.8s.5,4.1.6,8.3c0,2.2-.3,3.2-.2,4.2s.5.6.5,2.4-.4,3.1-.2,3.7.6.5.7,1-.4.7.1,1.4,1.5.1,2.1-.8a.9.9,0,0,0-.1-1,2.1,2.1,0,0,1-.4-1.2,14.4,14.4,0,0,1,.3-5.4c.2-.6.6-.7.7-1.6s-.3-1.2-.2-2c.7-5.2,1.5-10.8,1.5-10.8Z"/></g><g id="_1-4" data-name="1"><path class="cls-3" d="M55.2,46.7l-.8.6a2.3,2.3,0,0,0,3.8-.5l-.9-.2.4-.4c-.7-.5-1.5-.7-2.5.5"/><path class="cls-4" d="M58.2,46.8c-.2.3-.3.6-.6.7a2,2,0,0,1-1.1,0,3.4,3.4,0,0,1-1.5-.6l.2-.2c1-1.2,1.8-1,2.5-.5l-.4.4Z"/><path class="cls-5" d="M62.2,25.5l-.8,2.2-1.6,5.2c-.3,1-.7,2-1,3.1s.1,1.3-.1,2-.8.9-1,1.4a13.5,13.5,0,0,0-1.2,5.3,1.6,1.6,0,0,0,.2,1.2,1.1,1.1,0,0,1-.1,1c-.7.8-2.2.4-2.2.4s.1-.7.1-1.3-.4-.5-.5-1.1.4-1.1.8-3.6-.2-1.3-.1-2.5.6-1.9,1-4.1h0c.3-2.1.5-4.2.6-5.7s.2-2.5.2-2.5h1l1.7-.3Z"/></g><path class="cls-5" d="M72.7,14.2c.6,1.8-1.4,3.8-2.6,4.4s-9.5-1.8-9.5-1.8A10.1,10.1,0,0,1,64.4,9s6.1,1.6,8,4.6l.2.3v.3"/><path class="cls-7" d="M55.2,7.8l-.3,1.7c-4.9,3.2-9.2,1.7-9.4.8s0-.6.4-1.1,5.2-4.7,9.3-1.4"/><path class="cls-8" d="M63.1,25.1a8.6,8.6,0,0,1,0,1.6c-.1.8,1.3,1.5,1.1,2.2s-1.5,1.2-1.8,1.9.5,1.8.1,2.4-.5,1.7-1,2.2a4.9,4.9,0,0,1-2.2,1c-.3.1-.5.6-.8.7l-1-.3c-.3,0-.6.4-.9.3s-.6-.5-.8-.6h-.4c-.3,0-.5.1-.7,0s-.3-.6-.5-.8H54c-.3-.1-.7,0-.8-.2s-.2-.7-.4-1-.7-.2-.9-.5-.2-.4-.1-.8a7,7,0,0,1,.2-1.3,4.5,4.5,0,0,1,.3-1.1,17.4,17.4,0,0,0,1.3-2,11.7,11.7,0,0,0,.5-2v-.4a24.3,24.3,0,0,0,1.4-2c.4-.8.4-1.7.7-2.4s1.1-1.2,1.5-1.9.5-1.7.9-2.3S60,16.5,60.4,16s1-1.7,1.5-2h.8l.6.4a5.6,5.6,0,0,1,.5.8,11,11,0,0,0,.9,1.4c0,.1.1.3.1.4l.2.3c.1.7-2.1,1.6-2,2.4a18.9,18.9,0,0,1,.5,2.3,20.5,20.5,0,0,1-.5,2.4,2.5,2.5,0,0,0,.1.8"/><path class="cls-8" d="M52,11.2c0-.4.5-.8.6-1.2s.1-.8.3-1.2.8-.5,1-.8.3-.8.6-1.1a6,6,0,0,1,1.1-.6c.3-.3.4-.8.8-1s.8-.2,1.2-.4.7-.6,1.1-.6.8.2,1.2.2l1.3-.3c.4,0,.8.4,1.3.4s.9-.1,1.3,0,.7.5,1.1.6,1,0,1.3.2.6.8.9,1.1.8.5.9.9a3.2,3.2,0,0,1-.1,1.7c-.1.6,0,1.2-.4,1.7s-.9.7-1.3,1.2-.5,1-.9,1.5-1,.7-1.3,1.2a8.4,8.4,0,0,0-.5,1.7c-.1.5-.5,1-.5,1.6s.3,1.1.4,1.8-.5.1-1.5-.6-1.1-.4-1.6-.8-.7-1-1.2-1.4-1.2-.5-1.6-.9a15.8,15.8,0,0,1-1.2-1.5c-.5-.4-1.2-.5-1.6-.9s-.7-1.1-1.1-1.5-1.2-.2-1.6-1"/><path class="cls-9" d="M65.1,13.8c-.1.6-1,1.1-1.1,1.7s1,3.4.8,4-1.2.9-1.4,1.5.1,1.5-.2,2l-.2.2c-.3.2,1.4.3,1.1.4a1.5,1.5,0,0,0-.6.5c-.9,1-1.6,1.2-2,.3a1.3,1.3,0,0,1-.1-.6,13.3,13.3,0,0,0,.3-2.1c0-.1-.1-.2-.1-.3v-.3a5,5,0,0,1-.8-2c0-.8.7-1.6.8-2.4s-.6-2-.5-2.8a3.8,3.8,0,0,1,.8-1.7,1.1,1.1,0,0,0,.3-.7,14.9,14.9,0,0,1,.5-2.2c.1-.3.2-.5.4-.4s.1.9.4,1,.8-.4,1-.3.1.9.3,1.1.9-.4,1.1-.3.1.4.1.7v.3c.3.3,1-.2,1.2-.1s.6.3.7.7a.4.4,0,0,1,.1.3c0,.6-.8.6-.9,1.6s-1.8-.8-1.9-.1"/><path class="cls-8" d="M37.4,38.9c-.5.7-1.5,1.1-2.2,1.9L34.4,42a7.3,7.3,0,0,1-.9,1.3,19.4,19.4,0,0,1-2.4,1.5c-.7.6-1.3,1.6-2,2.1a23.4,23.4,0,0,1-2.4.9c-.8.4-1.5,1.3-2.3,1.5s-1.5-.2-2.3-.1l-.7.2c-.4.1-.8.3-1.1.2s-.9-.9-1.3-1.3-1.1-.4-1.4-.9-.1-1.5-.3-2.2-.7-1.1-.7-1.8a2.8,2.8,0,0,1,.1-.9,8.9,8.9,0,0,0,.3-1.4c0-.8-.4-1.5-.3-2.1s-.2-1.4.6-2.1,1-.6,2.7-.8,1.7.4,2.7.4,1.9-.7,2.8-.8,1.7.4,2.7.4,1.5-.5,2.3-.6H31c.9-.1,1.7.4,2.6.4s2-.5,2.8-.5,2.2.5,2.2.9a6.7,6.7,0,0,1-1.2,2.7"/><path class="cls-8" d="M55.4,35.5c-.1.1-.2.1-.2.2a6,6,0,0,0-.8.8c-.1.1-.1.3-.2.4l-.6.6-.6.4a4.4,4.4,0,0,0-1.5.8c-.6.5-1,1.2-1.6,1.7s-1.8,1-2.6,1.6-1.4,1.4-2.2,1.9l-.6.3-.5.2-1.7.7c-.9.5-1.6,1.2-2.5,1.6h-.2l-2.7.6-1.8.8a2.9,2.9,0,0,1-1,.3c-1,.2-2-.1-3,0s-2,.4-3,.3a23.3,23.3,0,0,1-2.8-1.1l-1.8-.4-.5-.2-.6-.2a19.9,19.9,0,0,1-2.2-2c-.6-.5-1.4-.7-1.8-1.2a6.9,6.9,0,0,1-1-1.9c-.3-.5-.8-.9-1.1-1.4s-.1-.2-.2-.4a7.4,7.4,0,0,1,0-2.1,16,16,0,0,1-.5-2.1,16.7,16.7,0,0,1,.8-2,15.5,15.5,0,0,1,.4-2.1c.2-.6.9-1.1,1.3-1.7s.5-1.4.9-2,1.2-.8,1.7-1.3.8-1.3,1.4-1.7,1.4-.5,2.1-.9,1.1-1,1.8-1.3,1.5-.2,2.2-.5,1.2-.9,1.9-1.2,1.6-.2,2.3-.5,1.2-.9,1.9-1.2a10.4,10.4,0,0,0,2.2-.6c.7-.3,1.1-.9,1.8-1.3a19.5,19.5,0,0,0,2.2-.8c.6-.4,1-1.1,1.6-1.5a14.7,14.7,0,0,0,2.2-1,3.7,3.7,0,0,1,1.9-1.1h.4c.3-.2.5-.7.7-.9a1.6,1.6,0,0,1,1.2-.6c.7-.1.6-.5,1-1s1.1-.3,1.7-.4,1.3.2,1.9-.1,1.6-1.3,1.8-.8,1.6-.1,2.4.2,1.4-.2,1.9.5a7.5,7.5,0,0,0,1.5.9A5.7,5.7,0,0,1,61.8,12c.1,0,.1.1.1.2a7.6,7.6,0,0,1,1.3,1.7v.3a4,4,0,0,1,.4,3v.2l-.3.6a.9.9,0,0,1,.3.5c.5,1.8-.2-.3-.1,1.7s-1.5,1.6-1.5,2.3"/><path class="cls-8" d="M62.1,22.5c0,.8,1.5,1.6,1.3,2.3a3.7,3.7,0,0,0-.1,1.1v.5c0,.2-.1.4-.1.6"/><path class="cls-8" d="M45.2,37.6a4.1,4.1,0,0,1,.1,2.6"/><path class="cls-8" d="M45.3,40.2c-.3.7-1.1,1.4-1.5,2.3l-.3,1.2a5.7,5.7,0,0,1-.4,1.4l-.4.5a10.6,10.6,0,0,0-1.5,1.5c-.5.7-.6,1.7-1.2,2.4s-1.6.9-2.2,1.5-1.1,1.5-1.8,2-1.8.4-2.6.7l-.8.4a1.7,1.7,0,0,1-1.1.6c-.7.1-1.4-.5-2-.6s-1.5.1-2.1-.2-.8-1.1-1.3-1.6-1.4-.7-1.8-1.2l-.3-.8c-.1-.4-.2-.9-.3-1.2s-1.2-1-1.4-1.6-.6-.9-.6-1.2.1-.3.3-.6"/><g class="cls-10"><g class="cls-11"><path class="cls-12" d="M20.3,38.5h0"/><path class="cls-12" d="M26.6,38.7c-.1-.3-.9-.4-1-.7s.7-.6.6-.9-.9-.1-1-.3a1.6,1.6,0,0,1,.4-.7c.1-.2,0-.3-.2-.3s-1,.5-.7.9.5.5.4.8-.9.2-1.1.5.1,1-.2,1.2-.7-.5-.9-.5-.2.9-.4.9-.4-.7-.6-.7-.6.6-.8.5.2-.8.1-.9-.3,0-.4,0-.8.6-.6,1.1,1.3.5,1.8.9.8,1.3,1.4,1.3,1-.8,1.5-1.2,1,.2,1.2,0-.5-.9-.4-1.1.9-.5.9-.8"/></g></g><path class="cls-6" d="M64.3,22.1c-1-.1-4.8-5.6-.3-9.7.2-.2.3-.3.5-.3a1.5,1.5,0,0,1,1.6,0c4.2,2.8.8,8-1,9.5l-.8.5"/><path class="cls-6" d="M72.3,14.8a1.7,1.7,0,0,1-.6.6c-.1,0-.2-.1-.1-.2l.6-.9v.5"/><path class="cls-13" d="M55.5,35.4l-.3.2c-.4.3-.6.8-1,1.2a1.7,1.7,0,0,1-.6.6,1,1,0,0,1-.5.4,7.5,7.5,0,0,0-1.5.9c-.6.5-1,1.3-1.6,1.8s-1.8,1-2.6,1.6-1.4,1.5-2.2,2l-.6.3-.5.2-1.7.7c-.9.5-1.6,1.3-2.5,1.7h-.3c-.3-.5.4-.8,0-1.5s-1.1-.4-1.3-.9.4-1.1.2-1.6-1-.6-1.2-1.1.6-1,.6-1.4-.6-1.3-.2-1.6,1.5.1,2.7-.1,1.4-1.1,2.3-1.2,1.7.5,2.6.3,1.5-1,2.3-1.2,1.9.3,2.6.1S51.5,35.5,52,35s.9.2,1.1,0,0-1,.2-1.1.9.3,1.1.3.8-.7.9-.5-.4.7-.4,1,.4.4.6.7"/></g></g></svg>