<svg xmlns="http://www.w3.org/2000/svg" xmlns:xlink="http://www.w3.org/1999/xlink" viewBox="0 0 84 66"><defs><style>.cls-1,.cls-13{fill:none;}.cls-2{isolation:isolate;}.cls-3{fill:#353535;}.cls-4{fill:#262626;}.cls-5{fill:#646262;}.cls-6{fill:#434343;}.cls-7{fill:#dadbd9;}.cls-8{fill:#f3e9d6;}.cls-9{mix-blend-mode:multiply;}.cls-10{clip-path:url(#clip-path);}.cls-11{fill:#edeced;}.cls-12{fill:#b7b7b9;}.cls-13{stroke:#b7b7b9;stroke-miterlimit:10;stroke-width:0.3px;}</style><clipPath id="clip-path"><rect id="SVGID" class="cls-1" x="18" y="36.8" width="6.4" height="6.1"/></clipPath></defs><g class="cls-2"><g id="Layer_31" data-name="Layer 31"><g id="SheepF01_P01"><path class="cls-3" d="M32.8,60.2,32,61a2.4,2.4,0,0,0,3.7-1.2h-.9l.3-.4c-.7-.4-1.6-.5-2.3.9"/><path class="cls-4" d="M35.7,59.8a5.9,5.9,0,0,1-.4.8l-1.2.2a2.6,2.6,0,0,1-1.5-.4l.2-.2c.7-1.4,1.6-1.3,2.3-.9l-.3.4Z"/><path class="cls-5" d="M31.7,52.9a8.3,8.3,0,0,0,.7,3.9c.6,1.5,1.2,1.8,1.4,2.5a.8.8,0,0,1-.1.8c-.2.5-.7.9-1.7.9s-1-.8-1.4-1.6a23.8,23.8,0,0,1-.5-2.6A6.8,6.8,0,0,0,28.9,54c-2-2.5,1.5-3.5-1.5-9.2l-.2-.3c-4.3-8.3-1-13.9-.1-14.9a4.5,4.5,0,0,1,5.8.1c1.3,1.2,2.5,3.4,3,7.4a28.6,28.6,0,0,1,.3,4.8,21.9,21.9,0,0,1-.4,3,12.9,12.9,0,0,1-2.2,4.7l-.8,1.1a7.6,7.6,0,0,0-1.1,2.2"/><path class="cls-6" d="M33.7,60.1c-.8,0-.9-.8-1.3-1.3a7.5,7.5,0,0,1-1-2c-.1-.5-.1-1.1-.2-1.6l-.3-1.5a2.8,2.8,0,0,0-.4-1.3c-.2-.4-.6-.4-.9-.7a2,2,0,0,1-.4-1.3.8.8,0,0,1,.6-.8,1.8,1.8,0,0,1,1,.4l1.4.6h.6a7.6,7.6,0,0,0-1.1,2.2,8.3,8.3,0,0,0,.7,3.9c.6,1.5,1.2,1.8,1.4,2.5a.8.8,0,0,1-.1.8"/><path class="cls-5" d="M70.7,15.2c.7,1.7-1.4,3.7-2.6,4.3s-9.5-1.7-9.5-1.7A9.9,9.9,0,0,1,62.4,10s6.1,1.6,8,4.5l.2.3c.1.1.1.2.1.4"/><path class="cls-3" d="M25.4,56.6a1.6,1.6,0,0,1-.4.7,2.3,2.3,0,0,1-3.2.4l.5-.6h.2c.7-1.4,1.6-1.3,2.3-1l-.3.4Z"/><path class="cls-4" d="M25.4,56.6a1.6,1.6,0,0,1-.4.7,2.2,2.2,0,0,1-1.1.2,2.9,2.9,0,0,1-1.6-.4h.2c.7-1.4,1.6-1.3,2.3-1l-.3.4Z"/><path class="cls-5" d="M20.8,27.4c-1.1.9-3.8,6.3-2.1,14.5,1.3,6.3-2.1,6.3-.1,8.8a7.4,7.4,0,0,1,1.2,2.9c.3.7.2,1.8.6,2.6s1,.2,1.4,1.5,1.9-1,1.8-1.5-.9-1.1-1.5-2.6a8.8,8.8,0,0,1-.7-4c.8-3.2,5.7-4.7,4.3-15.7s-3.5-7.6-4.9-6.5"/><path class="cls-3" d="M50.5,42.3l-.7.8a2.4,2.4,0,0,0,3.7-1.2h-.9l.2-.4c-.6-.4-1.6-.5-2.3.9"/><path class="cls-4" d="M53.5,41.9a5.9,5.9,0,0,1-.4.8l-1.2.2a2.6,2.6,0,0,1-1.5-.4v-.2c.7-1.4,1.7-1.3,2.3-.9l-.2.4Z"/><path class="cls-3" d="M57.6,46.4l-.7.8A2.3,2.3,0,0,0,60.5,46h-.9l.3-.4c-.7-.4-1.6-.5-2.3.9"/><path class="cls-4" d="M60.5,46a2,2,0,0,1-.4.8L59,47a2.9,2.9,0,0,1-1.6-.4l.2-.2c.7-1.4,1.6-1.3,2.3-.9l-.3.4Z"/><path class="cls-5" d="M48.2,22a78.6,78.6,0,0,1,.7,8.4c0,2.2-.3,3.1-.3,4.1s.6.6.6,2.5-.4,3.1-.2,3.7.6.5.7,1-.5.7.1,1.4,1.5.1,2.1-.8a.9.9,0,0,0-.1-1,2.5,2.5,0,0,1-.4-1.2,14.4,14.4,0,0,1,.3-5.4c.1-.6.6-.8.7-1.6s-.3-1.2-.2-2.1c.7-5.2,1.5-10.8,1.5-10.8Z"/><path class="cls-5" d="M60.8,24.3l-.3,2.2-.8,5.4c-.1,1.1-.3,2.2-.4,3.2s.3,1.4.2,2.1-.6,1-.7,1.6a10.8,10.8,0,0,0-.3,5.3,2.5,2.5,0,0,0,.4,1.3.9.9,0,0,1,.1,1c-.6.9-2.1.8-2.1.8s-.1-.8-.2-1.4-.4-.4-.6-1,.2-1.1.2-3.7-.5-1.3-.6-2.5.3-1.9.3-4.1c0-.1-.1-.1-.1-.2,0-2.1-.2-4.2-.3-5.7s-.3-2.5-.3-2.5l1-.3,1.6-.6Z"/><path class="cls-6" d="M53.1,8.7l-.2,1.7c-5,3.3-9.3,1.7-9.5.8s0-.6.4-1.1S49,5.4,53.1,8.7"/><path class="cls-7" d="M61.1,26.1a8.6,8.6,0,0,1,0,1.6c-.1.8,1.3,1.5,1.1,2.2s-1.5,1.2-1.8,1.9.5,1.8.1,2.5a10.3,10.3,0,0,1-1.1,2.1c-.5.7-1.4.8-2.1,1.1s-.5.6-.8.6-.7-.3-1-.3-.7.4-1,.4-.5-.5-.8-.6h-.4c-.2,0-.4.1-.6,0s-.4-.7-.6-.9H52c-.3-.1-.7-.1-.9-.3s-.1-.7-.3-.9-.8-.3-.9-.5-.2-.4-.2-.9a12.3,12.3,0,0,1,.2-1.3,2.2,2.2,0,0,1,.4-1c.2-.7.9-1.3,1.3-2.1s.3-1.3.5-2a.6.6,0,0,1,.1-.4,24.3,24.3,0,0,1,1.4-2,16.8,16.8,0,0,1,.7-2.4c.4-.7,1.1-1.2,1.5-1.9s.5-1.7.9-2.3,1.2-1.2,1.7-1.8A8.3,8.3,0,0,1,59.9,15a.8.8,0,0,1,.8-.1c.2,0,.4.2.6.4a2.8,2.8,0,0,1,.5.8l.9,1.4c0,.1.1.2.1.4s.1.2.2.2-2.1,1.6-2,2.5a15.5,15.5,0,0,1,.5,2.3,20.5,20.5,0,0,1-.5,2.4,2.5,2.5,0,0,0,.1.8"/><path class="cls-7" d="M49.9,12.1c.1-.3.5-.7.7-1.1a6.1,6.1,0,0,1,.3-1.3c.2-.3.7-.4,1-.8s.3-.8.5-1.1a4.5,4.5,0,0,1,1.2-.6c.3-.3.4-.8.7-1s.9-.2,1.3-.4.7-.6,1-.6.8.2,1.3.2l1.3-.3c.4,0,.8.4,1.3.4h1.3c.4.1.7.5,1.1.6s1,.1,1.4.3.5.7.8,1,.8.5.9.9a3.2,3.2,0,0,1-.1,1.7,5.2,5.2,0,0,1-.3,1.8c-.3.4-1,.7-1.4,1.1s-.5,1.1-.9,1.5-1,.7-1.3,1.2a10.9,10.9,0,0,0-.5,1.7c-.1.6-.5,1.1-.5,1.7s.3,1.1.4,1.7-.5.1-1.5-.5-1.1-.4-1.6-.8-.8-1-1.3-1.4-1.1-.6-1.6-1-.7-1-1.1-1.4-1.2-.6-1.6-1-.8-1.1-1.2-1.4-1.1-.3-1.6-1.1"/><path class="cls-8" d="M63.1,14.8c-.1.6-1,1-1.1,1.7s1,3.4.8,4-1.2.9-1.5,1.5.2,1.5-.1,2l-.3.2c-.2.2,1.5.3,1.2.4a1.5,1.5,0,0,0-.6.5c-.9,1-1.6,1.2-2.1.3v-.6a13.8,13.8,0,0,0,.2-2.2v-.2c-.1-.1-.1-.2-.1-.4a4.6,4.6,0,0,1-.8-1.9c0-.8.7-1.6.8-2.5s-.6-1.9-.5-2.7.5-1.2.8-1.8a.9.9,0,0,0,.3-.7,18.8,18.8,0,0,1,.5-2.2c.1-.3.2-.5.4-.4s.1.9.4,1.1.8-.5,1-.4.1,1,.3,1.1.9-.4,1.1-.2.1.4.1.6v.4c.3.2,1-.3,1.2-.2s.6.3.7.7a.4.4,0,0,1,.1.3c0,.6-.8.7-.9,1.7s-1.8-.8-1.9-.1"/><path class="cls-7" d="M35.2,40c-.5.7-1.4,1.1-2.1,1.9a3.6,3.6,0,0,0-.8,1.2,6.4,6.4,0,0,1-1,1.3c-.6.7-1.6.9-2.3,1.5A20.8,20.8,0,0,1,26.9,48a17,17,0,0,1-2.4.9c-.7.4-1.5,1.3-2.3,1.5s-1.5-.2-2.3-.1l-.7.2c-.4.1-.8.3-1.1.2s-.9-.9-1.3-1.3-1.1-.4-1.4-.9-.1-1.5-.3-2.2-.7-1.1-.7-1.8a1.4,1.4,0,0,1,.1-.9l.3-1.4c0-.8-.4-1.5-.3-2.2s-.2-1.4.6-2,1-.7,2.7-.8,1.7.4,2.7.3,1.9-.7,2.8-.8,1.8.5,2.7.4a11.2,11.2,0,0,0,2.3-.6h.5c1,0,1.8.5,2.6.5s2.1-.6,2.9-.6,2.2.6,2.1.9A5.1,5.1,0,0,1,35.2,40"/><path class="cls-7" d="M60.1,23.5c0,.8,1.5,1.6,1.3,2.3a3.7,3.7,0,0,0-.1,1.1v.5c0,.2-.1.4-.1.6s-1.1,1.3-1.5,2-.6,1.3-1,1.9a.3.3,0,0,0-.1.2c-.5.6-1.4.9-1.9,1.5s-.9,1.3-1.5,1.8a10.8,10.8,0,0,1-1.8,1.1l-.3.2-.7.9-.3.3a1.7,1.7,0,0,1-.6.6,1,1,0,0,1-.5.4l-1.6.8c-.6.5-1,1.3-1.6,1.8s-1.8.9-2.6,1.5-1.4,1.5-2.2,2l-.6.3-.5.2-1.7.7c-.9.4-1.6,1.2-2.5,1.6h-.2l-2.7.6a9.8,9.8,0,0,0-1.8.8l-1,.3a15,15,0,0,1-3,0c-1,0-2.1.4-3.1.3s-1.8-.8-2.8-1.1l-1.7-.4-.6-.2-.6-.2A19.9,19.9,0,0,1,18,46c-.6-.5-1.4-.7-1.9-1.2s-.6-1.4-.9-1.9-.8-.9-1.1-1.4-.1-.3-.2-.4a14.8,14.8,0,0,1-.1-2.1c0-.7-.4-1.4-.4-2.1a11.9,11.9,0,0,1,.8-2,13,13,0,0,1,.4-2.1c.2-.7.9-1.2,1.3-1.8s.5-1.4.9-1.9a20.9,20.9,0,0,1,1.7-1.4c.6-.5.9-1.3,1.4-1.7s1.5-.5,2.1-.9,1.1-1,1.8-1.3,1.5-.3,2.2-.6a19.8,19.8,0,0,0,2-1.1c.7-.3,1.5-.2,2.2-.5s1.2-.9,2-1.2,1.5-.3,2.2-.6,1.1-1,1.8-1.4,1.5-.3,2.2-.7,1-1.1,1.6-1.6a14.7,14.7,0,0,0,2.2-1c.7-.4,1.1-1,1.9-1.1h.4c.3-.1.5-.6.7-.8a1.7,1.7,0,0,1,1.3-.7c.6-.1.5-.5.9-.9s1.2-.4,1.7-.5,1.4.2,1.9-.1,1.6-1.3,1.9-.7,1.5-.2,2.3.1,1.4-.1,2,.5a7.5,7.5,0,0,0,1.5.9,5.7,5.7,0,0,1,1.1,1.1v.2a10.9,10.9,0,0,1,1.3,1.7v.4a3.9,3.9,0,0,1,.4,3h0l-.3.7a.9.9,0,0,1,.3.5c.5,1.8-.2-.3-.1,1.7s-1.5,1.6-1.5,2.3"/><path class="cls-7" d="M43.2,41.3c-.3.7-1.1,1.4-1.5,2.3a10.4,10.4,0,0,0-.3,1.2,10.3,10.3,0,0,1-.4,1.4l-.4.5a10.6,10.6,0,0,0-1.5,1.5c-.5.7-.6,1.7-1.2,2.4s-1.6.9-2.2,1.5-1.1,1.5-1.9,2-1.7.4-2.6.7l-.7.4a2.3,2.3,0,0,1-1.2.6c-.7.1-1.3-.5-2-.6s-1.5.1-2-.2-.9-1.1-1.3-1.5-1.4-.8-1.9-1.3l-.3-.8a4.2,4.2,0,0,0-.3-1.2c-.4-.6-1.2-1-1.4-1.6s-.6-.9-.6-1.2a.9.9,0,0,1,.3-.6c.9-1.3.8-.9,2.6-1.6s2-.3,3.1-.7,1.8-1.2,2.8-1.6,2.2-.3,3.2-.6A15.9,15.9,0,0,0,33.7,41l.6-.3a9,9,0,0,1,1.6-.3l1.5-.2c1.1-.4,2-1.2,2.9-1.5s2.7-.3,2.8,0a3.4,3.4,0,0,1,.1,2.6"/><g class="cls-9"><g class="cls-10"><path class="cls-11" d="M18.1,39.6h0"/><path class="cls-11" d="M24.4,39.8c0-.3-.9-.5-.9-.8s.6-.6.5-.8-.9-.1-.9-.4.2-.5.3-.7.1-.3-.1-.3-1,.5-.8.9.5.6.4.9-.9.2-1.1.4.1,1.1-.2,1.2-.7-.5-.9-.4-.2.9-.4.9-.4-.7-.6-.8-.6.7-.8.5.2-.7.1-.9h-.4c-.4.1-.8.6-.6,1s1.3.6,1.8.9.8,1.4,1.4,1.4,1-.8,1.5-1.2,1,.2,1.2-.1-.5-.8-.4-1.1.9-.5.9-.7"/></g></g><path class="cls-6" d="M62.3,23.1c-1-.2-4.8-5.6-.3-9.8l.5-.3a1.8,1.8,0,0,1,1.6.1c4.2,2.8.8,7.9-1,9.5l-.8.5"/><path class="cls-6" d="M70.4,15.8a1.8,1.8,0,0,1-.7.5h-.1a3.6,3.6,0,0,1,.7-1v.3a.4.4,0,0,1,.1.3"/><path class="cls-12" d="M53.5,36.4l-.3.2a5.8,5.8,0,0,0-1,1.2l-.6.7-.6.4-1.5.8c-.6.5-1,1.3-1.6,1.9s-1.8.9-2.6,1.5-1.4,1.5-2.2,2.1l-.6.3-.5.2-1.7.7c-.9.5-1.6,1.3-2.5,1.7h-.3c-.3-.5.4-.8,0-1.5s-1.1-.4-1.3-.9.4-1.2.2-1.6-1.1-.6-1.2-1.1.6-1.1.6-1.5-.6-1.3-.3-1.5,1.6.1,2.7-.1,1.5-1.1,2.4-1.3,1.8.6,2.6.4,1.5-1.1,2.3-1.3,1.9.4,2.7.1,1.3-1.3,1.7-1.8,1,.1,1.2-.1-.1-1,.1-1.1.9.4,1.1.3.8-.7,1-.5-.5.7-.4,1.1.4.4.6.6"/><path class="cls-13" d="M70.7,15.2c0-.2,0-.3-.1-.4l-.2-.3a10.5,10.5,0,0,0-4.6-3.3c.1-.4,0-.8.1-1.2A3.2,3.2,0,0,0,66,8.3c-.1-.4-.6-.6-.9-.9s-.5-.8-.8-1-.9-.1-1.4-.3-.7-.5-1.1-.6H60.5c-.5,0-.9-.4-1.3-.4l-1.3.3c-.5,0-.9-.3-1.3-.2s-.6.4-1,.6-.9.1-1.3.4-.4.7-.7,1a4.5,4.5,0,0,0-1.2.6c0,.1-.1.2-.2.3-3.7-2.3-7.1.3-8.4,2s-.5.9-.4,1.1,1.4,1.2,3.4,1.2h-.3a1.7,1.7,0,0,0-1.3.7c-.2.2-.4.7-.7.8h-.4c-.8.1-1.2.7-1.9,1.1a14.7,14.7,0,0,1-2.2,1c-.6.5-1,1.2-1.6,1.6s-1.6.4-2.2.7-1.2,1.1-1.8,1.4-1.6.3-2.2.6-1.3,1-2,1.2-1.5.2-2.2.5a19.8,19.8,0,0,1-2,1.1c-.7.3-1.5.3-2.2.6s-1.2,1-1.8,1.3-1.5.5-2.1.9-.8,1.2-1.4,1.7a20.9,20.9,0,0,0-1.7,1.4c-.4.5-.5,1.3-.9,1.9s-1.1,1.1-1.3,1.8a13,13,0,0,0-.4,2.1,11.9,11.9,0,0,0-.8,2c0,.7.4,1.4.4,2.1a14.8,14.8,0,0,0,.1,2.1c.1.1.1.3.2.4l.7.8-.3,1.3a1.4,1.4,0,0,0-.1.9c0,.7.6,1.2.7,1.8s0,1.6.3,2.2,1,.5,1.4.9.7,1.2,1.3,1.3h.5a7.4,7.4,0,0,1,1.2,2.9c.3.7.2,1.8.6,2.6s1,.2,1.4,1.5h0a2.3,2.3,0,0,0,3.2-.4,1.6,1.6,0,0,0,.4-.7l-.9-.2.3-.4a1.5,1.5,0,0,0-1.3-.1c-.3-.7-.9-1-1.4-2.3a11.1,11.1,0,0,1-.7-3.1h.2c.1.3.1.6.2.9l.3.8c.5.5,1.3.7,1.9,1.3s.7,1.2,1.3,1.5,1.4.1,2,.2,1.3.7,2,.6h.5l.3,1.1a23.8,23.8,0,0,0,.5,2.6c.4.8,1.1.3,1.4,1.6h0a2.6,2.6,0,0,0,3.3-.4h0l.2-.3h0c.1-.1.1-.2.2-.4h-.9a.1.1,0,0,1,.1-.1h0c0-.1.1-.2.2-.3a2,2,0,0,0-1.3-.2,12.1,12.1,0,0,1-1.4-2.3,5.6,5.6,0,0,1-.4-1.2c-.1-.3-.1-.5-.2-.8h0a6.6,6.6,0,0,0,2-.6c.8-.5,1.2-1.4,1.9-2s1.6-.9,2.2-1.5.7-1.7,1.2-2.4a10.6,10.6,0,0,1,1.5-1.5l.4-.5h0l1-.4.5-.2.6-.3c.8-.6,1.4-1.4,2.2-2.1s1.8-.9,2.6-1.5L49,40.3v.4c.2.6.6.5.7,1s-.5.7.1,1.4h0a2.4,2.4,0,0,0,3.2-.4h.1c0-.1.1-.2.1-.3a.1.1,0,0,0,.1-.1c.1-.1.1-.2.2-.4h-.8c0-.1.1-.2.1-.3a1.2,1.2,0,0,0-1-.2,2.1,2.1,0,0,1-.4-1.1,7.1,7.1,0,0,1-.1-1.4h.1c0-.1.1-.1.1-.2h.1l.2-.2h.1c0-.1.1-.1.2-.2h0l.3-.3h0c0-.1.1-.1.1-.2l.2.2c.2.1.4,0,.6,0h.4c.3.1.5.6.8.6s.7-.3,1-.4h.2v.7c.1,1.2.6.6.6,2.5s-.4,3.1-.2,3.7.6.5.6,1-.4.7.2,1.4h0a2.5,2.5,0,0,0,3.2-.4h0c.1-.1.2-.2.2-.3h.1c0-.1.1-.2.1-.4h-.9v-.2a.2.2,0,0,0,.2-.2,1.4,1.4,0,0,0-1.1-.2,3.5,3.5,0,0,1-.3-1.2,10.8,10.8,0,0,1,.3-5.3c.1-.6.5-.8.7-1.6v-.8a20.9,20.9,0,0,0,1-2.1c.4-.7-.4-1.7-.1-2.5s1.6-1.1,1.8-1.9-.8-1.2-1-1.9h0c0-.2.1-.4.1-.6v-.5a3.7,3.7,0,0,1,.1-1.1.7.7,0,0,0-.1-.5.2.2,0,0,1,.2-.2,1.5,1.5,0,0,1,.6-.5c.2-.1-.5-.1-.9-.2a4,4,0,0,0,.3-1.5v-.5a2.3,2.3,0,0,0,.8.7l.8-.5a9.3,9.3,0,0,0,2.2-3,5,5,0,0,0,2.8-.1C69.3,18.9,71.4,16.9,70.7,15.2Z"/></g></g></g></svg>