<svg xmlns="http://www.w3.org/2000/svg" viewBox="0 0 91 101"><defs><style>.cls-1{fill:#4e342e;}.cls-12,.cls-2{fill:#724e47;}.cls-18,.cls-2,.cls-8,.cls-9{stroke:#5b352c;stroke-miterlimit:10;stroke-width:0.3px;}.cls-3{fill:#3e2723;}.cls-4,.cls-8{fill:#d7ccc8;}.cls-5{fill:#774d43;}.cls-6{fill:#6f4d42;}.cls-18,.cls-7{fill:#f1e8e6;}.cls-10,.cls-9{fill:#855d52;}.cls-11{fill:#5b352c;}.cls-13{fill:#4c2822;}.cls-14{fill:#704139;}.cls-15{fill:#e57050;}.cls-16{fill:#151515;}.cls-17{fill:#fff;}</style></defs><g id="Layer_92" data-name="Layer 92"><g id="Duck_poses_01_F_03_" data-name="Duck poses 01 ( F 03 )"><path class="cls-1" d="M31.7,75.6c.8.9,3,1,4.5.3a1.8,1.8,0,0,0,1-1.1l-4-1.7L31.8,75C31.6,75.1,31.6,75.4,31.7,75.6Z"/><path class="cls-2" d="M33.1,73.4c.5,2,4.1,1.5,4.1,1.5l-.3-1.3c-.2-.9.8-1.4.8-2.5s-1.2-.7-2.2-4.6c0-.3-.2-.9-.3-1.6-1.2-6-4.5-25-4.5-25l-7.9,1.2c2.1,8.5,4.3,11.7,6.4,16.4,1.2,2.8,2.3,5.6,3.2,8.4s1.2,4.2,1.3,4.7C34.4,72.6,33,72.9,33.1,73.4Z"/><path class="cls-3" d="M31.7,75.6c.8.9,3,1,4.5.3-.3,0-3.6-.6-3-2.8L31.8,75C31.6,75.1,31.6,75.4,31.7,75.6Z"/><path class="cls-4" d="M33.1,73.4c.5,2,4.1,1.5,4.1,1.5l-.3-1.3c-.2-.9.8-1.4.8-2.5s-1.2-.7-2.2-4.6c0-.3-.2-.9-.3-1.6A2.8,2.8,0,0,1,34,66.3a1.9,1.9,0,0,1-1.6-.4c.7,2.5,1.2,4.2,1.3,4.7C34.4,72.6,33,72.9,33.1,73.4Z"/><path class="cls-4" d="M33.1,73.4c.5,2,4.1,1.5,4.1,1.5l-.3-1.3c-.2-.9.8-1.4.8-2.5s-1.2-.7-2.2-4.6c0-.3-.2-.9-.3-1.6A2.8,2.8,0,0,1,34,66.3a1.9,1.9,0,0,1-1.6-.4c.7,2.5,1.2,4.2,1.3,4.7C34.4,72.6,33,72.9,33.1,73.4Z"/><path class="cls-5" d="M24.2,11.6c1.5,1.6,2.6-.3,2.7-.5a7.6,7.6,0,0,0,.6-1.6,10.7,10.7,0,0,0-.2-4.7,18.6,18.6,0,0,0-1-2.5L26,2.1c-.2.1-.3.2-.3.4s-.1.7-.1,1a24.3,24.3,0,0,1-1.9,4.7A2.6,2.6,0,0,0,24.2,11.6Z"/><path class="cls-1" d="M76.8,88.2a2.5,2.5,0,0,1-.8,1.2c-1.3.8-3.5,1.1-4.4.4a.4.4,0,0,1-.1-.6l1.1-2Z"/><path class="cls-6" d="M55.5,55l4.6-2L58,48.1c3.9-.3,9.5,1.5,11.4,5.7s.4,4.8,1.8,9.8c.9,3.4,4.6,5.5,5.1,6.7s.1,1.1-.3,7.7a2.5,2.5,0,0,1-.1.8v.6c-.1,3.6.9,3.3.9,4.6s-.8,1.1-.6,2.2.9,1.1.8,1.6-.1.3-.2.4-4.1.2-4.2-1,.2-.7.4-1.7a40.1,40.1,0,0,0-.2-6v-.2a40,40,0,0,0-1.3-6.9c-.7-1.6-4.3-1.8-8.3-6.1A46.1,46.1,0,0,1,55.5,55Z"/><path class="cls-3" d="M71.5,89.8c.9.7,3.1.5,4.5-.4-.4,0-3.6,0-3.4-2.2l-1.1,2A.4.4,0,0,0,71.5,89.8Z"/><path class="cls-7" d="M72.6,87.2c.1,1.2,3.5,1.8,4.2,1s.1-.2.2-.4-.7-.8-.8-1.6.6-1,.6-2.2-1-1-.9-4.6c-.2-.3-.5-.4-.7-.1s-.3.7-.6.9-1.3-.4-1.8-.7a40.1,40.1,0,0,1,.2,6C72.8,86.5,72.5,86.9,72.6,87.2Z"/><path class="cls-8" d="M64,55.3a5.4,5.4,0,0,0-.5-1.1,3.7,3.7,0,0,0-3-2.4h-1L58,48.1c3.9-.3,9.5,1.5,11.4,5.7s.4,4.8,1.8,9.8c.9,3.4,4.6,5.5,5.1,6.7s.1,1.1-.3,7.7a2.5,2.5,0,0,1-.1.8v.6c-.1,3.6.9,3.3.9,4.6s-.8,1.1-.6,2.2.9,1.1.8,1.6-.1.3-.2.4-4.1.2-4.2-1,.2-.7.4-1.7a40.1,40.1,0,0,0-.2-6v-.2a40,40,0,0,0-1.3-6.9c-.7-1.6-4.3-1.8-8.3-6.1.3-1.6.7-3.1,1-4.6A13.9,13.9,0,0,0,64,55.3Z"/><path class="cls-9" d="M17.5,8.5a3.8,3.8,0,0,0-1.3.9,5.7,5.7,0,0,0-1.1,2.2,11.1,11.1,0,0,0,.6,8.4,9.3,9.3,0,0,1,4.5,3.6c1.9,2.9,1.1,6.5,1.4,9.6a7.5,7.5,0,0,1-.4,2.6h0a3.1,3.1,0,0,1-.2.8,1.9,1.9,0,0,1-.2.8,20,20,0,0,0-.5,2.6,21.8,21.8,0,0,0-.4,4.4h0c0,.3.1.5.1.8v.4a1.9,1.9,0,0,1,.1.8c.1.1.1.2.1.4s.1.4.2.6v.3l.4,1a7.8,7.8,0,0,0,.5,1.4l.2.3h0a12.4,12.4,0,0,0,1.7,2.7,33.9,33.9,0,0,0,5.3,3.8h.1a59,59,0,0,0,6.9,4l1.1.6h0l2.9,1.1h0l1,.3,2.5.7a27.9,27.9,0,0,0,12.2.6h0a20.7,20.7,0,0,0,3.3-1h.8c2.1.1,4.3,4.4,6.4,4l2.7-.6c.1,0,.2,0,.2-.1h.1l1.6-.4h.5l1.3-.5h0l1.2-.4c.1,0,.1,0,.1-.1l.6-.2a16.9,16.9,0,0,0,2.7-1.3l.7-.5A4.9,4.9,0,0,0,80,59.6h0V57.4c0-.4-.1-.9-.1-1.3l-.3-1.4a7.7,7.7,0,0,0-.2-1.5,10.3,10.3,0,0,0-.4-1.4,23.7,23.7,0,0,0-3-6.2,18.4,18.4,0,0,0-4.4-4.4l-1-.6a19.2,19.2,0,0,0-8.1-2.5c-5.8-.6-11.2.9-17.3-2.7a13.7,13.7,0,0,1-2-1.3,13.4,13.4,0,0,1-3.1-3.2l-.3-.3-1.5-2.3c-2.8-4.7-5.2-10.9-7.3-15.9l-1.1-.6a5.7,5.7,0,0,0-1.1-1.1c.3.1.5.1.7.3l1.2.5-.3-.5-1.2-.8-1.9-.7-.4-.3a8.4,8.4,0,0,0-4.1-1.4,8.2,8.2,0,0,0-3.5.4Z"/><path class="cls-10" d="M10.3,27.5a4.1,4.1,0,0,0,1.3,1,2,2,0,0,0,2.3-.7c1.2-1.4,1.4-.8,4.2-2a3.5,3.5,0,0,0,2.1-2.3,7.9,7.9,0,0,0,.6-2.2L20,18,18.2,9.6a12.5,12.5,0,0,0-1.9,2,17.7,17.7,0,0,0-3.4,5c-.4,1.2-1.2,4.2-1.9,5.1s-.3.3-.5.5l-.8.8C9,23.6,8.7,25.5,10.3,27.5Z"/><path class="cls-11" d="M10.4,23h.1a.1.1,0,0,1,.1.1c-.1,1.4-.4,2.5-1,1.7S9.8,23.7,10.4,23Z"/><path class="cls-12" d="M28.6,52.7v4.4c3.3,2,13.6,9.5,26.6,7.4l-1,.4,1-.3c.1-1.1-.1-5.8.2-8s-.4-2.1-3.5,1.1S38.4,62.9,28.6,52.7Z"/><path class="cls-1" d="M54.3,92.2a2.9,2.9,0,0,1-1.3.5c-1.6-.1-3.5-1.1-3.9-2.2a.4.4,0,0,1,.3-.6l2-1Z"/><path class="cls-9" d="M55.7,55.7c-1.5,10,3.8,18.7,3.4,20.4A44.9,44.9,0,0,1,56,82.8a31.7,31.7,0,0,1-3.2,4.9c-.7.8-1.2.9-1.4,1.2s.2,1.4.8,2.1,1.6,1.3,2.1,1.2.2-1.1.7-2.1,1.1-.4,1.7-1.3-.2-1.5,1.8-4.2L59,84c4.7-5.9,5-5.5,5.3-6.8s-1.2-4-.9-6.8a.4.4,0,0,1,.1-.3c.1-.5,1-2.4,1.2-2.9"/><path class="cls-3" d="M49.1,90.4c.3,1.2,2.2,2.2,3.9,2.3-.3-.2-3-2.1-1.5-3.8l-2.2,1A.4.4,0,0,0,49.1,90.4Z"/><path class="cls-7" d="M51.4,89c-.5.9,1.8,3.4,2.9,3.2s.2-1.1.7-2.1,1.1-.4,1.7-1.3-.2-1.5,1.9-4.2c-.6.1-1.7.1-2-.3s0-1.2-.6-1.5a31.7,31.7,0,0,1-3.2,4.9C52.1,88.5,51.6,88.6,51.4,89Z"/><path class="cls-11" d="M72.5,69.4h.3a12.2,12.2,0,0,1,.1-2.7,25.1,25.1,0,0,0,.4,2.7,14.9,14.9,0,0,0,.9,3,6.9,6.9,0,0,1,.4,1h.2c-.2-1.2-.4-2.5-.5-3.7a9.3,9.3,0,0,0,.5,1,14.4,14.4,0,0,0,.8,4.6c0,.1.1,0,.1,0a11.4,11.4,0,0,0,.2-2.6v-.2a35.3,35.3,0,0,0,0,4.6,9.1,9.1,0,0,0,1-3.3c-.1,1.6-.2,3.2-.2,4.8h.1l.3-2.5a1.7,1.7,0,0,1,.1.7,14.1,14.1,0,0,0,.1,1.8,12.8,12.8,0,0,0,1.4-3.4c0,.8.1,1.6.1,2.3h.2c0-1.2,0-2.5.1-3.8a18.6,18.6,0,0,0,.5-2.7l.3,4.2h.3c.2-2.6.1-7.5.1-8a39.7,39.7,0,0,1,.7,4.8,60.1,60.1,0,0,0-.9-8.3c-.4-2.7.2-5.6.1-8.3a14.9,14.9,0,0,0-1.6-6.9c-.9-1.8-3.9-4.4-5.1-3.7s.5,3.4.7,4.5a22.9,22.9,0,0,1,0,6.4c-.4,2.3-1,4.6-1.5,6.9a5,5,0,0,0,.8-1.2c-.1.1-.1.1-.1.2a6.4,6.4,0,0,1-.2.7A14.4,14.4,0,0,0,72.5,69.4Z"/><path class="cls-13" d="M73.3,62.3a6.4,6.4,0,0,0,.2-.7c0-.1,0-.1.1-.2L73,62.6c.3-2.3.9-4.6,1.3-6.9a22.9,22.9,0,0,0,0-6.4c-.2-1.1-2.1-3.5-.8-4.5s-.2.8-.1,1.2a26,26,0,0,1,2.9,6.2c.3.8,1.4,4.7,1.9,6h-.3a17.4,17.4,0,0,1-1-1.9c-.1,2.4-.6,4.8.6,7.1a7.7,7.7,0,0,1-1.7-3.8c0,.1-.1.1-.1.2.4,1.9.9,3.7,1.4,5.5a16.3,16.3,0,0,1,1.3,4.8c.1.2-.3.2-.3,0A20.5,20.5,0,0,0,76.5,66l.5,1.7a12.6,12.6,0,0,1,.6,5.1,26.9,26.9,0,0,0-.3,4,1.7,1.7,0,0,0-.1-.7l-.3,2.5h-.1c0-1.6.1-3.2.2-4.8a10.2,10.2,0,0,1-.9,3.3,23.7,23.7,0,0,1-.1-4.6v.2a11.4,11.4,0,0,1-.2,2.6s-.1.1-.1,0a14.4,14.4,0,0,1-.8-4.6,9.3,9.3,0,0,1-.5-1c.1,1.2.3,2.5.5,3.7h-.2l-.3-.9a11.2,11.2,0,0,1-1-3.1,25.1,25.1,0,0,1-.4-2.7,12.2,12.2,0,0,0-.1,2.7h-.3A14.4,14.4,0,0,1,73.3,62.3Z"/><path class="cls-6" d="M21.5,50.6h.2l.6-2.7c-1.4-3.8-1.1-11.6-1.1-12.1C20.4,39.5,18.6,44.7,21.5,50.6Z"/><path class="cls-14" d="M18.8,16.3a.4.4,0,0,0,.1-.3l-.3-.2c-.8-.4-2.4-1.4-3.5,1.5C15.1,17.3,17.2,19.8,18.8,16.3Z"/><path class="cls-15" d="M16.1,17.4s1.2.4,1.6-.1.1-.8.6-1h-.6a1.5,1.5,0,0,0-1.3,0,.8.8,0,0,0-.3,1.1Z"/><path class="cls-16" d="M16.1,17.2a1.1,1.1,0,0,0,1.5-.2,1.1,1.1,0,0,0,.1-.8,1.5,1.5,0,0,0-1.3,0A.7.7,0,0,0,16.1,17.2Z"/><path class="cls-17" d="M16.4,17h.3a.2.2,0,0,0,0-.3.3.3,0,0,0-.4,0h0C16.2,16.7,16.3,16.9,16.4,17Z"/><path class="cls-11" d="M19.3,8.2a8.2,8.2,0,0,1,3.5-.4,8.4,8.4,0,0,1,4.1,1.4l.4.3,1.9.7,1.2.8a1.6,1.6,0,0,0,1.3.3h.1a1.1,1.1,0,0,1-1.1.1L29.5,11c-.2-.2-.4-.2-.7-.3a5.7,5.7,0,0,1,1.1,1.1l1.1.6a6.4,6.4,0,0,1,2.5,2.9c.1.1-.1.2-.1.1a10.5,10.5,0,0,0-1.7-1.9,28.4,28.4,0,0,1,3.2,5h0a10.1,10.1,0,0,1-2.2-2.8c.4,1,.9,1.9,1.4,2.9a6.7,6.7,0,0,1,1.4,1.5,4.2,4.2,0,0,0,1.4.9c.1.1,0,.2-.1.2l-1-.5a5,5,0,0,1,.6,3.1,8.6,8.6,0,0,1,1.4,1.3,10.8,10.8,0,0,1,2,4h-.2a10.2,10.2,0,0,0-1.3-2.8,5.7,5.7,0,0,0-1.6-1.5,22.1,22.1,0,0,1,1.6,3.5,12,12,0,0,1,.7,4.2,1.1,1.1,0,0,1-.1.5c.1.1.1.3.2.4A11,11,0,0,0,41,35.9h0a3.6,3.6,0,0,1-1.2-.8l.6,1.6.2.3c0,.1.1.1.1.2l-.7-.4a13.8,13.8,0,0,1-2.8-1.9A9.1,9.1,0,0,0,39,37a7.9,7.9,0,0,1-2.2-1.9,12.4,12.4,0,0,0-.3,2.7,5.5,5.5,0,0,0,.2,1.8c0,.1-.2.2-.2.1a5.8,5.8,0,0,1-.4-1.8,11,11,0,0,1-.2-1.8,6.4,6.4,0,0,0-.3,2A10.1,10.1,0,0,0,36,41a21.5,21.5,0,0,1-1.4-2.6,8.8,8.8,0,0,1-.7-3.2c0,.2-.1.3-.1.5a13.7,13.7,0,0,0,.2,2.9c0,.4.1.7.1,1s-.1.2-.1.1a3.6,3.6,0,0,1-.4-.9c-.2-.5-.3-1-.5-1.6a7.7,7.7,0,0,1-1,1.8,9.2,9.2,0,0,0,.9-2.3v-.2a9.1,9.1,0,0,1-2.3,2.8,23,23,0,0,0,.5-4.5,2.9,2.9,0,0,1-.2.9h0a7.8,7.8,0,0,1-2.1,5.2c-.1.1-.2,0-.2-.1a8.9,8.9,0,0,0,.8-1.7,3.9,3.9,0,0,1-.8,1h-.1c1.3-1.8,1.1-4,.9-6.1a15,15,0,0,0-.5,3.7c0,.1-.1.1-.2.1h-.2a19,19,0,0,1,.5-5.8,9.6,9.6,0,0,1-2.9,2.4,14,14,0,0,0,2.4-6.9,22.8,22.8,0,0,1-2,4.5h-.1a.1.1,0,0,1-.1-.1A17.1,17.1,0,0,0,28.2,24a18.7,18.7,0,0,1-2,5.1h-.1a32.6,32.6,0,0,0,1.5-4.4l-.8,1.1c-.9,1-2.3,1.7-2.9,2.9s-.2,0-.2-.1c.8-1.6,2.3-2.6,3.1-4.2s.3-.7.4-1.1a6.7,6.7,0,0,1-2.8,2.5,22.6,22.6,0,0,0,.3-8.2,25.9,25.9,0,0,1-.9,6.8h-.2a28.6,28.6,0,0,0-.5-9.7,16.8,16.8,0,0,1-.1,6.7c0,.1-.1.2-.2.1a.1.1,0,0,1-.1-.1,40.5,40.5,0,0,0-.5-6c-.1,1-.2,2.1-.4,3.1s-.2,0-.2-.1,0-2.3-.1-3.5a8.8,8.8,0,0,1-.2,1.7c0,.2-.3.1-.2-.1a12.8,12.8,0,0,0-.2-3.9,9.3,9.3,0,0,0-.5-1l-.4-.8L18.7,9l-.6-.4ZM34.8,20.3a24.4,24.4,0,0,1,1,2.4c.1.2.1.5.2.7a4.7,4.7,0,0,0-1.2-3.1Zm3.8,11.6a15,15,0,0,0-1.4-5c-.1-.1-.1-.3-.2-.4a52.1,52.1,0,0,0,1.6,5.4Z"/><path class="cls-11" d="M10.8,16.5a9,9,0,0,0,.8-2.1,9.4,9.4,0,0,0,.1,2.9,10.1,10.1,0,0,0,.7,2.3,5.8,5.8,0,0,1,.2-2.3,6,6,0,0,0,0,1.9c0,.2.2.1.2,0a23.4,23.4,0,0,1,.4-2.6v.9A17.5,17.5,0,0,1,14.8,15l-.3,1.2.9-1.3v1.9s.8-3.4,2.3-4.9a1.5,1.5,0,0,0,.4-.9,2.1,2.1,0,0,0-1-1.4l.9-.7a.2.2,0,0,0,0-.3h-.2a9.5,9.5,0,0,0-3.9,1.6,8.1,8.1,0,0,0-2.5,3A8.5,8.5,0,0,1,13,11.4l-.4.5L11.8,13A5,5,0,0,0,10.8,16.5Z"/><path class="cls-5" d="M15.9,9.9a8.6,8.6,0,0,0,.6,2.3,3.5,3.5,0,0,0,.7,1.2l.3.5a1.1,1.1,0,0,0,.9.5H19a2,2,0,0,0,1.4-1.7,3.2,3.2,0,0,0-.6-2.7,3.5,3.5,0,0,0-.5-.8c-.8-.9-1.6-1.3-1.8-3q-.2-.3-.3-.3h-.3c0,.1-.1.1-.1.2A6.8,6.8,0,0,0,15.9,9.9Z"/><path class="cls-1" d="M13.4,70.3c-.2,1,.9,2.5,2.1,3.2a2.4,2.4,0,0,0,1.2.1l-.9-3.5h-2C13.6,70,13.5,70.1,13.4,70.3Z"/><path class="cls-9" d="M28.2,53.8c-1.5,4-3.2,8.5-4.4,11.9l-3.9,1.9c0-.2.1-.3.1-.5a68.3,68.3,0,0,0,1.3-7.7c.5-4.2.3-7.5,1.6-13"/><path class="cls-10" d="M23.9,65.5h0l-1.7,1.9-.9,1c-2,2.6-1.2,3.1-1.9,3.7s-1.6.1-2.1.7l-.6.8s-2.2-2.1-1.2-3.4,1.2.5,2.2-1,1.2-1.6,2.5-3.4h.1Z"/><path class="cls-3" d="M13.4,70.3c-.2,1,.9,2.5,2.1,3.2s-1.4-2.7.3-3.4h-2C13.6,70,13.5,70.1,13.4,70.3Z"/><path class="cls-18" d="M15.5,70.1c-1,1.3,1.1,3.5,1.1,3.5l.7-.8c.5-.7,1.4-.2,2.1-.8s-.1-1.1,2.1-3.7l.9-1.1a2.4,2.4,0,0,1-1.1-.6c-.4-.5-.3-.9-.6-1.4-1.5,2.1-2.7,3.5-2.9,3.9S15.8,69.7,15.5,70.1Z"/></g></g></svg>