<svg id="Layer_1" data-name="Layer 1" xmlns="http://www.w3.org/2000/svg" xmlns:xlink="http://www.w3.org/1999/xlink" viewBox="0 0 100.8 152.1"><defs><style>.cls-1{fill:#efb49a;}.cls-1,.cls-4{stroke:#9e4d2d;stroke-miterlimit:10;}.cls-2{fill:#d0e8ec;opacity:0.4;}.cls-3{opacity:0.8;}.cls-4{fill:url(#linear-gradient);}.cls-5{fill:url(#linear-gradient-2);}.cls-6{fill:#933d18;}.cls-7{fill:#231f20;}.cls-8{fill:#d82e2a;}.cls-9{fill:#b22424;}.cls-10{fill:#ef4136;}</style><linearGradient id="linear-gradient" x1="-28.84" y1="191.76" x2="41.92" y2="191.76" gradientTransform="translate(34.2 -116.1) rotate(-2.8)" gradientUnits="userSpaceOnUse"><stop offset="0.19" stop-color="#ffd"/><stop offset="0.26" stop-color="#fff6d8"/><stop offset="0.41" stop-color="#ffe8cf"/><stop offset="0.54" stop-color="#ffe3cc"/><stop offset="0.67" stop-color="#ffe8d2"/><stop offset="0.83" stop-color="#fff8e3"/><stop offset="0.89" stop-color="#ffffea"/></linearGradient><linearGradient id="linear-gradient-2" x1="3.99" y1="127.67" x2="16.72" y2="127.67" gradientTransform="translate(34.2 -116.1) rotate(-2.8)" gradientUnits="userSpaceOnUse"><stop offset="0.14" stop-color="#ffe3cc"/><stop offset="0.3" stop-color="#ffddc9"/><stop offset="0.51" stop-color="#ffccbf"/><stop offset="0.52" stop-color="#ffccbf"/><stop offset="1" stop-color="#ffe3cc"/></linearGradient></defs><path class="cls-1" d="M71.3,77.2c5.3,2,7.4,12,8.8,16.4,2.8,10.2,7.2,19.8,15,27.8v-.3C88.8,118.6,79.8,109,76.1,103c.4,3.7,3.4,6.9,5.6,9.9-4.8-2.6-7.3-6.3-10.6-10.1.6,2.8,2.4,5.6,3.7,8.3C60.7,102,57.1,83,71.3,77.2Z"/><path class="cls-2" d="M66.4,131.6c5.2,1.3,32.2,14.6-51.6,10.9C47.8,146.6,112.3,142.2,66.4,131.6Z"/><path class="cls-1" d="M21.6,109.4c-6-.7-11.7,1.9-18.7-1.3,1.7,5,6.1,7.8,10.6,10.6a23.8,23.8,0,0,0-4-.7c.8,1.3,2.2,1.9,4.1,2.4a8.6,8.6,0,0,0-1.6,0c1.6,2.3,8.5,4.9,10.7,2.3s-.8-8.4-.6-10.6Z"/><path class="cls-4" d="M81.5,37.6a37.6,37.6,0,0,1-6.7-8.3c-2.3-3.8-4.5-7.5-8.2-10.2s-9-5.7-15.5-5.4a34.2,34.2,0,0,0-14.5,3.7c-5.2,2.9-9.3,7.7-10.7,13.1s.5,9.5.6,14.1a32,32,0,0,1-.3,5.4c-.5,2.8-3.2,4.7-1.6,7.5s5.4,4.4,8.7,5.7a43.7,43.7,0,0,0,14,2.3c-.6,7.7-5.7,15.6-11.3,21.4C25.7,97.6,6,121.8,24.7,133.1s41.8-2.9,49-16.3c4.9-9.1,4.6-23,1.8-32.7-2.3-7.7-6.6-14.9-8.4-22.8a39.4,39.4,0,0,0,9-6.9,28.4,28.4,0,0,0,6.4-8.7,11.9,11.9,0,0,0,1.3-4.8C83.9,39,83,38.8,81.5,37.6Z"/><path class="cls-5" d="M44.8,14.7C47.4,10.5,53.2,9.6,55,4.6c1.3,2-.1,4.5-1.4,6.2A15,15,0,0,0,56,9c.4,1.1-.6,2.4-1.5,3.4A5.4,5.4,0,0,0,57.2,11c-.2,7.4-7.6,4.5-12.5,6.2Z"/><path class="cls-6" d="M44.8,14.7c2.3-4.2,8.2-5.5,9.8-10.3l.3-.7.5.7A4.1,4.1,0,0,1,55.7,8a10.5,10.5,0,0,1-1.8,3.1l-.6-.7a10.8,10.8,0,0,0,2.4-1.8l.6-.5.2.8c.4,1.5-.8,2.8-1.7,3.8l-.4-.7a8.2,8.2,0,0,0,3.3-2c0,3.7-1.2,6.2-5.2,6.6s-5.3,0-7.9.8v-.2l.2-2.5Zm0,0v2.5h-.1c2.5-.9,5.2-.7,7.7-1.2s4.3-2.1,4.3-4.9l.8.4a8.6,8.6,0,0,1-4.3,1.8l.9-1.1c.7-.8,1.7-1.9,1.5-3l.8.3a28.8,28.8,0,0,1-4.7,3c1.5-2.1,4.5-4.9,3-7.6h.7c-1.8,5-7.8,6-10.6,10Z"/><path class="cls-7" d="M57.3,39.5c.9,1.5.9,3,.1,3.4s-2.3-.4-3.2-1.9-.9-3-.1-3.4S56.3,38,57.3,39.5Z"/><path class="cls-7" d="M75.2,30.5c.7,1.6.6,3.1-.3,3.5s-2.2-.6-2.9-2.2-.6-3.1.2-3.5S74.4,29,75.2,30.5Z"/><path class="cls-8" d="M75.3,37.6H75a7.4,7.4,0,0,0-4.6,1,7.9,7.9,0,0,0-3.2,4c-1.1,2.6,1.5,5,4.1,5.5s4.7,0,7,.4,4.9,1.6,4.1-1.9a14.7,14.7,0,0,0-3.5-5.7C77.9,39.6,76.9,38,75.3,37.6Z"/><path class="cls-9" d="M70.1,43.4c.2,1.1,1.8,1.5,2.8,1.5,2.6.3,4.3-.4,6.4,1.3.2-1.2-3-6-4.3-6s-1.6,1.8-2.2,2.3a8.9,8.9,0,0,1-2.4.9Z"/><path class="cls-10" d="M75.7,25.2c-1.1,1.5.4,4.3-1.1,6.3s-3.4,2.3-5.1,3.6a9.8,9.8,0,0,0-1.8,2.1c-1.5,2.1-2,7.6.8,7.8s3.5-1.6,4.9-2.7,3.3-2.3,5-3.4,4.4-4.9,3.4-8.3C81.4,29,77.5,22.5,75.7,25.2Z"/><path class="cls-1" d="M29.4,98S42.8,86.5,45.8,78.1c0,0,9.7,15.8,1.5,37.3,0,0,.2-7.8-1.5-12,0,0-.3,14.4-3.2,18.5,0,0,.7-8.8-.8-14.3,0,0-.5,15.2-6.6,18.3C35.2,125.9,33.1,103.2,29.4,98Z"/></svg>