<svg xmlns="http://www.w3.org/2000/svg" viewBox="0 0 84 66"><defs><style>.cls-1{fill:#f89f1f;}.cls-2{fill:#d99728;}.cls-15,.cls-3{fill:#fbe508;}.cls-12,.cls-3,.cls-5{stroke:#bcaf32;stroke-miterlimit:10;stroke-width:0.3px;}.cls-4{fill:#e9c01e;}.cls-14,.cls-5{fill:#fcd60a;}.cls-6{fill:#faa629;}.cls-7{fill:#fff;}.cls-8{fill:#383838;}.cls-9{fill:#ffcb29;}.cls-10{fill:#f78c1e;}.cls-11{fill:#f3c714;}.cls-12{fill:#f05223;}.cls-13{fill:#d84326;}</style></defs><g id="Layer_87" data-name="Layer 87"><g id="Duck_poses_06_F_02_" data-name="Duck poses 06 ( F 02 )"><path class="cls-1" d="M40.4,39.6a6.2,6.2,0,0,1-.9,1.1l-.4.4a7.5,7.5,0,0,1,1.5.7c.3.2-.9-.2-1.4-.2s1,2.6.6,2.1-1-2.1-1.3-2.2a6,6,0,0,0-2.1.5c-.4.2,1-.8,1.7-1.1l-1-1.3a5.7,5.7,0,0,1,1.6,1.3l.6-.6,1-1.3Z"/><path class="cls-2" d="M38.1,40.9l-1-1.3A9.2,9.2,0,0,1,38.5,41h.2l.6-.6.8-1v.4l-.8,1.1-.4.4a5.2,5.2,0,0,1,1.4.6l-1.1-.2a.1.1,0,0,0,.1.1h0s.4,1.4.5,2.1a22,22,0,0,0-1.3-2.4l-1.5.3-.6.3A10.1,10.1,0,0,1,38.1,40.9Z"/><path class="cls-2" d="M41.8,38.3l-1.7,2s-.5,0-.6-.4l1.8-2.3Z"/><path class="cls-1" d="M41.8,38.3l-1,1.2c-.3-.1-.5-.2-.4-.8l.9-1.1Z"/><path class="cls-3" d="M45,35.1a2.5,2.5,0,0,1-.1,2.3A5,5,0,0,1,42.4,39a3,3,0,0,1-.9.3,1.4,1.4,0,0,1-.9-.6c-.3-.5-.3-.6-.2-.8a9.3,9.3,0,0,1,.9-3.2C41.6,34.3,43,33.9,45,35.1Z"/><path class="cls-4" d="M45.6,34.6a2.5,2.5,0,0,1-.1,2.3A3.6,3.6,0,0,1,43,38.5a3.8,3.8,0,0,1-1.8-.3c-.6-.5-.9-.9-.8-1.1a8,8,0,0,1,1.5-2.9C42.2,33.8,43.6,33.4,45.6,34.6Z"/><path class="cls-1" d="M43.1,40.8a15.1,15.1,0,0,1,.6,1.5,5.6,5.6,0,0,0,.1.7,7.1,7.1,0,0,1,1.5-1c.4-.2-.7.8-1,1.2s3,.8,2.3.8-2.6-.4-2.8-.2a4.5,4.5,0,0,0-.9,2.2c-.1.6-.2-1.4,0-2.2H41.1a6.6,6.6,0,0,1,2.2-.7,5.6,5.6,0,0,1-.2-1c-.1-.4-.6-1.7-.6-1.7Z"/><path class="cls-2" d="M42.9,43.8H41.1a9.5,9.5,0,0,1,2.1-.4v-.3h0a5.6,5.6,0,0,1-.2-1c-.1-.2-.3-.9-.5-1.3l.4.2a15.1,15.1,0,0,1,.6,1.5,3.5,3.5,0,0,0,.1.6,6.5,6.5,0,0,1,1.4-.9l-.8.9h.1c-.1.1,0-.1,0,0l2.3.8c-.9-.1-2.9-.5-3.1-.3s-.6,1.5-.6,1.7a6.4,6.4,0,0,0-.2.7A9.7,9.7,0,0,1,42.9,43.8Z"/><path class="cls-2" d="M42.8,38.7l.8,2.9a.6.6,0,0,1-.7.2l-1.1-3.1Z"/><path class="cls-1" d="M42.8,38.7l.5,1.7c-.3.1-.5.2-1-.2l-.5-1.5Z"/><path class="cls-3" d="M46.1,34.3a3,3,0,0,1,.4,2.7,6,6,0,0,1-2.6,2.2s-.6.5-.8.5a1.2,1.2,0,0,1-1.2-.5c-.4-.5-.4-.6-.4-.8a13.8,13.8,0,0,1,.4-3.8C42.2,34.1,43.7,33.4,46.1,34.3Z"/><path class="cls-4" d="M46.7,33.7a2.9,2.9,0,0,1,.4,2.6,4.1,4.1,0,0,1-2.6,2.2,2.8,2.8,0,0,1-2,0c-.7-.3-1.2-.8-1.2-1A8.5,8.5,0,0,1,42.5,34C42.8,33.5,44.3,32.7,46.7,33.7Z"/><path class="cls-5" d="M49.1,21.4a3.3,3.3,0,0,0,2-.9,7.4,7.4,0,0,0,1.6-2.8c.1-.5.2-.9.5-1s.8.7,1,1a6.9,6.9,0,0,1,1.1,3.7c-.1,2.2-.1,4.5-.1,7.1"/><path class="cls-6" d="M52,32.9a5.9,5.9,0,0,1-.5,2.3,8.8,8.8,0,0,1-2.4,3.2c-.8.7-3,.6-7-1.2a4.2,4.2,0,0,1-1.4-.6h-.2l-2.6-1.3-.6-.3s12.7-8.8,14.3-5l.3,1.1a3.4,3.4,0,0,1,.1,1A1.4,1.4,0,0,1,52,32.9Z"/><path class="cls-3" d="M55.2,27.9v.9c.2,3.2-1,5-3.7,6.4a30.2,30.2,0,0,1-5.3,1.7,13.9,13.9,0,0,1-4.1.3,15.9,15.9,0,0,1-5.4-1.3,11.8,11.8,0,0,1-1.9-1.1A6.8,6.8,0,0,1,32,31.1c-.1-.4-.1-.7-.2-1.1l-.2-1.4a19.4,19.4,0,0,1,.5-4.3,4,4,0,0,0,0-1.9,3.6,3.6,0,0,0-1-1.9,2.4,2.4,0,0,1,.6-2,3.6,3.6,0,0,1,1.5-.6c1.7-.2,2.6.3,3.5,2.7s.6,2.8,2.9,2.9h.3a7.7,7.7,0,0,0,3.4-1,45.1,45.1,0,0,1,5.8-1.1"/><path class="cls-7" d="M33.4,19.7c.1.2,0,.4-.2.4s-.4.1-.5-.1,0-.3.2-.4A.4.4,0,0,1,33.4,19.7Z"/><path class="cls-8" d="M33.3,19.8c.1.1,0,.2-.1.3s-.4,0-.4-.1a.2.2,0,0,1,.1-.3C33.1,19.6,33.3,19.6,33.3,19.8Z"/><path class="cls-7" d="M33.2,19.8h-.1A.1.1,0,0,1,33.2,19.8Z"/><path class="cls-9" d="M30.9,20.3a2.8,2.8,0,0,0-.1,1.5H31a1.6,1.6,0,0,1,1.4-.9c.4,0,.5-.1.3-.2S31,20,30.9,20.3Z"/><path class="cls-10" d="M31.8,20.4a.4.4,0,0,1-.1.3c-.1.1-.3.1-.3,0s0-.1.1-.2Z"/><path class="cls-11" d="M51.5,35.2a8.8,8.8,0,0,1-2.4,3.2c-.8.7-3,.6-7-1.2a15.9,15.9,0,0,1-5.4-1.3,12.5,12.5,0,0,0,4,.7c1.1,0,1.9-.2,2.1-.5,2.9,1.2,4.9.1,4.9-.8,3,0,4.3-1.5,4.2-2.4H52c1.5-.4,2.9-1.5,3.2-4.1C55.4,32,54.2,33.8,51.5,35.2Z"/><path class="cls-12" d="M34.5,18.5a1.8,1.8,0,0,1-1-.1,1.8,1.8,0,0,0-1.4.4,2.6,2.6,0,0,0-.7,1.2l-.2.2c-.3.1-.1-1.1-.1-1.2s.1-.4.3-.5.5-.1.5-.4-.1-.4.1-.5h.4c.2,0,.2-.1.2-.3a.3.3,0,0,1,.4-.3c.1,0,.1.1.2.2h.3c.2-.1.2-.3.4-.3s.3.2.4.3.2,0,.3-.1h.5C35.5,17,35.1,18.2,34.5,18.5Z"/><path class="cls-13" d="M34.5,18.5a1.8,1.8,0,0,1-1-.1,1.8,1.8,0,0,0-1.4.4,2.6,2.6,0,0,0-.7,1.2,2,2,0,0,1,1.8-1.9c1.4-.1,2-.4,1.7-.9l-.3-.2h.5C35.5,17,35.1,18.2,34.5,18.5Z"/><path class="cls-14" d="M41.3,28.1A25.9,25.9,0,0,1,49.2,25c3.7-.4,4.4,1.1,4.4,1.1s.5.8-.8,1a4.8,4.8,0,0,1-.6,2.9,8,8,0,0,1-10.6.8A1.9,1.9,0,0,1,41.3,28.1Z"/><path class="cls-15" d="M40.9,28.4a6.2,6.2,0,0,1,2-1.3s8.2-3.7,8.9-1.2c.2.6-.7,1.4-1.6,1.8s.9,1.3-.2,2.4-3.5,3.1-8.1.9l-.4-.2C41,30.4,40.1,29.2,40.9,28.4Z"/></g></g></svg>