<svg xmlns="http://www.w3.org/2000/svg" viewBox="0 0 164 95"><defs><style>.cls-1{fill:#4c2d1d;}.cls-2,.cls-4{fill:#f7f2f3;}.cls-2{stroke:#6f451b;}.cls-2,.cls-5{stroke-miterlimit:10;stroke-width:0.75px;}.cls-3{fill:#271717;}.cls-5{fill:#cd8c80;stroke:#593129;}</style></defs><g id="eye_02"><path class="cls-1" d="M13.3,29.7S26.1,6.9,41.1,10.4c1.1.3.8,5.5,2.1,6s3.1-4.2,3.1-4.2.6,4,.1,5.8-2.1,2.4-3.8,2.3c-10.7-1-25.1,8.4-25.1,8.4C12.6,31.9,11.1,33.4,13.3,29.7Z"/><path class="cls-1" d="M154.5,32.6S137.2,5.6,119.2,11c-1.4.5-.6,6.7-2.1,7.4s-4.1-4.8-4.1-4.8-.4,4.9.3,7,2.7,2.8,4.8,2.5c12.9-2,31.2,8.5,31.2,8.5C155.4,35.1,157.5,36.9,154.5,32.6Z"/><path class="cls-2" d="M41.4,79.6A22.8,22.8,0,0,1,11,66.8,24.5,24.5,0,0,1,23.8,35.3,22.8,22.8,0,0,1,54.2,48,24.6,24.6,0,0,1,41.4,79.6"/><path class="cls-3" d="M45.5,63.8a13.2,13.2,0,0,1-15.8,10c-7-1.7-11.2-9-9.5-16.2A13.2,13.2,0,0,1,36,47.6c7,1.7,11.2,9,9.5,16.2"/><path class="cls-4" d="M42.5,51.5a4.3,4.3,0,0,1-5.1,3.2,4.3,4.3,0,1,1,5.1-3.2"/><path class="cls-2" d="M127.4,87.6A22.8,22.8,0,0,1,97,74.8a24.5,24.5,0,0,1,12.8-31.5A22.8,22.8,0,0,1,140.2,56a24.6,24.6,0,0,1-12.8,31.6"/><path class="cls-3" d="M131.5,70.8a13.2,13.2,0,0,1-15.8,10c-7-1.7-11.2-9-9.5-16.2a13.2,13.2,0,0,1,15.8-10c7,1.7,11.2,9,9.5,16.2"/><path class="cls-4" d="M128.5,58.5a4.3,4.3,0,0,1-5.1,3.2,4.3,4.3,0,1,1,5.1-3.2"/><path class="cls-5" d="M55.8,54.3S42.4,40.5,13.1,44.5c0,0,6.7-14.6,25.3-10.5C38.4,34,54.1,37.7,55.8,54.3Z"/><path class="cls-5" d="M97.8,54.8s28.7-5.2,43.6,5.1c0,0-2.8-17.7-22.5-18.6C118.9,41.3,106.8,40.2,97.8,54.8Z"/></g></svg>