<svg xmlns="http://www.w3.org/2000/svg" viewBox="0 0 84 66"><defs><style>.cls-1{fill:#f89f1f;}.cls-2{fill:#d99728;}.cls-3{fill:#fbe508;}.cls-4{fill:#e9c01e;}.cls-5{fill:#fcd60a;}.cls-6{fill:#faa629;}.cls-7{fill:#fff;}.cls-8{fill:#383838;}.cls-9{fill:#ffcb29;}.cls-10{fill:#f78c1e;}.cls-11{fill:#f3c714;}.cls-12{fill:#f05223;}.cls-13{fill:#d84326;}.cls-14{fill:#baad31;}</style></defs><g id="Layer_86" data-name="Layer 86"><g id="Layer_3" data-name="Layer 3"><g id="Duck_poses_06_F_01_" data-name="Duck poses 06 ( F 01 )"><path class="cls-1" d="M46.8,40.1a12.9,12.9,0,0,1,0,2c0,.2-.1.8-.1.8a6.9,6.9,0,0,1,2.2-.5c.5,0-1.2.6-1.7,1s3.2,2.1,2.4,1.9-2.9-1.6-3.3-1.5a8.4,8.4,0,0,0-2,2.3c-.3.6.5-1.8,1-2.6a14.2,14.2,0,0,0-2.2-.6,8.7,8.7,0,0,1,2.9,0,8.9,8.9,0,0,1,.2-1.1V39.5Z"/><path class="cls-2" d="M45.3,43.5l-2.2-.6,2.7.3a.4.4,0,0,0,.2-.3c0,.1-.1,0,0,0a8.9,8.9,0,0,1,.2-1.1V40l.4.4a12.9,12.9,0,0,1,0,2,2.8,2.8,0,0,0-.1.8,5.9,5.9,0,0,1,2-.5,5.4,5.4,0,0,0-1.3.7h.1c-.1.1.1,0,0,0l2.4,1.9c-1.1-.5-3.2-1.7-3.5-1.6l-1.5,1.6a3.6,3.6,0,0,0-.4.9A9.2,9.2,0,0,1,45.3,43.5Z"/><path class="cls-2" d="M47.3,37.5l-.2,3.7a1,1,0,0,1-1,0V37.1Z"/><path class="cls-1" d="M47.3,37.5v2.2c-.5,0-.8,0-1.1-.6v-2Z"/><path class="cls-3" d="M48.2,31.1s1.9,1,2,2.7-1.7,3.9-1.7,3.9a6.4,6.4,0,0,1-.6,1.1,1.7,1.7,0,0,1-1.6,0,2.4,2.4,0,0,1-1-.6c-.5-1.1-1.7-3.7-1.6-4.4S45,31.4,48.2,31.1Z"/><path class="cls-4" d="M48.5,30s1.9,1,1.9,2.7a5.3,5.3,0,0,1-1.6,3.9,3.8,3.8,0,0,1-2.3,1.1c-1,0-1.7-.2-1.9-.5a12.4,12.4,0,0,1-.6-4.5C44.1,32,45.3,30.3,48.5,30Z"/><path class="cls-1" d="M40.7,39.3s.2,1.3.2,1.7v.7a5.8,5.8,0,0,1,1.8-.7c.5-.1-.9.7-1.4,1s3.1,1.6,2.3,1.5-2.7-1.1-3-1a7.6,7.6,0,0,0-1.4,2.2c-.3.6.1-1.6.6-2.3L37.7,42a7.6,7.6,0,0,1,2.6-.2V40.7c0-.4-.2-1.9-.2-1.9Z"/><path class="cls-2" d="M39.8,42.4,37.7,42h2.4a.4.4,0,0,0,.2-.3h0V40.7a10.4,10.4,0,0,0-.2-1.5l.4.3a6.5,6.5,0,0,1,.2,1.7v.7a5.6,5.6,0,0,1,1.8-.6l-1.2.7h.2c-.2.1,0-.1,0,0l2.2,1.4a20.4,20.4,0,0,0-3.2-1.1c-1.1,1.5-1,1.5-1.1,1.6l-.3.8A7.5,7.5,0,0,1,39.8,42.4Z"/><path class="cls-2" d="M40.9,36.9v3.3a.7.7,0,0,1-.8,0l-.4-3.5Z"/><path class="cls-1" d="M40.9,36.9v1.9c-.4.1-.7.2-1-.4l-.2-1.7Z"/><path class="cls-3" d="M41,31.2a3.5,3.5,0,0,1,2,2.2c.2,1.5-1.1,3.6-1.1,3.6a3.4,3.4,0,0,1-.4,1,1.9,1.9,0,0,1-1.4.2c-.7-.2-.7-.3-.9-.5s-1.9-3-1.9-3.7S38.2,31.8,41,31.2Z"/><path class="cls-4" d="M41.1,30.2a3.5,3.5,0,0,1,2,2.3,5,5,0,0,1-1,3.5,4.1,4.1,0,0,1-1.9,1.2c-.9.1-1.6,0-1.7-.2a11.1,11.1,0,0,1-1.1-3.9C37.4,32.4,38.3,30.9,41.1,30.2Z"/><path class="cls-5" d="M48.9,21.4a3.6,3.6,0,0,0,2-1,7.4,7.4,0,0,0,1.6-2.8c.1-.5.2-.9.5-.9s.8.6,1,.9a7.8,7.8,0,0,1,1,3.8v7.1"/><path class="cls-6" d="M51.8,32.8a8.6,8.6,0,0,1-.6,2.3,9,9,0,0,1-2.3,3.3c-.8.6-3,.5-7-1.2l-1.4-.6-.2-.2a21,21,0,0,1-2.6-1.3l-.6-.3S49.8,26,51.4,29.9l.3,1a4.1,4.1,0,0,1,.1,1.1Z"/><path class="cls-3" d="M51.2,35.1A21.1,21.1,0,0,1,46,36.8a11.2,11.2,0,0,1-4.1.4,15.9,15.9,0,0,1-5.4-1.4l-1.9-1A6.9,6.9,0,0,1,31.8,31a4.3,4.3,0,0,1-.2-1.1,5.8,5.8,0,0,1-.2-1.4,20.4,20.4,0,0,1,.5-4.3,4,4,0,0,0,0-1.9,4.1,4.1,0,0,0-1-1.9,2.4,2.4,0,0,1,.6-2,2.2,2.2,0,0,1,1.4-.5c1.8-.2,2.7.2,3.6,2.6s.5,2.9,2.9,3h.2c1.4,0,2.1-.5,3.5-1.1a20.6,20.6,0,0,1,3.7-1c3.6-.4,6.2.8,7.4,3.6a8.2,8.2,0,0,1,.7,2.9c0,.1.1.3.1.4v.4C55.1,32,54,33.8,51.2,35.1Z"/><path class="cls-7" d="M33.2,19.6a.4.4,0,0,1-.2.5.4.4,0,0,1-.5-.1.4.4,0,0,1,.2-.5Z"/><path class="cls-8" d="M33.1,19.7c.1.1,0,.2-.1.3s-.4,0-.4-.1,0-.2.1-.3S33,19.6,33.1,19.7Z"/><path class="cls-7" d="M33,19.7c0,.1,0,.1-.1.1a.1.1,0,0,1-.1-.1H33Z"/><path class="cls-9" d="M30.7,20.2a3.6,3.6,0,0,0-.2,1.5c.1.1.3.1.3,0a1.4,1.4,0,0,1,1.4-.8c.4,0,.4-.1.3-.3S30.8,20,30.7,20.2Z"/><path class="cls-10" d="M31.5,20.4c.1,0,.1.1,0,.2h-.3c-.1-.1,0-.2.1-.3Z"/><path class="cls-11" d="M51.2,35.1a9,9,0,0,1-2.3,3.3c-.8.6-3,.5-7-1.2a15.9,15.9,0,0,1-5.4-1.4,12.9,12.9,0,0,0,4,.8,2.9,2.9,0,0,0,2.1-.6c2.9,1.3,4.9.2,4.9-.8,3,0,4.3-1.4,4.2-2.3a.1.1,0,0,1,.1-.1c1.5-.4,2.9-1.4,3.2-4.1C55.1,32,54,33.8,51.2,35.1Z"/><path class="cls-12" d="M34.3,18.4c-.3.2-.6,0-1-.1a1.6,1.6,0,0,0-1.4.5,3,3,0,0,0-.8,1.2H31c-.3.1-.1-1-.1-1.1a.6.6,0,0,1,.3-.6c.2-.1.4-.1.4-.4s-.1-.4.2-.5h.4l.2-.3c0-.2.1-.4.3-.4a.2.2,0,0,1,.2.2c.1,0,.3.1.4,0s.2-.3.4-.3a.3.3,0,0,1,.3.3c.2.1.3,0,.4-.1h.4C35.2,17,34.8,18.1,34.3,18.4Z"/><path class="cls-13" d="M34.3,18.4c-.3.2-.6,0-1-.1a1.6,1.6,0,0,0-1.4.5,3,3,0,0,0-.8,1.2A2.2,2.2,0,0,1,33,18c1.4,0,2-.4,1.7-.9l-.3-.2h.4C35.2,17,34.8,18.1,34.3,18.4Z"/><path class="cls-5" d="M41.2,29.5a26,26,0,0,1,6.9-5c3.4-1.4,4.5,0,4.5,0s.7.5-.5,1.1a4.7,4.7,0,0,1,.1,2.9,7.9,7.9,0,0,1-10,3.5A1.9,1.9,0,0,1,41.2,29.5Z"/><path class="cls-3" d="M40.9,29.8a7.6,7.6,0,0,1,1.6-1.7s7-5.7,8.3-3.4c.3.5-.3,1.5-1.1,2.2s1.2,1,.5,2.3-2.6,3.9-7.7,2.9h-.4C41.5,31.8,40.4,30.9,40.9,29.8Z"/><path class="cls-14" d="M34.4,16.9l.2.2h.1a2,2,0,0,1-.3.8l-.2.3h.3c.7.3,1.2,1,1.7,2.3l.3.9c.4,1.2.7,2.2,2.9,2.3h.3a5.6,5.6,0,0,0,2.6-.7l.9-.4a19.7,19.7,0,0,1,3.6-1h2.8l-.2-.2a3,3,0,0,0,1.7-.8,6.3,6.3,0,0,0,1.6-3v-.2a2.1,2.1,0,0,0,.2-.6c.1,0,.3.1.8.9a7.7,7.7,0,0,1,.9,3.6v6.3h-.1v1.1c.1,2.4-.5,3.9-1.9,5.1a5.5,5.5,0,0,1-1.7,1H51a8,8,0,0,1-2.3,3.1c-.1.2-.4.3-.8.3h-.2l-.5.2h-.3V41h-.3V42c0,.2-.1.8-.1.8v.6l.5-.2H47l-.4.3.4.2h.1l.5.3-1.2-.5h-.3a6.1,6.1,0,0,0-.9.9v-.2h0c.1-.1.2-.2.2-.3l-.3-.2h.3l.2-.2.2-.4h.4V43a3.7,3.7,0,0,1,.2-1.2V41h-.1V39.1h0v-.5h-.2l-.4-.3h-.1A27.8,27.8,0,0,1,42,36.9h-.3v.3l-.4.7h-.6v2h-.2l-.2-1.6h0v-.4H40c-.4-.1-.5-.2-.5-.3l-.4-.5h-.4l-.2-.4v-.2h-.2l-1.7-.7a7.7,7.7,0,0,1-1.8-1A6.8,6.8,0,0,1,32.1,31a6.5,6.5,0,0,1-.2-1.1,8.8,8.8,0,0,1-.2-1.4,18.2,18.2,0,0,1,.5-4.2,3.4,3.4,0,0,0,0-2,3.5,3.5,0,0,0-.6-1.4v-.2h-.3l-.4.4a2.1,2.1,0,0,1,.2-.8h.1a8.1,8.1,0,0,1,.1-.9c0-.2,0-.3.1-.3h.2a.5.5,0,0,0,.4-.5.1.1,0,0,0,0-.2h.3c.4-.1.4-.4.5-.5h.1l.3.2h.2l.4-.2h0c0,.1.1.1.1.2a.5.5,0,0,0,.4.2c.2,0,.3-.1.3-.2v-.3m5.8,25v.2h.3L41,42h-.2l.4.2h-.8l-.6.7c0-.1.1-.2.1-.3s.1-.1.1-.2l.2-.4h0v-.2M53,16.6h0c-.3,0-.4.4-.5.9a7.4,7.4,0,0,1-1.6,2.8,3.6,3.6,0,0,1-2,1H46.8a20.6,20.6,0,0,0-3.7,1c-1.4.6-2,1.1-3.4,1.1h-.3c-2.4-.1-2.2-1.2-2.9-3A4.7,4.7,0,0,0,34.7,18c.3-.4.4-1.1.1-1.2h-.4l-.2.2H34a.3.3,0,0,0-.3-.3h0c-.2,0-.3.3-.4.3h-.4a.2.2,0,0,0-.2-.2h0c-.2,0-.3.3-.3.4l-.2.3h-.4c-.3.1-.1.4-.2.5s-.2.3-.4.4a.6.6,0,0,0-.3.6s-.1.7-.1,1h-.1a3.6,3.6,0,0,0-.2,1.5h.2a.1.1,0,0,0,.1-.1,1.7,1.7,0,0,1,.6-.6,3.3,3.3,0,0,1,.5,1.2,4,4,0,0,1,0,1.9,20.4,20.4,0,0,0-.5,4.3,5.8,5.8,0,0,0,.2,1.4,4.3,4.3,0,0,0,.2,1.1,6.9,6.9,0,0,0,2.8,3.8l1.9,1,1.7.7.3.5h.3l.4.6c.1.2.2.3.7.4v.3h0l.2,1.8h.1v1.5h-.5l-2.1.2,2.1.4c-.1,0-.1.1-.2.2h0a9.7,9.7,0,0,0-.5,2h.1a7.6,7.6,0,0,1,1.4-2.2h.1c.4,0,2,.8,2.9,1h.1c.3-.1-1.7-1.1-2.2-1.4h.3c.5-.3,1.2-.7,1-.7h-.1a5.8,5.8,0,0,0-1.8.7V41a1.7,1.7,0,0,0-.1-.7H41v-2a1.1,1.1,0,0,0,.6-.2l.4-.8a33.8,33.8,0,0,0,3.7,1.3l.5.2v.4h0v2.1h.1v.6a8.9,8.9,0,0,0-.2,1.1H44.2c-.7,0-1.3,0-1.1.1l2.2.6c0,.1-.1.2-.1.3h-.1c0,.1-.1.2-.1.4h-.1l-.3.8h0c0,.2-.1.3-.1.4h0a1.7,1.7,0,0,0-.2.5h0v.2h0a8.4,8.4,0,0,1,2-2.3h.1c.4,0,2.1,1.1,3.2,1.5h.1c.3,0-1.9-1.5-2.4-1.9h-.1l1-.6c.5-.2,1-.4.7-.4h0a6.9,6.9,0,0,0-2.2.5s.1-.6.1-.8v-.8h.3V39l.7-.2h0a2,2,0,0,0,1-.3,9,9,0,0,0,2.3-3.3A7.8,7.8,0,0,0,53,34c1.5-1.2,2.1-2.8,2-5.3v-.3h0V21.4a7.8,7.8,0,0,0-1-3.8c-.2-.3-.6-1-1-1Z"/></g></g></g></svg>