<svg xmlns="http://www.w3.org/2000/svg" viewBox="0 0 97 62"><defs><style>.cls-1{fill:#4c2d1d;}.cls-2,.cls-4{fill:#f7f2f3;}.cls-2{stroke:#6f451b;}.cls-2,.cls-5{stroke-miterlimit:10;stroke-width:0.75px;}.cls-3{fill:#271717;}.cls-5{fill:#cd8c80;stroke:#593129;}</style></defs><g id="eye_03"><path class="cls-1" d="M5.9,15.4S13.6,1.8,22.6,3.9c.7.1.5,3.3,1.2,3.5S25.7,5,25.7,5a15.7,15.7,0,0,1,.1,3.4,2,2,0,0,1-2.3,1.4c-6.4-.6-15,5-15,5C5.6,16.7,4.6,17.6,5.9,15.4Z"/><path class="cls-1" d="M90.5,17.1S80.1,1,69.3,4.3c-.8.2-.3,4-1.2,4.4s-2.5-2.9-2.5-2.9a16.6,16.6,0,0,0,.2,4.2,2.3,2.3,0,0,0,2.8,1.5c7.8-1.2,18.7,5,18.7,5C91,18.7,92.2,19.7,90.5,17.1Z"/><path class="cls-2" d="M22.8,44.7A13.6,13.6,0,0,1,4.6,37a14.7,14.7,0,0,1,7.6-18.9,13.7,13.7,0,0,1,18.2,7.7,14.7,14.7,0,0,1-7.6,18.9"/><path class="cls-3" d="M25.2,35.2a7.9,7.9,0,0,1-9.4,6,8,8,0,0,1-5.7-9.7,7.8,7.8,0,1,1,15.1,3.7"/><path class="cls-4" d="M23.4,27.8a2.5,2.5,0,1,1-4.9-1.1,2.7,2.7,0,0,1,3.1-2,2.6,2.6,0,0,1,1.8,3.1"/><path class="cls-2" d="M74.3,49.5A13.8,13.8,0,0,1,56,41.8a14.7,14.7,0,0,1,7.7-18.9,13.6,13.6,0,0,1,18.2,7.7,14.8,14.8,0,0,1-7.6,18.9"/><path class="cls-3" d="M76.7,39.4a7.8,7.8,0,1,1-15.1-3.7,7.9,7.9,0,0,1,9.4-6,8.1,8.1,0,0,1,5.7,9.7"/><path class="cls-4" d="M74.9,32A2.5,2.5,0,1,1,70,30.8a2.5,2.5,0,0,1,3-1.9A2.6,2.6,0,0,1,74.9,32"/><path class="cls-5" d="M29.8,38.1s-18-.6-26-9.3c0,0,1.5-9.4,11-11.5S29.6,23.5,30,24.7,33.4,30.8,29.8,38.1Z"/><path class="cls-5" d="M55,37.6s15.6,8.3,26.5,4.8c0,0,4.6-8.8-2.4-16.2,0,0-6.7-8.3-17.8-2C61.3,24.2,55,27.8,55,37.6Z"/></g></svg>