<svg xmlns="http://www.w3.org/2000/svg" xmlns:xlink="http://www.w3.org/1999/xlink" viewBox="0 0 84 66"><defs><style>.cls-1{mask:url(#mask);filter:url(#luminosity-noclip-3);}.cls-2,.cls-4{mix-blend-mode:multiply;}.cls-2{fill:url(#linear-gradient);}.cls-3{mask:url(#mask-2);filter:url(#luminosity-noclip-5);}.cls-4{fill:url(#linear-gradient-2);}.cls-5{isolation:isolate;}.cls-11,.cls-6{fill:#e5c9b3;}.cls-6{stroke:#cca98b;}.cls-18,.cls-19,.cls-6{stroke-miterlimit:10;}.cls-18,.cls-6{stroke-width:0.25px;}.cls-18,.cls-7{fill:#ffe9d0;}.cls-8{fill:#827a6e;}.cls-9{fill:#b3b3b3;opacity:0.5;}.cls-15,.cls-9{mix-blend-mode:screen;}.cls-10{mask:url(#mask-3);}.cls-12{mask:url(#mask-4);}.cls-13{mask:url(#mask-5);}.cls-14{mask:url(#mask-6);}.cls-15{opacity:0.32;}.cls-16{fill:#fff;}.cls-17{fill:#f3dac3;}.cls-18{stroke:#e2c4a6;}.cls-19{fill:none;stroke:#b29a8d;stroke-width:0.3px;}.cls-20{filter:url(#luminosity-noclip-6);}.cls-21{filter:url(#luminosity-noclip-4);}.cls-22{filter:url(#luminosity-noclip-2);}.cls-23{filter:url(#luminosity-noclip);}</style><filter id="luminosity-noclip" x="22.33" y="-7089" width="11.58" height="32766" filterUnits="userSpaceOnUse" color-interpolation-filters="sRGB"><feFlood flood-color="#fff" result="bg"/><feBlend in="SourceGraphic" in2="bg"/></filter><mask id="mask" x="22.33" y="-7089" width="11.58" height="32766" maskUnits="userSpaceOnUse"><g class="cls-23"/></mask><linearGradient id="linear-gradient" x1="142.03" y1="8.2" x2="153.61" y2="8.2" gradientTransform="matrix(-1, 0, 0, 1, 175.94, 0)" gradientUnits="userSpaceOnUse"><stop offset="0" stop-color="#fff"/><stop offset="1"/></linearGradient><filter id="luminosity-noclip-2" x="20.04" y="-7089" width="4.45" height="32766" filterUnits="userSpaceOnUse" color-interpolation-filters="sRGB"><feFlood flood-color="#fff" result="bg"/><feBlend in="SourceGraphic" in2="bg"/></filter><mask id="mask-2" x="20.04" y="-7089" width="4.45" height="32766" maskUnits="userSpaceOnUse"><g class="cls-22"/></mask><linearGradient id="linear-gradient-2" x1="153.57" y1="8.19" x2="153.8" y2="9.6" xlink:href="#linear-gradient"/><filter id="luminosity-noclip-3" x="22.33" y="5.1" width="11.58" height="6.2" filterUnits="userSpaceOnUse" color-interpolation-filters="sRGB"><feFlood flood-color="#fff" result="bg"/><feBlend in="SourceGraphic" in2="bg"/></filter><mask id="mask-3" x="22.33" y="5.1" width="11.58" height="6.2" maskUnits="userSpaceOnUse"><g class="cls-1"><path class="cls-2" d="M29.3,6.8l.7.3a7.3,7.3,0,0,1,3.4-2l.3.4c.5,1.2-.1,3.3-.4,4.4l.6,1.4C31,7.2,23.7,9.8,23.7,9.8s-.7.2-1.4-1.2A9.7,9.7,0,0,1,29.3,6.8Z"/></g></mask><filter id="luminosity-noclip-4" x="19.7" y="-7089" width="3.11" height="32766" filterUnits="userSpaceOnUse" color-interpolation-filters="sRGB"><feFlood flood-color="#fff" result="bg"/><feBlend in="SourceGraphic" in2="bg"/></filter><mask id="mask-4" x="19.7" y="-7089" width="3.11" height="32766" maskUnits="userSpaceOnUse"><g class="cls-21"/></mask><filter id="luminosity-noclip-5" x="20.04" y="6.8" width="4.45" height="3.97" filterUnits="userSpaceOnUse" color-interpolation-filters="sRGB"><feFlood flood-color="#fff" result="bg"/><feBlend in="SourceGraphic" in2="bg"/></filter><mask id="mask-5" x="20.04" y="6.8" width="4.45" height="3.97" maskUnits="userSpaceOnUse"><g class="cls-3"><path class="cls-4" d="M24.5,10.8s-2.1-4.4-4.5-4C21.1,6.9,22.9,8.1,24.5,10.8Z"/></g></mask><filter id="luminosity-noclip-6" x="18.78" y="-7089" width="5.85" height="32766" filterUnits="userSpaceOnUse" color-interpolation-filters="sRGB"><feFlood flood-color="#fff" result="bg"/><feBlend in="SourceGraphic" in2="bg"/></filter><mask id="mask-6" x="18.78" y="-7089" width="5.85" height="32766" maskUnits="userSpaceOnUse"><g class="cls-20"/></mask></defs><g class="cls-5"><g id="catF6_02"><path class="cls-6" d="M39.1,33s-1.7,10.5-2.9,11-4.8.1-5.3-.8-.6-1.9.5-1.9S31,39.2,33.7,40c0,0,.1-8.9-.8-11.6"/><path class="cls-6" d="M61,38.3s-1.5,5.1.9,7.2c0,0,1.1-1.2,1.7,0s-1.4,4.9-.9,5.8,4.4.6,2.3,3.4a3.7,3.7,0,0,1-4.4-.3c-2.4-1.8-.6-6.5-.6-6.5s-5,.5-8.4-7.2"/><path class="cls-7" d="M29.5,6.8l1,.3a5.5,5.5,0,0,1,2.8,2.8c.3-1.1.9-3.2.4-4.4S30.8,5.6,29.5,6.8Z"/><path class="cls-8" d="M17.4,15.4c0,2.8,1.9,5.1,4.3,5.1s4.4-2.3,4.4-5.1-2-5.1-4.4-5.1S17.4,13.4,17.4,15.4Z"/><path class="cls-9" d="M21.2,17.4a4.9,4.9,0,0,1-.8,2.8,4.8,4.8,0,0,1-3-4.8,4.9,4.9,0,0,1,.3-1.5,2.9,2.9,0,0,1,1-.3C20.1,13.6,21.2,15.3,21.2,17.4Z"/><path class="cls-7" d="M25.9,31.4h0c.1.1.1.3.2.4l.3.9a18.8,18.8,0,0,0,2.9,2.8A15.4,15.4,0,0,0,33,37.3l.9.2H38l.6.2H39a12.1,12.1,0,0,1,3,1.1c1.4.7,10.9,7.1,15,6.5l1.6-.3a8,8,0,0,0,5.2-3.8c1.1-1.8,1.5-4.5.8-8.2h0c0-.1-.1-.3-.1-.4h0a15.4,15.4,0,0,0-.5-1.7l-.5-1.1a3.5,3.5,0,0,0-.5-.8h0c0-.1-.1-.1-.1-.2a23.1,23.1,0,0,0-1.6-1.9c-3.1-2.9-5.5-1.9-11.5-4.4a47.6,47.6,0,0,1-10.1-5.1,6.8,6.8,0,0,0-4.5-1.7h-1l-1.1.3a15.9,15.9,0,0,0-6.6,6.5,7.7,7.7,0,0,0-.7,1.6h0c-.1.6-.3,1.3-.4,1.9A13.2,13.2,0,0,0,25.9,31.4Z"/><path class="cls-7" d="M20.1,20.1h0a4.8,4.8,0,0,0,4.6,2,.4.4,0,0,0,.1.3v.2a.3.3,0,0,1,.1.2l.2.5h.1c0,.1,0,.2.1.2s0,.2.1.2V24l.3.4h.1c.6.7,1.1,1,1.3,1h0l.4-.4,7.5-8.8h.1v-.2a21.8,21.8,0,0,0-1.9-6,5.5,5.5,0,0,0-2.8-2.8l-1-.3a8.8,8.8,0,0,0-3.6.1l-.5.2a8.5,8.5,0,0,0-2.2.9,14.3,14.3,0,0,0-3.5,3h0v.2c-.1,0-.1,0-.1.1a4.4,4.4,0,0,0-.8,2.3A9.4,9.4,0,0,0,20.1,20.1Z"/><path class="cls-9" d="M24.7,22.1h-.1c1.7-.3,2,.9,2,.9l-.5,1.7A5.2,5.2,0,0,1,24.7,22.1Z"/><g class="cls-10"><path class="cls-11" d="M29.3,6.8l.7.3a7.3,7.3,0,0,1,3.4-2l.3.4c.5,1.2-.1,3.3-.4,4.4l.6,1.4C31,7.2,23.7,9.8,23.7,9.8s-.7.2-1.4-1.2A9.7,9.7,0,0,1,29.3,6.8Z"/></g><path class="cls-7" d="M25.3,11.3s-2.5-3.9-4.5-4.5-.1,5.6-.1,5.7C22.2,12.6,25.3,11.3,25.3,11.3Z"/><path class="cls-11" d="M20.8,11.1s-1.5-2.4-1-3.6,3.2,2.3,3,4.6a2.8,2.8,0,0,1-.5-.9,1,1,0,0,0-.1.4,8.9,8.9,0,0,1-.2-1.1l-.2.8a2.8,2.8,0,0,1-.1-.6.4.4,0,0,0-.1.4,5.6,5.6,0,0,1-.7-1.9,4.5,4.5,0,0,0,.4,1.8,2,2,0,0,1-.5-.5A1.1,1.1,0,0,1,20.8,11.1Z"/><g class="cls-12"><path class="cls-11" d="M20.8,11.1s-1.5-2.4-1-3.6,3.2,2.3,3,4.6a2.8,2.8,0,0,1-.5-.9,1,1,0,0,0-.1.4,8.9,8.9,0,0,1-.2-1.1l-.2.8a2.8,2.8,0,0,1-.1-.6.4.4,0,0,0-.1.4,5.6,5.6,0,0,1-.7-1.9,4.5,4.5,0,0,0,.4,1.8,2,2,0,0,1-.5-.5A1.1,1.1,0,0,1,20.8,11.1Z"/></g><g class="cls-13"><path class="cls-9" d="M24.5,10.8s-2.1-4.4-4.5-4C21.1,6.9,22.9,8.1,24.5,10.8Z"/></g><path class="cls-11" d="M18.8,13.9c.1-1.3,1.5-3.5,4.8,1.5h-.3a4.8,4.8,0,0,1,1.3,3,2.3,2.3,0,0,1-.2-.7,15.2,15.2,0,0,1,0,3.3,3.1,3.1,0,0,0-.2-.7c-.2.9-1.2,1.6-1.7,1.5S18.4,19.3,18.8,13.9Z"/><g class="cls-14"><path class="cls-11" d="M18.8,13.9c.1-1.3,1.5-3.5,4.8,1.5h-.3a4.8,4.8,0,0,1,1.3,3,2.3,2.3,0,0,1-.2-.7,15.2,15.2,0,0,1,0,3.3,3.1,3.1,0,0,0-.2-.7c-.2.9-1.2,1.6-1.7,1.5S18.4,19.3,18.8,13.9Z"/></g><g class="cls-15"><path class="cls-16" d="M25.4,7.1c.3-.1,8-1.3,8.7,8.8h.1l.9.3c1.3.3,3.4.7,4.4,2s8.1,5.9,17.9,7.4c1,.5,3.3,1.2,4.7,3.3h.8a23.1,23.1,0,0,0-1.6-1.9c-3.1-2.9-5.5-1.9-11.5-4.4a47.6,47.6,0,0,1-10.1-5.1,6.8,6.8,0,0,0-4.5-1.7,21.8,21.8,0,0,0-1.9-6,5.5,5.5,0,0,0-2.8-2.8l-1-.3a8.8,8.8,0,0,0-3.6.1Z"/></g><path class="cls-17" d="M62.5,29.2a23,23,0,0,1,2.8,9.3c.3,5.1,3.7,10.5,7,12.1a1.7,1.7,0,0,1,1,1.9c-.3,1.4-1.9.9-2.4.6A20.9,20.9,0,0,1,65.7,47a23.1,23.1,0,0,1-2.9-10.1C62.6,34.4,60.7,28,62.5,29.2Z"/><path class="cls-18" d="M52.2,38.7s-4.1,3.1-2.6,7.9,3.2,6.9-.3,7.9c0,0-3.1.9-.7,2.6s5.5-.7,5.5-.7a7.5,7.5,0,0,0,1.3-6.2,3.5,3.5,0,0,1,.4-2.8c1.6-2.3,7.9-2.7,6.9-8"/><path class="cls-18" d="M29.5,25.3s-5.6-.8-3,6.7c0,0-4-.1-4.5.7s0,7.1,0,7.1.7,3.4,3.3,2.3a1.6,1.6,0,0,0-.2-3.1s-.7-2.3-.2-2.8,8.5,1.7,9.1,1.4.5-7.7.5-7.7"/><path class="cls-19" d="M17.5,14.7h0A6,6,0,0,1,19.7,11h0l.3-.4c-.5-1.5-.9-3.5.1-3.8h.7a2.8,2.8,0,0,1,1.5.8l.5.5h.1l.3-.2h.1l.8-.3.4-.2.6-.2h.3l.5-.2a8.8,8.8,0,0,1,3.6-.1c1.2-1.1,3-2.6,3.9-1.7h0c0,.1.1.1.1.2s.1.1.1.2h.1c.5,1.2-.1,3.3-.4,4.4a21.8,21.8,0,0,1,1.9,6,6.8,6.8,0,0,1,4.5,1.7,47.6,47.6,0,0,0,10.1,5.1c6,2.5,8.4,1.5,11.5,4.4A23.1,23.1,0,0,1,62.9,29c0,.1.1.1.1.2h0a3.5,3.5,0,0,1,.5.8l.5,1.1a15.4,15.4,0,0,1,.5,1.7h0c0,.1.1.3.1.4h0a9.9,9.9,0,0,1,.2,1.7,11.4,11.4,0,0,1,.5,3.3c.3,5.1,3.7,10.5,7,12.1a1.7,1.7,0,0,1,1,1.9c-.3,1.4-1.9.9-2.4.6A20.9,20.9,0,0,1,65.7,47a23.3,23.3,0,0,1-2.1-5,5.8,5.8,0,0,1-2.5,2.4,4.4,4.4,0,0,0,.8,1.1s1.1-1.2,1.7,0-1.4,4.9-.9,5.8,4.4.6,2.3,3.4a3.7,3.7,0,0,1-4.4-.3c-2.4-1.8-.6-6.5-.6-6.5a5.9,5.9,0,0,1-3.6-1.1l-.6.6a3.5,3.5,0,0,0-.4,2.8,7.5,7.5,0,0,1-1.3,6.2s-3,2.5-5.5.7.7-2.6.7-2.6c3.5-1,1.7-3,.3-7.9a6.7,6.7,0,0,1-.2-3.1c-3.4-1.7-6.6-3.8-7.4-4.2a12.1,12.1,0,0,0-3-1.1h-.8c-.6,2.8-1.4,5.8-2,6s-4.8.1-5.3-.8-.6-1.9.5-1.9S31,39.2,33.7,40V37.6c-1.6-.1-8.5-1.7-8.8-1.4s.2,2.8.2,2.8a1.6,1.6,0,0,1,.2,3.1c-2.6,1.1-3.3-2.3-3.3-2.3s-.5-6.4,0-7.1,3.2-.7,4.2-.7v-.2c-.1-.1-.1-.3-.2-.4h0a13.2,13.2,0,0,1-.5-5.1c.1-.6.3-1.3.4-1.9h-.1a.1.1,0,0,0-.1-.1v-.4h-.1c-.1,0-.1-.1-.1-.2h-.1c0-.1-.1-.2-.1-.3h-.1a.3.3,0,0,0-.1-.2v-.2a.4.4,0,0,1-.1-.3h0a4.8,4.8,0,0,1-4.6-2h-.2l-.4-.3-.3-.2-.5-.5h-.1a2.1,2.1,0,0,1-.4-.6v-.2l-.3-.6c0-.1-.1-.2-.1-.3s-.1-.4-.2-.6v-.2a3.4,3.4,0,0,1-.1-1A2,2,0,0,1,17.5,14.7Z"/></g></g></svg>