<svg xmlns="http://www.w3.org/2000/svg" viewBox="0 0 84 66"><defs><style>.cls-1,.cls-2,.cls-4{fill:#ebb146;}.cls-1,.cls-4{stroke:#d28e3a;stroke-miterlimit:10;}.cls-1{stroke-width:0.3px;}.cls-3{fill:#d28e3a;}.cls-4{stroke-width:0.28px;}</style></defs><g id="Layer_46" data-name="Layer 46"><path class="cls-1" d="M68.9,10.5S68.8,9.2,66.2,8c0,0,.7-1.6-1.9-2.6,0,0-.5-.6-4.6-2.1a9.2,9.2,0,0,0-2.4-.1S52.2-.2,52.2,5.6a1.5,1.5,0,0,0,1.2,1.5,7.1,7.1,0,0,0-.4,2,4.4,4.4,0,0,1-2.2,4,12.2,12.2,0,0,0-9,4.6,15.8,15.8,0,0,1-3.7,2.8S23.1,25.2,21,35.6L19.2,46.8A14.4,14.4,0,0,1,17,49.3s-.5,5,.4,5.7,3.7,3.8,7.1-.3c0,0,2.4-3.7-1.4-4.7,0,0,3.5-2.7,3-4.9,0,0,.1,2.7,1,3.6s1.3,3-.6,5.2c0,0-4.3,1.2-1.1,7.8.8,1.5,3.6,4.3,6.7.4,0,0,4.2-4.3-.8-6.5,0,0,4.1-3.2,3.4-7.4,0,0-.5-7.9,6.2-10.5l4.5-1.9h.3a4.1,4.1,0,0,1,.5,2,9,9,0,0,1-.2,2.1,2.5,2.5,0,0,0,.8,1.2,2.1,2.1,0,0,0,2.3.6s3-1.2,3.1-3.1c0,0,.9-1.7-1.7-2.3a12.4,12.4,0,0,1,0-3.4s1.2-.1,1.6-.7c.2,1.9.5,3.5.6,4.5a29.8,29.8,0,0,1,.5,3.3,21.9,21.9,0,0,1-.2,4,3.8,3.8,0,0,0,2.3,2.4,2.9,2.9,0,0,0,1.6,0,6.4,6.4,0,0,0,4-3.9s.7-2.5-2.7-3c0,0,1-9.2.6-12.2a22.8,22.8,0,0,0,2.6-8.8,5.3,5.3,0,0,1,1-1.4c1.7-1.7,4.2-1.2,4.6-1.4s.9-1.1,1.3-2A6.7,6.7,0,0,0,68.9,10.5Z"/><path class="cls-2" d="M23.7,34.2s-2.4,4.6-2.4,12.3c0,0-3,18.5-9.7,12,0,0-.2,6.6,5.1,3.7,0,0,5.3-4.9,6.5-18.6.2-1.9.8-5.3,3.6-6.8"/><path class="cls-3" d="M23.7,34.2c-.4,1-.7,2-1,3a16.3,16.3,0,0,0-.7,3,17.5,17.5,0,0,0-.4,3.2c-.1,1-.2,2.1-.2,3.1h0c-.3,1.6-.6,3.2-1,4.7s-1,3-1.6,4.5a9,9,0,0,1-2.9,3.8,2.9,2.9,0,0,1-2.4.4,6.9,6.9,0,0,1-2-1.3h.2a6.4,6.4,0,0,0,.3,2,3.1,3.1,0,0,0,.9,1.8,2.4,2.4,0,0,0,1.8.5l1-.3.9-.4h0a19.9,19.9,0,0,0,3.6-5.9,32.2,32.2,0,0,0,2-6.7c.3-1.1.4-2.3.6-3.4s.3-2.3.4-3.5a10.4,10.4,0,0,1,1.1-3.4,6.4,6.4,0,0,1,2.5-2.4c-2,1.2-3,3.6-3.3,5.8s-.3,2.3-.4,3.5-.3,2.3-.6,3.5a39.6,39.6,0,0,1-2,6.7,17.7,17.7,0,0,1-3.7,6h0l-1,.5-1,.2a2.3,2.3,0,0,1-2.1-.5,4.4,4.4,0,0,1-1-1.9,5,5,0,0,1-.2-2.1v-.2h.1a5.9,5.9,0,0,0,2,1.2,2.9,2.9,0,0,0,2.2-.3,8.3,8.3,0,0,0,2.7-3.7,26.9,26.9,0,0,0,1.6-4.5,37.8,37.8,0,0,0,1-4.6h0a44.8,44.8,0,0,1,.6-6.3,24.9,24.9,0,0,1,2-6Z"/><path class="cls-2" d="M51.5,28.1a9.8,9.8,0,0,0,.6,4l-6.9,3.7"/><path class="cls-3" d="M51.5,28.1a13.6,13.6,0,0,0,.2,2,10.5,10.5,0,0,0,.5,1.9h0l-6.9,3.7v-.2L52,32h0a4.6,4.6,0,0,1-.5-2,13.4,13.4,0,0,1-.1-2Z"/><path class="cls-2" d="M58.2,39.4a9.5,9.5,0,0,1-.5,3"/><path class="cls-3" d="M58.3,39.4a10.7,10.7,0,0,1-.6,3,10.2,10.2,0,0,0,.3-3Z"/><path class="cls-2" d="M50.5,36.2a4.3,4.3,0,0,1-.2,2.1"/><path class="cls-3" d="M50.6,36.1a4.1,4.1,0,0,1-.3,2.2,3.7,3.7,0,0,0,0-2.1Z"/><path class="cls-4" d="M53.4,7.1a6.5,6.5,0,0,1,6.3-3.8"/><path class="cls-2" d="M61.3,10.9a3.1,3.1,0,0,0,3,2.2,2.3,2.3,0,0,0,1.5-.7,2,2,0,0,0,.4-1.9,2.9,2.9,0,0,0-3.3-1.8"/><path class="cls-3" d="M61.3,10.9a3.5,3.5,0,0,0,1.9,1.9,2.2,2.2,0,0,0,1.4.1,1.7,1.7,0,0,0,1.1-.6h0a2.1,2.1,0,0,0,.5-1.3,1.6,1.6,0,0,0-.6-1.3,3.3,3.3,0,0,0-2.7-1,3.4,3.4,0,0,1,2.9.8,2,2,0,0,1,.6,1.5,4.2,4.2,0,0,1-.4,1.5h-.1a2.7,2.7,0,0,1-1.3.7,2.6,2.6,0,0,1-1.5-.2A3.4,3.4,0,0,1,61.3,10.9Z"/><path class="cls-2" d="M35.1,44.6a21.1,21.1,0,0,1,2-6.6"/><path class="cls-3" d="M35,44.5a19.8,19.8,0,0,1,.8-3.3A12.7,12.7,0,0,1,37.1,38a17.5,17.5,0,0,0-1.2,3.2,20.2,20.2,0,0,0-.6,3.4Z"/><path class="cls-2" d="M26.1,45.4a11.3,11.3,0,0,1,.1-4.1"/><path class="cls-3" d="M25.9,45.4V43.3a6.4,6.4,0,0,1,.3-2,6.5,6.5,0,0,0-.2,2c.1.7.1,1.4.2,2.1Z"/><path class="cls-2" d="M59.4,39.7a2,2,0,0,0-1.1,1.1"/><path class="cls-3" d="M59.4,39.9a1.4,1.4,0,0,0-1.1.9,1.7,1.7,0,0,1,1-1.2Z"/><path class="cls-2" d="M51.6,36.6a2,2,0,0,0-1.1,1.1"/><path class="cls-3" d="M51.6,36.8a1.6,1.6,0,0,0-1.1.9,1.9,1.9,0,0,1,1.1-1.2Z"/><path class="cls-2" d="M52.1,37.1A1.7,1.7,0,0,0,51,38.2"/><path class="cls-3" d="M52.1,37.2a1.8,1.8,0,0,0-1.1,1A1.5,1.5,0,0,1,52,37Z"/><path class="cls-2" d="M60.3,40.3a1.6,1.6,0,0,0-1.2,1.2"/><path class="cls-3" d="M60.3,40.4a1.5,1.5,0,0,0-1.2,1.1,1.6,1.6,0,0,1,1.1-1.3Z"/><path class="cls-2" d="M60.8,41a1.6,1.6,0,0,0-1.2,1.1"/><path class="cls-3" d="M60.8,41.1a1.7,1.7,0,0,0-1.2,1,1.8,1.8,0,0,1,1.2-1.3Z"/><path class="cls-2" d="M32.2,56.1A1.8,1.8,0,0,0,31,57.3"/><path class="cls-3" d="M32.3,56.3a1.5,1.5,0,0,0-1.3,1A1.8,1.8,0,0,1,32.2,56Z"/><path class="cls-2" d="M32.9,56.6a1.6,1.6,0,0,0-1.2,1.2"/><path class="cls-3" d="M32.9,56.7a1.6,1.6,0,0,0-1.2,1.1,2.1,2.1,0,0,1,1.2-1.4Z"/><path class="cls-2" d="M24,50.4a1.6,1.6,0,0,0-1.2,1.1"/><path class="cls-3" d="M24,50.5a1.7,1.7,0,0,0-1.2,1A1.6,1.6,0,0,1,24,50.2Z"/><path class="cls-2" d="M24.8,51.1a1.8,1.8,0,0,0-1.2,1.2"/><path class="cls-3" d="M24.9,51.2a1.6,1.6,0,0,0-1.3,1.1A1.8,1.8,0,0,1,24.8,51Z"/><path class="cls-2" d="M25.2,52A1.6,1.6,0,0,0,24,53.2"/><path class="cls-3" d="M25.2,52.1A1.6,1.6,0,0,0,24,53.2a1.8,1.8,0,0,1,1.2-1.3Z"/><path class="cls-2" d="M33.5,57.6a1.6,1.6,0,0,0-1.2,1.2"/><path class="cls-3" d="M33.5,57.7a1.5,1.5,0,0,0-1.2,1.1,1.6,1.6,0,0,1,1.2-1.3Z"/><path class="cls-2" d="M31.2,55.6a4.4,4.4,0,0,0-.2,3.3"/><path class="cls-3" d="M31.3,55.6a5.5,5.5,0,0,0-.3,3.3,4.7,4.7,0,0,1-.3-1.7,5.3,5.3,0,0,1,.4-1.7Z"/></g></svg>