<svg xmlns="http://www.w3.org/2000/svg" xmlns:xlink="http://www.w3.org/1999/xlink" viewBox="0 0 84 66"><defs><style>.cls-1{fill:none;}.cls-2{isolation:isolate;}.cls-3{fill:#646262;}.cls-3,.cls-6,.cls-7{stroke:#b7b7b9;stroke-miterlimit:10;stroke-width:0.3px;}.cls-4{fill:#262626;}.cls-5{fill:#353535;}.cls-12,.cls-6{fill:#444;}.cls-7{fill:#d9dad8;}.cls-8{fill:#f2e8d4;}.cls-9{mix-blend-mode:multiply;}.cls-10{clip-path:url(#clip-path);}.cls-11{fill:#ebebec;}.cls-13{fill:#b7b7b8;}</style><clipPath id="clip-path"><rect id="SVGID" class="cls-1" x="19.3" y="35.9" width="6.4" height="6.08"/></clipPath></defs><g class="cls-2"><g id="SheepF01_P03"><g id="_2" data-name="2"><path class="cls-3" d="M56.7,33.8c-.1.3,1.8.7,1.9,1.6s-.1.4-.5,1.3a17.2,17.2,0,0,0-.8,1.9c-.8,1.7-.6,1.9-1.2,3.1a9.2,9.2,0,0,1-1.3,2.1l1.9.5,1-1.7c.3,0,.7,0,.8-.3s-.2-.5-.4-.9a4,4,0,0,1,.4-1.9,10,10,0,0,1,1.4-2.4,7.4,7.4,0,0,0,.8-1.3,2.9,2.9,0,0,0,0-1,1.4,1.4,0,0,0-.5-.7l-2.4-1.7a1.3,1.3,0,0,1-.6,1.2Z"/><polygon class="cls-4" points="56.4 41.8 54.7 44 56.7 44.3 57.7 42.6 58.2 42.5 58 42.2 56.4 41.8"/><polygon class="cls-5" points="56.4 41.8 54.4 43.8 54.7 44 55.3 43.4 55 44 56.8 41.9 56.4 41.8"/></g><g id="_2-2" data-name="2"><path class="cls-5" d="M24.1,58.7l-.6.7a2.5,2.5,0,0,1-3.2-.2l.6-.5h.2c.9-1.2,1.8-1,2.4-.5l-.3.3Z"/><path class="cls-4" d="M24.1,58.7l-.6.7H22.4a3.5,3.5,0,0,1-1.5-.7h.2c.9-1.2,1.8-1,2.4-.5l-.3.3Z"/><path class="cls-3" d="M24,30.3c-1.2.6-4.7,5.4-4.3,13.3.3,6.2-3.1,5.7-1.5,8.4a6.3,6.3,0,0,1,.8,2.9,23.5,23.5,0,0,0,.1,2.6c.2.8,1.1.4,1.2,1.7s2.1-.6,2-1.2-.7-1.2-1-2.7a8.6,8.6,0,0,1-.1-3.9c1.3-2.9,6.4-3.5,6.7-14.2s-2.2-7.8-3.9-6.9"/></g><g id="_2-3" data-name="2"><path class="cls-5" d="M32.1,59.3s.8,2.1,2.4,1.4a5.6,5.6,0,0,0-.8-1.6A1.8,1.8,0,0,1,32.1,59.3Z"/><path class="cls-3" d="M28.8,49.1s-2.4,2.2-1.8,2.8,6.1,4.6,6.8,5.8a1.3,1.3,0,0,1-1.7,1.8c-1.1-.8-3-3.2-3.8-3.7s-4.7-2.5-3.8-4.6a33,33,0,0,1,2.1-4.5Z"/><path class="cls-4" d="M33.8,57.6l1,1.6-.3.7v.8a23.6,23.6,0,0,1-2.4-1.4C33.1,59.5,34,59.6,33.8,57.6Z"/></g><g id="_2-4" data-name="2"><path class="cls-5" d="M53.7,41.8l-.4,1a2.3,2.3,0,0,0,2.9-2.4l-.9.2.2-.5a1.6,1.6,0,0,0-1.8,1.7"/><path class="cls-4" d="M56.2,40.4a1.4,1.4,0,0,1-.1.9l-.9.6a4.7,4.7,0,0,1-1.6.2v-.3a1.6,1.6,0,0,1,1.8-1.7l-.2.5Z"/><path class="cls-3" d="M44.2,23.8a80.6,80.6,0,0,1,3.6,7.5c.9,2.1.9,3.1,1.3,4s.7.4,1.4,2.1.8,3,1.2,3.5.7.2.9.7-.1.8.7,1.2,1.4-.4,1.6-1.5a.9.9,0,0,0-.4-.9,2.2,2.2,0,0,1-.9-1A14.6,14.6,0,0,1,52,34.3c-.1-.6.2-.9.1-1.7s-.7-1-.9-1.9c-1.3-5-2.6-10.6-2.6-10.6Z"/></g><path class="cls-3" d="M71.9,14.4c.6,1.7-1.4,3.7-2.7,4.3S59.8,17,59.8,17a10.1,10.1,0,0,1,3.8-7.8s6,1.6,8,4.6V14c.1.2.1.3.2.4"/><path class="cls-6" d="M54.3,7.9l-.2,1.7c-4.9,3.3-9.2,1.7-9.5.8s.1-.6.5-1.1,5.1-4.6,9.2-1.4"/><path class="cls-7" d="M62.2,25.2a4.5,4.5,0,0,1,.1,1.6c-.2.8,1.3,1.5,1.1,2.3s-1.6,1.1-1.9,1.8.5,1.9.2,2.5a11.3,11.3,0,0,1-1.1,2.2,5.8,5.8,0,0,1-2.1,1c-.3.1-.5.6-.8.6s-.7-.3-1-.3-.7.4-1,.4-.5-.5-.8-.6h-1c-.3-.2-.3-.7-.6-.8a.1.1,0,0,0-.1-.1l-.9-.2c-.2-.3-.1-.8-.3-1s-.8-.3-.9-.5-.2-.4-.1-.9,0-.9.1-1.3l.4-1c.3-.7.9-1.2,1.3-2.1s.3-1.3.5-1.9,0-.3.1-.4,1-1.3,1.4-2.1a20.2,20.2,0,0,1,.7-2.3c.4-.8,1.1-1.3,1.5-2s.5-1.6.9-2.3,1.2-1.1,1.7-1.7.9-1.6,1.5-1.9.5-.2.7-.1a.9.9,0,0,1,.6.4,1.6,1.6,0,0,1,.5.8,6.7,6.7,0,0,1,.9,1.4.5.5,0,0,1,.2.4.3.3,0,0,1,.1.2c.2.8-2.1,1.6-2,2.4a21,21,0,0,1,.6,2.4,15.5,15.5,0,0,1-.5,2.3v.8"/><path class="cls-7" d="M51.2,11.4c0-.4.4-.8.6-1.2s.1-.9.3-1.2.7-.5,1-.8.3-.9.5-1.2.8-.3,1.2-.6.4-.8.7-1a7,7,0,0,1,1.2-.3c.4-.2.7-.6,1.1-.7l1.3.2c.4,0,.8-.3,1.3-.2a5.6,5.6,0,0,1,1.2.4c.5.1.9-.2,1.4-.1s.7.5,1.1.7a5.9,5.9,0,0,1,1.3.2c.4.2.6.7.8,1s.8.5,1,.9A3.5,3.5,0,0,1,67,9.3a3.2,3.2,0,0,1-.3,1.7,15,15,0,0,1-1.3,1.1c-.4.5-.6,1.1-1,1.5s-1,.7-1.3,1.2-.2,1.2-.4,1.7a5.8,5.8,0,0,0-.6,1.7,15.4,15.4,0,0,0,.5,1.7c.1.5-.6.1-1.5-.5a14.7,14.7,0,0,1-1.7-.9c-.4-.3-.7-.9-1.2-1.3s-1.1-.6-1.6-1-.7-1-1.1-1.4-1.2-.6-1.6-1-.8-1.1-1.2-1.4-1.1-.3-1.5-1"/><path class="cls-8" d="M64.3,14c-.1.6-1,1-1.2,1.7s1,3.4.8,4-1.1.9-1.4,1.5.2,1.4-.2,2-.1.1-.2.2,1.5.3,1.2.4l-.7.4c-.9,1.1-1.6,1.3-2,.3s-.1-.3,0-.6a12.5,12.5,0,0,0,.2-2.1v-.2c-.1-.1-.1-.3-.2-.4a6.2,6.2,0,0,1-.7-1.9c0-.8.7-1.6.8-2.5s-.7-1.9-.6-2.7a4.6,4.6,0,0,1,.9-1.7l.3-.8c.2-.8.3-1.7.5-2.2s.2-.4.3-.4.2.9.4,1.1.9-.5,1.1-.4,0,1,.3,1.1.8-.4,1-.2.2.4.2.6v.4c.3.2,1-.3,1.1-.1s.7.3.8.6v.3c0,.6-.7.7-.8,1.7s-1.8-.8-1.9-.1"/><path class="cls-7" d="M36.5,39.1c-.5.7-1.4,1.1-2.1,1.9a4.4,4.4,0,0,0-.8,1.1,7.1,7.1,0,0,1-1,1.4c-.6.6-1.6.9-2.3,1.5s-1.3,1.6-2,2.1-1.7.4-2.4.9-1.5,1.2-2.3,1.5-1.5-.2-2.3-.2l-.8.2a1.7,1.7,0,0,1-1.1.3c-.5-.2-.8-1-1.2-1.3s-1.2-.4-1.5-1-.1-1.5-.2-2.1-.7-1.1-.8-1.8.1-.6.1-1a3.1,3.1,0,0,0,.3-1.3,13,13,0,0,0-.3-2.2c.2-1.3-.1-1.4.7-2s1-.7,2.7-.8,1.6.4,2.6.3,1.9-.7,2.9-.8,1.7.5,2.6.4a9.8,9.8,0,0,0,2.3-.6h.5c1,0,1.8.5,2.6.5s2.1-.6,2.9-.6,2.2.6,2.1,1a8.1,8.1,0,0,1-1.2,2.7"/><path class="cls-7" d="M53.6,36.7l-.3.3a1.7,1.7,0,0,1-.6.6,1,1,0,0,1-.5.4l-1.6.8c-.6.5-.9,1.3-1.5,1.8s-1.9.9-2.6,1.5-1.4,1.5-2.3,2l-.5.3-.5.2-1.7.6c-.9.5-1.6,1.3-2.5,1.7h-.3c-.9.4-1.8.4-2.6.7a6.4,6.4,0,0,0-1.9.8l-.9.3a14.8,14.8,0,0,1-3-.1,16,16,0,0,1-3,.3,13.3,13.3,0,0,1-2.8-1l-1.8-.5h-.5l-.6-.3c-.9-.4-1.4-1.3-2.2-1.9s-1.4-.7-1.9-1.2-.6-1.4-1-1.9a13,13,0,0,1-1-1.5c-.1,0-.2-.2-.2-.3a14.8,14.8,0,0,1-.1-2.1,7.8,7.8,0,0,1-.4-2.1,16.7,16.7,0,0,1,.8-2c.2-.7,0-1.5.3-2.1s1-1.1,1.4-1.7.5-1.4.9-2,1.2-.8,1.7-1.3a7.9,7.9,0,0,1,1.4-1.7c.6-.5,1.4-.5,2-.9s1.2-1,1.8-1.4,1.6-.2,2.2-.5,1.3-.9,2-1.1,1.5-.2,2.2-.5,1.2-.9,2-1.2,1.5-.3,2.2-.6,1.1-1,1.8-1.4a17.2,17.2,0,0,0,2.1-.7c.6-.4,1.1-1.1,1.7-1.6a21.4,21.4,0,0,0,2.2-1,4.5,4.5,0,0,1,1.9-1.1c.1,0,.3.1.4,0s.5-.6.7-.8a1.5,1.5,0,0,1,1.2-.7c.6-.1.6-.4.9-.9s1.2-.4,1.7-.5,1.4.2,1.9-.1,1.6-1.2,1.9-.7,1.5-.2,2.3.1,1.4-.1,2,.5a11,11,0,0,0,1.4.9,3.8,3.8,0,0,1,1.1,1.1l.2.2A10.4,10.4,0,0,1,62.3,14c.1.1.1.3.2.4a3.9,3.9,0,0,1,.4,3h0l-.3.6.3.6c.5,1.8-.2-.3-.1,1.7s-1.5,1.6-1.5,2.3"/><path class="cls-7" d="M61.3,22.7c-.1.8,1.4,1.5,1.3,2.2a4.5,4.5,0,0,0-.1,1.1v.5a6.4,6.4,0,0,1-.2.7"/><path class="cls-7" d="M44.4,40.4c-.2.7-1,1.3-1.4,2.2a2.7,2.7,0,0,0-.3,1.2,3.4,3.4,0,0,1-.5,1.4,2.1,2.1,0,0,1-.4.6c-.4.5-1,.9-1.4,1.4s-.7,1.8-1.2,2.4-1.6,1-2.3,1.6-1,1.5-1.8,2-1.7.3-2.6.7l-.7.4a3.4,3.4,0,0,1-1.1.5c-.7.1-1.4-.4-2-.6s-1.6.1-2.1-.2-.9-1-1.3-1.5-1.4-.7-1.8-1.3a1.1,1.1,0,0,1-.3-.8c-.2-.4-.2-.8-.4-1.1s-1.1-1.1-1.4-1.6-.6-1-.6-1.3.1-.3.4-.6"/><g class="cls-9"><g class="cls-10"><path class="cls-11" d="M19.5,38.7h0"/><path class="cls-11" d="M25.7,38.9c0-.3-.8-.5-.9-.8s.6-.6.6-.8-.9-.1-1-.3.3-.6.4-.8,0-.3-.2-.3-1,.5-.8.9.6.6.5.9-1,.2-1.2.4.1,1.1-.1,1.2-.7-.5-.9-.4-.2.9-.4.9-.4-.7-.6-.8-.7.6-.9.5.3-.8.2-.9-.4.1-.5.1a.7.7,0,0,0-.5,1c.3.6,1.3.6,1.7.9s.9,1.3,1.5,1.4.9-.8,1.5-1.2,1,.2,1.1-.1-.4-.8-.4-1.1.9-.5.9-.7"/></g></g><path class="cls-6" d="M63.4,22.2c-.9-.1-4.8-5.5-.2-9.7l.5-.3a1.6,1.6,0,0,1,1.5.1c4.2,2.8.8,7.9-1,9.4s-.6.6-.8.5"/><path class="cls-12" d="M71.5,15l-.6.5c-.1.1-.2-.1-.2-.1a3.6,3.6,0,0,1,.7-1,.4.4,0,0,0,.1.3V15"/><path class="cls-13" d="M54.7,35.5l-.3.2a5.8,5.8,0,0,0-1,1.2l-.6.7-.6.4-1.5.8c-.6.5-1,1.3-1.6,1.9s-1.8.9-2.6,1.5-1.4,1.5-2.2,2.1l-.5.3-.5.2-1.7.7c-.9.5-1.6,1.2-2.5,1.7h-.4c-.2-.5.5-.9.1-1.5s-1.1-.5-1.3-.9.4-1.2.2-1.6-1.1-.7-1.2-1.1.5-1.1.5-1.5-.5-1.3-.2-1.5,1.6.1,2.7-.1,1.4-1.1,2.3-1.3,1.8.6,2.6.4,1.6-1.1,2.3-1.3,2,.4,2.7.1,1.3-1.3,1.7-1.8,1,.1,1.2,0-.1-1.1.1-1.2.9.4,1.1.3.8-.7,1-.5-.5.7-.4,1.1.4.4.6.6"/></g></g></svg>