<svg xmlns="http://www.w3.org/2000/svg" viewBox="0 0 349 339"><defs><style>.cls-1{fill:#f0b3a4;stroke:#593129;}.cls-1,.cls-2{stroke-miterlimit:10;}.cls-2{fill:#ee4241;stroke:#cb2f2f;stroke-width:2px;}</style></defs><g id="hand_02"><path class="cls-1" d="M117.7,159.2c15,25,56.8,93.6,68.8,100.8,14.6,8.8,74.8,38.5,116,56.5l1.1-67.2s-65.2-29.8-85.8-33.3c-6.6-13.7-55.6-65-68.9-82.8"/><path class="cls-1" d="M148.3,134.5c1.5-2.8,3.3-8.2,2.4-17.6-.6-5.9-4.6-16-5-26.7a60.6,60.6,0,0,1,.3-7.3c-.1-2-2.3-2.5-5.7-1.2s-5.7,6-5.6,9.2c0,0,1.3,16.7-1.8,17.3s-8.6-7-8.6-7c-4.3-6.1-9.1-14-9.1-14L97.9,57.9a5.7,5.7,0,0,0-8.1-.5c-2.4,2.1-2.3,6.5-.2,8.9l13.7,26.5a1.6,1.6,0,0,1-.4,2.1c-.6.5-1.4,1.1-2.4.3L75.8,66.8c-2.1-2.4-5.9-2.9-8.2-.7a5.6,5.6,0,0,0-.6,8l25.2,30.3c1.1,1.1.1,3.1-1.4,2.2L63.1,86.4a5.5,5.5,0,0,0-8.2,7.2l29.8,25.5c1.5,1.7.2,3.1-.9,2.1h0l-23.5-9.7c-3-1.6-6.2-2.2-7.7.2s-1.1,4.4,1.2,6.5L79.5,134c16.7,24,35.2,27.2,35.2,27.2a51.5,51.5,0,0,0,9.7,1"/><path class="cls-2" d="M231.6,217.5c.5,6.9,1.3,34.9-12.9,67.5a3,3,0,0,0,1.7,4l74.7,29.4c.8.3,1-.6,1.7-1C317,307,329.1,258,299.7,237c-9.6-6.8-56.9-19.1-66.6-20.9A1.3,1.3,0,0,0,231.6,217.5Z"/></g></svg>