<svg xmlns="http://www.w3.org/2000/svg" viewBox="0 0 84 66"><defs><style>.cls-1,.cls-10{fill:#f5b46d;}.cls-1{stroke:#fbcea1;}.cls-1,.cls-15,.cls-2,.cls-6,.cls-8{stroke-miterlimit:10;}.cls-1,.cls-15{stroke-width:0.1px;}.cls-2,.cls-5{fill:#f68e1e;}.cls-2,.cls-6,.cls-8{stroke:#f5b46d;stroke-width:0.3px;}.cls-3{fill:#f47f20;}.cls-4{fill:#fff8e1;}.cls-15,.cls-6,.cls-7{fill:#f9a528;}.cls-8{fill:#ffdfad;}.cls-9{fill:#fbcea1;}.cls-11{fill:#eae0ce;}.cls-12{fill:#87bbbe;}.cls-13{fill:#424243;}.cls-14{fill:#fff;}.cls-15{stroke:#f37c20;}.cls-16{fill:#f37c20;}</style></defs><g id="Layer_64" data-name="Layer 64"><g id="Duck_poses_01_F_02_" data-name="Duck poses 01 ( F 02 )"><path class="cls-1" d="M52.3,30.9c.8.1.4.8-.8,1s.9.6-.3,1.3a19,19,0,0,1-6.1,2c-4.7.8-10.5-3.8-8.9-6s9.5-1.2,15.4.3C53.4,30,53.3,30.5,52.3,30.9Z"/><path class="cls-2" d="M42.2,44.1a9,9,0,0,0-1.5-1.8l-.9.5a30.5,30.5,0,0,1,2.1,4c0,.2.1.2-1.2,1.4a9.5,9.5,0,0,0-1.9,2.1h0a.2.2,0,0,0,.1.4H39a1.4,1.4,0,0,1,1.6.6h.3a2.9,2.9,0,0,1,2.2-.3h.1c.2,0,.3-.2.3-.4a25.1,25.1,0,0,1-.4-2.7c0-.6.4-.9.1-1.4A6.7,6.7,0,0,1,42.2,44.1Z"/><path class="cls-3" d="M41.7,47.8c-.4,0-2.4,2.7-2.4,2.7s-.4.1-.4.2H39a1.4,1.4,0,0,1,1.6.6,1,1,0,0,1-.1-.4S42.1,47.8,41.7,47.8Z"/><path class="cls-3" d="M43,50.7c-.1-.7-.3-3.2-.6-3.1S41.1,51,41.1,51l-.2.2a2.9,2.9,0,0,1,2.2-.3C43,50.9,43,50.8,43,50.7Z"/><path class="cls-4" d="M40.8,50.8c-.6-.1-.2,1-.2,1S41.5,50.9,40.8,50.8Z"/><path class="cls-4" d="M43.2,50.6c-.7.1.1,1,.1,1S44,50.5,43.2,50.6Z"/><path class="cls-4" d="M39.1,50.3c-.7-.2-.4,1-.4,1S39.7,50.5,39.1,50.3Z"/><path class="cls-5" d="M42.2,45.1s1.2.2,1.2.6-1.1-.1-1.1-.1Z"/><path class="cls-6" d="M39.9,43.1a2.2,2.2,0,0,1,.1-.6l-1-.4-.2.5-.7,1.6a7.5,7.5,0,0,1-1,2c-.1.2-.1.2-1.9-.1a12.3,12.3,0,0,0-2.7-.2h-.1c-.1,0-.2.2-.2.3h0a.1.1,0,0,1,.1.1l.3.4c.1,0,.1,0,.1.1h0c.1.1.1.1.1.2v.6a.1.1,0,0,1-.1.1h.1c0,.1.1.1.2.1h.2l.3.2h.1l.5.4c0,.1.1.1.1.2a.1.1,0,0,1,.1.1l.2.3h.1a.5.5,0,0,0,.5,0,18,18,0,0,1,1.9-2c.5-.4,1-.2,1.2-.8s.1-.4.3-.6l.3-.6.3-.5c.1-.2.3-.4.3-.5A4.8,4.8,0,0,0,39.9,43.1Z"/><path class="cls-5" d="M36.2,46.7c-.2-.3-3.6-.3-3.6-.3s-.3-.3-.4-.2h0a1.3,1.3,0,0,1,.6,1.6.5.5,0,0,0,.1-.3S36.4,47,36.2,46.7Z"/><path class="cls-5" d="M34.6,49.5c.6-.5,2.4-2.2,2.2-2.4s-3.5,1-3.5,1H33a3.1,3.1,0,0,1,1.6,1.6Z"/><path class="cls-4" d="M33.3,47.8c-.3-.6-1,.5-1,.5S33.6,48.4,33.3,47.8Z"/><path class="cls-4" d="M34.9,49.6c-.5-.5-.7.7-.7.7S35.4,50.1,34.9,49.6Z"/><path class="cls-4" d="M32.6,46.1c-.2-.6-1,.3-1,.3S32.9,46.7,32.6,46.1Z"/><path class="cls-7" d="M38.6,45.4s.6,1.2.3,1.4-.6-.9-.6-.9Z"/><path class="cls-5" d="M39.9,43.1l-1.1-.5-.7,1.6a2.2,2.2,0,0,0,.7.9l.3.2c.1-.2.3-.4.3-.5A4.8,4.8,0,0,0,39.9,43.1Z"/><path class="cls-8" d="M51.5,34.4c2.6-.6,4.6-1.6,5.2-2.3s.3-1.5-.6-1.2a27.6,27.6,0,0,1-8.6.8S49,35,51.5,34.4Z"/><path class="cls-9" d="M51.7,35c2.9-.4,5.4-2,5.4-2.6s-.7-.6-.7-.6S48.3,35.6,51.7,35Z"/><path class="cls-10" d="M52.6,34.9l.3,1.9,3.5-2.9c.4-.4,0-1.1,0-1.1Z"/><path class="cls-8" d="M30.8,28.2c-.5,3.2-1.5,4.3-.5,8.8a6.6,6.6,0,0,0,3.1,3.4c3.7,2.5,9.9,4.4,11.3,4.3s6.9-3.5,8.4-8a7,7,0,0,0,.4-3.5c-.2-1.6-5.3-3.8-9.6-4.2s-3.1.2-3.6,0-4.8,1-4.7-2.4"/><path class="cls-9" d="M46.1,42.2c-4.6,1.5-10.5-1.1-13.3-2.1,3.9,2.6,10.1,4.7,11.6,4.6s7.1-3.5,8.6-8.2C50.5,37,51,40.6,46.1,42.2Z"/><path class="cls-9" d="M34.8,29.4c1.3,1.8,6.2-.6,7.6-.5a19.9,19.9,0,0,0-4.9-.3,2.3,2.3,0,0,1-1.5-2c-.1-.7.6-5.7.3-6.1S33.9,28,34.8,29.4Z"/><path class="cls-8" d="M30,33.7a6.6,6.6,0,0,0,.1-1.4,60.1,60.1,0,0,0,1-8.4,8.2,8.2,0,0,0-.2-2.2c1,1.2,3.7-1.4,3.4-1.7s-1.7,1.1-3.6.4c.1-.1.3-.6.3-.3-1.8-1.1,0-2.3-1.1-2.9s-1.1,1-1.2,1.2.2-3.3,2.8-4.2,4.4,0,5.1,1.5a4.8,4.8,0,0,1,.4,2.9c-.7,3.7-1.2,5.4-1.9,9.6M33.3,16.7c-.5-.6-1.4.2-1,.7S33.8,17.2,33.3,16.7Z"/><path class="cls-11" d="M30.5,20.9a2,2,0,0,1,.4.8h-.1l-.3-.7Z"/><path class="cls-9" d="M30.9,21.7a2.5,2.5,0,0,0-.8-1l.6-.3c1.9.7,3.3-.7,3.6-.4S31.9,22.9,30.9,21.7Z"/><path class="cls-7" d="M30.5,20.9h0l-.3-.2Z"/><path class="cls-7" d="M33.3,16.7c.5.5-.6,1.1-1,.7S32.8,16.1,33.3,16.7Zm-.9.6c.3.3,1.2-.1.8-.6h-.1a.5.5,0,0,0-.7.3h0a.3.3,0,0,0,0,.4Z"/><path class="cls-12" d="M32.5,16.7h.7c.4.5-.5.9-.8.6a.3.3,0,0,1,0-.4h0c0,.1.1.1.2.1h0c.2.1.6-.1.4-.3s-.2-.2-.3-.1h-.3C32.4,16.8,32.5,16.8,32.5,16.7Z"/><path class="cls-13" d="M32.7,16.8c.1-.1.2,0,.3.1s-.2.4-.4.3h0c.1,0,.2,0,.2-.1S32.8,16.9,32.7,16.8Z"/><path class="cls-14" d="M32.4,16.9Z"/><path class="cls-14" d="M32.4,17h.3c-.1.1-.2.2-.1.3h0C32.5,17.1,32.4,17.1,32.4,17Z"/><path class="cls-14" d="M32.6,17.1c-.1-.1,0-.2.1-.3s.1.1.1.2-.1.1-.2.1Z"/><path class="cls-9" d="M34.8,29A53.5,53.5,0,0,1,37,18.6a40.7,40.7,0,0,1-.8,6.1c-.6,2.5.5,3.5.8,3.7Z"/><path class="cls-15" d="M31.2,20l-.2.2-.4.4h-.2v-.2c-1.4,1-3.6,1-4.1.5s1.2-.5,2-1.7a10.1,10.1,0,0,0,.7-1.5h0c.1-.1.6-1.1,1.3-.8S29.8,19,31.2,20Z"/><path class="cls-16" d="M29.9,18.4c.2.3-.6,1-.8.9S29.6,18.1,29.9,18.4Z"/><path class="cls-16" d="M31.2,20c-1,1.8-3.9,1.1-3.9,1.1a4.3,4.3,0,0,0,3.6-1.4Z"/><path class="cls-1" d="M50.2,36.6c.6.5.1,1-1.1.7s.6.9-.8,1.1a19.7,19.7,0,0,1-6.4-.2c-4.6-1-8.5-7.3-6.2-8.8S45,31.7,50,35.1C51.5,36.2,51.3,36.7,50.2,36.6Z"/></g></g></svg>