<svg xmlns="http://www.w3.org/2000/svg" viewBox="0 0 84 66"><defs><style>.cls-1{fill:#f89f1f;}.cls-2{fill:#d99728;}.cls-3{fill:#fbe508;}.cls-3,.cls-7{stroke:#bcae32;stroke-miterlimit:10;stroke-width:0.3px;}.cls-4{fill:#e9c01e;}.cls-5{fill:#f9b31a;}.cls-6{fill:#e49f24;}.cls-7,.cls-9{fill:#e6e125;}.cls-8{fill:#f2d54f;}.cls-10{fill:#e55446;}.cls-11{fill:#d74741;}.cls-12{fill:#fff;}.cls-13{fill:#282625;}</style></defs><g id="Layer_82" data-name="Layer 82"><g id="Duck_poses_01_F_02_" data-name="Duck poses 01 ( F 02 )"><path class="cls-1" d="M46.1,42.8l.8,1.1.4.4a7.5,7.5,0,0,0-1.5.7c-.3.2,1-.2,1.4-.2s-.9,2.6-.5,2.1,1-2.1,1.2-2.2a6,6,0,0,1,2.1.5c.4.2-1-.9-1.7-1.1a11.5,11.5,0,0,1,1-1.3,5.7,5.7,0,0,0-1.6,1.3l-.6-.6-.9-1.3Z"/><path class="cls-2" d="M48.3,44.1l1-1.3A7.9,7.9,0,0,0,48,44.1s-.2.1-.3,0h0l-.6-.6-.7-1v.4l.8,1.1.4.4a5.2,5.2,0,0,0-1.4.6l1.1-.2h0L46.6,47a15.2,15.2,0,0,1,1.3-2.4l1.5.3.7.3A8.2,8.2,0,0,0,48.3,44.1Z"/><path class="cls-2" d="M44.7,41.5l1.7,2a.5.5,0,0,0,.5-.4l-1.7-2.3Z"/><path class="cls-1" d="M44.7,41.5l1,1.2c.2-.1.4-.3.3-.8l-.8-1.1Z"/><path class="cls-3" d="M41.4,38.3a2.5,2.5,0,0,0,.1,2.3,6,6,0,0,0,2.6,1.6l.8.3c.3,0,.6-.2.9-.7s.3-.5.3-.7a17.9,17.9,0,0,0-.9-3.2C44.8,37.5,43.4,37.1,41.4,38.3Z"/><path class="cls-4" d="M40.8,37.8a2.5,2.5,0,0,0,.1,2.3,3.9,3.9,0,0,0,2.6,1.6,2.7,2.7,0,0,0,1.7-.4c.6-.4.9-.8.9-1a8.7,8.7,0,0,0-1.5-2.9C44.2,37,42.8,36.6,40.8,37.8Z"/><path class="cls-1" d="M40.9,45.9s-.2,1.2-.2,1.5v.7a8.4,8.4,0,0,0-1.7-.7c-.4,0,.9.7,1.2,1s-2.8,1.4-2.1,1.3a22.2,22.2,0,0,1,2.8-.8A7.2,7.2,0,0,1,42.2,51c.2.5-.2-1.5-.5-2.2a8.9,8.9,0,0,1,1.8-.3,7.1,7.1,0,0,0-2.3-.3v-.9l.3-1.8Z"/><path class="cls-2" d="M41.7,48.8l1.8-.3a7.4,7.4,0,0,0-2.1,0,.4.4,0,0,1-.2-.3h0v-.9c.1-.3.1-1,.2-1.4l-.4.2s-.2,1.2-.2,1.6v.7a6.5,6.5,0,0,0-1.6-.7l1,.7h-.1c.1,0,0-.1,0,0L38,49.7a15.1,15.1,0,0,1,3-.9l1,1.5a6.4,6.4,0,0,1,.2.7A5.2,5.2,0,0,0,41.7,48.8Z"/><path class="cls-2" d="M40.8,43.7l-.2,3a.6.6,0,0,0,.7.1l.5-3.2Z"/><path class="cls-1" d="M40.8,43.7v1.8c.3.1.5.1.9-.4l.2-1.5Z"/><path class="cls-3" d="M40.8,38.5a2.9,2.9,0,0,0-1.8,2c-.3,1.3.8,3.3.8,3.3a3.1,3.1,0,0,0,.4.9,1.6,1.6,0,0,0,1.3.2c.6-.1.7-.2.8-.4a10.9,10.9,0,0,0,1.8-3.3C44.1,40.6,43.4,39.1,40.8,38.5Z"/><path class="cls-4" d="M40.7,37.6a2.9,2.9,0,0,0-1.8,2,4.2,4.2,0,0,0,.8,3.3A3.4,3.4,0,0,0,41.4,44a2.3,2.3,0,0,0,1.6-.2,9.8,9.8,0,0,0,1-3.5C44,39.7,43.3,38.3,40.7,37.6Z"/><path class="cls-5" d="M50.2,18.2c-.2-.3-.4-1.2,0-1.6s1.9,0,2.3.3a5.2,5.2,0,0,0-1.6,1.2C50.5,18.6,50.3,18.4,50.2,18.2Z"/><path class="cls-6" d="M50.2,18.2c.1.2.3.4.7-.1a5.2,5.2,0,0,1,1.6-1.2h0a2.7,2.7,0,0,0-1.5.3,3.1,3.1,0,0,0-.9.7A.4.4,0,0,0,50.2,18.2Z"/><path class="cls-7" d="M42,23.9h0c-2.8,1.1-7.4,3.4-9.6,6.4,0,0-3.2-2.3-3.5,0S26.8,43.2,40.8,41.4c4.1-.5,11-2.7,10.5-12.9L50.1,24s-.9-2.1-.4-2.9,2.3-3.5.4-5.7-5.7,1.4-6.8,3.9A40.4,40.4,0,0,0,42,23.9Z"/><path class="cls-8" d="M36.3,26.8a18.7,18.7,0,0,1,6-2.9h0a40.4,40.4,0,0,1,1.3-4.6,15.8,15.8,0,0,1,1.9-3.2h1.2a4.9,4.9,0,0,1,1.1,4.4c-.7,2.6-1.9,7.7-5.5,9.1s-8.7,3.8-9.7,2.4a1.7,1.7,0,0,1,.1-1.4A20.3,20.3,0,0,1,36.3,26.8Zm6.1-3h0Z"/><path class="cls-9" d="M46.3,28.2s-5.9-.7-10.3.6-4.3,3.4-4.3,3.4-.3,1.1,1.3.7a5.3,5.3,0,0,0,2.1,2.9,9.7,9.7,0,0,0,12.2-4.4A2.4,2.4,0,0,0,46.3,28.2Z"/><path class="cls-8" d="M46.9,28.3a12.3,12.3,0,0,0-2.9-.4s-11,0-10.5,3.2c.1.7,1.5,1.2,2.7,1.2s-.3,1.8,1.4,2.6,5.4,1.6,9.5-3.1l.3-.5C47.8,30.7,48.2,28.9,46.9,28.3Z"/><path class="cls-10" d="M48.5,14.9c.2,0,.8,0,.6-.4s-1.4-1.4-2.3-1.1a.8.8,0,0,0-.6.6.9.9,0,0,0-.6.8,1,1,0,0,1-.4.8.6.6,0,0,0,.2,1c.3.1.6-.5,1.3-.9A4,4,0,0,1,48.5,14.9Z"/><path class="cls-11" d="M46.7,15.7a4,4,0,0,1,1.8-.8c.2,0,.8,0,.6-.4l-.7-.7a1.8,1.8,0,0,0-1-.1.9.9,0,0,0-.6.8.9.9,0,0,0-.7.8.9.9,0,0,1-.5.9c-.1.2-.1.3-.2.4S46.1,16.1,46.7,15.7Z"/><ellipse class="cls-12" cx="49.7" cy="16.5" rx="0.4" ry="0.6"/><ellipse class="cls-13" cx="49.7" cy="16.5" rx="0.2" ry="0.3"/><ellipse class="cls-12" cx="49.8" cy="16.3" rx="0.1" ry="0.1" transform="translate(14.3 54.9) rotate(-65.6)"/></g></g></svg>