<svg xmlns="http://www.w3.org/2000/svg" xmlns:xlink="http://www.w3.org/1999/xlink" viewBox="0 0 200 200"><defs><style>.cls-1{mask:url(#mask);filter:url(#luminosity-noclip-6);}.cls-2{mix-blend-mode:multiply;fill:url(#linear-gradient);}.cls-3{fill:#efa750;}.cls-4{fill:#f7c6ba;}.cls-5{fill:#dc8827;}.cls-6{fill:#d2d5d4;}.cls-7{mask:url(#mask-2);}.cls-8,.cls-9{fill:#fff;}.cls-19,.cls-23,.cls-24,.cls-8{stroke:#4c2e19;}.cls-19,.cls-21,.cls-23,.cls-24,.cls-8{stroke-miterlimit:10;}.cls-8{stroke-width:0.1px;}.cls-10{fill:#1e1c1b;}.cls-11{fill:#cf7826;}.cls-12{fill:#1e1513;}.cls-13{fill:#fff48a;}.cls-14{mask:url(#mask-3);}.cls-15{mask:url(#mask-4);}.cls-16{fill:#8e8d8d;}.cls-17{mask:url(#mask-5);}.cls-18{mask:url(#mask-6);}.cls-19,.cls-23,.cls-24{fill:none;}.cls-19,.cls-21{stroke-width:0.5px;}.cls-20{mask:url(#mask-7);}.cls-21{fill:#f39e30;stroke:#4c2e1a;}.cls-22{mask:url(#mask-8);}.cls-24{stroke-width:0.75px;}.cls-25{filter:url(#luminosity-noclip-8);}.cls-26{filter:url(#luminosity-noclip-7);}.cls-27{filter:url(#luminosity-noclip-5);}.cls-28{filter:url(#luminosity-noclip-4);}.cls-29{filter:url(#luminosity-noclip-3);}.cls-30{filter:url(#luminosity-noclip-2);}.cls-31{filter:url(#luminosity-noclip);}</style><filter id="luminosity-noclip" x="131.86" y="-7542" width="1.76" height="32766" filterUnits="userSpaceOnUse" color-interpolation-filters="sRGB"><feFlood flood-color="#fff" result="bg"/><feBlend in="SourceGraphic" in2="bg"/></filter><mask id="mask" x="131.86" y="-7542" width="1.76" height="32766" maskUnits="userSpaceOnUse"><g class="cls-31"/></mask><linearGradient id="linear-gradient" x1="828.05" y1="97.17" x2="827.37" y2="101.25" gradientTransform="matrix(-1, 0, 0, 1, 960.72, 0)" gradientUnits="userSpaceOnUse"><stop offset="0" stop-color="#fff"/><stop offset="1"/></linearGradient><filter id="luminosity-noclip-2" x="132.24" y="-7542" width="1.89" height="32766" filterUnits="userSpaceOnUse" color-interpolation-filters="sRGB"><feFlood flood-color="#fff" result="bg"/><feBlend in="SourceGraphic" in2="bg"/></filter><mask id="mask-2" x="132.24" y="-7542" width="1.89" height="32766" maskUnits="userSpaceOnUse"><g class="cls-30"/></mask><filter id="luminosity-noclip-3" x="123.9" y="-7542" width="5.17" height="32766" filterUnits="userSpaceOnUse" color-interpolation-filters="sRGB"><feFlood flood-color="#fff" result="bg"/><feBlend in="SourceGraphic" in2="bg"/></filter><mask id="mask-3" x="123.9" y="-7542" width="5.17" height="32766" maskUnits="userSpaceOnUse"><g class="cls-29"/></mask><filter id="luminosity-noclip-4" x="116.78" y="-7542" width="8.09" height="32766" filterUnits="userSpaceOnUse" color-interpolation-filters="sRGB"><feFlood flood-color="#fff" result="bg"/><feBlend in="SourceGraphic" in2="bg"/></filter><mask id="mask-4" x="116.78" y="-7542" width="8.09" height="32766" maskUnits="userSpaceOnUse"><g class="cls-28"/></mask><filter id="luminosity-noclip-5" x="101.9" y="-7542" width="5.56" height="32766" filterUnits="userSpaceOnUse" color-interpolation-filters="sRGB"><feFlood flood-color="#fff" result="bg"/><feBlend in="SourceGraphic" in2="bg"/></filter><mask id="mask-5" x="101.9" y="-7542" width="5.56" height="32766" maskUnits="userSpaceOnUse"><g class="cls-27"/></mask><filter id="luminosity-noclip-6" x="131.86" y="95.1" width="1.76" height="5.45" filterUnits="userSpaceOnUse" color-interpolation-filters="sRGB"><feFlood flood-color="#fff" result="bg"/><feBlend in="SourceGraphic" in2="bg"/></filter><mask id="mask-6" x="131.86" y="95.1" width="1.76" height="5.45" maskUnits="userSpaceOnUse"><g class="cls-1"><path class="cls-2" d="M131.9,95.1c.7,1,1.8,2.7,1.7,4.4a1.2,1.2,0,0,1-1,1,1.5,1.5,0,0,0,.8-1.9A14.2,14.2,0,0,0,131.9,95.1Z"/></g></mask><filter id="luminosity-noclip-7" x="88.12" y="-7542" width="4.42" height="32766" filterUnits="userSpaceOnUse" color-interpolation-filters="sRGB"><feFlood flood-color="#fff" result="bg"/><feBlend in="SourceGraphic" in2="bg"/></filter><mask id="mask-7" x="88.12" y="-7542" width="4.42" height="32766" maskUnits="userSpaceOnUse"><g class="cls-26"/></mask><filter id="luminosity-noclip-8" x="75.83" y="-7542" width="10.81" height="32766" filterUnits="userSpaceOnUse" color-interpolation-filters="sRGB"><feFlood flood-color="#fff" result="bg"/><feBlend in="SourceGraphic" in2="bg"/></filter><mask id="mask-8" x="75.83" y="-7542" width="10.81" height="32766" maskUnits="userSpaceOnUse"><g class="cls-25"/></mask></defs><g id="Cat_01"><path class="cls-3" d="M84.5,79.9h0a27.2,27.2,0,0,1-6.2,5.1,9.5,9.5,0,0,1-5.8,1.4,11.2,11.2,0,0,1-5.8-2.7.5.5,0,0,0-.9,0,1,1,0,0,0,0,1.3,12.2,12.2,0,0,0,6.7,2.7,11.2,11.2,0,0,0,6.7-1.3A13.8,13.8,0,0,0,84.5,79.9Z"/><path class="cls-3" d="M131.9,89.7s1.2-4.4,0-6.7-2.2,2.4-5.1,4.5C126.1,88,131.9,89.7,131.9,89.7Z"/><path class="cls-4" d="M127.6,86.8c2.1-2.1,3-5.4,4.1-4.1-.7.7-1.8,2.4-1.1,5.8A17.6,17.6,0,0,0,127.6,86.8Z"/><path class="cls-3" d="M125.3,102.2s-4.8,15.6-3.9,17.8.6,5.3-2.5,3.7-2.6-22.7-2.3-27.5C119.5,94.1,125.3,102.2,125.3,102.2Z"/><path class="cls-5" d="M121.7,121.1c.6,2.3-.1,4-2.8,2.6a2.9,2.9,0,0,1-.7-.8A3.2,3.2,0,0,1,121.7,121.1Z"/><path class="cls-5" d="M116.4,107.9a12.2,12.2,0,0,1,7.4-2.5s-1.9,3.8-3.7,5.2c-1,4.8-.7,9.4,0,10.6a4.4,4.4,0,0,1-1.7,2C117,121.3,116.5,114.4,116.4,107.9Z"/><path class="cls-5" d="M106.7,90.5s1.2,11.2-10,12.3c-2.7.2-3,3.6-1.6,6.3s1.1,4.2-2,3.3-3.4-12.1-2.3-13.6S95,94,94.9,89.9s-.4-4.7,6.7-4.5C105.5,92.9,106.7,90.5,106.7,90.5Z"/><path class="cls-5" d="M95.3,109.3c1.3,2.7.8,4-2.2,3.1a1.8,1.8,0,0,1-.9-.7C93.1,109.9,94.3,109.3,95.3,109.3Z"/><path class="cls-3" d="M86.3,78.9a35.2,35.2,0,0,1,29.6,12.5,7.1,7.1,0,0,1,1.5-.8c3.4-1.2,7.4,1.4,8.9,5.7s-.1,8.8-3.5,10a5.5,5.5,0,0,1-2.2.2c-4.5,5.7-15.4,3.6-18.8.2-5.2-6.3-11.9-8.6-15.1-8.4a10.7,10.7,0,0,1-4.2-5.5C79.8,86.4,83.6,79.3,86.3,78.9Z"/><path class="cls-3" d="M90.2,94.9c6.6-.9,12.4,3.9,14.3,5.9,3.6,3.9,8.8,5.2,10.4,2.5,3.2-5.5,4.5-4.7,4.5-4.7a58.6,58.6,0,0,1,6.8,4.4,6.4,6.4,0,0,1-3.4,3.3,5.5,5.5,0,0,1-2.2.2c-4.5,5.7-15.4,3.6-18.8.2-5-6-11.4-8.4-14.7-8.4A8,8,0,0,1,90.2,94.9Z"/><path class="cls-3" d="M114.5,103.9s-5.2,18.9-4.3,21.1.6,5.3-2.5,3.6-2.6-22.7-2.3-27.4C108.3,99.1,114.5,103.9,114.5,103.9Z"/><path class="cls-3" d="M116.8,94.9a8.6,8.6,0,0,0,8.7,8.4c4.8,0,8.9-3.2,8.9-7.8a9.2,9.2,0,0,0-8.9-8.9A8.5,8.5,0,0,0,116.8,94.9Z"/><path class="cls-3" d="M129.5,89.4c1.8,2.2,5.2,5.7,4.5,10.8-.4,2.6-6.6,5.8-13.1,1.3C119,96.8,123.2,81.5,129.5,89.4Z"/><path class="cls-6" d="M132.2,95.5c0,.9.5,1.6,1,1.6s.9-.7.9-1.6-.4-1.6-.9-1.6S132.2,94.6,132.2,95.5Z"/><g class="cls-7"><path class="cls-5" d="M132.2,95.5c0,.9.5,1.6,1,1.6s.9-.7.9-1.6-.4-1.6-.9-1.6S132.2,94.6,132.2,95.5Z"/></g><path class="cls-8" d="M132.4,95.9a1.3,1.3,0,0,0,.9.9c.5,0,.7-.7.6-1.3s-.6-1.2-1-1.1S132.2,95.2,132.4,95.9Z"/><path class="cls-5" d="M110.2,125c1.1,2.7.6,5.3-2.5,3.6a2.6,2.6,0,0,1-1-1.5A3.5,3.5,0,0,1,110.2,125Z"/><path class="cls-9" d="M124.6,99.8c1.4-1.8,5.8-.8,5.8-.8l2.2-.2c.6-.3,1.1-1.5,1.4-.6a6.7,6.7,0,0,1,0,2c-.3,1.9-3.9,4.2-8.3,3.4C124.1,102.7,123.6,101.2,124.6,99.8Z"/><path class="cls-10" d="M133.6,99.7a3.4,3.4,0,0,1-1.4,1.9,2,2,0,0,1-1.6-1.7A20.5,20.5,0,0,1,133.6,99.7Z"/><path class="cls-9" d="M131.8,95c.7,1,1.9,2.8,1.8,4.5s-.8,1.1-1.5,1.1-1.9-.5-2.7-2.6S129.6,92.1,131.8,95Z"/><path class="cls-11" d="M125.5,86.6a9.8,9.8,0,0,1,3.4.7l1.7,1a.1.1,0,0,0,.1.1c-.7-.4-5.8-2.6-8,1.9a6.8,6.8,0,0,1-1.8-2.4A8.8,8.8,0,0,1,125.5,86.6Z"/><path class="cls-12" d="M132.8,95.6c0,.4.1.8.4.8s.4-.4.4-.8-.2-.7-.4-.7S132.8,95.2,132.8,95.6Z"/><path class="cls-13" d="M132.9,95.5c0,.2.1.3.2.3s.2-.1.2-.3-.1-.4-.2-.4S132.9,95.3,132.9,95.5Z"/><path class="cls-6" d="M129.1,97.7s-.2-4.1-3.9-2.7S126.3,101.3,129.1,97.7Z"/><g class="cls-14"><path class="cls-5" d="M129.1,97.7s-.2-4.1-3.9-2.7S126.3,101.3,129.1,97.7Z"/></g><path class="cls-8" d="M124.7,96.5a1.6,1.6,0,0,0,1.3,1.9,1.5,1.5,0,0,0,2.1-.9,1.9,1.9,0,0,0-1.4-2.1A1.7,1.7,0,0,0,124.7,96.5Z"/><path class="cls-12" d="M126.3,97c0,.6.3,1,.6,1s.7-.4.7-1a.8.8,0,0,0-.7-.9C126.6,96.1,126.3,96.5,126.3,97Z"/><path class="cls-13" d="M126.5,96.8c0,.3.2.5.3.5s.3-.2.3-.5-.1-.4-.3-.4A.4.4,0,0,0,126.5,96.8Z"/><path class="cls-6" d="M124.9,103.2a8.5,8.5,0,0,1-8.1-8.3,7.1,7.1,0,0,1,.7-3.2A11.6,11.6,0,0,0,124.9,103.2Z"/><g class="cls-15"><path class="cls-5" d="M124.9,103.2a8.5,8.5,0,0,1-8.1-8.3,7.1,7.1,0,0,1,.7-3.2A11.6,11.6,0,0,0,124.9,103.2Z"/></g><path class="cls-16" d="M104.2,101.9c4.9-5.9,3,12.7,2.4,16.1s.2,9.3.2,9.4c-1.4-3.3-1.7-12-1.6-18.7a10.2,10.2,0,0,1-3.3-1.9A9.1,9.1,0,0,1,104.2,101.9Z"/><g class="cls-17"><path class="cls-3" d="M104.2,101.9c4.9-5.9,3,12.7,2.4,16.1s.2,9.3.2,9.4c-1.4-3.3-1.7-12-1.6-18.7a10.2,10.2,0,0,1-3.3-1.9A9.1,9.1,0,0,1,104.2,101.9Z"/></g><path class="cls-10" d="M128.2,103h.8l1-.2h.5l.4-.3.7-.6a1.7,1.7,0,0,0,.4-.6h.4a3.5,3.5,0,0,1-.6.8h.1c0,.1.1.1.1.2h.1l-.3.2c0-.1-.1-.1-.2-.2h-.1l-.4.4-.5.2h-2.5l-.6-.2h.1Z"/><g class="cls-18"><path class="cls-6" d="M131.9,95.1c.7,1,1.8,2.7,1.7,4.4a1.2,1.2,0,0,1-1,1,1.5,1.5,0,0,0,.8-1.9A14.2,14.2,0,0,0,131.9,95.1Z"/></g><path class="cls-19" d="M134.1,97.8s2.1-8.3-7.8-11.2C128.8,86.7,136,90,134.1,97.8Z"/><path class="cls-16" d="M91.9,92.3a9,9,0,0,1-.7,6.8l-2.7-.7Z"/><g class="cls-20"><path class="cls-21" d="M91.9,92.3a9,9,0,0,1-.7,6.8l-2.7-.7Z"/></g><path class="cls-3" d="M92.3,89.9s1.2,12.2-10,13.4c-2.7.2-3,3.8-1.5,6.7s1,4.6-2.1,3.6-3.4-13.1-2.3-14.7,4.2-5.2,4.2-9.6.1-10.3,7.2-10.1C91.7,87.3,92.3,89.9,92.3,89.9Z"/><path class="cls-3" d="M80.8,110.1c1.5,3,1,4.5-2.1,3.5a2.7,2.7,0,0,1-1.3-1.3C78.4,110.4,79.7,110,80.8,110.1Z"/><path class="cls-6" d="M76.4,98.9c1.1-1.7,4.2-5.2,4.2-9.6s.1-9,5.2-10c-.8.9-1.9,2.8-1.3,6.1S89.1,96,84.1,100c-2.7,2.2-6.2.6-7.2,4.7a16.2,16.2,0,0,0-.1,6.2C75.6,106.9,75.6,100.1,76.4,98.9Z"/><g class="cls-22"><path class="cls-5" d="M76.4,98.9c1.1-1.7,4.2-5.2,4.2-9.6s.1-9,5.2-10c-.8.9-1.9,2.8-1.3,6.1S89.1,96,84.1,100c-2.7,2.2-6.2.6-7.2,4.7a16.2,16.2,0,0,0-.1,6.2C75.6,106.9,75.6,100.1,76.4,98.9Z"/></g><path class="cls-3" d="M125.4,90.5c-4.1-2.1-7.3-7.7-9.2-6.9s1,8.9,1,8.9C121.6,96.3,125.6,90.6,125.4,90.5Z"/><path class="cls-4" d="M122.8,92.3c-1.3-1.9-5.2-8.3-6.5-7.4s1.3,6.9,1.7,7.9c.1-.6.9-.5.9-.5a1.4,1.4,0,0,0-.6-.5,1.2,1.2,0,0,1,.8.3,2.9,2.9,0,0,0-1.1-1.3,2.1,2.1,0,0,1,1.8.9,3.7,3.7,0,0,0-1.2-2.2,4.5,4.5,0,0,1,2.1,2,3.3,3.3,0,0,0-.3-1.3C121,90.6,122.8,92.3,122.8,92.3Z"/><path class="cls-23" d="M65.8,83.6a.5.5,0,0,1,.9,0,11.2,11.2,0,0,0,5.8,2.7,9.5,9.5,0,0,0,5.8-1.4,24,24,0,0,0,3.1-2.1,5.1,5.1,0,0,1,2.7-2.9h0a1.1,1.1,0,0,1,.8-.3h.2l1.2-.6a35.2,35.2,0,0,1,29.6,12.5l.8-.5c-.7-2.3-1.8-6.6-.5-7.3s3,1.7,5.3,3.9l1.5-.6h.1l1-.2h2.2l1.3.2a17.7,17.7,0,0,0,2.6-3.6h0l.3-.3h.2a.1.1,0,0,1,.1-.1h.9l.2.3c1.1,2,.3,5.6.1,6.5a7.8,7.8,0,0,1,2.3,4.9,4.5,4.5,0,0,1,.1,1.1,6.4,6.4,0,0,1-.3,2v.1a.4.4,0,0,1-.1.3,8.8,8.8,0,0,1,0,2.3c-.1.1-.1.3-.2.4v.2l-.2.3h-.1l-.3.5h-.1l-.4.4h-.1l-.4.3H132l-.6.3h-.2l-.5.2h-1.1l-.7.2h-3a.5.5,0,0,0-.2.4c-.1,0-.1.1-.2.2l-.2.3-.2.2-.2.2-.2.2-.3.2c0,.1,0,.1-.1.1-1.3,4.7-3.5,13.1-2.9,14.6l.3,1.1h0c0,.1,0,.1.1.2a1.3,1.3,0,0,0,.1.6h0v.3h0v.3h0v.4h0v.2h-.1c0,.1-.1.1-.1.2h-.1v.2h-1.1c-.1,0-.2,0-.2-.1h-.7l-.5-.2-.3-.3c-.1,0-.1,0-.1-.1l-.3-.4h0a15.7,15.7,0,0,1-1.2-4.6h0c0-.3-.1-.6-.1-.9h0c0-.3-.1-.6-.1-.9V116a1.9,1.9,0,0,1-.1-.8v-.3c0-.3-.1-.5-.1-.8V113a.8.8,0,0,1-.1-.4v-1.9a4.3,4.3,0,0,0-.1-.5v-.9a13.6,13.6,0,0,1-3.5.7c-1.4,5.7-3.2,13.6-2.7,15a7.4,7.4,0,0,1,.5,2.4h0v.4h0a.4.4,0,0,1-.1.3h0a.4.4,0,0,1-.1.3h0v.2a.1.1,0,0,0-.1.1h-2l-.6-.3-.3-.2h0l-.2-.3h0l-.3-.3h0a1,1,0,0,1-.1-.3h0a1.4,1.4,0,0,1-.2-.6h-.1a13.6,13.6,0,0,0-.4-1.7h0c0-.3-.1-.5-.1-.8s-.1-.2-.1-.3a2.5,2.5,0,0,0-.1-.8v-.2c0-.3-.1-.6-.1-.9v-.2c-.2-1.1-.2-2.4-.3-3.6v-.2c0-.4-.1-.8-.1-1.1v-1.4h0c-.1-2.2-.1-4.5-.1-6.6h0a11.5,11.5,0,0,1-3.3-1.9h-.1l-1-1.1-.3-.4-.7-.7c-.1-.1-.3-.2-.4-.4l-.6-.5-.5-.4-.5-.4H96.7c-2.7.2-3,3.6-1.6,6.3a5.2,5.2,0,0,1,.8,2h0a1.3,1.3,0,0,1,.1.6h0a.8.8,0,0,1-.2.5h0l-.3.3h0l-.6.2h-.8l-1-.2-.5-.3h0c-2.5-1.8-2.8-11.2-1.9-13.1l-.5-.2a10.5,10.5,0,0,1-7.9,4.5c-2.7.2-3,3.8-1.5,6.7h0c.7,1.5,1,2.6.7,3.3h0l-.2.2h-.4c-.1,0-.1,0-.1.1H79.3l-.6-.2-.3-.2h-.1l-.2-.2H78l-.6-.8h0l-.6-1.4h0a29.4,29.4,0,0,1-1-6.9h0V103h0v-.8h0c0-.2.1-.4.1-.6h0v-.7h0a1.1,1.1,0,0,0,.1-.5h0a1.1,1.1,0,0,0,.1-.5h0a.8.8,0,0,0,.1-.4h.1v-.2c1.1-1.7,4.2-5.2,4.1-9.6V87.7a.6.6,0,0,0,.1-.4V86.1a1.1,1.1,0,0,0,.1-.5v-.3h.1l-1.6,1.1a11.2,11.2,0,0,1-6.7,1.3,12.2,12.2,0,0,1-6.7-2.7A1,1,0,0,1,65.8,83.6Z"/><path class="cls-11" d="M91.5,79.2s-4.3,4.1-2.1,11.7c0,0,1.2-11.2,4.7-11.6Z"/><path class="cls-11" d="M98.9,80.5s-4,.6-4.2,3.9c0,0,2.9-3.4,5.9-3.1Z"/><path class="cls-11" d="M103.4,82s-6.8,6.8-4.9,12.4c0,0,2.2-9.7,6.7-11.1Z"/><path class="cls-11" d="M108,85a8.2,8.2,0,0,0-3.8,8.1s1-6.7,5.6-7.1Z"/><path class="cls-11" d="M113,88.8a7.9,7.9,0,0,0-4.6,9s1.4-7.3,5.4-8.1Z"/><path class="cls-11" d="M123.5,89.1s3.5.4,4.4,3.1c0,0-.6-2-4-3.8"/><path class="cls-11" d="M125.3,87.7s3.7,1.1,4.7,3.2c0,0-1.1-3.2-3.8-3.7"/><path class="cls-24" d="M91.2,99.1s5.5,2.8,6.6,3.7"/><path class="cls-19" d="M116.4,109.3s6.3-2,7.9-3.9"/></g></svg>