<svg xmlns="http://www.w3.org/2000/svg" viewBox="0 0 84 66"><defs><style>.cls-1{fill:#dbd1c0;stroke-width:0.08px;opacity:0.3;}.cls-1,.cls-11,.cls-14,.cls-2{stroke:#000;}.cls-1,.cls-11,.cls-14,.cls-16,.cls-2,.cls-3,.cls-8,.cls-9{stroke-miterlimit:10;}.cls-2{fill:#f3e9d6;}.cls-11,.cls-14,.cls-2{stroke-width:0.04px;}.cls-3,.cls-4{fill:#fbd9ac;}.cls-16,.cls-3,.cls-8,.cls-9{stroke:#dfb784;stroke-width:0.3px;}.cls-5,.cls-8{fill:#c0945b;}.cls-6{fill:#423b32;}.cls-7{fill:#2b2722;}.cls-9{fill:#b18856;}.cls-10{fill:#68553f;}.cls-11{fill:#999085;}.cls-12{fill:#78909c;}.cls-13{fill:#434343;}.cls-14{fill:#fff;}.cls-15,.cls-16{fill:#dfb784;}.cls-17{fill:#6c5f4e;}</style></defs><g id="Layer_79" data-name="Layer 79"><g id="GoatF04_P03"><path class="cls-1" d="M62.5,28.3c-4.9,7.9-10.6,8-17.6,11.3l-.5.3h-.1l-1.2.6-.3.2H41.6v-.2c0-.1-.1-.2-.1-.4a.6.6,0,0,0-.1-.4c-.2-1-.5-2.2-.7-3.4h.1c-.2-2.1.1-4,2.2-4s2.2.3,3.4.3c5.2-.2,8.7-5,11.5-8.9L59.2,22c1.4-1.8,2.4-.9,3.5.2A43.7,43.7,0,0,0,62.5,28.3Z"/><path class="cls-2" d="M69.5,23h0c-.2,1.9-2.4,10.5-3.6,9.4A14.4,14.4,0,0,1,63,27.5a2.2,2.2,0,0,0-.5.8,43.7,43.7,0,0,1,.2-6.1c-1.1-1.1-2.1-2-3.5-.2l-1.3,1.8c-2.8,3.9-6.3,8.7-11.5,8.9-1.2,0-2.4-.3-3.4-.3s-2.4,1.9-2.2,4h-.1c.2,1.2.5,2.4.7,3.4a.6.6,0,0,1,.1.4c0,.2.1.3.1.4v.2l-1.5-.2H39a22,22,0,0,1-11.5-4.2,12.1,12.1,0,0,1-2.4-2.1c-4.6-4.8-4.7-10.6,1.9-11,1.9,1.1,3.8.4,5.6.6s7.4-1.9,12.3-4.7C51.8,15.2,53.5,9,62.5,8.7a6.6,6.6,0,0,1,2.7.6C68.3,10.8,70,15.4,69.5,23Z"/><path class="cls-3" d="M68.4,10.9h.4a1.9,1.9,0,0,1-2.9,0l-.5-.2a1.8,1.8,0,0,0-1.5.4c-.2.1-.4,0-.6-.2l-.7-.9.7-.2a1.1,1.1,0,0,0,.6-.3,4.2,4.2,0,0,0,1-1.4v.4a1.6,1.6,0,0,1,1.1-.7c-.1.1-.1.2-.1.4a1.1,1.1,0,0,1,1.3.4l-.4.2c.1.4.6,1.3,1.1,1.3h-.5c.3.4.9.5,1.6.1A1.9,1.9,0,0,1,68.4,10.9Z"/><path class="cls-4" d="M65.4,10.6a1.8,1.8,0,0,0-1.5.4c-.2.1-.4,0-.6-.2a1.1,1.1,0,0,1,0-1.1,1.1,1.1,0,0,0,.6-.3A3.7,3.7,0,0,1,65.4,10.6Z"/><path class="cls-3" d="M13.8,26.7c5.8,3.7,5-2,8.3-2.3,1.7-.1,1-1.6-.4-2.1-4.2-1.6-5.4,2.5-8.2,3.3C12.7,25.9,13.1,26.2,13.8,26.7Z"/><path class="cls-5" d="M21.5,24.1s-1.3-.3-3.4,1.2-4.3.4-4.4.7a4.1,4.1,0,0,0,3.7,1.5C19.1,27.2,19.3,24.9,21.5,24.1Z"/><path class="cls-6" d="M61.7,41l.5-1.1a2.5,2.5,0,0,1-1.4.8,7.4,7.4,0,0,0,.8-2.2,8.1,8.1,0,0,1,2.8-.3c0,.1.1.2.1.3C65.2,40.7,62.6,40.9,61.7,41Z"/><path class="cls-7" d="M60.8,40.7a4.9,4.9,0,0,0,1.5-1.3v.5A2.5,2.5,0,0,1,60.8,40.7Z"/><path class="cls-7" d="M61.7,41s2.8-.8,2.8-2.5C65.2,40.7,62.6,40.9,61.7,41Z"/><path class="cls-8" d="M64.4,38.2h0c-1.7,1.3-2.8.3-2.8.3s0-3.8-.9-4.7-.4-.3-.5-.5-.3-1.1-.5-2.1A53.6,53.6,0,0,0,57.4,26l-1.1-2c.7-2,2.3-3,4.8-2.9,0,0,.2,1.2.3,2.7a37.7,37.7,0,0,0,1.1,5.8.5.5,0,0,0,.2.4c.9.8.5,2,.6,3.2s1,2.4,1.1,3.1S64.1,37.4,64.4,38.2Z"/><path class="cls-6" d="M31.7,53.5l.9-.7a1.7,1.7,0,0,1-1.4,0,5.1,5.1,0,0,0,1.7-1.5,6,6,0,0,1,2.2,1.2v.2C34.5,55,32.4,53.9,31.7,53.5Z"/><path class="cls-7" d="M31.2,52.8a3.9,3.9,0,0,0,1.8-.4l-.4.4A1.9,1.9,0,0,1,31.2,52.8Z"/><path class="cls-7" d="M31.7,53.5s2.5.7,3.4-.8C34.5,55,32.4,53.9,31.7,53.5Z"/><path class="cls-9" d="M36.3,36.5s-.7,6.5-1.1,7.7-.9,1.4-.6,2.6-1.7,4.5-1.7,4.5.3,1.4,2.2,1.2c.2-.9.8-1,1-1.7s-.4-.8.7-3.1,1.5-2,1.2-3.1,3.3-8.2,3.3-8.2C39.5,35,37.8,35.1,36.3,36.5Z"/><path class="cls-6" d="M42.1,55.9l.5-1.1a2.4,2.4,0,0,1-1.3.7,7.4,7.4,0,0,0,.9-2.1,5.4,5.4,0,0,1,2.5.1v.2C45.2,56,42.9,55.9,42.1,55.9Z"/><path class="cls-7" d="M41.3,55.5s1.2-.6,1.4-1.1v.4A2.1,2.1,0,0,1,41.3,55.5Z"/><path class="cls-7" d="M42.1,55.9s2.5-.5,2.6-2.2C45.2,56,42.9,55.9,42.1,55.9Z"/><path class="cls-3" d="M38.7,38.6S41,44.7,41.1,46s-.2,1.6.6,2.6.5,4.8.5,4.8.8,1.1,2.5.1c-.2-.9.2-1.2.1-1.9s-.7-.6-.7-3.2.4-2.4-.3-3.3-.6-8.8-.6-8.8C40.9,35.9,39.5,36.7,38.7,38.6Z"/><path class="cls-3" d="M69.5,23h0c-.2,1.9-2.4,10.5-3.6,9.4A14.4,14.4,0,0,1,63,27.5c-5.1,8.9-11.1,8.7-18.6,12.4h-.1l-1.2.6-.4.2a11.5,11.5,0,0,1-2.6-.1h-.4a22.2,22.2,0,0,1-12.2-4.3,12.1,12.1,0,0,1-2.4-2.1c-4.6-4.8-4.7-10.6,1.9-11,1.9,1.1,3.8.4,5.6.6s7.4-1.9,12.3-4.7C51.8,15.2,53.5,9,62.5,8.7a6.6,6.6,0,0,1,2.7.6C68.3,10.8,70,15.4,69.5,23Z"/><path class="cls-3" d="M20.6,23.6c-2.1,2.6-2.6,4.6-3.7,7.6s-1.6,4,.3,5.4a2.6,2.6,0,0,0,2.6.4,7.9,7.9,0,0,0,2.7-2.1c.3-.3,3.6-.2,5.7-2.6s1.9-5.8,1.3-7.7S22.6,21.2,20.6,23.6Z"/><path class="cls-10" d="M16.7,33.4a.1.1,0,1,0-.2.1,1.6,1.6,0,0,0,.7,1.2,2,2,0,0,0,.8,2.1.2.2,0,0,0,.2-.2,2.9,2.9,0,0,1-.6-1.8,2.7,2.7,0,0,0,1.2-.5c.2-.1.3-.4-.2-.2S17.2,34.3,16.7,33.4Z"/><path class="cls-11" d="M25.3,28.9s-.4,1.2-1.1,1.2-.7-.4-1.2-.1l.3-.6c.2-.4.4-.9.8-1A.8.8,0,0,1,25.3,28.9Z"/><path class="cls-12" d="M25.2,28.8a1.2,1.2,0,0,1-1.1,1,.9.9,0,0,1-.8-.4c.2-.4.4-.9.8-1S25.1,28.5,25.2,28.8Z"/><path d="M25.2,28.8a1.6,1.6,0,0,1-.6.8.8.8,0,0,1-.9.1c-.1-.1-.2-.1-.2-.2s-.1,0-.1-.1,0-.1,0-.1.1-.3.2-.4a1.1,1.1,0,0,1,.9-.6c.3,0,.5.2.7.5h0a.7.7,0,0,0-.6-.4,1,1,0,0,0-1,.4l-.2.5v.2h.1a.1.1,0,0,0,.1.1,1,1,0,0,0,1,.2,1.4,1.4,0,0,0,.7-1Z"/><path class="cls-13" d="M23.7,29.2a1,1,0,0,0,.1.3l1.1-.5a2.3,2.3,0,0,0-.1-.4Z"/><path d="M23.7,29.2v.2H24l.8-.4a.1.1,0,0,0,.1-.1.6.6,0,0,0-.1-.4h-.5l-.4.2-.2.2h.2l.3-.2.5-.2h.1a.1.1,0,0,1,.1.1V29c-.1,0-.1,0-.1.1l-.6.3h-.3c-.1,0-.2-.2-.2-.3Z"/><path class="cls-14" d="M24.8,28.8c0,.2-.1.3-.2.3a.3.3,0,0,1-.3-.3c0-.1.1-.2.3-.2A.2.2,0,0,1,24.8,28.8Z"/><path class="cls-15" d="M63,27.5c-5.1,9-11.1,8.7-18.7,12.4h0s-.6-2.8-.2-3.2,7,0,10.5-2.9S61.4,23.1,62,23.5,63,27.5,63,27.5Z"/><path class="cls-6" d="M65.5,43l.7-1h-.1a2,2,0,0,1-.8.4h-.5a8.1,8.1,0,0,0,1.1-2s1.7-.8,2.8.2.1.2.1.3C69,43.3,66.4,43.1,65.5,43Z"/><path class="cls-3" d="M68.8,23.4h0c0,.3-.1.9-.2,1.8-.2,2.5-.4,6.6,0,7.1s.1,2.1,0,3.3.5,2.5.5,3.3-.5,1-.4,1.8h-.5a1.8,1.8,0,0,1-1.6,0,1.1,1.1,0,0,1-.7-.4s.8-3.8,0-4.9-.5-1.4-.5-2.7a2.8,2.8,0,0,0-.2-1.1"/><path class="cls-7" d="M66.4,41.5l-.2.4a.1.1,0,0,1-.1.1,2,2,0,0,1-.8.4h-.5C64.7,42.5,66.1,42,66.4,41.5Z"/><path class="cls-7" d="M65.5,43s2.9-.3,3.3-2C69,43.3,66.4,43.1,65.5,43Z"/><path class="cls-16" d="M34.4,34c-8.1.9-4.2-4.7-7.6-6.6-1.6-1-.1-2.2,1.7-2,5.1.5,4.2,5.3,6.7,7.7C35.9,33.7,35.4,33.9,34.4,34Z"/><path class="cls-5" d="M27.7,27.4s1.5.3,2.9,3,4.2,2.6,4.2,3-3.1.9-4.7-.3S29.6,29.4,27.7,27.4Z"/><path class="cls-17" d="M22.8,23.2l.7-.3c1-.6.3-1.3-.7-1.8s-.8,0-.8.5.3,1.9.8,1.6"/><path class="cls-17" d="M25.2,24.9l.7-.3c1-.6.3-1.3-.7-1.8a.6.6,0,0,0-.9.5c.1.8.3,1.9.9,1.6"/></g></g></svg>