<svg xmlns="http://www.w3.org/2000/svg" viewBox="0 0 84 66"><defs><style>.cls-1{fill:#dbd1c0;stroke-width:0.08px;opacity:0.3;}.cls-1,.cls-11,.cls-14,.cls-2{stroke:#000;}.cls-1,.cls-11,.cls-14,.cls-16,.cls-2,.cls-3,.cls-8,.cls-9{stroke-miterlimit:10;}.cls-2{fill:#f3e9d6;}.cls-11,.cls-14,.cls-2{stroke-width:0.04px;}.cls-3,.cls-4{fill:#fbd9ac;}.cls-16,.cls-3,.cls-8,.cls-9{stroke:#dfb784;stroke-width:0.3px;}.cls-5,.cls-8{fill:#c0945b;}.cls-6{fill:#423b32;}.cls-7{fill:#2b2722;}.cls-9{fill:#b18856;}.cls-10{fill:#68553f;}.cls-11{fill:#999085;}.cls-12{fill:#78909c;}.cls-13{fill:#434343;}.cls-14{fill:#fff;}.cls-15,.cls-16{fill:#dfb784;}.cls-17{fill:#6c5f4e;}</style></defs><g id="Layer_80" data-name="Layer 80"><g id="GoatF04_P04"><path class="cls-1" d="M62.3,28.3c-4.9,8-10.6,8.1-17.6,11.4l-.5.2h-.1l-1.2.6H41.4c0-.2-.1-.3-.1-.4a.9.9,0,0,0-.1-.5c-.2-.9-.5-2.2-.7-3.4h.1c-.2-2.1.1-3.9,2.2-3.9s2.2.3,3.4.2c5.2-.2,8.7-5,11.5-8.8L59,22.1c1.4-1.8,2.4-.9,3.5.1A44.6,44.6,0,0,0,62.3,28.3Z"/><path class="cls-2" d="M69.3,23h0c-.2,1.9-2.4,10.5-3.6,9.4a14.4,14.4,0,0,1-2.9-5l-.5.8a44.6,44.6,0,0,1,.2-6.1c-1.1-1-2.1-1.9-3.5-.1l-1.3,1.8c-2.8,3.8-6.3,8.6-11.5,8.8-1.2.1-2.4-.2-3.4-.2s-2.4,1.8-2.2,3.9h-.1c.2,1.2.5,2.5.7,3.4a.9.9,0,0,1,.1.5c0,.1.1.2.1.4H38.8a23.8,23.8,0,0,1-11.5-4.2l-2.4-2.1c-4.6-4.8-4.7-10.7,1.9-11.1,1.9,1.1,3.8.5,5.6.7s7.4-1.9,12.3-4.7C51.6,15.3,53.3,9,62.3,8.8a5.3,5.3,0,0,1,2.7.6C68.1,10.9,69.8,15.5,69.3,23Z"/><path class="cls-3" d="M68.2,10.9h.4a1.9,1.9,0,0,1-2.9,0l-.5-.3a2.3,2.3,0,0,0-1.5.4c-.2.2-.4.1-.6-.1l-.7-.9.7-.2.6-.4a3.6,3.6,0,0,0,1-1.3v.3c.4-.5.8-.7,1.1-.6s-.1.2-.1.3a1.2,1.2,0,0,1,1.3.5h-.4c.1.4.6,1.4,1.1,1.3s-.4.2-.4.2.8.5,1.5,0A1.9,1.9,0,0,1,68.2,10.9Z"/><path class="cls-4" d="M65.2,10.6a2.3,2.3,0,0,0-1.5.4c-.2.2-.4.1-.6-.1a1.1,1.1,0,0,1,0-1.1l.6-.4A7.1,7.1,0,0,1,65.2,10.6Z"/><path class="cls-3" d="M13.6,26.7c5.8,3.7,5-2,8.3-2.2,1.7-.1,1-1.6-.4-2.2-4.2-1.5-5.4,2.5-8.2,3.4C12.5,25.9,12.9,26.3,13.6,26.7Z"/><path class="cls-5" d="M21.3,24.2s-1.3-.4-3.4,1.2-4.3.4-4.4.7a4.4,4.4,0,0,0,3.7,1.5C18.9,27.2,19.1,25,21.3,24.2Z"/><path class="cls-6" d="M67.1,41.5l.2-1.2a2.3,2.3,0,0,1-1.1,1.1,6.1,6.1,0,0,0,.1-2.3,6.8,6.8,0,0,1,2.7-1v.2C70.4,40.2,68,41.2,67.1,41.5Z"/><path class="cls-7" d="M66.2,41.4a4.7,4.7,0,0,0,1.1-1.6v.5A2.6,2.6,0,0,1,66.2,41.4Z"/><path class="cls-7" d="M67.1,41.5s2.5-1.6,2-3.2C70.4,40.2,68,41.2,67.1,41.5Z"/><path class="cls-8" d="M69,38.1h0c-1.4,1.7-2.7,1-2.7,1s-1-3.7-2.2-4.3l-.5-.3c-.7-.4-.7-.9-1.1-1.8a42.9,42.9,0,0,0-3.7-4.4l-1.6-1.6c.1-2.1,1.3-3.5,3.9-4.1,0,0,.4,1.1,1,2.4a39.6,39.6,0,0,0,2.6,5.4l.3.2c1.1.6,1.1,1.8,1.5,3s1.6,2,1.9,2.6S68.4,37.4,69,38.1Z"/><path class="cls-6" d="M35.9,54.2l.6-1a2.1,2.1,0,0,1-1.3.5,6.6,6.6,0,0,0,1.1-2,5.5,5.5,0,0,1,2.5.4v.2C39,54.6,36.7,54.3,35.9,54.2Z"/><path class="cls-7" d="M35.2,53.7a5.2,5.2,0,0,0,1.5-.9l-.2.4A2.3,2.3,0,0,1,35.2,53.7Z"/><path class="cls-7" d="M35.9,54.2s2.6-.2,2.9-1.9C39,54.6,36.7,54.3,35.9,54.2Z"/><path class="cls-9" d="M34.7,36.6s1.5,6.4,1.5,7.6-.4,1.6.3,2.7-.2,4.8-.2,4.8a1.9,1.9,0,0,0,2.5.4c-.1-.9.4-1.2.4-1.9s-.7-.6-.3-3.2.7-2.3.1-3.3.4-8.8.4-8.8C37.2,34.2,35.7,34.8,34.7,36.6Z"/><path class="cls-6" d="M39.9,55.9l.7-1a1.8,1.8,0,0,1-1.4.4,5,5,0,0,0,1.2-1.9,6.1,6.1,0,0,1,2.5.5v.2C43,56.4,40.7,56,39.9,55.9Z"/><path class="cls-7" d="M39.2,55.3a4.6,4.6,0,0,0,1.6-.8l-.2.4A2.2,2.2,0,0,1,39.2,55.3Z"/><path class="cls-7" d="M39.9,55.9s2.6-.1,3-1.8C43,56.4,40.7,56,39.9,55.9Z"/><path class="cls-3" d="M39.4,38.2a74.1,74.1,0,0,1,1.1,7.7c-.1,1.3-.4,1.6.2,2.7s-.3,4.8-.3,4.8.7,1.2,2.5.5c-.1-.9.4-1.2.4-1.9s-.6-.6-.2-3.2.8-2.3.3-3.3.8-8.8.8-8.8C42,35.9,40.4,36.5,39.4,38.2Z"/><path class="cls-3" d="M69.3,23h0c-.2,1.9-2.4,10.5-3.6,9.4a14.4,14.4,0,0,1-2.9-5c-5.1,9-11.1,8.8-18.6,12.4h-.1l-1.2.6h-.4a7.6,7.6,0,0,1-2.6,0h-.4a23,23,0,0,1-12.2-4.2l-2.4-2.1c-4.6-4.8-4.7-10.7,1.9-11.1,1.9,1.1,3.8.5,5.6.7s7.4-1.9,12.3-4.7C51.6,15.3,53.3,9,62.3,8.8a5.3,5.3,0,0,1,2.7.6C68.1,10.9,69.8,15.5,69.3,23Z"/><path class="cls-3" d="M20.4,23.7c-2.1,2.6-2.6,4.6-3.7,7.5s-1.6,4,.3,5.4a2.6,2.6,0,0,0,2.6.4,6.5,6.5,0,0,0,2.7-2c.3-.4,3.6-.2,5.7-2.7s1.9-5.8,1.3-7.6S22.4,21.3,20.4,23.7Z"/><path class="cls-10" d="M16.5,33.4c-.1-.1-.3,0-.2.2a1.3,1.3,0,0,0,.7,1.1,1.9,1.9,0,0,0,.8,2.1c.1.1.2,0,.2-.1a3,3,0,0,1-.6-1.9,1.9,1.9,0,0,0,1.2-.4c.2-.2.3-.5-.2-.3S17,34.3,16.5,33.4Z"/><path class="cls-11" d="M25.1,28.9s-.4,1.2-1.1,1.2-.7-.3-1.2-.1l.3-.5a2.3,2.3,0,0,1,.8-1.1A1,1,0,0,1,25.1,28.9Z"/><path class="cls-12" d="M25,28.8a1.3,1.3,0,0,1-1.1,1.1,1.2,1.2,0,0,1-.8-.4,2.3,2.3,0,0,1,.8-1.1A.9.9,0,0,1,25,28.8Z"/><path d="M25,28.8a1.5,1.5,0,0,1-.6.9.7.7,0,0,1-.9,0h-.2a.1.1,0,0,1-.1-.1c-.1-.1,0-.1,0-.2s.1-.3.2-.4a1.1,1.1,0,0,1,.9-.5,1,1,0,0,1,.7.4h0a.7.7,0,0,0-.6-.4,1,1,0,0,0-1,.4.8.8,0,0,0-.2.5.3.3,0,0,0-.1.2.1.1,0,0,1,.1.1h.1a.9.9,0,0,0,1,.1,1.4,1.4,0,0,0,.7-1Z"/><path class="cls-13" d="M23.5,29.2c0,.1.1.3.1.4a3,3,0,0,0,1.1-.6c0-.1-.1-.4-.1-.3Z"/><path d="M23.5,29.2v.2a.3.3,0,0,0,.1.2c.1,0,.2,0,.2-.1l.8-.3a.3.3,0,0,0,.1-.2c0-.1,0-.3-.1-.3h-.2l-.3.2-.4.2H24l.5-.3h.1v.4h-.1l-.6.3h-.3c-.1.1-.2-.2-.2-.3Z"/><path class="cls-14" d="M24.6,28.9a.2.2,0,0,1-.2.2c-.2,0-.3-.1-.3-.2s.1-.2.3-.2Z"/><path class="cls-15" d="M62.8,27.5c-5.1,9-11.1,8.8-18.7,12.5h0s-.6-2.8-.1-3.2,6.9,0,10.4-3,6.8-10.6,7.4-10.2S62.8,27.5,62.8,27.5Z"/><path class="cls-6" d="M62.4,44.1l.8-.9h-.1l-.8.3h-.6a5.3,5.3,0,0,0,1.5-1.9,3,3,0,0,1,2.7.7v.3C65.8,45,63.3,44.3,62.4,44.1Z"/><path class="cls-3" d="M68.6,25.2h0c0,.2-.2.8-.4,1.7-.6,2.4-1.4,6.4-1.1,7s-.2,2.1-.5,3.3.1,2.5,0,3.2-.7,1-.7,1.8h-.5a2.4,2.4,0,0,1-1.6-.3,1,1,0,0,1-.6-.6s1.3-3.5.7-4.7-.3-1.5-.1-2.8a3.1,3.1,0,0,0,.1-1.1c-.1-1-.2-2.3-.4-3.5"/><path class="cls-7" d="M63.5,42.7l-.3.5h-.1l-.8.3h-.6A4.2,4.2,0,0,0,63.5,42.7Z"/><path class="cls-7" d="M62.4,44.1s2.9.1,3.5-1.5C65.8,45,63.3,44.3,62.4,44.1Z"/><path class="cls-16" d="M34.2,34.1c-8.1.9-4.2-4.7-7.6-6.6-1.6-1-.1-2.2,1.7-2.1,5.1.5,4.2,5.4,6.7,7.7C35.7,33.8,35.2,34,34.2,34.1Z"/><path class="cls-5" d="M27.5,27.5s1.5.2,2.9,2.9,4.2,2.7,4.2,3-3.1.9-4.7-.3S29.4,29.4,27.5,27.5Z"/><path class="cls-17" d="M22.6,23.3l.7-.4c1-.5.3-1.2-.7-1.8a.5.5,0,0,0-.8.5c.1.9.3,2,.8,1.7"/><path class="cls-17" d="M25,25l.7-.4c1-.5.3-1.2-.7-1.8a.6.6,0,0,0-.9.5c.1.9.3,2,.9,1.7"/></g></g></svg>