<svg xmlns="http://www.w3.org/2000/svg" viewBox="0 0 164 95"><defs><style>.cls-1{fill:#4c2d1d;}.cls-2,.cls-4{fill:#f7f2f3;}.cls-2{stroke:#6f451b;}.cls-2,.cls-5{stroke-miterlimit:10;stroke-width:0.75px;}.cls-3{fill:#271717;}.cls-5{fill:#cd8c80;stroke:#593129;}</style></defs><g id="eye_03"><path class="cls-1" d="M13.3,29.7S26.1,6.9,41.1,10.4c1.1.2.8,5.4,2.1,5.9s3.1-4.1,3.1-4.1.6,3.9.1,5.7-2.1,2.5-3.8,2.3c-10.7-.9-25.1,8.4-25.1,8.4C12.6,31.8,11.1,33.4,13.3,29.7Z"/><path class="cls-1" d="M154.5,32.5S137.2,5.6,119.2,11c-1.4.4-.6,6.7-2.1,7.3s-4.1-4.7-4.1-4.7-.4,4.8.3,7,2.7,2.8,4.8,2.4c12.9-1.9,31.2,8.5,31.2,8.5C155.4,35.1,157.5,36.8,154.5,32.5Z"/><path class="cls-2" d="M41.4,78.5A22.8,22.8,0,0,1,11,65.8,24.6,24.6,0,0,1,23.8,34.2,22.7,22.7,0,0,1,54.2,47,24.5,24.5,0,0,1,41.4,78.5"/><path class="cls-3" d="M45.5,62.7a13.2,13.2,0,0,1-15.8,10A13.4,13.4,0,0,1,36,46.6a13.3,13.3,0,0,1,9.5,16.1"/><path class="cls-4" d="M42.5,50.4a4.3,4.3,0,0,1-5.1,3.2,4.2,4.2,0,0,1-3.1-5.2,4.2,4.2,0,1,1,8.2,2"/><path class="cls-2" d="M127.4,86.5A22.8,22.8,0,0,1,97,73.8a24.6,24.6,0,0,1,12.8-31.6A22.7,22.7,0,0,1,140.2,55a24.5,24.5,0,0,1-12.8,31.5"/><path class="cls-3" d="M131.5,69.7A13,13,0,1,1,122,53.6a13.2,13.2,0,0,1,9.5,16.1"/><path class="cls-4" d="M128.5,57.4a4.3,4.3,0,0,1-5.1,3.2,4.2,4.2,0,0,1-3.1-5.2,4.2,4.2,0,1,1,8.2,2"/><path class="cls-5" d="M53.2,67.5S23.1,66.6,9.7,52.1c0,0,2.6-15.8,18.5-19.3S52.8,43.2,53.5,45.1,59.1,55.3,53.2,67.5Z"/><path class="cls-5" d="M95.2,66.6s26.2,14,44.4,8.1c0,0,7.6-14.7-4-27.1,0,0-11.2-13.8-29.7-3.2C105.9,44.4,95.3,50.4,95.2,66.6Z"/></g></svg>