<svg xmlns="http://www.w3.org/2000/svg" viewBox="0 0 84 66"><defs><style>.cls-1{fill:#d79d40;}.cls-1,.cls-2{stroke:#d28e3a;stroke-miterlimit:10;stroke-width:0.3px;}.cls-2,.cls-3{fill:#ebb146;}.cls-4{fill:#d28e3a;}</style></defs><g id="Layer_47" data-name="Layer 47"><g id="CubF1_02"><path class="cls-1" d="M47.5,28.4s2,10.7,3.3,11.2,5.5.1,6.1-.8.6-2-.6-2,.4-2.1-2.7-1.3c0,0-.1-9,1-11.7"/><path class="cls-1" d="M26.4,36.4s1.6,5.4-1,7.6c0,0-1.1-1.2-1.8,0s1.5,5.3,1,6.3-4.6.6-2.4,3.6a4,4,0,0,0,4.7-.3c2.5-1.9.6-7,.6-7s5.3.6,8.9-7.6"/><path class="cls-2" d="M52.1,31.9h0l2.3-1a7.1,7.1,0,0,1,1.4-1l.3-.4a9.3,9.3,0,0,1,1.5-1.3l1.2-1.2h0s1.9-2.9,2.6-8.7a5.3,5.3,0,0,1,1-1.4c1.7-1.7,4.2-1.3,4.6-1.5s.9-1,1.3-1.9a7.1,7.1,0,0,0,.6-3.1s-.1-1.3-2.7-2.6c0,0,.7-1.6-1.9-2.6,0,0-.5-.6-4.6-2.1A9.2,9.2,0,0,0,57.3,3S52.2-.4,52.2,5.5a1.5,1.5,0,0,0,1.2,1.4,7.1,7.1,0,0,0-.4,2,4.4,4.4,0,0,1-2.2,4,12.1,12.1,0,0,0-9,4.7,16.4,16.4,0,0,1-3.7,2.7S23.1,25,21,35.4c0,0,7.3,8.2,12.4,7.9.6,0,1,.5,1.8.3a10.5,10.5,0,0,1,5.7-6.1S51.7,32.5,52.1,31.9Z"/><path class="cls-2" d="M57.5,20.7s5.9-.9,3.2,7.2c0,0,4.2-.1,4.7.7s0,7.8,0,7.8S64.6,40,62,38.9s-.9-3.5.1-3.4.7-2.5.3-3-8.9,1.8-9.5,1.4-.5-8.3-.5-8.3"/><path class="cls-2" d="M35.1,34.7s5.5,4.1,3.5,10.5-3.5,3.6-4,6.1.7,4.9,1.1,4.9,1.9-1.7,3.3-.4,4.1,1.2.9,3.5a6.2,6.2,0,0,1-6.6,0l-4.1-5.6s3.3-4.4,1.1-7.4-10.5-3.5-9.1-10.6"/><path class="cls-3" d="M21.8,33.1s-2.4,4.6-2.4,12.3c0,0-2.9,18.5-9.7,12,0,0-.2,6.7,5.1,3.7,0,0,5.4-4.8,6.5-18.6.2-1.9.9-5.3,3.6-6.8"/><path class="cls-4" d="M21.8,33.1c-.4,1-.7,2-1,3a28.2,28.2,0,0,0-.7,3.1,29.1,29.1,0,0,0-.4,3.1c-.1,1-.2,2.1-.2,3.1h0a37.8,37.8,0,0,1-1,4.6,21.8,21.8,0,0,1-1.6,4.5A9.3,9.3,0,0,1,14,58.5a2.9,2.9,0,0,1-2.4.3,4.4,4.4,0,0,1-2-1.3h.2a7.6,7.6,0,0,0,.3,2.1,3.5,3.5,0,0,0,.9,1.7,2.4,2.4,0,0,0,1.8.5l1-.3.9-.4h0a19.9,19.9,0,0,0,3.6-5.9,37.1,37.1,0,0,0,2-6.7c.3-1.1.4-2.3.6-3.4s.3-2.3.4-3.5a10.4,10.4,0,0,1,1.1-3.4,7.6,7.6,0,0,1,1.1-1.4,7.1,7.1,0,0,1,1.4-1c-2,1.2-3,3.6-3.3,5.8s-.2,2.4-.4,3.5-.3,2.4-.6,3.5a30.5,30.5,0,0,1-2,6.7,17.7,17.7,0,0,1-3.7,6h0l-1,.4a2.9,2.9,0,0,1-1,.3,2.7,2.7,0,0,1-2.1-.6,4.4,4.4,0,0,1-1-1.9,7.6,7.6,0,0,1-.3-2.1v-.2h.3a3.9,3.9,0,0,0,1.9,1.2,2.5,2.5,0,0,0,2.2-.3c1.3-.8,2-2.3,2.7-3.7A21.8,21.8,0,0,0,18.2,50a34.1,34.1,0,0,0,1-4.6h0a33.6,33.6,0,0,1,.6-6.3,26.4,26.4,0,0,1,2-6Z"/></g></g></svg>