<svg xmlns="http://www.w3.org/2000/svg" width="101" height="113" viewBox="0 0 101 113">
  <defs>
    <style>
      .cls-1 {
        fill: #fdd0ad;
        stroke: #9b6f51;
        stroke-linejoin: round;
        stroke-width: 3px;
      }

      .cls-2 {
        fill: #eab998;
      }

      .cls-3 {
        fill: #fff2e9;
      }
    </style>
  </defs>
  <g id="Layer_5" data-name="Layer 5">
    <g>
      <path class="cls-1" d="M79.59,29.81a8.12,8.12,0,0,0-6.26.22,8.26,8.26,0,0,0-4.74,8.09,7.94,7.94,0,0,0,.72,2.82l3.29,7.19-3.29-7.19L66.13,34a8.21,8.21,0,0,0-10.87-4,8.26,8.26,0,0,0-4.49,9.58,7.54,7.54,0,0,0,.47,1.33l3.88,8.47-3.88-8.47L48.61,35.1A8.18,8.18,0,0,0,44,30.84a8.07,8.07,0,0,0-6.26.23,8.25,8.25,0,0,0-4,10.9l3.9,8.51L33.72,42l-16-34.91A8.2,8.2,0,0,0,6.87,3a8.27,8.27,0,0,0-4,10.91L29.88,73l-3.6-3-10-8.36a8.2,8.2,0,0,0-11.54,1h0a8.27,8.27,0,0,0,1,11.58l31.76,26.62h0a36.48,36.48,0,0,0,58-42L84.2,34.07A8.18,8.18,0,0,0,79.59,29.81Z"/>
      <path class="cls-2" d="M6.49,4.74s18.6,51.07,33,71.39,48.07,22,58.26-5.14c0,0,3.57,30-27.06,38.34A35.39,35.39,0,0,1,38,101C23.52,88,5.28,73.53,5.28,73.53S2,69.83,3.93,65.45c1.35-3.11,6.11-7.32,12.15-2.52,4.21,3.35,11.1,10.11,14.11,11,1.2.34-20.12-44.5-27.13-60.36C.45,7.64,6.49,4.74,6.49,4.74Z"/>
      <path class="cls-3" d="M38.37,32.78a4.39,4.39,0,0,1,3.27-1.14,6.82,6.82,0,0,1,3.48,1.22,12.83,12.83,0,0,1,4.34,5.37,39.19,39.19,0,0,1,2.19,5.85,22.72,22.72,0,0,1,1,6.34,31.92,31.92,0,0,1-3.87-5.06,46.86,46.86,0,0,1-2.94-5.43,20.9,20.9,0,0,0-2.75-4.68,6.85,6.85,0,0,0-1.92-1.71A5.51,5.51,0,0,0,38.37,32.78Z"/>
      <path class="cls-3" d="M7.56,4.63a4.41,4.41,0,0,1,3.27-1.14,6.91,6.91,0,0,1,3.48,1.22,12.83,12.83,0,0,1,4.34,5.37,39.19,39.19,0,0,1,2.19,5.85,22.72,22.72,0,0,1,1,6.34A32.53,32.53,0,0,1,18,17.21,48.43,48.43,0,0,1,15,11.78,21.13,21.13,0,0,0,12.28,7.1a6.85,6.85,0,0,0-1.92-1.71A5.49,5.49,0,0,0,7.56,4.63Z"/>
      <path class="cls-3" d="M55.79,31.16A4.42,4.42,0,0,1,59.07,30a6.73,6.73,0,0,1,3.47,1.22,12.83,12.83,0,0,1,4.34,5.37,39.19,39.19,0,0,1,2.19,5.85,22.71,22.71,0,0,1,1,6.33,32.6,32.6,0,0,1-3.87-5,50.24,50.24,0,0,1-2.94-5.44,21.06,21.06,0,0,0-2.75-4.67,7,7,0,0,0-1.91-1.71A5.55,5.55,0,0,0,55.79,31.16Z"/>
      <path class="cls-3" d="M74,31.39a4.42,4.42,0,0,1,3.28-1.14,6.82,6.82,0,0,1,3.47,1.22,12.86,12.86,0,0,1,4.35,5.37,41.52,41.52,0,0,1,2.19,5.85,23.09,23.09,0,0,1,1,6.34A33.15,33.15,0,0,1,84.43,44a50.1,50.1,0,0,1-2.94-5.43,21.27,21.27,0,0,0-2.74-4.68,7.13,7.13,0,0,0-1.92-1.71A5.55,5.55,0,0,0,74,31.39Z"/>
    </g>
  </g>
</svg>
