<svg xmlns="http://www.w3.org/2000/svg" viewBox="0 0 559.8 210.4"><defs><style>.cls-1{fill:#57b6b6;}.cls-2{opacity:0.4;}.cls-3,.cls-4{fill:#d0e6eb;}.cls-4{fill-rule:evenodd;}</style></defs><g id="Layer_2" data-name="Layer 2"><path class="cls-1" d="M204.7,90.9c0,.3,62.8,24.4,225.3,2.7l50.7,8.4s68,25.4-74.4,39.6-218.8-1.7-218.8-1.7-30.8-17-73.7-11.9,30.9-19.7,30.9-19.7-22.9-2.8-40.6,1.9,23.7-15.6,51.2-17.6S204.7,90.9,204.7,90.9Z"/><g class="cls-2"><path class="cls-3" d="M514.2,89c11.3,2.8,38.5,20.8-54.1,26.9C479.9,125.8,592.7,100.4,514.2,89Z"/><path class="cls-4" d="M154,75.1c-26.1,3.6-39.4,9.9-41.4,18.2C102,137,417.4,137.2,453.3,117.8c-18.4,4.6-338.4,17-324.6-26.9,1.4-4.4,11-11,26.5-15.8Z"/></g></g></svg>