<svg xmlns="http://www.w3.org/2000/svg" viewBox="0 0 559.8 210.4"><defs><style>.cls-1{fill:#57b6b6;}.cls-2{opacity:0.25;}.cls-3,.cls-4{fill:#d0e6eb;}.cls-4{fill-rule:evenodd;}</style></defs><g id="Layer_3" data-name="Layer 3"><path class="cls-1" d="M160.5,90.9c0,.3,62.8,24.4,225.4,2.7l50.6,8.4s68,25.4-74.3,39.6-218.8-1.7-218.8-1.7-30.9-17-73.7-11.9,30.8-19.7,30.8-19.7-22.9-2.8-40.5,1.9,23.7-15.6,51.2-17.6S160.5,90.9,160.5,90.9Z"/><g class="cls-2"><path class="cls-3" d="M511.6,93.7c14,3.6,47.5,27.3-66.7,35.4C469.4,142.1,608.5,108.7,511.6,93.7Z"/><path class="cls-4" d="M67.9,75.4C35.6,80.2,19.3,88.5,16.8,99.3c-13.1,57.6,375.6,57.8,419.8,32.3-22.6,6.1-417,22.4-400-35.4,1.7-5.8,13.6-14.5,32.8-20.8Z"/></g></g></svg>