<svg id="Layer_1" data-name="Layer 1" xmlns="http://www.w3.org/2000/svg" viewBox="0 0 559.8 210.4"><defs><style>.cls-1{fill:#57b6b6;}.cls-2{opacity:0.8;}.cls-3,.cls-4{fill:#d0e6eb;}.cls-4{fill-rule:evenodd;}</style></defs><path class="cls-1" d="M194.5,90.9c0,.3,62.8,24.4,225.3,2.7l50.7,8.4s68,25.4-74.4,39.6-218.8-1.7-218.8-1.7-30.8-17-73.7-11.9,30.9-19.7,30.9-19.7-22.9-2.8-40.6,1.9,23.7-15.6,51.2-17.6S194.5,90.9,194.5,90.9Z"/><g class="cls-2"><path class="cls-3" d="M478.1,81.2c9.5,2.3,32.3,17.4-45.5,22.6C449.3,112.1,544.1,90.7,478.1,81.2Z"/><path class="cls-4" d="M175.5,69.5c-22,3.1-33.2,8.3-34.9,15.3-8.9,36.7,256.2,36.9,286.3,20.6-15.4,3.9-284.4,14.2-272.8-22.6,1.2-3.7,9.3-9.3,22.4-13.3Z"/></g></svg>