<svg id="SB_31_Prop_Intractives_Ripples" data-name="SB_31_Prop Intractives_Ripples" xmlns="http://www.w3.org/2000/svg" xmlns:xlink="http://www.w3.org/1999/xlink" viewBox="0 0 1185 271"><defs><style>.cls-1{opacity:0.33;}.cls-2{fill:#0f7f87;}.cls-3{fill:url(#linear-gradient);}.cls-4{fill:url(#linear-gradient-2);}.cls-5{fill:url(#linear-gradient-3);}.cls-6{fill:url(#linear-gradient-4);}.cls-7{fill:url(#linear-gradient-5);}.cls-8{fill:url(#linear-gradient-6);}.cls-9{fill:url(#linear-gradient-7);}.cls-10{fill:url(#linear-gradient-8);}.cls-11{fill:url(#linear-gradient-9);}.cls-12{fill:url(#linear-gradient-10);}.cls-13{opacity:0.39;}.cls-14,.cls-15,.cls-16,.cls-17{fill-rule:evenodd;}.cls-14{fill:url(#linear-gradient-11);}.cls-15{fill:url(#linear-gradient-12);}.cls-16{fill:url(#linear-gradient-13);}.cls-17{fill:url(#linear-gradient-14);}</style><linearGradient id="linear-gradient" x1="900.38" y1="214.7" x2="1004.21" y2="214.7" gradientUnits="userSpaceOnUse"><stop offset="0" stop-color="#f6a89f"/><stop offset="1" stop-color="#d0e8ec"/></linearGradient><linearGradient id="linear-gradient-2" x1="887.9" y1="220.89" x2="1051.24" y2="220.89" xlink:href="#linear-gradient"/><linearGradient id="linear-gradient-3" x1="853.21" y1="137.41" x2="957.05" y2="137.41" xlink:href="#linear-gradient"/><linearGradient id="linear-gradient-4" x1="1570.23" y1="135.5" x2="1733.57" y2="135.5" gradientTransform="matrix(-0.3, 0, 0, 1, 1370.88, 0)" xlink:href="#linear-gradient"/><linearGradient id="linear-gradient-5" x1="1069.78" y1="197.53" x2="1173.61" y2="197.53" xlink:href="#linear-gradient"/><linearGradient id="linear-gradient-6" x1="847.02" y1="195.62" x2="1010.36" y2="195.62" gradientTransform="matrix(-0.3, 0, 0, 1, 1370.88, 0)" xlink:href="#linear-gradient"/><linearGradient id="linear-gradient-7" x1="776.5" y1="208.1" x2="880.34" y2="208.1" xlink:href="#linear-gradient"/><linearGradient id="linear-gradient-8" x1="1826.41" y1="206.19" x2="1989.75" y2="206.19" gradientTransform="matrix(-0.3, 0, 0, 1, 1370.88, 0)" xlink:href="#linear-gradient"/><linearGradient id="linear-gradient-9" x1="512.14" y1="218.68" x2="615.98" y2="218.68" xlink:href="#linear-gradient"/><linearGradient id="linear-gradient-10" x1="2709.24" y1="216.77" x2="2872.58" y2="216.77" gradientTransform="matrix(-0.3, 0, 0, 1, 1370.88, 0)" xlink:href="#linear-gradient"/><linearGradient id="linear-gradient-11" x1="405.56" y1="129.01" x2="309" y2="194" xlink:href="#linear-gradient"/><linearGradient id="linear-gradient-12" x1="492.37" y1="66.8" x2="375.75" y2="145.29" xlink:href="#linear-gradient"/><linearGradient id="linear-gradient-13" x1="376.03" y1="94.59" x2="372.52" y2="27.49" gradientUnits="userSpaceOnUse"><stop offset="0" stop-color="#f6a89f"/><stop offset="1" stop-color="#fff"/></linearGradient><linearGradient id="linear-gradient-14" x1="662.85" y1="101.7" x2="632.48" y2="122.14" xlink:href="#linear-gradient"/></defs><g class="cls-1"><path class="cls-2" d="M362.65,40.2c-15.39,1-30.77,2-46.13,3.3s-30.73,2.48-46.07,4-30.68,3-46,4.71S193.87,55.8,178.62,58c-30.51,4.16-60.92,9.28-90.84,16.49C72.85,78.1,58,82.31,43.76,88a127,127,0,0,0-20.61,10.2,57.81,57.81,0,0,0-9.11,7,32.44,32.44,0,0,0-7,9.09,32.33,32.33,0,0,1,6.66-9.41,59.78,59.78,0,0,1,9-7.34A130,130,0,0,1,43.19,86.68c14.25-6.05,29.1-10.53,44-14.47s30.09-7,45.27-9.84,30.44-5.22,45.72-7.38,30.62-3.91,46-5.54,30.7-3.14,46.08-4.29S301,42.92,316.42,42Q328,41.44,339.53,41C347.23,40.63,354.94,40.36,362.65,40.2Z"/></g><g class="cls-1"><path class="cls-2" d="M303,55.17c-11.85,1.37-23.7,2.7-35.53,4.21s-23.68,2.88-35.5,4.47C208.29,67,184.68,70.3,161.16,74.16Q143.52,77,126,80.33q-8.77,1.67-17.52,3.5c-5.82,1.25-11.63,2.53-17.43,3.88a344.67,344.67,0,0,0-34.3,9.76,135.06,135.06,0,0,0-16.47,6.78c-1.34.64-2.61,1.4-3.92,2.11s-2.55,1.52-3.74,2.4a27.91,27.91,0,0,0-6.55,6,27.87,27.87,0,0,1,6.28-6.36c1.17-1,2.44-1.73,3.68-2.58s2.55-1.58,3.88-2.27A135.8,135.8,0,0,1,56.2,96.09,340,340,0,0,1,90.46,85.47c23.15-6,46.66-10.38,70.22-14.27s47.24-7,71-9.63q17.79-2,35.61-3.65l17.84-1.48Q294,55.71,303,55.17Z"/></g><path class="cls-3" d="M971.6,204.13c13.66,3.42,44.76,21.15-71.22,17C923.56,231.36,1067.53,221.44,971.6,204.13Z"/><path class="cls-4" d="M999.94,208.1c21.48,4.14,70.4,25.59-112,20.6C924.37,241.05,1150.84,229.05,999.94,208.1Z"/><path class="cls-5" d="M924.44,126.84c13.65,3.42,44.75,21.15-71.23,17C876.4,154.08,1020.37,144.16,924.44,126.84Z"/><path class="cls-6" d="M867.12,130.25c-6.43,1.7-21.08,10.51,33.56,8.46C889.75,143.78,821.94,138.85,867.12,130.25Z"/><path class="cls-7" d="M1141,187c13.66,3.41,44.76,21.14-71.22,17C1093,214.19,1236.93,204.27,1141,187Z"/><path class="cls-8" d="M1083.69,190.36c-6.43,1.7-21.08,10.51,33.55,8.47C1106.32,203.9,1038.5,199,1083.69,190.36Z"/><path class="cls-9" d="M847.73,197.53c13.65,3.42,44.75,21.15-71.23,17C799.69,224.76,943.65,214.85,847.73,197.53Z"/><path class="cls-10" d="M790.41,200.94c-6.43,1.7-21.08,10.51,33.55,8.46C813,214.47,745.23,209.54,790.41,200.94Z"/><path class="cls-11" d="M583.37,208.1c13.65,3.42,44.75,21.15-71.23,17C535.33,235.34,679.29,225.42,583.37,208.1Z"/><path class="cls-12" d="M526.05,211.51C519.62,213.21,505,222,559.6,220,548.68,225,480.87,220.12,526.05,211.51Z"/><g class="cls-13"><path class="cls-14" d="M545.63,159.21c-32.64,22.61-254,37-319.41,30.67S550.82,215,400.78,241.69,88.5,217.92,88.5,217.92s245.32,39.76,298.67,16.42-275-36.13-218.37-47.8S409.69,189.1,545.63,159.21Z"/><path class="cls-15" d="M592.49,84c43.57,2.1,65.69,11,70,21.06,22.76,53.21-497.16,81.78-558.54,61,30.8,4.08,559.77-9.37,531.78-62.47-2.82-5.35-19-12.09-45.2-16.57Q591.53,85.48,592.49,84Z"/><path class="cls-16" d="M585.08,94.17c15.59,4.29,30.47,11.45,24,18.94-2.78,3.21-17,12.19-41.4,17-12.26,2.41-36.85,4.75-68.26,6.91,15.83-3.56,31.46-7.81,44.19-12.68,19.24-3.08,33.8-6.51,41.52-10.3,9.35-4.62,5.26-10.2-4.22-15.07q2.16-2.31,4.2-4.8ZM337.53,145c-100.29,3.69-193.83,5.42-192.46,3.69,0,0,75.94-1.59,165.16-5.67C319.54,143.69,328.68,144.36,337.53,145Z"/><path class="cls-17" d="M629.83,82.62c157.86,15.78,22.72,70-49.67,72.35C584.34,155.84,776.68,107.11,629.83,82.62Z"/></g></svg>