<svg xmlns="http://www.w3.org/2000/svg" xmlns:xlink="http://www.w3.org/1999/xlink" width="658.59" height="489.18" viewBox="0 0 658.59 489.18">
  <defs>
    <style>
      .cls-1, .cls-13, .cls-19 {
        fill: none;
      }

      .cls-10, .cls-11, .cls-12, .cls-17, .cls-2 {
        fill: #a27633;
      }

      .cls-3 {
        isolation: isolate;
      }

      .cls-4 {
        fill: #3ba347;
      }

      .cls-5 {
        fill: #17563c;
        opacity: 0.57;
      }

      .cls-6 {
        fill: #2b7a44;
      }

      .cls-7 {
        opacity: 0.62;
      }

      .cls-8 {
        clip-path: url(#clip-path);
      }

      .cls-9 {
        clip-path: url(#clip-path-2);
      }

      .cls-10, .cls-24 {
        mix-blend-mode: screen;
      }

      .cls-10, .cls-14, .cls-22, .cls-23, .cls-24 {
        opacity: 0.5;
      }

      .cls-11, .cls-18, .cls-20, .cls-25 {
        opacity: 0.56;
      }

      .cls-12, .cls-14, .cls-17 {
        mix-blend-mode: multiply;
      }

      .cls-12 {
        opacity: 0.1;
      }

      .cls-13 {
        stroke: #68433a;
      }

      .cls-13, .cls-15, .cls-19 {
        stroke-miterlimit: 10;
      }

      .cls-13, .cls-19 {
        stroke-width: 2px;
      }

      .cls-14 {
        fill: #96533e;
      }

      .cls-15 {
        fill: #6d4919;
        stroke: #4f3312;
      }

      .cls-16 {
        clip-path: url(#clip-path-3);
      }

      .cls-17 {
        opacity: 0.11;
      }

      .cls-18 {
        fill: #725024;
      }

      .cls-19 {
        stroke: #56352e;
      }

      .cls-20 {
        fill: url(#åçûìßííûé_ãðàäèåíò_222);
      }

      .cls-21 {
        fill: url(#åçûìßííûé_ãðàäèåíò_221);
      }

      .cls-22 {
        fill: #b8c4d9;
      }

      .cls-23 {
        fill: #526985;
      }

      .cls-24 {
        fill: #dee2ef;
      }

      .cls-25 {
        fill: url(#åçûìßííûé_ãðàäèåíò_222-2);
      }

      .cls-26 {
        fill: url(#åçûìßííûé_ãðàäèåíò_221-2);
      }

      .cls-27 {
        fill: #737fa8;
        opacity: 0.65;
      }

      .cls-28 {
        fill: #031c0f;
        opacity: 0.29;
      }

      .cls-29 {
        fill: url(#linear-gradient);
      }

      .cls-30 {
        opacity: 0.74;
        fill: url(#linear-gradient-2);
      }

      .cls-31 {
        fill: #c99a5c;
        opacity: 0.7;
      }

      .cls-32 {
        fill: #6e3100;
        opacity: 0.44;
      }

      .cls-33 {
        fill: #984f00;
        opacity: 0.47;
      }

      .cls-34, .cls-36, .cls-42 {
        fill: #e9d3b8;
      }

      .cls-34 {
        opacity: 0.31;
      }

      .cls-35 {
        fill: #c56807;
        opacity: 0.35;
      }

      .cls-37 {
        fill: #e2c39f;
      }

      .cls-38 {
        fill: #d6a978;
      }

      .cls-39 {
        fill: url(#linear-gradient-3);
      }

      .cls-40, .cls-44 {
        opacity: 0.9;
      }

      .cls-40 {
        fill: url(#linear-gradient-4);
      }

      .cls-41, .cls-45 {
        opacity: 0.38;
      }

      .cls-41 {
        fill: url(#linear-gradient-5);
      }

      .cls-42 {
        opacity: 0.21;
      }

      .cls-43 {
        fill: url(#linear-gradient-6);
      }

      .cls-44 {
        fill: url(#linear-gradient-7);
      }

      .cls-45 {
        fill: url(#linear-gradient-8);
      }

      .cls-46 {
        fill: #f9ea3a;
      }

      .cls-47 {
        fill: #71e259;
      }
    </style>
    <clipPath id="clip-path">
      <rect class="cls-1" x="321.04" y="342.58" width="53" height="49.29" transform="translate(-157.1 398.47) rotate(-50.12)"/>
    </clipPath>
    <clipPath id="clip-path-2">
      <path class="cls-2" d="M353,67.36c-3.22,47.9.79,231-2.62,260.32-3.07,25.52-2.71,74.51-6.21,74.51-.74,0-3.26,2.44-5.59,1.31-4.16-2-8-4.84-26.34,2.65-5.25,2.14-10-8.19-13.05-8.19V335c0-140.55,5.81-144.46,4.1-216.62-.87-34.68-.75-36.74,2.86-51.15,2.11-8.07-.29-19.42-.29-21.8.12-7.76,6.13-6.23,21.29-8.76C355.1,32.21,355.35,32.52,353,67.36Z"/>
    </clipPath>
    <clipPath id="clip-path-3">
      <path class="cls-1" d="M62.29,24.72,146.92,23s46.72-1.41,61.84-1l97.46,2.51s67.63.74,97.21-1.19,86.77-1.11,86.77-1.11,64.29-2.28,81,1.49,34,1.83,36.71,2.19,9.61.66,11.92,7.93,1,83.71,1,83.71L623,202.07l.52,61.06v31.7s-2.58,12.82-17.8,14.24-46.51-5.36-76.81-3.65-49.73-2.38-79-.2-73.92,3.81-93.34,3-72.6.85-72.6.85-37.84,1.72-65.2-3.57c0,0-35.8-.93-155,2.27,0,0-15.26,1.24-16.86-13.69s.21-96.86.21-96.86-5.58-44.34-3.59-54.61S45.16,63,45.16,63L46,34.75S48,24.66,62.29,24.72Z"/>
    </clipPath>
    <linearGradient id="åçûìßííûé_ãðàäèåíò_222" data-name="åçûìßííûé ãðàäèåíò 222" x1="328.42" y1="44.12" x2="347.7" y2="50.93" gradientUnits="userSpaceOnUse">
      <stop offset="0" stop-color="#622926"/>
      <stop offset="1" stop-color="#a94937"/>
    </linearGradient>
    <linearGradient id="åçûìßííûé_ãðàäèåíò_221" data-name="åçûìßííûé ãðàäèåíò 221" x1="327.76" y1="39.45" x2="340.28" y2="51.97" gradientUnits="userSpaceOnUse">
      <stop offset="0" stop-color="#96a5bf"/>
      <stop offset="1" stop-color="#7186a3"/>
    </linearGradient>
    <linearGradient id="åçûìßííûé_ãðàäèåíò_222-2" x1="326.39" y1="279.3" x2="345.68" y2="286.11" xlink:href="#åçûìßííûé_ãðàäèåíò_222"/>
    <linearGradient id="åçûìßííûé_ãðàäèåíò_221-2" x1="325.73" y1="274.63" x2="338.25" y2="287.15" xlink:href="#åçûìßííûé_ãðàäèåíò_221"/>
    <linearGradient id="linear-gradient" x1="283.93" y1="305.05" x2="408.76" y2="305.05" gradientTransform="translate(-55.81 104.33) rotate(-1.94)" gradientUnits="userSpaceOnUse">
      <stop offset="0.01" stop-color="#e3c878"/>
      <stop offset="1" stop-color="#cc6922"/>
    </linearGradient>
    <linearGradient id="linear-gradient-2" x1="354.26" y1="319.88" x2="354.26" y2="296.09" gradientTransform="translate(-55.81 104.33) rotate(-1.94)" gradientUnits="userSpaceOnUse">
      <stop offset="0" stop-color="#720000"/>
      <stop offset="0.19" stop-color="#760603"/>
      <stop offset="0.43" stop-color="#82160a"/>
      <stop offset="0.7" stop-color="#963017"/>
      <stop offset="0.99" stop-color="#b15529"/>
      <stop offset="1" stop-color="#b3572a"/>
    </linearGradient>
    <linearGradient id="linear-gradient-3" x1="282.61" y1="407" x2="354.74" y2="407" gradientTransform="translate(-3.52 7.65) rotate(-0.1)" gradientUnits="userSpaceOnUse">
      <stop offset="0" stop-color="#cd6d25"/>
      <stop offset="0.5" stop-color="#e3c878"/>
      <stop offset="1" stop-color="#cc6922"/>
    </linearGradient>
    <linearGradient id="linear-gradient-4" x1="300.74" y1="410.22" x2="334.1" y2="410.22" gradientTransform="translate(-3.52 7.65) rotate(-0.1)" xlink:href="#linear-gradient-2"/>
    <linearGradient id="linear-gradient-5" x1="289.11" y1="394.58" x2="353.56" y2="394.58" gradientTransform="translate(-3.52 7.65) rotate(-0.1)" gradientUnits="userSpaceOnUse">
      <stop offset="0.32" stop-color="#720000"/>
      <stop offset="0.61" stop-color="#9d391c" stop-opacity="0.6"/>
      <stop offset="0.75" stop-color="#b3572a" stop-opacity="0.4"/>
    </linearGradient>
    <linearGradient id="linear-gradient-6" x1="4409.67" y1="406.22" x2="4456.56" y2="406.22" gradientTransform="matrix(-1, 0, 0, 1, 4805.76, -1.1)" xlink:href="#linear-gradient-3"/>
    <linearGradient id="linear-gradient-7" x1="4421.45" y1="408.23" x2="4443.14" y2="408.23" gradientTransform="matrix(-1, 0, 0, 1, 4805.76, -1.1)" xlink:href="#linear-gradient-2"/>
    <linearGradient id="linear-gradient-8" x1="4413.9" y1="398.5" x2="4455.79" y2="398.5" gradientTransform="matrix(-1, 0, 0, 1, 4805.76, -1.1)" xlink:href="#linear-gradient-5"/>
  </defs>
  <g class="cls-3">
    <g id="Layer_1" data-name="Layer 1">
      <g>
        <path class="cls-4" d="M369.6,391.46c-9.34,5.1-18.59,10.3-27.36,17.15-2.11-14.9,21-36.72,32.28-45.85A83.05,83.05,0,0,1,398,349a54.49,54.49,0,0,1,12-3c2-.25,9.26,1.12,10.87,0-9.76,7-16.73,16.75-25,25.78s-16.58,14.42-26.34,19.75"/>
        <path class="cls-5" d="M419.44,346.7c-23.49,4.08-44.61,34.45-64.27,50.85-3.78,3.16-7.67,5.81-11,9.61-1.28-6.36,4.8-15.71,9.21-21.68a138.46,138.46,0,0,1,19.9-21.7c14.13-12.38,32.08-22.42,46.13-17.08"/>
        <path class="cls-4" d="M355.79,403c-4.92,1.22-9.35,4.08-13.72,6.22,3.09-12.56,23.24-20.7,32.28-27.44,12.6-9.4,24.49-14.11,36.39-10.86,4.93,1.35,9.8,2.47,14.75,3.66-12.77,6.75-25.66,12-38.26,19.12-11.39,6.39-20.1,6.47-31.44,9.3"/>
        <path class="cls-5" d="M355.13,400.3c-4.62,2.7-9.35,5.37-13.83,8.62,4-2.91,8.27-10.87,13.31-14.64,6.37-4.76,13.36-7.72,19.74-12.47,12.6-9.4,24.49-14.11,36.39-10.86,4.21,1.15,8.69,1.88,12.81,3.22-16.65-4.86-50.39,15.59-67.82,25.78l-.6.35"/>
        <path class="cls-4" d="M414.15,411.6c-9.38-1.58-21.6.87-31.8,1.61-8.59.63-15.32-2.77-23.44-3.18-6.92-.35-14,2.94-18.06-4,2.84,4.85,16.18-5.27,20.27-7.35,8-4.05,15.75-6.44,23.48-6.24,7.32.19,14.72,1.66,20.51,5.21,2.69,1.64,8,13.73,9,13.91"/>
        <path class="cls-5" d="M413.05,409.69c-14.45-15.85-37.82-6.75-59.6-2.63-5.54,1-10.58,2.68-15.35.65,7.54,3.22,15.36-5.1,23-9,8-4.05,15.75-6.44,23.48-6.24,7.32.19,14.71,1.66,20.5,5.2,3.48,2.13,7.42,7.3,7.95,12"/>
        <path class="cls-4" d="M351,397.16c-3.78,3.34-6.55,5.49-9.4,9.79-3-26,22.39-59,45.4-72.89,5-3.05,10.11-5.62,15.33-6.75-9.81,24.1-31.75,52.56-51.33,69.85"/>
        <path class="cls-5" d="M387,334.07c5-3.06,9.75-5.72,14.86-5.92-19.69,17.61-30.92,42.16-48.78,61.79-3.78,4.15-7.57,8.3-11.2,12.57C339.13,379,366.74,346.3,387,334.07"/>
        <path class="cls-4" d="M344,408.37a3.47,3.47,0,0,0,1.11-.21c3-1.07,14.18-22.82,16.46-26.51,11.85-19.2,22.57-40.7,22.08-60.89-.27-11-.27-13.9,4.86-24.92A43.79,43.79,0,0,0,376,310.64c-5.36,10.11-8.23,21.3-13.5,31.54-10.5,20.4-23.56,33.85-21.7,54.57.31,3.4-.46,11.61,3.22,11.62"/>
        <path class="cls-5" d="M346,401.14c19.92-27.44,25.57-58.43,34.29-88,1.78-6,3.71-13,8.26-18.14-4.42,5.24-9.56,10-12.55,15.63-5.05,9.52-7.62,19.57-12.28,29.18-4,8.3-10.06,15.07-14.62,23.17-5.76,10.24-3.87,16.78-3.42,26.49.18,3.89,0,7.85.32,11.66"/>
        <path class="cls-4" d="M340,400.07c1,3.84,2.48,7.09,4.68,7.36,6,.74,10-19.86,12.27-25.95,10.38-28.23,5.61-62.46-22.21-61.52,6.21,10.29,6.81,24.53,4.93,38.77-1.33,10-2.71,20.09-1.61,29.4A89.85,89.85,0,0,0,340,400.07"/>
        <path class="cls-5" d="M345.82,408.6c8.63-15.63,9.67-29.89,9.89-45,.21-14.43-5.74-35.85-17.39-40.85a102.23,102.23,0,0,1,1.33,35.94c-1.53,11.52-3.92,30,.12,41.48,1.29,3.66,3.23,6.6,6.05,8.39"/>
        <path class="cls-6" d="M347.39,407.51a11,11,0,0,1,1.95-2.55,42.14,42.14,0,0,1,6.55-5.73,91,91,0,0,1,10.75-6.5c4.12-2.2,8.67-4.36,13.34-7.05a144.8,144.8,0,0,1,13.49-6.86,64.39,64.39,0,0,1,6.06-2.27c1.91-.62,3.69-1.06,5.3-1.45a35.56,35.56,0,0,1,7.65-1.26,6,6,0,0,1,2.67.31,26.19,26.19,0,0,1-2.76.25,46.47,46.47,0,0,0-7.54,1.68c-1.61.46-3.36.95-5.22,1.6s-3.85,1.43-5.92,2.35c-4.15,1.83-8.62,4.26-13.32,6.89s-9.32,4.87-13.42,7A102.31,102.31,0,0,0,356.29,400a49.42,49.42,0,0,0-6.62,5.28,28.06,28.06,0,0,1-2.28,2.2"/>
        <path class="cls-6" d="M406.15,380a13.6,13.6,0,0,1-3.56,1.71,51.84,51.84,0,0,1-8.82,2.2c-3.43.59-6.5,1-8.73,1.45s-3.61.79-3.62.69a14.82,14.82,0,0,1,3.63-1.19c2.26-.56,5.36-1.07,8.77-1.66a69.67,69.67,0,0,0,8.72-2c2.23-.69,3.58-1.33,3.61-1.23"/>
        <path class="cls-6" d="M418.49,346.45a6.49,6.49,0,0,1-1.89.68c-1.21.38-3,.9-5.09,1.74-1.06.42-2.22.93-3.43,1.55-.61.32-1.23.63-1.84,1s-1.26.81-1.91,1.26a92.85,92.85,0,0,0-8.18,6.42c-5.63,4.88-10.46,9.68-14,13.1s-5.75,5.51-5.86,5.38,1.89-2.42,5.27-6a192.62,192.62,0,0,1,13.87-13.47,82.64,82.64,0,0,1,8.4-6.47c.68-.44,1.35-.86,2-1.25a22.18,22.18,0,0,1,2-1,31.13,31.13,0,0,1,3.58-1.44,34.79,34.79,0,0,1,5.21-1.33c1.23-.21,1.9-.23,1.89-.14"/>
        <path class="cls-6" d="M405.83,357.7c.08.15-4,3.21-9.37,6.19s-9.87,4.73-9.89,4.55,4.37-2.18,9.69-5.17,9.49-5.73,9.57-5.57"/>
        <path class="cls-6" d="M352.56,397.3a25.48,25.48,0,0,1,1.74-2.7c1.13-1.71,2.67-4.25,4.48-7.44.91-1.59,1.9-3.35,3-5.22s2.31-3.84,3.53-5.94c2.47-4.19,5.11-8.84,8-13.69s5.75-9.41,8.59-13.44A103.07,103.07,0,0,1,390,338.6a61.49,61.49,0,0,1,6.33-6.11,11.8,11.8,0,0,1,2.58-1.85c.12.17-3.48,3-8.26,8.55a117,117,0,0,0-7.8,10.28c-2.75,4-5.56,8.55-8.43,13.38s-5.55,9.46-8.08,13.64c-1.25,2.09-2.51,4.07-3.64,5.9l-3.13,5.15a84.58,84.58,0,0,1-4.88,7.32,12.06,12.06,0,0,1-2.14,2.44"/>
        <path class="cls-6" d="M383.72,356a41.11,41.11,0,0,1-2.7,3.29c-1.69,2-3.95,4.84-6.43,8s-4.77,6-6.51,7.95a22.93,22.93,0,0,1-2.95,3.06,38.34,38.34,0,0,1,2.62-3.34c1.65-2,3.87-4.89,6.35-8s4.81-6,6.59-7.91a21.8,21.8,0,0,1,3-3"/>
        <path class="cls-6" d="M355.26,387.2a23.53,23.53,0,0,1,1.18-3.08c.79-2,1.82-4.84,3.07-8.4,2.5-7.17,6.76-16.86,10.62-27.7,1-2.71,1.84-5.36,2.63-7.92.19-.65.39-1.29.59-1.92s.37-1.24.55-1.86c.35-1.23.66-2.43,1-3.61,1.16-4.73,2-9,3-12.62a67.87,67.87,0,0,1,2.69-8.5,13.17,13.17,0,0,1,1.46-3,22.45,22.45,0,0,1-1,3.1c-.65,2-1.45,4.87-2.24,8.44s-1.59,7.84-2.69,12.62c-.28,1.19-.59,2.42-.93,3.68-.17.62-.35,1.26-.54,1.9s-.4,1.27-.58,1.91c-.77,2.59-1.66,5.27-2.63,8-3.89,10.92-8.29,20.6-11,27.66-1.37,3.54-2.55,6.42-3.5,8.36a13.35,13.35,0,0,1-1.66,3"/>
        <g class="cls-7">
          <g class="cls-8">
            <path class="cls-6" d="M349.44,403.34a22.42,22.42,0,0,1,1.19-3,49.33,49.33,0,0,0,2.63-8.23c.19-.87.36-1.79.51-2.74s.23-1.93.34-3c.21-2.05.4-4.25.56-6.54a112.56,112.56,0,0,0,.08-14.73,61.93,61.93,0,0,0-.93-7.29c-.48-2.32-.85-4.61-1.22-6.75a93.13,93.13,0,0,0-2.43-11.15,22.34,22.34,0,0,0-3-6.66c-1-1.36-1.78-1.86-1.71-2s1,.27,2.16,1.56a19.19,19.19,0,0,1,3.5,6.55,76.81,76.81,0,0,1,2.75,11.14c.41,2.15.8,4.4,1.3,6.69a58.86,58.86,0,0,1,1,7.45,101.16,101.16,0,0,1-.19,14.95c-.18,2.32-.42,4.54-.68,6.62-.14,1-.25,2-.43,3s-.38,1.92-.61,2.81a42.33,42.33,0,0,1-3.11,8.36,13.58,13.58,0,0,1-1.66,2.89"/>
          </g>
        </g>
      </g>
      <g>
        <g>
          <g>
            <g>
              <path class="cls-2" d="M353,67.36c-3.22,47.9.79,231-2.62,260.32-3.07,25.52-2.71,74.51-6.21,74.51-.74,0-3.26,2.44-5.59,1.31-4.16-2-8-4.84-26.34,2.65-5.25,2.14-10-8.19-13.05-8.19V335c0-140.55,5.81-144.46,4.1-216.62-.87-34.68-.75-36.74,2.86-51.15,2.11-8.07-.29-19.42-.29-21.8.12-7.76,6.13-6.23,21.29-8.76C355.1,32.21,355.35,32.52,353,67.36Z"/>
              <g class="cls-9">
                <path class="cls-2" d="M353,67.36c-3.22,47.9.79,231-2.62,260.32-3.07,25.52-2.71,74.51-6.21,74.51-.74,0-3.26,2.44-5.59,1.31-4.16-2-8-4.84-26.34,2.65-5.25,2.14-10-8.19-13.05-8.19V335c0-140.55,5.81-144.46,4.1-216.62-.87-34.68-.75-36.74,2.86-51.15,2.11-8.07-.29-19.42-.29-21.8.12-7.76,6.13-6.23,21.29-8.76C355.1,32.21,355.35,32.52,353,67.36Z"/>
                <path class="cls-10" d="M340.07,37.72c-2.76.1-8.94,1.08-13.2,1.75-3.66.62-6.91,1-9.52,1.34-1.78.22-3.94.48-4.93.69a5.45,5.45,0,0,0-.44,2.41c0,.47.13,1.44.29,2.71.09.65.18,1.39.27,2.19-3,3.3-2.82,9.86-3.35,12.19-1.17,5.22-3.41,11.21-.54,16.39a2.32,2.32,0,0,0,1,.85A103.55,103.55,0,0,0,309,92.39c0,6,.72,54.88.66,58a6.43,6.43,0,0,0-1.52,2.81,3.69,3.69,0,0,0,1.33,3.69c-.25,6.84-3,65.21-3.63,97-.34,1.43-.62,2.88-.85,4.32-2.52,4.43-1.75,9.17.21,13.77.11.5.21,1,.35,1.48-.13,11.79-.21,69.59-.21,69.59a27.07,27.07,0,0,1,3.35-.75c.71-.12,1.59-.06,1.66.38s-.59.71-1.21.93c-.38.13-.81.29-1.31.45-.64.31-1.27.74-1.76,1l-.73.35v.75a4.65,4.65,0,0,0-2.19,2.88c-.18,1.36.67,2.41,2.19,3.26v42.27a29.19,29.19,0,0,0-6.13,3.1V335c0-140.55,5.81-144.46,4.1-216.62-.87-34.68-.75-36.74,2.86-51.15,2.11-8.07-.29-19.42-.29-21.8.12-7.76,6.13-6.23,21.29-8.76,10.24-1.62,16.75-2.6,20.79-1.49-2.63,1-5.11,2.14-7.46,3.3A5.09,5.09,0,0,0,340.07,37.72Z"/>
                <g>
                  <path class="cls-11" d="M299.18,398v-.27a29.19,29.19,0,0,1,6.13-3.1,26.08,26.08,0,0,1,3.5,3.37l.77.84c.41-.14.78-.25,1.18-.37.25.41.52.83.82,1.24a2.7,2.7,0,0,0,3.17.21,10.22,10.22,0,0,0,2-2.34c.51-4.16,1-8.32,1.29-12.49,0-.23,1.28-.56,1.3-.26a81.84,81.84,0,0,1,0,11.4,51.28,51.28,0,0,1,5.4-.81,225.22,225.22,0,0,0,0-27.74c0-.39,1.76-.88,1.8-.46a232.87,232.87,0,0,1,.81,28.07,31.21,31.21,0,0,1,6.21.49c.07-.44.13-.94.19-1.45-.56,4.1,5,5.82,11.07,7.28-.2.4-.41.62-.64.62-.74,0-3.26,2.44-5.59,1.31-4.16-2-8-4.84-26.34,2.65C307,408.29,302.21,398,299.18,398Z"/>
                  <path class="cls-11" d="M333.73,394.29s0-.08,0-.11a4.69,4.69,0,0,1,.21-.84,4.69,4.69,0,0,0-.21.84c.75-6.45,1.28-17.95,1.76-28.44l0-.71c2.56-1.51,4.57-3.23,5.23-5.14.75-2.19-1.25-4.23-4.74-5.32.34-6.83.73-13.68,1.24-19.86-1.33-.52-2.66-1-4-1.56-.88-.34.86-1,1.64-.83l2.53.59c.22-2.48.46-4.85.72-7,1.29-11.15,1.46-59.1,1.46-83.23q0-8.88,0-18.18c-2.41.55-4.86,1-7.34,1.52-1.45.28-1.81-.52-.84-.94a98.48,98.48,0,0,0,9.18-4.72c7-12.75,6.09-45.92-1.15-58.69,0-7.32.11-61.48.44-74.71a13.47,13.47,0,0,0,1.45-1.33c.38-.42.09-.88-.85-1l-.53-.1q.06-2.6.15-5a46.32,46.32,0,0,0,5.65-2.5c1.19-.65.89-2-1.13-2.13-1.47-.13-2.89-.38-4.32-.61.13-3.17,1.36-22.29,1.36-26.71,0-5.22-.59-7.81-1.16-9.1,2.35-1.16,4.83-2.27,7.46-3.3,7,1.93,6.55,10.13,5.06,32.21-3.22,47.9.79,231-2.62,260.32-2.86,23.84-2.75,68.16-5.57,73.89C338.76,400.11,333.17,398.39,333.73,394.29Z"/>
                  <path class="cls-11" d="M319.71,295c.41-12.46,1.85-24.88,1.9-37.34,0-.34,1.62-.73,1.63-.25.13,12.44.15,25-2.28,37.39C320.91,295.07,319.69,295.38,319.71,295Zm10.86-148.42c2.92-24.11,2.14-48.21.88-72.34,0-.34-1.55,0-1.55.31.35,24.08-.83,48.14-.21,72.21C329.7,147,330.55,146.75,330.57,146.59Zm-4.69,20.78a214.16,214.16,0,0,0-.87-38c0-.4-1.73,0-1.75.36a212.36,212.36,0,0,0,.78,38C324.09,168.17,325.85,167.7,325.88,167.37Z"/>
                </g>
                <path class="cls-12" d="M355.91,66.84c-.79-2.33-1.62-4.67-2.51-7-1.24-3.18-2.59-7.23-3-9-.75-3-9.66-22.34-9.74-23.66-.16-2.92,4.87.54,6.19,4.21a23.21,23.21,0,0,0,2.13,5c1.13,1.23,0,2.64,2.56,4.64,2.38,1.78,3.42,5.54,6.07,10.24A12.25,12.25,0,0,1,359,54.7c-.33.74-.61,1.5-.89,2.26-2-4.2-3.54-7.55-3.5-6.83.07,1.27,1.14,4.56,2.74,9.17A40.82,40.82,0,0,0,355.91,66.84ZM345,333.52c-1.57-23.57,9.34-41-21.44-126.54-5.43-15.57-7.46-59.21-10.51-69.85l-6.51-27.39c-1.64-7.89-3.62-5.55.08,6.57,2.43,8.13.84,9.39,5.58,25.85a60.55,60.55,0,0,1,1.89,8.81c2.88,29.87,12.26,73.72,20.6,98.92.74,2.24,2.26,6.4,3.32,9.25,3.42,9.1,7.73,57.18,5.93,59.3,0,0-1.42,41.44-3.59,52.21a14.66,14.66,0,0,0-.48,4.45c.42.61-2,17.74-2.57,18.74-.44.78-1.24,4.94-2.7,11.08-.72,3.25.48,5.73,1.38,2.76,6.23-21.09,7.13-51,7.42-52.2C344.77,350.16,345.41,341.3,345,333.52Zm-46-103.3c-6.58,7.08-8,69-2.92,106.79.74,5.21,1.79,13,2.31,17.29,1.75,13.14,1.55,5.92,4.68,24.78,2.51,16.38,2.89,23.19,3.25,26.06.33.69.63,1.38,1,2.07a5,5,0,0,0,.63.05c4.29.2-3.06-31.89-3.87-35.57-4-18.07-13.29-118.23-3.05-139.66,2.58,6.43,3.17,7.41,2.07,8-.82.45-.74.77.45,2,11.74,12.21,6.53,60.31,7.55,116.16.21,12.08-.13,15.36-1.25,13-.89-1.83,1.09,16.23,2.05,36.19l5.91.27c-2.4-18.58-4-17.08-3.82-46,.54-30.82.13-83,.73-84.26.62-1-.74-20.51-1.63-22.38a14.33,14.33,0,0,1-.94-3.81c-.09-1.73-3.93-9.18-5.53-10.7a3.77,3.77,0,0,1-.79-2C305.63,235.32,300.33,228.82,299,230.22Zm54.62,51.56c8.45,31.87,12.48,73.29,14.25,89.32.1-.33.2-.65.31-1a265.58,265.58,0,0,0,.82-34.06c-3.81-21.44-4.59-52.74-7.83-56-.95-.91-.51-3.25-1.46-4.16-6.7-6.65-12.24-51.2-12.23-59.77,0-12.34-.68-47.47-1.76-62-1.21-15,2.54-30-3.71-50-2.82-10.23-5.61-59.55-8.42-66.27-.94-2-2-9.1-2.31-11.26-3.1,0-1.95,0-5.06-.07,2.79,59.31,1.82,48.63,10.72,106,2.28,15,5.62,96.15,6.86,105.67.88,6.72-.53,4.61-1.84-2.78-4.67-25.47-31.58-133.58-35-190.94-1.28-21.65-1.22-17.82-3.85-18.92-1.21-.54-1.06,1.2-.44,12.42.26,6.75-.18,5.92-2.08-4.08-1.75-9.4-1.62-9-2.7-8.31-.61.29-.56,1.21.08,3.5,2,6.72,3.63,20,3.21,25.69-2.1,27.74,6,43.11,3.48,29.63-1.23-7.07-2.76-40.11-1.84-40.6.28-.15.57,2.07.66,4.88.13,5.34,2.94,26.85,3.61,27.8,0,0,1.18,48.93,30.9,161.45,13.41,52,20.54,108.74,7.22,147.93-2.08,6.26-3.79,11.84-3.76,12.38a18.94,18.94,0,0,1-1.54,4.67c-2.23,5.46-2.27,6.07,2.87,5.3.45,0,3.1-9.18,3.73-13,1.14-5.82,19-50.9,4.18-121.65C349.47,267.69,351.07,272.13,353.62,281.78Zm-25.46-.67c-1.52-4-18.4-76-20.21-78.28a4.72,4.72,0,0,1-.68-2c-.25-2.64-1.09-26.38-2.37-31.39-1-4-1.92-6.72-2.9-8.31a12.07,12.07,0,0,1,.23,1.72,54.23,54.23,0,0,1-.29,8.36c.21.91.43,20.71.63,21.7.62,3.16,2.45,9.92,4,15,8.93,28.71,5.69,25.16,10.13,42,4.5,17.89-.6,3.49,7.18,33.51,2,8,3.35,64.41,2.07,79.92-1.39,17-.87,25.71-1.75,44.69.85,0,3.85.32,4.19-.4,0,0,2-39.2,2.54-43.74C331.47,359.9,333.31,295.12,328.16,281.11Z"/>
              </g>
            </g>
            <path class="cls-13" d="M299.18,398v-.27l1.23-157,6.13-189.08s-3.44-7.14,0-10.19,13.87-3.8,13.87-3.8l20.82-2.95s10.51-1.69,11.46,4.77,1.14,12.67,1.14,12.67l-2,188.58-.42,65.73-3.44,56-3.18,39.14s-1.07,2.11-5,2.22a31.84,31.84,0,0,0-7.56-2.45c-3.94-.69-14.68,2.36-20.08,4.78l-.37.17c-5.26,2.44-8.93-7.94-13.61-8.73"/>
          </g>
          <path class="cls-14" d="M351.91,299.54a431,431,0,0,0-53.54-.41c2.54,13.87,1.93,28.13,1,42.22,16.67.81,33.25,1.16,50.05,1.19,1.31,0-.46-.24.51-.53C350.53,327.35,351.35,313.29,351.91,299.54Z"/>
        </g>
        <path class="cls-15" d="M69.2,317.31c35.24,0,130.18-3,135.89-3,34,0,34,4.28,67.93,4.28,20.36,0,127-1.3,135.87-1.3,34,0,34-3,67.93-3s34,.68,67.93.68,34,3.64,67.92,3.64c9.67,0,17.8-8.61,17.8-16.55,0-164.39-3.15-106.51-3.15-254.36,0-7.94-5-12.34-14.65-12.34-34,0-34-4.09-67.95-4.09-49.33,0-178.09,3.22-203.81,3.22C314.85,34.47,215,31.33,205,31.33c-9.43,0-106.77,2.91-135.84,2.91-9.67,0-16.83,5.5-16.83,13.44,0,31.61-2,74.73-2,106.35s3.75,31.61,3.75,63.23-.45,53.17-.45,84.78A15,15,0,0,0,69.2,317.31Z"/>
        <g class="cls-16">
          <path class="cls-2" d="M62.29,307.79c35.24,0,130.18-3,135.89-3,34,0,34,4.28,67.93,4.28,20.36,0,127-1.3,135.87-1.3,34,0,34-3,67.93-3s34,.68,67.92.68,34,3.64,67.93,3.64c9.66,0,17.8-8.61,17.8-16.54,0-164.4-3.15-106.52-3.15-254.37,0-7.94-5-12.34-14.65-12.34-34,0-34-4.08-68-4.08C488.48,21.74,359.72,25,334,25c-26.06,0-125.9-3.14-135.87-3.14-9.43,0-106.77,2.91-135.84,2.91-9.67,0-16.83,5.5-16.83,13.44,0,31.62-2,74.73-2,106.35s3.75,31.62,3.75,63.23-.45,53.17-.45,84.79A15,15,0,0,0,62.29,307.79Z"/>
          <path class="cls-10" d="M618.62,31.3c-3.29.92-6.64,1.69-10.07,2.38-.52-2.52-2.18-3.07-5.71-3.07a252.8,252.8,0,0,1-35.24-2.12l-2.07-.24c-19.23-7.54-45-5.49-66.23-1.41-28.69.39-157.33,2.9-168.22,2.9-14.55,0-50.85-.94-83.32-1.82a17.26,17.26,0,0,0-3,5.27c-.28.8-2.66,2.22-2.5.6a22.48,22.48,0,0,0-.62-6l-20-.54a205.34,205.34,0,0,0-26.59-2.16c-14.25-.26-31.26-1.14-45.11,2.61-32.69.84-73.37,1.84-90.6,1.84-3.9,0-8.08,1.64-8.08,6.25,0,3.84,0,7.22-.08,10.26-2.59,5-2.8,31.8-.53,36.73-.12,2.3-1.36,43.74-1.36,59.36,0,1.31,0,2.55,0,3.75-.92.28-1.81.62-2.61.87-1.63.51-2.26,1.77-1.52,3.07a13.48,13.48,0,0,0,4.34,4.66c.32,7.82,1,13.09,1.6,18.57.32,2.73.65,5.5.94,8.6,8.45,1,16.87,2.08,25.32,3,.17,0,0,.3-.14.3a234,234,0,0,1-25-1.17c.46,5.53.78,12.21.78,21.58s0,16-.09,21.46c-2.12,2.8-3.86,27.51-4.51,30.28-1,4.19.93,7.58,4.26,10.12-.06,5.74-.11,12.7-.11,22.92,0,2.54,1.12,6,4,7.42-1.47,2.29-2.85,4.61-4.09,7a15.23,15.23,0,0,1-5.7-12c0-31.62.45-53.18.45-84.79s-3.75-31.61-3.75-63.23,2-74.73,2-106.35c0-7.94,7.16-13.44,16.83-13.44,29.07,0,126.41-2.91,135.84-2.91C208.1,21.81,307.94,25,334,25c25.72,0,154.48-3.21,203.81-3.21,34,0,34,4.08,68,4.08C612.11,25.82,616.39,27.75,618.62,31.3Z"/>
          <path class="cls-2" d="M62.29,307.79c35.24,0,130.18-3,135.89-3,34,0,34,4.28,67.93,4.28,20.36,0,127-1.3,135.87-1.3,34,0,34-3,67.93-3s34,.68,67.92.68,34,3.64,67.93,3.64c9.66,0,17.8-8.61,17.8-16.54,0-164.4-3.15-106.52-3.15-254.37,0-7.94-5-12.34-14.65-12.34-34,0-34-4.08-68-4.08C488.48,21.74,359.72,25,334,25c-26.06,0-125.9-3.14-135.87-3.14-9.43,0-106.77,2.91-135.84,2.91-9.67,0-16.83,5.5-16.83,13.44,0,31.62-2,74.73-2,106.35s3.75,31.62,3.75,63.23-.45,53.17-.45,84.79A15,15,0,0,0,62.29,307.79Z"/>
          <path class="cls-17" d="M41.59,63.58C76.91,55.57,127,54.41,129,54c8.92-1.79,23.76-2.61,36.79-2.06,39.5,2,37.13-12,180.43,27.59,26.08,7,67.64,9.6,85.45,13.52l45.89,8.38c13.21,2.11,9.3,4.66-11-.1-13.62-3.13-15.73-1.08-43.3-7.19a132,132,0,0,0-14.76-2.43c-50-3.7-91.93-15.78-134.15-26.5-3.76-1-10.73-2.91-15.51-4.27-15.24-4.41-64.21-9.95-67.78-7.64,0,0-69.42,1.82-87.45,4.62-3.67.57-7.08.85-7.45.62-1-.55-29.71,2.54-31.4,3.3-1.3.59-8.27,1.61-18.56,3.49C40.75,66.29,36.6,64.74,41.59,63.58Zm563.07,45.51c-16.75-2.45-18.14-3-6.84-2.68,18.81.8,21.73,1,20.82-.57-1.85-3.38,4.57-3.31-31.7-5-96.09-4.39-245.65-39-288.32-45-12.37-1.68-15.91-3.49-4.65-2.37,15.94,1.6,120.3,5.9,145.47,8.83C535.51,73.78,517.62,72.53,617,76.12c-.12-4-.1-2.52-.11-6.52-3.62-.44-15.53-1.82-18.86-3-11.16-3.83-93.89-7.22-111-10.85-33.51-8-58.6-3.21-83.77-4.77-24.36-1.39-51.67-2.25-72.34-2.26-14.35,0-89-7.12-100.11-15.73-1.53-1.23-5.46-.66-7-1.89-5.19-4-24.41-5.07-57.44-9.43-8.12,1.78-16.28,3.56-24.47,5.29,21.59,3,47.62,7.45,79.06,13.86,16.17,3.28,23.6,5.33,13.76,3.76C116.16,25.49,72.21,48.53,62.44,50c-6.35.81-21.68,4.21-21.73,4.79-1.29,6.62-.28,6.57,8.88,3.7a38.5,38.5,0,0,1,7.82-2c.91,0,10.25-2.17,20.75-4.84,65.64-17.15,129.2-8,216.25,9.29,188.49,38.25,238.91,39.76,238.91,39.76,1.59.86,37.63,4.48,46.57,4.64,4.7.13,8.43.5,8.18.86-.84,1.19-56.19-.79-68-2.37-22.59-3.24,3.15,7.19,49.63,4.48,9.44-.54,31.77,1.56,43,4.14,3.84.81,5.38.87,5.88.1C619.68,111.17,620.41,111.34,604.66,109.09Zm8.53,127.39c-76.22,5.42-48.25,1.14-114.31.67-31.24-.24-45.56-1.28-52.29-3.59-6.26-2.22-30.79-3.4-38.83-2-4,.7-8.77,1.36-10.66,1.43-34.42,1.15-61.7,7.66-52.59,8,3.62.16,13.63-1.37,16.46-2.48,4.73-2,18.47-1.51,45.58-4.51,11.57-1.25,26.53-.11,44.05,3.24,38.23,7.36,150,2.48,157.15,3.31,18.08,2.07,19.25,2,18.6-1.31C625.58,235.34,626.31,235.52,613.19,236.48Zm-153.8-56.7c8.05-3.35,5.54-5.64,10-6.3,27.15-4-5.71-8.42,82.84-6.41,27.11.64,23,0,51.79,7.47,12.11,3.19,19.45,3.79,19.32,1.62-.09-1.6-1.1-1.93-6.65-2.67s-16.36-3.37-29-7.16c-20.49-6.1-68.27-3.79-86.06-5.37-12.4-.83-20.62,4.92-36.69,11.32-8.27,3.19-27.09,12.24-17.89,14.87,3.67,1.09,32.06,1.93,38.15,1.1,28.84-3.77,66.25-2.91,83.6,1.95,27,7.56,36.5,4.06,52.85,11.64,3.16,1.43,3.24,1.36,3.11-.81-.23-4-12.2-8-28.26-9.44-11.61-1-15.39-2.5-29.43-6.17-15.13-4-63.17-4.48-82.09-.79-2.14.41-10.17.44-17.86.11C451.43,184.08,450.4,183.45,459.39,179.78ZM576.23,45c5,1,37.43,12.43,39.64,12.53,4.89.2-.91-6.26-7.06-8-3.94-1-7.71-2.28-8.28-2.74-2.07-1.45-4.42,0-7.78-3.29-3-3.07-9.28-4.4-17.16-7.81a23.52,23.52,0,0,0-6-1.85A4.33,4.33,0,0,1,567,33c-.3-.44-2.88-1.35-5.72-2.05s-5.77-1.77-6.64-2.45c-2.32-1.8-14-6.67-16.11-6.75a17.8,17.8,0,0,1-3.28-.93c-2.23.14-4.47.27-6.7.39,8.47,2.25,13.78,4,14.83,4.72,5.28,3.54,36.82,13.78,34.11,13.66-5.82-.24-36.71-10-69.52-17.22-6.22.36-12.43.76-18.63,1.25-2.06.35-4.14.64-6.2,1-1.23.2-2.44.42-3.66.65a466.36,466.36,0,0,1,81.77,15.9C566.53,42.74,573.31,44.47,576.23,45ZM58.82,167.19c12.3,3.4,55.08,7.76,58.75,6a43.46,43.46,0,0,1,6.55-.66,63.67,63.67,0,0,0,10.3-1.37c6.1-1.52,21.9-1.05,25.33-2,8.91-2.58,109.18-10.85,114.33-12.45A129.17,129.17,0,0,1,288.16,155c120-8.34,129.54-7.56,195.83-17,15.37-2.23,37.57-1.36,60.21-2.95,23.91-1.52,47.08,1,72.31,8,4,1.11,4.92.86,4.78-1.53-.06-1-1.36-1.73-4.38-2.29-81-13.8-51.34-6.36-66.66-7-7.77-.33-14.9,1.81-33.19,1.78a598.54,598.54,0,0,0-60.19,3.31c-17.23,3.25-26.73,4.37-35.58,4.21-4.79-.13-8.75.06-8.74.35.14,2.35-38.78,1.62-70.82,5-17.52,1.86-13.32-1.21-45.48,3.14-47.79,6.16-36.72,4-47.56,6.09-16.51,3.53-50.71,3.29-65.06,6.36-3.39.65-9.13,1.35-12.9,1.63-13.4.73-34.31,2.74-39.39,3.83s-11.06.16-15,1.32c-4.17,1.12-27-.28-34.42-2.18-9.6-2.35-13.21-1.37-22.87-3.65-12.77-3-13.1-1.62-13-.11C46.2,166,47.92,164.24,58.82,167.19Zm564.92,119c8.25.8,9-1.1.93-2.33-32-5-76.23-7.37-94.43-5-7.92,1-22.92,1.31-48.43.94-137.72-1.68-159.32,6.52-230.1,15.31C170.33,306.13,112.51,309.93,96.77,309c-2.62-.17-4.42.15-4,.61.85,1.06,51.09,3.48,58.3,2.85,0,0,41.42-4.12,42.83-4.18,14.54-.63,55.64-8.18,63.06-8.06,3.17.06,13-1,22-2.38,73.28-11.17,104.24-13.2,212.6-14.23C545.07,283,555.07,279.48,623.74,286.2ZM560,297.58c-27.74,1.9-59,7-93.22,11.17q9.94.57,19.95,1.44c66.24-9.55,73.19-8.06,101.09-10.43,18.54-1.82,43,3.38,42.92-.57C630.74,297.73,610.2,294,560,297.58ZM126.53,278.83c33.78,3.57,7.61,4.51,54.05,2.94,45.16-1.86,71.24-1.12,87.06-5.14,4.17-1,81.44-15.52,113.46-18.13,12.66-1.13,15.53-1.45,23-2.29,19.34-2,71.76,3,85,5.84,70,15.54,72.3,8.08,129.21,17.68,9.39,1.56,11.56,1.65,10.59.45-.39-.45-2.14-1-4-1a141.44,141.44,0,0,1-14.13-2.41c-28.87-5.82-69.95-6.39-83.56-9-35.69-6.71-83.78-20.3-141.88-13.66-112.76,12.49-56.47,9.32-108.43,16.17-4.65.67-10,1.68-12,2.24-4.17,1.2-25.88,3.39-26.83,2.63-.28-.23,2.13-.63,5.37-.86,6.47-.45,19.58-3.15,24.88-5.09,6-2.28,20.4-6.08,22.47-6a5.67,5.67,0,0,0,3.21-.8c2.67-1.8,42.94-6.38,49.29-7.39,22.53-3.71,24-2.69,52.71-4.57,25.2-1.87,42.63-.27,76.42-1.83,21.45-1,91.16,7,103.26,10.73,18.66,5.7,25.12,6.7,45.91,7.15,14,.3,9-2.52-5.6-3.13-19.13-.81-11.33-2-24.55-4.59-9.39-2-18.14-6.79-42.2-8.51-7.53-.6-15.43-1.27-17.61-1.61s-13.17-1.42-24.42-2.48c-111-10.44-171.75-4-253.56,17.63-13.07,3.43-35.39,4.51-68.85,3.31-29.61-1.11-42.62-.51-88.16-19.57-6.94-2.89-13.69-5.57-15-5.91s12.17-.14,29.9.47c81.26,3,38.05,0,81.56,1.13,54.81,1.06,40.77-4.92,90.51-3.4,35.86,1.31,58.42-2.72,63.27-5.93a9.84,9.84,0,0,1,4.87-1.61c3.44.15,20-3.63,21.19-4.89,1.54-1.61,19.81-5.65,23.91-7.74,5-2.72,15.21-3.29,26.5-8.28,14.95-6.67,78.58-9.62,104.85-4.9.12,0,53,5,83.22,10.75,15.51,2.85,13.62,3.53,13.15-8.19-24.43-4.9-91.83-13.68-97.23-14.17-4.73-.49-9-1.17-9.67-1.71-1.71-1.37-9.56-1.41-17.07-.14-8.16,1.43-15.47,1.13-33.14,1.28-44.7-.08-58.51,18.14-88,23-37.37,6-23.72,11.48-87.26,14-2,.06-53.05,3-66.57,6.66-6.36,1.6-156.55.25-175.66-6.56.79,13.35-3.91.91,57.39,25.87A249.12,249.12,0,0,0,142,268.56c14.28,4.88,17.75,5.53,36.39,6.46,18.47.93,22.61,2.11,7.9,2.29-28.5.28-23.38,3.83-45.15-.46a178.05,178.05,0,0,0-17.76-2.64c-8-.33-47.73-10.93-58-13.15-14.4-3.17-13.8-4.56-13.58-.79.36,6.15,20.11,6.87,51.7,14.91A188.48,188.48,0,0,0,126.53,278.83ZM287.42,144.16c9.79-1.57,11,.65,18.84-.43,1.5-.21,35.4-3.07,45.41-2.79,47.9,1.37,78.95-6.23,95.42-7.24,33.75-2.25,27.09-5.32,60.48-6,81.79-1.59,57.36-3.33,113.22,5.29-.14-2.36-.25-4.16-.39-6.6-34.74-4.54-34.77-5.72-70.92-5.74-14.52.11-49.81-.64-63.63,1.57-2,.34-95.73,12.08-102.55,11.8-74-2.73-153.48,14.41-286.85,8.77-27.41-1.09-50.19-1.76-50.72-1.57-1.21.62-.67,5.44-.6,6.71,101,4.61,89.48,4.23,123.28,4.34C208.86,152.26,282.18,145.06,287.42,144.16ZM175.68,221.74c10.38,0,25.46.21,33.5.41,111.57,2.78,195.55-50.1,284.85-67,6.8-1.29,21.57-2.63,30.2-3.72,34.86-4.15,39.37-2.24,88.18,4.67,11.05,1.54,9.94,3.36,9.55-3.36-99.66-17.06-96.06-7.93-111-7.29a77.66,77.66,0,0,0-16.54,2.62c-23.36,6.14-85.76,6.06-124.64,13.61-14.2,3-29.76,2.37-36.15,3.75,0,0-48.28,6.3-83.09,12.91-4.11.83-31.18,2.14-39.36,2.89-12.12.85-19.59-.4-25.85.79-24,4.12-99-.28-115.47-6.76-.4-.16-22.77-9.14-23.2-9.16-1.54-.06.19,4.71,1.84,5.22a20.12,20.12,0,0,1,3.81,1.82,39,39,0,0,0,8,3.09c19.22,5.59-5.18,1.11,36.15,8.33,16,2.63,69.73,4,85,2.14C211,183,203.5,189,251.36,181.47c1.49-.22,70.22-10,71.89-11.35,3.94-3.14,66.75-7.24,70.24-8.89s22.22-2.92,35-4.38c10.75-1.28,27-.95,21.32.47-1.33.3-2.47.91-2.45,1.27s-3.07,1.46-6.89,2.46a61.83,61.83,0,0,0-9.13,2.87,8.14,8.14,0,0,1-3.73,1.07c-2.38-.1-11.53,4.93-13.52,4.85-2.76-.12-16.26,5.68-19.62,5.54,0,0-86.54,30.85-141.51,36.61-50.2,5.29-110.26.51-204.32-4.3.15,2.63.27,4.63.43,7.26,60.73,2.37,88.3,3.18,98.86,5.12C154.71,221.29,161.5,221.65,175.68,221.74ZM289,130.7c7.74-.47,15.22-.59,16.68-.24,6.27,1.54,29-2.12,38.73-2.92,28.11-2.35,32.38-3.33,41.95-9.51,12.51-8.15,11.1-10.59-8.71-14.47a167,167,0,0,0-21-3.06,10.38,10.38,0,0,1-3.39-.86c-3.76-2.34-124.39-24.07-131.14-26C198.59,67,121.62,69.36,115,70c-7.59.74-73.27,3.27-73.27,3.27-1.19.44-.74,4.3-.67,5.4,31.81-1.14,46.35-.48,74.86-2.26,26-1.65,88.91.07,102.33,2.66,50.3,10,26.16,3.45,56.14,9.25,28.21,5.71,22.27,1.53,70.36,13,8.51,2,19.84,4.38,25.12,5.18,14.31,2.2,24.34,5.51,15.74,5.15a2.37,2.37,0,0,0-2.18,1.21c-1.42,3.41-11,5.32-43.08,8.74-50.36,5.27-93.1,1.77-155.18,2.41-43,.41-118.33-7-140.88-6-.55,0-.83,1.34-.73,2.93l.17,3c128,5.68,70.38,7.2,166.33,7.47C267.37,131.67,275.76,131.59,289,130.7ZM131,111.94c7.17.66,20.25,2,29,3,63.38,6.51,135.48,4.72,147.34-3.75,2.34-1.71-8.54-8.54-14.06-8.77a7.31,7.31,0,0,1-3.31-1c-2.56-2.06-15-7-17.93-7.12A27.2,27.2,0,0,1,265.62,93C262.45,92,229.8,90.15,228.13,91c-2.09.77-58,.24-109.6.93-48.39.22-45.88-1.83-77-4.92.17,2.75.29,4.79.46,7.62,33.44,1.23,63.71,3.7,60.62,2.63-3.88-1.54,1.61-1.88,21.84-1.61,93.56,1.31,142.58-5.39,163,9.72,2.08,1.53,2.62,1.63,3.37.58,1-1.42,2.66-.66,13.43,2.66-35.89,13.18-172.12,1.17-202.4-3.93-6.16-1-59.92-10.5-59.59-5,.19,3.3-.23.67,47.21,6.27C121.08,109.94,109,109.68,131,111.94Z"/>
        </g>
        <g>
          <path class="cls-18" d="M621.89,165.23a8,8,0,0,1,.52-2.37c-.56-8.8-1-69.36-1-124.7a12.7,12.7,0,0,0-1.79-6.86c-3.29.92-6.64,1.69-10.07,2.38a10.25,10.25,0,0,1,.19,2.08c0,16.47,0,72.68.11,83.23.25,0,.49,0,.73,0s.49,0,.66,0a1.54,1.54,0,0,1,1.16,2.34,6,6,0,0,1-2.52,1.57v.46c-1.94,0-3.9-.12-5.76,0-3.28.16-6.57.6-9.82,1-.26,0-.62.55-.21.56a83.21,83.21,0,0,1,8.94.64,39.72,39.72,0,0,1,6.88.94c.19,21.21.53,30.05.92,35.59-7.59-.05-15.51.69-22.22,1-.67,0-1.47,1.36-.5,1.34,7.48-.11,15.29.58,23,.79.07.74.26,2.8.29,3.12-3.58.18-7.17.39-10.76.6-16-.08-32-.11-48-.73-.46,0-1.12.86-.57.91,19.64,1.86,39.74,2.9,59.54,2,0,.17,0,.31,0,.49a26.09,26.09,0,0,1,4.24,3c5.08,4.52,2.89,10.11-3.57,12.31.28,11,.49,50.63.55,82.1-1.59.1-3.19.3-4.6.35-5.12.18-10.21.61-15.33.74-.44,0-1.14,1-.52,1,5.72.8,13.81,2.69,20.46,2.18,0,5.26,0,10.85,0,16.85a9,9,0,0,1-2.06,5.26,71.17,71.17,0,0,1,7.78,9c3.62-3.21,5.95-7.62,5.95-11.85,0-86.62-.87-115.14-1.7-124A5.25,5.25,0,0,1,621.89,165.23Z"/>
          <path class="cls-18" d="M603.84,299.49A263.26,263.26,0,0,1,571,297.73a284.48,284.48,0,0,0-35.09-1.88c-4.34,0-8.13,0-11.5,0a30.91,30.91,0,0,1-8,2.74c-3,.57-11,0-12.46-3l-1.82,0c-8.4-.17-17.09-.34-34.18-.34a336.88,336.88,0,0,0-34.91,1.56,315.19,315.19,0,0,1-33,1.48c-1.54,0-5.85,0-12.08.1a44.92,44.92,0,0,0,1.19-6.55c.11-1-1.25-.21-1.53.18-2,2.8-4.18,5.48-6,8.36a10.47,10.47,0,0,1-2.38.82c-1.31.27-2.72-.72-2.27-1.86a3.18,3.18,0,0,0,.19-.84l-7,.07c-3.64,2.95-7.72,5.85-12.46,6.6-2.13.34-3.64-.73-3.89-2.43-.16-1.16-1-2.27-1.24-3.44a3.53,3.53,0,0,1,0-.54c-19.14.21-40.57.44-57.91.61a123.18,123.18,0,0,1-50.74,5.48,95.16,95.16,0,0,1-28.39-7.16c-1.19-.51-3.46-1.19-5.46-2.1-4-.17-8.49-.28-13.8-.28-1.71,0-25.59.65-26.54.68-4.57,1.07-9.18,1.91-13.65,2.56-7.72,1.12-21.71,3.07-30.34-.19-.66-1.42-1.68-2.76-2.58-4.26a69.58,69.58,0,0,1-4.38-8c-.33-.76-.61-1.41-.84-2.08-.05-.82-1.54.23-1.57.72a12.5,12.5,0,0,0,.27,3.13,83.64,83.64,0,0,0-1.27,8.74c0,.25,0,.52-.07.78l-4.14.1c0-.11,0-.22,0-.32-.17-2.58-.47-5.16-.76-7.73-.12-1-1.8.32-1.86.85-.25,2.42-.42,4.85-.61,7.27-3.93.09-7.83.18-11.6.25a15.89,15.89,0,0,1-8.91,3.69c-3.38.18-5.78-1.25-6.77-3.4-7.81.12-14.74.19-20.24.19a6.12,6.12,0,0,1-2.8-.66c-1.47,2.29-2.85,4.61-4.09,7a15.53,15.53,0,0,0,9.81,3.24c35.24,0,130.18-3,135.89-3,34,0,34,4.28,67.93,4.28,20.36,0,127-1.3,135.87-1.3,34,0,34-3,67.93-3s34,.68,67.92.68,34,3.64,67.93,3.64a18.06,18.06,0,0,0,11.85-4.69,71.17,71.17,0,0,0-7.78-9C609,297.72,606.34,299.49,603.84,299.49Z"/>
          <path class="cls-18" d="M324.9,247.35c-57.65,1.92-115.39,2.57-173.08,3.51-.76,0-.14-1,.39-1,57.67-1.37,115.36-3,173.06-3.44C326,246.43,325.4,247.34,324.9,247.35ZM444.15,227.4c-13.6,0-27.2-.23-40.79-.38-.4,0-1,.72-.5.76a297.36,297.36,0,0,0,40.93.51C444.26,228.27,444.83,227.4,444.15,227.4ZM270.34,111.93c-29.3-1.76-59.24.47-88.61.61-33.58.16-67.18-.28-100.75-.81-.5,0-1.19.94-.61,1q45.82,2.6,91.69,2.64c32.42.08,66,1,98.1-3C270.3,112.27,270.56,111.94,270.34,111.93Zm33.33-11.46c-11.25-.15-22.53-.5-33.75-1.26-1.08-.07-2.42,2-1.25,2a293.29,293.29,0,0,0,34.45.35C303.61,101.55,304.29,100.48,303.67,100.47ZM586.53,69.65c-12.28-.72-24.65-.38-36.95-.8-.6,0-1.44,1.11-.73,1.17,12.28,1,24.78,1.81,37.09.8C586.42,70.78,587.23,69.69,586.53,69.65ZM505.84,213.08c-19.29-.28-38.74-1.18-58-.2-.39,0-1,.89-.47.94,19.12,2,38.8,1.1,58,.27C505.78,214.07,506.4,213.08,505.84,213.08Z"/>
        </g>
        <path class="cls-19" d="M62.29,24.72,146.92,23s46.72-1.41,61.84-1l97.46,2.51s67.63.74,97.21-1.19,86.77-1.11,86.77-1.11,64.29-2.28,81,1.49,34,1.83,36.71,2.19,9.61.66,11.92,7.93,1,83.71,1,83.71L623,202.07l.52,61.06v31.7s-2.58,12.82-17.8,14.24-46.51-5.36-76.81-3.65-49.73-2.38-79-.2-73.92,3.81-93.34,3-72.6.85-72.6.85-37.84,1.72-65.2-3.57c0,0-35.8-.93-155,2.27,0,0-15.26,1.24-16.86-13.69s.21-96.86.21-96.86-5.58-44.34-3.59-54.61S45.16,63,45.16,63L46,34.75S48,24.66,62.29,24.72Z"/>
        <g>
          <g>
            <path class="cls-20" d="M336.92,38.59c-6.38,0-14.39,6.55-10.45,12.69a6.07,6.07,0,0,0,3.71,2.41c5,2.88,13.55,1.6,15.59-4C347.75,44.25,343.11,38.63,336.92,38.59Z"/>
            <path class="cls-21" d="M334.84,37.25c-6.15,0-13.88,6.33-10.08,12.26a5.87,5.87,0,0,0,3.59,2.32c4.8,2.78,13.07,1.54,15-3.86S340.82,37.29,334.84,37.25Z"/>
            <path class="cls-22" d="M334.27,38.59c-5.29,0-11.93,5.12-8.66,9.92a5,5,0,0,0,3.08,1.88c4.12,2.25,11.22,1.25,12.91-3.13S339.4,38.62,334.27,38.59Z"/>
            <path class="cls-23" d="M335.89,45c-.5-.55-1-1.1-1.47-1.67A14.3,14.3,0,0,0,336.59,42c.31-.23,0-.71-.38-.6a12.52,12.52,0,0,0-2.48,1.08c-1.58-2-1.92-2.62-.28.17-.56.33-1.1.68-1.64,1.07-.46-.55-.93-1.11-1.41-1.64s-1,.11-.76.53a20.59,20.59,0,0,0,1.25,1.8c-1.07.84-2.07,1.72-3,2.5-.12.11,0,.32.18.22,1.07-.75,2.19-1.42,3.3-2.09.75.93.64.8,1.56,1.86a12,12,0,0,0-2.47,2.26c-.59.79,2.1-1.06,3.08-1.58,2.23,2.41,3.92,2.48,1.12-.6l1.31-.69a19,19,0,0,0,2.25,2.33c.37.32.89-.16.56-.51-.7-.72-1.38-1.43-2.06-2.16C341.8,43.85,339.61,42.67,335.89,45ZM334,46.22c-.52-.56-1.06-1.19-1.58-1.8.66-.38.91-.5,1.61-.86.4.64.86,1.23,1.31,1.83C335,45.59,334.63,45.8,334,46.22Z"/>
            <path class="cls-24" d="M336.53,38.78C329.45,37.43,323,43,326.32,47.72c.14.19.49,0,.4-.2a5.68,5.68,0,0,1,2.45-6.85c2.28-1.45,4.74-1.48,7.34-1.54C336.74,39.13,336.72,38.82,336.53,38.78Z"/>
          </g>
          <g>
            <path class="cls-25" d="M334.89,273.77c-6.38,0-14.39,6.55-10.45,12.7a6.09,6.09,0,0,0,3.72,2.4c5,2.88,13.55,1.6,15.58-4C345.72,279.43,341.08,273.81,334.89,273.77Z"/>
            <path class="cls-26" d="M332.82,272.44c-6.16,0-13.89,6.32-10.08,12.25a5.83,5.83,0,0,0,3.58,2.32c4.8,2.78,13.07,1.54,15-3.86C343.27,277.9,338.79,272.47,332.82,272.44Z"/>
            <path class="cls-22" d="M332.24,273.77c-5.28,0-11.92,5.12-8.66,9.92a5.09,5.09,0,0,0,3.08,1.88c4.12,2.25,11.23,1.25,12.92-3.13S337.37,273.8,332.24,273.77Z"/>
            <path class="cls-23" d="M333.87,280.21c-.5-.56-1-1.11-1.48-1.68a14.4,14.4,0,0,0,2.18-1.33c.3-.23,0-.71-.38-.6a11.78,11.78,0,0,0-2.48,1.09c-1.58-2-1.92-2.63-.28.16-.56.33-1.11.69-1.64,1.07-.47-.55-.93-1.11-1.42-1.64s-1,.11-.76.53c.39.63.81,1.22,1.25,1.81-1.06.83-2.07,1.71-3,2.49-.13.11,0,.32.18.22,1.06-.75,2.18-1.42,3.3-2.09.75.93.64.8,1.55,1.87a11.45,11.45,0,0,0-2.46,2.26c-.6.79,2.1-1.07,3.07-1.59,2.23,2.41,3.93,2.49,1.13-.6.25-.13,1.11-.59,1.31-.68a19.67,19.67,0,0,0,2.25,2.32c.37.32.89-.16.55-.51-.69-.71-1.38-1.43-2-2.15C339.77,279,337.59,277.85,333.87,280.21ZM332,281.4c-.52-.56-1.06-1.19-1.57-1.8.65-.38.9-.5,1.6-.86.4.64.86,1.23,1.31,1.83C333,280.78,332.6,281,332,281.4Z"/>
            <path class="cls-24" d="M334.5,274c-7.08-1.36-13.56,4.2-10.2,8.93.14.19.49,0,.4-.2a5.67,5.67,0,0,1,2.45-6.85c2.28-1.45,4.73-1.48,7.33-1.53A.18.18,0,0,0,334.5,274Z"/>
          </g>
        </g>
      </g>
      <g>
        <path class="cls-27" d="M368.74,406.18h0l-.86,9.73,1.11.56-4.87.38,2.37-1.41-3.62-16.22-121,10.24h-.09l-.18,5.1h.08l0,5.9a1.77,1.77,0,0,0,0,.23l0,.84L284,428.47l2.36,0,0,.08h0c-1.5,2.93-3,5.81-3,6.17l18.15,7.91,30-.05a.09.09,0,0,0,.07,0l21.39-11,.82-2.25h0l.35-1,.49,1.27h0L355,431l13.93,6.82s0,0,.05,0l19.47,0,11.78-5c-.06-.23.71-3.6-.28-5.42l-.91-.79-2.18-1.86c-.2-.38-2.53-1.69-2.73-2,5.2,1.83,15.19-6,15.19-6s-.12-2.22-5.09-3.23C410,414.69,368.74,406.18,368.74,406.18Z"/>
        <path class="cls-28" d="M221.53,402.62l16.58-2.93,140.65,1.81s25.49,18.81,20.43,18.09c0,0-34.16,8.83-46.38-.81,0,0-11,12-39.6,10.93s-56-9-40.62-15.51c0,0-8.2,2.22-9.77,2s-39.19-9.7-39.19-9.7Z"/>
        <g>
          <path class="cls-29" d="M238.4,403.25l.12-18.29,39.15,4.28,56.17-1.12,25.64-7.1,3.62,16.22-22.81,13.55s-58.75-.51-59.56-.59S238.4,403.25,238.4,403.25Z"/>
          <path class="cls-30" d="M277.49,389.31s5.54,9.45.86,14.47l2.21,6.49,59.29.74s-4.37-19-6.37-21.82C333.06,388.6,277.49,389.31,277.49,389.31Z"/>
          <path class="cls-31" d="M238.39,391.25l44.07,3s8.25-1.75,10.52-2.08c0,0,1.38,1.36,0,1.65s36,1.12,36,1.12l-40.79,1.56,1.6,1.23-45.36,3.76,6-2.79-12.27-2.38Z"/>
          <path class="cls-32" d="M360.16,385.11s-64.22,24.17-79.6,25.16l59.29.74,23.08-13.7Z"/>
          <path class="cls-33" d="M238.39,399.89c-1.58-5.11,74.85,2.91,74.45,3.06a94.26,94.26,0,0,1-32.28,7.32l-42.34-6.95Z"/>
          <path class="cls-31" d="M291.46,400.23a8.21,8.21,0,0,1-6,3.67c-14.56,1.76-15.38,2.15,5.29.8,3.86-.25,9.95-2.85.08-3C290.78,401.68,287.34,402.34,291.46,400.23Z"/>
          <path class="cls-34" d="M338.94,407.36c-.64-.12,12.34-6.84,17.48-8.06l-8.2.43s9-6.87,13.6-7.65l-12.6,2.12s-5.64,6.3-11.66,5.65C337.56,399.85,339.93,407.55,338.94,407.36Z"/>
          <path class="cls-35" d="M238.7,393l26.65-3.23c.94-.11,1.33,1.44.5,2l-14.06,9.44c-.83.55-.44,2.1.5,2l40-4.47c1-.11,1.34,1.7.34,2.08L284.48,404c-1,.35-.75,2.07.24,2.08,11.18.13,37-.56,50.47-9.12a.83.83,0,0,1,1.23.63l3.08,12.12a1,1,0,0,1-.8,1.38l-58.14-.77-41.47-6.91a1,1,0,0,1-.84-1.1l.06-8.1C238.32,393.62,238.26,393.1,238.7,393Z"/>
          <path class="cls-36" d="M255.58,375.33l34.21-6.72a5.63,5.63,0,0,1,1.48.14L353.18,372a4.2,4.2,0,0,1,2.87,2.21l3.25,6.84s-25.71,7.36-26.11,7.38l-56.36,2.31L238.35,385l15.34-9A3.26,3.26,0,0,1,255.58,375.33Z"/>
          <path class="cls-37" d="M274.65,371.58s14.21,15.91,83.16,6.37l1,2.14-27.19,7.33-52.85.39-27-9.42,2.83-2.89Z"/>
          <path class="cls-38" d="M254.32,375.62s4,20.35,103.42,4.55l.48,1-26.12,7.38-55,2.26L238.52,385Z"/>
        </g>
        <g>
          <path class="cls-39" d="M279.83,416.55c.2-.77,6.48-12.79,6.48-12.79s15,5.2,16.17,5.2,27.4,1.12,27.4,1.12L352,406.36l-2.55,7-21.46,11.08-30,0Z"/>
          <path class="cls-40" d="M298,423.91c.37-.73,3.52-13.74,3.52-13.74L331.31,412s-2.63,12.4-3.37,12.4l-30,0Z"/>
          <path class="cls-38" d="M286.31,403.76l30.33-14.58L346,391.46l4.74,4.93s-1,9,1.2,10l-21.08,7-29.56-1.7Z"/>
          <path class="cls-41" d="M325.79,389.89s12.82,22.45-39.48,13.87l15,7.91,29.56,1.7s-14-8.11,19.88-17L346,391.46Z"/>
          <path class="cls-42" d="M351.16,408.52l-.94,2.56L331.33,421l9.91-6.25-4.35,1.88,4.35-3.3s-14.59,9.8-27.69,9.15,1.1-.87,1.1-.87,7.66-.6,13.28-2.84c0,0-14.62,2.67-27.3,2,0,0,28.76-3.95,25.27-4-4.48-.08-19.78,1.46-23.2,2,0,0-6.5,2.24-18.83-2.58,0,0,12.92,3.08,14.49.36a27.28,27.28,0,0,1-9.86-1.43s9.66.75,11.43-.41l31.39.14Z"/>
          <path class="cls-34" d="M285.75,404.84s8.06,6.12,14.62,7.22c0,0-11-.9-13.46-2.54,0,0,2,3.44,3.66,3.92,0,0-5.42-1.23-7.69-3.06Z"/>
        </g>
        <g>
          <path class="cls-43" d="M396.83,414.65c-.13-.48-4.24-7.94-4.24-7.94s-9.73,3.27-10.5,3.27-17.81.75-17.81.75l-14.35-2.26,1.67,4.33,14,6.84,19.47,0Z"/>
          <path class="cls-44" d="M385,419.26c-.24-.45-2.33-8.53-2.33-8.53l-19.35,1.21s1.74,7.7,2.22,7.7l19.47,0Z"/>
          <path class="cls-38" d="M392.59,406.71l-19.75-9-19.08,1.47-3.07,3.08s.65,5.6-.76,6.21l13.72,4.31,19.21-1.12Z"/>
          <path class="cls-45" d="M366.89,398.17s-8.27,14,25.7,8.54l-9.73,5-19.21,1.12s9.08-5.07-13-10.52l3.07-3.08Z"/>
          <path class="cls-42" d="M350.45,409.81l.61,1.59,12.31,6.14-6.46-3.86,2.83,1.16-2.83-2s9.5,6.07,18,5.63-.72-.54-.72-.54a36.53,36.53,0,0,1-8.64-1.73,93,93,0,0,0,17.75,1.17s-18.7-2.39-16.43-2.44c2.91-.06,12.85.87,15.08,1.18,0,0,4.23,1.38,12.23-1.65,0,0-8.38,1.95-9.41.26a18.32,18.32,0,0,0,6.4-.91s-6.27.49-7.43-.23l-20.4.15Z"/>
          <path class="cls-34" d="M393,407.38s-5.23,3.82-9.49,4.52c0,0,7.14-.58,8.74-1.61,0,0-1.28,2.14-2.37,2.45,0,0,3.52-.78,5-1.92Z"/>
        </g>
      </g>
      <g>
        <g>
          <path d="M225.77,129.2a1.42,1.42,0,0,1-1,1.45c-.87.34-3.62.62-8.23.87a46,46,0,0,1-8.19,0c-1-.19-1.7-1-2.05-2.4-1.31-5.28-2.28-8.13-2.86-8.43s-4.48-.14-12,.35q-7.58.49-8,1-.69.94-1.28,6.07c-.35,3.11-.92,4.85-1.69,5.15-1,.37-4.34.75-10.07,1.18-4.52.34-6.93-.13-6.9-1.09.37-10.93,4.73-24.3,7.39-36.31,3.06-13.8,6.47-27.72,9.23-41.42.29-1.41.66-2.17,1.15-2.2a38.42,38.42,0,0,1,3.86,0c1.75.07,3,.08,3.91,0s2-.2,3.64-.43,2.81-.37,3.61-.41c.58,0,1.15.54,1.72,1.74,5.55,12.92,10.4,26.18,15.3,39.35C217.64,105.48,223.91,118.38,225.77,129.2Zm-34.7-48.94c-.53,1.67-1.37,5.3-2.53,10.84-1.24,5.88-1.83,9.34-1.77,10.34,0,.67,1,1,2.78.94.91,0,2.46,0,4.59-.18s3.06-.49,3.23-1.1a2.61,2.61,0,0,0,0-.78c-.07-1.23-1-4.57-2.7-10A87.22,87.22,0,0,0,191.07,80.26Z"/>
          <path d="M274.12,127.2c0,1-.38,1.59-1.2,1.76a54.1,54.1,0,0,1-6.47.4,41.82,41.82,0,0,1-6.94-.12c-.89-.2-1.36-1-1.4-2.25q-.09-2.61-.13-7.92t-.13-8q-.06-2.07-.29-6.16t-.29-6.16q-.25-7.64-5.63-7.45a6.87,6.87,0,0,0-4,2c-1.63,1.45-2.42,2.91-2.37,4.28q.59,15,1.16,30.1c.05,1.22-.39,1.94-1.3,2.11a53.54,53.54,0,0,1-6.33.48,44.14,44.14,0,0,1-6.76,0,1.66,1.66,0,0,1-1.46-1.78q-.19-4.35-.56-13.1t-.56-13.15q-.64-13.87-2.78-21.7a4.47,4.47,0,0,1-.13-.83,1.24,1.24,0,0,1,.62-1.26c1.9-.35,4.55-.8,7.59-1.57,4.67-1.17,7.47-2,8.08-2.06.33,0,.64,1.23.92,3.73s.59,3.74.92,3.73c-.33,0,1.24-1.34,4.74-4s6.61-4.11,9.31-4.2a14.1,14.1,0,0,1,9.75,3.06c2.95,2.45,4.48,6,4.59,10.59l.45,17.79q.09,3.63.32,10.84C274,121.17,274.06,124.78,274.12,127.2Z"/>
          <path d="M297.65,102.75q.06,4.06.3,12.13t.3,12.07a1.29,1.29,0,0,1-1.09,1.41,42.94,42.94,0,0,1-6.79.44,41.88,41.88,0,0,1-6.84-.2,1.6,1.6,0,0,1-1.22-.7,8.23,8.23,0,0,1-.12-1.67c-.06-2.57-.09-6.42-.11-11.58s-.06-9-.12-11.63a248.33,248.33,0,0,0-1.53-25.18c-.08-.59-.11-1-.12-1.17,0-.74.39-1.12,1.21-1.14a33,33,0,0,1,3.9.26,38.21,38.21,0,0,0,3.94.26c.88,0,2.2-.13,4-.35s3.07-.32,3.95-.33a1,1,0,0,1,1.11,1.1c0,.15,0,.5-.08,1.06Q297.45,88.42,297.65,102.75Zm.62-41.45c.09,6.47-2.85,9.73-8.81,9.84a8.71,8.71,0,0,1-6.39-2.34,9.62,9.62,0,0,1-2.9-7.19,9.56,9.56,0,0,1,2.69-7.2,8.68,8.68,0,0,1,6.26-2.68,8.47,8.47,0,0,1,6.25,2.52A9.59,9.59,0,0,1,298.27,61.3Z"/>
          <path d="M377.57,126.72c0,1.3-.5,2-1.39,2.14a55.27,55.27,0,0,1-6.57.07,39,39,0,0,1-6.74-.46c-.89-.24-1.32-1.16-1.29-2.75s.12-4.27.26-7.67.24-6,.27-7.67c.11-6.5.12-11.14.05-13.89-.11-4.42-1.77-6.67-5-6.71a6,6,0,0,0-4.26,2.14,7.9,7.9,0,0,0-2.38,4.86c-.15,1.55-.25,6.13-.34,13.71q0,2.63.05,8c.05,3.56.06,6.22,0,8,0,1.23-.45,1.83-1.31,1.82-5.38-.05-8.07-.07-13.45-.1-.83,0-1.24-.76-1.24-2.29,0-1.75.06-4.37.17-7.86s.15-6.14.16-7.92c0-1.38,0-3.46-.07-6.25s-.07-4.89-.06-6.3q0-8-4.9-8a7,7,0,0,0-4.3,1.89q-2.52,2.07-2.52,4.36,0,5.07.07,15.17t.07,15.11a3.25,3.25,0,0,1-.26,1.73,2.14,2.14,0,0,1-1.37.45c-1.33.15-3.44.23-6.31.25-1.86,0-4-.08-6.35-.29-.71-.06-1.13-.19-1.27-.38a4,4,0,0,1-.21-1.67q0-4.46-.08-13.36T307,99.46q-.09-9.13-1.29-20.57c-.06-.44-.09-.78-.1-1a1.34,1.34,0,0,1,.63-1.29,12.75,12.75,0,0,1,3.77-.87c2.26-.28,3.64-.44,4-.53s1.51-.46,3.59-1.19a11.84,11.84,0,0,1,3.6-.79c.57,0,.88,1.29.92,3.87s.16,3.88.37,3.88a4.58,4.58,0,0,0,1-.78A42.77,42.77,0,0,1,330,74.83a14.6,14.6,0,0,1,7.62-2,12.65,12.65,0,0,1,7.45,2.33,11.68,11.68,0,0,1,4.7,7.25,20.6,20.6,0,0,1,6.72-6.67,15.13,15.13,0,0,1,8.29-2.6,14,14,0,0,1,9.72,3.6q4.2,3.95,4,11.08c0,2-.16,4.94-.35,8.9s-.31,6.92-.35,8.89q-.09,3.51-.13,10.57C377.67,120.85,377.62,124.37,377.57,126.72Z"/>
          <path d="M431.94,102.9q-.21,4.29-.24,12.78t-.24,12.72c-.07,1.49-.64,2.27-1.67,2.32-3.65.18-7.89.12-12.62-.09-.56,0-.89-1.11-1-3.25s-.29-3.24-.55-3.29a4.35,4.35,0,0,0-1,.91c-3.5,4.06-7.12,6-10.91,5.87-5.76-.21-10.43-3.25-14.06-9.07a33.86,33.86,0,0,1-4.86-19.33c.24-8.59,2.3-15.46,6.25-20.58a18.78,18.78,0,0,1,16.47-7.59,12.92,12.92,0,0,1,11,6.59c.11.2.21.29.3.3q.42,0,1.05-2.67c.43-1.78.89-2.66,1.37-2.64a32.47,32.47,0,0,1,6.37,1.46A55,55,0,0,1,434,79.55a1,1,0,0,1,.64.93,10.9,10.9,0,0,1-.2,1.16A149.7,149.7,0,0,0,431.94,102.9Zm-14.49-.34a12.28,12.28,0,0,0-2.08-7.93,7.93,7.93,0,0,0-12.56-.52,12.38,12.38,0,0,0-2.67,7.78,12.2,12.2,0,0,0,2.24,7.83,7.52,7.52,0,0,0,6,3.47,7.61,7.61,0,0,0,6.35-2.84A12.48,12.48,0,0,0,417.45,102.56Z"/>
          <path d="M457.6,98.65c-.64,10.12-1.06,17.94-1.36,23.33-.05.85-.11,2.33-.15,4.4,0,1.9-.07,3.37-.14,4.41a1.27,1.27,0,0,1-1.19,1.32,40.7,40.7,0,0,1-7.21,0,32,32,0,0,1-6.76-.83,1.6,1.6,0,0,1-1-1.57c0-.11.05-.91.13-2.39q.27-5,.9-14.84t.9-14.78q1.28-23.4,1.21-21.33a211.73,211.73,0,0,0,0-21.28,7,7,0,0,1,0-1c.05-.82.47-1.21,1.26-1.16,6.58.35,9.86.55,16.43,1,.77,0,1.1.46,1,1.23-.05.4-.07.6-.11,1C459.92,70.32,458.49,84.46,457.6,98.65Z"/>
          <path d="M493.09,89.57a3,3,0,0,1-.8,1.45,8.56,8.56,0,0,0-2.5-.58,7.06,7.06,0,0,0-4.59,1.1,5.71,5.71,0,0,0-2.52,4.57c-.1,1.3.55,3,1.93,5.12a54.34,54.34,0,0,1,3.81,6.39,18.74,18.74,0,0,1,1.58,9.24,22.16,22.16,0,0,1-1.36,5.93,12.24,12.24,0,0,1-3,4.92,30.19,30.19,0,0,1-8.13,5.43,18.59,18.59,0,0,1-8.9,2c-.6,0-1.78-2.15-3.57-6.31s-2.66-6.69-2.6-7.58a.57.57,0,0,1,.53-.58c2.11-.34,4.43-.56,6.38-1a5.3,5.3,0,0,0,4.29-4.85,10.25,10.25,0,0,0-1.89-5.84q-3.69-5.89-3.86-6.24a16.82,16.82,0,0,1-1.73-8.61A17.88,17.88,0,0,1,474,80.33a20.06,20.06,0,0,1,13.61-4.21c.49,0,1.54,2.12,3.14,6.25S493.14,88.91,493.09,89.57Z"/>
        </g>
        <g>
          <path d="M181,229a8.06,8.06,0,0,1,0,3.21,146.52,146.52,0,0,1-8,24.88,6.19,6.19,0,0,0-.47,3.35c.29,1.47.79,3.64,1.49,6.54s1.21,5,1.49,6.49c.09.49.07.81-.09,1a7.31,7.31,0,0,1-.86.38,46,46,0,0,1-6,1.46,51.27,51.27,0,0,1-6.23,1,1.08,1.08,0,0,1-1.18-1c-.31-1.46-.67-3.7-1.1-6.72s-.78-5.28-1.09-6.77a6.37,6.37,0,0,0-1.41-2.67c-5.6-6.25-11-12.66-16.48-19a6.46,6.46,0,0,1-1.37-2.46c-.37-1.64-1-4.09-1.85-7.35s-1.49-5.71-1.85-7.36c-.2-.9-.07-1.41.4-1.51q2.13-.48,6.53-1.21t6.57-1.18c.54-.11.85,0,.94.45q.43,2.1,1.16,6.36c.49,2.84.87,5,1.17,6.36.17.83,1.62,2.69,4.33,5.56,2.13,2.25,3.87,4,5.19,5.17.67-1.51,1.51-3.76,2.56-6.7,1.31-3.7,1.93-5.9,1.79-6.58-.27-1.38-.76-3.45-1.49-6.21s-1.22-4.84-1.5-6.21c-.11-.58-.07-.93.13-1.06l.87-.17q2.12-.42,6.31-1.45t6.35-1.43c.47-.09.82.46,1,1.65q.4,2.19,1.28,6.59T181,229Z"/>
          <path d="M222.05,245.53c.95,6.33.14,11.7-2.39,16.13a16.16,16.16,0,0,1-24.56,4.16q-5.82-4.95-7.5-14.06c-1.16-6.41-.56-11.89,1.87-16.45a15.46,15.46,0,0,1,11.75-8.19A15.76,15.76,0,0,1,214.89,231Q220.65,236.1,222.05,245.53Zm-11.23,1.74a10.2,10.2,0,0,0-2.62-5.52,5.1,5.1,0,0,0-4.78-1.8,5.28,5.28,0,0,0-4,3.33,10,10,0,0,0-.67,6,10.27,10.27,0,0,0,2.63,5.49,5.13,5.13,0,0,0,8.81-1.47A10.34,10.34,0,0,0,210.82,247.27Z"/>
          <path d="M259.52,222.83c.23,2.06.51,5.17.83,9.31s.59,7.26.83,9.32.64,5,1.22,9,1,7,1.21,9a1.34,1.34,0,0,1-.68,1.52,22.54,22.54,0,0,1-5.39,1.06,33.93,33.93,0,0,1-5.16.38,1.06,1.06,0,0,1-.93-.9c-.21-.77-.35-1.66-.52-2.48-.27-1.26-.52-1.89-.72-1.86q.47-.06-3.05,3.28c-2.35,2.23-4.57,3.49-6.68,3.78q-8.92,1.22-12-8.46a91,91,0,0,1-2.72-13.31,68.89,68.89,0,0,1-.91-15.19c.08-1.18.48-1.82,1.18-1.92,1.06-.16,2.69-.38,4.88-.66s3.82-.48,4.89-.63A1,1,0,0,1,237,225a8.26,8.26,0,0,1,.05.89,89.65,89.65,0,0,0,.83,11.62,86.55,86.55,0,0,0,1.73,9.88c.83,3,2.51,4.33,5.08,4a5.09,5.09,0,0,0,3.05-2,5,5,0,0,0,1.39-3.62q-.12-1.54-2.59-21a4.34,4.34,0,0,1,0-1.65c.12-.27.51-.49,1.2-.58,1.15-.14,2.86-.34,5.16-.59l5.16-.57c.7-.09,1.13.08,1.3.48A6.38,6.38,0,0,1,259.52,222.83Z"/>
          <path d="M303,255.81a1.15,1.15,0,0,1-.84,1.38,44.44,44.44,0,0,1-4.93.58,32.19,32.19,0,0,1-5.3.21c-.7-.11-1.09-.65-1.18-1.63-.12-1.31-.26-3.3-.44-6s-.32-4.67-.44-6c-.1-1-.26-2.58-.49-4.63s-.4-3.6-.49-4.63q-.52-5.75-4.66-5.36a5.27,5.27,0,0,0-3,1.73,4.29,4.29,0,0,0-1.63,3.33c.9,9.05,1.35,13.58,2.24,22.63.1.93-.21,1.49-.89,1.66a41.68,41.68,0,0,1-4.82.66,32.7,32.7,0,0,1-5.16.3,1.25,1.25,0,0,1-1.2-1.27c-.24-2.17-.59-5.46-1-9.84s-.81-7.68-1.05-9.88a78,78,0,0,0-3.16-16.22,3.61,3.61,0,0,1-.15-.62,1,1,0,0,1,.43-1c1.44-.36,3.46-.83,5.77-1.56,3.55-1.12,5.67-1.9,6.14-1.95.26,0,.55.9.88,2.77s.62,2.8.87,2.77c-.25,0,.9-1.07,3.48-3.28s4.91-3.4,7-3.59a11,11,0,0,1,7.66,1.88,10.07,10.07,0,0,1,4,7.79c.43,5.35.65,8,1.08,13.39q.22,2.73.69,8.16C302.64,251.27,302.86,254,303,255.81Z"/>
          <path d="M342,243.61q.56,12-3.27,17.4c-2.6,3.69-7.12,5.71-13.56,6.1a37.34,37.34,0,0,1-7.77-.63c-4.2-.68-6.36-1.63-6.46-2.92,0-.53.24-3.31.85-8.34.11-.8.37-1.25.67-1.23a.89.89,0,0,1,.38.14c3.64,1.88,6.92,2.73,9.88,2.54a9.14,9.14,0,0,0,4.76-1.81c1.86-1.32,2.76-2.88,2.66-4.71-.06-1.12-.09-1.69-.16-2.81a11.37,11.37,0,0,1-8.68,4.57c-4.27.27-7.9-1.38-10.93-4.95a22.43,22.43,0,0,1-5-13.14c-.41-5.35.54-9.89,2.9-13.61A12.67,12.67,0,0,1,318.63,214,8.94,8.94,0,0,1,327,218c.41.59.68.89.82.88s.29-.52.23-1.53c-.12-2.25,0-3.38.44-3.4s2.42.09,6.12.37,5.62.45,5.77.5a1.06,1.06,0,0,1,.64,1.07c.09,1.93.17,4.83.24,8.67s.15,6.74.23,8.68l.27,5.17C341.9,240.73,342,242.46,342,243.61Zm-12.5-11.05a8.6,8.6,0,0,0-2-5.23,5.12,5.12,0,0,0-4.36-2,5.05,5.05,0,0,0-4.08,2.56,8.73,8.73,0,0,0-1.33,5.47,8.48,8.48,0,0,0,2,5.18,5.1,5.1,0,0,0,4.28,2,5,5,0,0,0,4.05-2.52A8.74,8.74,0,0,0,329.54,232.56Z"/>
          <path d="M416.52,236.75c-.62,8.74-3.44,15.9-8.36,21.51s-11,8.34-18,8-12.64-3.62-17.08-9.83-6.47-13.45-6.22-22.15,2.8-16,7.73-21.8,11.3-8.72,18.67-8.36,13.27,3.78,17.71,10.18S417.14,228.09,416.52,236.75Zm-13.19-.95a17.69,17.69,0,0,0-2.55-10.91,10.12,10.12,0,0,0-8.31-5.09c-3.32-.16-6.21,1.32-8.65,4.41a17.71,17.71,0,0,0-3.76,10.51,18.11,18.11,0,0,0,2.64,10.86,10,10,0,0,0,8.24,4.89q4.85.24,8.52-4.31A17.78,17.78,0,0,0,403.33,235.8Z"/>
          <path d="M453.06,268.35c-.08.75-.44,1.15-1.09,1.2a46.34,46.34,0,0,1-5-.34,33.37,33.37,0,0,1-5.26-.77c-.66-.23-.94-.84-.85-1.82.12-1.31.35-3.29.67-5.94s.54-4.65.67-6c.1-1,.22-2.58.37-4.64s.27-3.61.37-4.64c.36-3.83-.83-5.88-3.59-6.13a5.38,5.38,0,0,0-3.29,1.14,4.31,4.31,0,0,0-2.22,3c-.78,9.06-1.18,13.6-2,22.66-.08.92-.48,1.42-1.19,1.46a43.86,43.86,0,0,1-4.86-.24,32.07,32.07,0,0,1-5.13-.66,1.24,1.24,0,0,1-.95-1.46q.25-3.29.78-9.87c.36-4.39.62-7.7.79-9.91a76.53,76.53,0,0,0-.12-16.52,5,5,0,0,1,0-.64.91.91,0,0,1,.6-.88c1.49-.09,3.56-.18,6-.47,3.69-.44,5.92-.82,6.39-.78.26,0,.38,1,.35,2.89s.1,2.86.35,2.88c-.25,0,1.08-.89,4-2.58s5.46-2.44,7.55-2.24a11,11,0,0,1,7.18,3.26c2,2.12,2.84,4.95,2.48,8.38-.56,5.35-.84,8-1.41,13.37q-.29,2.72-.83,8.15C453.52,263.82,453.25,266.53,453.06,268.35Z"/>
          <path d="M492.69,251.38q-.58,4.22-2.9,4.49c-.26,0-2.69,0-7.22,0-2.73,0-6.82-.07-12.23-.21a5.81,5.81,0,0,0,2.41,4.49,8.76,8.76,0,0,0,4.36,1.73,11.23,11.23,0,0,0,6.36-1.22l2.87-1.66q.66.52,1.83,4.59a17.44,17.44,0,0,1,1,5.11c0,.2-.24.49-.64.89-3.25,3.27-7.75,4.51-13.54,3.79A16.65,16.65,0,0,1,462.69,266c-2.92-4.31-4.09-9.76-3.37-16.35.71-6.42,2.83-11.52,6.41-15.26a15.27,15.27,0,0,1,13.57-4.84c4.49.56,8.05,3,10.64,7.33A21.61,21.61,0,0,1,492.69,251.38ZM481,247.22a7.24,7.24,0,0,0-.94-4.74,4.52,4.52,0,0,0-3.4-2.42,4.21,4.21,0,0,0-3.88,1.77,8.69,8.69,0,0,0-1.9,4.65c-.09.76.19,1.17.84,1.25a54.45,54.45,0,0,0,8.06,0C480.51,247.7,480.91,247.53,481,247.22Z"/>
          <path d="M518.37,243.89a2.1,2.1,0,0,1-.7,1,6.5,6.5,0,0,0-1.89-.6,5.52,5.52,0,0,0-3.6.55,4.23,4.23,0,0,0-2.21,3.28,6.74,6.74,0,0,0,1.19,4,40.76,40.76,0,0,1,2.56,5.05,13.9,13.9,0,0,1,.66,7.06,16,16,0,0,1-1.39,4.38,9.37,9.37,0,0,1-2.57,3.52,23.74,23.74,0,0,1-6.54,3.59,14.37,14.37,0,0,1-6.93.93c-.45-.06-1.23-1.72-2.37-5s-1.67-5.19-1.57-5.86a.42.42,0,0,1,.44-.4c1.63-.14,3.42-.17,4.95-.4a4,4,0,0,0,3.56-3.39,7.69,7.69,0,0,0-1.12-4.51c-1.66-3.11-2.54-4.75-2.61-4.93a12.63,12.63,0,0,1-.86-6.59,13.39,13.39,0,0,1,6.82-9.87A15.78,15.78,0,0,1,515,233.42c.37.05,1.06,1.69,2,4.9S518.45,243.39,518.37,243.89Z"/>
        </g>
        <g>
          <path class="cls-46" d="M178.22,226.27a8.26,8.26,0,0,1,0,3.21,146.63,146.63,0,0,1-8,24.89,6.07,6.07,0,0,0-.47,3.35q.42,2.19,1.49,6.53t1.48,6.49q.15.75-.09,1a6.42,6.42,0,0,1-.86.39,45,45,0,0,1-6,1.45,47,47,0,0,1-6.22,1,1.09,1.09,0,0,1-1.19-1c-.3-1.45-.67-3.69-1.09-6.72s-.79-5.28-1.1-6.76a6.1,6.1,0,0,0-1.41-2.67c-5.6-6.25-11-12.67-16.47-19a6.41,6.41,0,0,1-1.38-2.45q-.54-2.47-1.85-7.36t-1.85-7.35c-.2-.91-.06-1.41.4-1.52,1.43-.31,3.61-.72,6.54-1.21s5.11-.87,6.57-1.18c.53-.11.85,0,.93.45.3,1.4.68,3.53,1.17,6.36s.87,5,1.16,6.37c.18.82,1.63,2.69,4.33,5.55,2.13,2.25,3.87,4,5.19,5.17.67-1.51,1.52-3.75,2.56-6.7,1.31-3.69,1.93-5.89,1.8-6.58q-.41-2.07-1.5-6.21T161,215.5q-.16-.87.12-1.05l.88-.18c1.41-.27,3.51-.76,6.31-1.45s4.92-1.16,6.35-1.43c.47-.08.81.47,1,1.65q.41,2.21,1.29,6.6T178.22,226.27Z"/>
          <path class="cls-46" d="M219.33,242.8c.95,6.33.13,11.71-2.4,16.13a16.15,16.15,0,0,1-24.56,4.17c-3.88-3.31-6.39-8-7.49-14.06-1.17-6.41-.56-11.9,1.87-16.45a15.44,15.44,0,0,1,11.74-8.2,15.72,15.72,0,0,1,13.67,3.85C216,231.66,218.38,236.53,219.33,242.8Zm-11.24,1.75a10.32,10.32,0,0,0-2.61-5.53,5.17,5.17,0,0,0-4.79-1.8,5.32,5.32,0,0,0-4,3.33,10.06,10.06,0,0,0-.66,6,10.18,10.18,0,0,0,2.62,5.49,5.13,5.13,0,0,0,8.81-1.46A10.34,10.34,0,0,0,208.09,244.55Z"/>
          <path class="cls-46" d="M256.79,220.1c.24,2.07.51,5.17.83,9.32s.6,7.25.83,9.32.64,5,1.22,9,1,7,1.21,9a1.32,1.32,0,0,1-.68,1.52,22,22,0,0,1-5.38,1.06,35.86,35.86,0,0,1-5.16.39,1.08,1.08,0,0,1-.94-.9c-.21-.77-.34-1.66-.52-2.48-.27-1.27-.51-1.89-.72-1.87.32,0-.71,1.05-3,3.28s-4.56,3.5-6.67,3.79c-6,.81-10-2-12-8.47A89.7,89.7,0,0,1,223,239.74a69.6,69.6,0,0,1-.92-15.19c.09-1.18.48-1.82,1.18-1.92,1.07-.15,2.7-.37,4.89-.65l4.89-.63a1,1,0,0,1,1.23.94c0,.19,0,.49.05.88a107.31,107.31,0,0,0,2.55,21.5c.84,3,2.52,4.34,5.09,4a5.09,5.09,0,0,0,3-2,5,5,0,0,0,1.4-3.62q-.14-1.56-2.59-21a4.72,4.72,0,0,1,0-1.65c.12-.27.51-.49,1.21-.57q1.71-.22,5.16-.6l5.16-.57c.7-.08,1.13.08,1.29.49A4.54,4.54,0,0,1,256.79,220.1Z"/>
          <path class="cls-46" d="M300.29,253.08c.06.76-.22,1.22-.85,1.38a43.75,43.75,0,0,1-4.93.58,32.19,32.19,0,0,1-5.3.21q-1-.15-1.17-1.62-.18-2-.44-6c-.18-2.66-.32-4.66-.45-6-.09-1-.25-2.58-.49-4.63s-.39-3.59-.49-4.63q-.53-5.74-4.65-5.36a5.38,5.38,0,0,0-3,1.73,4.31,4.31,0,0,0-1.63,3.34l2.25,22.63c.09.92-.21,1.48-.9,1.65a43.37,43.37,0,0,1-4.81.67,33.7,33.7,0,0,1-5.17.29,1.24,1.24,0,0,1-1.2-1.26q-.36-3.27-1.05-9.84c-.45-4.39-.81-7.68-1.05-9.89a76.66,76.66,0,0,0-3.16-16.22,3.26,3.26,0,0,1-.14-.62.94.94,0,0,1,.42-1c1.45-.36,3.47-.83,5.78-1.56,3.54-1.11,5.67-1.89,6.14-1.94.25,0,.55.9.87,2.77s.62,2.79.88,2.77c-.26,0,.89-1.07,3.47-3.28s4.92-3.4,7-3.59a11,11,0,0,1,7.65,1.87,10.09,10.09,0,0,1,4,7.79c.43,5.36.64,8,1.07,13.4q.23,2.73.7,8.16T300.29,253.08Z"/>
          <path class="cls-46" d="M339.32,240.88q.54,12-3.27,17.4c-2.6,3.7-7.13,5.71-13.57,6.11a38.06,38.06,0,0,1-7.76-.64c-4.2-.67-6.37-1.63-6.46-2.92q-.06-.79.85-8.34c.1-.79.36-1.24.66-1.23a1.43,1.43,0,0,1,.39.14A19.2,19.2,0,0,0,320,254a9.28,9.28,0,0,0,4.75-1.81c1.87-1.32,2.77-2.89,2.67-4.71-.07-1.13-.1-1.69-.16-2.82a11.37,11.37,0,0,1-8.69,4.57c-4.26.28-7.89-1.37-10.92-5a22.33,22.33,0,0,1-5-13.14c-.41-5.34.54-9.89,2.89-13.6a12.69,12.69,0,0,1,10.35-6.25,9,9,0,0,1,8.38,4c.41.6.69.89.83.88s.28-.52.23-1.53c-.13-2.24,0-3.37.44-3.4s2.42.1,6.12.37,5.62.46,5.76.51a1.05,1.05,0,0,1,.65,1.06q.12,2.91.23,8.68t.24,8.67c.05,1.15.14,2.88.27,5.18S339.27,239.73,339.32,240.88Zm-12.5-11a8.62,8.62,0,0,0-2-5.22,5.06,5.06,0,0,0-8.44.55,8.87,8.87,0,0,0-1.33,5.47,8.51,8.51,0,0,0,2.06,5.19,5,5,0,0,0,8.32-.55A8.83,8.83,0,0,0,326.82,229.83Z"/>
          <path class="cls-46" d="M413.8,234c-.62,8.74-3.45,15.91-8.36,21.51s-11,8.34-18,8-12.65-3.61-17.09-9.82-6.46-13.45-6.21-22.15,2.79-16,7.72-21.8,11.3-8.73,18.67-8.36,13.28,3.78,17.72,10.17S414.42,225.37,413.8,234Zm-13.19-1a17.8,17.8,0,0,0-2.56-10.91,10.11,10.11,0,0,0-8.31-5.08c-3.32-.17-6.21,1.31-8.64,4.41A17.63,17.63,0,0,0,377.33,232,18.06,18.06,0,0,0,380,242.86a10.05,10.05,0,0,0,8.23,4.89q4.85.24,8.52-4.31A17.78,17.78,0,0,0,400.61,233.07Z"/>
          <path class="cls-46" d="M450.33,265.62q-.12,1.14-1.08,1.2a41.12,41.12,0,0,1-5-.34,30.81,30.81,0,0,1-5.26-.77c-.66-.23-.95-.83-.86-1.81q.19-2,.67-5.95t.67-6c.1-1,.22-2.59.37-4.64s.28-3.61.37-4.65c.37-3.82-.83-5.87-3.59-6.12a5.27,5.27,0,0,0-3.28,1.14,4.29,4.29,0,0,0-2.22,3c-.79,9.07-1.18,13.6-2,22.67-.08.92-.48,1.41-1.18,1.46a43.76,43.76,0,0,1-4.86-.24,34.93,34.93,0,0,1-5.14-.66,1.25,1.25,0,0,1-.94-1.47q.24-3.27.78-9.86t.79-9.91a77.29,77.29,0,0,0-.12-16.53,2.79,2.79,0,0,1,0-.63.93.93,0,0,1,.59-.89c1.49-.08,3.56-.18,6-.46,3.69-.45,5.93-.82,6.4-.78.25,0,.37,1,.35,2.88s.09,2.86.35,2.89q-.39,0,4-2.59c2.94-1.69,5.47-2.44,7.55-2.23a11,11,0,0,1,7.19,3.25A10.09,10.09,0,0,1,453.4,236c-.57,5.34-.85,8-1.41,13.36-.2,1.82-.47,4.53-.83,8.15S450.52,263.81,450.33,265.62Z"/>
          <path class="cls-46" d="M490,248.66c-.39,2.81-1.35,4.3-2.89,4.49-.26,0-2.69,0-7.22,0-2.74,0-6.83-.08-12.24-.22a5.83,5.83,0,0,0,2.41,4.5,9,9,0,0,0,4.36,1.73,11.36,11.36,0,0,0,6.37-1.22l2.86-1.66c.44.34,1.06,1.87,1.84,4.58s1.11,4.42,1,5.12a2.13,2.13,0,0,1-.64.89c-3.26,3.26-7.76,4.51-13.54,3.78A16.64,16.64,0,0,1,460,263.25c-2.93-4.32-4.09-9.77-3.37-16.36q1-9.63,6.41-15.26a15.21,15.21,0,0,1,13.56-4.83c4.49.56,8.06,3,10.65,7.32A21.63,21.63,0,0,1,490,248.66Zm-11.73-4.16a7.27,7.27,0,0,0-.94-4.75,4.56,4.56,0,0,0-3.41-2.42,4.21,4.21,0,0,0-3.88,1.78,8.76,8.76,0,0,0-1.89,4.65c-.09.75.19,1.17.83,1.24a51.79,51.79,0,0,0,8.06,0C477.78,245,478.19,244.81,478.23,244.5Z"/>
          <path class="cls-46" d="M515.65,241.17a2.22,2.22,0,0,1-.7,1,6.66,6.66,0,0,0-1.9-.6,5.53,5.53,0,0,0-3.6.54,4.25,4.25,0,0,0-2.2,3.28,6.74,6.74,0,0,0,1.18,4,40,40,0,0,1,2.56,5.05,14,14,0,0,1,.67,7,16.4,16.4,0,0,1-1.4,4.39,9.24,9.24,0,0,1-2.57,3.52,23.74,23.74,0,0,1-6.54,3.59,14.56,14.56,0,0,1-6.92.93q-.68-.1-2.37-5t-1.58-5.86a.44.44,0,0,1,.44-.41c1.64-.13,3.43-.16,4.95-.39a4,4,0,0,0,3.57-3.4,7.71,7.71,0,0,0-1.12-4.51c-1.67-3.11-2.55-4.75-2.62-4.93a12.51,12.51,0,0,1-.85-6.59,13.38,13.38,0,0,1,6.82-9.87,15.79,15.79,0,0,1,10.76-2.33c.37.06,1.07,1.69,2.06,4.91S515.73,240.67,515.65,241.17Z"/>
        </g>
        <g>
          <path class="cls-46" d="M222.77,127.2a1.42,1.42,0,0,1-1,1.45c-.87.34-3.62.62-8.23.87a46,46,0,0,1-8.19,0c-1-.19-1.7-1-2.05-2.4-1.31-5.28-2.28-8.13-2.86-8.43s-4.48-.14-12,.35q-7.58.49-8,1-.69.94-1.28,6.07c-.35,3.11-.92,4.85-1.69,5.15-1,.37-4.34.75-10.07,1.18-4.52.34-6.93-.13-6.9-1.09.37-10.93,4.73-24.3,7.39-36.31,3.06-13.8,6.47-27.72,9.23-41.42.29-1.41.66-2.17,1.15-2.2a38.42,38.42,0,0,1,3.86,0c1.75.07,3,.08,3.91,0s2-.2,3.64-.43,2.81-.37,3.61-.41c.58,0,1.15.54,1.72,1.74,5.55,12.92,10.4,26.18,15.3,39.35C214.64,103.48,220.91,116.38,222.77,127.2Zm-34.7-48.94c-.53,1.67-1.37,5.3-2.53,10.84-1.24,5.88-1.83,9.34-1.77,10.34,0,.67,1,1,2.78.94.91,0,2.46,0,4.59-.18s3.06-.49,3.23-1.1a2.61,2.61,0,0,0,0-.78c-.07-1.23-1-4.57-2.7-10A87.22,87.22,0,0,0,188.07,78.26Z"/>
          <path class="cls-46" d="M271.12,125.2c0,1-.38,1.59-1.2,1.76a54.1,54.1,0,0,1-6.47.4,41.82,41.82,0,0,1-6.94-.12c-.89-.2-1.36-.95-1.4-2.25q-.09-2.61-.13-7.92t-.13-8q-.06-2.07-.29-6.16t-.29-6.16q-.26-7.64-5.63-7.45a6.87,6.87,0,0,0-4,2c-1.63,1.45-2.42,2.91-2.37,4.28q.59,15,1.16,30.1c.05,1.22-.39,1.94-1.3,2.11a53.54,53.54,0,0,1-6.33.48,44.14,44.14,0,0,1-6.76,0,1.66,1.66,0,0,1-1.46-1.78q-.19-4.35-.56-13.1t-.56-13.15q-.64-13.87-2.78-21.7a4.47,4.47,0,0,1-.13-.83,1.24,1.24,0,0,1,.62-1.26c1.9-.35,4.55-.8,7.59-1.57,4.67-1.17,7.47-2,8.08-2.06.33,0,.64,1.23.92,3.73s.59,3.74.92,3.73c-.33,0,1.24-1.34,4.74-4s6.61-4.11,9.31-4.2a14.1,14.1,0,0,1,9.75,3.06c2.95,2.45,4.48,6,4.59,10.59l.45,17.79q.09,3.63.32,10.84C271,119.17,271.06,122.78,271.12,125.2Z"/>
          <path class="cls-46" d="M294.65,100.75q.06,4.06.3,12.13t.3,12.07a1.29,1.29,0,0,1-1.09,1.41,42.94,42.94,0,0,1-6.79.44,41.88,41.88,0,0,1-6.84-.2,1.6,1.6,0,0,1-1.22-.7,8.23,8.23,0,0,1-.12-1.67c-.06-2.57-.09-6.42-.11-11.58s-.06-9-.12-11.63a248.33,248.33,0,0,0-1.53-25.18c-.08-.59-.11-1-.12-1.17,0-.74.39-1.12,1.21-1.14a33,33,0,0,1,3.9.26,38.21,38.21,0,0,0,3.94.26c.88,0,2.2-.13,4-.35s3.07-.32,3.95-.33a1,1,0,0,1,1.11,1.1c0,.15,0,.5-.08,1.06Q294.45,86.42,294.65,100.75Zm.62-41.45c.09,6.47-2.85,9.73-8.81,9.84a8.71,8.71,0,0,1-6.39-2.34,9.62,9.62,0,0,1-2.9-7.19,9.56,9.56,0,0,1,2.69-7.2,8.68,8.68,0,0,1,6.26-2.68,8.47,8.47,0,0,1,6.25,2.52A9.59,9.59,0,0,1,295.27,59.3Z"/>
          <path class="cls-46" d="M374.57,124.72c0,1.3-.5,2-1.39,2.14a55.27,55.27,0,0,1-6.57.07,39,39,0,0,1-6.74-.46c-.89-.24-1.32-1.16-1.29-2.75s.12-4.27.26-7.67.24-6,.27-7.67c.11-6.5.12-11.14.05-13.89-.11-4.42-1.77-6.67-5-6.71a6,6,0,0,0-4.26,2.14,7.9,7.9,0,0,0-2.38,4.86c-.15,1.55-.25,6.13-.34,13.71q0,2.63.05,8c.05,3.56.06,6.22,0,8,0,1.23-.45,1.83-1.31,1.82-5.38,0-8.07-.07-13.45-.1-.83,0-1.24-.76-1.24-2.29,0-1.75.06-4.37.17-7.86s.15-6.14.16-7.92c0-1.38,0-3.46-.07-6.25s-.07-4.89-.06-6.3q0-8-4.9-8a7,7,0,0,0-4.3,1.89q-2.52,2.07-2.52,4.36,0,5.07.07,15.17t.07,15.11a3.25,3.25,0,0,1-.26,1.73,2.14,2.14,0,0,1-1.37.45c-1.33.15-3.44.23-6.31.25-1.86,0-4-.08-6.35-.29-.71-.06-1.13-.19-1.27-.38a4,4,0,0,1-.21-1.67q0-4.46-.08-13.36T304,97.46q-.09-9.13-1.29-20.57c-.06-.44-.09-.78-.1-1a1.34,1.34,0,0,1,.63-1.29,12.75,12.75,0,0,1,3.77-.87c2.26-.28,3.64-.44,4-.53s1.51-.46,3.59-1.19a11.84,11.84,0,0,1,3.6-.79c.57,0,.88,1.29.92,3.87s.16,3.88.37,3.88a4.58,4.58,0,0,0,1-.78A42.77,42.77,0,0,1,327,72.83a14.6,14.6,0,0,1,7.62-2,12.65,12.65,0,0,1,7.45,2.33,11.68,11.68,0,0,1,4.7,7.25,20.6,20.6,0,0,1,6.72-6.67,15.13,15.13,0,0,1,8.29-2.6,14,14,0,0,1,9.72,3.6q4.2,3.95,4,11.08c0,2-.16,4.94-.35,8.9s-.31,6.92-.35,8.89q-.09,3.51-.13,10.57C374.67,118.85,374.62,122.37,374.57,124.72Z"/>
          <path class="cls-46" d="M428.94,100.9q-.21,4.29-.24,12.78t-.24,12.72c-.07,1.49-.64,2.27-1.67,2.32-3.65.18-7.89.12-12.62-.09-.56,0-.89-1.11-1-3.25s-.29-3.24-.55-3.29a4.35,4.35,0,0,0-1,.91c-3.5,4.06-7.12,6-10.91,5.87-5.76-.21-10.43-3.25-14.06-9.07a33.86,33.86,0,0,1-4.86-19.33c.24-8.59,2.3-15.46,6.25-20.58a18.78,18.78,0,0,1,16.47-7.59,12.92,12.92,0,0,1,11,6.59c.11.2.21.29.3.3q.42,0,1.05-2.67c.43-1.78.89-2.66,1.37-2.64a32.47,32.47,0,0,1,6.37,1.46A55,55,0,0,1,431,77.55a1,1,0,0,1,.64.93,10.9,10.9,0,0,1-.2,1.16A149.7,149.7,0,0,0,428.94,100.9Zm-14.49-.34a12.28,12.28,0,0,0-2.08-7.93,7.93,7.93,0,0,0-12.56-.52,12.38,12.38,0,0,0-2.67,7.78,12.2,12.2,0,0,0,2.24,7.83,7.52,7.52,0,0,0,6,3.47,7.61,7.61,0,0,0,6.35-2.84A12.48,12.48,0,0,0,414.45,100.56Z"/>
          <path class="cls-46" d="M454.6,96.65c-.64,10.12-1.06,17.94-1.36,23.33-.05.85-.11,2.33-.15,4.4,0,1.9-.07,3.37-.14,4.41a1.27,1.27,0,0,1-1.19,1.32,40.7,40.7,0,0,1-7.21,0,32,32,0,0,1-6.76-.83,1.6,1.6,0,0,1-1-1.57c0-.11.05-.91.13-2.39q.27-5,.9-14.84t.9-14.78q1.28-23.4,1.21-21.33a211.73,211.73,0,0,0,0-21.28,7,7,0,0,1,0-1c.05-.82.47-1.21,1.26-1.16,6.58.35,9.86.55,16.43,1,.77,0,1.1.46,1,1.23-.05.4-.07.6-.11,1C456.92,68.32,455.49,82.46,454.6,96.65Z"/>
          <path class="cls-46" d="M490.09,87.57a3,3,0,0,1-.8,1.45,8.56,8.56,0,0,0-2.5-.58,7.06,7.06,0,0,0-4.59,1.1,5.71,5.71,0,0,0-2.52,4.57c-.1,1.3.55,3,1.93,5.12a54.34,54.34,0,0,1,3.81,6.39,18.74,18.74,0,0,1,1.58,9.24,22.16,22.16,0,0,1-1.36,5.93,12.24,12.24,0,0,1-3,4.92,30.19,30.19,0,0,1-8.13,5.43,18.59,18.59,0,0,1-8.9,2c-.6,0-1.78-2.15-3.57-6.31s-2.66-6.69-2.6-7.58a.57.57,0,0,1,.53-.58c2.11-.34,4.43-.56,6.38-1a5.3,5.3,0,0,0,4.29-4.85,10.25,10.25,0,0,0-1.89-5.84q-3.69-5.89-3.86-6.24a16.82,16.82,0,0,1-1.73-8.61A17.88,17.88,0,0,1,471,78.33a20.06,20.06,0,0,1,13.61-4.21c.49,0,1.54,2.12,3.14,6.25S490.14,86.91,490.09,87.57Z"/>
        </g>
        <g>
          <path d="M357.88,163.45c0,.32-.17.48-.5.48q-.86,0-6.76-.36-.14,6-.13,8.45,0,2.82.21,8.5t.21,8.49c0,.31-.06.5-.2.58a2.64,2.64,0,0,1-.63.12,31.75,31.75,0,0,1-3.95.19,30.52,30.52,0,0,1-4.07-.19.69.69,0,0,1-.63-.74c0-1.89.08-4.71.23-8.48s.22-6.59.22-8.47c0-1.25-.06-4-.18-8.33a70.88,70.88,0,0,1-7.16.48q-.36,0-.36-.24a14.25,14.25,0,0,1,.31-1.85c.24-1.11.38-1.79.41-2,0-.75.1-1.5.16-2.25.1-1.2.28-1.8.53-1.8l.32,0a86.14,86.14,0,0,0,10.76.5q2,0,7.45-.46l2.95-.23a1.1,1.1,0,0,1,.51.06c.05,0,.08.19.09.46,0,.43,0,1,0,1.8s-.05,1.44-.05,1.79a14.87,14.87,0,0,0,.15,1.76A14.94,14.94,0,0,1,357.88,163.45Z"/>
          <path class="cls-47" d="M355.88,161.45c0,.32-.17.48-.5.48q-.86,0-6.76-.36-.14,6-.13,8.45,0,2.82.21,8.5t.21,8.49c0,.31-.06.5-.2.58a2.64,2.64,0,0,1-.63.12,31.75,31.75,0,0,1-3.95.19,30.52,30.52,0,0,1-4.07-.19.69.69,0,0,1-.63-.74c0-1.89.08-4.71.23-8.48s.22-6.59.22-8.47c0-1.25-.06-4-.18-8.33a70.88,70.88,0,0,1-7.16.48q-.36,0-.36-.24a14.25,14.25,0,0,1,.31-1.85c.24-1.11.38-1.79.41-2,0-.75.1-1.5.16-2.25.1-1.2.28-1.8.53-1.8l.32,0a86.14,86.14,0,0,0,10.76.5q2,0,7.45-.46l2.95-.23a1.1,1.1,0,0,1,.51.06c.05,0,.08.19.09.46,0,.43,0,1,0,1.8s-.05,1.44-.05,1.79a14.87,14.87,0,0,0,.15,1.76A14.94,14.94,0,0,1,355.88,161.45Z"/>
          <path d="M268.67,188.52a.63.63,0,0,1-.5.62,18.06,18.06,0,0,1-3.66.2,20.06,20.06,0,0,1-3.63-.2c-.45-.11-.73-.49-.85-1.12-.45-2.38-.8-3.65-1-3.82a36.16,36.16,0,0,0-5.29-.17,12.55,12.55,0,0,0-3.57.22,8.21,8.21,0,0,0-.75,2.66c-.25,1.37-.55,2.12-.91,2.23a26.44,26.44,0,0,1-4.49.2c-2,0-3-.24-3-.72s1.49-5.72,4.46-15.86q4.83-16.45,5.24-18.09c.16-.63.34-.94.56-.94s.9,0,1.64.12,1.3.13,1.67.13.88,0,1.57-.09,1.2-.09,1.54-.09.48.27.69.82q1,2.61,5.64,17.87T268.67,188.52Zm-14-22.61q-.42,1.09-1.4,4.74a31.56,31.56,0,0,0-1.07,4.54c0,.3.4.47,1.18.5.41,0,1.08.05,2,.05s1.34-.13,1.44-.4a1.52,1.52,0,0,0,0-.34,29.46,29.46,0,0,0-.9-4.52A42.76,42.76,0,0,0,254.69,165.91Z"/>
          <path class="cls-47" d="M266.67,186.52a.63.63,0,0,1-.5.62,18.06,18.06,0,0,1-3.66.2,20.06,20.06,0,0,1-3.63-.2c-.45-.11-.73-.49-.85-1.12-.45-2.38-.8-3.65-1-3.82a36.16,36.16,0,0,0-5.29-.17,12.55,12.55,0,0,0-3.57.22,8.21,8.21,0,0,0-.75,2.66c-.25,1.37-.55,2.12-.91,2.23a26.44,26.44,0,0,1-4.49.2c-2,0-3-.24-3-.72s1.49-5.72,4.46-15.86q4.83-16.45,5.24-18.09c.16-.63.34-.94.56-.94s.9,0,1.64.12,1.3.13,1.67.13.88,0,1.57-.09,1.2-.09,1.54-.09.48.27.69.82q1,2.61,5.64,17.87T266.67,186.52Zm-14-22.61q-.42,1.09-1.4,4.74a31.56,31.56,0,0,0-1.07,4.54c0,.3.4.47,1.18.5.41,0,1.08.05,2,.05s1.34-.13,1.44-.4a1.52,1.52,0,0,0,0-.34,29.46,29.46,0,0,0-.9-4.52A42.76,42.76,0,0,0,252.69,163.91Z"/>
          <g>
            <path d="M294,188.49a.68.68,0,0,1-.68.75,34,34,0,0,1-3.54.1,27,27,0,0,1-3.79-.15.87.87,0,0,1-.72-1c0-.76,0-1.91.07-3.45s.07-2.69.07-3.47c0-.6,0-1.49-.05-2.68s0-2.08,0-2.68c0-2.22-1-3.33-2.89-3.33a4.23,4.23,0,0,0-2.21.83c-.91.61-1.36,1.22-1.36,1.82v13.11a.79.79,0,0,1-.75.89c-.57.07-1.73.1-3.47.1a27.32,27.32,0,0,1-3.69-.15c-.51-.08-.76-.34-.76-.8q0-1.89,0-5.7c0-2.54,0-4.45,0-5.73a37.52,37.52,0,0,0-.94-9.49,1.33,1.33,0,0,1-.05-.36.54.54,0,0,1,.36-.54c1-.11,2.38-.29,4.08-.53,2.57-.5,4-.75,4.34-.75s.32.54.42,1.64.23,1.63.41,1.63q-.27,0,2.61-1.68a10.26,10.26,0,0,1,5-1.69,8.72,8.72,0,0,1,5.15,1.46,5.42,5.42,0,0,1,2.31,4.66v7.74c0,1,0,2.62,0,4.72S294,187.44,294,188.49Z"/>
            <path d="M323.74,154.75c0-.35-.07.18-.2,1.61-.18,1.79-.31,4.09-.41,6.89q-.19,4.75-.2,10.82a125.59,125.59,0,0,0,.56,14.28c0,.3.05.5.05.58s-.12.28-.36.31c-.59.08-2.73.12-6.44.12q-1.31,0-1.5-.51c0-.61-.07-1.22-.1-1.84a.71.71,0,0,0-.19-.39,1.81,1.81,0,0,0-.37.29,9,9,0,0,1-6.55,2.58,10.25,10.25,0,0,1-8.2-3.6,12.78,12.78,0,0,1-2.94-8.64,13,13,0,0,1,2.89-8.71A10.21,10.21,0,0,1,308,164.9a7.21,7.21,0,0,1,5.71,2.33q.33.39.48.39c.15,0,.22-.21.22-.63,0-1.25,0-3.11-.1-5.59s-.1-4.32-.1-5.55q0-.71.39-.81c1,0,2.46-.14,4.28-.29a37.09,37.09,0,0,0,4.29-.6Q323.74,154.15,323.74,154.75Zm-9.16,22.31a4.78,4.78,0,0,0-1.33-3.36,4.26,4.26,0,0,0-3.23-1.45,3.89,3.89,0,0,0-3.17,1.45,5.31,5.31,0,0,0-1.17,3.46,4.82,4.82,0,0,0,1.19,3.32,3.92,3.92,0,0,0,3.15,1.46,4.19,4.19,0,0,0,3.25-1.46A4.92,4.92,0,0,0,314.58,177.06Z"/>
            <path d="M382.76,171.6l-.05,16.75c0,.56-.22.88-.68.94s-1.7.1-3.54.1a23.29,23.29,0,0,1-3.71-.2.91.91,0,0,1-.8-1q0-2.09.07-6.29c.05-2.79.07-4.89.07-6.28,0-1.89-1-2.84-2.89-2.84a4.68,4.68,0,0,0-2.28.78c-.95.56-1.43,1.15-1.43,1.77v6c0,.78,0,1.95.05,3.51s.05,2.73.05,3.51c0,.6-.25.93-.76,1s-1.91.1-4.22.1a14.53,14.53,0,0,1-2.86-.2c-.58-.12-.88-.41-.88-.84,0-1.28,0-3.2,0-5.77s0-4.49,0-5.76q0-7.94-.17-13.13c0-1.22-.09-2.43-.12-3.65a24.73,24.73,0,0,0-.44-3.61,3.23,3.23,0,0,1-.07-.46.47.47,0,0,1,.37-.49,10.25,10.25,0,0,1,2.2-.27c1.3,0,2-.08,2.26-.12l4.39-.51q.39,0,.39.51c0,.52,0,1.23-.09,2.11-.07,1-.1,1.74-.1,2.12q-.15,5.48-.15,8.66c0,.33.08.49.25.49s.44-.29,1.23-.85a16.21,16.21,0,0,1,2.7-1.58,9.07,9.07,0,0,1,3.71-.85,8.15,8.15,0,0,1,5.19,1.63A5.7,5.7,0,0,1,382.76,171.6Z"/>
            <path d="M409,176c0,1.63-.52,2.56-1.58,2.79-.17,0-1.85.21-5,.53q-2.87.32-8.54.75a3.43,3.43,0,0,0,2.06,2.41,7.33,7.33,0,0,0,3.2.68,9.17,9.17,0,0,0,4.35-1.17l1.84-1.16a7.12,7.12,0,0,1,1.71,2.47,9.17,9.17,0,0,1,1.2,2.84c0,.11-.12.3-.36.56q-3,3.18-9.2,3.18a13,13,0,0,1-9.32-3.38,12,12,0,0,1-3.64-9.15,13.1,13.1,0,0,1,3.25-9.15,11.44,11.44,0,0,1,8.89-3.69,10.57,10.57,0,0,1,7.91,3.4A11.29,11.29,0,0,1,409,176Zm-8.49-1.49a3.76,3.76,0,0,0-1.07-2.64,3.37,3.37,0,0,0-2.55-1.14,3.06,3.06,0,0,0-2.52,1.28,4.43,4.43,0,0,0-.93,2.8c0,.43.23.65.68.65a41.48,41.48,0,0,0,5.59-.56C400.19,174.84,400.46,174.71,400.46,174.53Z"/>
            <path d="M420.6,178.05c0,1.19,0,2.94.07,5.28s.08,4.09.08,5.26c0,.34-.21.54-.61.6a27.38,27.38,0,0,1-3.71.15,27.73,27.73,0,0,1-3.74-.15.94.94,0,0,1-.66-.31,3.18,3.18,0,0,1,0-.73c0-1.12,0-2.79.07-5s.07-3.92.07-5.06a90,90,0,0,0-.53-11,3.53,3.53,0,0,1-.05-.51c0-.32.22-.48.65-.48s1.15,0,2.08.14,1.63.15,2.1.15,1.17,0,2.11-.12,1.64-.12,2.11-.12.58.16.58.48a4.33,4.33,0,0,1,0,.46A98.14,98.14,0,0,0,420.6,178.05Zm.63-18c0,2.82-1.58,4.22-4.75,4.22a5.25,5.25,0,0,1-3.38-1.06,4.07,4.07,0,0,1,0-6.27,5.15,5.15,0,0,1,3.33-1.11,5,5,0,0,1,3.27,1.14A3.8,3.8,0,0,1,421.23,160Z"/>
            <path d="M441.38,174.07c0,.63-.35,1-1.05,1-.3,0-.75,0-1.34-.06s-1-.06-1.33-.06a4.35,4.35,0,0,0-2.74.63,3.37,3.37,0,0,0-.73,2.55c0,.69,0,1.75,0,3.17s0,2.47,0,3.16q0,.71.09,2.1c.07.93.1,1.63.1,2.08s-.27.6-.8.65c-.78.07-2,.1-3.57.1a35.8,35.8,0,0,1-3.69-.15c-.53-.06-.8-.33-.8-.8,0-1.29,0-3.23,0-5.81s0-4.52,0-5.81a35.59,35.59,0,0,0-1-9.4,1.29,1.29,0,0,1-.05-.36.47.47,0,0,1,.36-.48c.89-.1,2.19-.28,3.91-.54,2.56-.5,3.87-.75,3.95-.75.3,0,.48.51.56,1.53s.23,1.53.44,1.53c-.23,0,.44-.43,2-1.28a9.33,9.33,0,0,1,4.49-1.27c.91,0,1.36.19,1.36.58a18.45,18.45,0,0,1-.15,2c-.09.92-.15,1.59-.17,2s0,1.09,0,1.87C441.36,173.14,441.38,173.77,441.38,174.07Z"/>
          </g>
          <g>
            <path class="cls-47" d="M292,186.49a.68.68,0,0,1-.68.75,34,34,0,0,1-3.54.1,27,27,0,0,1-3.79-.15.87.87,0,0,1-.72-1c0-.76,0-1.91.07-3.45s.07-2.69.07-3.47c0-.6,0-1.49-.05-2.68s0-2.08,0-2.68c0-2.22-1-3.33-2.89-3.33a4.23,4.23,0,0,0-2.21.83c-.91.61-1.36,1.22-1.36,1.82v13.11a.79.79,0,0,1-.75.89c-.57.07-1.73.1-3.47.1a27.32,27.32,0,0,1-3.69-.15c-.51-.08-.76-.34-.76-.8q0-1.89,0-5.7c0-2.54,0-4.45,0-5.73a37.52,37.52,0,0,0-.94-9.49,1.33,1.33,0,0,1-.05-.36.54.54,0,0,1,.36-.54c1-.11,2.38-.29,4.08-.53,2.57-.5,4-.75,4.34-.75s.32.54.42,1.64.23,1.63.41,1.63q-.27,0,2.61-1.68a10.26,10.26,0,0,1,5-1.69,8.72,8.72,0,0,1,5.15,1.46,5.42,5.42,0,0,1,2.31,4.66v7.74c0,1,0,2.62,0,4.72S292,185.44,292,186.49Z"/>
            <path class="cls-47" d="M321.74,152.75c0-.35-.07.18-.2,1.61-.18,1.79-.31,4.09-.41,6.89q-.19,4.75-.2,10.82a125.59,125.59,0,0,0,.56,14.28c0,.3.05.5.05.58s-.12.28-.36.31c-.59.08-2.73.12-6.44.12q-1.31,0-1.5-.51c0-.61-.07-1.22-.1-1.84a.71.71,0,0,0-.19-.39,1.81,1.81,0,0,0-.37.29,9,9,0,0,1-6.55,2.58,10.25,10.25,0,0,1-8.2-3.6,12.78,12.78,0,0,1-2.94-8.64,13,13,0,0,1,2.89-8.71A10.21,10.21,0,0,1,306,162.9a7.21,7.21,0,0,1,5.71,2.33q.33.39.48.39c.15,0,.22-.21.22-.63,0-1.25,0-3.11-.1-5.59s-.1-4.32-.1-5.55q0-.71.39-.81c1,0,2.46-.14,4.28-.29a37.09,37.09,0,0,0,4.29-.6Q321.74,152.15,321.74,152.75Zm-9.16,22.31a4.78,4.78,0,0,0-1.33-3.36,4.26,4.26,0,0,0-3.23-1.45,3.89,3.89,0,0,0-3.17,1.45,5.31,5.31,0,0,0-1.17,3.46,4.82,4.82,0,0,0,1.19,3.32,3.92,3.92,0,0,0,3.15,1.46,4.19,4.19,0,0,0,3.25-1.46A4.92,4.92,0,0,0,312.58,175.06Z"/>
            <path class="cls-47" d="M380.76,169.6l-.05,16.75c0,.56-.22.88-.68.94s-1.7.1-3.54.1a23.29,23.29,0,0,1-3.71-.2.91.91,0,0,1-.8-1q0-2.09.07-6.29c.05-2.79.07-4.89.07-6.28,0-1.89-1-2.84-2.89-2.84a4.68,4.68,0,0,0-2.28.78c-.95.56-1.43,1.15-1.43,1.77v6c0,.78,0,1.95.05,3.51s.05,2.73.05,3.51c0,.6-.25.93-.76,1s-1.91.1-4.22.1a14.53,14.53,0,0,1-2.86-.2c-.58-.12-.88-.41-.88-.84,0-1.28,0-3.2,0-5.77s0-4.49,0-5.76q0-7.94-.17-13.13c0-1.22-.09-2.43-.12-3.65a24.73,24.73,0,0,0-.44-3.61,3.23,3.23,0,0,1-.07-.46.47.47,0,0,1,.37-.49,10.25,10.25,0,0,1,2.2-.27c1.3,0,2-.08,2.26-.12l4.39-.51q.39,0,.39.51c0,.52,0,1.23-.09,2.11-.07,1-.1,1.74-.1,2.12q-.15,5.48-.15,8.66c0,.33.08.49.25.49s.44-.29,1.23-.85a16.21,16.21,0,0,1,2.7-1.58,9.07,9.07,0,0,1,3.71-.85,8.15,8.15,0,0,1,5.19,1.63A5.7,5.7,0,0,1,380.76,169.6Z"/>
            <path class="cls-47" d="M407,174c0,1.63-.52,2.56-1.58,2.79-.17,0-1.85.21-5,.53q-2.87.32-8.54.75a3.43,3.43,0,0,0,2.06,2.41,7.33,7.33,0,0,0,3.2.68,9.17,9.17,0,0,0,4.35-1.17l1.84-1.16a7.12,7.12,0,0,1,1.71,2.47,9.17,9.17,0,0,1,1.2,2.84c0,.11-.12.3-.36.56q-3,3.18-9.2,3.18a13,13,0,0,1-9.32-3.38,12,12,0,0,1-3.64-9.15,13.1,13.1,0,0,1,3.25-9.15,11.44,11.44,0,0,1,8.89-3.69,10.57,10.57,0,0,1,7.91,3.4A11.29,11.29,0,0,1,407,174Zm-8.49-1.49a3.76,3.76,0,0,0-1.07-2.64,3.37,3.37,0,0,0-2.55-1.14,3.06,3.06,0,0,0-2.52,1.28,4.43,4.43,0,0,0-.93,2.8c0,.43.23.65.68.65a41.48,41.48,0,0,0,5.59-.56C398.19,172.84,398.46,172.71,398.46,172.53Z"/>
            <path class="cls-47" d="M418.6,176.05c0,1.19,0,2.94.07,5.28s.08,4.09.08,5.26c0,.34-.21.54-.61.6a27.38,27.38,0,0,1-3.71.15,27.73,27.73,0,0,1-3.74-.15.94.94,0,0,1-.66-.31,3.18,3.18,0,0,1,0-.73c0-1.12,0-2.79.07-5s.07-3.92.07-5.06a90,90,0,0,0-.53-11,3.53,3.53,0,0,1-.05-.51c0-.32.22-.48.65-.48s1.15,0,2.08.14,1.63.15,2.1.15,1.17,0,2.11-.12,1.64-.12,2.11-.12.58.16.58.48a4.33,4.33,0,0,1,0,.46A98.14,98.14,0,0,0,418.6,176.05Zm.63-18c0,2.82-1.58,4.22-4.75,4.22a5.25,5.25,0,0,1-3.38-1.06,4.07,4.07,0,0,1,0-6.27,5.15,5.15,0,0,1,3.33-1.11,5,5,0,0,1,3.27,1.14A3.8,3.8,0,0,1,419.23,158Z"/>
            <path class="cls-47" d="M439.38,172.07c0,.63-.35,1-1.05,1-.3,0-.75,0-1.34-.06s-1-.06-1.33-.06a4.35,4.35,0,0,0-2.74.63,3.37,3.37,0,0,0-.73,2.55c0,.69,0,1.75,0,3.17s0,2.47,0,3.16q0,.71.09,2.1c.07.93.1,1.63.1,2.08s-.27.6-.8.65c-.78.07-2,.1-3.57.1a35.8,35.8,0,0,1-3.69-.15c-.53-.06-.8-.33-.8-.8,0-1.29,0-3.23,0-5.81s0-4.52,0-5.81a35.59,35.59,0,0,0-1-9.4,1.29,1.29,0,0,1-.05-.36.47.47,0,0,1,.36-.48c.89-.1,2.19-.28,3.91-.54,2.56-.5,3.87-.75,3.95-.75.3,0,.48.51.56,1.53s.23,1.53.44,1.53c-.23,0,.44-.43,2-1.28a9.33,9.33,0,0,1,4.49-1.27c.91,0,1.36.19,1.36.58a18.45,18.45,0,0,1-.15,2c-.09.92-.15,1.59-.17,2s0,1.09,0,1.87C439.36,171.14,439.38,171.77,439.38,172.07Z"/>
          </g>
        </g>
      </g>
    </g>
  </g>
</svg>
