<svg id="Layer_1" data-name="Layer 1" xmlns="http://www.w3.org/2000/svg" viewBox="0 0 527 268"><defs><style>.cls-1{fill:#f9ea3a;}.cls-2{fill:#71e259;}</style></defs><path d="M62.7,195.31a9.55,9.55,0,0,1-.09,3.72,169.6,169.6,0,0,1-10.1,28.55,7.19,7.19,0,0,0-.66,3.87q.42,2.56,1.51,7.63c.72,3.37,1.21,5.9,1.49,7.57.1.58,0,.95-.14,1.11a8.65,8.65,0,0,1-1,.42,52.41,52.41,0,0,1-7,1.47,55.53,55.53,0,0,1-7.26,1,1.25,1.25,0,0,1-1.33-1.2c-.31-1.7-.65-4.3-1-7.82s-.73-6.15-1-7.88a7.11,7.11,0,0,0-1.54-3.14C28.26,223.14,22.2,215.52,16.1,208a7.52,7.52,0,0,1-1.51-2.89c-.37-1.92-1-4.78-1.89-8.59s-1.52-6.67-1.89-8.58c-.2-1.06,0-1.64.52-1.74,1.66-.32,4.2-.72,7.61-1.18s6-.84,7.65-1.14c.63-.11,1,.07,1.07.55q.43,2.46,1.13,7.41t1.13,7.42c.17,1,1.79,3.17,4.83,6.58,2.39,2.69,4.35,4.75,5.83,6.17.83-1.72,1.89-4.3,3.2-7.67,1.65-4.24,2.44-6.76,2.31-7.57-.27-1.6-.77-4-1.52-7.24s-1.25-5.64-1.52-7.25c-.11-.68,0-1.08.18-1.22l1-.17q2.46-.41,7.36-1.47c3.26-.7,5.73-1.17,7.41-1.43q.81-.12,1.14,1.95c.26,1.7.68,4.27,1.26,7.68S62.43,193.57,62.7,195.31Z"/><path d="M109.76,215.88c.88,7.37-.25,13.56-3.33,18.61a18.74,18.74,0,0,1-28.61,4c-4.37-4-7.12-9.47-8.2-16.56-1.12-7.46-.23-13.8,2.74-19s7.61-8.24,13.89-9.09A18.24,18.24,0,0,1,102,198.75C106.3,202.85,108.88,208.57,109.76,215.88Zm-13.08,1.63A11.88,11.88,0,0,0,93.84,211a6,6,0,0,0-5.48-2.25,6.17,6.17,0,0,0-4.8,3.72,11.69,11.69,0,0,0-1,6.94,11.89,11.89,0,0,0,2.85,6.45,6,6,0,0,0,10.27-1.39A12.08,12.08,0,0,0,96.68,217.51Z"/><path d="M154,190.87c.21,2.4.42,6,.64,10.82s.44,8.43.65,10.83.57,5.83,1.1,10.49.89,8.14,1.09,10.44a1.54,1.54,0,0,1-.84,1.74,26.18,26.18,0,0,1-6.28,1.05,40.11,40.11,0,0,1-6,.26,1.24,1.24,0,0,1-1-1.07c-.21-.91-.34-1.94-.52-2.9-.27-1.47-.53-2.2-.77-2.18q.56-.06-3.65,3.7c-2.79,2.5-5.4,3.89-7.86,4.15-6.93.73-11.49-2.66-13.65-10.23a105.89,105.89,0,0,1-2.69-15.51,80.76,80.76,0,0,1-.54-17.64c.14-1.36.62-2.08,1.43-2.18,1.25-.14,3.14-.34,5.69-.59s4.44-.43,5.69-.56a1.12,1.12,0,0,1,1.39,1.13c0,.23,0,.57,0,1a103.7,103.7,0,0,0,.56,13.49A100.56,100.56,0,0,0,130,218.65c.86,3.5,2.76,5.11,5.75,4.81a5.93,5.93,0,0,0,3.6-2.28,5.76,5.76,0,0,0,1.74-4.14q-.09-1.8-2.28-24.41a5.45,5.45,0,0,1,0-1.91c.15-.31.61-.55,1.42-.63q2-.19,6-.51l6-.48c.81-.07,1.3.13,1.48.6A5.77,5.77,0,0,1,154,190.87Z"/><path d="M203.22,230.58c0,.88-.3,1.4-1,1.57a48.75,48.75,0,0,1-5.73.5,38,38,0,0,1-6.15.07c-.8-.15-1.23-.79-1.3-1.93q-.15-2.29-.31-6.93t-.31-7c-.07-1.2-.21-3-.41-5.38s-.33-4.17-.4-5.38q-.42-6.68-5.21-6.37a6.22,6.22,0,0,0-3.56,1.9c-1.42,1.31-2.08,2.6-2,3.8.73,10.53,1.09,15.79,1.82,26.31.08,1.07-.29,1.71-1.09,1.89a50.83,50.83,0,0,1-5.61.6,39.83,39.83,0,0,1-6,.17,1.46,1.46,0,0,1-1.35-1.51q-.3-3.79-.87-11.45T162.84,210q-1-12.12-3.11-18.9a4.46,4.46,0,0,1-.14-.72,1.08,1.08,0,0,1,.53-1.12c1.68-.37,4-.85,6.74-1.61,4.15-1.17,6.64-2,7.18-2,.3,0,.61,1.06.92,3.24s.62,3.26.92,3.24c-.3,0,1.07-1.21,4.14-3.68s5.81-3.78,8.23-3.92a12.7,12.7,0,0,1,8.8,2.44c2.7,2.07,4.14,5.16,4.34,9.16.32,6.22.47,9.33.79,15.55q.16,3.18.52,9.49T203.22,230.58Z"/><path d="M248.87,217.79q.21,13.92-4.39,20.05c-3.14,4.19-8.46,6.37-15.93,6.61a43.51,43.51,0,0,1-9-1c-4.84-.93-7.32-2.11-7.38-3.6q0-.93,1.27-9.64c.15-.92.47-1.43.81-1.4a1.28,1.28,0,0,1,.44.18q6.22,3.45,11.36,3.28a10.61,10.61,0,0,0,5.58-1.93c2.2-1.46,3.3-3.25,3.25-5.36l-.09-3.27a13.21,13.21,0,0,1-10.22,5c-5,.17-9.1-1.87-12.49-6.12a25.93,25.93,0,0,1-5.38-15.4c-.29-6.21,1-11.44,3.83-15.66a14.68,14.68,0,0,1,12.2-6.88,10.37,10.37,0,0,1,9.58,5c.45.7.76,1,.92,1s.35-.6.32-1.77c-.07-2.6.14-3.91.63-3.92s2.8.19,7.08.64,6.49.72,6.66.78a1.24,1.24,0,0,1,.71,1.26c0,2.24,0,5.6,0,10.06s-.06,7.81,0,10.06c0,1.33.06,3.34.13,6S248.85,216.45,248.87,217.79Zm-14.11-13.24a10,10,0,0,0-2.12-6.12,5.87,5.87,0,0,0-9.8.35,10.27,10.27,0,0,0-1.73,6.3,9.9,9.9,0,0,0,2.2,6.07,5.91,5.91,0,0,0,4.9,2.43A5.82,5.82,0,0,0,233,210.8,10.16,10.16,0,0,0,234.76,204.55Z"/><path d="M292.4,204q-.09,4.94-2.7,5.58c-.29.06-3.09.34-8.29,1-3.13.38-7.84.87-14.07,1.46a6.8,6.8,0,0,0,3.39,4.84,10.23,10.23,0,0,0,5.25,1.38,13.07,13.07,0,0,0,7.14-2.29l3.05-2.31c.55.33,1.47,2,2.74,5s1.89,4.93,1.87,5.74a2.27,2.27,0,0,1-.61,1.11c-3.28,4.22-8.27,6.28-15,6.25A19.22,19.22,0,0,1,260,225c-4-4.56-6.06-10.67-6.15-18.35-.08-7.49,1.65-13.65,5.23-18.47a17.65,17.65,0,0,1,14.9-7.45c5.23,0,9.66,2.34,13.24,6.94A25.2,25.2,0,0,1,292.4,204Zm-14-3.14a8.41,8.41,0,0,0-1.75-5.33,5.21,5.21,0,0,0-4.24-2.31,4.88,4.88,0,0,0-4.21,2.58,10.21,10.21,0,0,0-1.52,5.62c0,.88.38,1.32,1.13,1.32a62,62,0,0,0,9.25-1.11C277.91,201.47,278.35,201.22,278.36,200.86Z"/><path d="M323.6,201c-.05,1.27-.66,1.88-1.81,1.83-.51,0-1.25-.09-2.23-.2s-1.7-.19-2.18-.21c-2.23-.08-3.76.3-4.59,1.12s-1.28,2.52-1.36,5.09c-.05,1.39-.1,3.52-.15,6.37s-.09,5-.14,6.37c0,.94,0,2.35,0,4.22s.05,3.27,0,4.18-.48,1.21-1.34,1.28c-1.26.1-3.2.1-5.8,0a48.12,48.12,0,0,1-6-.44,1.43,1.43,0,0,1-1.27-1.64q.09-3.9.28-11.69c.14-5.19.23-9.08.29-11.69A84,84,0,0,0,296,186.68,4.41,4.41,0,0,1,296,186a1,1,0,0,1,.63-1c1.5-.16,3.78-.41,6.59-.92,4.23-.77,6.55-1.34,6.69-1.34.49,0,.77,1.05.84,3.11s.29,3.08.64,3.09q-.57,0,3.42-2.45a13.72,13.72,0,0,1,7.63-2.29c1.52.06,2.26.48,2.23,1.26,0,.94-.18,2.28-.41,4s-.4,3.19-.44,4-.08,2.21-.11,3.76C323.64,199.09,323.62,200.37,323.6,201Z"/><path d="M405.4,203c-1,10.11-4.54,18.32-10.43,24.64s-13,9.29-21.15,8.64-14.52-4.62-19.45-12c-4.83-7.19-7-15.8-6.44-25.88s3.79-18.45,9.7-25,13.4-9.72,21.92-9,15.26,4.83,20.18,12.4S406.41,193,405.4,203Zm-15.25-1.55a20.62,20.62,0,0,0-2.59-12.73c-2.26-3.79-5.42-5.86-9.45-6.18-3.84-.3-7.24,1.31-10.17,4.81a20.48,20.48,0,0,0-4.72,12.05,20.81,20.81,0,0,0,2.69,12.67,11.61,11.61,0,0,0,9.37,6c3.74.29,7.08-1.27,10-4.71A20.57,20.57,0,0,0,390.15,201.45Z"/><path d="M446.64,240.88c-.11.87-.55,1.32-1.29,1.35a49.83,49.83,0,0,1-5.74-.56,38.15,38.15,0,0,1-6.07-1.07c-.76-.3-1.07-1-.92-2.14.18-1.52.51-3.8,1-6.86s.79-5.37,1-6.92c.15-1.19.34-3,.59-5.36s.44-4.17.59-5.37c.55-4.42-.77-6.84-3.95-7.22a6.18,6.18,0,0,0-3.85,1.21c-1.64,1-2.53,2.18-2.67,3.37-1.23,10.48-1.84,15.72-3.06,26.19-.13,1.07-.61,1.63-1.43,1.65a47.05,47.05,0,0,1-5.62-.44,39.8,39.8,0,0,1-5.93-.94,1.44,1.44,0,0,1-1-1.73q.39-3.79,1.24-11.41t1.26-11.45q1.28-12.09.43-19.16a4.4,4.4,0,0,1,0-.73,1.07,1.07,0,0,1,.72-1c1.73,0,4.13-.08,6.93-.33,4.3-.39,6.9-.75,7.44-.68.3,0,.4,1.15.31,3.35s0,3.32.3,3.35c-.29,0,1.28-1,4.75-2.85s6.42-2.64,8.83-2.33a12.79,12.79,0,0,1,8.22,4c2.26,2.53,3.12,5.84,2.58,9.8l-2.1,15.44c-.28,2.1-.7,5.24-1.24,9.42S446.93,238.78,446.64,240.88Z"/><path d="M493.15,222.59q-.82,4.86-3.51,5.1c-.3,0-3.11-.12-8.37-.28-3.16-.1-7.9-.32-14.16-.67a6.76,6.76,0,0,0,2.63,5.29,10.22,10.22,0,0,0,5,2.15,13.11,13.11,0,0,0,7.43-1.19l3.37-1.82q.75.62,2,5.37t1,6a2.41,2.41,0,0,1-.78,1c-3.88,3.67-9.14,5-15.82,3.92a19.31,19.31,0,0,1-14-9c-3.24-5.1-4.4-11.45-3.34-19.06q1.56-11.13,7.95-17.47a17.66,17.66,0,0,1,15.89-5.13c5.18.8,9.23,3.76,12.08,8.85A25.05,25.05,0,0,1,493.15,222.59Zm-13.45-5.22a8.44,8.44,0,0,0-.93-5.54,5.27,5.27,0,0,0-3.86-2.92,4.89,4.89,0,0,0-4.56,1.92,10.18,10.18,0,0,0-2.35,5.33c-.13.87.18,1.36.92,1.47a60.82,60.82,0,0,0,9.34.3C479.16,217.91,479.64,217.72,479.7,217.37Z"/><path d="M523.17,214.79a2.49,2.49,0,0,1-.84,1.18,8.44,8.44,0,0,0-2.18-.76,6.5,6.5,0,0,0-4.19.51,4.92,4.92,0,0,0-2.67,3.73c-.21,1.12.21,2.67,1.24,4.65a46.9,46.9,0,0,1,2.79,5.93,16.23,16.23,0,0,1,.53,8.21,19,19,0,0,1-1.77,5,10.76,10.76,0,0,1-3.1,4,27.21,27.21,0,0,1-7.7,3.94,16.85,16.85,0,0,1-8.06.84c-.52-.09-1.37-2-2.58-5.83s-1.75-6.07-1.62-6.84a.52.52,0,0,1,.53-.46c1.9-.1,4-.07,5.75-.29a4.65,4.65,0,0,0,4.25-3.81,8.9,8.9,0,0,0-1.15-5.26c-1.82-3.66-2.79-5.59-2.86-5.81a14.51,14.51,0,0,1-.76-7.66,15.49,15.49,0,0,1,8.24-11.2,18.26,18.26,0,0,1,12.55-2.33q.66.12,2.22,5.75C522.83,212.05,523.28,214.22,523.17,214.79Z"/><path d="M164.84,91.74a1.42,1.42,0,0,1-1,1.45c-.87.34-3.62.62-8.23.87a45.89,45.89,0,0,1-8.18,0c-1-.19-1.71-1-2.06-2.4-1.31-5.28-2.28-8.13-2.86-8.43s-4.48-.14-12,.35c-5,.32-7.73.68-8,1q-.69.94-1.28,6.07c-.35,3.11-.92,4.85-1.69,5.15-1,.37-4.34.75-10.07,1.18-4.52.34-6.93-.13-6.9-1.09.37-10.93,4.73-24.3,7.39-36.31,3.06-13.8,6.47-27.72,9.24-41.42.28-1.41.65-2.17,1.14-2.2a38.42,38.42,0,0,1,3.86,0c1.75.07,3,.08,3.91,0s2-.2,3.64-.43,2.81-.37,3.61-.41c.58,0,1.15.54,1.72,1.74,5.55,12.92,10.4,26.18,15.3,39.35C156.71,68,163,80.92,164.84,91.74ZM130.14,42.8c-.53,1.67-1.37,5.3-2.53,10.84-1.23,5.88-1.83,9.34-1.77,10.34,0,.67,1,1,2.78.94.91,0,2.46,0,4.59-.18,2-.13,3.06-.49,3.23-1.1a2.61,2.61,0,0,0,0-.78c-.07-1.23-1-4.57-2.7-10A87.22,87.22,0,0,0,130.14,42.8Z"/><path d="M213.19,89.74c0,1-.37,1.59-1.2,1.76a54.1,54.1,0,0,1-6.47.4,41.82,41.82,0,0,1-6.94-.12c-.89-.2-1.36-1-1.4-2.25q-.09-2.61-.13-7.92t-.13-8q-.06-2.07-.29-6.16t-.29-6.16q-.26-7.64-5.63-7.45a6.87,6.87,0,0,0-4,2c-1.63,1.45-2.42,2.91-2.37,4.28q.58,15,1.16,30.1c0,1.22-.39,1.94-1.3,2.11a53.54,53.54,0,0,1-6.33.48,44.14,44.14,0,0,1-6.76,0,1.66,1.66,0,0,1-1.46-1.78q-.2-4.35-.56-13.1t-.56-13.15q-.65-13.87-2.78-21.7a4.47,4.47,0,0,1-.13-.83A1.24,1.24,0,0,1,166.2,41c1.9-.35,4.55-.8,7.59-1.57,4.67-1.17,7.47-2,8.08-2.06.33,0,.64,1.23.92,3.73s.59,3.74.92,3.73c-.33,0,1.24-1.34,4.74-4s6.61-4.11,9.31-4.2a14.1,14.1,0,0,1,9.75,3.06c3,2.45,4.48,6,4.59,10.59l.45,17.79c.07,2.42.17,6,.32,10.84S213.13,87.32,213.19,89.74Z"/><path d="M236.72,65.29q.06,4.06.3,12.13t.3,12.07a1.28,1.28,0,0,1-1.09,1.41,42.94,42.94,0,0,1-6.79.44,43.19,43.19,0,0,1-6.84-.2,1.62,1.62,0,0,1-1.22-.7,8.23,8.23,0,0,1-.12-1.67c0-2.57-.09-6.42-.11-11.58s-.06-9-.12-11.63a248.33,248.33,0,0,0-1.53-25.18c-.08-.59-.11-1-.12-1.17,0-.74.39-1.12,1.21-1.14a33,33,0,0,1,3.9.26,38.21,38.21,0,0,0,3.94.26c.88,0,2.2-.13,4-.35s3.07-.32,4-.33a1,1,0,0,1,1.11,1.1c0,.15,0,.5-.08,1.06Q236.52,51,236.72,65.29Zm.62-41.45c.09,6.47-2.85,9.73-8.81,9.84a8.75,8.75,0,0,1-6.39-2.34,9.68,9.68,0,0,1-2.9-7.19,9.53,9.53,0,0,1,2.7-7.2,8.64,8.64,0,0,1,6.25-2.68,8.47,8.47,0,0,1,6.25,2.52A9.59,9.59,0,0,1,237.34,23.84Z"/><path d="M316.64,89.26c0,1.3-.5,2-1.39,2.14a57.69,57.69,0,0,1-6.57.07,39,39,0,0,1-6.74-.46c-.89-.24-1.32-1.16-1.29-2.75s.12-4.27.26-7.67.24-6,.27-7.67c.11-6.5.12-11.14.05-13.89-.11-4.42-1.77-6.67-5-6.71A6,6,0,0,0,292,54.46a7.9,7.9,0,0,0-2.38,4.86c-.14,1.55-.25,6.13-.34,13.71q0,2.63.05,8c.05,3.56.06,6.22,0,8,0,1.22-.45,1.83-1.31,1.82-5.38,0-8.07-.07-13.45-.1-.83,0-1.24-.76-1.24-2.29,0-1.75.06-4.37.17-7.86s.15-6.14.16-7.92c0-1.38,0-3.46-.06-6.25s-.08-4.89-.07-6.3q0-8-4.9-8a7,7,0,0,0-4.3,1.89q-2.52,2.07-2.52,4.36,0,5.07.07,15.17T262,88.63a3.25,3.25,0,0,1-.26,1.73,2.14,2.14,0,0,1-1.37.45c-1.33.15-3.44.23-6.31.25-1.86,0-4-.08-6.35-.29-.71-.06-1.13-.19-1.27-.38a4,4,0,0,1-.21-1.67q0-4.45-.08-13.36T246,62q-.09-9.14-1.28-20.57a9.22,9.22,0,0,1-.11-1,1.34,1.34,0,0,1,.63-1.29,12.83,12.83,0,0,1,3.77-.87c2.27-.28,3.64-.44,4-.53s1.51-.46,3.59-1.19a11.9,11.9,0,0,1,3.6-.79c.57,0,.88,1.29.92,3.87s.16,3.88.37,3.88a4.58,4.58,0,0,0,1-.78,42.77,42.77,0,0,1,6.46-5.36,14.6,14.6,0,0,1,7.62-2,12.65,12.65,0,0,1,7.45,2.33,11.68,11.68,0,0,1,4.7,7.25,20.6,20.6,0,0,1,6.72-6.67,15.13,15.13,0,0,1,8.29-2.6,14,14,0,0,1,9.72,3.6q4.2,3.95,4,11.08c0,2-.16,4.94-.35,8.9s-.31,6.92-.35,8.89q-.09,3.51-.13,10.57C316.74,83.39,316.69,86.91,316.64,89.26Z"/><path d="M371,65.44q-.21,4.29-.24,12.78t-.23,12.72c-.08,1.49-.65,2.27-1.68,2.32-3.65.18-7.89.12-12.62-.09-.56,0-.89-1.11-1-3.25s-.29-3.24-.55-3.29a4.35,4.35,0,0,0-1,.91c-3.5,4.06-7.12,6-10.91,5.87-5.76-.21-10.43-3.25-14.06-9.07A33.86,33.86,0,0,1,323.89,65q.36-12.89,6.25-20.58a18.78,18.78,0,0,1,16.47-7.59,12.91,12.91,0,0,1,11,6.59c.11.2.21.29.31.3.27,0,.62-.88,1-2.67s.89-2.66,1.38-2.64a32.58,32.58,0,0,1,6.36,1.46,55,55,0,0,1,6.36,2.21,1,1,0,0,1,.64.93,10.9,10.9,0,0,1-.2,1.16A149.7,149.7,0,0,0,371,65.44Zm-14.49-.34a12.33,12.33,0,0,0-2.07-7.93,7.95,7.95,0,0,0-12.57-.52,12.38,12.38,0,0,0-2.67,7.78,12.2,12.2,0,0,0,2.24,7.83,7.52,7.52,0,0,0,6,3.47,7.6,7.6,0,0,0,6.35-2.85A12.43,12.43,0,0,0,356.52,65.1Z"/><path d="M396.67,61.19c-.64,10.12-1.06,17.94-1.36,23.33-.05.85-.11,2.33-.14,4.4,0,1.9-.08,3.37-.15,4.41a1.27,1.27,0,0,1-1.19,1.32,40.7,40.7,0,0,1-7.21,0,32.12,32.12,0,0,1-6.76-.83,1.6,1.6,0,0,1-1-1.57c0-.11.05-.91.13-2.39q.27-5,.9-14.84t.9-14.78Q382,36.86,382,38.93a211.73,211.73,0,0,0,0-21.28,7,7,0,0,1,0-.95c.05-.82.47-1.21,1.26-1.16,6.58.35,9.86.55,16.43,1,.77,0,1.1.46,1,1.23l-.11,1C399,32.86,397.56,47,396.67,61.19Z"/><path d="M432.16,52.11a3,3,0,0,1-.8,1.45,8.92,8.92,0,0,0-2.5-.59,7.14,7.14,0,0,0-4.59,1.11,5.71,5.71,0,0,0-2.52,4.57q-.13,1.93,1.93,5.12a54.34,54.34,0,0,1,3.81,6.39,18.74,18.74,0,0,1,1.58,9.24,22.16,22.16,0,0,1-1.36,5.93,12.32,12.32,0,0,1-3,4.92,30.19,30.19,0,0,1-8.13,5.43,18.59,18.59,0,0,1-8.9,1.95c-.59,0-1.78-2.15-3.56-6.31s-2.67-6.69-2.61-7.58a.57.57,0,0,1,.53-.58c2.11-.35,4.43-.56,6.39-1a5.28,5.28,0,0,0,4.28-4.84,10.25,10.25,0,0,0-1.89-5.84q-3.69-5.9-3.86-6.24a16.82,16.82,0,0,1-1.73-8.61,17.88,17.88,0,0,1,7.85-13.73,20.07,20.07,0,0,1,13.61-4.21c.49,0,1.54,2.12,3.14,6.25S432.21,51.45,432.16,52.11Z"/><path class="cls-1" d="M161.19,90.16a1.42,1.42,0,0,1-1,1.45c-.87.34-3.62.62-8.23.86a45.25,45.25,0,0,1-8.18,0c-1-.2-1.71-1-2.06-2.4-1.31-5.29-2.28-8.14-2.86-8.44s-4.48-.13-12,.35c-5,.33-7.73.69-8,1-.46.63-.89,2.66-1.28,6.07-.35,3.12-.92,4.85-1.69,5.15-1,.38-4.34.75-10.07,1.19-4.52.34-6.93-.14-6.9-1.09C99.25,83.41,103.61,70,106.27,58c3.06-13.8,6.47-27.72,9.24-41.42.28-1.42.65-2.17,1.14-2.21.83-.05,2.12,0,3.86,0s3,.08,3.91,0,2-.19,3.64-.42,2.81-.37,3.61-.42c.58,0,1.15.55,1.72,1.74,5.56,12.92,10.4,26.19,15.3,39.36C153.06,66.43,159.33,79.33,161.19,90.16Zm-34.7-48.95c-.53,1.68-1.37,5.31-2.53,10.84-1.23,5.89-1.83,9.35-1.77,10.35,0,.67,1,.94,2.78.93.91,0,2.46,0,4.59-.18,2-.12,3.06-.49,3.23-1.09a2.65,2.65,0,0,0,0-.79c-.07-1.22-1-4.57-2.7-10A87.66,87.66,0,0,0,126.49,41.21Z"/><path class="cls-1" d="M209.54,88.15c0,1-.37,1.59-1.2,1.76a54.1,54.1,0,0,1-6.47.4,41.82,41.82,0,0,1-6.94-.12c-.89-.19-1.36-.94-1.4-2.24q-.09-2.62-.13-7.92c0-3.54-.07-6.19-.13-8,0-1.37-.14-3.43-.29-6.16s-.25-4.78-.29-6.15q-.25-7.64-5.63-7.46a7,7,0,0,0-4,2c-1.63,1.45-2.42,2.9-2.37,4.27q.58,15.06,1.16,30.1c.05,1.23-.39,1.94-1.29,2.12a59,59,0,0,1-6.34.48,42.36,42.36,0,0,1-6.76,0A1.65,1.65,0,0,1,166,89.49q-.19-4.35-.56-13.1t-.56-13.15q-.65-13.87-2.78-21.7a4.56,4.56,0,0,1-.13-.84,1.22,1.22,0,0,1,.63-1.25c1.89-.35,4.54-.81,7.58-1.57,4.67-1.18,7.47-2,8.08-2.07.33,0,.64,1.23.92,3.74s.59,3.74.92,3.73c-.33,0,1.24-1.35,4.74-4.06s6.61-4.11,9.31-4.2a14.1,14.1,0,0,1,9.75,3.06c2.95,2.45,4.48,6,4.6,10.6.18,7.11.27,10.67.44,17.78.07,2.42.17,6,.32,10.85S209.48,85.74,209.54,88.15Z"/><path class="cls-1" d="M233.07,63.71q.06,4.07.3,12.12t.3,12.08a1.28,1.28,0,0,1-1.09,1.41,44.26,44.26,0,0,1-6.79.44,41.5,41.5,0,0,1-6.84-.21,1.59,1.59,0,0,1-1.22-.7,8.14,8.14,0,0,1-.12-1.67q-.08-3.84-.11-11.57T217.38,64a248.13,248.13,0,0,0-1.53-25.18q-.1-.9-.12-1.17c0-.75.39-1.13,1.21-1.15a35.37,35.37,0,0,1,3.9.26,33.21,33.21,0,0,0,3.94.26c.88,0,2.2-.13,4-.34a37.86,37.86,0,0,1,3.95-.34,1,1,0,0,1,1.11,1.1c0,.15,0,.5-.08,1.06Q232.87,49.37,233.07,63.71Zm.62-41.46q.13,9.7-8.81,9.84a8.7,8.7,0,0,1-6.39-2.33,9.69,9.69,0,0,1-2.9-7.19,9.53,9.53,0,0,1,2.7-7.2,8.65,8.65,0,0,1,6.25-2.69,8.46,8.46,0,0,1,6.25,2.53A9.58,9.58,0,0,1,233.69,22.25Z"/><path class="cls-1" d="M313,87.67c0,1.3-.5,2-1.39,2.14a56.71,56.71,0,0,1-6.57.08,41.3,41.3,0,0,1-6.74-.46Q297,89.07,297,86.67q0-2.57.27-7.67t.26-7.66q.17-9.77.05-13.89c-.11-4.42-1.77-6.67-5-6.72a6,6,0,0,0-4.26,2.15A7.85,7.85,0,0,0,286,57.73q-.21,2.33-.34,13.72,0,2.63.05,8t0,8c0,1.23-.45,1.84-1.31,1.83-5.38-.06-8.07-.08-13.45-.1-.83,0-1.24-.77-1.24-2.29,0-1.75.06-4.37.17-7.87s.15-6.13.16-7.92c0-1.37,0-3.46-.06-6.24s-.07-4.89-.07-6.31q0-8-4.9-8a7,7,0,0,0-4.3,1.9q-2.52,2.07-2.52,4.35,0,5.09.07,15.17t.08,15.12a3.35,3.35,0,0,1-.27,1.73,2.2,2.2,0,0,1-1.37.45c-1.33.14-3.44.23-6.31.25-1.86,0-4-.08-6.35-.29-.7-.07-1.13-.2-1.27-.38a4.06,4.06,0,0,1-.21-1.67q0-4.47-.08-13.36t-.08-13.36q-.09-9.15-1.28-20.57a9.49,9.49,0,0,1-.11-1,1.32,1.32,0,0,1,.63-1.29,12.51,12.51,0,0,1,3.77-.87c2.27-.29,3.64-.44,4-.53S251,35.69,253,35a12,12,0,0,1,3.6-.8c.57,0,.88,1.3.92,3.88s.16,3.88.37,3.87a4.29,4.29,0,0,0,1-.78,42.57,42.57,0,0,1,6.46-5.35,14.71,14.71,0,0,1,7.62-2,12.73,12.73,0,0,1,7.45,2.34,11.66,11.66,0,0,1,4.7,7.24,20.57,20.57,0,0,1,6.72-6.66,15.15,15.15,0,0,1,8.29-2.61,14.08,14.08,0,0,1,9.73,3.6q4.19,3.95,4,11.09-.06,3-.35,8.89c-.19,4-.3,6.92-.35,8.89-.06,2.34-.1,5.87-.13,10.57S313.05,85.33,313,87.67Z"/><path class="cls-1" d="M367.36,63.86q-.21,4.29-.23,12.78t-.24,12.72c-.08,1.48-.65,2.26-1.68,2.32-3.65.18-7.89.12-12.62-.09-.56,0-.89-1.11-1-3.25s-.29-3.25-.55-3.29a4.46,4.46,0,0,0-1,.9q-5.24,6.09-10.91,5.88c-5.76-.22-10.43-3.26-14.06-9.07a34,34,0,0,1-4.86-19.34c.24-8.58,2.31-15.46,6.25-20.57A18.78,18.78,0,0,1,343,35.26a12.87,12.87,0,0,1,11,6.59c.11.19.22.29.31.29.27,0,.62-.87,1-2.66s.89-2.67,1.38-2.65a32.86,32.86,0,0,1,6.36,1.47,51.34,51.34,0,0,1,6.36,2.21,1,1,0,0,1,.64.92c0,.15-.07.54-.19,1.17A148.23,148.23,0,0,0,367.36,63.86Zm-14.49-.34a12.3,12.3,0,0,0-2.07-7.93,7.95,7.95,0,0,0-12.57-.52,12.35,12.35,0,0,0-2.67,7.77,12.31,12.31,0,0,0,2.24,7.84,7.51,7.51,0,0,0,6,3.46,7.59,7.59,0,0,0,6.35-2.84A12.45,12.45,0,0,0,352.87,63.52Z"/><path class="cls-1" d="M393,59.6c-.64,10.13-1.06,17.94-1.36,23.33-.05.85-.11,2.33-.14,4.41,0,1.89-.08,3.37-.14,4.41a1.29,1.29,0,0,1-1.2,1.32,41,41,0,0,1-7.21,0,31.42,31.42,0,0,1-6.76-.83,1.56,1.56,0,0,1-1-1.56c0-.11,0-.91.13-2.4q.27-5,.89-14.83t.9-14.79q1.27-23.39,1.21-21.33a208.79,208.79,0,0,0,0-21.28,7,7,0,0,1,0-.95A1.08,1.08,0,0,1,379.56,14c6.57.36,9.85.55,16.42,1,.77.05,1.1.46,1,1.24-.05.4-.07.6-.11,1C395.34,31.28,393.91,45.42,393,59.6Z"/><path class="cls-1" d="M428.51,50.53a2.91,2.91,0,0,1-.8,1.45,8.58,8.58,0,0,0-2.5-.59,7,7,0,0,0-4.59,1.11,5.68,5.68,0,0,0-2.52,4.56Q418,59,420,62.18a52.89,52.89,0,0,1,3.81,6.39,18.78,18.78,0,0,1,1.58,9.24,22.22,22.22,0,0,1-1.36,5.94,12.39,12.39,0,0,1-3,4.92A30.77,30.77,0,0,1,413,94.1,18.63,18.63,0,0,1,404.05,96c-.59,0-1.77-2.14-3.56-6.31s-2.67-6.68-2.61-7.57a.56.56,0,0,1,.53-.58c2.11-.35,4.43-.57,6.39-1a5.27,5.27,0,0,0,4.28-4.85q.18-2.45-1.89-5.83-3.69-5.91-3.86-6.25A16.88,16.88,0,0,1,401.6,55a17.89,17.89,0,0,1,7.85-13.72,20.14,20.14,0,0,1,13.61-4.22c.49,0,1.54,2.12,3.14,6.26S428.56,49.86,428.51,50.53Z"/><path class="cls-1" d="M59.58,194.55a9.54,9.54,0,0,1-.09,3.72,169.71,169.71,0,0,1-10.1,28.56,7.19,7.19,0,0,0-.66,3.87q.42,2.55,1.51,7.62c.72,3.38,1.21,5.9,1.49,7.57.1.58.05,1-.14,1.12a9.93,9.93,0,0,1-1,.41,53.5,53.5,0,0,1-7,1.48,59.5,59.5,0,0,1-7.26,1,1.26,1.26,0,0,1-1.33-1.2c-.31-1.7-.65-4.31-1-7.83s-.73-6.14-1-7.87a7.09,7.09,0,0,0-1.54-3.15c-6.27-7.43-12.33-15-18.43-22.62a7.52,7.52,0,0,1-1.51-2.89c-.37-1.92-1-4.79-1.89-8.59s-1.52-6.67-1.89-8.59c-.2-1,0-1.63.52-1.74,1.66-.31,4.2-.71,7.61-1.17s6-.84,7.65-1.15c.63-.11,1,.08,1.07.56q.43,2.44,1.13,7.41t1.13,7.41c.17,1,1.79,3.18,4.83,6.59,2.39,2.68,4.35,4.74,5.83,6.17.83-1.73,1.89-4.3,3.2-7.68,1.65-4.23,2.44-6.76,2.31-7.56-.27-1.61-.77-4-1.52-7.25s-1.25-5.64-1.52-7.25c-.11-.67,0-1.08.18-1.21l1-.17c1.64-.27,4.09-.77,7.36-1.47s5.73-1.18,7.41-1.43c.54-.09.92.56,1.14,1.94q.39,2.56,1.26,7.69T59.58,194.55Z"/><path class="cls-1" d="M106.64,215.12c.88,7.37-.25,13.57-3.33,18.61a18.72,18.72,0,0,1-28.61,4c-4.37-4-7.12-9.47-8.2-16.55-1.12-7.47-.23-13.8,2.74-19s7.61-8.23,13.89-9.09A18.25,18.25,0,0,1,98.84,198C103.18,202.1,105.76,207.82,106.64,215.12Zm-13.08,1.64a11.88,11.88,0,0,0-2.84-6.5A5.93,5.93,0,0,0,85.24,208a6.16,6.16,0,0,0-4.8,3.71,11.7,11.7,0,0,0-1,6.94,12,12,0,0,0,2.85,6.46,6.14,6.14,0,0,0,5.56,2.29,6.06,6.06,0,0,0,4.71-3.69A12,12,0,0,0,93.56,216.76Z"/><path class="cls-1" d="M150.83,190.11q.31,3.6.64,10.83c.23,4.81.44,8.42.65,10.82s.57,5.83,1.1,10.49.89,8.14,1.09,10.45a1.53,1.53,0,0,1-.84,1.73,25.16,25.16,0,0,1-6.28,1,42,42,0,0,1-6,.27,1.26,1.26,0,0,1-1-1.08c-.21-.9-.34-1.93-.52-2.89-.27-1.48-.53-2.21-.77-2.18q.55-.06-3.65,3.69c-2.79,2.51-5.4,3.89-7.86,4.15Q117,238.55,113.7,227.22A105.82,105.82,0,0,1,111,211.7a80.68,80.68,0,0,1-.54-17.63c.14-1.36.62-2.09,1.43-2.18,1.25-.14,3.14-.34,5.69-.59s4.44-.43,5.69-.57a1.12,1.12,0,0,1,1.39,1.13c0,.23,0,.57,0,1a103.62,103.62,0,0,0,.56,13.49,100.84,100.84,0,0,0,1.66,11.52c.86,3.49,2.76,5.1,5.75,4.8a5.91,5.91,0,0,0,3.6-2.27,5.78,5.78,0,0,0,1.74-4.15q-.09-1.8-2.28-24.4a5.51,5.51,0,0,1,0-1.92c.15-.3.61-.55,1.42-.62q2-.19,6-.51t6-.49c.81-.07,1.3.14,1.48.61A5.65,5.65,0,0,1,150.83,190.11Z"/><path class="cls-1" d="M200.1,229.83c0,.87-.3,1.4-1,1.56a50.2,50.2,0,0,1-5.73.51,37.48,37.48,0,0,1-6.15.06c-.8-.15-1.23-.79-1.3-1.93q-.15-2.28-.31-6.92c-.11-3.1-.21-5.42-.31-7-.07-1.2-.21-3-.41-5.38s-.33-4.18-.4-5.38q-.42-6.68-5.21-6.38a6.22,6.22,0,0,0-3.56,1.9c-1.42,1.31-2.08,2.61-2,3.81.73,10.52,1.09,15.78,1.82,26.31.08,1.07-.29,1.71-1.09,1.88a50.83,50.83,0,0,1-5.61.6,38.45,38.45,0,0,1-6,.17,1.46,1.46,0,0,1-1.35-1.51q-.3-3.79-.87-11.44t-.88-11.49q-1-12.12-3.11-18.9a4.35,4.35,0,0,1-.14-.73,1.09,1.09,0,0,1,.53-1.12c1.68-.36,4-.84,6.74-1.6,4.15-1.17,6.64-2,7.18-2.05.3,0,.61,1.06.92,3.24s.62,3.27.92,3.24c-.3,0,1.07-1.21,4.14-3.68s5.81-3.77,8.23-3.92a12.8,12.8,0,0,1,8.8,2.44c2.7,2.07,4.14,5.16,4.34,9.16.32,6.23.47,9.34.79,15.56q.16,3.16.52,9.48T200.1,229.83Z"/><path class="cls-1" d="M245.75,217q.21,13.92-4.39,20.05c-3.14,4.2-8.46,6.38-15.93,6.61a44.07,44.07,0,0,1-9-1c-4.84-.93-7.32-2.11-7.38-3.61q0-.93,1.27-9.63c.15-.92.47-1.43.81-1.41a1.28,1.28,0,0,1,.44.18q6.22,3.47,11.36,3.29a10.69,10.69,0,0,0,5.58-1.93c2.2-1.47,3.3-3.25,3.24-5.37l-.08-3.27a13.15,13.15,0,0,1-10.23,5c-5,.17-9.09-1.87-12.48-6.11a25.93,25.93,0,0,1-5.38-15.4c-.29-6.21,1-11.45,3.83-15.67a14.7,14.7,0,0,1,12.2-6.88,10.39,10.39,0,0,1,9.58,5c.45.71.76,1.06.92,1s.35-.59.32-1.76c-.07-2.61.14-3.91.63-3.93s2.8.2,7.08.64,6.49.72,6.66.79a1.21,1.21,0,0,1,.71,1.25q0,3.38,0,10.06c-.05,4.47-.06,7.82,0,10.07q0,2,.13,6T245.75,217ZM231.64,203.8a9.9,9.9,0,0,0-2.12-6.12,5.87,5.87,0,0,0-9.8.35,10.26,10.26,0,0,0-1.73,6.29,9.93,9.93,0,0,0,2.2,6.08,5.91,5.91,0,0,0,4.9,2.43,5.84,5.84,0,0,0,4.77-2.78A10.18,10.18,0,0,0,231.64,203.8Z"/><path class="cls-1" d="M289.28,203.25c-.06,3.29-1,5.14-2.7,5.57-.29.06-3.09.35-8.29,1-3.13.37-7.84.86-14.07,1.46a6.79,6.79,0,0,0,3.39,4.83,10.13,10.13,0,0,0,5.25,1.38,13,13,0,0,0,7.14-2.29l3.05-2.31c.55.34,1.47,2,2.74,5s1.89,4.93,1.87,5.75a2.31,2.31,0,0,1-.61,1.11c-3.28,4.21-8.27,6.28-15,6.25a19.23,19.23,0,0,1-15.15-6.77c-4-4.56-6.06-10.67-6.15-18.35-.08-7.49,1.65-13.65,5.23-18.46a17.63,17.63,0,0,1,14.9-7.46c5.23,0,9.66,2.34,13.24,6.95A25.18,25.18,0,0,1,289.28,203.25Zm-14-3.15a8.45,8.45,0,0,0-1.75-5.33,5.24,5.24,0,0,0-4.24-2.31,4.89,4.89,0,0,0-4.21,2.59,10.18,10.18,0,0,0-1.52,5.61c0,.88.38,1.32,1.13,1.32a61.66,61.66,0,0,0,9.25-1.1C274.79,200.72,275.23,200.46,275.24,200.1Z"/><path class="cls-1" d="M320.48,200.23c-.05,1.27-.66,1.88-1.81,1.84-.51,0-1.25-.09-2.23-.21s-1.7-.18-2.18-.2q-3.35-.12-4.59,1.11t-1.36,5.09q-.07,2.1-.15,6.37c-.05,2.85-.09,5-.14,6.37q0,1.43,0,4.23c.05,1.87.05,3.27,0,4.18a1.24,1.24,0,0,1-1.34,1.27c-1.26.1-3.2.1-5.8,0a46.54,46.54,0,0,1-6-.43,1.43,1.43,0,0,1-1.27-1.64q.09-3.9.28-11.69c.14-5.19.23-9.09.29-11.69a84,84,0,0,0-1.36-18.93,4.52,4.52,0,0,1-.07-.74,1,1,0,0,1,.63-1c1.5-.17,3.78-.42,6.59-.93,4.23-.77,6.55-1.33,6.69-1.33.49,0,.77,1.05.84,3.1s.29,3.09.64,3.1q-.57,0,3.42-2.46a13.72,13.72,0,0,1,7.63-2.29c1.52.06,2.26.49,2.23,1.27,0,.94-.18,2.28-.41,4s-.4,3.19-.44,4-.08,2.2-.11,3.76C320.52,198.34,320.5,199.62,320.48,200.23Z"/><path class="cls-1" d="M402.28,202.25c-1,10.1-4.54,18.31-10.43,24.64s-13,9.28-21.15,8.63-14.52-4.62-19.46-12c-4.82-7.19-7-15.81-6.43-25.88s3.79-18.46,9.7-25c6.05-6.68,13.4-9.73,21.92-9.05s15.26,4.84,20.18,12.4S403.29,192.24,402.28,202.25ZM387,200.69A20.62,20.62,0,0,0,384.44,188a11.7,11.7,0,0,0-9.45-6.17c-3.84-.31-7.24,1.3-10.17,4.81a20.45,20.45,0,0,0-4.72,12,20.86,20.86,0,0,0,2.69,12.68,11.62,11.62,0,0,0,9.37,6q5.61.45,10-4.7A20.63,20.63,0,0,0,387,200.69Z"/><path class="cls-1" d="M443.52,240.13c-.11.87-.55,1.32-1.29,1.35a48.43,48.43,0,0,1-5.74-.57,37,37,0,0,1-6.07-1.07q-1.14-.43-.93-2.13.28-2.28,1-6.87c.47-3.06.79-5.36,1-6.91.15-1.2.34-3,.59-5.37s.44-4.16.59-5.36q.83-6.64-3.95-7.23a6.25,6.25,0,0,0-3.85,1.21c-1.64,1-2.53,2.18-2.67,3.38-1.23,10.47-1.84,15.71-3.06,26.19-.13,1.06-.61,1.62-1.43,1.65a52,52,0,0,1-5.62-.44,39.8,39.8,0,0,1-5.93-.94,1.45,1.45,0,0,1-1-1.74q.39-3.78,1.24-11.4t1.26-11.46q1.28-12.09.43-19.15a4.52,4.52,0,0,1,0-.74,1.06,1.06,0,0,1,.72-1c1.73-.05,4.13-.09,6.93-.34,4.3-.38,6.9-.74,7.44-.68.3,0,.4,1.15.31,3.36s0,3.32.3,3.35c-.29,0,1.28-1,4.75-2.86s6.42-2.63,8.83-2.33a12.83,12.83,0,0,1,8.22,4c2.26,2.54,3.12,5.84,2.58,9.81L446,221.29c-.28,2.1-.7,5.24-1.24,9.42S443.81,238,443.52,240.13Z"/><path class="cls-1" d="M490,221.83q-.82,4.88-3.51,5.11c-.3,0-3.11-.12-8.37-.29-3.16-.09-7.9-.32-14.16-.67a6.76,6.76,0,0,0,2.63,5.29,10.33,10.33,0,0,0,5,2.16,13.2,13.2,0,0,0,7.43-1.19l3.37-1.83q.75.63,2,5.38t1,6a2.48,2.48,0,0,1-.78,1c-3.88,3.67-9.14,5-15.82,3.92a19.34,19.34,0,0,1-14-9c-3.24-5.1-4.4-11.46-3.34-19.07,1-7.41,3.68-13.25,7.95-17.47A17.71,17.71,0,0,1,475.27,196c5.18.81,9.23,3.77,12.08,8.86A25,25,0,0,1,490,221.83Zm-13.45-5.22a8.41,8.41,0,0,0-.93-5.53,5.25,5.25,0,0,0-3.86-2.92,4.89,4.89,0,0,0-4.56,1.92,10.15,10.15,0,0,0-2.35,5.32c-.13.87.18,1.36.92,1.48a63.56,63.56,0,0,0,9.34.3C476,217.15,476.52,217,476.58,216.61Z"/><path class="cls-1" d="M520.05,214a2.53,2.53,0,0,1-.84,1.18,7.75,7.75,0,0,0-2.18-.76,6.38,6.38,0,0,0-4.19.51,4.91,4.91,0,0,0-2.67,3.72c-.21,1.13.21,2.67,1.24,4.65a46.79,46.79,0,0,1,2.79,5.94,16.19,16.19,0,0,1,.53,8.2,19,19,0,0,1-1.77,5,10.81,10.81,0,0,1-3.1,4,27.48,27.48,0,0,1-7.7,3.94,16.85,16.85,0,0,1-8.06.84c-.52-.1-1.37-2-2.58-5.83s-1.75-6.08-1.62-6.85a.5.5,0,0,1,.53-.45c1.9-.1,4-.07,5.75-.29a4.65,4.65,0,0,0,4.25-3.81,8.88,8.88,0,0,0-1.15-5.26c-1.82-3.66-2.79-5.6-2.86-5.81a14.54,14.54,0,0,1-.76-7.67,15.47,15.47,0,0,1,8.24-11.19,18.27,18.27,0,0,1,12.55-2.34q.66.12,2.22,5.76C519.71,211.3,520.16,213.46,520.05,214Z"/><path d="M196.55,149.65c0,.29-.2.49-.61.6a28.34,28.34,0,0,1-4.58.2,31.17,31.17,0,0,1-4.53-.2,1.3,1.3,0,0,1-1.05-1.09c-.56-2.32-1-3.57-1.31-3.73a55.76,55.76,0,0,0-6.59-.17,19.27,19.27,0,0,0-4.45.22,6.64,6.64,0,0,0-.94,2.59c-.31,1.34-.69,2.07-1.13,2.18a41.36,41.36,0,0,1-5.61.2c-2.51,0-3.76-.24-3.76-.7s1.85-5.59,5.56-15.5q6-16.08,6.54-17.68c.2-.61.43-.92.69-.92.44,0,1.13,0,2.05.12s1.62.12,2.08.12,1.1,0,2-.08,1.5-.09,1.93-.09.6.27.86.8q1.2,2.55,7,17.46T196.55,149.65Zm-17.44-22.09q-.53,1.06-1.75,4.63a25.31,25.31,0,0,0-1.33,4.44c0,.29.5.45,1.48.48.51,0,1.34,0,2.51,0s1.68-.13,1.79-.39a.79.79,0,0,0,.05-.34,22.88,22.88,0,0,0-1.13-4.41A34.61,34.61,0,0,0,179.11,127.56Z"/><path d="M223.34,149.55a.69.69,0,0,1-.69.75,35,35,0,0,1-3.59.1,27.62,27.62,0,0,1-3.84-.15.87.87,0,0,1-.74-1c0-.76,0-1.91.08-3.44s.07-2.69.07-3.47c0-.6,0-1.49,0-2.68s-.05-2.08-.05-2.68q0-3.31-2.92-3.32a4.29,4.29,0,0,0-2.24.82c-.92.62-1.38,1.22-1.38,1.82v13.1a.79.79,0,0,1-.76.89c-.58.07-1.75.1-3.52.1a28.15,28.15,0,0,1-3.74-.15c-.51-.08-.76-.34-.76-.79,0-1.27,0-3.17,0-5.7s0-4.45,0-5.73a36.89,36.89,0,0,0-1-9.48,1.29,1.29,0,0,1-.05-.36.52.52,0,0,1,.37-.53c1-.12,2.41-.3,4.13-.54,2.61-.5,4.08-.75,4.4-.75s.32.55.42,1.64.24,1.63.42,1.63q-.27,0,2.64-1.68a10.65,10.65,0,0,1,5.11-1.69,8.9,8.9,0,0,1,5.21,1.46,5.38,5.38,0,0,1,2.34,4.65v7.74c0,1,0,2.62,0,4.72S223.34,148.5,223.34,149.55Z"/><path d="M253.53,115.85c0-.36-.07.17-.2,1.6-.18,1.79-.32,4.09-.42,6.88q-.19,4.76-.2,10.82a122.33,122.33,0,0,0,.57,14.26c0,.3.05.5.05.58s-.12.28-.37.31q-.89.12-6.52.12c-.89,0-1.39-.17-1.52-.5,0-.62-.07-1.23-.1-1.85a.81.81,0,0,0-.2-.39,1.6,1.6,0,0,0-.37.3,9.17,9.17,0,0,1-6.64,2.57,10.51,10.51,0,0,1-8.32-3.59,12.7,12.7,0,0,1-3-8.64,12.91,12.91,0,0,1,2.92-8.7,10.43,10.43,0,0,1,8.37-3.64,7.35,7.35,0,0,1,5.78,2.33c.23.26.39.39.49.39s.22-.21.22-.63q0-1.87-.09-5.58c-.07-2.47-.1-4.32-.1-5.55,0-.47.13-.74.39-.8,1,0,2.49-.15,4.33-.29a38.09,38.09,0,0,0,4.35-.61C253.34,115.24,253.53,115.44,253.53,115.85Zm-9.28,22.28a4.76,4.76,0,0,0-1.35-3.36,4.32,4.32,0,0,0-3.27-1.44,3.94,3.94,0,0,0-3.21,1.44,5.24,5.24,0,0,0-1.2,3.46,4.8,4.8,0,0,0,1.21,3.32,4,4,0,0,0,3.2,1.45,4.26,4.26,0,0,0,3.29-1.45A4.89,4.89,0,0,0,244.25,138.13Z"/><path d="M293.89,123.65c0,.33-.18.49-.54.49q-.93,0-7.4-.36-.15,6.14-.15,8.56,0,2.85.23,8.6t.24,8.61c0,.31-.07.5-.22.58a2.28,2.28,0,0,1-.69.12,35.59,35.59,0,0,1-4.33.2,33.83,33.83,0,0,1-4.45-.2.71.71,0,0,1-.69-.75c0-1.9.08-4.77.24-8.58s.25-6.68.25-8.58q0-1.91-.2-8.44c-3.28.32-5.89.48-7.85.48q-.39,0-.39-.24a14.58,14.58,0,0,1,.35-1.87c.26-1.13.41-1.82.44-2.06,0-.76.1-1.52.17-2.28.12-1.21.31-1.82.59-1.82l.35,0a100.4,100.4,0,0,0,11.78.51c1.47,0,4.2-.16,8.17-.47l3.22-.24a1.3,1.3,0,0,1,.56.06c.05,0,.09.2.1.48s0,1-.05,1.82-.05,1.46-.05,1.81a14.28,14.28,0,0,0,.17,1.79A15.24,15.24,0,0,1,293.89,123.65Z"/><path d="M320.91,132.67l-.05,16.74c0,.56-.23.88-.69.94s-1.72.1-3.59.1a24.11,24.11,0,0,1-3.77-.2.92.92,0,0,1-.81-1c0-1.39,0-3.48.07-6.28s.08-4.89.08-6.28c0-1.89-1-2.84-2.93-2.84a4.71,4.71,0,0,0-2.31.78c-1,.57-1.45,1.16-1.45,1.77v6c0,.78,0,1.94.05,3.5s.05,2.73.05,3.51c0,.6-.26.93-.77,1s-1.93.1-4.28.1a15,15,0,0,1-2.9-.2c-.59-.12-.89-.41-.89-.84q0-1.92,0-5.76c0-2.56,0-4.48,0-5.76q0-7.94-.17-13.12c-.05-1.21-.09-2.43-.12-3.64a24.73,24.73,0,0,0-.44-3.61,2.31,2.31,0,0,1-.08-.46.48.48,0,0,1,.37-.49,10.17,10.17,0,0,1,2.24-.26c1.31,0,2.07-.09,2.29-.13l4.45-.5c.26,0,.39.17.39.5,0,.52,0,1.23-.1,2.12s-.09,1.73-.09,2.1c-.1,3.66-.15,6.54-.15,8.66,0,.32.08.49.24.49s.46-.29,1.26-.85a17.13,17.13,0,0,1,2.73-1.58,9.49,9.49,0,0,1,3.76-.85,8.36,8.36,0,0,1,5.27,1.63A5.68,5.68,0,0,1,320.91,132.67Z"/><path d="M347.45,137.09c0,1.63-.53,2.56-1.6,2.79-.18,0-1.88.21-5.09.53-1.94.21-4.82.46-8.66.75a3.46,3.46,0,0,0,2.09,2.4,7.49,7.49,0,0,0,3.25.68,9.43,9.43,0,0,0,4.4-1.16l1.87-1.17a7.36,7.36,0,0,1,1.74,2.48,8.93,8.93,0,0,1,1.21,2.83c0,.12-.12.3-.37.56q-3,3.18-9.32,3.18a13.25,13.25,0,0,1-9.45-3.37,11.87,11.87,0,0,1-3.69-9.14,13,13,0,0,1,3.3-9.15,11.66,11.66,0,0,1,9-3.68,10.75,10.75,0,0,1,8,3.39A11.21,11.21,0,0,1,347.45,137.09Zm-8.61-1.48a3.76,3.76,0,0,0-1.08-2.65,3.48,3.48,0,0,0-2.59-1.13,3.09,3.09,0,0,0-2.55,1.28,4.34,4.34,0,0,0-.94,2.79c0,.44.23.65.69.65A43.9,43.9,0,0,0,338,136Q338.84,135.88,338.84,135.61Z"/><path d="M359.26,139.13c0,1.17,0,2.93.07,5.27s.08,4.08.08,5.25c0,.34-.21.54-.62.6a28.11,28.11,0,0,1-3.76.15,28.46,28.46,0,0,1-3.79-.15c-.36-.06-.58-.16-.67-.31a3.12,3.12,0,0,1,0-.73c0-1.11,0-2.79.07-5s.07-3.92.07-5.05a87.62,87.62,0,0,0-.54-11c0-.25-.05-.42-.05-.5,0-.33.22-.49.67-.49s1.16,0,2.1.15,1.65.14,2.13.14,1.19,0,2.14-.12,1.66-.12,2.14-.12.59.16.59.48c0,.07,0,.22-.05.46A98,98,0,0,0,359.26,139.13Zm.64-18q0,4.22-4.82,4.22a5.35,5.35,0,0,1-3.42-1.07,4,4,0,0,1,0-6.26,5.24,5.24,0,0,1,3.37-1.11A5.11,5.11,0,0,1,358.4,118,3.79,3.79,0,0,1,359.9,121.11Z"/><path d="M380.32,135.15c0,.63-.36.94-1.06.94-.31,0-.77,0-1.37-.06s-1-.06-1.34-.06a4.44,4.44,0,0,0-2.78.63,3.33,3.33,0,0,0-.74,2.55c0,.69,0,1.75,0,3.16s0,2.47,0,3.17c0,.47,0,1.17.1,2.1s.1,1.62.1,2.07-.28.6-.82.65c-.78.07-2,.1-3.61.1a36.75,36.75,0,0,1-3.74-.15c-.54-.06-.81-.33-.81-.79,0-1.3,0-3.23,0-5.81s0-4.52,0-5.81a34.87,34.87,0,0,0-1.06-9.38,1.4,1.4,0,0,1-.05-.37.47.47,0,0,1,.37-.48q1.35-.15,4-.54c2.59-.5,3.93-.75,4-.75.29,0,.48.51.56,1.53s.23,1.53.45,1.53c-.23,0,.44-.43,2-1.28a9.58,9.58,0,0,1,4.55-1.27c.92,0,1.38.19,1.38.58a18.45,18.45,0,0,1-.15,2c-.09.92-.15,1.59-.17,2s0,1.09,0,1.87C380.3,134.21,380.32,134.84,380.32,135.15Z"/><path class="cls-2" d="M193.22,148.38c0,.29-.21.49-.62.6a28.17,28.17,0,0,1-4.57.2,31.07,31.07,0,0,1-4.53-.2,1.32,1.32,0,0,1-1.06-1.09c-.56-2.33-1-3.57-1.3-3.73a53.23,53.23,0,0,0-6.59-.17,20.55,20.55,0,0,0-4.46.21,6.6,6.6,0,0,0-.93,2.6c-.31,1.34-.69,2.07-1.13,2.18a41.36,41.36,0,0,1-5.61.2c-2.51,0-3.77-.24-3.77-.71s1.86-5.58,5.56-15.49q6-16.08,6.55-17.68c.19-.61.42-.92.69-.92.44,0,1.12,0,2.05.12s1.62.12,2.08.12,1.09,0,1.95-.08,1.51-.09,1.94-.09.59.27.86.8q1.2,2.55,7,17.46T193.22,148.38Zm-17.44-22.1c-.35.72-.93,2.26-1.75,4.64a24.62,24.62,0,0,0-1.33,4.43c0,.29.49.46,1.48.49.5,0,1.34,0,2.51,0s1.68-.13,1.79-.39a1,1,0,0,0,.05-.34,23.74,23.74,0,0,0-1.13-4.41A35.61,35.61,0,0,0,175.78,126.28Z"/><path class="cls-2" d="M220,148.28a.7.7,0,0,1-.69.75c-.46.06-1.66.1-3.59.1a27.62,27.62,0,0,1-3.84-.15.89.89,0,0,1-.74-1c0-.76,0-1.91.07-3.45s.08-2.69.08-3.46c0-.6,0-1.49-.05-2.68s-.05-2.08-.05-2.68c0-2.22-1-3.32-2.93-3.32a4.32,4.32,0,0,0-2.24.82c-.91.61-1.37,1.22-1.37,1.82v13.09a.8.8,0,0,1-.77.9c-.57.06-1.74.1-3.51.1a28.15,28.15,0,0,1-3.74-.15c-.51-.08-.77-.35-.77-.8q0-1.89,0-5.7c0-2.53,0-4.44,0-5.72a36.78,36.78,0,0,0-1-9.48,2,2,0,0,1-.05-.36.55.55,0,0,1,.37-.54c1-.11,2.41-.29,4.14-.53,2.6-.5,4.07-.75,4.4-.75s.32.54.42,1.63.24,1.64.42,1.64c-.18,0,.7-.56,2.64-1.69a10.59,10.59,0,0,1,5.11-1.68,8.89,8.89,0,0,1,5.21,1.45,5.41,5.41,0,0,1,2.34,4.66v7.74c0,1.05,0,2.62,0,4.71S220,147.23,220,148.28Z"/><path class="cls-2" d="M250.19,114.57c0-.35-.06.18-.2,1.6-.18,1.8-.31,4.09-.41,6.89q-.2,4.75-.2,10.81a122.21,122.21,0,0,0,.57,14.26c0,.31,0,.5,0,.58s-.12.29-.36.32c-.59.08-2.77.12-6.52.12q-1.34,0-1.53-.51c0-.61-.06-1.23-.1-1.84a.71.71,0,0,0-.19-.39,1.81,1.81,0,0,0-.37.29,9.15,9.15,0,0,1-6.64,2.57,10.45,10.45,0,0,1-8.32-3.59,12.68,12.68,0,0,1-3-8.63,12.92,12.92,0,0,1,2.93-8.7,10.43,10.43,0,0,1,8.37-3.64,7.31,7.31,0,0,1,5.78,2.33c.23.26.39.38.49.38s.22-.21.22-.63c0-1.24,0-3.1-.1-5.57s-.1-4.33-.1-5.56c0-.47.13-.73.4-.8,1.05,0,2.49-.14,4.33-.29a37.48,37.48,0,0,0,4.35-.6Q250.19,114,250.19,114.57Zm-9.27,22.29a4.73,4.73,0,0,0-1.36-3.36,4.32,4.32,0,0,0-3.27-1.44,4,4,0,0,0-3.21,1.44,5.26,5.26,0,0,0-1.19,3.45,4.87,4.87,0,0,0,1.2,3.33,4,4,0,0,0,3.2,1.45,4.3,4.3,0,0,0,3.3-1.45A4.93,4.93,0,0,0,240.92,136.86Z"/><path class="cls-2" d="M290.56,122.38c0,.32-.18.49-.54.49-.62,0-3.09-.13-7.4-.37-.1,4.09-.15,6.95-.15,8.56q0,2.87.23,8.61t.24,8.61c0,.31-.08.5-.23.58a3.32,3.32,0,0,1-.68.12,35.59,35.59,0,0,1-4.33.2,34,34,0,0,1-4.46-.2.71.71,0,0,1-.69-.75c0-1.91.09-4.77.25-8.58s.25-6.68.25-8.59q0-1.89-.2-8.44-4.92.5-7.85.49-.39,0-.39-.24A13.45,13.45,0,0,1,265,121c.26-1.13.41-1.82.44-2.06q.08-1.14.18-2.28c.11-1.21.31-1.82.59-1.82l.34,0a100.72,100.72,0,0,0,11.79.51q2.2,0,8.16-.46l3.23-.24a1.37,1.37,0,0,1,.56.06c.05,0,.08.2.1.47,0,.44,0,1,0,1.82s-.05,1.46-.05,1.82a13.74,13.74,0,0,0,.16,1.78A13.78,13.78,0,0,1,290.56,122.38Z"/><path class="cls-2" d="M317.57,131.4l-.05,16.73c0,.57-.23.88-.69,1s-1.72.1-3.59.1a24,24,0,0,1-3.76-.2.93.93,0,0,1-.81-1q0-2.08.07-6.28t.08-6.28c0-1.89-1-2.84-2.93-2.84a4.77,4.77,0,0,0-2.32.78c-1,.56-1.45,1.15-1.45,1.77v6c0,.77,0,1.94.05,3.5s.05,2.73.05,3.5c0,.6-.25.93-.76,1s-1.94.1-4.28.1a14.94,14.94,0,0,1-2.9-.2c-.59-.13-.89-.41-.89-.85q0-1.9,0-5.76c0-2.56,0-4.48,0-5.76q0-7.92-.17-13.11c0-1.22-.09-2.43-.13-3.64a24.55,24.55,0,0,0-.44-3.61,2.19,2.19,0,0,1-.07-.47.47.47,0,0,1,.37-.48,10,10,0,0,1,2.24-.27q2-.07,2.28-.12l4.46-.51q.39,0,.39.51c0,.52,0,1.22-.1,2.11-.06,1-.1,1.74-.1,2.11-.1,3.65-.14,6.54-.14,8.66q0,.48.24.48s.45-.28,1.26-.85a17,17,0,0,1,2.73-1.57A9.29,9.29,0,0,1,310,125a8.39,8.39,0,0,1,5.26,1.62A5.69,5.69,0,0,1,317.57,131.4Z"/><path class="cls-2" d="M344.12,135.81c0,1.64-.54,2.57-1.6,2.79-.18,0-1.88.21-5.09.54q-2.91.31-8.66.75a3.44,3.44,0,0,0,2.09,2.4,7.48,7.48,0,0,0,3.24.68,9.4,9.4,0,0,0,4.41-1.17l1.87-1.16a7.31,7.31,0,0,1,1.73,2.47,9.17,9.17,0,0,1,1.22,2.84c0,.11-.12.3-.37.56q-3,3.18-9.32,3.17a13.22,13.22,0,0,1-9.45-3.37,11.85,11.85,0,0,1-3.69-9.14,12.92,12.92,0,0,1,3.3-9.14,11.64,11.64,0,0,1,9-3.69,10.78,10.78,0,0,1,8,3.4A11.17,11.17,0,0,1,344.12,135.81Zm-8.61-1.47a3.7,3.7,0,0,0-1.09-2.65,3.43,3.43,0,0,0-2.58-1.14,3.12,3.12,0,0,0-2.56,1.29,4.39,4.39,0,0,0-.93,2.79c0,.43.23.65.69.65a44.08,44.08,0,0,0,5.65-.56C335.24,134.64,335.51,134.51,335.51,134.34Z"/><path class="cls-2" d="M355.93,137.85c0,1.18,0,2.94.07,5.28s.07,4.08.07,5.25c0,.33-.2.54-.61.6a47.58,47.58,0,0,1-7.55,0c-.37-.06-.59-.17-.67-.31a2.91,2.91,0,0,1-.05-.73c0-1.12,0-2.79.08-5s.07-3.93.07-5.06a87.55,87.55,0,0,0-.54-11,3.66,3.66,0,0,1-.05-.51q0-.48.66-.48c.46,0,1.16,0,2.11.14s1.65.15,2.12.15,1.19,0,2.14-.12,1.67-.12,2.15-.12.59.16.59.48c0,.07,0,.22,0,.46A97.83,97.83,0,0,0,355.93,137.85Zm.63-18c0,2.82-1.6,4.22-4.82,4.22a5.39,5.39,0,0,1-3.42-1.06,4,4,0,0,1,.05-6.26,5.28,5.28,0,0,1,3.37-1.11,5.14,5.14,0,0,1,3.32,1.13A3.8,3.8,0,0,1,356.56,119.83Z"/><path class="cls-2" d="M377,133.87c0,.63-.35.95-1.05.95-.32,0-.77,0-1.37-.06s-1.05-.06-1.34-.06a4.44,4.44,0,0,0-2.78.63,3.33,3.33,0,0,0-.74,2.55c0,.69,0,1.75,0,3.16s0,2.47,0,3.16q0,.7.09,2.1c.07.93.1,1.62.1,2.08s-.27.6-.81.65c-.79.06-2,.1-3.62.1a37,37,0,0,1-3.74-.15c-.54-.06-.81-.33-.81-.8,0-1.29,0-3.23,0-5.81s0-4.51,0-5.8a34.6,34.6,0,0,0-1.06-9.39,1.81,1.81,0,0,1-.05-.36.49.49,0,0,1,.37-.49c.91-.09,2.23-.27,4-.53,2.6-.5,3.93-.75,4-.75q.45,0,.57,1.53c.08,1,.23,1.52.44,1.52-.23,0,.45-.42,2-1.27a9.55,9.55,0,0,1,4.55-1.27c.92,0,1.38.19,1.38.58a18.45,18.45,0,0,1-.15,2c-.1.92-.15,1.58-.17,2s0,1.09,0,1.86C377,132.94,377,133.57,377,133.87Z"/></svg>