<svg xmlns="http://www.w3.org/2000/svg" xmlns:xlink="http://www.w3.org/1999/xlink" viewBox="0 0 1600 900"><defs><style>.cls-1{fill:none;}.cls-2{clip-path:url(#clip-path);}.cls-3{fill:#77b44d;}.cls-3,.cls-6{opacity:0.36;}.cls-4{clip-path:url(#clip-path-2);}.cls-5{fill:#6cae42;}.cls-6{fill:#77b54e;}.cls-7{fill:#83c658;}</style><clipPath id="clip-path"><rect class="cls-1" x="-1782.6" width="1600" height="900"/></clipPath><clipPath id="clip-path-2"><rect class="cls-1" width="1600" height="900"/></clipPath></defs><g id="BG_01"><g id="BG"><g class="cls-2"><g id="BG-2" data-name="BG"><path class="cls-3" d="M-1785.3,282.8c-544.9,29.6,80-163.5,215.1-142.9,143.8,0,227.8-78.6,441.2-69.6s224.4,9.3,377-.7c199.9-42.8,691.7-12.2,790.1,103C47,204.2,279.2,590.8-158.4,461.8S-1785.3,282.8-1785.3,282.8Z"/></g></g></g></g><g id="BG_03"><g class="cls-4"><rect class="cls-5" x="-58.3" y="-48.6" width="1705.7" height="1017.27"/><path class="cls-6" d="M13.9,293.8s-293.4,18-167.1-44.1,232.3-86.5,363.8-86.5S418.9,91.3,614,99.5s205.3,8.5,344.8-.6,133.5-23.9,321-17.4,393.3,82.6,401.5,111.6,220.4,382.4-179.7,264.4S13.9,293.8,13.9,293.8Z"/><path class="cls-7" d="M148,251.6S334.4,264,456,207.3s190-61.7,298.8-51.9,138.9,31.4,342.1,5.3,357.8,103.8,387.2,123.6,231.2,360.1,48.9,369.2-147.9,146-400.6,148.2c-121.4,1-203-19.9-269.2,0-153.1,46-190.7,14.5-446.5,44.9C114.8,882.5-220.2,735.7,190.6,584.2c95.3-35.1,60.4-66.6-36-87.6S-206.3,316.1,148,251.6Z"/></g></g></svg>