<svg xmlns="http://www.w3.org/2000/svg" xmlns:xlink="http://www.w3.org/1999/xlink" viewBox="0 0 1600 900"><defs><style>.cls-1{fill:none;}.cls-2{clip-path:url(#clip-path);}.cls-3{fill:#6bad44;}.cls-4{fill:#77b44d;}.cls-4,.cls-7{opacity:0.36;}.cls-5{fill:#82c458;}.cls-6{clip-path:url(#clip-path-2);}.cls-7{fill:#77b54e;}</style><clipPath id="clip-path"><rect class="cls-1" width="1600" height="900"/></clipPath><clipPath id="clip-path-2"><rect class="cls-1" x="1782.6" width="1600" height="900"/></clipPath></defs><g id="BG_01"><g id="BG"><g class="cls-2"><g id="BG-2" data-name="BG"><rect class="cls-3" x="-184.9" y="-113.6" width="1865.3" height="1049.22"/><path class="cls-4" d="M-2.7,282.8c-544.9,29.6,80-163.5,215.1-142.9,143.8,0,227.8-78.6,441.2-69.6s224.4,9.3,377-.7c199.9-42.8,691.7-12.2,790.1,103,8.9,31.6,241.1,418.2-196.5,289.2S-2.7,282.8-2.7,282.8Z"/><path class="cls-5" d="M73.6,241.2c265,34.2,417.1-140.7,663.5-105.3C856,146.7,890.3,186,1112.5,157.4s390,97.8,422.2,119.4,252.8,393.9,53.5,403.8-163.5,128.6-439.9,131c-132.7,1.2-142.2-.2-217.7-3.8C766,800,695.8,733.9,417,774c-182.4,26.2-656.3,14.3-207.1-151.4C314.2,584.2,433,479,131,475.1,23.1,473.7-313.8,311.6,73.6,241.2Z"/></g></g></g></g><g id="BG_03"><g class="cls-6"><path class="cls-7" d="M1796.5,293.8s-293.4,18-167.1-44.1,232.3-86.5,363.8-86.5,208.3-71.9,403.4-63.7,205.3,8.5,344.7-.6S2874.9,75,3062.4,81.5s393.3,82.6,401.5,111.6,220.4,382.4-179.7,264.4S1796.5,293.8,1796.5,293.8Z"/></g></g></svg>