<svg xmlns="http://www.w3.org/2000/svg" xmlns:xlink="http://www.w3.org/1999/xlink" viewBox="0 0 1600 900"><defs><style>.cls-1{fill:none;}.cls-2{clip-path:url(#clip-path);}.cls-3{fill:#6cae42;}.cls-4{fill:#77b54e;opacity:0.36;}.cls-5{fill:#83c558;}.cls-6{clip-path:url(#clip-path-2);}</style><clipPath id="clip-path"><rect class="cls-1" width="1600" height="900"/></clipPath><clipPath id="clip-path-2"><rect class="cls-1" x="1782.6" y="-965.6" width="1600" height="900"/></clipPath></defs><g id="BG_02"><g class="cls-2"><rect class="cls-3" x="-73.1" y="-45.7" width="1735.6" height="1023.11"/><path class="cls-4" d="M584.1,110.3s-1161.7,53.6-711.5,150,561.4,53.3,1028.8,32c1864.8-85.1,488.3-173.6,148.5-198.8S584.1,110.3,584.1,110.3Z"/><path class="cls-5" d="M432.5,245.6S6.1,262.8,72.3,310.4s282.1,38.3,250.5,60.2S390.3,382.2,653,380c300.7-2.6,200.5,361.4,866.4,93.7S1170.2,163.4,903.9,157,443.9,154.8,432.5,245.6Z"/><path class="cls-5" d="M687.6,234.2S447.7,322.7,429.4,375.6,257.9,494.2,244.7,530.5s30.7,50.3-29.7,70.9c-46.7,15.9-105.2,5.8-129.2,29.2S43,723.9,232.6,794.1,345,781.3,514.3,848.3s245.3,68.1,236.3,48.8-70.4-40.6-7.9-55.5S909,786.7,954.6,806.5s121.1-.3,208.1-24.4,96.7-41.4,105.6-66.6c11-31,24.4-48.2,62.1-51.7s125.3,7.4,161.4,12.5c41,5.8,130.4-45.7,67.6-96.5-124.6-100.9-21.1-99.2-32.1-111.2-56.1-61-245.8-119.5-245.8-119.5s41.4-13.5,30.5-30.9c-15.9-25.3-98.5-65.6-164.2-96-58.6-27-91.2-42.6-145.1-26.7S715.6,214.2,687.6,234.2Z"/></g></g></svg>