<svg xmlns="http://www.w3.org/2000/svg" xmlns:xlink="http://www.w3.org/1999/xlink" viewBox="0 0 1600 900"><defs><style>.cls-1{fill:none;}.cls-2{clip-path:url(#clip-path);}.cls-3{fill:#77b54e;opacity:0.36;}.cls-4{clip-path:url(#clip-path-2);}.cls-5{fill:#6cae42;}.cls-6{clip-path:url(#clip-path-3);}.cls-7{fill:#83c658;}</style><clipPath id="clip-path"><rect class="cls-1" x="-1782.6" width="1600" height="900"/></clipPath><clipPath id="clip-path-2"><rect class="cls-1" y="-965.6" width="1600" height="900"/></clipPath><clipPath id="clip-path-3"><rect class="cls-1" width="1600" height="900"/></clipPath></defs><g id="BG_02"><g class="cls-2"><path class="cls-3" d="M-1198.5,110.3s-1161.7,53.6-711.5,150,561.4,53.3,1028.8,32C983.6,207.2-392.9,118.7-732.6,93.5S-1198.5,110.3-1198.5,110.3Z"/></g></g><g id="BG_03"><g class="cls-4"><rect class="cls-5" x="-58.3" y="-1014.3" width="1705.7" height="1017.27"/></g></g><g id="BG_04"><g class="cls-6"><rect class="cls-5" x="-67.6" y="-55.9" width="1681.2" height="1003.86"/><path class="cls-3" d="M17.9,322.6s-289.2,17.7-164.7-43.5,229-85.3,358.6-85.3S417.1,123,609.4,131.1s202.3,8.3,339.8-.7,131.6-23.5,316.4-17.1,387.7,81.4,395.7,110,217.3,376.9-177,260.6S17.9,322.6,17.9,322.6Z"/><path class="cls-7" d="M-2.2,296.2s183.1-57.4,260-56.5,106.3,21,202.2,23.8,79.9-63.6,244.5-70.1,317.2,4.5,389.1,19.4,83.8,33.7,131.4,40.4,97.4-6.2,151.9,38.9,116.8,88.7,134,89.4,139.5,71.9,171.7,128.6S1649,751.2,1336.4,771.7s-243,74.1-533.2,61.2-645.9,28-650.8-77-43-92.8-81.6-118.4S-313.4,369.1-2.2,296.2Z"/></g></g></svg>