<svg xmlns="http://www.w3.org/2000/svg" xmlns:xlink="http://www.w3.org/1999/xlink" viewBox="0 0 1600 900"><defs><style>.cls-1{fill:none;}.cls-2{fill:url(#linear-gradient);}.cls-3{fill:url(#linear-gradient-2);}.cls-4{fill:url(#linear-gradient-3);}.cls-5{fill:url(#linear-gradient-4);}.cls-6{fill:url(#linear-gradient-5);}.cls-7{fill:url(#linear-gradient-6);}.cls-8{clip-path:url(#clip-path);}.cls-10,.cls-11,.cls-9{fill:#faffff;}.cls-9{opacity:0.18;}.cls-10{opacity:0.56;}.cls-12{fill:#81aecf;}.cls-13{fill:url(#linear-gradient-7);}.cls-14{fill:url(#linear-gradient-8);}.cls-15{clip-path:url(#clip-path-2);}.cls-16{fill:url(#linear-gradient-10);}.cls-17{fill:#153f17;}.cls-18{clip-path:url(#clip-path-3);}.cls-19{fill:url(#linear-gradient-11);}.cls-20{fill:#31a89c;}.cls-20,.cls-24{opacity:0.47;}.cls-21{fill:#1d968a;}.cls-22{fill:#25827b;}.cls-23,.cls-24{fill:#125452;}.cls-23,.cls-26{opacity:0.99;}.cls-25{fill:url(#linear-gradient-12);}.cls-26{fill:#1d706c;}.cls-27{fill:url(#linear-gradient-13);}.cls-28{fill:#ffffb1;}.cls-29{fill:#ffff38;}.cls-30{fill:url(#linear-gradient-14);}.cls-31{fill:#ffffb5;}.cls-32{fill:#845145;}.cls-33{fill:#416b15;opacity:0.53;}.cls-34{clip-path:url(#clip-path-4);}.cls-35{fill:url(#linear-gradient-16);}.cls-36{clip-path:url(#clip-path-5);}.cls-37{fill:url(#linear-gradient-18);}.cls-38{clip-path:url(#clip-path-6);}.cls-39{fill:url(#linear-gradient-19);}.cls-40{clip-path:url(#clip-path-7);}.cls-41{fill:url(#linear-gradient-20);}.cls-42{clip-path:url(#clip-path-8);}.cls-43{fill:url(#linear-gradient-22);}.cls-44{clip-path:url(#clip-path-9);}.cls-45{fill:url(#linear-gradient-24);}.cls-46{opacity:0.15;fill:url(#linear-gradient-25);}.cls-47,.cls-49,.cls-50{opacity:0.43;}.cls-47{fill:url(#linear-gradient-26);}.cls-48{opacity:0.58;}.cls-49{fill:url(#linear-gradient-27);}.cls-50{fill:url(#linear-gradient-28);}.cls-51{fill:#72444d;}.cls-52{fill:#603741;}.cls-53{fill:#a87e88;opacity:0.24;}.cls-54{opacity:0.29;}.cls-55{clip-path:url(#clip-path-10);}.cls-56{fill:url(#linear-gradient-30);}.cls-57{fill:#7d9e52;}.cls-58{opacity:0.79;}.cls-59{fill:#704e43;}.cls-60{fill:#3a1f1a;}.cls-61{clip-path:url(#clip-path-11);}.cls-62{fill:#77b54e;opacity:0.36;}</style><linearGradient id="linear-gradient" x1="-1717.28" y1="873.15" x2="-99.27" y2="873.15" gradientTransform="matrix(0.44, -0.02, 0.03, 0.51, 157.25, 278.36)" gradientUnits="userSpaceOnUse"><stop offset="0" stop-color="#113145"/><stop offset="0.2" stop-color="#234939"/><stop offset="0.46" stop-color="#36622c"/><stop offset="0.7" stop-color="#417125"/><stop offset="0.89" stop-color="#457622"/></linearGradient><linearGradient id="linear-gradient-2" x1="359.74" y1="92.57" x2="432" y2="92.57" gradientUnits="userSpaceOnUse"><stop offset="0" stop-color="#adcff1"/><stop offset="0.4" stop-color="#adcff1"/><stop offset="0.52" stop-color="#b9daf5"/><stop offset="0.8" stop-color="#d2f0fc"/><stop offset="0.98" stop-color="#dbf8ff"/><stop offset="1" stop-color="#dbf8ff"/></linearGradient><linearGradient id="linear-gradient-3" x1="399.74" y1="106.07" x2="451" y2="106.07" xlink:href="#linear-gradient-2"/><linearGradient id="linear-gradient-4" x1="1285" y1="83.23" x2="1426.13" y2="83.23" xlink:href="#linear-gradient-2"/><linearGradient id="linear-gradient-5" x1="1260" y1="100.31" x2="1326" y2="100.31" xlink:href="#linear-gradient-2"/><linearGradient id="linear-gradient-6" x1="1528.51" y1="226.07" x2="1624" y2="226.07" xlink:href="#linear-gradient-2"/><clipPath id="clip-path"><rect class="cls-1" x="-1620" width="1600" height="900"/></clipPath><linearGradient id="linear-gradient-7" x1="-824.58" y1="419.24" x2="-824.58" y2="737.74" gradientUnits="userSpaceOnUse"><stop offset="0.15" stop-color="#8eb65c"/><stop offset="0.32" stop-color="#8ab35c"/><stop offset="0.49" stop-color="#7ea95c"/><stop offset="0.66" stop-color="#699a5c"/><stop offset="0.83" stop-color="#4c845c"/><stop offset="1" stop-color="#28685c"/><stop offset="1" stop-color="#27675c"/></linearGradient><linearGradient id="linear-gradient-8" x1="-1233.55" y1="851.99" x2="43.87" y2="851.99" gradientUnits="userSpaceOnUse"><stop offset="0" stop-color="#85af5c"/><stop offset="0.02" stop-color="#81ac5c"/><stop offset="0.2" stop-color="#61935c"/><stop offset="0.38" stop-color="#47805c"/><stop offset="0.57" stop-color="#35725c"/><stop offset="0.77" stop-color="#2a6a5c"/><stop offset="1" stop-color="#27675c"/></linearGradient><clipPath id="clip-path-2"><path class="cls-2" d="M-240.7,793.07l2.61-1.26,4.81,1.55.43.19a3.43,3.43,0,0,1-.93.14,48.27,48.27,0,0,1-6.92-.62m-36.23-.57q3.18.93,6.23,1.79c-3.64,1.53-7.19,3.1-10.59,4.72.22-1,1.72-3.29,4.36-6.51M-145.68,784l.42-.33.84.34-.28,0a8.51,8.51,0,0,1-1,0m-82.42,3.2.91-.4,1.14.8a9.51,9.51,0,0,1-2-.4m-68.28-.48,4.56,1.35c-1.87,1.95-3.62,3.87-5.17,5.75a22.89,22.89,0,0,1,.61-7.1m249.67-8.31q2.68-1.71,5.39-3.3c4.48,1.19,8,2,10.47,2.64-1.37.4-2.74.79-4.1,1.2-3,0-7-.23-11.76-.54m-225.95,9.1c1.71-1.91,3.67-4,5.87-6.32,5.65,2.29,10.65,4.21,15,5.8q-4,1.41-7.91,2.89c-4.06-.73-8.41-1.53-13-2.37m140-12.25.75-.47.67.61-.24,0a4.49,4.49,0,0,1-1.18-.17m-32.4,3.49q1.86-2.53,3.87-4.88,2.75,2,5.29,3.77c-1.45.89-2.88,1.79-4.31,2.71q-2.29-.74-4.85-1.6m-36-2.95,2.32-1,.7.4a36.16,36.16,0,0,0-.6,3.66,18.19,18.19,0,0,1-2.42-3M63.12,763.78c.56.48,1.11.93,1.66,1.38l-1.94,1.25-.79.1c.32-.92.68-1.84,1.07-2.73m-126.52,4.9,3.41,1.07c-1.86.82-3.7,1.66-5.49,2.51a12.46,12.46,0,0,1,2.08-3.58m35-.62,2.66-1.33c1.28.83,2.52,1.61,3.7,2.37l-.16,0a38.44,38.44,0,0,1-6.2-1.06m-174.67,4.29.41.24a2.44,2.44,0,0,0-.26.06l-.15-.3m81.57-4.32,1.73-1.21c.37,1.09.74,2.14,1.1,3.14a11.31,11.31,0,0,1-2.83-1.93M-81,762.76l2.81,1c-1,1.12-2,2.25-2.94,3.35a18.45,18.45,0,0,1,.13-4.34M-295.5,783.33a110.56,110.56,0,0,1,4.62-12.46q6.3,2.86,12,5.3c-3.34,2.82-6.52,5.66-9.45,8.47l-7.14-1.31m33.21-6.73c3.28-3.32,6.94-6.92,11-10.76a124.15,124.15,0,0,0,16.66,15.52c-2.06.64-4.16,1.31-6.27,2-5.76-1.82-13-4.13-21.36-6.76m109.61-11.55c1.9-1.78,3.79-3.46,5.66-5.07,3.17,3.38,6,6.2,8.33,8.5q-2.25,1-4.33,2c-2.85-1.54-6.09-3.39-9.66-5.46M7.38,752.21l.41-.17c0,.2,0,.41,0,.61-.16-.14-.3-.29-.45-.44m-191,19.87a121.41,121.41,0,0,1,3.07-13.83c3.86,3.27,7.58,6.37,11.13,9.23-3,2.18-5.86,4.43-8.57,6.71-1.82-.67-3.7-1.38-5.63-2.11M46.23,749l.86.17L50,751.91c-2.39,2.49-4.8,5-7.33,7.59A101.26,101.26,0,0,1,46.23,749m-103.52,12.3c2.71-3,6-6.6,10-10.59,4.23,3.7,8.17,6.77,11.82,9.41-3.51,1.24-7,2.53-10.5,3.87l-11.3-2.69m-54.24-10q5.73,2.29,11.07,4.35a105.15,105.15,0,0,1-7.07,10.12,66,66,0,0,1-2.19-7l.28-.24-.33.08c-.57-2.14-1.15-4.6-1.76-7.33m-115.74,25.89c-5-4.06-11.44-9.65-18.74-16.34,3.18-3,6.56-6.06,10.12-9.25q7.84,5.35,15,9.88c.39,5.91.92,11.39,1.16,15.52l-4,1.13-3.51-.94M49.35,741.91A139.71,139.71,0,0,1,57,728.25q3.73,5.31,7.12,9.79c-3,2.69-5.8,5.39-8.51,8.13l-6.25-4.26M24,727.11c3.72,3.48,7.4,7,11,10.42A154.77,154.77,0,0,0,25.3,751c-.59-.88-1-3.07-1.31-6.37.76-.41,1.5-.83,2.21-1.24a20.27,20.27,0,0,0-2.29.25,153.65,153.65,0,0,1,0-16.52m-103.49,29c2.3-7.68,6.65-17.12,11.28-26.9,4.52,5.34,8.81,9.94,12.87,14-6.08,4.76-11.92,9.71-17,14.59-2.32-.55-4.71-1.1-7.15-1.66m39.43-12.56c5.11-5,10.92-10.45,17.35-16.28,2.1,10.28,4.48,19.93,5.85,26.77-2.22.68-4.47,1.38-6.75,2.12-4.5-3.25-10.08-7.52-16.45-12.61m-138,6.36c1.83-5.74,4.11-12.12,6.84-18.94,7.48,9.93,14.24,18,20,24.43-2.79,1.69-5.7,3.51-8.62,5.44-5.66-3.36-11.83-7.08-18.24-10.93m-28.44,13.22c-3.4-11.08-5.82-24.85-10-35.17,9.74,7.86,19.29,16.08,28.27,23.76a105.6,105.6,0,0,0-7.5,15.7c-3.47-1.36-7.06-2.8-10.76-4.29M71,708.4c3.57,1.83,7,3.54,10.29,5.13q-7,.9-15.45,1.85c1.78-2.44,3.52-4.76,5.16-7m9.9-15.13c4,.4,7.56.72,10.69,1-.14,1.38-.27,2.73-.38,4-3.67.29-8.19.61-13.84,1.1a53,53,0,0,0,3.53-6.14M24.06,725a394.66,394.66,0,0,1,4.39-39.66c22,4.41,39.13,6.61,51.85,7.91a88.39,88.39,0,0,0-8.69,6.71c-4.11.39-8.72.85-13.92,1.43l-.24-.07.14.08c-6.48.73-13.86,1.62-22.31,2.77,9.82.45,19.85.78,29.41,1l.62.32c-3.63,3.29-7.61,7.08-11.7,11.21l-.52.05q-4.83-4.63-10-9.49,3.22,5.19,6.3,9.86l-.76.07.83,0,1.47,2.22c-1.32,1.38-2.66,2.78-4,4.22-2-.25-3.95-.49-5.86-.71l5.19,1.43c-2.89,3.14-5.75,6.39-8.5,9.71-4.61-3.11-9.24-6.19-13.71-9.09m101.67-69.47c-8.47-6.47-16.83-2.43-5.39,6.88-2.52.38-12.55,6.07-5.69,8.35-1.12,1-19,13.22-21.61,13.36-.05-.33-38.17.93-64.44.31q.42-2.67.89-5.4c-1,.38-2.42,2.29-4.12,5.32l-2.06,0,1.88.38c-6.47,11.7-16.37,39.09-17.4,60.48-2.32-1.12-4.65-2.27-7-3.43q3.57,2.77,7,5.32v.14l-3.83,1C-1.5,740.7-6.12,729-10.76,716.6c1.67-1.46,3.36-2.92,5.09-4.41-.92,0-3,.76-5.93,2.18-4.25-11.36-8.56-23-13.51-32.15-3.12,9.4-1.5,24.44,1.2,39.08-7.09,4.33-15.47,9.91-23.82,16.05C-53.17,732.89-59,728-65.16,722.68c4.7-9.91,9.29-19.82,11.95-28.25-6.71,4.65-13.65,12.31-20.3,21-5-4.44-10.24-9.09-15.51-13.9,4.4,6.53,8.63,12.38,12.69,17.67-8.19,11.13-15.78,23.35-21.76,32.75q-6.78-1.5-14-3a372.63,372.63,0,0,1-7.75-50.57c-8.34,40.64-5.82,50-1.57,63.63-1.8.57-3.51,1.14-5.16,1.72-3.17-2.83-7.21-6.5-12-10.84,4.05-3.39,7.48-6.41,9.66-9.2-1.66.44-6.52,2.74-12.9,6.25-11.15-10.1-25.72-23.15-42.52-37.13,4.28,6.3,8.4,12,12.33,17.28-2.78,2-7.82,8.12-12.8,15.86-10.8-6.46-21.94-13-32.1-18.65-.08-.21-.17-.42-.26-.62l-.2.37-1.35-.75,1.22,1c-3.93,7-4.26,18.77-3.73,29.86-4.62-1.93-9.36-3.93-14.18-6q6.56-5.87,13.87-12.15c-2.74-.1-15.41,6.84-30.1,16.74-6.89-6.45-14.36-13.68-22-21.39a198,198,0,0,0,16.73,25c-6,4.18-12.1,8.74-17.91,13.44q-7.12-2.19-15-4.55c6.75-15.28,16.33-33.14,20.7-47-12.08,8.37-24.92,26.51-35.41,42.64l-3.77-1.09,3.41,1.65c-3.64,5.61-7,11-9.9,15.54-4.34-.75-8.58-1.46-12.62-2.09,3.94,1.08,7.89,2.2,11.83,3.33a119.48,119.48,0,0,1-7.86,11.34c-3.87-9.68-9.89-41.15-13.45-78.84-10.14,49.43-2.48,69.44,2.31,83.06-3-.71-29-26.76-65.61-57.21,26.91,39.6,47.54,57.62,53,62.68-5.3,1.16-52.68-30.19-87.39-49.19,30,24,58.38,51.88,74.23,57.8-6.88.76-46.83-13.94-94.3-34.41,42.93,29.67,70.61,40.46,78.84,45.88-10.21.23-21.1-6.73-81.82-22.08,21.64,9.84,44.78,19.57,61.79,26.5l-22.64,1.23c-9.94-2.59-21.61-5.82-35.26-9.79,8.55,3.74,28.26,15.62,35.75,18.83l-45.88,13.65c-30.82-7-68,6.33-90.85,7.29l-8.31,18.59,701.65-59.77-8.09-207.48c-2.65-9.84-4.73,35.54-4.91,46.25"/></clipPath><linearGradient id="linear-gradient-10" x1="0.46" y1="1357.74" x2="1.71" y2="1357.74" gradientTransform="matrix(-2.2, 229.5, 199.24, 5.08, -270735.06, -6304.31)" xlink:href="#linear-gradient"/><clipPath id="clip-path-3"><rect class="cls-1" width="1600" height="900"/></clipPath><linearGradient id="linear-gradient-11" x1="800" x2="800" y2="900" gradientUnits="userSpaceOnUse"><stop offset="0" stop-color="#94b6ff"/><stop offset="0.19" stop-color="#a3c9ff"/><stop offset="0.48" stop-color="#b5dfff"/><stop offset="0.75" stop-color="#c0ecff"/><stop offset="1" stop-color="#c4f1ff"/></linearGradient><linearGradient id="linear-gradient-12" x1="-1" y1="571.21" x2="1161.65" y2="571.21" gradientUnits="userSpaceOnUse"><stop offset="0.06" stop-color="#366d65"/><stop offset="0.23" stop-color="#66936b"/><stop offset="0.44" stop-color="#a1c273"/><stop offset="0.56" stop-color="#8db270"/><stop offset="0.71" stop-color="#78a16d"/><stop offset="0.86" stop-color="#6b966c"/><stop offset="1" stop-color="#67936b"/></linearGradient><linearGradient id="linear-gradient-13" x1="3232.05" y1="693.45" x2="3077.23" y2="66.94" gradientTransform="matrix(-1, 0, 0, 1, 4329.9, 0)" gradientUnits="userSpaceOnUse"><stop offset="0" stop-color="#b5d176"/><stop offset="0.05" stop-color="#a7c674"/><stop offset="0.24" stop-color="#77a06e"/><stop offset="0.41" stop-color="#538469"/><stop offset="0.54" stop-color="#3e7366"/><stop offset="0.63" stop-color="#366d65"/><stop offset="0.7" stop-color="#4a7c68"/><stop offset="0.81" stop-color="#628f6b"/><stop offset="0.92" stop-color="#719b6d"/><stop offset="1" stop-color="#769f6e"/></linearGradient><linearGradient id="linear-gradient-14" x1="-8" y1="670.8" x2="1611" y2="670.8" gradientTransform="matrix(1, 0, 0, 1, 0, 0)" xlink:href="#linear-gradient-13"/><clipPath id="clip-path-4"><path class="cls-3" d="M377.34,80.89c-16.25,6.51-17.53,16-17.53,16s-2.14,9,17.95,12c33.41,5,45.93-.12,51.74-4,3-2,6-19-8.13-26.54a35.09,35.09,0,0,0-16.86-4.24c-8.56,0-17.41,2.83-27.17,6.75"/></clipPath><linearGradient id="linear-gradient-16" x1="-541.7" y1="1362.36" x2="-541.01" y2="1362.36" gradientTransform="matrix(98.32, -98.39, -98.39, -98.32, 187663.23, 80786.15)" xlink:href="#linear-gradient-2"/><clipPath id="clip-path-5"><path class="cls-4" d="M412.22,99.14c-11.52,3.86-12.43,9.5-12.43,9.5s-1.52,5.35,12.74,7.13c23.69,3,32.57-.07,36.69-2.37,2.13-1.19,4.25-11.29-5.76-15.74a28.77,28.77,0,0,0-12-2.52c-6.08,0-12.35,1.68-19.28,4"/></clipPath><linearGradient id="linear-gradient-18" x1="-541.48" y1="1362.15" x2="-541.02" y2="1362.15" gradientTransform="matrix(98.32, -98.39, -98.39, -98.32, 187663.23, 80786.15)" xlink:href="#linear-gradient-2"/><clipPath id="clip-path-6"><path class="cls-1" d="M20.05,204.83c-32.08,8.25-36.63,22.32-36.63,22.32-4.29,9.85,7,14,7,14,31.68,9.11,84.22,6.83,96.83,4s21.56-25.54,3.66-39.09c-8.4-6.35-17.44-8.84-28-8.84-11.95,0-25.84,3.2-42.89,7.58"/></clipPath><linearGradient id="linear-gradient-19" x1="-544.09" y1="1362.51" x2="-543.41" y2="1362.51" gradientTransform="matrix(144.13, -136.75, -166.42, -108.58, 305150, 73824.7)" xlink:href="#linear-gradient-2"/><clipPath id="clip-path-7"><path class="cls-1" d="M-7.46,182.6c-18,6.1-20.53,16.51-20.53,16.51a8.34,8.34,0,0,0,3.93,10.38c17.75,6.74,47.19,5,54.26,2.95s12.09-18.89,2.05-28.91A20.94,20.94,0,0,0,16.57,177c-6.7,0-14.48,2.36-24,5.6"/></clipPath><linearGradient id="linear-gradient-20" x1="-543.98" y1="1362.74" x2="-543.46" y2="1362.74" gradientTransform="matrix(144.13, -136.75, -166.42, -108.58, 305150, 73824.7)" xlink:href="#linear-gradient-2"/><clipPath id="clip-path-8"><path class="cls-5" d="M1319.37,61.52c-31.74,12.09-34.24,29.77-34.24,29.77S1281,108,1320.2,113.61c65.25,9.28,89.69-.22,101-7.44,5.85-3.72,11.69-35.34-15.86-49.3A71.37,71.37,0,0,0,1372.44,49c-16.73,0-34,5.25-53.07,12.52"/></clipPath><linearGradient id="linear-gradient-22" x1="-542.4" y1="1360.89" x2="-541.64" y2="1360.89" gradientTransform="matrix(184.21, -184.34, -184.34, -184.21, 352047.04, 150867.72)" xlink:href="#linear-gradient-2"/><clipPath id="clip-path-9"><path class="cls-6" d="M1276.07,89.73c-14.84,5.89-16,14.51-16,14.51s-2,8.16,16.4,10.88c30.51,4.53,42-.1,47.25-3.62,2.74-1.82,5.47-17.24-7.42-24a32.26,32.26,0,0,0-15.4-3.84c-7.82,0-15.9,2.57-24.82,6.11"/></clipPath><linearGradient id="linear-gradient-24" x1="-542.39" y1="1361.01" x2="-542.01" y2="1361.01" gradientTransform="matrix(184.21, -184.34, -184.34, -184.21, 352047.04, 150867.72)" xlink:href="#linear-gradient-2"/><linearGradient id="linear-gradient-25" x1="1096.1" y1="208.32" x2="1672.18" y2="208.32" gradientTransform="translate(-32.01 66.74) rotate(-2.64)" gradientUnits="userSpaceOnUse"><stop offset="0" stop-color="#fff"/><stop offset="0.03" stop-color="#fdfeff"/><stop offset="0.43" stop-color="#def7ff"/><stop offset="0.76" stop-color="#cbf3ff"/><stop offset="1" stop-color="#c4f1ff"/></linearGradient><linearGradient id="linear-gradient-26" x1="1374.72" y1="121.26" x2="1958.35" y2="121.26" xlink:href="#linear-gradient-25"/><linearGradient id="linear-gradient-27" x1="-501.69" y1="182.82" x2="2592.11" y2="182.82" gradientTransform="matrix(-0.54, 0, 0, 1, 603.69, 0)" xlink:href="#linear-gradient-25"/><linearGradient id="linear-gradient-28" x1="-62.06" y1="109.2" x2="2591.74" y2="109.2" gradientTransform="matrix(-0.54, 0, 0, 1, 603.69, 0)" xlink:href="#linear-gradient-25"/><clipPath id="clip-path-10"><path class="cls-7" d="M1551.76,208.85c-21.47,9.59-23.16,23.62-23.16,23.62s-2.83,13.28,23.73,17.71c44.14,7.36,60.68-.17,68.36-5.9,4-3,7.91-28.05-10.73-39.12a42.54,42.54,0,0,0-22.29-6.25c-11.31,0-23,4.17-35.91,9.94"/></clipPath><linearGradient id="linear-gradient-30" x1="-542.1" y1="1359.9" x2="-541.49" y2="1359.9" gradientTransform="matrix(184.21, -184.34, -184.34, -184.21, 352047.04, 150867.72)" xlink:href="#linear-gradient-2"/><clipPath id="clip-path-11"><rect class="cls-1" x="1620" width="1600" height="900"/></clipPath></defs><g id="SB_31_Intro_bg" data-name="SB_31_Intro bg"><g class="cls-8"><path class="cls-9" d="M-705.82,128.13c230.12-63.53,681.89,56.47,923.3-8.47V64.6C48.07,180.37-406.28,46.25-705.82,128.13Z"/><path class="cls-10" d="M-854.26,72C-624.14,8.47-172.38,128.47,69,63.53V8.47C-100.38,124.24-554.72-9.88-854.26,72Z"/><path class="cls-11" d="M19.56,30.46C15.16,7.56-14.63-11.77-56.8-11.77s-88.37,40.59-84.54,63.59c4.09,24.54,46.6,19.56,84.54,20.86C1.57,74.69,24.29,55.06,19.56,30.46Z"/><path class="cls-11" d="M6.11,79.89C4.34,68.81-7.61,59.45-24.54,59.45S-60,79.1-58.47,90.24c1.64,11.88,18.7,9.47,33.93,10.1C-1.11,101.31,8,91.8,6.11,79.89Z"/><path class="cls-12" d="M-1646.53,240.47s149.8,39.49,373.16-58.07a47.21,47.21,0,0,1,26.13-3.44c29.42,4.55,97.8,16.55,127.3,33.7l83.48-13.57a88.46,88.46,0,0,1,36,1.58l47.11,12,351.89-66a157.26,157.26,0,0,1,52.79-.89C-511.42,151.43-447.28,161-442.29,160c7.05-1.41,94.05-19.57,121.41-24,25.78-4.18,316.23,25.41,316.23,25.41L3.82,325.18l-1650.35,18.35Z"/><path class="cls-13" d="M-1640.24,444.94s89-45.29,645.64-15.62c0,0,968.23-17.09,1001,70l-12,238.42H-381.18c80-16.21,123.44-35.09,132.27-54.86,242.54-39.42,190.36-121.4-312.8-142.06-56.31-22.47-98.83-25-175.15-25.92,0,0,19.85-5-15.22-10.56-49.2-7.77-237-9.66-237-9.66s-369.49,2.59-272.73,20.22c0,0-532.1,31.4-359.15,96.51l-3.77-8.7Z"/><path class="cls-14" d="M43.85,719.54c4.36-29.43-900,25.8-1277.4,112.12,261.92,115.7,706.14,144.63,1218.3,160.76Z"/><path class="cls-2" d="M-240.7,793.07l2.61-1.26,4.81,1.55.43.19a3.43,3.43,0,0,1-.93.14,48.27,48.27,0,0,1-6.92-.62m-36.23-.57q3.18.93,6.23,1.79c-3.64,1.53-7.19,3.1-10.59,4.72.22-1,1.72-3.29,4.36-6.51M-145.68,784l.42-.33.84.34-.28,0a8.51,8.51,0,0,1-1,0m-82.42,3.2.91-.4,1.14.8a9.51,9.51,0,0,1-2-.4m-68.28-.48,4.56,1.35c-1.87,1.95-3.62,3.87-5.17,5.75a22.89,22.89,0,0,1,.61-7.1m249.67-8.31q2.68-1.71,5.39-3.3c4.48,1.19,8,2,10.47,2.64-1.37.4-2.74.79-4.1,1.2-3,0-7-.23-11.76-.54m-225.95,9.1c1.71-1.91,3.67-4,5.87-6.32,5.65,2.29,10.65,4.21,15,5.8q-4,1.41-7.91,2.89c-4.06-.73-8.41-1.53-13-2.37m140-12.25.75-.47.67.61-.24,0a4.49,4.49,0,0,1-1.18-.17m-32.4,3.49q1.86-2.53,3.87-4.88,2.75,2,5.29,3.77c-1.45.89-2.88,1.79-4.31,2.71q-2.29-.74-4.85-1.6m-36-2.95,2.32-1,.7.4a36.16,36.16,0,0,0-.6,3.66,18.19,18.19,0,0,1-2.42-3M63.12,763.78c.56.48,1.11.93,1.66,1.38l-1.94,1.25-.79.1c.32-.92.68-1.84,1.07-2.73m-126.52,4.9,3.41,1.07c-1.86.82-3.7,1.66-5.49,2.51a12.46,12.46,0,0,1,2.08-3.58m35-.62,2.66-1.33c1.28.83,2.52,1.61,3.7,2.37l-.16,0a38.44,38.44,0,0,1-6.2-1.06m-174.67,4.29.41.24a2.44,2.44,0,0,0-.26.06l-.15-.3m81.57-4.32,1.73-1.21c.37,1.09.74,2.14,1.1,3.14a11.31,11.31,0,0,1-2.83-1.93M-81,762.76l2.81,1c-1,1.12-2,2.25-2.94,3.35a18.45,18.45,0,0,1,.13-4.34M-295.5,783.33a110.56,110.56,0,0,1,4.62-12.46q6.3,2.86,12,5.3c-3.34,2.82-6.52,5.66-9.45,8.47l-7.14-1.31m33.21-6.73c3.28-3.32,6.94-6.92,11-10.76a124.15,124.15,0,0,0,16.66,15.52c-2.06.64-4.16,1.31-6.27,2-5.76-1.82-13-4.13-21.36-6.76m109.61-11.55c1.9-1.78,3.79-3.46,5.66-5.07,3.17,3.38,6,6.2,8.33,8.5q-2.25,1-4.33,2c-2.85-1.54-6.09-3.39-9.66-5.46M7.38,752.21l.41-.17c0,.2,0,.41,0,.61-.16-.14-.3-.29-.45-.44m-191,19.87a121.41,121.41,0,0,1,3.07-13.83c3.86,3.27,7.58,6.37,11.13,9.23-3,2.18-5.86,4.43-8.57,6.71-1.82-.67-3.7-1.38-5.63-2.11M46.23,749l.86.17L50,751.91c-2.39,2.49-4.8,5-7.33,7.59A101.26,101.26,0,0,1,46.23,749m-103.52,12.3c2.71-3,6-6.6,10-10.59,4.23,3.7,8.17,6.77,11.82,9.41-3.51,1.24-7,2.53-10.5,3.87l-11.3-2.69m-54.24-10q5.73,2.29,11.07,4.35a105.15,105.15,0,0,1-7.07,10.12,66,66,0,0,1-2.19-7l.28-.24-.33.08c-.57-2.14-1.15-4.6-1.76-7.33m-115.74,25.89c-5-4.06-11.44-9.65-18.74-16.34,3.18-3,6.56-6.06,10.12-9.25q7.84,5.35,15,9.88c.39,5.91.92,11.39,1.16,15.52l-4,1.13-3.51-.94M49.35,741.91A139.71,139.71,0,0,1,57,728.25q3.73,5.31,7.12,9.79c-3,2.69-5.8,5.39-8.51,8.13l-6.25-4.26M24,727.11c3.72,3.48,7.4,7,11,10.42A154.77,154.77,0,0,0,25.3,751c-.59-.88-1-3.07-1.31-6.37.76-.41,1.5-.83,2.21-1.24a20.27,20.27,0,0,0-2.29.25,153.65,153.65,0,0,1,0-16.52m-103.49,29c2.3-7.68,6.65-17.12,11.28-26.9,4.52,5.34,8.81,9.94,12.87,14-6.08,4.76-11.92,9.71-17,14.59-2.32-.55-4.71-1.1-7.15-1.66m39.43-12.56c5.11-5,10.92-10.45,17.35-16.28,2.1,10.28,4.48,19.93,5.85,26.77-2.22.68-4.47,1.38-6.75,2.12-4.5-3.25-10.08-7.52-16.45-12.61m-138,6.36c1.83-5.74,4.11-12.12,6.84-18.94,7.48,9.93,14.24,18,20,24.43-2.79,1.69-5.7,3.51-8.62,5.44-5.66-3.36-11.83-7.08-18.24-10.93m-28.44,13.22c-3.4-11.08-5.82-24.85-10-35.17,9.74,7.86,19.29,16.08,28.27,23.76a105.6,105.6,0,0,0-7.5,15.7c-3.47-1.36-7.06-2.8-10.76-4.29M71,708.4c3.57,1.83,7,3.54,10.29,5.13q-7,.9-15.45,1.85c1.78-2.44,3.52-4.76,5.16-7m9.9-15.13c4,.4,7.56.72,10.69,1-.14,1.38-.27,2.73-.38,4-3.67.29-8.19.61-13.84,1.1a53,53,0,0,0,3.53-6.14M24.06,725a394.66,394.66,0,0,1,4.39-39.66c22,4.41,39.13,6.61,51.85,7.91a88.39,88.39,0,0,0-8.69,6.71c-4.11.39-8.72.85-13.92,1.43l-.24-.07.14.08c-6.48.73-13.86,1.62-22.31,2.77,9.82.45,19.85.78,29.41,1l.62.32c-3.63,3.29-7.61,7.08-11.7,11.21l-.52.05q-4.83-4.63-10-9.49,3.22,5.19,6.3,9.86l-.76.07.83,0,1.47,2.22c-1.32,1.38-2.66,2.78-4,4.22-2-.25-3.95-.49-5.86-.71l5.19,1.43c-2.89,3.14-5.75,6.39-8.5,9.71-4.61-3.11-9.24-6.19-13.71-9.09m101.67-69.47c-8.47-6.47-16.83-2.43-5.39,6.88-2.52.38-12.55,6.07-5.69,8.35-1.12,1-19,13.22-21.61,13.36-.05-.33-38.17.93-64.44.31q.42-2.67.89-5.4c-1,.38-2.42,2.29-4.12,5.32l-2.06,0,1.88.38c-6.47,11.7-16.37,39.09-17.4,60.48-2.32-1.12-4.65-2.27-7-3.43q3.57,2.77,7,5.32v.14l-3.83,1C-1.5,740.7-6.12,729-10.76,716.6c1.67-1.46,3.36-2.92,5.09-4.41-.92,0-3,.76-5.93,2.18-4.25-11.36-8.56-23-13.51-32.15-3.12,9.4-1.5,24.44,1.2,39.08-7.09,4.33-15.47,9.91-23.82,16.05C-53.17,732.89-59,728-65.16,722.68c4.7-9.91,9.29-19.82,11.95-28.25-6.71,4.65-13.65,12.31-20.3,21-5-4.44-10.24-9.09-15.51-13.9,4.4,6.53,8.63,12.38,12.69,17.67-8.19,11.13-15.78,23.35-21.76,32.75q-6.78-1.5-14-3a372.63,372.63,0,0,1-7.75-50.57c-8.34,40.64-5.82,50-1.57,63.63-1.8.57-3.51,1.14-5.16,1.72-3.17-2.83-7.21-6.5-12-10.84,4.05-3.39,7.48-6.41,9.66-9.2-1.66.44-6.52,2.74-12.9,6.25-11.15-10.1-25.72-23.15-42.52-37.13,4.28,6.3,8.4,12,12.33,17.28-2.78,2-7.82,8.12-12.8,15.86-10.8-6.46-21.94-13-32.1-18.65-.08-.21-.17-.42-.26-.62l-.2.37-1.35-.75,1.22,1c-3.93,7-4.26,18.77-3.73,29.86-4.62-1.93-9.36-3.93-14.18-6q6.56-5.87,13.87-12.15c-2.74-.1-15.41,6.84-30.1,16.74-6.89-6.45-14.36-13.68-22-21.39a198,198,0,0,0,16.73,25c-6,4.18-12.1,8.74-17.91,13.44q-7.12-2.19-15-4.55c6.75-15.28,16.33-33.14,20.7-47-12.08,8.37-24.92,26.51-35.41,42.64l-3.77-1.09,3.41,1.65c-3.64,5.61-7,11-9.9,15.54-4.34-.75-8.58-1.46-12.62-2.09,3.94,1.08,7.89,2.2,11.83,3.33a119.48,119.48,0,0,1-7.86,11.34c-3.87-9.68-9.89-41.15-13.45-78.84-10.14,49.43-2.48,69.44,2.31,83.06-3-.71-29-26.76-65.61-57.21,26.91,39.6,47.54,57.62,53,62.68-5.3,1.16-52.68-30.19-87.39-49.19,30,24,58.38,51.88,74.23,57.8-6.88.76-46.83-13.94-94.3-34.41,42.93,29.67,70.61,40.46,78.84,45.88-10.21.23-21.1-6.73-81.82-22.08,21.64,9.84,44.78,19.57,61.79,26.5l-22.64,1.23c-9.94-2.59-21.61-5.82-35.26-9.79,8.55,3.74,28.26,15.62,35.75,18.83l-45.88,13.65c-30.82-7-68,6.33-90.85,7.29l-8.31,18.59,701.65-59.77-8.09-207.48c-2.65-9.84-4.73,35.54-4.91,46.25"/><g class="cls-15"><polygon class="cls-16" points="139.7 581.62 138.52 867.74 -573.94 843.75 -572.76 557.63 139.7 581.62"/></g><path class="cls-17" d="M-1143.59,913.91s521.48-71.41,666.9-65.65c0,0,153.88-49.29,511.05-45.06L24.48,928.85H-1000.46Z"/></g></g><g id="SB_31_Bg_1"><g class="cls-18"><rect class="cls-19" width="1600" height="900"/><path class="cls-20" d="M-1,297c88-33.32,424-43,656.12,42.06,252.94,92.69,430.88,18,430.88,18V458L1,463S-89,330.32-1,297Z"/><path class="cls-21" d="M206.16,416.27s334-5.89,422-39.21,555-196,870-13c232.94,135.32,98.88,23,98.88,23V488L214.82,477Z"/><path class="cls-22" d="M1,390.84S267,332,545,440c214.29,83.25,420.26,3.1,503.42-38A1046.14,1046.14,0,0,1,1197,342c128.54-40.59,334.62-88.72,421-14.95l-10,183.78L596,541s-613.93,11.93-614,2.47S1,390.84,1,390.84Z"/><path class="cls-23" d="M55.93,493c.65-7.37,25-39.81,48.66-23.24,1.85-14.62,24.31-17.76,28.22-9.15,2.79-2,28.31-12.32,30.37-3.76,9.8-13.08,9.65-3.52,13.41-11.54,3.25-6.9,13-9.85,21.34-6.09,5.54-13.54,33-.12,29.19,12.69,5.58-3.62,12.62-14.67,15.82-11.95,8.64,7.33,14.17-3.67,20.68-5.88,14-4.78,31.41,1.21,27.37,8.72,7.63,5.4,18.37,4.05,41.83,32.87C339.51,481,55.93,493,55.93,493Z"/><path class="cls-24" d="M326.14,478.56c1.94-7.13,31.59-34.78,52-14.3,4.39-14.05,27.05-13.18,29.39-4,3.09-1.45,30-7.14,30.55,1.65,12-11.15,10.12-1.77,15.24-9,4.41-6.22,14.51-7.4,22.07-2.23,7.84-12.35,32.47,5.69,26.5,17.63,6.13-2.57,15-12.21,17.68-9,7.21,8.74,14.6-1.12,21.4-2.14,14.63-2.23,30.69,6.73,25.4,13.41,6.56,6.66,17.37,7.22,35.38,39.73C607.4,516.74,326.14,478.56,326.14,478.56Z"/><path class="cls-25" d="M-1,487.76c100.28,5,191.73-4.23,229-8.78,239.22-29.22,766.21,60.16,933.67,117.34C979.42,640.7,642.37,668-1,669.17Z"/><path class="cls-26" d="M1053.94,482.59c-15.63,1.16,4.33-12.64-29.56-13.37-7-4.87-.66-12.44-15.6-9.45-7.16,1.44-18.39,8.12-16.78,15.36-8.72-10.85-25-2.39-25.74,6.08-6.75.77-16,3.34-23,13.51-8.27-11.58-17.83-10.48-26-7.67,1.79-4.46-2.94-8.39-10.58-6-19.61,6-15.51,13.77-19.46,17.67-5.43.76-12.12,3.79-14.56,13.4-13.77,3.67-15.09,19.86-14.65,20.65.54,1,39.61,7.25,235.66-42.91C1074.65,481.19,1069.57,481.43,1053.94,482.59Z"/><path class="cls-23" d="M1351.08,470.21c-15.53-2.13,6.88-11.45-26.12-19.24-5.79-6.23,2-12.31-13.28-12.51-7.3-.09-19.68,4.1-19.61,11.51-6.27-12.43-24-7.55-26.45.57-6.76-.66-16.39-.09-25.3,8.41-5.66-13.05-15.24-14-23.81-12.93,2.69-4-1.11-8.82-9.08-8.12-20.43,1.8-18,10.23-22.72,13.22-5.47-.39-12.64,1.18-17,10.07-14.24.7-18.91,16.26-18.65,17.13.32,1.09,37.23,15.36,239.43,7.27C1371.63,473.17,1366.61,472.34,1351.08,470.21Z"/><path class="cls-26" d="M1460.07,470.27c-11-1.22,5.43-10.9-17.66-16.53-3.82-5.47,2-11.46-8.85-10.91-5.19.26-14.19,4.72-14.49,11.56-3.87-11.19-16.68-5.84-18.84,1.78-4.77-.29-11.66.7-18.39,9-3.41-11.78-10.18-12.18-16.32-10.81,2.1-3.81-.37-8.09-6.07-7.06-14.62,2.63-13.32,10.3-16.79,13.28-3.87-.1-9,1.69-12.59,10.11-10.16,1.33-14.22,15.92-14.08,16.7.18,1,25.75,12.42,169.92-4.67C1474.54,472,1471,471.5,1460.07,470.27Z"/><path class="cls-27" d="M1662,492.65c-155.48-30.6-494.95-19.34-554.94-11.91-133.22,16.51-133.94,38.61-268.25,51.56C772,543,693.23,553.56,566,589c105.75,39.77,650.9,117.68,1096,78.2Z"/><path class="cls-28" d="M1327.25,525.86a3.57,3.57,0,0,1-3.45-1.17s-2.59.65-4.16-.71.75-2.21.75-2.21-2.15-.59-1.11-1.74c1.33-1.41,4.08.21,4.08.21s.57-2,3.29-1.14,1.34,2.16,1.34,2.16,3.61.06,3.44,1.7-2.63.95-2.63.95S1329.57,525.48,1327.25,525.86Z"/><path class="cls-28" d="M1214.5,508.6a3.42,3.42,0,0,1-3.17-.24,4.37,4.37,0,0,1-3.55.26c-1.73-.77-.17-1.89-.17-1.89s-1.93,0-1.48-1.16c.53-1.38,3.3-.64,3.3-.64s-.27-1.71,2.21-1.56,1.82,1.45,1.82,1.45,2.9-.67,3.34.67-1.76,1.27-1.76,1.27S1216.2,507.84,1214.5,508.6Z"/><path class="cls-28" d="M1299,504.52a2.79,2.79,0,0,1-2.69-1.08s-2.11.4-3.25-.75.79-1.72.79-1.72-1.68-.57-.73-1.43c1.17-1.06,3.23.35,3.23.35s.63-1.59,2.73-.77.88,1.78.88,1.78,2.89.2,2.61,1.49-2.18.66-2.18.66S1300.85,504.31,1299,504.52Z"/><path class="cls-28" d="M1371.75,511.79a2.12,2.12,0,0,1-2.09-1.63s-2.25-.11-2.84-1.45,1.53-1.44,1.53-1.44-1.37-.91-.07-1.5c1.61-.74,3,1.06,3,1.06a2.24,2.24,0,0,1,3-.09c1.67,1.25.07,1.87.07,1.87s2.71.86,1.86,2-2.41.11-2.41.11S1373.67,512,1371.75,511.79Z"/><path class="cls-28" d="M1277.19,506.56a3.5,3.5,0,0,1-3.29-.64,4.61,4.61,0,0,1-3.78-.15c-1.68-1,.16-2,.16-2s-2-.27-1.33-1.41c.79-1.42,3.58-.29,3.58-.29s0-1.86,2.62-1.4,1.64,1.76,1.64,1.76,3.17-.37,3.38,1.11-2.07,1.16-2.07,1.16S1279.12,506,1277.19,506.56Z"/><path class="cls-28" d="M1247.8,496.38a2.5,2.5,0,0,1-2.44-1.05s-2,.34-3-.75.79-1.57.79-1.57-1.53-.55-.61-1.32c1.1-1,3,.38,3,.38s.64-1.46,2.56-.67.76,1.66.76,1.66,2.65.24,2.34,1.43-2,.55-2,.55S1249.53,496.21,1247.8,496.38Z"/><path class="cls-28" d="M1343.69,507.72a2,2,0,0,1-2-1.44s-2,0-2.68-1.25,1.33-1.35,1.33-1.35-1.29-.81-.14-1.39c1.43-.72,2.78.9,2.78.9a2,2,0,0,1,2.73-.17c1.59,1.11.15,1.71.15,1.71s2.54.72,1.8,1.79-2.17.18-2.17.18S1345.45,507.9,1343.69,507.72Z"/><path class="cls-28" d="M1414.7,516.36a2.31,2.31,0,0,1-2.27-1.25s-2,.18-2.89-1,1-1.49,1-1.49-1.43-.67-.4-1.36c1.26-.87,2.92.61,2.92.61a1.91,1.91,0,0,1,2.66-.45c1.78.94.49,1.7.49,1.7s2.63.46,2.13,1.61-2.11.4-2.11.4S1416.47,516.34,1414.7,516.36Z"/><path class="cls-28" d="M1384.33,501.17a1.9,1.9,0,0,1-1.85-1s-1.64.14-2.32-.79.83-1.21.83-1.21-1.17-.55-.33-1.11c1-.7,2.37.5,2.37.5a1.54,1.54,0,0,1,2.15-.36c1.43.76.39,1.37.39,1.37s2.13.37,1.73,1.31-1.71.32-1.71.32S1385.74,501.16,1384.33,501.17Z"/><path class="cls-28" d="M1441.09,510.87a2.19,2.19,0,0,1-2.14-.57,3.18,3.18,0,0,1-2.54-.28c-1-.74.35-1.33.35-1.33s-1.33-.28-.74-1c.71-.88,2.45,0,2.45,0s.24-1.22,1.94-.8.89,1.25.89,1.25,2.18-.1,2.15.87-1.52.67-1.52.67S1442.45,510.56,1441.09,510.87Z"/><path class="cls-29" d="M1333.16,569.33a5.1,5.1,0,0,1-4.62.22,6,6,0,0,1-5,1c-2.73-.77-.89-2.65-.89-2.65s-2.77.28-2.48-1.37c.32-2.07,4.53-1.5,4.53-1.5s-1-2.39,2.63-2.63,3.06,1.74,3.06,1.74,3.92-1.47,5,.34-2.07,2.13-2.07,2.13S1335.33,567.93,1333.16,569.33Z"/><path class="cls-29" d="M1395.41,573.27a3.67,3.67,0,0,1-3.62-1.25s-2.83.61-4.42-.82,1-2.28,1-2.28-2.28-.66-1.06-1.83c1.53-1.45,4.34.28,4.34.28s.77-2.11,3.64-1.15,1.25,2.28,1.25,2.28,3.88.09,3.57,1.8-2.88,1-2.88,1S1397.9,572.89,1395.41,573.27Z"/><path class="cls-29" d="M1441.09,569.14a3.77,3.77,0,0,1-3.58-1.5s-2.84.5-4.35-1.09,1.13-2.28,1.13-2.28-2.19-.8-.89-1.93c1.6-1.41,4.34.54,4.34.54s.94-2.11,3.72-1,1.12,2.41,1.12,2.41,3.89.36,3.43,2.08-3,.82-3,.82S1443.61,568.91,1441.09,569.14Z"/><path class="cls-29" d="M1369.92,580.87a4.29,4.29,0,0,1-4.17-1.45s-3.22.73-5-.91,1.16-2.64,1.16-2.64-2.65-.71-1.19-2.07c1.7-1.67,4.92.32,4.92.32s.9-2.41,4.16-1.32,1.44,2.6,1.44,2.6,4.45.13,4.09,2.07-3.32,1.1-3.32,1.1S1372.79,580.44,1369.92,580.87Z"/><path class="cls-29" d="M1561.61,574.27a5.17,5.17,0,0,0,4.55.28,5.94,5.94,0,0,0,4.89,1.05c2.66-.74.89-2.62.89-2.62s2.72.34,2.5-1.32c-.29-2-4.42-1.52-4.42-1.52s1-2.32-2.53-2.62-3.07,1.68-3.07,1.68-3.82-1.52-4.91.28,2,2.11,2,2.11S1559.5,572.84,1561.61,574.27Z"/><path class="cls-29" d="M1510.51,588.28a5.09,5.09,0,0,0,4.67,0,6.5,6.5,0,0,0,5.19.85c2.67-.92.59-2.77.59-2.77s2.81.17,2.32-1.51c-.54-2.12-4.68-1.37-4.68-1.37s.66-2.48-3-2.57-2.9,1.88-2.9,1.88-4.15-1.37-5,.54,2.36,2.12,2.36,2.12S1508.15,586.93,1510.51,588.28Z"/><path class="cls-29" d="M1536.49,600.65a6.67,6.67,0,0,0,6.15-.26s3.49,2.11,6.92.78.47-3.69.47-3.69,3.79.06,3-2.13c-.91-2.71-6.33-1.46-6.33-1.46s.62-3.28-4.22-3.16-3.62,2.68-3.62,2.68-5.57-1.5-6.54,1.05,3.29,2.6,3.29,2.6S1533.22,599.06,1536.49,600.65Z"/><path class="cls-29" d="M1453.59,588a6.17,6.17,0,0,1-5.75-.8s-3.51,1.65-6.53.06.08-3.45.08-3.45-3.48-.31-2.43-2.3c1.27-2.41,6.14-.76,6.14-.76s-.08-3.15,4.41-2.58,3,2.84,3,2.84,5.41-.86,5.93,1.6-3.46,2.12-3.46,2.12S1456.82,586.75,1453.59,588Z"/><path class="cls-29" d="M160.06,703.41a3.41,3.41,0,0,0,3.4-1.5s2.65.59,4.13-1-1-2.45-1-2.45,2.13-.79,1-2c-1.45-1.52-4.09.47-4.09.47s-.74-2.25-3.43-1.11-1.15,2.52-1.15,2.52-3.65.24-3.32,2.09,2.73.94,2.73.94S157.68,703.1,160.06,703.41Z"/><path class="cls-29" d="M320.43,683.3a3.41,3.41,0,0,0,3.47-.48,4.38,4.38,0,0,0,3.94.1c1.83-1,0-2.34,0-2.34s2.13-.16,1.53-1.52c-.73-1.67-3.7-.59-3.7-.59s.11-2.14-2.61-1.79-1.86,1.89-1.86,1.89-3.26-.66-3.61,1,2,1.46,2,1.46S318.49,682.46,320.43,683.3Z"/><path class="cls-29" d="M188.61,700.65a2.67,2.67,0,0,0,2.61-1.38s2.17.34,3.24-1-1-1.91-1-1.91,1.64-.72.61-1.64c-1.28-1.15-3.22.56-3.22.56a1.92,1.92,0,0,0-2.84-.72c-2,1-.72,2.05-.72,2.05s-2.91.39-2.5,1.83,2.25.62,2.25.62S186.71,700.51,188.61,700.65Z"/><path class="cls-29" d="M86.66,718a3.27,3.27,0,0,0,3.36-.18,4.31,4.31,0,0,0,3.8.42c1.84-.87.2-2.28.2-2.28s2,0,1.55-1.33c-.56-1.68-3.5-.88-3.5-.88s.27-2-2.37-1.94-1.93,1.69-1.93,1.69-3.09-.92-3.55.67,1.85,1.61,1.85,1.61S84.85,717,86.66,718Z"/><path class="cls-29" d="M256.51,682.51a3.9,3.9,0,0,0,4-1.08s2.68,1.08,4.62-.45-.43-2.79-.43-2.79,2.43-.52,1.48-2c-1.13-1.9-4.41-.15-4.41-.15s-.24-2.57-3.35-1.78-1.83,2.54-1.83,2.54-3.93-.31-4,1.73,2.66,1.46,2.66,1.46S254.09,681.8,256.51,682.51Z"/><path class="cls-29" d="M280.4,676.63a2.41,2.41,0,0,0,2.33-1.29s2,.27,2.89-1-.91-1.71-.91-1.71,1.46-.68.49-1.5c-1.19-1-2.9.58-2.9.58a1.76,1.76,0,0,0-2.61-.6c-1.83,1-.61,1.88-.61,1.88s-2.62.41-2.21,1.72,2.06.52,2.06.52S278.66,676.54,280.4,676.63Z"/><path class="cls-29" d="M69,723.54a2.21,2.21,0,0,0,2.09-1.61s2.06,0,2.75-1.35S72.48,719,72.48,719s1.34-.9.2-1.58c-1.43-.83-2.85,1-2.85,1a1.89,1.89,0,0,0-2.75-.25c-1.63,1.22-.21,1.94-.21,1.94s-2.58.76-1.88,2,2.21.24,2.21.24S67.18,723.69,69,723.54Z"/><path class="cls-29" d="M220,707.38a3.52,3.52,0,0,0,3.55-1.61s2.82.64,4.37-1-1.06-2.53-1.06-2.53,2.19-.83.94-2.1c-1.55-1.59-4.3.47-4.3.47s-.84-2.34-3.64-1.16S218.7,702,218.7,702s-3.86.27-3.47,2.19,2.88,1,2.88,1S217.5,707,220,707.38Z"/><path class="cls-29" d="M39,714.44a2.12,2.12,0,0,0,2.17-.63,2.92,2.92,0,0,0,2.57-.3c1-.83-.33-1.51-.33-1.51s1.35-.31.76-1.12c-.71-1-2.49,0-2.49,0s-.23-1.39-1.94-.91-.92,1.38-.92,1.38-2.22-.11-2.18,1,1.51.77,1.51.77S37.63,714.08,39,714.44Z"/><path class="cls-29" d="M180.45,688.81a2.31,2.31,0,0,0,2.24-1.53s2.09.11,2.89-1.26-1.17-1.68-1.17-1.68,1.43-.83.31-1.59c-1.36-.93-3,.85-3,.85a1.88,1.88,0,0,0-2.78-.39c-1.75,1.16-.36,2-.36,2s-2.68.64-2.07,2,2.19.36,2.19.36S178.62,688.88,180.45,688.81Z"/><path class="cls-29" d="M227.38,668.78a2.78,2.78,0,0,0,2.83-.4,3.63,3.63,0,0,0,3.22.09c1.49-.85,0-1.92,0-1.92s1.73-.13,1.24-1.23c-.59-1.36-3-.49-3-.49s.1-1.74-2.12-1.46-1.52,1.55-1.52,1.55-2.66-.54-3,.83,1.68,1.18,1.68,1.18S225.8,668.08,227.38,668.78Z"/><path class="cls-29" d="M39.14,683.5a2.43,2.43,0,0,0,2.38-1.25s2,.3,2.94-.93-.87-1.73-.87-1.73,1.49-.66.56-1.5c-1.16-1-2.95.51-2.95.51a1.71,1.71,0,0,0-2.56-.65c-1.86.94-.66,1.86-.66,1.86s-2.64.36-2.28,1.67,2,.57,2,.57S37.4,683.36,39.14,683.5Z"/><path class="cls-29" d="M61.56,690.53a2.2,2.2,0,0,1-2.29-.12,3,3,0,0,1-2.6.29c-1.25-.59-.13-1.55-.13-1.55s-1.4,0-1.07-.92c.39-1.14,2.4-.59,2.4-.59s-.19-1.4,1.61-1.33,1.33,1.15,1.33,1.15,2.1-.62,2.41.46S62,689,62,689,62.8,689.87,61.56,690.53Z"/><path class="cls-29" d="M104.22,686.93a3.55,3.55,0,0,0,3.63-1s2.46,1,4.25-.42-.38-2.57-.38-2.57,2.22-.48,1.35-1.85c-1-1.74-4.06-.14-4.06-.14s-.21-2.35-3.07-1.63-1.68,2.33-1.68,2.33-3.61-.27-3.7,1.59,2.44,1.33,2.44,1.33S102,686.28,104.22,686.93Z"/><path class="cls-29" d="M183.05,657.85a2.55,2.55,0,0,0,2.55-.08,3.12,3.12,0,0,0,2.82.38c1.44-.6.27-1.69.27-1.69s1.54,0,1.25-1c-.33-1.25-2.58-.71-2.58-.71s.33-1.52-1.67-1.49-1.55,1.21-1.55,1.21-2.26-.73-2.7.44,1.3,1.23,1.3,1.23S181.76,657.08,183.05,657.85Z"/><path class="cls-29" d="M98,673.48a1.86,1.86,0,0,0,1.89-.85,2.67,2.67,0,0,0,2.32-.55c.79-.88-.56-1.35-.56-1.35s1.16-.44.48-1.11c-.8-.86-2.27.25-2.27.25a1.33,1.33,0,0,0-1.94-.62c-1.46.63-.6,1.39-.6,1.39s-2.06.14-1.84,1.17,1.53.5,1.53.5S96.69,673.3,98,673.48Z"/><path class="cls-29" d="M131.11,677.65a2.36,2.36,0,0,0,2.41-.89,3.3,3.3,0,0,0,2.9-.51c1.1-1-.53-1.69-.53-1.69s1.51-.45.76-1.34c-.91-1.09-2.83.13-2.83.13s-.41-1.56-2.33-.91-.9,1.65-.9,1.65-2.54,0-2.39,1.28,1.82.76,1.82.76S129.49,677.33,131.11,677.65Z"/><path class="cls-29" d="M336.1,665.47a2.82,2.82,0,0,0,2.8-.1,3.43,3.43,0,0,0,3.1.4c1.59-.66.31-1.85.31-1.85s1.67,0,1.36-1.08c-.39-1.37-2.85-.75-2.85-.75s.34-1.7-1.85-1.64-1.7,1.34-1.7,1.34-2.49-.79-3,.5,1.44,1.33,1.44,1.33S334.68,664.63,336.1,665.47Z"/><path class="cls-30" d="M1611,600.05c-133.33-25.17-342.67-39.23-493.11-7.25C928.87,633,834.73,634,787.36,628S621,557,493,542c-137.87-6.63-367.67,7.67-501,32.84V776l1291.42-12.81c-39.86-9.85-108.17-29.71-191.31-53.31L1611,801.21Z"/><path class="cls-31" d="M1103.92,681.9a2.63,2.63,0,0,0,2.64-.71,3.42,3.42,0,0,0,3.08-.3c1.28-1-.3-1.83-.3-1.83s1.62-.33,1-1.34c-.8-1.23-3-.1-3-.1s-.19-1.67-2.26-1.14-1.21,1.65-1.21,1.65-2.61-.2-2.66,1.13,1.79,1,1.79,1S1102.29,681.43,1103.92,681.9Z"/><path class="cls-31" d="M1218.8,678.28a2.48,2.48,0,0,0,2.52,0,3.11,3.11,0,0,0,2.77.5c1.46-.55.37-1.66.37-1.66s1.53.1,1.31-.92c-.25-1.26-2.53-.81-2.53-.81s.42-1.5-1.56-1.54-1.61,1.15-1.61,1.15-2.2-.81-2.71.34,1.23,1.25,1.23,1.25A1,1,0,0,0,1218.8,678.28Z"/><path class="cls-31" d="M1116.31,672.43a2.05,2.05,0,0,0,2.06-.69,2.78,2.78,0,0,0,2.44-.38c1-.85-.38-1.44-.38-1.44s1.27-.35.68-1.1c-.72-1-2.37,0-2.37,0s-.27-1.32-1.88-.8-.83,1.37-.83,1.37-2.12,0-2,1,1.49.68,1.49.68S1115,672.14,1116.31,672.43Z"/><path class="cls-31" d="M1014.76,679a2.34,2.34,0,0,0,2.4.22,3,3,0,0,0,2.62.7c1.43-.42.49-1.59.49-1.59s1.44.23,1.31-.78c-.15-1.24-2.35-1-2.35-1s.51-1.42-1.38-1.64-1.62,1-1.62,1-2.05-1-2.61.1,1.06,1.33,1.06,1.33A.94.94,0,0,0,1014.76,679Z"/><path class="cls-31" d="M1181,671.8a2.92,2.92,0,0,0,3-.34,3.64,3.64,0,0,0,3.34.16c1.59-.85.12-2,.12-2s1.8-.11,1.36-1.28c-.51-1.46-3.1-.57-3.1-.57s.22-1.84-2.1-1.6-1.67,1.59-1.67,1.59-2.74-.63-3.13.81,1.66,1.3,1.66,1.3S1179.34,671.05,1181,671.8Z"/><path class="cls-31" d="M1198.34,668.71a1.82,1.82,0,0,0,1.84-.67,2.49,2.49,0,0,0,2.2-.4c.86-.79-.38-1.3-.38-1.3s1.14-.34.58-1c-.69-.84-2.14.11-2.14.11s-.3-1.21-1.76-.7S1198,666,1198,666s-1.92,0-1.83,1,1.38.57,1.38.57S1197.12,668.46,1198.34,668.71Z"/><path class="cls-31" d="M1031.77,672a1.74,1.74,0,0,0,1.72-.92,2.51,2.51,0,0,0,2.16-.67c.66-.89-.7-1.24-.7-1.24s1.09-.49.38-1.09c-.89-.75-2.16.38-2.16.38a1.31,1.31,0,0,0-1.91-.46c-1.34.69-.44,1.35-.44,1.35s-1.94.26-1.64,1.2,1.52.41,1.52.41S1030.48,672,1031.77,672Z"/><path class="cls-31" d="M1151.41,683.33a2.7,2.7,0,0,0,2.76-.75,3.7,3.7,0,0,0,3.25-.29c1.31-1-.36-1.91-.36-1.91s1.68-.34,1-1.38c-.84-1.29-3.11-.12-3.11-.12s-.23-1.75-2.4-1.2-1.21,1.72-1.21,1.72-2.76-.21-2.78,1.19,1.88,1,1.88,1S1149.71,682.83,1151.41,683.33Z"/><path class="cls-31" d="M1044,671.37a1.62,1.62,0,0,0,1.64-.22,2.07,2.07,0,0,0,1.85.06c.86-.48,0-1.1,0-1.1s1-.08.71-.72-1.75-.28-1.75-.28,0-1-1.24-.85-.86.88-.86.88-1.55-.32-1.7.47,1,.7,1,.7S1043.06,671,1044,671.37Z"/><path class="cls-31" d="M1133.61,679a1.81,1.81,0,0,0,1.82-.85,2.6,2.6,0,0,0,2.24-.58c.76-.88-.57-1.31-.57-1.31s1.13-.44.46-1.09c-.82-.81-2.22.27-2.22.27a1.31,1.31,0,0,0-1.91-.56c-1.41.63-.56,1.36-.56,1.36s-2,.17-1.76,1.15,1.5.49,1.5.49S1132.31,678.84,1133.61,679Z"/><path class="cls-31" d="M1036.46,650.1a2.33,2.33,0,0,0,2.39-.63,3.17,3.17,0,0,0,2.81-.28c1.17-.89-.28-1.66-.28-1.66s1.48-.3.9-1.21c-.72-1.13-2.7-.1-2.7-.1s-.15-1.52-2-1-1.11,1.5-1.11,1.5-2.37-.18-2.43,1,1.64.87,1.64.87S1035,649.68,1036.46,650.1Z"/><path class="cls-31" d="M1135.58,654.1a2.26,2.26,0,0,0,2.29,0,2.82,2.82,0,0,0,2.52.46c1.32-.5.34-1.51.34-1.51s1.38.1,1.19-.83c-.24-1.15-2.3-.74-2.3-.74s.37-1.37-1.42-1.4-1.47,1-1.47,1-2-.74-2.46.31,1.12,1.13,1.12,1.13A.88.88,0,0,0,1135.58,654.1Z"/><path class="cls-31" d="M1047.91,644.27a1.89,1.89,0,0,0,1.88-.63,2.55,2.55,0,0,0,2.22-.35c.86-.77-.35-1.31-.35-1.31s1.15-.31.62-1c-.66-.86-2.16,0-2.16,0s-.25-1.2-1.71-.73-.75,1.24-.75,1.24-1.93,0-1.87,1,1.35.61,1.35.61S1046.71,644,1047.91,644.27Z"/><path class="cls-31" d="M1003.57,658.27a2.14,2.14,0,0,0,2.19.2,2.7,2.7,0,0,0,2.39.64c1.29-.38.44-1.44.44-1.44s1.31.2,1.19-.72c-.14-1.12-2.14-.89-2.14-.89s.46-1.29-1.25-1.48-1.48.91-1.48.91-1.85-.89-2.38.08,1,1.21,1,1.21A.86.86,0,0,0,1003.57,658.27Z"/><path class="cls-31" d="M1098,654.86a2.7,2.7,0,0,0,2.73-.32,3.39,3.39,0,0,0,3.07.16c1.47-.78.12-1.86.12-1.86s1.64-.1,1.24-1.17c-.47-1.34-2.85-.52-2.85-.52s.21-1.69-1.92-1.48-1.55,1.47-1.55,1.47-2.51-.57-2.86.73,1.53,1.21,1.53,1.21S1096.53,654.16,1098,654.86Z"/><path class="cls-31" d="M1115.69,644.66a1.69,1.69,0,0,0,1.68-.61,2.26,2.26,0,0,0,2-.37c.78-.72-.35-1.19-.35-1.19s1-.31.53-.92c-.63-.77-2,.09-2,.09s-.26-1.09-1.58-.63-.66,1.15-.66,1.15-1.75,0-1.66.9,1.26.52,1.26.52S1114.58,644.43,1115.69,644.66Z"/><path class="cls-31" d="M972.63,655.89a1.69,1.69,0,0,0,1.73-.56,2.34,2.34,0,0,0,2.06-.28c.79-.69-.34-1.21-.34-1.21s1.07-.27.58-.92-2,0-2,0-.24-1.11-1.6-.71-.68,1.14-.68,1.14-1.79,0-1.73.83,1.27.59,1.27.59S971.51,655.62,972.63,655.89Z"/><path class="cls-31" d="M1076.12,648.42a1.44,1.44,0,0,0,1.47-.4,2,2,0,0,0,1.72-.16c.7-.54-.19-1-.19-1s.9-.18.52-.73-1.65-.07-1.65-.07-.13-.93-1.27-.64-.65.91-.65.91-1.47-.1-1.47.64,1,.52,1,.52S1075.21,648.15,1076.12,648.42Z"/><path class="cls-31" d="M985.24,650.81a1.43,1.43,0,0,0,1.49-.2,1.88,1.88,0,0,0,1.69.06c.77-.43,0-1,0-1s.91-.07.65-.64-1.6-.27-1.6-.27,0-.91-1.13-.77-.78.8-.78.8-1.41-.29-1.55.44.88.63.88.63S984.4,650.45,985.24,650.81Z"/><path class="cls-31" d="M1062.09,651.33a1.81,1.81,0,0,0,1.84-.37,2.4,2.4,0,0,0,2.13-.06c.93-.61-.12-1.26-.12-1.26s1.13-.15.74-.86c-.48-.87-2-.21-2-.21s-.05-1.14-1.51-.88-.89,1.07-.89,1.07-1.8-.26-1.88.65,1.17.73,1.17.73S1061,650.92,1062.09,651.33Z"/><path class="cls-29" d="M1458.94,728.62a3.41,3.41,0,0,1-3.4-1.5s-2.65.59-4.13-1,1-2.45,1-2.45-2.13-.79-1-2c1.45-1.52,4.09.47,4.09.47s.74-2.25,3.43-1.11,1.15,2.52,1.15,2.52,3.65.24,3.32,2.09-2.73.94-2.73.94S1461.32,728.31,1458.94,728.62Z"/><path class="cls-29" d="M1298.57,708.51a3.41,3.41,0,0,1-3.47-.48,4.42,4.42,0,0,1-3.94.1c-1.83-1,0-2.34,0-2.34s-2.13-.16-1.53-1.52c.73-1.67,3.7-.59,3.7-.59s-.11-2.14,2.61-1.79,1.86,1.89,1.86,1.89,3.26-.66,3.61,1-2.05,1.46-2.05,1.46S1300.51,707.67,1298.57,708.51Z"/><path class="cls-29" d="M1430.39,725.86a2.67,2.67,0,0,1-2.61-1.38s-2.17.34-3.24-1,1-1.91,1-1.91-1.64-.72-.61-1.64c1.28-1.15,3.22.56,3.22.56a1.92,1.92,0,0,1,2.84-.72c2,1,.72,2,.72,2s2.91.39,2.5,1.83-2.25.62-2.25.62S1432.29,725.72,1430.39,725.86Z"/><path class="cls-29" d="M1532.34,743.21A3.27,3.27,0,0,1,1529,743a4.31,4.31,0,0,1-3.8.42c-1.84-.87-.2-2.28-.2-2.28s-2,0-1.55-1.33c.56-1.68,3.5-.88,3.5-.88s-.27-2,2.37-1.94,1.93,1.69,1.93,1.69,3.09-.92,3.55.67-1.85,1.61-1.85,1.61S1534.15,742.24,1532.34,743.21Z"/><path class="cls-29" d="M1362.49,707.72a3.9,3.9,0,0,1-4-1.08s-2.68,1.08-4.62-.45.43-2.79.43-2.79-2.43-.52-1.48-2c1.13-1.9,4.41-.15,4.41-.15s.24-2.57,3.35-1.78,1.83,2.54,1.83,2.54,3.93-.31,4,1.73-2.66,1.46-2.66,1.46S1364.91,707,1362.49,707.72Z"/><path class="cls-29" d="M1338.6,701.84a2.41,2.41,0,0,1-2.33-1.29s-2,.27-2.89-1,.91-1.71.91-1.71-1.46-.68-.49-1.5c1.19-1,2.9.58,2.9.58a1.76,1.76,0,0,1,2.61-.6c1.83,1,.61,1.88.61,1.88s2.62.41,2.21,1.72-2.06.51-2.06.51S1340.34,701.75,1338.6,701.84Z"/><path class="cls-29" d="M1550,748.75a2.21,2.21,0,0,1-2.09-1.61s-2.06,0-2.75-1.35,1.32-1.56,1.32-1.56-1.34-.9-.2-1.58c1.43-.83,2.85,1,2.85,1a1.89,1.89,0,0,1,2.75-.25c1.63,1.22.21,1.94.21,1.94s2.58.76,1.88,2-2.21.24-2.21.24S1551.82,748.9,1550,748.75Z"/><path class="cls-29" d="M1399,732.59a3.52,3.52,0,0,1-3.55-1.61s-2.82.64-4.37-1.05,1.06-2.53,1.06-2.53-2.19-.83-.94-2.1c1.55-1.59,4.3.47,4.3.47s.84-2.34,3.64-1.16,1.14,2.61,1.14,2.61,3.86.27,3.47,2.19-2.88,1-2.88,1S1401.5,732.24,1399,732.59Z"/><path class="cls-29" d="M1580,739.65a2.12,2.12,0,0,1-2.17-.63,2.92,2.92,0,0,1-2.57-.3c-1-.83.33-1.51.33-1.51s-1.35-.31-.76-1.12c.71-1,2.49,0,2.49,0s.23-1.39,1.94-.91.92,1.38.92,1.38,2.22-.11,2.18,1-1.51.77-1.51.77S1581.37,739.29,1580,739.65Z"/><path class="cls-29" d="M1438.55,714a2.31,2.31,0,0,1-2.24-1.53s-2.09.11-2.89-1.26,1.17-1.68,1.17-1.68-1.43-.83-.31-1.59c1.36-.93,3,.85,3,.85a1.88,1.88,0,0,1,2.78-.39c1.75,1.16.36,2,.36,2s2.68.64,2.07,2-2.19.36-2.19.36S1440.38,714.09,1438.55,714Z"/><path class="cls-29" d="M1391.62,694a2.78,2.78,0,0,1-2.83-.4,3.61,3.61,0,0,1-3.22.08c-1.49-.84,0-1.91,0-1.91s-1.73-.13-1.24-1.23c.59-1.36,3-.49,3-.49s-.1-1.74,2.12-1.46,1.52,1.55,1.52,1.55,2.66-.54,3,.83-1.68,1.18-1.68,1.18S1393.2,693.29,1391.62,694Z"/><path class="cls-29" d="M1579.86,708.71a2.43,2.43,0,0,1-2.38-1.25s-2,.3-2.94-.93.87-1.73.87-1.73-1.49-.66-.56-1.5c1.16-1,3,.51,3,.51a1.71,1.71,0,0,1,2.56-.65c1.86.94.66,1.86.66,1.86s2.64.36,2.28,1.67-2,.57-2,.57S1581.6,708.57,1579.86,708.71Z"/><path class="cls-29" d="M1557.44,715.74a2.2,2.2,0,0,0,2.29-.12,3,3,0,0,0,2.6.29c1.25-.59.13-1.55.13-1.55s1.4,0,1.07-.92c-.39-1.14-2.4-.59-2.4-.59s.19-1.4-1.61-1.33-1.33,1.15-1.33,1.15-2.1-.62-2.41.46,1.26,1.09,1.26,1.09S1556.2,715.08,1557.44,715.74Z"/><path class="cls-29" d="M1514.78,712.14a3.55,3.55,0,0,1-3.63-1s-2.46,1-4.25-.42.38-2.57.38-2.57-2.22-.48-1.35-1.85c1-1.74,4.06-.14,4.06-.14s.21-2.35,3.07-1.63,1.68,2.33,1.68,2.33,3.61-.27,3.7,1.59-2.44,1.33-2.44,1.33S1517,711.49,1514.78,712.14Z"/><path class="cls-29" d="M1436,683.06a2.55,2.55,0,0,1-2.55-.08,3.12,3.12,0,0,1-2.82.38c-1.44-.6-.27-1.69-.27-1.69s-1.54.05-1.25-1c.33-1.25,2.58-.71,2.58-.71s-.33-1.52,1.67-1.49,1.55,1.21,1.55,1.21,2.26-.73,2.7.44-1.3,1.23-1.3,1.23S1437.24,682.29,1436,683.06Z"/><path class="cls-29" d="M1521,698.69a1.86,1.86,0,0,1-1.89-.85,2.67,2.67,0,0,1-2.32-.55c-.79-.88.56-1.35.56-1.35s-1.16-.44-.48-1.11c.8-.86,2.27.25,2.27.25a1.33,1.33,0,0,1,1.94-.62c1.46.63.6,1.39.6,1.39s2.06.14,1.84,1.17-1.53.5-1.53.5S1522.31,698.51,1521,698.69Z"/><path class="cls-29" d="M1487.89,702.86a2.36,2.36,0,0,1-2.41-.89,3.3,3.3,0,0,1-2.9-.51c-1.1-1,.53-1.69.53-1.69s-1.51-.45-.76-1.34c.91-1.09,2.83.13,2.83.13s.41-1.56,2.33-.91.9,1.65.9,1.65,2.54,0,2.39,1.28-1.82.76-1.82.76S1489.51,702.54,1487.89,702.86Z"/><path class="cls-29" d="M1282.9,690.68a2.82,2.82,0,0,1-2.8-.1,3.43,3.43,0,0,1-3.1.4c-1.59-.66-.31-1.85-.31-1.85s-1.67,0-1.36-1.08c.39-1.37,2.85-.75,2.85-.75s-.34-1.7,1.85-1.64,1.7,1.33,1.7,1.33,2.49-.78,3,.51-1.44,1.33-1.44,1.33S1284.32,689.84,1282.9,690.68Z"/><path class="cls-32" d="M-32.73,689.23S17.91,630.32,87,648.47s148.87,1.94,176,14.22c27.33,12.37,193.22-25.3,376,31.77,201.73,63,248.13,11.29,411-5,0,0,146-22.3,152-15.05s150.06-9.06,167-15.89,182.21-2.31,200,8.36S1656,677,1656,677V850H-36.92Z"/><path class="cls-33" d="M-56,741.4s148.61-7.48,157-4.87,186.33,20.17,179,27.13,155.41,0,201.84,9.74,54,8.34,55,25,105.8,20.87,150,19.48,71.67-14.81,110.74.25S997,820.7,1035,805.4s11.56-37.57,94.4-34.79,112.86-34.43,148.25-38.77C1454,710.17,1404.54,750.61,1618,745.57L1615.83,900h-1690Z"/><path class="cls-31" d="M515.08,656.69a2.63,2.63,0,0,1-2.64-.71,3.42,3.42,0,0,1-3.08-.3c-1.28-1,.3-1.83.3-1.83s-1.62-.33-1-1.33c.8-1.24,3-.11,3-.11s.19-1.67,2.26-1.14,1.21,1.65,1.21,1.65,2.61-.2,2.66,1.13-1.79,1-1.79,1S516.71,656.22,515.08,656.69Z"/><path class="cls-31" d="M400.2,653.07a2.48,2.48,0,0,1-2.52,0,3.11,3.11,0,0,1-2.77.5c-1.46-.55-.37-1.66-.37-1.66s-1.53.1-1.31-.92c.25-1.26,2.53-.81,2.53-.81s-.42-1.5,1.56-1.54,1.61,1.15,1.61,1.15,2.2-.81,2.71.34-1.23,1.25-1.23,1.25A1,1,0,0,1,400.2,653.07Z"/><path class="cls-31" d="M502.69,647.23a2.07,2.07,0,0,1-2.06-.7,2.78,2.78,0,0,1-2.44-.38c-1-.85.38-1.44.38-1.44s-1.27-.35-.68-1.1c.72-1,2.37,0,2.37,0s.27-1.32,1.88-.8.83,1.37.83,1.37,2.12,0,2,1-1.49.68-1.49.68S504,646.93,502.69,647.23Z"/><path class="cls-31" d="M604.24,653.81a2.34,2.34,0,0,1-2.4.22,3,3,0,0,1-2.62.7c-1.43-.42-.49-1.59-.49-1.59s-1.44.23-1.31-.78c.15-1.24,2.35-1,2.35-1s-.51-1.42,1.38-1.63,1.62,1,1.62,1,2.05-1,2.61.1-1.06,1.33-1.06,1.33A.94.94,0,0,1,604.24,653.81Z"/><path class="cls-31" d="M438.05,646.59a2.92,2.92,0,0,1-3-.34,3.64,3.64,0,0,1-3.34.16c-1.59-.85-.12-2-.12-2s-1.8-.11-1.36-1.28c.51-1.46,3.1-.57,3.1-.57s-.22-1.84,2.1-1.6,1.67,1.59,1.67,1.59,2.74-.63,3.13.81-1.66,1.3-1.66,1.3S439.66,645.84,438.05,646.59Z"/><path class="cls-31" d="M420.66,643.5a1.82,1.82,0,0,1-1.84-.67,2.49,2.49,0,0,1-2.2-.4c-.86-.79.38-1.3.38-1.3s-1.14-.34-.58-1c.69-.84,2.14.11,2.14.11s.3-1.21,1.76-.7.71,1.26.71,1.26,1.92,0,1.83,1-1.38.57-1.38.57S421.88,643.25,420.66,643.5Z"/><path class="cls-31" d="M587.23,646.82a1.74,1.74,0,0,1-1.72-.92,2.51,2.51,0,0,1-2.16-.67c-.66-.89.7-1.24.7-1.24s-1.09-.49-.38-1.09c.89-.75,2.16.38,2.16.38a1.31,1.31,0,0,1,1.91-.46c1.34.69.44,1.35.44,1.35s1.94.26,1.64,1.2-1.52.41-1.52.41S588.52,646.74,587.23,646.82Z"/><path class="cls-31" d="M467.59,658.12a2.7,2.7,0,0,1-2.76-.75,3.7,3.7,0,0,1-3.25-.29c-1.31-1,.36-1.91.36-1.91s-1.68-.34-1-1.38c.84-1.29,3.11-.12,3.11-.12s.23-1.75,2.4-1.2,1.21,1.72,1.21,1.72,2.76-.21,2.78,1.19-1.88,1-1.88,1S469.29,657.62,467.59,658.12Z"/><path class="cls-31" d="M575,646.16a1.62,1.62,0,0,1-1.64-.22,2.07,2.07,0,0,1-1.85.06c-.86-.48,0-1.1,0-1.1s-1-.08-.71-.72,1.75-.28,1.75-.28,0-1,1.24-.85.86.88.86.88,1.55-.32,1.7.47-1,.7-1,.7S575.94,645.76,575,646.16Z"/><path class="cls-31" d="M485.39,653.78a1.81,1.81,0,0,1-1.82-.85,2.6,2.6,0,0,1-2.24-.58c-.76-.88.57-1.31.57-1.31s-1.13-.44-.46-1.09c.82-.81,2.22.27,2.22.27a1.31,1.31,0,0,1,1.91-.56c1.41.63.56,1.36.56,1.36s2,.17,1.76,1.15-1.5.49-1.5.49S486.69,653.63,485.39,653.78Z"/><path class="cls-31" d="M582.54,624.89a2.33,2.33,0,0,1-2.39-.63,3.17,3.17,0,0,1-2.81-.28c-1.17-.89.28-1.66.28-1.66s-1.48-.3-.9-1.21c.72-1.12,2.7-.1,2.7-.1s.15-1.52,2-1,1.11,1.5,1.11,1.5,2.37-.18,2.43,1-1.64.87-1.64.87S584,624.47,582.54,624.89Z"/><path class="cls-31" d="M483.42,628.89a2.26,2.26,0,0,1-2.29,0,2.82,2.82,0,0,1-2.52.46c-1.32-.5-.34-1.51-.34-1.51s-1.38.1-1.19-.83c.24-1.15,2.3-.74,2.3-.74s-.37-1.37,1.42-1.4,1.47,1,1.47,1,2-.74,2.46.31-1.12,1.13-1.12,1.13A.88.88,0,0,1,483.42,628.89Z"/><path class="cls-31" d="M571.09,619.06a1.89,1.89,0,0,1-1.88-.63,2.51,2.51,0,0,1-2.22-.35c-.86-.77.35-1.31.35-1.31s-1.15-.31-.62-1c.66-.86,2.16.05,2.16.05s.25-1.2,1.71-.73.75,1.25.75,1.25,1.93,0,1.87.94-1.35.61-1.35.61S572.29,618.79,571.09,619.06Z"/><path class="cls-31" d="M615.43,633.06a2.14,2.14,0,0,1-2.19.2,2.7,2.7,0,0,1-2.39.64c-1.29-.38-.44-1.44-.44-1.44s-1.31.21-1.19-.72c.14-1.12,2.14-.89,2.14-.89s-.46-1.29,1.25-1.48,1.48.91,1.48.91,1.85-.89,2.38.08-1,1.21-1,1.21A.86.86,0,0,1,615.43,633.06Z"/><path class="cls-31" d="M521,629.65a2.7,2.7,0,0,1-2.73-.32,3.39,3.39,0,0,1-3.07.16c-1.47-.78-.12-1.86-.12-1.86s-1.64-.1-1.24-1.17c.47-1.34,2.85-.52,2.85-.52s-.21-1.69,1.92-1.48,1.55,1.47,1.55,1.47,2.51-.57,2.86.73-1.53,1.21-1.53,1.21S522.47,629,521,629.65Z"/><path class="cls-31" d="M503.31,619.45a1.69,1.69,0,0,1-1.68-.61,2.26,2.26,0,0,1-2-.37c-.78-.72.35-1.18.35-1.18s-1-.32-.53-.93c.63-.77,2,.09,2,.09s.26-1.09,1.58-.63.66,1.15.66,1.15,1.75,0,1.66.9-1.26.52-1.26.52S504.42,619.22,503.31,619.45Z"/><path class="cls-31" d="M646.37,630.68a1.69,1.69,0,0,1-1.73-.56,2.34,2.34,0,0,1-2.06-.28c-.79-.69.34-1.21.34-1.21s-1.07-.27-.58-.92,2,0,2,0,.24-1.11,1.6-.71.68,1.14.68,1.14,1.79,0,1.73.83-1.27.59-1.27.59S647.49,630.41,646.37,630.68Z"/><path class="cls-31" d="M542.88,623.21a1.44,1.44,0,0,1-1.47-.4,2,2,0,0,1-1.72-.16c-.7-.54.19-1,.19-1s-.9-.18-.52-.73,1.65-.07,1.65-.07.13-.93,1.27-.64.65.91.65.91,1.47-.1,1.47.64-1,.52-1,.52S543.79,622.94,542.88,623.21Z"/><path class="cls-31" d="M633.76,625.61a1.45,1.45,0,0,1-1.49-.21,1.85,1.85,0,0,1-1.69.06c-.77-.43,0-1,0-1s-.91-.07-.65-.64c.33-.72,1.6-.27,1.6-.27s0-.91,1.13-.77.78.8.78.8,1.41-.29,1.55.44-.88.64-.88.64S634.6,625.24,633.76,625.61Z"/><path class="cls-31" d="M556.91,626.12a1.81,1.81,0,0,1-1.84-.37,2.4,2.4,0,0,1-2.13-.06c-.93-.61.12-1.26.12-1.26s-1.13-.15-.74-.86c.48-.87,2-.21,2-.21s0-1.14,1.51-.88.89,1.07.89,1.07,1.8-.26,1.88.65-1.17.73-1.17.73S558,625.71,556.91,626.12Z"/><path class="cls-3" d="M377.34,80.89c-16.25,6.51-17.53,16-17.53,16s-2.14,9,17.95,12c33.41,5,45.93-.12,51.74-4,3-2,6-19-8.13-26.54a35.09,35.09,0,0,0-16.86-4.24c-8.56,0-17.41,2.83-27.17,6.75"/><g class="cls-34"><polygon class="cls-35" points="339.18 94.05 396.55 32.3 453.97 94.02 396.6 155.77 339.18 94.05"/></g><path class="cls-4" d="M412.22,99.14c-11.52,3.86-12.43,9.5-12.43,9.5s-1.52,5.35,12.74,7.13c23.69,3,32.57-.07,36.69-2.37,2.13-1.19,4.25-11.29-5.76-15.74a28.77,28.77,0,0,0-12-2.52c-6.08,0-12.35,1.68-19.28,4"/><g class="cls-36"><polygon class="cls-37" points="385.15 106.95 425.85 70.33 466.59 106.93 425.89 143.55 385.15 106.95"/></g><g class="cls-38"><polygon class="cls-39" points="-52.91 228.69 31.98 145.4 140.86 218.87 55.98 302.15 -52.91 228.69"/></g><g class="cls-40"><polygon class="cls-41" points="-48.35 200.24 -0.78 138.66 60.24 192.98 12.67 254.57 -48.35 200.24"/></g><path class="cls-5" d="M1319.37,61.52c-31.74,12.09-34.24,29.77-34.24,29.77S1281,108,1320.2,113.61c65.25,9.28,89.69-.22,101-7.44,5.85-3.72,11.69-35.34-15.86-49.3A71.37,71.37,0,0,0,1372.44,49c-16.73,0-34,5.25-53.07,12.52"/><g class="cls-42"><polygon class="cls-43" points="1249.41 85.97 1356.89 -40.01 1464.47 85.92 1357 211.9 1249.41 85.97"/></g><path class="cls-6" d="M1276.07,89.73c-14.84,5.89-16,14.51-16,14.51s-2,8.16,16.4,10.88c30.51,4.53,42-.1,47.25-3.62,2.74-1.82,5.47-17.24-7.42-24a32.26,32.26,0,0,0-15.4-3.84c-7.82,0-15.9,2.57-24.82,6.11"/><g class="cls-44"><polygon class="cls-45" points="1243.36 101.65 1293.62 40.23 1343.93 101.62 1293.67 163.04 1243.36 101.65"/></g><path class="cls-46" d="M1303.42,261.45c-206.55,4.69-231-38.59-231-38.59s191.44,74.88,453.74-37.62C1738.27,94.29,1671.65,205.14,1303.42,261.45Z"/><path class="cls-47" d="M1800.93,85c-162.44,31.11-268,80.32-328.16,99.75s-122.14,22.06-122.14,22.06c87.09-4.66,241-93,284.35-110.69C1984.29-53.73,1993.7,48.09,1800.93,85Z"/><g class="cls-48"><path class="cls-49" d="M-657,268C-692.6,263.11-331.79,113.25,84,132.59c238,11.07,329.24,90.83,547.86,86.85s242.32-40.53,242.32-40.53-204,79-481.58-13.74a1257.51,1257.51,0,0,0-271.5-58.47C-405.33,53.55-794,251.57-794,251.57Z"/><path class="cls-50" d="M-671.73,142.05C-693.58,124-197.46,53.51,52.09,81.5c210.3,23.59,348.67,67.89,427,84.53s158,16.41,158,16.41c-112-.64-314.76-81.8-371.45-97.48C-191.42-48.64-793.8,133.31-793.8,133.31Z"/></g><path class="cls-51" d="M355.41,680.64C353.32,631,232.7,591,84.18,591-65.64,591-191.19,633.67-182,780.75c2.08,33.21,52.49,19,129.84,5.57C-14.95,821.67,85.55,847,203.72,847c149.83,0,271.28-40.72,271.28-91C475,724.66,427.56,697,355.41,680.64Z"/><path class="cls-52" d="M419.93,701.11C407.76,747.57,291.44,784,149.72,784c-118.17,0-218.67-25.33-255.87-60.68-28.84,5-53.92,10.1-74.16,12.83a209.16,209.16,0,0,0-1.68,44.6c2.08,33.21,52.49,19,129.84,5.57C-14.95,821.67,85.55,847,203.72,847c149.83,0,271.28-40.72,271.28-91C475,735.41,454.49,716.38,419.93,701.11Z"/><path class="cls-52" d="M330.76,644S327,737,37,711c0,0,208.34,36.09,320.17-30C357.17,681.05,358.51,651,330.76,644Z"/><path class="cls-53" d="M357,686s48,11,53,19c0,0-31.93,63-232.09,68.74-5.81.17-6.79-8.25-1.09-9.4L233,753l-6.79-5.59a5.5,5.5,0,0,1,2.81-9.7C255.81,734.34,317.88,722.82,357,686Z"/><ellipse class="cls-54" cx="132" cy="645.5" rx="147" ry="45.5"/><path class="cls-51" d="M1725.18,643.07c-1.63-44.33-95.25-80.08-210.52-80.08-80.86,0-152.59,18.44-186.4,73.85-40.22,7.51-68.85,26.16-69.49,48.06-29,9.41-48.08,25.34-48.08,43.41,0,28.92,48.82,52.36,109,52.36,45.7,0,84.81-13.5,101-32.65,35.15,26,105.55,43.66,186.69,43.66,116.28,0,210.55-36.37,210.55-81.24C1818,682.39,1781.18,657.67,1725.18,643.07Z"/><path class="cls-52" d="M1605.75,758.65c-81.13,0-151.53-17.71-186.68-43.66-16.22,19.15-55.33,32.65-101,32.65-44.52,0-82.81-12.82-99.74-31.18-6,6.47-9.3,13.63-9.3,21.17,0,28.92,48.82,52.36,109,52.36,45.7,0,84.81-13.5,101-32.65,35.15,25.95,105.55,43.66,186.68,43.66,116.29,0,210.56-36.38,210.56-81.25,0-7.32-2.52-14.43-7.24-21.18C1784.93,733.18,1703.06,758.65,1605.75,758.65Z"/><path class="cls-53" d="M1308.06,644.35s-37.66,19.51-38.08,27.06c0,0,52.47,42.35,178-6.25,3.65-1.41,1.44-8.22-2.47-7.6L1407,663.62l2.32-6.15c1.28-3.37-1.82-7.61-5-6.81C1386.69,655.15,1344.52,662.64,1308.06,644.35Z"/><path class="cls-53" d="M1258.08,687.55s-33.42,13.57-33.83,21.13c0,0,48.13,54.52,173.63,5.93,3.65-1.42,2.21-9.94-1.69-9.32L1347.91,718l12.7-9.31c1.28-3.38-.23-4.19-3.38-3.39C1339.56,709.77,1272.53,711.22,1258.08,687.55Z"/><path class="cls-52" d="M1263,671.22s-6.52,9.5-4,13.74,57.6,30.49,115.2,11.86C1374.17,696.82,1279.64,698.13,1263,671.22Z"/><path class="cls-52" d="M1714.34,618.41c-3-.57-22.54,33.52-142.82,27.59,20,8.13,41.51,11.56,64.1,11.63a4.12,4.12,0,0,1,1.67,7.89c-23.37,10.09-71.44,24.17-142.34,12.75,0,0,0,0,0,0,9.38,2.36,150.55,36.36,231.59-34.85C1726.52,643.46,1720.79,619.63,1714.34,618.41Z"/><path class="cls-7" d="M1551.76,208.85c-21.47,9.59-23.16,23.62-23.16,23.62s-2.83,13.28,23.73,17.71c44.14,7.36,60.68-.17,68.36-5.9,4-3,7.91-28.05-10.73-39.12a42.54,42.54,0,0,0-22.29-6.25c-11.31,0-23,4.17-35.91,9.94"/><g class="cls-55"><polygon class="cls-56" points="1504.43 228.25 1577.15 128.28 1649.94 228.21 1577.22 328.17 1504.43 228.25"/></g><path class="cls-57" d="M1074.42,722.56l-.05,0Z"/><path class="cls-57" d="M146.67,711l0,0Z"/><path class="cls-57" d="M-60.81,782.43c81.56,11.92,108.62,31.62,106.42,34S75.82,850.25,199,829c31.44-5.42,54.19-7.54,71.07-7.67,41.91,10.68,56.71,22.21,55.07,24-2.2,2.39,30.21,33.8,153.4,12.56s113,8.09,139.17,10S714,860.84,714,860.84l-.2-6.85c128-21.59,114.17,7.62,141.43,9.65,26.22,1.94,96.24-7.11,96.24-7.11L950.14,814c17.75,7,24.35,12.76,23.22,14-2.2,2.4,30.21,33.8,153.4,12.57,47.8-8.24,75.51-8.86,93.06-6.43,20.58,7.59,28.18,14.11,27,15.43-2.2,2.39,30.21,33.79,153.4,12.56s113,8.09,139.17,10S1635.6,865,1635.6,865l-2.78-93s10.16-44.74,17.78-44.61-8-8.54-33.11,28.68c0,0-10.63-34.75-25.5-43.91,0,0,18.81,28.08,2,50.88,0,0-6.27-50.8-45.29-80.41,0,0,36.47,54.87,23.25,76.5,0,0-8.47-18.26-13.91-24.38,0,0,9.32,30.38.66,36.32,0,0-29-54.49-33.19-65,0,0,18.08,52.72,12,64.75,0,0-16.87-24.42-22.12-34.17,0,0,6.55,31.88,3.36,29.1-5.62-4.92-15.21-36.89-41.21-47.13,0,0,27.56,24,23.89,40.86,0,0-15.33-22-24-28.15,0,0,12.93,17.11,8.51,24.32,0,0-32.38-54.47-56.74-61,0,0,31.92,33.76,28.52,50.83l-5.56,14.62s-6.44-12.18-10.71-21.92c0,0-3.45-2.33-2.38,12.14,3,39.81,1.05-11.69-23.27-41.19,0,0,20.06,47.14,9.06,60.32,0,0-28-40.3-40.81-68.31,0,0,13.51,29.59,5.34,55.84-2.3-7.36-16.61-30.41-17.4-45.86,1.74-3.23,3.5-5.28,5.14-5.25,7.62.12-8-8.54-33.12,28.67,0,0-10.63-34.74-25.5-43.9,0,0,14,20.94,7,41.33-15-24.84-4.37-17.87-4.85,9.3-.69,1-5.46-49.8-45.47-80.16,0,0,36.47,54.87,23.25,76.5,0,0-8.47-18.26-13.9-24.39a123.45,123.45,0,0,1,3.68,16.71c-.71,4.84-1.8,11.93-3.14,19.4-1-1.92-8.6-16.18-16.29-31,1.2-16.79,3.07-33.36,5.45-39.06,0,0-5.57,13-11.4,27.51-17-33.34-11-27.54-2.44,6.1-2.82,7.12-5.53,14.2-7.51,19.89-12.46-18.91-11.28-19.17-10.7-16.28-2-5.58-4.17-10.36-6.26-12.34,0,0,7.6,16.22,5.07,33.69-6.2-11.2-16.49-32.69-36.94-40.74,0,0,27.06,23.52,24,40.39-.66-.91-16.54-22.31-24.08-27.68,0,0,5.81,7.69,8.31,14.93a76.77,76.77,0,0,1,.31,9.21c-.26.45-32.13-54.19-56.85-60.85,0,0,31.93,33.76,28.52,50.83l-5.56,14.62s-6.44-12.18-10.71-21.92c0,0-3.45-2.33-2.38,12.14,2.95,39.81,1.06-11.69-23.27-41.19,0,0,20.06,47.14,9.07,60.32,0,0-28-40.3-40.82-68.31,0,0,13.51,29.59,5.34,55.84-2.31-7.38-17.65-32.31-17.43-47.21,0,0-6.85,33.51-.48,59,0,0-3.12-12.46-23.66-24.65.38.26,3.27,2.94,4.11,24.4,0,0-24.8-29.36-34.42-51.88,0,0,7.47,18.86-.42,51.45,0,0-27.17-5.12-27.94-44.51,0,0-7,52.55-13.55,59.73,0,0-.88-25.76.33-40.11s-6,14.62-8,18.22.77-68.87,6.32-82.18c0,0-23.26,54.5-24.47,64.24,0,0-7.36-33.22-13.84-39.36,0,0,8.16,17.39,4.77,35.56-1.52-.06-4.68.55-9.13,3.21-3.34-5.8-9.48-13.9-20.8-24.15,0,0,4.32,4.5-.33,40.76,0,0-16.26-8.74-20.38-37.82-3.18,16.29,1.63,10-8.89,3.56a61,61,0,0,1,6.61,14.47c-.57,8-.61,17.18,1.06,24.78a32.24,32.24,0,0,1-1.1,3.32c-1.38.08-3.46.2-6,.37-3.48-15.46-14.25-50-43.81-72.48,0,0,34,51.08,24.46,74.1l-2.24.24c-2.42-5-8.59-17.4-12.87-22.22,0,0,3.88,12.66,4.3,23.24-3.3.43-6.59.91-9.8,1.44-8.75-16.61-24.06-45.94-27-53.37,0,0,12.75,37.21,13.24,56.24-2.1.56-4.06,1.15-5.81,1.78-5.39-8-14-21-17.53-27.44,0,0,6.56,31.88,3.37,29.1-5.63-4.92-15.21-36.88-41.21-47.13,0,0,27.55,24,23.88,40.86,0,0-15.33-22-24-28.15,0,0,12.93,17.11,8.52,24.32,0,0-32.38-54.46-56.75-61,0,0,31.93,33.76,28.52,50.83L768,751.58s-6.43-12.19-10.71-21.93c0,0-3.45-2.33-2.37,12.15,2.94,39.81,1.05-11.7-23.28-41.2,0,0,20.06,47.14,9.07,60.32,0,0-8.77-12.62-18.74-28.65,2.33-5.34,4.76-9.1,7-9.06,4.86.08.25-3.42-10.26,3.73-37.44-61.51-7.31-29.43-11.15,9.91-1.55,1.68-3.16,3.55-4.83,5.63-3.3-7-15.09-28.55-14.91-41.24a186.53,186.53,0,0,0-2.93,24.55c-4-7.41-9-14.39-14.54-17.8,0,0,12.82,19.14,7.83,38.65a69.59,69.59,0,0,0-10.93-8.8c-5.71-17.42-17.33-42-40.19-59.39,0,0,24.86,37.41,26.09,62.63-38.37-53.22-6.58-38.32-20.12,18.2-48.59-92-23.77-56.47-16.8-10.27-19.08-21.81-5.43-61.14-15.76-5.49-11.66-18.23-5.32-14-2.65,13-.36,1.6-.74,3.15-1.12,4.63-1.49-1.6-3.27-4.9-5.54-9.07.15-20.64,3-31.91-4.38-7.83-1.09-1.83-2.25-3.72-3.52-5.63.52-21.05,3-58.64,6.87-67.86,0,0-13.89,32.54-20.76,51.82a50.72,50.72,0,0,0-8.44-5.78c-2.62-8.84-6-18.18-9.11-21.16A69,69,0,0,1,557,714.86c-1.49-.62-1.32-.7.07.58a56.27,56.27,0,0,1,0,12.65c-1.85-1.51-1.37-1.21-.09.65A43.66,43.66,0,0,1,555,737.1c-11.4-16.63-31.21-42.29-47.45-46.67,0,0,12.14,12.85,20.65,26.69.47,5.39.4,14.83-1.58,31.18-2.12-4.22-4.73-9.57-6.82-14.34,0,0-2.83-1.91-2.57,8.5-4.47-5.86-9.33-15.18-11.32-29.29-2.87,14.66,2.16,8.62-11.76-8.26a215.37,215.37,0,0,1,9.36,27.94c-.53,8.74-.35,18.75,2,26.36,0,0-2.33.1-6.18.34-8.13-12.08-27.05-41-36.95-62.62,0,0,13.51,29.58,5.34,55.84-2.31-7.38-17.65-32.35-17.43-47.21,0,0-6.85,33.51-.48,59,0,0-2.54-10.13-18.09-21.05l-.14-4.6s10.16-44.74,17.78-44.61-8-8.54-33.12,28.68c0,0-10.63-34.75-25.5-43.91,0,0,13,19.38,7.74,39-4.48-8.85-2.22-6.65-.66,2.21a35.57,35.57,0,0,1-5.07,9.67s-6.28-50.8-45.3-80.41c0,0,36.48,54.88,23.25,76.5-2.8-6-9.63-19.57-13.9-24.38,0,0,9.32,30.38.66,36.33,0,0-4.69-8.82-10.57-20,1.18-18,3.15-36.77,5.71-42.91,0,0-6.24,14.61-12.42,30.05-28.39-54.81-12-31.52-4.26,10.83-1.94,5-3.72,9.82-5.08,13.81-2.66-3.94-5.92-8.84-8.95-13.53-2.33-7.18-5-13.84-7.6-16.27a62.17,62.17,0,0,1,3.25,9.39c-1.35-2.2-2.51-4.17-3.37-5.76,0,0,6.56,31.88,3.37,29.1-5.63-4.92-15.21-36.88-41.21-47.13,0,0,26.87,23.36,24,40.22-5.6-6.29-16.21-21.89-24.11-27.51,0,0,12.93,17.11,8.52,24.32,0,0-32.38-54.46-56.74-61,0,0,31.92,33.76,28.51,50.83L251,727s-6.43-12.19-10.71-21.93c0,0-3.45-2.33-2.37,12.15,2.94,39.8,1-11.7-23.28-41.2,0,0,20.06,47.14,9.07,60.32,0,0-28-40.3-40.82-68.31,0,0,13.52,29.59,5.35,55.84-2.31-7.36-17.66-32.34-17.44-47.21,0,0-6.84,33.51-.48,59,0,0-3.11-12.46-23.66-24.65.38.26,3.27,2.94,4.11,24.41,0,0-24.8-29.37-34.42-51.89,0,0,7.47,18.86-.41,51.45,0,0-27.18-5.11-27.95-44.5,0,0-7,52.54-13.55,59.73,0,0-.88-25.77.33-40.12s-6,14.62-8,18.23.77-68.88,6.32-82.19c0,0-23.26,54.5-24.47,64.24,0,0-7.35-33.22-13.84-39.35,0,0,12.85,27.37-.4,49.32,0,0,.1-12.2-24.76-34.7,0,0,4.32,4.49-.33,40.75,0,0-16.26-8.74-20.37-37.82,0,0-5.68,29-.38,46,0,0-64.25,2.83-75.23,13.59S-142.36,770.52-60.81,782.43Zm1420.25-30c-.12-4.15,6.86-30.13,12.16-40.51-1.37,7.79-5.48,35.21-.08,56.86C1371.52,768.77,1369.67,761.38,1359.44,752.42ZM962.16,731.88s0-2.08-1.71-6.1c2-4.16,4.07-6.91,6-6.88.29,0,.53,0,.76,0A41,41,0,0,1,962.16,731.88Zm-394.28-5a51,51,0,0,0-2.23,8.13s-1.5-6.78-3.74-14.77C563.73,722.08,565.8,724.34,567.88,726.84Z"/><g class="cls-58"><path class="cls-59" d="M165.14,566.84l8.6-.88-6.33-50.7s-.62-1.19-4.57-.85-4,1.73-4,1.73Z"/><path class="cls-59" d="M205.83,563.33l8.6-.88-6.33-50.7s-.61-1.18-4.56-.85-4,1.73-4,1.73Z"/><path class="cls-59" d="M87,568.13l7.78-.79L88,520.74s-.64-1.08-4.33-.69c-2.67.28-3.45,1.49-3.45,1.49Z"/><path class="cls-59" d="M126.51,565.31l8.08-.88-7-47.55s-.66-1.09-4.5-.67c-2.77.31-3.58,1.54-3.58,1.54Z"/><path class="cls-59" d="M47.61,570.19l7.5-1-6.37-44.31s-.6-1-4.17-.53c-2.58.35-3.33,1.53-3.33,1.53Z"/><path class="cls-59" d="M11.45,572.73l7.41-1-6.29-43.8s-.6-1-4.12-.52c-2.55.34-3.29,1.51-3.29,1.51Z"/><path class="cls-59" d="M231.19,519.73c-15.1.73-70.28,8.54-85.76,9.69C113.34,531.83,92.64,535,54,535c-20,0-57,4.78-63.94,3.33s-6.7-1.74-6.7-1.74,81.06-7.68,100.18-6.67c15.07.8,122.15-14.1,146.44-13.66Z"/><path class="cls-59" d="M222.92,538.38c-27.25,2.37-118.42,8.27-158.59,8.17-14.26,0-55,3.46-61.92,2.08s-.48-3.22-.48-3.22,75.85-5.35,94.84-4.22c18.68,1.11,103.72-9.25,124.47-7.23Z"/></g><g class="cls-58"><path class="cls-59" d="M279.71,561.05l-8.92.14.36-54s.49-1.32,4.58-1.46,4.34,1.32,4.34,1.32Z"/><path class="cls-59" d="M237.59,562.4l-8.93.14.37-54s.48-1.32,4.57-1.47,4.34,1.32,4.34,1.32Z"/><path class="cls-59" d="M360,552.73l-8.07.13,1.23-49.72s.52-1.22,4.35-1.27c2.78,0,3.72,1.14,3.72,1.14Z"/><path class="cls-59" d="M319.11,554.66l-8.39.08L312.21,504s.53-1.23,4.53-1.26c2.87,0,3.85,1.18,3.85,1.18Z"/><path class="cls-59" d="M400.56,550l-7.81-.13,1.17-47.28s.5-1.13,4.21-1.07c2.68,0,3.6,1.19,3.6,1.19Z"/><path class="cls-59" d="M437.92,548.22l-7.72-.13,1.16-46.73s.49-1.13,4.16-1.06c2.65,0,3.55,1.18,3.55,1.18Z"/><path class="cls-59" d="M206.34,519.79c15.55-1.11,73,.26,89-.45,33.19-1.44,54.77-.7,94.36-5.46,20.5-2.47,58.95-2,65.93-4.42s6.66-2.65,6.66-2.65-84,2-103.47,5.4c-15.35,2.7-126.88.31-151.72,3.78Z"/><path class="cls-59" d="M217.06,538.33c28.22-.88,122.36-6,163.5-11.05,14.62-1.8,56.8-3.17,63.71-5.47s.1-3.44.1-3.44-78.37,3.77-97.69,7.3c-19,3.48-107.42,3.13-128.43,7.81Z"/></g><g class="cls-58"><path class="cls-59" d="M1581.22,487.23l8.64.13-.35-51.09s-.47-1.25-4.43-1.38-4.2,1.25-4.2,1.25Z"/><path class="cls-59" d="M1503.42,479.36l7.82.12-1.2-47.06s-.5-1.15-4.21-1.19c-2.69,0-3.61,1.07-3.61,1.07Z"/><path class="cls-59" d="M1543,481.18l8.13.08-1.43-48.05s-.52-1.16-4.39-1.19c-2.79,0-3.74,1.11-3.74,1.11Z"/><path class="cls-59" d="M1464.1,476.79l7.57-.11-1.13-44.76s-.48-1.07-4.08-1c-2.6,0-3.49,1.13-3.49,1.13Z"/><path class="cls-59" d="M1427.9,475.09l7.48-.12-1.12-44.23s-.48-1.07-4-1c-2.57,0-3.44,1.11-3.44,1.11Z"/><path class="cls-59" d="M1652.33,448.18c-15.08-1-70.8.25-86.3-.42-32.16-1.37-53.08-.66-91.44-5.17-19.86-2.34-57.13-1.92-63.9-4.18s-6.45-2.51-6.45-2.51,81.4,1.86,100.28,5.11c14.87,2.55,123,.29,147,3.57Z"/><path class="cls-59" d="M1641.93,465.73c-27.34-.84-118.57-5.65-158.45-10.46-14.16-1.71-55-3-61.74-5.18s-.1-3.25-.1-3.25,75.95,3.57,94.68,6.91c18.43,3.29,104.1,3,124.46,7.39Z"/></g><path class="cls-60" d="M663.35,941.42s485.3-61.33,643.5-74.24,313.2-8.61,313.2-8.61v83.32Z"/></g></g><g id="SB_31_Bg_2"><g class="cls-61"><g id="BG"><path class="cls-62" d="M1776.74,339.83c-467.38,25.41,68.68-140.24,184.56-122.53,123.36,0,195.36-67.41,378.42-59.75s192.52,8,323.37-.6c171.48-36.7,593.37-10.39,677.74,88.37,7.66,27.13,206.81,358.72-168.51,248.07S1776.74,339.83,1776.74,339.83Z"/></g></g></g></svg>